<?xml version="1.0" encoding="UTF-8" standalone="no"?>
<svg xmlns:xlink="http://www.w3.org/1999/xlink" height="7.7px" width="22.45px" xmlns="http://www.w3.org/2000/svg">
  <g transform="matrix(1, 0, 0, 1, 0.0, 0.0)">
    <use height="7.7" transform="matrix(1.0, 0.0, 0.0, 1.0, 0.0, 0.0)" width="22.45" xlink:href="#shape0"/>
  </g>
  <defs>
    <g id="shape0" transform="matrix(1, 0, 0, 1, 0.0, 0.0)">
      <path d="M22.4 3.85 Q22.4 7.85 18.65 7.7 15.55 7.6 15.0 4.8 13.9 5.5 11.1 5.35 L8.05 4.95 Q7.6 8.0 4.05 7.4 0.0 6.7 0.0 3.45 0.0 2.5 0.65 1.4 1.6 0.0 3.15 0.0 6.7 0.0 7.75 1.75 L8.1 3.1 8.4 3.35 9.65 4.5 Q13.05 4.55 14.2 3.85 L14.9 3.45 Q14.95 0.5 18.15 0.5 21.25 0.5 22.15 2.15 22.6 3.0 22.4 3.85" fill="#33221b" fill-rule="evenodd" stroke="none"/>
    </g>
  </defs>
</svg>
