<?xml version="1.0" encoding="UTF-8" standalone="no"?>
<svg xmlns:xlink="http://www.w3.org/1999/xlink" height="77.45px" width="191.2px" xmlns="http://www.w3.org/2000/svg">
  <g transform="matrix(1, 0, 0, 1, 96.1, 37.35)">
    <use height="24.1" transform="matrix(1.0, 0.0, 0.0, 1.0, -31.0, 9.0)" width="124.95" xlink:href="#text0"/>
    <use height="43.2" transform="matrix(1.0, 0.0, 0.0, 1.0, -31.1, -28.1)" width="126.2" xlink:href="#sprite0"/>
  </g>
  <defs>
    <g id="sprite0" transform="matrix(1, 0, 0, 1, 64.35, 22.35)">
      <use height="33.45" transform="matrix(0.2442, 0.0, 0.0, 0.2442, -53.8927, -7.8509)" width="33.4" xlink:href="#sprite1"/>
      <use height="43.2" transform="matrix(1.0, 0.0, 0.0, 1.0, -64.3, -22.35)" width="126.15" xlink:href="#shape1"/>
    </g>
    <g id="sprite1" transform="matrix(1, 0, 0, 1, 16.35, 23.55)">
      <use height="25.4" transform="matrix(0.8077, 0.0, 0.0, 0.8077, -9.9866, -10.6327)" width="25.4" xlink:href="#shape0"/>
    </g>
    <g id="shape0" transform="matrix(1, 0, 0, 1, 12.55, 13.35)">
      <path d="M8.9 -9.4 Q12.5 -5.8 12.5 -0.65 12.5 4.45 8.9 8.1 5.25 11.7 0.15 11.7 -5.0 11.7 -8.6 8.1 -12.2 4.45 -12.2 -0.65 -12.2 -5.8 -8.6 -9.4 -5.0 -13.0 0.15 -13.0 5.25 -13.0 8.9 -9.4" fill="#ccffff" fill-opacity="0.49019608" fill-rule="evenodd" stroke="none"/>
      <path d="M8.9 -9.4 Q12.5 -5.8 12.5 -0.65 12.5 4.45 8.9 8.1 5.25 11.7 0.15 11.7 -5.0 11.7 -8.6 8.1 -12.2 4.45 -12.2 -0.65 -12.2 -5.8 -8.6 -9.4 -5.0 -13.0 0.15 -13.0 5.25 -13.0 8.9 -9.4" fill="none" stroke="#00ccff" stroke-linecap="round" stroke-linejoin="round" stroke-opacity="0.49019608" stroke-width="0.75"/>
      <path d="M8.05 -7.55 Q10.05 -4.8 10.05 -0.8 10.05 3.15 8.05 5.95 6.1 8.75 3.3 8.8 L2.65 8.75 Q4.25 8.1 5.55 6.25 7.5 3.5 7.5 -0.5 7.5 -4.45 5.55 -7.25 3.8 -9.7 1.4 -9.95 L3.3 -10.35 Q6.1 -10.35 8.05 -7.55" fill="#ffffff" fill-opacity="0.49019608" fill-rule="evenodd" stroke="none"/>
      <path d="M-7.6 -6.4 Q-7.6 -7.35 -6.95 -8.0 -6.3 -8.65 -5.35 -8.65 -4.4 -8.65 -3.75 -8.0 -3.1 -7.35 -3.1 -6.4 -3.1 -5.45 -3.75 -4.8 -4.4 -4.15 -5.35 -4.15 -6.3 -4.15 -6.95 -4.8 -7.6 -5.45 -7.6 -6.4" fill="#ffffff" fill-opacity="0.49019608" fill-rule="evenodd" stroke="none"/>
    </g>
    <g id="shape1" transform="matrix(1, 0, 0, 1, 64.3, 22.35)">
      <path d="M18.6 -11.25 Q27.95 -8.0 36.95 -3.9 L38.55 -3.2 40.95 -2.15 43.55 -0.8 45.8 0.75 47.15 2.4 Q47.55 3.25 47.15 4.05 46.95 4.4 45.55 4.95 L41.8 6.15 36.7 7.5 30.95 8.95 25.3 10.25 20.4 11.4 17.05 12.15 5.6 14.6 -6.05 16.45 -17.75 17.35 -29.4 16.85 -34.1 16.05 -37.05 15.05 Q-38.15 14.55 -38.65 14.1 L-39.3 13.3 Q-39.7 12.55 -40.35 12.25 -41.0 11.9 -41.75 11.7 L-43.15 11.15 -43.65 10.7 Q-43.95 10.45 -44.15 10.35 L-44.45 10.2 -44.95 10.0 -45.2 9.9 -51.45 10.6 -56.55 10.3 -59.95 9.65 -61.2 9.25 -62.9 8.1 -63.3 6.95 -63.1 6.05 -62.9 5.7 -54.2 4.3 Q-50.4 3.3 -47.95 2.25 L-44.6 0.45 Q-43.65 -0.3 -42.7 -2.05 L-40.7 -6.5 -38.25 -12.65 Q-37.2 -15.25 -35.7 -16.75 -34.25 -18.3 -32.8 -19.05 L-30.4 -20.0 -29.4 -20.2 -13.1 -19.25 Q-4.95 -18.15 3.0 -16.1 10.9 -14.0 18.6 -11.25" fill="#497028" fill-rule="evenodd" stroke="none"/>
      <path d="M18.6 -11.25 Q10.9 -14.0 3.0 -16.1 -4.95 -18.15 -13.1 -19.25 L-29.4 -20.2 -30.4 -20.0 -32.8 -19.05 Q-34.25 -18.3 -35.7 -16.75 -37.2 -15.25 -38.25 -12.65 L-40.7 -6.5 -42.7 -2.05 Q-43.65 -0.3 -44.6 0.45 L-47.95 2.25 Q-50.4 3.3 -54.2 4.3 L-62.9 5.7 -63.1 6.05 -63.3 6.95 -62.9 8.1 -61.2 9.25 -59.95 9.65 -56.55 10.3 -51.45 10.6 -45.2 9.9 -44.95 10.0 -44.45 10.2 -44.15 10.35 Q-43.95 10.45 -43.65 10.7 L-43.15 11.15 -41.75 11.7 Q-41.0 11.9 -40.35 12.25 -39.7 12.55 -39.3 13.3 L-38.65 14.1 Q-38.15 14.55 -37.05 15.05 L-34.1 16.05 -29.4 16.85 -17.75 17.35 -6.05 16.45 5.6 14.6 17.05 12.15 20.4 11.4 25.3 10.25 30.95 8.95 36.7 7.5 41.8 6.15 45.55 4.95 Q46.95 4.4 47.15 4.05 47.55 3.25 47.15 2.4 L45.8 0.75 43.55 -0.8 40.95 -2.15 38.55 -3.2 36.95 -3.9 Q27.95 -8.0 18.6 -11.25" fill="none" stroke="#000000" stroke-linecap="round" stroke-linejoin="round" stroke-width="2.0"/>
      <path d="M42.4 -0.5 L30.7 -4.35 18.25 -8.2 5.65 -11.7 -6.55 -14.6 -17.7 -16.55 -27.3 -17.3 Q-29.65 -17.25 -31.35 -16.5 L-34.55 -14.7 -37.9 -12.45 -37.9 -12.5 Q-36.85 -14.95 -35.5 -16.4 L-32.8 -18.6 -30.5 -19.55 -29.4 -19.8 Q-18.75 -20.05 -6.9 -17.85 5.0 -15.6 18.5 -10.9 L27.65 -7.45 36.75 -3.55 37.85 -3.05 40.15 -2.05 42.85 -0.7 45.3 0.9 Q46.35 1.7 46.75 2.6 47.0 3.2 46.85 3.7 46.3 2.25 45.1 1.2 L42.4 -0.5" fill="#638c3b" fill-rule="evenodd" stroke="none"/>
      <path d="M43.35 5.4 L41.85 5.9 36.95 7.25 31.45 8.65 26.15 9.9 21.75 10.9 16.95 11.95 6.0 14.3 -5.55 16.2 -17.45 17.15 -29.4 16.65 -34.2 15.8 -37.1 14.8 -38.6 13.85 -39.1 13.2 Q-39.55 12.4 -40.2 12.1 -40.8 11.75 -41.6 11.55 L-43.0 11.0 -44.0 10.2 -44.05 10.15 -45.2 9.7 -45.25 9.7 -51.4 10.4 -56.45 10.1 -59.85 9.45 -61.15 9.1 -62.1 8.55 -62.9 7.7 Q-63.15 7.25 -62.9 6.65 -62.6 6.0 -61.95 5.8 L-61.55 5.85 -61.1 6.0 -60.9 6.05 Q-61.6 6.45 -61.55 6.8 L-60.95 7.5 -59.65 8.1 -58.3 8.55 -57.5 8.75 -55.05 8.95 -52.35 9.05 -50.0 8.75 -46.65 7.7 -44.05 6.85 -41.65 6.65 Q-40.45 6.8 -39.1 7.7 L-38.05 8.6 -37.35 9.5 -36.55 10.45 Q-35.45 11.4 -34.0 12.0 L-31.1 13.0 -28.15 13.4 Q-20.6 13.8 -14.05 13.6 L-1.6 12.8 9.85 11.3 20.75 9.35 31.9 7.25 43.35 5.4" fill="#3c5b1d" fill-rule="evenodd" stroke="none"/>
      <path d="M-22.85 -6.15 Q-22.2 -4.4 -22.0 -2.75 -21.8 -0.7 -22.75 1.3 -23.7 3.3 -25.45 5.0 -27.15 6.65 -29.3 7.8 -31.4 8.9 -33.55 9.15 -35.65 9.45 -37.4 8.6 -39.15 7.7 -40.15 5.45 -40.8 3.85 -40.85 1.8 -40.95 -0.3 -40.55 -2.5 -40.15 -4.75 -39.3 -6.85 -38.45 -8.95 -37.2 -10.6 -36.0 -12.25 -34.45 -13.2 L-33.25 -13.8 -29.9 -13.95 Q-28.3 -13.55 -26.95 -12.35 -25.6 -11.2 -24.55 -9.55 -23.55 -7.9 -22.85 -6.15" fill="#ffffff" fill-rule="evenodd" stroke="none"/>
      <path d="M-22.85 -6.15 Q-23.55 -7.9 -24.55 -9.55 -25.6 -11.2 -26.95 -12.35 -28.3 -13.55 -29.9 -13.95 L-33.25 -13.8 -34.45 -13.2 Q-36.0 -12.25 -37.2 -10.6 -38.45 -8.95 -39.3 -6.85 -40.15 -4.75 -40.55 -2.5 -40.95 -0.3 -40.85 1.8 -40.8 3.85 -40.15 5.45 -39.15 7.7 -37.4 8.6 -35.65 9.45 -33.55 9.15 -31.4 8.9 -29.3 7.8 -27.15 6.65 -25.45 5.0 -23.7 3.3 -22.75 1.3 -21.8 -0.7 -22.0 -2.75 -22.2 -4.4 -22.85 -6.15" fill="none" stroke="#000000" stroke-linecap="round" stroke-linejoin="round" stroke-width="1.0"/>
      <path d="M-22.25 -2.7 Q-22.05 -0.9 -22.85 0.9 -23.6 2.7 -25.1 4.3 -26.55 5.85 -28.4 7.0 -30.2 8.15 -32.15 8.7 L-36.95 8.55 Q-39.0 7.7 -39.95 5.4 L-40.2 4.75 -36.1 5.3 -31.5 4.55 Q-29.3 3.9 -27.5 2.4 -25.75 0.95 -24.55 -1.05 -23.35 -3.1 -22.85 -5.35 -22.4 -3.95 -22.25 -2.7" fill="#e1e8da" fill-rule="evenodd" stroke="none"/>
      <path d="M-31.7 -6.95 Q-30.85 -5.4 -30.5 -3.6 -30.1 -1.75 -30.15 0.0 -30.2 1.8 -30.65 3.3 -31.15 5.4 -32.3 6.9 -33.45 8.35 -35.0 9.2 -36.35 9.05 -37.35 8.5 -38.35 7.9 -38.95 7.2 L-39.85 6.0 -40.15 5.5 Q-40.7 4.0 -40.8 2.15 L-40.55 -1.75 -39.65 -5.6 -38.3 -8.8 -36.75 -10.8 Q-35.05 -10.55 -33.75 -9.5 -32.5 -8.5 -31.7 -6.95" fill="#000000" fill-rule="evenodd" stroke="none"/>
      <path d="M-45.85 10.15 L-45.2 10.0 -43.55 9.85 -41.2 9.95 -38.7 10.55" fill="none" stroke="#000000" stroke-linecap="round" stroke-linejoin="round" stroke-width="1.0"/>
      <path d="M-21.6 15.4 L-20.75 17.55 -19.9 18.95 Q-19.6 19.45 -19.65 19.6 L-19.7 19.8 -22.2 19.6 Q-23.25 19.3 -24.0 18.65 L-25.2 17.4 -25.8 16.3 -26.0 15.8 -21.6 15.4" fill="#3c5b1d" fill-rule="evenodd" stroke="none"/>
      <path d="M-26.0 15.8 L-25.8 16.3 -25.2 17.4 -24.0 18.65 Q-23.25 19.3 -22.2 19.6 L-19.7 19.8 -19.65 19.6 Q-19.6 19.45 -19.9 18.95 L-20.75 17.55 -21.6 15.4" fill="none" stroke="#000000" stroke-linecap="round" stroke-linejoin="round" stroke-width="2.0"/>
      <path d="M-29.6 -22.35 L-28.95 -22.3 Q-28.05 -21.75 -27.9 -20.9 -27.75 -20.0 -28.05 -19.15 L-28.6 -17.65 -28.95 -17.05 Q-29.95 -17.8 -31.0 -17.95 L-33.0 -17.85 -34.45 -17.35 -35.1 -17.05 -35.2 -17.5 -35.6 -18.45 -36.15 -19.6 Q-36.45 -20.1 -36.25 -20.3 -36.1 -20.55 -35.8 -20.6 L-35.5 -20.65 Q-34.35 -21.4 -33.25 -21.8 L-31.15 -22.25 -29.6 -22.35" fill="#000000" fill-rule="evenodd" stroke="none"/>
      <path d="M44.55 -0.05 L48.0 -2.8 Q49.95 -4.3 52.15 -5.55 54.35 -6.85 56.6 -7.5 L60.85 -7.85 Q60.95 -6.55 60.3 -5.45 59.7 -4.4 58.7 -3.5 L56.75 -1.75 54.45 0.45 53.3 1.95 52.95 2.45 53.6 3.1 55.2 4.65 57.15 6.75 58.8 8.8 59.65 10.45 Q59.8 11.25 58.85 11.6 L55.9 11.45 Q53.95 11.0 51.3 9.4 48.65 7.8 45.45 4.75 L44.55 -0.05" fill="#497028" fill-rule="evenodd" stroke="none"/>
      <path d="M44.55 -0.05 L48.0 -2.8 Q49.95 -4.3 52.15 -5.55 54.35 -6.85 56.6 -7.5 L60.85 -7.85 Q60.95 -6.55 60.3 -5.45 59.7 -4.4 58.7 -3.5 L56.75 -1.75 54.45 0.45 53.3 1.95 52.95 2.45 53.6 3.1 55.2 4.65 57.15 6.75 58.8 8.8 59.65 10.45 Q59.8 11.25 58.85 11.6 L55.9 11.45 Q53.95 11.0 51.3 9.4 48.65 7.8 45.45 4.75" fill="none" stroke="#000000" stroke-linecap="round" stroke-linejoin="round" stroke-width="2.0"/>
      <path d="M55.0 8.7 Q55.5 9.1 56.15 9.2 L57.5 9.15 58.7 8.65 59.65 10.4 Q59.8 11.2 58.8 11.55 L55.9 11.4 Q53.95 10.95 51.3 9.35 48.6 7.75 45.4 4.7 L45.15 3.2 Q46.55 3.15 47.8 3.7 49.05 4.3 50.25 5.2 L52.65 7.05 55.0 8.7" fill="#3c5b1d" fill-rule="evenodd" stroke="none"/>
      <path d="M-16.35 -0.85 Q-16.5 0.1 -17.2 1.25 L-19.65 4.1 -21.5 5.5 -22.25 5.85 -21.7 5.2 -20.45 3.5 -19.1 1.05 Q-18.45 -0.3 -18.2 -1.8 -18.0 -3.25 -18.45 -4.65 L-18.1 -4.4 -17.3 -3.65 Q-16.85 -3.2 -16.55 -2.45 -16.25 -1.75 -16.35 -0.85" fill="#3c5b1d" fill-rule="evenodd" stroke="none"/>
      <path d="M-43.25 -0.4 L-43.35 0.05 -44.15 1.3 -46.45 3.2 Q-47.85 4.1 -49.85 4.65 L-53.9 5.5 -57.85 5.95 -60.75 6.05 -61.95 6.1 -53.65 4.5 Q-50.25 3.65 -48.2 2.8 -46.15 1.95 -45.05 1.2 L-43.6 0.05 -43.25 -0.4" fill="#638c3b" fill-rule="evenodd" stroke="none"/>
      <path d="M-33.5 -0.1 Q-33.5 1.25 -33.85 2.4 -34.25 3.5 -34.9 4.15 -35.55 4.8 -36.35 4.8 -37.15 4.8 -37.8 4.15 L-38.85 2.4 Q-39.25 1.25 -39.25 -0.1 -39.25 -1.5 -38.85 -2.6 L-37.8 -4.4 Q-37.15 -5.05 -36.35 -5.05 -35.55 -5.05 -34.9 -4.4 -34.25 -3.75 -33.85 -2.6 -33.5 -1.5 -33.5 -0.1" fill="#1e3502" fill-rule="evenodd" stroke="none"/>
      <path d="M-32.95 -5.2 Q-33.0 -4.15 -33.4 -3.45 -33.8 -2.8 -34.4 -2.75 -35.0 -2.8 -35.4 -3.45 -35.8 -4.15 -35.8 -5.2 -35.8 -6.2 -35.4 -6.9 -35.0 -7.6 -34.4 -7.6 -33.8 -7.6 -33.4 -6.9 -33.0 -6.2 -32.95 -5.2" fill="#ffffff" fill-rule="evenodd" stroke="none"/>
    </g>
  </defs>
</svg>
