<?xml version="1.0" encoding="UTF-8" standalone="no"?>
<svg xmlns:xlink="http://www.w3.org/1999/xlink" height="62.3px" width="43.3px" xmlns="http://www.w3.org/2000/svg">
  <g transform="matrix(1, 0, 0, 1, -2.15, 61.15)">
    <use height="62.3" transform="matrix(1.0, 0.0, 0.0, 1.0, 2.15, -61.15)" width="43.3" xlink:href="#shape0"/>
  </g>
  <defs>
    <g id="shape0" transform="matrix(1, 0, 0, 1, -2.15, 61.15)">
      <path d="M13.25 -41.85 L13.35 -42.1 13.25 -42.75 Q12.7 -45.75 12.7 -48.35 12.7 -51.25 13.05 -53.4 L13.75 -56.8 14.15 -58.05 Q14.7 -59.3 15.35 -59.75 15.95 -60.2 16.5 -60.15 L17.35 -59.95 17.75 -59.7 Q18.15 -54.75 19.05 -51.0 19.95 -47.2 21.0 -44.75 22.05 -42.35 22.8 -41.35 23.5 -40.4 25.3 -39.45 27.0 -38.5 29.7 -37.4 L35.8 -34.9 Q38.4 -33.8 39.9 -32.3 L40.5 -31.75 40.2 -31.65 40.45 -31.15 39.5 -32.1 Q38.05 -33.5 35.65 -34.5 L35.6 -34.55 37.85 -31.15 Q38.95 -29.65 39.65 -27.9 L40.25 -25.7 40.15 -25.55 40.25 -25.5 40.35 -23.9 Q40.25 -19.6 39.55 -14.3 L38.85 -9.85 37.5 -3.15 36.95 -0.85 36.75 0.1 9.85 -0.15 9.75 -1.15 9.35 -10.15 9.35 -10.95 Q9.2 -17.5 9.7 -25.05 L10.15 -27.95 Q10.45 -29.5 11.1 -30.9 11.75 -32.3 12.7 -33.4 13.15 -33.9 13.65 -34.2 L14.55 -34.9 15.5 -35.95 Q16.4 -37.3 16.55 -38.45 L16.4 -40.85 15.55 -43.5 14.55 -46.8 Q14.3 -47.8 14.3 -49.15 L14.35 -51.9 14.6 -54.3 14.8 -55.15 15.3 -56.5 15.9 -57.8 16.6 -58.35 Q16.95 -58.45 17.3 -57.7 L17.3 -57.6 17.4 -54.65 17.8 -50.7 Q18.05 -48.65 18.65 -46.65 19.15 -44.65 20.05 -43.2 21.1 -41.6 21.9 -40.9 22.7 -40.25 23.15 -40.1 L23.6 -40.0 23.15 -40.35 22.0 -41.8 20.45 -45.0 Q19.6 -47.1 18.8 -50.45 18.0 -53.55 17.4 -57.95 L17.55 -58.35 17.6 -58.75 Q17.4 -59.45 16.75 -59.75 16.15 -60.0 15.7 -59.75 L14.9 -58.95 14.3 -57.95 13.95 -56.7 Q13.55 -55.45 13.25 -53.3 12.9 -51.1 12.9 -48.25 12.9 -45.4 13.55 -42.1 L13.55 -42.05 13.3 -41.45 13.25 -41.85 13.3 -41.45 13.1 -40.9 13.05 -40.85 12.2 -39.85 11.65 -38.45 11.1 -37.05 Q10.75 -36.45 10.0 -36.0 L9.3 -35.5 8.35 -34.0 Q7.8 -33.0 7.35 -31.1 6.8 -29.25 6.45 -26.3 L6.05 -22.35 5.85 -22.25 6.25 -26.35 Q6.6 -29.2 7.1 -31.05 7.6 -32.9 8.15 -33.95 8.65 -35.05 9.1 -35.55 L9.9 -36.2 10.95 -37.25 11.5 -38.65 12.05 -40.05 12.5 -40.55 12.9 -41.05 13.05 -41.3 13.25 -41.8 13.25 -41.85 M43.3 -24.4 Q43.25 -17.1 42.25 -9.8 L42.2 -9.65 40.6 -0.85 40.4 0.15 39.95 0.15 40.15 -0.85 40.7 -3.45 41.8 -9.85 Q42.85 -17.4 42.9 -24.45 L43.3 -24.4 M17.15 -36.65 Q15.35 -35.75 14.6 -34.25 13.7 -32.5 13.95 -30.4 14.2 -28.25 15.3 -26.1 16.4 -24.0 18.05 -22.25 19.7 -20.5 21.7 -19.5 23.7 -18.55 25.75 -18.75 L29.15 -19.55 Q30.95 -20.25 32.6 -21.25 34.2 -22.3 35.4 -23.6 36.6 -24.95 37.05 -26.5 37.5 -28.1 36.9 -29.85 L36.35 -31.1 Q35.4 -32.65 33.75 -33.9 32.1 -35.15 30.0 -36.0 27.9 -36.85 25.7 -37.3 L21.4 -37.65 18.2 -37.1 17.7 -36.95 17.15 -36.65 M19.5 -17.25 Q18.4 -17.95 17.8 -18.5 L17.15 -19.05 17.5 -18.3 18.9 -16.45 Q19.85 -15.3 21.75 -13.95 22.85 -13.25 23.8 -13.15 L25.45 -13.3 Q26.15 -13.6 26.65 -14.0 L27.35 -14.8 27.65 -15.2 24.8 -14.95 Q23.3 -15.2 21.95 -15.85 20.55 -16.5 19.5 -17.25 M5.65 -17.75 L5.85 -17.85 5.8 -14.35 6.0 -10.15 Q6.2 -6.3 6.65 -2.5 L6.8 -1.15 6.95 -0.15 6.75 -0.15 6.6 -1.15 6.4 -2.95 Q5.95 -6.6 5.8 -10.2 L5.6 -14.7 5.65 -17.75" fill="#497028" fill-rule="evenodd" stroke="none"/>
      <path d="M17.4 -57.95 Q18.0 -53.55 18.8 -50.45 19.6 -47.1 20.45 -45.0 L22.0 -41.8 23.15 -40.35 23.6 -40.0 23.15 -40.1 Q22.7 -40.25 21.9 -40.9 21.1 -41.6 20.05 -43.2 19.15 -44.65 18.65 -46.65 18.05 -48.65 17.8 -50.7 L17.4 -54.65 17.3 -57.6 17.3 -57.7 17.3 -58.75 17.4 -57.95 M36.75 0.1 L36.95 -0.85 37.5 -3.15 38.85 -9.85 39.55 -14.3 Q40.25 -19.6 40.35 -23.9 L40.25 -25.5 40.75 -25.2 42.2 -24.6 42.9 -24.45 Q42.85 -17.4 41.8 -9.85 L40.7 -3.45 40.15 -0.85 39.95 0.15 36.75 0.1 M40.25 -25.7 L39.65 -27.9 Q38.95 -29.65 37.85 -31.15 L35.6 -34.55 35.65 -34.5 Q38.05 -33.5 39.5 -32.1 L40.45 -31.15 40.5 -31.05 40.95 -29.55 41.05 -27.55 Q40.9 -26.6 40.25 -25.7" fill="#638c3b" fill-rule="evenodd" stroke="none"/>
      <path d="M13.3 -41.45 L13.55 -42.05 13.55 -42.1 Q12.9 -45.4 12.9 -48.25 12.9 -51.1 13.25 -53.3 13.55 -55.45 13.95 -56.7 L14.3 -57.95 14.9 -58.95 15.7 -59.75 Q16.15 -60.0 16.75 -59.75 17.4 -59.45 17.6 -58.75 L17.55 -58.35 17.4 -57.95 17.3 -58.75 17.3 -57.7 Q16.95 -58.45 16.6 -58.35 L15.9 -57.8 15.3 -56.5 14.8 -55.15 14.6 -54.3 14.35 -51.9 14.3 -49.15 Q14.3 -47.8 14.55 -46.8 L15.55 -43.5 16.4 -40.85 16.55 -38.45 Q16.4 -37.3 15.5 -35.95 L14.55 -34.9 13.65 -34.2 Q13.15 -33.9 12.7 -33.4 11.75 -32.3 11.1 -30.9 10.45 -29.5 10.15 -27.95 L9.7 -25.05 Q9.2 -17.5 9.35 -10.95 L9.35 -10.15 9.75 -1.15 9.85 -0.15 6.95 -0.15 6.8 -1.15 6.65 -2.5 Q6.2 -6.3 6.0 -10.15 L5.8 -14.35 5.85 -17.85 5.65 -17.75 5.45 -17.65 4.05 -16.85 3.35 -16.6 3.2 -16.65 Q3.0 -18.1 3.4 -19.15 3.75 -20.2 4.4 -20.95 L5.65 -22.1 5.85 -22.25 6.05 -22.35 6.45 -26.3 Q6.8 -29.25 7.35 -31.1 7.8 -33.0 8.35 -34.0 L9.3 -35.5 10.0 -36.0 Q10.75 -36.45 11.1 -37.05 L11.65 -38.45 12.2 -39.85 13.05 -40.85 13.1 -40.9 13.3 -41.45 13.35 -40.4 13.25 -38.1 12.65 -35.55 13.25 -38.1 13.35 -40.4 13.3 -41.45 M19.5 -17.25 Q20.55 -16.5 21.95 -15.85 23.3 -15.2 24.8 -14.95 L27.65 -15.2 27.35 -14.8 26.65 -14.0 Q26.15 -13.6 25.45 -13.3 L23.8 -13.15 Q22.85 -13.25 21.75 -13.95 19.85 -15.3 18.9 -16.45 L17.5 -18.3 17.15 -19.05 17.8 -18.5 Q18.4 -17.95 19.5 -17.25 M7.25 -22.9 L6.8 -22.7 6.05 -22.35 6.8 -22.7 7.25 -22.9 M7.65 -18.5 L5.85 -17.85 7.65 -18.5" fill="#3c5b1d" fill-rule="evenodd" stroke="none"/>
      <path d="M18.7 -27.75 Q19.35 -25.85 20.65 -24.3 22.1 -22.5 24.1 -21.25 26.1 -20.05 28.35 -19.55 L25.7 -19.0 Q23.9 -18.8 22.1 -19.6 20.3 -20.4 18.75 -21.9 17.15 -23.35 16.05 -25.2 14.9 -27.05 14.4 -28.95 14.05 -30.35 14.1 -31.55 14.9 -30.15 16.25 -29.1 17.3 -28.3 18.7 -27.75" fill="#e1e8da" fill-rule="evenodd" stroke="none"/>
      <path d="M18.7 -27.75 L19.8 -27.4 23.05 -26.9 26.65 -27.2 Q28.45 -27.6 30.05 -28.35 31.6 -29.2 32.65 -30.45 33.7 -31.7 33.95 -33.4 33.3 -34.25 31.95 -35.0 30.6 -35.8 28.8 -36.4 L24.95 -37.3 21.05 -37.55 18.2 -37.1 21.4 -37.65 25.7 -37.3 Q27.9 -36.85 30.0 -36.0 32.1 -35.15 33.75 -33.9 35.4 -32.65 36.35 -31.1 L36.9 -29.85 Q37.5 -28.1 37.05 -26.5 36.6 -24.95 35.4 -23.6 34.2 -22.3 32.6 -21.25 30.95 -20.25 29.15 -19.55 L25.75 -18.75 Q23.7 -18.55 21.7 -19.5 19.7 -20.5 18.05 -22.25 16.4 -24.0 15.3 -26.1 14.2 -28.25 13.95 -30.4 13.7 -32.5 14.6 -34.25 15.35 -35.75 17.15 -36.65 L15.95 -35.8 Q15.25 -35.2 14.7 -34.2 14.1 -33.2 13.95 -31.8 L14.1 -31.55 Q14.05 -30.35 14.4 -28.95 14.9 -27.05 16.05 -25.2 17.15 -23.35 18.75 -21.9 20.3 -20.4 22.1 -19.6 23.9 -18.8 25.7 -19.0 L28.35 -19.55 Q26.1 -20.05 24.1 -21.25 22.1 -22.5 20.65 -24.3 19.35 -25.85 18.7 -27.75 M26.05 -30.7 Q25.9 -30.9 25.9 -31.15 25.95 -31.7 26.6 -32.1 L28.1 -32.5 28.3 -32.5 30.0 -32.05 Q30.7 -31.7 30.75 -31.1 30.7 -30.5 30.0 -30.05 L28.3 -29.7 Q27.25 -29.7 26.6 -30.1 26.15 -30.35 26.05 -30.7" fill="#ffffff" fill-rule="evenodd" stroke="none"/>
      <path d="M40.25 -25.5 L40.15 -25.55 40.25 -25.7 Q40.9 -26.6 41.05 -27.55 L40.95 -29.55 40.5 -31.05 40.45 -31.15 40.2 -31.65 40.5 -31.75 40.6 -31.8 41.6 -32.15 42.7 -32.7 43.45 -32.8 43.7 -32.35 43.75 -32.05 44.9 -29.75 45.35 -27.65 45.45 -26.1 45.4 -25.5 Q44.8 -24.6 43.95 -24.45 L43.3 -24.4 42.9 -24.45 42.2 -24.6 40.75 -25.2 40.25 -25.5 M18.2 -37.1 L21.05 -37.55 24.95 -37.3 28.8 -36.4 Q30.6 -35.8 31.95 -35.0 33.3 -34.25 33.95 -33.4 33.7 -31.7 32.65 -30.45 31.6 -29.2 30.05 -28.35 28.45 -27.6 26.65 -27.2 L23.05 -26.9 19.8 -27.4 18.7 -27.75 Q17.3 -28.3 16.25 -29.1 14.9 -30.15 14.1 -31.55 L13.95 -31.8 Q14.1 -33.2 14.7 -34.2 15.25 -35.2 15.95 -35.8 L17.15 -36.65 17.7 -36.95 18.2 -37.1 M28.1 -32.5 L28.2 -33.05 Q28.2 -33.9 27.55 -34.55 L25.8 -35.6 23.3 -36.0 20.8 -35.65 Q19.65 -35.3 19.0 -34.6 18.35 -34.0 18.35 -33.15 18.3 -32.35 19.0 -31.7 19.65 -31.05 20.75 -30.65 L23.25 -30.25 25.75 -30.6 26.05 -30.7 Q26.15 -30.35 26.6 -30.1 27.25 -29.7 28.3 -29.7 L30.0 -30.05 Q30.7 -30.5 30.75 -31.1 30.7 -31.7 30.0 -32.05 L28.3 -32.5 28.1 -32.5" fill="#000000" fill-rule="evenodd" stroke="none"/>
      <path d="M28.1 -32.5 L26.6 -32.1 Q25.95 -31.7 25.9 -31.15 25.9 -30.9 26.05 -30.7 L25.75 -30.6 23.25 -30.25 20.75 -30.65 Q19.65 -31.05 19.0 -31.7 18.3 -32.35 18.35 -33.15 18.35 -34.0 19.0 -34.6 19.65 -35.3 20.8 -35.65 L23.3 -36.0 25.8 -35.6 27.55 -34.55 Q28.2 -33.9 28.2 -33.05 L28.1 -32.5" fill="#1e3502" fill-rule="evenodd" stroke="none"/>
      <path d="M40.5 -31.75 L39.9 -32.3 Q38.4 -33.8 35.8 -34.9 L29.7 -37.4 Q27.0 -38.5 25.3 -39.45 23.5 -40.4 22.8 -41.35 22.05 -42.35 21.0 -44.75 19.95 -47.2 19.05 -51.0 18.15 -54.75 17.75 -59.7 L17.35 -59.95 16.5 -60.15 Q15.95 -60.2 15.35 -59.75 14.7 -59.3 14.15 -58.05 L13.75 -56.8 13.05 -53.4 Q12.7 -51.25 12.7 -48.35 12.7 -45.75 13.25 -42.75 L13.35 -42.1 13.25 -41.85 13.25 -41.8 13.05 -41.3 12.9 -41.05 12.5 -40.55 12.05 -40.05 11.5 -38.65 10.95 -37.25 9.9 -36.2 9.1 -35.55 Q8.65 -35.05 8.15 -33.95 7.6 -32.9 7.1 -31.05 6.6 -29.2 6.25 -26.35 L5.85 -22.25 6.05 -22.35 6.8 -22.7 7.25 -22.9 M43.3 -24.4 Q43.25 -17.1 42.25 -9.8 L42.2 -9.65 40.6 -0.85 40.4 0.15 M5.85 -22.25 L5.65 -22.1 4.4 -20.95 Q3.75 -20.2 3.4 -19.15 3.0 -18.1 3.2 -16.65 L3.35 -16.6 4.05 -16.85 5.45 -17.65 5.65 -17.75 5.85 -17.85 7.65 -18.5 M5.65 -17.75 L5.6 -14.7 5.8 -10.2 Q5.95 -6.6 6.4 -2.95 L6.6 -1.15 6.75 -0.15" fill="none" stroke="#000000" stroke-linecap="round" stroke-linejoin="round" stroke-width="2.0"/>
      <path d="M13.25 -41.85 L13.3 -41.45 13.35 -40.4 13.25 -38.1 12.65 -35.55 M17.15 -36.65 Q15.35 -35.75 14.6 -34.25 13.7 -32.5 13.95 -30.4 14.2 -28.25 15.3 -26.1 16.4 -24.0 18.05 -22.25 19.7 -20.5 21.7 -19.5 23.7 -18.55 25.75 -18.75 L29.15 -19.55 Q30.95 -20.25 32.6 -21.25 34.2 -22.3 35.4 -23.6 36.6 -24.95 37.05 -26.5 37.5 -28.1 36.9 -29.85 L36.35 -31.1 Q35.4 -32.65 33.75 -33.9 32.1 -35.15 30.0 -36.0 27.9 -36.85 25.7 -37.3 L21.4 -37.65 18.2 -37.1 M13.25 -42.75 Q13.1 -42.7 13.25 -42.05 L13.25 -41.85" fill="none" stroke="#000000" stroke-linecap="round" stroke-linejoin="round" stroke-width="1.0"/>
    </g>
  </defs>
</svg>
