<?xml version="1.0" encoding="UTF-8" standalone="no"?>
<svg xmlns:xlink="http://www.w3.org/1999/xlink" height="79.05px" width="232.2px" xmlns="http://www.w3.org/2000/svg">
  <g transform="matrix(1, 0, 0, 1, 110.0, 31.5)">
    <use height="79.05" transform="matrix(1.0, 0.0, 0.0, 1.0, -110.0, -31.5)" width="232.2" xlink:href="#morphshape0"/>
    <use height="62.8" transform="matrix(1.0, 0.0, 0.0, 1.0, -108.6, -31.5)" width="200.15" xlink:href="#morphshape1"/>
  </g>
  <defs>
    <g id="morphshape0" transform="matrix(1, 0, 0, 1, 110.0, 31.5)">
      <path d="M-109.2 33.45 Q-41.8 58.8 105.4 33.65 115.65 30.95 114.7 29.95 113.7 28.25 112.15 26.1 110.15 23.7 101.05 22.05 91.8 20.3 87.65 18.0 85.35 16.7 85.2 15.35 85.0 13.95 86.15 12.45 87.3 10.95 89.0 9.35 L92.15 5.95 Q93.55 4.2 98.75 1.65 103.9 -0.9 99.55 -2.75 95.25 -4.6 91.75 -10.05 88.6 -15.25 75.0 -16.15 61.4 -17.1 55.7 -15.75 49.55 -14.4 37.5 -16.15 L11.15 -19.5 -16.65 -22.7 -43.9 -25.55 -68.6 -28.0 -88.7 -29.85 -102.25 -31.05 -107.2 -31.5 -109.3 33.45" fill="#b4e6fc" fill-rule="evenodd" stroke="none"/>
      <path d="M-109.3 33.45 L-107.2 -31.5 -102.25 -31.05 -88.7 -29.85 -68.6 -28.0 -43.9 -25.55 -16.65 -22.7 11.15 -19.5 37.5 -16.15 Q49.55 -14.4 55.7 -15.75 61.4 -17.1 75.0 -16.15 88.6 -15.25 91.75 -10.05 95.25 -4.6 99.55 -2.75 103.9 -0.9 98.75 1.65 93.55 4.2 92.15 5.95 L89.0 9.35 Q87.3 10.95 86.15 12.45 85.0 13.95 85.2 15.35 85.35 16.7 87.65 18.0 91.8 20.3 101.05 22.05 110.15 23.7 112.15 26.1 113.7 28.25 114.7 29.95 115.65 30.95 105.4 33.65 -41.8 58.8 -109.2 33.45" fill="none" stroke="#000000" stroke-linecap="round" stroke-linejoin="round" stroke-opacity="0.0" stroke-width="1.0"/>
    </g>
    <g id="morphshape1" transform="matrix(1, 0, 0, 1, 108.6, 31.5)">
      <path d="M-108.55 20.55 L-108.55 20.65 Q-107.75 22.95 -106.2 25.1 -96.5 25.75 -86.25 26.4 L-80.65 26.65 Q-72.3 26.75 -64.35 27.55 -59.65 28.0 -55.1 28.7 -49.2 29.6 -43.15 30.05 L-30.0 30.2 -22.1 29.75 -9.1 28.6 -3.8 28.15 9.75 28.1 12.15 28.25 25.6 28.4 33.4 28.05 45.35 27.4 55.7 27.05 63.1 27.05 67.55 27.1 Q72.4 27.2 70.6 26.45 L69.6 25.65 68.3 24.65 Q65.9 23.5 68.4 22.45 L71.7 20.95 Q74.55 19.6 76.9 18.0 L78.4 16.8 Q81.1 14.5 80.3 11.5 79.85 10.05 79.2 8.95 78.3 7.6 76.65 6.9 L75.25 6.4 72.45 5.2 Q71.15 4.65 68.55 4.3 L63.8 3.85 60.55 3.65 53.1 2.8 52.9 2.8 Q49.55 2.3 48.15 1.4 L48.1 1.4 Q45.5 -0.45 49.75 -2.6 L52.95 -5.75 53.0 -5.8 Q58.25 -7.8 55.0 -9.7 52.0 -11.5 44.5 -13.0 L42.75 -13.35 Q34.2 -15.0 27.75 -16.2 22.9 -17.15 20.45 -18.0 16.8 -19.4 12.35 -20.4 L10.65 -20.75 Q4.85 -21.85 -1.4 -22.45 L-2.9 -22.65 -14.3 -23.55 -16.65 -23.65 -26.75 -24.35 -37.95 -25.25 -103.95 -31.45 -105.1 -30.9 -107.1 -29.95 -107.1 -29.15 -107.1 -28.65 -107.2 -25.65 -107.4 -19.25 -107.4 -18.0 -107.7 -7.8 -107.8 -5.75 -108.05 3.4 -108.25 9.0 -108.35 13.55 -108.55 21.0" fill="#89d4e8" fill-rule="evenodd" stroke="none"/>
      <path d="M-108.55 21.0 L-108.35 13.55 -108.25 9.0 -108.05 3.4 -107.8 -5.75 -107.7 -7.8 -107.4 -18.0 -107.4 -19.25 -107.2 -25.65 -107.1 -28.65 -107.1 -29.15 -107.1 -29.95 -105.1 -30.9 -103.95 -31.45 -37.95 -25.25 -26.75 -24.35 -16.65 -23.65 -14.3 -23.55 -2.9 -22.65 -1.4 -22.45 Q4.85 -21.85 10.65 -20.75 L12.35 -20.4 Q16.8 -19.4 20.45 -18.0 22.9 -17.15 27.75 -16.2 34.2 -15.0 42.75 -13.35 L44.5 -13.0 Q52.0 -11.5 55.0 -9.7 58.25 -7.8 53.0 -5.8 L52.95 -5.75 49.75 -2.6 Q45.5 -0.45 48.1 1.4 L48.15 1.4 Q49.55 2.3 52.9 2.8 L53.1 2.8 60.55 3.65 63.8 3.85 68.55 4.3 Q71.15 4.65 72.45 5.2 L75.25 6.4 76.65 6.9 Q78.3 7.6 79.2 8.95 79.85 10.05 80.3 11.5 81.1 14.5 78.4 16.8 L76.9 18.0 Q74.55 19.6 71.7 20.95 L68.4 22.45 Q65.9 23.5 68.3 24.65 L69.6 25.65 70.6 26.45 Q72.4 27.2 67.55 27.1 L63.1 27.05 55.7 27.05 45.35 27.4 33.4 28.05 25.6 28.4 12.15 28.25 9.75 28.1 -3.8 28.15 -9.1 28.6 -22.1 29.75 -30.0 30.2 -43.15 30.05 Q-49.2 29.6 -55.1 28.7 -59.65 28.0 -64.35 27.55 -72.3 26.75 -80.65 26.65 L-86.25 26.4 Q-96.5 25.75 -106.2 25.1 -107.75 22.95 -108.55 20.65 L-108.55 20.55" fill="none" stroke="#000000" stroke-linecap="round" stroke-linejoin="round" stroke-opacity="0.0" stroke-width="1.0"/>
    </g>
  </defs>
</svg>
