<?xml version="1.0" encoding="UTF-8" standalone="no"?>
<svg xmlns:xlink="http://www.w3.org/1999/xlink" height="79.05px" width="232.2px" xmlns="http://www.w3.org/2000/svg">
  <g transform="matrix(1, 0, 0, 1, 110.0, 31.5)">
    <use height="79.05" transform="matrix(1.0, 0.0, 0.0, 1.0, -110.0, -31.5)" width="232.2" xlink:href="#morphshape0"/>
    <use height="62.8" transform="matrix(1.0, 0.0, 0.0, 1.0, -108.6, -31.5)" width="200.15" xlink:href="#morphshape1"/>
  </g>
  <defs>
    <g id="morphshape0" transform="matrix(1, 0, 0, 1, 110.0, 31.5)">
      <path d="M-109.6 36.05 Q-66.9 55.8 97.6 34.85 112.8 31.25 111.2 30.2 109.25 28.5 106.95 26.55 104.0 24.2 96.8 22.35 89.4 20.35 85.3 18.05 83.05 16.75 82.9 15.4 82.7 14.0 83.85 12.5 85.0 11.0 86.65 9.4 L89.75 6.0 Q91.15 4.25 94.45 1.95 97.7 -0.35 94.55 -2.3 91.45 -4.2 87.85 -8.4 84.85 -12.15 73.9 -13.35 63.0 -14.6 55.55 -14.5 47.4 -14.4 35.75 -16.15 L9.7 -19.5 -17.75 -22.7 -44.65 -25.55 -69.05 -28.0 -88.9 -29.85 -102.3 -31.05 -107.2 -31.5 -109.55 35.95" fill="#b4e6fc" fill-rule="evenodd" stroke="none"/>
      <path d="M-109.55 35.95 L-107.2 -31.5 -102.3 -31.05 -88.9 -29.85 -69.05 -28.0 -44.65 -25.55 -17.75 -22.7 9.7 -19.5 35.75 -16.15 Q47.4 -14.4 55.55 -14.5 63.0 -14.6 73.9 -13.35 84.85 -12.15 87.85 -8.4 91.45 -4.2 94.55 -2.3 97.7 -0.35 94.45 1.95 91.15 4.25 89.75 6.0 L86.65 9.4 Q85.0 11.0 83.85 12.5 82.7 14.0 82.9 15.4 83.05 16.75 85.3 18.05 89.4 20.35 96.8 22.35 104.0 24.2 106.95 26.55 109.25 28.5 111.2 30.2 112.8 31.25 97.6 34.85 -66.9 55.8 -109.6 36.05" fill="none" stroke="#000000" stroke-linecap="round" stroke-linejoin="round" stroke-opacity="0.0" stroke-width="1.0"/>
    </g>
    <g id="morphshape1" transform="matrix(1, 0, 0, 1, 108.6, 31.5)">
      <path d="M-108.45 18.9 L-108.45 18.95 Q-107.2 20.8 -105.5 22.55 -96.25 24.85 -86.95 25.55 L-81.7 25.75 Q-73.75 25.65 -66.4 26.7 -62.0 27.3 -57.85 28.3 -52.4 29.6 -46.7 30.25 L-34.4 30.75 -27.0 30.45 -14.75 29.5 -9.75 29.05 3.0 28.5 5.25 28.5 17.8 28.1 25.15 27.7 36.4 27.1 46.1 26.85 53.05 26.9 57.25 26.95 Q61.1 27.0 60.95 26.55 L62.2 25.9 63.15 25.05 Q62.75 24.15 65.15 23.2 L68.3 21.8 Q71.0 20.5 73.0 18.8 L74.25 17.55 Q76.3 15.35 75.65 12.4 75.25 11.05 74.75 9.95 74.05 8.65 72.5 7.85 L71.2 7.3 68.65 6.2 Q67.15 5.65 64.9 5.25 L60.45 4.6 57.4 4.25 50.45 3.2 50.3 3.2 Q47.25 2.65 45.85 1.75 L45.75 1.7 Q43.0 -0.3 44.75 -2.75 L45.1 -6.85 45.1 -6.95 Q47.45 -9.3 44.25 -11.35 40.9 -13.5 34.4 -15.05 L32.8 -15.45 Q25.35 -17.15 18.85 -18.25 14.7 -18.95 12.0 -19.6 8.35 -20.55 4.25 -21.25 L2.6 -21.5 Q-2.95 -22.25 -8.75 -22.7 L-10.2 -22.85 -20.95 -23.65 -23.15 -23.8 -32.55 -24.55 -43.05 -25.5 -105.2 -31.4 -105.9 -30.5 -107.15 -28.9 -107.15 -28.15 -107.15 -27.75 -107.25 -24.9 -107.45 -18.9 -107.45 -17.65 -107.75 -8.1 -107.8 -6.2 -108.05 2.4 -108.2 7.65 -108.3 11.9 -108.5 18.85" fill="#89d4e8" fill-rule="evenodd" stroke="none"/>
      <path d="M-108.5 18.85 L-108.3 11.9 -108.2 7.65 -108.05 2.4 -107.8 -6.2 -107.75 -8.1 -107.45 -17.65 -107.45 -18.9 -107.25 -24.9 -107.15 -27.75 -107.15 -28.15 -107.15 -28.9 -105.9 -30.5 -105.2 -31.4 -43.05 -25.5 -32.55 -24.55 -23.15 -23.8 -20.95 -23.65 -10.2 -22.85 -8.75 -22.7 Q-2.95 -22.25 2.6 -21.5 L4.25 -21.25 Q8.35 -20.55 12.0 -19.6 14.7 -18.95 18.85 -18.25 25.35 -17.15 32.8 -15.45 L34.4 -15.05 Q40.9 -13.5 44.25 -11.35 47.45 -9.3 45.1 -6.95 L45.1 -6.85 44.75 -2.75 Q43.0 -0.3 45.75 1.7 L45.85 1.75 Q47.25 2.65 50.3 3.2 L50.45 3.2 57.4 4.25 60.45 4.6 64.9 5.25 Q67.15 5.65 68.65 6.2 L71.2 7.3 72.5 7.85 Q74.05 8.65 74.75 9.95 75.25 11.05 75.65 12.4 76.3 15.35 74.25 17.55 L73.0 18.8 Q71.0 20.5 68.3 21.8 L65.15 23.2 Q62.75 24.15 63.15 25.05 L62.2 25.9 60.95 26.55 Q61.1 27.0 57.25 26.95 L53.05 26.9 46.1 26.85 36.4 27.1 25.15 27.7 17.8 28.1 5.25 28.5 3.0 28.5 -9.75 29.05 -14.75 29.5 -27.0 30.45 -34.4 30.75 -46.7 30.25 Q-52.4 29.6 -57.85 28.3 -62.0 27.3 -66.4 26.7 -73.75 25.65 -81.7 25.75 L-86.95 25.55 Q-96.25 24.85 -105.5 22.55 -107.2 20.8 -108.45 18.95 L-108.45 18.9" fill="none" stroke="#000000" stroke-linecap="round" stroke-linejoin="round" stroke-opacity="0.0" stroke-width="1.0"/>
    </g>
  </defs>
</svg>
