<?xml version="1.0" encoding="UTF-8" standalone="no"?>
<svg xmlns:xlink="http://www.w3.org/1999/xlink" height="79.05px" width="232.2px" xmlns="http://www.w3.org/2000/svg">
  <g transform="matrix(1, 0, 0, 1, 110.0, 31.5)">
    <use height="79.05" transform="matrix(1.0, 0.0, 0.0, 1.0, -110.0, -31.5)" width="232.2" xlink:href="#morphshape0"/>
    <use height="62.8" transform="matrix(1.0, 0.0, 0.0, 1.0, -108.6, -31.5)" width="200.15" xlink:href="#morphshape1"/>
  </g>
  <defs>
    <g id="morphshape0" transform="matrix(1, 0, 0, 1, 110.0, 31.5)">
      <path d="M-109.85 37.25 Q-79.55 54.15 93.6 35.35 111.3 31.3 109.3 30.15 106.8 28.5 104.1 26.7 100.6 24.45 94.35 22.45 87.9 20.3 83.9 18.0 81.7 16.7 81.55 15.35 81.35 13.95 82.45 12.45 83.55 10.95 85.15 9.35 L88.15 5.95 Q89.5 4.2 91.85 2.1 94.15 0.0 91.65 -2.05 89.15 -4.05 85.45 -7.55 82.55 -10.55 73.0 -11.95 63.5 -13.35 55.15 -13.9 46.0 -14.45 34.55 -16.15 L8.7 -19.5 -18.55 -22.7 -45.25 -25.55 -69.45 -28.0 -89.1 -29.85 -102.4 -31.05 -107.25 -31.5 -109.75 37.25" fill="#b4e6fc" fill-rule="evenodd" stroke="none"/>
      <path d="M-109.75 37.25 L-107.25 -31.5 -102.4 -31.05 -89.1 -29.85 -69.45 -28.0 -45.25 -25.55 -18.55 -22.7 8.7 -19.5 34.55 -16.15 Q46.0 -14.45 55.15 -13.9 63.5 -13.35 73.0 -11.95 82.55 -10.55 85.45 -7.55 89.15 -4.05 91.65 -2.05 94.15 0.0 91.85 2.1 89.5 4.2 88.15 5.95 L85.15 9.35 Q83.55 10.95 82.45 12.45 81.35 13.95 81.55 15.35 81.7 16.7 83.9 18.0 87.9 20.3 94.35 22.45 100.6 24.45 104.1 26.7 106.8 28.5 109.3 30.15 111.3 31.3 93.6 35.35 -79.55 54.15 -109.85 37.25" fill="none" stroke="#000000" stroke-linecap="round" stroke-linejoin="round" stroke-opacity="0.0" stroke-width="1.0"/>
    </g>
    <g id="morphshape1" transform="matrix(1, 0, 0, 1, 108.6, 31.5)">
      <path d="M-108.35 17.8 L-108.35 17.8 Q-106.8 19.4 -105.0 20.95 -96.05 24.1 -87.25 24.9 L-82.2 25.05 Q-74.45 24.85 -67.4 26.05 -63.15 26.8 -59.2 28.0 -54.05 29.5 -48.6 30.25 L-36.75 30.95 -29.6 30.75 -17.8 29.95 -13.0 29.55 -0.7 28.7 1.45 28.6 13.5 27.9 20.6 27.4 31.5 26.85 40.8 26.7 47.5 26.8 51.55 26.85 Q54.9 26.85 55.65 26.55 L58.1 26.05 60.2 25.35 Q60.8 24.65 63.1 23.75 L66.1 22.45 Q68.7 21.25 70.5 19.45 L71.55 18.1 Q73.2 16.0 72.7 13.1 72.4 11.85 72.0 10.7 71.45 9.5 69.95 8.65 L68.75 8.05 66.35 7.05 Q64.75 6.55 62.7 6.1 L58.45 5.35 55.55 4.9 48.9 3.7 48.8 3.7 Q45.9 3.1 44.55 2.25 L44.35 2.15 Q41.5 0.05 41.95 -2.55 L40.8 -7.2 40.7 -7.4 Q41.55 -9.95 38.4 -12.1 34.8 -14.45 28.8 -16.05 L27.3 -16.5 Q20.4 -18.25 13.8 -19.25 10.0 -19.8 7.15 -20.35 3.5 -21.05 -0.4 -21.6 L-1.95 -21.8 Q-7.3 -22.35 -12.85 -22.7 L-14.25 -22.8 -24.65 -23.5 -26.7 -23.7 -35.75 -24.55 -45.9 -25.55 -106.1 -31.25 -106.5 -30.1 -107.35 -28.1 -107.35 -27.4 -107.35 -27.05 -107.4 -24.35 -107.55 -18.55 -107.55 -17.35 -107.85 -8.15 -107.85 -6.4 -108.05 1.9 -108.15 6.9 -108.25 11.0 -108.4 17.7" fill="#89d4e8" fill-rule="evenodd" stroke="none"/>
      <path d="M-108.4 17.7 L-108.25 11.0 -108.15 6.9 -108.05 1.9 -107.85 -6.4 -107.85 -8.15 -107.55 -17.35 -107.55 -18.55 -107.4 -24.35 -107.35 -27.05 -107.35 -27.4 -107.35 -28.1 -106.5 -30.1 -106.1 -31.25 -45.9 -25.55 -35.75 -24.55 -26.7 -23.7 -24.65 -23.5 -14.25 -22.8 -12.85 -22.7 Q-7.3 -22.35 -1.95 -21.8 L-0.4 -21.6 Q3.5 -21.05 7.15 -20.35 10.0 -19.8 13.8 -19.25 20.4 -18.25 27.3 -16.5 L28.8 -16.05 Q34.8 -14.45 38.4 -12.1 41.55 -9.95 40.7 -7.4 L40.8 -7.2 41.95 -2.55 Q41.5 0.05 44.35 2.15 L44.55 2.25 Q45.9 3.1 48.8 3.7 L48.9 3.7 55.55 4.9 58.45 5.35 62.7 6.1 Q64.75 6.55 66.35 7.05 L68.75 8.05 69.95 8.65 Q71.45 9.5 72.0 10.7 72.4 11.85 72.7 13.1 73.2 16.0 71.55 18.1 L70.5 19.45 Q68.7 21.25 66.1 22.45 L63.1 23.75 Q60.8 24.65 60.2 25.35 L58.1 26.05 55.65 26.55 Q54.9 26.85 51.55 26.85 L47.5 26.8 40.8 26.7 31.5 26.85 20.6 27.4 13.5 27.9 1.45 28.6 -0.7 28.7 -13.0 29.55 -17.8 29.95 -29.6 30.75 -36.75 30.95 -48.6 30.25 Q-54.05 29.5 -59.2 28.0 -63.15 26.8 -67.4 26.05 -74.45 24.85 -82.2 25.05 L-87.25 24.9 Q-96.05 24.1 -105.0 20.95 -106.8 19.4 -108.35 17.8 L-108.35 17.8" fill="none" stroke="#000000" stroke-linecap="round" stroke-linejoin="round" stroke-opacity="0.0" stroke-width="1.0"/>
    </g>
  </defs>
</svg>
