<?xml version="1.0" encoding="UTF-8" standalone="no"?>
<svg xmlns:xlink="http://www.w3.org/1999/xlink" height="79.05px" width="232.2px" xmlns="http://www.w3.org/2000/svg">
  <g transform="matrix(1, 0, 0, 1, 110.0, 31.5)">
    <use height="79.05" transform="matrix(1.0, 0.0, 0.0, 1.0, -110.0, -31.5)" width="232.2" xlink:href="#morphshape0"/>
    <use height="62.8" transform="matrix(1.0, 0.0, 0.0, 1.0, -108.6, -31.5)" width="200.15" xlink:href="#morphshape1"/>
  </g>
  <defs>
    <g id="morphshape0" transform="matrix(1, 0, 0, 1, 110.0, 31.5)">
      <path d="M-109.55 34.75 Q-54.55 57.25 101.3 34.25 114.05 31.1 112.75 30.05 111.2 28.4 109.25 26.4 106.7 24.05 98.6 22.25 90.35 20.3 86.3 18.0 84.05 16.7 83.9 15.35 83.7 13.95 84.8 12.45 85.9 10.95 87.5 9.35 L90.55 5.95 Q91.9 4.2 96.15 1.85 100.35 -0.5 96.65 -2.45 92.95 -4.35 89.35 -9.15 86.35 -13.55 74.1 -14.65 61.9 -15.75 55.3 -15.1 48.1 -14.45 36.25 -16.15 L10.1 -19.5 -17.45 -22.7 -44.45 -25.55 -68.95 -28.0 -88.85 -29.85 -102.3 -31.05 -107.2 -31.5 -109.45 34.75" fill="#b4e6fc" fill-rule="evenodd" stroke="none"/>
      <path d="M-109.45 34.75 L-107.2 -31.5 -102.3 -31.05 -88.85 -29.85 -68.95 -28.0 -44.45 -25.55 -17.45 -22.7 10.1 -19.5 36.25 -16.15 Q48.1 -14.45 55.3 -15.1 61.9 -15.75 74.1 -14.65 86.35 -13.55 89.35 -9.15 92.95 -4.35 96.65 -2.45 100.35 -0.5 96.15 1.85 91.9 4.2 90.55 5.95 L87.5 9.35 Q85.9 10.95 84.8 12.45 83.7 13.95 83.9 15.35 84.05 16.7 86.3 18.0 90.35 20.3 98.6 22.25 106.7 24.05 109.25 26.4 111.2 28.4 112.75 30.05 114.05 31.1 101.3 34.25 -54.55 57.25 -109.55 34.75" fill="none" stroke="#000000" stroke-linecap="round" stroke-linejoin="round" stroke-opacity="0.0" stroke-width="1.0"/>
    </g>
    <g id="morphshape1" transform="matrix(1, 0, 0, 1, 108.6, 31.5)">
      <path d="M-108.45 20.3 L-108.45 20.3 Q-107.4 22.3 -105.75 24.2 -96.35 25.7 -86.65 26.45 L-81.3 26.65 Q-73.2 26.6 -65.6 27.6 -61.05 28.2 -56.75 29.1 -51.1 30.2 -45.25 30.75 L-32.55 31.1 -24.9 30.8 -12.35 29.8 -7.25 29.4 5.85 29.05 8.15 29.05 21.1 28.9 28.65 28.5 40.25 27.95 50.25 27.7 57.4 27.75 61.7 27.8 Q66.05 27.85 65.15 27.3 L65.35 26.6 65.2 25.75 Q63.8 24.75 66.2 23.75 L69.4 22.35 Q72.1 21.1 74.25 19.4 L75.55 18.15 Q77.85 15.95 77.15 13.0 76.75 11.65 76.2 10.5 75.45 9.2 73.85 8.4 L72.55 7.8 69.9 6.7 Q68.45 6.2 66.05 5.8 L61.5 5.2 58.4 4.85 51.25 3.85 51.15 3.85 Q47.95 3.25 46.6 2.4 L46.45 2.3 Q43.75 0.35 46.7 -2.0 L48.4 -5.7 48.35 -5.85 Q52.1 -8.1 48.9 -10.15 45.65 -12.2 38.65 -13.75 L37.0 -14.15 Q29.05 -15.9 22.55 -17.0 18.05 -17.8 15.4 -18.55 11.75 -19.7 7.55 -20.55 L5.9 -20.85 Q0.3 -21.75 -5.7 -22.25 L-7.15 -22.35 -18.2 -23.15 -20.4 -23.35 -30.1 -24.1 -40.9 -25.05 -104.95 -31.05 -105.8 -30.3 -107.4 -28.95 -107.4 -28.2 -107.4 -27.8 -107.45 -24.95 -107.6 -18.8 -107.6 -17.6 -107.9 -7.75 -107.9 -5.85 -108.1 2.95 -108.2 8.35 -108.3 12.7 -108.45 19.85" fill="#89d4e8" fill-rule="evenodd" stroke="none"/>
      <path d="M-108.45 19.85 L-108.3 12.7 -108.2 8.35 -108.1 2.95 -107.9 -5.85 -107.9 -7.75 -107.6 -17.6 -107.6 -18.8 -107.45 -24.95 -107.4 -27.8 -107.4 -28.2 -107.4 -28.95 -105.8 -30.3 -104.95 -31.05 -40.9 -25.05 -30.1 -24.1 -20.4 -23.35 -18.2 -23.15 -7.15 -22.35 -5.7 -22.25 Q0.3 -21.75 5.9 -20.85 L7.55 -20.55 Q11.75 -19.7 15.4 -18.55 18.05 -17.8 22.55 -17.0 29.05 -15.9 37.0 -14.15 L38.65 -13.75 Q45.65 -12.2 48.9 -10.15 52.1 -8.1 48.35 -5.85 L48.4 -5.7 46.7 -2.0 Q43.75 0.35 46.45 2.3 L46.6 2.4 Q47.95 3.25 51.15 3.85 L51.25 3.85 58.4 4.85 61.5 5.2 66.05 5.8 Q68.45 6.2 69.9 6.7 L72.55 7.8 73.85 8.4 Q75.45 9.2 76.2 10.5 76.75 11.65 77.15 13.0 77.85 15.95 75.55 18.15 L74.25 19.4 Q72.1 21.1 69.4 22.35 L66.2 23.75 Q63.8 24.75 65.2 25.75 L65.35 26.6 65.15 27.3 Q66.05 27.85 61.7 27.8 L57.4 27.75 50.25 27.7 40.25 27.95 28.65 28.5 21.1 28.9 8.15 29.05 5.85 29.05 -7.25 29.4 -12.35 29.8 -24.9 30.8 -32.55 31.1 -45.25 30.75 Q-51.1 30.2 -56.75 29.1 -61.05 28.2 -65.6 27.6 -73.2 26.6 -81.3 26.65 L-86.65 26.45 Q-96.35 25.7 -105.75 24.2 -107.4 22.3 -108.45 20.3 L-108.45 20.3" fill="none" stroke="#000000" stroke-linecap="round" stroke-linejoin="round" stroke-opacity="0.0" stroke-width="1.0"/>
    </g>
  </defs>
</svg>
