<?xml version="1.0" encoding="UTF-8" standalone="no"?>
<svg xmlns:xlink="http://www.w3.org/1999/xlink" height="79.05px" width="232.2px" xmlns="http://www.w3.org/2000/svg">
  <g transform="matrix(1, 0, 0, 1, 110.0, 31.5)">
    <use height="79.05" transform="matrix(1.0, 0.0, 0.0, 1.0, -110.0, -31.5)" width="232.2" xlink:href="#morphshape0"/>
    <use height="62.8" transform="matrix(1.0, 0.0, 0.0, 1.0, -108.6, -31.5)" width="200.15" xlink:href="#morphshape1"/>
  </g>
  <defs>
    <g id="morphshape0" transform="matrix(1, 0, 0, 1, 110.0, 31.5)">
      <path d="M-109.15 32.15 Q-29.45 60.25 109.1 33.05 116.9 30.8 116.25 29.8 115.65 28.15 114.45 25.95 112.85 23.55 102.85 21.95 92.75 20.25 88.65 17.95 86.35 16.65 86.2 15.3 86.0 13.9 87.1 12.4 88.2 10.9 89.85 9.3 L92.95 5.9 Q94.3 4.15 100.45 1.55 106.55 -1.05 101.65 -2.9 96.75 -4.75 93.25 -10.8 90.1 -16.65 75.2 -17.45 60.3 -18.25 55.45 -16.35 50.25 -14.45 38.0 -16.15 L11.55 -19.5 -16.35 -22.7 -43.7 -25.55 -68.5 -28.0 -88.65 -29.85 -102.25 -31.05 -107.2 -31.5 -109.2 32.25" fill="#b4e6fc" fill-rule="evenodd" stroke="none"/>
      <path d="M-109.2 32.25 L-107.2 -31.5 -102.25 -31.05 -88.65 -29.85 -68.5 -28.0 -43.7 -25.55 -16.35 -22.7 11.55 -19.5 38.0 -16.15 Q50.25 -14.45 55.45 -16.35 60.3 -18.25 75.2 -17.45 90.1 -16.65 93.25 -10.8 96.75 -4.75 101.65 -2.9 106.55 -1.05 100.45 1.55 94.3 4.15 92.95 5.9 L89.85 9.3 Q88.2 10.9 87.1 12.4 86.0 13.9 86.2 15.3 86.35 16.65 88.65 17.95 92.75 20.25 102.85 21.95 112.85 23.55 114.45 25.95 115.65 28.15 116.25 29.8 116.9 30.8 109.1 33.05 -29.45 60.25 -109.15 32.15" fill="none" stroke="#000000" stroke-linecap="round" stroke-linejoin="round" stroke-opacity="0.0" stroke-width="1.0"/>
    </g>
    <g id="morphshape1" transform="matrix(1, 0, 0, 1, 108.6, 31.5)">
      <path d="M-108.55 21.95 L-108.55 22.0 Q-107.95 24.45 -106.45 26.75 -96.6 26.6 -85.95 27.3 L-80.25 27.55 Q-71.75 27.7 -63.55 28.45 -58.7 28.9 -54.0 29.5 -47.9 30.2 -41.7 30.55 L-28.15 30.55 -20.0 30.1 -6.7 28.9 -1.3 28.5 12.6 28.65 15.05 28.8 28.9 29.2 36.9 28.85 49.2 28.25 59.85 27.9 67.45 27.9 72.0 27.95 Q77.35 28.05 74.8 27.2 L72.75 26.35 70.35 25.35 Q66.95 24.1 69.45 23.0 L72.8 21.5 Q75.65 20.2 78.15 18.6 L79.7 17.4 Q82.65 15.1 81.8 12.1 81.35 10.65 80.65 9.5 79.7 8.15 78.0 7.45 L76.6 6.9 73.7 5.7 Q72.45 5.2 69.7 4.85 L64.85 4.45 61.55 4.25 53.9 3.45 53.75 3.45 Q50.25 2.9 48.9 2.05 L48.8 2.0 Q46.25 0.2 51.7 -1.85 L56.25 -4.6 56.25 -4.7 Q62.9 -6.6 59.65 -8.5 56.75 -10.2 48.75 -11.7 L46.95 -12.05 Q37.9 -13.75 31.45 -14.95 26.25 -16.0 23.85 -16.95 20.2 -18.55 15.65 -19.7 L13.95 -20.1 Q8.1 -21.35 1.65 -22.0 L0.15 -22.15 -11.55 -23.05 -13.9 -23.2 -24.3 -23.9 -35.8 -24.8 -103.7 -31.1 -105.0 -30.7 -107.35 -30.0 -107.35 -29.2 -107.35 -28.7 -107.4 -25.7 -107.55 -19.15 -107.55 -17.95 -107.85 -7.45 -107.9 -5.4 -108.1 3.95 -108.25 9.7 -108.35 14.35 -108.5 22.0" fill="#89d4e8" fill-rule="evenodd" stroke="none"/>
      <path d="M-108.5 22.0 L-108.35 14.35 -108.25 9.7 -108.1 3.95 -107.9 -5.4 -107.85 -7.45 -107.55 -17.95 -107.55 -19.15 -107.4 -25.7 -107.35 -28.7 -107.35 -29.2 -107.35 -30.0 -105.0 -30.7 -103.7 -31.1 -35.8 -24.8 -24.3 -23.9 -13.9 -23.2 -11.55 -23.05 0.15 -22.15 1.65 -22.0 Q8.1 -21.35 13.95 -20.1 L15.65 -19.7 Q20.2 -18.55 23.85 -16.95 26.25 -16.0 31.45 -14.95 37.9 -13.75 46.95 -12.05 L48.75 -11.7 Q56.75 -10.2 59.65 -8.5 62.9 -6.6 56.25 -4.7 L56.25 -4.6 51.7 -1.85 Q46.25 0.2 48.8 2.0 L48.9 2.05 Q50.25 2.9 53.75 3.45 L53.9 3.45 61.55 4.25 64.85 4.45 69.7 4.85 Q72.45 5.2 73.7 5.7 L76.6 6.9 78.0 7.45 Q79.7 8.15 80.65 9.5 81.35 10.65 81.8 12.1 82.65 15.1 79.7 17.4 L78.15 18.6 Q75.65 20.2 72.8 21.5 L69.45 23.0 Q66.95 24.1 70.35 25.35 L72.75 26.35 74.8 27.2 Q77.35 28.05 72.0 27.95 L67.45 27.9 59.85 27.9 49.2 28.25 36.9 28.85 28.9 29.2 15.05 28.8 12.6 28.65 -1.3 28.5 -6.7 28.9 -20.0 30.1 -28.15 30.55 -41.7 30.55 Q-47.9 30.2 -54.0 29.5 -58.7 28.9 -63.55 28.45 -71.75 27.7 -80.25 27.55 L-85.95 27.3 Q-96.6 26.6 -106.45 26.75 -107.95 24.45 -108.55 22.0 L-108.55 21.95" fill="none" stroke="#000000" stroke-linecap="round" stroke-linejoin="round" stroke-opacity="0.0" stroke-width="1.0"/>
    </g>
  </defs>
</svg>
