<?xml version="1.0" encoding="UTF-8" standalone="no"?>
<svg xmlns:xlink="http://www.w3.org/1999/xlink" height="58.0px" width="155.35px" xmlns="http://www.w3.org/2000/svg">
  <g transform="matrix(1, 0, 0, 1, -92.1, -12.45)">
    <g transform="matrix(1.0, 0.0, 0.0, 1.0, 0.0, 0.0)">
      <use fill="#009cea" height="58.0" transform="matrix(0.0459, 0.0, 0.0, 0.0459, 89.0, 50.0)" width="155.35" xlink:href="#font_Handwriting_-_Dakota_F0"/>
      <use fill="#009cea" height="58.0" transform="matrix(0.0459, 0.0, 0.0, 0.0459, 118.65, 50.0)" width="155.35" xlink:href="#font_Handwriting_-_Dakota_i0"/>
      <use fill="#009cea" height="58.0" transform="matrix(0.0459, 0.0, 0.0, 0.0459, 131.0, 50.0)" width="155.35" xlink:href="#font_Handwriting_-_Dakota_s0"/>
      <use fill="#009cea" height="58.0" transform="matrix(0.0459, 0.0, 0.0, 0.0459, 159.75, 50.0)" width="155.35" xlink:href="#font_Handwriting_-_Dakota_h0"/>
      <use fill="#009cea" height="58.0" transform="matrix(0.0459, 0.0, 0.0, 0.0459, 189.85, 50.0)" width="155.35" xlink:href="#font_Handwriting_-_Dakota_i0"/>
      <use fill="#009cea" height="58.0" transform="matrix(0.0459, 0.0, 0.0, 0.0459, 202.2, 50.0)" width="155.35" xlink:href="#font_Handwriting_-_Dakota_n0"/>
      <use fill="#009cea" height="58.0" transform="matrix(0.0459, 0.0, 0.0, 0.0459, 226.55, 50.0)" width="155.35" xlink:href="#font_Handwriting_-_Dakota_g0"/>
    </g>
  </g>
  <defs>
    <g id="font_Handwriting_-_Dakota_F0">
      <path d="M1079.5 -732.0 L1079.5 -732.0 Q1064.0 -775.0 993.5 -775.0 860.0 -775.0 743.5 -728.0 L510.0 -634.0 Q373.0 -578.5 272.5 -563.0 L250.0 -539.5 248.0 -523.0 Q249.0 -519.0 280.5 -485.5 292.0 -473.0 292.0 -458.5 292.0 -429.0 235.5 -326.5 161.0 -192.5 132.0 -140.5 77.0 -39.0 77.0 0.0 L77.0 17.5 Q130.0 17.5 159.0 -47.0 197.5 -140.5 211.0 -177.0 241.5 -254.0 289.0 -274.5 378.0 -312.5 470.0 -333.0 603.0 -361.5 655.5 -372.5 638.0 -394.0 602.0 -400.5 590.0 -402.5 541.5 -402.5 512.0 -402.5 453.0 -389.5 394.5 -377.0 364.5 -377.0 352.5 -377.0 327.5 -383.0 342.0 -402.5 365.5 -444.5 410.5 -524.5 425.0 -542.5 461.0 -587.5 673.0 -661.5 876.5 -732.0 948.5 -732.0 1022.0 -732.0 1070.0 -696.5 1075.0 -711.5 1076.5 -713.5 1079.5 -725.0 1079.5 -732.0" fill-rule="evenodd" stroke="none"/>
    </g>
    <g id="font_Handwriting_-_Dakota_i0">
      <path d="M184.5 -295.0 L184.5 -295.0 Q184.5 -311.5 153.5 -342.0 115.5 -311.5 98.5 -266.0 75.0 -201.5 66.5 -176.0 63.5 -168.0 40.0 -130.0 22.5 -102.5 22.5 -80.0 22.5 -72.5 25.0 -59.5 27.5 -46.0 27.5 -39.0 62.5 -39.0 74.0 -43.0 93.0 -50.0 105.5 -78.0 120.0 -113.5 127.0 -132.0 184.5 -278.5 184.5 -295.0 M280.5 -576.5 L280.5 -576.5 Q280.5 -589.0 268.5 -600.0 252.0 -615.5 250.0 -618.5 221.0 -670.5 211.0 -677.0 210.0 -660.5 198.0 -627.5 186.5 -595.0 186.5 -576.5 186.5 -539.5 231.5 -539.5 280.5 -539.5 280.5 -576.5" fill-rule="evenodd" stroke="none"/>
    </g>
    <g id="font_Handwriting_-_Dakota_s0">
      <path d="M636.0 -490.5 L636.0 -490.5 Q619.5 -492.5 606.0 -499.5 583.5 -491.5 459.0 -453.5 343.0 -419.0 284.5 -394.0 193.5 -356.5 163.0 -322.5 188.5 -294.0 271.5 -272.5 421.0 -233.5 424.0 -233.5 495.5 -212.0 495.5 -172.0 495.5 -115.5 374.0 -63.5 268.5 -18.5 202.0 -18.5 163.0 -18.5 111.5 -89.0 57.5 -165.0 28.5 -175.0 L27.5 -159.5 Q22.5 -90.0 88.0 -28.5 148.5 27.5 221.0 27.5 309.5 27.5 428.0 -32.5 562.0 -102.5 562.0 -182.0 562.0 -237.5 449.5 -279.5 418.0 -292.0 289.0 -323.5 328.5 -364.5 417.0 -387.0 519.0 -412.5 559.0 -423.0 626.5 -442.5 636.0 -490.5" fill-rule="evenodd" stroke="none"/>
    </g>
    <g id="font_Handwriting_-_Dakota_h0">
      <path d="M663.5 -316.5 L663.5 -316.5 Q663.5 -363.5 636.0 -391.0 626.5 -400.5 608.5 -400.5 592.0 -400.5 469.0 -349.0 404.5 -322.5 318.5 -284.5 491.5 -633.0 491.5 -648.0 491.5 -662.5 478.0 -670.5 465.0 -679.0 452.5 -686.0 419.0 -655.5 379.0 -561.0 323.5 -429.0 317.5 -419.0 297.0 -384.0 219.0 -280.5 112.5 -139.0 89.0 -109.5 23.5 -22.5 18.5 0.0 63.5 9.0 86.0 17.5 142.5 -117.5 288.0 -219.0 428.0 -316.5 578.5 -334.0 578.5 -327.5 580.5 -314.5 582.5 -301.0 582.5 -295.0 582.5 -248.0 523.0 -125.5 463.0 -3.0 463.0 38.0 463.0 77.0 501.0 77.0 521.0 77.0 558.0 57.5 541.5 29.5 541.5 0.0 541.5 -36.0 602.5 -152.5 663.5 -269.5 663.5 -316.5" fill-rule="evenodd" stroke="none"/>
    </g>
    <g id="font_Handwriting_-_Dakota_n0">
      <path d="M549.0 -247.0 L549.0 -247.0 Q549.0 -286.5 525.5 -319.0 502.0 -351.0 463.0 -351.0 430.0 -351.0 360.5 -317.5 348.0 -312.5 260.0 -265.0 281.5 -316.5 282.5 -320.5 288.0 -333.0 288.0 -353.0 288.0 -383.0 259.0 -383.0 239.5 -383.0 231.0 -375.0 222.0 -366.5 213.0 -346.0 202.0 -319.5 192.5 -293.0 176.0 -262.0 119.0 -193.5 18.5 -73.5 18.5 -19.5 L27.5 -9.0 27.5 0.0 Q94.0 -11.0 166.0 -84.0 256.0 -175.0 290.0 -211.0 356.5 -276.5 427.0 -276.5 480.5 -276.5 480.5 -224.0 480.5 -196.5 428.0 -125.0 376.0 -53.0 376.0 -23.5 376.0 -7.0 389.5 3.0 403.5 13.5 421.0 13.5 453.5 13.5 462.0 -17.5 456.5 -25.5 454.5 -32.5 453.5 -36.0 452.5 -49.0 481.5 -75.5 515.0 -143.5 549.0 -211.0 549.0 -247.0" fill-rule="evenodd" stroke="none"/>
    </g>
    <g id="font_Handwriting_-_Dakota_g0">
      <path d="M399.5 -299.0 L399.5 -299.0 Q399.5 -281.5 381.0 -252.0 343.0 -189.5 343.0 -177.0 343.0 -171.0 347.5 -157.5 352.5 -144.5 352.5 -137.0 352.5 -110.5 304.0 -96.0 270.5 -86.0 235.5 -86.0 101.5 -86.0 101.5 -154.5 101.5 -217.0 190.5 -277.5 271.5 -333.0 337.0 -333.0 399.5 -333.0 399.5 -299.0 M465.0 -286.5 L465.0 -286.5 Q465.0 -387.0 349.0 -387.0 248.0 -387.0 144.5 -316.5 32.0 -239.5 32.0 -141.5 32.0 -71.5 124.0 -49.0 170.0 -38.0 269.5 -38.0 277.5 -38.0 293.0 -42.0 308.5 -46.0 314.5 -46.0 325.5 -46.0 346.0 -38.0 358.5 -16.5 358.5 15.5 358.5 146.5 284.5 253.0 202.0 371.5 78.0 371.5 40.0 371.5 -23.5 342.0 -87.0 312.5 -113.5 282.5 L-124.0 282.5 Q-133.0 310.5 -133.0 319.5 -133.0 359.5 -41.0 394.5 36.0 424.0 84.0 424.0 352.5 424.0 413.5 92.0 433.0 -11.0 433.0 -167.0 433.0 -182.0 443.5 -209.0 465.0 -264.0 465.0 -286.5" fill-rule="evenodd" stroke="none"/>
    </g>
  </defs>
</svg>
