<?xml version="1.0" encoding="UTF-8" standalone="no"?>
<svg xmlns:xlink="http://www.w3.org/1999/xlink" height="34.9px" width="127.2px" xmlns="http://www.w3.org/2000/svg">
  <g transform="matrix(1, 0, 0, 1, 63.45, 17.2)">
    <use height="34.9" transform="matrix(1.0, 0.0, 0.0, 1.0, -63.45, -17.2)" width="118.2" xlink:href="#shape0"/>
    <use height="33.45" transform="matrix(-0.1985, 0.0, 0.0, 0.1985, 63.745, 0.376)" width="33.4" xlink:href="#sprite0"/>
  </g>
  <defs>
    <g id="shape0" transform="matrix(1, 0, 0, 1, 63.45, 17.2)">
      <path d="M-49.4 -6.7 L-45.4 -4.3 -37.8 0.15 -33.2 3.2 -27.5 7.05 Q-24.3 9.1 -20.3 11.05 -16.3 12.95 -11.35 14.4 -6.4 15.8 -0.3 16.4 5.75 17.0 13.15 16.4 20.5 15.75 29.3 13.6 L30.45 14.0 33.5 14.75 37.95 15.05 Q40.4 14.9 43.05 13.95 45.75 13.0 48.35 10.75 L48.9 10.9 50.15 11.05 51.5 11.0 Q52.1 10.9 52.2 10.5 52.3 10.05 51.9 9.65 51.5 9.2 50.9 8.8 L49.9 8.2 49.45 8.0 Q49.95 8.1 50.45 7.6 L51.6 6.05 52.7 3.95 53.5 2.0 53.75 0.75 Q53.6 -0.65 52.8 -1.5 52.0 -2.35 50.8 -2.8 L48.25 -3.65 45.6 -4.35 Q44.35 -4.75 43.4 -5.35 L41.35 -7.15 39.3 -9.35 37.1 -11.4 Q35.95 -12.4 34.7 -12.9 L32.05 -13.3 30.25 -13.1 29.45 -13.05 29.3 -13.05 27.4 -12.45 21.4 -11.3 10.75 -10.2 Q4.25 -9.8 -4.95 -9.95 L-17.05 -10.1 -28.25 -10.15 -38.05 -10.05 -45.8 -9.85 -50.9 -9.75 -52.75 -9.65 -52.95 -9.45 -53.15 -8.85 -52.6 -8.15 Q-52.05 -7.75 -50.5 -7.4 L-49.4 -6.7" fill="#a33128" fill-rule="evenodd" stroke="none"/>
      <path d="M-49.4 -6.7 L-45.4 -4.3 -37.8 0.15 -33.2 3.2 -27.5 7.05 Q-24.3 9.1 -20.3 11.05 -16.3 12.95 -11.35 14.4 -6.4 15.8 -0.3 16.4 5.75 17.0 13.15 16.4 20.5 15.75 29.3 13.6 L30.45 14.0 33.5 14.75 37.95 15.05 Q40.4 14.9 43.05 13.95 45.75 13.0 48.35 10.75 L48.9 10.9 50.15 11.05 51.5 11.0 Q52.1 10.9 52.2 10.5 52.3 10.05 51.9 9.65 51.5 9.2 50.9 8.8 L49.9 8.2 49.45 8.0 Q49.95 8.1 50.45 7.6 L51.6 6.05 52.7 3.95 53.5 2.0 53.75 0.75 Q53.6 -0.65 52.8 -1.5 52.0 -2.35 50.8 -2.8 L48.25 -3.65 45.6 -4.35 Q44.35 -4.75 43.4 -5.35 L41.35 -7.15 39.3 -9.35 37.1 -11.4 Q35.95 -12.4 34.7 -12.9 L32.05 -13.3 30.25 -13.1 29.45 -13.05 29.3 -13.05 27.4 -12.45 21.4 -11.3 10.75 -10.2 Q4.25 -9.8 -4.95 -9.95 L-17.05 -10.1 -28.25 -10.15 -38.05 -10.05 -45.8 -9.85 -50.9 -9.75 -52.75 -9.65 -52.95 -9.45 -53.15 -8.85 -52.6 -8.15 Q-52.05 -7.75 -50.5 -7.4 L-49.4 -6.7" fill="none" stroke="#000000" stroke-linecap="round" stroke-linejoin="round" stroke-width="2.0"/>
      <path d="M22.45 4.1 Q23.05 5.7 24.2 6.95 L26.8 9.45 29.1 11.6 29.9 13.35 31.8 13.95 34.95 14.5 Q36.8 14.7 39.0 14.5 41.2 14.25 43.5 13.3 45.8 12.35 48.0 10.45 L48.2 10.3 48.4 10.35 50.7 10.6 51.75 10.35 Q51.8 10.05 51.1 9.45 L49.25 8.35 49.05 8.25 49.4 7.45 49.55 7.55 49.9 7.4 51.05 6.05 52.15 4.0 53.0 2.0 53.3 0.8 Q53.2 -0.4 52.45 -1.25 L52.5 -0.45 Q52.5 0.7 51.85 1.75 49.45 4.7 46.15 6.5 42.85 8.25 39.1 8.85 35.4 9.4 31.65 8.7 27.95 8.05 24.65 6.0 L22.45 4.1" fill="#842824" fill-rule="evenodd" stroke="none"/>
      <path d="M-50.45 -7.8 L-50.4 -7.8 -50.35 -7.8 -50.3 -7.8 -49.1 -7.05 -45.1 -4.65 Q-42.35 -2.95 -37.6 -0.2 L-32.8 2.95 -27.1 6.8 Q-23.95 8.85 -20.0 10.7 -16.0 12.6 -11.1 14.05 -6.2 15.45 -0.15 16.0 5.85 16.6 13.15 15.95 20.45 15.35 29.15 13.2 L29.3 13.15 29.65 13.2 30.4 13.2 30.85 13.25 29.5 12.05 27.95 10.8 26.85 9.5 Q24.45 10.85 21.15 11.8 L13.95 13.15 5.85 13.55 -2.7 12.85 Q-7.0 12.25 -11.1 11.05 -15.15 9.8 -18.75 7.95 L-27.55 3.2 -35.75 -1.3 Q-39.85 -3.45 -44.0 -5.3 -48.2 -7.2 -52.55 -8.6 L-51.9 -8.25 -50.45 -7.8" fill="#842824" fill-rule="evenodd" stroke="none"/>
      <path d="M-52.55 -9.25 L-52.75 -8.9 -52.6 -8.65 -51.95 -8.3 -50.45 -7.85 -50.4 -7.85 -50.3 -7.8 -49.85 -7.5 -48.9 -6.95 -48.35 -6.6 -35.25 -6.65 -22.25 -6.45 -9.05 -6.25 Q-2.35 -6.2 4.35 -6.3 L17.8 -6.95 Q22.6 -6.95 25.1 -9.0 L25.45 -8.75 25.0 -7.95 23.8 -5.4 Q25.35 -7.45 27.35 -8.95 29.35 -10.5 31.6 -11.2 L36.2 -11.6 Q34.1 -13.15 32.1 -12.9 L30.05 -12.7 29.35 -12.65 27.1 -12.0 20.9 -10.8 10.35 -9.75 Q3.95 -9.35 -4.95 -9.55 L-16.55 -9.7 -27.4 -9.7 -37.0 -9.6 -44.75 -9.5 -50.1 -9.35 -52.55 -9.25" fill="#ba3b35" fill-rule="evenodd" stroke="none"/>
      <path d="M33.3 -16.25 Q32.4 -15.85 32.25 -15.0 32.05 -14.2 32.25 -13.35 L32.7 -11.85 33.05 -11.25 Q33.5 -12.05 34.35 -12.4 L36.2 -12.75 37.8 -12.7 38.5 -12.65 38.25 -16.0 37.55 -16.3 35.7 -16.7 33.3 -16.25" fill="#7a1b16" fill-rule="evenodd" stroke="none"/>
      <path d="M33.3 -16.25 L35.7 -16.7 37.55 -16.3 38.25 -16.0 38.5 -12.65 37.8 -12.7 36.2 -12.75 34.35 -12.4 Q33.5 -12.05 33.05 -11.25 L32.7 -11.85 32.25 -13.35 Q32.05 -14.2 32.25 -15.0 32.4 -15.85 33.3 -16.25" fill="none" stroke="#000000" stroke-linecap="round" stroke-linejoin="round" stroke-width="1.0"/>
      <path d="M21.3 11.8 L21.3 12.15 21.2 12.95 20.7 13.95 Q20.35 14.4 19.65 14.75 L20.3 14.85 22.05 14.95 24.3 14.4 Q25.5 13.9 26.55 12.8 L21.3 11.8" fill="#842824" fill-rule="evenodd" stroke="none"/>
      <path d="M21.3 11.8 L21.3 12.15 21.2 12.95 20.7 13.95 Q20.35 14.4 19.65 14.75 L20.3 14.85 22.05 14.95 24.3 14.4 Q25.5 13.9 26.55 12.8" fill="none" stroke="#000000" stroke-linecap="round" stroke-linejoin="round" stroke-width="1.0"/>
      <path d="M33.55 -3.1 Q33.55 -1.35 33.95 0.0 34.4 1.4 35.1 2.25 35.85 3.05 36.7 3.05 37.6 3.05 38.3 2.25 39.05 1.4 39.45 0.0 39.9 -1.35 39.9 -3.1 39.9 -4.8 39.45 -6.2 39.05 -7.6 38.3 -8.4 37.6 -9.25 36.7 -9.25 35.85 -9.25 35.1 -8.4 34.4 -7.6 33.95 -6.2 33.55 -4.8 33.55 -3.1" fill="#ffffff" fill-rule="evenodd" stroke="none"/>
      <path d="M33.55 -3.1 Q33.55 -1.35 33.95 0.0 34.4 1.4 35.1 2.25 35.85 3.05 36.7 3.05 37.6 3.05 38.3 2.25 39.05 1.4 39.45 0.0 39.9 -1.35 39.9 -3.1 39.9 -4.8 39.45 -6.2 39.05 -7.6 38.3 -8.4 37.6 -9.25 36.7 -9.25 35.85 -9.25 35.1 -8.4 34.4 -7.6 33.95 -6.2 33.55 -4.8 33.55 -3.1" fill="none" stroke="#000000" stroke-linecap="round" stroke-linejoin="round" stroke-width="1.0"/>
      <path d="M35.2 -3.3 Q35.2 -2.3 35.55 -1.45 35.85 -0.6 36.35 -0.1 36.9 0.4 37.55 0.4 38.2 0.4 38.75 -0.1 L39.6 -1.45 39.9 -3.3 39.6 -5.15 38.75 -6.5 Q38.2 -7.0 37.55 -7.0 36.9 -7.0 36.4 -6.5 35.85 -6.0 35.55 -5.15 35.2 -4.35 35.2 -3.3" fill="#000000" fill-rule="evenodd" stroke="none"/>
      <path d="M35.95 -3.35 Q35.95 -2.25 36.4 -1.5 36.85 -0.8 37.55 -0.8 38.25 -0.8 38.65 -1.5 39.15 -2.25 39.15 -3.35 39.15 -4.4 38.65 -5.1 38.2 -5.85 37.55 -5.85 36.85 -5.85 36.4 -5.1 35.95 -4.4 35.95 -3.35" fill="#3a0707" fill-rule="evenodd" stroke="none"/>
      <path d="M36.0 -5.05 L36.2 -4.35 Q36.35 -4.1 36.6 -4.1 L37.05 -4.35 37.2 -5.05 37.05 -5.7 36.6 -5.95 36.2 -5.7 36.0 -5.05" fill="#ffffff" fill-rule="evenodd" stroke="none"/>
      <path d="M26.2 -8.15 Q24.2 -5.85 23.25 -3.8 22.05 -1.25 22.1 1.0 22.15 3.2 23.05 5.05 23.95 6.9 25.2 8.35 26.5 9.8 27.8 10.8 L29.95 12.25 30.85 12.8 Q27.4 10.55 25.55 8.25 23.7 6.0 23.05 3.85 22.4 1.65 22.65 -0.3 22.85 -2.25 23.55 -3.85 L25.1 -6.7 26.2 -8.15" fill="#000000" fill-rule="evenodd" stroke="none"/>
      <path d="M-49.8 -9.55 Q-50.85 -10.75 -52.35 -11.7 L-55.65 -13.25 -59.15 -14.05 -62.45 -13.95 -61.4 -12.0 -59.7 -10.45 -57.55 -9.25 Q-56.5 -8.75 -55.5 -8.4 L-57.7 -7.35 -59.95 -5.9 -61.55 -4.05 Q-62.1 -3.0 -61.85 -1.7 -59.9 -1.95 -57.7 -2.8 -55.55 -3.65 -53.55 -4.85 L-50.15 -7.55 -49.8 -9.55" fill="#a33128" fill-rule="evenodd" stroke="none"/>
      <path d="M-50.15 -7.55 L-53.55 -4.85 Q-55.55 -3.65 -57.7 -2.8 -59.9 -1.95 -61.85 -1.7 -62.1 -3.0 -61.55 -4.05 L-59.95 -5.9 -57.7 -7.35 -55.5 -8.4 Q-56.5 -8.75 -57.55 -9.25 L-59.7 -10.45 -61.4 -12.0 -62.45 -13.95 -59.15 -14.05 -55.65 -13.25 -52.35 -11.7 Q-50.85 -10.75 -49.8 -9.55" fill="none" stroke="#000000" stroke-linecap="round" stroke-linejoin="round" stroke-width="2.0"/>
      <path d="M16.1 -6.7 L10.35 -6.7 Q9.85 -2.85 10.0 0.4 10.15 3.55 10.7 6.05 11.2 8.55 11.8 10.25 L12.85 12.85 13.35 13.75 18.05 12.35 Q15.85 9.65 15.0 6.95 14.1 4.2 14.15 1.75 14.2 -0.65 14.65 -2.6 L15.6 -5.6 16.1 -6.7" fill="#ba3b35" fill-rule="evenodd" stroke="none"/>
      <path d="M1.5 -7.0 L-4.55 -6.45 Q-5.35 -3.0 -5.35 -0.05 -5.3 2.9 -4.75 5.2 -4.25 7.55 -3.55 9.2 L-2.35 11.7 -1.8 12.6 3.45 13.15 Q2.35 11.8 1.75 9.8 1.2 7.85 1.0 5.6 L0.8 1.1 1.05 -2.95 1.35 -5.85 1.5 -7.0" fill="#ba3b35" fill-rule="evenodd" stroke="none"/>
      <path d="M-20.85 -7.85 Q-21.1 -5.9 -20.75 -3.65 L-19.85 0.85 -18.55 4.9 -17.45 7.8 -17.0 8.95 -10.35 11.45 Q-11.45 10.3 -12.15 8.6 L-13.15 4.85 -13.65 0.8 -13.8 -2.8 -13.75 -5.45 -13.65 -6.45 -20.85 -7.85" fill="#ba3b35" fill-rule="evenodd" stroke="none"/>
      <path d="M-29.45 -6.45 L-32.2 -7.85 Q-32.85 -7.4 -33.05 -6.5 L-33.05 -4.5 -32.65 -2.35 -32.15 -0.7 -31.95 0.0 Q-30.45 0.95 -28.9 1.95 -29.8 0.45 -30.05 -1.05 L-30.1 -3.7 -29.75 -5.7 -29.45 -6.45" fill="#ba3b35" fill-rule="evenodd" stroke="none"/>
    </g>
    <g id="sprite0" transform="matrix(1, 0, 0, 1, 16.35, 23.55)">
      <use height="25.4" transform="matrix(0.8077, 0.0, 0.0, 0.8077, -9.9866, -10.6327)" width="25.4" xlink:href="#shape1"/>
    </g>
    <g id="shape1" transform="matrix(1, 0, 0, 1, 12.55, 13.35)">
      <path d="M8.9 -9.4 Q12.5 -5.8 12.5 -0.65 12.5 4.45 8.9 8.1 5.25 11.7 0.15 11.7 -5.0 11.7 -8.6 8.1 -12.2 4.45 -12.2 -0.65 -12.2 -5.8 -8.6 -9.4 -5.0 -13.0 0.15 -13.0 5.25 -13.0 8.9 -9.4" fill="#ccffff" fill-opacity="0.49019608" fill-rule="evenodd" stroke="none"/>
      <path d="M8.9 -9.4 Q12.5 -5.8 12.5 -0.65 12.5 4.45 8.9 8.1 5.25 11.7 0.15 11.7 -5.0 11.7 -8.6 8.1 -12.2 4.45 -12.2 -0.65 -12.2 -5.8 -8.6 -9.4 -5.0 -13.0 0.15 -13.0 5.25 -13.0 8.9 -9.4" fill="none" stroke="#00ccff" stroke-linecap="round" stroke-linejoin="round" stroke-opacity="0.49019608" stroke-width="0.75"/>
      <path d="M8.05 -7.55 Q10.05 -4.8 10.05 -0.8 10.05 3.15 8.05 5.95 6.1 8.75 3.3 8.8 L2.65 8.75 Q4.25 8.1 5.55 6.25 7.5 3.5 7.5 -0.5 7.5 -4.45 5.55 -7.25 3.8 -9.7 1.4 -9.95 L3.3 -10.35 Q6.1 -10.35 8.05 -7.55" fill="#ffffff" fill-opacity="0.49019608" fill-rule="evenodd" stroke="none"/>
      <path d="M-7.6 -6.4 Q-7.6 -7.35 -6.95 -8.0 -6.3 -8.65 -5.35 -8.65 -4.4 -8.65 -3.75 -8.0 -3.1 -7.35 -3.1 -6.4 -3.1 -5.45 -3.75 -4.8 -4.4 -4.15 -5.35 -4.15 -6.3 -4.15 -6.95 -4.8 -7.6 -5.45 -7.6 -6.4" fill="#ffffff" fill-opacity="0.49019608" fill-rule="evenodd" stroke="none"/>
    </g>
  </defs>
</svg>
