<?xml version="1.0" encoding="UTF-8" standalone="no"?>
<svg xmlns:xlink="http://www.w3.org/1999/xlink" height="34.9px" width="127.2px" xmlns="http://www.w3.org/2000/svg">
  <g transform="matrix(1, 0, 0, 1, 63.45, 17.2)">
    <use height="33.1" transform="matrix(1.0, 0.0, 0.0, 1.0, -61.15, -15.4)" width="114.9" xlink:href="#shape0"/>
    <use height="33.45" transform="matrix(-0.1985, 0.0, 0.0, 0.1985, 63.745, 0.376)" width="33.4" xlink:href="#sprite0"/>
  </g>
  <defs>
    <g id="shape0" transform="matrix(1, 0, 0, 1, 61.15, 15.4)">
      <path d="M-51.7 -9.05 Q-52.4 -10.5 -53.4 -11.55 L-55.6 -13.4 Q-56.8 -14.1 -58.0 -14.3 L-60.15 -14.25 -59.5 -11.95 -58.3 -10.1 -56.9 -8.65 -55.55 -7.7 -57.0 -6.45 -58.5 -4.75 Q-59.2 -3.8 -59.55 -2.55 -59.95 -1.3 -59.75 0.2 -58.45 -0.1 -57.0 -1.05 L-54.2 -3.55 Q-52.85 -5.0 -51.95 -6.7 L-51.7 -9.05" fill="#a33128" fill-rule="evenodd" stroke="none"/>
      <path d="M-51.95 -6.7 Q-52.85 -5.0 -54.2 -3.55 L-57.0 -1.05 Q-58.45 -0.1 -59.75 0.2 -59.95 -1.3 -59.55 -2.55 -59.2 -3.8 -58.5 -4.75 L-57.0 -6.45 -55.55 -7.7 -56.9 -8.65 -58.3 -10.1 -59.5 -11.95 -60.15 -14.25 -58.0 -14.3 Q-56.8 -14.1 -55.6 -13.4 L-53.4 -11.55 Q-52.4 -10.5 -51.7 -9.05" fill="none" stroke="#000000" stroke-linecap="round" stroke-linejoin="round" stroke-width="2.0"/>
      <path d="M-53.1 -7.45 L-53.0 -7.4 -51.8 -6.7 -47.8 -4.3 -40.1 0.15 -35.45 3.2 -29.65 7.1 -22.35 11.05 Q-18.3 13.0 -13.25 14.4 -8.25 15.85 -2.1 16.4 4.1 17.0 11.55 16.4 19.0 15.75 27.95 13.6 L29.1 14.05 32.25 14.75 36.7 15.05 Q39.2 14.95 41.9 13.95 44.65 13.0 47.25 10.75 L47.8 10.9 49.1 11.05 50.45 11.0 51.2 10.5 50.85 9.65 49.9 8.8 48.85 8.2 48.4 8.0 Q48.85 8.15 49.4 7.6 L50.6 6.05 51.7 3.95 52.5 2.0 52.75 0.8 Q52.6 -0.65 51.8 -1.45 L49.75 -2.8 47.15 -3.65 44.5 -4.35 Q43.2 -4.7 42.25 -5.35 41.2 -6.1 40.2 -7.15 L38.1 -9.3 35.85 -11.4 Q34.7 -12.35 33.45 -12.9 L30.75 -13.3 28.9 -13.1 28.1 -13.0 27.95 -13.0 26.0 -12.45 19.95 -11.3 9.15 -10.2 Q2.55 -9.75 -6.8 -9.95 L-19.0 -10.1 -30.4 -10.1 -40.35 -10.0 -48.2 -9.85 -53.1 -9.7 Q-54.9 -8.6 -53.1 -7.45" fill="#a33128" fill-rule="evenodd" stroke="none"/>
      <path d="M-53.1 -7.45 L-53.0 -7.4 -51.8 -6.7 -47.8 -4.3 -40.1 0.15 -35.45 3.2 -29.65 7.1 -22.35 11.05 Q-18.3 13.0 -13.25 14.4 -8.25 15.85 -2.1 16.4 4.1 17.0 11.55 16.4 19.0 15.75 27.95 13.6 L29.1 14.05 32.25 14.75 36.7 15.05 Q39.2 14.95 41.9 13.95 44.65 13.0 47.25 10.75 L47.8 10.9 49.1 11.05 50.45 11.0 51.2 10.5 50.85 9.65 49.9 8.8 48.85 8.2 48.4 8.0 Q48.85 8.15 49.4 7.6 L50.6 6.05 51.7 3.95 52.5 2.0 52.75 0.8 Q52.6 -0.65 51.8 -1.45 L49.75 -2.8 47.15 -3.65 44.5 -4.35 Q43.2 -4.7 42.25 -5.35 41.2 -6.1 40.2 -7.15 L38.1 -9.3 35.85 -11.4 Q34.7 -12.35 33.45 -12.9 L30.75 -13.3 28.9 -13.1 28.1 -13.0 27.95 -13.0 26.0 -12.45 19.95 -11.3 9.15 -10.2 Q2.55 -9.75 -6.8 -9.95 L-19.0 -10.1 -30.4 -10.1 -40.35 -10.0 -48.2 -9.85 -53.1 -9.7" fill="none" stroke="#000000" stroke-linecap="round" stroke-linejoin="round" stroke-width="2.0"/>
      <path d="M21.05 4.1 Q21.6 5.7 22.8 6.95 L25.45 9.45 27.75 11.6 28.55 13.35 30.5 13.95 33.7 14.5 Q35.6 14.7 37.8 14.5 40.0 14.25 42.35 13.3 44.7 12.35 46.95 10.45 L47.1 10.3 47.3 10.35 49.7 10.6 50.75 10.35 Q50.8 10.05 50.05 9.45 49.3 8.85 48.2 8.35 L47.95 8.25 48.35 7.45 48.5 7.55 48.9 7.4 50.05 6.05 51.15 4.0 52.0 2.0 52.3 0.8 Q52.2 -0.4 51.4 -1.25 L51.5 -0.45 Q51.5 0.7 50.85 1.75 48.4 4.7 45.05 6.5 41.7 8.25 37.9 8.85 34.15 9.4 30.35 8.7 26.6 8.05 23.25 6.0 L21.05 4.1" fill="#842824" fill-rule="evenodd" stroke="none"/>
      <path d="M-55.1 -8.6 L-54.4 -8.25 Q-53.9 -8.05 -52.9 -7.8 L-52.8 -7.8 -51.6 -7.05 -47.55 -4.65 -39.95 -0.2 -35.05 2.95 -29.3 6.8 Q-26.1 8.85 -22.05 10.7 -18.0 12.6 -13.05 14.05 -8.05 15.45 -1.95 16.0 4.15 16.6 11.55 15.95 18.95 15.35 27.8 13.2 L27.9 13.15 28.3 13.2 29.05 13.2 29.5 13.25 28.15 12.05 26.6 10.8 25.45 9.5 Q23.0 10.85 19.65 11.8 L12.35 13.15 4.15 13.55 -4.55 12.85 Q-8.9 12.25 -13.0 11.05 -17.15 9.8 -20.8 7.95 L-29.7 3.2 -38.05 -1.3 Q-42.2 -3.45 -46.4 -5.3 -50.65 -7.2 -55.1 -8.6" fill="#842824" fill-rule="evenodd" stroke="none"/>
      <path d="M-6.8 -9.55 L-18.55 -9.7 -29.55 -9.7 -39.3 -9.6 -47.15 -9.45 -52.6 -9.35 -53.0 -9.3 -54.05 -9.3 Q-54.95 -8.7 -54.05 -8.15 L-53.0 -7.85 -52.9 -7.85 -52.85 -7.85 -52.8 -7.8 -52.3 -7.5 -51.35 -6.95 -50.75 -6.55 -37.5 -6.65 -24.35 -6.45 -10.9 -6.25 Q-4.15 -6.15 2.65 -6.3 L16.3 -6.95 Q21.15 -6.95 23.7 -9.0 L24.05 -8.75 23.6 -7.95 22.35 -5.4 Q23.95 -7.45 26.0 -8.95 28.0 -10.5 30.3 -11.2 L34.95 -11.55 Q32.8 -13.1 30.8 -12.9 L28.75 -12.7 28.0 -12.6 25.7 -11.95 19.45 -10.8 8.75 -9.75 Q2.25 -9.35 -6.8 -9.55" fill="#ba3b35" fill-rule="evenodd" stroke="none"/>
      <path d="M32.8 -10.95 Q31.85 -10.55 31.7 -9.7 31.5 -8.9 31.7 -8.05 31.9 -7.15 32.2 -6.55 L32.5 -5.95 Q32.95 -6.75 33.85 -7.1 L35.7 -7.45 37.35 -7.4 38.05 -7.35 37.8 -10.7 37.1 -11.0 35.2 -11.4 Q34.05 -11.5 32.8 -10.95" fill="#7a1b16" fill-rule="evenodd" stroke="none"/>
      <path d="M32.8 -10.95 Q34.05 -11.5 35.2 -11.4 L37.1 -11.0 37.8 -10.7 38.05 -7.35 37.35 -7.4 35.7 -7.45 33.85 -7.1 Q32.95 -6.75 32.5 -5.95 L32.2 -6.55 Q31.9 -7.15 31.7 -8.05 31.5 -8.9 31.7 -9.7 31.85 -10.55 32.8 -10.95" fill="none" stroke="#000000" stroke-linecap="round" stroke-linejoin="round" stroke-width="1.0"/>
      <path d="M19.8 11.9 L19.85 12.4 19.7 13.6 19.25 14.95 18.15 16.1 18.85 16.3 20.6 16.4 Q21.65 16.3 22.85 15.65 24.05 14.95 25.15 13.3 L19.8 11.9" fill="#842824" fill-rule="evenodd" stroke="none"/>
      <path d="M19.8 11.9 L19.85 12.4 19.7 13.6 19.25 14.95 18.15 16.1 18.85 16.3 20.6 16.4 Q21.65 16.3 22.85 15.65 24.05 14.95 25.15 13.3" fill="none" stroke="#000000" stroke-linecap="round" stroke-linejoin="round" stroke-width="1.0"/>
      <path d="M38.9 -2.45 L38.65 -2.45 38.5 -2.3 38.5 -2.05 38.6 -1.0 38.5 -0.55 Q39.0 1.0 35.5 0.4 L33.7 -1.0 32.65 -2.3 32.5 -2.45 32.25 -2.4 32.15 -2.2 32.15 -2.0 33.3 -0.55 35.2 0.95 37.25 1.5 37.3 1.5 Q38.35 1.45 38.85 0.85 39.4 0.25 39.35 -0.8 L39.05 -2.25 38.9 -2.45" fill="#000000" fill-rule="evenodd" stroke="none"/>
      <path d="M24.8 -8.15 Q22.75 -5.85 21.75 -3.8 20.6 -1.25 20.65 1.0 20.7 3.2 21.6 5.05 22.5 6.9 23.8 8.35 L26.4 10.8 28.6 12.25 29.5 12.8 Q26.0 10.55 24.15 8.25 22.25 6.0 21.6 3.85 20.95 1.65 21.2 -0.3 21.4 -2.25 22.1 -3.85 L23.7 -6.7 24.8 -8.15" fill="#000000" fill-rule="evenodd" stroke="none"/>
      <path d="M14.65 -6.7 L8.75 -6.7 Q8.3 -2.85 8.45 0.4 8.6 3.55 9.1 6.05 9.65 8.55 10.3 10.25 L11.35 12.85 11.85 13.75 16.6 12.35 Q14.35 9.65 13.5 6.95 12.6 4.2 12.65 1.75 12.65 -0.65 13.15 -2.6 L14.1 -5.6 14.65 -6.7" fill="#ba3b35" fill-rule="evenodd" stroke="none"/>
      <path d="M-0.2 -7.0 L-6.4 -6.45 Q-7.15 -3.0 -7.15 -0.05 -7.15 2.9 -6.6 5.2 -6.05 7.55 -5.35 9.2 L-4.15 11.7 -3.55 12.6 1.75 13.15 Q0.65 11.8 0.05 9.8 -0.55 7.85 -0.75 5.6 L-0.9 1.1 -0.7 -2.95 -0.35 -5.85 -0.2 -7.0" fill="#ba3b35" fill-rule="evenodd" stroke="none"/>
      <path d="M-22.9 -7.85 Q-23.15 -5.9 -22.8 -3.65 -22.5 -1.35 -21.85 0.85 L-20.6 4.9 -19.45 7.8 -18.95 8.95 -12.25 11.45 Q-13.35 10.3 -14.05 8.6 L-15.1 4.85 -15.6 0.8 -15.75 -2.8 -15.65 -5.45 -15.6 -6.45 -22.9 -7.85" fill="#ba3b35" fill-rule="evenodd" stroke="none"/>
      <path d="M-31.55 -6.45 L-34.35 -7.85 Q-35.0 -7.4 -35.2 -6.5 L-35.2 -4.5 -34.8 -2.35 -34.3 -0.7 -34.1 0.0 -31.0 1.95 Q-31.9 0.45 -32.15 -1.05 L-32.2 -3.7 -31.85 -5.7 -31.55 -6.45" fill="#ba3b35" fill-rule="evenodd" stroke="none"/>
    </g>
    <g id="sprite0" transform="matrix(1, 0, 0, 1, 16.35, 23.55)">
      <use height="25.4" transform="matrix(0.8077, 0.0, 0.0, 0.8077, -9.9866, -10.6327)" width="25.4" xlink:href="#shape1"/>
    </g>
    <g id="shape1" transform="matrix(1, 0, 0, 1, 12.55, 13.35)">
      <path d="M8.9 -9.4 Q12.5 -5.8 12.5 -0.65 12.5 4.45 8.9 8.1 5.25 11.7 0.15 11.7 -5.0 11.7 -8.6 8.1 -12.2 4.45 -12.2 -0.65 -12.2 -5.8 -8.6 -9.4 -5.0 -13.0 0.15 -13.0 5.25 -13.0 8.9 -9.4" fill="#ccffff" fill-opacity="0.49019608" fill-rule="evenodd" stroke="none"/>
      <path d="M8.9 -9.4 Q12.5 -5.8 12.5 -0.65 12.5 4.45 8.9 8.1 5.25 11.7 0.15 11.7 -5.0 11.7 -8.6 8.1 -12.2 4.45 -12.2 -0.65 -12.2 -5.8 -8.6 -9.4 -5.0 -13.0 0.15 -13.0 5.25 -13.0 8.9 -9.4" fill="none" stroke="#00ccff" stroke-linecap="round" stroke-linejoin="round" stroke-opacity="0.49019608" stroke-width="0.75"/>
      <path d="M8.05 -7.55 Q10.05 -4.8 10.05 -0.8 10.05 3.15 8.05 5.95 6.1 8.75 3.3 8.8 L2.65 8.75 Q4.25 8.1 5.55 6.25 7.5 3.5 7.5 -0.5 7.5 -4.45 5.55 -7.25 3.8 -9.7 1.4 -9.95 L3.3 -10.35 Q6.1 -10.35 8.05 -7.55" fill="#ffffff" fill-opacity="0.49019608" fill-rule="evenodd" stroke="none"/>
      <path d="M-7.6 -6.4 Q-7.6 -7.35 -6.95 -8.0 -6.3 -8.65 -5.35 -8.65 -4.4 -8.65 -3.75 -8.0 -3.1 -7.35 -3.1 -6.4 -3.1 -5.45 -3.75 -4.8 -4.4 -4.15 -5.35 -4.15 -6.3 -4.15 -6.95 -4.8 -7.6 -5.45 -7.6 -6.4" fill="#ffffff" fill-opacity="0.49019608" fill-rule="evenodd" stroke="none"/>
    </g>
  </defs>
</svg>
