<?xml version="1.0" encoding="UTF-8" standalone="no"?>
<svg xmlns:xlink="http://www.w3.org/1999/xlink" height="63.3px" width="63.3px" xmlns="http://www.w3.org/2000/svg">
  <g transform="matrix(1, 0, 0, 1, 31.65, 31.65)">
    <use height="63.3" transform="matrix(1.3, 0.0, 0.0, 1.3, -41.1451, -41.1451)" width="63.3" xlink:href="#shape0"/>
    <use height="63.3" transform="matrix(0.58, 0.0, 0.0, 0.58, -18.3571, -18.3571)" width="63.3" xlink:href="#shape0"/>
    <use height="63.3" transform="matrix(1.85, 0.0, 0.0, 1.85, -58.5527, -58.5527)" width="63.3" xlink:href="#shape0"/>
    <use height="63.3" transform="matrix(0.91, 0.0, 0.0, 0.91, -28.8016, -28.8016)" width="63.3" xlink:href="#shape0"/>
  </g>
  <defs>
    <g id="shape0" transform="matrix(1, 0, 0, 1, 31.65, 31.65)">
      <path d="M0.0 -31.65 Q13.1 -31.65 22.35 -22.4 31.65 -13.1 31.65 0.0 31.65 13.1 22.35 22.35 13.1 31.65 0.0 31.65 -13.1 31.65 -22.4 22.35 -31.65 13.1 -31.65 0.0 -31.65 -13.1 -22.4 -22.4 -13.1 -31.65 0.0 -31.65" fill="#ffffff" fill-opacity="0.12941177" fill-rule="evenodd" stroke="none"/>
    </g>
  </defs>
</svg>
