<?xml version="1.0" encoding="UTF-8" standalone="no"?>
<svg xmlns:xlink="http://www.w3.org/1999/xlink" height="63.3px" width="63.3px" xmlns="http://www.w3.org/2000/svg">
  <g transform="matrix(1, 0, 0, 1, 31.65, 31.65)">
    <use height="63.3" transform="matrix(1.6, 0.0, 0.0, 1.6, -50.6407, -50.6407)" width="63.3" xlink:href="#shape0"/>
    <use height="63.3" transform="matrix(0.76, 0.0, 0.0, 0.76, -24.0538, -24.0538)" width="63.3" xlink:href="#shape0"/>
    <use height="63.3" transform="matrix(1.08, 0.0, 0.0, 1.08, -34.1821, -34.1821)" width="63.3" xlink:href="#shape0"/>
    <use height="63.3" transform="matrix(0.448, 0.0, 0.0, 0.448, -14.1791, -14.1791)" width="63.3" xlink:href="#shape0"/>
  </g>
  <defs>
    <g id="shape0" transform="matrix(1, 0, 0, 1, 31.65, 31.65)">
      <path d="M0.0 -31.65 Q13.1 -31.65 22.35 -22.4 31.65 -13.1 31.65 0.0 31.65 13.1 22.35 22.35 13.1 31.65 0.0 31.65 -13.1 31.65 -22.4 22.35 -31.65 13.1 -31.65 0.0 -31.65 -13.1 -22.4 -22.4 -13.1 -31.65 0.0 -31.65" fill="#ffffff" fill-opacity="0.17254902" fill-rule="evenodd" stroke="none"/>
    </g>
  </defs>
</svg>
