<?xml version="1.0" encoding="UTF-8" standalone="no"?>
<svg xmlns:xlink="http://www.w3.org/1999/xlink" height="63.3px" width="63.3px" xmlns="http://www.w3.org/2000/svg">
  <g transform="matrix(1, 0, 0, 1, 31.65, 31.65)">
    <use height="63.3" transform="matrix(1.8, 0.0, 0.0, 1.8, -56.9706, -56.9706)" width="63.3" xlink:href="#shape0"/>
    <use height="63.3" transform="matrix(0.88, 0.0, 0.0, 0.88, -27.8522, -27.8522)" width="63.3" xlink:href="#shape0"/>
    <use height="63.3" transform="matrix(1.24, 0.0, 0.0, 1.24, -39.2462, -39.2462)" width="63.3" xlink:href="#shape0"/>
    <use height="63.3" transform="matrix(0.544, 0.0, 0.0, 0.544, -17.2173, -17.2173)" width="63.3" xlink:href="#shape0"/>
  </g>
  <defs>
    <g id="shape0" transform="matrix(1, 0, 0, 1, 31.65, 31.65)">
      <path d="M0.0 -31.65 Q13.1 -31.65 22.35 -22.4 31.65 -13.1 31.65 0.0 31.65 13.1 22.35 22.35 13.1 31.65 0.0 31.65 -13.1 31.65 -22.4 22.35 -31.65 13.1 -31.65 0.0 -31.65 -13.1 -22.4 -22.4 -13.1 -31.65 0.0 -31.65" fill="#ffffff" fill-opacity="0.08627451" fill-rule="evenodd" stroke="none"/>
    </g>
  </defs>
</svg>
