<?xml version="1.0" encoding="UTF-8" standalone="no"?>
<svg xmlns:xlink="http://www.w3.org/1999/xlink" height="63.3px" width="63.3px" xmlns="http://www.w3.org/2000/svg">
  <g transform="matrix(1, 0, 0, 1, 31.65, 31.65)">
    <use height="63.3" transform="matrix(1.9, 0.0, 0.0, 1.9, -60.1358, -60.1358)" width="63.3" xlink:href="#shape0"/>
    <use height="63.3" transform="matrix(0.94, 0.0, 0.0, 0.94, -29.7511, -29.7511)" width="63.3" xlink:href="#shape0"/>
    <use height="63.3" transform="matrix(1.32, 0.0, 0.0, 1.32, -41.7782, -41.7782)" width="63.3" xlink:href="#shape0"/>
    <use height="63.3" transform="matrix(0.592, 0.0, 0.0, 0.592, -18.7366, -18.7366)" width="63.3" xlink:href="#shape0"/>
  </g>
  <defs>
    <g id="shape0" transform="matrix(1, 0, 0, 1, 31.65, 31.65)">
      <path d="M0.0 -31.65 Q13.1 -31.65 22.35 -22.4 31.65 -13.1 31.65 0.0 31.65 13.1 22.35 22.35 13.1 31.65 0.0 31.65 -13.1 31.65 -22.4 22.35 -31.65 13.1 -31.65 0.0 -31.65 -13.1 -22.4 -22.4 -13.1 -31.65 0.0 -31.65" fill="#ffffff" fill-opacity="0.043137256" fill-rule="evenodd" stroke="none"/>
    </g>
  </defs>
</svg>
