<?xml version="1.0" encoding="UTF-8" standalone="no"?>
<svg xmlns:xlink="http://www.w3.org/1999/xlink" height="58.95px" width="57.65px" xmlns="http://www.w3.org/2000/svg">
  <g transform="matrix(1, 0, 0, 1, 2.35, 2.8)">
    <path d="M19.4 39.75 Q23.15 43.5 21.5 44.85 19.9 46.15 17.8 45.1 16.45 43.85 17.75 41.9 19.1 39.95 19.4 39.75" fill="#b256b0" fill-rule="evenodd" stroke="none"/>
    <path d="M19.8 40.15 Q17.6 42.15 17.75 45.05 16.45 43.8 17.75 41.85 L19.4 39.75 19.8 40.15" fill="#7c3e7c" fill-rule="evenodd" stroke="none"/>
    <path d="M18.1 40.5 L21.35 40.2 20.5 41.0 Q19.6 41.65 18.1 40.5" fill="#082344" fill-rule="evenodd" stroke="none"/>
    <path d="M17.6 43.95 L19.4 43.65 Q21.0 43.45 21.05 44.15 20.75 44.85 19.95 44.7 L19.05 44.5 19.05 44.25 17.6 43.95" fill="#7c3e7c" fill-rule="evenodd" stroke="none"/>
    <path d="M42.3 17.95 Q36.7 25.45 39.85 33.15 42.85 40.35 54.15 41.4 L46.4 40.7 Q40.45 40.15 37.35 41.5 34.1 43.75 34.1 48.2 L34.3 56.15 Q31.0 52.8 29.55 48.7 28.0 44.65 23.7 42.25 18.55 39.95 13.35 40.85 8.1 41.85 4.05 45.6 4.4 42.5 5.1 39.5 5.75 36.55 5.55 33.2 5.1 29.1 2.85 26.65 0.65 24.2 -2.35 21.75 0.55 22.05 1.25 19.1 1.95 16.05 1.9 13.7 2.3 9.05 1.55 4.45 1.05 2.55 0.0 0.8 -1.0 -0.9 -1.35 -2.8 1.15 1.75 5.8 6.3 10.45 10.8 15.45 11.45 20.7 11.65 23.95 8.35 27.15 5.05 27.75 0.1 31.65 9.3 38.7 10.35 45.65 11.4 55.3 10.8 46.5 12.5 42.3 17.95" fill="#b256b0" fill-rule="evenodd" stroke="none"/>
    <path d="M31.45 10.35 Q30.35 15.6 28.2 17.35 26.1 19.15 20.7 19.25 13.65 19.6 13.65 21.25 13.65 22.85 17.45 24.35 21.3 25.85 25.9 25.9 25.1 29.3 25.4 32.95 30.6 34.3 35.4 36.1 29.65 35.8 29.15 37.3 28.65 38.6 29.9 41.0 31.15 43.45 31.9 46.7 30.85 44.15 24.75 41.15 18.65 38.2 15.6 37.75 10.4 37.9 6.7 41.85 7.75 36.95 7.9 31.8 7.5 28.4 5.75 26.45 4.0 24.5 1.55 22.5 3.85 22.75 4.45 20.3 5.0 17.85 5.0 16.0 5.3 12.2 4.65 8.45 L2.35 2.55 Q5.0 7.3 10.4 11.6 15.85 15.95 21.7 16.45 27.55 16.95 31.45 10.35" fill="#7c3e7c" fill-rule="evenodd" stroke="none"/>
  </g>
</svg>
