<?xml version="1.0" encoding="UTF-8" standalone="no"?>
<svg xmlns:xlink="http://www.w3.org/1999/xlink" height="62.95px" width="61.6px" xmlns="http://www.w3.org/2000/svg">
  <g transform="matrix(1, 0, 0, 1, 2.35, 4.75)">
    <path d="M20.9 40.7 Q24.9 44.7 23.15 46.15 21.45 47.55 19.2 46.4 17.7 45.1 19.15 43.0 L20.9 40.7" fill="#1e4c96" fill-rule="evenodd" stroke="none"/>
    <path d="M21.3 41.1 Q19.0 43.3 19.15 46.35 17.75 45.0 19.15 42.95 L20.9 40.7 21.3 41.1" fill="#113972" fill-rule="evenodd" stroke="none"/>
    <path d="M19.5 41.5 L23.0 41.2 22.05 42.05 Q21.1 42.7 19.5 41.5" fill="#082344" fill-rule="evenodd" stroke="none"/>
    <path d="M18.95 45.2 L20.9 44.9 Q22.6 44.65 22.65 45.35 22.35 46.15 21.5 46.0 L20.5 45.8 20.5 45.5 18.95 45.2" fill="#113972" fill-rule="evenodd" stroke="none"/>
    <path d="M45.35 17.4 Q39.35 25.4 42.75 33.65 45.95 41.3 58.0 42.45 L49.7 41.75 Q43.35 41.1 40.05 42.55 36.6 44.95 36.55 49.75 36.55 54.5 36.8 58.2 33.3 54.65 31.7 50.3 30.05 45.95 25.5 43.35 19.95 40.9 14.4 41.9 8.8 42.9 4.5 46.95 4.9 43.6 5.6 40.4 6.3 37.25 6.1 33.7 5.6 29.3 3.25 26.7 0.85 24.1 -2.35 21.5 0.75 21.8 1.5 18.6 2.25 15.4 2.2 12.9 2.65 7.9 1.8 3.0 1.3 1.0 0.15 -0.9 -0.9 -2.7 -1.25 -4.75 1.4 0.1 6.4 4.95 11.35 9.8 16.7 10.5 22.3 10.7 25.75 7.15 29.15 3.65 29.8 -1.6 34.0 8.2 41.5 9.3 48.9 10.45 59.25 9.8 49.8 11.6 45.35 17.4" fill="#1e4c96" fill-rule="evenodd" stroke="none"/>
    <path d="M33.75 9.3 Q32.55 14.9 30.3 16.8 28.05 18.7 22.25 18.8 14.75 19.2 14.75 20.95 14.75 22.65 18.8 24.25 22.9 25.85 27.8 25.9 27.0 29.55 27.3 33.45 32.85 34.85 38.0 36.8 31.85 36.5 31.3 38.1 30.75 39.5 32.1 42.05 33.4 44.65 34.25 48.1 33.1 45.35 26.6 42.2 20.1 39.05 16.85 38.6 11.25 38.75 7.35 42.9 8.45 37.7 8.6 32.2 8.2 28.6 6.3 26.5 4.45 24.4 1.8 22.25 4.3 22.55 4.9 19.95 5.55 17.3 5.5 15.3 5.8 11.25 5.15 7.3 L2.7 1.0 Q5.55 6.05 11.3 10.65 17.1 15.25 23.3 15.8 29.6 16.35 33.75 9.3" fill="#113972" fill-rule="evenodd" stroke="none"/>
  </g>
</svg>
