<?xml version="1.0" encoding="UTF-8" standalone="no"?>
<svg xmlns:xlink="http://www.w3.org/1999/xlink" height="62.9px" width="42.5px" xmlns="http://www.w3.org/2000/svg">
  <g transform="matrix(1, 0, 0, 1, 0.0, 0.0)">
    <path d="M20.7 59.65 L22.15 57.75 Q25.5 61.05 24.05 62.25 22.6 63.4 20.75 62.45 19.5 61.4 20.7 59.65" fill="#58993c" fill-rule="evenodd" stroke="none"/>
    <path d="M20.7 62.45 Q19.55 61.3 20.7 59.6 L22.15 57.75 22.5 58.1 Q20.55 59.9 20.7 62.45" fill="#3e6d29" fill-rule="evenodd" stroke="none"/>
    <path d="M23.1 58.85 Q22.3 59.4 20.95 58.4 L23.85 58.15 23.1 58.85" fill="#254215" fill-rule="evenodd" stroke="none"/>
    <path d="M22.65 62.1 L21.8 61.95 21.8 61.7 20.55 61.5 22.15 61.2 Q23.6 61.0 23.65 61.6 23.35 62.25 22.65 62.1" fill="#3e6d29" fill-rule="evenodd" stroke="none"/>
    <path d="M42.5 29.2 Q42.25 41.6 36.3 49.85 30.3 58.1 21.3 58.4 12.25 58.1 6.25 49.85 0.25 41.6 0.0 29.2 0.25 16.8 6.25 8.55 12.25 0.3 21.3 0.0 30.3 0.3 36.3 8.55 42.25 16.8 42.5 29.2" fill="#58993c" fill-rule="evenodd" stroke="none"/>
    <path d="M0.0 29.2 Q0.25 16.8 6.25 8.55 12.25 0.3 21.3 0.0 L22.7 0.05 Q17.1 0.95 12.75 4.6 8.4 8.25 6.4 13.15 1.35 26.75 6.4 41.15 11.6 53.2 23.0 58.3 L21.3 58.4 Q12.25 58.1 6.25 49.85 0.25 41.6 0.0 29.2" fill="#3e6d29" fill-rule="evenodd" stroke="none"/>
    <path d="M22.3 3.8 Q20.5 2.4 22.9 1.15 23.4 0.6 29.05 2.95 34.65 5.4 39.4 17.45 L36.55 13.45 Q33.9 9.9 31.8 8.4 L27.2 6.45 Q24.1 5.2 22.3 3.8" fill="#98db79" fill-rule="evenodd" stroke="none"/>
  </g>
</svg>
