<?xml version="1.0" encoding="UTF-8" standalone="no"?>
<svg xmlns:xlink="http://www.w3.org/1999/xlink" height="57.0px" width="38.5px" xmlns="http://www.w3.org/2000/svg">
  <g transform="matrix(1, 0, 0, 1, 0.0, 0.0)">
    <path d="M18.75 54.05 L20.1 52.3 Q23.1 55.35 21.75 56.4 20.5 57.45 18.8 56.6 17.65 55.6 18.75 54.05" fill="#cc1b1b" fill-rule="evenodd" stroke="none"/>
    <path d="M18.75 56.55 Q17.7 55.55 18.75 54.0 L20.1 52.3 20.4 52.6 Q18.65 54.25 18.75 56.55" fill="#aa1111" fill-rule="evenodd" stroke="none"/>
    <path d="M20.9 53.35 Q20.2 53.8 18.95 52.9 L21.6 52.7 20.9 53.35" fill="#680b0b" fill-rule="evenodd" stroke="none"/>
    <path d="M20.5 56.3 L19.75 56.15 19.75 55.9 18.6 55.7 20.1 55.45 Q21.35 55.25 21.4 55.85 21.15 56.4 20.5 56.3" fill="#aa1111" fill-rule="evenodd" stroke="none"/>
    <path d="M38.5 26.45 Q38.3 37.7 32.85 45.15 27.45 52.6 19.3 52.95 11.1 52.6 5.65 45.15 0.25 37.7 0.0 26.45 0.25 15.25 5.65 7.8 11.1 0.3 19.3 0.0 27.45 0.3 32.85 7.8 38.3 15.25 38.5 26.45" fill="#cc1b1b" fill-rule="evenodd" stroke="none"/>
    <path d="M0.0 26.45 Q0.25 15.25 5.65 7.8 11.1 0.3 19.3 0.0 L20.55 0.1 Q15.5 0.9 11.55 4.2 7.6 7.45 5.8 11.9 1.2 24.25 5.8 37.3 10.5 48.2 20.85 52.8 L19.3 52.95 Q11.1 52.6 5.65 45.15 0.25 37.7 0.0 26.45" fill="#aa1111" fill-rule="evenodd" stroke="none"/>
    <path d="M20.2 3.45 Q18.55 2.15 20.75 1.05 21.2 0.55 26.3 2.7 31.4 4.9 35.7 15.8 L33.1 12.2 Q30.7 9.0 28.8 7.6 L24.65 5.85 Q21.85 4.75 20.2 3.45" fill="#f28383" fill-rule="evenodd" stroke="none"/>
  </g>
</svg>
