<?xml version="1.0" encoding="UTF-8" standalone="no"?>
<svg xmlns:xlink="http://www.w3.org/1999/xlink" height="56.95px" width="55.7px" xmlns="http://www.w3.org/2000/svg">
  <g transform="matrix(1, 0, 0, 1, 1.85, -5.25)">
    <path d="M19.2 46.35 Q22.8 50.0 21.25 51.3 19.7 52.55 17.65 51.5 16.3 50.3 17.6 48.45 L19.2 46.35" fill="#cc1b1b" fill-rule="evenodd" stroke="none"/>
    <path d="M19.55 46.75 Q17.45 48.7 17.6 51.45 16.35 50.25 17.6 48.4 L19.2 46.35 19.55 46.75" fill="#aa1111" fill-rule="evenodd" stroke="none"/>
    <path d="M17.9 47.05 L21.1 46.8 20.25 47.6 Q19.4 48.15 17.9 47.05" fill="#680b0b" fill-rule="evenodd" stroke="none"/>
    <path d="M17.4 50.45 L19.2 50.15 Q20.75 49.9 20.8 50.6 20.5 51.3 19.7 51.15 L18.85 50.95 18.85 50.7 17.4 50.45" fill="#aa1111" fill-rule="evenodd" stroke="none"/>
    <path d="M41.3 25.25 Q35.9 32.55 38.95 39.95 41.85 46.9 52.75 47.95 L45.25 47.3 Q39.5 46.75 36.5 48.05 33.4 50.2 33.35 54.55 33.35 58.85 33.6 62.2 30.4 59.0 28.95 55.0 27.5 51.1 23.35 48.75 18.35 46.55 13.3 47.45 8.25 48.35 4.35 52.0 4.7 49.0 5.35 46.1 6.0 43.25 5.8 40.05 5.35 36.05 3.2 33.7 1.05 31.35 -1.85 28.95 0.95 29.25 1.65 26.4 2.35 23.45 2.3 21.2 2.65 16.7 1.9 12.25 1.45 10.45 0.45 8.75 -0.5 7.05 -0.85 5.25 1.55 9.6 6.05 14.05 10.55 18.4 15.4 19.0 20.45 19.2 23.55 16.0 26.65 12.85 27.2 8.05 31.05 16.95 37.8 17.95 44.55 19.0 53.85 18.4 45.35 20.0 41.3 25.25" fill="#cc1b1b" fill-rule="evenodd" stroke="none"/>
    <path d="M30.8 17.95 Q29.75 23.0 27.7 24.7 25.65 26.45 20.4 26.55 13.65 26.9 13.65 28.5 13.6 30.05 17.3 31.5 21.0 32.95 25.45 32.95 24.7 36.25 24.95 39.8 30.0 41.05 34.65 42.8 29.05 42.55 28.6 44.0 28.1 45.25 29.35 47.6 30.5 49.9 31.25 53.05 30.2 50.6 24.35 47.7 18.45 44.85 15.55 44.45 10.45 44.6 6.9 48.35 7.9 43.65 8.05 38.65 7.7 35.4 6.0 33.5 4.3 31.6 1.9 29.7 4.2 29.95 4.75 27.55 5.3 25.2 5.25 23.4 5.55 19.7 4.95 16.15 L2.75 10.45 Q5.3 15.0 10.5 19.15 15.75 23.35 21.4 23.85 27.05 24.35 30.8 17.95" fill="#aa1111" fill-rule="evenodd" stroke="none"/>
  </g>
</svg>
