<?xml version="1.0" encoding="UTF-8" standalone="no"?>
<svg xmlns:xlink="http://www.w3.org/1999/xlink" height="64.4px" width="43.55px" xmlns="http://www.w3.org/2000/svg">
  <g transform="matrix(1, 0, 0, 1, 0.0, 0.0)">
    <path d="M22.7 59.1 Q26.1 62.5 24.6 63.75 23.15 64.9 21.25 63.95 19.95 62.8 21.2 61.05 22.4 59.25 22.7 59.1" fill="#ffc93f" fill-rule="evenodd" stroke="none"/>
    <path d="M23.05 59.45 Q21.05 61.3 21.2 63.9 20.0 62.75 21.2 61.0 22.4 59.25 22.7 59.1 L23.05 59.45" fill="#eaae2a" fill-rule="evenodd" stroke="none"/>
    <path d="M21.45 59.75 L24.45 59.5 23.65 60.25 Q22.85 60.8 21.45 59.75" fill="#b7831a" fill-rule="evenodd" stroke="none"/>
    <path d="M21.0 62.95 L22.65 62.65 Q24.15 62.45 24.15 63.05 23.9 63.75 23.15 63.6 L22.3 63.4 22.3 63.15 21.0 62.95" fill="#eaae2a" fill-rule="evenodd" stroke="none"/>
    <path d="M43.55 29.9 Q43.3 42.6 37.15 51.0 31.05 59.45 21.8 59.8 12.55 59.45 6.4 51.0 0.3 42.6 0.05 29.9 0.3 17.2 6.4 8.75 12.55 0.3 21.8 0.0 31.05 0.3 37.15 8.75 43.3 17.2 43.55 29.9" fill="#ffc93f" fill-rule="evenodd" stroke="none"/>
    <path d="M0.0 29.9 Q0.25 17.2 6.35 8.75 12.5 0.3 21.75 0.0 L23.25 0.05 Q17.5 0.95 13.05 4.7 8.6 8.4 6.55 13.45 1.35 27.4 6.55 42.1 11.85 54.45 23.55 59.65 L21.75 59.8 Q12.5 59.45 6.35 51.0 0.25 42.6 0.0 29.9" fill="#eaae2a" fill-rule="evenodd" stroke="none"/>
    <path d="M22.8 3.9 Q20.95 2.45 23.45 1.15 23.95 0.6 29.7 3.05 35.45 5.5 40.35 17.85 L37.4 13.8 Q34.7 10.15 32.55 8.6 31.0 7.85 27.85 6.6 24.65 5.35 22.8 3.9" fill="#f7d694" fill-rule="evenodd" stroke="none"/>
  </g>
</svg>
