<?xml version="1.0" encoding="UTF-8" standalone="no"?>
<svg xmlns:xlink="http://www.w3.org/1999/xlink" height="46.3px" width="45.3px" xmlns="http://www.w3.org/2000/svg">
  <g transform="matrix(1, 0, 0, 1, -0.8, -8.65)">
    <path d="M17.9 42.1 Q20.85 45.05 19.55 46.1 18.3 47.1 16.65 46.3 15.55 45.3 16.6 43.8 L17.9 42.1" fill="#ffc93f" fill-rule="evenodd" stroke="none"/>
    <path d="M18.2 42.4 Q16.5 44.0 16.6 46.25 15.6 45.25 16.6 43.75 L17.9 42.1 18.2 42.4" fill="#eaae2a" fill-rule="evenodd" stroke="none"/>
    <path d="M16.85 42.65 L19.45 42.45 18.75 43.1 Q18.05 43.55 16.85 42.65" fill="#b7831a" fill-rule="evenodd" stroke="none"/>
    <path d="M16.45 45.4 L17.9 45.15 Q19.15 44.95 19.2 45.5 18.95 46.1 18.3 45.95 L17.6 45.8 17.6 45.6 16.45 45.4" fill="#eaae2a" fill-rule="evenodd" stroke="none"/>
    <path d="M35.9 24.9 Q31.5 30.8 34.0 36.85 36.3 42.5 45.2 43.35 L39.1 42.8 Q34.45 42.35 32.0 43.4 29.45 45.2 29.45 48.7 29.45 52.2 29.6 54.95 27.05 52.35 25.85 49.1 24.65 45.9 21.3 44.0 17.2 42.2 13.15 42.95 9.0 43.7 5.85 46.65 6.1 44.2 6.65 41.85 7.2 39.55 7.05 36.9 6.65 33.7 4.9 31.8 3.2 29.85 0.8 27.95 3.1 28.15 3.65 25.85 4.2 23.45 4.15 21.6 4.45 17.95 3.85 14.35 3.5 12.85 2.65 11.5 1.9 10.1 1.6 8.65 3.55 12.2 7.25 15.8 10.9 19.35 14.8 19.85 18.95 20.0 21.45 17.4 24.0 14.8 24.45 10.95 27.55 18.15 33.05 18.95 L46.1 19.35 Q39.2 20.65 35.9 24.9" fill="#ffc93f" fill-rule="evenodd" stroke="none"/>
    <path d="M24.8 24.45 Q23.15 25.85 18.9 25.95 13.4 26.25 13.4 27.55 13.35 28.8 16.35 29.95 19.35 31.15 23.0 31.15 22.4 33.85 22.6 36.7 26.7 37.75 30.45 39.15 25.95 38.95 25.55 40.15 25.15 41.15 26.15 43.05 27.1 44.95 27.7 47.5 26.85 45.5 22.1 43.15 17.3 40.8 14.9 40.5 10.8 40.6 7.9 43.7 8.7 39.85 8.85 35.8 8.55 33.15 7.15 31.6 5.8 30.05 3.85 28.5 5.7 28.7 6.15 26.8 6.6 24.85 6.55 23.4 6.8 20.4 6.3 17.5 L4.5 12.85 Q6.6 16.55 10.85 19.95 15.1 23.35 19.65 23.75 24.25 24.15 27.35 18.95 26.45 23.1 24.8 24.45" fill="#eaae2a" fill-rule="evenodd" stroke="none"/>
  </g>
</svg>
