<?xml version="1.0" encoding="UTF-8" standalone="no"?>
<svg xmlns:xlink="http://www.w3.org/1999/xlink" height="76.85px" width="116.2px" xmlns="http://www.w3.org/2000/svg">
  <g transform="matrix(1, 0, 0, 1, 0.5, 0.5)">
    <use height="23.05" transform="matrix(1.0, 0.0, 0.0, 1.0, 0.0, -0.5)" width="114.85" xlink:href="#shape0"/>
    <use height="74.75" transform="matrix(1.0, 0.0, 0.0, 1.0, -0.5, 1.25)" width="116.1" xlink:href="#sprite0"/>
    <use height="76.85" transform="matrix(1.0, 0.0, 0.0, 1.0, -0.5, -0.5)" width="116.2" xlink:href="#shape2"/>
  </g>
  <defs>
    <g id="shape0" transform="matrix(1, 0, 0, 1, 0.0, 0.5)">
      <path d="M111.85 0.0 Q114.4 0.0 114.85 1.2 L114.5 3.45 113.55 5.0 106.75 17.55 106.6 17.85 106.4 18.15 Q103.05 22.7 97.0 22.05 L25.95 22.05 3.15 22.05 2.9 22.05 Q0.3 22.0 0.05 21.05 L0.0 20.95 Q-0.1 19.95 1.85 18.15 L17.05 3.9 Q21.2 0.0 26.45 0.0 L111.85 0.0 M21.55 5.65 L3.15 22.05 21.55 5.65 Q23.7 3.75 27.1 3.45 23.7 3.75 21.55 5.65 M112.8 3.0 L27.1 3.45 112.8 3.0 M24.5 6.65 L25.95 22.05 24.5 6.65" fill="url(#gradient0)" fill-rule="evenodd" stroke="none"/>
      <path d="M21.55 5.65 Q23.7 3.75 27.1 3.45" fill="none" stroke="#000000" stroke-linecap="round" stroke-linejoin="round" stroke-width="1.0"/>
      <path d="M111.85 0.0 L26.45 0.0 Q21.2 0.0 17.05 3.9 L1.85 18.15 M3.15 22.05 L21.55 5.65 M27.1 3.45 L112.8 3.0 M25.95 22.05 L24.5 6.65" fill="none" stroke="#000000" stroke-linecap="round" stroke-linejoin="round" stroke-width="1.0"/>
    </g>
    <radialGradient cx="0" cy="0" gradientTransform="matrix(0.1609, 0.0, 0.0, 0.1355, 49.75, 70.8)" gradientUnits="userSpaceOnUse" id="gradient0" r="819.2" spreadMethod="pad">
      <stop offset="0.0" stop-color="#000000"/>
      <stop offset="0.8196078431372549" stop-color="#6fc47e"/>
    </radialGradient>
    <g id="sprite0" transform="matrix(1, 0, 0, 1, 0.5, 18.7)">
      <use height="74.75" transform="matrix(1.0, 0.0, 0.0, 1.0, -0.5, -18.7)" width="116.1" xlink:href="#shape1"/>
    </g>
    <g id="shape1" transform="matrix(1, 0, 0, 1, 0.5, 18.7)">
      <path d="M113.8 -15.3 L114.5 -15.2 113.6 -9.75 106.5 2.8 Q104.0 6.65 98.05 6.0 L34.85 6.1 34.85 1.75 97.25 1.75 Q103.3 2.4 106.65 -2.15 L106.85 -2.45 107.0 -2.75 113.8 -15.3 M34.8 1.75 L34.8 6.1 1.75 6.15 0.3 0.75 Q0.55 1.7 3.15 1.75 L34.8 1.75" fill="#996699" fill-rule="evenodd" stroke="none"/>
      <path d="M34.85 6.1 L98.05 6.0 Q104.0 6.65 106.5 2.8 L113.6 -9.75 112.65 0.0 110.6 21.8 Q110.25 25.1 109.6 26.85 L109.0 28.3 Q108.95 28.0 107.1 31.4 L106.35 33.0 110.65 0.1 Q108.85 -4.65 106.65 6.65 L102.55 41.05 101.7 42.8 Q99.1 48.5 93.7 48.6 L65.95 47.5 62.3 47.35 62.3 47.25 34.85 46.85 34.85 6.1 M99.1 42.4 L102.0 10.1 99.1 42.4 M62.3 47.25 L65.95 47.5 62.3 47.25 M34.8 6.1 L34.8 46.85 15.95 46.05 Q7.85 46.95 6.5 38.3 L3.55 18.9 1.65 6.2 1.75 6.15 34.8 6.1" fill="#336699" fill-rule="evenodd" stroke="none"/>
      <path d="M67.2 50.3 L95.1 51.75 Q100.05 52.1 101.6 49.05 L102.55 41.05 106.65 6.65 Q108.85 -4.65 110.65 0.1 L106.35 33.0 104.1 50.1 Q104.0 54.95 98.6 55.55 L62.3 53.55 62.3 53.45 34.85 52.9 34.85 49.4 67.2 50.05 67.2 50.3 M67.2 53.55 L62.3 53.45 67.2 53.55 M3.55 18.95 L5.15 30.0 3.5 43.6 Q3.3 46.95 6.5 47.95 L34.8 49.4 34.8 52.9 4.0 51.2 Q0.3 50.25 0.0 45.75 L3.55 18.95" fill="#9900cc" fill-rule="evenodd" stroke="none"/>
      <path d="M113.8 -15.3 L114.75 -16.85 114.95 -18.2 M113.8 -15.3 L107.0 -2.75 106.85 -2.45 106.65 -2.15 Q103.3 2.4 97.25 1.75 L34.85 1.75 M34.85 6.1 L98.05 6.0 Q104.0 6.65 106.5 2.8 L113.6 -9.75 114.5 -15.2 114.75 -16.85 M112.65 0.0 Q114.7 0.1 115.1 1.2 L114.95 2.1 M106.35 33.0 L107.1 31.4 Q108.95 28.0 109.0 28.3 L109.6 26.85 Q110.25 25.1 110.6 21.8 L112.65 0.0 113.6 -9.75 M102.55 41.05 L101.7 42.8 Q99.1 48.5 93.7 48.6 L65.95 47.5 62.3 47.35 M62.3 47.25 L34.85 46.85 M102.55 41.05 L101.6 49.05 Q100.05 52.1 95.1 51.75 L67.2 50.3 M67.2 50.05 L34.85 49.4 M34.85 52.9 L62.3 53.45 67.2 53.55 M102.0 10.1 L99.1 42.4 M106.35 33.0 L110.65 0.1 Q108.85 -4.65 106.65 6.65 L102.55 41.05 M62.3 53.55 L98.6 55.55 Q104.0 54.95 104.1 50.1 L106.35 33.0 M65.95 47.5 L62.3 47.25 M34.8 46.85 L15.95 46.05 Q7.85 46.95 6.5 38.3 L3.55 18.9 3.55 18.95 5.15 30.0 3.5 43.6 Q3.3 46.95 6.5 47.95 L34.8 49.4 M34.8 52.9 L4.0 51.2 Q0.3 50.25 0.0 45.75 L3.55 18.95 M0.3 0.75 Q0.55 1.7 3.15 1.75 L34.8 1.75 M1.75 6.15 L0.3 0.75 0.25 0.65 Q0.15 -0.35 2.1 -2.15 M1.75 6.15 L1.65 6.15 1.65 6.2 3.55 18.9 M34.8 6.1 L1.75 6.15" fill="none" stroke="#000000" stroke-linecap="round" stroke-linejoin="round" stroke-width="1.0"/>
      <path d="M1.15 -16.9 L0.8 -16.9 M1.15 -14.1 L0.65 -15.5 Q0.3 -16.05 0.25 -16.6" fill="none" stroke="#cccccc" stroke-linecap="round" stroke-linejoin="round" stroke-width="1.0"/>
    </g>
    <g id="shape2" transform="matrix(1, 0, 0, 1, 0.5, 0.5)">
      <path d="M113.8 5.0 L114.5 5.1 113.6 10.55 106.5 23.1 Q104.0 26.95 98.05 26.3 L34.85 26.4 34.85 22.05 97.25 22.05 Q103.3 22.7 106.65 18.15 L106.85 17.85 107.0 17.55 113.8 5.0 M0.3 21.05 Q0.55 22.0 3.15 22.05 L34.8 22.05 34.8 26.4 1.75 26.45 0.3 21.05" fill="#996699" fill-rule="evenodd" stroke="none"/>
      <path d="M106.35 53.3 L104.1 70.4 Q104.0 75.25 98.6 75.85 L62.3 73.85 62.3 73.75 34.85 73.2 34.85 69.7 67.2 70.35 67.2 70.6 95.1 72.05 Q100.05 72.4 101.6 69.35 L102.55 61.35 106.65 26.95 Q108.85 15.65 110.65 20.4 L106.35 53.3 M3.55 39.25 L5.15 50.3 3.5 63.9 Q3.3 67.25 6.5 68.25 L34.8 69.7 34.8 73.2 4.0 71.5 Q0.3 70.55 0.0 66.05 L3.55 39.25 M67.2 73.85 L62.3 73.75 67.2 73.85" fill="#9900cc" fill-rule="evenodd" stroke="none"/>
      <path d="M34.85 26.4 L98.05 26.3 Q104.0 26.95 106.5 23.1 L113.6 10.55 111.3 33.65 110.6 42.1 Q110.25 45.4 109.6 47.15 L109.0 48.6 Q108.95 48.3 107.1 51.7 L106.35 53.3 110.65 20.4 Q108.85 15.65 106.65 26.95 L102.55 61.35 101.7 63.1 Q99.1 68.8 93.7 68.9 L65.95 67.8 62.3 67.65 62.3 67.55 34.85 67.15 34.85 26.4 M99.1 62.7 L102.0 30.4 99.1 62.7 M34.8 26.4 L34.8 67.15 15.95 66.35 Q7.85 67.25 6.5 58.6 L3.55 39.2 1.65 26.5 1.75 26.45 34.8 26.4 M62.3 67.55 L65.95 67.8 62.3 67.55" fill="#336699" fill-rule="evenodd" stroke="none"/>
      <path d="M115.1 1.2 Q114.65 0.0 112.1 0.0 M114.75 3.45 Q115.45 2.0 115.1 1.2 M114.75 3.45 L113.8 5.0 107.0 17.55 106.85 17.85 106.65 18.15 Q103.3 22.7 97.25 22.05 L34.85 22.05 M34.85 26.4 L98.05 26.3 Q104.0 26.95 106.5 23.1 L113.6 10.55 M111.3 33.65 L110.6 42.1 Q110.25 45.4 109.6 47.15 L109.0 48.6 Q108.95 48.3 107.1 51.7 L106.35 53.3 104.1 70.4 Q104.0 75.25 98.6 75.85 L62.3 73.85 M62.3 73.75 L34.85 73.2 M34.85 69.7 L67.2 70.35 M67.2 70.6 L95.1 72.05 Q100.05 72.4 101.6 69.35 L102.55 61.35 101.7 63.1 Q99.1 68.8 93.7 68.9 L65.95 67.8 62.3 67.65 M62.3 67.55 L34.85 67.15 M106.35 53.3 L110.65 20.4 Q108.85 15.65 106.65 26.95 L102.55 61.35 M102.0 30.4 L99.1 62.7 M2.1 18.15 Q0.15 19.95 0.25 20.95 M0.3 21.05 Q0.55 22.0 3.15 22.05 L34.8 22.05 M34.8 67.15 L15.95 66.35 Q7.85 67.25 6.5 58.6 L3.55 39.2 3.55 39.25 5.15 50.3 3.5 63.9 Q3.3 67.25 6.5 68.25 L34.8 69.7 M34.8 73.2 L4.0 71.5 Q0.3 70.55 0.0 66.05 L3.55 39.25 M1.65 26.5 L3.55 39.2 M1.65 26.45 L1.65 26.5 M34.8 26.4 L1.75 26.45 M65.95 67.8 L62.3 67.55 M62.3 73.75 L67.2 73.85" fill="none" stroke="#000000" stroke-linecap="round" stroke-linejoin="round" stroke-width="1.0"/>
      <path d="M115.1 1.2 L114.75 3.45 M114.5 5.1 L114.75 3.45 M113.6 10.55 L114.5 5.1 M113.6 10.55 L111.3 33.65 M0.25 20.95 L0.3 21.05 M1.75 26.45 L1.65 26.45 M1.75 26.45 L0.3 21.05" fill="none" stroke="#000000" stroke-linecap="round" stroke-linejoin="round" stroke-width="1.0"/>
      <path d="M1.15 6.2 L0.65 4.8 Q0.3 4.25 0.25 3.7" fill="none" stroke="#cccccc" stroke-linecap="round" stroke-linejoin="round" stroke-width="1.0"/>
      <path d="M1.15 3.4 L0.8 3.4" fill="none" stroke="#cccccc" stroke-linecap="round" stroke-linejoin="round" stroke-width="1.0"/>
    </g>
  </defs>
</svg>
