<?xml version="1.0" encoding="UTF-8" standalone="no"?>
<svg xmlns:xlink="http://www.w3.org/1999/xlink" height="124.9px" width="80.25px" xmlns="http://www.w3.org/2000/svg">
  <g transform="matrix(1, 0, 0, 1, 63.35, 79.35)">
    <use height="120.25" transform="matrix(1.0, 0.0, 0.0, 1.0, -61.5, -74.75)" width="75.7" xlink:href="#shape0"/>
  </g>
  <defs>
    <g id="shape0" transform="matrix(1, 0, 0, 1, 61.5, 74.75)">
      <path d="M-48.8 26.9 L-42.55 30.2 Q-43.65 31.4 -45.6 31.95 L-49.65 32.65 -53.25 32.75 -54.75 32.65 Q-56.15 32.3 -56.45 31.8 -56.75 31.25 -56.55 30.85 L-56.3 30.4 -53.5 29.95 -51.15 28.8 -49.45 27.5 -48.8 26.9" fill="#333333" fill-rule="evenodd" stroke="none"/>
      <path d="M-48.8 26.9 L-49.45 27.5 -51.15 28.8 -53.5 29.95 -56.3 30.4 -56.55 30.85 Q-56.75 31.25 -56.45 31.8 -56.15 32.3 -54.75 32.65 L-53.25 32.75 -49.65 32.65 -45.6 31.95 Q-43.65 31.4 -42.55 30.2" fill="none" stroke="#000000" stroke-linecap="round" stroke-linejoin="round" stroke-width="2.0"/>
      <path d="M2.5 -34.9 L5.35 -25.95 8.4 -17.3 11.0 -10.2 Q12.35 -6.5 12.9 -2.4 13.45 1.65 13.05 5.95 12.6 10.55 11.15 14.75 9.6 18.95 7.25 22.6 6.15 24.9 4.35 27.25 L0.5 31.6 -3.4 35.25 -6.4 37.75 -7.65 38.7 -7.1 39.5 -6.0 41.25 -4.95 42.9 Q-4.65 43.55 -4.85 43.9 L-5.4 44.35 -5.8 44.5 Q-9.95 44.45 -12.65 43.55 -15.35 42.6 -16.9 41.35 L-19.2 39.1 Q-23.05 39.55 -27.1 39.2 -34.75 38.4 -41.1 34.95 -47.5 31.45 -52.05 25.95 -56.6 20.45 -58.8 13.55 -61.0 6.65 -60.35 -1.0 -59.55 -8.95 -55.85 -15.45 -54.55 -17.85 -53.2 -21.5 L-50.55 -29.6 -48.25 -38.4 -46.5 -46.6 -45.55 -53.0 Q-45.1 -57.8 -42.95 -61.75 -40.8 -65.65 -37.4 -68.5 -33.95 -71.35 -29.7 -72.7 -25.4 -74.05 -20.65 -73.65 -15.9 -73.15 -11.95 -71.0 -8.0 -68.85 -5.2 -65.45 -2.35 -62.0 -1.0 -57.75 0.35 -53.5 -0.05 -48.7 -0.2 -46.55 0.55 -42.9 1.2 -39.3 2.5 -34.9" fill="#666666" fill-rule="evenodd" stroke="none"/>
      <path d="M2.5 -34.9 Q1.2 -39.3 0.55 -42.9 -0.2 -46.55 -0.05 -48.7 0.35 -53.5 -1.0 -57.75 -2.35 -62.0 -5.2 -65.45 -8.0 -68.85 -11.95 -71.0 -15.9 -73.15 -20.65 -73.65 -25.4 -74.05 -29.7 -72.7 -33.95 -71.35 -37.4 -68.5 -40.8 -65.65 -42.95 -61.75 -45.1 -57.8 -45.55 -53.0 L-46.5 -46.6 -48.25 -38.4 -50.55 -29.6 -53.2 -21.5 Q-54.55 -17.85 -55.85 -15.45 -59.55 -8.95 -60.35 -1.0 -61.0 6.65 -58.8 13.55 -56.6 20.45 -52.05 25.95 -47.5 31.45 -41.1 34.95 -34.75 38.4 -27.1 39.2 -23.05 39.55 -19.2 39.1 L-16.9 41.35 Q-15.35 42.6 -12.65 43.55 -9.95 44.45 -5.8 44.5 L-5.4 44.35 -4.85 43.9 Q-4.65 43.55 -4.95 42.9 L-6.0 41.25 -7.1 39.5 -7.65 38.7 -6.4 37.75 -3.4 35.25 0.5 31.6 4.35 27.25 Q6.15 24.9 7.25 22.6 9.6 18.95 11.15 14.75 12.6 10.55 13.05 5.95 13.45 1.65 12.9 -2.4 12.35 -6.5 11.0 -10.2 L8.4 -17.3 5.35 -25.95 2.5 -34.9" fill="none" stroke="#000000" stroke-linecap="round" stroke-linejoin="round" stroke-width="2.0"/>
      <path d="M-35.85 -64.8 Q-37.7 -61.1 -38.1 -56.85 L-38.35 -54.05 -39.0 -47.2 Q-39.35 -43.75 -39.95 -40.85 L-40.75 -37.65 -41.8 -33.05 Q-42.3 -30.85 -42.3 -28.75 L-42.15 -27.1 Q-43.55 -27.85 -44.6 -27.45 -45.45 -27.1 -45.95 -26.25 L-46.85 -24.4 -47.4 -22.3 -47.65 -21.35 Q-48.4 -18.75 -49.3 -16.3 L-50.9 -11.45 Q-51.65 -8.95 -51.95 -6.25 -52.6 1.2 -50.5 7.9 -48.45 14.6 -44.15 19.95 -39.9 25.35 -33.95 28.7 -27.95 32.05 -20.8 32.85 -12.9 33.6 -6.05 31.2 0.7 28.8 6.1 23.4 4.55 26.1 2.25 28.7 L-2.4 33.45 -6.35 36.85 -8.0 38.15 -8.55 38.55 -8.35 38.85 -6.2 42.35 -5.4 43.4 -5.55 43.35 -5.4 43.6 -5.9 43.85 Q-9.8 43.8 -12.35 42.9 -14.95 42.05 -16.45 40.9 L-18.6 38.7 -18.85 38.35 -19.25 38.4 Q-23.2 38.9 -27.05 38.5 -34.55 37.75 -40.75 34.35 -47.05 30.95 -51.5 25.55 -56.0 20.15 -58.15 13.4 -60.3 6.6 -59.65 -0.9 -58.9 -8.45 -55.25 -15.05 -53.95 -17.45 -52.55 -21.15 -51.2 -24.9 -49.95 -29.25 L-47.65 -38.1 -45.85 -46.4 Q-45.1 -50.3 -44.85 -52.95 -44.45 -57.15 -42.65 -60.75 -40.8 -64.4 -37.8 -67.1 -34.85 -69.85 -30.95 -71.4 -34.05 -68.55 -35.85 -64.8" fill="#333333" fill-rule="evenodd" stroke="none"/>
      <path d="M4.3 -26.0 L7.05 -18.15 9.5 -11.4 9.9 -10.35 Q12.05 -4.45 12.1 1.85 L11.95 5.25 11.15 10.15 Q8.75 15.8 4.95 20.05 1.15 24.2 -3.65 26.55 -8.55 28.85 -14.0 29.05 -19.25 29.2 -24.15 27.25 -29.05 25.35 -33.15 21.55 -36.45 18.45 -38.8 14.55 -41.1 10.6 -42.4 6.1 -43.75 1.55 -43.85 -3.25 L-43.9 -4.45 Q-43.9 -10.8 -41.85 -16.65 L-40.45 -22.05 -39.3 -29.1 -38.4 -36.8 -37.8 -44.2 -37.6 -50.35 -37.6 -51.85 -37.6 -52.6 Q-37.65 -55.6 -36.95 -58.5 -36.3 -61.45 -34.6 -63.7 -32.9 -66.0 -29.95 -67.05 L-27.9 -67.7 -25.5 -68.15 -21.95 -68.0 Q-20.1 -67.7 -18.55 -66.85 -17.0 -65.95 -16.2 -64.55 -16.55 -65.3 -15.7 -66.3 -14.9 -67.3 -13.35 -67.9 L-10.1 -68.0 Q-8.85 -67.55 -7.75 -66.45 L-5.7 -64.1 -4.1 -61.75 Q-2.25 -57.6 -2.1 -53.0 -2.05 -50.9 -0.85 -46.95 -0.8 -44.7 -0.1 -41.35 0.6 -38.0 1.8 -34.05 L4.3 -26.0" fill="#cccccc" fill-rule="evenodd" stroke="none"/>
      <path d="M4.4 -26.0 L7.1 -18.15 9.55 -11.4 10.0 -10.35 Q12.15 -4.45 12.15 1.8 L12.0 5.25 11.15 10.15 Q8.5 16.55 4.05 21.05 -0.4 25.45 -6.1 27.55 -0.85 25.0 3.15 20.3 7.1 15.6 9.3 9.1 L9.9 4.05 9.85 0.5 Q9.5 -6.0 7.0 -11.95 L6.6 -13.0 3.75 -19.85 0.6 -27.75 -2.35 -35.9 -4.65 -43.35 Q-5.55 -46.8 -5.7 -49.1 -7.1 -53.1 -7.25 -55.25 -7.7 -60.0 -9.75 -64.15 L-11.1 -66.05 -12.85 -68.05 -10.05 -68.0 Q-8.8 -67.55 -7.7 -66.45 L-5.65 -64.1 -4.05 -61.75 Q-2.2 -57.6 -2.05 -53.0 -2.0 -50.9 -0.8 -46.95 -0.75 -44.7 -0.05 -41.35 0.65 -38.0 1.85 -34.0 L4.4 -26.0" fill="#e5e5e5" fill-rule="evenodd" stroke="none"/>
      <path d="M-35.4 -62.4 Q-34.15 -64.55 -32.0 -65.95 -33.75 -63.65 -34.45 -60.7 -35.15 -57.8 -35.15 -54.75 L-35.1 -54.0 -35.1 -52.45 -35.3 -46.3 -35.85 -38.9 -36.8 -31.2 -37.95 -24.2 -39.35 -18.8 Q-41.4 -12.95 -41.4 -6.6 L-41.35 -5.35 Q-41.25 -0.55 -39.9 3.95 -38.6 8.45 -36.25 12.4 -33.95 16.3 -30.65 19.4 -26.6 23.2 -21.65 25.15 -16.8 27.1 -11.5 26.95 -7.2 26.75 -3.2 25.25 0.75 23.7 4.15 21.0 0.45 24.75 -4.2 26.9 -8.8 29.0 -14.0 29.25 -19.25 29.35 -24.15 27.4 -29.05 25.45 -33.15 21.65 -36.45 18.55 -38.8 14.65 -41.1 10.75 -42.4 6.25 -43.75 1.75 -43.85 -3.1 L-43.9 -4.3 Q-43.9 -10.65 -41.85 -16.5 L-40.45 -21.9 -39.3 -28.9 -38.4 -36.6 -37.8 -44.05 -37.6 -50.2 -37.6 -51.75 -37.6 -52.45 Q-37.65 -55.1 -37.15 -57.65 -36.6 -60.25 -35.4 -62.4" fill="#b4b4b4" fill-rule="evenodd" stroke="none"/>
      <path d="M-9.1 -36.85 L-9.35 -35.65 -10.15 -32.8 Q-10.65 -31.1 -11.5 -29.3 -12.3 -27.55 -13.45 -26.35 -14.65 -25.1 -16.1 -24.85 -17.65 -24.7 -19.25 -25.75 -20.9 -26.8 -22.5 -28.4 L-25.35 -31.75 -27.4 -34.55 -28.2 -35.75 -9.1 -36.85" fill="#b4b4b4" fill-rule="evenodd" stroke="none"/>
      <path d="M-9.65 -36.9 L-9.95 -35.75 -11.1 -33.2 Q-11.85 -31.75 -13.1 -30.6 -14.35 -29.45 -16.2 -29.3 -18.1 -29.3 -20.25 -30.4 L-24.25 -33.0 -27.4 -35.6 -28.65 -36.85 -9.65 -36.9" fill="#d8a235" fill-rule="evenodd" stroke="none"/>
      <path d="M-9.65 -36.9 L-28.65 -36.85 -27.4 -35.6 -24.25 -33.0 -20.25 -30.4 Q-18.1 -29.3 -16.2 -29.3 -14.35 -29.45 -13.1 -30.6 -11.85 -31.75 -11.1 -33.2 L-9.95 -35.75 -9.65 -36.9" fill="none" stroke="#000000" stroke-linecap="round" stroke-linejoin="round" stroke-width="1.0"/>
      <path d="M-12.4 -36.2 L-12.55 -35.45 -13.05 -33.85 Q-13.5 -32.95 -14.35 -32.25 -15.15 -31.55 -16.5 -31.5 -17.85 -31.5 -19.15 -32.2 -20.5 -32.9 -21.7 -33.8 L-23.5 -35.45 -24.25 -36.15 -12.4 -36.2" fill="#c12d05" fill-rule="evenodd" stroke="none"/>
      <path d="M-12.4 -36.2 L-24.25 -36.15 -23.5 -35.45 -21.7 -33.8 Q-20.5 -32.9 -19.15 -32.2 -17.85 -31.5 -16.5 -31.5 -15.15 -31.55 -14.35 -32.25 -13.5 -32.95 -13.05 -33.85 L-12.55 -35.45 -12.4 -36.2" fill="none" stroke="#000000" stroke-linecap="round" stroke-linejoin="round" stroke-width="1.0"/>
      <path d="M-20.1 -35.8 Q-19.3 -34.15 -17.65 -33.4 -16.05 -32.7 -14.15 -32.85 -14.95 -31.9 -16.45 -31.8 -17.75 -31.8 -19.1 -32.55 L-21.6 -34.2 -23.35 -35.8 -22.15 -35.8 -20.1 -35.8" fill="#9b0d0d" fill-rule="evenodd" stroke="none"/>
      <path d="M-49.9 -11.6 L-44.7 -27.05 -43.45 -26.6 -40.05 -26.15 Q-37.9 -26.05 -35.25 -26.9 -33.1 -27.7 -30.9 -28.95 -28.75 -30.15 -27.15 -31.4 L-24.9 -33.15 -24.45 -33.35 -23.55 -33.2 Q-23.1 -32.9 -22.95 -31.8 L-22.95 -29.5 Q-23.05 -27.8 -23.5 -25.35 -24.0 -22.95 -25.05 -20.35 -26.15 -17.8 -28.05 -15.5 -29.95 -13.2 -32.85 -11.75 -35.8 -10.3 -40.0 -10.1 -44.25 -9.95 -49.9 -11.6" fill="#666666" fill-rule="evenodd" stroke="none"/>
      <path d="M-44.7 -27.05 L-43.45 -26.6 -40.05 -26.15 Q-37.9 -26.05 -35.25 -26.9 -33.1 -27.7 -30.9 -28.95 -28.75 -30.15 -27.15 -31.4 L-24.9 -33.15 -24.45 -33.35 -23.55 -33.2 Q-23.1 -32.9 -22.95 -31.8 L-22.95 -29.5 Q-23.05 -27.8 -23.5 -25.35 -24.0 -22.95 -25.05 -20.35 -26.15 -17.8 -28.05 -15.5 -29.95 -13.2 -32.85 -11.75 -35.8 -10.3 -40.0 -10.1 -44.25 -9.95 -49.9 -11.6" fill="none" stroke="#000000" stroke-linecap="round" stroke-linejoin="round" stroke-width="2.0"/>
      <path d="M-43.95 -16.25 Q-42.7 -15.15 -41.25 -14.65 -39.8 -14.2 -38.0 -14.65 -35.15 -15.65 -31.7 -17.55 -28.35 -19.45 -25.1 -21.9 -26.7 -17.75 -29.5 -15.25 -32.35 -12.75 -35.9 -11.75 -39.45 -10.8 -43.35 -11.1 -47.3 -11.4 -51.15 -12.8 -51.1 -13.75 -51.35 -14.55 L-51.75 -16.2 Q-52.0 -17.1 -51.7 -18.1 L-51.2 -19.0 -50.25 -20.35 -49.15 -21.35 -48.25 -21.3 -46.25 -18.7 -43.95 -16.25" fill="#333333" fill-rule="evenodd" stroke="none"/>
      <path d="M-44.05 -26.5 L-42.5 -26.1 -39.25 -25.85 Q-37.4 -25.9 -35.15 -26.6 -33.05 -27.35 -30.85 -28.6 L-27.05 -31.0 -24.7 -32.9 -24.35 -33.0 -23.8 -33.0 -23.4 -32.5 -23.3 -31.8 -23.3 -31.25 -23.4 -28.6 -24.1 -24.4 Q-24.7 -22.05 -25.85 -19.6 -26.95 -17.2 -28.9 -15.1 -30.85 -13.05 -33.8 -11.8 -32.65 -12.35 -31.1 -14.25 -29.6 -16.25 -28.25 -18.85 -26.9 -21.5 -26.1 -24.0 -25.4 -26.5 -25.75 -28.15 -26.0 -28.85 -27.35 -28.55 L-30.6 -27.55 -34.4 -26.15 Q-36.3 -25.55 -37.6 -25.45 -41.0 -25.4 -44.05 -26.5" fill="#999999" fill-rule="evenodd" stroke="none"/>
      <path d="M6.55 -29.15 Q7.35 -28.9 8.4 -27.55 9.4 -26.25 9.95 -23.05 10.75 -18.25 10.3 -15.85 9.8 -13.4 7.9 -13.45 L4.6 -13.9 Q2.35 -14.4 -0.45 -15.8 -3.3 -17.2 -6.1 -19.85 -8.9 -22.55 -11.0 -26.95 -11.85 -28.95 -11.35 -30.15 -10.85 -31.35 -9.55 -31.7 L-6.65 -31.45 -5.9 -31.0 Q-4.1 -29.75 -2.2 -29.0 -0.35 -28.25 1.6 -28.25 3.55 -28.25 5.65 -29.35 L6.55 -29.15" fill="#666666" fill-rule="evenodd" stroke="none"/>
      <path d="M6.55 -29.15 Q7.35 -28.9 8.4 -27.55 9.4 -26.25 9.95 -23.05 10.75 -18.25 10.3 -15.85 9.8 -13.4 7.9 -13.45 L4.6 -13.9 Q2.35 -14.4 -0.45 -15.8 -3.3 -17.2 -6.1 -19.85 -8.9 -22.55 -11.0 -26.95 -11.85 -28.95 -11.35 -30.15 -10.85 -31.35 -9.55 -31.7 L-6.65 -31.45 -5.9 -31.0 Q-4.1 -29.75 -2.2 -29.0 -0.35 -28.25 1.6 -28.25 3.55 -28.25 5.65 -29.35 L6.55 -29.15" fill="none" stroke="#000000" stroke-linecap="round" stroke-linejoin="round" stroke-width="2.0"/>
      <path d="M5.75 -28.6 Q6.0 -28.65 6.7 -28.3 L8.1 -26.7 Q8.8 -25.5 9.3 -22.95 L9.75 -17.95 Q9.75 -15.45 9.0 -14.55 8.6 -14.1 7.9 -14.1 L7.75 -14.1 7.45 -14.1 Q8.8 -15.3 9.1 -17.35 L9.2 -18.4 Q9.15 -20.2 8.55 -21.8 7.95 -23.35 7.1 -24.2 5.5 -25.5 3.55 -25.85 L-0.5 -26.4 -4.1 -26.8 Q-5.8 -27.15 -7.25 -28.0 -8.75 -28.95 -9.8 -30.8 L-8.45 -31.1 -7.0 -30.75 -6.25 -30.35 Q-4.6 -29.25 -2.7 -28.4 -0.8 -27.6 1.35 -27.5 3.45 -27.45 5.75 -28.6" fill="#999999" fill-rule="evenodd" stroke="none"/>
      <path d="M-28.95 36.5 L-29.0 37.75 -28.55 40.7 Q-28.1 42.4 -26.85 43.95 L-26.85 44.05 -27.25 44.3 -28.75 44.25 -31.2 44.05 Q-32.7 43.85 -34.5 42.95 -36.4 42.05 -38.2 39.9 -40.05 37.7 -41.6 33.65 L-28.95 36.5" fill="#333333" fill-rule="evenodd" stroke="none"/>
      <path d="M-28.95 36.5 L-29.0 37.75 -28.55 40.7 Q-28.1 42.4 -26.85 43.95 L-26.85 44.05 -27.25 44.3 -28.75 44.25 -31.2 44.05 Q-32.7 43.85 -34.5 42.95 -36.4 42.05 -38.2 39.9 -40.05 37.7 -41.6 33.65" fill="none" stroke="#000000" stroke-linecap="round" stroke-linejoin="round" stroke-width="2.0"/>
      <path d="M-19.2 39.15 L-18.25 39.0 -16.0 38.55 -13.25 37.85 -10.85 36.8" fill="none" stroke="#000000" stroke-linecap="round" stroke-linejoin="round" stroke-width="1.0"/>
      <path d="M-4.8 -40.4 L-3.55 -39.95 -3.25 -39.4 -2.85 -38.2 Q-2.75 -37.5 -3.15 -36.95 -3.55 -36.45 -4.25 -36.4 L-5.4 -36.4 -6.0 -36.5 Q-6.8 -34.85 -7.75 -34.3 -8.75 -33.75 -9.85 -33.9 L-12.2 -34.45 -14.75 -35.1 -17.45 -35.3 -20.1 -35.3 -22.1 -35.35 -24.9 -35.45 -27.6 -35.9 Q-28.75 -36.25 -29.15 -36.95 L-29.7 -38.1 Q-29.7 -38.35 -29.0 -38.45 L-26.55 -38.8 -23.2 -39.4 Q-21.5 -39.75 -20.0 -40.45 -18.9 -40.9 -17.95 -41.6 -17.05 -42.25 -16.3 -43.25 L-15.7 -44.15 -14.85 -45.3 -13.85 -45.9 Q-13.35 -46.0 -12.9 -45.25 -12.25 -44.2 -10.8 -43.25 -9.3 -42.3 -7.65 -41.6 L-4.8 -40.4" fill="#f9c248" fill-rule="evenodd" stroke="none"/>
      <path d="M-4.8 -40.4 L-3.55 -39.95 -3.25 -39.4 -2.85 -38.2 Q-2.75 -37.5 -3.15 -36.95 -3.55 -36.45 -4.25 -36.4 L-5.4 -36.4 -6.0 -36.5 Q-6.8 -34.85 -7.75 -34.3 -8.75 -33.75 -9.85 -33.9 L-12.2 -34.45 -14.75 -35.1 -17.45 -35.3 -20.1 -35.3 -22.1 -35.35 -24.9 -35.45 -27.6 -35.9 Q-28.75 -36.25 -29.15 -36.95 L-29.7 -38.1 Q-29.7 -38.35 -29.0 -38.45 L-26.55 -38.8 -23.2 -39.4 Q-21.5 -39.75 -20.0 -40.45 -18.9 -40.9 -17.95 -41.6 -17.05 -42.25 -16.3 -43.25 L-15.7 -44.15 -14.85 -45.3 -13.85 -45.9 Q-13.35 -46.0 -12.9 -45.25 -12.25 -44.2 -10.8 -43.25 -9.3 -42.3 -7.65 -41.6 L-4.8 -40.4" fill="none" stroke="#000000" stroke-linecap="round" stroke-linejoin="round" stroke-width="1.0"/>
      <path d="M-3.4 -37.2 Q-3.65 -36.9 -4.25 -36.8 L-5.4 -36.8 -6.2 -36.95 -6.5 -37.05 -6.45 -36.5 Q-7.15 -34.95 -8.1 -34.5 L-10.1 -34.3 -12.45 -34.95 -14.9 -35.55 -18.45 -35.75 -21.4 -35.8 -24.05 -35.85 -27.1 -36.25 Q-28.45 -36.5 -28.85 -37.2 L-29.1 -37.65 -29.25 -38.05 -29.25 -38.2 Q-28.6 -37.6 -27.8 -37.35 L-26.3 -37.05 -25.45 -37.0 -20.95 -36.75 -15.8 -37.2 -14.6 -37.5 -13.3 -37.55 Q-12.5 -37.4 -11.9 -36.95 L-10.6 -36.25 -9.05 -36.2 -7.6 -36.85 -7.05 -37.45 -6.4 -37.95 -5.35 -37.85 Q-4.8 -37.65 -4.35 -37.85 -4.0 -38.05 -3.85 -38.4 L-3.3 -38.85 -3.2 -38.0 Q-3.15 -37.55 -3.4 -37.2" fill="#d8a235" fill-rule="evenodd" stroke="none"/>
      <path d="M-14.95 -40.7 L-14.45 -40.55 -13.6 -40.2 Q-13.3 -39.95 -13.8 -39.75 L-14.65 -39.65 -14.95 -40.7" fill="#d8a235" fill-rule="evenodd" stroke="none"/>
      <path d="M-7.8 -40.55 Q-9.35 -41.2 -11.7 -42.75 L-12.15 -43.1 -12.95 -43.8 -13.7 -44.15 -14.45 -43.7 Q-14.95 -43.3 -15.8 -43.2 L-15.45 -43.85 -14.65 -45.05 Q-14.2 -45.6 -13.8 -45.55 L-13.4 -45.4 -12.9 -44.75 -11.85 -43.75 Q-10.75 -42.8 -8.75 -41.7 -6.75 -40.6 -3.9 -39.95 -3.9 -39.9 -4.2 -39.8 -4.55 -39.65 -5.4 -39.8 L-7.8 -40.55" fill="#ffe4b3" fill-rule="evenodd" stroke="none"/>
      <path d="M-17.25 -51.25 Q-17.05 -49.45 -17.35 -47.75 -17.6 -46.1 -18.3 -44.7 L-24.6 -43.6 -29.1 -42.5 Q-30.35 -43.8 -31.2 -45.7 -32.05 -47.55 -32.25 -49.8 -32.5 -52.7 -31.75 -55.1 -30.95 -57.5 -29.4 -59.05 -27.85 -60.55 -25.75 -60.8 -22.55 -61.1 -20.25 -58.65 -17.95 -56.25 -17.25 -51.25" fill="#ffffff" fill-rule="evenodd" stroke="none"/>
      <path d="M-17.25 -51.25 Q-17.95 -56.25 -20.25 -58.65 -22.55 -61.1 -25.75 -60.8 -27.85 -60.55 -29.4 -59.05 -30.95 -57.5 -31.75 -55.1 -32.5 -52.7 -32.25 -49.8 -32.05 -47.55 -31.2 -45.7 -30.35 -43.8 -29.1 -42.5 L-24.6 -43.6 -18.3 -44.7 Q-17.6 -46.1 -17.35 -47.75 -17.05 -49.45 -17.25 -51.25" fill="none" stroke="#000000" stroke-linecap="round" stroke-linejoin="round" stroke-width="1.0"/>
      <path d="M-29.8 -51.1 Q-29.55 -48.5 -28.55 -46.65 -27.55 -44.75 -25.9 -43.7 L-28.95 -42.95 Q-31.5 -45.4 -31.9 -49.85 -32.15 -52.55 -31.45 -54.85 -30.75 -57.1 -29.3 -58.6 -27.9 -60.1 -26.0 -60.4 -27.95 -59.25 -29.0 -56.75 -30.05 -54.3 -29.8 -51.1" fill="#e5e2be" fill-rule="evenodd" stroke="none"/>
      <path d="M-21.75 -44.6 Q-23.2 -44.75 -24.0 -46.15 -24.8 -47.55 -24.65 -49.45 -24.45 -51.35 -23.4 -52.55 -22.3 -53.7 -20.9 -53.65 -19.5 -53.5 -18.65 -52.1 -17.85 -50.7 -18.0 -48.8 -18.2 -46.9 -19.3 -45.7 -20.35 -44.5 -21.75 -44.6" fill="#000000" fill-rule="evenodd" stroke="none"/>
      <path d="M-19.3 -50.7 Q-19.35 -49.9 -19.75 -49.45 -20.2 -48.95 -20.75 -49.0 -21.3 -49.05 -21.6 -49.65 -21.95 -50.15 -21.9 -50.9 -21.85 -51.7 -21.4 -52.15 -21.0 -52.65 -20.4 -52.6 -19.85 -52.55 -19.5 -51.95 -19.2 -51.45 -19.3 -50.7" fill="#ffffff" fill-rule="evenodd" stroke="none"/>
      <path d="M-5.0 -59.9 Q-3.75 -58.75 -2.9 -56.7 -2.0 -54.65 -1.75 -52.0 L-1.65 -49.3 Q-1.65 -47.85 -1.8 -46.5 -1.95 -45.15 -2.25 -44.25 -4.55 -45.3 -6.8 -45.65 -9.0 -46.0 -10.4 -45.65 -11.55 -47.9 -11.85 -51.0 -12.05 -53.6 -11.6 -55.85 -11.1 -58.0 -10.1 -59.35 -9.05 -60.75 -7.65 -60.9 -6.25 -61.0 -5.0 -59.9" fill="#ffffff" fill-rule="evenodd" stroke="none"/>
      <path d="M-5.0 -59.9 Q-6.25 -61.0 -7.65 -60.9 -9.05 -60.75 -10.1 -59.35 -11.1 -58.0 -11.6 -55.85 -12.05 -53.6 -11.85 -51.0 -11.55 -47.9 -10.4 -45.65 -9.0 -46.0 -6.8 -45.65 -4.55 -45.3 -2.25 -44.25 -1.95 -45.15 -1.8 -46.5 -1.65 -47.85 -1.65 -49.3 L-1.75 -52.0 Q-2.0 -54.65 -2.9 -56.7 -3.75 -58.75 -5.0 -59.9" fill="none" stroke="#000000" stroke-linecap="round" stroke-linejoin="round" stroke-width="1.0"/>
      <path d="M-11.55 -52.65 Q-11.55 -55.2 -10.85 -57.2 -10.1 -59.15 -8.95 -60.05 -9.85 -57.9 -9.85 -54.9 L-9.8 -53.35 -9.35 -50.2 -8.4 -47.6 Q-7.85 -46.45 -6.95 -46.05 L-8.55 -46.1 -10.15 -46.15 -11.05 -48.4 -11.5 -51.05 -11.55 -52.65" fill="#e5e2be" fill-rule="evenodd" stroke="none"/>
      <path d="M-2.35 -49.75 Q-2.55 -48.15 -3.3 -47.2 -4.05 -46.2 -5.1 -46.25 -6.1 -46.4 -6.7 -47.5 -7.25 -48.65 -7.15 -50.25 -7.0 -51.8 -6.2 -52.8 -5.45 -53.75 -4.4 -53.7 -3.4 -53.55 -2.8 -52.45 -2.2 -51.3 -2.35 -49.75" fill="#000000" fill-rule="evenodd" stroke="none"/>
      <path d="M-2.9 -51.15 L-3.3 -50.15 Q-3.6 -49.75 -4.1 -49.8 -4.5 -49.85 -4.75 -50.3 L-4.95 -51.35 -4.55 -52.35 Q-4.25 -52.75 -3.8 -52.7 -3.4 -52.65 -3.15 -52.2 -2.85 -51.75 -2.9 -51.15" fill="#ffffff" fill-rule="evenodd" stroke="none"/>
    </g>
  </defs>
</svg>
