<?xml version="1.0" encoding="UTF-8" standalone="no"?><svg xmlns:xlink="http://www.w3.org/1999/xlink" height="4.15px" width="4.0px" xmlns="http://www.w3.org/2000/svg">  <g transform="matrix(1, 0, 0, 1, 0.3, 2.7)"><path d="M3.7 0.55 L3.6 0.95 2.75 1.2 1.1 1.45 0.0 1.4 0.0 1.25 Q0.0 0.6 0.65 0.4 L3.0 0.0 3.7 0.55" fill="#33221b" fill-rule="evenodd" stroke="#33221b"/><path d="M1.9 -1.75 L2.05 -1.6 2.1 -1.6 2.55 -0.7 2.75 -0.2 2.75 -0.15 3.05 0.9 3.0 0.9 2.4 0.95 1.2 0.85 1.75 0.85 2.5 0.9 2.75 0.85 2.95 0.6 2.85 0.45 2.85 0.3 2.7 -0.1 2.55 0.0 0.65 0.0 0.55 -0.05 0.45 -0.2 0.65 -0.3 Q0.85 -1.4 1.3 -1.75 L1.9 -1.75 M0.4 0.65 L0.4 0.6 0.55 0.65 0.5 0.65 0.4 0.65" fill="#72200b" fill-opacity="0.9882353" fill-rule="evenodd" stroke="#72200b"/><path d="M2.1 -1.6 L1.95 -1.75 1.9 -1.75 1.3 -1.75 Q0.85 -1.4 0.65 -0.3 L0.45 -0.2 0.55 -0.05 0.45 0.2 0.45 0.35 0.4 0.35 0.4 0.4 0.35 0.5 0.4 0.6 0.4 0.65 0.2 0.9 0.15 0.9 0.1 1.1 0.15 1.4 -0.3 1.35 -0.3 1.3 -0.3 1.2 Q-0.3 -2.7 1.5 -2.7 3.0 -2.7 3.45 -1.25 L3.6 0.4 3.5 1.0 3.35 1.0 3.3 0.8 3.15 1.05 3.1 1.1 3.05 0.9 2.75 -0.15 2.75 -0.2 2.55 -0.7 2.1 -1.6" fill="#33221b" fill-opacity="0.9882353" fill-rule="evenodd" stroke="#33221b"/><path d="M0.4 0.6 L0.35 0.5 0.4 0.4 0.4 0.35 0.45 0.35 0.45 0.2 0.55 -0.05 0.65 0.0 2.55 0.0 2.7 -0.1 2.85 0.3 2.85 0.45 2.95 0.6 2.75 0.85 2.5 0.9 1.75 0.85 1.2 0.85 1.05 0.85 0.55 0.65 0.4 0.6" fill="#d1aca6" fill-opacity="0.9882353" fill-rule="evenodd" stroke="#d1aca6"/>  </g></svg>