<?xml version="1.0" encoding="UTF-8" standalone="no"?><svg xmlns:xlink="http://www.w3.org/1999/xlink" height="3.8px" width="2.45px" xmlns="http://www.w3.org/2000/svg">  <g transform="matrix(1, 0, 0, 1, -0.55, 2.45)"><path d="M2.9 0.05 L2.55 0.8 1.6 1.35 1.25 1.25 0.65 0.4 2.9 0.05" fill="#33221b" fill-rule="evenodd" stroke="#33221b"/><path d="M2.5 -0.1 L2.6 -0.4 2.6 -0.5 2.75 -1.1 2.45 -1.6 2.3 -1.85 2.0 -2.15 Q1.1 -2.05 1.1 -1.6 L1.1 -1.55 Q0.85 -1.2 0.85 -0.55 L0.9 -0.15 0.85 -0.1 0.9 0.05 Q1.2 0.75 1.65 0.75 L2.3 0.25 2.5 -0.1 M0.6 -0.25 L0.6 -0.3 Q0.6 -2.6 1.8 -2.45 3.0 -2.3 3.0 -0.95 L2.95 -0.05 2.55 0.8 1.6 1.35 1.35 1.3 1.2 1.2 0.65 0.4 0.55 -0.05 0.6 -0.25" fill="#33221b" fill-rule="evenodd" stroke="#33221b"/><path d="M0.9 -0.15 L0.85 -0.55 Q0.85 -1.2 1.1 -1.55 L1.1 -1.6 Q1.1 -2.05 2.0 -2.15 L2.3 -1.85 2.45 -1.6 2.75 -1.1 2.6 -0.5 2.6 -0.4 2.5 -0.1 2.15 -0.25 1.75 -0.2 1.75 -0.15 1.2 -0.15 1.2 -0.2 0.9 -0.15" fill="#72200b" fill-opacity="0.9882353" fill-rule="evenodd" stroke="#72200b"/><path d="M2.5 -0.1 L2.3 0.25 1.65 0.75 Q1.2 0.75 0.9 0.05 L0.85 -0.1 0.9 -0.15 1.2 -0.2 1.2 -0.15 1.75 -0.15 1.75 -0.2 2.15 -0.25 2.5 -0.1" fill="#d1aca6" fill-opacity="0.9882353" fill-rule="evenodd" stroke="#d1aca6"/>  </g></svg>