<?xml version="1.0" encoding="UTF-8" standalone="no"?><svg xmlns:xlink="http://www.w3.org/1999/xlink" height="44.1px" width="22.05px" xmlns="http://www.w3.org/2000/svg">  <g transform="matrix(1, 0, 0, 1, 22.3, 48.75)"><path d="M-15.9 -15.25 L-15.9 -15.2 -17.25 -12.8 -17.15 -11.85 -15.35 -11.45 -14.5 -11.05 -12.75 -12.15 -12.45 -12.6 -11.75 -12.35 -9.65 -11.1 Q-7.85 -10.05 -7.0 -10.05 -6.1 -10.05 -5.95 -10.75 L-5.7 -11.0 -5.5 -10.75 -5.0 -10.85 -4.8 -11.55 Q-3.45 -13.85 -2.35 -20.05 -1.25 -26.2 -1.25 -30.55 L-1.35 -32.3 Q-1.8 -36.55 -4.45 -40.4 -5.8 -42.3 -6.7 -42.25 -7.7 -42.15 -7.7 -39.5 L-7.6 -38.45 -7.4 -35.0 Q-7.4 -34.4 -9.5 -28.1 L-10.5 -25.4 -14.0 -21.2 -13.9 -20.75 -13.85 -20.7 -13.95 -20.5 -13.9 -20.25 Q-15.05 -19.6 -16.25 -18.15 L-16.25 -18.1 Q-17.0 -18.2 -17.0 -17.3 L-16.95 -16.5 -16.55 -16.3 -16.45 -16.25 -15.9 -15.25 M-5.9 -11.25 L-5.95 -11.15 -5.95 -11.35 -5.9 -11.25 M-9.05 -16.4 L-10.9 -17.1 -12.05 -17.3 Q-10.85 -17.4 -9.65 -16.75 L-9.05 -16.4 M-20.3 -10.65 L-20.65 -11.6 -20.65 -12.5 -21.25 -12.35 -22.3 -12.6 Q-22.1 -13.2 -21.1 -14.05 L-20.75 -14.3 -20.2 -14.75 Q-19.25 -15.5 -18.55 -15.85 L-18.85 -16.55 -18.4 -17.45 -18.05 -17.7 Q-17.8 -18.8 -16.75 -19.6 L-14.0 -21.3 Q-13.45 -22.5 -13.25 -23.3 L-12.2 -28.7 Q-11.4 -33.4 -11.4 -34.8 L-11.15 -36.05 -11.5 -38.85 -11.95 -42.8 -12.5 -47.3 Q-12.5 -49.15 -10.45 -48.6 -8.3 -48.0 -5.95 -45.15 -3.55 -42.0 -2.4 -39.5 -1.7 -38.1 -0.95 -33.3 L-0.65 -31.65 -0.25 -28.3 -0.25 -27.75 -0.25 -27.45 Q-0.65 -21.95 -1.75 -16.55 -3.95 -5.7 -7.45 -5.7 L-7.8 -5.75 Q-8.4 -5.45 -9.15 -5.45 L-11.4 -5.7 -11.9 -5.2 -12.65 -4.8 -12.75 -4.65 -12.95 -4.7 -13.75 -4.65 Q-15.4 -4.65 -15.9 -5.05 L-16.1 -5.25 Q-16.85 -5.6 -17.2 -6.65 L-17.15 -6.95 -17.9 -6.85 Q-19.2 -6.85 -19.55 -7.7 L-19.55 -7.8 Q-18.7 -7.1 -17.75 -7.1 -16.65 -7.1 -16.65 -8.1 L-16.75 -8.6 -17.0 -8.7 -17.3 -8.4 -17.85 -8.1 -19.65 -8.35 -19.65 -8.95 -19.0 -8.7 Q-18.4 -8.7 -18.5 -9.1 L-18.5 -9.2 -17.85 -8.8 -17.65 -8.65 -17.5 -8.75 -17.45 -9.3 Q-17.45 -9.75 -17.75 -10.4 L-19.0 -11.25 -19.75 -12.25 Q-20.35 -12.0 -20.35 -11.2 L-20.3 -10.65 M-20.2 -13.45 L-18.0 -14.35 -17.5 -15.0 -17.95 -15.45 -20.35 -13.5 -20.2 -13.45 M-18.5 -13.25 L-18.9 -13.3 -19.05 -13.25 -19.25 -13.15 -18.8 -12.8 -18.5 -13.25 M-16.75 -15.1 L-16.8 -15.15 -16.8 -15.1 -16.75 -15.1 M-9.05 -8.1 L-9.15 -8.3 -9.1 -8.4 -9.0 -8.4 Q-8.4 -8.4 -8.5 -8.65 L-8.45 -9.15 Q-8.45 -10.05 -10.85 -11.2 -13.25 -12.35 -13.4 -10.85 L-12.95 -10.45 -13.0 -10.15 Q-13.0 -9.6 -11.65 -8.5 L-10.3 -7.65 -11.5 -6.85 -10.95 -6.3 -9.15 -6.0 Q-8.45 -6.0 -7.7 -6.75 -7.0 -7.45 -7.0 -8.0 L-7.1 -8.45 -7.25 -8.65 -9.05 -8.1 M-15.2 -6.85 L-15.35 -6.95 -16.0 -7.35 -16.75 -7.15 -16.75 -6.6 -15.8 -5.75 Q-15.2 -5.4 -14.4 -5.4 -12.15 -5.4 -12.15 -6.85 L-12.2 -7.35 -12.45 -7.6 Q-13.0 -7.7 -13.5 -7.25 L-13.5 -7.2 -13.6 -7.4 -13.5 -7.45 -13.4 -8.3 Q-13.8 -9.05 -15.15 -10.1 -16.7 -11.3 -17.5 -11.05 L-17.15 -10.2 -17.15 -10.15 -16.15 -8.3 -15.2 -6.85" fill="#402b2a" fill-opacity="0.9882353" fill-rule="evenodd" stroke="#402b2a"/><path d="M-13.9 -20.25 L-13.95 -20.5 -13.85 -20.7 -13.9 -20.75 -14.0 -21.2 -10.5 -25.4 -9.5 -28.1 Q-7.4 -34.4 -7.4 -35.0 L-7.6 -38.45 -7.7 -39.5 Q-7.7 -42.15 -6.7 -42.25 -5.8 -42.3 -4.45 -40.4 -1.8 -36.55 -1.35 -32.3 L-1.25 -30.55 Q-1.25 -26.2 -2.35 -20.05 -3.45 -13.85 -4.8 -11.55 L-5.0 -10.85 -5.5 -10.75 -5.7 -11.0 -5.95 -10.75 Q-6.1 -10.05 -7.0 -10.05 -7.85 -10.05 -9.65 -11.1 L-11.75 -12.35 -12.45 -12.6 -12.75 -12.15 -14.5 -11.05 -15.35 -11.45 -17.15 -11.85 -17.25 -12.8 -15.9 -15.2 -15.9 -15.25 Q-15.85 -16.55 -14.35 -17.1 L-12.05 -17.3 -10.9 -17.1 -9.05 -16.4 Q-6.1 -14.85 -5.95 -11.35 L-5.95 -11.15 -5.9 -11.25 Q-4.45 -14.55 -3.65 -19.05 -2.9 -23.45 -2.9 -27.8 -2.9 -28.1 -3.25 -28.6 L-3.75 -29.05 Q-5.1 -29.05 -6.45 -28.35 -8.4 -26.9 -9.75 -24.6 -11.65 -21.35 -13.7 -20.1 L-13.8 -20.05 -13.9 -20.25" fill="#75504a" fill-rule="evenodd" stroke="#75504a"/><path d="M-15.9 -15.25 L-16.45 -16.25 -16.55 -16.3 -16.95 -16.5 -17.0 -17.3 Q-17.0 -18.2 -16.25 -18.1 L-16.25 -18.15 Q-15.05 -19.6 -13.9 -20.25 L-13.8 -20.05 -13.7 -20.1 Q-11.65 -21.35 -9.75 -24.6 -8.4 -26.9 -6.45 -28.35 -5.1 -29.05 -3.75 -29.05 L-3.25 -28.6 Q-2.9 -28.1 -2.9 -27.8 -2.9 -23.45 -3.65 -19.05 -4.45 -14.55 -5.9 -11.25 L-5.95 -11.35 Q-6.1 -14.85 -9.05 -16.4 L-9.65 -16.75 Q-10.85 -17.4 -12.05 -17.3 L-14.35 -17.1 Q-15.85 -16.55 -15.9 -15.25 M-19.55 -7.8 L-19.65 -7.85 -19.65 -8.35 -17.85 -8.1 -17.3 -8.4 -17.0 -8.7 -16.75 -8.6 -16.65 -8.1 Q-16.65 -7.1 -17.75 -7.1 -18.7 -7.1 -19.55 -7.8 M-16.75 -15.1 L-16.8 -15.1 -16.8 -15.15 -16.75 -15.1 M-9.05 -8.1 L-7.25 -8.65 -7.1 -8.45 -7.0 -8.0 Q-7.0 -7.45 -7.7 -6.75 -8.45 -6.0 -9.15 -6.0 L-10.95 -6.3 -11.5 -6.85 -10.3 -7.65 -9.65 -7.95 -9.5 -7.95 -9.4 -8.0 -9.05 -8.1 M-13.5 -7.2 L-13.5 -7.25 Q-13.0 -7.7 -12.45 -7.6 L-12.2 -7.35 -12.15 -6.85 Q-12.15 -5.4 -14.4 -5.4 -15.2 -5.4 -15.8 -5.75 L-16.75 -6.6 -16.75 -7.15 -16.0 -7.35 -15.35 -6.95 -15.2 -6.85 -14.55 -6.75 -13.75 -7.0 -13.5 -7.2" fill="#a27666" fill-rule="evenodd" stroke="#a27666"/><path d="M-19.65 -8.95 Q-20.1 -9.4 -20.3 -10.65 L-20.35 -11.2 Q-20.35 -12.0 -19.75 -12.25 L-19.0 -11.25 -17.75 -10.4 Q-17.45 -9.75 -17.45 -9.3 L-17.5 -8.75 -17.65 -8.65 -17.85 -8.8 -18.5 -9.2 -18.5 -9.1 Q-18.4 -8.7 -19.0 -8.7 L-19.65 -8.95 M-20.2 -13.45 L-20.35 -13.5 -17.95 -15.45 -17.5 -15.0 -18.0 -14.35 -20.2 -13.45 M-10.3 -7.65 L-11.65 -8.5 Q-13.0 -9.6 -13.0 -10.15 L-12.95 -10.45 -13.4 -10.85 Q-13.25 -12.35 -10.85 -11.2 -8.45 -10.05 -8.45 -9.15 L-8.5 -8.65 Q-8.4 -8.4 -9.0 -8.4 L-9.1 -8.4 -9.15 -8.3 -9.05 -8.1 -9.4 -8.0 -9.5 -7.95 -9.65 -7.95 -10.3 -7.65 M-15.2 -6.85 L-16.15 -8.3 -17.15 -10.15 -17.15 -10.2 -17.5 -11.05 Q-16.7 -11.3 -15.15 -10.1 -13.8 -9.05 -13.4 -8.3 L-13.5 -7.45 -13.6 -7.4 -13.5 -7.2 -13.75 -7.0 -14.55 -6.75 -15.2 -6.85" fill="#d1aca6" fill-opacity="0.9882353" fill-rule="evenodd" stroke="#d1aca6"/>  </g></svg>