<?xml version="1.0" encoding="UTF-8" standalone="no"?><svg xmlns:xlink="http://www.w3.org/1999/xlink" height="106.2px" width="74.9px" xmlns="http://www.w3.org/2000/svg">  <g transform="matrix(1, 0, 0, 1, -60.65, 83.75)"><path d="M61.0 -65.8 Q61.2 -65.35 61.5 -65.35 62.05 -65.35 61.85 -65.45 L62.1 -68.0 Q62.65 -70.5 63.8 -70.5 L64.1 -70.25 64.4 -70.05 64.6 -70.1 64.25 -69.25 63.65 -68.75 63.65 -66.3 63.65 -66.1 63.65 -62.8 63.65 -61.9 63.65 -61.05 Q63.25 -61.05 63.15 -61.25 L62.35 -62.25 Q61.0 -63.35 61.0 -65.8" fill="#575454" fill-rule="evenodd" stroke="#575454"/><path d="M67.1 -65.15 L67.1 -64.5 Q65.6 -62.95 66.1 -59.35 L66.2 -58.5 Q64.4 -59.25 63.65 -61.9 L63.65 -62.8 63.65 -66.1 Q63.65 -65.8 64.1 -65.25 64.5 -64.7 64.95 -64.7 L66.0 -65.05 66.1 -64.5 66.45 -63.85 67.1 -65.15 M63.65 -66.3 L63.65 -68.75 64.25 -69.25 Q63.7 -67.7 63.65 -66.3" fill="#688e92" fill-rule="evenodd" stroke="#688e92"/><path d="M60.95 -66.0 Q61.35 -68.4 62.3 -70.95 L63.75 -73.25 67.0 -75.65 Q67.65 -76.1 68.1 -76.5 L69.9 -76.7 68.8 -75.9 Q67.15 -74.7 66.55 -73.7 L66.5 -73.45 66.25 -72.9 64.95 -70.8 64.6 -70.1 64.4 -70.05 64.1 -70.25 63.8 -70.5 Q62.65 -70.5 62.1 -68.0 L61.85 -65.45 Q62.05 -65.35 61.5 -65.35 61.2 -65.35 61.0 -65.8 L60.95 -66.0" fill="#4c4d4c" fill-rule="evenodd" stroke="#4c4d4c"/><path d="M66.5 -73.45 L66.55 -73.7 Q67.15 -74.7 68.8 -75.9 L69.9 -76.7 70.25 -76.75 Q67.9 -75.55 66.5 -73.45" fill="#4c4d4c" fill-opacity="0.79607844" fill-rule="evenodd" stroke="#4c4d4c"/><path d="M73.9 -77.2 L78.55 -77.8 90.35 -78.8 91.45 -79.1 91.55 -78.8 91.6 -78.8 92.9 -78.75 95.25 -79.15 97.75 -79.4 97.9 -81.3 98.3 -82.95 99.15 -82.55 101.5 -81.35 101.75 -80.65 101.75 -80.55 Q101.75 -79.8 102.6 -79.7 L105.6 -79.7 106.85 -79.8 106.55 -79.7 Q102.35 -76.7 99.6 -72.2 L99.6 -71.35 99.6 -70.5 Q97.25 -67.25 96.45 -62.0 96.35 -61.3 93.6 -61.05 L93.6 -60.2 92.75 -60.25 67.1 -62.8 67.1 -63.65 67.1 -64.5 67.1 -65.15 67.3 -66.0 67.95 -68.55 68.05 -68.85 Q70.45 -73.15 73.7 -76.7 L73.9 -77.2 M107.55 -79.9 L109.0 -80.0 109.0 -79.9 108.15 -79.9 107.55 -79.9" fill="#5d5756" fill-rule="evenodd" stroke="#5d5756"/><path d="M64.6 -70.1 L64.95 -70.8 66.25 -72.9 66.5 -73.45 Q67.9 -75.55 70.25 -76.75 L73.9 -77.2 73.7 -76.7 Q70.45 -73.15 68.05 -68.85 L67.95 -68.55 67.3 -66.0 67.1 -65.15 66.45 -63.85 66.1 -64.5 66.0 -65.05 64.95 -64.7 Q64.5 -64.7 64.1 -65.25 63.65 -65.8 63.65 -66.1 L63.65 -66.3 Q63.7 -67.7 64.25 -69.25 L64.6 -70.1" fill="#71b1b0" fill-rule="evenodd" stroke="#71b1b0"/><path d="M71.25 -49.35 L68.3 -49.85 Q63.85 -53.35 63.65 -61.05 L63.65 -61.9 Q64.4 -59.25 66.2 -58.5 L66.1 -59.35 Q65.6 -62.95 67.1 -64.5 L67.1 -63.65 67.1 -62.8 Q66.9 -54.5 71.0 -50.5 71.85 -49.7 71.25 -49.35" fill="#608186" fill-opacity="0.9882353" fill-rule="evenodd" stroke="#608186"/><path d="M60.95 -66.0 L61.0 -65.8 Q61.0 -63.35 62.35 -62.25 L63.15 -61.25 Q63.25 -61.05 63.65 -61.05 63.85 -53.35 68.3 -49.85 L67.7 -49.95 Q67.1 -50.45 66.35 -50.65 L64.5 -52.1 64.4 -52.15 63.8 -52.95 Q60.65 -57.75 60.65 -62.7 60.65 -64.25 60.95 -66.0" fill="#383338" fill-rule="evenodd" stroke="#383338"/><path d="M104.75 -42.25 L103.9 -42.35 Q100.9 -43.35 96.55 -43.1 L96.1 -43.4 95.9 -43.75 95.55 -43.75 92.35 -44.7 92.15 -43.75 Q91.3 -41.85 90.2 -37.65 L90.2 -37.55 90.1 -37.2 90.0 -36.8 Q88.9 -32.3 88.75 -30.75 87.85 -28.05 86.9 -23.75 L85.65 -17.75 Q85.35 -17.4 85.2 -16.7 L85.2 -16.55 85.15 -16.5 85.05 -16.55 85.25 -17.6 84.4 -16.35 82.8 -14.4 81.05 -11.85 Q80.9 -11.7 80.3 -9.15 L78.65 -2.75 Q77.55 2.4 77.55 3.4 L77.55 3.65 77.15 3.65 77.15 3.45 78.5 -2.5 79.95 -10.85 82.5 -22.15 84.5 -31.45 84.9 -33.1 Q87.85 -43.75 87.85 -44.6 87.85 -46.0 86.75 -45.05 L86.75 -45.1 86.75 -45.65 85.9 -45.7 85.75 -45.7 Q83.35 -46.7 75.35 -48.5 L71.25 -49.35 Q71.85 -49.7 71.0 -50.5 66.9 -54.5 67.1 -62.8 L92.75 -60.25 93.6 -60.2 Q95.85 -60.45 97.05 -59.65 L97.85 -53.15 Q98.2 -49.2 99.4 -46.95 L99.7 -47.05 98.75 -51.0 Q97.95 -54.75 97.65 -58.4 97.65 -60.1 98.3 -57.65 L98.8 -55.55 99.6 -51.85 Q99.85 -49.2 101.15 -46.75 102.5 -44.45 104.5 -42.85 L104.75 -42.25" fill="#403a40" fill-rule="evenodd" stroke="#403a40"/><path d="M117.55 -80.6 L122.5 -80.8 Q127.15 -80.8 130.2 -77.65 L129.55 -77.3 129.55 -76.45 128.85 -76.7 Q126.2 -78.7 121.0 -78.2 L121.0 -77.3 120.2 -77.15 119.25 -76.45 119.25 -75.6 118.65 -75.4 Q115.4 -72.35 111.45 -70.05 109.45 -65.75 109.45 -59.15 L109.5 -56.6 Q109.6 -55.1 110.05 -54.0 L109.9 -53.7 109.0 -56.8 108.65 -56.1 108.6 -56.4 108.6 -56.8 108.6 -57.15 108.6 -59.2 108.6 -59.5 108.6 -60.05 Q108.6 -63.1 108.9 -64.9 109.3 -67.9 110.5 -70.3 L111.05 -71.4 113.25 -76.1 Q114.8 -78.7 117.25 -79.95 L117.35 -80.05 117.55 -80.6" fill="#6ca4a5" fill-rule="evenodd" stroke="#6ca4a5"/><path d="M109.0 -80.0 L111.15 -80.2 110.3 -79.9 109.0 -79.9 109.0 -80.0 M112.9 -80.3 L117.55 -80.6 117.35 -80.05 117.25 -79.95 Q114.8 -78.7 113.25 -76.1 L111.05 -71.4 109.5 -69.3 108.75 -68.55 107.8 -67.7 107.3 -67.15 Q106.7 -66.35 106.55 -65.55 L106.1 -63.55 105.15 -61.7 104.6 -61.7 104.75 -60.75 104.1 -60.2 103.9 -60.4 Q103.65 -60.8 103.65 -61.4 103.65 -64.05 104.75 -67.15 105.5 -69.5 106.85 -72.0 110.05 -77.9 113.8 -79.8 L113.05 -80.3 112.9 -80.3 M104.85 -63.3 L105.05 -64.0 104.65 -62.5 104.85 -63.3" fill="#5d6362" fill-opacity="0.98039216" fill-rule="evenodd" stroke="#5d6362"/><path d="M121.0 -77.3 Q126.3 -77.5 128.7 -74.75 131.9 -71.1 126.1 -73.05 123.7 -72.45 123.15 -70.35 122.75 -68.8 122.8 -67.8 123.05 -65.45 124.4 -61.05 123.4 -59.95 123.15 -57.7 L123.15 -56.85 Q123.55 -51.2 120.15 -49.95 119.35 -46.6 122.7 -47.3 L123.55 -47.35 123.4 -46.8 Q121.4 -45.65 119.25 -44.8 L119.25 -43.95 117.65 -44.2 117.2 -44.4 Q119.95 -47.95 115.85 -49.95 L115.85 -50.8 Q117.15 -50.4 118.05 -51.85 118.4 -52.5 118.05 -52.7 117.05 -53.3 118.1 -54.6 121.15 -58.3 118.05 -60.65 116.05 -62.15 115.85 -65.35 117.95 -68.4 119.25 -71.35 L119.1 -71.65 Q118.85 -72.2 119.55 -72.6 122.25 -74.35 119.25 -75.6 L119.25 -76.45 120.2 -77.15 121.0 -77.3" fill="#688d92" fill-rule="evenodd" stroke="#688d92"/><path d="M131.75 -48.35 L130.6 -46.2 Q128.1 -42.25 124.85 -42.25 L124.35 -42.3 124.2 -42.45 Q128.45 -44.65 131.65 -50.8 134.45 -56.2 134.45 -60.05 L134.35 -60.65 133.6 -62.7 133.75 -61.9 133.8 -61.05 Q131.5 -61.25 130.95 -59.45 128.65 -52.1 123.55 -47.35 L122.7 -47.3 Q119.35 -46.6 120.15 -49.95 123.55 -51.2 123.15 -56.85 L123.15 -57.7 Q123.4 -59.95 124.4 -61.05 123.05 -65.45 122.8 -67.8 122.75 -68.8 123.15 -70.35 123.7 -72.45 126.1 -73.05 131.9 -71.1 128.7 -74.75 126.3 -77.5 121.0 -77.3 L121.0 -78.2 Q126.2 -78.7 128.85 -76.7 L129.55 -76.45 133.3 -68.95 Q133.4 -68.75 133.8 -68.75 133.1 -66.5 133.5 -63.5 L133.6 -63.6 133.8 -63.65 Q134.35 -63.3 134.9 -61.8 L135.3 -60.2 135.3 -60.05 Q133.8 -52.7 131.75 -48.35" fill="#69989e" fill-rule="evenodd" stroke="#69989e"/><path d="M127.3 -42.15 L126.6 -41.7 Q123.85 -39.95 118.85 -39.95 118.05 -40.2 117.4 -40.6 L115.1 -41.9 Q114.05 -42.8 113.8 -43.45 112.4 -45.15 111.0 -48.2 108.6 -53.7 108.6 -55.7 L108.65 -56.1 109.0 -56.8 109.9 -53.7 110.05 -54.0 Q109.6 -55.1 109.5 -56.6 L109.45 -59.15 Q109.45 -65.75 111.45 -70.05 115.4 -72.35 118.65 -75.4 L119.25 -75.6 Q122.25 -74.35 119.55 -72.6 118.85 -72.2 119.1 -71.65 L119.25 -71.35 Q117.95 -68.4 115.85 -65.35 116.05 -62.15 118.05 -60.65 121.15 -58.3 118.1 -54.6 117.05 -53.3 118.05 -52.7 118.4 -52.5 118.05 -51.85 117.15 -50.4 115.85 -50.8 L115.85 -49.95 Q119.95 -47.95 117.2 -44.4 L117.65 -44.2 119.25 -43.95 Q123.2 -40.35 127.3 -42.15" fill="#66888d" fill-rule="evenodd" stroke="#66888d"/><path d="M130.2 -77.65 Q133.3 -74.5 134.65 -68.05 135.3 -65.0 135.55 -61.4 L135.55 -61.05 135.55 -60.2 135.3 -60.2 134.9 -61.8 Q134.35 -63.3 133.8 -63.65 L133.6 -63.6 133.5 -63.5 Q133.1 -66.5 133.8 -68.75 133.4 -68.75 133.3 -68.95 L129.55 -76.45 129.55 -77.3 130.2 -77.65 M133.8 -61.05 L133.75 -61.9 133.6 -62.7 134.35 -60.65 133.8 -61.05" fill="#6aa0a1" fill-rule="evenodd" stroke="#6aa0a1"/><path d="M91.45 -79.1 L91.45 -79.25 91.55 -79.25 Q92.8 -79.25 93.3 -82.85 L97.05 -83.6 97.2 -83.55 97.45 -83.75 97.65 -83.3 98.3 -82.95 97.9 -81.3 97.75 -79.4 95.25 -79.15 92.9 -78.75 91.6 -78.8 91.55 -78.8 91.45 -79.1" fill="#433d42" fill-rule="evenodd" stroke="#433d42"/><path d="M106.85 -79.8 L107.3 -79.85 107.1 -79.25 Q104.85 -77.2 103.1 -74.7 L103.0 -74.75 102.6 -74.0 102.55 -73.95 102.5 -73.85 Q101.8 -72.5 100.75 -69.55 L100.35 -68.6 100.15 -67.8 99.95 -67.05 99.8 -66.85 99.8 -66.7 99.7 -66.35 Q99.25 -65.85 99.0 -64.85 L98.5 -62.8 98.5 -60.9 99.0 -60.85 98.75 -59.45 98.65 -58.7 Q98.25 -59.4 97.5 -59.7 L97.45 -60.2 Q97.45 -63.65 99.0 -68.05 L99.6 -69.6 99.6 -70.5 99.6 -71.35 99.6 -72.2 Q102.35 -76.7 106.55 -79.7 L106.85 -79.8" fill="#626f6e" fill-opacity="0.99607843" fill-rule="evenodd" stroke="#626f6e"/><path d="M107.3 -79.85 L107.55 -79.9 108.15 -79.9 109.0 -79.9 110.3 -79.9 111.15 -80.2 112.9 -80.3 113.05 -80.3 113.8 -79.8 Q110.05 -77.9 106.85 -72.0 105.5 -69.5 104.75 -67.15 102.45 -63.85 102.05 -63.85 L101.65 -63.9 Q101.55 -64.15 101.6 -64.55 L101.3 -64.5 Q101.0 -64.5 101.1 -64.7 L100.9 -64.9 100.85 -64.9 100.65 -64.7 100.4 -64.7 100.3 -64.55 100.1 -64.2 100.1 -64.25 100.0 -64.05 100.25 -64.7 99.8 -64.75 99.8 -66.45 99.7 -66.35 99.8 -66.7 99.8 -66.85 99.95 -67.05 100.15 -67.8 100.35 -68.6 100.75 -69.55 Q101.8 -72.5 102.5 -73.85 L102.55 -73.95 102.6 -74.0 103.0 -74.75 103.1 -74.7 Q104.85 -77.2 107.1 -79.25 L107.3 -79.85" fill="#74b8b6" fill-rule="evenodd" stroke="#74b8b6"/><path d="M93.6 -60.2 L93.6 -61.05 Q96.35 -61.3 96.45 -62.0 97.25 -67.25 99.6 -70.5 L99.6 -69.6 99.0 -68.05 Q97.45 -63.65 97.45 -60.2 L97.5 -59.7 97.05 -59.8 97.05 -59.65 Q95.85 -60.45 93.6 -60.2 M98.65 -58.7 L98.75 -59.45 98.75 -58.45 98.65 -58.7" fill="#5b5d5e" fill-rule="evenodd" stroke="#5b5d5e"/><path d="M108.6 -60.05 L108.6 -59.5 108.55 -59.95 108.6 -60.05 M107.3 -65.35 L107.3 -66.2 107.3 -67.15 107.8 -67.7 108.75 -68.55 Q107.85 -66.85 107.4 -65.2 L107.3 -65.35" fill="#515053" fill-rule="evenodd" stroke="#515053"/><path d="M111.05 -71.4 L110.5 -70.3 Q109.3 -67.9 108.9 -64.9 108.6 -63.1 108.6 -60.05 L108.55 -59.95 108.15 -59.5 106.75 -59.75 106.7 -59.8 106.55 -59.75 104.75 -59.8 Q104.1 -59.25 104.1 -57.55 L104.1 -57.4 104.1 -57.2 104.1 -56.6 Q104.1 -54.15 104.65 -52.75 L104.75 -52.55 104.75 -52.5 104.3 -52.55 Q103.85 -56.35 103.85 -60.2 L103.9 -60.4 104.1 -60.2 104.75 -60.75 104.6 -61.7 105.15 -61.7 106.1 -63.55 106.55 -65.55 Q106.7 -66.35 107.3 -67.15 L107.3 -66.2 107.3 -65.35 107.3 -65.05 107.4 -65.2 Q107.85 -66.85 108.75 -68.55 L109.5 -69.3 111.05 -71.4 M104.85 -63.3 L104.65 -62.5 105.05 -64.0 104.85 -63.3" fill="#575759" fill-rule="evenodd" stroke="#575759"/><path d="M118.85 -39.95 L118.45 -39.95 111.55 -40.75 111.35 -41.1 Q105.9 -44.7 104.75 -52.5 L104.75 -52.55 104.65 -52.75 Q104.1 -54.15 104.1 -56.6 L104.1 -57.2 104.1 -57.4 104.1 -57.55 Q104.1 -59.25 104.75 -59.8 L106.55 -59.75 106.7 -59.8 106.75 -59.75 108.15 -59.5 108.55 -59.95 108.6 -59.5 108.6 -59.2 108.6 -57.15 108.6 -56.8 108.6 -56.4 108.65 -56.1 108.6 -55.7 Q108.6 -53.7 111.0 -48.2 112.4 -45.15 113.8 -43.45 114.05 -42.8 115.1 -41.9 L117.4 -40.6 Q118.05 -40.2 118.85 -39.95 M97.5 -59.7 Q98.25 -59.4 98.65 -58.7 L98.75 -58.45 98.9 -57.55 98.8 -55.55 98.3 -57.65 Q97.65 -60.1 97.65 -58.4 97.95 -54.75 98.75 -51.0 L99.7 -47.05 99.4 -46.95 Q98.2 -49.2 97.85 -53.15 L97.05 -59.65 97.05 -59.8 97.5 -59.7 M107.4 -65.2 L107.3 -65.05 107.3 -65.35 107.4 -65.2" fill="#453f44" fill-rule="evenodd" stroke="#453f44"/><path d="M99.7 -66.35 L99.8 -66.45 99.8 -64.75 100.25 -64.7 100.0 -64.05 100.1 -64.25 100.1 -64.2 100.3 -64.55 100.4 -64.7 100.65 -64.7 100.85 -64.9 100.9 -64.9 101.1 -64.7 Q101.0 -64.5 101.3 -64.5 L101.6 -64.55 Q101.55 -64.15 101.65 -63.9 L102.05 -63.85 Q102.45 -63.85 104.75 -67.15 103.65 -64.05 103.65 -61.4 103.65 -60.8 103.9 -60.4 L103.85 -60.2 103.05 -60.05 Q102.05 -59.6 99.15 -60.85 L99.0 -60.85 98.5 -60.9 98.5 -62.8 99.0 -64.85 Q99.25 -65.85 99.7 -66.35" fill="#6b9899" fill-rule="evenodd" stroke="#6b9899"/><path d="M111.55 -40.75 L110.95 -40.85 107.0 -41.45 104.75 -42.25 104.5 -42.85 Q102.5 -44.45 101.15 -46.75 99.85 -49.2 99.6 -51.85 L98.8 -55.55 98.9 -57.55 98.75 -58.45 98.75 -59.45 99.0 -60.85 99.15 -60.85 Q102.05 -59.6 103.05 -60.05 L103.85 -60.2 Q103.85 -56.35 104.3 -52.55 L104.75 -52.5 Q105.9 -44.7 111.35 -41.1 L111.55 -40.75" fill="#63858a" fill-opacity="0.9882353" fill-rule="evenodd" stroke="#63858a"/><path d="M96.1 -43.4 L95.9 -43.45 Q94.9 -43.7 94.9 -42.7 L94.9 -42.45 94.25 -40.35 93.75 -38.2 93.2 -36.05 92.05 -31.65 91.55 -29.8 91.45 -30.1 91.25 -29.6 Q90.75 -28.55 90.05 -28.55 89.6 -28.55 89.1 -29.3 L88.7 -30.25 88.75 -30.75 Q88.9 -32.3 90.0 -36.8 L90.1 -37.2 90.2 -37.55 90.2 -37.65 Q91.3 -41.85 92.15 -43.75 L92.35 -44.7 95.55 -43.75 95.9 -43.75 96.1 -43.4" fill="#555051" fill-rule="evenodd" stroke="#555051"/><path d="M91.55 -29.8 L91.05 -27.5 90.7 -25.65 Q90.05 -25.85 89.55 -26.1 L88.4 -22.3 88.05 -21.15 87.25 -18.8 86.95 -17.95 86.85 -18.0 84.6 -9.95 84.3 -9.1 80.65 4.35 80.35 4.2 79.55 4.0 79.55 3.95 Q79.95 1.65 81.9 -5.8 L82.6 -8.3 Q84.0 -13.25 85.15 -16.5 L85.2 -16.55 85.7 -17.75 85.65 -17.75 86.9 -23.75 Q87.85 -28.05 88.75 -30.75 L88.7 -30.25 89.1 -29.3 Q89.6 -28.55 90.05 -28.55 90.75 -28.55 91.25 -29.6 L91.45 -30.1 91.55 -29.8" fill="#606d70" fill-opacity="0.99607843" fill-rule="evenodd" stroke="#606d70"/><path d="M90.7 -25.65 L88.4 -15.65 Q87.4 -15.55 86.8 -15.05 L86.55 -15.3 84.6 -9.95 86.85 -18.0 86.95 -17.95 87.25 -18.8 88.05 -21.15 88.4 -22.3 89.55 -26.1 Q90.05 -25.85 90.7 -25.65 M85.65 -17.75 L85.7 -17.75 85.2 -16.55 85.2 -16.7 Q85.35 -17.4 85.65 -17.75 M86.65 -13.05 L86.95 -14.05 Q86.95 -12.95 86.35 -11.5 L86.35 -11.7 86.65 -13.05" fill="#637b7f" fill-opacity="0.99607843" fill-rule="evenodd" stroke="#637b7f"/><path d="M135.55 -60.2 L135.45 -59.35 Q134.65 -54.65 132.95 -50.8 L132.95 -50.45 131.75 -48.35 Q133.8 -52.7 135.3 -60.05 L135.3 -60.2 135.55 -60.2 M130.6 -46.2 Q129.05 -43.55 127.3 -42.15 123.2 -40.35 119.25 -43.95 L119.25 -44.8 Q121.4 -45.65 123.4 -46.8 L123.55 -47.35 Q128.65 -52.1 130.95 -59.45 131.5 -61.25 133.8 -61.05 L134.35 -60.65 134.45 -60.05 Q134.45 -56.2 131.65 -50.8 128.45 -44.65 124.2 -42.45 L124.35 -42.3 124.85 -42.25 Q128.1 -42.25 130.6 -46.2" fill="#699094" fill-rule="evenodd" stroke="#699094"/><path d="M85.05 -16.55 L84.85 -16.55 84.4 -16.35 85.25 -17.6 85.05 -16.55" fill="#504e51" fill-opacity="0.99215686" fill-rule="evenodd" stroke="#504e51"/><path d="M82.6 -8.3 Q82.35 -8.3 82.25 -8.45 82.45 -7.85 81.6 -6.5 L80.35 -4.6 80.05 -3.45 Q78.9 1.75 78.2 3.65 L78.2 3.7 77.55 3.65 77.55 3.4 Q77.55 2.4 78.65 -2.75 L80.3 -9.15 Q80.9 -11.7 81.05 -11.85 L82.8 -14.4 84.4 -16.35 84.85 -16.55 85.05 -16.55 85.15 -16.5 Q84.0 -13.25 82.6 -8.3" fill="#4d4646" fill-rule="evenodd" stroke="#4d4646"/><path d="M88.4 -15.65 L86.95 -10.35 86.2 -7.0 Q85.4 -7.2 84.65 -6.15 L84.85 -6.0 85.05 -5.7 84.0 -1.3 Q82.8 3.0 81.9 4.3 L81.6 4.7 80.65 4.35 84.3 -9.1 84.6 -9.95 86.55 -15.3 86.8 -15.05 Q87.4 -15.55 88.4 -15.65 M86.65 -13.05 L86.35 -11.7 86.35 -11.5 Q86.95 -12.95 86.95 -14.05 L86.65 -13.05" fill="#6b999c" fill-rule="evenodd" stroke="#6b999c"/><path d="M86.2 -7.0 L85.0 -1.35 84.0 -1.3 85.05 -5.7 84.85 -6.0 84.65 -6.15 Q85.4 -7.2 86.2 -7.0" fill="#6c9ea0" fill-opacity="0.99607843" fill-rule="evenodd" stroke="#6c9ea0"/><path d="M78.2 3.7 L78.2 3.65 Q78.9 1.75 80.05 -3.45 L80.35 -4.6 81.6 -6.5 Q82.45 -7.85 82.25 -8.45 82.35 -8.3 82.6 -8.3 L81.9 -5.8 Q79.95 1.65 79.55 3.95 L79.5 3.95 78.2 3.7" fill="#5b5655" fill-rule="evenodd" stroke="#5b5655"/><path d="M83.65 5.8 L84.3 6.4 Q83.2 5.45 81.35 5.05 78.95 4.45 78.65 5.55 L78.75 5.7 77.85 5.8 78.05 6.75 77.85 6.75 77.0 6.9 76.9 6.9 Q76.55 9.3 76.05 10.25 L76.05 11.95 76.35 12.1 76.55 12.1 76.45 12.2 76.5 12.5 76.35 13.1 76.3 13.4 76.3 13.5 75.9 14.25 Q75.5 14.6 75.65 15.1 75.7 15.3 75.2 15.3 L75.1 15.3 Q74.8 15.15 74.55 14.3 L74.35 13.25 Q74.35 12.3 75.4 12.0 75.4 10.6 75.7 9.2 75.95 7.85 76.35 6.95 75.85 6.9 75.4 6.05 L75.0 5.3 Q75.0 4.2 75.95 4.5 76.15 3.75 77.15 3.65 L77.55 3.65 78.2 3.7 79.5 3.95 79.55 3.95 79.55 4.0 80.35 4.2 80.65 4.35 81.6 4.7 82.4 5.05 83.65 5.8 M84.8 7.25 L84.85 7.75 84.85 8.05 84.7 8.2 84.3 8.25 Q84.0 8.25 83.3 7.7 L82.9 7.35 82.55 6.95 82.05 6.5 81.5 6.1 83.0 6.55 84.3 7.4 84.75 7.25 84.8 7.25 M81.0 7.4 L80.65 8.85 80.35 9.75 79.65 11.95 79.5 11.95 79.9 10.8 80.15 8.65 Q80.15 7.45 79.7 7.1 L79.25 6.85 Q80.05 6.1 80.45 6.1 81.0 6.1 80.9 6.3 L81.0 7.05 81.0 7.4" fill="#5c6c6e" fill-rule="evenodd" stroke="#5c6c6e"/><path d="M78.05 6.75 L79.25 6.85 79.7 7.1 Q80.15 7.45 80.15 8.65 L79.9 10.8 79.5 11.95 78.2 11.9 77.85 12.2 76.55 12.1 76.35 12.1 76.05 11.95 76.05 10.25 Q76.55 9.3 76.9 6.9 L77.0 6.9 77.85 6.75 78.05 6.75 M76.35 13.1 L76.5 13.4 76.55 13.6 76.3 13.4 76.35 13.1 M76.6 14.8 L76.7 14.85 76.9 15.3 76.65 16.8 76.5 17.85 76.4 18.3 76.8 18.8 77.15 19.4 74.8 19.65 75.8 17.25 76.6 14.8" fill="#5a5251" fill-rule="evenodd" stroke="#5a5251"/><path d="M81.6 4.7 L81.9 4.3 82.3 4.9 82.4 5.05 81.6 4.7 M81.5 6.1 L82.05 6.5 81.6 6.55 81.6 7.4 81.0 7.4 81.0 7.05 80.9 6.3 Q81.0 6.1 80.45 6.1 80.05 6.1 79.25 6.85 L78.05 6.75 77.85 5.8 78.75 5.7 79.25 6.1 81.5 6.1 M80.65 8.85 Q80.45 11.55 81.95 12.6 81.0 12.15 79.65 11.95 L80.35 9.75 80.65 8.85 M76.55 12.1 L77.85 12.2 77.75 12.75 79.7 13.4 79.05 13.4 78.2 13.4 76.5 13.4 76.35 13.1 76.5 12.5 76.45 12.2 76.55 12.1" fill="#5b6d6f" fill-rule="evenodd" stroke="#5b6d6f"/><path d="M84.3 6.4 L84.85 6.95 84.8 7.25 84.75 7.25 84.3 7.4 83.0 6.55 81.5 6.1 79.25 6.1 78.75 5.7 78.65 5.55 Q78.95 4.45 81.35 5.05 83.2 5.45 84.3 6.4 M82.35 12.85 Q83.35 13.4 83.35 14.05 83.35 14.85 82.35 14.85 L82.0 14.85 81.7 14.85 81.6 14.6 81.6 14.45 Q81.6 14.15 81.85 14.0 L82.15 14.0 82.2 14.0 82.15 13.95 80.55 13.5 79.9 13.4 79.7 13.4 77.75 12.75 77.85 12.2 78.2 11.9 79.5 11.95 79.65 11.95 Q81.0 12.15 81.95 12.6 L82.2 12.75 82.35 12.85 M80.1 14.3 L80.5 15.35 80.55 16.65 80.15 20.45 80.05 20.5 79.7 20.65 79.25 19.9 79.2 19.8 79.2 19.9 79.15 19.9 78.7 20.0 78.35 19.95 78.2 19.9 78.2 19.6 78.2 19.55 78.65 17.4 78.7 16.95 Q79.3 14.6 79.9 14.0 L80.1 14.3" fill="#72afad" fill-rule="evenodd" stroke="#72afad"/><path d="M82.05 6.5 L82.55 6.95 82.9 7.35 81.6 7.4 81.6 6.55 82.05 6.5" fill="#4b6262" fill-rule="evenodd" stroke="#4b6262"/><path d="M83.3 7.7 L82.35 12.85 82.2 12.75 81.95 12.6 Q80.45 11.55 80.65 8.85 L81.0 7.4 81.6 7.4 82.9 7.35 83.3 7.7 M84.3 9.2 L84.4 9.55 83.75 12.55 84.3 9.2" fill="#77bdba" fill-opacity="0.99607843" fill-rule="evenodd" stroke="#77bdba"/><path d="M85.0 -1.35 L83.65 5.8 82.4 5.05 82.3 4.9 81.9 4.3 Q82.8 3.0 84.0 -1.3 L85.0 -1.35" fill="#75b8b7" fill-opacity="0.99607843" fill-rule="evenodd" stroke="#75b8b7"/><path d="M81.6 14.6 L80.1 14.3 79.9 13.85 79.9 13.4 80.55 13.5 82.15 13.95 82.15 14.0 81.85 14.0 Q81.6 14.15 81.6 14.45 L81.6 14.6" fill="#555855" fill-rule="evenodd" stroke="#555855"/><path d="M79.9 13.4 L79.9 13.85 79.7 13.6 Q79.25 14.0 78.85 16.15 L78.7 16.95 78.65 17.4 78.2 19.55 78.2 19.6 78.1 19.55 77.15 19.4 76.8 18.8 76.5 17.85 76.65 16.8 76.9 15.3 76.7 14.85 76.6 14.8 76.7 14.25 78.95 13.85 79.05 13.4 79.7 13.4 79.9 13.4 M79.2 19.9 L79.2 19.8 79.25 19.9 79.2 19.9" fill="#5b5353" fill-opacity="0.99607843" fill-rule="evenodd" stroke="#5b5353"/><path d="M74.4 20.2 L74.35 20.2 74.0 20.15 73.9 19.65 Q73.9 18.95 74.6 16.65 L75.1 15.3 75.2 15.3 Q75.7 15.3 75.65 15.1 75.5 14.6 75.9 14.25 L76.3 13.5 76.3 13.4 76.55 13.6 76.6 13.65 76.7 14.15 76.7 14.25 76.6 14.8 75.8 17.25 74.8 19.65 74.15 19.95 74.4 20.2 M79.9 13.85 L80.1 14.3 79.9 14.0 Q79.3 14.6 78.7 16.95 L78.85 16.15 Q79.25 14.0 79.7 13.6 L79.9 13.85" fill="#525253" fill-rule="evenodd" stroke="#525253"/><path d="M80.9 22.15 L80.85 22.45 78.35 21.95 79.9 21.7 80.05 21.7 Q80.25 22.1 80.9 22.15 M76.5 13.4 L78.2 13.4 79.05 13.4 78.95 13.85 76.7 14.25 76.7 14.15 76.6 13.65 76.55 13.6 76.5 13.4 M76.5 17.85 L76.8 18.8 76.4 18.3 76.5 17.85" fill="#453f42" fill-opacity="0.8901961" fill-rule="evenodd" stroke="#453f42"/><path d="M78.35 21.95 L78.05 21.95 Q75.25 20.9 74.4 20.2 L74.15 19.95 74.8 19.65 77.15 19.4 78.1 19.55 78.2 19.6 78.2 19.9 78.35 19.95 78.7 20.0 79.15 19.9 79.2 19.9 79.25 19.9 79.7 20.65 80.05 20.5 80.35 21.25 80.2 21.7 80.05 21.7 79.9 21.7 78.35 21.95" fill="#494142" fill-rule="evenodd" stroke="#494142"/><path d="M82.0 14.85 L80.9 22.15 Q80.25 22.1 80.05 21.7 L80.2 21.7 80.35 21.25 80.05 20.5 80.15 20.45 80.55 16.65 80.5 15.35 80.1 14.3 81.6 14.6 81.7 14.85 82.0 14.85" fill="#70a8a6" fill-rule="evenodd" stroke="#70a8a6"/>  </g></svg>