<?xml version="1.0" encoding="UTF-8" standalone="no"?><svg xmlns:xlink="http://www.w3.org/1999/xlink" height="56.35px" width="29.95px" xmlns="http://www.w3.org/2000/svg">  <g transform="matrix(1, 0, 0, 1, 5.3, 36.95)"><path d="M13.4 19.4 L13.15 19.4 Q11.75 19.4 7.0 14.25 L2.55 9.1 Q1.55 9.1 1.3 10.2 L1.4 10.6 0.4 13.4 0.4 13.45 0.4 13.95 -0.95 11.45 -1.7 7.45 Q-2.2 4.85 -3.1 3.4 -5.15 0.3 -5.3 -4.1 -5.15 -14.4 -3.3 -24.55 L-3.35 -26.15 -3.1 -28.4 -3.5 -30.1 -3.6 -33.7 -3.55 -34.2 -3.6 -34.4 -3.5 -34.7 Q-3.25 -36.35 -1.9 -36.8 -0.4 -37.3 1.8 -36.0 6.7 -33.1 7.15 -28.1 L7.95 -25.0 Q8.35 -22.75 8.65 -14.5 10.3 -6.05 15.85 0.4 L19.4 4.15 20.55 5.35 Q21.1 5.55 22.15 6.7 23.4 8.05 24.65 10.05 24.65 10.85 23.75 10.85 L23.0 10.6 23.4 10.65 24.25 10.5 24.4 10.0 22.35 7.85 Q21.5 7.1 20.4 7.4 L20.45 7.3 20.8 6.1 20.7 5.65 20.45 5.5 Q19.4 5.2 18.9 5.85 18.8 4.55 17.2 3.15 L16.9 2.9 14.65 -0.6 11.15 -5.5 Q9.5 -9.85 7.7 -13.0 L7.55 -13.3 Q6.9 -16.9 6.9 -19.15 6.9 -23.45 5.5 -27.1 L4.35 -29.3 Q3.7 -30.85 1.8 -31.65 -0.65 -32.6 -1.0 -31.2 L-1.1 -30.85 -1.3 -28.8 -1.05 -27.5 -0.8 -26.2 Q-0.8 -21.1 -2.05 -13.8 L-3.3 -5.5 Q-3.3 -3.35 -2.7 -1.05 L-2.3 0.3 -1.95 1.65 -2.05 1.95 -1.75 3.45 Q-1.55 4.45 -0.6 5.1 L-0.55 5.1 0.1 5.55 Q2.6 6.7 4.3 8.25 4.75 8.65 5.4 10.75 L6.05 11.55 5.95 12.15 Q5.95 12.75 6.95 13.4 7.95 14.1 9.55 14.25 8.7 14.65 8.7 15.1 L8.8 15.55 8.9 15.65 9.65 15.95 11.75 15.1 Q12.3 14.9 12.3 14.35 L12.25 13.9 12.15 13.75 11.9 13.75 14.25 12.05 14.9 12.7 Q17.45 11.15 17.45 10.6 L17.4 10.15 17.3 9.95 16.65 9.85 16.3 9.9 18.45 7.2 18.4 7.85 Q18.4 8.45 19.15 9.1 L19.65 8.9 20.3 7.6 20.3 7.8 21.15 9.25 22.25 10.3 21.85 10.1 20.05 9.15 19.0 10.65 18.35 11.9 20.55 14.75 Q20.55 15.5 19.9 15.5 L17.65 14.45 Q15.65 13.4 14.95 13.4 L12.7 15.0 Q12.7 15.5 13.25 17.25 L14.15 18.55 14.1 18.9 12.65 16.75 Q11.7 15.3 10.65 15.65 L10.6 15.6 10.55 16.05 Q10.55 16.35 11.65 17.8 12.8 19.25 13.4 19.4 M1.65 8.65 Q1.5 7.5 0.05 7.45 -1.35 7.4 -1.35 8.25 L-1.15 8.85 Q-0.75 9.35 0.25 9.35 0.85 9.35 1.65 8.65 M20.15 14.9 L20.15 14.5 Q18.45 12.1 16.65 12.15 L16.55 12.6 17.65 13.85 Q18.85 15.05 19.65 15.2 L20.15 14.9 M0.15 13.1 L0.65 12.6 0.5 11.0 Q0.4 9.95 -0.1 9.65 -0.6 9.9 -0.6 11.55 L-0.55 12.3 Q-0.4 12.8 0.15 13.1" fill="#402b2a" fill-opacity="0.9882353" fill-rule="evenodd" stroke="#402b2a"/><path d="M20.3 7.6 L19.65 8.9 19.15 9.1 Q18.4 8.45 18.4 7.85 L18.45 7.2 18.9 6.0 18.9 5.85 Q19.4 5.2 20.45 5.5 L20.7 5.65 20.8 6.1 20.45 7.3 20.4 7.4 20.3 7.6 M16.3 9.9 L16.65 9.85 17.3 9.95 17.4 10.15 17.45 10.6 Q17.45 11.15 14.9 12.7 L14.25 12.05 15.65 10.6 16.3 9.9 M11.9 13.75 L12.15 13.75 12.25 13.9 12.3 14.35 Q12.3 14.9 11.75 15.1 L9.65 15.95 8.9 15.65 8.8 15.55 8.7 15.1 Q8.7 14.65 9.55 14.25 L10.15 14.25 Q10.9 14.25 11.9 13.75 M6.05 11.55 L5.4 10.75 Q4.75 8.65 4.3 8.25 2.6 6.7 0.1 5.55 L-0.55 5.1 -0.1 4.65 -0.65 2.95 -0.65 2.85 -0.6 2.35 -1.2 -0.05 Q-1.8 -2.55 -1.8 -4.05 L-0.6 -9.5 Q1.0 -14.9 3.05 -14.9 4.65 -14.9 5.35 -13.75 L5.75 -13.2 Q6.2 -11.7 7.6 -8.45 L9.65 -3.9 Q11.3 -0.75 16.65 5.75 12.3 12.1 9.95 12.1 L8.0 11.65 Q7.25 11.2 6.9 11.2 L6.25 11.35 6.05 11.5 6.05 11.55 M1.65 8.65 Q0.85 9.35 0.25 9.35 -0.75 9.35 -1.15 8.85 L-1.35 8.25 Q-1.35 7.4 0.05 7.45 1.5 7.5 1.65 8.65" fill="#a27666" fill-rule="evenodd" stroke="#a27666"/><path d="M18.45 7.2 L16.3 9.9 15.65 10.6 14.25 12.05 11.9 13.75 Q10.9 14.25 10.15 14.25 L9.55 14.25 Q7.95 14.1 6.95 13.4 5.95 12.75 5.95 12.15 L6.05 11.55 6.05 11.5 6.25 11.35 6.9 11.2 Q7.25 11.2 8.0 11.65 L9.95 12.1 Q12.3 12.1 16.65 5.75 11.3 -0.75 9.65 -3.9 L7.6 -8.45 Q6.2 -11.7 5.75 -13.2 L5.35 -13.75 Q4.65 -14.9 3.05 -14.9 1.0 -14.9 -0.6 -9.5 L-1.8 -4.05 Q-1.8 -2.55 -1.2 -0.05 L-0.6 2.35 -0.65 2.85 -0.65 2.95 -0.1 4.65 -0.55 5.1 -0.6 5.1 Q-1.55 4.45 -1.75 3.45 L-2.05 1.95 -1.95 1.65 -2.3 0.3 -2.7 -1.05 Q-3.3 -3.35 -3.3 -5.5 L-2.05 -13.8 Q-0.8 -21.1 -0.8 -26.2 L-1.05 -27.5 -1.3 -28.8 -1.1 -30.85 -1.0 -31.2 Q-0.65 -32.6 1.8 -31.65 3.7 -30.85 4.35 -29.3 L5.5 -27.1 Q6.9 -23.45 6.9 -19.15 6.9 -16.9 7.55 -13.3 L7.7 -13.0 Q9.5 -9.85 11.15 -5.5 L14.65 -0.6 16.9 2.9 17.2 3.15 Q18.8 4.55 18.9 5.85 L18.9 6.0 18.45 7.2" fill="#75504a" fill-rule="evenodd" stroke="#75504a"/><path d="M13.4 19.4 Q12.8 19.25 11.65 17.8 10.55 16.35 10.55 16.05 L10.6 15.6 10.65 15.65 Q11.7 15.3 12.65 16.75 L14.1 18.9 14.15 18.95 14.0 19.25 13.5 19.4 13.4 19.4 M22.25 10.3 L21.15 9.25 20.3 7.8 20.3 7.6 20.4 7.4 Q21.5 7.1 22.35 7.85 L24.4 10.0 24.25 10.5 23.4 10.65 23.0 10.6 22.25 10.3 M0.15 13.1 Q-0.4 12.8 -0.55 12.3 L-0.6 11.55 Q-0.6 9.9 -0.1 9.65 0.4 9.95 0.5 11.0 L0.65 12.6 0.15 13.1 M20.15 14.9 L19.65 15.2 Q18.85 15.05 17.65 13.85 L16.55 12.6 16.65 12.15 Q18.45 12.1 20.15 14.5 L20.15 14.9" fill="#d1aca6" fill-opacity="0.9882353" fill-rule="evenodd" stroke="#d1aca6"/>  </g></svg>