<?xml version="1.0" encoding="UTF-8" standalone="no"?><svg xmlns:xlink="http://www.w3.org/1999/xlink" height="44.1px" width="22.05px" xmlns="http://www.w3.org/2000/svg">  <g transform="matrix(1, 0, 0, 1, 23.8, 34.75)"><path d="M-17.4 -1.25 L-17.4 -1.2 -18.75 1.2 -18.65 2.15 -16.85 2.55 -16.0 2.95 -14.25 1.85 -13.95 1.4 -13.25 1.65 -11.15 2.9 Q-9.35 3.95 -8.5 3.95 -7.6 3.95 -7.45 3.25 L-7.2 3.0 -7.0 3.25 -6.5 3.15 -6.3 2.45 Q-4.95 0.15 -3.85 -6.05 -2.75 -12.2 -2.75 -16.55 L-2.85 -18.3 Q-3.3 -22.55 -5.95 -26.4 -7.3 -28.3 -8.2 -28.25 -9.2 -28.15 -9.2 -25.5 L-9.1 -24.45 -8.9 -21.0 Q-8.9 -20.4 -11.0 -14.1 L-12.0 -11.4 -15.5 -7.2 -15.4 -6.75 -15.35 -6.7 -15.45 -6.5 -15.4 -6.25 Q-16.55 -5.6 -17.75 -4.15 L-17.75 -4.1 Q-18.5 -4.2 -18.5 -3.3 L-18.45 -2.5 -18.05 -2.3 -17.95 -2.25 -17.4 -1.25 M-7.4 2.75 L-7.45 2.85 -7.45 2.65 -7.4 2.75 M-10.55 -2.4 L-12.4 -3.1 -13.55 -3.3 Q-12.35 -3.4 -11.15 -2.75 L-10.55 -2.4 M-21.8 3.35 L-22.15 2.4 -22.15 1.5 -22.75 1.65 -23.8 1.4 Q-23.6 0.8 -22.6 -0.05 L-22.25 -0.3 -21.7 -0.75 Q-20.75 -1.5 -20.05 -1.85 L-20.35 -2.55 -19.9 -3.45 -19.55 -3.7 Q-19.3 -4.8 -18.25 -5.6 L-15.5 -7.3 Q-14.95 -8.5 -14.75 -9.3 L-13.7 -14.7 Q-12.9 -19.4 -12.9 -20.8 L-12.65 -22.05 -13.0 -24.85 -13.45 -28.8 -14.0 -33.3 Q-14.0 -35.15 -11.95 -34.6 -9.8 -34.0 -7.45 -31.15 -5.05 -28.0 -3.9 -25.5 -3.2 -24.1 -2.45 -19.3 L-2.15 -17.65 -1.75 -14.3 -1.75 -13.75 -1.75 -13.45 Q-2.15 -7.95 -3.25 -2.55 -5.45 8.3 -8.95 8.3 L-9.3 8.25 -10.65 8.55 -12.9 8.3 -13.4 8.8 -14.15 9.2 -14.25 9.35 -14.45 9.3 -15.25 9.35 Q-16.9 9.35 -17.4 8.95 L-17.6 8.75 Q-18.35 8.4 -18.7 7.35 L-18.65 7.05 -19.4 7.15 Q-20.7 7.15 -21.05 6.3 L-21.05 6.2 Q-20.2 6.9 -19.25 6.9 -18.15 6.9 -18.15 5.9 L-18.25 5.4 -18.5 5.3 -18.8 5.6 -19.35 5.9 -21.15 5.65 -21.15 5.05 -20.5 5.3 Q-19.9 5.3 -20.0 4.9 L-20.0 4.8 -19.35 5.2 -19.15 5.35 -19.0 5.25 -18.95 4.7 Q-18.95 4.25 -19.25 3.6 L-20.5 2.75 Q-20.75 2.1 -21.25 1.75 -21.85 2.0 -21.85 2.8 L-21.8 3.35 M-18.3 -1.15 L-18.3 -1.1 -18.25 -1.1 -18.3 -1.15 M-19.5 -0.35 L-19.0 -1.0 -19.45 -1.45 -21.85 0.5 -21.7 0.55 -19.5 -0.35 M-11.8 6.35 Q-12.45 6.7 -13.0 7.15 -12.7 7.25 -12.45 7.7 L-10.65 8.0 Q-9.95 8.0 -9.2 7.25 -8.5 6.55 -8.5 6.0 L-8.6 5.55 -8.75 5.35 -10.55 5.9 -10.65 5.7 -10.6 5.6 -10.5 5.6 Q-9.9 5.6 -10.0 5.35 L-9.95 4.85 Q-9.95 3.95 -12.35 2.8 -14.75 1.65 -14.9 3.15 L-14.45 3.55 -14.5 3.85 Q-14.5 4.4 -13.15 5.5 L-11.8 6.35 M-15.0 6.8 L-15.1 6.6 -15.0 6.55 -14.9 5.7 Q-15.3 4.95 -16.65 3.9 -18.2 2.7 -19.0 2.95 L-18.65 3.8 -18.65 3.85 -17.65 5.7 -16.7 7.15 -16.85 7.05 -17.5 6.65 -18.25 6.85 -18.25 7.4 -17.3 8.25 Q-16.7 8.6 -15.9 8.6 -13.65 8.6 -13.65 7.15 L-13.7 6.65 -13.95 6.4 Q-14.5 6.3 -15.0 6.75 L-15.0 6.8 M-20.3 1.2 L-20.0 0.75 -20.4 0.7 -20.55 0.75 -20.75 0.85 -20.3 1.2" fill="#402b2a" fill-opacity="0.9882353" fill-rule="evenodd" stroke="#402b2a"/><path d="M-15.4 -6.25 L-15.45 -6.5 -15.35 -6.7 -15.4 -6.75 -15.5 -7.2 -12.0 -11.4 -11.0 -14.1 Q-8.9 -20.4 -8.9 -21.0 L-9.1 -24.45 -9.2 -25.5 Q-9.2 -28.15 -8.2 -28.25 -7.3 -28.3 -5.95 -26.4 -3.3 -22.55 -2.85 -18.3 L-2.75 -16.55 Q-2.75 -12.2 -3.85 -6.05 -4.95 0.15 -6.3 2.45 L-6.5 3.15 -7.0 3.25 -7.2 3.0 -7.45 3.25 Q-7.6 3.95 -8.5 3.95 -9.35 3.95 -11.15 2.9 L-13.25 1.65 -13.95 1.4 -14.25 1.85 -16.0 2.95 -16.85 2.55 -18.65 2.15 -18.75 1.2 -17.4 -1.2 -17.4 -1.25 Q-17.35 -2.55 -15.85 -3.1 L-13.55 -3.3 -12.4 -3.1 -10.55 -2.4 Q-7.6 -0.85 -7.45 2.65 L-7.45 2.85 -7.4 2.75 Q-5.95 -0.55 -5.15 -5.05 -4.4 -9.45 -4.4 -13.8 -4.4 -14.1 -4.75 -14.6 L-5.25 -15.05 Q-6.6 -15.05 -7.95 -14.35 -9.9 -12.9 -11.25 -10.6 -13.15 -7.35 -15.2 -6.1 L-15.3 -6.05 -15.4 -6.25" fill="#75504a" fill-rule="evenodd" stroke="#75504a"/><path d="M-17.4 -1.25 L-17.95 -2.25 -18.05 -2.3 -18.45 -2.5 -18.5 -3.3 Q-18.5 -4.2 -17.75 -4.1 L-17.75 -4.15 Q-16.55 -5.6 -15.4 -6.25 L-15.3 -6.05 -15.2 -6.1 Q-13.15 -7.35 -11.25 -10.6 -9.9 -12.9 -7.95 -14.35 -6.6 -15.05 -5.25 -15.05 L-4.75 -14.6 Q-4.4 -14.1 -4.4 -13.8 -4.4 -9.45 -5.15 -5.05 -5.95 -0.55 -7.4 2.75 L-7.45 2.65 Q-7.6 -0.85 -10.55 -2.4 L-11.15 -2.75 Q-12.35 -3.4 -13.55 -3.3 L-15.85 -3.1 Q-17.35 -2.55 -17.4 -1.25 M-21.05 6.2 L-21.15 6.15 -21.15 5.65 -19.35 5.9 -18.8 5.6 -18.5 5.3 -18.25 5.4 -18.15 5.9 Q-18.15 6.9 -19.25 6.9 -20.2 6.9 -21.05 6.2 M-18.3 -1.15 L-18.25 -1.1 -18.3 -1.1 -18.3 -1.15 M-10.55 5.9 L-8.75 5.35 -8.6 5.55 -8.5 6.0 Q-8.5 6.55 -9.2 7.25 -9.95 8.0 -10.65 8.0 L-12.45 7.7 Q-12.7 7.25 -13.0 7.15 -12.45 6.7 -11.8 6.35 L-11.15 6.05 -11.0 6.05 -10.9 6.0 -10.55 5.9 M-15.0 6.8 L-15.0 6.75 Q-14.5 6.3 -13.95 6.4 L-13.7 6.65 -13.65 7.15 Q-13.65 8.6 -15.9 8.6 -16.7 8.6 -17.3 8.25 L-18.25 7.4 -18.25 6.85 -17.5 6.65 -16.85 7.05 -16.7 7.15 -16.05 7.25 -15.25 7.0 -15.0 6.8" fill="#a27666" fill-rule="evenodd" stroke="#a27666"/><path d="M-21.15 5.05 Q-21.6 4.6 -21.8 3.35 L-21.85 2.8 Q-21.85 2.0 -21.25 1.75 -20.75 2.1 -20.5 2.75 L-19.25 3.6 Q-18.95 4.25 -18.95 4.7 L-19.0 5.25 -19.15 5.35 -19.35 5.2 -20.0 4.8 -20.0 4.9 Q-19.9 5.3 -20.5 5.3 L-21.15 5.05 M-19.5 -0.35 L-21.7 0.55 -21.85 0.5 -19.45 -1.45 -19.0 -1.0 -19.5 -0.35 M-11.8 6.35 L-13.15 5.5 Q-14.5 4.4 -14.5 3.85 L-14.45 3.55 -14.9 3.15 Q-14.75 1.65 -12.35 2.8 -9.95 3.95 -9.95 4.85 L-10.0 5.35 Q-9.9 5.6 -10.5 5.6 L-10.6 5.6 -10.65 5.7 -10.55 5.9 -10.9 6.0 -11.0 6.05 -11.15 6.05 -11.8 6.35 M-16.7 7.15 L-17.65 5.7 -18.65 3.85 -18.65 3.8 -19.0 2.95 Q-18.2 2.7 -16.65 3.9 -15.3 4.95 -14.9 5.7 L-15.0 6.55 -15.1 6.6 -15.0 6.8 -15.25 7.0 -16.05 7.25 -16.7 7.15" fill="#d1aca6" fill-opacity="0.9882353" fill-rule="evenodd" stroke="#d1aca6"/>  </g></svg>