<?xml version="1.0" encoding="UTF-8" standalone="no"?><svg xmlns:xlink="http://www.w3.org/1999/xlink" height="44.1px" width="22.05px" xmlns="http://www.w3.org/2000/svg">  <g transform="matrix(1, 0, 0, 1, 22.55, 42.15)"><path d="M-20.55 -4.05 L-20.9 -5.0 -20.9 -5.9 -21.5 -5.75 -22.55 -6.0 -21.35 -7.45 -21.0 -7.7 -20.45 -8.15 -18.8 -9.25 -19.1 -9.95 -18.65 -10.85 -18.3 -11.1 Q-18.05 -12.2 -17.0 -13.0 L-14.25 -14.7 -13.5 -16.7 -12.45 -22.1 Q-11.65 -26.8 -11.65 -28.2 L-11.4 -29.45 -11.75 -32.25 -12.2 -36.2 -12.75 -40.7 Q-12.75 -42.55 -10.7 -42.0 -8.55 -41.4 -6.2 -38.55 -3.8 -35.4 -2.65 -32.9 -1.95 -31.5 -1.2 -26.7 L-0.9 -25.05 -0.5 -21.7 -0.5 -21.15 -0.5 -20.85 Q-0.9 -15.35 -2.0 -9.95 -4.2 0.9 -7.7 0.9 L-8.05 0.85 -9.4 1.15 -11.65 0.9 -12.15 1.4 -12.9 1.8 -13.0 1.95 -13.2 1.9 -14.0 1.95 Q-15.65 1.95 -16.15 1.55 L-16.35 1.35 Q-17.1 1.0 -17.45 -0.05 L-17.4 -0.35 -18.15 -0.25 Q-19.45 -0.25 -19.8 -1.1 L-19.8 -1.2 Q-18.95 -0.5 -18.0 -0.5 -16.9 -0.5 -16.9 -1.5 L-17.0 -2.0 -17.25 -2.1 -17.55 -1.8 Q-17.75 -1.5 -18.1 -1.5 L-19.9 -1.75 -19.9 -2.35 -19.25 -2.1 Q-18.65 -2.1 -18.75 -2.5 L-18.75 -2.6 -18.1 -2.2 -17.9 -2.05 -17.75 -2.15 -17.7 -2.7 Q-17.7 -3.15 -18.0 -3.8 L-19.25 -4.65 -20.0 -5.65 Q-20.6 -5.4 -20.6 -4.6 L-20.55 -4.05 M-16.15 -8.65 L-16.15 -8.6 -17.5 -6.2 -17.4 -5.25 -15.6 -4.85 -14.75 -4.45 -13.0 -5.55 -12.7 -6.0 -12.0 -5.75 -9.9 -4.5 Q-8.1 -3.45 -7.25 -3.45 -6.35 -3.45 -6.2 -4.15 L-5.95 -4.4 -5.75 -4.15 -5.25 -4.25 -5.05 -4.95 Q-3.7 -7.25 -2.6 -13.45 -1.5 -19.6 -1.5 -23.95 L-1.6 -25.7 Q-2.05 -29.95 -4.7 -33.8 -6.05 -35.7 -6.95 -35.65 -7.95 -35.55 -7.95 -32.9 L-7.85 -31.85 -7.65 -28.4 Q-7.65 -27.8 -9.75 -21.5 L-10.75 -18.8 -14.25 -14.6 -14.15 -14.15 -14.1 -14.1 -14.2 -13.9 -14.15 -13.65 Q-15.3 -13.0 -16.5 -11.55 L-16.5 -11.5 Q-17.25 -11.6 -17.25 -10.7 L-17.2 -9.9 -16.8 -9.7 -16.7 -9.65 -16.15 -8.65 M-6.15 -4.65 L-6.2 -4.55 -6.2 -4.75 -6.15 -4.65 M-9.3 -9.8 L-11.15 -10.5 -12.3 -10.7 Q-11.1 -10.8 -9.9 -10.15 L-9.3 -9.8 M-20.6 -6.9 L-20.45 -6.85 -18.25 -7.75 -17.75 -8.4 -18.2 -8.85 -20.6 -6.9 M-19.15 -6.7 L-19.3 -6.65 -19.5 -6.55 -19.05 -6.2 -18.75 -6.65 -19.15 -6.7 M-17.05 -8.55 L-17.05 -8.5 -17.0 -8.5 -17.05 -8.55 M-13.75 -0.6 L-13.85 -0.8 -13.75 -0.85 -13.65 -1.7 Q-14.05 -2.45 -15.4 -3.5 -16.95 -4.7 -17.75 -4.45 L-17.4 -3.6 -17.4 -3.55 -16.4 -1.7 -15.45 -0.25 -15.6 -0.35 -16.25 -0.75 -17.0 -0.55 -17.0 0.0 -16.05 0.85 -14.65 1.2 Q-12.4 1.2 -12.4 -0.25 L-12.45 -0.75 -12.7 -1.0 Q-13.25 -1.1 -13.75 -0.65 L-13.75 -0.6 M-9.3 -1.5 L-9.4 -1.7 -9.35 -1.8 -9.25 -1.8 Q-8.65 -1.8 -8.75 -2.05 L-8.7 -2.55 Q-8.7 -3.45 -11.1 -4.6 -13.5 -5.75 -13.65 -4.25 L-13.2 -3.85 -13.25 -3.55 Q-13.25 -3.0 -11.9 -1.9 L-10.55 -1.05 -11.75 -0.25 -11.2 0.3 -9.4 0.6 Q-8.7 0.6 -7.95 -0.15 -7.25 -0.85 -7.25 -1.4 L-7.35 -1.85 -7.5 -2.05 -9.3 -1.5" fill="#402b2a" fill-opacity="0.9882353" fill-rule="evenodd" stroke="#402b2a"/><path d="M-14.15 -13.65 L-14.2 -13.9 -14.1 -14.1 -14.15 -14.15 -14.25 -14.6 -10.75 -18.8 -9.75 -21.5 Q-7.65 -27.8 -7.65 -28.4 L-7.85 -31.85 -7.95 -32.9 Q-7.95 -35.55 -6.95 -35.65 -6.05 -35.7 -4.7 -33.8 -2.05 -29.95 -1.6 -25.7 L-1.5 -23.95 Q-1.5 -19.6 -2.6 -13.45 -3.7 -7.25 -5.05 -4.95 L-5.25 -4.25 -5.75 -4.15 -5.95 -4.4 -6.2 -4.15 Q-6.35 -3.45 -7.25 -3.45 -8.1 -3.45 -9.9 -4.5 L-12.0 -5.75 -12.7 -6.0 -13.0 -5.55 -14.75 -4.45 -15.6 -4.85 -17.4 -5.25 -17.5 -6.2 -16.15 -8.6 -16.15 -8.65 Q-16.1 -9.95 -14.6 -10.5 L-12.3 -10.7 -11.15 -10.5 -9.3 -9.8 Q-6.35 -8.25 -6.2 -4.75 L-6.2 -4.55 -6.15 -4.65 Q-4.7 -7.95 -3.9 -12.45 -3.15 -16.85 -3.15 -21.2 -3.15 -21.5 -3.5 -22.0 L-4.0 -22.45 Q-5.35 -22.45 -6.7 -21.75 -8.65 -20.3 -10.0 -18.0 -11.9 -14.75 -13.95 -13.5 L-14.05 -13.45 -14.15 -13.65" fill="#75504a" fill-rule="evenodd" stroke="#75504a"/><path d="M-19.8 -1.2 L-19.9 -1.25 -19.9 -1.75 -18.1 -1.5 Q-17.75 -1.5 -17.55 -1.8 L-17.25 -2.1 -17.0 -2.0 -16.9 -1.5 Q-16.9 -0.5 -18.0 -0.5 -18.95 -0.5 -19.8 -1.2 M-16.15 -8.65 L-16.7 -9.65 -16.8 -9.7 -17.2 -9.9 -17.25 -10.7 Q-17.25 -11.6 -16.5 -11.5 L-16.5 -11.55 Q-15.3 -13.0 -14.15 -13.65 L-14.05 -13.45 -13.95 -13.5 Q-11.9 -14.75 -10.0 -18.0 -8.65 -20.3 -6.7 -21.75 -5.35 -22.45 -4.0 -22.45 L-3.5 -22.0 Q-3.15 -21.5 -3.15 -21.2 -3.15 -16.85 -3.9 -12.45 -4.7 -7.95 -6.15 -4.65 L-6.2 -4.75 Q-6.35 -8.25 -9.3 -9.8 L-9.9 -10.15 Q-11.1 -10.8 -12.3 -10.7 L-14.6 -10.5 Q-16.1 -9.95 -16.15 -8.65 M-17.05 -8.55 L-17.0 -8.5 -17.05 -8.5 -17.05 -8.55 M-15.45 -0.25 L-14.8 -0.15 -14.0 -0.4 -13.75 -0.6 -13.75 -0.65 Q-13.25 -1.1 -12.7 -1.0 L-12.45 -0.75 -12.4 -0.25 Q-12.4 1.2 -14.65 1.2 L-16.05 0.85 -17.0 0.0 -17.0 -0.55 -16.25 -0.75 -15.6 -0.35 -15.45 -0.25 M-9.3 -1.5 L-7.5 -2.05 -7.35 -1.85 -7.25 -1.4 Q-7.25 -0.85 -7.95 -0.15 -8.7 0.6 -9.4 0.6 L-11.2 0.3 -11.75 -0.25 -10.55 -1.05 -9.9 -1.35 -9.75 -1.35 -9.65 -1.4 -9.3 -1.5" fill="#a27666" fill-rule="evenodd" stroke="#a27666"/><path d="M-19.9 -2.35 Q-20.35 -2.8 -20.55 -4.05 L-20.6 -4.6 Q-20.6 -5.4 -20.0 -5.65 L-19.25 -4.65 -18.0 -3.8 Q-17.7 -3.15 -17.7 -2.7 L-17.75 -2.15 -17.9 -2.05 -18.1 -2.2 -18.75 -2.6 -18.75 -2.5 Q-18.65 -2.1 -19.25 -2.1 L-19.9 -2.35 M-20.6 -6.9 L-18.2 -8.85 -17.75 -8.4 -18.25 -7.75 -20.45 -6.85 -20.6 -6.9 M-15.45 -0.25 L-16.4 -1.7 -17.4 -3.55 -17.4 -3.6 -17.75 -4.45 Q-16.95 -4.7 -15.4 -3.5 -14.05 -2.45 -13.65 -1.7 L-13.75 -0.85 -13.85 -0.8 -13.75 -0.6 -14.0 -0.4 -14.8 -0.15 -15.45 -0.25 M-10.55 -1.05 L-11.9 -1.9 Q-13.25 -3.0 -13.25 -3.55 L-13.2 -3.85 -13.65 -4.25 Q-13.5 -5.75 -11.1 -4.6 -8.7 -3.45 -8.7 -2.55 L-8.75 -2.05 Q-8.65 -1.8 -9.25 -1.8 L-9.35 -1.8 -9.4 -1.7 -9.3 -1.5 -9.65 -1.4 -9.75 -1.35 -9.9 -1.35 -10.55 -1.05" fill="#d1aca6" fill-opacity="0.9882353" fill-rule="evenodd" stroke="#d1aca6"/>  </g></svg>