<?xml version="1.0" encoding="UTF-8" standalone="no"?><svg xmlns:xlink="http://www.w3.org/1999/xlink" height="25.9px" width="76.1px" xmlns="http://www.w3.org/2000/svg">  <g transform="matrix(1, 0, 0, 1, 39.85, 6.7)"><path d="M21.4 2.75 L21.2 2.65 21.5 2.55 21.4 2.75 M8.0 -6.4 Q8.0 -5.1 5.75 -2.6 L2.5 0.85 2.5 1.0 14.15 -0.8 23.05 -2.1 23.25 -2.0 20.25 2.2 17.25 4.0 36.25 5.95 33.75 7.45 28.35 8.4 Q25.55 8.75 24.25 9.45 L26.7 10.3 32.5 12.7 29.5 12.95 Q17.4 14.15 16.35 15.45 L11.35 15.75 14.1 18.15 14.1 18.5 11.8 18.5 8.2 17.75 1.6 16.25 Q1.35 18.3 1.5 18.9 L1.45 19.1 1.3 19.2 -0.35 18.0 -1.75 17.15 -2.65 16.0 Q-2.9 16.0 -5.8 17.55 L-8.5 17.8 -9.0 17.9 Q-8.95 17.3 -8.5 16.5 L-7.75 15.0 -16.7 17.65 -19.75 17.85 -24.85 18.35 -21.9 16.05 -17.25 12.9 -17.0 12.6 -27.0 13.95 -36.1 12.65 -39.85 12.3 -26.75 8.25 -37.0 6.75 Q-37.9 6.1 -39.55 5.45 -38.45 5.35 -35.75 5.4 L-33.0 5.65 -31.6 5.85 -26.65 5.75 -34.0 4.75 -38.55 4.05 -32.25 2.75 Q-25.35 1.15 -23.9 0.4 L-18.25 -0.4 -23.1 -2.95 -25.65 -4.2 -26.65 -5.05 -24.1 -4.45 Q-15.5 -2.5 -12.5 -2.5 L-12.35 -2.5 -9.65 -1.65 Q-6.45 -1.65 1.5 -4.8 8.0 -7.4 8.0 -6.4" fill="#33ffff" fill-rule="evenodd" stroke="#33ffff"/>  </g></svg>