<?xml version="1.0" encoding="UTF-8" standalone="no"?><svg xmlns:xlink="http://www.w3.org/1999/xlink" height="22.7px" width="17.25px" xmlns="http://www.w3.org/2000/svg">  <g transform="matrix(1, 0, 0, 1, 19.05, 28.7)"><path d="M-3.4 -26.0 Q-2.35 -24.65 -1.8 -23.2 -2.3 -13.85 -3.4 -11.15 -3.85 -10.05 -5.3 -9.75 -7.0 -9.4 -7.7 -8.95 -8.2 -5.9 -10.95 -6.1 L-12.4 -6.45 Q-16.45 -5.1 -18.15 -7.9 -19.05 -9.35 -19.05 -11.3 -12.5 -28.7 -7.8 -28.7 -5.4 -28.7 -3.4 -26.0 M-7.0 -11.75 L-6.8 -13.05 Q-6.8 -13.25 -7.55 -13.7 L-8.55 -14.2 -9.5 -14.35 -10.3 -14.45 -11.05 -14.35 -11.3 -13.8 Q-11.3 -12.0 -9.05 -11.1 L-7.7 -11.0 -7.8 -10.7 Q-7.8 -9.2 -6.05 -9.9 -4.3 -10.65 -4.3 -12.1 L-5.05 -12.95 Q-6.0 -12.55 -6.95 -11.75 L-7.0 -11.75 M-14.7 -7.85 Q-14.05 -7.75 -14.05 -8.8 -14.05 -9.5 -14.85 -10.6 -14.95 -12.5 -15.6 -13.5 L-15.65 -13.9 -15.95 -13.95 -16.3 -14.2 -16.7 -14.15 -16.9 -13.75 -17.55 -12.45 -17.7 -11.7 -17.8 -11.35 -17.8 -11.05 -17.8 -10.6 Q-17.8 -9.2 -16.2 -8.4 L-15.55 -8.2 -14.95 -7.9 -15.65 -8.05 -16.65 -8.2 Q-17.55 -8.2 -17.55 -7.55 -17.55 -6.55 -15.3 -6.3 -13.05 -6.05 -13.05 -7.05 L-13.8 -7.7 -14.7 -7.85 M-14.3 -13.2 L-14.3 -12.6 Q-14.3 -9.8 -12.45 -8.5 -10.55 -7.2 -10.55 -9.75 L-11.85 -11.6 Q-13.25 -13.45 -13.55 -13.45 L-14.3 -13.2 M-11.15 -7.8 Q-11.9 -7.65 -12.3 -7.3 -10.75 -5.6 -9.4 -6.85 -8.3 -7.9 -8.3 -9.1 L-8.3 -9.55 Q-8.4 -9.95 -9.05 -9.95 -9.65 -9.95 -10.3 -8.65 -10.7 -7.9 -11.15 -7.8" fill="#402b2a" fill-opacity="0.9882353" fill-rule="evenodd" stroke="#402b2a"/><path d="M-7.7 -11.0 L-9.05 -11.1 Q-11.3 -12.0 -11.3 -13.8 L-11.05 -14.35 -10.3 -14.45 -9.5 -14.35 -8.55 -14.2 -7.55 -13.7 Q-6.8 -13.25 -6.8 -13.05 L-7.0 -11.75 -7.0 -11.7 -7.7 -11.0 M-14.95 -7.9 L-15.55 -8.2 -16.2 -8.4 Q-17.8 -9.2 -17.8 -10.6 L-17.8 -11.05 -17.8 -11.35 -17.7 -11.7 -17.55 -12.45 -16.9 -13.75 -16.7 -14.15 -16.3 -14.2 -15.95 -13.95 -15.65 -13.9 -15.6 -13.5 Q-14.95 -12.5 -14.85 -10.6 -14.05 -9.5 -14.05 -8.8 -14.05 -7.75 -14.7 -7.85 L-14.95 -7.9 M-14.3 -13.2 L-13.55 -13.45 Q-13.25 -13.45 -11.85 -11.6 L-10.55 -9.75 Q-10.55 -7.2 -12.45 -8.5 -14.3 -9.8 -14.3 -12.6 L-14.3 -13.2" fill="#d1aca6" fill-opacity="0.9882353" fill-rule="evenodd" stroke="#d1aca6"/><path d="M-7.0 -11.75 L-6.95 -11.75 Q-6.0 -12.55 -5.05 -12.95 L-4.3 -12.1 Q-4.3 -10.65 -6.05 -9.9 -7.8 -9.2 -7.8 -10.7 L-7.7 -11.0 -7.0 -11.7 -7.0 -11.75 M-14.7 -7.85 L-13.8 -7.7 -13.05 -7.05 Q-13.05 -6.05 -15.3 -6.3 -17.55 -6.55 -17.55 -7.55 -17.55 -8.2 -16.65 -8.2 L-15.65 -8.05 -14.95 -7.9 -14.7 -7.85 M-11.15 -7.8 Q-10.7 -7.9 -10.3 -8.65 -9.65 -9.95 -9.05 -9.95 -8.4 -9.95 -8.3 -9.55 L-8.3 -9.1 Q-8.3 -7.9 -9.4 -6.85 -10.75 -5.6 -12.3 -7.3 -11.9 -7.65 -11.15 -7.8" fill="#a27666" fill-rule="evenodd" stroke="#a27666"/>  </g></svg>