<?xml version="1.0" encoding="UTF-8" standalone="no"?><svg xmlns:xlink="http://www.w3.org/1999/xlink" height="51.1px" width="112.25px" xmlns="http://www.w3.org/2000/svg">  <g transform="matrix(1, 0, 0, 1, 4.15, 73.25)"><path d="M60.5 -71.8 Q38.7 -68.4 28.3 -64.4 24.45 -62.9 20.15 -60.6 L12.35 -56.4 27.4 -64.4 Q37.2 -68.3 57.75 -72.0 L60.6 -71.9 60.5 -71.8 M65.35 -52.15 L43.75 -49.25 Q35.55 -48.0 31.75 -45.65 L31.6 -45.75 Q39.0 -49.45 41.75 -50.25 50.2 -52.55 65.35 -52.15 M1.4 -59.9 L-4.15 -54.0 Q-0.45 -60.75 9.0 -66.3 15.5 -70.15 24.45 -73.25 L20.0 -71.4 Q16.6 -69.85 9.25 -65.65 5.05 -64.0 1.4 -59.9 M39.4 -62.45 Q53.25 -65.85 85.1 -65.9 L85.0 -65.75 Q61.6 -66.45 37.5 -59.75 11.35 -52.5 1.6 -40.75 L1.5 -40.85 1.5 -41.25 Q1.5 -43.7 10.95 -49.65 19.05 -54.7 23.25 -56.25 L30.35 -59.35 Q34.75 -61.35 39.4 -62.45 M9.5 -22.15 L9.35 -22.25 Q26.6 -38.6 59.6 -46.0 84.95 -51.7 105.25 -50.25 L105.6 -49.9 Q63.05 -45.85 41.0 -38.3 32.0 -35.25 23.75 -30.75 L9.5 -22.15 M108.1 -49.9 L108.0 -49.8 106.35 -49.9 106.5 -50.05 108.1 -49.9" fill="#78c6c4" fill-rule="evenodd" stroke="#78c6c4"/>  </g></svg>