<?xml version="1.0" encoding="UTF-8" standalone="no"?><svg xmlns:xlink="http://www.w3.org/1999/xlink" height="68.2px" width="97.75px" xmlns="http://www.w3.org/2000/svg">  <g transform="matrix(1, 0, 0, 1, 16.9, 46.35)"><path d="M20.7 -40.75 L19.8 -40.85 18.7 -41.65 Q17.55 -42.35 14.45 -43.2 L5.25 -43.2 5.25 -43.0 4.25 -42.95 Q-0.55 -42.75 -3.65 -40.8 -6.5 -39.0 -6.5 -37.1 L-6.5 -35.45 -6.5 -35.3 Q-6.25 -34.15 -2.65 -31.8 1.05 -29.4 2.85 -29.3 5.5 -28.45 9.25 -27.65 L12.1 -27.15 12.5 -26.7 12.4 -26.15 12.1 -26.15 12.05 -26.15 10.35 -26.35 9.95 -26.55 Q5.95 -27.15 2.55 -28.1 0.05 -28.85 -0.8 -29.3 L-3.2 -31.15 Q-4.15 -31.9 -5.35 -31.95 L-5.45 -31.95 -5.05 -31.6 -4.25 -30.7 -1.45 -28.2 -1.6 -28.25 Q-4.1 -29.6 -4.65 -30.45 L-5.45 -31.3 -6.25 -32.4 -7.65 -34.9 -8.35 -36.2 Q-9.1 -38.0 -9.15 -40.3 L-8.95 -41.5 -7.2 -43.5 Q-5.3 -45.05 -2.55 -45.7 L0.3 -46.2 2.9 -46.35 Q8.7 -46.35 16.1 -43.0 L20.7 -40.75 M29.85 -29.25 L30.05 -28.5 Q30.05 -27.4 28.95 -26.3 29.4 -27.2 29.4 -28.25 L29.4 -29.1 29.35 -29.5 29.85 -29.25" fill="#72b4b3" fill-rule="evenodd" stroke="#72b4b3"/><path d="M20.7 -40.75 L22.65 -39.5 Q21.85 -39.25 21.6 -37.8 21.3 -36.3 16.6 -35.65 15.75 -35.55 15.4 -35.15 L14.65 -34.5 14.65 -34.45 Q14.6 -34.1 14.0 -34.0 L13.8 -34.0 Q12.8 -33.55 11.6 -33.4 L11.2 -33.25 10.6 -33.0 Q11.4 -33.0 12.3 -32.35 L13.1 -32.2 13.6 -32.05 12.8 -31.95 12.95 -31.85 11.35 -31.7 5.2 -30.7 Q3.55 -30.4 3.55 -29.65 L3.5 -29.4 3.0 -29.3 2.85 -29.3 Q1.05 -29.4 -2.65 -31.8 -6.25 -34.15 -6.5 -35.3 L-6.5 -35.45 -6.5 -37.1 Q-6.5 -39.0 -3.65 -40.8 -0.55 -42.75 4.25 -42.95 L5.25 -43.0 5.25 -43.2 14.45 -43.2 Q17.55 -42.35 18.7 -41.65 L19.8 -40.85 20.7 -40.75 M8.65 -32.75 L8.65 -32.85 8.7 -33.0 Q8.2 -32.85 8.65 -32.75 M3.1 -31.3 L3.15 -31.45 2.55 -31.45 3.1 -31.3" fill="#76bfbd" fill-opacity="0.99607843" fill-rule="evenodd" stroke="#76bfbd"/><path d="M27.9 -33.5 Q29.85 -30.5 29.85 -29.3 L29.85 -29.25 29.35 -29.5 Q29.1 -30.1 28.45 -30.1 L28.2 -29.95 Q27.6 -28.85 26.15 -27.95 25.2 -27.35 23.85 -26.9 20.8 -25.95 15.75 -25.95 L12.1 -26.15 12.4 -26.15 12.5 -26.7 12.1 -27.15 9.25 -27.65 14.85 -27.25 19.35 -27.2 20.3 -27.2 23.1 -27.5 Q24.55 -27.95 25.75 -28.8 L27.9 -30.65 28.2 -30.4 Q28.55 -31.7 26.0 -30.1 L26.0 -30.85 26.0 -31.65 27.9 -33.5" fill="#71b2b1" fill-rule="evenodd" stroke="#71b2b1"/><path d="M26.0 -30.1 Q28.55 -31.7 28.2 -30.4 L27.9 -30.65 25.75 -28.8 Q24.55 -27.95 23.1 -27.5 L20.3 -27.2 19.35 -27.2 19.9 -27.3 20.0 -27.75 22.6 -27.95 Q24.6 -28.35 25.8 -29.5 L26.0 -30.1" fill="#6fa9aa" fill-rule="evenodd" stroke="#6fa9aa"/><path d="M2.85 -29.3 L3.0 -29.3 3.5 -29.4 3.55 -29.65 Q3.55 -30.4 5.2 -30.7 L11.35 -31.7 12.95 -31.85 12.8 -31.95 13.6 -32.05 13.1 -32.2 12.3 -32.35 Q11.4 -33.0 10.6 -33.0 L11.2 -33.25 11.6 -33.4 Q12.8 -33.55 13.8 -34.0 L14.0 -34.0 Q14.6 -34.1 14.65 -34.45 L14.65 -34.5 15.4 -35.15 Q15.75 -35.55 16.6 -35.65 21.3 -36.3 21.6 -37.8 21.85 -39.25 22.65 -39.5 L23.55 -38.9 Q24.7 -38.15 27.2 -34.55 L27.9 -33.5 26.0 -31.65 26.0 -30.85 26.0 -30.1 25.8 -29.5 Q24.6 -28.35 22.6 -27.95 L20.0 -27.75 Q16.8 -28.05 14.85 -27.25 L9.25 -27.65 Q5.5 -28.45 2.85 -29.3 M8.65 -32.75 Q8.2 -32.85 8.7 -33.0 L8.65 -32.85 8.65 -32.75" fill="#79c7c5" fill-opacity="0.99607843" fill-rule="evenodd" stroke="#79c7c5"/><path d="M28.95 -26.3 L28.75 -25.85 28.55 -25.65 28.45 -25.45 27.05 -24.3 25.95 -24.05 24.95 -23.65 24.8 -23.6 18.4 -23.05 11.45 -23.25 Q7.05 -24.25 4.2 -25.5 L3.5 -25.8 0.6 -26.95 0.25 -27.05 0.15 -27.2 -0.15 -27.35 -1.45 -28.2 -4.25 -30.7 -5.05 -31.6 -5.45 -31.95 -5.35 -31.95 Q-4.15 -31.9 -3.2 -31.15 L-0.8 -29.3 Q0.05 -28.85 2.55 -28.1 5.95 -27.15 9.95 -26.55 L10.35 -26.35 12.05 -26.15 12.1 -26.15 15.75 -25.95 Q20.8 -25.95 23.85 -26.9 25.2 -27.35 26.15 -27.95 27.6 -28.85 28.2 -29.95 L28.45 -30.1 Q29.1 -30.1 29.35 -29.5 L29.4 -29.1 29.4 -28.25 Q29.4 -27.2 28.95 -26.3 M18.95 -23.8 L22.55 -24.25 21.7 -24.25 20.85 -24.0 19.75 -24.0 18.7 -23.8 18.95 -23.8" fill="#6c9d9e" fill-rule="evenodd" stroke="#6c9d9e"/><path d="M19.35 -27.2 L14.85 -27.25 Q16.8 -28.05 20.0 -27.75 L19.9 -27.3 19.35 -27.2 M3.1 -31.3 L2.55 -31.45 3.15 -31.45 3.1 -31.3 M18.95 -23.8 L18.7 -23.8 19.75 -24.0 20.85 -24.0 21.7 -24.25 22.55 -24.25 18.95 -23.8" fill="#74b4b4" fill-rule="evenodd" stroke="#74b4b4"/><path d="M24.75 -16.45 Q25.15 -16.25 25.15 -15.65 L24.8 -14.65 Q23.75 -14.35 23.55 -13.65 L23.25 -13.75 Q21.25 -12.65 18.15 -11.2 L17.25 -11.15 Q16.8 -11.15 16.15 -11.65 L16.15 -11.6 16.1 -11.8 15.4 -11.65 10.75 -10.7 10.45 -10.6 Q11.9 -11.35 14.5 -12.2 L16.1 -12.7 16.35 -12.6 16.85 -12.55 Q18.7 -12.55 22.0 -14.45 24.05 -15.7 24.75 -16.45 M23.35 -12.4 L23.55 -12.25 23.85 -11.6 23.85 -11.15 Q23.85 -10.35 22.25 -8.75 L20.85 -7.55 21.25 -7.25 21.3 -7.2 21.4 -7.4 Q23.15 -6.3 28.0 -4.05 L28.4 -3.15 28.85 -3.1 29.0 -1.65 28.9 -0.5 28.65 -0.5 28.9 -0.35 Q28.95 0.1 29.35 0.4 L27.2 -0.35 20.1 -3.75 17.6 -4.7 17.55 -4.9 17.65 -4.95 17.0 -5.45 18.7 -5.9 Q20.5 -6.4 21.25 -7.25 L17.15 -6.75 15.55 -6.4 15.2 -6.7 Q14.2 -7.5 13.95 -8.05 L14.3 -8.1 16.75 -8.75 17.3 -9.05 17.8 -9.55 Q19.35 -9.95 21.2 -10.95 22.7 -11.75 23.35 -12.4 M16.5 0.0 L16.5 0.05 16.15 1.05 17.0 1.0 17.15 1.75 Q17.15 2.25 16.0 2.95 L15.0 3.5 Q12.8 4.6 11.5 4.6 L10.4 4.35 9.95 4.05 9.8 3.9 9.85 3.9 11.75 3.2 14.25 2.6 Q15.75 2.05 16.5 1.4 16.15 1.05 15.6 0.9 L15.5 0.5 14.1 0.6 14.0 0.4 13.65 0.4 14.0 0.1 14.25 -0.15 15.75 0.0 16.5 0.0 M28.45 -25.45 L27.65 -23.85 27.4 -23.5 26.75 -22.5 26.7 -22.55 26.4 -22.6 25.6 -21.9 Q24.75 -21.2 23.85 -21.05 L22.5 -20.7 24.05 -22.6 24.8 -23.6 24.95 -23.65 25.95 -24.05 27.05 -24.3 28.45 -25.45" fill="#5a5455" fill-rule="evenodd" stroke="#5a5455"/><path d="M28.75 -25.85 L27.65 -23.8 26.85 -22.35 26.75 -22.5 27.4 -23.5 27.65 -23.85 28.45 -25.45 28.55 -25.65 28.75 -25.85 M-1.45 -28.2 L-0.15 -27.35 0.15 -27.2 0.25 -27.05 0.6 -26.95 3.5 -25.8 4.2 -25.5 Q7.05 -24.25 11.45 -23.25 L18.4 -23.05 24.8 -23.6 24.05 -22.6 22.5 -20.7 22.15 -20.5 21.95 -20.7 21.75 -20.45 21.7 -20.45 21.6 -20.6 21.5 -20.7 21.45 -20.65 21.3 -20.7 20.65 -20.25 19.3 -20.05 19.25 -20.05 17.65 -19.55 15.6 -19.3 10.5 -19.5 7.6 -20.5 6.2 -20.95 4.1 -21.95 4.15 -22.25 3.25 -23.05 4.1 -23.15 7.9 -22.6 13.75 -22.1 9.25 -23.3 2.0 -24.75 Q1.2 -24.95 -2.6 -27.65 L-2.9 -27.85 -2.9 -27.95 -2.45 -27.9 -3.1 -28.25 -3.1 -28.3 -3.0 -28.5 -1.6 -28.25 -1.45 -28.2" fill="#434045" fill-rule="evenodd" stroke="#434045"/><path d="M24.8 -18.55 L24.45 -18.0 24.25 -17.75 24.8 -18.55 M4.1 -21.95 L6.2 -20.95 7.6 -20.5 10.5 -19.5 15.6 -19.3 17.65 -19.55 19.25 -20.05 19.3 -20.05 19.45 -20.0 20.65 -20.25 21.3 -20.7 21.45 -20.65 21.5 -20.7 21.6 -20.6 21.7 -20.45 21.75 -20.45 20.4 -18.1 19.85 -16.9 19.4 -15.7 Q18.5 -15.5 18.5 -15.05 L18.5 -14.9 18.5 -14.85 18.2 -15.15 18.1 -15.25 18.1 -15.05 18.45 -14.85 9.0 -14.5 Q6.15 -14.8 3.65 -15.55 L1.3 -16.4 Q-1.1 -17.05 -3.0 -18.3 -5.2 -19.1 -7.1 -21.5 L-8.4 -23.4 -8.25 -23.55 -8.05 -24.0 -8.85 -25.8 -8.4 -25.5 Q-8.35 -27.3 -7.9 -28.15 L-7.8 -27.95 -7.6 -27.6 -7.35 -27.8 -6.8 -27.9 -6.65 -27.85 -6.35 -27.5 -7.15 -27.8 -6.0 -26.95 -5.65 -26.45 -3.8 -25.6 2.9 -22.5 4.1 -21.95 M19.45 -19.1 L18.2 -19.15 18.2 -19.1 18.25 -19.05 Q18.3 -18.85 18.9 -18.9 L19.6 -19.1 19.7 -19.05 19.8 -18.75 19.65 -18.3 19.35 -18.3 17.65 -18.3 18.25 -18.25 Q20.15 -17.85 20.0 -19.1 L20.05 -19.15 19.8 -19.1 19.7 -19.1 19.6 -19.1 19.45 -19.1 M13.75 -17.35 Q14.4 -18.3 16.0 -18.35 L12.55 -18.65 Q13.75 -18.05 13.75 -17.65 L13.75 -17.35 M-5.0 -23.45 L-5.1 -23.65 -5.25 -23.4 -5.0 -23.2 -5.0 -23.45" fill="#668c90" fill-opacity="0.99607843" fill-rule="evenodd" stroke="#668c90"/><path d="M19.3 -20.05 L20.65 -20.25 19.45 -20.0 19.3 -20.05 M18.25 -19.05 L18.2 -19.1 18.2 -19.15 19.45 -19.1 19.15 -19.1 18.25 -19.05 M19.8 -19.1 L20.05 -19.15 20.0 -19.1 19.8 -19.1 M-6.0 -26.95 L-7.15 -27.8 -6.35 -27.5 -6.15 -27.25 -6.05 -27.05 -6.0 -26.95" fill="#505a5f" fill-rule="evenodd" stroke="#505a5f"/><path d="M18.25 -19.05 L19.15 -19.1 19.45 -19.1 19.6 -19.1 19.7 -19.1 19.8 -19.1 20.0 -19.1 Q20.15 -17.85 18.25 -18.25 L17.65 -18.3 19.35 -18.3 19.65 -18.3 19.8 -18.75 19.7 -19.05 19.6 -19.1 18.9 -18.9 Q18.3 -18.85 18.25 -19.05 M13.75 -17.35 L13.75 -17.65 Q13.75 -18.05 12.55 -18.65 L16.0 -18.35 Q14.4 -18.3 13.75 -17.35" fill="#65888d" fill-rule="evenodd" stroke="#65888d"/><path d="M26.85 -22.35 L26.85 -22.3 26.3 -21.55 Q25.05 -20.6 25.0 -18.9 L24.8 -18.55 24.25 -17.75 24.0 -17.4 23.95 -17.35 23.9 -17.35 23.85 -17.25 23.85 -17.2 19.65 -15.4 18.5 -14.9 18.5 -15.05 Q18.5 -15.5 19.4 -15.7 L19.85 -16.9 20.4 -18.1 21.75 -20.45 21.95 -20.7 22.15 -20.5 22.5 -20.7 23.85 -21.05 Q24.75 -21.2 25.6 -21.9 L26.4 -22.6 26.7 -22.55 26.75 -22.5 26.85 -22.35 M-14.95 -2.7 L-14.95 -2.75 -14.35 -3.45 Q-14.0 -4.05 -14.0 -4.7 L-14.0 -4.85 -13.6 -4.7 -13.0 -3.3 -12.7 -2.8 -11.75 -0.95 -11.15 0.0 Q-9.95 1.75 -8.65 2.75 L-9.65 2.55 -9.1 4.1 -8.7 4.85 -8.7 4.9 -8.6 5.15 -8.4 7.2 -9.6 6.3 -10.25 5.6 -13.25 2.15 -13.3 2.05 -13.7 1.15 -14.25 -1.3 -14.95 -2.7 M18.5 -14.85 L18.45 -14.85 18.1 -15.05 18.1 -15.25 18.2 -15.15 18.5 -14.85" fill="#73b6b3" fill-opacity="0.99607843" fill-rule="evenodd" stroke="#73b6b3"/><path d="M24.45 -18.0 L24.15 -17.35 24.1 -17.35 24.1 -17.3 23.85 -17.2 23.85 -17.25 23.9 -17.35 23.95 -17.35 24.0 -17.4 24.25 -17.75 24.45 -18.0" fill="#505858" fill-rule="evenodd" stroke="#505858"/><path d="M-3.1 -28.3 L-3.1 -28.25 -2.45 -27.9 -2.9 -27.95 -2.9 -27.85 -3.25 -28.05 -3.1 -28.3" fill="#484348" fill-rule="evenodd" stroke="#484348"/><path d="M16.0 2.95 L14.25 4.05 13.25 4.4 13.35 4.75 13.25 4.85 13.1 5.0 Q12.05 5.0 11.85 5.9 L11.6 6.0 Q9.8 7.0 8.6 7.0 L7.85 6.95 7.1 6.85 5.9 6.5 5.85 6.15 Q5.85 5.8 7.5 5.3 L6.5 4.85 6.45 4.75 8.5 4.25 9.95 4.05 10.4 4.35 11.5 4.6 Q12.8 4.6 15.0 3.5 L16.0 2.95 M-14.65 -12.05 L-14.75 -12.15 Q-14.75 -13.2 -15.75 -13.55 L-16.1 -14.05 -16.0 -15.4 -16.0 -15.75 -15.8 -15.75 -15.8 -15.65 -15.25 -14.9 Q-14.55 -14.3 -13.6 -14.3 L-13.25 -14.3 -13.2 -14.3 -13.15 -14.15 -12.95 -13.85 -11.85 -13.65 -11.8 -13.6 -11.4 -13.45 -10.5 -11.5 -9.95 -10.65 -9.0 -9.0 -8.35 -8.15 Q-9.7 -8.2 -11.2 -9.35 -13.7 -11.75 -14.65 -12.05 M-1.6 -28.25 L-3.0 -28.5 -3.1 -28.3 -3.25 -28.05 -3.3 -28.1 -3.25 -27.4 -3.25 -26.95 Q-3.9 -26.85 -3.9 -25.9 L-3.8 -25.6 -5.65 -26.45 -6.0 -26.95 -6.05 -27.05 -6.15 -27.25 -6.35 -27.5 -6.65 -27.85 -7.0 -28.35 Q-7.0 -30.05 -5.9 -29.5 L-5.85 -29.5 -5.65 -30.1 -5.45 -31.05 -5.45 -31.3 -4.65 -30.45 Q-4.1 -29.6 -1.6 -28.25 M10.45 -10.6 L10.75 -10.7 15.4 -11.65 16.1 -11.8 16.15 -11.6 16.15 -11.65 Q16.8 -11.15 17.25 -11.15 L18.15 -11.2 18.05 -11.15 17.05 -10.6 16.6 -10.65 Q14.4 -10.0 11.95 -10.0 L8.95 -9.95 Q9.25 -10.35 10.45 -10.6 M-9.25 -21.7 L-8.75 -21.5 -8.75 -21.35 -8.85 -20.35 -8.85 -20.1 -8.75 -18.4 -9.7 -18.95 -9.7 -19.1 -9.5 -20.5 -9.45 -20.8 -9.25 -21.7" fill="#4d4649" fill-rule="evenodd" stroke="#4d4649"/><path d="M14.3 -8.1 L13.95 -8.05 Q14.2 -7.5 15.2 -6.7 L15.55 -6.4 14.25 -6.05 12.05 -6.7 11.5 -7.1 13.85 -8.05 14.3 -8.1 M17.0 -5.45 L17.65 -4.95 17.55 -4.9 17.6 -4.7 16.25 -5.25 17.0 -5.45" fill="#50494b" fill-rule="evenodd" stroke="#50494b"/><path d="M24.1 -17.3 L24.75 -17.65 25.05 -17.6 25.1 -17.55 25.15 -17.15 Q25.15 -16.85 24.75 -16.45 24.05 -15.7 22.0 -14.45 18.7 -12.55 16.85 -12.55 L16.35 -12.6 16.1 -12.7 14.5 -12.2 Q11.9 -11.35 10.45 -10.6 9.25 -10.35 8.95 -9.95 L11.95 -10.0 Q14.4 -10.0 16.6 -10.65 L17.05 -10.6 18.05 -11.15 18.15 -11.2 Q21.25 -12.65 23.25 -13.75 L23.55 -13.65 23.5 -13.25 23.6 -13.0 23.5 -12.65 23.35 -12.4 Q22.7 -11.75 21.2 -10.95 19.35 -9.95 17.8 -9.55 L17.3 -9.05 16.75 -8.75 14.3 -8.1 13.85 -8.05 11.5 -7.1 12.05 -6.7 14.25 -6.05 15.55 -6.4 17.15 -6.75 21.25 -7.25 Q20.5 -6.4 18.7 -5.9 L17.0 -5.45 16.25 -5.25 17.6 -4.7 20.1 -3.75 27.2 -0.35 29.35 0.4 33.55 2.05 35.5 2.95 35.45 3.0 35.45 3.2 43.1 6.75 44.5 7.0 Q47.15 7.8 49.5 8.95 L54.7 10.85 55.0 11.0 56.55 11.15 58.85 11.65 62.5 12.8 62.35 12.85 Q61.95 13.4 62.0 14.2 L62.6 16.2 Q62.6 16.45 62.75 16.6 L62.25 16.4 61.5 16.05 61.55 16.2 Q56.3 14.35 50.25 12.4 L31.45 4.9 24.1 2.25 20.3 1.1 19.6 0.7 Q18.95 0.4 18.4 0.35 L18.0 0.15 17.35 -0.05 16.5 0.0 15.75 0.0 14.25 -0.15 14.0 0.1 13.45 -0.1 13.4 -0.05 13.15 0.45 13.65 0.4 14.0 0.4 14.1 0.6 15.5 0.5 15.6 0.9 Q16.15 1.05 16.5 1.4 15.75 2.05 14.25 2.6 L11.75 3.2 9.85 3.9 9.8 3.9 8.5 4.25 6.45 4.75 6.5 4.85 7.5 5.3 Q5.85 5.8 5.85 6.15 L5.9 6.5 7.1 6.85 7.85 6.95 7.0 7.1 6.2 7.15 4.2 7.4 3.35 7.35 1.85 7.35 -0.5 6.9 -2.85 6.4 -2.9 6.35 -7.0 3.8 -7.2 3.5 -8.65 2.75 Q-9.95 1.75 -11.15 0.0 L-11.75 -0.95 -12.7 -2.8 -13.0 -3.3 -13.6 -4.7 -14.0 -4.85 Q-15.2 -5.55 -15.8 -7.55 -16.2 -8.8 -16.25 -10.3 L-16.25 -10.35 -15.9 -10.85 -15.85 -10.9 Q-15.6 -9.65 -13.9 -7.15 -11.45 -3.5 -8.45 -3.3 L-11.5 -6.45 Q-15.25 -10.85 -15.25 -11.65 L-15.1 -12.0 -14.65 -12.05 Q-13.7 -11.75 -11.2 -9.35 -9.7 -8.2 -8.35 -8.15 L-9.0 -9.0 -9.95 -10.65 -10.5 -11.5 -11.4 -13.45 -11.8 -13.6 -12.3 -14.25 -14.2 -16.55 -14.65 -16.6 -15.15 -16.55 Q-15.6 -16.75 -16.1 -17.1 L-16.25 -17.9 Q-16.4 -19.7 -16.75 -20.75 L-16.3 -20.55 -16.2 -20.45 -13.75 -18.8 Q-13.3 -19.5 -12.05 -18.95 -13.65 -21.35 -13.65 -22.15 L-13.55 -22.55 -13.45 -22.75 -13.05 -23.2 -13.0 -23.25 -11.85 -21.45 -10.3 -19.3 -9.7 -18.95 -8.75 -18.4 -8.85 -20.1 -8.85 -20.35 -8.75 -21.35 -8.75 -21.5 -9.25 -21.7 -10.5 -22.7 -11.15 -24.05 Q-11.15 -25.5 -9.3 -24.25 L-9.0 -24.0 -8.55 -23.3 -8.4 -23.4 -7.1 -21.5 Q-5.2 -19.1 -3.0 -18.3 -1.1 -17.05 1.3 -16.4 L3.65 -15.55 Q6.15 -14.8 9.0 -14.5 L18.45 -14.85 18.5 -14.85 18.5 -14.9 19.65 -15.4 23.85 -17.2 24.1 -17.3 M14.25 4.05 L14.35 4.4 13.9 5.1 13.3 5.0 13.25 4.85 13.35 4.75 13.25 4.4 14.25 4.05 M11.95 8.85 L12.0 8.9 Q12.0 10.2 9.75 11.6 7.2 13.25 4.0 13.25 -5.55 13.25 -11.4 7.2 -15.55 2.85 -15.55 -0.1 L-15.5 -0.95 -15.2 -1.35 -14.55 -1.65 -13.7 1.15 -13.3 2.05 Q-12.45 3.95 -11.2 5.5 -6.15 11.6 3.9 11.6 L5.65 11.3 Q7.0 11.05 8.15 10.35 L8.95 9.85 10.2 9.3 Q11.05 8.85 11.5 8.45 L11.95 8.85 M-2.9 -27.85 L-2.6 -27.65 Q1.2 -24.95 2.0 -24.75 L9.25 -23.3 13.75 -22.1 7.9 -22.6 4.1 -23.15 3.25 -23.05 4.15 -22.25 4.1 -21.95 2.9 -22.5 -3.8 -25.6 -3.9 -25.9 Q-3.9 -26.85 -3.25 -26.95 L-3.25 -27.4 -3.3 -28.1 -3.25 -28.05 -2.9 -27.85 M28.9 -0.35 L28.65 -0.5 28.9 -0.5 28.9 -0.35 M70.3 17.8 L70.5 17.7 70.75 15.65 70.95 15.95 Q71.45 16.55 72.75 16.45 L73.45 16.3 76.85 17.4 77.4 17.6 77.6 17.7 Q78.25 18.0 78.45 18.25 L78.35 19.3 Q78.25 19.6 77.1 19.8 L77.25 19.85 77.3 20.15 76.7 20.8 76.6 20.95 76.5 21.0 76.1 21.2 70.65 19.25 70.55 18.3 70.3 17.8 M64.45 15.65 L64.3 13.5 65.35 14.0 68.8 14.95 68.8 15.0 68.8 15.55 68.8 15.95 68.85 16.05 68.9 16.95 Q68.9 17.8 69.05 18.45 L69.1 18.75 67.7 18.3 65.4 17.5 65.45 17.3 64.45 15.65 M58.35 11.2 L58.9 11.5 56.6 11.05 56.6 11.0 55.9 10.75 56.3 10.75 Q57.5 11.3 58.15 11.25 L58.35 11.2" fill="#413a40" fill-rule="evenodd" stroke="#413a40"/><path d="M13.65 0.4 L13.15 0.45 13.4 -0.05 13.45 -0.1 14.0 0.1 13.65 0.4" fill="#524f4f" fill-rule="evenodd" stroke="#524f4f"/><path d="M28.0 -4.05 L28.8 -3.75 28.85 -3.1 28.4 -3.15 28.0 -4.05" fill="#3f4648" fill-rule="evenodd" stroke="#3f4648"/><path d="M28.8 -3.75 L34.95 -1.1 Q35.85 -0.75 36.7 -0.35 L36.15 -0.15 35.25 0.65 36.05 1.5 36.15 1.85 32.7 -1.0 Q29.6 -3.0 29.0 -1.65 L28.85 -3.1 28.8 -3.75" fill="#5f6c6f" fill-opacity="0.99607843" fill-rule="evenodd" stroke="#5f6c6f"/><path d="M29.35 0.4 Q28.95 0.1 28.9 -0.35 L28.9 -0.5 29.0 -1.65 Q29.6 -3.0 32.7 -1.0 L36.15 1.85 36.65 2.3 37.9 2.8 Q40.65 3.75 41.1 4.15 L41.45 4.3 43.6 5.0 Q47.65 6.5 48.75 7.55 L45.25 6.15 Q35.85 2.5 35.5 2.95 L33.55 2.05 29.35 0.4" fill="#5c6264" fill-rule="evenodd" stroke="#5c6264"/><path d="M36.7 -0.35 L44.0 2.6 44.1 4.1 44.2 4.95 43.6 5.0 41.45 4.3 41.1 4.15 Q40.65 3.75 37.9 2.8 L36.65 2.3 36.15 1.85 36.05 1.5 35.25 0.65 36.15 -0.15 36.7 -0.35 M42.9 -0.05 L42.95 0.0 42.8 -0.05 42.9 -0.05" fill="#5c7478" fill-rule="evenodd" stroke="#5c7478"/><path d="M70.65 19.5 L70.65 19.55 Q70.7 19.8 70.1 19.85 69.45 19.9 69.1 18.9 L69.1 18.75 69.05 18.45 Q68.9 17.8 68.9 16.95 L68.85 16.05 69.2 16.7 69.55 17.1 69.85 16.45 70.0 16.95 70.3 17.8 70.55 18.3 70.65 19.25 70.65 19.5 M65.4 17.6 L65.3 17.65 64.0 18.05 Q63.35 18.15 62.75 16.65 L62.75 16.6 Q62.6 16.45 62.6 16.2 L62.0 14.2 Q61.95 13.4 62.35 12.85 L62.5 12.8 Q62.65 12.6 62.85 12.55 L62.85 13.95 Q62.9 14.7 63.4 15.1 L63.75 14.8 63.7 14.25 64.35 15.5 64.45 15.65 65.45 17.3 65.4 17.5 65.4 17.6 M63.7 12.45 L63.85 12.45 64.0 12.7 63.7 14.2 63.55 12.9 63.7 12.45 M69.0 14.35 L69.6 13.45 Q68.85 14.5 68.8 15.55 L68.8 15.0 68.8 14.95 69.0 14.35 M56.55 11.15 L55.0 11.0 54.7 10.85 49.5 8.95 Q47.15 7.8 44.5 7.0 L43.1 6.75 35.45 3.2 35.45 3.0 35.5 2.95 Q35.85 2.5 45.25 6.15 L48.75 7.55 Q53.05 9.25 55.9 10.75 L56.6 11.0 56.55 11.0 56.55 11.15" fill="#4d4646" fill-rule="evenodd" stroke="#4d4646"/><path d="M80.4 15.75 L80.55 15.9 80.85 16.25 80.6 17.9 80.55 17.95 80.4 18.25 80.05 19.15 Q79.25 20.9 78.45 21.35 L78.05 21.5 77.9 21.5 76.55 21.2 76.6 20.95 76.7 20.8 77.3 20.15 77.25 19.85 77.1 19.8 Q78.25 19.6 78.35 19.3 L78.45 18.25 Q78.25 18.0 77.6 17.7 L78.45 16.95 78.85 16.6 78.95 16.45 78.4 16.35 78.15 16.35 80.2 15.95 80.4 15.75" fill="#3f383f" fill-rule="evenodd" stroke="#3f383f"/><path d="M58.1 8.45 Q60.15 8.95 63.9 10.55 65.05 9.75 67.25 10.6 L66.4 11.5 66.3 11.5 66.3 11.45 65.85 11.05 Q64.15 11.2 63.7 12.45 L63.55 12.9 63.7 14.2 63.7 14.25 63.75 14.8 63.4 15.1 Q62.9 14.7 62.85 13.95 L62.85 12.55 63.0 12.05 Q61.6 12.0 58.85 10.6 L58.2 10.25 57.95 10.05 58.25 9.95 58.4 9.6 Q58.3 8.9 57.5 8.35 L57.65 8.4 58.1 8.45 M67.55 11.75 Q69.1 11.65 69.6 12.15 L69.8 12.6 69.45 13.25 Q69.0 13.75 68.65 13.75 L66.9 13.65 Q65.85 13.45 65.05 12.8 65.25 12.25 65.65 12.0 L66.95 11.75 67.5 11.75 67.55 11.75 M70.5 12.4 L70.9 12.0 Q73.15 10.0 73.5 13.0 L74.3 12.95 Q76.25 13.2 77.2 14.25 L77.65 14.9 78.0 14.95 78.55 14.85 78.7 14.8 78.8 14.8 79.8 14.95 79.85 15.0 80.15 15.15 80.35 15.3 80.4 15.75 80.2 15.95 78.15 16.35 77.1 16.45 75.45 16.4 73.55 15.7 71.95 14.7 Q71.85 13.55 72.6 13.1 L72.75 13.1 72.6 12.9 72.45 12.8 72.25 12.3 72.2 12.25 72.15 12.3 Q71.25 13.0 70.5 14.65 L69.85 16.45 69.55 17.1 69.2 16.7 68.85 16.05 68.8 15.95 68.8 15.55 Q68.85 14.5 69.6 13.45 L70.5 12.4" fill="#77c1be" fill-opacity="0.99215686" fill-rule="evenodd" stroke="#77c1be"/><path d="M72.15 12.3 L72.25 12.3 72.45 12.8 72.45 12.9 71.85 13.4 Q71.1 14.05 70.8 15.05 L70.75 15.65 70.5 17.7 70.3 17.8 70.0 16.95 69.85 16.45 70.5 14.65 Q71.25 13.0 72.15 12.3 M66.3 11.45 L66.2 11.45 65.5 11.85 Q64.35 12.4 64.3 12.95 L64.3 13.5 64.45 15.65 64.35 15.5 63.7 14.25 63.7 14.2 64.0 12.7 63.85 12.45 63.7 12.45 Q64.15 11.2 65.85 11.05 L66.3 11.45" fill="#5c6c6e" fill-rule="evenodd" stroke="#5c6c6e"/><path d="M57.7 8.35 L58.1 8.45 57.65 8.4 57.7 8.35 M62.2 16.45 L61.55 16.2 61.5 16.05 62.25 16.4 62.2 16.45 M58.2 10.25 L58.85 10.6 Q61.6 12.0 63.0 12.05 L62.85 12.55 58.9 11.5 58.35 11.2 58.6 11.1 58.7 10.8 58.2 10.25" fill="#70aaaa" fill-opacity="0.99607843" fill-rule="evenodd" stroke="#70aaaa"/><path d="M70.75 15.65 L70.8 15.05 Q71.1 14.05 71.85 13.4 L72.45 13.1 72.6 13.1 Q71.85 13.55 71.95 14.7 L73.55 15.7 75.45 16.4 76.9 16.85 77.5 17.05 76.85 17.4 73.45 16.3 72.75 16.45 Q71.45 16.55 70.95 15.95 L70.75 15.65 M66.2 11.45 L66.3 11.5 66.4 11.5 67.5 11.75 66.95 11.75 65.65 12.0 Q65.25 12.25 65.05 12.8 65.85 13.45 66.9 13.65 L66.8 13.7 69.0 14.35 68.8 14.95 65.35 14.0 64.3 13.5 64.3 12.95 Q64.35 12.4 65.5 11.85 L66.2 11.45 M62.85 12.55 Q62.65 12.6 62.5 12.8 L58.85 11.65 56.55 11.15 56.55 11.0 56.6 11.0 56.6 11.05 58.9 11.5 62.85 12.55" fill="#5a5251" fill-rule="evenodd" stroke="#5a5251"/><path d="M66.4 11.5 L67.35 11.65 67.55 11.75 67.5 11.75 66.4 11.5 M69.6 12.15 L70.5 12.4 69.6 13.45 69.0 14.35 66.8 13.7 66.9 13.65 68.65 13.75 Q69.0 13.75 69.45 13.25 L69.8 12.6 69.6 12.15 M66.3 11.45 L66.3 11.5 66.2 11.45 66.3 11.45" fill="#76bdbb" fill-opacity="0.99607843" fill-rule="evenodd" stroke="#76bdbb"/><path d="M69.1 18.9 L67.85 18.45 67.7 18.3 69.1 18.75 69.1 18.9 M71.85 13.4 L72.45 12.9 72.6 12.9 72.75 13.1 72.6 13.1 72.45 13.1 71.85 13.4" fill="#5a7374" fill-rule="evenodd" stroke="#5a7374"/><path d="M67.85 18.45 L67.55 18.3 67.7 18.3 67.85 18.45" fill="#2d3134" fill-rule="evenodd" stroke="#2d3134"/><path d="M67.55 18.3 L65.4 17.6 65.4 17.5 67.7 18.3 67.55 18.3 M62.75 16.65 L62.2 16.45 62.25 16.4 62.75 16.6 62.75 16.65" fill="#4a464b" fill-opacity="0.99215686" fill-rule="evenodd" stroke="#4a464b"/><path d="M76.6 21.85 L76.5 21.85 70.65 19.5 70.65 19.25 76.1 21.2 76.5 21.0 76.6 21.85" fill="#4b4448" fill-opacity="0.9843137" fill-rule="evenodd" stroke="#4b4448"/><path d="M77.2 14.25 L78.55 14.7 78.55 14.8 78.55 14.85 78.0 14.95 77.65 14.9 77.2 14.25 M78.4 16.35 L78.05 16.65 76.9 16.85 75.45 16.4 77.1 16.45 78.15 16.35 78.4 16.35" fill="#71afad" fill-opacity="0.98039216" fill-rule="evenodd" stroke="#71afad"/><path d="M78.55 14.8 L78.7 14.8 78.55 14.85 78.55 14.8 M80.6 17.9 L80.6 18.0 80.55 17.95 80.6 17.9 M80.6 18.05 Q80.95 20.35 78.45 21.35 79.25 20.9 80.05 19.15 L80.4 18.25 80.6 18.05 M78.05 21.5 L76.6 21.85 76.5 21.0 76.6 20.95 76.55 21.2 77.9 21.5 78.05 21.5 M77.4 17.6 L76.85 17.4 77.5 17.05 76.9 16.85 78.05 16.65 77.4 17.6" fill="#4c4747" fill-rule="evenodd" stroke="#4c4747"/><path d="M80.6 18.0 L80.6 18.05 80.4 18.25 80.55 17.95 80.6 18.0 M77.6 17.7 L77.4 17.6 78.05 16.65 78.4 16.35 78.95 16.45 78.85 16.6 78.45 16.95 77.6 17.7" fill="#494142" fill-rule="evenodd" stroke="#494142"/><path d="M51.15 5.5 L56.2 7.7 56.85 7.95 57.7 8.35 57.65 8.4 57.5 8.35 Q58.3 8.9 58.4 9.6 L58.25 9.95 57.95 10.05 58.2 10.25 58.7 10.8 58.6 11.1 58.35 11.2 58.15 11.25 Q57.5 11.3 56.3 10.75 L55.15 10.15 53.35 8.95 52.25 8.55 52.05 7.75 Q51.75 6.4 51.15 5.5" fill="#5e8d8e" fill-rule="evenodd" stroke="#5e8d8e"/><path d="M44.0 2.6 L51.1 5.45 51.15 5.5 Q51.75 6.4 52.05 7.75 L52.25 8.55 51.45 8.4 Q48.05 6.5 44.2 4.95 L44.1 4.1 44.0 2.6" fill="#6b9a9d" fill-rule="evenodd" stroke="#6b9a9d"/><path d="M43.6 5.0 L44.2 4.95 Q48.05 6.5 51.45 8.4 L52.25 8.55 53.35 8.95 55.15 10.15 56.3 10.75 55.9 10.75 Q53.05 9.25 48.75 7.55 47.65 6.5 43.6 5.0" fill="#595e60" fill-rule="evenodd" stroke="#595e60"/><path d="M7.0 7.1 L4.9 7.9 4.9 7.85 4.8 7.5 4.45 7.4 4.2 7.4 6.2 7.15 7.0 7.1" fill="#5a7176" fill-opacity="0.99607843" fill-rule="evenodd" stroke="#5a7176"/><path d="M13.3 5.0 L13.1 5.0 13.25 4.85 13.3 5.0 M11.85 5.9 L11.75 6.45 12.35 7.15 12.45 7.4 12.0 7.75 11.5 8.45 Q11.05 8.85 10.2 9.3 L8.95 9.85 8.15 10.35 Q7.0 11.05 5.65 11.3 L4.5 11.35 Q-0.55 11.35 -3.45 9.9 L-4.2 9.7 -7.2 8.0 Q-7.8 7.65 -8.35 7.45 L-8.35 7.35 -8.4 7.2 -8.6 5.15 -8.7 4.9 -8.7 4.85 -9.1 4.1 -9.65 2.55 -8.65 2.75 -7.2 3.5 -7.0 3.8 -2.9 6.35 -2.85 6.4 -0.5 6.9 1.85 7.35 3.35 7.35 4.2 7.4 4.45 7.4 4.8 7.5 4.9 7.85 4.9 7.9 7.0 7.1 7.85 6.95 8.6 7.0 Q9.8 7.0 11.6 6.0 L11.85 5.9" fill="#69979a" fill-opacity="0.99607843" fill-rule="evenodd" stroke="#69979a"/><path d="M12.45 7.4 L12.5 7.65 12.65 7.85 11.95 8.85 11.5 8.45 12.0 7.75 12.45 7.4 M-15.2 -1.35 L-15.25 -2.1 -15.25 -2.6 -14.95 -2.75 -14.95 -2.7 -14.25 -1.3 -13.7 1.15 -14.55 -1.65 -15.2 -1.35 M-8.4 7.2 L-8.35 7.35 -8.35 7.45 Q-7.8 7.65 -7.2 8.0 L-4.2 9.7 -3.45 9.9 Q-0.55 11.35 4.5 11.35 L5.65 11.3 3.9 11.6 Q-6.15 11.6 -11.2 5.5 -12.45 3.95 -13.3 2.05 L-13.25 2.15 -10.25 5.6 -9.6 6.3 -8.4 7.2" fill="#3c363b" fill-rule="evenodd" stroke="#3c363b"/><path d="M-11.5 -28.6 L-11.55 -28.85 -11.35 -29.3 -11.3 -29.35 Q-10.0 -29.75 -10.0 -31.2 -10.0 -32.0 -10.25 -32.65 L-10.05 -32.6 -10.2 -33.1 -10.3 -33.4 -10.2 -33.15 -9.75 -32.25 -9.6 -31.9 -9.45 -31.7 -6.8 -27.9 -7.35 -27.8 -7.6 -27.6 -7.8 -27.95 -7.9 -28.15 Q-8.35 -27.3 -8.4 -25.5 L-8.85 -25.8 -8.05 -24.0 -8.25 -23.55 -8.4 -23.4 -8.55 -23.3 -9.0 -24.0 -10.15 -25.95 -11.5 -28.6 M-10.35 -33.45 L-10.3 -33.7 -10.15 -33.85 -10.3 -33.55 -10.35 -33.45 M-5.0 -23.45 L-5.0 -23.2 -5.25 -23.4 -5.1 -23.65 -5.0 -23.45" fill="#72b0ae" fill-rule="evenodd" stroke="#72b0ae"/><path d="M-10.25 -32.65 L-10.3 -32.7 -10.4 -33.2 -10.35 -33.45 -10.3 -33.55 -10.15 -33.85 -10.3 -33.7 -9.15 -40.3 Q-9.1 -38.0 -8.35 -36.2 L-7.65 -34.9 -6.25 -32.4 -5.45 -31.3 -5.45 -31.05 -5.65 -30.1 -5.85 -29.5 -5.9 -29.5 Q-7.0 -30.05 -7.0 -28.35 L-6.65 -27.85 -6.8 -27.9 -9.45 -31.7 -9.6 -31.9 -9.75 -32.25 -10.2 -33.15 -10.3 -33.4 -10.2 -33.1 -10.05 -32.6 -10.25 -32.65" fill="#585f5f" fill-rule="evenodd" stroke="#585f5f"/><path d="M-15.85 -10.9 L-15.9 -11.3 Q-15.9 -12.25 -15.1 -12.0 L-15.25 -11.65 Q-15.25 -10.85 -11.5 -6.45 L-8.45 -3.3 Q-11.45 -3.5 -13.9 -7.15 -15.6 -9.65 -15.85 -10.9 M-15.8 -15.75 Q-15.75 -16.4 -15.15 -16.55 L-14.65 -16.6 -14.2 -16.55 -12.3 -14.25 -11.8 -13.6 -11.85 -13.65 -12.95 -13.85 -13.15 -14.15 -13.2 -14.3 -13.25 -14.3 -13.6 -14.3 Q-14.55 -14.3 -15.25 -14.9 L-15.8 -15.65 -15.8 -15.75 M-16.75 -20.75 L-16.9 -21.05 -16.45 -21.3 -14.25 -22.95 -13.7 -22.85 -13.45 -22.75 -13.55 -22.55 -13.65 -22.15 Q-13.65 -21.35 -12.05 -18.95 -13.3 -19.5 -13.75 -18.8 L-16.2 -20.45 -16.3 -20.55 -16.75 -20.75 M-13.05 -23.2 L-12.75 -24.75 Q-11.5 -25.0 -11.5 -26.25 L-11.75 -27.1 -11.5 -28.6 -10.15 -25.95 -9.0 -24.0 -9.3 -24.25 Q-11.15 -25.5 -11.15 -24.05 L-10.5 -22.7 -9.25 -21.7 -9.45 -20.8 -9.5 -20.5 -9.7 -19.1 -9.7 -18.95 -10.3 -19.3 -11.85 -21.45 -13.0 -23.25 -13.05 -23.2 M9.8 3.9 L9.95 4.05 8.5 4.25 9.8 3.9" fill="#5a5958" fill-rule="evenodd" stroke="#5a5958"/>  </g></svg>