<?xml version="1.0" encoding="UTF-8" standalone="no"?><svg xmlns:xlink="http://www.w3.org/1999/xlink" height="76.95px" width="125.8px" xmlns="http://www.w3.org/2000/svg">  <g transform="matrix(1, 0, 0, 1, 0.0, 0.0)"><path d="M117.55 41.15 L124.55 41.15 124.8 41.15 124.8 41.2 119.1 41.5 Q118.1 41.45 117.85 42.1 L117.5 41.4 117.55 41.15" fill="#110a0b" fill-opacity="0.29803923" fill-rule="evenodd" stroke="#110a0b"/><path d="M124.8 41.15 L124.55 41.15 117.55 41.15 117.35 41.15 115.45 38.15 120.45 38.15 123.65 38.4 124.95 38.4 Q125.7 39.0 125.8 39.9 L124.8 41.15" fill="#181011" fill-opacity="0.96862745" fill-rule="evenodd" stroke="#181011"/><path d="M117.35 41.15 L117.55 41.15 117.5 41.4 117.35 41.15 M91.65 35.15 Q91.65 34.5 92.7 34.1 93.6 33.7 94.15 33.8 L94.25 33.9 98.3 33.45 97.8 34.05 99.75 34.75 101.6 35.55 Q102.75 37.05 103.85 37.85 L104.05 37.6 104.75 38.15 104.7 38.25 104.65 38.4 105.8 37.8 106.0 37.6 106.3 36.6 106.05 36.1 105.8 35.65 106.95 34.8 107.05 34.8 106.8 35.15 106.9 35.3 108.45 35.85 108.5 35.9 107.45 36.55 107.45 36.65 108.55 35.9 109.55 36.05 110.15 35.85 110.45 35.55 111.05 36.65 111.65 36.4 111.7 36.35 111.9 36.85 113.3 39.75 115.7 42.35 118.05 44.8 118.45 44.55 118.55 43.95 118.15 42.65 118.25 42.7 Q120.5 43.95 119.65 44.9 L122.75 48.2 Q125.3 51.3 125.3 52.4 L125.05 53.9 124.75 54.2 123.8 54.4 122.9 55.8 122.85 55.8 122.65 55.8 122.5 55.65 122.4 55.15 122.65 54.4 122.75 54.15 123.05 53.15 122.45 52.35 122.15 51.95 Q121.8 51.4 121.8 51.05 121.8 50.35 122.3 50.15 121.3 48.95 118.55 47.35 L114.8 45.25 114.85 44.9 114.95 44.85 Q104.9 42.65 94.55 37.15 L93.95 36.95 93.8 36.5 93.95 36.15 93.6 35.6 93.55 35.15 93.25 35.4 92.05 35.15 91.65 35.15 M110.65 33.3 L110.8 33.15 110.9 33.25 110.7 33.4 110.65 33.3 M106.0 38.9 L106.25 38.9 106.2 38.75 106.0 38.9" fill="#563739" fill-opacity="0.95686275" fill-rule="evenodd" stroke="#563739"/><path d="M93.25 35.4 L93.55 35.15 93.6 35.6 93.55 35.55 93.25 35.4 M93.8 36.5 L93.95 36.95 94.55 37.15 94.5 37.65 85.55 38.15 85.45 37.65 87.05 37.75 93.35 37.2 93.8 36.5" fill="#221717" fill-opacity="0.972549" fill-rule="evenodd" stroke="#221717"/><path d="M93.25 35.4 L93.55 35.55 93.6 35.6 93.95 36.15 93.8 36.5 93.35 37.2 87.05 37.75 85.45 37.65 85.55 38.15 Q85.05 38.15 84.8 38.4 83.7 39.55 81.9 40.05 L84.7 38.4 84.55 38.05 Q84.1 38.05 81.95 38.95 L81.9 38.9 Q81.15 38.85 79.7 39.65 76.25 38.45 71.55 38.9 L69.75 38.85 58.4 38.3 51.5 38.1 50.85 38.1 49.7 37.95 46.25 37.6 41.3 37.55 41.15 37.5 40.15 37.7 39.45 37.6 39.1 37.95 Q37.8 36.75 37.8 40.3 L38.55 45.1 38.95 46.9 39.0 48.1 40.25 53.95 40.65 56.05 40.7 56.4 41.15 59.1 41.25 59.2 Q41.25 59.85 41.8 61.2 L41.85 61.3 42.15 62.1 42.2 62.2 41.95 63.3 41.9 63.4 41.55 63.5 Q41.05 63.2 40.7 62.75 L40.1 61.65 39.9 60.75 Q39.25 59.85 38.8 57.3 38.3 54.6 38.3 53.2 L38.4 52.75 38.15 50.3 Q33.55 46.5 26.55 45.15 L25.55 45.05 Q17.65 43.6 11.65 45.75 9.9 46.1 7.15 47.5 4.75 48.75 3.55 49.8 L3.6 49.15 Q4.3 42.4 2.55 38.15 L2.55 37.8 2.55 37.0 Q2.55 34.65 2.05 34.1 1.95 33.25 0.55 32.6 L0.0 30.0 0.85 27.75 Q1.7 27.2 1.95 24.9 2.4 23.5 2.55 19.8 L2.55 16.7 2.75 16.35 2.8 13.0 3.0 11.5 Q3.3 10.05 3.85 9.25 L4.1 12.05 4.1 12.75 4.1 13.35 Q5.15 12.2 5.8 11.85 6.65 11.35 7.75 11.0 L9.4 10.55 Q11.7 9.1 15.55 9.15 L16.55 9.15 Q30.65 9.7 31.6 9.3 L31.75 9.25 31.95 9.8 32.3 10.4 32.35 10.4 32.55 12.05 Q32.5 13.5 33.3 14.0 L33.9 13.65 33.95 13.5 34.1 13.55 Q33.9 17.7 34.6 20.95 L34.55 21.45 35.05 25.85 35.65 28.3 35.55 28.75 35.55 29.6 Q35.7 30.3 36.35 30.4 L37.0 31.0 49.1 32.0 53.45 32.4 54.8 32.65 54.9 32.65 55.0 32.7 55.65 32.8 56.05 32.7 74.25 34.85 76.9 34.7 80.3 35.15 83.2 35.15 86.35 35.25 88.65 35.15 91.65 35.15 92.05 35.15 93.25 35.4 M5.25 13.9 L4.75 14.25 Q5.7 14.0 6.85 13.2 6.05 13.45 5.25 13.9 M6.9 30.9 Q7.75 32.4 6.95 30.8 L6.9 30.9 M3.5 27.1 L3.05 27.0 3.05 27.4 Q3.7 28.35 4.55 28.9 L5.2 29.45 5.05 30.25 Q4.7 30.7 4.7 31.1 L4.45 31.55 3.55 32.9 4.3 33.15 4.95 32.75 5.0 32.6 Q5.9 31.15 5.9 29.65 5.9 29.2 4.9 28.35 L3.5 27.1 M4.25 25.95 L4.45 25.95 3.55 24.15 3.75 25.05 4.25 25.95 M2.4 56.25 L3.05 56.25 3.3 59.25 3.3 60.4 2.8 62.9 1.8 65.4 1.45 64.85 1.4 64.75 Q1.9 63.25 2.2 60.5 L2.4 56.25" fill="#160f10" fill-opacity="0.99215686" fill-rule="evenodd" stroke="#160f10"/><path d="M115.45 38.15 L117.35 41.15 117.5 41.4 117.85 42.1 118.15 42.65 118.55 43.95 118.45 44.55 118.05 44.8 115.7 42.35 113.3 39.75 111.9 36.85 111.7 36.35 111.65 36.4 111.05 36.65 110.45 35.55 110.15 35.85 109.55 36.05 108.55 35.9 107.45 36.65 107.45 36.55 108.5 35.9 108.45 35.85 106.9 35.3 106.8 35.15 107.05 34.8 106.95 34.8 105.8 35.65 106.05 36.1 106.3 36.6 106.0 37.6 105.8 37.8 104.65 38.4 104.7 38.25 104.75 38.15 104.05 37.6 103.85 37.85 Q102.75 37.05 101.6 35.55 L99.75 34.75 97.8 34.05 98.3 33.45 99.15 32.3 101.15 32.15 103.45 32.4 105.05 32.65 106.85 32.95 109.3 32.9 110.3 32.9 110.4 33.0 110.45 33.1 110.65 33.3 110.7 33.4 110.9 33.25 Q111.25 33.15 111.9 33.7 L112.15 33.7 112.3 34.05 114.55 36.9 115.15 37.75 115.45 38.15 M106.0 38.9 L106.2 38.75 106.25 38.9 106.0 38.9" fill="#623f41" fill-opacity="0.93333334" fill-rule="evenodd" stroke="#623f41"/><path d="M79.7 39.65 Q81.15 38.85 81.9 38.9 L81.95 38.95 Q84.1 38.05 84.55 38.05 L84.7 38.4 81.9 40.05 81.4 40.35 Q80.55 39.95 79.7 39.65" fill="#211717" fill-opacity="0.9764706" fill-rule="evenodd" stroke="#211717"/><path d="M94.55 37.15 Q104.9 42.65 114.95 44.85 L114.85 44.9 114.8 45.25 118.55 47.35 Q121.3 48.95 122.3 50.15 121.8 50.35 121.8 51.05 121.8 51.4 122.15 51.95 L122.15 52.15 Q122.6 52.9 122.65 54.4 L122.4 55.15 122.5 55.65 122.65 55.8 122.85 55.8 Q123.15 56.4 123.9 56.85 L123.85 57.1 123.45 57.25 123.3 57.4 123.4 57.5 Q122.45 57.8 122.45 58.45 L122.3 59.0 121.9 59.05 121.8 59.05 121.6 58.95 121.3 58.9 121.0 58.8 120.05 58.4 119.55 58.55 119.55 58.75 Q119.85 59.05 120.3 59.15 L120.3 59.2 119.95 59.5 120.2 59.65 120.2 59.7 119.55 59.55 117.5 59.15 116.25 59.15 113.55 59.15 112.55 59.15 110.55 59.15 109.55 59.05 105.55 58.15 Q105.55 57.65 105.35 57.55 101.0 55.7 94.55 56.15 L93.9 56.15 91.7 56.35 Q91.55 56.45 91.55 57.55 L91.7 58.8 91.8 60.25 92.8 60.25 93.0 61.6 93.0 61.75 92.75 61.75 92.4 61.1 92.0 61.0 Q91.4 60.4 91.25 59.0 L91.25 57.75 83.3 52.2 82.75 51.75 Q81.95 48.05 81.8 43.75 L81.75 42.75 82.5 41.0 81.4 40.35 81.9 40.05 Q83.7 39.55 84.8 38.4 85.05 38.15 85.55 38.15 L94.5 37.65 94.55 37.15 M120.15 61.15 L119.95 61.0 119.7 60.8 119.35 60.6 117.15 60.0 Q120.85 60.0 121.05 61.0 L121.05 61.25 120.55 61.65 120.15 61.15" fill="#452d2f" fill-opacity="0.99607843" fill-rule="evenodd" stroke="#452d2f"/><path d="M120.45 38.15 L115.45 38.15 115.15 37.75 120.45 38.15" fill="#110b0c" fill-opacity="0.7372549" fill-rule="evenodd" stroke="#110b0c"/><path d="M114.7 59.95 L113.55 59.15 116.25 59.15 114.4 59.65 114.8 59.9 116.35 60.15 114.7 59.95 M120.2 59.7 L120.2 59.65 121.4 60.85 121.05 60.8 121.05 60.75 120.55 60.0 120.2 59.7 M122.25 60.75 L122.2 60.65 122.3 60.75 122.25 60.75" fill="#5e4543" fill-opacity="0.92941177" fill-rule="evenodd" stroke="#5e4543"/><path d="M113.55 59.15 L114.7 59.95 110.55 59.4 110.55 59.15 112.55 59.15 113.55 59.15" fill="#493735" fill-opacity="0.74509805" fill-rule="evenodd" stroke="#493735"/><path d="M122.15 51.95 L122.45 52.35 123.05 53.15 122.75 54.15 122.65 54.4 Q122.6 52.9 122.15 52.15 L122.15 51.95 M122.85 55.8 L122.9 55.8 123.8 54.4 124.75 54.2 124.55 54.95 124.95 55.9 125.3 56.9 125.3 57.55 125.05 57.65 124.75 57.65 124.8 58.15 124.8 58.85 Q124.8 60.05 124.4 60.65 L124.05 60.05 124.0 60.3 Q123.85 61.0 123.3 61.15 123.2 60.95 122.95 60.95 L122.85 60.9 122.8 61.0 122.3 60.75 122.2 60.65 122.25 60.75 122.25 61.0 122.15 62.65 121.9 62.65 121.55 61.2 121.4 60.85 120.2 59.65 119.95 59.5 120.3 59.2 120.3 59.15 Q119.85 59.05 119.55 58.75 L119.55 58.55 120.05 58.4 121.0 58.8 121.3 58.9 121.6 58.95 121.8 59.05 121.9 59.05 122.3 59.0 122.45 58.45 Q122.45 57.8 123.4 57.5 L123.3 57.4 123.45 57.25 123.85 57.1 123.9 56.85 Q123.15 56.4 122.85 55.8 M116.35 60.15 L114.8 59.9 114.4 59.65 116.25 59.15 117.5 59.15 119.55 59.55 120.2 59.7 120.55 60.0 121.05 60.75 121.05 60.8 121.05 61.0 Q120.85 60.0 117.15 60.0 L119.35 60.6 119.7 60.8 116.7 60.25 116.35 60.15 M119.95 61.0 L120.15 61.15 119.95 61.05 119.95 61.0 M122.8 60.3 L122.85 60.15 122.75 60.15 122.8 60.3" fill="#58393b" fill-opacity="0.9254902" fill-rule="evenodd" stroke="#58393b"/><path d="M92.8 60.25 L91.8 60.25 91.7 58.8 91.55 57.55 Q91.55 56.45 91.7 56.35 L93.9 56.15 94.55 56.15 Q101.0 55.7 105.35 57.55 105.55 57.65 105.55 58.15 L104.55 58.15 102.55 58.15 101.55 58.15 101.1 58.15 100.3 58.05 97.0 58.15 96.55 58.15 96.55 58.7 96.55 59.15 95.65 59.15 95.6 59.2 Q94.65 60.2 93.8 60.3 L93.65 60.3 92.8 60.25" fill="#201415" fill-opacity="0.8980392" fill-rule="evenodd" stroke="#201415"/><path d="M110.55 59.15 L110.55 59.4 109.05 59.15 102.55 58.35 102.55 58.15 104.55 58.15 105.55 58.15 109.55 59.05 110.55 59.15" fill="#130c0d" fill-opacity="0.49411765" fill-rule="evenodd" stroke="#130c0d"/><path d="M96.55 59.15 L96.55 58.7 96.55 58.15 97.0 58.15 Q96.55 58.35 96.55 58.7 L96.7 59.05 96.9 59.45 96.65 59.6 96.55 59.25 96.55 59.15 M101.1 58.15 L101.55 58.15 102.55 58.15 102.55 58.35 101.1 58.15" fill="#1b1112" fill-opacity="0.44313726" fill-rule="evenodd" stroke="#1b1112"/><path d="M92.8 60.25 L93.65 60.3 93.8 60.3 94.05 61.65 94.1 61.7 93.95 61.85 93.0 61.75 93.0 61.6 92.8 60.25" fill="#5f3e40" fill-opacity="0.99607843" fill-rule="evenodd" stroke="#5f3e40"/><path d="M93.8 60.3 Q94.65 60.2 95.6 59.2 L95.65 59.15 96.55 59.15 96.55 59.25 96.65 59.6 96.15 59.9 94.1 61.7 94.05 61.65 93.8 60.3" fill="#694547" fill-opacity="0.9843137" fill-rule="evenodd" stroke="#694547"/><path d="M124.8 58.15 L124.75 57.65 125.05 57.65 125.05 58.15 124.8 58.15" fill="#301e20" fill-opacity="0.49803922" fill-rule="evenodd" stroke="#301e20"/><path d="M122.25 61.0 L122.25 60.75 122.3 60.75 122.8 61.0 122.85 60.9 122.95 60.95 122.75 61.1 122.25 61.0 M122.8 60.3 L122.75 60.15 122.85 60.15 122.8 60.3" fill="#2e2120" fill-opacity="0.43529412" fill-rule="evenodd" stroke="#2e2120"/><path d="M83.2 35.15 L80.3 35.15 76.9 34.7 74.25 34.85 56.05 32.7 55.65 32.8 55.0 32.7 54.9 32.65 54.5 32.5 56.35 32.65 64.15 33.35 73.6 34.3 83.2 35.15" fill="#452d30" fill-opacity="0.9882353" fill-rule="evenodd" stroke="#452d30"/><path d="M3.7 5.1 L4.25 4.45 4.5 4.05 Q21.7 -5.35 33.3 7.2 L33.3 7.4 33.35 7.5 Q33.1 7.2 32.55 7.25 32.15 7.25 31.95 7.55 29.45 3.65 23.55 3.15 L23.5 2.65 12.55 2.15 12.55 3.15 11.6 3.3 Q6.9 4.65 3.1 6.9 L3.05 6.7 3.05 6.65 4.3 5.85 5.55 4.9 Q4.9 4.5 3.7 5.1" fill="#170e0f" fill-opacity="0.93333334" fill-rule="evenodd" stroke="#170e0f"/><path d="M33.95 13.5 L33.9 13.65 33.3 14.0 Q32.5 13.5 32.55 12.05 L32.35 10.4 32.3 10.4 31.95 9.8 31.75 9.25 31.6 9.3 Q30.65 9.7 16.55 9.15 L16.6 8.65 Q28.65 7.35 15.55 6.15 L15.55 5.15 18.55 5.15 19.55 5.15 Q24.95 5.6 23.8 4.0 L23.55 3.15 Q29.45 3.65 31.95 7.55 32.15 7.25 32.55 7.25 33.1 7.2 33.35 7.5 L33.45 7.95 33.2 9.2 33.15 9.4 33.5 9.55 34.0 12.8 34.05 12.9 33.95 13.5 M4.1 12.05 L3.85 9.25 Q3.3 10.05 3.0 11.5 L3.0 11.3 3.0 11.0 3.0 10.5 2.95 9.55 3.0 9.5 Q3.3 8.15 3.9 7.9 L3.9 8.5 4.7 7.4 Q6.05 6.3 8.6 6.2 10.65 5.45 12.4 5.75 13.3 5.9 14.15 6.4 12.4 5.75 10.6 6.35 L10.65 6.4 8.2 7.7 7.55 8.25 6.95 9.0 4.1 12.05 M3.05 6.65 L3.0 5.95 3.05 5.8 3.3 5.35 3.7 5.1 Q4.9 4.5 5.55 4.9 L4.3 5.85 3.05 6.65" fill="#2c1917" fill-opacity="0.99607843" fill-rule="evenodd" stroke="#2c1917"/><path d="M12.55 3.15 L12.55 2.15 23.5 2.65 23.55 3.15 23.8 4.0 Q24.95 5.6 19.55 5.15 19.55 4.65 19.8 4.45 21.8 2.7 12.55 3.15" fill="#381d1a" fill-rule="evenodd" stroke="#381d1a"/><path d="M12.55 3.15 Q21.8 2.7 19.8 4.45 19.55 4.65 19.55 5.15 L18.55 5.15 15.55 5.15 14.55 5.25 12.4 5.75 Q10.65 5.45 8.6 6.2 6.05 6.3 4.7 7.4 L3.9 8.5 3.9 7.9 Q3.3 8.15 3.0 9.5 L2.95 9.55 2.9 8.95 Q3.3 8.45 3.3 7.95 L3.1 7.15 3.1 6.9 Q6.9 4.65 11.6 3.3 L12.55 3.15" fill="#562923" fill-opacity="0.99607843" fill-rule="evenodd" stroke="#562923"/><path d="M15.55 5.15 L15.55 6.15 15.55 6.65 Q10.25 6.85 7.55 9.15 L6.95 9.0 7.55 8.25 8.2 7.7 10.65 6.4 10.6 6.35 Q12.4 5.75 14.15 6.4 13.3 5.9 12.4 5.75 L14.55 5.25 15.55 5.15" fill="#391c19" fill-rule="evenodd" stroke="#391c19"/><path d="M16.55 9.15 L15.55 9.15 Q11.7 9.1 9.4 10.55 L7.75 11.0 7.65 10.95 6.55 10.15 7.3 9.9 7.55 9.15 Q10.25 6.85 15.55 6.65 L15.55 6.15 Q28.65 7.35 16.6 8.65 L16.55 9.15" fill="#4c2520" fill-rule="evenodd" stroke="#4c2520"/><path d="M7.75 11.0 Q6.65 11.35 5.8 11.85 5.15 12.2 4.1 13.35 L4.1 12.75 4.1 12.05 6.95 9.0 7.55 9.15 7.3 9.9 6.55 10.15 7.65 10.95 7.75 11.0 M5.25 13.9 Q6.05 13.45 6.85 13.2 5.7 14.0 4.75 14.25 L5.25 13.9" fill="#42201c" fill-opacity="0.972549" fill-rule="evenodd" stroke="#42201c"/><path d="M6.9 30.9 L6.95 30.8 Q7.75 32.4 6.9 30.9 M4.25 25.95 L3.75 25.05 3.55 24.15 4.45 25.95 4.25 25.95" fill="#381c19" fill-rule="evenodd" stroke="#381c19"/><path d="M3.55 49.8 Q4.75 48.75 7.15 47.5 9.9 46.1 11.65 45.75 17.65 43.6 25.55 45.05 L26.55 45.15 26.45 45.7 Q16.3 48.2 5.7 50.0 3.35 51.7 2.55 51.9 2.4 52.3 2.4 51.65 L2.5 51.15 2.55 51.05 Q2.8 50.45 3.55 49.8 M3.5 27.1 L4.9 28.35 Q5.9 29.2 5.9 29.65 5.9 31.15 5.0 32.6 L4.95 32.75 4.3 33.15 3.55 32.9 4.45 31.55 4.7 31.1 Q4.7 30.7 5.05 30.25 L5.2 29.45 4.55 28.9 Q3.7 28.35 3.05 27.4 L3.05 27.0 3.5 27.1 M7.7 52.15 L9.4 51.3 Q14.65 48.95 20.05 49.3 L20.05 49.15 22.8 49.15 23.05 49.4 23.2 49.65 22.75 49.9 22.4 50.55 22.3 50.75 22.15 50.9 24.3 50.9 24.7 51.4 21.6 52.15 16.9 53.2 11.15 54.65 5.55 57.6 4.65 58.05 4.15 57.6 3.75 56.5 4.2 56.1 Q4.8 55.55 4.8 54.7 L4.8 54.6 Q4.95 53.55 7.55 52.2 L7.7 52.15" fill="#4b241e" fill-rule="evenodd" stroke="#4b241e"/><path d="M2.55 38.15 Q4.3 42.4 3.6 49.15 L3.55 49.8 Q2.8 50.45 2.55 51.05 L2.55 50.15 2.55 38.15" fill="#120c0c" fill-opacity="0.827451" fill-rule="evenodd" stroke="#120c0c"/><path d="M26.55 45.15 Q33.55 46.5 38.15 50.3 L38.4 52.75 38.3 53.2 Q38.3 54.6 38.8 57.3 39.25 59.85 39.9 60.75 L40.1 61.65 39.35 60.25 Q37.6 58.5 35.55 57.15 L36.05 57.15 Q31.45 52.2 21.6 52.15 L24.7 51.4 24.3 50.9 22.15 50.9 22.3 50.75 Q27.7 48.85 23.05 49.4 L22.8 49.15 20.05 49.15 20.05 49.3 Q14.65 48.95 9.4 51.3 L7.7 52.15 7.55 52.15 7.55 52.2 Q4.95 53.55 4.8 54.6 L3.4 56.0 3.65 56.35 3.75 56.5 4.15 57.6 4.15 57.7 4.1 58.25 3.9 58.7 3.4 59.4 3.3 59.25 3.05 56.25 2.4 56.25 2.45 55.6 2.55 55.4 2.55 51.9 Q3.35 51.7 5.7 50.0 16.3 48.2 26.45 45.7 L26.55 45.15 M40.7 62.75 Q41.05 63.2 41.55 63.5 L41.9 63.4 41.95 63.3 41.95 63.95 41.95 64.25 41.95 65.2 Q41.8 66.9 41.3 68.3 40.5 70.35 38.9 71.15 L38.05 71.4 37.9 71.3 39.0 69.95 39.2 69.15 40.0 66.6 Q40.8 64.1 40.8 63.45 L40.7 62.75" fill="#2b1816" fill-opacity="0.99215686" fill-rule="evenodd" stroke="#2b1816"/><path d="M40.1 61.65 L40.7 62.75 40.8 63.45 Q40.8 64.1 40.0 66.6 L39.2 69.15 39.0 69.95 37.9 71.3 38.05 71.4 38.9 71.15 Q35.7 73.6 31.55 75.15 L30.55 75.2 Q22.0 76.3 14.55 75.15 L14.45 74.6 Q9.75 73.45 6.55 71.15 6.55 70.65 6.35 70.6 3.05 69.15 3.55 64.15 L3.55 63.9 4.0 62.7 5.5 60.3 Q16.9 50.1 34.6 57.0 L35.55 57.15 Q37.6 58.5 39.35 60.25 L40.1 61.65" fill="#3b252b" fill-opacity="0.99215686" fill-rule="evenodd" stroke="#3b252b"/><path d="M21.6 52.15 Q31.45 52.2 36.05 57.15 L35.55 57.15 34.6 57.0 Q16.9 50.1 5.5 60.3 L4.0 62.7 3.55 63.9 3.55 64.15 3.5 64.15 Q2.9 66.2 3.65 67.8 L3.55 68.05 3.1 68.15 2.7 68.1 Q1.85 67.8 1.55 66.4 L1.45 64.85 1.8 65.4 2.8 62.9 3.3 60.4 3.3 59.25 3.4 59.4 3.9 58.7 4.25 58.45 5.0 58.1 5.55 57.6 11.15 54.65 16.9 53.2 21.6 52.15" fill="#1d1212" fill-opacity="0.9843137" fill-rule="evenodd" stroke="#1d1212"/><path d="M23.05 49.4 Q27.7 48.85 22.3 50.75 L22.4 50.55 22.75 49.9 23.2 49.65 23.05 49.4 M7.55 52.2 L7.55 52.15 7.7 52.15 7.55 52.2" fill="#4f2621" fill-rule="evenodd" stroke="#4f2621"/><path d="M2.55 51.9 L2.55 55.4 2.45 55.6 2.5 54.35 Q2.5 52.35 2.15 51.5 L2.1 51.15 2.5 51.15 2.4 51.65 Q2.4 52.3 2.55 51.9" fill="#120807" fill-opacity="0.2901961" fill-rule="evenodd" stroke="#120807"/><path d="M3.9 58.7 L4.1 58.25 4.15 57.7 4.15 57.6 4.65 58.05 5.55 57.6 5.0 58.1 4.25 58.45 3.9 58.7 M3.75 56.5 L3.65 56.35 3.4 56.0 4.8 54.6 4.8 54.7 Q4.8 55.55 4.2 56.1 L3.75 56.5" fill="#3d1e1a" fill-opacity="0.99215686" fill-rule="evenodd" stroke="#3d1e1a"/><path d="M2.7 68.1 L3.1 68.15 3.55 68.05 3.65 67.8 Q2.9 66.2 3.5 64.15 L3.55 64.15 Q3.05 69.15 6.35 70.6 6.55 70.65 6.55 71.15 L5.6 71.0 Q3.3 70.4 2.7 68.1" fill="#25161a" fill-opacity="0.6431373" fill-rule="evenodd" stroke="#25161a"/><path d="M14.55 75.15 Q22.0 76.3 30.55 75.2 L31.55 75.15 31.4 75.7 Q21.1 78.5 14.55 75.15" fill="#1b0f11" fill-opacity="0.4509804" fill-rule="evenodd" stroke="#1b0f11"/><path d="M40.7 56.4 L40.65 56.05 40.85 56.4 40.7 56.4" fill="#030101" fill-opacity="0.05490196" fill-rule="evenodd" stroke="#030101"/><path d="M41.95 65.2 L41.95 64.25 41.95 63.95 42.25 64.15 42.05 64.8 41.95 65.2" fill="#150d0e" fill-opacity="0.2509804" fill-rule="evenodd" stroke="#150d0e"/>  </g></svg>