<?xml version="1.0" encoding="UTF-8" standalone="no"?><svg xmlns:xlink="http://www.w3.org/1999/xlink" height="26.0px" width="81.5px" xmlns="http://www.w3.org/2000/svg">  <g transform="matrix(1, 0, 0, 1, 0.0, 0.0)"><path d="M78.1 3.85 L78.3 4.05 78.3 4.4 Q80.2 6.0 80.6 10.6 L80.8 17.9 Q80.8 21.55 81.15 23.4 L81.35 23.5 81.5 24.5 Q81.5 25.75 81.3 25.5 L79.75 26.0 Q78.85 25.85 78.3 25.5 L77.55 25.0 78.45 24.3 79.25 23.6 80.4 23.3 Q79.65 20.15 79.3 14.5 79.0 8.9 78.05 5.2 L78.0 5.25 Q77.15 5.15 76.85 4.45 76.55 3.8 74.9 3.45 L74.05 3.3 74.05 2.3 76.35 2.55 77.7 3.5 78.1 3.85 M5.25 6.1 L5.3 6.55 Q5.75 9.65 5.75 16.6 L6.25 18.55 6.75 20.25 Q4.8 23.8 4.25 24.25 L4.2 24.25 3.25 24.05 2.0 23.8 Q1.75 24.5 1.75 23.25 1.75 22.5 2.05 22.1 L2.45 21.45 2.5 21.3 3.3 21.7 4.25 22.25 Q4.75 21.0 4.75 17.9 4.75 8.65 2.5 2.3 L1.95 3.1 1.5 3.8 1.3 3.8 0.3 3.8 Q0.0 4.5 0.0 3.25 0.0 -1.55 2.45 0.7 L3.6 1.95 Q4.85 3.7 5.25 6.1" fill="#b38275" fill-rule="evenodd" stroke="#b38275"/><path d="M78.45 24.3 Q77.95 22.25 77.2 17.2 75.7 7.2 74.25 3.5 L74.9 3.45 Q76.55 3.8 76.85 4.45 77.15 5.15 78.0 5.25 L78.05 5.2 Q79.0 8.9 79.3 14.5 79.65 20.15 80.4 23.3 L79.25 23.6 78.45 24.3 M77.7 3.5 L78.05 3.5 78.1 3.85 77.7 3.5 M3.6 1.95 Q5.35 3.8 5.25 6.0 L5.25 6.1 Q4.85 3.7 3.6 1.95 M4.2 24.25 L3.75 24.75 3.25 24.05 4.2 24.25 M2.45 21.45 L2.35 19.6 2.75 14.0 Q2.75 10.75 2.0 7.6 1.4 5.05 1.3 3.8 L1.5 3.8 1.95 3.1 2.5 2.3 Q4.75 8.65 4.75 17.9 4.75 21.0 4.25 22.25 L3.3 21.7 2.5 21.3 2.45 21.45" fill="#e1b498" fill-rule="evenodd" stroke="#e1b498"/>  </g></svg>