<?xml version="1.0" encoding="UTF-8" standalone="no"?><svg xmlns:xlink="http://www.w3.org/1999/xlink" height="18.05px" width="12.0px" xmlns="http://www.w3.org/2000/svg">  <g transform="matrix(1, 0, 0, 1, -79.5, 2.05)"><path d="M90.75 -0.6 L90.95 -0.2 91.2 0.6 91.2 0.85 90.95 0.15 90.9 0.15 90.75 -0.25 90.7 -0.5 90.75 -0.6" fill="#6fabac" fill-opacity="0.99607843" fill-rule="evenodd" stroke="#6fabac"/><path d="M86.3 -1.05 L87.1 -1.45 86.95 -1.25 86.75 -0.7 86.55 0.0 86.7 1.75 86.6 2.1 86.55 2.25 86.6 2.35 86.55 2.45 86.55 2.5 86.45 2.4 86.35 2.45 86.2 2.0 Q86.0 1.75 86.0 0.7 L86.05 -0.4 86.3 -1.0 86.3 -1.05 M89.6 -1.9 L89.8 -1.75 89.85 -1.75 89.85 -1.7 90.0 -1.55 90.0 -1.5 90.0 -1.45 89.9 -1.45 89.85 -1.45 89.7 -1.5 89.45 -1.55 89.15 -1.5 88.65 -0.8 88.65 -0.75 88.4 0.05 Q88.25 0.6 88.25 1.2 L88.35 2.25 88.6 2.9 88.65 3.0 88.3 2.7 87.85 2.2 87.9 2.2 87.75 1.95 87.65 1.9 87.65 1.85 87.55 1.4 87.45 0.8 87.35 0.25 Q87.35 -0.45 87.5 -0.8 L88.1 -1.65 88.1 -1.5 87.65 -0.9 87.55 -0.6 87.55 -0.5 87.55 -0.4 87.75 0.25 87.9 0.8 88.15 -0.45 88.35 -0.95 88.6 -1.45 88.8 -1.65 88.9 -1.8 88.95 -1.8 89.15 -1.75 89.35 -1.7 89.55 -1.65 89.6 -1.65 89.7 -1.55 89.8 -1.65 89.6 -1.9 M88.65 -1.2 L88.35 -0.6 88.65 -1.15 88.65 -1.2 M88.8 2.8 L88.65 2.7 88.7 2.6 88.8 2.8 M87.85 1.3 L87.85 1.2 87.8 1.2 87.85 1.3 M88.05 1.25 L88.1 1.7 88.1 1.4 88.05 1.25 M88.3 2.2 L88.25 2.1 88.25 2.15 88.3 2.2" fill="#73b6b3" fill-opacity="0.9882353" fill-rule="evenodd" stroke="#73b6b3"/><path d="M88.6 -2.0 L88.95 -2.0 89.6 -1.9 89.8 -1.65 89.7 -1.55 89.6 -1.65 89.35 -1.7 89.15 -1.75 88.95 -1.8 88.9 -1.8 88.8 -1.65 88.6 -1.45 88.35 -0.95 88.15 -0.45 87.9 0.8 87.75 0.25 87.55 -0.4 87.55 -0.5 87.55 -0.6 87.65 -0.9 88.1 -1.5 88.1 -1.65 88.6 -2.0 M89.85 -1.75 L90.15 -1.55 90.2 -1.45 90.4 -1.2 90.0 -1.5 90.0 -1.55 89.85 -1.7 89.85 -1.75 M87.85 1.3 L87.8 1.2 87.85 1.2 87.85 1.3" fill="#77c3c0" fill-opacity="0.99215686" fill-rule="evenodd" stroke="#77c3c0"/><path d="M90.4 -1.2 L90.65 -0.8 90.75 -0.6 90.7 -0.5 90.65 -0.6 90.65 -0.65 89.9 -1.45 90.0 -1.45 90.0 -1.5 90.4 -1.2" fill="#71a8a6" fill-opacity="0.94509804" fill-rule="evenodd" stroke="#71a8a6"/><path d="M87.9 -1.7 L88.15 -1.9 88.6 -2.0 88.1 -1.65 87.5 -0.8 Q87.35 -0.45 87.35 0.25 L87.45 0.8 87.55 1.4 87.65 1.85 87.65 1.9 87.8 2.25 87.85 2.25 88.15 2.75 88.4 3.2 88.4 3.25 88.35 3.25 88.95 3.7 89.2 3.75 89.6 3.9 89.95 3.95 89.85 3.9 89.9 3.8 90.15 3.7 90.35 3.65 90.4 3.55 90.7 3.2 90.9 2.75 90.9 2.7 90.95 2.45 90.6 2.6 89.9 2.95 90.4 2.8 90.65 2.75 90.85 2.75 90.85 2.9 90.75 3.0 90.25 3.4 90.4 3.25 90.15 3.3 Q89.35 3.3 88.9 1.9 L88.65 0.45 88.65 0.15 88.65 0.05 88.65 -0.1 88.95 -1.0 89.05 -1.05 Q89.15 -1.25 89.4 -1.3 89.8 -1.25 90.0 -1.0 L90.4 -0.7 90.9 0.15 90.95 0.15 91.2 0.85 91.2 0.6 91.3 1.1 91.3 1.15 91.4 1.2 91.4 1.9 91.45 2.45 91.4 2.5 91.4 2.7 91.4 2.9 91.2 3.4 91.0 3.7 90.9 3.8 90.7 3.95 90.7 4.0 90.65 4.0 90.4 4.05 90.35 4.05 90.35 4.1 90.25 4.1 89.95 4.2 Q88.7 4.2 87.9 2.7 L87.6 2.15 87.55 1.95 87.45 1.7 87.3 1.1 87.25 0.85 87.25 0.25 87.45 -1.0 Q87.6 -1.45 87.9 -1.7 M89.6 -1.65 L89.55 -1.65 89.35 -1.7 89.6 -1.65 M91.2 1.45 L91.25 1.45 91.25 1.4 91.2 1.4 91.2 1.45 M91.25 2.15 L91.25 1.85 91.25 1.7 91.2 1.85 91.15 1.85 91.1 1.65 91.0 1.7 90.95 2.15 91.0 2.0 91.0 1.85 91.1 1.85 91.1 1.9 91.25 2.15 M89.05 2.35 L89.2 2.75 89.4 3.0 89.55 3.15 89.6 3.2 89.65 3.25 89.2 2.9 89.05 2.4 89.05 2.35 M90.1 3.15 L90.15 3.05 89.85 3.15 89.95 3.15 90.1 3.15 M90.45 3.75 L90.1 3.95 90.2 3.95 90.25 3.9 90.35 3.9 90.4 3.8 90.45 3.8 90.45 3.75" fill="#6a999f" fill-opacity="0.99607843" fill-rule="evenodd" stroke="#6a999f"/><path d="M87.65 1.9 L87.75 1.95 87.9 2.2 87.85 2.2 88.3 2.7 88.65 3.0 88.6 2.9 88.35 2.25 88.25 1.2 Q88.25 0.6 88.4 0.05 L88.65 -0.75 88.65 -0.8 89.15 -1.5 89.45 -1.55 89.7 -1.5 89.85 -1.45 89.9 -1.45 90.65 -0.65 90.65 -0.6 90.7 -0.5 90.75 -0.25 90.9 0.15 90.4 -0.7 90.0 -1.0 Q89.8 -1.25 89.4 -1.3 89.15 -1.25 89.05 -1.05 L88.95 -1.0 88.65 -0.1 88.65 0.05 88.65 0.15 88.65 0.45 88.9 1.9 Q89.35 3.3 90.15 3.3 L90.4 3.25 90.25 3.4 90.75 3.0 90.85 2.9 90.9 2.75 90.7 3.2 90.4 3.55 90.35 3.65 90.15 3.7 89.95 3.7 89.4 3.5 89.3 3.4 89.2 3.4 89.15 3.45 89.4 3.7 89.85 3.9 89.95 3.95 89.6 3.9 89.3 3.75 89.3 3.7 89.15 3.65 88.85 3.5 89.2 3.75 88.95 3.7 88.35 3.25 88.4 3.25 88.4 3.2 88.15 2.75 87.85 2.25 87.8 2.25 87.65 1.9 M88.65 -1.2 L88.65 -1.15 88.35 -0.6 88.65 -1.2 M91.2 1.45 L91.2 1.4 91.25 1.4 91.25 1.45 91.2 1.45 M89.05 2.35 L89.05 2.4 89.2 2.9 89.65 3.25 89.6 3.2 89.55 3.15 89.4 3.0 89.2 2.75 89.05 2.35 M88.8 2.8 L88.7 2.6 88.65 2.7 88.8 2.8 M88.05 1.25 L88.1 1.4 88.1 1.7 88.05 1.25 M88.3 2.2 L88.25 2.15 88.25 2.1 88.3 2.2 M88.3 2.9 L88.6 3.25 88.6 3.2 88.55 3.15 88.5 3.0 88.3 2.9" fill="#6da4a5" fill-rule="evenodd" stroke="#6da4a5"/><path d="M91.4 1.2 L91.5 2.15 91.45 2.45 91.4 1.9 91.4 1.2 M90.9 3.8 L90.75 3.95 90.7 4.0 90.7 3.95 90.9 3.8 M91.25 2.15 L91.1 1.9 91.1 1.85 91.0 1.85 91.0 2.0 90.95 2.15 91.0 1.7 91.1 1.65 91.15 1.85 91.2 1.85 91.25 1.7 91.25 1.85 91.25 2.15 M90.85 2.9 L90.85 2.75 90.65 2.75 90.4 2.8 89.9 2.95 90.6 2.6 90.95 2.45 90.9 2.7 90.9 2.75 90.85 2.9 M90.15 3.7 L89.9 3.8 89.85 3.9 89.4 3.7 89.15 3.45 89.2 3.4 89.3 3.4 89.4 3.5 89.95 3.7 90.15 3.7 M89.6 3.9 L89.2 3.75 88.85 3.5 89.15 3.65 89.2 3.7 89.3 3.7 89.3 3.75 89.6 3.9 M88.3 2.9 L88.5 3.0 88.55 3.15 88.6 3.2 88.6 3.25 88.3 2.9 M90.1 3.15 L89.95 3.15 89.85 3.15 90.15 3.05 90.1 3.15 M90.45 3.75 L90.45 3.8 90.4 3.8 90.35 3.9 90.25 3.9 90.2 3.95 90.1 3.95 90.45 3.75" fill="#69979c" fill-opacity="0.99215686" fill-rule="evenodd" stroke="#69979c"/><path d="M91.3 1.1 L91.4 1.2 91.3 1.15 91.3 1.1" fill="#375355" fill-rule="evenodd" stroke="#375355"/><path d="M87.1 -1.45 L87.5 -1.55 87.9 -1.7 Q87.6 -1.45 87.45 -1.0 L87.25 0.25 87.25 0.85 87.3 1.1 87.45 1.7 87.55 1.95 87.35 1.75 87.3 1.75 87.1 1.9 86.85 1.75 86.8 1.7 86.7 0.95 86.6 0.1 86.7 -0.35 86.75 -0.7 86.95 -1.25 87.1 -1.45" fill="#5c5b5a" fill-rule="evenodd" stroke="#5c5b5a"/><path d="M83.95 -0.9 L84.6 -0.75 84.65 -0.5 84.95 -0.65 86.2 -1.05 86.3 -1.05 86.3 -1.0 86.05 -0.4 86.0 0.7 Q86.0 1.75 86.2 2.0 L86.35 2.45 86.35 2.5 86.45 2.5 86.05 2.65 86.05 2.7 86.0 2.7 85.45 2.9 83.7 3.3 81.85 3.9 80.95 4.05 80.8 4.1 80.8 4.25 80.8 4.35 80.7 3.8 80.6 3.45 80.6 3.25 80.55 3.05 80.55 3.0 80.55 2.8 80.55 2.5 80.6 2.35 80.7 1.95 80.7 1.9 80.75 1.7 81.0 1.35 81.25 0.95 81.45 0.95 81.45 0.9 81.6 0.8 82.55 0.4 83.2 0.1 83.4 0.05 83.65 -0.1 83.7 -0.1 83.7 -0.15 84.1 -0.35 83.95 -0.7 83.95 -0.9 M79.75 2.25 L80.0 1.85 80.2 1.55 80.5 1.35 80.6 1.3 80.6 1.35 80.3 1.9 Q80.05 2.5 80.05 3.05 L80.15 3.55 80.15 3.95 80.05 3.75 80.0 3.9 79.9 3.45 79.8 2.9 79.8 2.85 79.75 3.15 79.8 3.7 79.8 3.95 79.7 3.95 79.55 3.9 79.7 3.0 Q79.75 2.4 80.15 2.0 L80.2 1.95 80.2 1.9 79.8 2.25 79.75 2.25" fill="#5d5756" fill-rule="evenodd" stroke="#5d5756"/><path d="M89.3 4.45 L88.8 4.5 88.6 4.5 88.55 4.5 88.55 4.55 88.5 4.55 Q88.25 4.55 87.6 4.0 L87.05 3.45 86.7 3.0 86.5 2.7 86.45 2.65 86.45 2.6 86.45 2.5 86.35 2.5 86.35 2.45 86.45 2.4 86.55 2.5 86.55 2.45 86.6 2.35 86.55 2.25 86.6 2.1 86.7 1.75 86.55 0.0 86.75 -0.7 86.7 -0.35 86.6 0.1 86.7 0.95 86.8 1.7 87.0 2.4 87.1 2.65 87.2 2.75 87.45 3.05 Q88.05 4.0 89.2 4.35 L89.3 4.45" fill="#648286" fill-opacity="0.99215686" fill-rule="evenodd" stroke="#648286"/><path d="M86.8 1.7 L86.85 1.75 87.1 1.9 87.3 1.75 87.35 1.75 87.55 1.95 87.6 2.15 87.3 2.2 Q87.0 2.25 87.0 2.4 L86.8 1.7" fill="#565152" fill-rule="evenodd" stroke="#565152"/><path d="M90.25 4.1 L90.0 4.25 89.8 4.3 89.6 4.35 89.3 4.45 89.2 4.35 Q88.05 4.0 87.45 3.05 L87.2 2.75 87.1 2.65 87.0 2.4 Q87.0 2.25 87.3 2.2 L87.6 2.15 87.9 2.7 Q88.7 4.2 89.95 4.2 L90.25 4.1 M86.45 2.6 L86.45 2.65 85.45 2.9 86.0 2.7 86.05 2.7 86.45 2.6 M80.95 4.05 L81.05 4.1 81.05 4.2 81.0 4.25 80.95 4.2 80.85 4.35 80.85 4.45 80.95 4.75 80.85 4.5 80.8 4.35 80.8 4.25 80.8 4.1 80.95 4.05 M84.7 3.25 L84.35 3.4 84.25 3.4 84.2 3.3 84.6 3.2 85.0 3.15 84.7 3.25 M84.15 3.5 L84.15 3.55 84.0 3.55 84.15 3.5" fill="#433d42" fill-rule="evenodd" stroke="#433d42"/><path d="M83.55 -0.7 L83.85 -0.95 83.9 -0.95 83.95 -0.9 83.95 -0.7 83.7 -0.65 83.8 -0.4 83.7 -0.15 83.7 -0.1 83.65 -0.1 83.55 -0.25 83.45 -0.6 83.55 -0.7 M88.8 4.5 L88.55 4.55 88.55 4.5 88.6 4.5 88.8 4.5 M88.5 4.55 L88.35 4.55 87.05 4.8 87.0 4.8 86.45 4.85 86.45 4.95 86.3 5.0 86.25 5.0 86.25 4.7 85.65 4.5 85.5 4.45 85.45 4.45 85.4 4.5 85.4 4.55 85.9 6.8 85.9 6.85 85.95 6.85 85.95 7.1 86.05 7.55 86.25 8.45 86.45 9.8 86.45 10.0 86.35 10.0 86.35 9.9 86.05 10.35 86.05 10.5 86.0 10.55 85.65 9.05 85.5 8.0 85.25 6.9 85.2 6.9 85.1 6.15 85.1 6.1 85.0 5.85 84.95 5.55 84.85 5.2 84.65 5.25 84.45 5.25 84.45 5.3 84.4 5.3 84.15 5.35 83.2 5.4 82.95 5.5 82.65 5.55 82.35 5.6 82.05 5.6 81.85 5.55 81.85 5.5 81.75 5.35 81.5 5.2 82.8 4.7 Q82.7 4.5 83.3 4.5 L83.6 4.45 85.65 3.65 86.45 3.3 86.3 3.25 86.0 3.0 86.25 2.9 86.5 2.7 86.7 3.0 87.05 3.45 87.6 4.0 Q88.25 4.55 88.5 4.55 M86.45 2.5 L86.45 2.6 86.05 2.7 86.05 2.65 86.45 2.5" fill="#3f383f" fill-rule="evenodd" stroke="#3f383f"/><path d="M82.35 5.6 L82.05 5.65 82.05 5.6 82.35 5.6 M81.55 5.75 L81.35 5.8 81.1 5.8 81.05 5.8 80.75 5.65 80.5 5.4 Q79.75 4.75 79.55 3.95 L79.55 3.9 79.7 3.95 79.8 3.95 80.0 3.95 80.0 3.9 80.05 3.75 80.15 3.95 80.45 4.8 80.55 5.05 80.7 5.2 81.0 5.4 81.5 5.75 81.55 5.75 M86.45 2.65 L86.5 2.7 86.25 2.9 86.0 3.0 86.3 3.25 86.45 3.3 85.65 3.65 83.6 4.45 83.3 4.5 Q82.7 4.5 82.8 4.7 L81.5 5.2 81.75 5.35 81.85 5.5 81.85 5.55 81.2 5.2 81.05 5.0 81.0 4.85 80.95 4.75 80.85 4.45 80.85 4.35 80.95 4.2 81.0 4.25 81.05 4.2 81.05 4.1 80.95 4.05 81.85 3.9 83.7 3.3 85.45 2.9 86.45 2.65 M84.7 3.25 L85.0 3.15 84.6 3.2 84.2 3.3 84.25 3.4 84.35 3.4 84.7 3.25 M84.15 3.5 L84.0 3.55 84.15 3.55 84.15 3.5" fill="#403a40" fill-rule="evenodd" stroke="#403a40"/><path d="M86.35 5.75 L86.35 5.8 86.45 6.1 86.45 6.2 86.45 6.45 86.45 6.55 86.5 6.55 86.55 6.95 86.55 7.05 86.45 6.9 86.55 7.55 Q86.45 7.3 86.25 7.55 L86.2 7.9 86.05 7.55 86.05 7.45 86.0 7.2 85.95 6.85 85.9 6.85 85.9 6.8 85.9 6.45 86.0 6.45 86.15 6.45 86.2 6.05 86.25 5.65 86.2 5.5 86.25 5.5 86.35 5.75 M86.25 8.2 L86.25 8.1 86.3 8.2 86.25 8.2" fill="#5c6264" fill-rule="evenodd" stroke="#5c6264"/><path d="M86.25 5.0 L86.25 5.1 86.3 5.5 86.35 5.75 86.25 5.5 86.2 5.5 86.25 5.65 86.2 6.05 86.15 6.45 86.0 6.45 85.9 6.45 85.9 6.8 85.4 4.55 85.4 4.5 85.45 4.45 85.5 4.45 85.65 4.5 86.25 4.7 86.25 5.0 M86.45 6.2 L86.5 6.55 86.45 6.55 86.45 6.45 86.45 6.2 M85.95 6.85 L86.0 7.2 86.05 7.45 86.05 7.55 86.2 7.9 86.25 8.1 86.25 8.2 86.3 8.65 86.35 8.8 86.6 10.1 86.85 11.2 86.85 11.25 86.9 11.3 86.95 11.6 86.95 11.65 87.2 13.1 87.2 13.15 87.0 13.15 87.0 13.1 86.45 10.1 86.45 10.0 86.45 9.8 86.25 8.45 86.05 7.55 85.95 7.1 85.95 6.85" fill="#554f50" fill-rule="evenodd" stroke="#554f50"/><path d="M89.3 3.7 L89.2 3.7 89.15 3.65 89.3 3.7" fill="#638488" fill-rule="evenodd" stroke="#638488"/><path d="M83.45 -0.6 L83.45 -0.65 83.55 -0.7 83.45 -0.6 M83.95 -0.7 L84.1 -0.35 83.7 -0.15 83.8 -0.4 83.7 -0.65 83.95 -0.7" fill="#3f393f" fill-rule="evenodd" stroke="#3f393f"/><path d="M80.6 1.3 L81.25 0.95 81.0 1.35 80.75 1.7 80.7 1.9 80.7 1.95 80.6 2.35 80.55 2.5 80.55 2.8 80.55 3.0 80.5 3.15 80.55 3.65 80.5 3.9 80.55 3.95 80.35 3.95 80.35 3.9 80.25 3.95 80.15 3.95 80.15 3.55 80.05 3.05 Q80.05 2.5 80.3 1.9 L80.6 1.35 80.6 1.3" fill="#73b1af" fill-rule="evenodd" stroke="#73b1af"/><path d="M79.55 3.95 L79.5 3.45 79.5 3.4 79.5 3.15 79.75 2.25 79.8 2.25 80.2 1.9 80.2 1.95 80.15 2.0 Q79.75 2.4 79.7 3.0 L79.55 3.9 79.55 3.95 M79.8 3.95 L79.8 3.7 79.75 3.15 79.8 2.85 79.8 2.9 79.9 3.45 80.0 3.9 80.0 3.95 79.8 3.95" fill="#575455" fill-rule="evenodd" stroke="#575455"/><path d="M82.05 5.65 L81.65 5.75 81.55 5.75 81.5 5.75 81.0 5.4 80.7 5.2 80.55 5.05 80.45 4.8 80.15 3.95 80.25 3.95 80.35 3.9 80.35 3.95 80.55 3.95 80.5 3.9 80.55 3.65 80.5 3.15 80.55 3.0 80.55 3.05 80.6 3.25 80.6 3.45 80.7 3.8 80.8 4.35 80.85 4.5 80.95 4.75 81.0 4.85 81.05 5.0 81.2 5.2 81.85 5.55 82.05 5.6 82.05 5.65" fill="#648387" fill-rule="evenodd" stroke="#648387"/><path d="M86.55 7.05 L86.95 9.2 86.85 9.25 86.55 8.8 86.35 8.5 86.35 8.8 86.3 8.65 86.25 8.2 86.3 8.2 86.25 8.1 86.2 7.9 86.25 7.55 Q86.45 7.3 86.55 7.55 L86.45 6.9 86.55 7.05" fill="#556467" fill-rule="evenodd" stroke="#556467"/><path d="M86.6 10.1 L86.35 8.8 86.35 8.5 86.55 8.8 86.85 9.25 86.85 9.45 86.75 9.45 86.6 9.45 86.6 10.1" fill="#627578" fill-rule="evenodd" stroke="#627578"/><path d="M86.95 9.2 L86.95 9.25 86.95 9.4 87.35 11.25 87.5 12.05 87.65 13.15 87.55 13.15 87.55 13.1 87.2 11.3 87.05 10.8 87.05 10.75 87.0 10.55 87.0 10.45 87.0 10.25 86.85 10.35 86.8 10.6 86.85 11.1 86.85 11.2 86.6 10.1 86.6 9.45 86.75 9.45 86.85 9.45 86.85 9.25 86.95 9.2 M87.75 13.15 L87.8 13.2 87.65 13.15 87.75 13.15 M88.0 13.35 L88.05 13.45 88.05 13.55 88.0 13.55 87.85 13.45 88.0 13.35 M86.95 11.6 L86.9 11.3 86.95 11.35 86.95 11.6" fill="#668285" fill-opacity="0.99607843" fill-rule="evenodd" stroke="#668285"/><path d="M87.5 12.05 L87.75 13.15 87.65 13.15 87.5 12.05 M86.9 11.3 L86.85 11.25 86.85 11.2 86.85 11.1 86.8 10.6 86.85 10.35 87.0 10.25 87.0 10.45 87.0 10.55 87.05 10.75 87.05 10.8 87.05 10.85 87.1 11.35 87.1 11.8 87.0 11.8 86.95 11.35 86.9 11.3" fill="#608c8e" fill-opacity="0.8784314" fill-rule="evenodd" stroke="#608c8e"/><path d="M86.95 14.95 L86.85 14.95 86.8 14.9 87.1 14.65 87.3 14.65 87.45 14.65 87.5 14.65 87.5 14.7 87.35 14.75 87.55 14.95 87.55 15.05 87.6 15.15 87.6 15.2 87.55 15.2 87.35 14.95 87.3 14.95 87.3 15.0 87.25 15.0 87.1 15.0 87.0 14.9 86.95 14.95 M86.5 13.4 L86.5 13.35 86.55 13.4 86.5 13.4 M86.5 13.2 L86.15 11.35 86.0 10.55 86.05 10.5 86.05 10.35 86.35 9.9 86.35 10.0 86.45 10.0 86.45 10.1 86.3 10.85 86.25 11.0 86.2 11.05 86.2 11.2 86.35 12.0 86.55 13.2 86.5 13.2 M86.7 13.95 L86.7 13.9 86.8 13.65 87.1 13.65 87.2 13.65 87.2 13.75 87.25 14.0 87.1 13.85 87.0 13.9 86.85 13.95 86.75 13.95 86.7 13.95" fill="#4d4646" fill-rule="evenodd" stroke="#4d4646"/><path d="M86.5 13.35 L86.5 13.2 86.55 13.2 86.35 12.0 86.2 11.2 86.2 11.05 86.25 11.0 86.3 10.85 86.45 10.1 87.0 13.1 87.0 13.15 86.7 13.3 86.55 13.4 86.5 13.35 M86.75 13.95 L86.85 13.95 87.0 13.9 87.1 13.85 87.25 14.0 87.35 14.35 87.05 14.45 86.95 14.5 86.95 14.35 86.8 14.15 86.75 13.95" fill="#5a5251" fill-rule="evenodd" stroke="#5a5251"/><path d="M87.8 13.2 L88.0 13.35 87.85 13.45 87.8 13.45 87.5 13.4 86.95 13.45 87.35 13.2 87.35 13.15 87.35 12.7 87.45 12.7 87.25 11.75 87.05 10.85 87.05 10.8 87.2 11.3 87.55 13.1 87.55 13.15 87.65 13.15 87.8 13.2 M86.45 13.75 L86.35 13.7 86.5 13.7 86.45 13.75" fill="#77c1be" fill-rule="evenodd" stroke="#77c1be"/><path d="M87.2 13.15 L87.2 13.1 86.95 11.65 86.95 11.6 86.95 11.35 87.0 11.8 87.1 11.8 87.1 11.35 87.05 10.85 87.25 11.75 87.45 12.7 87.35 12.7 87.35 13.15 87.2 13.15" fill="#6fa8a8" fill-rule="evenodd" stroke="#6fa8a8"/><path d="M88.0 13.55 L88.0 13.6 87.85 13.7 87.35 13.65 87.35 13.6 87.3 13.55 87.25 13.55 86.75 13.65 86.45 13.75 86.5 13.7 86.35 13.7 86.3 13.7 86.3 13.65 86.5 13.4 86.55 13.4 86.7 13.3 87.0 13.15 87.2 13.15 87.35 13.15 87.35 13.2 86.95 13.45 87.5 13.4 87.8 13.45 87.85 13.45 88.0 13.55 M88.05 14.35 L88.1 14.4 88.05 14.4 88.05 14.35 M88.3 14.6 L88.25 14.7 88.15 14.9 88.15 14.8 88.1 14.75 88.1 14.7 87.9 14.7 87.8 14.7 87.55 14.65 87.5 14.65 87.45 14.65 87.35 14.6 87.3 14.65 87.1 14.65 87.05 14.65 86.85 14.75 86.75 14.75 86.7 14.75 86.7 14.65 86.8 14.6 86.8 14.5 86.75 14.35 86.6 14.0 86.7 13.95 86.75 13.95 86.8 14.15 86.95 14.35 86.95 14.5 87.05 14.45 87.35 14.35 87.25 14.0 87.2 13.75 87.2 13.65 87.25 13.55 87.3 13.65 87.3 13.7 87.5 14.15 87.5 14.35 87.6 14.25 87.6 14.35 87.25 14.6 87.65 14.5 88.15 14.5 88.1 14.6 88.25 14.6 88.3 14.6 M87.2 15.75 L87.1 15.75 87.0 15.4 86.95 15.0 86.95 14.95 87.0 14.9 87.1 15.0 87.2 15.05 87.1 15.2 87.25 15.7 87.25 15.75 87.2 15.75 M87.65 15.65 L87.65 15.55 87.6 15.2 87.6 15.15 87.55 15.05 87.55 14.95 87.35 14.75 87.5 14.7 87.6 14.7 87.75 14.95 87.8 15.5 87.8 15.55 87.75 15.65 87.65 15.65" fill="#5c6c6e" fill-rule="evenodd" stroke="#5c6c6e"/><path d="M87.85 13.7 L87.85 13.85 88.0 14.1 88.05 14.25 88.05 14.35 88.05 14.4 88.1 14.4 88.25 14.45 88.3 14.6 88.25 14.6 88.15 14.5 87.65 14.5 87.25 14.6 87.6 14.35 87.6 14.25 87.5 14.35 87.5 14.15 87.3 13.7 87.3 13.65 87.35 13.65 87.85 13.7" fill="#77c1be" fill-opacity="0.99215686" fill-rule="evenodd" stroke="#77c1be"/><path d="M86.8 14.9 L86.75 14.75 86.85 14.75 87.05 14.65 87.1 14.65 86.8 14.9 M86.6 14.0 L86.5 13.9 86.45 13.75 86.75 13.65 87.25 13.55 87.3 13.55 87.35 13.6 87.35 13.65 87.3 13.65 87.25 13.55 87.2 13.65 87.1 13.65 86.8 13.65 86.7 13.9 86.7 13.95 86.6 14.0 M88.15 14.5 L88.25 14.6 88.1 14.6 88.15 14.5 M87.3 14.65 L87.35 14.6 87.45 14.65 87.3 14.65 M87.5 14.65 L87.55 14.65 87.8 14.7 87.6 14.7 87.5 14.7 87.5 14.65 M87.9 14.7 L88.1 14.7 88.1 14.75 88.15 14.8 87.9 14.7 M87.1 15.0 L87.25 15.0 87.3 15.0 87.3 14.95 87.35 14.95 87.55 15.2 87.6 15.2 87.65 15.55 87.65 15.65 87.35 15.7 87.25 15.75 87.25 15.7 87.1 15.2 87.2 15.05 87.1 15.0" fill="#525253" fill-rule="evenodd" stroke="#525253"/><path d="M88.15 14.9 L88.3 15.45 88.3 15.55 88.3 15.65 88.25 15.55 87.8 15.55 87.8 15.5 87.75 14.95 87.6 14.7 87.8 14.7 87.9 14.7 88.15 14.8 88.15 14.9" fill="#72afad" fill-rule="evenodd" stroke="#72afad"/><path d="M88.3 15.55 L88.35 15.65 88.35 15.75 88.25 15.8 88.1 15.9 87.9 15.95 87.8 16.0 87.65 16.0 87.2 16.0 87.2 15.8 87.2 15.75 87.25 15.75 87.35 15.7 87.65 15.65 87.75 15.65 87.8 15.55 88.25 15.55 88.3 15.65 88.3 15.55" fill="#494142" fill-rule="evenodd" stroke="#494142"/>  </g></svg>