<?xml version="1.0" encoding="UTF-8" standalone="no"?>
<svg xmlns:xlink="http://www.w3.org/1999/xlink" height="65.0px" width="33.45px" xmlns="http://www.w3.org/2000/svg">
  <g transform="matrix(1, 0, 0, 1, 0.95, 63.5)">
    <use height="65.0" transform="matrix(1.0, 0.0, 0.0, 1.0, -0.95, -63.5)" width="33.45" xlink:href="#shape0"/>
  </g>
  <defs>
    <g id="shape0" transform="matrix(1, 0, 0, 1, 0.95, 63.5)">
      <path d="M15.3 -50.4 L15.2 -51.0 14.6 -51.8 13.85 -52.55 Q12.8 -53.85 12.05 -55.25 11.2 -56.9 10.65 -58.7 L10.1 -60.5 9.75 -62.3 10.15 -61.6 10.9 -60.5 11.2 -60.1 12.85 -58.25 14.85 -56.75 Q15.95 -56.15 17.1 -56.2 18.2 -56.3 19.2 -56.95 L21.05 -58.5 22.5 -60.35 22.6 -60.5 23.45 -61.85 23.8 -62.5 23.1 -60.5 22.0 -57.6 20.15 -53.75 19.4 -52.65 18.75 -51.5 Q18.55 -50.95 18.7 -50.35 L18.75 -50.15 18.2 -50.5 17.05 -51.1 16.85 -51.2 15.2 -49.95 15.3 -50.4 M7.9 0.5 L2.25 0.5 Q1.8 -0.95 1.75 -2.45 L1.7 -3.5 1.85 -6.1 1.35 -6.2 0.65 -6.0 Q0.3 -5.65 0.2 -5.0 L0.3 -3.55 0.3 -3.5 0.6 -2.05 1.0 -0.9 1.5 0.5 1.3 0.5 0.85 -0.8 0.6 -1.45 0.2 -3.05 0.1 -3.5 0.05 -4.8 Q0.05 -5.65 0.6 -6.1 L1.8 -6.35 3.25 -5.7 Q4.0 -5.25 4.8 -4.85 L6.2 -4.45 8.05 -4.55 7.9 0.5" fill="#167fa3" fill-rule="evenodd" stroke="none"/>
      <path d="M18.7 -50.35 L19.2 -48.95 19.85 -46.3 20.3 -43.9 20.6 -42.35 23.45 -32.2 26.35 -22.1 28.6 -13.15 30.4 -5.0 30.7 -3.5 31.5 0.5 31.05 0.5 30.3 -3.5 29.95 -5.2 28.15 -13.25 25.9 -21.95 23.5 -30.3 21.8 -36.25 20.2 -42.2 19.85 -43.85 19.45 -46.0 18.85 -48.55 18.2 -50.5 18.75 -50.15 18.7 -50.35 M27.7 0.5 L10.45 0.5 10.4 -2.6 10.4 -3.5 Q10.3 -9.9 10.35 -16.4 10.45 -23.35 11.25 -30.3 12.0 -37.3 13.95 -44.15 L14.1 -44.7 14.45 -46.0 13.4 -42.2 12.55 -38.8 Q10.75 -31.0 9.75 -23.0 8.7 -15.05 8.55 -6.95 L8.35 0.5 7.9 0.5 8.05 -4.55 8.1 -6.95 Q8.25 -15.05 9.3 -23.05 10.3 -31.05 12.15 -38.9 13.2 -43.75 14.75 -48.45 L15.05 -49.5 15.3 -50.4 15.2 -49.95 16.85 -51.2 17.05 -51.1 Q17.45 -45.7 18.35 -40.35 19.25 -34.65 20.55 -28.9 21.85 -23.15 23.3 -17.3 L23.45 -16.55 23.9 -14.65 24.5 -12.25 25.05 -9.8 25.5 -7.9 25.65 -7.2 25.8 -6.7 26.1 -5.7 26.35 -4.7 26.5 -4.25 26.7 -3.5 27.5 -0.3 27.7 0.5" fill="#ffe473" fill-rule="evenodd" stroke="none"/>
      <path d="M10.45 0.5 L8.35 0.5 8.55 -6.95 Q8.7 -15.05 9.75 -23.0 10.75 -31.0 12.55 -38.8 L13.4 -42.2 14.45 -46.0 14.1 -44.7 13.95 -44.15 Q12.0 -37.3 11.25 -30.3 10.45 -23.35 10.35 -16.4 10.3 -9.9 10.4 -3.5 L10.4 -2.6 10.45 0.5" fill="#fcedae" fill-rule="evenodd" stroke="none"/>
      <path d="M31.05 0.5 L27.7 0.5 27.5 -0.3 26.7 -3.5 26.5 -4.25 26.35 -4.7 26.1 -5.7 25.8 -6.7 25.65 -7.2 25.5 -7.9 25.05 -9.8 24.5 -12.25 23.9 -14.65 23.45 -16.55 23.3 -17.3 Q21.85 -23.15 20.55 -28.9 19.25 -34.65 18.35 -40.35 17.45 -45.7 17.05 -51.1 L18.2 -50.5 18.85 -48.55 19.45 -46.0 19.85 -43.85 20.2 -42.2 21.8 -36.25 23.5 -30.3 25.9 -21.95 28.15 -13.25 29.95 -5.2 30.3 -3.5 31.05 0.5" fill="#ccb244" fill-rule="evenodd" stroke="none"/>
      <path d="M2.25 0.5 L1.5 0.5 1.0 -0.9 0.6 -2.05 0.3 -3.5 0.3 -3.55 0.2 -5.0 Q0.3 -5.65 0.65 -6.0 L1.35 -6.2 1.85 -6.1 1.7 -3.5 1.75 -2.45 Q1.8 -0.95 2.25 0.5" fill="#1f95b5" fill-rule="evenodd" stroke="none"/>
      <path d="M15.3 -50.4 L15.2 -51.0 14.6 -51.8 13.85 -52.55 Q12.8 -53.85 12.05 -55.25 11.2 -56.9 10.65 -58.7 L10.1 -60.5 9.75 -62.3 10.15 -61.6 10.9 -60.5 11.2 -60.1 12.85 -58.25 14.85 -56.75 Q15.95 -56.15 17.1 -56.2 18.2 -56.3 19.2 -56.95 L21.05 -58.5 22.5 -60.35 22.6 -60.5 23.45 -61.85 23.8 -62.5 23.1 -60.5 22.0 -57.6 20.15 -53.75 19.4 -52.65 18.75 -51.5 Q18.55 -50.95 18.7 -50.35 L19.2 -48.95 19.85 -46.3 20.3 -43.9 20.6 -42.35 23.45 -32.2 26.35 -22.1 28.6 -13.15 30.4 -5.0 30.7 -3.5 31.5 0.5 M1.3 0.5 L0.85 -0.8 0.6 -1.45 0.2 -3.05 0.1 -3.5 0.05 -4.8 Q0.05 -5.65 0.6 -6.1 L1.8 -6.35 3.25 -5.7 Q4.0 -5.25 4.8 -4.85 L6.2 -4.45 8.05 -4.55 8.1 -6.95 Q8.25 -15.05 9.3 -23.05 10.3 -31.05 12.15 -38.9 13.2 -43.75 14.75 -48.45 L15.05 -49.5 15.3 -50.4 15.2 -49.95 16.85 -51.2 17.05 -51.1 18.2 -50.5 18.75 -50.15 18.7 -50.35 M7.9 0.5 L8.05 -4.55" fill="none" stroke="#000000" stroke-linecap="round" stroke-linejoin="round" stroke-width="2.0"/>
    </g>
  </defs>
</svg>
