<?xml version="1.0" encoding="UTF-8" standalone="no"?>
<svg xmlns:xlink="http://www.w3.org/1999/xlink" height="181.85px" width="314.35px" xmlns="http://www.w3.org/2000/svg">
  <g transform="matrix(1, 0, 0, 1, 36.5, 160.85)">
    <use height="63.3" transform="matrix(1.6935, 0.0, 0.0, 0.273, 162.6513, -3.5893)" width="63.3" xlink:href="#shape0"/>
    <use height="63.3" transform="matrix(1.5046, 0.0, 0.0, 0.3269, -31.2213, 5.1549)" width="63.3" xlink:href="#shape0"/>
    <use height="178.35" transform="matrix(1.0, 0.0, 0.0, 1.0, -36.45, -158.9)" width="314.25" xlink:href="#shape1"/>
    <use height="22.1" transform="matrix(-1.0, 0.0, 0.0, 1.0, 25.9, -85.9)" width="31.7" xlink:href="#sprite0"/>
  </g>
  <defs>
    <g id="shape0" transform="matrix(1, 0, 0, 1, 31.65, 31.65)">
      <path d="M0.0 -31.65 Q13.1 -31.65 22.35 -22.4 31.65 -13.1 31.65 0.0 31.65 13.1 22.35 22.35 13.1 31.65 0.0 31.65 -13.1 31.65 -22.4 22.35 -31.65 13.1 -31.65 0.0 -31.65 -13.1 -22.4 -22.4 -13.1 -31.65 0.0 -31.65" fill="#80a559" fill-opacity="0.7019608" fill-rule="evenodd" stroke="none"/>
    </g>
    <g id="shape1" transform="matrix(1, 0, 0, 1, 36.45, 158.9)">
      <path d="M7.7 11.65 L7.4 12.4 6.25 14.2 Q5.45 15.25 3.9 16.15 2.0 17.1 -0.9 17.65 L-7.05 18.4 -13.3 18.25 Q-15.0 18.0 -15.45 17.45 -15.85 16.95 -15.4 16.25 L-14.0 14.95 Q-13.1 14.3 -12.1 13.9 -11.15 13.45 -10.5 13.45 L-8.0 12.8 -4.3 11.2 -1.0 9.65 0.4 8.95 7.7 11.65" fill="#333333" fill-rule="evenodd" stroke="none"/>
      <path d="M0.4 8.95 L-1.0 9.65 -4.3 11.2 -8.0 12.8 -10.5 13.45 Q-11.15 13.45 -12.1 13.9 -13.1 14.3 -14.0 14.95 L-15.4 16.25 Q-15.85 16.95 -15.45 17.45 -15.0 18.0 -13.3 18.25 L-7.05 18.4 -0.9 17.65 Q2.0 17.1 3.9 16.15 5.45 15.25 6.25 14.2 L7.4 12.4 7.7 11.65" fill="none" stroke="#000000" stroke-linecap="round" stroke-linejoin="round" stroke-width="2.0"/>
      <path d="M-21.15 -49.65 L-19.75 -49.6 -16.35 -49.3 Q-14.3 -48.95 -12.15 -48.05 -10.1 -47.2 -8.55 -45.55 -7.5 -44.2 -7.95 -42.4 -8.45 -40.7 -9.85 -38.85 -11.3 -37.0 -12.9 -35.4 L-15.75 -32.9 -16.95 -31.9 Q-19.75 -32.85 -21.55 -34.55 -23.45 -36.3 -24.45 -38.1 L-26.0 -41.15 -26.4 -42.5 -21.15 -49.65" fill="#333333" fill-rule="evenodd" stroke="none"/>
      <path d="M-21.15 -49.65 L-26.4 -42.5 -26.0 -41.15 -24.45 -38.1 Q-23.45 -36.3 -21.55 -34.55 -19.75 -32.85 -16.95 -31.9 L-15.75 -32.9 -12.9 -35.4 Q-11.3 -37.0 -9.85 -38.85 -8.45 -40.7 -7.95 -42.4 -7.5 -44.2 -8.55 -45.55 -10.1 -47.2 -12.15 -48.05 -14.3 -48.95 -16.35 -49.3 L-19.75 -49.6 -21.15 -49.65" fill="none" stroke="#000000" stroke-linecap="round" stroke-linejoin="round" stroke-width="2.0"/>
      <path d="M66.8 -118.95 Q67.05 -118.1 66.55 -117.65 L64.9 -117.55 Q63.9 -117.85 62.9 -118.7 L62.55 -119.0 62.9 -119.3 63.25 -119.55 63.6 -119.2 64.55 -118.65 Q65.1 -118.5 65.35 -118.65 65.6 -118.9 65.5 -119.3 L64.9 -120.15 64.5 -120.45 64.85 -120.7 65.2 -120.95 65.6 -120.7 Q66.55 -119.8 66.8 -118.95" fill="#c1c1c6" fill-rule="evenodd" stroke="none"/>
      <path d="M66.8 -118.95 Q66.55 -119.8 65.6 -120.7 L65.2 -120.95 64.85 -120.7 64.5 -120.45 64.9 -120.15 65.5 -119.3 Q65.6 -118.9 65.35 -118.65 65.1 -118.5 64.55 -118.65 L63.6 -119.2 63.25 -119.55 62.9 -119.3 62.55 -119.0 62.9 -118.7 Q63.9 -117.85 64.9 -117.55 L66.55 -117.65 Q67.05 -118.1 66.8 -118.95" fill="none" stroke="#000000" stroke-linecap="round" stroke-linejoin="round" stroke-width="1.0"/>
      <path d="M33.9 -94.9 Q34.25 -93.95 33.8 -93.45 L32.3 -93.3 Q31.3 -93.6 30.35 -94.55 L30.0 -94.9 30.25 -95.2 30.55 -95.5 30.9 -95.1 31.9 -94.5 32.6 -94.55 Q32.8 -94.85 32.65 -95.3 L32.0 -96.25 31.6 -96.55 32.2 -97.1 32.6 -96.8 Q33.55 -95.85 33.9 -94.9" fill="#c1c1c6" fill-rule="evenodd" stroke="none"/>
      <path d="M33.9 -94.9 Q33.55 -95.85 32.6 -96.8 L32.2 -97.1 31.6 -96.55 32.0 -96.25 32.65 -95.3 Q32.8 -94.85 32.6 -94.55 L31.9 -94.5 30.9 -95.1 30.55 -95.5 30.25 -95.2 30.0 -94.9 30.35 -94.55 Q31.3 -93.6 32.3 -93.3 L33.8 -93.45 Q34.25 -93.95 33.9 -94.9" fill="none" stroke="#000000" stroke-linecap="round" stroke-linejoin="round" stroke-width="1.0"/>
      <path d="M9.25 -72.85 L8.9 -73.15 9.45 -73.8 9.8 -73.5 11.0 -71.55 Q11.3 -70.6 10.9 -70.05 10.45 -69.5 9.55 -69.8 8.7 -70.05 7.75 -70.95 L7.45 -71.3 7.7 -71.65 8.0 -72.0 8.25 -71.6 9.15 -71.0 Q9.6 -70.9 9.8 -71.15 10.0 -71.45 9.85 -71.9 L9.25 -72.85" fill="#c1c1c6" fill-rule="evenodd" stroke="none"/>
      <path d="M9.25 -72.85 L9.85 -71.9 Q10.0 -71.45 9.8 -71.15 9.6 -70.9 9.15 -71.0 L8.25 -71.6 8.0 -72.0 7.7 -71.65 7.45 -71.3 7.75 -70.95 Q8.7 -70.05 9.55 -69.8 10.45 -69.5 10.9 -70.05 11.3 -70.6 11.0 -71.55 L9.8 -73.5 9.45 -73.8 8.9 -73.15 9.25 -72.85" fill="none" stroke="#000000" stroke-linecap="round" stroke-linejoin="round" stroke-width="1.0"/>
      <path d="M-13.7 -46.8 L-13.95 -47.05 -13.7 -47.4 -13.5 -47.8 -13.2 -47.5 Q-12.5 -46.7 -12.3 -45.75 -12.1 -44.85 -12.45 -44.25 -12.9 -43.65 -13.6 -43.8 -14.35 -43.9 -15.1 -44.7 L-15.35 -45.0 -15.1 -45.35 -14.85 -45.7 -14.6 -45.4 -13.9 -44.95 Q-13.5 -44.9 -13.3 -45.2 -13.15 -45.5 -13.25 -45.95 L-13.7 -46.8" fill="#c1c1c6" fill-rule="evenodd" stroke="none"/>
      <path d="M-13.7 -46.8 L-13.25 -45.95 Q-13.15 -45.5 -13.3 -45.2 -13.5 -44.9 -13.9 -44.95 L-14.6 -45.4 -14.85 -45.7 -15.1 -45.35 -15.35 -45.0 -15.1 -44.7 Q-14.35 -43.9 -13.6 -43.8 -12.9 -43.65 -12.45 -44.25 -12.1 -44.85 -12.3 -45.75 -12.5 -46.7 -13.2 -47.5 L-13.5 -47.8 -13.7 -47.4 -13.95 -47.05 -13.7 -46.8" fill="none" stroke="#000000" stroke-linecap="round" stroke-linejoin="round" stroke-width="1.0"/>
      <path d="M101.3 -144.95 Q102.1 -144.25 102.15 -143.5 102.2 -142.8 101.55 -142.4 L99.9 -142.25 Q98.9 -142.45 98.1 -143.15 L97.85 -143.45 98.3 -143.7 98.7 -143.9 98.95 -143.6 Q99.35 -143.25 99.8 -143.15 L100.6 -143.2 Q100.95 -143.45 100.9 -143.8 L100.5 -144.5 100.15 -144.75 100.6 -144.95 101.05 -145.2 101.3 -144.95" fill="#c1c1c6" fill-rule="evenodd" stroke="none"/>
      <path d="M101.3 -144.95 L101.05 -145.2 100.6 -144.95 100.15 -144.75 100.5 -144.5 100.9 -143.8 Q100.95 -143.45 100.6 -143.2 L99.8 -143.15 Q99.35 -143.25 98.95 -143.6 L98.7 -143.9 98.3 -143.7 97.85 -143.45 98.1 -143.15 Q98.9 -142.45 99.9 -142.25 L101.55 -142.4 Q102.2 -142.8 102.15 -143.5 102.1 -144.25 101.3 -144.95" fill="none" stroke="#000000" stroke-linecap="round" stroke-linejoin="round" stroke-width="1.0"/>
      <path d="M130.05 -157.9 Q130.55 -157.4 130.35 -156.75 L129.45 -155.75 127.8 -155.55 Q126.9 -155.7 126.35 -156.25 L126.15 -156.45 126.65 -156.7 127.15 -156.9 127.3 -156.7 Q127.55 -156.4 128.0 -156.35 L128.8 -156.45 129.25 -156.95 129.1 -157.5 128.85 -157.65 129.3 -157.85 129.8 -158.1 130.05 -157.9" fill="#c1c1c6" fill-rule="evenodd" stroke="none"/>
      <path d="M130.05 -157.9 L129.8 -158.1 129.3 -157.85 128.85 -157.65 129.1 -157.5 129.25 -156.95 128.8 -156.45 128.0 -156.35 Q127.55 -156.4 127.3 -156.7 L127.15 -156.9 126.65 -156.7 126.15 -156.45 126.35 -156.25 Q126.9 -155.7 127.8 -155.55 L129.45 -155.75 130.35 -156.75 Q130.55 -157.4 130.05 -157.9" fill="none" stroke="#000000" stroke-linecap="round" stroke-linejoin="round" stroke-width="1.0"/>
      <path d="M-12.85 -21.85 Q-12.25 -24.55 -12.3 -27.85 -12.4 -31.2 -12.9 -34.6 L-13.8 -40.9 -14.45 -45.6 Q-14.6 -47.45 -14.05 -47.6 L-8.4 -49.1 Q-5.3 -49.95 -2.15 -51.6 1.0 -53.25 3.55 -56.1 6.1 -59.0 7.5 -63.55 8.9 -68.1 8.6 -74.85 13.85 -74.05 17.6 -75.0 21.4 -76.0 23.95 -78.25 26.5 -80.45 28.05 -83.3 29.6 -86.2 30.4 -89.1 L31.5 -94.5 31.8 -98.3 Q38.0 -98.15 42.65 -99.65 47.35 -101.1 50.75 -103.65 54.2 -106.2 56.55 -109.15 58.85 -112.2 60.4 -115.0 L62.85 -119.95 Q63.75 -122.1 64.3 -122.8 L74.9 -123.3 Q79.5 -124.25 82.9 -126.3 86.3 -128.35 88.85 -130.9 L93.3 -136.0 96.65 -140.65 Q98.2 -142.65 99.65 -143.7 101.05 -144.6 103.75 -145.45 L109.8 -147.3 116.75 -149.65 Q120.35 -151.0 123.55 -152.8 126.75 -154.65 129.05 -157.1" fill="none" stroke="#000000" stroke-linecap="round" stroke-linejoin="round" stroke-width="1.0"/>
      <path d="M130.45 -157.65 Q130.2 -157.25 129.6 -157.3 103.25 -146.05 80.3 -132.0 57.35 -118.0 37.35 -100.85 17.35 -83.75 -0.1 -63.3 -17.55 -42.8 -32.9 -18.7 L-33.3 -18.2 -34.2 -17.6 Q-34.75 -17.45 -35.4 -18.15 -36.0 -19.05 -35.95 -19.9 L-35.65 -21.3 -35.3 -21.85 Q-22.4 -44.1 -6.4 -63.75 9.55 -83.45 29.25 -100.25 44.1 -112.85 60.3 -123.25 76.5 -133.65 93.7 -142.25 110.95 -150.85 128.95 -158.0 L129.35 -158.35 129.95 -158.35 Q130.6 -158.15 130.45 -157.65" fill="#c1c1c6" fill-rule="evenodd" stroke="none"/>
      <path d="M130.45 -157.65 Q130.6 -158.15 129.95 -158.35 L129.35 -158.35 128.95 -158.0 Q110.95 -150.85 93.7 -142.25 76.5 -133.65 60.3 -123.25 44.1 -112.85 29.25 -100.25 9.55 -83.45 -6.4 -63.75 -22.4 -44.1 -35.3 -21.85 L-35.65 -21.3 -35.95 -19.9 Q-36.0 -19.05 -35.4 -18.15 -34.75 -17.45 -34.2 -17.6 L-33.3 -18.2 -32.9 -18.7 Q-17.55 -42.8 -0.1 -63.3 17.35 -83.75 37.35 -100.85 57.35 -118.0 80.3 -132.0 103.25 -146.05 129.6 -157.3 130.2 -157.25 130.45 -157.65" fill="none" stroke="#000000" stroke-linecap="round" stroke-linejoin="round" stroke-width="1.0"/>
      <path d="M127.15 -156.8 L123.85 -155.4 121.0 -154.2 117.8 -152.8 Q92.8 -141.85 70.95 -128.35 49.1 -114.85 30.2 -98.45 11.25 -82.0 -5.1 -62.3 -21.45 -42.55 -35.5 -19.1 L-35.65 -19.85 -35.65 -20.05 Q-21.0 -44.85 -3.65 -65.25 13.7 -85.65 33.95 -102.3 54.1 -118.95 77.35 -132.4 100.65 -145.9 127.15 -156.8 M129.9 -157.9 L129.9 -157.85 Q129.75 -157.75 129.65 -157.75 L129.6 -157.75 129.5 -157.75 129.9 -157.9" fill="#dbdbdd" fill-rule="evenodd" stroke="none"/>
      <path d="M129.75 -158.0 L129.8 -157.95 129.35 -157.8 129.4 -157.85 129.75 -158.0 M121.4 -154.55 L123.2 -155.3 124.8 -155.95 126.7 -156.7 Q100.45 -145.55 77.65 -131.55 54.85 -117.6 35.1 -100.5 15.3 -83.4 -1.85 -62.9 -19.05 -42.45 -34.05 -18.2 L-34.4 -18.1 -34.6 -18.1 Q-20.1 -41.8 -3.45 -61.95 13.2 -82.05 32.4 -98.9 51.6 -115.7 73.75 -129.6 95.9 -143.4 121.4 -154.55" fill="#9a9a9b" fill-rule="evenodd" stroke="none"/>
      <path d="M-12.2 -25.45 Q-11.7 -23.25 -12.35 -21.35 -13.05 -19.5 -14.6 -18.2 -16.1 -16.9 -18.15 -16.45 -21.2 -15.85 -23.5 -17.55 -25.85 -19.2 -26.75 -22.6 -27.35 -24.9 -26.95 -26.95 -26.55 -29.05 -25.35 -30.5 -24.1 -32.0 -22.05 -32.4 -19.95 -32.75 -17.9 -31.9 -15.85 -31.1 -14.3 -29.35 -12.7 -27.7 -12.2 -25.45" fill="#c1c1c6" fill-rule="evenodd" stroke="none"/>
      <path d="M-12.2 -25.45 Q-11.7 -23.25 -12.35 -21.35 -13.05 -19.5 -14.6 -18.2 -16.1 -16.9 -18.15 -16.45 -21.2 -15.85 -23.5 -17.55 -25.85 -19.2 -26.75 -22.6 -27.35 -24.9 -26.95 -26.95 -26.55 -29.05 -25.35 -30.5 -24.1 -32.0 -22.05 -32.4 -19.95 -32.75 -17.9 -31.9 -15.85 -31.1 -14.3 -29.35 -12.7 -27.7 -12.2 -25.45" fill="none" stroke="#000000" stroke-linecap="round" stroke-linejoin="round" stroke-width="1.0"/>
      <path d="M-13.5 -21.0 L-13.25 -20.5 Q-14.0 -19.1 -15.3 -18.1 -16.6 -17.15 -18.25 -16.8 -21.15 -16.3 -23.35 -17.9 -25.6 -19.45 -26.45 -22.65 -26.8 -24.2 -26.75 -25.65 -26.7 -27.15 -26.15 -28.4 L-26.1 -28.4 Q-26.35 -24.65 -24.6 -22.3 -22.85 -19.95 -19.6 -19.6 -16.45 -19.75 -13.5 -21.0" fill="#b6b6b7" fill-rule="evenodd" stroke="none"/>
      <path d="M-18.0 -31.4 Q-16.1 -30.65 -14.6 -29.05 -13.15 -27.45 -12.65 -25.4 -12.3 -23.75 -12.55 -22.35 -13.8 -25.0 -16.0 -26.75 -18.2 -28.45 -20.75 -29.15 -23.35 -29.8 -25.75 -29.15 -25.15 -30.25 -24.2 -30.95 -23.25 -31.65 -21.95 -31.9 -20.0 -32.2 -18.0 -31.4" fill="#d6d6d8" fill-rule="evenodd" stroke="none"/>
      <path d="M-25.1 -26.2 Q-24.8 -27.75 -23.85 -28.8 -22.95 -29.85 -21.4 -30.15 L-18.4 -29.8 Q-16.95 -29.25 -15.8 -28.0 -14.75 -26.75 -14.3 -25.15 -13.8 -22.65 -15.05 -20.85 -16.3 -19.0 -18.55 -18.45 -20.8 -18.05 -22.6 -19.3 -24.35 -20.6 -25.0 -23.05 -25.4 -24.7 -25.1 -26.2" fill="#d8d8d8" fill-rule="evenodd" stroke="none"/>
      <path d="M-18.75 -29.45 Q-17.5 -29.0 -16.5 -28.05 -15.45 -27.05 -14.95 -25.75 -16.5 -27.3 -18.35 -28.25 -20.25 -29.15 -22.25 -29.4 L-21.3 -29.7 -18.75 -29.45" fill="#e3e3e5" fill-rule="evenodd" stroke="none"/>
      <path d="M-19.55 -19.55 L-16.3 -20.05 Q-17.25 -19.15 -18.65 -18.85 -20.3 -18.55 -21.8 -19.3 -23.2 -20.05 -24.05 -21.65 -22.35 -19.85 -19.55 -19.55" fill="#bbbbbc" fill-rule="evenodd" stroke="none"/>
      <path d="M-15.75 -19.25 L-13.9 -16.1 -14.6 -15.7 -15.3 -15.3 -17.1 -18.45 -18.8 -21.2 -20.85 -24.5 -20.2 -24.95 -19.55 -25.35 -17.5 -22.05 -15.75 -19.25" fill="#6d6d70" fill-rule="evenodd" stroke="none"/>
      <path d="M-15.75 -19.25 L-13.9 -16.1 -14.6 -15.7 -15.3 -15.3 -17.1 -18.45 -18.8 -21.2 -20.85 -24.5 -20.2 -24.95 -19.55 -25.35 -17.5 -22.05 -15.75 -19.25" fill="none" stroke="#000000" stroke-linecap="round" stroke-linejoin="round" stroke-width="1.0"/>
      <path d="M-14.5 -16.3 L-14.65 -16.2 -17.05 -20.4 -19.8 -24.7 -19.65 -24.8 -18.7 -23.25 -17.05 -20.55 -15.4 -17.8 -14.5 -16.3" fill="#7b7b7c" fill-rule="evenodd" stroke="none"/>
      <path d="M-20.0 -24.55 L-17.45 -20.3 -15.05 -16.0 -15.2 -15.85 -16.05 -17.4 -17.7 -20.1 -19.4 -22.85 -20.3 -24.4 -20.0 -24.55" fill="#59595b" fill-rule="evenodd" stroke="none"/>
      <path d="M-12.15 -16.2 Q-11.95 -15.8 -12.05 -15.4 L-12.5 -14.8 -13.75 -14.1 -14.95 -13.45 -15.7 -13.35 -16.3 -13.85 -16.4 -14.65 -16.0 -15.25 -14.75 -15.95 -13.55 -16.65 -12.8 -16.7 Q-12.4 -16.55 -12.15 -16.2" fill="#6d6d70" fill-rule="evenodd" stroke="none"/>
      <path d="M-12.15 -16.2 Q-11.95 -15.8 -12.05 -15.4 L-12.5 -14.8 -13.75 -14.1 -14.95 -13.45 -15.7 -13.35 -16.3 -13.85 -16.4 -14.65 -16.0 -15.25 -14.75 -15.95 -13.55 -16.65 -12.8 -16.7 Q-12.4 -16.55 -12.15 -16.2" fill="none" stroke="#000000" stroke-linecap="round" stroke-linejoin="round" stroke-width="1.0"/>
      <path d="M-15.7 -14.95 Q-14.95 -14.4 -14.25 -14.35 L-14.7 -14.05 -15.2 -13.8 -15.55 -13.75 -15.95 -14.05 -16.0 -14.55 -15.8 -14.9 -15.7 -14.95" fill="#59595b" fill-rule="evenodd" stroke="none"/>
      <path d="M-12.7 -15.25 L-12.8 -15.15 -14.55 -15.7 -13.95 -16.0 -13.35 -16.35 -12.95 -16.4 -12.5 -16.05 -12.45 -15.6 Q-12.5 -15.35 -12.7 -15.25" fill="#7b7b7c" fill-rule="evenodd" stroke="none"/>
      <path d="M-18.05 -24.55 Q-17.9 -23.75 -18.3 -23.1 -18.65 -22.5 -19.4 -22.3 -20.15 -22.2 -20.75 -22.6 -21.4 -23.05 -21.6 -23.9 -21.8 -24.7 -21.45 -25.35 -21.1 -26.0 -20.35 -26.2 -19.55 -26.3 -18.95 -25.85 -18.3 -25.4 -18.05 -24.55" fill="#6d6d70" fill-rule="evenodd" stroke="none"/>
      <path d="M-18.05 -24.55 Q-17.9 -23.75 -18.3 -23.1 -18.65 -22.5 -19.4 -22.3 -20.15 -22.2 -20.75 -22.6 -21.4 -23.05 -21.6 -23.9 -21.8 -24.7 -21.45 -25.35 -21.1 -26.0 -20.35 -26.2 -19.55 -26.3 -18.95 -25.85 -18.3 -25.4 -18.05 -24.55" fill="none" stroke="#000000" stroke-linecap="round" stroke-linejoin="round" stroke-width="1.0"/>
      <path d="M-18.4 -24.2 L-19.45 -25.2 -20.85 -25.35 -20.2 -25.75 -19.1 -25.5 Q-18.6 -25.15 -18.45 -24.5 L-18.4 -24.2" fill="#7b7b7c" fill-rule="evenodd" stroke="none"/>
      <path d="M-21.2 -24.65 Q-20.45 -23.8 -19.8 -23.7 L-18.4 -23.85 Q-18.45 -23.4 -18.75 -23.1 -19.05 -22.8 -19.45 -22.75 -20.05 -22.65 -20.55 -23.0 -21.0 -23.3 -21.15 -23.95 L-21.2 -24.65" fill="#59595b" fill-rule="evenodd" stroke="none"/>
      <path d="M43.4 -52.1 L45.95 -44.2 Q47.3 -40.6 48.65 -38.25 52.3 -31.9 53.1 -24.2 53.65 -18.1 52.2 -12.25 50.7 -6.5 47.45 -1.45 44.15 3.5 39.4 7.3 34.65 11.05 28.75 13.15 20.95 15.85 14.0 15.75 7.0 15.65 0.95 12.85 -7.85 8.7 -14.5 -1.15 -16.85 -4.7 -18.35 -8.8 -19.85 -12.9 -20.3 -17.4 -20.7 -21.55 -20.15 -25.5 -19.6 -29.5 -18.2 -33.15 L-15.6 -40.05 -12.55 -48.5 -9.75 -57.25 Q-8.45 -61.55 -7.7 -65.05 -7.05 -68.6 -7.2 -70.75 -7.65 -75.4 -6.25 -79.55 -4.9 -83.7 -2.05 -87.05 0.75 -90.4 4.75 -92.5 8.65 -94.6 13.4 -95.05 18.15 -95.5 22.45 -94.15 26.7 -92.8 30.15 -90.05 33.5 -87.3 35.7 -83.45 37.85 -79.6 38.35 -74.95 38.55 -72.4 39.3 -68.7 40.0 -65.0 41.05 -60.65 42.1 -56.35 43.4 -52.1" fill="#666666" fill-rule="evenodd" stroke="none"/>
      <path d="M43.4 -52.1 L45.95 -44.2 Q47.3 -40.6 48.65 -38.25 52.3 -31.9 53.1 -24.2 53.65 -18.1 52.2 -12.25 50.7 -6.5 47.45 -1.45 44.15 3.5 39.4 7.3 34.65 11.05 28.75 13.15 20.95 15.85 14.0 15.75 7.0 15.65 0.95 12.85 -7.85 8.7 -14.5 -1.15 -16.85 -4.7 -18.35 -8.8 -19.85 -12.9 -20.3 -17.4 -20.7 -21.55 -20.15 -25.5 -19.6 -29.5 -18.2 -33.15 L-15.6 -40.05 -12.55 -48.5 -9.75 -57.25 Q-8.45 -61.55 -7.7 -65.05 -7.05 -68.6 -7.2 -70.75 -7.65 -75.4 -6.25 -79.55 -4.9 -83.7 -2.05 -87.05 0.75 -90.4 4.75 -92.5 8.65 -94.6 13.4 -95.05 18.15 -95.5 22.45 -94.15 26.7 -92.8 30.15 -90.05 33.5 -87.3 35.7 -83.45 37.85 -79.6 38.35 -74.95 38.55 -72.4 39.3 -68.7 40.0 -65.0 41.05 -60.65 42.1 -56.35 43.4 -52.1" fill="none" stroke="#000000" stroke-linecap="round" stroke-linejoin="round" stroke-width="2.0"/>
      <path d="M35.35 -82.5 Q37.15 -79.0 37.6 -74.9 37.8 -72.3 38.55 -68.5 L40.35 -60.4 42.7 -51.75 Q43.95 -47.5 45.3 -43.9 46.65 -40.3 48.0 -37.95 51.65 -31.5 52.4 -24.1 53.05 -16.8 50.9 -10.15 48.7 -3.6 44.25 1.7 39.75 6.95 33.55 10.3 27.25 13.65 19.75 14.35 L11.95 14.65 Q8.25 14.5 4.7 13.45 1.1 12.35 -2.4 10.0 L-6.25 6.9 -10.0 3.1 -13.15 -0.2 Q-7.85 4.95 -1.2 7.2 5.6 9.55 13.6 8.8 20.7 8.05 26.65 4.8 32.65 1.5 36.9 -3.75 41.15 -9.0 43.2 -15.55 45.3 -22.05 44.7 -29.35 44.4 -32.0 43.7 -34.4 L42.05 -39.15 Q41.15 -41.55 40.4 -44.05 L40.15 -45.0 39.55 -47.0 38.7 -48.85 37.4 -50.0 Q36.3 -50.4 34.9 -49.7 L35.05 -51.3 34.6 -55.5 33.5 -59.95 32.7 -63.1 Q32.05 -65.9 31.75 -69.3 L31.1 -75.95 30.85 -78.7 Q30.45 -82.85 28.6 -86.45 26.7 -90.15 23.65 -92.9 27.55 -91.4 30.55 -88.7 33.5 -86.05 35.35 -82.5" fill="#333333" fill-rule="evenodd" stroke="none"/>
      <path d="M29.75 -80.3 Q30.4 -77.45 30.4 -74.5 L30.35 -73.8 30.35 -72.35 30.55 -66.35 31.15 -59.1 32.05 -51.55 Q32.55 -47.85 33.25 -44.7 33.85 -41.6 34.6 -39.45 36.6 -33.75 36.65 -27.55 L36.65 -26.35 Q36.45 -21.65 35.15 -17.25 33.85 -12.85 31.5 -9.0 29.15 -5.2 25.9 -2.2 21.8 1.5 16.9 3.4 12.0 5.3 6.75 5.15 1.25 5.0 -3.55 2.7 -8.45 0.4 -12.25 -3.65 -16.05 -7.75 -18.35 -13.3 -18.95 -15.65 -19.15 -18.05 L-19.35 -21.4 Q-19.35 -27.55 -17.15 -33.3 L-16.8 -34.3 -14.3 -40.9 -11.55 -48.55 -9.0 -56.4 -7.1 -63.55 Q-6.45 -66.8 -6.4 -69.0 -5.2 -72.85 -5.15 -74.9 -5.0 -79.4 -3.15 -83.45 L-1.55 -85.75 0.5 -88.05 Q1.6 -89.1 2.8 -89.55 L6.1 -89.45 Q7.6 -88.9 8.45 -87.9 9.3 -86.95 9.0 -86.2 9.75 -87.6 11.3 -88.4 12.85 -89.25 14.7 -89.55 L18.25 -89.7 20.65 -89.25 22.75 -88.65 Q25.65 -87.6 27.35 -85.35 29.05 -83.15 29.75 -80.3" fill="#cccccc" fill-rule="evenodd" stroke="none"/>
      <path d="M0.75 -88.3 L2.8 -89.55 5.65 -89.6 3.95 -87.65 2.55 -85.8 Q0.5 -81.75 0.1 -77.1 -0.1 -75.0 -1.5 -71.1 -1.65 -68.85 -2.55 -65.45 -3.4 -62.15 -4.8 -58.25 L-7.8 -50.3 -10.95 -42.55 -13.75 -35.9 -14.25 -34.85 Q-16.75 -29.0 -17.05 -22.7 L-17.05 -19.25 -16.55 -14.3 Q-14.35 -8.0 -10.35 -3.4 -6.35 1.2 -1.1 3.7 -6.8 1.65 -11.25 -2.65 -15.7 -7.05 -18.35 -13.3 -18.95 -15.65 -19.15 -18.05 L-19.35 -21.4 Q-19.35 -27.55 -17.15 -33.3 L-17.05 -33.55 -16.9 -34.05 -16.8 -34.35 -12.2 -46.7 Q-10.9 -50.35 -9.75 -54.05 -8.55 -57.7 -7.6 -61.4 -6.9 -64.4 -6.6 -67.3 L-6.2 -73.3 -5.75 -77.25 Q-5.45 -79.25 -4.5 -81.1 L-2.4 -84.55 -0.95 -86.5 0.75 -88.3" fill="#e5e5e5" fill-rule="evenodd" stroke="none"/>
      <path d="M27.15 -82.6 Q26.45 -85.45 24.7 -87.7 26.85 -86.35 28.1 -84.25 29.35 -82.15 29.85 -79.6 30.35 -77.1 30.35 -74.55 L30.35 -73.8 30.3 -72.3 30.55 -66.3 31.1 -59.05 Q31.5 -55.3 32.05 -51.55 32.55 -47.9 33.2 -44.7 33.85 -41.6 34.6 -39.45 36.6 -33.75 36.6 -27.55 L36.6 -26.35 Q36.45 -21.65 35.15 -17.25 33.8 -12.85 31.45 -9.05 29.1 -5.2 25.85 -2.2 21.8 1.5 16.9 3.45 12.0 5.3 6.75 5.2 1.55 4.95 -3.05 2.9 -7.75 0.85 -11.45 -2.85 -8.05 -0.2 -4.1 1.3 -0.1 2.8 4.25 2.95 9.5 3.1 14.4 1.2 19.3 -0.7 23.4 -4.4 26.65 -7.45 29.0 -11.25 31.3 -15.1 32.65 -19.45 33.95 -23.85 34.1 -28.55 L34.15 -29.75 Q34.1 -35.95 32.1 -41.7 31.35 -43.8 30.7 -46.9 30.05 -50.05 29.5 -53.75 L28.6 -61.3 28.05 -68.55 Q27.8 -71.95 27.85 -74.55 L27.85 -76.05 27.85 -76.75 Q27.85 -79.75 27.15 -82.6" fill="#b4b4b4" fill-rule="evenodd" stroke="none"/>
      <path d="M20.15 -57.0 L18.15 -54.25 15.25 -51.0 Q13.7 -49.45 12.0 -48.4 10.35 -47.4 8.85 -47.5 7.35 -47.75 6.25 -49.0 5.05 -50.2 4.25 -51.9 3.4 -53.6 2.9 -55.3 L2.1 -58.1 1.85 -59.25 20.95 -58.2 20.15 -57.0" fill="#b4b4b4" fill-rule="evenodd" stroke="none"/>
      <path d="M45.3 -44.2 Q46.55 -43.85 47.4 -42.5 48.15 -41.15 48.55 -39.25 L49.05 -35.3 49.05 -31.45 48.75 -28.6 Q48.2 -25.65 46.75 -23.05 45.35 -20.5 43.05 -18.45 L39.2 -15.8 Q37.0 -14.6 34.6 -13.9 32.25 -13.15 29.95 -13.15 28.85 -13.2 28.65 -13.6 28.35 -14.05 28.45 -14.55 L28.6 -15.0 30.15 -17.45 32.2 -21.55 Q33.25 -23.9 33.85 -26.15 34.5 -29.0 34.3 -31.15 L33.75 -34.55 Q33.45 -35.4 33.45 -34.85 L33.35 -36.6 33.75 -38.55 Q34.0 -39.75 34.75 -40.95 L45.3 -44.2" fill="#666666" fill-rule="evenodd" stroke="none"/>
      <path d="M45.3 -44.2 Q46.55 -43.85 47.4 -42.5 48.15 -41.15 48.55 -39.25 L49.05 -35.3 49.05 -31.45 48.75 -28.6 Q48.2 -25.65 46.75 -23.05 45.35 -20.5 43.05 -18.45 L39.2 -15.8 Q37.0 -14.6 34.6 -13.9 32.25 -13.15 29.95 -13.15 28.85 -13.2 28.65 -13.6 28.35 -14.05 28.45 -14.55 L28.6 -15.0 30.15 -17.45 32.2 -21.55 Q33.25 -23.9 33.85 -26.15 34.5 -29.0 34.3 -31.15 L33.75 -34.55 Q33.45 -35.4 33.45 -34.85 M33.35 -36.6 L33.75 -38.55 Q34.0 -39.75 34.75 -40.95" fill="none" stroke="#000000" stroke-linecap="round" stroke-linejoin="round" stroke-width="2.0"/>
      <path d="M39.25 -42.1 L40.45 -43.2 41.25 -43.8 43.0 -43.85 44.65 -43.05 46.35 -42.8 Q48.3 -37.7 48.35 -32.65 48.45 -27.65 46.2 -23.4 43.95 -19.15 39.0 -16.3 41.1 -19.9 42.65 -23.5 44.25 -27.15 45.05 -30.15 L45.05 -30.25 Q45.5 -32.65 44.5 -34.45 43.45 -36.25 41.8 -37.55 L38.45 -40.0 Q38.05 -40.3 38.35 -40.85 L39.25 -42.1" fill="#333333" fill-rule="evenodd" stroke="none"/>
      <path d="M34.6 -25.35 L33.5 -21.4 Q32.9 -19.35 32.75 -17.95 32.5 -16.55 33.15 -16.35 34.65 -16.15 36.95 -17.2 39.2 -18.25 41.55 -19.9 43.9 -21.55 45.65 -23.3 47.35 -25.1 47.8 -26.35 46.8 -23.15 45.0 -20.95 43.2 -18.75 41.0 -17.3 38.8 -15.9 36.7 -15.1 34.55 -14.3 32.85 -13.95 L30.4 -13.5 29.95 -13.45 29.3 -13.55 28.8 -13.9 28.75 -14.4 28.85 -14.8 30.45 -17.4 32.55 -21.55 Q33.55 -23.9 34.15 -26.1 L35.05 -30.1 35.1 -28.7 Q35.05 -27.4 34.6 -25.35" fill="#999999" fill-rule="evenodd" stroke="none"/>
      <path d="M16.95 -55.45 Q15.0 -54.0 12.85 -52.9 10.75 -51.85 8.85 -51.85 7.0 -52.0 5.75 -53.1 4.45 -54.25 3.7 -55.65 L2.6 -58.15 2.25 -59.25 21.25 -59.2 20.05 -58.0 16.95 -55.45" fill="#d8a235" fill-rule="evenodd" stroke="none"/>
      <path d="M16.95 -55.45 Q15.0 -54.0 12.85 -52.9 10.75 -51.85 8.85 -51.85 7.0 -52.0 5.75 -53.1 4.45 -54.25 3.7 -55.65 L2.6 -58.15 2.25 -59.25 21.25 -59.2 20.05 -58.0 16.95 -55.45" fill="none" stroke="#000000" stroke-linecap="round" stroke-linejoin="round" stroke-width="1.0"/>
      <path d="M11.85 -54.7 Q10.5 -54.0 9.2 -54.0 7.8 -54.05 7.0 -54.75 6.15 -55.45 5.75 -56.3 L5.2 -57.9 5.1 -58.6 16.9 -58.55 16.2 -57.85 14.35 -56.25 11.85 -54.7" fill="#c12d05" fill-rule="evenodd" stroke="none"/>
      <path d="M11.85 -54.7 Q10.5 -54.0 9.2 -54.0 7.8 -54.05 7.0 -54.75 6.15 -55.45 5.75 -56.3 L5.2 -57.9 5.1 -58.6 16.9 -58.55 16.2 -57.85 14.35 -56.25 11.85 -54.7" fill="none" stroke="#000000" stroke-linecap="round" stroke-linejoin="round" stroke-width="1.0"/>
      <path d="M12.85 -58.2 L14.9 -58.2 16.1 -58.2 14.35 -56.65 11.85 -55.0 Q10.5 -54.3 9.2 -54.3 7.7 -54.4 6.9 -55.3 8.8 -55.15 10.4 -55.9 12.05 -56.6 12.85 -58.2" fill="#9b0d0d" fill-rule="evenodd" stroke="none"/>
      <path d="M19.25 -61.2 L21.7 -60.8 Q22.4 -60.75 22.4 -60.5 L21.85 -59.4 Q21.45 -58.7 20.3 -58.35 L17.65 -57.9 14.8 -57.8 12.85 -57.8 10.15 -57.8 7.45 -57.55 4.9 -56.9 2.55 -56.4 Q1.45 -56.25 0.5 -56.8 -0.45 -57.35 -1.3 -58.95 L-1.85 -58.85 -3.05 -58.85 Q-3.75 -58.9 -4.15 -59.4 -4.55 -59.95 -4.45 -60.6 L-4.0 -61.75 -3.75 -62.3 -2.45 -62.75 Q-1.3 -63.15 0.35 -63.9 L3.5 -65.55 Q4.95 -66.45 5.6 -67.5 6.05 -68.2 6.55 -68.15 L7.6 -67.5 8.45 -66.4 9.05 -65.5 Q9.75 -64.55 10.7 -63.9 11.6 -63.25 12.7 -62.75 14.25 -62.1 15.9 -61.75 L19.25 -61.2" fill="#f9c248" fill-rule="evenodd" stroke="none"/>
      <path d="M19.25 -61.2 L15.9 -61.75 Q14.25 -62.1 12.7 -62.75 11.6 -63.25 10.7 -63.9 9.75 -64.55 9.05 -65.5 L8.45 -66.4 7.6 -67.5 6.55 -68.15 Q6.05 -68.2 5.6 -67.5 4.95 -66.45 3.5 -65.55 L0.35 -63.9 Q-1.3 -63.15 -2.45 -62.75 L-3.75 -62.3 -4.0 -61.75 -4.45 -60.6 Q-4.55 -59.95 -4.15 -59.4 -3.75 -58.9 -3.05 -58.85 L-1.85 -58.85 -1.3 -58.95 Q-0.45 -57.35 0.5 -56.8 1.45 -56.25 2.55 -56.4 L4.9 -56.9 7.45 -57.55 10.15 -57.8 12.85 -57.8 14.8 -57.8 17.65 -57.9 20.3 -58.35 Q21.45 -58.7 21.85 -59.4 L22.4 -60.5 Q22.4 -60.75 21.7 -60.8 L19.25 -61.2" fill="none" stroke="#000000" stroke-linecap="round" stroke-linejoin="round" stroke-width="1.0"/>
      <path d="M19.8 -58.6 L16.85 -58.2 14.15 -58.2 11.2 -58.15 7.65 -57.95 5.2 -57.3 2.85 -56.7 0.85 -56.9 Q-0.05 -57.35 -0.85 -58.85 L-0.75 -59.35 -1.05 -59.3 -1.9 -59.15 -3.0 -59.15 Q-3.55 -59.25 -3.9 -59.55 L-4.1 -60.35 -3.95 -61.15 -3.45 -60.7 -2.95 -60.15 Q-2.45 -60.0 -1.9 -60.15 L-0.85 -60.25 -0.2 -59.8 0.4 -59.2 Q1.05 -58.8 1.8 -58.55 L3.35 -58.6 4.6 -59.3 6.0 -59.9 7.3 -59.8 8.6 -59.55 13.7 -59.1 18.25 -59.35 19.1 -59.35 20.55 -59.7 Q21.35 -59.9 22.0 -60.5 L22.0 -60.35 21.85 -60.0 21.6 -59.55 Q21.2 -58.85 19.8 -58.6" fill="#d8a235" fill-rule="evenodd" stroke="none"/>
      <path d="M7.65 -63.1 L7.35 -62.1 6.5 -62.2 Q6.0 -62.4 6.35 -62.6 L7.15 -62.95 7.65 -63.1" fill="#d8a235" fill-rule="evenodd" stroke="none"/>
      <path d="M8.25 -66.05 L8.6 -65.4 Q7.75 -65.5 7.25 -65.9 L6.5 -66.35 5.75 -66.0 4.9 -65.3 4.5 -64.95 0.6 -62.8 Q-0.95 -62.15 -1.8 -62.05 L-3.0 -62.1 -3.3 -62.25 Q-0.45 -62.85 1.55 -63.95 L4.65 -65.95 5.7 -66.9 6.2 -67.55 6.6 -67.7 Q7.0 -67.75 7.45 -67.2 L8.25 -66.05" fill="#ffe4b3" fill-rule="evenodd" stroke="none"/>
      <path d="M-15.7 -53.4 Q-12.4 -52.15 -11.0 -50.95 -9.65 -49.8 -10.2 -48.5 L-11.55 -46.55 Q-12.55 -45.3 -14.3 -43.95 -16.1 -42.6 -18.7 -41.75 -21.3 -40.9 -24.75 -41.15 -26.3 -41.3 -26.85 -42.05 -27.5 -42.85 -27.3 -43.85 -27.1 -44.85 -26.25 -45.55 L-25.7 -45.95 Q-23.65 -47.0 -22.35 -48.65 -21.05 -50.25 -21.05 -52.85 L-20.65 -53.35 Q-20.25 -53.85 -19.05 -54.0 -17.95 -54.2 -15.7 -53.4" fill="#666666" fill-rule="evenodd" stroke="none"/>
      <path d="M-15.7 -53.4 Q-12.4 -52.15 -11.0 -50.95 -9.65 -49.8 -10.2 -48.5 L-11.55 -46.55 Q-12.55 -45.3 -14.3 -43.95 -16.1 -42.6 -18.7 -41.75 -21.3 -40.9 -24.75 -41.15 -26.3 -41.3 -26.85 -42.05 -27.5 -42.85 -27.3 -43.85 -27.1 -44.85 -26.25 -45.55 L-25.7 -45.95 Q-23.65 -47.0 -22.35 -48.65 -21.05 -50.25 -21.05 -52.85 L-20.65 -53.35 Q-20.25 -53.85 -19.05 -54.0 -17.95 -54.2 -15.7 -53.4" fill="none" stroke="#000000" stroke-linecap="round" stroke-linejoin="round" stroke-width="2.0"/>
      <path d="M-15.35 -51.95 Q-16.55 -52.2 -17.35 -51.95 -18.65 -51.35 -19.5 -50.25 L-21.15 -47.75 -22.5 -45.55 Q-23.25 -44.55 -24.3 -43.9 -25.3 -43.3 -26.85 -43.3 L-26.65 -44.25 -25.95 -45.1 -25.45 -45.45 Q-24.2 -46.1 -23.1 -47.05 -22.0 -48.0 -21.25 -49.35 -20.55 -50.7 -20.55 -52.65 L-20.1 -53.15 -18.65 -53.45 -15.9 -52.85 Q-13.8 -52.1 -12.5 -51.35 -10.95 -50.45 -10.65 -49.65 -10.45 -49.2 -10.65 -48.7 L-10.8 -48.5 Q-11.15 -49.75 -12.35 -50.7 L-13.0 -51.15 Q-14.2 -51.8 -15.35 -51.95" fill="#999999" fill-rule="evenodd" stroke="none"/>
      <path d="M33.75 6.55 L34.95 7.65 38.1 10.0 Q40.1 11.35 42.65 12.3 45.2 13.2 47.95 13.05 L48.25 13.5 48.55 14.7 Q48.55 15.4 47.8 16.1 47.0 16.75 45.0 17.2 L43.05 17.35 38.35 17.35 32.25 16.9 Q29.05 16.5 26.25 15.5 23.5 14.5 21.9 12.65 L33.75 6.55" fill="#333333" fill-rule="evenodd" stroke="none"/>
      <path d="M33.75 6.55 L34.95 7.65 38.1 10.0 Q40.1 11.35 42.65 12.3 45.2 13.2 47.95 13.05 L48.25 13.5 48.55 14.7 Q48.55 15.4 47.8 16.1 47.0 16.75 45.0 17.2 L43.05 17.35 38.35 17.35 32.25 16.9 Q29.05 16.5 26.25 15.5 23.5 14.5 21.9 12.65" fill="none" stroke="#000000" stroke-linecap="round" stroke-linejoin="round" stroke-width="2.0"/>
      <path d="M274.5 -6.5 L275.75 -3.4 276.45 -0.55 Q276.55 0.7 275.95 1.25 L274.65 1.3 273.1 0.1 270.85 -1.55 Q269.5 -2.35 267.5 -2.85 L262.65 -3.05 256.3 -1.65 246.25 1.0 233.45 4.0 Q226.5 5.45 219.0 6.3 L203.85 6.95 Q196.25 6.8 189.1 5.1 181.9 3.35 175.7 -0.4 168.55 -4.8 164.3 -9.8 160.1 -14.8 158.05 -19.8 156.05 -24.85 155.55 -29.35 155.1 -33.9 155.45 -37.5 155.85 -41.0 156.4 -43.1 156.95 -45.15 157.05 -45.2 156.95 -45.2 155.75 -46.1 154.5 -47.0 152.85 -48.9 151.15 -50.85 149.8 -53.8 148.4 -56.8 148.05 -60.85 147.65 -64.95 149.0 -70.25 L149.25 -71.1 149.35 -73.05 Q149.25 -74.2 148.5 -75.05 L146.9 -76.75 Q146.15 -77.65 146.0 -78.45 145.85 -79.3 146.9 -79.85 147.75 -80.2 149.0 -79.85 L151.45 -78.9 153.5 -77.75 154.4 -77.15 154.75 -78.45 155.95 -81.55 Q156.7 -83.45 157.95 -85.35 159.15 -87.3 160.8 -88.7 162.45 -90.15 164.5 -90.5 L165.3 -90.3 167.45 -88.95 Q168.75 -87.75 170.35 -85.2 171.6 -83.15 173.4 -80.9 175.15 -78.7 177.3 -76.7 179.45 -74.7 181.6 -73.4 183.8 -72.05 185.85 -71.85 L186.95 -71.5 Q187.95 -71.1 189.55 -70.1 191.15 -69.1 192.9 -67.1 194.6 -65.15 196.0 -62.0 197.45 -58.85 198.1 -54.25 L199.4 -43.35 Q199.9 -38.3 200.7 -34.05 201.5 -29.8 203.15 -26.4 204.75 -23.05 207.7 -20.65 L212.7 -16.8 Q215.4 -14.85 218.85 -13.1 222.3 -11.35 227.05 -9.95 231.8 -8.5 238.3 -7.5 L253.55 -6.25 255.25 -7.05 259.3 -9.15 264.35 -12.1 269.05 -15.3 270.0 -15.85 272.15 -16.9 274.65 -17.55 Q275.85 -17.65 276.5 -16.9 277.05 -16.05 276.6 -14.95 L275.25 -12.65 273.6 -10.75 272.75 -9.95 273.3 -8.95 274.5 -6.5" fill="#a33128" fill-rule="evenodd" stroke="none"/>
      <path d="M274.5 -6.5 L275.75 -3.4 276.45 -0.55 Q276.55 0.7 275.95 1.25 L274.65 1.3 273.1 0.1 270.85 -1.55 Q269.5 -2.35 267.5 -2.85 L262.65 -3.05 256.3 -1.65 246.25 1.0 233.45 4.0 Q226.5 5.45 219.0 6.3 L203.85 6.95 Q196.25 6.8 189.1 5.1 181.9 3.35 175.7 -0.4 168.55 -4.8 164.3 -9.8 160.1 -14.8 158.05 -19.8 156.05 -24.85 155.55 -29.35 155.1 -33.9 155.45 -37.5 155.85 -41.0 156.4 -43.1 156.95 -45.15 157.05 -45.2 156.95 -45.2 155.75 -46.1 154.5 -47.0 152.85 -48.9 151.15 -50.85 149.8 -53.8 148.4 -56.8 148.05 -60.85 147.65 -64.95 149.0 -70.25 L149.25 -71.1 149.35 -73.05 Q149.25 -74.2 148.5 -75.05 L146.9 -76.75 Q146.15 -77.65 146.0 -78.45 145.85 -79.3 146.9 -79.85 147.75 -80.2 149.0 -79.85 L151.45 -78.9 153.5 -77.75 154.4 -77.15 154.75 -78.45 155.95 -81.55 Q156.7 -83.45 157.95 -85.35 159.15 -87.3 160.8 -88.7 162.45 -90.15 164.5 -90.5 L165.3 -90.3 167.45 -88.95 Q168.75 -87.75 170.35 -85.2 171.6 -83.15 173.4 -80.9 175.15 -78.7 177.3 -76.7 179.45 -74.7 181.6 -73.4 183.8 -72.05 185.85 -71.85 L186.95 -71.5 Q187.95 -71.1 189.55 -70.1 191.15 -69.1 192.9 -67.1 194.6 -65.15 196.0 -62.0 197.45 -58.85 198.1 -54.25 L199.4 -43.35 Q199.9 -38.3 200.7 -34.05 201.5 -29.8 203.15 -26.4 204.75 -23.05 207.7 -20.65 L212.7 -16.8 Q215.4 -14.85 218.85 -13.1 222.3 -11.35 227.05 -9.95 231.8 -8.5 238.3 -7.5 L253.55 -6.25 255.25 -7.05 259.3 -9.15 264.35 -12.1 269.05 -15.3 270.0 -15.85 272.15 -16.9 274.65 -17.55 Q275.85 -17.65 276.5 -16.9 277.05 -16.05 276.6 -14.95 L275.25 -12.65 273.6 -10.75 272.75 -9.95 273.3 -8.95 274.5 -6.5" fill="none" stroke="#000000" stroke-linecap="round" stroke-linejoin="round" stroke-width="2.0"/>
      <path d="M192.65 -60.05 Q191.7 -63.15 189.8 -65.9 L185.6 -71.15 185.7 -71.15 187.4 -70.5 Q188.9 -69.9 190.9 -68.15 192.95 -66.4 194.75 -63.0 196.6 -59.65 197.4 -54.15 L198.45 -45.4 Q199.0 -39.8 199.8 -35.05 200.6 -30.3 202.3 -26.55 204.0 -22.75 207.25 -20.1 L207.35 -20.0 Q209.6 -18.15 212.2 -16.3 214.75 -14.45 218.1 -12.75 221.4 -11.0 225.9 -9.55 230.45 -8.1 236.5 -7.1 L250.75 -5.65 Q245.85 -3.2 240.4 -2.35 235.0 -1.55 229.4 -2.1 223.8 -2.65 218.45 -4.35 213.05 -6.0 208.2 -8.55 202.95 -11.25 198.85 -15.5 194.8 -19.75 192.2 -25.15 189.6 -30.5 188.8 -36.45 188.0 -42.4 189.3 -48.45 189.35 -49.0 189.85 -49.5 L191.05 -50.7 192.3 -51.95 Q192.75 -52.6 192.8 -53.35 193.6 -57.0 192.65 -60.05" fill="#ba3b35" fill-rule="evenodd" stroke="none"/>
      <path d="M275.95 -16.5 Q276.35 -15.9 275.85 -14.85 L274.3 -12.6 272.35 -10.5 271.9 -10.15 272.2 -9.65 274.3 -5.25 275.65 -1.4 Q276.05 0.25 275.6 0.65 L275.0 0.65 273.8 -0.3 271.45 -2.05 Q270.0 -2.95 267.9 -3.5 L262.6 -3.75 258.7 -2.95 252.8 -1.4 242.65 1.2 230.2 3.85 216.45 5.8 Q209.4 6.45 202.3 6.15 195.2 5.85 188.55 4.15 181.9 2.45 176.1 -1.0 167.3 -6.4 162.3 -13.5 157.35 -20.65 156.3 -29.4 155.85 -33.85 156.2 -37.35 156.6 -40.8 157.1 -42.8 L157.75 -44.95 157.95 -45.5 157.4 -45.8 156.0 -46.8 Q154.75 -47.75 153.2 -49.6 151.6 -51.45 150.3 -54.35 149.0 -57.15 148.7 -61.1 148.4 -65.0 149.7 -70.0 L149.95 -71.05 Q150.2 -72.0 150.05 -73.25 149.95 -74.55 149.0 -75.55 L148.0 -76.6 147.1 -77.75 Q146.7 -78.35 146.75 -78.75 L146.8 -78.9 147.25 -79.2 149.1 -79.15 151.6 -78.05 154.0 -76.6 154.85 -76.05 155.1 -77.0 155.4 -78.1 156.35 -80.65 157.95 -83.9 Q158.9 -85.65 160.15 -87.05 161.4 -88.55 163.0 -89.3 161.9 -87.3 161.15 -85.1 L159.95 -80.7 Q159.25 -77.7 159.1 -73.95 158.95 -70.2 159.45 -66.2 159.9 -62.2 161.05 -58.45 162.15 -54.65 163.95 -51.55 165.8 -48.55 168.3 -46.65 170.85 -44.75 174.2 -44.55 172.8 -43.65 171.65 -41.3 170.55 -39.05 169.9 -36.05 169.25 -33.0 169.2 -29.85 169.2 -26.7 170.0 -24.0 171.7 -18.1 174.65 -14.0 177.6 -9.95 181.9 -7.15 186.25 -4.35 192.15 -2.3 199.55 0.45 207.65 2.0 215.7 3.6 223.7 3.5 231.65 3.5 238.8 1.3 245.95 -0.9 251.5 -5.65 L253.55 -5.55 253.75 -5.55 253.9 -5.6 255.75 -6.55 259.85 -8.65 264.85 -11.55 Q267.45 -13.15 269.45 -14.75 L271.75 -16.0 Q273.1 -16.6 274.3 -16.8 275.5 -17.05 275.95 -16.5" fill="#842824" fill-rule="evenodd" stroke="none"/>
      <path d="M193.85 -74.55 L199.75 -75.05 Q200.3 -72.8 200.1 -70.7 199.85 -68.5 199.25 -66.7 L198.15 -63.9 197.6 -62.8 192.8 -64.4 Q193.95 -65.25 194.3 -66.85 194.65 -68.5 194.5 -70.25 L194.15 -73.25 193.85 -74.55" fill="#000000" fill-rule="evenodd" stroke="none"/>
      <path d="M174.65 -21.15 Q173.25 -20.95 171.6 -20.1 169.95 -19.3 168.45 -18.3 L166.05 -16.6 165.1 -15.8 Q164.15 -19.4 164.45 -22.05 164.75 -24.65 165.65 -26.35 166.6 -28.05 167.4 -28.85 L168.25 -29.7 174.65 -21.15" fill="#a33128" fill-rule="evenodd" stroke="none"/>
      <path d="M168.25 -29.7 L167.4 -28.85 Q166.6 -28.05 165.65 -26.35 164.75 -24.65 164.45 -22.05 164.15 -19.4 165.1 -15.8 L166.05 -16.6 168.45 -18.3 Q169.95 -19.3 171.6 -20.1 173.25 -20.95 174.65 -21.15" fill="none" stroke="#000000" stroke-linecap="round" stroke-linejoin="round" stroke-width="2.0"/>
      <path d="M190.9 -50.75 L192.75 -52.4 Q190.1 -49.5 187.15 -47.7 183.3 -45.3 179.35 -44.35 175.35 -43.35 171.75 -43.4 L165.25 -43.9 160.7 -44.9 159.0 -45.4 Q165.35 -43.9 170.5 -43.95 175.6 -43.95 179.5 -45.0 183.45 -46.05 186.25 -47.65 189.1 -49.15 190.9 -50.75" fill="#000000" fill-rule="evenodd" stroke="none"/>
      <path d="M172.3 -68.3 Q170.55 -66.6 170.35 -64.9 170.2 -63.15 171.0 -61.6 171.8 -60.05 173.0 -58.8 L175.05 -56.9 176.0 -56.15 Q172.45 -58.05 170.75 -59.65 169.0 -61.25 168.65 -62.65 168.25 -64.0 168.75 -65.05 169.25 -66.1 170.05 -66.85 170.9 -67.55 171.6 -67.9 L172.3 -68.3" fill="#000000" fill-rule="evenodd" stroke="none"/>
      <path d="M193.8 -32.85 L198.45 -24.0 Q197.15 -21.15 195.05 -18.75 L190.55 -14.35 Q188.2 -12.4 186.05 -11.0 183.9 -9.6 182.6 -8.9 L181.2 -8.1 Q179.6 -8.55 178.2 -9.6 176.75 -10.7 175.65 -11.95 L173.9 -14.15 173.25 -15.1 Q178.0 -16.3 181.45 -18.4 184.95 -20.5 187.3 -23.0 189.7 -25.45 191.15 -27.65 192.55 -29.9 193.15 -31.4 L193.8 -32.85" fill="#ba3b35" fill-rule="evenodd" stroke="none"/>
      <path d="M211.95 -11.35 Q211.7 -9.7 210.45 -7.55 L207.55 -3.25 204.8 0.25 203.55 1.7 195.15 -0.6 Q197.55 -1.35 199.15 -2.9 200.8 -4.5 201.85 -6.4 L203.5 -10.05 204.3 -12.95 204.5 -14.15 211.95 -11.35" fill="#ba3b35" fill-rule="evenodd" stroke="none"/>
      <path d="M225.05 -4.35 Q225.0 -2.2 224.45 -0.45 L223.35 2.45 222.7 3.55 213.85 3.55 Q215.25 2.8 216.3 1.15 217.35 -0.45 218.05 -2.25 L219.1 -5.35 219.45 -6.7 225.05 -4.35" fill="#ba3b35" fill-rule="evenodd" stroke="none"/>
      <path d="M232.95 -2.95 L237.6 -3.9 237.15 -1.65 236.25 0.65 235.75 1.7 230.15 3.1 Q231.5 1.85 232.1 0.45 L232.85 -1.9 232.95 -2.95" fill="#ba3b35" fill-rule="evenodd" stroke="none"/>
      <path d="M129.3 -154.55 Q128.55 -147.65 129.0 -140.05 129.45 -132.4 130.95 -124.65 132.45 -116.8 134.85 -109.5 137.2 -102.25 140.25 -96.0 143.3 -89.8 146.9 -85.3 150.5 -80.75 154.4 -78.6" fill="none" stroke="#000000" stroke-linecap="round" stroke-linejoin="round" stroke-width="1.0"/>
    </g>
    <g id="sprite0" transform="matrix(1, 0, 0, 1, 15.85, 12.4)">
      <use height="19.4" transform="matrix(1.0, 0.0, 0.0, 1.0, -15.85, -9.7)" width="31.65" xlink:href="#shape2"/>
    </g>
    <g id="shape2" transform="matrix(1, 0, 0, 1, 15.85, 9.7)">
      <path d="M-0.3 0.45 Q-0.1 2.25 -0.4 3.95 -0.65 5.6 -1.35 7.0 L-7.65 8.1 -12.15 9.2 Q-13.4 7.9 -14.25 6.0 -15.1 4.15 -15.3 1.9 -15.55 -1.0 -14.8 -3.4 -14.0 -5.8 -12.45 -7.35 -10.9 -8.85 -8.8 -9.1 -5.6 -9.4 -3.3 -6.95 -1.0 -4.55 -0.3 0.45" fill="#ffffff" fill-rule="evenodd" stroke="none"/>
      <path d="M-0.3 0.45 Q-1.0 -4.55 -3.3 -6.95 -5.6 -9.4 -8.8 -9.1 -10.9 -8.85 -12.45 -7.35 -14.0 -5.8 -14.8 -3.4 -15.55 -1.0 -15.3 1.9 -15.1 4.15 -14.25 6.0 -13.4 7.9 -12.15 9.2 L-7.65 8.1 -1.35 7.0 Q-0.65 5.6 -0.4 3.95 -0.1 2.25 -0.3 0.45" fill="none" stroke="#000000" stroke-linecap="round" stroke-linejoin="round" stroke-width="1.0"/>
      <path d="M-12.85 0.6 Q-12.6 3.2 -11.6 5.05 -10.6 6.95 -8.95 8.0 L-12.0 8.75 Q-14.55 6.3 -14.95 1.85 -15.2 -0.85 -14.5 -3.15 -13.8 -5.4 -12.35 -6.9 -10.95 -8.4 -9.05 -8.7 -11.0 -7.55 -12.05 -5.05 -13.1 -2.6 -12.85 0.6" fill="#e5e2be" fill-rule="evenodd" stroke="none"/>
      <path d="M11.95 -8.2 Q13.2 -7.05 14.05 -5.0 14.95 -2.95 15.2 -0.3 L15.3 2.4 15.15 5.2 14.7 7.45 Q12.4 6.4 10.15 6.05 7.95 5.7 6.55 6.05 5.4 3.8 5.1 0.7 4.9 -1.9 5.35 -4.15 5.85 -6.3 6.85 -7.65 7.9 -9.05 9.3 -9.2 10.7 -9.3 11.95 -8.2" fill="#ffffff" fill-rule="evenodd" stroke="none"/>
      <path d="M11.95 -8.2 Q10.7 -9.3 9.3 -9.2 7.9 -9.05 6.85 -7.65 5.85 -6.3 5.35 -4.15 4.9 -1.9 5.1 0.7 5.4 3.8 6.55 6.05 7.95 5.7 10.15 6.05 12.4 6.4 14.7 7.45 L15.15 5.2 15.3 2.4 15.2 -0.3 Q14.95 -2.95 14.05 -5.0 13.2 -7.05 11.95 -8.2" fill="none" stroke="#000000" stroke-linecap="round" stroke-linejoin="round" stroke-width="1.0"/>
      <path d="M5.4 -0.95 Q5.4 -3.5 6.1 -5.5 6.85 -7.45 8.0 -8.35 7.1 -6.2 7.1 -3.2 L7.15 -1.65 Q7.3 0.0 7.6 1.5 7.95 3.0 8.55 4.1 9.1 5.25 10.0 5.65 L8.4 5.6 6.8 5.55 5.9 3.3 Q5.6 2.15 5.45 0.65 L5.4 -0.95" fill="#e5e2be" fill-rule="evenodd" stroke="none"/>
      <path d="M-3.95 -1.95 Q-2.55 -1.75 -1.7 -0.4 -0.9 1.0 -1.05 2.95 -1.25 4.8 -2.35 6.0 -3.4 7.2 -4.8 7.15 -6.25 6.95 -7.0 5.6 -7.85 4.2 -7.7 2.25 -7.5 0.35 -6.45 -0.8 -5.35 -2.0 -3.95 -1.95" fill="#000000" fill-rule="evenodd" stroke="none"/>
      <path d="M-2.35 1.0 Q-2.4 1.8 -2.8 2.25 -3.25 2.75 -3.8 2.7 -4.35 2.65 -4.65 2.05 -5.0 1.55 -4.95 0.8 -4.9 0.0 -4.45 -0.45 -4.05 -0.95 -3.45 -0.9 -2.9 -0.85 -2.55 -0.25 -2.25 0.25 -2.35 1.0" fill="#ffffff" fill-rule="evenodd" stroke="none"/>
      <path d="M14.6 1.95 Q14.4 3.55 13.65 4.5 12.9 5.5 11.85 5.45 10.85 5.3 10.25 4.2 9.7 3.05 9.8 1.45 9.95 -0.1 10.75 -1.1 11.5 -2.05 12.55 -2.0 13.55 -1.85 14.15 -0.75 14.75 0.4 14.6 1.95" fill="#000000" fill-rule="evenodd" stroke="none"/>
      <path d="M14.05 0.55 L13.65 1.55 Q13.35 1.95 12.85 1.9 12.45 1.85 12.2 1.4 11.95 0.95 12.0 0.35 12.05 -0.25 12.4 -0.65 12.7 -1.05 13.15 -1.0 L13.8 -0.5 Q14.1 -0.05 14.05 0.55" fill="#ffffff" fill-rule="evenodd" stroke="none"/>
    </g>
  </defs>
</svg>
