<?xml version="1.0" encoding="UTF-8" standalone="no"?>
<svg xmlns:xlink="http://www.w3.org/1999/xlink" height="181.85px" width="314.35px" xmlns="http://www.w3.org/2000/svg">
  <g transform="matrix(1, 0, 0, 1, 36.5, 160.85)">
    <use height="63.3" transform="matrix(1.6935, 0.0, 0.0, 0.273, 162.6513, -3.5893)" width="63.3" xlink:href="#shape0"/>
    <use height="63.3" transform="matrix(1.348, 0.0, 0.0, 0.273, -26.263, 6.8607)" width="63.3" xlink:href="#shape0"/>
    <use height="180.25" transform="matrix(1.0, 0.0, 0.0, 1.0, -36.5, -160.85)" width="314.3" xlink:href="#shape1"/>
    <use height="22.1" transform="matrix(-1.0, 0.0, 0.0, 1.0, 25.9, -89.9)" width="31.7" xlink:href="#sprite0"/>
  </g>
  <defs>
    <g id="shape0" transform="matrix(1, 0, 0, 1, 31.65, 31.65)">
      <path d="M0.0 -31.65 Q13.1 -31.65 22.35 -22.4 31.65 -13.1 31.65 0.0 31.65 13.1 22.35 22.35 13.1 31.65 0.0 31.65 -13.1 31.65 -22.4 22.35 -31.65 13.1 -31.65 0.0 -31.65 -13.1 -22.4 -22.4 -13.1 -31.65 0.0 -31.65" fill="#80a559" fill-opacity="0.7019608" fill-rule="evenodd" stroke="none"/>
    </g>
    <g id="shape1" transform="matrix(1, 0, 0, 1, 36.5, 160.85)">
      <path d="M6.3 5.35 L23.3 5.2 Q22.45 8.3 20.1 10.4 17.75 12.45 14.6 13.7 11.4 14.85 8.0 15.45 L1.7 16.2 -3.05 16.3 -4.9 16.25 Q-7.0 15.8 -7.75 15.15 -8.55 14.45 -8.5 13.7 L-8.25 12.5 -7.95 12.0 Q-5.2 12.15 -2.6 11.25 -0.1 10.25 1.9 8.9 3.95 7.55 5.1 6.45 L6.3 5.35" fill="#333333" fill-rule="evenodd" stroke="none"/>
      <path d="M6.3 5.35 L5.1 6.45 Q3.95 7.55 1.9 8.9 -0.1 10.25 -2.6 11.25 -5.2 12.15 -7.95 12.0 L-8.25 12.5 -8.5 13.7 Q-8.55 14.45 -7.75 15.15 -7.0 15.8 -4.9 16.25 L-3.05 16.3 1.7 16.2 8.0 15.45 Q11.4 14.85 14.6 13.7 17.75 12.45 20.1 10.4 22.45 8.3 23.3 5.2" fill="none" stroke="#000000" stroke-linecap="round" stroke-linejoin="round" stroke-width="2.0"/>
      <path d="M-19.75 -53.2 L-16.35 -52.85 Q-14.3 -52.5 -12.15 -51.6 -10.1 -50.75 -8.55 -49.05 -7.5 -47.65 -7.95 -45.8 -8.45 -44.05 -9.85 -42.15 -11.3 -40.25 -12.9 -38.65 L-15.75 -36.05 -16.95 -35.05 Q-19.75 -36.05 -21.55 -37.75 -23.45 -39.5 -24.45 -41.35 L-26.0 -44.5 -26.4 -45.9 -21.15 -53.25 -19.75 -53.2" fill="#333333" fill-rule="evenodd" stroke="none"/>
      <path d="M-19.75 -53.2 L-21.15 -53.25 -26.4 -45.9 -26.0 -44.5 -24.45 -41.35 Q-23.45 -39.5 -21.55 -37.75 -19.75 -36.05 -16.95 -35.05 L-15.75 -36.05 -12.9 -38.65 Q-11.3 -40.25 -9.85 -42.15 -8.45 -44.05 -7.95 -45.8 -7.5 -47.65 -8.55 -49.05 -10.1 -50.75 -12.15 -51.6 -14.3 -52.5 -16.35 -52.85 L-19.75 -53.2" fill="none" stroke="#000000" stroke-linecap="round" stroke-linejoin="round" stroke-width="2.0"/>
      <path d="M66.8 -124.3 Q67.05 -123.4 66.55 -122.95 L64.9 -122.85 Q63.9 -123.15 62.9 -124.05 L62.55 -124.35 62.9 -124.65 63.25 -124.9 63.6 -124.55 Q64.1 -124.1 64.55 -123.95 L65.35 -124.0 Q65.6 -124.25 65.5 -124.65 L64.9 -125.55 64.5 -125.8 64.85 -126.1 65.2 -126.35 65.6 -126.05 Q66.55 -125.15 66.8 -124.3" fill="#c1c1c6" fill-rule="evenodd" stroke="none"/>
      <path d="M66.8 -124.3 Q66.55 -125.15 65.6 -126.05 L65.2 -126.35 64.85 -126.1 64.5 -125.8 64.9 -125.55 65.5 -124.65 Q65.6 -124.25 65.35 -124.0 L64.55 -123.95 Q64.1 -124.1 63.6 -124.55 L63.25 -124.9 62.9 -124.65 62.55 -124.35 62.9 -124.05 Q63.9 -123.15 64.9 -122.85 L66.55 -122.95 Q67.05 -123.4 66.8 -124.3" fill="none" stroke="#000000" stroke-linecap="round" stroke-linejoin="round" stroke-width="1.0"/>
      <path d="M33.9 -99.7 Q34.25 -98.7 33.8 -98.2 L32.3 -98.05 Q31.3 -98.35 30.35 -99.3 L30.0 -99.7 30.25 -100.0 30.55 -100.3 30.9 -99.9 Q31.4 -99.45 31.9 -99.25 L32.6 -99.35 Q32.8 -99.6 32.65 -100.1 L32.0 -101.05 31.6 -101.35 32.2 -101.95 32.6 -101.65 Q33.55 -100.65 33.9 -99.7" fill="#c1c1c6" fill-rule="evenodd" stroke="none"/>
      <path d="M33.9 -99.7 Q33.55 -100.65 32.6 -101.65 L32.2 -101.95 31.6 -101.35 32.0 -101.05 32.65 -100.1 Q32.8 -99.6 32.6 -99.35 L31.9 -99.25 Q31.4 -99.45 30.9 -99.9 L30.55 -100.3 30.25 -100.0 30.0 -99.7 30.35 -99.3 Q31.3 -98.35 32.3 -98.05 L33.8 -98.2 Q34.25 -98.7 33.9 -99.7" fill="none" stroke="#000000" stroke-linecap="round" stroke-linejoin="round" stroke-width="1.0"/>
      <path d="M9.25 -77.05 L8.9 -77.35 9.45 -78.05 9.8 -77.7 11.0 -75.75 Q11.3 -74.75 10.9 -74.2 10.45 -73.65 9.55 -73.95 8.7 -74.2 7.75 -75.1 L7.45 -75.45 7.7 -75.8 8.0 -76.15 8.25 -75.8 9.15 -75.2 Q9.6 -75.05 9.8 -75.35 10.0 -75.6 9.85 -76.1 L9.25 -77.05" fill="#c1c1c6" fill-rule="evenodd" stroke="none"/>
      <path d="M9.25 -77.05 L9.85 -76.1 Q10.0 -75.6 9.8 -75.35 9.6 -75.05 9.15 -75.2 L8.25 -75.8 8.0 -76.15 7.7 -75.8 7.45 -75.45 7.75 -75.1 Q8.7 -74.2 9.55 -73.95 10.45 -73.65 10.9 -74.2 11.3 -74.75 11.0 -75.75 L9.8 -77.7 9.45 -78.05 8.9 -77.35 9.25 -77.05" fill="none" stroke="#000000" stroke-linecap="round" stroke-linejoin="round" stroke-width="1.0"/>
      <path d="M-13.7 -50.3 L-13.95 -50.55 -13.7 -50.95 -13.5 -51.35 -13.2 -51.05 Q-12.5 -50.2 -12.3 -49.25 -12.1 -48.3 -12.45 -47.7 -12.9 -47.1 -13.6 -47.25 -14.35 -47.35 -15.1 -48.15 L-15.35 -48.45 -15.1 -48.8 -14.85 -49.2 -14.6 -48.9 -13.9 -48.4 Q-13.5 -48.35 -13.3 -48.65 -13.15 -49.0 -13.25 -49.45 L-13.7 -50.3" fill="#c1c1c6" fill-rule="evenodd" stroke="none"/>
      <path d="M-13.7 -50.3 L-13.25 -49.45 Q-13.15 -49.0 -13.3 -48.65 -13.5 -48.35 -13.9 -48.4 L-14.6 -48.9 -14.85 -49.2 -15.1 -48.8 -15.35 -48.45 -15.1 -48.15 Q-14.35 -47.35 -13.6 -47.25 -12.9 -47.1 -12.45 -47.7 -12.1 -48.3 -12.3 -49.25 -12.5 -50.2 -13.2 -51.05 L-13.5 -51.35 -13.7 -50.95 -13.95 -50.55 -13.7 -50.3" fill="none" stroke="#000000" stroke-linecap="round" stroke-linejoin="round" stroke-width="1.0"/>
      <path d="M101.3 -146.85 Q102.1 -146.15 102.15 -145.4 102.2 -144.7 101.55 -144.3 L99.9 -144.15 Q98.9 -144.35 98.1 -145.05 L97.85 -145.35 98.3 -145.6 98.7 -145.8 98.95 -145.5 Q99.35 -145.15 99.8 -145.05 L100.6 -145.1 Q100.95 -145.35 100.9 -145.7 L100.5 -146.4 100.15 -146.65 100.6 -146.85 101.05 -147.1 101.3 -146.85" fill="#c1c1c6" fill-rule="evenodd" stroke="none"/>
      <path d="M101.3 -146.85 L101.05 -147.1 100.6 -146.85 100.15 -146.65 100.5 -146.4 100.9 -145.7 Q100.95 -145.35 100.6 -145.1 L99.8 -145.05 Q99.35 -145.15 98.95 -145.5 L98.7 -145.8 98.3 -145.6 97.85 -145.35 98.1 -145.05 Q98.9 -144.35 99.9 -144.15 L101.55 -144.3 Q102.2 -144.7 102.15 -145.4 102.1 -146.15 101.3 -146.85" fill="none" stroke="#000000" stroke-linecap="round" stroke-linejoin="round" stroke-width="1.0"/>
      <path d="M130.05 -159.85 Q130.55 -159.35 130.35 -158.7 L129.45 -157.7 127.8 -157.5 Q126.9 -157.65 126.35 -158.2 L126.15 -158.4 126.65 -158.65 127.15 -158.85 127.3 -158.65 Q127.55 -158.35 128.0 -158.3 L128.8 -158.4 129.25 -158.9 129.1 -159.45 128.85 -159.6 129.3 -159.8 129.8 -160.05 130.05 -159.85" fill="#c1c1c6" fill-rule="evenodd" stroke="none"/>
      <path d="M130.05 -159.85 L129.8 -160.05 129.3 -159.8 128.85 -159.6 129.1 -159.45 129.25 -158.9 128.8 -158.4 128.0 -158.3 Q127.55 -158.35 127.3 -158.65 L127.15 -158.85 126.65 -158.65 126.15 -158.4 126.35 -158.2 Q126.9 -157.65 127.8 -157.5 L129.45 -157.7 130.35 -158.7 Q130.55 -159.35 130.05 -159.85" fill="none" stroke="#000000" stroke-linecap="round" stroke-linejoin="round" stroke-width="1.0"/>
      <path d="M-12.85 -23.8 Q-12.25 -26.5 -12.3 -29.8 -12.4 -33.15 -12.9 -36.55 L-13.8 -42.85 -14.45 -47.55 Q-14.6 -49.4 -14.05 -49.55 L-8.4 -51.05 Q-5.3 -51.9 -2.15 -53.55 1.0 -55.2 3.55 -58.05 6.1 -60.95 7.5 -65.5 8.9 -70.05 8.6 -76.8 13.85 -76.0 17.6 -76.95 21.4 -77.95 23.95 -80.2 26.5 -82.4 28.05 -85.25 29.6 -88.15 30.4 -91.05 L31.5 -96.45 31.8 -100.25 Q38.0 -100.1 42.65 -101.6 47.35 -103.05 50.75 -105.6 54.2 -108.15 56.55 -111.1 58.85 -114.15 60.4 -116.95 L62.85 -121.9 Q63.75 -124.05 64.3 -124.75 L74.9 -125.25 Q79.5 -126.2 82.9 -128.25 86.3 -130.3 88.85 -132.85 L93.3 -137.95 96.65 -142.6 Q98.2 -144.6 99.65 -145.65 101.05 -146.55 103.75 -147.4 L109.8 -149.25 116.75 -151.6 Q120.35 -152.95 123.55 -154.75 126.75 -156.6 129.05 -159.05" fill="none" stroke="#000000" stroke-linecap="round" stroke-linejoin="round" stroke-width="1.0"/>
      <path d="M130.45 -159.65 Q130.2 -159.2 129.55 -159.3 103.25 -148.0 80.3 -134.0 57.3 -119.95 37.35 -102.85 17.35 -85.7 -0.1 -65.25 -17.6 -44.75 -32.9 -20.65 L-33.3 -20.15 -34.2 -19.55 Q-34.75 -19.4 -35.4 -20.15 -36.0 -21.0 -36.0 -21.85 L-35.65 -23.25 -35.3 -23.85 Q-22.4 -46.05 -6.4 -65.75 9.55 -85.4 29.2 -102.2 44.1 -114.8 60.25 -125.2 76.45 -135.6 93.7 -144.2 110.95 -152.8 128.95 -160.0 L129.35 -160.3 129.95 -160.35 Q130.6 -160.15 130.45 -159.65" fill="#c1c1c6" fill-rule="evenodd" stroke="none"/>
      <path d="M130.45 -159.65 Q130.6 -160.15 129.95 -160.35 L129.35 -160.3 128.95 -160.0 Q110.95 -152.8 93.7 -144.2 76.45 -135.6 60.25 -125.2 44.1 -114.8 29.2 -102.2 9.55 -85.4 -6.4 -65.75 -22.4 -46.05 -35.3 -23.85 L-35.65 -23.25 -36.0 -21.85 Q-36.0 -21.0 -35.4 -20.15 -34.75 -19.4 -34.2 -19.55 L-33.3 -20.15 -32.9 -20.65 Q-17.6 -44.75 -0.1 -65.25 17.35 -85.7 37.35 -102.85 57.3 -119.95 80.3 -134.0 103.25 -148.0 129.55 -159.3 130.2 -159.2 130.45 -159.65" fill="none" stroke="#000000" stroke-linecap="round" stroke-linejoin="round" stroke-width="1.0"/>
      <path d="M129.9 -159.85 L129.9 -159.8 Q129.75 -159.7 129.65 -159.7 L129.6 -159.7 129.5 -159.7 129.9 -159.85 M127.15 -158.75 L123.85 -157.35 121.0 -156.15 117.8 -154.75 Q92.8 -143.8 70.95 -130.3 49.1 -116.8 30.2 -100.4 11.25 -83.95 -5.1 -64.25 -21.45 -44.5 -35.5 -21.05 L-35.65 -21.8 -35.65 -22.0 Q-21.0 -46.8 -3.65 -67.2 13.7 -87.6 33.95 -104.25 54.1 -120.9 77.35 -134.35 100.65 -147.85 127.15 -158.75" fill="#dbdbdd" fill-rule="evenodd" stroke="none"/>
      <path d="M121.4 -156.5 L123.2 -157.25 124.8 -157.9 126.7 -158.65 Q100.45 -147.5 77.65 -133.5 54.85 -119.55 35.1 -102.45 15.3 -85.35 -1.85 -64.85 -19.05 -44.4 -34.05 -20.15 L-34.4 -20.05 -34.6 -20.05 Q-20.1 -43.75 -3.45 -63.9 13.2 -84.0 32.4 -100.85 51.6 -117.65 73.75 -131.55 95.9 -145.35 121.4 -156.5 M129.75 -159.95 L129.8 -159.9 129.35 -159.75 129.4 -159.8 129.75 -159.95" fill="#9a9a9b" fill-rule="evenodd" stroke="none"/>
      <path d="M-12.35 -24.25 Q-13.05 -22.3 -14.6 -21.0 -16.1 -19.65 -18.15 -19.2 -21.2 -18.6 -23.55 -20.35 -25.9 -22.05 -26.8 -25.5 -27.35 -27.85 -26.95 -30.0 -26.6 -32.1 -25.35 -33.65 -24.1 -35.15 -22.05 -35.55 -19.95 -35.9 -17.9 -35.05 -15.85 -34.2 -14.3 -32.45 -12.7 -30.7 -12.2 -28.45 -11.7 -26.15 -12.35 -24.25" fill="#c1c1c6" fill-rule="evenodd" stroke="none"/>
      <path d="M-12.35 -24.25 Q-13.05 -22.3 -14.6 -21.0 -16.1 -19.65 -18.15 -19.2 -21.2 -18.6 -23.55 -20.35 -25.9 -22.05 -26.8 -25.5 -27.35 -27.85 -26.95 -30.0 -26.6 -32.1 -25.35 -33.65 -24.1 -35.15 -22.05 -35.55 -19.95 -35.9 -17.9 -35.05 -15.85 -34.2 -14.3 -32.45 -12.7 -30.7 -12.2 -28.45 -11.7 -26.15 -12.35 -24.25" fill="none" stroke="#000000" stroke-linecap="round" stroke-linejoin="round" stroke-width="1.0"/>
      <path d="M-13.5 -23.95 L-13.25 -23.4 Q-14.0 -22.0 -15.3 -20.95 -16.6 -20.0 -18.25 -19.65 -21.15 -19.1 -23.35 -20.7 -25.6 -22.35 -26.45 -25.6 -26.8 -27.2 -26.75 -28.7 -26.7 -30.2 -26.15 -31.5 L-26.1 -31.5 Q-26.35 -27.65 -24.6 -25.25 -22.85 -22.8 -19.6 -22.45 -16.45 -22.65 -13.5 -23.95" fill="#b6b6b7" fill-rule="evenodd" stroke="none"/>
      <path d="M-18.0 -34.6 Q-16.1 -33.8 -14.6 -32.2 -13.15 -30.55 -12.65 -28.4 -12.3 -26.75 -12.55 -25.35 -13.8 -28.05 -16.0 -29.8 -18.2 -31.55 -20.75 -32.25 -23.35 -32.95 -25.75 -32.3 -25.15 -33.4 -24.2 -34.1 -23.25 -34.85 -21.95 -35.1 -20.0 -35.4 -18.0 -34.6" fill="#d6d6d8" fill-rule="evenodd" stroke="none"/>
      <path d="M-25.1 -29.3 Q-24.8 -30.8 -23.85 -31.9 -22.95 -33.0 -21.4 -33.3 L-18.4 -32.95 Q-16.95 -32.35 -15.8 -31.1 -14.75 -29.85 -14.3 -28.2 -13.8 -25.65 -15.05 -23.75 -16.3 -21.85 -18.55 -21.35 -20.8 -20.9 -22.6 -22.2 -24.35 -23.5 -25.0 -26.0 -25.4 -27.75 -25.1 -29.3" fill="#d8d8d8" fill-rule="evenodd" stroke="none"/>
      <path d="M-18.75 -32.55 Q-17.5 -32.1 -16.5 -31.1 -15.45 -30.1 -14.95 -28.75 -16.5 -30.35 -18.35 -31.3 -20.25 -32.25 -22.25 -32.5 L-21.3 -32.8 -18.75 -32.55" fill="#e3e3e5" fill-rule="evenodd" stroke="none"/>
      <path d="M-19.55 -22.45 L-16.3 -22.95 Q-17.25 -22.05 -18.65 -21.75 -20.3 -21.4 -21.8 -22.2 -23.2 -22.95 -24.05 -24.6 -22.35 -22.75 -19.55 -22.45" fill="#bbbbbc" fill-rule="evenodd" stroke="none"/>
      <path d="M-15.75 -22.1 L-13.9 -18.9 -14.6 -18.45 -15.3 -18.05 -17.1 -21.25 -18.8 -24.1 -20.85 -27.45 -20.2 -27.9 -19.55 -28.35 -17.5 -24.95 -15.75 -22.1" fill="#6d6d70" fill-rule="evenodd" stroke="none"/>
      <path d="M-15.75 -22.1 L-13.9 -18.9 -14.6 -18.45 -15.3 -18.05 -17.1 -21.25 -18.8 -24.1 -20.85 -27.45 -20.2 -27.9 -19.55 -28.35 -17.5 -24.95 -15.75 -22.1" fill="none" stroke="#000000" stroke-linecap="round" stroke-linejoin="round" stroke-width="1.0"/>
      <path d="M-14.5 -19.1 L-14.65 -19.0 -17.05 -23.3 -19.8 -27.7 -19.65 -27.8 -18.7 -26.25 -17.05 -23.45 -15.4 -20.65 -14.5 -19.1" fill="#7b7b7c" fill-rule="evenodd" stroke="none"/>
      <path d="M-20.0 -27.55 L-17.45 -23.2 -15.05 -18.75 -15.2 -18.65 -16.05 -20.2 -17.7 -23.0 -19.4 -25.8 -20.3 -27.4 -20.0 -27.55" fill="#59595b" fill-rule="evenodd" stroke="none"/>
      <path d="M-12.15 -19.0 Q-11.95 -18.55 -12.05 -18.2 -12.15 -17.75 -12.5 -17.55 L-13.75 -16.85 -14.95 -16.15 -15.7 -16.1 -16.3 -16.55 -16.4 -17.35 -16.0 -18.0 Q-15.3 -18.4 -14.75 -18.75 L-13.55 -19.45 -12.8 -19.5 Q-12.4 -19.35 -12.15 -19.0" fill="#6d6d70" fill-rule="evenodd" stroke="none"/>
      <path d="M-12.15 -19.0 Q-11.95 -18.55 -12.05 -18.2 -12.15 -17.75 -12.5 -17.55 L-13.75 -16.85 -14.95 -16.15 -15.7 -16.1 -16.3 -16.55 -16.4 -17.35 -16.0 -18.0 Q-15.3 -18.4 -14.75 -18.75 L-13.55 -19.45 -12.8 -19.5 Q-12.4 -19.35 -12.15 -19.0" fill="none" stroke="#000000" stroke-linecap="round" stroke-linejoin="round" stroke-width="1.0"/>
      <path d="M-15.7 -17.75 Q-14.95 -17.2 -14.25 -17.1 L-14.7 -16.85 -15.2 -16.55 -15.55 -16.55 -15.95 -16.85 -16.0 -17.35 -15.8 -17.7 -15.7 -17.75" fill="#59595b" fill-rule="evenodd" stroke="none"/>
      <path d="M-12.7 -17.95 L-12.8 -17.9 Q-13.6 -18.35 -14.55 -18.4 -14.2 -18.6 -13.95 -18.75 L-13.35 -19.1 -12.95 -19.15 -12.5 -18.8 Q-12.4 -18.55 -12.45 -18.3 -12.5 -18.05 -12.7 -17.95" fill="#7b7b7c" fill-rule="evenodd" stroke="none"/>
      <path d="M-18.05 -27.55 Q-17.9 -26.7 -18.3 -26.0 -18.65 -25.4 -19.4 -25.2 -20.15 -25.1 -20.75 -25.55 -21.4 -26.0 -21.6 -26.85 -21.8 -27.65 -21.45 -28.35 -21.1 -29.0 -20.35 -29.15 -19.55 -29.3 -18.95 -28.8 -18.3 -28.35 -18.05 -27.55" fill="#6d6d70" fill-rule="evenodd" stroke="none"/>
      <path d="M-18.05 -27.55 Q-17.9 -26.7 -18.3 -26.0 -18.65 -25.4 -19.4 -25.2 -20.15 -25.1 -20.75 -25.55 -21.4 -26.0 -21.6 -26.85 -21.8 -27.65 -21.45 -28.35 -21.1 -29.0 -20.35 -29.15 -19.55 -29.3 -18.95 -28.8 -18.3 -28.35 -18.05 -27.55" fill="none" stroke="#000000" stroke-linecap="round" stroke-linejoin="round" stroke-width="1.0"/>
      <path d="M-18.4 -27.2 L-19.45 -28.2 -20.85 -28.35 -20.2 -28.75 -19.1 -28.45 Q-18.6 -28.1 -18.45 -27.45 L-18.4 -27.2" fill="#7b7b7c" fill-rule="evenodd" stroke="none"/>
      <path d="M-21.2 -27.65 Q-20.45 -26.8 -19.8 -26.65 L-18.4 -26.85 Q-18.45 -26.4 -18.75 -26.1 L-19.45 -25.7 Q-20.05 -25.6 -20.55 -25.95 L-21.15 -26.9 -21.2 -27.65" fill="#59595b" fill-rule="evenodd" stroke="none"/>
      <path d="M43.4 -55.75 L45.95 -47.65 Q47.3 -44.0 48.65 -41.6 52.3 -35.1 53.1 -27.15 53.65 -20.9 52.2 -14.95 50.7 -9.05 47.45 -3.9 44.15 1.2 39.4 5.1 34.65 8.95 28.75 11.1 20.95 13.85 14.0 13.75 7.0 13.7 0.95 10.8 -7.85 6.55 -14.5 -3.55 -16.85 -7.2 -18.35 -11.4 -19.85 -15.6 -20.3 -20.2 -20.7 -24.5 -20.15 -28.55 -19.6 -32.65 -18.2 -36.35 L-15.6 -43.45 -12.55 -52.1 -9.75 -61.05 Q-8.45 -65.45 -7.7 -69.05 -7.05 -72.7 -7.2 -74.85 -7.65 -79.65 -6.25 -83.9 -4.9 -88.15 -2.05 -91.6 0.75 -95.0 4.75 -97.15 8.65 -99.3 13.4 -99.8 18.15 -100.2 22.45 -98.85 26.7 -97.5 30.15 -94.65 33.5 -91.8 35.7 -87.9 37.85 -83.95 38.35 -79.15 38.55 -76.6 39.3 -72.75 40.0 -68.95 41.05 -64.55 L43.4 -55.75" fill="#666666" fill-rule="evenodd" stroke="none"/>
      <path d="M43.4 -55.75 L45.95 -47.65 Q47.3 -44.0 48.65 -41.6 52.3 -35.1 53.1 -27.15 53.65 -20.9 52.2 -14.95 50.7 -9.05 47.45 -3.9 44.15 1.2 39.4 5.1 34.65 8.95 28.75 11.1 20.95 13.85 14.0 13.75 7.0 13.7 0.95 10.8 -7.85 6.55 -14.5 -3.55 -16.85 -7.2 -18.35 -11.4 -19.85 -15.6 -20.3 -20.2 -20.7 -24.5 -20.15 -28.55 -19.6 -32.65 -18.2 -36.35 L-15.6 -43.45 -12.55 -52.1 -9.75 -61.05 Q-8.45 -65.45 -7.7 -69.05 -7.05 -72.7 -7.2 -74.85 -7.65 -79.65 -6.25 -83.9 -4.9 -88.15 -2.05 -91.6 0.75 -95.0 4.75 -97.15 8.65 -99.3 13.4 -99.8 18.15 -100.2 22.45 -98.85 26.7 -97.5 30.15 -94.65 33.5 -91.8 35.7 -87.9 37.85 -83.95 38.35 -79.15 38.55 -76.6 39.3 -72.75 40.0 -68.95 41.05 -64.55 L43.4 -55.75" fill="none" stroke="#000000" stroke-linecap="round" stroke-linejoin="round" stroke-width="2.0"/>
      <path d="M35.35 -86.9 Q37.15 -83.3 37.6 -79.1 37.8 -76.45 38.55 -72.55 L40.35 -64.25 42.7 -55.4 Q43.95 -51.05 45.3 -47.3 46.65 -43.6 48.0 -41.2 51.65 -34.6 52.4 -27.05 53.05 -19.55 50.9 -12.75 48.7 -6.0 44.25 -0.6 39.75 4.8 33.55 8.2 27.25 11.6 19.75 12.35 L11.95 12.65 Q8.25 12.5 4.7 11.4 1.1 10.3 -2.4 7.9 L-6.25 4.7 -10.0 0.85 -13.15 -2.55 Q-7.85 2.7 -1.2 5.05 5.6 7.45 13.6 6.7 20.7 5.9 26.65 2.55 32.65 -0.8 36.9 -6.2 41.15 -11.55 43.2 -18.25 45.3 -24.95 44.7 -32.4 44.4 -35.1 43.7 -37.6 L42.05 -42.45 Q41.15 -44.9 40.4 -47.5 L40.15 -48.45 39.55 -50.55 38.7 -52.4 Q38.2 -53.25 37.4 -53.6 36.3 -54.0 34.9 -53.25 L35.05 -54.9 34.6 -59.2 33.5 -63.8 32.7 -67.0 Q32.05 -69.9 31.75 -73.35 L31.1 -80.2 30.85 -83.0 Q30.45 -87.25 28.6 -90.95 26.7 -94.7 23.65 -97.55 27.55 -96.0 30.55 -93.25 33.5 -90.55 35.35 -86.9" fill="#333333" fill-rule="evenodd" stroke="none"/>
      <path d="M29.75 -84.65 Q30.4 -81.75 30.4 -78.75 L30.35 -78.0 30.35 -76.5 30.55 -70.35 31.15 -62.95 32.05 -55.25 Q32.55 -51.45 33.25 -48.2 33.85 -45.0 34.6 -42.8 36.6 -36.95 36.65 -30.6 L36.65 -29.4 Q36.45 -24.6 35.15 -20.05 33.85 -15.55 31.5 -11.6 29.15 -7.7 25.9 -4.6 21.8 -0.8 16.9 1.1 12.0 3.05 6.75 2.9 1.25 2.7 -3.55 0.4 -8.45 -1.95 -12.25 -6.1 -16.05 -10.35 -18.35 -16.0 -18.95 -18.4 -19.15 -20.9 L-19.35 -24.3 Q-19.35 -30.6 -17.15 -36.5 L-16.8 -37.55 -14.3 -44.3 -11.55 -52.15 -9.0 -60.2 -7.1 -67.5 Q-6.45 -70.85 -6.4 -73.1 -5.2 -77.05 -5.15 -79.15 -5.0 -83.75 -3.15 -87.9 L-1.55 -90.25 0.5 -92.6 Q1.6 -93.7 2.8 -94.15 L6.1 -94.05 Q7.6 -93.45 8.45 -92.45 9.3 -91.45 9.0 -90.7 9.75 -92.1 11.3 -93.0 12.85 -93.85 14.7 -94.15 L18.25 -94.3 20.65 -93.85 22.75 -93.2 Q25.65 -92.15 27.35 -89.85 29.05 -87.6 29.75 -84.65" fill="#cccccc" fill-rule="evenodd" stroke="none"/>
      <path d="M0.75 -92.9 L2.8 -94.15 5.65 -94.2 3.95 -92.2 2.55 -90.3 Q0.5 -86.15 0.1 -81.4 -0.1 -79.25 -1.5 -75.25 -1.65 -72.95 -2.55 -69.5 -3.4 -66.05 -4.8 -62.05 L-7.8 -53.9 -10.95 -46.0 -13.75 -39.15 -14.25 -38.1 Q-16.75 -32.1 -17.05 -25.65 L-17.05 -22.1 -16.55 -17.05 Q-14.35 -10.55 -10.35 -5.85 -6.35 -1.15 -1.1 1.4 -6.8 -0.7 -11.25 -5.1 -15.7 -9.6 -18.35 -16.0 -18.95 -18.4 -19.15 -20.9 L-19.35 -24.35 Q-19.35 -30.6 -17.15 -36.5 L-17.05 -36.8 -16.9 -37.3 -16.8 -37.55 -12.2 -50.25 -9.75 -57.75 Q-8.55 -61.5 -7.6 -65.3 -6.9 -68.35 -6.6 -71.35 L-6.2 -77.5 -5.75 -81.55 Q-5.45 -83.6 -4.5 -85.45 L-2.4 -89.05 -0.95 -91.05 0.75 -92.9" fill="#e5e5e5" fill-rule="evenodd" stroke="none"/>
      <path d="M24.7 -92.25 Q26.85 -90.85 28.1 -88.7 29.35 -86.55 29.85 -83.95 30.35 -81.4 30.35 -78.75 L30.35 -78.05 30.3 -76.5 30.55 -70.35 31.1 -62.9 32.05 -55.2 Q32.55 -51.45 33.2 -48.2 33.85 -45.0 34.6 -42.8 36.6 -36.95 36.6 -30.6 L36.6 -29.4 Q36.45 -24.55 35.15 -20.05 33.8 -15.55 31.45 -11.65 29.1 -7.75 25.85 -4.65 21.8 -0.85 16.9 1.15 12.0 3.05 6.75 2.95 1.55 2.7 -3.05 0.6 -7.75 -1.55 -11.45 -5.3 -8.05 -2.6 -4.1 -1.05 -0.1 0.5 4.25 0.65 9.5 0.8 14.4 -1.15 19.3 -3.1 23.4 -6.9 26.65 -10.0 29.0 -13.9 31.3 -17.85 32.65 -22.3 33.95 -26.85 34.1 -31.65 L34.15 -32.9 Q34.1 -39.25 32.1 -45.1 31.35 -47.25 30.7 -50.45 L29.5 -57.5 28.6 -65.2 28.05 -72.6 Q27.8 -76.1 27.85 -78.75 L27.85 -80.3 27.85 -81.05 Q27.85 -84.1 27.15 -87.0 26.45 -89.95 24.7 -92.25" fill="#b4b4b4" fill-rule="evenodd" stroke="none"/>
      <path d="M1.85 -63.15 L20.95 -62.05 20.15 -60.85 18.15 -58.05 15.25 -54.7 Q13.7 -53.1 12.0 -52.05 10.35 -51.0 8.85 -51.15 7.35 -51.4 6.25 -52.65 5.05 -53.85 4.25 -55.6 3.4 -57.4 2.9 -59.1 L2.1 -61.95 1.85 -63.15" fill="#b4b4b4" fill-rule="evenodd" stroke="none"/>
      <path d="M45.3 -47.65 Q46.55 -47.25 47.4 -45.9 48.15 -44.5 48.55 -42.55 L49.05 -38.5 49.05 -34.6 48.75 -31.65 Q48.2 -28.6 46.75 -26.0 45.35 -23.35 43.05 -21.25 41.35 -19.75 39.2 -18.5 37.0 -17.3 34.6 -16.55 32.25 -15.8 29.95 -15.8 28.85 -15.85 28.65 -16.3 28.35 -16.75 28.45 -17.25 L28.6 -17.7 30.15 -20.2 32.2 -24.45 Q33.25 -26.85 33.85 -29.15 34.5 -32.05 34.3 -34.25 L33.75 -37.75 33.3 -39.05 33.35 -39.85 Q33.4 -40.65 33.75 -41.85 34.0 -43.1 34.75 -44.3 L45.3 -47.65" fill="#666666" fill-rule="evenodd" stroke="none"/>
      <path d="M45.3 -47.65 Q46.55 -47.25 47.4 -45.9 48.15 -44.5 48.55 -42.55 L49.05 -38.5 49.05 -34.6 48.75 -31.65 Q48.2 -28.6 46.75 -26.0 45.35 -23.35 43.05 -21.25 41.35 -19.75 39.2 -18.5 37.0 -17.3 34.6 -16.55 32.25 -15.8 29.95 -15.8 28.85 -15.85 28.65 -16.3 28.35 -16.75 28.45 -17.25 L28.6 -17.7 30.15 -20.2 32.2 -24.45 Q33.25 -26.85 33.85 -29.15 34.5 -32.05 34.3 -34.25 L33.75 -37.75 33.3 -39.05 33.35 -39.85 Q33.4 -40.65 33.75 -41.85 34.0 -43.1 34.75 -44.3" fill="none" stroke="#000000" stroke-linecap="round" stroke-linejoin="round" stroke-width="2.0"/>
      <path d="M39.25 -45.5 L40.45 -46.65 41.25 -47.25 43.0 -47.3 44.65 -46.5 46.35 -46.25 Q48.3 -41.0 48.35 -35.85 48.45 -30.7 46.2 -26.3 43.95 -21.95 39.0 -19.05 41.1 -22.75 42.65 -26.45 44.25 -30.2 45.05 -33.3 L45.05 -33.35 Q45.5 -35.85 44.5 -37.65 43.45 -39.5 41.8 -40.85 L38.45 -43.35 Q38.05 -43.65 38.35 -44.25 L39.25 -45.5" fill="#333333" fill-rule="evenodd" stroke="none"/>
      <path d="M34.6 -28.35 L33.5 -24.25 Q32.9 -22.2 32.75 -20.75 32.5 -19.3 33.15 -19.1 34.65 -18.9 36.95 -19.95 L41.55 -22.7 45.65 -26.2 Q47.35 -28.05 47.8 -29.35 46.8 -26.1 45.0 -23.85 43.2 -21.55 41.0 -20.1 38.8 -18.65 36.7 -17.8 34.55 -17.05 32.85 -16.65 L30.4 -16.2 29.95 -16.15 29.3 -16.25 28.8 -16.6 28.75 -17.1 28.85 -17.55 30.45 -20.2 32.55 -24.45 Q33.55 -26.85 34.15 -29.1 L35.05 -33.2 35.1 -31.8 34.6 -28.35" fill="#999999" fill-rule="evenodd" stroke="none"/>
      <path d="M20.05 -61.85 L16.95 -59.25 12.85 -56.65 Q10.75 -55.55 8.85 -55.55 7.0 -55.7 5.75 -56.85 4.45 -58.0 3.7 -59.45 L2.6 -62.0 2.25 -63.15 21.25 -63.1 20.05 -61.85" fill="#d8a235" fill-rule="evenodd" stroke="none"/>
      <path d="M20.05 -61.85 L16.95 -59.25 12.85 -56.65 Q10.75 -55.55 8.85 -55.55 7.0 -55.7 5.75 -56.85 4.45 -58.0 3.7 -59.45 L2.6 -62.0 2.25 -63.15 21.25 -63.1 20.05 -61.85" fill="none" stroke="#000000" stroke-linecap="round" stroke-linejoin="round" stroke-width="1.0"/>
      <path d="M11.85 -58.45 Q10.5 -57.75 9.2 -57.75 7.8 -57.8 7.0 -58.5 6.15 -59.2 5.75 -60.1 L5.2 -61.7 5.1 -62.45 16.9 -62.4 16.2 -61.7 14.35 -60.05 Q13.2 -59.15 11.85 -58.45" fill="#c12d05" fill-rule="evenodd" stroke="none"/>
      <path d="M11.85 -58.45 Q10.5 -57.75 9.2 -57.75 7.8 -57.8 7.0 -58.5 6.15 -59.2 5.75 -60.1 L5.2 -61.7 5.1 -62.45 16.9 -62.4 16.2 -61.7 14.35 -60.05 Q13.2 -59.15 11.85 -58.45" fill="none" stroke="#000000" stroke-linecap="round" stroke-linejoin="round" stroke-width="1.0"/>
      <path d="M12.85 -62.05 L14.9 -62.05 16.1 -62.05 14.35 -60.45 11.85 -58.8 Q10.5 -58.05 9.2 -58.05 7.7 -58.15 6.9 -59.1 8.8 -58.95 10.4 -59.65 12.05 -60.4 12.85 -62.05" fill="#9b0d0d" fill-rule="evenodd" stroke="none"/>
      <path d="M19.25 -65.1 L21.7 -64.75 Q22.4 -64.65 22.4 -64.4 L21.85 -63.25 Q21.45 -62.55 20.3 -62.2 L17.65 -61.75 14.8 -61.65 12.85 -61.6 10.15 -61.6 7.45 -61.4 4.9 -60.75 2.55 -60.2 Q1.45 -60.05 0.5 -60.6 -0.45 -61.15 -1.3 -62.8 L-1.85 -62.7 -3.05 -62.7 Q-3.75 -62.75 -4.15 -63.25 -4.55 -63.8 -4.45 -64.5 L-4.0 -65.7 -3.75 -66.25 -2.45 -66.7 Q-1.3 -67.1 0.35 -67.9 L3.5 -69.55 Q4.95 -70.5 5.6 -71.55 6.05 -72.3 6.55 -72.2 7.1 -72.1 7.6 -71.6 L8.45 -70.45 9.05 -69.55 Q9.75 -68.55 10.7 -67.9 11.6 -67.2 12.7 -66.75 14.25 -66.05 15.9 -65.7 L19.25 -65.1" fill="#f9c248" fill-rule="evenodd" stroke="none"/>
      <path d="M19.25 -65.1 L15.9 -65.7 Q14.25 -66.05 12.7 -66.75 11.6 -67.2 10.7 -67.9 9.75 -68.55 9.05 -69.55 L8.45 -70.45 7.6 -71.6 Q7.1 -72.1 6.55 -72.2 6.05 -72.3 5.6 -71.55 4.95 -70.5 3.5 -69.55 L0.35 -67.9 Q-1.3 -67.1 -2.45 -66.7 L-3.75 -66.25 -4.0 -65.7 -4.45 -64.5 Q-4.55 -63.8 -4.15 -63.25 -3.75 -62.75 -3.05 -62.7 L-1.85 -62.7 -1.3 -62.8 Q-0.45 -61.15 0.5 -60.6 1.45 -60.05 2.55 -60.2 L4.9 -60.75 7.45 -61.4 10.15 -61.6 12.85 -61.6 14.8 -61.65 17.65 -61.75 20.3 -62.2 Q21.45 -62.55 21.85 -63.25 L22.4 -64.4 Q22.4 -64.65 21.7 -64.75 L19.25 -65.1" fill="none" stroke="#000000" stroke-linecap="round" stroke-linejoin="round" stroke-width="1.0"/>
      <path d="M19.8 -62.4 L16.85 -62.0 14.15 -61.95 11.2 -61.9 7.65 -61.7 5.2 -61.1 2.85 -60.45 0.85 -60.65 Q-0.05 -61.1 -0.85 -62.65 L-0.75 -63.2 -1.05 -63.1 -1.9 -62.95 -3.0 -62.95 Q-3.55 -63.05 -3.9 -63.35 L-4.1 -64.15 -3.95 -65.0 -3.45 -64.55 -2.95 -64.0 Q-2.45 -63.8 -1.9 -64.0 L-0.85 -64.1 -0.2 -63.6 0.4 -63.0 Q1.05 -62.6 1.8 -62.35 L3.35 -62.4 4.6 -63.1 6.0 -63.7 7.3 -63.65 8.6 -63.35 13.7 -62.9 18.25 -63.15 19.1 -63.2 20.55 -63.5 Q21.35 -63.75 22.0 -64.35 L22.0 -64.2 21.85 -63.8 21.6 -63.35 Q21.2 -62.65 19.8 -62.4" fill="#d8a235" fill-rule="evenodd" stroke="none"/>
      <path d="M7.65 -67.0 L7.35 -65.95 6.5 -66.05 Q6.0 -66.25 6.35 -66.5 L7.15 -66.85 7.65 -67.0" fill="#d8a235" fill-rule="evenodd" stroke="none"/>
      <path d="M8.25 -70.1 L8.6 -69.45 Q7.75 -69.55 7.25 -69.95 L6.5 -70.4 5.75 -70.05 4.9 -69.35 4.5 -69.0 Q2.1 -67.45 0.6 -66.8 -0.95 -66.15 -1.8 -66.05 -2.65 -65.9 -3.0 -66.05 L-3.3 -66.2 Q-0.45 -66.85 1.55 -67.95 3.55 -69.05 4.65 -70.0 L5.7 -71.0 6.2 -71.65 6.6 -71.8 Q7.0 -71.85 7.45 -71.3 L8.25 -70.1" fill="#ffe4b3" fill-rule="evenodd" stroke="none"/>
      <path d="M-10.2 -52.1 L-11.55 -50.1 Q-12.55 -48.8 -14.3 -47.4 -16.1 -46.0 -18.7 -45.15 -21.3 -44.3 -24.75 -44.55 -26.3 -44.75 -26.85 -45.5 -27.5 -46.3 -27.3 -47.3 -27.1 -48.35 -26.25 -49.1 L-25.7 -49.5 Q-23.65 -50.6 -22.35 -52.25 -21.05 -53.9 -21.05 -56.55 L-20.65 -57.05 Q-20.25 -57.55 -19.05 -57.75 -17.95 -57.95 -15.7 -57.1 -12.4 -55.85 -11.0 -54.6 -9.65 -53.4 -10.2 -52.1" fill="#666666" fill-rule="evenodd" stroke="none"/>
      <path d="M-10.2 -52.1 L-11.55 -50.1 Q-12.55 -48.8 -14.3 -47.4 -16.1 -46.0 -18.7 -45.15 -21.3 -44.3 -24.75 -44.55 -26.3 -44.75 -26.85 -45.5 -27.5 -46.3 -27.3 -47.3 -27.1 -48.35 -26.25 -49.1 L-25.7 -49.5 Q-23.65 -50.6 -22.35 -52.25 -21.05 -53.9 -21.05 -56.55 L-20.65 -57.05 Q-20.25 -57.55 -19.05 -57.75 -17.95 -57.95 -15.7 -57.1 -12.4 -55.85 -11.0 -54.6 -9.65 -53.4 -10.2 -52.1" fill="none" stroke="#000000" stroke-linecap="round" stroke-linejoin="round" stroke-width="2.0"/>
      <path d="M-21.25 -53.0 Q-20.55 -54.4 -20.55 -56.4 L-20.1 -56.85 -18.65 -57.2 -15.9 -56.6 -12.5 -55.05 Q-10.95 -54.15 -10.65 -53.3 -10.45 -52.85 -10.65 -52.35 L-10.8 -52.1 Q-11.15 -53.4 -12.35 -54.4 L-13.0 -54.85 -15.35 -55.7 -17.35 -55.65 Q-18.65 -55.05 -19.5 -53.9 L-21.15 -51.4 Q-21.75 -50.15 -22.5 -49.1 -23.25 -48.1 -24.3 -47.4 -25.3 -46.8 -26.85 -46.8 L-26.65 -47.75 -25.95 -48.65 -25.45 -49.0 Q-24.2 -49.65 -23.1 -50.65 -22.0 -51.65 -21.25 -53.0" fill="#999999" fill-rule="evenodd" stroke="none"/>
      <path d="M35.9 7.3 Q35.05 10.4 32.7 12.5 30.35 14.55 27.2 15.8 24.0 16.95 20.6 17.55 L14.3 18.3 9.55 18.4 7.7 18.35 Q5.6 17.9 4.85 17.25 4.05 16.55 4.1 15.8 4.1 15.1 4.35 14.6 L4.65 14.1 Q7.4 14.25 10.0 13.35 12.5 12.35 14.5 11.0 16.55 9.65 17.7 8.55 L18.9 7.45 35.9 7.3" fill="#333333" fill-rule="evenodd" stroke="none"/>
      <path d="M18.9 7.45 L17.7 8.55 Q16.55 9.65 14.5 11.0 12.5 12.35 10.0 13.35 7.4 14.25 4.65 14.1 L4.35 14.6 Q4.1 15.1 4.1 15.8 4.05 16.55 4.85 17.25 5.6 17.9 7.7 18.35 L9.55 18.4 14.3 18.3 20.6 17.55 Q24.0 16.95 27.2 15.8 30.35 14.55 32.7 12.5 35.05 10.4 35.9 7.3" fill="none" stroke="#000000" stroke-linecap="round" stroke-linejoin="round" stroke-width="2.0"/>
      <path d="M274.5 -8.45 L275.75 -5.35 276.45 -2.5 Q276.55 -1.25 275.95 -0.7 L274.65 -0.65 273.1 -1.85 270.85 -3.5 Q269.5 -4.3 267.5 -4.8 L262.65 -5.0 256.3 -3.6 246.25 -0.95 233.45 2.05 Q226.5 3.5 219.0 4.35 L203.85 5.0 Q196.25 4.85 189.1 3.15 181.9 1.4 175.7 -2.35 168.55 -6.75 164.3 -11.75 160.1 -16.75 158.05 -21.75 156.05 -26.8 155.55 -31.3 155.1 -35.85 155.45 -39.45 155.85 -42.95 156.4 -45.05 156.95 -47.1 157.05 -47.15 156.95 -47.15 155.75 -48.05 154.5 -48.95 152.85 -50.85 151.15 -52.8 149.8 -55.75 148.4 -58.75 148.05 -62.8 147.65 -66.9 149.0 -72.2 L149.25 -73.05 149.35 -75.0 Q149.25 -76.15 148.5 -77.0 L146.9 -78.7 Q146.15 -79.6 146.0 -80.4 145.85 -81.25 146.9 -81.8 147.75 -82.15 149.0 -81.8 L151.45 -80.85 153.5 -79.7 154.4 -79.1 154.75 -80.4 155.95 -83.5 Q156.7 -85.4 157.95 -87.3 159.15 -89.25 160.8 -90.65 162.45 -92.1 164.5 -92.45 L165.3 -92.25 167.45 -90.9 Q168.75 -89.7 170.35 -87.15 171.6 -85.1 173.4 -82.85 175.15 -80.65 177.3 -78.65 179.45 -76.65 181.6 -75.35 183.8 -74.0 185.85 -73.8 L186.95 -73.45 Q187.95 -73.05 189.55 -72.05 191.15 -71.05 192.9 -69.05 194.6 -67.1 196.0 -63.95 197.45 -60.8 198.1 -56.2 L199.4 -45.3 Q199.9 -40.25 200.7 -36.0 201.5 -31.75 203.15 -28.35 204.75 -25.0 207.7 -22.6 L212.7 -18.75 Q215.4 -16.8 218.85 -15.05 222.3 -13.3 227.05 -11.9 231.8 -10.45 238.3 -9.45 L253.55 -8.2 255.25 -9.0 259.3 -11.1 264.35 -14.05 269.05 -17.25 270.0 -17.8 272.15 -18.85 274.65 -19.5 Q275.85 -19.6 276.5 -18.85 277.05 -18.0 276.6 -16.9 L275.25 -14.6 273.6 -12.7 272.75 -11.9 273.3 -10.9 274.5 -8.45" fill="#a33128" fill-rule="evenodd" stroke="none"/>
      <path d="M274.5 -8.45 L275.75 -5.35 276.45 -2.5 Q276.55 -1.25 275.95 -0.7 L274.65 -0.65 273.1 -1.85 270.85 -3.5 Q269.5 -4.3 267.5 -4.8 L262.65 -5.0 256.3 -3.6 246.25 -0.95 233.45 2.05 Q226.5 3.5 219.0 4.35 L203.85 5.0 Q196.25 4.85 189.1 3.15 181.9 1.4 175.7 -2.35 168.55 -6.75 164.3 -11.75 160.1 -16.75 158.05 -21.75 156.05 -26.8 155.55 -31.3 155.1 -35.85 155.45 -39.45 155.85 -42.95 156.4 -45.05 156.95 -47.1 157.05 -47.15 156.95 -47.15 155.75 -48.05 154.5 -48.95 152.85 -50.85 151.15 -52.8 149.8 -55.75 148.4 -58.75 148.05 -62.8 147.65 -66.9 149.0 -72.2 L149.25 -73.05 149.35 -75.0 Q149.25 -76.15 148.5 -77.0 L146.9 -78.7 Q146.15 -79.6 146.0 -80.4 145.85 -81.25 146.9 -81.8 147.75 -82.15 149.0 -81.8 L151.45 -80.85 153.5 -79.7 154.4 -79.1 154.75 -80.4 155.95 -83.5 Q156.7 -85.4 157.95 -87.3 159.15 -89.25 160.8 -90.65 162.45 -92.1 164.5 -92.45 L165.3 -92.25 167.45 -90.9 Q168.75 -89.7 170.35 -87.15 171.6 -85.1 173.4 -82.85 175.15 -80.65 177.3 -78.65 179.45 -76.65 181.6 -75.35 183.8 -74.0 185.85 -73.8 L186.95 -73.45 Q187.95 -73.05 189.55 -72.05 191.15 -71.05 192.9 -69.05 194.6 -67.1 196.0 -63.95 197.45 -60.8 198.1 -56.2 L199.4 -45.3 Q199.9 -40.25 200.7 -36.0 201.5 -31.75 203.15 -28.35 204.75 -25.0 207.7 -22.6 L212.7 -18.75 Q215.4 -16.8 218.85 -15.05 222.3 -13.3 227.05 -11.9 231.8 -10.45 238.3 -9.45 L253.55 -8.2 255.25 -9.0 259.3 -11.1 264.35 -14.05 269.05 -17.25 270.0 -17.8 272.15 -18.85 274.65 -19.5 Q275.85 -19.6 276.5 -18.85 277.05 -18.0 276.6 -16.9 L275.25 -14.6 273.6 -12.7 272.75 -11.9 273.3 -10.9 274.5 -8.45" fill="none" stroke="#000000" stroke-linecap="round" stroke-linejoin="round" stroke-width="2.0"/>
      <path d="M192.65 -61.95 Q191.7 -65.05 189.8 -67.8 L185.6 -73.05 185.7 -73.05 187.4 -72.4 Q188.9 -71.8 190.9 -70.05 192.95 -68.3 194.75 -64.9 196.6 -61.55 197.4 -56.05 L198.45 -47.3 Q199.0 -41.7 199.8 -36.95 200.6 -32.2 202.3 -28.45 204.0 -24.65 207.25 -22.0 L207.35 -21.9 Q209.6 -20.05 212.2 -18.2 214.75 -16.35 218.1 -14.65 221.4 -12.9 225.9 -11.45 230.45 -10.0 236.5 -9.0 L250.75 -7.55 Q245.85 -5.1 240.4 -4.25 235.0 -3.45 229.4 -4.0 223.8 -4.55 218.45 -6.25 213.05 -7.9 208.2 -10.45 202.95 -13.15 198.85 -17.4 194.8 -21.65 192.2 -27.05 189.6 -32.4 188.8 -38.35 188.0 -44.3 189.3 -50.35 189.35 -50.9 189.85 -51.4 L191.05 -52.6 192.3 -53.85 Q192.75 -54.5 192.8 -55.25 193.6 -58.9 192.65 -61.95" fill="#ba3b35" fill-rule="evenodd" stroke="none"/>
      <path d="M275.95 -18.4 Q276.35 -17.8 275.85 -16.75 L274.3 -14.5 272.35 -12.4 271.9 -12.05 272.2 -11.55 274.3 -7.15 275.65 -3.3 Q276.05 -1.65 275.6 -1.25 275.35 -1.1 275.0 -1.25 L273.8 -2.2 271.45 -3.95 Q270.0 -4.85 267.9 -5.4 L262.6 -5.65 258.7 -4.85 252.8 -3.3 242.65 -0.7 230.2 1.95 216.45 3.9 Q209.4 4.55 202.3 4.25 195.2 3.95 188.55 2.25 181.9 0.55 176.1 -2.9 167.3 -8.3 162.3 -15.4 157.35 -22.55 156.3 -31.3 155.85 -35.75 156.2 -39.25 156.6 -42.7 157.1 -44.7 L157.75 -46.85 157.95 -47.4 157.4 -47.7 156.0 -48.7 Q154.75 -49.65 153.2 -51.5 151.6 -53.35 150.3 -56.25 149.0 -59.05 148.7 -63.0 148.4 -66.9 149.7 -71.9 L149.95 -72.95 Q150.2 -73.9 150.05 -75.15 149.95 -76.45 149.0 -77.45 L148.0 -78.5 147.1 -79.65 Q146.7 -80.25 146.75 -80.65 L146.8 -80.8 147.25 -81.1 149.1 -81.05 151.6 -79.95 154.0 -78.5 154.85 -77.95 155.1 -78.9 155.4 -80.0 156.35 -82.55 157.95 -85.8 Q158.9 -87.55 160.15 -88.95 161.4 -90.45 163.0 -91.2 161.9 -89.2 161.15 -87.0 L159.95 -82.6 Q159.25 -79.6 159.1 -75.85 158.95 -72.1 159.45 -68.1 159.9 -64.1 161.05 -60.35 162.15 -56.55 163.95 -53.45 165.8 -50.45 168.3 -48.55 170.85 -46.65 174.2 -46.45 172.8 -45.55 171.65 -43.2 170.55 -40.95 169.9 -37.95 169.25 -34.9 169.2 -31.75 169.2 -28.6 170.0 -25.9 171.7 -20.0 174.65 -15.9 177.6 -11.85 181.9 -9.05 186.25 -6.25 192.15 -4.2 199.55 -1.45 207.65 0.1 215.7 1.7 223.7 1.6 231.65 1.6 238.8 -0.6 245.95 -2.8 251.5 -7.55 L253.55 -7.45 253.75 -7.45 253.9 -7.5 255.75 -8.45 259.85 -10.55 264.85 -13.45 Q267.45 -15.05 269.45 -16.65 L271.75 -17.9 Q273.1 -18.5 274.3 -18.7 275.5 -18.95 275.95 -18.4" fill="#842824" fill-rule="evenodd" stroke="none"/>
      <path d="M193.85 -76.45 L199.75 -76.95 Q200.3 -74.7 200.1 -72.6 199.85 -70.4 199.25 -68.6 L198.15 -65.8 197.6 -64.7 192.8 -66.3 Q193.95 -67.15 194.3 -68.75 194.65 -70.4 194.5 -72.15 L194.15 -75.15 193.85 -76.45" fill="#000000" fill-rule="evenodd" stroke="none"/>
      <path d="M174.65 -23.05 Q173.25 -22.85 171.6 -22.0 169.95 -21.2 168.45 -20.2 L166.05 -18.5 165.1 -17.7 Q164.15 -21.3 164.45 -23.95 164.75 -26.55 165.65 -28.25 166.6 -29.95 167.4 -30.75 L168.25 -31.6 174.65 -23.05" fill="#a33128" fill-rule="evenodd" stroke="none"/>
      <path d="M168.25 -31.6 L167.4 -30.75 Q166.6 -29.95 165.65 -28.25 164.75 -26.55 164.45 -23.95 164.15 -21.3 165.1 -17.7 L166.05 -18.5 168.45 -20.2 Q169.95 -21.2 171.6 -22.0 173.25 -22.85 174.65 -23.05" fill="none" stroke="#000000" stroke-linecap="round" stroke-linejoin="round" stroke-width="2.0"/>
      <path d="M190.9 -52.7 L192.75 -54.35 Q190.1 -51.45 187.15 -49.65 183.3 -47.25 179.35 -46.3 175.35 -45.3 171.75 -45.35 L165.25 -45.85 160.7 -46.85 159.0 -47.35 Q165.35 -45.85 170.5 -45.9 175.6 -45.9 179.5 -46.95 183.45 -48.0 186.25 -49.6 189.1 -51.1 190.9 -52.7" fill="#000000" fill-rule="evenodd" stroke="none"/>
      <path d="M172.3 -70.25 Q170.55 -68.55 170.35 -66.85 170.2 -65.1 171.0 -63.55 171.8 -62.0 173.0 -60.75 L175.05 -58.85 176.0 -58.1 Q172.45 -60.0 170.75 -61.6 169.0 -63.2 168.65 -64.6 168.25 -65.95 168.75 -67.0 169.25 -68.05 170.05 -68.8 170.9 -69.5 171.6 -69.85 L172.3 -70.25" fill="#000000" fill-rule="evenodd" stroke="none"/>
      <path d="M193.8 -34.8 L198.45 -25.95 Q197.15 -23.1 195.05 -20.7 L190.55 -16.3 Q188.2 -14.35 186.05 -12.95 183.9 -11.55 182.6 -10.85 L181.2 -10.05 Q179.6 -10.5 178.2 -11.55 176.75 -12.65 175.65 -13.9 L173.9 -16.1 173.25 -17.05 Q178.0 -18.25 181.45 -20.35 184.95 -22.45 187.3 -24.95 189.7 -27.4 191.15 -29.6 192.55 -31.85 193.15 -33.35 L193.8 -34.8" fill="#ba3b35" fill-rule="evenodd" stroke="none"/>
      <path d="M211.95 -13.3 Q211.7 -11.65 210.45 -9.5 L207.55 -5.2 204.8 -1.7 203.55 -0.25 195.15 -2.55 Q197.55 -3.3 199.15 -4.85 200.8 -6.45 201.85 -8.35 L203.5 -12.0 204.3 -14.9 204.5 -16.1 211.95 -13.3" fill="#ba3b35" fill-rule="evenodd" stroke="none"/>
      <path d="M225.05 -6.3 Q225.0 -4.15 224.45 -2.4 L223.35 0.5 222.7 1.6 213.85 1.6 Q215.25 0.85 216.3 -0.8 217.35 -2.4 218.05 -4.2 L219.1 -7.3 219.45 -8.65 225.05 -6.3" fill="#ba3b35" fill-rule="evenodd" stroke="none"/>
      <path d="M232.95 -4.9 L237.6 -5.85 237.15 -3.6 236.25 -1.3 235.75 -0.25 230.15 1.15 Q231.5 -0.1 232.1 -1.5 L232.85 -3.85 232.95 -4.9" fill="#ba3b35" fill-rule="evenodd" stroke="none"/>
      <path d="M129.3 -156.5 Q128.55 -149.6 129.0 -142.0 129.45 -134.35 130.95 -126.6 132.45 -118.75 134.85 -111.45 137.2 -104.2 140.25 -97.95 143.3 -91.75 146.9 -87.25 150.5 -82.7 154.4 -80.55" fill="none" stroke="#000000" stroke-linecap="round" stroke-linejoin="round" stroke-width="1.0"/>
    </g>
    <g id="sprite0" transform="matrix(1, 0, 0, 1, 15.85, 12.4)">
      <use height="19.4" transform="matrix(1.0, 0.0, 0.0, 1.0, -15.85, -9.7)" width="31.65" xlink:href="#shape2"/>
    </g>
    <g id="shape2" transform="matrix(1, 0, 0, 1, 15.85, 9.7)">
      <path d="M-0.3 0.45 Q-0.1 2.25 -0.4 3.95 -0.65 5.6 -1.35 7.0 L-7.65 8.1 -12.15 9.2 Q-13.4 7.9 -14.25 6.0 -15.1 4.15 -15.3 1.9 -15.55 -1.0 -14.8 -3.4 -14.0 -5.8 -12.45 -7.35 -10.9 -8.85 -8.8 -9.1 -5.6 -9.4 -3.3 -6.95 -1.0 -4.55 -0.3 0.45" fill="#ffffff" fill-rule="evenodd" stroke="none"/>
      <path d="M-0.3 0.45 Q-1.0 -4.55 -3.3 -6.95 -5.6 -9.4 -8.8 -9.1 -10.9 -8.85 -12.45 -7.35 -14.0 -5.8 -14.8 -3.4 -15.55 -1.0 -15.3 1.9 -15.1 4.15 -14.25 6.0 -13.4 7.9 -12.15 9.2 L-7.65 8.1 -1.35 7.0 Q-0.65 5.6 -0.4 3.95 -0.1 2.25 -0.3 0.45" fill="none" stroke="#000000" stroke-linecap="round" stroke-linejoin="round" stroke-width="1.0"/>
      <path d="M-12.85 0.6 Q-12.6 3.2 -11.6 5.05 -10.6 6.95 -8.95 8.0 L-12.0 8.75 Q-14.55 6.3 -14.95 1.85 -15.2 -0.85 -14.5 -3.15 -13.8 -5.4 -12.35 -6.9 -10.95 -8.4 -9.05 -8.7 -11.0 -7.55 -12.05 -5.05 -13.1 -2.6 -12.85 0.6" fill="#e5e2be" fill-rule="evenodd" stroke="none"/>
      <path d="M11.95 -8.2 Q13.2 -7.05 14.05 -5.0 14.95 -2.95 15.2 -0.3 L15.3 2.4 15.15 5.2 14.7 7.45 Q12.4 6.4 10.15 6.05 7.95 5.7 6.55 6.05 5.4 3.8 5.1 0.7 4.9 -1.9 5.35 -4.15 5.85 -6.3 6.85 -7.65 7.9 -9.05 9.3 -9.2 10.7 -9.3 11.95 -8.2" fill="#ffffff" fill-rule="evenodd" stroke="none"/>
      <path d="M11.95 -8.2 Q10.7 -9.3 9.3 -9.2 7.9 -9.05 6.85 -7.65 5.85 -6.3 5.35 -4.15 4.9 -1.9 5.1 0.7 5.4 3.8 6.55 6.05 7.95 5.7 10.15 6.05 12.4 6.4 14.7 7.45 L15.15 5.2 15.3 2.4 15.2 -0.3 Q14.95 -2.95 14.05 -5.0 13.2 -7.05 11.95 -8.2" fill="none" stroke="#000000" stroke-linecap="round" stroke-linejoin="round" stroke-width="1.0"/>
      <path d="M5.4 -0.95 Q5.4 -3.5 6.1 -5.5 6.85 -7.45 8.0 -8.35 7.1 -6.2 7.1 -3.2 L7.15 -1.65 Q7.3 0.0 7.6 1.5 7.95 3.0 8.55 4.1 9.1 5.25 10.0 5.65 L8.4 5.6 6.8 5.55 5.9 3.3 Q5.6 2.15 5.45 0.65 L5.4 -0.95" fill="#e5e2be" fill-rule="evenodd" stroke="none"/>
      <path d="M-3.95 -1.95 Q-2.55 -1.75 -1.7 -0.4 -0.9 1.0 -1.05 2.95 -1.25 4.8 -2.35 6.0 -3.4 7.2 -4.8 7.15 -6.25 6.95 -7.0 5.6 -7.85 4.2 -7.7 2.25 -7.5 0.35 -6.45 -0.8 -5.35 -2.0 -3.95 -1.95" fill="#000000" fill-rule="evenodd" stroke="none"/>
      <path d="M-2.35 1.0 Q-2.4 1.8 -2.8 2.25 -3.25 2.75 -3.8 2.7 -4.35 2.65 -4.65 2.05 -5.0 1.55 -4.95 0.8 -4.9 0.0 -4.45 -0.45 -4.05 -0.95 -3.45 -0.9 -2.9 -0.85 -2.55 -0.25 -2.25 0.25 -2.35 1.0" fill="#ffffff" fill-rule="evenodd" stroke="none"/>
      <path d="M14.6 1.95 Q14.4 3.55 13.65 4.5 12.9 5.5 11.85 5.45 10.85 5.3 10.25 4.2 9.7 3.05 9.8 1.45 9.95 -0.1 10.75 -1.1 11.5 -2.05 12.55 -2.0 13.55 -1.85 14.15 -0.75 14.75 0.4 14.6 1.95" fill="#000000" fill-rule="evenodd" stroke="none"/>
      <path d="M14.05 0.55 L13.65 1.55 Q13.35 1.95 12.85 1.9 12.45 1.85 12.2 1.4 11.95 0.95 12.0 0.35 12.05 -0.25 12.4 -0.65 12.7 -1.05 13.15 -1.0 L13.8 -0.5 Q14.1 -0.05 14.05 0.55" fill="#ffffff" fill-rule="evenodd" stroke="none"/>
    </g>
  </defs>
</svg>
