<?xml version="1.0" encoding="UTF-8" standalone="no"?>
<svg xmlns:xlink="http://www.w3.org/1999/xlink" height="400.0px" width="600.0px" xmlns="http://www.w3.org/2000/svg">
  <g transform="matrix(1, 0, 0, 1, 0.0, 0.0)">
    <clipPath id="clipPath0" transform="matrix(1, 0, 0, 1, 0.0, 0.0)">
      <use height="400.0" transform="matrix(1.0, 0.0, 0.0, 1.0, 0.0, 0.0)" width="600.0" xlink:href="#sprite0"/>
    </clipPath>
    <use height="30.0" transform="matrix(1.0, 0.0, 0.0, 1.0, 631.95, 167.0)" width="72.0" xlink:href="#text0"/>
  </g>
  <defs>
    <g id="sprite0" transform="matrix(1, 0, 0, 1, 0.0, 0.0)">
      <use height="400.0" transform="matrix(1.0, 0.0, 0.0, 1.0, 0.0, 0.0)" width="600.0" xlink:href="#shape0"/>
    </g>
    <g id="shape0" transform="matrix(1, 0, 0, 1, 0.0, 0.0)">
      <path d="M600.0 0.0 L600.0 400.0 0.0 400.0 0.0 0.0 600.0 0.0" fill="#8b756b" fill-opacity="0.0" fill-rule="evenodd" stroke="none"/>
    </g>
  </defs>
</svg>
