<?xml version="1.0" encoding="UTF-8" standalone="no"?>
<svg xmlns:xlink="http://www.w3.org/1999/xlink" height="139.35px" width="175.4px" xmlns="http://www.w3.org/2000/svg">
  <g transform="matrix(1, 0, 0, 1, 39.85, 83.75)">
    <use height="78.55" transform="matrix(1.0, 0.0, 0.0, 1.0, -14.1, -56.6)" width="95.35" xlink:href="#shape0"/>
  </g>
  <defs>
    <g id="shape0" transform="matrix(1, 0, 0, 1, 14.1, 56.6)">
      <path d="M-4.8 -50.0 L-4.6 -51.3 -2.85 -53.45 Q0.8 -56.6 7.25 -56.6 13.05 -56.6 20.45 -52.95 23.05 -51.7 25.05 -50.45 L24.15 -50.6 23.05 -51.45 Q21.9 -52.2 18.8 -53.15 L9.6 -53.15 9.6 -52.95 Q4.1 -52.85 0.7 -50.5 -2.15 -48.55 -2.15 -46.5 L-2.15 -44.65 -2.15 -44.5 Q-1.9 -43.25 1.7 -40.7 5.4 -38.05 7.2 -37.95 9.85 -37.0 13.6 -36.15 L16.45 -35.6 16.85 -35.1 16.75 -34.5 16.45 -34.5 16.4 -34.5 14.7 -34.7 14.3 -34.95 Q10.3 -35.6 6.9 -36.65 4.4 -37.45 3.55 -37.95 L1.15 -39.95 Q0.2 -40.8 -1.0 -40.85 L-1.1 -40.85 -0.7 -40.45 0.1 -39.5 2.9 -36.75 2.75 -36.8 Q0.25 -38.3 -0.3 -39.2 L-1.1 -40.15 -1.9 -41.35 -3.3 -44.1 Q-4.7 -46.45 -4.8 -50.0 M34.2 -37.9 L34.4 -37.1 Q34.4 -35.85 33.3 -34.65 33.75 -35.65 33.75 -36.8 L33.75 -37.75 33.7 -38.15 34.2 -37.9" fill="#72b4b3" fill-rule="evenodd" stroke="none"/>
      <path d="M7.2 -37.95 Q5.4 -38.05 1.7 -40.7 -1.9 -43.25 -2.15 -44.5 L-2.15 -44.65 -2.15 -46.5 Q-2.15 -48.55 0.7 -50.5 4.1 -52.85 9.6 -52.95 L9.6 -53.15 18.8 -53.15 Q21.9 -52.2 23.05 -51.45 L24.15 -50.6 25.05 -50.45 27.0 -49.1 Q26.2 -48.85 25.95 -47.25 25.65 -45.6 20.95 -44.9 20.1 -44.8 19.75 -44.35 L19.0 -43.65 Q19.0 -43.2 18.35 -43.1 L18.15 -43.1 Q17.15 -42.6 15.95 -42.45 L15.55 -42.25 14.95 -42.0 Q15.75 -42.0 16.65 -41.3 L17.45 -41.1 17.95 -40.95 17.15 -40.85 17.3 -40.75 15.7 -40.6 9.55 -39.5 Q7.9 -39.15 7.9 -38.35 L7.85 -38.05 7.35 -37.95 7.2 -37.95 M13.05 -42.0 Q12.55 -41.85 13.0 -41.7 L13.0 -41.85 13.05 -42.0 M7.45 -40.15 L7.5 -40.3 6.9 -40.3 7.45 -40.15" fill="#76bfbd" fill-opacity="0.99607843" fill-rule="evenodd" stroke="none"/>
      <path d="M16.45 -34.5 L16.75 -34.5 16.85 -35.1 16.45 -35.6 13.6 -36.15 19.2 -35.7 23.7 -35.65 24.65 -35.65 Q27.9 -35.65 30.1 -37.4 L32.25 -39.45 32.55 -39.15 Q32.9 -40.6 30.35 -38.8 L30.35 -39.65 30.35 -40.5 32.25 -42.55 Q34.2 -39.25 34.2 -37.95 L34.2 -37.9 33.7 -38.15 Q33.45 -38.8 32.8 -38.8 L32.55 -38.65 Q31.95 -37.45 30.5 -36.45 27.3 -34.3 20.1 -34.3 L16.45 -34.5" fill="#71b2b1" fill-rule="evenodd" stroke="none"/>
      <path d="M30.35 -38.8 Q32.9 -40.6 32.55 -39.15 L32.25 -39.45 30.1 -37.4 Q27.9 -35.65 24.65 -35.65 L23.7 -35.65 24.25 -35.75 24.35 -36.25 Q28.25 -36.2 30.15 -38.15 L30.35 -38.8" fill="#6fa9aa" fill-rule="evenodd" stroke="none"/>
      <path d="M13.6 -36.15 Q9.85 -37.0 7.2 -37.95 L7.35 -37.95 7.85 -38.05 7.9 -38.35 Q7.9 -39.15 9.55 -39.5 L15.7 -40.6 17.3 -40.75 17.15 -40.85 17.95 -40.95 17.45 -41.1 16.65 -41.3 Q15.75 -42.0 14.95 -42.0 L15.55 -42.25 15.95 -42.45 Q17.15 -42.6 18.15 -43.1 L18.35 -43.1 Q19.0 -43.2 19.0 -43.65 L19.75 -44.35 Q20.1 -44.8 20.95 -44.9 25.65 -45.6 25.95 -47.25 26.2 -48.85 27.0 -49.1 L27.9 -48.45 Q29.05 -47.6 31.55 -43.7 L32.25 -42.55 30.35 -40.5 30.35 -39.65 30.35 -38.8 30.15 -38.15 Q28.25 -36.2 24.35 -36.25 21.15 -36.6 19.2 -35.7 L13.6 -36.15 M13.05 -42.0 L13.0 -41.85 13.0 -41.7 Q12.55 -41.85 13.05 -42.0" fill="#79c7c5" fill-opacity="0.99607843" fill-rule="evenodd" stroke="none"/>
      <path d="M2.9 -36.75 L0.1 -39.5 -0.7 -40.45 -1.1 -40.85 -1.0 -40.85 Q0.2 -40.8 1.15 -39.95 L3.55 -37.95 Q4.4 -37.45 6.9 -36.65 10.3 -35.6 14.3 -34.95 L14.7 -34.7 16.4 -34.5 16.45 -34.5 20.1 -34.3 Q27.3 -34.3 30.5 -36.45 31.95 -37.45 32.55 -38.65 L32.8 -38.8 Q33.45 -38.8 33.7 -38.15 L33.75 -37.75 33.75 -36.8 Q33.75 -35.65 33.3 -34.65 L33.1 -34.2 32.9 -33.95 32.8 -33.75 Q31.85 -32.45 30.3 -32.2 L29.3 -31.75 29.15 -31.7 22.75 -31.1 15.8 -31.35 Q11.4 -32.45 8.55 -33.8 L7.85 -34.1 4.95 -35.4 4.6 -35.5 4.5 -35.65 4.2 -35.8 2.9 -36.75 M26.05 -32.45 L25.2 -32.15 24.1 -32.15 23.05 -31.95 23.3 -31.95 26.9 -32.45 26.05 -32.45" fill="#6c9d9e" fill-rule="evenodd" stroke="none"/>
      <path d="M23.7 -35.65 L19.2 -35.7 Q21.15 -36.6 24.35 -36.25 L24.25 -35.75 23.7 -35.65 M26.05 -32.45 L26.9 -32.45 23.3 -31.95 23.05 -31.95 24.1 -32.15 25.2 -32.15 26.05 -32.45 M7.45 -40.15 L6.9 -40.3 7.5 -40.3 7.45 -40.15" fill="#74b4b4" fill-rule="evenodd" stroke="none"/>
      <path d="M22.95 -13.7 L22.65 -13.15 24.0 -11.9 24.15 -12.1 Q25.75 -10.85 30.45 -8.2 L30.75 -7.25 Q30.75 -7.15 31.2 -7.15 L31.2 -5.65 31.0 -4.55 30.75 -4.55 31.0 -4.4 Q31.0 -3.95 31.35 -3.6 L29.3 -4.55 22.5 -8.6 20.1 -9.75 20.1 -9.95 20.2 -10.0 19.25 -10.85 Q18.6 -11.2 17.9 -11.95 16.95 -12.85 16.75 -13.4 L18.2 -13.65 18.25 -13.65 Q18.4 -14.6 18.95 -14.9 L19.75 -15.0 20.4 -14.8 20.4 -14.85 21.85 -18.6 Q22.8 -20.95 23.5 -22.1 L23.7 -21.9 23.9 -22.2 24.35 -22.3 24.65 -21.8 24.75 -21.65 25.0 -21.0 23.7 -17.2 23.25 -16.0 23.35 -15.9 23.5 -15.45 23.15 -14.8 22.75 -14.55 22.65 -14.5 22.4 -13.85 22.95 -13.7 M9.9 11.25 L9.7 11.5 Q9.4 12.1 8.95 12.1 L8.65 12.0 8.55 11.55 7.6 11.9 7.2 11.85 7.05 11.7 7.5 11.1 Q8.55 10.8 8.55 10.5 L8.55 10.35 8.9 10.2 9.85 10.1 10.0 10.15 10.0 10.75 9.9 11.25 M29.15 -31.7 L29.3 -31.75 30.3 -32.2 Q31.85 -32.45 32.8 -33.75 L31.75 -31.6 31.1 -30.5 31.05 -30.55 30.75 -30.65 29.95 -29.85 Q29.1 -29.1 28.2 -28.95 L26.85 -28.55 28.4 -30.65 29.15 -31.7 M21.6 -14.2 L21.45 -14.2 21.7 -13.95 22.2 -13.9 21.9 -14.25 21.6 -14.2" fill="#5a5455" fill-rule="evenodd" stroke="none"/>
      <path d="M2.75 -36.8 L2.9 -36.75 4.2 -35.8 4.5 -35.65 4.6 -35.5 4.95 -35.4 7.85 -34.1 8.55 -33.8 Q11.4 -32.45 15.8 -31.35 L22.75 -31.1 29.15 -31.7 28.4 -30.65 26.85 -28.55 26.5 -28.35 26.3 -28.55 26.1 -28.3 26.05 -28.3 25.95 -28.45 25.85 -28.55 25.8 -28.5 25.65 -28.55 25.0 -28.05 23.65 -27.85 23.5 -27.9 22.35 -27.9 Q10.05 -29.45 4.8 -32.2 L1.2 -34.45 0.4 -34.9 0.4 -35.2 0.65 -35.8 0.8 -36.0 3.75 -34.5 1.45 -36.0 1.45 -36.5 1.9 -36.4 1.25 -36.8 1.25 -36.85 Q1.25 -37.35 1.35 -37.1 L2.75 -36.8 M33.1 -34.2 L31.2 -30.35 31.1 -30.5 31.75 -31.6 32.8 -33.75 32.9 -33.95 33.1 -34.2" fill="#434045" fill-rule="evenodd" stroke="none"/>
      <path d="M29.15 -26.2 L28.8 -25.6 28.6 -25.3 29.15 -26.2 M22.35 -27.9 L23.5 -27.9 23.65 -27.85 23.8 -27.8 Q24.4 -27.7 25.0 -28.05 L25.65 -28.55 25.8 -28.5 25.85 -28.55 25.95 -28.45 26.05 -28.3 26.1 -28.3 24.75 -25.7 23.75 -23.2 Q22.85 -23.0 22.85 -22.55 L22.9 -22.3 22.85 -22.35 22.55 -22.65 22.45 -22.75 22.45 -22.55 22.8 -22.35 Q12.8 -20.95 5.65 -23.9 2.75 -24.7 0.45 -26.4 L-1.25 -27.75 Q-2.7 -28.2 -3.55 -30.25 L-3.6 -30.4 -3.75 -30.85 -4.1 -31.95 Q-4.1 -36.6 -2.45 -36.4 -1.85 -36.35 -1.0 -35.65 L-2.8 -36.3 Q2.25 -32.15 4.65 -31.05 L7.25 -30.05 8.5 -29.45 Q12.3 -28.45 18.15 -27.95 L22.35 -27.9 M23.8 -26.8 L22.55 -26.85 22.55 -26.8 22.6 -26.75 Q22.65 -26.5 23.25 -26.6 L23.95 -26.8 24.05 -26.75 24.15 -26.4 24.0 -25.95 23.7 -25.95 21.9 -25.95 22.6 -25.85 Q24.5 -25.45 24.35 -26.8 L24.4 -26.85 24.15 -26.8 24.05 -26.8 23.95 -26.8 23.8 -26.8 M27.3 -23.35 Q27.1 -21.65 25.5 -22.55 L25.65 -22.6 25.85 -22.55 26.05 -22.7 26.3 -22.8 26.5 -22.55 27.05 -23.2 27.2 -23.25 27.3 -23.35 M14.5 -26.4 Q13.15 -26.8 12.4 -27.35 L12.2 -26.9 11.5 -25.95 17.95 -24.7 18.0 -24.8 Q18.65 -25.9 20.35 -26.0 L14.5 -26.4 M-0.75 -31.15 L-0.9 -30.9 -0.65 -30.7 -0.65 -30.95 -0.75 -31.15" fill="#668c90" fill-opacity="0.99607843" fill-rule="evenodd" stroke="none"/>
      <path d="M23.65 -27.85 L25.0 -28.05 Q24.4 -27.7 23.8 -27.8 L23.65 -27.85 M22.6 -26.75 L22.55 -26.8 22.55 -26.85 23.8 -26.8 23.5 -26.8 22.6 -26.75 M24.15 -26.8 L24.4 -26.85 24.35 -26.8 24.15 -26.8 M0.4 -34.9 L1.2 -34.45 4.8 -32.2 Q10.05 -29.45 22.35 -27.9 L18.15 -27.95 Q12.3 -28.45 8.5 -29.45 L7.25 -30.05 4.65 -31.05 Q2.25 -32.15 -2.8 -36.3 L-1.0 -35.65 -0.5 -35.4 0.3 -35.0 0.4 -34.9" fill="#505a5f" fill-rule="evenodd" stroke="none"/>
      <path d="M22.6 -26.75 L23.5 -26.8 23.8 -26.8 23.95 -26.8 24.05 -26.8 24.15 -26.8 24.35 -26.8 Q24.5 -25.45 22.6 -25.85 L21.9 -25.95 23.7 -25.95 24.0 -25.95 24.15 -26.4 24.05 -26.75 23.95 -26.8 23.25 -26.6 Q22.65 -26.5 22.6 -26.75 M14.5 -26.4 L20.35 -26.0 Q18.65 -25.9 18.0 -24.8 L17.95 -24.7 11.5 -25.95 12.2 -26.9 12.4 -27.35 Q13.15 -26.8 14.5 -26.4" fill="#65888d" fill-rule="evenodd" stroke="none"/>
      <path d="M31.2 -30.35 L31.2 -30.15 Q31.2 -29.6 29.35 -26.6 L29.15 -26.2 28.6 -25.3 28.2 -24.75 28.2 -24.7 Q28.2 -23.95 27.3 -23.35 L27.2 -23.25 27.05 -23.2 26.5 -22.55 26.3 -22.8 26.05 -22.7 25.85 -22.55 25.65 -22.6 25.5 -22.55 24.85 -22.35 24.8 -22.35 24.55 -22.35 24.35 -22.3 23.9 -22.2 23.3 -22.1 23.05 -22.1 22.95 -22.1 22.9 -22.3 22.85 -22.55 Q22.85 -23.0 23.75 -23.2 L24.75 -25.7 26.1 -28.3 26.3 -28.55 26.5 -28.35 26.85 -28.55 28.2 -28.95 Q29.1 -29.1 29.95 -29.85 L30.75 -30.65 31.05 -30.55 31.1 -30.5 31.2 -30.35 M-13.95 1.55 L-13.1 -2.55 -13.05 -3.0 Q-12.2 -2.95 -12.05 -2.1 L-11.6 -2.0 Q-10.7 0.95 -8.35 2.55 L-8.15 2.85 -9.65 2.55 -9.1 4.1 -8.7 4.85 -8.7 4.9 -8.6 5.15 -8.4 7.2 -10.7 5.25 -11.05 4.85 -11.15 4.75 -11.25 4.65 -13.0 2.2 -13.95 1.55 M22.8 -22.35 L22.45 -22.55 22.45 -22.75 22.55 -22.65 22.85 -22.35 22.8 -22.35 M9.4 9.6 L9.4 9.4 Q9.4 8.45 9.8 7.3 10.4 5.7 11.65 5.7 L12.4 5.85 12.4 6.2 Q12.4 6.7 11.2 8.35 L11.1 8.55 9.8 9.95 9.5 9.9 9.4 9.6" fill="#73b6b3" fill-opacity="0.99607843" fill-rule="evenodd" stroke="none"/>
      <path d="M28.8 -25.6 L23.45 -14.8 23.15 -14.8 23.5 -15.45 23.35 -15.9 23.25 -16.0 23.7 -17.2 25.0 -21.0 24.75 -21.65 24.8 -22.35 24.85 -22.35 25.5 -22.55 Q27.1 -21.65 27.3 -23.35 28.2 -23.95 28.2 -24.7 L28.2 -24.75 28.6 -25.3 28.8 -25.6" fill="#505858" fill-rule="evenodd" stroke="none"/>
      <path d="M1.25 -36.85 L1.25 -36.8 1.9 -36.4 1.45 -36.5 1.45 -36.0 3.75 -34.5 0.8 -36.0 1.25 -36.85 M0.4 -35.2 L0.4 -34.9 0.3 -35.0 0.4 -35.2" fill="#484348" fill-rule="evenodd" stroke="none"/>
      <path d="M-1.1 -40.15 L-0.3 -39.2 Q0.25 -38.3 2.75 -36.8 L1.35 -37.1 Q1.25 -37.35 1.25 -36.85 L0.8 -36.0 0.65 -35.8 0.4 -35.2 0.3 -35.0 -0.5 -35.4 -0.5 -35.6 -0.45 -35.9 -1.4 -37.15 -1.55 -37.85 -1.3 -38.85 -1.1 -39.85 -1.1 -40.15 M-3.75 -30.85 L-3.6 -30.4 -3.65 -30.2 -4.5 -29.25 Q-4.95 -28.2 -4.95 -25.35 -4.95 -23.95 -5.8 -21.75 L-5.9 -21.45 -5.5 -23.75 -7.05 -18.35 -7.1 -18.2 -7.1 -18.1 -7.55 -16.6 -9.75 -10.75 Q-11.35 -6.55 -11.35 -3.55 L-11.35 -3.45 -11.6 -3.1 -11.8 -2.85 -12.1 -2.95 -12.2 -3.4 -7.1 -21.9 -5.85 -26.5 -4.5 -31.15 -4.3 -31.85 -4.25 -31.9 -3.75 -30.85" fill="#4d4649" fill-rule="evenodd" stroke="none"/>
      <path d="M20.1 -9.75 Q16.6 -11.65 14.75 -12.25 13.6 -13.15 13.3 -13.6 L14.6 -14.05 18.0 -14.65 18.45 -14.8 18.95 -14.9 Q18.4 -14.6 18.25 -13.65 L18.2 -13.65 16.75 -13.4 Q16.95 -12.85 17.9 -11.95 18.6 -11.2 19.25 -10.85 L20.2 -10.0 20.1 -9.95 20.1 -9.75 M19.75 -15.0 L19.95 -15.05 20.35 -14.95 20.4 -14.85 20.4 -14.8 19.75 -15.0" fill="#50494b" fill-rule="evenodd" stroke="none"/>
      <path d="M23.45 -14.8 L22.95 -13.7 22.4 -13.85 22.65 -14.5 22.75 -14.55 23.15 -14.8 23.45 -14.8 M62.0 15.0 L51.1 10.2 33.05 1.05 Q25.5 -2.65 22.3 -3.7 L21.6 -4.15 20.4 -4.65 20.45 -4.65 20.1 -4.85 Q19.35 -5.15 18.7 -5.5 L18.0 -4.1 18.55 -5.35 18.65 -5.5 18.45 -5.65 17.8 -5.2 18.05 -5.8 17.2 -6.2 Q15.65 -4.5 13.4 -0.05 11.1 4.55 11.1 5.2 L11.15 5.5 11.1 5.5 10.85 5.45 10.65 5.7 10.5 5.8 8.25 6.55 7.55 6.85 7.35 6.9 4.2 7.4 -2.85 6.4 -2.9 6.35 -7.0 3.8 -7.3 3.4 -8.15 2.85 -8.35 2.55 Q-10.7 0.95 -11.6 -2.0 L-11.6 -2.85 -11.6 -3.1 -11.35 -3.45 -11.35 -3.55 Q-11.35 -6.55 -9.75 -10.75 L-7.55 -16.6 -7.1 -18.1 -7.1 -18.2 -7.05 -18.35 -5.9 -21.45 -5.8 -21.75 Q-4.95 -23.95 -4.95 -25.35 -4.95 -28.2 -4.5 -29.25 L-3.65 -30.2 -3.55 -30.25 Q-2.7 -28.2 -1.25 -27.75 L0.45 -26.4 Q2.75 -24.7 5.65 -23.9 12.8 -20.95 22.8 -22.35 L22.85 -22.35 22.9 -22.3 22.95 -22.1 23.05 -22.1 23.3 -22.1 23.9 -22.2 23.7 -21.9 23.5 -22.1 Q22.8 -20.95 21.85 -18.6 L20.4 -14.85 20.35 -14.95 19.95 -15.05 19.75 -15.0 18.95 -14.9 18.45 -14.8 18.0 -14.65 14.6 -14.05 13.3 -13.6 Q13.6 -13.15 14.75 -12.25 16.6 -11.65 20.1 -9.75 L22.5 -8.6 29.3 -4.55 31.35 -3.6 35.4 -1.6 37.25 -0.55 37.2 -0.5 37.2 -0.3 44.5 3.9 45.85 4.3 Q48.45 5.3 50.65 6.7 L55.7 9.05 56.0 9.25 57.5 9.55 59.75 10.25 63.25 11.7 63.1 11.75 Q62.65 12.25 62.65 13.05 L63.05 15.05 63.15 15.5 62.7 15.25 62.0 14.85 62.0 15.0 M-9.4 -23.85 L-9.65 -23.85 Q-10.8 -23.85 -12.35 -25.1 L-12.45 -25.9 Q-12.45 -27.7 -12.7 -28.8 L-12.25 -28.55 -12.15 -28.45 Q-9.65 -26.25 -8.6 -25.85 L-8.8 -25.0 -9.0 -23.85 -9.4 -23.85 M24.8 -22.35 L24.75 -21.65 24.65 -21.8 24.35 -22.3 24.55 -22.35 24.8 -22.35 M21.6 -14.2 L21.9 -14.25 22.2 -13.9 21.7 -13.95 21.45 -14.2 21.6 -14.2 M31.0 -4.55 L31.0 -4.4 30.75 -4.55 31.0 -4.55 M59.3 9.75 L59.8 10.1 57.55 9.45 57.55 9.4 56.9 9.05 57.3 9.1 Q58.45 9.75 59.1 9.75 L59.3 9.75 M69.35 14.4 L69.35 14.45 69.3 15.0 69.3 15.4 69.3 15.5 69.3 16.4 69.3 17.95 69.3 18.25 68.0 17.65 65.75 16.6 65.85 16.4 65.0 14.7 65.05 12.55 66.05 13.15 69.35 14.4 M70.6 17.35 L70.8 17.25 71.25 15.25 71.4 15.55 Q71.85 16.2 73.15 16.2 L73.85 16.15 Q76.0 17.0 77.2 17.6 L77.7 17.85 77.9 17.95 78.7 18.55 78.5 19.6 Q78.4 19.9 77.2 20.0 L77.35 20.05 77.4 20.35 76.75 20.95 76.6 21.1 76.5 21.1 76.1 21.3 70.8 18.85 70.8 17.9 70.6 17.35" fill="#413a40" fill-rule="evenodd" stroke="none"/>
      <path d="M18.0 -4.1 L13.9 3.6 12.7 5.9 12.6 5.75 12.6 5.55 12.15 5.55 11.65 5.5 11.6 5.6 11.2 5.65 11.2 5.6 10.65 5.7 10.85 5.45 11.1 5.5 11.15 5.5 11.1 5.2 Q11.1 4.55 13.4 -0.05 15.65 -4.5 17.2 -6.2 L18.05 -5.8 17.8 -5.2 18.45 -5.65 18.65 -5.5 18.55 -5.35 18.0 -4.1" fill="#524f4f" fill-rule="evenodd" stroke="none"/>
      <path d="M30.45 -8.2 L31.2 -7.8 31.2 -7.15 Q30.75 -7.15 30.75 -7.25 L30.45 -8.2" fill="#3f4648" fill-rule="evenodd" stroke="none"/>
      <path d="M31.2 -7.8 L37.05 -4.6 38.75 -3.7 38.15 -3.55 37.2 -2.85 37.9 -1.9 38.0 -1.55 34.8 -4.7 Q31.9 -7.0 31.2 -5.65 L31.2 -7.15 31.2 -7.8" fill="#5f6c6f" fill-opacity="0.99607843" fill-rule="evenodd" stroke="none"/>
      <path d="M31.2 -5.65 Q31.9 -7.0 34.8 -4.7 L38.0 -1.55 38.45 -1.05 39.65 -0.45 Q42.35 0.75 42.75 1.15 L43.1 1.35 45.15 2.25 Q49.05 4.05 50.05 5.2 L46.7 3.5 Q37.65 -0.95 37.25 -0.55 L35.4 -1.6 31.35 -3.6 Q31.0 -3.95 31.0 -4.4 L31.0 -4.55 31.2 -5.65" fill="#5c6264" fill-rule="evenodd" stroke="none"/>
      <path d="M38.75 -3.7 Q42.65 -1.65 45.75 -0.1 L45.75 1.4 45.75 2.25 45.15 2.25 43.1 1.35 42.75 1.15 Q42.35 0.75 39.65 -0.45 L38.45 -1.05 38.0 -1.55 37.9 -1.9 37.2 -2.85 38.15 -3.55 38.75 -3.7 M44.8 -2.85 L44.9 -2.85 44.95 -2.8 44.8 -2.85" fill="#5c7478" fill-rule="evenodd" stroke="none"/>
      <path d="M70.8 19.1 L70.8 19.15 Q70.8 19.4 70.2 19.4 69.55 19.4 69.3 18.4 L69.3 18.25 69.3 17.95 69.3 16.4 69.3 15.5 69.6 16.15 69.9 16.6 70.3 15.95 70.4 16.5 70.6 17.35 70.8 17.9 70.8 18.85 70.8 19.1 M65.75 16.7 L65.65 16.75 64.35 17.05 Q63.65 17.05 63.15 15.55 L63.15 15.5 63.05 15.05 62.65 13.05 Q62.65 12.25 63.1 11.75 L63.25 11.7 63.65 11.45 Q63.5 12.05 63.5 12.85 63.5 13.6 63.95 14.05 L64.35 13.8 64.35 13.2 64.35 11.9 64.55 11.45 64.7 11.45 64.8 11.75 64.35 13.2 64.9 14.55 65.0 14.7 65.85 16.4 65.75 16.6 65.75 16.7 M37.25 -0.55 Q37.65 -0.95 46.7 3.5 L50.05 5.2 56.9 9.05 57.55 9.4 57.5 9.4 57.5 9.55 56.0 9.25 55.7 9.05 50.65 6.7 Q48.45 5.3 45.85 4.3 L44.5 3.9 37.2 -0.3 37.2 -0.5 37.25 -0.55 M69.6 13.8 L70.3 12.95 Q69.45 13.95 69.3 15.0 L69.35 14.45 69.35 14.4 69.6 13.8" fill="#4d4646" fill-rule="evenodd" stroke="none"/>
      <path d="M80.85 16.2 L81.0 16.35 81.25 16.75 80.85 18.4 80.8 18.45 80.65 18.75 80.2 19.6 Q79.25 21.25 78.4 21.65 L78.0 21.75 77.85 21.75 76.55 21.3 76.6 21.1 76.75 20.95 77.4 20.35 77.35 20.05 77.2 20.0 Q78.4 19.9 78.5 19.6 L78.7 18.55 77.9 17.95 Q78.35 17.35 78.8 17.25 L79.25 16.9 79.35 16.75 78.8 16.65 78.55 16.6 80.65 16.4 80.85 16.2" fill="#3f383f" fill-rule="evenodd" stroke="none"/>
      <path d="M59.3 7.0 Q61.25 7.65 64.9 9.6 66.1 8.9 68.2 9.95 L67.3 10.75 67.2 10.75 67.2 10.7 66.8 10.25 Q65.1 10.25 64.55 11.45 L64.35 11.9 64.35 13.2 64.35 13.8 63.95 14.05 Q63.5 13.6 63.5 12.85 63.5 12.05 63.65 11.45 L63.8 11.0 Q62.45 10.8 59.85 9.2 L59.2 8.8 59.0 8.55 59.3 8.5 59.45 8.15 Q59.45 7.45 58.7 6.85 L58.85 6.9 59.3 7.0 M68.4 11.1 Q69.95 11.15 70.4 11.7 L70.55 12.15 70.15 12.75 69.3 13.2 67.6 12.95 Q66.55 12.65 65.85 11.9 66.1 11.4 66.5 11.2 L67.8 11.05 68.35 11.1 68.4 11.1 M71.3 12.0 L71.7 11.65 Q74.1 9.85 74.2 12.85 L75.0 12.9 Q76.95 13.3 77.8 14.45 L78.2 15.1 78.55 15.2 79.1 15.15 79.25 15.1 79.35 15.1 80.35 15.35 80.4 15.4 80.65 15.6 80.85 15.75 80.85 16.2 80.65 16.4 78.55 16.6 77.5 16.6 75.9 16.4 Q74.95 16.15 74.0 15.55 73.1 15.0 72.5 14.4 72.5 13.25 73.3 12.9 L73.45 12.9 73.3 12.7 73.2 12.6 73.05 12.05 73.0 12.0 72.95 12.05 Q71.95 12.65 71.1 14.25 L70.3 15.95 69.9 16.6 69.6 16.15 69.3 15.5 69.3 15.4 69.3 15.0 Q69.45 13.95 70.3 12.95 70.7 12.45 71.3 12.0" fill="#77c1be" fill-opacity="0.99215686" fill-rule="evenodd" stroke="none"/>
      <path d="M72.95 12.05 L73.05 12.05 73.2 12.6 73.15 12.65 72.55 13.1 Q71.75 13.7 71.35 14.65 L71.25 15.25 70.8 17.25 70.6 17.35 70.4 16.5 70.3 15.95 71.1 14.25 Q71.95 12.65 72.95 12.05 M64.35 13.2 L64.8 11.75 64.7 11.45 64.55 11.45 Q65.1 10.25 66.8 10.25 L67.2 10.7 67.1 10.7 66.35 11.0 Q65.2 11.45 65.1 12.0 L65.05 12.55 65.0 14.7 64.9 14.55 64.35 13.2" fill="#5c6c6e" fill-rule="evenodd" stroke="none"/>
      <path d="M58.9 6.85 L59.3 7.0 58.85 6.9 58.9 6.85 M62.65 15.3 L62.0 15.0 62.0 14.85 62.7 15.25 62.65 15.3 M59.2 8.8 L59.85 9.2 Q62.45 10.8 63.8 11.0 L63.65 11.45 59.8 10.1 59.3 9.75 59.55 9.65 59.65 9.35 59.2 8.8" fill="#70aaaa" fill-opacity="0.99607843" fill-rule="evenodd" stroke="none"/>
      <path d="M73.3 12.9 Q72.5 13.25 72.5 14.4 73.1 15.0 74.0 15.55 74.95 16.15 75.9 16.4 L77.3 17.0 77.85 17.25 77.2 17.6 Q76.0 17.0 73.85 16.15 L73.15 16.2 Q71.85 16.2 71.4 15.55 L71.25 15.25 71.35 14.65 Q71.75 13.7 72.55 13.1 L73.15 12.85 73.3 12.9 M63.65 11.45 L63.25 11.7 59.75 10.25 57.5 9.55 57.5 9.4 57.55 9.4 57.55 9.45 59.8 10.1 63.65 11.45 M67.2 10.75 L67.3 10.75 68.35 11.1 67.8 11.05 66.5 11.2 Q66.1 11.4 65.85 11.9 66.55 12.65 67.6 12.95 L67.5 12.95 69.6 13.8 69.35 14.4 66.05 13.15 65.05 12.55 65.1 12.0 Q65.2 11.45 66.35 11.0 L67.1 10.7 67.2 10.75" fill="#5a5251" fill-rule="evenodd" stroke="none"/>
      <path d="M67.3 10.75 L68.2 11.0 68.4 11.1 68.35 11.1 67.3 10.75 M70.4 11.7 L71.3 12.0 Q70.7 12.45 70.3 12.95 L69.6 13.8 67.5 12.95 67.6 12.95 69.3 13.2 70.15 12.75 70.55 12.15 70.4 11.7 M67.2 10.7 L67.2 10.75 67.1 10.7 67.2 10.7" fill="#76bdbb" fill-opacity="0.99607843" fill-rule="evenodd" stroke="none"/>
      <path d="M69.3 18.4 L68.1 17.8 68.0 17.65 69.3 18.25 69.3 18.4 M73.3 12.7 L73.45 12.9 73.3 12.9 73.15 12.85 72.55 13.1 73.15 12.65 73.3 12.7" fill="#5a7374" fill-rule="evenodd" stroke="none"/>
      <path d="M68.1 17.8 L67.85 17.65 68.0 17.65 68.1 17.8" fill="#2d3134" fill-rule="evenodd" stroke="none"/>
      <path d="M67.85 17.65 L65.75 16.7 65.75 16.6 68.0 17.65 67.85 17.65 M63.15 15.55 L62.65 15.3 62.7 15.25 63.15 15.5 63.15 15.55" fill="#4a464b" fill-opacity="0.99215686" fill-rule="evenodd" stroke="none"/>
      <path d="M76.55 21.95 L76.45 21.95 Q74.05 20.65 70.8 19.1 L70.8 18.85 76.1 21.3 76.5 21.1 76.55 21.95" fill="#4b4448" fill-opacity="0.9843137" fill-rule="evenodd" stroke="none"/>
      <path d="M77.8 14.45 L79.1 15.0 79.1 15.1 79.1 15.15 78.55 15.2 78.2 15.1 77.8 14.45 M75.9 16.4 L77.5 16.6 78.55 16.6 78.8 16.65 78.45 16.9 77.3 17.0 75.9 16.4" fill="#71afad" fill-opacity="0.98039216" fill-rule="evenodd" stroke="none"/>
      <path d="M79.1 15.1 L79.25 15.1 79.1 15.15 79.1 15.1 M80.85 18.4 L80.85 18.5 80.8 18.45 80.85 18.4 M80.85 18.55 Q81.0 20.85 78.4 21.65 79.25 21.25 80.2 19.6 L80.65 18.75 80.85 18.55 M78.0 21.75 L76.55 21.95 76.5 21.1 76.6 21.1 76.55 21.3 77.85 21.75 78.0 21.75 M77.7 17.85 L77.2 17.6 77.85 17.25 77.3 17.0 78.45 16.9 77.7 17.85" fill="#4c4747" fill-rule="evenodd" stroke="none"/>
      <path d="M80.85 18.5 L80.85 18.55 80.65 18.75 80.8 18.45 80.85 18.5 M77.9 17.95 L77.7 17.85 78.45 16.9 78.8 16.65 79.35 16.75 79.25 16.9 78.8 17.25 Q78.35 17.35 77.9 17.95" fill="#494142" fill-rule="evenodd" stroke="none"/>
      <path d="M52.65 3.4 L57.45 6.05 58.1 6.4 58.9 6.85 58.85 6.9 58.7 6.85 Q59.45 7.45 59.45 8.15 L59.3 8.5 59.0 8.55 59.2 8.8 59.65 9.35 59.55 9.65 59.3 9.75 59.1 9.75 Q58.45 9.75 57.3 9.1 L56.2 8.4 54.5 7.05 53.45 6.55 53.35 5.7 52.65 3.4" fill="#5e8d8e" fill-rule="evenodd" stroke="none"/>
      <path d="M45.75 -0.1 L52.6 3.35 52.65 3.4 53.35 5.7 53.45 6.55 52.7 6.35 45.75 2.25 45.75 1.4 45.75 -0.1" fill="#6b9a9d" fill-rule="evenodd" stroke="none"/>
      <path d="M50.05 5.2 Q49.05 4.05 45.15 2.25 L45.75 2.25 52.7 6.35 53.45 6.55 54.5 7.05 56.2 8.4 57.3 9.1 56.9 9.05 50.05 5.2" fill="#595e60" fill-rule="evenodd" stroke="none"/>
      <path d="M12.7 5.9 L12.55 6.3 12.6 5.8 12.6 5.75 12.7 5.9 M10.5 5.8 L10.65 5.7 11.2 5.6 11.2 5.65 10.5 5.8 M11.6 5.6 L11.65 5.5 12.15 5.55 11.6 5.6 M7.55 6.85 Q5.85 7.5 4.9 7.9 L4.9 7.85 4.8 7.5 4.45 7.4 4.2 7.4 7.35 6.9 7.55 6.85" fill="#5a7176" fill-opacity="0.99607843" fill-rule="evenodd" stroke="none"/>
      <path d="M12.55 6.3 L12.0 7.3 11.4 8.45 11.1 8.55 11.2 8.35 Q12.4 6.7 12.4 6.2 L12.4 5.85 11.65 5.7 Q10.4 5.7 9.8 7.3 9.4 8.45 9.4 9.4 L9.4 9.6 Q8.9 9.85 8.4 10.05 L6.85 10.4 6.8 10.4 5.1 10.6 4.05 10.6 -0.65 10.4 -4.2 9.7 -7.2 8.0 Q-7.8 7.65 -8.35 7.45 L-8.35 7.35 -8.4 7.2 -8.6 5.15 -8.7 4.9 -8.7 4.85 -9.1 4.1 -9.65 2.55 -8.15 2.85 -7.3 3.4 -7.0 3.8 -2.9 6.35 -2.85 6.4 4.2 7.4 4.45 7.4 4.8 7.5 4.9 7.85 4.9 7.9 Q5.85 7.5 7.55 6.85 L8.25 6.55 10.5 5.8 11.2 5.65 11.6 5.6 12.15 5.55 12.6 5.55 12.6 5.75 12.6 5.8 12.55 6.3" fill="#69979a" fill-opacity="0.99607843" fill-rule="evenodd" stroke="none"/>
      <path d="M11.4 8.45 L10.6 10.05 9.85 10.1 8.9 10.2 8.5 10.25 8.4 10.05 Q8.9 9.85 9.4 9.6 L9.5 9.9 9.8 9.95 11.1 8.55 11.4 8.45 M5.1 10.6 L4.2 10.75 2.45 10.8 -0.65 10.4 4.05 10.6 5.1 10.6" fill="#54696e" fill-opacity="0.9647059" fill-rule="evenodd" stroke="none"/>
      <path d="M10.6 10.05 L10.0 11.15 9.9 11.25 10.0 10.75 10.0 10.15 9.85 10.1 10.6 10.05 M8.65 12.0 Q6.5 12.9 2.0 12.9 -3.1 12.9 -7.45 10.65 -9.7 9.45 -11.1 8.15 L-11.6 7.4 -11.3 7.4 -11.15 7.65 -10.35 8.45 Q-10.95 7.6 -10.95 7.05 -10.95 6.7 -11.25 6.2 L-11.6 5.55 Q-11.6 4.9 -11.05 4.85 L-10.7 5.25 -8.4 7.2 -8.35 7.35 -8.35 7.45 Q-7.8 7.65 -7.2 8.0 L-4.2 9.7 -0.65 10.4 2.45 10.8 4.2 10.75 5.1 10.6 6.8 10.4 6.85 10.4 8.4 10.05 8.5 10.25 8.9 10.2 8.55 10.35 8.55 10.5 Q8.55 10.8 7.5 11.1 L7.05 11.7 7.2 11.85 7.6 11.9 8.55 11.55 8.65 12.0" fill="#3c363b" fill-rule="evenodd" stroke="none"/>
      <path d="M-7.1 -36.35 L-6.2 -41.5 -5.7 -41.55 -6.0 -42.5 -5.4 -41.2 -5.25 -40.8 -5.1 -40.6 Q-3.6 -37.75 -2.45 -36.4 -4.1 -36.6 -4.1 -31.95 L-3.75 -30.85 -4.25 -31.9 -4.3 -31.85 Q-6.3 -33.6 -7.1 -36.35 M-5.8 -42.95 L-5.8 -42.9 -6.0 -42.5 -5.8 -42.95 M-0.75 -31.15 L-0.65 -30.95 -0.65 -30.7 -0.9 -30.9 -0.75 -31.15" fill="#72b0ae" fill-rule="evenodd" stroke="none"/>
      <path d="M-4.8 -50.0 Q-4.7 -46.45 -3.3 -44.1 L-1.9 -41.35 -1.1 -40.15 -1.1 -39.85 -1.3 -38.85 -1.55 -37.85 -1.4 -37.15 -0.45 -35.9 -0.5 -35.6 -0.5 -35.4 -1.0 -35.65 Q-1.85 -36.35 -2.45 -36.4 -3.6 -37.75 -5.1 -40.6 L-5.25 -40.8 -5.4 -41.2 -6.0 -42.5 -5.7 -41.55 -6.2 -41.5 -4.8 -50.0 M-5.8 -42.95 L-6.0 -42.5 -5.8 -42.9 -5.8 -42.95" fill="#585f5f" fill-rule="evenodd" stroke="none"/>
      <path d="M-13.05 -3.0 L-9.85 -21.45 -9.4 -23.85 -9.0 -23.85 -8.8 -25.0 -8.6 -25.85 Q-9.65 -26.25 -12.15 -28.45 L-12.25 -28.55 -12.7 -28.8 -12.8 -29.1 -12.35 -29.35 -10.0 -30.8 -9.45 -30.65 -8.25 -30.2 -7.1 -36.35 Q-6.3 -33.6 -4.3 -31.85 L-4.5 -31.15 -5.85 -26.5 -7.1 -21.9 -12.2 -3.4 -12.1 -2.95 -11.8 -2.85 -11.6 -3.1 -11.6 -2.85 -11.6 -2.0 -12.05 -2.1 Q-12.2 -2.95 -13.05 -3.0 M-3.6 -30.4 L-3.55 -30.25 -3.65 -30.2 -3.6 -30.4 M-7.05 -18.35 L-5.5 -23.75 -5.9 -21.45 -7.05 -18.35" fill="#5a5958" fill-rule="evenodd" stroke="none"/>
      <path d="M-11.6 7.4 L-11.8 7.4 -12.15 7.0 -14.0 3.45 -14.1 2.5 -13.95 1.55 -13.0 2.2 -11.25 4.65 -11.15 4.75 -11.05 4.85 Q-11.6 4.9 -11.6 5.55 L-11.25 6.2 Q-10.95 6.7 -10.95 7.05 -10.95 7.6 -10.35 8.45 L-11.15 7.65 -11.3 7.4 -11.6 7.4" fill="#56595b" fill-rule="evenodd" stroke="none"/>
    </g>
  </defs>
</svg>
