<?xml version="1.0" encoding="UTF-8" standalone="no"?>
<svg xmlns:xlink="http://www.w3.org/1999/xlink" height="139.35px" width="175.4px" xmlns="http://www.w3.org/2000/svg">
  <g transform="matrix(1, 0, 0, 1, 39.85, 83.75)">
    <use height="107.65" transform="matrix(1.0, 0.0, 0.0, 1.0, -8.2, -52.05)" width="79.25" xlink:href="#shape0"/>
  </g>
  <defs>
    <g id="shape0" transform="matrix(1, 0, 0, 1, 8.2, 52.05)">
      <path d="M8.7 -33.95 L12.6 -34.5 13.7 -33.35 15.2 -34.85 Q16.55 -35.4 21.35 -39.75 L21.9 -40.25 21.9 -39.85 Q21.55 -38.0 22.0 -35.75 22.3 -34.05 24.3 -29.05 26.55 -23.3 28.25 -22.05 29.5 -20.0 30.3 -19.95 L30.3 -19.9 30.5 -19.65 Q29.45 -19.15 29.0 -18.25 L28.85 -18.0 28.75 -17.95 25.65 -15.6 16.8 -9.25 7.4 -2.05 2.6 1.25 Q2.0 1.5 2.0 1.95 L2.3 2.6 2.9 3.75 Q1.65 2.25 0.55 0.2 -0.15 -0.45 -0.7 -1.7 L-1.15 -2.75 -1.65 -3.5 -1.9 -3.85 -2.5 -5.1 -3.05 -6.85 -3.2 -8.0 -3.4 -10.25 -3.55 -10.55 -3.6 -11.9 -3.25 -14.5 -3.25 -14.6 Q-3.5 -15.5 -2.3 -17.05 L-2.2 -17.3 -2.0 -17.4 -1.85 -17.65 -1.75 -17.7 -1.6 -17.9 -1.6 -17.95 -0.8 -18.8 3.5 -23.25 6.6 -26.6 7.65 -27.5 8.7 -28.65 Q8.75 -28.5 8.9 -28.5 9.1 -28.5 9.3 -28.8 L9.2 -29.05 10.8 -30.8 9.35 -32.75 8.7 -33.95 M-8.15 -6.35 L-7.7 -9.6 -7.25 -11.6 -6.05 -13.4 -6.0 -13.4 -5.4 -13.8 -5.4 -13.75 -5.75 -9.85 Q-5.95 -5.7 -4.75 -2.5 L-3.35 0.15 -2.5 1.6 -2.3 2.05 -2.4 2.05 -2.4 2.1 -3.0 1.55 -3.15 2.3 -3.4 2.15 -4.9 -0.1 -6.3 -3.0 -6.5 -4.6 -6.65 -4.6 -6.6 -4.5 Q-6.65 -2.85 -6.3 -1.5 -6.15 -0.75 -4.8 1.6 L-3.9 3.05 -4.9 3.2 -5.45 3.3 -5.55 3.3 Q-5.75 1.85 -6.9 -2.1 -7.95 -5.5 -6.6 -8.55 L-6.55 -9.0 -6.5 -10.3 -6.65 -9.45 -7.7 -6.45 -8.15 -6.35" fill="#5d5756" fill-rule="evenodd" stroke="none"/>
      <path d="M-5.55 3.65 Q-6.45 2.45 -6.95 1.0 L-7.05 0.8 -7.1 0.75 -7.7 -1.0 Q-8.4 -3.45 -8.15 -6.35 L-7.7 -6.45 -6.65 -9.45 -6.55 -9.0 -6.6 -8.55 Q-7.95 -5.5 -6.9 -2.1 -5.75 1.85 -5.55 3.3 L-5.5 3.35 -5.55 3.65 M-3.9 3.05 L-4.8 1.6 Q-6.15 -0.75 -6.3 -1.5 -6.65 -2.85 -6.6 -4.5 L-6.65 -4.6 -6.5 -4.6 -6.3 -3.0 -4.9 -0.1 -3.4 2.15 -3.25 2.5 -3.2 2.7 -3.2 2.75 -3.9 3.05" fill="#575455" fill-rule="evenodd" stroke="none"/>
      <path d="M-5.4 -13.8 L-2.3 -17.05 Q-3.5 -15.5 -3.25 -14.6 L-3.25 -14.5 -3.6 -11.9 -3.55 -10.55 -3.4 -10.25 -3.2 -8.0 -3.05 -6.85 -2.5 -5.1 -1.9 -3.85 -1.85 -3.1 -0.5 -0.45 -0.2 1.15 -0.05 1.3 -0.15 1.3 -0.1 1.45 -0.5 1.7 -0.75 1.65 -1.15 1.55 -1.6 1.9 -2.1 2.3 -2.3 2.3 -2.4 2.1 -2.4 2.05 -2.3 2.05 -2.5 1.6 -3.35 0.15 -4.75 -2.5 Q-5.95 -5.7 -5.75 -9.85 L-5.4 -13.75 -5.4 -13.8 M-1.75 -17.7 L-1.6 -17.95 -1.6 -17.9 -1.75 -17.7 M-6.65 -9.45 L-6.5 -10.3 -6.55 -9.0 -6.65 -9.45" fill="#73b1af" fill-rule="evenodd" stroke="none"/>
      <path d="M30.5 -19.65 L30.65 -19.55 29.05 -18.15 29.0 -18.25 Q29.45 -19.15 30.5 -19.65 M31.4 -18.9 L33.0 -17.6 Q35.15 -16.05 36.35 -15.75 37.85 -14.95 40.7 -14.0 45.55 -12.3 46.85 -12.9 L47.35 -13.1 47.25 -13.35 48.35 -13.7 46.35 -12.4 Q42.45 -10.5 39.35 -8.4 L39.05 -8.3 36.1 -6.3 35.9 -6.1 35.5 -5.35 35.15 -5.2 35.05 -5.45 34.2 -7.1 30.65 -6.8 29.7 -6.85 29.35 -6.7 29.15 -6.35 29.05 -6.25 29.15 -6.25 29.15 -5.95 29.3 -5.9 Q33.4 -0.7 37.15 5.85 L37.2 5.95 37.3 6.05 38.0 7.4 Q39.95 9.7 42.95 14.6 L47.1 21.95 47.4 22.95 47.25 23.1 47.15 23.15 46.6 22.55 Q47.2 24.65 46.15 25.9 L46.4 26.6 Q46.0 26.75 46.1 27.3 L40.8 19.2 37.45 13.65 Q35.3 10.25 33.6 8.0 L33.5 8.0 30.9 3.9 30.75 3.8 30.0 2.5 28.8 0.95 27.6 -0.95 26.6 -0.3 25.4 0.3 25.35 0.35 25.25 0.4 23.7 1.4 Q21.8 2.05 18.6 4.0 L17.35 4.95 15.85 5.85 14.15 6.85 12.5 7.65 12.4 7.65 11.2 7.8 11.1 7.45 Q11.0 7.1 10.05 6.75 L8.3 6.35 Q9.75 4.15 14.8 0.75 13.85 -0.15 17.05 -1.55 L18.65 -2.75 Q23.9 -7.25 28.6 -11.85 L32.3 -15.4 31.8 -15.4 Q30.1 -15.55 29.4 -16.2 L30.3 -17.1 31.4 -18.9 M9.35 -32.75 Q9.0 -32.0 8.15 -31.85 L8.8 -30.65 Q8.95 -29.6 9.2 -29.05 L9.3 -28.8 Q9.1 -28.5 8.9 -28.5 8.75 -28.5 8.7 -28.65 L7.8 -29.5 6.9 -30.85 6.9 -30.9 Q6.7 -31.5 6.85 -31.9 6.95 -32.75 8.15 -33.9 L8.35 -33.9 8.7 -33.95 9.35 -32.75 M15.05 2.95 L15.75 2.35 Q15.25 2.55 15.0 2.85 L15.05 2.95" fill="#3f383f" fill-rule="evenodd" stroke="none"/>
      <path d="M9.2 -29.05 Q8.95 -29.6 8.8 -30.65 L8.15 -31.85 Q9.0 -32.0 9.35 -32.75 L10.8 -30.8 9.2 -29.05 M6.85 -31.9 Q6.7 -31.5 6.9 -30.9 L6.55 -31.2 6.4 -31.4 6.85 -31.9" fill="#3f393f" fill-rule="evenodd" stroke="none"/>
      <path d="M30.95 -19.15 L31.4 -18.9 30.3 -17.1 29.4 -16.2 Q30.1 -15.55 31.8 -15.4 L32.3 -15.4 28.6 -11.85 Q23.9 -7.25 18.65 -2.75 L17.05 -1.55 Q13.85 -0.15 14.8 0.75 9.75 4.15 8.3 6.35 L10.05 6.75 Q11.0 7.1 11.1 7.45 L11.2 7.8 Q8.25 8.1 6.25 7.05 L5.55 6.35 5.45 6.2 4.8 5.7 4.2 4.95 3.15 3.6 3.1 3.4 2.9 3.2 2.95 3.1 2.9 3.0 Q2.6 2.35 2.85 1.8 L3.25 2.35 Q3.45 1.75 4.25 0.9 L3.35 1.55 3.2 1.25 Q3.0 1.1 2.6 1.25 L7.4 -2.05 16.8 -9.25 25.65 -15.6 30.95 -19.15 M28.85 -18.0 L29.0 -18.25 29.05 -18.15 28.85 -18.0 M12.2 -3.45 L19.15 -8.25 19.85 -8.8 19.7 -9.1 12.2 -3.45 M12.5 7.65 L14.15 6.85 12.6 7.8 12.5 7.65 M20.7 -10.15 L22.4 -11.65 23.85 -13.1 21.7 -11.75 19.65 -10.3 20.3 -10.15 20.7 -10.15 M15.05 2.95 L15.0 2.85 Q15.25 2.55 15.75 2.35 L15.05 2.95 M9.8 9.6 L9.05 10.1 7.5 10.7 7.3 10.9 5.0 11.0 3.1 10.15 Q-2.75 7.6 -5.55 3.65 L-5.5 3.35 -5.45 3.3 -4.9 3.2 -3.9 3.05 -3.2 2.75 -3.2 2.7 -3.15 2.3 -3.0 1.55 -2.4 2.1 -2.3 2.3 1.4 6.65 2.7 7.9 3.65 8.2 6.0 9.0 9.3 9.6 9.8 9.6" fill="#403a40" fill-rule="evenodd" stroke="none"/>
      <path d="M36.6 -24.45 L39.5 -22.05 Q47.55 -15.65 54.6 -18.35 L56.1 -19.15 54.9 -17.95 Q54.25 -17.65 53.6 -17.15 L52.85 -16.4 Q51.95 -15.8 51.05 -15.4 L50.95 -15.4 Q43.1 -14.9 37.4 -19.0 36.65 -19.35 35.6 -20.15 L35.05 -20.55 33.5 -21.95 Q33.25 -22.45 34.75 -23.5 L36.6 -24.45 M30.65 -19.55 L30.95 -19.15 25.65 -15.6 28.75 -17.95 28.85 -18.0 29.05 -18.15 30.65 -19.55 M12.2 -3.45 L19.7 -9.1 19.85 -8.8 19.15 -8.25 12.2 -3.45 M20.7 -10.15 L20.3 -10.15 19.65 -10.3 21.7 -11.75 23.85 -13.1 22.4 -11.65 20.7 -10.15 M2.6 1.25 Q3.0 1.1 3.2 1.25 L3.35 1.55 4.25 0.9 Q3.45 1.75 3.25 2.35 L2.85 1.8 Q2.6 2.35 2.9 3.0 L2.95 3.1 2.9 3.2 3.1 3.4 3.15 3.6 4.2 4.95 Q3.6 4.75 3.1 4.0 L3.05 3.95 2.9 3.75 2.3 2.6 2.0 1.95 Q2.0 1.5 2.6 1.25" fill="#433d42" fill-rule="evenodd" stroke="none"/>
      <path d="M37.15 5.85 Q33.4 -0.7 29.3 -5.9 L29.15 -5.95 29.15 -6.25 29.05 -6.25 29.15 -6.35 29.35 -6.7 29.7 -6.85 30.65 -6.8 34.2 -7.1 35.05 -5.45 35.15 -5.2 35.25 -4.7 35.2 -4.65 36.45 -2.75 37.5 -0.95 35.95 -2.45 35.95 -2.35 36.6 -1.45 37.0 0.85 37.5 3.45 37.15 3.75 36.45 3.8 37.15 5.85 M38.45 0.7 L39.9 3.1 39.8 3.2 39.65 2.8 38.45 0.7 M37.65 2.25 L37.75 2.3 37.65 2.3 37.65 2.25" fill="#554f50" fill-rule="evenodd" stroke="none"/>
      <path d="M11.2 7.8 L12.4 7.65 12.5 7.65 12.6 7.8 Q11.4 8.45 10.65 9.15 L10.45 9.15 9.8 9.6 9.3 9.6 6.0 9.0 3.65 8.2 2.7 7.9 1.4 6.65 -2.3 2.3 -2.1 2.3 -1.6 1.9 -1.15 1.55 -0.75 1.65 -0.5 1.7 -0.1 1.45 -0.15 1.3 -0.05 1.3 -0.2 1.15 -0.5 -0.45 -1.85 -3.1 -1.9 -3.85 -1.65 -3.5 -1.15 -2.75 -0.7 -1.7 Q-0.15 -0.45 0.55 0.2 1.65 2.25 2.9 3.75 L3.05 3.95 3.1 4.0 Q3.6 4.75 4.2 4.95 L4.8 5.7 5.45 6.2 5.55 6.35 6.25 7.05 Q8.25 8.1 11.2 7.8 M-3.4 2.15 L-3.15 2.3 -3.2 2.7 -3.25 2.5 -3.4 2.15" fill="#648387" fill-rule="evenodd" stroke="none"/>
      <path d="M37.3 6.05 L37.2 5.95 37.15 5.85 36.45 3.8 37.15 3.75 37.5 3.45 37.0 0.85 36.6 -1.45 35.95 -2.35 35.95 -2.45 37.5 -0.95 38.45 0.7 39.65 2.8 39.8 3.2 39.9 3.1 41.4 5.6 41.5 5.8 40.45 5.15 Q40.15 4.95 40.45 5.45 L42.55 8.3 42.65 8.45 42.45 8.4 Q41.4 7.45 40.5 9.3 L41.3 11.35 39.85 9.7 39.8 9.6 39.65 9.1 38.5 7.85 37.3 6.05 M42.35 13.2 L41.9 12.55 42.45 13.1 42.35 13.2 M37.65 2.25 L37.65 2.3 37.75 2.3 37.65 2.25" fill="#5c6264" fill-rule="evenodd" stroke="none"/>
      <path d="M41.5 5.8 L41.6 5.9 48.6 17.6 49.0 18.25 48.35 17.45 48.25 17.75 Q47.65 17.65 45.55 16.1 L43.55 14.6 44.15 16.35 43.6 15.4 42.35 13.2 42.45 13.1 41.9 12.55 41.8 12.4 41.35 11.5 41.3 11.35 40.5 9.3 Q41.4 7.45 42.45 8.4 L42.65 8.45 42.55 8.3 40.45 5.45 Q40.15 4.95 40.45 5.15 L41.5 5.8" fill="#556467" fill-rule="evenodd" stroke="none"/>
      <path d="M48.25 17.75 Q48.1 17.95 48.25 18.4 L48.5 19.05 48.1 19.2 47.25 19.45 48.65 23.2 44.15 16.35 43.55 14.6 45.55 16.1 Q47.65 17.65 48.25 17.75" fill="#627578" fill-rule="evenodd" stroke="none"/>
      <path d="M25.75 -43.95 L27.65 -45.9 29.7 -47.45 Q28.4 -45.05 28.4 -42.15 28.35 -39.1 30.05 -34.8 L31.5 -31.25 32.4 -30.0 32.4 -29.85 Q32.75 -28.95 34.55 -26.8 L35.65 -25.6 34.3 -26.3 33.95 -25.85 33.0 -25.0 31.55 -25.15 31.35 -25.1 Q31.1 -24.9 30.85 -25.2 30.05 -26.0 28.4 -29.45 L26.4 -34.1 25.65 -36.8 25.25 -39.05 Q25.0 -40.85 25.15 -42.45 L25.2 -42.6 Q25.95 -43.25 25.75 -43.95" fill="#5c5b5a" fill-rule="evenodd" stroke="none"/>
      <path d="M42.25 -50.75 L42.25 -50.65 41.75 -50.4 41.15 -50.2 40.55 -50.3 39.0 -50.1 Q37.9 -49.7 37.15 -48.85 36.55 -46.75 36.05 -44.0 L36.15 -43.75 36.3 -43.6 Q36.05 -41.0 36.3 -38.65 36.6 -34.95 38.05 -31.2 39.15 -28.6 41.0 -25.65 41.65 -24.45 43.7 -22.65 L44.5 -22.05 41.8 -23.1 38.35 -24.9 38.4 -24.9 37.0 -25.95 36.5 -26.35 36.25 -26.6 34.35 -28.85 32.4 -32.0 Q31.55 -33.25 30.8 -35.2 29.3 -39.1 29.4 -41.4 29.6 -43.6 31.1 -47.35 L31.15 -46.75 Q30.05 -44.7 30.15 -42.0 L30.25 -40.3 Q30.25 -39.9 30.4 -39.65 L30.6 -39.25 33.15 -36.0 35.1 -33.2 Q34.5 -36.1 33.85 -40.7 33.7 -42.3 33.85 -43.95 33.6 -45.85 34.35 -47.55 L34.7 -49.0 35.1 -50.25 35.45 -50.2 36.8 -50.25 37.95 -50.45 39.05 -50.5 39.35 -50.7 40.15 -50.7 40.5 -50.95 40.5 -51.2 38.95 -51.9 40.45 -51.9 40.55 -51.6 Q42.0 -51.65 42.2 -51.1 L42.25 -50.85 42.25 -50.75 M32.75 -48.8 Q33.1 -49.35 33.8 -49.75 L33.75 -49.5 32.75 -48.8 M35.35 -46.1 Q34.9 -43.95 34.9 -41.95 35.05 -44.25 35.35 -45.85 L35.35 -46.1 M21.9 -40.25 L25.75 -43.95 Q25.95 -43.25 25.2 -42.6 L25.15 -42.45 Q25.0 -40.85 25.25 -39.05 L25.85 -34.6 30.35 -24.5 30.8 -22.8 30.85 -21.7 31.1 -21.45 31.4 -20.45 31.2 -20.25 30.5 -20.6 30.25 -20.35 30.3 -19.95 Q29.5 -20.0 28.25 -22.05 26.55 -23.3 24.3 -29.05 22.3 -34.05 22.0 -35.75 21.55 -38.0 21.9 -39.85 L21.9 -40.25 M36.8 -32.75 L36.0 -34.75 36.35 -33.55 36.8 -32.75 M39.25 -30.8 L39.15 -30.85 38.95 -31.25 39.2 -30.85 39.25 -30.8 M35.65 -30.25 L35.9 -30.05 35.75 -30.45 35.65 -30.25 M37.05 -30.8 Q37.5 -29.6 38.6 -28.15 L37.6 -29.8 37.05 -30.8 M40.15 -26.05 L40.6 -25.7 40.65 -25.75 40.05 -26.2 40.15 -26.05 M43.8 -24.4 L44.65 -23.4 Q43.9 -23.8 43.95 -23.95 43.8 -24.1 43.8 -24.4" fill="#73b6b3" fill-opacity="0.9882353" fill-rule="evenodd" stroke="none"/>
      <path d="M42.25 -50.75 L42.25 -50.85 42.2 -51.1 Q42.0 -51.65 40.55 -51.6 L40.45 -51.9 40.5 -51.9 42.6 -51.4 43.5 -51.05 45.1 -50.15 44.9 -50.0 42.25 -50.75 M38.95 -51.9 L40.5 -51.2 40.5 -50.95 40.15 -50.7 39.35 -50.7 37.95 -50.45 36.8 -50.25 35.45 -50.2 35.1 -50.25 34.7 -49.0 34.35 -47.55 Q33.6 -45.85 33.85 -43.95 33.7 -42.3 33.85 -40.7 34.5 -36.1 35.1 -33.2 L33.15 -36.0 30.6 -39.25 30.4 -39.65 Q30.25 -39.9 30.25 -40.3 L30.15 -42.0 Q30.05 -44.7 31.15 -46.75 L31.1 -47.35 Q31.45 -49.25 33.1 -50.55 33.8 -51.15 34.95 -51.45 37.25 -52.35 38.95 -51.9 M32.75 -48.8 L33.75 -49.5 33.8 -49.75 Q33.1 -49.35 32.75 -48.8 M35.65 -30.25 L35.75 -30.45 35.9 -30.05 35.65 -30.25" fill="#77c3c0" fill-opacity="0.99215686" fill-rule="evenodd" stroke="none"/>
      <path d="M39.35 -50.7 L39.05 -50.5 37.95 -50.45 39.35 -50.7 M31.1 -47.35 Q29.6 -43.6 29.4 -41.4 29.3 -39.1 30.8 -35.2 31.55 -33.25 32.4 -32.0 L34.35 -28.85 36.25 -26.6 36.5 -26.35 38.1 -24.35 38.2 -24.55 41.1 -22.55 43.4 -20.5 43.5 -20.2 43.4 -20.1 Q45.35 -19.35 47.7 -18.9 L49.3 -18.85 49.45 -18.85 51.75 -18.95 53.9 -19.5 54.8 -19.85 55.5 -20.1 55.85 -20.6 56.1 -20.95 56.3 -21.25 56.5 -21.55 56.65 -21.95 56.5 -21.7 Q55.5 -20.35 53.95 -19.75 L53.35 -19.65 53.25 -19.6 53.25 -19.65 53.5 -20.1 53.25 -20.1 Q53.25 -20.5 54.5 -21.6 L55.25 -22.2 55.6 -22.6 56.75 -25.6 Q56.95 -26.45 56.6 -28.45 L56.6 -28.5 56.5 -28.6 56.2 -30.6 56.15 -30.65 Q56.0 -29.9 54.65 -28.7 53.3 -26.55 51.55 -25.2 L51.6 -25.2 Q53.35 -25.9 54.15 -26.8 L55.25 -28.0 56.35 -28.15 56.6 -27.65 56.4 -26.55 Q56.15 -24.55 53.65 -23.15 L53.45 -23.15 54.95 -24.3 53.8 -23.75 Q49.1 -21.9 43.4 -28.85 41.45 -31.4 39.95 -34.1 L40.35 -33.15 Q40.75 -31.95 41.4 -31.0 L40.65 -32.1 39.8 -34.35 39.75 -34.45 38.7 -36.4 38.2 -38.35 37.9 -39.0 37.8 -39.15 37.75 -39.65 Q36.65 -43.45 37.35 -45.55 L37.4 -46.1 Q37.9 -47.4 39.1 -48.6 L43.15 -48.15 Q44.3 -48.05 46.1 -47.0 49.0 -45.45 51.05 -43.45 L51.15 -43.25 54.25 -40.2 53.7 -41.55 53.75 -41.6 55.65 -38.85 55.75 -38.7 55.8 -38.6 56.05 -38.15 57.7 -34.8 Q58.8 -32.15 59.35 -29.8 L59.75 -28.65 Q60.2 -26.4 59.85 -25.45 59.85 -24.35 59.45 -23.2 L58.95 -22.2 58.25 -21.15 58.05 -20.75 Q57.9 -20.35 56.7 -19.7 L56.6 -19.7 56.55 -19.6 56.1 -19.15 54.6 -18.35 Q47.55 -15.65 39.5 -22.05 L36.6 -24.45 35.65 -25.6 34.55 -26.8 Q32.75 -28.95 32.4 -29.85 L32.4 -30.0 31.5 -31.25 30.05 -34.8 Q28.35 -39.1 28.4 -42.15 28.4 -45.05 29.7 -47.45 L30.7 -48.75 32.85 -50.55 33.1 -50.55 Q31.45 -49.25 31.1 -47.35 M38.15 -42.75 L38.2 -42.7 38.05 -43.4 38.15 -42.75 M50.45 -23.05 L50.65 -22.95 Q48.75 -23.1 47.6 -23.9 46.5 -24.65 45.25 -26.2 L45.25 -26.3 45.1 -26.45 47.15 -24.75 48.75 -23.75 Q49.0 -23.3 49.75 -23.1 L50.45 -23.05 M55.7 -33.0 L55.65 -33.2 55.45 -33.55 Q55.25 -34.0 55.4 -33.9 L55.75 -34.0 55.7 -34.1 55.85 -34.05 Q56.75 -34.1 57.5 -32.95 L56.8 -34.65 56.6 -35.2 56.5 -34.55 56.45 -34.6 Q56.35 -34.4 55.9 -34.25 L55.15 -35.15 55.2 -34.65 Q55.45 -32.35 55.2 -30.7 L55.3 -30.8 Q55.65 -31.7 55.65 -32.9 L55.7 -33.0 M55.85 -36.8 L55.75 -36.95 55.65 -37.0 55.75 -36.65 55.85 -36.8 M57.9 -27.7 L57.9 -26.0 Q58.2 -26.9 57.95 -27.6 L57.9 -27.7 M58.5 -25.3 L58.4 -24.7 58.85 -26.2 58.5 -25.3 M51.0 -24.05 L50.85 -24.2 50.4 -24.2 50.7 -24.1 51.0 -24.05 M52.65 -24.25 L53.05 -24.65 Q53.0 -24.8 53.1 -24.95 52.8 -24.7 51.35 -24.0 L52.1 -24.1 52.65 -24.25" fill="#6a999f" fill-opacity="0.99607843" fill-rule="evenodd" stroke="none"/>
      <path d="M25.25 -39.05 L25.65 -36.8 26.4 -34.1 28.4 -29.45 Q30.05 -26.0 30.85 -25.2 32.1 -23.0 33.65 -21.65 L34.75 -20.65 Q34.8 -20.55 35.05 -20.55 L35.6 -20.15 Q36.65 -19.35 37.4 -19.0 43.1 -14.9 50.95 -15.4 L51.05 -15.4 48.35 -13.7 47.25 -13.35 47.35 -13.1 46.85 -12.9 Q45.55 -12.3 40.7 -14.0 37.85 -14.95 36.35 -15.75 35.15 -16.05 33.0 -17.6 L31.4 -18.9 30.95 -19.15 30.65 -19.55 30.5 -19.65 30.3 -19.9 30.3 -19.95 30.25 -20.35 30.5 -20.6 31.2 -20.25 31.4 -20.45 31.1 -21.45 30.85 -21.7 30.8 -22.8 30.35 -24.5 25.85 -34.6 25.25 -39.05" fill="#648286" fill-opacity="0.99215686" fill-rule="evenodd" stroke="none"/>
      <path d="M36.5 -26.35 L37.0 -25.95 38.4 -24.9 38.35 -24.9 41.8 -23.1 44.5 -22.05 43.7 -22.65 Q41.65 -24.45 41.0 -25.65 39.15 -28.6 38.05 -31.2 36.6 -34.95 36.3 -38.65 36.05 -41.0 36.3 -43.6 L36.15 -43.75 36.05 -44.0 Q36.55 -46.75 37.15 -48.85 37.9 -49.7 39.0 -50.1 L40.55 -50.3 41.15 -50.2 41.55 -50.05 Q44.7 -49.55 47.6 -47.2 L47.9 -46.9 48.2 -46.7 49.35 -45.5 51.05 -43.45 Q49.0 -45.45 46.1 -47.0 44.3 -48.05 43.15 -48.15 L39.1 -48.6 Q37.9 -47.4 37.4 -46.1 L37.35 -45.55 Q36.65 -43.45 37.75 -39.65 L37.8 -39.15 37.9 -39.0 38.2 -38.35 38.7 -36.4 39.75 -34.45 39.8 -34.35 40.65 -32.1 41.4 -31.0 Q40.75 -31.95 40.35 -33.15 L39.95 -34.1 Q41.45 -31.4 43.4 -28.85 49.1 -21.9 53.8 -23.75 L54.95 -24.3 53.45 -23.15 53.65 -23.15 Q56.15 -24.55 56.4 -26.55 L56.6 -27.65 56.6 -28.45 Q56.95 -26.45 56.75 -25.6 L55.6 -22.6 55.25 -22.2 54.5 -21.6 Q54.05 -21.3 53.45 -21.15 L49.8 -20.8 48.8 -21.15 48.7 -21.05 Q48.45 -20.85 48.35 -20.5 48.85 -20.05 50.4 -19.85 L53.25 -19.6 53.35 -19.65 53.95 -19.75 53.95 -19.6 53.9 -19.5 51.75 -18.95 49.8 -19.2 49.6 -19.25 48.7 -19.65 48.65 -19.6 48.55 -19.45 46.75 -19.55 Q47.85 -19.15 49.3 -18.85 L47.7 -18.9 Q45.35 -19.35 43.4 -20.1 L43.5 -20.2 43.4 -20.5 41.1 -22.55 38.2 -24.55 38.1 -24.35 36.5 -26.35 M35.35 -46.1 L35.35 -45.85 Q35.05 -44.25 34.9 -41.95 34.9 -43.95 35.35 -46.1 M38.15 -42.75 L38.05 -43.4 38.2 -42.7 38.15 -42.75 M36.8 -32.75 L36.35 -33.55 36.0 -34.75 36.8 -32.75 M39.25 -30.8 L39.2 -30.85 38.95 -31.25 39.15 -30.85 39.25 -30.8 M40.15 -26.05 L40.05 -26.2 40.65 -25.75 40.6 -25.7 40.15 -26.05 M37.05 -30.8 L37.6 -29.8 38.6 -28.15 Q37.5 -29.6 37.05 -30.8 M48.75 -23.75 L47.15 -24.75 45.1 -26.45 45.25 -26.3 45.25 -26.2 Q46.5 -24.65 47.6 -23.9 48.75 -23.1 50.65 -22.95 L50.45 -23.05 48.75 -23.75 M55.85 -36.8 L55.75 -36.65 55.65 -37.0 55.75 -36.95 55.85 -36.8 M57.9 -27.7 L57.95 -27.6 Q58.2 -26.9 57.9 -26.0 L57.9 -27.7 M51.0 -24.05 L50.7 -24.1 50.4 -24.2 50.85 -24.2 51.0 -24.05 M43.8 -24.4 Q43.8 -24.1 43.95 -23.95 43.9 -23.8 44.65 -23.4 L43.8 -24.4 M44.1 -21.1 L44.0 -21.1 Q43.75 -20.95 43.3 -21.35 L42.3 -21.8 44.85 -20.4 44.55 -20.9 44.1 -21.1" fill="#6da4a5" fill-rule="evenodd" stroke="none"/>
      <path d="M41.15 -50.2 L41.75 -50.4 42.25 -50.65 42.25 -50.75 44.9 -50.0 45.1 -50.15 47.4 -48.35 48.6 -47.2 48.55 -47.1 48.2 -46.7 47.9 -46.9 47.6 -47.2 Q44.7 -49.55 41.55 -50.05 L41.15 -50.2" fill="#71a8a6" fill-opacity="0.94509804" fill-rule="evenodd" stroke="none"/>
      <path d="M48.2 -46.7 L48.55 -47.1 48.6 -47.2 50.35 -45.35 53.7 -41.55 54.25 -40.2 51.15 -43.25 51.05 -43.45 49.35 -45.5 48.2 -46.7" fill="#6fabac" fill-opacity="0.99607843" fill-rule="evenodd" stroke="none"/>
      <path d="M58.05 -20.75 L58.25 -21.15 58.95 -22.2 58.7 -21.45 58.7 -21.35 58.05 -20.75 M59.75 -28.65 L59.35 -29.8 Q58.8 -32.15 57.7 -34.8 L56.05 -38.15 55.8 -38.6 55.95 -38.45 58.7 -33.4 59.2 -30.95 59.75 -28.65 M49.3 -18.85 Q47.85 -19.15 46.75 -19.55 L48.55 -19.45 48.65 -19.6 49.0 -19.5 49.1 -19.45 49.1 -19.4 49.6 -19.25 49.8 -19.2 51.75 -18.95 49.45 -18.85 49.3 -18.85 M53.9 -19.5 L53.95 -19.6 53.95 -19.75 Q55.5 -20.35 56.5 -21.7 L56.65 -21.95 56.5 -21.55 56.1 -21.1 56.3 -21.25 56.1 -20.95 55.85 -20.6 55.5 -20.1 54.8 -19.85 53.9 -19.5 M53.25 -19.6 L50.4 -19.85 Q48.85 -20.05 48.35 -20.5 48.45 -20.85 48.7 -21.05 L48.8 -21.15 49.8 -20.8 53.45 -21.15 Q54.05 -21.3 54.5 -21.6 53.25 -20.5 53.25 -20.1 L53.5 -20.1 53.25 -19.65 53.25 -19.6 M56.6 -28.45 L56.6 -27.65 56.35 -28.15 55.25 -28.0 54.15 -26.8 Q53.35 -25.9 51.6 -25.2 L51.55 -25.2 Q53.3 -26.55 54.65 -28.7 56.0 -29.9 56.15 -30.65 L56.2 -30.6 56.5 -28.6 56.6 -28.5 56.6 -28.45 M50.45 -23.05 L49.75 -23.1 Q49.0 -23.3 48.75 -23.75 L50.45 -23.05 M55.65 -32.9 Q55.65 -31.7 55.3 -30.8 L55.2 -30.7 Q55.45 -32.35 55.2 -34.65 L55.15 -35.15 55.9 -34.25 Q56.35 -34.4 56.45 -34.6 L56.5 -34.55 56.6 -35.2 56.8 -34.65 57.5 -32.95 Q56.75 -34.1 55.85 -34.05 L55.7 -34.1 55.75 -34.0 55.4 -33.9 Q55.25 -34.0 55.45 -33.55 L55.65 -33.2 55.7 -33.0 55.65 -32.95 55.65 -32.9 M58.5 -25.3 L58.85 -26.2 58.4 -24.7 58.5 -25.3 M52.65 -24.25 L52.1 -24.1 51.35 -24.0 Q52.8 -24.7 53.1 -24.95 53.0 -24.8 53.05 -24.65 L52.65 -24.25 M44.1 -21.1 L44.55 -20.9 44.85 -20.4 42.3 -21.8 43.3 -21.35 Q43.75 -20.95 44.0 -21.1 L44.1 -21.1" fill="#69979c" fill-opacity="0.99215686" fill-rule="evenodd" stroke="none"/>
      <path d="M55.8 -38.6 L55.75 -38.7 55.65 -38.85 55.95 -38.45 55.8 -38.6" fill="#375355" fill-rule="evenodd" stroke="none"/>
      <path d="M48.65 -19.6 L48.7 -19.65 49.6 -19.25 49.1 -19.4 49.1 -19.45 49.0 -19.5 48.65 -19.6 M55.7 -33.0 L55.65 -32.9 55.65 -32.95 55.7 -33.0" fill="#638488" fill-rule="evenodd" stroke="none"/>
      <path d="M56.5 -21.55 L56.3 -21.25 56.1 -21.1 56.5 -21.55" fill="#70adad" fill-rule="evenodd" stroke="none"/>
      <path d="M35.65 -25.6 L36.6 -24.45 34.75 -23.5 Q33.25 -22.45 33.5 -21.95 L35.05 -20.55 Q34.8 -20.55 34.75 -20.65 L33.65 -21.65 Q32.1 -23.0 30.85 -25.2 31.1 -24.9 31.35 -25.1 L31.55 -25.15 33.0 -25.0 33.95 -25.85 34.3 -26.3 35.65 -25.6" fill="#565152" fill-rule="evenodd" stroke="none"/>
      <path d="M47.25 23.1 L47.4 22.95 47.1 21.95 42.95 14.6 Q39.95 9.7 38.0 7.4 L37.3 6.05 38.5 7.85 39.65 9.1 39.8 9.6 39.85 9.7 41.3 11.35 41.35 11.5 41.8 12.4 41.9 12.55 42.35 13.2 43.6 15.4 44.15 16.35 48.65 23.2 47.25 19.45 48.1 19.2 48.5 19.05 48.25 18.4 Q48.1 17.95 48.25 17.75 L48.35 17.45 49.0 18.25 Q52.1 22.4 55.4 27.8 L57.95 32.25 61.35 38.3 61.95 38.2 62.35 38.3 62.5 38.4 61.0 38.5 Q60.25 38.7 59.7 39.0 L59.65 39.0 59.55 38.95 Q58.95 39.05 58.45 39.45 L57.7 40.0 57.75 39.85 57.15 39.95 57.5 39.7 57.5 39.65 57.45 39.55 57.45 39.5 57.4 39.35 47.75 23.85 47.25 23.1 M63.55 38.85 L64.25 39.2 64.35 39.45 64.05 39.65 64.0 39.7 63.15 39.75 Q63.7 39.45 63.55 38.85 M60.7 38.4 L54.4 28.8 51.8 24.6 51.85 24.8 Q52.25 25.85 55.7 31.15 L59.1 36.25 58.85 36.4 58.5 35.95 59.65 39.0 Q60.1 38.65 60.55 38.45 L60.65 38.45 60.7 38.4 M51.6 24.7 L51.45 24.15 51.5 24.15 50.9 23.1 Q50.7 23.6 50.8 24.3 50.75 25.15 50.85 25.6 L50.5 25.1 52.15 28.55 52.4 28.5 52.75 29.15 53.15 29.85 54.7 32.2 55.05 31.75 54.2 29.35 51.6 24.7" fill="#668285" fill-opacity="0.99607843" fill-rule="evenodd" stroke="none"/>
      <path d="M57.45 39.55 L57.5 39.65 57.5 39.7 57.45 39.55 M60.7 38.4 L60.65 38.45 60.55 38.45 60.7 38.4" fill="#6fa8a8" fill-rule="evenodd" stroke="none"/>
      <path d="M57.95 32.25 L61.95 38.2 61.35 38.3 57.95 32.25 M51.6 24.7 L54.2 29.35 55.05 31.75 54.7 32.2 53.15 29.85 52.75 29.15 52.4 28.5 52.15 28.55 50.5 25.1 50.85 25.6 Q50.75 25.15 50.8 24.3 50.7 23.6 50.9 23.1 L51.5 24.15 51.45 24.15 51.6 24.7" fill="#608c8e" fill-opacity="0.8784314" fill-rule="evenodd" stroke="none"/>
      <path d="M62.5 38.4 Q63.35 38.35 63.5 38.8 L63.55 38.85 Q63.7 39.45 63.15 39.75 L62.95 39.95 61.05 40.2 60.95 40.2 60.8 40.25 Q59.2 40.85 58.1 41.7 L60.0 39.25 59.7 39.0 Q60.25 38.7 61.0 38.5 L62.5 38.4 M55.55 44.5 L55.1 44.3 55.95 44.05 55.55 44.5 M55.45 42.25 L55.4 42.2 55.55 42.1 55.65 42.1 55.45 42.25 M59.65 39.0 L58.5 35.95 58.85 36.4 59.1 36.25 55.7 31.15 Q52.25 25.85 51.85 24.8 L51.8 24.6 54.4 28.8 60.7 38.4 60.55 38.45 Q60.1 38.65 59.65 39.0" fill="#77c1be" fill-rule="evenodd" stroke="none"/>
      <path d="M64.05 39.65 L64.05 40.1 63.85 40.9 63.8 40.85 Q62.6 40.4 60.55 41.8 L60.55 41.3 Q60.35 40.8 60.25 41.1 58.95 41.65 57.3 43.15 L55.9 44.65 55.55 44.5 55.95 44.05 55.1 44.3 55.0 44.35 54.75 44.05 Q54.45 43.5 55.45 42.25 L55.65 42.1 56.25 41.35 57.6 40.05 57.7 40.0 58.45 39.45 Q58.95 39.05 59.55 38.95 L59.65 39.0 59.7 39.0 60.0 39.25 58.1 41.7 Q59.2 40.85 60.8 40.25 L60.95 40.2 61.05 40.2 62.95 39.95 63.15 39.75 64.0 39.7 64.05 39.65 M66.0 44.2 L66.9 44.4 66.1 44.5 66.0 44.2 M68.2 45.1 L68.1 46.0 68.0 47.1 67.95 47.0 67.85 46.75 67.6 46.4 67.5 46.2 66.35 46.6 Q65.95 46.65 65.55 46.85 L64.25 47.15 63.9 47.1 Q63.6 47.25 63.4 47.45 L63.25 47.2 63.1 47.2 61.4 48.25 60.5 49.3 59.75 49.45 59.75 49.55 59.55 49.45 59.45 49.5 59.25 49.15 Q59.2 48.85 59.5 48.4 L59.5 48.0 58.65 47.1 57.5 45.65 57.45 45.45 57.45 45.4 57.5 45.3 57.6 45.2 57.7 45.05 57.9 44.85 58.15 45.1 58.9 45.85 59.7 46.85 60.1 47.8 60.85 47.1 62.35 45.7 62.35 45.55 61.05 44.3 60.0 43.0 59.85 42.2 Q59.5 41.2 60.45 42.0 L60.55 42.0 60.65 42.2 62.7 44.45 63.0 45.3 63.6 44.95 63.85 45.25 62.0 47.4 Q63.25 46.55 64.6 46.05 L67.4 45.15 67.0 45.4 67.75 45.15 67.85 45.15 68.2 45.1 M68.05 47.2 L68.2 47.25 68.15 47.3 68.05 47.2 M64.3 54.45 L63.9 54.6 62.55 52.55 61.15 50.55 61.15 50.4 Q61.1 49.95 61.35 49.65 L62.45 50.35 62.7 50.5 Q62.55 50.75 62.9 51.3 L64.65 53.7 64.8 54.15 64.8 54.3 64.45 54.5 64.3 54.45 M63.95 47.6 L64.4 47.4 Q65.0 47.4 65.65 48.5 L67.5 51.65 67.65 51.85 67.55 51.9 67.15 52.2 67.0 52.25 66.8 52.3 65.6 50.05 65.45 49.8 65.1 49.4 65.1 49.35 64.6 48.8 Q64.0 48.25 63.45 48.15 L63.95 47.6" fill="#5c6c6e" fill-rule="evenodd" stroke="none"/>
      <path d="M55.4 42.1 L55.2 41.8 55.2 41.6 55.15 41.5 55.05 41.2 55.05 41.1 51.35 34.45 Q50.0 31.8 48.55 30.15 L48.25 29.65 48.35 29.05 48.45 28.35 Q49.25 26.75 47.6 23.85 L47.75 23.85 57.4 39.35 57.45 39.5 57.45 39.55 57.5 39.7 57.15 39.95 57.75 39.85 57.7 40.0 57.6 40.05 56.25 41.35 55.65 42.1 55.55 42.1 55.4 42.1 M58.15 45.1 L58.75 44.6 59.3 44.1 59.8 43.35 60.35 43.9 Q60.55 44.15 61.05 44.3 L62.35 45.55 62.35 45.7 60.85 47.1 60.1 47.8 59.7 46.85 58.9 45.85 58.15 45.1" fill="#5a5251" fill-rule="evenodd" stroke="none"/>
      <path d="M63.85 40.9 L64.1 41.45 64.2 41.8 65.2 43.1 65.95 43.9 66.0 44.2 66.1 44.5 66.9 44.4 67.35 44.35 68.15 45.05 68.2 45.1 67.85 45.15 67.75 45.15 67.65 45.1 67.4 45.15 64.6 46.05 Q63.25 46.55 62.0 47.4 L63.85 45.25 63.6 44.95 63.0 45.3 62.7 44.45 60.65 42.2 60.55 42.0 60.55 41.9 60.55 41.8 Q62.6 40.4 63.8 40.85 L63.85 40.9" fill="#77c1be" fill-opacity="0.99215686" fill-rule="evenodd" stroke="none"/>
      <path d="M64.4 54.5 L64.3 54.45 64.45 54.5 64.4 54.5 M60.35 50.05 L59.75 49.55 59.75 49.45 60.5 49.3 61.4 48.25 63.1 47.2 63.25 47.2 63.4 47.45 Q63.6 47.25 63.9 47.1 L64.25 47.15 65.55 46.85 Q65.0 47.0 64.4 47.4 L63.95 47.6 63.4 47.45 Q62.65 47.3 61.75 48.2 L60.35 50.05 M57.45 45.4 L56.45 45.0 55.9 44.65 57.3 43.15 Q58.95 41.65 60.25 41.1 60.35 40.8 60.55 41.3 L60.55 41.8 60.55 41.9 60.55 42.0 60.45 42.0 Q59.5 41.2 59.85 42.2 L59.8 42.25 Q59.5 42.3 59.3 42.5 58.3 42.65 57.8 43.15 56.95 43.95 57.3 44.75 L57.6 45.2 57.5 45.3 57.45 45.4 M67.4 45.15 L67.65 45.1 67.75 45.15 67.0 45.4 67.4 45.15 M66.35 46.6 L67.5 46.2 67.6 46.4 67.85 46.75 67.95 47.0 Q67.25 46.45 66.35 46.6 M62.45 50.35 L63.0 49.9 63.35 49.9 63.25 49.45 Q63.05 48.9 63.8 49.0 L63.85 49.1 Q64.15 50.35 65.2 50.45 L65.5 50.05 65.6 50.05 66.8 52.3 67.0 52.25 Q66.5 52.6 65.45 53.5 L64.8 54.15 64.65 53.7 62.9 51.3 Q62.55 50.75 62.7 50.5 L62.45 50.35 M65.1 49.35 L65.0 49.3 64.6 48.85 64.6 48.8 65.1 49.35" fill="#525253" fill-rule="evenodd" stroke="none"/>
      <path d="M46.1 27.3 Q46.0 26.75 46.4 26.6 L46.15 25.9 Q47.2 24.65 46.6 22.55 L47.15 23.15 47.25 23.1 47.75 23.85 47.6 23.85 Q49.25 26.75 48.45 28.35 L48.35 29.05 48.25 29.65 48.55 30.15 Q50.0 31.8 51.35 34.45 L55.05 41.1 55.05 41.2 48.85 31.5 46.1 27.3 M61.15 50.4 L60.8 50.45 60.35 50.05 61.75 48.2 Q62.65 47.3 63.4 47.45 L63.95 47.6 63.45 48.15 Q64.0 48.25 64.6 48.8 L64.6 48.85 65.0 49.3 65.1 49.35 65.1 49.4 65.45 49.8 65.6 50.05 65.5 50.05 65.2 50.45 Q64.15 50.35 63.85 49.1 L63.8 49.0 Q63.05 48.9 63.25 49.45 L63.35 49.9 63.0 49.9 62.45 50.35 61.35 49.65 Q61.1 49.95 61.15 50.4 M55.4 42.2 L55.4 42.1 55.55 42.1 55.4 42.2 M59.85 42.2 L60.0 43.0 61.05 44.3 Q60.55 44.15 60.35 43.9 L59.8 43.35 59.3 44.1 58.75 44.6 58.15 45.1 57.9 44.85 57.7 45.05 57.6 45.2 57.3 44.75 Q56.95 43.95 57.8 43.15 58.3 42.65 59.3 42.5 59.5 42.3 59.8 42.25 L59.85 42.2" fill="#4d4646" fill-rule="evenodd" stroke="none"/>
      <path d="M68.0 47.1 L68.05 47.2 68.15 47.3 68.2 47.25 Q68.85 48.7 69.85 49.95 L70.3 50.55 70.35 50.75 70.35 51.35 70.25 51.3 70.3 51.2 70.1 50.9 67.65 51.85 67.5 51.65 65.65 48.5 Q65.0 47.4 64.4 47.4 65.0 47.0 65.55 46.85 65.95 46.65 66.35 46.6 67.25 46.45 67.95 47.0 L68.0 47.1" fill="#72afad" fill-rule="evenodd" stroke="none"/>
      <path d="M70.3 50.55 L70.8 51.15 71.0 51.75 71.05 51.8 70.65 52.05 70.0 52.85 69.15 53.7 68.6 54.4 67.65 54.55 64.95 55.6 64.4 54.5 64.45 54.5 64.8 54.3 64.8 54.15 65.45 53.5 Q66.5 52.6 67.0 52.25 L67.15 52.2 67.55 51.9 67.65 51.85 70.1 50.9 70.3 51.2 70.25 51.3 70.35 51.35 70.35 50.75 70.3 50.55" fill="#494142" fill-rule="evenodd" stroke="none"/>
    </g>
  </defs>
</svg>
