<?xml version="1.0" encoding="UTF-8" standalone="no"?>
<svg xmlns:xlink="http://www.w3.org/1999/xlink" height="139.35px" width="175.4px" xmlns="http://www.w3.org/2000/svg">
  <g transform="matrix(1, 0, 0, 1, 39.85, 83.75)">
    <use height="111.3" transform="matrix(1.0, 0.0, 0.0, 1.0, 8.85, -65.6)" width="74.0" xlink:href="#shape0"/>
    <use height="18.2" transform="matrix(1.117, 0.0653, 0.0, 0.8256, -10.0526, -7.9508)" width="18.05" xlink:href="#sprite0"/>
  </g>
  <defs>
    <g id="shape0" transform="matrix(1, 0, 0, 1, -8.85, 65.6)">
      <path d="M10.45 -39.0 Q11.1 -40.45 12.05 -41.9 L13.25 -43.6 13.5 -43.75 15.0 -44.8 15.05 -44.8 15.7 -45.0 15.7 -44.95 15.1 -43.75 13.95 -41.35 Q12.25 -37.65 12.25 -34.15 12.25 -33.15 12.6 -31.2 L12.9 -29.45 12.85 -29.0 12.8 -29.0 12.75 -28.95 12.45 -29.75 12.0 -29.05 11.85 -29.3 Q11.4 -29.95 11.2 -31.95 11.0 -33.5 10.95 -35.2 L11.35 -36.8 11.25 -36.8 11.2 -36.7 Q10.6 -35.2 10.35 -33.8 10.35 -33.0 10.7 -30.3 L10.95 -28.7 10.0 -28.9 9.45 -29.0 9.4 -29.1 10.05 -34.6 Q10.35 -38.15 12.75 -40.5 L12.95 -40.9 13.5 -42.25 13.05 -41.35 10.95 -38.95 10.45 -39.0 M19.8 -46.9 L20.05 -47.05 20.2 -47.1 20.45 -47.25 20.65 -47.25 20.8 -47.4 20.8 -47.45 21.85 -48.05 27.45 -50.6 Q30.85 -52.15 31.65 -52.6 L32.9 -53.0 Q33.45 -53.35 34.35 -53.7 L34.5 -53.5 34.95 -53.7 34.95 -54.0 37.1 -54.95 Q36.75 -55.7 36.45 -57.3 L36.25 -58.65 Q38.2 -57.95 40.1 -57.8 40.6 -57.05 40.7 -56.35 L42.65 -57.15 Q44.1 -57.15 50.2 -59.55 L50.95 -59.8 50.75 -59.4 Q49.75 -57.8 49.35 -55.55 49.05 -53.85 49.05 -48.5 49.05 -42.3 50.2 -40.45 50.65 -38.15 51.4 -37.75 L51.4 -37.7 51.5 -37.4 Q50.2 -37.3 49.5 -36.6 L49.25 -36.45 49.15 -36.45 45.4 -35.3 36.5 -33.0 34.85 -32.6 Q27.7 -30.75 23.45 -29.3 L17.8 -28.05 Q17.1 -28.05 16.95 -27.55 L16.95 -26.75 17.15 -25.2 Q16.5 -27.25 16.2 -29.65 15.75 -30.5 15.7 -31.95 L15.65 -33.1 15.5 -34.0 15.4 -34.35 Q15.25 -34.85 15.25 -35.8 L15.4 -37.6 15.7 -38.75 16.3 -40.9 16.3 -41.3 16.75 -42.55 17.35 -43.75 18.0 -44.85 18.05 -44.9 Q18.15 -45.85 19.8 -46.9" fill="#5d5756" fill-rule="evenodd" stroke="none"/>
      <path d="M55.9 -61.9 L58.35 -62.9 60.85 -63.65 Q58.75 -61.9 57.7 -59.2 56.55 -56.3 56.55 -51.7 L56.6 -47.95 57.0 -46.35 56.95 -46.15 Q56.95 -45.3 57.85 -42.6 L58.45 -41.05 57.45 -42.25 56.95 -41.95 Q56.25 -41.5 55.75 -41.5 54.9 -41.5 54.45 -42.15 L54.2 -42.15 Q53.95 -42.15 53.85 -42.5 53.35 -43.5 53.1 -47.25 L52.9 -52.35 53.15 -55.15 53.6 -57.45 54.8 -60.7 54.8 -60.8 Q55.8 -61.1 55.9 -61.9" fill="#5c5b5a" fill-rule="evenodd" stroke="none"/>
      <path d="M71.1 -64.5 L72.45 -63.9 72.5 -63.55 Q73.85 -63.1 73.85 -62.55 L73.85 -62.25 73.8 -62.2 73.75 -62.1 73.2 -62.05 72.6 -62.15 72.0 -62.4 70.5 -62.75 Q69.3 -62.75 68.35 -62.25 66.95 -60.55 65.5 -58.1 L65.45 -57.85 65.6 -57.65 Q64.4 -55.35 63.75 -53.0 62.75 -49.45 62.75 -45.4 62.75 -42.65 63.4 -39.15 63.65 -37.8 64.9 -35.35 L65.4 -34.5 63.25 -36.55 60.65 -39.4 60.75 -39.45 59.8 -40.85 59.5 -41.4 59.35 -41.75 58.4 -44.55 57.75 -48.25 Q57.4 -49.75 57.4 -51.8 57.4 -56.0 58.35 -58.1 59.25 -60.15 62.15 -63.05 L61.9 -62.45 Q60.15 -61.0 59.25 -58.45 L58.7 -56.8 58.65 -56.1 58.7 -55.65 59.85 -51.7 60.7 -48.4 Q61.15 -51.35 62.3 -55.9 62.7 -57.4 63.4 -58.9 63.85 -60.8 65.2 -62.05 L66.0 -63.25 66.9 -64.4 Q67.0 -64.3 67.25 -64.2 67.75 -63.85 68.5 -63.75 L69.65 -63.55 Q70.4 -63.1 70.65 -63.1 L71.0 -63.15 71.8 -62.9 72.25 -63.05 72.35 -63.25 71.1 -64.5 M50.95 -59.8 L55.9 -61.9 Q55.8 -61.1 54.8 -60.8 L54.8 -60.7 53.6 -57.45 52.6 -53.1 53.1 -41.95 52.9 -40.25 52.55 -39.15 52.7 -38.85 52.6 -37.8 Q52.7 -37.7 52.35 -37.65 L51.85 -38.3 51.5 -38.15 51.4 -37.75 Q50.65 -38.15 50.2 -40.45 49.05 -42.3 49.05 -48.5 49.05 -53.85 49.35 -55.55 49.75 -57.8 50.75 -59.4 L50.95 -59.8 M64.15 -63.85 L65.45 -64.35 65.4 -64.2 64.15 -63.85 M63.7 -56.6 Q64.65 -58.75 65.5 -60.15 L65.6 -60.35 Q64.4 -58.5 63.7 -56.6 M62.1 -47.35 L62.15 -49.5 61.95 -48.25 62.1 -47.35 M61.65 -45.4 L62.15 -42.4 61.85 -44.3 61.65 -45.4 M63.7 -44.7 L63.7 -44.6 63.65 -44.7 63.6 -45.15 63.7 -44.7 M62.8 -40.05 L62.85 -39.85 63.1 -39.35 63.15 -39.35 62.8 -40.05 M65.5 -36.5 L65.65 -37.0 66.0 -35.7 65.5 -36.5 M60.15 -45.4 L60.3 -45.15 60.35 -45.55 60.3 -45.6 60.15 -45.4" fill="#73b6b3" fill-opacity="0.9882353" fill-rule="evenodd" stroke="none"/>
      <path d="M69.1 -25.9 L66.0 -25.3 64.9 -25.4 64.8 -25.15 64.3 -25.05 Q62.8 -25.05 59.0 -28.3 56.65 -30.3 55.45 -31.65 54.5 -32.3 53.1 -34.5 L52.0 -36.35 51.75 -36.8 51.55 -37.25 51.5 -37.4 51.4 -37.7 51.4 -37.75 51.5 -38.15 51.85 -38.3 52.35 -37.65 Q52.7 -37.7 52.6 -37.8 L52.7 -38.85 52.55 -39.15 52.9 -40.25 53.1 -41.95 52.6 -53.1 53.6 -57.45 53.15 -55.15 52.9 -52.35 53.1 -47.25 Q53.35 -43.5 53.85 -42.5 54.15 -39.95 55.1 -38.15 L55.8 -36.75 56.0 -36.6 56.4 -36.0 57.65 -34.25 Q61.55 -28.4 69.05 -25.95 L69.1 -25.9" fill="#648286" fill-opacity="0.99215686" fill-rule="evenodd" stroke="none"/>
      <path d="M65.1 -65.35 L67.25 -65.6 Q69.65 -65.5 71.1 -64.5 L72.35 -63.25 72.25 -63.05 71.8 -62.9 71.0 -63.15 69.65 -63.55 68.5 -63.75 Q67.75 -63.85 67.25 -64.2 67.0 -64.3 66.9 -64.4 L66.0 -63.25 65.2 -62.05 Q63.85 -60.8 63.4 -58.9 62.7 -57.4 62.3 -55.9 61.15 -51.35 60.7 -48.4 L59.85 -51.7 58.7 -55.65 58.65 -56.1 58.7 -56.8 59.25 -58.45 Q60.15 -61.0 61.9 -62.45 L62.15 -63.05 Q63.15 -64.8 65.1 -65.35 M72.45 -63.9 L72.5 -63.9 74.4 -62.65 75.0 -62.05 76.2 -60.6 76.0 -60.55 73.8 -62.2 73.85 -62.25 73.85 -62.55 Q73.85 -63.1 72.5 -63.55 L72.45 -63.9 M64.15 -63.85 L65.4 -64.2 65.45 -64.35 64.15 -63.85 M60.15 -45.4 L60.3 -45.6 60.35 -45.55 60.3 -45.15 60.15 -45.4" fill="#77c3c0" fill-opacity="0.99215686" fill-rule="evenodd" stroke="none"/>
      <path d="M66.0 -25.3 L63.65 -24.8 55.6 -23.6 55.3 -23.6 51.85 -22.9 51.55 -22.75 50.9 -22.25 50.55 -22.15 50.55 -22.45 50.4 -24.25 Q48.65 -24.45 46.9 -25.25 46.4 -25.45 46.05 -25.7 L45.65 -25.7 45.35 -25.45 45.2 -25.45 45.3 -25.3 45.2 -25.05 45.35 -24.95 Q47.3 -18.55 48.4 -11.05 L48.4 -10.95 48.45 -10.85 48.65 -9.35 Q49.55 -6.45 50.6 -0.85 L51.85 7.55 51.75 8.65 51.55 8.75 51.4 8.75 51.2 8.0 Q50.95 10.05 49.5 10.95 L49.45 11.65 Q49.1 11.65 48.9 12.2 L46.9 2.75 45.8 -3.75 44.25 -10.3 44.2 -10.4 43.2 -15.2 43.15 -15.4 42.95 -16.85 42.35 -18.7 41.9 -20.95 40.75 -20.7 39.4 -20.6 39.35 -20.55 39.2 -20.55 37.45 -20.15 36.5 -20.15 31.7 -19.5 30.25 -19.15 28.5 -18.9 26.5 -18.55 24.65 -18.4 24.6 -18.4 23.4 -18.7 23.45 -19.1 22.6 -20.15 21.25 -21.2 Q23.4 -22.65 29.35 -24.0 28.75 -25.15 32.3 -25.4 33.2 -25.45 34.25 -25.85 L36.5 -26.65 Q41.8 -28.65 46.8 -30.8 L51.6 -32.75 51.1 -32.95 Q49.6 -33.65 49.2 -34.5 49.8 -34.75 50.35 -35.1 51.55 -35.8 52.0 -36.35 L53.1 -34.5 Q54.5 -32.3 55.45 -31.65 56.65 -30.3 59.0 -28.3 62.8 -25.05 64.3 -25.05 L64.8 -25.15 64.9 -25.4 66.0 -25.3 M34.35 -53.7 L33.85 -54.9 33.45 -56.5 33.45 -56.55 Q33.45 -57.1 33.75 -57.45 34.2 -58.3 35.7 -58.9 L35.9 -58.8 36.25 -58.65 36.45 -57.3 Q35.85 -56.75 34.95 -56.9 L35.15 -55.55 34.95 -54.0 34.95 -53.7 34.5 -53.5 34.35 -53.7 M51.5 -37.4 L51.55 -37.25 49.5 -36.55 49.5 -36.6 Q50.2 -37.3 51.5 -37.4 M29.6 -22.15 L28.8 -21.95 28.75 -21.85 29.6 -22.15" fill="#3f383f" fill-rule="evenodd" stroke="none"/>
      <path d="M33.45 -56.55 L33.2 -56.9 33.2 -57.15 33.75 -57.45 Q33.45 -57.1 33.45 -56.55 M34.95 -54.0 L35.15 -55.55 34.95 -56.9 Q35.85 -56.75 36.45 -57.3 36.75 -55.7 37.1 -54.95 L34.95 -54.0" fill="#3f393f" fill-rule="evenodd" stroke="none"/>
      <path d="M15.7 -45.0 L19.8 -46.9 Q18.15 -45.85 18.05 -44.9 L18.0 -44.85 17.35 -43.75 16.75 -42.55 16.3 -41.3 16.3 -40.9 15.7 -38.75 15.4 -37.6 15.25 -35.8 Q15.25 -34.85 15.4 -34.35 L15.2 -33.7 15.45 -30.65 15.2 -29.15 15.25 -28.9 15.2 -28.95 15.15 -28.8 Q15.25 -28.7 14.7 -28.7 L14.4 -28.9 Q14.4 -29.1 14.1 -29.1 13.85 -29.1 13.55 -28.9 L13.0 -28.7 12.8 -28.7 12.75 -28.95 12.8 -29.0 12.85 -29.0 12.9 -29.45 12.6 -31.2 Q12.25 -33.15 12.25 -34.15 12.25 -37.65 13.95 -41.35 L15.1 -43.75 15.7 -44.95 15.7 -45.0 M20.65 -47.25 L20.8 -47.45 20.8 -47.4 20.65 -47.25 M12.95 -40.9 L13.05 -41.35 13.5 -42.25 12.95 -40.9" fill="#73b1af" fill-rule="evenodd" stroke="none"/>
      <path d="M26.5 -18.55 L24.75 -18.2 24.65 -18.4 26.5 -18.55 M21.45 -17.55 L20.55 -17.4 18.9 -17.3 18.65 -17.25 Q17.55 -17.45 16.45 -18.0 L14.95 -19.45 Q10.4 -23.95 9.25 -28.7 L9.4 -29.0 9.45 -29.0 10.0 -28.9 10.95 -28.7 11.85 -28.7 11.85 -28.65 11.9 -28.75 12.0 -29.05 12.45 -29.75 12.75 -28.95 12.8 -28.7 14.65 -23.4 Q14.95 -22.55 15.4 -21.75 L16.2 -21.1 Q17.75 -19.75 18.15 -19.5 19.15 -18.6 21.0 -17.75 L21.45 -17.55 M51.75 -36.8 L52.0 -36.35 Q51.55 -35.8 50.35 -35.1 49.8 -34.75 49.2 -34.5 49.6 -33.65 51.1 -32.95 L51.6 -32.75 46.8 -30.8 Q41.8 -28.65 36.5 -26.65 L34.25 -25.85 Q33.2 -25.45 32.3 -25.4 28.75 -25.15 29.35 -24.0 23.4 -22.65 21.25 -21.2 L22.6 -20.15 23.45 -19.1 23.4 -18.7 Q20.55 -19.5 19.05 -21.3 L18.65 -22.1 18.6 -22.3 18.25 -23.05 17.85 -23.95 Q17.55 -24.8 17.4 -25.6 L17.45 -25.85 17.4 -26.05 17.45 -26.15 17.4 -26.25 Q17.4 -27.0 17.8 -27.4 L17.95 -26.8 Q18.4 -27.2 19.4 -27.7 L18.35 -27.4 Q18.55 -27.5 18.35 -27.8 L17.8 -28.05 23.45 -29.3 Q27.7 -30.75 34.85 -32.6 L36.5 -33.0 45.4 -35.3 51.75 -36.8 M38.45 -32.25 Q38.6 -32.1 38.85 -32.1 39.4 -32.1 41.0 -32.8 L42.85 -33.7 40.35 -33.2 37.9 -32.55 38.45 -32.25 M37.5 -31.45 L36.5 -31.15 28.45 -28.85 36.5 -30.85 36.65 -30.9 37.55 -31.1 37.5 -31.45 M49.25 -36.45 L49.5 -36.6 49.5 -36.55 49.25 -36.45 M29.6 -22.15 L28.75 -21.85 28.8 -21.95 29.6 -22.15" fill="#403a40" fill-rule="evenodd" stroke="none"/>
      <path d="M75.25 -27.6 L73.7 -26.95 72.15 -26.6 71.2 -26.25 69.1 -25.9 69.05 -25.95 Q61.55 -28.4 57.65 -34.25 L56.4 -36.0 56.0 -36.6 Q55.05 -38.2 55.05 -38.45 55.05 -39.0 56.85 -39.45 L58.95 -39.7 60.75 -36.25 Q65.95 -27.4 73.5 -27.4 L75.25 -27.6 M51.55 -37.25 L51.75 -36.8 45.4 -35.3 49.15 -36.45 49.25 -36.45 49.5 -36.55 51.55 -37.25 M38.45 -32.25 L37.9 -32.55 40.35 -33.2 42.85 -33.7 41.0 -32.8 Q39.4 -32.1 38.85 -32.1 38.6 -32.1 38.45 -32.25 M37.5 -31.45 L37.55 -31.1 36.65 -30.9 36.5 -30.85 28.45 -28.85 36.5 -31.15 37.5 -31.45 M17.15 -25.2 L16.95 -26.75 16.95 -27.55 Q17.1 -28.05 17.8 -28.05 L18.35 -27.8 Q18.55 -27.5 18.35 -27.4 L19.4 -27.7 Q18.4 -27.2 17.95 -26.8 L17.8 -27.4 Q17.4 -27.0 17.4 -26.25 L17.45 -26.15 17.4 -26.05 17.45 -25.85 17.4 -25.6 Q17.55 -24.8 17.85 -23.95 17.4 -24.35 17.15 -25.2" fill="#433d42" fill-rule="evenodd" stroke="none"/>
      <path d="M60.85 -63.65 L62.25 -64.55 64.9 -65.4 65.1 -65.35 Q63.15 -64.8 62.15 -63.05 59.25 -60.15 58.35 -58.1 57.4 -56.0 57.4 -51.8 57.4 -49.75 57.75 -48.25 L58.4 -44.55 59.35 -41.75 59.5 -41.4 60.25 -39.05 60.4 -39.15 62.4 -36.2 Q63.8 -33.95 63.8 -33.45 L63.8 -33.15 63.7 -33.15 Q65.2 -31.65 67.25 -30.4 L68.75 -29.8 68.85 -29.75 71.05 -29.0 73.35 -28.7 74.25 -28.7 75.0 -28.7 75.5 -29.05 75.85 -29.3 76.15 -29.5 76.45 -29.7 76.75 -29.95 76.5 -29.85 Q75.1 -28.9 73.45 -28.9 L72.85 -29.05 72.8 -29.1 73.2 -29.4 73.0 -29.55 Q73.05 -29.85 74.65 -30.45 L75.55 -30.7 76.0 -31.05 78.15 -33.4 Q78.75 -34.15 79.05 -36.1 L79.1 -36.25 79.1 -36.35 79.5 -38.25 79.5 -38.3 Q79.0 -37.7 77.3 -37.05 75.3 -35.5 73.2 -34.9 L73.25 -34.9 Q75.15 -34.9 76.15 -35.5 77.2 -36.15 77.7 -36.15 L78.75 -35.9 78.8 -35.4 78.25 -34.4 Q77.2 -32.65 74.4 -32.25 L74.15 -32.3 Q75.05 -32.35 76.0 -32.85 L74.7 -32.75 Q69.65 -32.75 66.95 -41.3 65.65 -45.6 65.3 -50.05 L65.4 -52.05 65.35 -52.85 65.35 -53.0 65.5 -53.45 Q65.85 -57.4 67.35 -59.2 L67.55 -59.6 Q68.5 -60.7 70.0 -61.4 72.15 -60.75 73.65 -59.45 L76.05 -57.3 Q78.2 -54.8 79.35 -52.15 L79.4 -51.9 81.15 -47.95 81.15 -49.45 81.2 -49.45 82.0 -46.2 82.0 -46.0 82.05 -45.4 Q82.4 -43.8 82.4 -41.55 L82.2 -36.4 82.1 -35.2 Q81.7 -32.95 81.0 -32.15 80.6 -31.15 79.8 -30.25 L79.0 -29.4 77.95 -28.7 77.7 -28.4 Q77.3 -28.05 75.95 -27.85 L75.85 -27.85 75.8 -27.8 75.25 -27.6 73.5 -27.4 Q65.95 -27.4 60.75 -36.25 L58.95 -39.7 58.45 -41.05 57.85 -42.6 Q56.95 -45.3 56.95 -46.15 L57.0 -46.35 56.6 -47.95 56.55 -51.7 Q56.55 -56.3 57.7 -59.2 58.75 -61.9 60.85 -63.65 M71.0 -63.15 L70.65 -63.1 Q70.4 -63.1 69.65 -63.55 L71.0 -63.15 M67.05 -56.15 L67.2 -56.85 67.0 -56.25 67.05 -56.15 M79.9 -40.65 L80.0 -40.9 79.85 -41.3 Q79.85 -41.85 79.95 -41.65 L80.25 -41.6 80.3 -41.75 80.4 -41.55 Q81.25 -41.25 81.55 -40.0 L81.55 -41.75 81.55 -42.45 81.2 -41.85 81.15 -41.9 80.6 -41.75 80.15 -42.9 80.0 -42.45 78.75 -38.8 79.85 -40.6 79.9 -40.65 M65.5 -47.9 L65.55 -46.45 Q65.6 -45.15 65.8 -44.0 L65.45 -45.4 65.5 -47.9 M71.3 -33.3 L71.45 -33.15 Q69.75 -33.95 69.0 -35.15 68.25 -36.2 67.65 -38.2 L67.65 -38.3 67.55 -38.5 67.55 -38.6 68.95 -36.05 70.0 -34.55 Q70.1 -34.05 70.75 -33.6 L71.3 -33.3 M80.05 -34.8 L80.05 -34.9 79.4 -33.3 Q80.05 -34.1 80.05 -34.8 M80.3 -33.2 L79.75 -32.45 79.4 -31.95 80.3 -33.2 M72.25 -34.05 L72.3 -34.05 72.1 -34.2 71.7 -34.35 71.95 -34.15 72.25 -34.05 M73.35 -33.7 L73.85 -33.65 74.35 -33.85 74.5 -34.15 72.6 -33.85 73.35 -33.7 M81.25 -44.5 L81.2 -44.1 81.4 -44.2 81.35 -44.4 81.25 -44.5" fill="#6a999f" fill-opacity="0.99607843" fill-rule="evenodd" stroke="none"/>
      <path d="M53.85 -42.5 Q53.95 -42.15 54.2 -42.15 L54.45 -42.15 Q54.9 -41.5 55.75 -41.5 56.25 -41.5 56.95 -41.95 L57.45 -42.25 58.45 -41.05 58.95 -39.7 56.85 -39.45 Q55.05 -39.0 55.05 -38.45 55.05 -38.2 56.0 -36.6 L55.8 -36.75 55.1 -38.15 Q54.15 -39.95 53.85 -42.5" fill="#565152" fill-rule="evenodd" stroke="none"/>
      <path d="M59.5 -41.4 L59.8 -40.85 60.75 -39.45 60.65 -39.4 63.25 -36.55 65.4 -34.5 64.9 -35.35 Q63.65 -37.8 63.4 -39.15 62.75 -42.65 62.75 -45.4 62.75 -49.45 63.75 -53.0 64.4 -55.35 65.6 -57.65 L65.45 -57.85 65.5 -58.1 Q66.95 -60.55 68.35 -62.25 69.3 -62.75 70.5 -62.75 L72.0 -62.4 72.6 -62.15 72.9 -61.8 Q75.65 -60.2 77.5 -56.9 L77.65 -56.55 77.85 -56.25 78.55 -54.7 79.35 -52.15 Q78.2 -54.8 76.05 -57.3 L73.65 -59.45 Q72.15 -60.75 70.0 -61.4 68.5 -60.7 67.55 -59.6 L67.35 -59.2 Q65.85 -57.4 65.5 -53.45 L65.35 -53.0 65.35 -52.85 65.4 -52.05 65.3 -50.05 Q65.65 -45.6 66.95 -41.3 69.65 -32.75 74.7 -32.75 L76.0 -32.85 Q75.05 -32.35 74.15 -32.3 L74.4 -32.25 Q77.2 -32.65 78.25 -34.4 L78.8 -35.4 79.05 -36.1 Q78.75 -34.15 78.15 -33.4 L76.0 -31.05 75.55 -30.7 74.65 -30.45 73.5 -30.4 Q71.55 -30.4 69.95 -31.45 L69.1 -32.1 69.0 -32.05 68.45 -31.75 Q68.85 -31.1 70.15 -30.25 71.45 -29.35 72.85 -29.05 L73.45 -28.9 73.4 -28.8 73.35 -28.7 71.05 -29.0 69.35 -29.95 69.2 -30.05 69.1 -30.15 68.5 -30.75 68.45 -30.7 68.3 -30.6 Q67.2 -31.15 66.65 -31.45 L68.75 -29.8 67.25 -30.4 Q65.2 -31.65 63.7 -33.15 L63.8 -33.15 63.8 -33.45 Q63.8 -33.95 62.4 -36.2 L60.4 -39.15 60.25 -39.05 59.5 -41.4 M67.05 -56.15 L67.0 -56.25 67.2 -56.85 67.05 -56.15 M63.7 -56.6 Q64.4 -58.5 65.6 -60.35 L65.5 -60.15 Q64.65 -58.75 63.7 -56.6 M65.5 -47.9 L65.45 -45.4 65.8 -44.0 Q65.6 -45.15 65.55 -46.45 L65.5 -47.9 M61.65 -45.4 L61.85 -44.3 62.15 -42.4 61.65 -45.4 M62.1 -47.35 L61.95 -48.25 62.15 -49.5 62.1 -47.35 M63.7 -44.7 L63.6 -45.15 63.65 -44.7 63.7 -44.6 63.7 -44.7 M62.8 -40.05 L63.15 -39.35 63.1 -39.35 62.85 -39.85 62.8 -40.05 M70.0 -34.55 L68.95 -36.05 67.55 -38.6 67.55 -38.5 67.65 -38.3 67.65 -38.2 Q68.25 -36.2 69.0 -35.15 69.75 -33.95 71.45 -33.15 L71.3 -33.3 70.0 -34.55 M63.3 -35.1 L65.2 -32.85 65.0 -33.5 64.65 -33.8 64.55 -33.8 64.1 -34.3 63.3 -35.1 M65.5 -36.5 L66.0 -35.7 65.65 -37.0 65.5 -36.5 M80.05 -34.8 Q80.05 -34.1 79.4 -33.3 L80.05 -34.9 80.05 -34.8 M72.1 -34.2 L72.25 -34.05 71.95 -34.15 71.7 -34.35 72.1 -34.2 M81.25 -44.5 L81.35 -44.4 81.4 -44.2 81.2 -44.1 81.25 -44.5" fill="#6da4a5" fill-rule="evenodd" stroke="none"/>
      <path d="M76.2 -60.6 L77.75 -58.05 78.45 -56.55 78.35 -56.5 Q78.2 -56.3 77.85 -56.25 L77.65 -56.55 77.5 -56.9 Q75.65 -60.2 72.9 -61.8 L72.6 -62.15 73.2 -62.05 73.75 -62.1 73.8 -62.2 76.0 -60.55 76.2 -60.6" fill="#71a8a6" fill-opacity="0.94509804" fill-rule="evenodd" stroke="none"/>
      <path d="M78.45 -56.55 L79.4 -54.15 81.15 -49.45 81.15 -47.95 79.4 -51.9 79.35 -52.15 78.55 -54.7 77.85 -56.25 Q78.2 -56.3 78.35 -56.5 L78.45 -56.55" fill="#6fabac" fill-opacity="0.99607843" fill-rule="evenodd" stroke="none"/>
      <path d="M82.1 -45.75 L82.85 -39.95 82.4 -37.5 82.1 -35.2 82.2 -36.4 82.4 -41.55 Q82.4 -43.8 82.05 -45.4 L82.0 -46.0 82.1 -45.75 M79.0 -29.4 L78.55 -28.8 78.5 -28.75 77.7 -28.4 77.95 -28.7 79.0 -29.4 M79.85 -40.6 L78.75 -38.8 80.0 -42.45 80.15 -42.9 80.6 -41.75 81.15 -41.9 81.2 -41.85 81.55 -42.45 81.55 -41.75 81.55 -40.0 Q81.25 -41.25 80.4 -41.55 L80.3 -41.75 80.25 -41.6 79.95 -41.65 Q79.85 -41.85 79.85 -41.3 L80.0 -40.9 79.9 -40.65 79.85 -40.7 79.85 -40.6 M78.8 -35.4 L78.75 -35.9 77.7 -36.15 Q77.2 -36.15 76.15 -35.5 75.15 -34.9 73.25 -34.9 L73.2 -34.9 Q75.3 -35.5 77.3 -37.05 79.0 -37.7 79.5 -38.3 L79.5 -38.25 79.1 -36.35 79.1 -36.25 79.05 -36.1 78.8 -35.4 M74.65 -30.45 Q73.05 -29.85 73.0 -29.55 L73.2 -29.4 72.8 -29.1 72.85 -29.05 Q71.45 -29.35 70.15 -30.25 68.85 -31.1 68.45 -31.75 L69.0 -32.05 69.1 -32.1 69.95 -31.45 Q71.55 -30.4 73.5 -30.4 L74.65 -30.45 M73.45 -28.9 Q75.1 -28.9 76.5 -29.85 L76.75 -29.95 76.45 -29.7 75.95 -29.45 76.15 -29.5 75.85 -29.3 75.5 -29.05 75.0 -28.7 74.25 -28.7 73.35 -28.7 73.4 -28.8 73.45 -28.9 M71.05 -29.0 L68.85 -29.75 68.75 -29.8 66.65 -31.45 Q67.2 -31.15 68.3 -30.6 L68.45 -30.7 68.65 -30.5 68.75 -30.4 68.8 -30.4 69.1 -30.15 69.2 -30.05 69.35 -29.95 71.05 -29.0 M71.3 -33.3 L70.75 -33.6 Q70.1 -34.05 70.0 -34.55 L71.3 -33.3 M63.3 -35.1 L64.1 -34.3 64.55 -33.8 64.65 -33.8 65.0 -33.5 65.2 -32.85 63.3 -35.1 M72.1 -34.2 L72.3 -34.05 72.25 -34.05 72.1 -34.2 M80.3 -33.2 L79.4 -31.95 79.75 -32.45 80.3 -33.2 M73.35 -33.7 L72.6 -33.85 74.5 -34.15 74.35 -33.85 73.85 -33.65 73.35 -33.7" fill="#69979c" fill-opacity="0.99215686" fill-rule="evenodd" stroke="none"/>
      <path d="M79.9 -40.65 L79.85 -40.6 79.85 -40.7 79.9 -40.65 M69.1 -30.15 L68.8 -30.4 68.75 -30.4 68.65 -30.5 68.45 -30.7 68.5 -30.75 69.1 -30.15" fill="#638488" fill-rule="evenodd" stroke="none"/>
      <path d="M76.45 -29.7 L76.15 -29.5 75.95 -29.45 76.45 -29.7" fill="#70adad" fill-rule="evenodd" stroke="none"/>
      <path d="M82.0 -46.2 L82.1 -45.75 82.0 -46.0 82.0 -46.2" fill="#375355" fill-rule="evenodd" stroke="none"/>
      <path d="M50.55 -22.15 L50.45 -21.65 50.4 -21.65 50.9 -19.4 51.2 -17.3 50.35 -19.25 50.2 -19.2 Q50.55 -18.85 50.55 -18.2 L50.1 -15.85 Q49.7 -14.45 49.6 -13.2 49.7 -13.05 49.15 -13.05 L48.4 -13.25 48.4 -11.05 Q47.3 -18.55 45.35 -24.95 L45.2 -25.05 45.3 -25.3 45.2 -25.45 45.35 -25.45 45.65 -25.7 46.05 -25.7 Q46.4 -25.45 46.9 -25.25 48.65 -24.45 50.4 -24.25 L50.55 -22.45 50.55 -22.15 M51.5 -15.45 L51.95 -12.65 51.85 -12.65 51.85 -13.05 Q51.7 -13.45 51.5 -15.45 M48.45 -10.85 L48.9 -8.7 49.5 -7.15 49.5 -6.65 49.5 -6.55 50.25 -4.5 50.3 -4.35 50.45 -3.2 50.6 -2.35 50.95 0.15 51.2 1.3 52.9 9.4 54.55 18.7 54.6 19.0 56.1 27.9 56.1 28.1 55.1 28.3 55.25 28.2 54.65 28.05 55.1 27.95 55.15 27.95 55.1 27.7 55.1 27.65 51.7 9.6 51.55 8.75 51.75 8.65 51.85 7.55 50.6 -0.85 Q49.55 -6.45 48.65 -9.35 L48.45 -10.85 M50.3 -14.2 L50.15 -14.3 50.25 -14.35 50.3 -14.2" fill="#554f50" fill-rule="evenodd" stroke="none"/>
      <path d="M51.2 -17.3 L51.5 -15.45 Q51.7 -13.45 51.85 -13.05 L51.85 -12.65 51.95 -12.65 52.45 -9.9 52.5 -9.5 51.7 -10.6 Q51.6 -10.85 51.6 -10.3 51.6 -10.0 52.55 -6.8 L52.6 -6.65 52.4 -6.8 Q51.8 -8.05 50.35 -6.65 L50.3 -4.35 50.25 -4.5 49.5 -6.55 49.5 -6.65 49.5 -7.15 48.9 -8.7 48.45 -10.85 48.4 -10.95 48.4 -11.05 48.4 -13.25 49.15 -13.05 Q49.7 -13.05 49.6 -13.2 49.7 -14.45 50.1 -15.85 L50.55 -18.2 Q50.55 -18.85 50.2 -19.2 L50.35 -19.25 51.2 -17.3 M50.3 -14.2 L50.25 -14.35 50.15 -14.3 50.3 -14.2 M50.6 -2.35 L50.45 -3.2 50.75 -2.35 50.6 -2.35" fill="#5c6264" fill-rule="evenodd" stroke="none"/>
      <path d="M52.5 -9.5 L54.8 4.05 54.9 4.85 54.6 3.85 54.4 4.05 Q53.9 3.8 52.45 1.55 L51.2 -0.55 51.2 1.3 50.95 0.15 50.6 -2.35 50.75 -2.35 50.45 -3.2 50.3 -4.35 50.35 -6.65 Q51.8 -8.05 52.4 -6.8 L52.6 -6.65 52.55 -6.8 Q51.6 -10.0 51.6 -10.3 51.6 -10.85 51.7 -10.6 L52.5 -9.5" fill="#556467" fill-rule="evenodd" stroke="none"/>
      <path d="M24.75 -18.2 L22.4 -17.7 22.2 -17.7 21.45 -17.55 21.0 -17.75 Q19.15 -18.6 18.15 -19.5 17.75 -19.75 16.2 -21.1 L15.4 -21.75 Q14.95 -22.55 14.65 -23.4 L12.8 -28.7 13.0 -28.7 13.55 -28.9 Q13.85 -29.1 14.1 -29.1 14.4 -29.1 14.4 -28.9 L14.7 -28.7 Q15.25 -28.7 15.15 -28.8 L15.2 -28.95 15.25 -28.9 15.2 -29.15 15.45 -30.65 15.2 -33.7 15.4 -34.35 15.5 -34.0 15.65 -33.1 15.7 -31.95 Q15.75 -30.5 16.2 -29.65 16.5 -27.25 17.15 -25.2 17.4 -24.35 17.85 -23.95 L18.25 -23.05 18.6 -22.3 18.65 -22.1 19.05 -21.3 Q20.55 -19.5 23.4 -18.7 L24.6 -18.4 24.65 -18.4 24.75 -18.2 M11.85 -29.3 L12.0 -29.05 11.9 -28.75 11.85 -28.9 11.85 -29.3" fill="#648387" fill-rule="evenodd" stroke="none"/>
      <path d="M52.9 9.4 L51.2 1.3 51.2 -0.55 52.45 1.55 Q53.9 3.8 54.4 4.05 L54.2 4.7 54.2 5.35 53.75 5.35 52.9 5.35 52.9 9.4" fill="#627578" fill-rule="evenodd" stroke="none"/>
      <path d="M54.9 4.85 Q56.4 9.85 57.5 16.1 L58.25 21.15 59.25 28.05 59.8 28.2 60.15 28.4 60.25 28.55 58.85 28.15 57.4 28.05 57.4 28.0 58.4 27.95 58.6 27.95 58.6 27.9 56.2 16.7 55.25 11.8 55.15 11.2 54.95 10.1 54.4 11.1 54.0 12.3 53.85 11.75 54.2 15.55 54.35 15.6 54.5 16.4 54.6 17.2 54.6 19.0 54.55 18.7 52.9 9.4 52.9 5.35 53.75 5.35 54.2 5.35 54.2 4.7 54.4 4.05 54.6 3.85 54.9 4.85 M61.05 29.35 L61.65 29.95 61.65 30.25 61.35 30.35 61.25 30.35 60.35 30.15 Q61.0 30.0 61.05 29.35" fill="#668285" fill-opacity="0.99607843" fill-rule="evenodd" stroke="none"/>
      <path d="M54.6 39.3 L54.25 39.2 54.0 38.7 56.0 37.45 57.8 37.35 58.2 37.7 57.6 38.05 58.45 39.05 58.45 39.1 58.65 39.7 58.7 39.8 58.85 40.35 58.9 40.6 58.85 40.65 58.8 40.6 58.45 40.85 Q57.4 40.3 57.6 39.1 L57.6 39.0 Q56.95 38.65 56.95 39.2 L56.85 39.6 56.55 39.55 55.9 39.7 55.05 38.7 Q54.65 38.9 54.6 39.3 M52.25 29.6 L52.25 29.45 52.4 29.5 52.25 29.6 M52.25 28.5 L49.95 17.15 48.9 12.2 Q49.1 11.65 49.45 11.65 L49.5 10.95 Q50.95 10.05 51.2 8.0 L51.4 8.75 51.55 8.75 51.7 9.6 51.6 9.6 Q52.1 12.85 50.75 14.1 L50.45 14.75 50.1 15.25 50.25 15.75 Q50.95 17.85 51.3 20.8 L52.35 28.4 52.25 28.5 M56.75 33.5 L56.3 32.95 56.0 32.25 55.15 32.7 54.5 32.95 53.75 33.25 53.6 32.95 53.35 33.05 53.2 33.15 53.1 32.65 Q53.1 31.75 54.15 31.3 L55.7 31.2 56.3 31.2 56.35 31.2 56.3 31.95 56.75 33.5" fill="#4d4646" fill-rule="evenodd" stroke="none"/>
      <path d="M52.25 29.45 L52.25 29.1 52.25 28.95 52.25 28.8 52.25 28.5 52.35 28.4 51.3 20.8 Q50.95 17.85 50.25 15.75 L50.1 15.25 50.45 14.75 50.75 14.1 Q52.1 12.85 51.6 9.6 L51.7 9.6 55.1 27.65 55.1 27.7 55.1 27.95 54.65 28.05 55.25 28.2 55.1 28.3 53.35 29.05 52.5 29.5 52.4 29.5 52.25 29.45 M53.75 33.25 L54.5 32.95 55.15 32.7 56.0 32.25 56.3 32.95 56.75 33.5 57.55 35.25 57.5 35.45 55.55 36.1 54.6 36.5 54.6 35.5 54.1 34.2 53.75 33.25" fill="#5a5251" fill-rule="evenodd" stroke="none"/>
      <path d="M55.1 27.7 L55.15 27.95 55.1 27.95 55.1 27.7 M56.1 28.1 L56.1 27.9 54.6 19.0 54.6 17.2 Q55.05 19.5 55.25 19.9 L55.7 19.65 55.8 17.1 Q55.05 12.9 55.05 11.85 L55.1 11.2 55.15 11.2 55.25 11.8 55.25 11.95 Q55.25 13.05 56.55 19.4 L57.85 25.35 57.6 25.45 57.4 24.8 57.4 28.0 57.3 28.0 56.1 28.1 M58.4 27.95 L58.6 27.9 58.6 27.95 58.4 27.95" fill="#6fa8a8" fill-rule="evenodd" stroke="none"/>
      <path d="M58.25 21.15 L59.8 28.2 59.25 28.05 58.25 21.15 M55.15 11.2 L55.1 11.2 55.05 11.85 Q55.05 12.9 55.8 17.1 L55.7 19.65 55.25 19.9 Q55.05 19.5 54.6 17.2 L54.5 16.4 54.35 15.6 54.2 15.55 53.85 11.75 54.0 12.3 54.4 11.1 54.95 10.1 55.15 11.2" fill="#608c8e" fill-opacity="0.8784314" fill-rule="evenodd" stroke="none"/>
      <path d="M60.25 28.55 Q61.05 28.85 61.05 29.3 L61.05 29.35 Q61.0 30.0 60.35 30.15 L60.05 30.15 Q58.5 30.15 58.25 29.8 L58.15 29.7 58.0 29.7 54.9 30.05 57.6 28.45 57.4 28.05 58.85 28.15 60.25 28.55 M51.55 31.8 L51.2 31.45 52.1 31.45 51.55 31.8 M52.25 29.7 L52.25 29.6 52.4 29.5 52.5 29.5 52.25 29.7 M57.4 28.0 L57.4 24.8 57.6 25.45 57.85 25.35 56.55 19.4 Q55.25 13.05 55.25 11.95 L55.25 11.8 56.2 16.7 58.6 27.9 58.4 27.95 57.4 28.0" fill="#77c1be" fill-rule="evenodd" stroke="none"/>
      <path d="M61.35 30.35 L61.05 30.8 60.6 31.5 60.6 31.4 Q59.6 30.5 57.25 31.0 L57.4 30.6 Q57.4 30.05 57.2 30.3 55.8 30.35 53.65 31.15 52.35 31.6 51.75 32.05 L51.55 31.8 52.1 31.45 51.2 31.45 51.05 31.45 50.95 31.0 Q50.95 30.4 52.25 29.7 L52.5 29.5 53.35 29.05 55.1 28.3 56.1 28.1 57.3 28.0 57.4 28.0 57.4 28.05 57.6 28.45 54.9 30.05 58.0 29.7 58.15 29.7 58.25 29.8 Q58.5 30.15 60.05 30.15 L60.35 30.15 61.25 30.35 61.35 30.35 M61.45 35.3 L62.15 35.85 61.45 35.65 61.45 35.3 M63.15 36.9 L62.75 37.7 62.3 38.8 62.35 38.9 62.3 38.9 62.3 38.8 62.3 38.6 62.25 38.35 62.15 37.9 62.1 37.7 60.8 37.65 60.0 37.6 58.65 37.4 58.35 37.25 57.8 37.35 57.75 37.1 57.6 37.0 55.6 37.4 54.4 38.05 53.65 37.95 53.6 38.0 53.5 37.9 53.45 37.85 53.4 37.85 53.35 37.4 Q53.35 37.2 53.85 36.9 L53.95 36.45 53.5 35.35 52.9 33.55 53.0 33.35 53.0 33.3 53.05 33.25 53.2 33.15 53.35 33.05 53.6 32.95 53.75 33.25 54.1 34.2 54.6 35.5 54.6 36.5 55.55 36.1 57.5 35.45 57.55 35.25 56.75 33.5 56.3 31.95 56.35 31.2 Q56.45 30.1 57.05 31.2 L57.2 31.15 57.15 31.4 58.25 34.3 58.25 35.25 58.9 35.05 59.1 35.5 Q58.05 35.95 56.55 36.85 L59.35 36.5 62.45 36.7 61.95 36.75 62.7 36.8 62.8 36.8 63.15 36.9 M56.15 44.25 L55.7 44.25 55.15 41.85 Q54.6 39.85 54.6 39.45 L54.6 39.3 Q54.65 38.9 55.05 38.7 L55.9 39.7 56.1 39.95 Q55.9 40.1 55.9 40.8 L56.75 43.65 56.7 44.1 56.65 44.2 56.55 44.25 56.3 44.25 56.15 44.25 M58.45 39.05 L57.6 38.05 58.2 37.7 58.75 37.7 Q59.35 37.9 59.55 39.2 L60.15 42.75 60.15 43.0 60.1 43.05 59.6 43.2 59.45 43.2 59.25 43.15 58.9 40.6 58.85 40.35 58.7 39.8 58.45 39.05" fill="#5c6c6e" fill-rule="evenodd" stroke="none"/>
      <path d="M56.15 44.35 L56.15 44.25 56.3 44.25 56.15 44.35 M54.0 38.7 L53.6 38.0 53.65 37.95 54.4 38.05 55.6 37.4 57.6 37.0 57.75 37.1 57.8 37.35 58.35 37.25 58.65 37.4 60.0 37.6 58.75 37.7 58.2 37.7 57.8 37.35 56.0 37.45 54.0 38.7 M53.0 33.3 L52.25 32.55 51.75 32.05 Q52.35 31.6 53.65 31.15 55.8 30.35 57.2 30.3 57.4 30.05 57.4 30.6 L57.25 31.0 57.2 31.15 57.05 31.2 Q56.45 30.1 56.35 31.2 L56.3 31.2 55.7 31.2 54.15 31.3 Q53.1 31.75 53.1 32.65 L53.2 33.15 53.05 33.25 53.0 33.3 M62.45 36.7 L62.65 36.75 62.7 36.8 61.95 36.75 62.45 36.7 M60.8 37.65 L62.1 37.7 62.15 37.9 62.25 38.35 62.3 38.6 Q61.8 37.85 60.8 37.65 M58.7 39.8 L58.65 39.7 58.45 39.1 58.45 39.05 58.7 39.8 M56.7 44.1 L56.75 43.65 55.9 40.8 Q55.9 40.1 56.1 39.95 L55.9 39.7 56.55 39.55 56.85 39.6 56.95 39.2 Q56.95 38.65 57.6 39.0 L57.6 39.1 Q57.4 40.3 58.45 40.85 L58.8 40.6 58.85 40.65 58.9 40.6 59.25 43.15 59.45 43.2 57.5 43.8 56.7 44.1" fill="#525253" fill-rule="evenodd" stroke="none"/>
      <path d="M60.6 31.5 L60.65 32.05 60.6 32.35 61.05 34.0 61.45 35.0 61.45 35.3 61.45 35.65 62.15 35.85 62.65 36.0 63.15 36.85 63.15 36.9 62.8 36.8 62.7 36.8 62.65 36.75 62.45 36.7 59.35 36.5 56.55 36.85 Q58.05 35.95 59.1 35.5 L58.9 35.05 58.25 35.25 58.25 34.3 57.15 31.4 57.2 31.15 57.25 31.0 Q59.6 30.5 60.6 31.4 L60.6 31.5" fill="#77c1be" fill-opacity="0.99215686" fill-rule="evenodd" stroke="none"/>
      <path d="M62.35 38.9 Q62.5 40.55 62.95 42.15 L63.15 42.8 63.1 43.0 62.95 43.55 62.9 43.5 62.95 43.4 62.8 43.05 62.5 43.0 60.15 43.0 60.15 42.75 59.55 39.2 Q59.35 37.9 58.75 37.7 L60.0 37.6 60.8 37.65 Q61.8 37.85 62.3 38.6 L62.3 38.8 62.3 38.9 62.35 38.9" fill="#72afad" fill-rule="evenodd" stroke="none"/>
      <path d="M63.15 42.8 L63.4 43.55 63.4 44.15 63.4 44.2 62.9 44.35 62.05 44.8 60.85 45.3 Q60.45 45.45 60.1 45.7 L59.2 45.55 56.35 45.55 56.15 44.35 56.3 44.25 56.55 44.25 56.65 44.2 56.7 44.1 57.5 43.8 59.45 43.2 59.6 43.2 60.1 43.05 60.15 43.0 62.5 43.0 62.8 43.05 62.95 43.4 62.9 43.5 62.95 43.55 63.1 43.0 63.15 42.8" fill="#494142" fill-rule="evenodd" stroke="none"/>
      <path d="M9.25 -28.7 Q8.85 -30.15 8.85 -31.7 L8.85 -31.9 8.85 -32.05 8.95 -33.8 Q9.25 -36.4 10.45 -39.0 L10.95 -38.95 13.05 -41.35 12.95 -40.9 12.75 -40.5 Q10.35 -38.15 10.05 -34.6 L9.4 -29.1 9.4 -29.0 9.25 -28.7 M10.95 -28.7 L10.7 -30.3 Q10.35 -33.0 10.35 -33.8 10.6 -35.2 11.2 -36.7 L11.25 -36.8 11.35 -36.8 10.95 -35.2 Q11.0 -33.5 11.2 -31.95 11.4 -29.95 11.85 -29.3 L11.85 -28.9 11.9 -28.75 11.85 -28.65 11.85 -28.7 10.95 -28.7" fill="#575455" fill-rule="evenodd" stroke="none"/>
    </g>
    <g id="sprite0" transform="matrix(1, 0, 0, 1, 9.0, 9.1)">
      <use height="18.2" transform="matrix(1.0, 0.0, 0.0, 1.0, -9.0, -9.1)" width="18.05" xlink:href="#shape1"/>
    </g>
    <g id="shape1" transform="matrix(1, 0, 0, 1, 9.0, 9.1)">
      <path d="M4.15 -4.1 Q2.45 -5.75 0.0 -5.75 -2.45 -5.75 -4.2 -4.1 -5.9 -2.4 -5.9 0.0 -5.9 2.4 -4.2 4.1 -2.45 5.8 0.0 5.8 2.45 5.8 4.15 4.1 5.9 2.4 5.9 0.0 5.9 -2.4 4.15 -4.1 5.9 -2.4 5.9 0.0 5.9 2.4 4.15 4.1 2.45 5.8 0.0 5.8 -2.45 5.8 -4.2 4.1 -5.9 2.4 -5.9 0.0 -5.9 -2.4 -4.2 -4.1 -2.45 -5.75 0.0 -5.75 2.45 -5.75 4.15 -4.1 M6.05 -6.1 Q8.55 -3.55 8.55 0.0 8.55 3.55 6.05 6.1 3.6 8.6 0.05 8.6 -3.5 8.6 -6.0 6.1 -8.5 3.55 -8.5 0.0 -8.5 -3.55 -6.0 -6.1 -3.5 -8.6 0.05 -8.6 3.6 -8.6 6.05 -6.1 M3.55 -0.15 L3.25 -1.95 Q2.45 -3.4 -0.2 -3.4 L-1.35 -3.25 Q-2.3 -3.1 -2.75 -2.4 L-3.15 -1.9 -3.55 -1.0 -3.55 -0.95 -3.45 0.85 -3.1 1.8 Q-2.55 2.75 -1.5 3.0 L-0.25 3.25 Q3.55 3.25 3.55 -0.15" fill="#ffffff" fill-rule="evenodd" stroke="none"/>
      <path d="M3.55 -0.15 Q3.55 3.25 -0.25 3.25 L-1.5 3.0 Q-2.55 2.75 -3.1 1.8 L-3.45 0.85 -3.55 -0.95 -3.55 -1.0 -3.15 -1.9 -2.75 -2.4 Q-2.3 -3.1 -1.35 -3.25 L-0.2 -3.4 Q2.45 -3.4 3.25 -1.95 L3.55 -0.15" fill="#8a3939" fill-rule="evenodd" stroke="none"/>
      <path d="M4.15 -4.1 Q5.9 -2.4 5.9 0.0 5.9 2.4 4.15 4.1 2.45 5.8 0.0 5.8 -2.45 5.8 -4.2 4.1 -5.9 2.4 -5.9 0.0 -5.9 -2.4 -4.2 -4.1 -2.45 -5.75 0.0 -5.75 2.45 -5.75 4.15 -4.1" fill="none" stroke="#793031" stroke-linecap="round" stroke-linejoin="round" stroke-width="2.45"/>
      <path d="M6.05 -6.1 Q8.55 -3.55 8.55 0.0 8.55 3.55 6.05 6.1 3.6 8.6 0.05 8.6 -3.5 8.6 -6.0 6.1 -8.5 3.55 -8.5 0.0 -8.5 -3.55 -6.0 -6.1 -3.5 -8.6 0.05 -8.6 3.6 -8.6 6.05 -6.1" fill="none" stroke="#a94545" stroke-linecap="round" stroke-linejoin="round" stroke-width="1.0"/>
    </g>
  </defs>
</svg>
