<?xml version="1.0" encoding="UTF-8" standalone="no"?>
<svg xmlns:xlink="http://www.w3.org/1999/xlink" height="139.35px" width="175.4px" xmlns="http://www.w3.org/2000/svg">
  <g transform="matrix(1, 0, 0, 1, 39.85, 83.75)">
    <use height="109.5" transform="matrix(1.0, 0.0, 0.0, 1.0, 18.9, -69.6)" width="74.6" xlink:href="#shape0"/>
  </g>
  <defs>
    <g id="shape0" transform="matrix(1, 0, 0, 1, -18.9, 69.6)">
      <path d="M49.7 -66.65 Q51.55 -65.75 53.4 -65.35 L53.8 -63.8 55.85 -64.35 Q57.3 -64.15 63.65 -65.7 L64.4 -65.85 64.15 -65.5 Q63.0 -64.05 62.3 -61.9 61.75 -60.2 61.05 -54.9 60.25 -48.75 61.15 -46.8 61.25 -44.45 61.95 -43.95 L61.95 -43.9 62.0 -43.6 Q60.75 -43.65 59.95 -43.05 L59.7 -42.95 59.6 -42.95 55.7 -42.35 44.85 -41.05 33.15 -39.3 27.35 -38.75 Q26.7 -38.85 26.5 -38.4 L26.4 -37.6 26.4 -36.05 Q26.0 -38.15 26.05 -40.6 25.7 -41.5 25.85 -42.9 L25.95 -44.05 25.9 -44.95 Q25.8 -45.15 25.85 -45.35 L25.9 -46.8 26.3 -48.55 26.75 -49.65 27.6 -51.7 27.65 -52.1 28.3 -53.25 29.8 -55.4 29.85 -55.45 Q30.05 -56.35 31.85 -57.2 L32.1 -57.35 32.3 -57.35 32.55 -57.45 32.7 -57.45 32.9 -57.55 32.9 -57.6 34.05 -58.05 39.95 -59.85 44.35 -61.3 45.65 -61.5 47.15 -62.0 47.25 -61.8 47.75 -61.9 47.8 -62.2 50.05 -62.9 Q49.8 -63.7 49.7 -65.3 L49.7 -66.65 M21.55 -50.6 L23.5 -53.25 24.9 -54.75 26.8 -55.75 26.85 -55.75 27.55 -55.85 27.55 -55.8 25.3 -52.5 Q23.15 -49.0 22.65 -45.55 L22.65 -42.55 22.7 -40.8 22.6 -40.35 22.55 -40.4 22.5 -40.35 22.3 -41.15 21.75 -40.55 21.65 -40.8 Q21.3 -41.5 21.4 -43.5 L21.55 -46.75 22.15 -48.25 22.05 -48.3 22.0 -48.2 20.8 -45.45 Q20.65 -44.65 20.65 -41.95 L20.7 -40.3 19.8 -40.65 19.25 -40.8 19.2 -40.9 20.6 -46.3 Q21.35 -49.75 24.0 -51.8 L24.25 -52.15 25.0 -53.4 24.4 -52.6 22.05 -50.45 21.55 -50.6" fill="#5d5756" fill-rule="evenodd" stroke="none"/>
      <path d="M19.0 -40.55 Q18.8 -42.05 19.0 -43.55 L19.05 -43.75 19.05 -43.9 19.4 -45.65 Q20.0 -48.15 21.55 -50.6 L22.05 -50.45 24.4 -52.6 24.25 -52.15 24.0 -51.8 Q21.35 -49.75 20.6 -46.3 L19.2 -40.9 19.2 -40.8 19.0 -40.55 M20.7 -40.3 L20.65 -41.95 Q20.65 -44.65 20.8 -45.45 L22.0 -48.2 22.05 -48.3 22.15 -48.25 21.55 -46.75 21.4 -43.5 Q21.3 -41.5 21.65 -40.8 L21.6 -40.4 21.6 -40.25 21.55 -40.15 21.55 -40.2 20.7 -40.3" fill="#575455" fill-rule="evenodd" stroke="none"/>
      <path d="M27.55 -55.85 Q29.35 -56.25 31.85 -57.2 30.05 -56.35 29.85 -55.45 L29.8 -55.4 28.3 -53.25 27.65 -52.1 27.6 -51.7 26.75 -49.65 26.3 -48.55 25.9 -46.8 25.85 -45.35 25.55 -44.7 25.4 -41.7 24.95 -40.2 25.0 -39.95 24.95 -40.0 24.85 -39.85 24.4 -39.85 24.15 -40.05 23.85 -40.3 23.3 -40.2 22.7 -40.05 22.5 -40.1 22.5 -40.35 22.55 -40.4 22.6 -40.35 22.7 -40.8 22.65 -42.55 22.65 -45.55 Q23.15 -49.0 25.3 -52.5 L27.55 -55.8 27.55 -55.85 M32.7 -57.45 L32.9 -57.6 32.9 -57.55 32.7 -57.45 M24.25 -52.15 L24.4 -52.6 25.0 -53.4 24.25 -52.15" fill="#73b1af" fill-rule="evenodd" stroke="none"/>
      <path d="M74.8 -29.75 L72.4 -29.55 Q68.05 -29.75 64.3 -29.4 L64.0 -29.45 60.45 -29.2 60.15 -29.1 59.4 -28.65 59.05 -28.6 59.1 -28.9 59.15 -30.75 Q57.5 -31.15 55.85 -32.2 L55.05 -32.7 54.65 -32.75 54.35 -32.55 54.2 -32.55 54.25 -32.45 54.15 -32.2 54.25 -32.1 Q55.35 -25.5 55.5 -17.9 L55.5 -17.8 55.5 -17.7 55.5 -16.15 Q56.05 -13.2 56.3 -7.5 56.65 -0.45 56.45 1.0 L56.2 2.05 56.0 2.1 55.85 2.1 55.75 1.3 Q55.2 3.35 53.7 4.05 L53.55 4.75 Q53.2 4.7 52.95 5.2 L52.2 -4.45 51.95 -11.0 51.3 -17.7 51.25 -17.8 50.9 -22.7 50.85 -22.9 50.85 -24.35 50.5 -26.3 50.35 -28.55 49.15 -28.45 47.8 -28.55 47.75 -28.5 47.65 -28.5 45.85 -28.35 40.05 -28.5 38.55 -28.35 36.75 -28.3 34.75 -28.25 32.9 -28.3 32.85 -28.35 31.7 -28.8 31.8 -29.2 31.15 -30.3 29.9 -31.5 Q32.2 -32.7 38.3 -33.25 37.85 -34.5 41.4 -34.2 L43.4 -34.4 56.5 -37.65 61.5 -39.0 61.0 -39.25 Q59.65 -40.15 59.35 -41.05 60.0 -41.2 60.55 -41.5 L62.35 -42.5 63.2 -40.55 Q64.35 -38.15 65.2 -37.35 66.15 -35.9 68.25 -33.6 71.6 -29.9 73.1 -29.7 L73.6 -29.75 73.7 -29.95 74.8 -29.75 M47.15 -62.0 L46.8 -63.25 46.65 -64.9 46.65 -64.95 47.1 -65.8 Q47.6 -66.55 49.2 -66.95 L49.35 -66.85 49.7 -66.65 49.7 -65.3 Q49.05 -64.85 48.15 -65.1 L48.2 -63.75 47.8 -62.2 47.75 -61.9 47.25 -61.8 47.15 -62.0 M62.0 -43.6 L62.05 -43.45 59.95 -43.0 59.95 -43.05 Q60.75 -43.65 62.0 -43.6 M37.4 -31.2 L38.3 -31.35 37.45 -31.3 37.4 -31.2" fill="#3f383f" fill-rule="evenodd" stroke="none"/>
      <path d="M46.65 -64.95 L46.45 -65.35 46.5 -65.6 47.1 -65.8 46.65 -64.95 M49.7 -65.3 Q49.8 -63.7 50.05 -62.9 L47.8 -62.2 48.2 -63.75 48.15 -65.1 Q49.05 -64.85 49.7 -65.3" fill="#3f393f" fill-rule="evenodd" stroke="none"/>
      <path d="M34.75 -28.25 L33.0 -28.1 32.9 -28.3 34.75 -28.25 M29.65 -27.9 L28.7 -27.85 27.05 -28.0 26.8 -27.95 Q25.75 -28.3 24.75 -29.0 L23.45 -30.65 Q19.55 -35.7 19.0 -40.55 L19.2 -40.8 19.25 -40.8 19.8 -40.65 20.7 -40.3 21.55 -40.2 21.55 -40.15 21.6 -40.25 21.75 -40.55 22.3 -41.15 22.5 -40.35 22.5 -40.1 23.65 -34.6 Q23.85 -33.7 24.2 -32.85 L24.9 -32.1 26.6 -30.25 Q27.5 -29.25 29.2 -28.15 L29.65 -27.9 M62.15 -42.95 L62.35 -42.5 60.55 -41.5 Q60.0 -41.2 59.35 -41.05 59.65 -40.15 61.0 -39.25 L61.5 -39.0 56.5 -37.65 43.4 -34.4 41.4 -34.2 Q37.85 -34.5 38.3 -33.25 32.2 -32.7 29.9 -31.5 L31.15 -30.3 31.8 -29.2 31.7 -28.8 Q29.0 -29.95 27.75 -31.9 L27.45 -32.75 27.4 -32.95 27.15 -33.75 26.9 -34.7 26.65 -36.35 26.75 -36.6 26.7 -36.8 26.75 -36.9 26.75 -37.0 Q26.85 -37.75 27.3 -38.1 L27.35 -37.5 28.95 -38.2 27.85 -38.05 Q28.05 -38.1 27.9 -38.45 27.75 -38.7 27.35 -38.75 L33.15 -39.3 44.85 -41.05 55.7 -42.35 62.15 -42.95 M59.7 -42.95 L59.95 -43.05 59.95 -43.0 59.7 -42.95 M37.4 -31.2 L37.45 -31.3 38.3 -31.35 37.4 -31.2 M52.95 -41.1 L50.4 -40.9 47.9 -40.6 48.4 -40.2 Q48.55 -40.05 48.8 -40.0 L51.0 -40.4 52.95 -41.1 M46.45 -39.1 L47.35 -39.2 47.35 -39.55 38.05 -38.15 46.45 -39.1" fill="#403a40" fill-rule="evenodd" stroke="none"/>
      <path d="M84.25 -30.75 L82.65 -30.35 81.1 -30.2 80.1 -29.95 77.95 -29.9 77.9 -29.95 Q70.75 -33.35 67.7 -39.7 L66.65 -41.6 66.35 -42.2 Q65.65 -43.95 65.7 -44.2 65.75 -44.75 67.55 -44.95 L69.7 -44.9 71.05 -41.3 Q75.05 -31.8 82.5 -30.8 L84.25 -30.75 M62.05 -43.45 L62.15 -42.95 55.7 -42.35 59.6 -42.95 59.7 -42.95 59.95 -43.0 62.05 -43.45 M26.4 -36.05 L26.4 -37.6 26.5 -38.4 Q26.7 -38.85 27.35 -38.75 27.75 -38.7 27.9 -38.45 28.05 -38.1 27.85 -38.05 L28.95 -38.2 27.35 -37.5 27.3 -38.1 Q26.85 -37.75 26.75 -37.0 L26.75 -36.9 26.7 -36.8 26.75 -36.6 26.65 -36.35 26.9 -34.7 Q26.5 -35.15 26.4 -36.05 M52.95 -41.1 L51.0 -40.4 48.8 -40.0 Q48.55 -40.05 48.4 -40.2 L47.9 -40.6 50.4 -40.9 52.95 -41.1 M46.45 -39.1 L38.05 -38.15 47.35 -39.55 47.35 -39.2 46.45 -39.1" fill="#433d42" fill-rule="evenodd" stroke="none"/>
      <path d="M59.05 -28.6 L58.9 -28.15 58.85 -28.15 59.05 -25.85 59.05 -23.75 58.45 -25.8 58.35 -25.75 58.55 -24.7 57.8 -22.45 56.95 -19.9 56.5 -19.8 Q55.95 -19.85 55.8 -20.1 L55.5 -17.9 Q55.35 -25.5 54.25 -32.1 L54.15 -32.2 54.25 -32.45 54.2 -32.55 54.35 -32.55 54.65 -32.75 55.05 -32.7 55.85 -32.2 Q57.5 -31.15 59.15 -30.75 L59.1 -28.9 59.05 -28.6 M59.1 -21.85 L59.2 -19.05 59.1 -19.05 59.15 -19.45 Q59.05 -19.85 59.1 -21.85 M57.65 -20.9 L57.7 -20.9 57.75 -20.8 57.65 -20.9 M56.0 2.1 L56.2 2.05 56.45 1.0 Q56.65 -0.45 56.3 -7.5 56.05 -13.2 55.5 -16.15 L55.5 -17.7 55.7 -15.55 Q55.8 -14.3 56.1 -13.9 L56.0 -13.4 56.0 -13.3 56.45 -11.15 56.45 -11.0 56.45 -9.9 56.5 -9.0 56.5 -6.45 56.6 -5.3 57.25 2.95 57.7 12.35 57.7 12.65 57.95 21.7 57.95 21.9 56.95 22.0 57.15 21.9 56.55 21.65 57.0 21.65 57.05 21.65 57.05 21.4 57.05 21.35 56.05 3.0 56.0 2.1" fill="#554f50" fill-rule="evenodd" stroke="none"/>
      <path d="M33.0 -28.1 L30.6 -27.9 30.4 -27.95 29.65 -27.9 29.2 -28.15 Q27.5 -29.25 26.6 -30.25 L24.9 -32.1 24.2 -32.85 Q23.85 -33.7 23.65 -34.6 L22.5 -40.1 22.7 -40.05 23.3 -40.2 23.85 -40.3 24.15 -40.05 24.4 -39.85 24.85 -39.85 24.95 -40.0 25.0 -39.95 24.95 -40.2 25.4 -41.7 25.55 -44.7 25.85 -45.35 Q25.8 -45.15 25.9 -44.95 L25.95 -44.05 25.85 -42.9 Q25.7 -41.5 26.05 -40.6 26.0 -38.15 26.4 -36.05 26.5 -35.15 26.9 -34.7 L27.15 -33.75 27.4 -32.95 27.45 -32.75 27.75 -31.9 Q29.0 -29.95 31.7 -28.8 L32.85 -28.35 32.9 -28.3 33.0 -28.1 M21.65 -40.8 L21.75 -40.55 21.6 -40.25 21.6 -40.4 21.65 -40.8" fill="#648387" fill-rule="evenodd" stroke="none"/>
      <path d="M59.05 -23.75 L59.1 -21.85 Q59.05 -19.85 59.15 -19.45 L59.1 -19.05 59.2 -19.05 59.35 -16.2 59.35 -15.8 58.7 -17.0 Q58.6 -17.3 58.55 -16.75 L59.05 -13.15 59.05 -13.0 58.9 -13.15 Q58.45 -14.5 56.8 -13.3 L56.45 -11.0 56.45 -11.15 56.0 -13.3 56.0 -13.4 56.1 -13.9 Q55.8 -14.3 55.7 -15.55 L55.5 -17.7 55.5 -17.8 55.5 -17.9 55.8 -20.1 Q55.95 -19.85 56.5 -19.8 L56.95 -19.9 57.8 -22.45 58.55 -24.7 58.35 -25.75 58.45 -25.8 59.05 -23.75 M57.65 -20.9 L57.75 -20.8 57.7 -20.9 57.65 -20.9 M56.5 -9.0 L56.45 -9.9 56.65 -9.0 56.5 -9.0" fill="#5c6264" fill-rule="evenodd" stroke="none"/>
      <path d="M59.35 -15.8 L59.85 -2.1 59.85 -1.3 59.7 -2.35 59.45 -2.15 Q59.0 -2.5 57.85 -4.85 L56.85 -7.15 56.6 -5.3 56.5 -6.45 56.5 -9.0 56.65 -9.0 56.45 -9.9 56.45 -11.0 56.8 -13.3 Q58.45 -14.5 58.9 -13.15 L59.05 -13.0 59.05 -13.15 58.55 -16.75 Q58.6 -17.3 58.7 -17.0 L59.35 -15.8" fill="#556467" fill-rule="evenodd" stroke="none"/>
      <path d="M57.25 2.95 L56.6 -5.3 56.85 -7.15 57.85 -4.85 Q59.0 -2.5 59.45 -2.15 L59.15 -1.55 59.1 -0.9 58.65 -0.95 57.8 -1.05 57.25 2.95" fill="#627578" fill-rule="evenodd" stroke="none"/>
      <path d="M69.55 -67.3 L72.15 -68.0 74.75 -68.4 Q72.4 -66.95 71.0 -64.4 69.5 -61.7 68.9 -57.15 L68.45 -53.35 68.65 -51.75 68.55 -51.6 Q68.45 -50.75 69.0 -47.9 L69.4 -46.35 68.55 -47.6 68.0 -47.4 66.75 -47.15 Q65.95 -47.25 65.6 -47.9 L65.35 -47.95 Q65.1 -47.95 65.0 -48.35 64.65 -49.4 64.9 -53.2 L65.35 -58.25 66.0 -61.0 66.75 -63.2 68.35 -66.25 68.4 -66.35 Q69.35 -66.55 69.55 -67.3" fill="#5c5b5a" fill-rule="evenodd" stroke="none"/>
      <path d="M64.4 -65.85 L69.55 -67.3 Q69.35 -66.55 68.4 -66.35 L68.35 -66.25 66.75 -63.2 65.15 -59.0 64.2 -47.9 63.8 -46.25 63.3 -45.2 63.4 -44.9 63.15 -43.85 Q63.25 -43.75 62.9 -43.75 L62.45 -44.45 62.1 -44.35 61.95 -43.95 Q61.25 -44.45 61.15 -46.8 60.25 -48.75 61.05 -54.9 61.75 -60.2 62.3 -61.9 63.0 -64.05 64.15 -65.5 L64.4 -65.85 M85.0 -67.85 L86.25 -67.1 86.25 -66.8 Q87.55 -66.15 87.45 -65.6 L87.4 -65.3 87.35 -65.25 87.3 -65.15 86.75 -65.2 86.15 -65.35 85.65 -65.7 Q85.05 -66.15 84.2 -66.25 L81.95 -66.05 78.6 -62.3 78.55 -62.05 78.65 -61.85 Q77.15 -59.7 76.2 -57.45 74.75 -54.05 74.2 -50.05 73.85 -47.3 74.05 -43.8 74.1 -42.4 75.05 -39.85 L75.4 -38.9 73.55 -41.2 71.35 -44.4 71.45 -44.45 70.7 -45.95 70.5 -46.55 70.35 -46.9 69.8 -49.8 69.65 -53.5 Q69.45 -55.05 69.75 -57.1 70.3 -61.25 71.5 -63.25 72.7 -65.1 75.9 -67.65 L75.6 -67.1 Q73.7 -65.85 72.45 -63.4 L71.7 -61.9 71.55 -61.2 71.55 -60.75 72.2 -56.7 72.6 -53.3 Q73.45 -56.15 75.15 -60.5 75.75 -61.95 76.65 -63.35 77.35 -65.15 78.85 -66.25 L79.8 -67.35 80.8 -68.3 81.1 -68.05 Q81.6 -67.65 82.3 -67.45 L83.45 -67.15 Q84.15 -66.6 84.4 -66.6 L84.75 -66.6 85.5 -66.25 85.9 -66.3 86.05 -66.5 85.0 -67.85 M79.3 -68.3 L78.05 -68.15 79.4 -68.45 79.3 -68.3 M79.0 -64.5 Q77.55 -62.8 76.6 -61.05 L78.9 -64.3 79.0 -64.5 M71.65 -50.4 L71.75 -50.15 71.85 -50.55 71.65 -50.4 M74.15 -54.2 L73.8 -52.95 73.8 -52.05 74.15 -54.2 M75.05 -49.25 L75.05 -49.15 75.0 -49.25 75.0 -49.7 75.05 -49.25 M73.15 -49.1 L73.1 -50.2 Q73.0 -49.0 73.2 -47.15 L73.15 -49.1 M73.75 -44.0 L73.8 -44.0 73.55 -44.75 73.55 -44.55 73.75 -44.0 M76.0 -41.35 L76.2 -40.05 75.8 -40.85 76.0 -41.35" fill="#73b6b3" fill-opacity="0.9882353" fill-rule="evenodd" stroke="none"/>
      <path d="M79.15 -69.5 L81.3 -69.45 Q83.7 -69.05 85.0 -67.85 L86.05 -66.5 85.9 -66.3 85.5 -66.25 84.75 -66.6 83.45 -67.15 82.3 -67.45 Q81.6 -67.65 81.1 -68.05 L80.8 -68.3 79.8 -67.35 78.85 -66.25 Q77.35 -65.15 76.65 -63.35 75.75 -61.95 75.15 -60.5 73.45 -56.15 72.6 -53.3 L72.2 -56.7 71.55 -60.75 71.55 -61.2 71.7 -61.9 72.45 -63.4 Q73.7 -65.85 75.6 -67.1 L75.9 -67.65 Q77.15 -69.2 79.15 -69.5 M86.25 -67.1 L86.3 -67.1 88.0 -65.65 88.55 -64.95 89.55 -63.35 89.35 -63.3 87.35 -65.25 87.4 -65.3 87.45 -65.6 Q87.55 -66.15 86.25 -66.8 L86.25 -67.1 M79.3 -68.3 L79.4 -68.45 78.05 -68.15 79.3 -68.3 M71.65 -50.4 L71.85 -50.55 71.75 -50.15 71.65 -50.4" fill="#77c3c0" fill-opacity="0.99215686" fill-rule="evenodd" stroke="none"/>
      <path d="M74.75 -68.4 Q75.4 -68.8 76.2 -69.1 L79.0 -69.6 79.15 -69.5 Q77.15 -69.2 75.9 -67.65 72.7 -65.1 71.5 -63.25 70.3 -61.25 69.75 -57.1 69.45 -55.05 69.65 -53.5 L69.8 -49.8 70.35 -46.9 70.5 -46.55 70.9 -44.1 71.1 -44.15 72.65 -41.0 Q73.75 -38.6 73.7 -38.1 L73.65 -37.8 73.55 -37.8 Q74.85 -36.1 76.7 -34.6 L78.1 -33.85 78.2 -33.75 80.3 -32.7 82.5 -32.1 83.4 -32.0 84.15 -31.9 84.7 -32.2 85.1 -32.4 85.4 -32.55 85.75 -32.7 86.05 -32.95 85.8 -32.85 Q84.3 -32.1 82.65 -32.3 82.2 -32.35 82.05 -32.55 L82.0 -32.55 82.0 -32.6 82.45 -32.85 82.25 -33.0 Q82.35 -33.3 84.05 -33.7 L84.95 -33.85 85.45 -34.05 87.9 -36.15 Q88.55 -36.8 89.15 -38.7 L89.2 -38.85 89.2 -38.9 89.85 -40.75 89.85 -40.8 Q89.3 -40.3 87.55 -39.85 85.35 -38.6 83.15 -38.3 L83.2 -38.3 86.2 -38.5 87.8 -38.95 Q88.65 -38.85 88.8 -38.55 L88.8 -38.05 88.1 -37.15 Q86.9 -35.5 84.0 -35.5 L83.8 -35.55 85.7 -35.85 84.4 -35.95 Q79.4 -36.6 77.8 -45.45 77.3 -48.8 77.3 -52.15 L77.15 -50.75 77.05 -48.25 76.9 -49.7 77.3 -52.15 77.35 -54.35 77.75 -56.3 77.8 -57.05 77.8 -57.2 78.0 -57.65 Q78.9 -61.55 80.55 -63.1 L80.8 -63.5 Q81.9 -64.45 83.5 -64.95 85.55 -64.05 86.85 -62.55 L88.95 -60.1 Q90.75 -57.35 91.55 -54.6 L91.55 -54.35 92.8 -50.15 93.0 -51.65 93.05 -51.65 93.4 -48.35 93.4 -48.15 93.35 -47.55 93.2 -43.7 92.3 -38.55 92.05 -37.4 Q91.35 -35.2 90.55 -34.5 L89.1 -32.8 88.2 -32.1 87.05 -31.5 86.75 -31.25 Q86.35 -30.95 85.0 -30.95 L84.9 -30.95 84.85 -30.9 84.25 -30.75 82.5 -30.8 Q75.05 -31.8 71.05 -41.3 L69.7 -44.9 69.4 -46.35 69.0 -47.9 Q68.45 -50.75 68.55 -51.6 L68.65 -51.75 68.45 -53.35 68.9 -57.15 Q69.5 -61.7 71.0 -64.4 72.4 -66.95 74.75 -68.4 M80.1 -60.85 L79.85 -60.25 79.85 -60.15 80.1 -60.85 M80.0 -38.35 Q80.0 -37.85 80.6 -37.3 L81.1 -36.95 81.25 -36.75 Q79.65 -37.8 79.05 -39.1 78.45 -40.25 78.1 -42.25 L78.1 -42.35 78.05 -42.6 78.05 -42.7 Q78.5 -41.3 79.1 -40.0 L80.0 -38.35 M84.75 -66.6 L84.4 -66.6 Q84.15 -66.6 83.45 -67.15 L84.75 -66.6 M92.45 -46.75 L92.35 -46.35 92.55 -46.4 92.5 -46.6 92.45 -46.75 M90.6 -43.1 L90.7 -43.35 90.6 -43.75 90.75 -44.1 91.05 -44.0 91.1 -44.15 91.2 -43.95 Q92.0 -43.55 92.15 -42.25 L92.35 -44.0 92.45 -44.65 92.05 -44.1 92.0 -44.15 91.4 -44.1 91.1 -45.3 90.9 -44.85 Q90.1 -42.7 89.05 -41.35 L89.2 -41.4 90.5 -43.05 90.6 -43.1 M82.1 -37.55 L82.15 -37.55 82.05 -37.75 81.65 -37.95 81.85 -37.7 82.1 -37.55 M82.45 -37.3 L83.15 -37.05 83.65 -36.95 84.2 -37.1 84.35 -37.35 82.45 -37.3 M89.95 -37.3 L89.95 -37.4 89.1 -35.9 Q89.85 -36.6 89.95 -37.3 M90.0 -35.65 L89.35 -35.0 88.95 -34.55 90.0 -35.65" fill="#6a999f" fill-opacity="0.99607843" fill-rule="evenodd" stroke="none"/>
      <path d="M77.95 -29.9 L74.8 -29.75 73.7 -29.95 73.6 -29.75 73.1 -29.7 Q71.6 -29.9 68.25 -33.6 66.15 -35.9 65.2 -37.35 64.35 -38.15 63.2 -40.55 L62.35 -42.5 62.15 -42.95 62.05 -43.45 62.0 -43.6 61.95 -43.9 61.95 -43.95 62.1 -44.35 62.45 -44.45 62.9 -43.75 Q63.25 -43.75 63.15 -43.85 L63.4 -44.9 63.3 -45.2 63.8 -46.25 64.2 -47.9 65.15 -59.0 66.75 -63.2 66.0 -61.0 65.35 -58.25 64.9 -53.2 Q64.65 -49.4 65.0 -48.35 65.0 -45.8 65.7 -43.85 L66.15 -42.4 66.35 -42.2 66.65 -41.6 67.7 -39.7 Q70.75 -33.35 77.9 -29.95 L77.95 -29.9" fill="#648286" fill-opacity="0.99215686" fill-rule="evenodd" stroke="none"/>
      <path d="M70.5 -46.55 L70.7 -45.95 71.45 -44.45 71.35 -44.4 73.55 -41.2 75.4 -38.9 75.05 -39.85 Q74.1 -42.4 74.05 -43.8 73.85 -47.3 74.2 -50.05 74.75 -54.05 76.2 -57.45 77.15 -59.7 78.65 -61.85 L78.55 -62.05 78.6 -62.3 81.95 -66.05 84.2 -66.25 Q85.05 -66.15 85.65 -65.7 L86.15 -65.35 86.4 -65.0 Q88.95 -63.0 90.35 -59.55 L90.45 -59.15 90.6 -58.85 91.05 -57.2 91.55 -54.6 Q90.75 -57.35 88.95 -60.1 L86.85 -62.55 Q85.55 -64.05 83.5 -64.95 81.9 -64.45 80.8 -63.5 L80.55 -63.1 Q78.9 -61.55 78.0 -57.65 L77.8 -57.2 77.8 -57.05 77.75 -56.3 77.35 -54.35 77.3 -52.15 76.9 -49.7 77.05 -48.25 77.15 -50.75 77.3 -52.15 Q77.3 -48.8 77.8 -45.45 79.4 -36.6 84.4 -35.95 L85.7 -35.85 83.8 -35.55 84.0 -35.5 Q86.9 -35.5 88.1 -37.15 L88.8 -38.05 89.2 -38.85 89.15 -38.7 Q88.55 -36.8 87.9 -36.15 L85.45 -34.05 84.95 -33.85 84.05 -33.7 82.9 -33.8 Q81.0 -34.05 79.5 -35.25 L78.75 -36.05 78.65 -36.0 78.05 -35.75 Q78.35 -35.05 79.55 -34.1 80.75 -33.0 82.0 -32.55 L82.05 -32.55 Q82.2 -32.35 82.65 -32.3 L82.55 -32.2 82.5 -32.1 80.3 -32.7 78.7 -33.9 78.6 -34.0 78.0 -34.8 77.9 -34.75 77.75 -34.7 76.25 -35.7 78.1 -33.85 76.7 -34.6 Q74.85 -36.1 73.55 -37.8 L73.65 -37.8 73.7 -38.1 Q73.75 -38.6 72.65 -41.0 L71.1 -44.15 70.9 -44.1 70.5 -46.55 M79.0 -64.5 L78.9 -64.3 76.6 -61.05 Q77.55 -62.8 79.0 -64.5 M80.1 -60.85 L79.85 -60.15 79.85 -60.25 80.1 -60.85 M74.15 -54.2 L73.8 -52.05 73.8 -52.95 74.15 -54.2 M75.05 -49.25 L75.0 -49.7 75.0 -49.25 75.05 -49.15 75.05 -49.25 M73.15 -49.1 L73.2 -47.15 Q73.0 -49.0 73.1 -50.2 L73.15 -49.1 M73.75 -44.0 L73.55 -44.55 73.55 -44.75 73.8 -44.0 73.75 -44.0 M74.1 -38.9 L73.4 -39.8 75.0 -37.3 74.9 -37.95 74.6 -38.3 74.5 -38.35 Q74.25 -38.35 74.1 -38.9 M80.0 -38.35 L79.1 -40.0 Q78.5 -41.3 78.05 -42.7 L78.05 -42.6 78.1 -42.35 78.1 -42.25 Q78.45 -40.25 79.05 -39.1 79.65 -37.8 81.25 -36.75 L81.1 -36.95 80.0 -38.35 M76.0 -41.35 L75.8 -40.85 76.2 -40.05 76.0 -41.35 M92.45 -46.75 L92.5 -46.6 92.55 -46.4 92.35 -46.35 92.45 -46.75 M82.05 -37.75 L82.1 -37.55 81.85 -37.7 81.65 -37.95 82.05 -37.75 M89.95 -37.3 Q89.85 -36.6 89.1 -35.9 L89.95 -37.4 89.95 -37.3" fill="#6da4a5" fill-rule="evenodd" stroke="none"/>
      <path d="M89.55 -63.35 L90.7 -60.65 91.2 -59.05 91.1 -59.0 90.6 -58.85 90.45 -59.15 90.35 -59.55 Q88.95 -63.0 86.4 -65.0 L86.15 -65.35 86.75 -65.2 87.3 -65.15 87.35 -65.25 89.35 -63.3 89.55 -63.35" fill="#71a8a6" fill-opacity="0.94509804" fill-rule="evenodd" stroke="none"/>
      <path d="M91.2 -59.05 L91.85 -56.55 93.0 -51.65 92.8 -50.15 91.55 -54.35 91.55 -54.6 91.05 -57.2 90.6 -58.85 91.1 -59.0 91.2 -59.05" fill="#6fabac" fill-opacity="0.99607843" fill-rule="evenodd" stroke="none"/>
      <path d="M93.45 -47.85 L93.45 -42.0 92.65 -39.65 92.05 -37.4 92.3 -38.55 93.2 -43.7 93.35 -47.55 93.4 -48.15 93.45 -47.85 M88.2 -32.1 L87.65 -31.55 87.6 -31.5 86.75 -31.25 87.05 -31.5 88.2 -32.1 M78.1 -33.85 L76.25 -35.7 77.75 -34.7 77.9 -34.75 78.1 -34.55 78.2 -34.45 78.25 -34.4 78.6 -34.0 78.7 -33.9 80.3 -32.7 78.2 -33.75 78.1 -33.85 M82.5 -32.1 L82.55 -32.2 82.65 -32.3 Q84.3 -32.1 85.8 -32.85 L86.05 -32.95 85.75 -32.7 85.2 -32.55 85.4 -32.55 85.1 -32.4 84.7 -32.2 84.15 -31.9 83.4 -32.0 82.5 -32.1 M82.0 -32.55 Q80.75 -33.0 79.55 -34.1 78.35 -35.05 78.05 -35.75 L78.65 -36.0 78.75 -36.05 79.5 -35.25 Q81.0 -34.05 82.9 -33.8 L84.05 -33.7 Q82.35 -33.3 82.25 -33.0 L82.45 -32.85 82.0 -32.6 82.0 -32.55 M89.2 -38.85 L88.8 -38.05 88.8 -38.55 Q88.65 -38.85 87.8 -38.95 L86.2 -38.5 83.2 -38.3 83.15 -38.3 Q85.35 -38.6 87.55 -39.85 89.3 -40.3 89.85 -40.8 L89.85 -40.75 89.2 -38.9 89.2 -38.85 M74.1 -38.9 Q74.25 -38.35 74.5 -38.35 L74.6 -38.3 74.9 -37.95 75.0 -37.3 73.4 -39.8 74.1 -38.9 M81.1 -36.95 L80.6 -37.3 Q80.0 -37.85 80.0 -38.35 L81.1 -36.95 M90.5 -43.05 L89.2 -41.4 89.05 -41.35 Q90.1 -42.7 90.9 -44.85 L91.1 -45.3 91.4 -44.1 92.0 -44.15 92.05 -44.1 92.45 -44.65 92.35 -44.0 92.15 -42.25 Q92.0 -43.55 91.2 -43.95 L91.1 -44.15 91.05 -44.0 90.75 -44.1 90.6 -43.75 90.7 -43.35 90.6 -43.1 90.55 -43.15 90.5 -43.05 M82.05 -37.75 L82.15 -37.55 82.1 -37.55 82.05 -37.75 M82.45 -37.3 L84.35 -37.35 84.2 -37.1 83.65 -36.95 83.15 -37.05 82.45 -37.3 M90.0 -35.65 L88.95 -34.55 89.35 -35.0 90.0 -35.65" fill="#69979c" fill-opacity="0.99215686" fill-rule="evenodd" stroke="none"/>
      <path d="M93.4 -48.35 L93.45 -47.85 93.4 -48.15 93.4 -48.35" fill="#375355" fill-rule="evenodd" stroke="none"/>
      <path d="M77.9 -34.75 L78.0 -34.8 78.6 -34.0 78.25 -34.4 78.2 -34.45 78.1 -34.55 77.9 -34.75 M90.6 -43.1 L90.5 -43.05 90.55 -43.15 90.6 -43.1" fill="#638488" fill-rule="evenodd" stroke="none"/>
      <path d="M85.4 -32.55 L85.2 -32.55 85.75 -32.7 85.4 -32.55" fill="#70adad" fill-rule="evenodd" stroke="none"/>
      <path d="M65.0 -48.35 Q65.1 -47.95 65.35 -47.95 L65.6 -47.9 Q65.95 -47.25 66.75 -47.15 L68.0 -47.4 68.55 -47.6 69.4 -46.35 69.7 -44.9 67.55 -44.95 Q65.75 -44.75 65.7 -44.2 65.65 -43.95 66.35 -42.2 L66.15 -42.4 65.7 -43.85 Q65.0 -45.8 65.0 -48.35" fill="#565152" fill-rule="evenodd" stroke="none"/>
      <path d="M59.85 -1.3 Q60.65 3.85 60.9 10.2 L61.0 15.3 61.1 22.3 61.65 22.5 61.95 22.75 62.05 22.9 60.7 22.3 59.25 22.05 59.25 22.0 60.25 22.05 60.45 22.1 60.45 22.05 59.55 10.6 59.3 5.65 59.25 5.05 59.2 3.9 58.55 4.85 57.95 6.0 57.9 5.4 Q57.75 7.35 57.75 9.2 L57.9 9.3 57.95 10.1 57.95 10.9 57.7 12.65 57.7 12.35 57.25 2.95 57.8 -1.05 58.65 -0.95 59.1 -0.9 59.15 -1.55 59.45 -2.15 59.7 -2.35 59.85 -1.3 M62.75 23.8 L63.2 24.45 63.15 24.75 62.85 24.8 62.75 24.8 61.95 24.45 Q62.6 24.4 62.75 23.8" fill="#668285" fill-opacity="0.99607843" fill-rule="evenodd" stroke="none"/>
      <path d="M57.05 21.4 L57.05 21.65 57.0 21.65 57.05 21.4 M57.95 21.9 L57.95 21.7 57.7 12.65 57.95 10.9 58.2 13.65 58.7 13.45 59.1 10.95 Q58.95 6.7 59.1 5.65 L59.2 5.05 59.25 5.05 59.3 5.65 59.25 5.8 Q59.1 6.9 59.55 13.3 59.75 17.05 60.05 19.4 L59.8 19.45 59.7 18.8 59.25 22.0 59.15 21.95 57.95 21.9 M60.45 22.05 L60.45 22.1 60.25 22.05 60.45 22.05" fill="#6fa8a8" fill-rule="evenodd" stroke="none"/>
      <path d="M61.0 15.3 L61.65 22.5 61.1 22.3 61.0 15.3 M57.95 10.9 L57.95 10.1 57.9 9.3 57.75 9.2 Q57.75 7.35 57.9 5.4 L57.95 6.0 58.55 4.85 59.2 3.9 59.25 5.05 59.2 5.05 59.1 5.65 Q58.95 6.7 59.1 10.95 L58.7 13.45 58.2 13.65 57.95 10.9" fill="#608c8e" fill-opacity="0.8784314" fill-rule="evenodd" stroke="none"/>
      <path d="M62.05 22.9 Q62.8 23.3 62.75 23.75 L62.75 23.8 Q62.6 24.4 61.95 24.45 L61.65 24.45 Q60.1 24.25 59.85 23.85 L59.8 23.75 59.65 23.7 56.55 23.65 59.4 22.45 59.25 22.05 60.7 22.3 62.05 22.9 M52.95 24.95 L52.65 24.55 53.55 24.7 52.95 24.95 M53.95 22.95 L53.95 22.85 54.1 22.85 54.2 22.85 53.95 22.95 M59.3 5.65 L59.55 10.6 60.45 22.05 60.25 22.05 59.25 22.0 59.7 18.8 59.8 19.45 60.05 19.4 Q59.75 17.05 59.55 13.3 59.1 6.9 59.25 5.8 L59.3 5.65" fill="#77c1be" fill-rule="evenodd" stroke="none"/>
      <path d="M62.85 24.8 L62.55 25.2 62.0 25.85 62.0 25.75 Q61.15 24.7 58.7 24.9 L58.9 24.55 Q59.0 24.0 58.75 24.2 L55.15 24.6 Q53.8 24.85 53.15 25.25 L52.95 24.95 53.55 24.7 52.65 24.55 52.5 24.55 52.45 24.1 Q52.55 23.5 53.95 22.95 L54.2 22.85 55.1 22.5 56.95 22.0 57.95 21.9 59.15 21.95 59.25 22.0 59.25 22.05 59.4 22.45 56.55 23.65 59.65 23.7 59.8 23.75 59.85 23.85 Q60.1 24.25 61.65 24.45 L61.95 24.45 62.75 24.8 62.85 24.8 M62.3 29.7 L62.95 30.35 62.25 30.05 62.3 29.7 M63.8 31.55 L63.3 32.3 62.7 33.35 62.75 33.45 62.7 33.45 62.7 33.35 62.7 33.15 62.7 32.85 62.65 32.4 62.65 32.2 61.4 32.0 60.6 31.8 59.25 31.45 59.0 31.25 58.45 31.3 58.4 31.05 58.3 30.9 56.25 31.05 55.0 31.55 54.25 31.35 54.2 31.4 54.1 31.25 54.05 31.2 54.0 31.2 54.0 30.75 54.6 30.3 54.75 29.9 54.45 28.7 Q54.05 27.3 54.1 26.9 L54.2 26.7 54.2 26.65 54.25 26.6 54.45 26.55 54.6 26.45 54.85 26.4 54.95 26.7 55.2 27.7 55.5 29.0 55.4 30.0 56.4 29.75 58.4 29.35 58.45 29.15 57.9 27.35 57.65 25.75 57.8 25.0 Q58.05 23.9 58.5 25.1 L58.65 25.05 58.55 25.3 59.3 28.35 59.15 29.25 59.85 29.2 59.95 29.6 57.25 30.6 60.1 30.65 63.1 31.25 62.6 31.25 63.35 31.4 63.45 31.4 63.8 31.55 M55.85 37.9 L55.45 37.85 55.25 35.4 Q54.95 33.35 55.0 32.95 L55.0 32.8 Q55.15 32.4 55.55 32.25 L56.2 33.4 56.4 33.65 Q56.15 33.8 56.1 34.45 L56.55 37.4 56.45 37.85 56.4 37.95 56.0 37.95 55.85 37.9 M59.1 34.65 L59.1 34.4 59.0 33.85 58.85 33.05 Q58.6 32.3 58.15 31.95 L58.8 31.7 59.35 31.75 Q59.9 32.05 59.95 33.35 L60.05 36.95 60.05 37.2 60.0 37.25 59.45 37.3 59.3 37.3 59.1 37.25 59.1 34.65" fill="#5c6c6e" fill-rule="evenodd" stroke="none"/>
      <path d="M53.95 22.75 L54.0 22.4 54.05 22.25 54.05 22.1 54.1 21.8 54.2 21.7 54.15 14.05 Q54.2 11.1 53.75 8.9 L53.75 8.35 54.1 7.9 54.5 7.3 Q56.0 6.3 55.95 2.95 L56.05 3.0 57.05 21.35 57.05 21.4 57.0 21.65 56.55 21.65 57.15 21.9 56.95 22.0 55.1 22.5 54.2 22.85 54.1 22.85 53.95 22.75 M57.9 27.35 L58.45 29.15 58.4 29.35 56.4 29.75 55.4 30.0 55.5 29.0 55.2 27.7 54.95 26.7 55.75 26.5 56.45 26.35 57.3 26.0 57.5 26.75 57.9 27.35" fill="#5a5251" fill-rule="evenodd" stroke="none"/>
      <path d="M62.0 25.85 L62.0 26.4 61.9 26.7 62.1 28.4 62.35 29.45 62.3 29.7 62.25 30.05 62.95 30.35 63.4 30.55 63.8 31.5 63.8 31.55 63.45 31.4 63.35 31.4 63.3 31.3 63.1 31.25 60.1 30.65 57.25 30.6 59.95 29.6 59.85 29.2 59.15 29.25 59.3 28.35 58.55 25.3 58.65 25.05 58.7 24.9 Q61.15 24.7 62.0 25.75 L62.0 25.85" fill="#77c1be" fill-opacity="0.99215686" fill-rule="evenodd" stroke="none"/>
      <path d="M55.85 38.0 L55.85 37.9 56.0 37.95 55.85 38.0 M54.5 32.15 L54.2 31.4 54.25 31.35 55.0 31.55 56.25 31.05 58.3 30.9 58.4 31.05 58.45 31.3 59.0 31.25 59.25 31.45 60.6 31.8 59.35 31.75 58.8 31.7 58.45 31.3 56.6 31.15 54.5 32.15 M54.2 26.65 L53.55 25.8 53.15 25.25 Q53.8 24.85 55.15 24.6 L58.75 24.2 Q59.0 24.0 58.9 24.55 L58.7 24.9 58.65 25.05 58.5 25.1 Q58.05 23.9 57.8 25.0 L57.75 25.0 57.2 24.9 55.6 24.8 Q54.5 25.1 54.4 26.0 L54.45 26.55 54.25 26.6 54.2 26.65 M63.1 31.25 L63.3 31.3 63.35 31.4 62.6 31.25 63.1 31.25 M61.4 32.0 L62.65 32.2 62.65 32.4 62.7 32.85 62.7 33.15 Q62.3 32.3 61.4 32.0 M56.2 33.4 L56.9 33.3 57.2 33.4 57.35 33.0 Q57.4 32.45 58.0 32.9 L58.0 33.0 Q57.65 34.2 58.6 34.8 L59.0 34.6 59.05 34.65 59.1 34.65 59.1 37.25 59.3 37.3 57.3 37.65 56.45 37.85 56.55 37.4 56.1 34.45 Q56.15 33.8 56.4 33.65 L56.2 33.4 M59.0 33.85 L58.95 33.75 58.85 33.1 58.85 33.05 59.0 33.85" fill="#525253" fill-rule="evenodd" stroke="none"/>
      <path d="M55.0 32.8 L54.7 32.65 54.5 32.15 56.6 31.15 58.45 31.3 58.8 31.7 58.15 31.95 Q58.6 32.3 58.85 33.05 L58.85 33.1 58.95 33.75 59.0 33.85 59.1 34.4 59.1 34.65 59.05 34.65 59.0 34.6 58.6 34.8 Q57.65 34.2 58.0 33.0 L58.0 32.9 Q57.4 32.45 57.35 33.0 L57.2 33.4 56.9 33.3 56.2 33.4 55.55 32.25 Q55.15 32.4 55.0 32.8 M53.95 22.85 L53.95 22.75 54.1 22.85 53.95 22.85 M54.1 21.8 L53.35 10.25 52.95 5.2 Q53.2 4.7 53.55 4.75 L53.7 4.05 Q55.2 3.35 55.75 1.3 L55.85 2.1 56.0 2.1 56.05 3.0 55.95 2.95 Q56.0 6.3 54.5 7.3 L54.1 7.9 53.75 8.35 53.75 8.9 Q54.2 11.1 54.15 14.05 L54.2 21.7 54.1 21.8 M57.8 25.0 L57.65 25.75 57.9 27.35 57.5 26.75 57.3 26.0 56.45 26.35 55.75 26.5 54.95 26.7 54.85 26.4 54.6 26.45 54.45 26.55 54.4 26.0 Q54.5 25.1 55.6 24.8 L57.2 24.9 57.75 25.0 57.8 25.0" fill="#4d4646" fill-rule="evenodd" stroke="none"/>
      <path d="M62.75 33.45 Q62.65 35.1 62.9 36.7 L63.0 37.4 62.95 37.6 62.7 38.1 62.65 38.05 62.75 37.95 62.65 37.6 62.35 37.5 60.05 37.2 60.05 36.95 59.95 33.35 Q59.9 32.05 59.35 31.75 L60.6 31.8 61.4 32.0 Q62.3 32.3 62.7 33.15 L62.7 33.35 62.7 33.45 62.75 33.45" fill="#72afad" fill-rule="evenodd" stroke="none"/>
      <path d="M63.0 37.4 L63.15 38.15 63.1 38.75 63.1 38.8 62.55 38.9 61.65 39.25 60.45 39.6 59.65 39.9 58.75 39.6 55.9 39.25 55.85 38.0 56.0 37.95 56.4 37.95 56.45 37.85 57.3 37.65 59.3 37.3 59.45 37.3 60.0 37.25 60.05 37.2 62.35 37.5 62.65 37.6 62.75 37.95 62.65 38.05 62.7 38.1 62.95 37.6 63.0 37.4" fill="#494142" fill-rule="evenodd" stroke="none"/>
    </g>
  </defs>
</svg>
