<?xml version="1.0" encoding="UTF-8" standalone="no"?>
<svg xmlns:xlink="http://www.w3.org/1999/xlink" height="38.4px" width="42.85px" xmlns="http://www.w3.org/2000/svg">
  <g transform="matrix(1, 0, 0, 1, 14.75, 17.25)">
    <use height="16.55" transform="matrix(1.0, 0.0, 0.0, 1.0, 8.95, -14.5)" width="16.55" xlink:href="#shape0"/>
    <use height="21.6" transform="matrix(1.0, 0.0, 0.0, 1.0, -14.75, -7.9)" width="35.35" xlink:href="#shape1"/>
  </g>
  <defs>
    <g id="shape0" transform="matrix(1, 0, 0, 1, -8.95, 14.5)">
      <path d="M25.0 -5.55 Q24.75 -3.4 23.6 -1.75 22.45 -0.05 20.6 0.75 18.8 1.7 16.6 1.55 14.45 1.35 12.75 0.15 11.1 -1.0 10.2 -2.85 9.3 -4.65 9.45 -6.8 9.65 -8.95 10.85 -10.65 12.0 -12.3 13.8 -13.25 15.65 -14.15 17.85 -14.0 20.0 -13.75 21.65 -12.6 23.4 -11.45 24.25 -9.65 25.15 -7.8 25.0 -5.55" fill="#c1c1c6" fill-rule="evenodd" stroke="none"/>
      <path d="M25.0 -5.55 Q24.75 -3.4 23.6 -1.75 22.45 -0.05 20.6 0.75 18.8 1.7 16.6 1.55 14.45 1.35 12.75 0.15 11.1 -1.0 10.2 -2.85 9.3 -4.65 9.45 -6.8 9.65 -8.95 10.85 -10.65 12.0 -12.3 13.8 -13.25 15.65 -14.15 17.85 -14.0 20.0 -13.75 21.65 -12.6 23.4 -11.45 24.25 -9.65 25.15 -7.8 25.0 -5.55" fill="none" stroke="#000000" stroke-linecap="round" stroke-linejoin="round" stroke-width="1.0"/>
      <path d="M9.9 -6.8 Q10.05 -8.25 10.7 -9.5 11.3 -10.75 12.3 -11.65 L12.35 -11.65 Q11.25 -9.6 11.35 -7.65 11.45 -5.75 12.7 -4.2 13.95 -2.65 16.05 -1.85 19.3 -1.15 22.55 -1.7 L22.65 -1.15 Q21.45 0.0 19.95 0.65 18.4 1.25 16.65 1.1 14.6 0.9 13.05 -0.2 11.5 -1.3 10.65 -3.05 9.75 -4.75 9.9 -6.8" fill="#b6b6b7" fill-rule="evenodd" stroke="none"/>
      <path d="M17.8 -13.55 Q19.85 -13.35 21.4 -12.25 22.95 -11.15 23.85 -9.4 24.7 -7.7 24.55 -5.65 24.4 -4.1 23.7 -2.8 23.3 -5.5 21.7 -7.6 20.2 -9.65 17.9 -10.85 15.65 -12.05 12.95 -12.2 15.05 -13.7 17.8 -13.55" fill="#d6d6d8" fill-rule="evenodd" stroke="none"/>
      <path d="M11.55 -6.7 Q11.8 -9.1 13.55 -10.55 15.3 -12.05 17.7 -11.9 20.1 -11.65 21.55 -9.9 23.05 -8.15 22.9 -5.75 22.65 -3.35 20.9 -1.9 19.15 -0.4 16.75 -0.55 14.35 -0.8 12.9 -2.55 11.4 -4.3 11.55 -6.7" fill="#d8d8d8" fill-rule="evenodd" stroke="none"/>
      <path d="M17.7 -11.5 Q19.75 -11.3 21.1 -9.85 22.4 -8.45 22.5 -6.5 21.5 -8.2 20.05 -9.5 18.55 -10.75 16.65 -11.45 L17.7 -11.5" fill="#e3e3e5" fill-rule="evenodd" stroke="none"/>
      <path d="M16.1 -1.9 L19.5 -1.45 Q18.3 -0.85 16.85 -0.95 15.05 -1.15 13.75 -2.3 12.5 -3.45 12.1 -5.15 13.3 -2.95 16.1 -1.9" fill="#bbbbbc" fill-rule="evenodd" stroke="none"/>
    </g>
    <g id="shape1" transform="matrix(1, 0, 0, 1, 14.75, 7.9)">
      <path d="M9.65 1.2 L8.7 -0.15 17.1 -6.55 18.05 -5.25 9.65 1.2" fill="#6d6d70" fill-rule="evenodd" stroke="none"/>
      <path d="M9.65 1.2 L8.7 -0.15 17.1 -6.55 18.05 -5.25 9.65 1.2" fill="none" stroke="#000000" stroke-linecap="round" stroke-linejoin="round" stroke-width="1.0"/>
      <path d="M9.8 0.65 L9.7 0.5 13.55 -2.45 17.4 -5.45 17.5 -5.3 16.1 -4.25 13.65 -2.3 11.15 -0.4 9.8 0.65" fill="#7b7b7c" fill-rule="evenodd" stroke="none"/>
      <path d="M17.25 -5.65 L13.4 -2.7 9.45 0.2 9.35 0.0 10.7 -1.05 13.15 -2.95 15.65 -4.85 17.0 -5.9 17.25 -5.65" fill="#59595b" fill-rule="evenodd" stroke="none"/>
      <path d="M10.05 2.95 L9.25 3.2 Q8.85 3.15 8.55 2.85 L6.85 0.55 Q6.6 0.2 6.7 -0.2 L7.15 -0.9 7.9 -1.1 Q8.35 -1.15 8.6 -0.75 L10.35 1.5 Q10.6 1.85 10.5 2.25 L10.05 2.95" fill="#6d6d70" fill-rule="evenodd" stroke="none"/>
      <path d="M10.05 2.95 L9.25 3.2 Q8.85 3.15 8.55 2.85 L6.85 0.55 Q6.6 0.2 6.7 -0.2 L7.15 -0.9 7.9 -1.1 Q8.35 -1.15 8.6 -0.75 L10.35 1.5 Q10.6 1.85 10.5 2.25 L10.05 2.95" fill="none" stroke="#000000" stroke-linecap="round" stroke-linejoin="round" stroke-width="1.0"/>
      <path d="M8.35 -0.4 Q7.85 0.45 7.9 1.25 L7.2 0.35 7.1 -0.05 7.4 -0.5 7.9 -0.65 8.3 -0.5 8.35 -0.4" fill="#59595b" fill-rule="evenodd" stroke="none"/>
      <path d="M8.95 2.55 L8.85 2.4 Q9.25 1.55 9.15 0.6 L10.0 1.7 10.05 2.1 9.85 2.55 9.4 2.75 Q9.1 2.7 8.95 2.55" fill="#7b7b7c" fill-rule="evenodd" stroke="none"/>
      <path d="M17.55 -3.7 L16.1 -3.9 Q15.45 -4.25 15.2 -4.95 15.0 -5.75 15.35 -6.4 15.7 -7.05 16.45 -7.35 L17.9 -7.15 Q18.55 -6.8 18.8 -6.05 19.05 -5.25 18.65 -4.6 18.35 -3.95 17.55 -3.7" fill="#6d6d70" fill-rule="evenodd" stroke="none"/>
      <path d="M17.55 -3.7 L16.1 -3.9 Q15.45 -4.25 15.2 -4.95 15.0 -5.75 15.35 -6.4 15.7 -7.05 16.45 -7.35 L17.9 -7.15 Q18.55 -6.8 18.8 -6.05 19.05 -5.25 18.65 -4.6 18.35 -3.95 17.55 -3.7" fill="none" stroke="#000000" stroke-linecap="round" stroke-linejoin="round" stroke-width="1.0"/>
      <path d="M17.1 -4.0 Q17.7 -4.45 17.95 -5.15 18.2 -5.75 17.9 -6.55 L18.35 -5.85 Q18.55 -5.3 18.25 -4.75 18.0 -4.25 17.4 -4.05 L17.1 -4.0" fill="#7b7b7c" fill-rule="evenodd" stroke="none"/>
      <path d="M17.25 -6.95 Q16.55 -6.2 16.5 -5.5 16.45 -4.7 16.85 -4.05 15.95 -4.2 15.6 -5.05 15.45 -5.65 15.75 -6.2 15.95 -6.7 16.55 -6.9 L17.25 -6.95" fill="#59595b" fill-rule="evenodd" stroke="none"/>
      <path d="M-6.45 -5.8 Q-2.95 -5.75 -1.9 -4.95 L1.1 -3.35 Q3.1 -2.55 5.95 -2.4 L10.85 -2.8 15.35 -3.8 Q17.35 -4.4 18.1 -4.75 L18.6 -4.75 Q19.05 -4.75 19.4 -4.3 19.75 -3.9 19.45 -2.8 L18.6 -0.7 16.5 3.0 13.1 7.15 Q11.1 9.2 8.45 10.75 5.75 12.2 2.45 12.6 -0.95 12.95 -4.95 11.7 -9.0 10.35 -13.75 6.9 -9.95 -5.9 -6.45 -5.8" fill="#666666" fill-rule="evenodd" stroke="none"/>
      <path d="M-6.45 -5.8 Q-2.95 -5.75 -1.9 -4.95 L1.1 -3.35 Q3.1 -2.55 5.95 -2.4 L10.85 -2.8 15.35 -3.8 Q17.35 -4.4 18.1 -4.75 L18.6 -4.75 Q19.05 -4.75 19.4 -4.3 19.75 -3.9 19.45 -2.8 L18.6 -0.7 16.5 3.0 13.1 7.15 Q11.1 9.2 8.45 10.75 5.75 12.2 2.45 12.6 -0.95 12.95 -4.95 11.7 -9.0 10.35 -13.75 6.9" fill="none" stroke="#000000" stroke-linecap="round" stroke-linejoin="round" stroke-width="2.0"/>
      <path d="M-12.5 -0.4 L-11.55 -1.75 -10.6 -2.7 Q-10.2 -3.0 -10.0 -2.5 L-8.75 1.6 Q-8.0 3.75 -6.3 5.55 -4.65 7.3 -1.4 8.35 L-1.35 8.3 5.65 7.75 13.6 5.9 Q10.45 9.25 6.85 10.65 3.25 12.0 -0.45 11.7 -4.25 11.45 -7.8 9.8 -11.45 8.2 -14.6 5.55 -14.15 4.7 -14.05 3.85 L-13.85 2.15 Q-13.7 1.25 -13.05 0.4 L-12.5 -0.4" fill="#333333" fill-rule="evenodd" stroke="none"/>
      <path d="M6.6 -1.0 L2.7 -1.4 Q1.1 -1.85 0.15 -2.4 L-1.55 -3.6 -3.0 -4.95 -1.45 -3.95 Q-0.25 -3.25 1.6 -2.7 L5.8 -2.05 10.6 -2.45 Q13.05 -2.85 15.15 -3.4 L18.05 -4.35 18.5 -4.4 18.95 -4.15 19.1 -3.55 19.05 -2.85 18.8 -2.4 17.6 0.05 15.2 3.75 11.55 7.6 Q9.45 9.45 6.75 10.65 4.1 11.9 0.9 12.05 1.95 11.95 3.55 11.15 5.25 10.3 7.2 8.9 L10.9 5.9 13.85 2.65 Q15.05 1.0 15.3 -0.3 15.35 -1.0 14.05 -1.1 L10.75 -1.1 6.6 -1.0" fill="#999999" fill-rule="evenodd" stroke="none"/>
    </g>
  </defs>
</svg>
