<?xml version="1.0" encoding="UTF-8" standalone="no"?>
<svg xmlns:xlink="http://www.w3.org/1999/xlink" height="38.4px" width="42.85px" xmlns="http://www.w3.org/2000/svg">
  <g transform="matrix(1, 0, 0, 1, 14.75, 17.25)">
    <use height="16.55" transform="matrix(1.0, 0.0, 0.0, 1.0, 8.95, -14.5)" width="16.55" xlink:href="#shape0"/>
    <use height="28.3" transform="matrix(1.0, 0.0, 0.0, 1.0, -13.55, -17.25)" width="33.7" xlink:href="#shape1"/>
  </g>
  <defs>
    <g id="shape0" transform="matrix(1, 0, 0, 1, -8.95, 14.5)">
      <path d="M25.0 -5.55 Q24.75 -3.4 23.6 -1.75 22.45 -0.05 20.6 0.75 18.8 1.7 16.6 1.55 14.45 1.35 12.75 0.15 11.1 -1.0 10.2 -2.85 9.3 -4.65 9.45 -6.8 9.65 -8.95 10.85 -10.65 12.0 -12.3 13.8 -13.25 15.65 -14.15 17.85 -14.0 20.0 -13.75 21.65 -12.6 23.4 -11.45 24.25 -9.65 25.15 -7.8 25.0 -5.55" fill="#c1c1c6" fill-rule="evenodd" stroke="none"/>
      <path d="M25.0 -5.55 Q24.75 -3.4 23.6 -1.75 22.45 -0.05 20.6 0.75 18.8 1.7 16.6 1.55 14.45 1.35 12.75 0.15 11.1 -1.0 10.2 -2.85 9.3 -4.65 9.45 -6.8 9.65 -8.95 10.85 -10.65 12.0 -12.3 13.8 -13.25 15.65 -14.15 17.85 -14.0 20.0 -13.75 21.65 -12.6 23.4 -11.45 24.25 -9.65 25.15 -7.8 25.0 -5.55" fill="none" stroke="#000000" stroke-linecap="round" stroke-linejoin="round" stroke-width="1.0"/>
      <path d="M9.9 -6.8 Q10.05 -8.25 10.7 -9.5 11.3 -10.75 12.3 -11.65 L12.35 -11.65 Q11.25 -9.6 11.35 -7.65 11.45 -5.75 12.7 -4.2 13.95 -2.65 16.05 -1.85 19.3 -1.15 22.55 -1.7 L22.65 -1.15 Q21.45 0.0 19.95 0.65 18.4 1.25 16.65 1.1 14.6 0.9 13.05 -0.2 11.5 -1.3 10.65 -3.05 9.75 -4.75 9.9 -6.8" fill="#b6b6b7" fill-rule="evenodd" stroke="none"/>
      <path d="M17.8 -13.55 Q19.85 -13.35 21.4 -12.25 22.95 -11.15 23.85 -9.4 24.7 -7.7 24.55 -5.65 24.4 -4.1 23.7 -2.8 23.3 -5.5 21.7 -7.6 20.2 -9.65 17.9 -10.85 15.65 -12.05 12.95 -12.2 15.05 -13.7 17.8 -13.55" fill="#d6d6d8" fill-rule="evenodd" stroke="none"/>
      <path d="M11.55 -6.7 Q11.8 -9.1 13.55 -10.55 15.3 -12.05 17.7 -11.9 20.1 -11.65 21.55 -9.9 23.05 -8.15 22.9 -5.75 22.65 -3.35 20.9 -1.9 19.15 -0.4 16.75 -0.55 14.35 -0.8 12.9 -2.55 11.4 -4.3 11.55 -6.7" fill="#d8d8d8" fill-rule="evenodd" stroke="none"/>
      <path d="M17.7 -11.5 Q19.75 -11.3 21.1 -9.85 22.4 -8.45 22.5 -6.5 21.5 -8.2 20.05 -9.5 18.55 -10.75 16.65 -11.45 L17.7 -11.5" fill="#e3e3e5" fill-rule="evenodd" stroke="none"/>
      <path d="M16.1 -1.9 L19.5 -1.45 Q18.3 -0.85 16.85 -0.95 15.05 -1.15 13.75 -2.3 12.5 -3.45 12.1 -5.15 13.3 -2.95 16.1 -1.9" fill="#bbbbbc" fill-rule="evenodd" stroke="none"/>
    </g>
    <g id="shape1" transform="matrix(1, 0, 0, 1, 13.55, 17.25)">
      <path d="M10.6 -13.5 L11.85 -14.55 18.85 -6.7 17.6 -5.6 10.6 -13.5" fill="#6d6d70" fill-rule="evenodd" stroke="none"/>
      <path d="M10.6 -13.5 L11.85 -14.55 18.85 -6.7 17.6 -5.6 10.6 -13.5" fill="none" stroke="#000000" stroke-linecap="round" stroke-linejoin="round" stroke-width="1.0"/>
      <path d="M11.2 -13.5 L11.35 -13.6 14.5 -9.9 17.8 -6.3 17.65 -6.2 16.5 -7.5 14.4 -9.85 12.35 -12.2 11.2 -13.5" fill="#7b7b7c" fill-rule="evenodd" stroke="none"/>
      <path d="M17.9 -6.45 L14.75 -10.05 11.6 -13.85 11.7 -13.95 12.85 -12.65 14.95 -10.35 17.0 -8.0 18.15 -6.7 17.9 -6.45" fill="#59595b" fill-rule="evenodd" stroke="none"/>
      <path d="M8.8 -12.95 L8.55 -13.75 Q8.55 -14.15 8.85 -14.45 L11.05 -16.3 Q11.35 -16.6 11.75 -16.55 L12.45 -16.15 12.75 -15.4 12.5 -14.65 10.3 -12.8 Q9.95 -12.5 9.55 -12.6 9.15 -12.6 8.8 -12.95" fill="#6d6d70" fill-rule="evenodd" stroke="none"/>
      <path d="M8.8 -12.95 L8.55 -13.75 Q8.55 -14.15 8.85 -14.45 L11.05 -16.3 Q11.35 -16.6 11.75 -16.55 L12.45 -16.15 12.75 -15.4 12.5 -14.65 10.3 -12.8 Q9.95 -12.5 9.55 -12.6 9.15 -12.6 8.8 -12.95" fill="none" stroke="#000000" stroke-linecap="round" stroke-linejoin="round" stroke-width="1.0"/>
      <path d="M12.05 -14.95 L10.45 -15.25 11.25 -16.0 11.65 -16.1 12.15 -15.85 12.35 -15.35 12.15 -14.95 12.05 -14.95" fill="#59595b" fill-rule="evenodd" stroke="none"/>
      <path d="M9.2 -14.15 L9.35 -14.2 11.15 -14.05 10.1 -13.1 9.75 -13.0 Q9.45 -13.0 9.25 -13.25 L9.05 -13.65 9.2 -14.15" fill="#7b7b7c" fill-rule="evenodd" stroke="none"/>
      <path d="M16.0 -6.0 Q15.8 -6.8 16.05 -7.5 16.35 -8.15 17.1 -8.45 17.85 -8.7 18.55 -8.45 L19.55 -7.4 Q19.8 -6.65 19.5 -5.95 19.2 -5.25 18.45 -4.95 L17.0 -5.0 Q16.35 -5.25 16.0 -6.0" fill="#6d6d70" fill-rule="evenodd" stroke="none"/>
      <path d="M16.0 -6.0 Q15.8 -6.8 16.05 -7.5 16.35 -8.15 17.1 -8.45 17.85 -8.7 18.55 -8.45 L19.55 -7.4 Q19.8 -6.65 19.5 -5.95 19.2 -5.25 18.45 -4.95 L17.0 -5.0 Q16.35 -5.25 16.0 -6.0" fill="none" stroke="#000000" stroke-linecap="round" stroke-linejoin="round" stroke-width="1.0"/>
      <path d="M16.2 -6.45 Q16.75 -5.95 17.45 -5.75 L18.8 -5.85 18.2 -5.35 17.05 -5.4 Q16.55 -5.6 16.3 -6.2 L16.2 -6.45" fill="#7b7b7c" fill-rule="evenodd" stroke="none"/>
      <path d="M19.15 -6.55 Q18.35 -7.2 17.65 -7.25 L16.25 -6.75 Q16.3 -7.65 17.2 -8.05 L18.35 -8.0 Q18.8 -7.8 19.05 -7.2 L19.15 -6.55" fill="#59595b" fill-rule="evenodd" stroke="none"/>
      <path d="M-7.6 -6.65 L-6.3 -6.4 -2.9 -6.5 Q-0.75 -6.75 1.75 -8.0 3.85 -9.1 5.85 -10.7 L9.35 -13.75 11.3 -15.85 11.7 -16.1 Q12.1 -16.35 12.65 -16.1 13.15 -15.95 13.4 -14.85 L13.65 -12.55 13.6 -8.3 Q13.4 -5.85 12.65 -3.05 11.9 -0.3 10.3 2.35 8.7 4.9 5.95 6.85 3.2 8.75 -0.95 9.6 -5.15 10.4 -10.95 9.7 -15.0 -4.85 -7.6 -6.65" fill="#666666" fill-rule="evenodd" stroke="none"/>
      <path d="M-7.6 -6.65 L-6.3 -6.4 -2.9 -6.5 Q-0.75 -6.75 1.75 -8.0 3.85 -9.1 5.85 -10.7 L9.35 -13.75 11.3 -15.85 11.7 -16.1 Q12.1 -16.35 12.65 -16.1 13.15 -15.95 13.4 -14.85 L13.65 -12.55 13.6 -8.3 Q13.4 -5.85 12.65 -3.05 11.9 -0.3 10.3 2.35 8.7 4.9 5.95 6.85 3.2 8.75 -0.95 9.6 -5.15 10.4 -10.95 9.7" fill="none" stroke="#000000" stroke-linecap="round" stroke-linejoin="round" stroke-width="2.0"/>
      <path d="M-12.85 -0.3 Q-12.65 -0.8 -12.25 -0.4 L-9.15 2.55 Q-7.45 4.05 -5.1 4.8 -2.85 5.55 0.5 4.9 L0.55 4.85 Q3.25 3.4 6.4 1.0 9.5 -1.45 12.45 -4.45 11.3 0.0 8.85 2.95 6.35 5.85 2.95 7.4 -0.45 8.95 -4.4 9.3 L-12.35 8.8 Q-12.4 7.85 -12.7 7.1 L-13.35 5.5 Q-13.65 4.65 -13.45 3.55 L-13.4 2.6 -13.25 1.0 -12.85 -0.3" fill="#333333" fill-rule="evenodd" stroke="none"/>
      <path d="M12.25 -15.8 L12.7 -15.35 12.95 -14.7 13.0 -14.2 13.1 -11.45 12.75 -7.1 Q12.4 -4.65 11.45 -2.0 10.5 0.65 8.7 3.05 7.0 5.35 4.25 7.05 L6.15 5.0 8.25 1.3 10.05 -3.15 11.1 -7.4 Q11.35 -9.45 10.95 -10.65 L9.45 -10.75 Q8.25 -10.25 6.55 -9.2 L2.95 -7.1 Q1.05 -6.05 -0.65 -5.55 L-3.35 -5.2 -5.4 -5.45 -7.35 -5.95 -5.45 -5.8 -2.2 -6.15 Q-0.35 -6.55 1.8 -7.6 3.75 -8.7 5.75 -10.25 L9.3 -13.3 11.4 -15.55 11.75 -15.8 12.25 -15.8" fill="#999999" fill-rule="evenodd" stroke="none"/>
    </g>
  </defs>
</svg>
