<?xml version="1.0" encoding="UTF-8" standalone="no"?>
<svg xmlns:xlink="http://www.w3.org/1999/xlink" height="38.4px" width="42.85px" xmlns="http://www.w3.org/2000/svg">
  <g transform="matrix(1, 0, 0, 1, 14.75, 17.25)">
    <use height="16.55" transform="matrix(1.0, 0.0, 0.0, 1.0, 8.95, -14.5)" width="16.55" xlink:href="#shape0"/>
    <use height="28.3" transform="matrix(1.0, 0.0, 0.0, 1.0, -9.55, -16.55)" width="37.65" xlink:href="#shape1"/>
  </g>
  <defs>
    <g id="shape0" transform="matrix(1, 0, 0, 1, -8.95, 14.5)">
      <path d="M25.0 -5.55 Q24.75 -3.4 23.6 -1.75 22.45 -0.05 20.6 0.75 18.8 1.7 16.6 1.55 14.45 1.35 12.75 0.15 11.1 -1.0 10.2 -2.85 9.3 -4.65 9.45 -6.8 9.65 -8.95 10.85 -10.65 12.0 -12.3 13.8 -13.25 15.65 -14.15 17.85 -14.0 20.0 -13.75 21.65 -12.6 23.4 -11.45 24.25 -9.65 25.15 -7.8 25.0 -5.55" fill="#c1c1c6" fill-rule="evenodd" stroke="none"/>
      <path d="M25.0 -5.55 Q24.75 -3.4 23.6 -1.75 22.45 -0.05 20.6 0.75 18.8 1.7 16.6 1.55 14.45 1.35 12.75 0.15 11.1 -1.0 10.2 -2.85 9.3 -4.65 9.45 -6.8 9.65 -8.95 10.85 -10.65 12.0 -12.3 13.8 -13.25 15.65 -14.15 17.85 -14.0 20.0 -13.75 21.65 -12.6 23.4 -11.45 24.25 -9.65 25.15 -7.8 25.0 -5.55" fill="none" stroke="#000000" stroke-linecap="round" stroke-linejoin="round" stroke-width="1.0"/>
      <path d="M9.9 -6.8 Q10.05 -8.25 10.7 -9.5 11.3 -10.75 12.3 -11.65 L12.35 -11.65 Q11.25 -9.6 11.35 -7.65 11.45 -5.75 12.7 -4.2 13.95 -2.65 16.05 -1.85 19.3 -1.15 22.55 -1.7 L22.65 -1.15 Q21.45 0.0 19.95 0.65 18.4 1.25 16.65 1.1 14.6 0.9 13.05 -0.2 11.5 -1.3 10.65 -3.05 9.75 -4.75 9.9 -6.8" fill="#b6b6b7" fill-rule="evenodd" stroke="none"/>
      <path d="M17.8 -13.55 Q19.85 -13.35 21.4 -12.25 22.95 -11.15 23.85 -9.4 24.7 -7.7 24.55 -5.65 24.4 -4.1 23.7 -2.8 23.3 -5.5 21.7 -7.6 20.2 -9.65 17.9 -10.85 15.65 -12.05 12.95 -12.2 15.05 -13.7 17.8 -13.55" fill="#d6d6d8" fill-rule="evenodd" stroke="none"/>
      <path d="M11.55 -6.7 Q11.8 -9.1 13.55 -10.55 15.3 -12.05 17.7 -11.9 20.1 -11.65 21.55 -9.9 23.05 -8.15 22.9 -5.75 22.65 -3.35 20.9 -1.9 19.15 -0.4 16.75 -0.55 14.35 -0.8 12.9 -2.55 11.4 -4.3 11.55 -6.7" fill="#d8d8d8" fill-rule="evenodd" stroke="none"/>
      <path d="M17.7 -11.5 Q19.75 -11.3 21.1 -9.85 22.4 -8.45 22.5 -6.5 21.5 -8.2 20.05 -9.5 18.55 -10.75 16.65 -11.45 L17.7 -11.5" fill="#e3e3e5" fill-rule="evenodd" stroke="none"/>
      <path d="M16.1 -1.9 L19.5 -1.45 Q18.3 -0.85 16.85 -0.95 15.05 -1.15 13.75 -2.3 12.5 -3.45 12.1 -5.15 13.3 -2.95 16.1 -1.9" fill="#bbbbbc" fill-rule="evenodd" stroke="none"/>
    </g>
    <g id="shape1" transform="matrix(1, 0, 0, 1, 9.55, 16.55)">
      <path d="M24.45 -13.8 L25.6 -12.65 17.95 -5.35 16.8 -6.5 24.45 -13.8" fill="#6d6d70" fill-rule="evenodd" stroke="none"/>
      <path d="M24.45 -13.8 L25.6 -12.65 17.95 -5.35 16.8 -6.5 24.45 -13.8" fill="none" stroke="#000000" stroke-linecap="round" stroke-linejoin="round" stroke-width="1.0"/>
      <path d="M24.5 -13.25 L24.6 -13.1 21.05 -9.8 17.55 -6.45 17.45 -6.55 18.7 -7.75 20.95 -9.9 23.25 -12.05 24.5 -13.25" fill="#7b7b7c" fill-rule="evenodd" stroke="none"/>
      <path d="M17.7 -6.3 L21.15 -9.55 24.85 -12.85 24.9 -12.75 23.7 -11.55 21.45 -9.4 19.15 -7.25 17.95 -6.05 17.7 -6.3" fill="#59595b" fill-rule="evenodd" stroke="none"/>
      <path d="M23.9 -15.55 Q24.25 -15.9 24.7 -15.9 L25.4 -15.65 27.3 -13.5 27.6 -12.8 27.2 -12.05 Q26.9 -11.75 26.45 -11.75 26.05 -11.7 25.75 -12.0 L23.8 -14.1 Q23.5 -14.45 23.55 -14.85 23.55 -15.25 23.9 -15.55" fill="#6d6d70" fill-rule="evenodd" stroke="none"/>
      <path d="M23.9 -15.55 Q24.25 -15.9 24.7 -15.9 L25.4 -15.65 27.3 -13.5 27.6 -12.8 27.2 -12.05 Q26.9 -11.75 26.45 -11.75 26.05 -11.7 25.75 -12.0 L23.8 -14.1 Q23.5 -14.45 23.55 -14.85 23.55 -15.25 23.9 -15.55" fill="none" stroke="#000000" stroke-linecap="round" stroke-linejoin="round" stroke-width="1.0"/>
      <path d="M25.95 -12.4 Q26.35 -13.3 26.2 -14.05 L27.0 -13.25 27.1 -12.9 26.9 -12.4 Q26.7 -12.2 26.4 -12.2 26.15 -12.2 26.0 -12.35 L25.95 -12.4" fill="#59595b" fill-rule="evenodd" stroke="none"/>
      <path d="M25.0 -15.25 L25.1 -15.15 Q24.85 -14.2 25.05 -13.3 L24.05 -14.3 23.95 -14.7 24.15 -15.2 Q24.4 -15.4 24.6 -15.4 L25.0 -15.25" fill="#7b7b7c" fill-rule="evenodd" stroke="none"/>
      <path d="M17.15 -8.15 Q17.9 -8.4 18.6 -8.15 19.3 -7.85 19.6 -7.15 19.9 -6.4 19.65 -5.75 19.35 -5.0 18.65 -4.7 17.9 -4.4 17.2 -4.7 16.5 -5.0 16.2 -5.7 15.9 -6.4 16.15 -7.1 16.4 -7.8 17.15 -8.15" fill="#6d6d70" fill-rule="evenodd" stroke="none"/>
      <path d="M17.15 -8.15 Q17.9 -8.4 18.6 -8.15 19.3 -7.85 19.6 -7.15 19.9 -6.4 19.65 -5.75 19.35 -5.0 18.65 -4.7 17.9 -4.4 17.2 -4.7 16.5 -5.0 16.2 -5.7 15.9 -6.4 16.15 -7.1 16.4 -7.8 17.15 -8.15" fill="none" stroke="#000000" stroke-linecap="round" stroke-linejoin="round" stroke-width="1.0"/>
      <path d="M17.65 -7.95 Q17.15 -7.4 17.0 -6.75 16.8 -6.1 17.15 -5.35 L16.6 -5.95 Q16.4 -6.5 16.6 -7.1 16.8 -7.6 17.35 -7.85 L17.65 -7.95" fill="#7b7b7c" fill-rule="evenodd" stroke="none"/>
      <path d="M17.85 -5.0 Q18.5 -5.85 18.45 -6.55 18.4 -7.25 17.95 -7.9 18.85 -7.85 19.3 -7.05 19.5 -6.45 19.3 -5.9 L18.5 -5.1 17.85 -5.0" fill="#59595b" fill-rule="evenodd" stroke="none"/>
      <path d="M-3.25 -8.35 Q3.5 -5.9 4.95 -5.7 6.35 -5.5 8.55 -5.75 10.75 -6.05 13.3 -7.3 15.4 -8.4 17.4 -10.0 L20.9 -13.05 22.85 -15.15 23.25 -15.4 Q23.65 -15.65 24.2 -15.4 24.7 -15.25 24.95 -14.15 L25.2 -11.85 25.15 -7.6 Q24.95 -5.15 24.2 -2.35 23.45 0.4 21.85 3.05 20.25 5.6 17.5 7.55 14.75 9.45 10.6 10.3 6.4 11.1 0.6 10.4 -10.0 -10.8 -3.25 -8.35" fill="#666666" fill-rule="evenodd" stroke="none"/>
      <path d="M-3.25 -8.35 Q3.5 -5.9 4.95 -5.7 6.35 -5.5 8.55 -5.75 10.75 -6.05 13.3 -7.3 15.4 -8.4 17.4 -10.0 L20.9 -13.05 22.85 -15.15 23.25 -15.4 Q23.65 -15.65 24.2 -15.4 24.7 -15.25 24.95 -14.15 L25.2 -11.85 25.15 -7.6 Q24.95 -5.15 24.2 -2.35 23.45 0.4 21.85 3.05 20.25 5.6 17.5 7.55 14.75 9.45 10.6 10.3 6.4 11.1 0.6 10.4" fill="none" stroke="#000000" stroke-linecap="round" stroke-linejoin="round" stroke-width="2.0"/>
      <path d="M-7.55 -0.3 L-5.9 -0.8 Q-4.0 -0.35 -3.05 0.55 L-2.35 0.4 -1.45 0.65 -1.3 0.4 Q-1.1 -0.1 -0.7 0.3 L2.4 3.25 Q4.1 4.75 6.45 5.5 8.7 6.25 12.05 5.6 L12.1 5.55 Q14.8 4.1 17.95 1.7 21.05 -0.75 24.0 -3.75 22.85 0.7 20.4 3.65 17.9 6.55 14.5 8.1 11.1 9.65 7.15 10.0 3.25 10.3 -9.05 8.35 L-4.5 8.4 -4.55 8.35 -4.95 8.35 Q-8.95 8.55 -9.2 5.05 -9.65 4.05 -9.55 2.55 -9.45 0.5 -7.55 -0.3" fill="#333333" fill-rule="evenodd" stroke="none"/>
      <path d="M8.2 -4.5 L6.15 -4.75 4.2 -5.25 6.1 -5.1 9.35 -5.45 Q11.2 -5.85 13.35 -6.9 L17.3 -9.55 20.85 -12.6 22.95 -14.85 23.3 -15.1 23.8 -15.1 24.25 -14.65 24.5 -14.0 24.55 -13.5 24.65 -10.75 24.3 -6.4 Q23.95 -3.95 23.0 -1.3 22.05 1.35 20.25 3.75 18.55 6.05 15.8 7.75 L17.7 5.7 19.8 2.0 21.6 -2.45 22.65 -6.7 Q22.9 -8.75 22.5 -9.95 L21.0 -10.05 18.1 -8.5 14.5 -6.4 Q12.6 -5.35 10.9 -4.85 L8.2 -4.5" fill="#999999" fill-rule="evenodd" stroke="none"/>
    </g>
  </defs>
</svg>
