<?xml version="1.0" encoding="UTF-8" standalone="no"?>
<svg xmlns:xlink="http://www.w3.org/1999/xlink" height="38.4px" width="42.85px" xmlns="http://www.w3.org/2000/svg">
  <g transform="matrix(1, 0, 0, 1, 14.75, 17.25)">
    <use height="16.55" transform="matrix(1.0, 0.0, 0.0, 1.0, 8.95, -14.5)" width="16.55" xlink:href="#shape0"/>
    <use height="26.4" transform="matrix(1.0, 0.0, 0.0, 1.0, -10.0, -5.25)" width="37.5" xlink:href="#shape1"/>
  </g>
  <defs>
    <g id="shape0" transform="matrix(1, 0, 0, 1, -8.95, 14.5)">
      <path d="M25.0 -5.55 Q24.75 -3.4 23.6 -1.75 22.45 -0.05 20.6 0.75 18.8 1.7 16.6 1.55 14.45 1.35 12.75 0.15 11.1 -1.0 10.2 -2.85 9.3 -4.65 9.45 -6.8 9.65 -8.95 10.85 -10.65 12.0 -12.3 13.8 -13.25 15.65 -14.15 17.85 -14.0 20.0 -13.75 21.65 -12.6 23.4 -11.45 24.25 -9.65 25.15 -7.8 25.0 -5.55" fill="#c1c1c6" fill-rule="evenodd" stroke="none"/>
      <path d="M25.0 -5.55 Q24.75 -3.4 23.6 -1.75 22.45 -0.05 20.6 0.75 18.8 1.7 16.6 1.55 14.45 1.35 12.75 0.15 11.1 -1.0 10.2 -2.85 9.3 -4.65 9.45 -6.8 9.65 -8.95 10.85 -10.65 12.0 -12.3 13.8 -13.25 15.65 -14.15 17.85 -14.0 20.0 -13.75 21.65 -12.6 23.4 -11.45 24.25 -9.65 25.15 -7.8 25.0 -5.55" fill="none" stroke="#000000" stroke-linecap="round" stroke-linejoin="round" stroke-width="1.0"/>
      <path d="M9.9 -6.8 Q10.05 -8.25 10.7 -9.5 11.3 -10.75 12.3 -11.65 L12.35 -11.65 Q11.25 -9.6 11.35 -7.65 11.45 -5.75 12.7 -4.2 13.95 -2.65 16.05 -1.85 19.3 -1.15 22.55 -1.7 L22.65 -1.15 Q21.45 0.0 19.95 0.65 18.4 1.25 16.65 1.1 14.6 0.9 13.05 -0.2 11.5 -1.3 10.65 -3.05 9.75 -4.75 9.9 -6.8" fill="#b6b6b7" fill-rule="evenodd" stroke="none"/>
      <path d="M17.8 -13.55 Q19.85 -13.35 21.4 -12.25 22.95 -11.15 23.85 -9.4 24.7 -7.7 24.55 -5.65 24.4 -4.1 23.7 -2.8 23.3 -5.5 21.7 -7.6 20.2 -9.65 17.9 -10.85 15.65 -12.05 12.95 -12.2 15.05 -13.7 17.8 -13.55" fill="#d6d6d8" fill-rule="evenodd" stroke="none"/>
      <path d="M11.55 -6.7 Q11.8 -9.1 13.55 -10.55 15.3 -12.05 17.7 -11.9 20.1 -11.65 21.55 -9.9 23.05 -8.15 22.9 -5.75 22.65 -3.35 20.9 -1.9 19.15 -0.4 16.75 -0.55 14.35 -0.8 12.9 -2.55 11.4 -4.3 11.55 -6.7" fill="#d8d8d8" fill-rule="evenodd" stroke="none"/>
      <path d="M17.7 -11.5 Q19.75 -11.3 21.1 -9.85 22.4 -8.45 22.5 -6.5 21.5 -8.2 20.05 -9.5 18.55 -10.75 16.65 -11.45 L17.7 -11.5" fill="#e3e3e5" fill-rule="evenodd" stroke="none"/>
      <path d="M16.1 -1.9 L19.5 -1.45 Q18.3 -0.85 16.85 -0.95 15.05 -1.15 13.75 -2.3 12.5 -3.45 12.1 -5.15 13.3 -2.95 16.1 -1.9" fill="#bbbbbc" fill-rule="evenodd" stroke="none"/>
    </g>
    <g id="shape1" transform="matrix(1, 0, 0, 1, 10.0, 5.25)">
      <path d="M25.0 4.25 L23.75 5.3 17.2 -3.0 18.45 -3.95 25.0 4.25" fill="#6d6d70" fill-rule="evenodd" stroke="none"/>
      <path d="M25.0 4.25 L23.75 5.3 17.2 -3.0 18.45 -3.95 25.0 4.25" fill="none" stroke="#000000" stroke-linecap="round" stroke-linejoin="round" stroke-width="1.0"/>
      <path d="M24.4 4.3 L24.3 4.4 21.35 0.55 18.25 -3.25 18.4 -3.35 19.45 -2.0 21.4 0.5 23.35 2.9 24.4 4.3" fill="#7b7b7c" fill-rule="evenodd" stroke="none"/>
      <path d="M18.1 -3.15 L21.05 0.6 24.0 4.6 23.85 4.7 22.8 3.3 20.85 0.9 18.9 -1.6 17.85 -2.9 18.1 -3.15" fill="#59595b" fill-rule="evenodd" stroke="none"/>
      <path d="M26.8 3.95 L27.0 4.75 Q27.05 5.15 26.7 5.4 L24.4 7.2 23.65 7.35 23.0 6.9 Q22.7 6.55 22.75 6.15 22.75 5.7 23.1 5.45 L25.35 3.7 26.1 3.5 26.8 3.95" fill="#6d6d70" fill-rule="evenodd" stroke="none"/>
      <path d="M26.8 3.95 L27.0 4.75 Q27.05 5.15 26.7 5.4 L24.4 7.2 23.65 7.35 23.0 6.9 Q22.7 6.55 22.75 6.15 22.75 5.7 23.1 5.45 L25.35 3.7 26.1 3.5 26.8 3.95" fill="none" stroke="#000000" stroke-linecap="round" stroke-linejoin="round" stroke-width="1.0"/>
      <path d="M23.5 5.65 Q24.3 6.15 25.1 6.1 L24.2 6.8 23.85 6.85 Q23.5 6.85 23.35 6.6 L23.2 6.1 23.4 5.75 23.5 5.65" fill="#59595b" fill-rule="evenodd" stroke="none"/>
      <path d="M26.4 5.05 L26.25 5.1 24.45 4.85 25.55 3.95 25.95 3.9 Q26.25 3.95 26.4 4.15 L26.6 4.6 26.4 5.05" fill="#7b7b7c" fill-rule="evenodd" stroke="none"/>
      <path d="M20.05 -3.5 Q20.25 -2.7 19.9 -2.0 19.55 -1.35 18.85 -1.1 L17.35 -1.2 Q16.7 -1.55 16.45 -2.3 16.2 -3.1 16.6 -3.75 16.95 -4.4 17.7 -4.7 L19.1 -4.55 20.05 -3.5" fill="#6d6d70" fill-rule="evenodd" stroke="none"/>
      <path d="M20.05 -3.5 Q20.25 -2.7 19.9 -2.0 19.55 -1.35 18.85 -1.1 L17.35 -1.2 Q16.7 -1.55 16.45 -2.3 16.2 -3.1 16.6 -3.75 16.95 -4.4 17.7 -4.7 L19.1 -4.55 20.05 -3.5" fill="none" stroke="#000000" stroke-linecap="round" stroke-linejoin="round" stroke-width="1.0"/>
      <path d="M19.85 -3.0 Q19.35 -3.55 18.7 -3.8 L17.25 -3.75 Q17.5 -4.1 17.95 -4.2 L19.05 -4.1 Q19.6 -3.9 19.75 -3.3 L19.85 -3.0" fill="#7b7b7c" fill-rule="evenodd" stroke="none"/>
      <path d="M16.85 -3.1 Q17.6 -2.4 18.35 -2.35 19.05 -2.35 19.75 -2.7 19.65 -1.8 18.75 -1.5 L17.65 -1.6 Q17.1 -1.8 16.9 -2.4 L16.85 -3.1" fill="#59595b" fill-rule="evenodd" stroke="none"/>
      <path d="M-1.2 -1.75 L3.4 1.8 6.1 3.15 Q7.65 3.9 9.9 4.05 L14.95 4.15 19.8 3.45 22.55 2.45 23.05 2.45 Q23.5 2.45 23.85 2.9 24.2 3.3 23.95 4.4 L23.1 6.5 21.1 10.25 Q19.75 12.35 17.8 14.45 15.85 16.5 13.2 18.1 10.55 19.6 7.25 20.05 3.9 20.45 -0.15 19.3 -4.2 18.05 -9.0 14.65 -10.3 2.7 -1.2 -1.75" fill="#666666" fill-rule="evenodd" stroke="none"/>
      <path d="M-1.2 -1.75 L3.4 1.8 6.1 3.15 Q7.65 3.9 9.9 4.05 L14.95 4.15 19.8 3.45 22.55 2.45 23.05 2.45 Q23.5 2.45 23.85 2.9 24.2 3.3 23.95 4.4 L23.1 6.5 21.1 10.25 Q19.75 12.35 17.8 14.45 15.85 16.5 13.2 18.1 10.55 19.6 7.25 20.05 3.9 20.45 -0.15 19.3 -4.2 18.05 -9.0 14.65" fill="none" stroke="#000000" stroke-linecap="round" stroke-linejoin="round" stroke-width="2.0"/>
      <path d="M3.35 15.8 L3.4 15.8 10.4 15.1 Q14.3 14.4 18.3 13.15 15.2 16.5 11.65 17.95 8.1 19.35 4.35 19.15 0.6 18.95 -3.0 17.4 -6.65 15.85 -9.8 13.25 -9.4 12.4 -9.35 11.55 L-9.15 9.85 Q-9.0 9.0 -8.35 8.1 L-7.85 7.25 -6.95 5.95 -6.0 4.95 Q-5.6 4.65 -5.4 5.15 L-4.05 9.25 Q-3.25 11.35 -1.55 13.1 0.1 14.85 3.35 15.8" fill="#333333" fill-rule="evenodd" stroke="none"/>
      <path d="M23.35 3.05 L23.5 3.65 23.45 4.35 23.25 4.8 22.05 7.25 19.75 10.95 Q18.25 12.95 16.15 14.85 14.1 16.75 11.45 18.05 8.85 19.3 5.65 19.55 6.65 19.4 8.25 18.6 9.95 17.7 11.85 16.3 13.75 14.85 15.5 13.2 L18.4 9.9 Q19.55 8.25 19.75 6.95 19.8 6.25 18.5 6.2 17.25 6.05 15.25 6.2 L11.05 6.4 7.15 6.1 4.6 5.15 2.9 3.95 1.4 2.65 3.0 3.65 Q4.2 4.3 6.05 4.8 L10.25 5.4 15.0 4.9 19.55 3.85 22.45 2.85 22.9 2.85 23.35 3.05" fill="#999999" fill-rule="evenodd" stroke="none"/>
    </g>
  </defs>
</svg>
