<?xml version="1.0" encoding="UTF-8" standalone="no"?>
<svg xmlns:xlink="http://www.w3.org/1999/xlink" height="33.45px" width="33.4px" xmlns="http://www.w3.org/2000/svg">
  <g transform="matrix(1, 0, 0, 1, 16.35, 23.55)">
    <use height="25.4" transform="matrix(0.8077, 0.0, 0.0, 0.8077, -9.9866, -10.6327)" width="25.4" xlink:href="#shape0"/>
  </g>
  <defs>
    <g id="shape0" transform="matrix(1, 0, 0, 1, 12.55, 13.35)">
      <path d="M8.9 -9.4 Q12.5 -5.8 12.5 -0.65 12.5 4.45 8.9 8.1 5.25 11.7 0.15 11.7 -5.0 11.7 -8.6 8.1 -12.2 4.45 -12.2 -0.65 -12.2 -5.8 -8.6 -9.4 -5.0 -13.0 0.15 -13.0 5.25 -13.0 8.9 -9.4" fill="#ccffff" fill-opacity="0.49019608" fill-rule="evenodd" stroke="none"/>
      <path d="M8.9 -9.4 Q12.5 -5.8 12.5 -0.65 12.5 4.45 8.9 8.1 5.25 11.7 0.15 11.7 -5.0 11.7 -8.6 8.1 -12.2 4.45 -12.2 -0.65 -12.2 -5.8 -8.6 -9.4 -5.0 -13.0 0.15 -13.0 5.25 -13.0 8.9 -9.4" fill="none" stroke="#00ccff" stroke-linecap="round" stroke-linejoin="round" stroke-opacity="0.49019608" stroke-width="0.75"/>
      <path d="M8.05 -7.55 Q10.05 -4.8 10.05 -0.8 10.05 3.15 8.05 5.95 6.1 8.75 3.3 8.8 L2.65 8.75 Q4.25 8.1 5.55 6.25 7.5 3.5 7.5 -0.5 7.5 -4.45 5.55 -7.25 3.8 -9.7 1.4 -9.95 L3.3 -10.35 Q6.1 -10.35 8.05 -7.55" fill="#ffffff" fill-opacity="0.49019608" fill-rule="evenodd" stroke="none"/>
      <path d="M-7.6 -6.4 Q-7.6 -7.35 -6.95 -8.0 -6.3 -8.65 -5.35 -8.65 -4.4 -8.65 -3.75 -8.0 -3.1 -7.35 -3.1 -6.4 -3.1 -5.45 -3.75 -4.8 -4.4 -4.15 -5.35 -4.15 -6.3 -4.15 -6.95 -4.8 -7.6 -5.45 -7.6 -6.4" fill="#ffffff" fill-opacity="0.49019608" fill-rule="evenodd" stroke="none"/>
    </g>
  </defs>
</svg>
