<?xml version="1.0" encoding="UTF-8" standalone="no"?>
<svg xmlns:xlink="http://www.w3.org/1999/xlink" height="177.7px" width="66.6px" xmlns="http://www.w3.org/2000/svg">
  <g transform="matrix(1, 0, 0, 1, 9.35, 11.45)">
    <use height="156.5" transform="matrix(0.6805, 0.0, 0.0, 0.68, 12.8407, 59.8243)" width="16.4" xlink:href="#sprite0"/>
    <use height="54.5" transform="matrix(1.0, 0.0, 0.0, 1.0, 0.8, 3.45)" width="53.3" xlink:href="#shape1"/>
  </g>
  <defs>
    <g id="sprite0" transform="matrix(1, 0, 0, 1, 13.9, 35.7)">
      <use height="156.5" transform="matrix(1.0, 0.0, 0.0, 1.0, -13.9, -35.7)" width="16.4" xlink:href="#shape0"/>
    </g>
    <g id="shape0" transform="matrix(1, 0, 0, 1, 13.9, 35.7)">
      <path d="M0.2 -35.35 Q4.65 -2.75 -1.0 29.6 L-9.6 74.75 Q-13.9 97.35 -13.5 120.45" fill="none" stroke="#003b9f" stroke-linecap="round" stroke-linejoin="round" stroke-width="0.75"/>
    </g>
    <g id="shape1" transform="matrix(1, 0, 0, 1, -0.8, -3.45)">
      <path d="M20.95 42.8 Q24.4 46.25 22.9 47.5 21.4 48.7 19.45 47.7 18.2 46.6 19.4 44.75 L20.95 42.8" fill="#58993c" fill-rule="evenodd" stroke="none"/>
      <path d="M21.3 43.15 Q19.3 45.0 19.4 47.65 18.2 46.5 19.4 44.75 L20.95 42.8 21.3 43.15" fill="#3e6d29" fill-rule="evenodd" stroke="none"/>
      <path d="M19.7 43.45 L22.75 43.2 21.95 43.95 Q21.1 44.5 19.7 43.45" fill="#254215" fill-rule="evenodd" stroke="none"/>
      <path d="M19.25 46.7 L20.95 46.4 Q22.45 46.2 22.45 46.8 22.2 47.5 21.45 47.35 L20.6 47.2 20.6 46.95 19.25 46.7" fill="#3e6d29" fill-rule="evenodd" stroke="none"/>
      <path d="M42.1 22.6 Q36.9 29.55 39.85 36.65 42.6 43.3 53.05 44.3 L45.85 43.65 Q40.35 43.15 37.5 44.4 34.55 46.45 34.5 50.6 L34.7 57.95 Q31.65 54.85 30.3 51.05 28.85 47.3 24.9 45.1 20.15 42.95 15.3 43.8 10.45 44.7 6.75 48.2 7.05 45.3 7.7 42.55 8.3 39.8 8.15 36.75 7.7 32.9 5.65 30.7 3.6 28.4 0.8 26.15 3.5 26.45 4.15 23.7 4.8 20.9 4.75 18.7 5.1 14.4 4.4 10.15 3.95 8.4 3.0 6.8 2.1 5.2 1.75 3.45 4.05 7.65 8.4 11.85 12.65 16.05 17.3 16.65 22.15 16.8 25.1 13.75 28.1 10.7 28.6 6.15 32.25 14.65 38.75 15.6 L54.1 16.05 Q45.95 17.6 42.1 22.6" fill="#58993c" fill-rule="evenodd" stroke="none"/>
      <path d="M32.05 15.6 Q31.05 20.45 29.1 22.1 27.15 23.75 22.1 23.8 15.65 24.15 15.65 25.7 15.6 27.2 19.15 28.55 22.65 29.95 26.9 30.0 26.2 33.15 26.45 36.5 31.3 37.75 35.75 39.4 30.4 39.15 29.95 40.5 29.45 41.75 30.65 43.95 31.75 46.2 32.5 49.2 31.5 46.8 25.85 44.05 20.25 41.35 17.45 40.95 12.6 41.1 9.2 44.7 10.15 40.2 10.3 35.45 9.95 32.3 8.3 30.5 6.7 28.65 4.4 26.85 6.55 27.1 7.1 24.8 7.65 22.55 7.6 20.8 7.9 17.3 7.3 13.85 L5.2 8.4 Q7.65 12.8 12.6 16.8 17.65 20.8 23.05 21.25 28.45 21.75 32.05 15.6" fill="#3e6d29" fill-rule="evenodd" stroke="none"/>
    </g>
  </defs>
</svg>
