<?xml version="1.0" encoding="UTF-8" standalone="no"?>
<svg xmlns:xlink="http://www.w3.org/1999/xlink" height="177.7px" width="66.6px" xmlns="http://www.w3.org/2000/svg">
  <g transform="matrix(1, 0, 0, 1, 9.35, 11.45)">
    <use height="156.5" transform="matrix(0.6805, 0.0, 0.0, 0.68, 12.8407, 59.8243)" width="16.4" xlink:href="#sprite0"/>
    <use height="78.3" transform="matrix(1.0, 0.0, 0.0, 1.0, -9.35, -11.45)" width="66.6" xlink:href="#shape1"/>
  </g>
  <defs>
    <g id="sprite0" transform="matrix(1, 0, 0, 1, 13.9, 35.7)">
      <use height="156.5" transform="matrix(1.0, 0.0, 0.0, 1.0, -13.9, -35.7)" width="16.4" xlink:href="#shape0"/>
    </g>
    <g id="shape0" transform="matrix(1, 0, 0, 1, 13.9, 35.7)">
      <path d="M0.2 -35.35 Q4.65 -2.75 -1.0 29.6 L-9.6 74.75 Q-13.9 97.35 -13.5 120.45" fill="none" stroke="#003b9f" stroke-linecap="round" stroke-linejoin="round" stroke-width="0.75"/>
    </g>
    <g id="shape1" transform="matrix(1, 0, 0, 1, 9.35, 11.45)">
      <path d="M19.55 55.9 L21.05 53.95 Q24.45 57.35 22.95 58.6 21.5 59.75 19.55 58.8 18.3 57.65 19.55 55.9" fill="#58993c" fill-rule="evenodd" stroke="none"/>
      <path d="M19.55 58.75 Q18.35 57.6 19.55 55.85 L21.05 53.95 21.35 54.3 Q19.4 56.15 19.55 58.75" fill="#3e6d29" fill-rule="evenodd" stroke="none"/>
      <path d="M22.0 55.1 Q21.2 55.65 19.8 54.6 L22.8 54.35 22.0 55.1" fill="#254215" fill-rule="evenodd" stroke="none"/>
      <path d="M21.5 58.45 L20.7 58.25 20.7 58.0 19.35 57.75 21.05 57.5 Q22.5 57.3 22.5 57.9 22.25 58.6 21.5 58.45" fill="#3e6d29" fill-rule="evenodd" stroke="none"/>
      <path d="M47.4 -8.45 Q51.65 -10.75 57.25 -11.45 52.75 -10.05 47.65 -5.4 42.55 -0.8 39.15 5.05 35.75 10.9 36.35 16.05 39.75 15.85 45.0 17.1 50.2 18.3 52.1 20.6 L45.7 20.9 Q42.65 21.15 41.8 24.05 41.65 24.75 41.65 25.7 41.85 29.9 44.4 34.35 L49.15 43.25 Q51.3 47.75 50.4 51.9 47.45 49.35 44.85 46.35 42.2 43.35 38.85 41.4 37.75 46.25 39.05 51.25 40.3 58.95 40.1 66.85 39.9 64.7 37.25 61.05 34.65 57.45 32.2 55.9 29.7 54.7 26.85 54.8 L21.25 54.55 Q18.6 53.8 16.2 52.5 13.7 51.15 11.0 50.8 7.3 50.65 4.0 52.35 0.65 54.1 -1.9 56.65 L-0.7 49.6 Q0.05 46.15 -0.15 42.3 -0.7 37.5 -3.25 34.7 -5.8 31.85 -9.35 29.0 -5.95 29.35 -5.15 25.9 -4.3 22.4 -4.35 19.7 -3.95 14.25 -4.8 8.95 -5.4 6.75 -6.55 4.75 -7.75 2.75 -8.15 0.55 -6.05 4.1 -2.5 7.65 L4.2 14.0 Q6.4 16.1 8.25 16.8 10.15 17.55 13.05 17.65 13.3 14.05 11.55 10.9 9.65 4.1 8.9 -2.9 9.75 -0.5 13.3 4.45 16.9 9.4 19.6 9.7 21.3 9.25 23.05 6.45 24.85 3.7 25.5 1.7 25.95 4.65 27.3 7.35 28.75 7.25 29.3 6.4 L30.6 4.4 Q33.9 0.05 38.55 -3.0 43.1 -6.15 47.4 -8.45" fill="#58993c" fill-rule="evenodd" stroke="none"/>
      <path d="M-1.2 13.6 Q-1.65 11.85 -2.6 10.2 -3.5 8.5 -3.85 6.75 -2.15 9.65 0.65 12.5 L6.05 17.7 Q8.55 20.1 11.1 20.45 L12.55 24.6 8.6 23.9 5.85 24.05 Q4.5 30.5 6.95 33.4 9.4 36.35 16.5 34.75 15.1 36.75 15.35 38.75 22.35 38.15 27.7 34.2 26.05 36.95 22.9 38.5 19.8 40.1 19.85 43.25 20.45 44.45 22.75 45.15 25.1 45.85 26.55 46.65 31.8 49.75 34.85 55.15 L34.9 60.55 Q34.75 58.8 32.65 55.85 30.55 52.9 28.6 51.65 26.55 50.7 24.25 50.8 L19.75 50.55 Q17.65 49.95 15.7 48.9 13.7 47.8 11.5 47.55 5.45 47.75 1.2 52.25 1.5 49.3 2.15 46.55 2.75 43.75 2.55 40.6 2.15 36.75 0.05 34.45 -2.0 32.15 -4.8 29.85 -2.1 30.15 -1.45 27.3 -0.75 24.5 -0.8 22.3 -0.5 17.9 -1.2 13.6" fill="#3e6d29" fill-rule="evenodd" stroke="none"/>
    </g>
  </defs>
</svg>
