<?xml version="1.0" encoding="UTF-8" standalone="no"?>
<svg xmlns:xlink="http://www.w3.org/1999/xlink" height="22.1px" width="31.7px" xmlns="http://www.w3.org/2000/svg">
  <g transform="matrix(1, 0, 0, 1, 15.85, 12.4)">
    <use height="19.4" transform="matrix(1.0, 0.0, 0.0, 1.0, -15.85, -9.7)" width="31.7" xlink:href="#shape0"/>
  </g>
  <defs>
    <g id="shape0" transform="matrix(1, 0, 0, 1, 15.85, 9.7)">
      <path d="M-8.8 -9.1 Q-5.6 -9.4 -3.3 -6.95 -1.0 -4.55 -0.3 0.45 -0.1 2.25 -0.4 3.95 -0.65 5.6 -1.3 7.0 L-7.65 8.15 -12.15 9.2 Q-13.4 7.9 -14.25 6.05 -15.1 4.15 -15.3 1.9 -15.55 -1.0 -14.75 -3.4 -14.0 -5.8 -12.4 -7.35 -10.9 -8.85 -8.8 -9.1" fill="#666666" fill-rule="evenodd" stroke="none"/>
      <path d="M-8.8 -9.1 Q-10.9 -8.85 -12.4 -7.35 -14.0 -5.8 -14.75 -3.4 -15.55 -1.0 -15.3 1.9 -15.1 4.15 -14.25 6.05 -13.4 7.9 -12.15 9.2 L-7.65 8.15 -1.3 7.0 Q-0.65 5.6 -0.4 3.95 -0.1 2.25 -0.3 0.45 -1.0 -4.55 -3.3 -6.95 -5.6 -9.4 -8.8 -9.1" fill="none" stroke="#000000" stroke-linecap="round" stroke-linejoin="round" stroke-width="1.0"/>
      <path d="M-14.5 -3.1 Q-13.8 -5.4 -12.35 -6.85 -10.95 -8.4 -9.0 -8.7 -11.0 -7.55 -12.05 -5.05 -13.1 -2.55 -12.85 0.6 -12.6 3.2 -11.6 5.05 -10.6 6.95 -8.9 8.0 L-12.0 8.8 Q-14.55 6.3 -14.95 1.9 -15.2 -0.8 -14.5 -3.1" fill="#333333" fill-rule="evenodd" stroke="none"/>
      <path d="M11.95 -8.15 Q13.2 -7.05 14.05 -5.0 14.95 -2.95 15.2 -0.3 L15.35 2.4 15.15 5.25 14.7 7.45 Q12.4 6.4 10.2 6.05 7.95 5.7 6.55 6.05 5.4 3.8 5.1 0.7 4.9 -1.9 5.35 -4.1 5.85 -6.3 6.85 -7.65 7.9 -9.0 9.3 -9.2 10.7 -9.3 11.95 -8.15" fill="#666666" fill-rule="evenodd" stroke="none"/>
      <path d="M11.95 -8.15 Q10.7 -9.3 9.3 -9.2 7.9 -9.0 6.85 -7.65 5.85 -6.3 5.35 -4.1 4.9 -1.9 5.1 0.7 5.4 3.8 6.55 6.05 7.95 5.7 10.2 6.05 12.4 6.4 14.7 7.45 L15.15 5.25 15.35 2.4 15.2 -0.3 Q14.95 -2.95 14.05 -5.0 13.2 -7.05 11.95 -8.15" fill="none" stroke="#000000" stroke-linecap="round" stroke-linejoin="round" stroke-width="1.0"/>
      <path d="M5.4 -0.9 Q5.4 -3.5 6.1 -5.45 6.85 -7.45 8.05 -8.35 7.1 -6.2 7.1 -3.2 L7.15 -1.6 Q7.3 0.0 7.6 1.55 7.95 3.0 8.55 4.1 9.1 5.2 10.05 5.65 L8.4 5.6 6.8 5.55 5.95 3.3 Q5.6 2.15 5.5 0.65 L5.4 -0.9" fill="#333333" fill-rule="evenodd" stroke="none"/>
    </g>
  </defs>
</svg>
