<?xml version="1.0" encoding="UTF-8" standalone="no"?>
<svg xmlns:xlink="http://www.w3.org/1999/xlink" height="186.7px" width="67.75px" xmlns="http://www.w3.org/2000/svg">
  <g transform="matrix(1, 0, 0, 1, 8.5, 20.45)">
    <use height="156.5" transform="matrix(0.6805, 0.0, 0.0, 0.68, 12.8407, 59.8243)" width="16.4" xlink:href="#sprite0"/>
    <use height="76.3" transform="matrix(1.0, 0.0, 0.0, 1.0, -8.5, -20.45)" width="64.9" xlink:href="#shape1"/>
  </g>
  <defs>
    <g id="sprite0" transform="matrix(1, 0, 0, 1, 13.9, 35.7)">
      <use height="156.5" transform="matrix(1.0, 0.0, 0.0, 1.0, -13.9, -35.7)" width="16.4" xlink:href="#shape0"/>
    </g>
    <g id="shape0" transform="matrix(1, 0, 0, 1, 13.9, 35.7)">
      <path d="M0.2 -35.35 Q4.65 -2.75 -1.0 29.6 L-9.6 74.75 Q-13.9 97.35 -13.5 120.45" fill="none" stroke="#003b9f" stroke-linecap="round" stroke-linejoin="round" stroke-width="0.75"/>
    </g>
    <g id="shape1" transform="matrix(1, 0, 0, 1, 8.5, 20.45)">
      <path d="M19.6 45.15 L21.1 43.25 Q24.4 46.55 22.95 47.75 21.5 48.9 19.65 47.95 18.45 46.85 19.6 45.15" fill="#1e4c96" fill-rule="evenodd" stroke="none"/>
      <path d="M19.6 47.95 Q18.45 46.8 19.6 45.1 L21.1 43.25 21.4 43.6 Q19.5 45.4 19.6 47.95" fill="#113972" fill-rule="evenodd" stroke="none"/>
      <path d="M22.05 44.35 Q21.25 44.9 19.9 43.9 L22.8 43.65 22.05 44.35" fill="#082344" fill-rule="evenodd" stroke="none"/>
      <path d="M21.55 47.6 L20.75 47.45 20.75 47.2 19.45 47.0 21.1 46.7 Q22.5 46.5 22.55 47.1 22.25 47.75 21.55 47.6" fill="#113972" fill-rule="evenodd" stroke="none"/>
      <path d="M46.75 -17.55 Q50.95 -19.8 56.4 -20.45 52.0 -19.1 47.05 -14.6 42.05 -10.1 38.75 -4.4 35.4 1.3 36.05 6.3 39.3 6.15 44.4 7.35 49.5 8.5 51.4 10.75 L45.15 11.05 Q42.2 11.3 41.35 14.15 L41.15 15.7 Q41.4 19.8 43.85 24.15 L48.5 32.85 Q50.6 37.2 49.7 41.25 46.85 38.8 44.3 35.85 41.7 32.9 38.45 31.0 37.4 35.75 38.65 40.6 39.85 48.15 39.65 55.85 39.45 53.7 36.9 50.15 34.35 46.65 32.0 45.15 29.55 44.0 26.75 44.1 L21.3 43.8 Q18.75 43.1 16.35 41.8 13.95 40.5 11.3 40.2 7.7 40.05 4.45 41.7 1.25 43.4 -1.25 45.9 -0.85 42.3 -0.1 39.0 0.65 35.65 0.45 31.9 -0.1 27.25 -2.6 24.5 -5.1 21.75 -8.5 18.95 -5.2 19.3 -4.45 15.9 -3.6 12.5 -3.65 9.9 -3.25 4.6 -4.1 -0.6 -4.65 -2.7 -5.8 -4.7 -6.95 -6.65 -7.35 -8.75 -5.3 -5.35 -1.85 -1.85 L4.7 4.35 Q6.8 6.35 8.65 7.05 10.5 7.75 13.3 7.9 13.55 4.4 11.85 1.3 10.0 -5.3 9.25 -12.15 10.05 -9.8 13.55 -4.95 17.05 -0.15 19.7 0.15 21.35 -0.3 23.05 -3.05 24.8 -5.7 25.45 -7.65 25.85 -4.8 27.2 -2.2 28.6 -2.3 29.15 -3.1 L30.4 -5.05 Q33.6 -9.3 38.15 -12.25 42.6 -15.35 46.75 -17.55" fill="#1e4c96" fill-rule="evenodd" stroke="none"/>
      <path d="M-0.55 3.95 Q-1.0 2.2 -1.9 0.6 -2.85 -1.05 -3.15 -2.7 -1.5 0.05 1.25 2.9 L6.5 7.95 Q8.9 10.3 11.4 10.6 L12.85 14.65 8.95 13.95 6.25 14.1 Q5.0 20.4 7.35 23.25 9.75 26.1 16.65 24.55 15.3 26.5 15.55 28.45 22.35 27.85 27.55 24.0 25.95 26.65 22.9 28.2 19.9 29.75 19.95 32.8 20.55 34.0 22.8 34.7 25.05 35.35 26.5 36.15 31.6 39.15 34.55 44.4 L34.6 49.7 Q34.45 47.95 32.4 45.1 30.35 42.2 28.45 41.05 26.5 40.1 24.25 40.2 L19.85 39.95 Q17.8 39.35 15.9 38.3 13.95 37.25 11.8 37.0 5.9 37.2 1.75 41.6 2.05 38.7 2.65 36.05 3.3 33.3 3.1 30.25 2.65 26.5 0.65 24.25 -1.35 22.0 -4.1 19.75 -1.45 20.05 -0.8 17.3 -0.15 14.55 -0.2 12.4 0.1 8.1 -0.55 3.95" fill="#113972" fill-rule="evenodd" stroke="none"/>
    </g>
  </defs>
</svg>
