<?xml version="1.0" encoding="UTF-8" standalone="no"?>
<svg xmlns:xlink="http://www.w3.org/1999/xlink" height="22.25px" width="31.7px" xmlns="http://www.w3.org/2000/svg">
  <g transform="matrix(1, 0, 0, 1, 15.85, 12.55)">
    <use height="22.25" transform="matrix(1.0, 0.0, 0.0, 1.0, -15.85, -12.55)" width="31.65" xlink:href="#shape0"/>
  </g>
  <defs>
    <g id="shape0" transform="matrix(1, 0, 0, 1, 15.85, 12.55)">
      <path d="M-0.3 -0.95 Q-0.1 1.2 -0.4 3.1 -0.65 5.05 -1.35 6.65 L-7.65 7.95 -12.15 9.2 Q-13.4 7.7 -14.25 5.5 -15.1 3.35 -15.3 0.75 -15.55 -2.6 -14.8 -5.4 -14.0 -8.2 -12.45 -9.95 -10.9 -11.7 -8.8 -12.0 -5.6 -12.3 -3.3 -9.5 -1.0 -6.75 -0.3 -0.95" fill="#ffffff" fill-rule="evenodd" stroke="none"/>
      <path d="M-0.3 -0.95 Q-1.0 -6.75 -3.3 -9.5 -5.6 -12.3 -8.8 -12.0 -10.9 -11.7 -12.45 -9.95 -14.0 -8.2 -14.8 -5.4 -15.55 -2.6 -15.3 0.75 -15.1 3.35 -14.25 5.5 -13.4 7.7 -12.15 9.2 L-7.65 7.95 -1.35 6.65 Q-0.65 5.05 -0.4 3.1 -0.1 1.2 -0.3 -0.95" fill="none" stroke="#000000" stroke-linecap="round" stroke-linejoin="round" stroke-width="1.0"/>
      <path d="M-12.85 -0.7 Q-12.6 2.3 -11.6 4.45 -10.6 6.6 -8.95 7.85 L-12.0 8.75 Q-14.55 5.85 -14.95 0.75 -15.2 -2.4 -14.5 -5.05 -13.8 -7.7 -12.35 -9.4 -10.95 -11.15 -9.05 -11.5 -11.0 -10.15 -12.05 -7.3 -13.1 -4.4 -12.85 -0.7" fill="#e5e2be" fill-rule="evenodd" stroke="none"/>
      <path d="M11.95 -9.9 Q13.2 -8.6 14.05 -6.35 14.95 -4.05 15.2 -1.15 L15.3 1.85 15.15 4.95 14.7 7.45 Q12.4 6.3 10.15 5.9 7.95 5.5 6.55 5.9 5.4 3.4 5.1 -0.05 4.9 -2.95 5.35 -5.4 5.85 -7.8 6.85 -9.3 7.9 -10.8 9.3 -11.0 10.7 -11.15 11.95 -9.9" fill="#ffffff" fill-rule="evenodd" stroke="none"/>
      <path d="M11.95 -9.9 Q10.7 -11.15 9.3 -11.0 7.9 -10.8 6.85 -9.3 5.85 -7.8 5.35 -5.4 4.9 -2.95 5.1 -0.05 5.4 3.4 6.55 5.9 7.95 5.5 10.15 5.9 12.4 6.3 14.7 7.45 L15.15 4.95 15.3 1.85 15.2 -1.15 Q14.95 -4.05 14.05 -6.35 13.2 -8.6 11.95 -9.9" fill="none" stroke="#000000" stroke-linecap="round" stroke-linejoin="round" stroke-width="1.0"/>
      <path d="M5.4 -1.85 Q5.4 -4.7 6.1 -6.85 6.85 -9.05 8.0 -10.05 7.1 -7.7 7.1 -4.35 L7.15 -2.6 Q7.3 -0.8 7.6 0.9 7.95 2.55 8.55 3.75 9.1 5.0 10.0 5.45 L8.4 5.4 6.8 5.35 5.9 2.85 Q5.6 1.6 5.45 -0.1 L5.4 -1.85" fill="#e5e2be" fill-rule="evenodd" stroke="none"/>
      <path d="M-10.4 -0.6 Q-9.0 -0.4 -8.15 0.95 -7.35 2.35 -7.5 4.3 -7.7 6.15 -8.8 7.35 -9.85 8.55 -11.25 8.5 -12.7 8.3 -13.45 6.95 -14.3 5.55 -14.15 3.6 -13.95 1.7 -12.9 0.55 -11.8 -0.65 -10.4 -0.6" fill="#000000" fill-rule="evenodd" stroke="none"/>
      <path d="M-8.8 2.35 Q-8.85 3.15 -9.25 3.6 -9.7 4.1 -10.25 4.05 L-11.1 3.4 Q-11.45 2.9 -11.4 2.15 -11.35 1.35 -10.9 0.9 -10.5 0.4 -9.9 0.45 -9.35 0.5 -9.0 1.1 -8.7 1.6 -8.8 2.35" fill="#ffffff" fill-rule="evenodd" stroke="none"/>
      <path d="M10.2 1.95 Q10.0 3.55 9.25 4.5 8.5 5.5 7.45 5.45 6.45 5.3 5.85 4.2 5.3 3.05 5.4 1.45 5.55 -0.1 6.35 -1.1 7.1 -2.05 8.15 -2.0 9.15 -1.85 9.75 -0.75 10.35 0.4 10.2 1.95" fill="#000000" fill-rule="evenodd" stroke="none"/>
      <path d="M9.65 0.55 L9.25 1.55 Q8.95 1.95 8.45 1.9 8.05 1.85 7.8 1.4 7.55 0.95 7.6 0.35 7.65 -0.25 8.0 -0.65 8.3 -1.05 8.75 -1.0 9.15 -0.95 9.4 -0.5 L9.65 0.55" fill="#ffffff" fill-rule="evenodd" stroke="none"/>
    </g>
  </defs>
</svg>
