<?xml version="1.0" encoding="UTF-8" standalone="no"?>
<svg
   xmlns:dc="http://purl.org/dc/elements/1.1/"
   xmlns:cc="http://creativecommons.org/ns#"
   xmlns:rdf="http://www.w3.org/1999/02/22-rdf-syntax-ns#"
   xmlns:svg="http://www.w3.org/2000/svg"
   xmlns="http://www.w3.org/2000/svg"
   xmlns:xlink="http://www.w3.org/1999/xlink"
   xmlns:sodipodi="http://sodipodi.sourceforge.net/DTD/sodipodi-0.dtd"
   xmlns:inkscape="http://www.inkscape.org/namespaces/inkscape"
   height="177.35001"
   width="516.13293"
   id="svg2"
   version="1.1"
   inkscape:version="0.48.4 r9939"
   sodipodi:docname="clouds.svg"
   inkscape:export-filename="/Work/Projects/Clients/LinguaZone/lz-games/html5_games/sources/Fishing/prep/mma/clouds.png"
   inkscape:export-xdpi="90"
   inkscape:export-ydpi="90">
  <metadata
     id="metadata125">
    <rdf:RDF>
      <cc:Work
         rdf:about="">
        <dc:format>image/svg+xml</dc:format>
        <dc:type
           rdf:resource="http://purl.org/dc/dcmitype/StillImage" />
        <dc:title />
      </cc:Work>
    </rdf:RDF>
  </metadata>
  <sodipodi:namedview
     pagecolor="#ffffff"
     bordercolor="#666666"
     borderopacity="1"
     objecttolerance="10"
     gridtolerance="10"
     guidetolerance="10"
     inkscape:pageopacity="0"
     inkscape:pageshadow="2"
     inkscape:window-width="1412"
     inkscape:window-height="802"
     id="namedview123"
     showgrid="false"
     fit-margin-top="0"
     fit-margin-left="0"
     fit-margin-right="0"
     fit-margin-bottom="0"
     inkscape:zoom="0.95028521"
     inkscape:cx="-51.254197"
     inkscape:cy="-41.005307"
     inkscape:window-x="315"
     inkscape:window-y="66"
     inkscape:window-maximized="0"
     inkscape:current-layer="g4" />
  <g
     transform="translate(255.88293,88.65)"
     id="g4">
    <use
       height="177.35001"
       transform="translate(-786.25,-88.65)"
       width="1046.5"
       xlink:href="#shape0"
       id="use6"
       x="0"
       y="0"
       clip-path="url(#clipPath3042)" />
  </g>
  <defs
     id="defs8">
    <g
       id="shape0"
       transform="translate(254.5,88.65)">
      <path
         d="m 26.7,60.2 q 2.7,1.35 4.8,3.3 2.15,1.95 3.4,4.4 1.3,2.45 1.3,5.25 -0.05,3.2 -1.65,6 -1.65,2.8 -4.3,4.95 -2.7,2.15 -5.9,3.35 Q 21.1,88.7 17.9,88.7 13.95,88.65 10.1,87 6.25,85.3 3.4,82.35 q -2.9,-2.9 -3.8,-6.6 -3.05,1.55 -6.25,2.4 l -6.4,0.85 q -3.9,0 -7.85,-1.2 -1.75,2.4 -4.35,4.2 -2.55,1.85 -5.5,2.85 -2.95,1.05 -5.85,1.05 -3.25,-0.05 -6.5,-1.2 -3.25,-1.2 -5.95,-3.3 -2.75,-2.1 -4.4,-4.9 -1.65,-2.75 -1.7,-5.95 0.05,-3.65 2.2,-6.75 2.1,-3.1 5.5,-5.25 3.35,-2.15 7.15,-2.95 0.3,-4.55 2.85,-8.5 2.5,-3.9 6.45,-6.85 3.95,-3 8.65,-4.65 4.65,-1.65 9.3,-1.7 4.45,0 8.95,1.55 4.5,1.55 8.35,4.3 3.85,2.75 6.4,6.45 l 1.25,-0.1 q 3.55,0.05 6.95,1.7 3.45,1.6 5.7,4.4 2.25,2.75 2.35,6.25 l -0.2,1.75"
         id="path11"
         inkscape:connector-curvature="0"
         style="fill:#29aad6;fill-rule:evenodd;stroke:none" />
      <path
         d="m 28.5,62.45 q 1.9,0.95 3.45,2.65 1.5,1.75 2.4,3.85 0.85,2.1 0.9,4.2 -0.05,3.05 -1.65,5.7 -1.55,2.65 -4.1,4.65 -2.55,2 -5.6,3.15 -3.05,1.1 -6.05,1.15 -2.9,-0.05 -6.3,-1.3 Q 8.1,85.25 5.2,83 2.3,80.7 0.9,77.75 q -1.4,-3 -0.25,-6.5 L 1.6,69.85 2.8,68.7 3.55,67.55 Q 2.3,67.25 1.6,67.85 0.85,68.4 0.45,69.4 l -0.6,1.9 Q -1,74.1 -3,75.55 q -2.05,1.5 -4.7,2 l -5.4,0.5 q -3.65,0 -7.55,-1.15 l -0.65,-0.2 -0.4,0.55 q -1.7,2.3 -4.1,4 -2.45,1.75 -5.25,2.7 -2.8,1 -5.6,1 -3.05,0 -6.1,-1.1 -3.1,-1.15 -5.7,-3.1 -2.6,-2 -4.15,-4.6 -1.6,-2.6 -1.65,-5.6 0.1,-3.5 2.35,-6.55 2.25,-3.05 5.6,-4.8 3.35,-1.75 6.8,-1.4 3.45,0.35 5.95,3.65 1.15,1.65 1.45,3.7 0.3,2.05 -1.05,3.8 -0.85,0.95 -2.4,1.3 L -38.2,70 q -1.1,-0.6 -0.75,-2.45 l 0.55,-0.2 0.6,-0.2 -1.45,0.05 q -0.6,0.55 -0.75,1.6 -0.15,1.1 0.45,2.05 0.6,0.95 2.2,1.25 2.9,0.4 4.65,-0.95 1.8,-1.35 2.5,-4.05 0.55,-2.35 -0.35,-4.5 -0.95,-2.15 -2.8,-3.45 -1.65,-1 -3.2,-1.7 -1.5,-0.7 -2.25,-1.8 -0.75,-1.15 0,-3.5 1.2,-3.45 3.3,-6.2 2.1,-2.8 5,-4.95 3.9,-2.9 8.45,-4.5 4.55,-1.65 8.95,-1.65 4.4,0.05 8.6,1.45 4.25,1.45 7.85,3.95 l 1.9,1.35 q 1.2,0.85 2.15,1.85 0.95,1 1,2 -0.05,0.85 -0.75,1.35 l -1.55,1 q -0.9,0.5 -1.45,1.4 l -1,1.9 -1.1,2.55 Q 2.15,55 2.5,55.75 2.85,56.5 4.45,56.15 5.5,55.85 5.5,55.25 L 5.05,53.9 Q 4.7,53.15 4.75,52.4 5.4,49.1 7.9,48.1 q 2.5,-1 5.7,-0.45 3.2,0.55 6,2.05 2.85,1.45 4.2,3.15 2.15,2.9 1.1,4.6 -1.05,1.7 -4.4,1.95 -2.15,0.1 -3.65,1.35 -1.5,1.2 -2.05,3.4 -0.45,1.9 0.1,3.65 0.55,1.8 2.2,2.9 l 1.85,0.8 q 1.15,0.3 2,0 l 0.8,-0.85 q 0.35,-0.55 0.2,-0.95 -0.15,-0.45 -1,-0.25 -0.2,1.3 -1.1,1.2 Q 18.95,70.55 18,69.8 L 16.7,68.4 Q 16,66.95 16.4,65.35 16.8,63.7 17.75,62.5 19.1,60.85 21,60.65 l 3.85,0.4 3.65,1.4"
         id="path13"
         inkscape:connector-curvature="0"
         style="fill:#e6faff;fill-rule:evenodd;stroke:none" />
      <path
         d="M 3.35,59.7 Q 2.2,64 3.5,67.55 2.3,67.3 1.55,67.9 q -0.7,0.55 -1.1,1.55 l -0.6,1.85 Q -1,74.1 -3,75.6 q -2.05,1.45 -4.7,2 l -5.4,0.5 q -3.65,0 -7.55,-1.2 l -0.65,-0.15 -0.4,0.5 q -1.7,2.3 -4.1,4.05 -2.45,1.7 -5.25,2.7 -2.8,0.95 -5.6,1 -3.05,-0.05 -6.1,-1.15 -3.1,-1.1 -5.7,-3.1 -2.6,-1.95 -4.15,-4.55 -1.6,-2.65 -1.65,-5.65 0.1,-3.5 2.35,-6.55 2.25,-3.05 5.6,-4.8 3.35,-1.75 6.8,-1.35 3.45,0.35 5.95,3.65 1.15,1.6 1.45,3.65 0.3,2.05 -1.05,3.8 -0.85,1 -2.4,1.35 l -2.65,-0.25 q -1.1,-0.6 -0.75,-2.45 l 0.55,-0.25 0.6,-0.15 q -0.85,-0.55 -1.45,0 -0.6,0.55 -0.75,1.65 -0.15,1.05 0.45,2.05 0.6,0.95 2.2,1.25 2.9,0.35 4.65,-1 1.8,-1.35 2.5,-4 0.55,-2.35 -0.35,-4.5 -0.95,-2.15 -2.8,-3.45 -1.65,-1 -3.2,-1.7 -1.5,-0.7 -2.25,-1.85 -0.75,-1.15 0,-3.5 1.25,-3.65 3.65,-6.6 -0.4,2.6 -0.05,5.2 0.4,2.6 1.6,4.95 1.35,2.7 3.8,4.5 2.45,1.8 5.6,2.25 3.1,0.5 6.45,-0.8 -1.95,2.25 -1.95,4.35 0,2.1 1.35,3.7 1.35,1.55 3.45,2.3 l 4.4,0.25 q 3.3,-0.4 6.1,-2.1 2.75,-1.7 4.75,-4.4 2,-2.75 3,-6.05"
         id="path15"
         inkscape:connector-curvature="0"
         style="fill:#c5f1fc;fill-rule:evenodd;stroke:none" />
      <path
         d="m 32.35,65.55 q 1.35,1.7 2.1,3.7 0.8,2 0.8,3.95 0,3.05 -1.6,5.7 -1.55,2.65 -4.1,4.65 -2.6,2 -5.6,3.1 Q 20.9,87.8 17.9,87.8 15,87.8 11.55,86.5 8.15,85.25 5.25,83 2.35,80.75 0.95,77.75 -0.45,74.75 0.7,71.25 1,70.5 1.6,69.9 l 1.15,-1.1 0.8,-1.15 q 1.3,3.5 4.15,5.9 2.85,2.4 6.45,3.35 3.6,0.9 7.1,-0.05 2.7,-0.95 4.55,-3.1 1.85,-2.15 2.75,-5 0.9,-2.85 0.7,-5.9 1.7,1 3.1,2.7"
         id="path17"
         inkscape:connector-curvature="0"
         style="fill:#c5f1fc;fill-rule:evenodd;stroke:none" />
      <path
         d="m 163.5,57.15 q 2.8,1.4 5.05,3.45 2.3,2.1 3.65,4.7 1.3,2.6 1.35,5.55 -0.05,3.35 -1.8,6.35 -1.7,2.95 -4.55,5.25 -2.85,2.25 -6.25,3.55 -3.4,1.3 -6.8,1.3 -4.15,-0.05 -8.25,-1.85 -4.1,-1.75 -7.1,-4.85 -3.05,-3.1 -4,-7 -3.2,1.65 -6.65,2.55 -3.4,0.85 -6.75,0.9 -4.1,-0.05 -8.3,-1.3 -1.9,2.55 -4.6,4.45 -2.7,1.95 -5.8,3 -3.15,1.1 -6.25,1.1 -3.4,0 -6.85,-1.25 -3.4,-1.25 -6.3,-3.5 -2.9,-2.2 -4.65,-5.15 -1.75,-2.9 -1.8,-6.3 0.05,-3.9 2.3,-7.15 2.3,-3.3 5.85,-5.55 3.55,-2.25 7.6,-3.15 0.3,-4.8 2.95,-8.95 2.65,-4.15 6.85,-7.3 4.2,-3.15 9.15,-4.9 4.95,-1.75 9.85,-1.8 4.75,0 9.5,1.65 4.75,1.6 8.8,4.55 4.05,2.9 6.75,6.8 l 1.35,-0.05 q 3.75,0 7.4,1.75 3.6,1.7 6,4.65 2.35,2.95 2.45,6.65 l -0.15,1.85"
         id="path19"
         inkscape:connector-curvature="0"
         style="fill:#29aad6;fill-rule:evenodd;stroke:none" />
      <path
         d="m 160.4,49.35 q 2.3,3.1 1.15,4.9 -1.1,1.75 -4.65,2 -2.3,0.15 -3.85,1.45 -1.6,1.25 -2.15,3.6 -0.5,2 0.1,3.9 0.6,1.85 2.3,3.05 0.75,0.5 2,0.85 1.2,0.3 2.05,0 l 0.9,-0.9 q 0.35,-0.6 0.2,-1.05 -0.15,-0.45 -1.05,-0.25 -0.25,1.4 -1.2,1.3 -0.95,-0.1 -1.95,-0.9 l -1.4,-1.5 q -0.7,-1.55 -0.3,-3.25 0.45,-1.7 1.45,-3 1.4,-1.7 3.4,-1.95 2,-0.2 4.15,0.45 l 3.85,1.5 q 2,0.95 3.6,2.75 1.6,1.85 2.55,4.1 0.95,2.25 0.95,4.45 -0.05,3.2 -1.7,6 -1.65,2.8 -4.35,4.95 -2.75,2.1 -5.95,3.3 -3.25,1.2 -6.4,1.2 -3.05,0 -6.7,-1.35 -3.6,-1.35 -6.65,-3.7 -3.1,-2.4 -4.55,-5.6 -1.5,-3.15 -0.3,-6.85 0.35,-0.8 1,-1.45 l 1.25,-1.2 0.85,-1.25 q -1.35,-0.3 -2.1,0.3 -0.8,0.65 -1.2,1.65 l -0.65,2 q -0.9,3 -3.05,4.55 -2.1,1.55 -4.95,2.1 l -5.7,0.55 q -3.9,0 -8,-1.25 l -0.7,-0.2 -0.4,0.55 q -1.8,2.45 -4.35,4.25 -2.6,1.85 -5.55,2.9 -2.95,1 -5.9,1.05 -3.25,-0.05 -6.5,-1.2 -3.25,-1.2 -6,-3.3 -2.75,-2.05 -4.45,-4.8 -1.65,-2.75 -1.7,-5.95 0.1,-3.75 2.45,-6.95 2.4,-3.25 5.95,-5.1 3.55,-1.85 7.2,-1.45 3.65,0.35 6.3,3.85 1.25,1.75 1.55,3.9 0.3,2.15 -1.1,4.05 l -1.8,1.15 -2.25,0.35 Q 94.95,67.8 94.35,67.1 93.7,66.4 94,64.9 l 0.6,-0.2 0.6,-0.2 q -0.9,-0.55 -1.55,0 -0.65,0.6 -0.75,1.75 -0.15,1.15 0.45,2.15 0.65,1.05 2.35,1.35 3.05,0.4 4.9,-1.05 1.9,-1.4 2.65,-4.25 0.55,-2.5 -0.4,-4.75 -0.95,-2.3 -2.95,-3.65 l -3.35,-1.8 q -1.6,-0.75 -2.4,-1.95 -0.8,-1.2 0,-3.7 1.25,-3.65 3.5,-6.55 2.25,-2.95 5.3,-5.25 4.15,-3.1 8.95,-4.8 4.8,-1.7 9.45,-1.7 4.65,0.05 9.1,1.55 4.5,1.5 8.3,4.2 l 2.05,1.4 2.25,1.95 q 1,1.05 1.05,2.1 -0.05,0.95 -0.8,1.45 l -1.65,1.1 q -0.9,0.5 -1.5,1.45 l -1.1,2 q -0.7,1.3 -1.1,2.7 -0.45,1.4 -0.1,2.2 0.35,0.85 2.05,0.45 1.15,-0.35 1.1,-0.95 l -0.45,-1.45 q -0.4,-0.8 -0.35,-1.6 0.55,-2.8 2.4,-4 1.85,-1.2 4.4,-1.2 2.55,0 5.2,0.8 2.7,0.85 4.9,2.2 2.2,1.3 3.3,2.7"
         id="path21"
         inkscape:connector-curvature="0"
         style="fill:#e6faff;fill-rule:evenodd;stroke:none" />
      <path
         d="m 124.1,69.85 q 3.5,-0.4 6.45,-2.2 2.95,-1.85 5.05,-4.7 2.1,-2.85 3.2,-6.4 -1.25,4.55 0.1,8.35 -1.25,-0.3 -2.05,0.35 -0.75,0.6 -1.15,1.65 l -0.65,1.95 q -0.9,3 -3.05,4.55 -2.1,1.55 -4.95,2.1 l -5.7,0.55 q -3.9,0 -8,-1.25 l -0.7,-0.2 -0.4,0.55 q -1.8,2.45 -4.35,4.25 -2.6,1.85 -5.55,2.9 -2.95,1 -5.9,1.05 -3.25,-0.05 -6.5,-1.2 -3.25,-1.2 -6,-3.25 -2.75,-2.1 -4.45,-4.85 -1.65,-2.75 -1.7,-5.95 0.1,-3.75 2.45,-6.95 2.4,-3.25 5.95,-5.1 3.55,-1.85 7.2,-1.45 3.65,0.35 6.3,3.85 1.25,1.75 1.55,3.9 0.3,2.15 -1.1,4.05 l -1.8,1.15 -2.25,0.35 Q 94.95,67.8 94.35,67.1 93.7,66.4 94,64.9 l 0.6,-0.2 0.6,-0.2 q -0.9,-0.55 -1.55,0 -0.65,0.6 -0.75,1.75 -0.15,1.15 0.45,2.15 0.65,1.05 2.35,1.35 3.05,0.4 4.9,-1.05 1.9,-1.4 2.65,-4.25 0.55,-2.5 -0.4,-4.75 -0.95,-2.3 -2.95,-3.65 l -3.35,-1.8 q -1.6,-0.75 -2.4,-1.95 -0.8,-1.2 0,-3.7 1.35,-3.9 3.85,-7 -0.4,2.75 0,5.5 0.4,2.75 1.65,5.25 1.45,2.85 4.05,4.75 2.6,1.9 5.9,2.4 3.3,0.5 6.8,-0.85 -2.05,2.4 -2.05,4.6 0.05,2.2 1.45,3.9 1.45,1.65 3.65,2.4 l 4.65,0.3"
         id="path23"
         inkscape:connector-curvature="0"
         style="fill:#c5f1fc;fill-rule:evenodd;stroke:none" />
      <path
         d="m 166.1,59.9 q 1.85,1.1 3.3,2.85 1.45,1.8 2.25,3.9 0.85,2.1 0.85,4.2 -0.05,3.2 -1.7,6 -1.65,2.8 -4.35,4.95 -2.75,2.1 -5.95,3.3 -3.2,1.2 -6.4,1.2 -3.05,0 -6.65,-1.35 -3.6,-1.35 -6.7,-3.7 -3.1,-2.4 -4.55,-5.6 -1.45,-3.15 -0.25,-6.85 0.3,-0.8 0.95,-1.4 l 1.2,-1.2 0.85,-1.2 q 1.4,3.7 4.4,6.25 3,2.5 6.8,3.5 3.8,0.95 7.5,-0.05 2.9,-1 4.85,-3.25 1.95,-2.3 2.9,-5.3 0.9,-3 0.7,-6.25"
         id="path25"
         inkscape:connector-curvature="0"
         style="fill:#c5f1fc;fill-rule:evenodd;stroke:none" />
      <path
         d="m -101.7,-48.8 q 4.05,2 7.3,4.95 3.25,3 5.15,6.7 1.9,3.75 1.95,7.95 -0.05,4.85 -2.5,9.1 -2.5,4.25 -6.55,7.5 -4.05,3.25 -8.95,5.05 -4.85,1.85 -9.75,1.9 -4.4,0 -8.85,-1.5 -4.45,-1.5 -8.4,-4.15 -3.9,-2.65 -6.65,-6.2 -2.75,-3.55 -3.75,-7.75 -4.65,2.35 -9.5,3.6 -4.9,1.3 -9.7,1.3 -5.9,-0.05 -11.85,-1.85 -2.7,3.65 -6.6,6.4 -3.85,2.75 -8.3,4.3 -4.5,1.55 -8.9,1.6 -4.9,-0.05 -9.8,-1.85 -4.95,-1.8 -9.05,-4.95 -4.15,-3.2 -6.65,-7.4 -2.55,-4.2 -2.6,-9.05 0.05,-4.15 1.95,-7.85 1.85,-3.7 5.05,-6.7 3.2,-3 7.2,-5.1 4,-2.05 8.3,-3 0.35,-5.5 2.9,-10.4 2.55,-4.95 6.75,-9.05 4.15,-4.1 9.4,-7.1 5.2,-3 10.9,-4.65 5.7,-1.65 11.3,-1.65 6.75,0.05 13.55,2.35 6.8,2.3 12.65,6.5 5.8,4.15 9.65,9.75 l 1.95,-0.1 q 4,0 8,1.45 3.95,1.4 7.3,3.95 3.3,2.55 5.3,5.95 2.05,3.4 2.1,7.35 0,1.35 -0.3,2.65"
         id="path27"
         inkscape:connector-curvature="0"
         style="fill:#29aad6;fill-rule:evenodd;stroke:none" />
      <path
         d="m -98.9,-45.4 q 2.9,1.35 5.15,3.95 2.3,2.65 3.65,5.85 1.35,3.2 1.35,6.35 -0.05,4.65 -2.4,8.65 -2.4,4 -6.25,7.05 -3.9,3 -8.5,4.7 -4.6,1.7 -9.15,1.75 -3.5,0 -7.55,-1.25 -4.1,-1.25 -7.95,-3.55 -3.9,-2.25 -6.8,-5.4 -2.85,-3.1 -4,-6.85 -1.15,-3.8 0.3,-8 0.45,-1.2 1.35,-2.1 l 1.85,-1.7 q 0.85,-0.8 1.15,-1.75 -1.85,-0.5 -3,0.4 -1.1,0.9 -1.7,2.4 l -0.9,2.8 q -1.3,4.3 -4.35,6.5 -3.1,2.25 -7.1,3.05 l -8.2,0.75 q -5.55,0 -11.45,-1.75 l -0.95,-0.3 -0.6,0.8 q -2.55,3.45 -6.25,6.1 -3.7,2.6 -7.95,4.1 -4.25,1.45 -8.45,1.5 -4.6,-0.05 -9.25,-1.7 -4.65,-1.7 -8.6,-4.7 -3.95,-3 -6.35,-6.95 -2.4,-3.95 -2.45,-8.5 0.05,-4.2 2.35,-8.05 2.25,-3.9 5.9,-6.7 3.65,-2.85 7.85,-4.05 4.25,-1.15 8.25,-0.05 4,1.1 7,5.1 1.15,1.6 1.75,3.6 0.65,1.95 0.45,3.95 -0.2,2.05 -1.6,3.8 -0.95,1.05 -2.55,1.65 -1.6,0.6 -3.2,0.5 -1.65,-0.1 -2.55,-1.1 -0.95,-1.05 -0.5,-3.15 l 0.9,-0.35 0.85,-0.25 q -1.25,-0.85 -2.2,0 -0.9,0.9 -1.1,2.5 -0.25,1.6 0.7,3.1 0.9,1.45 3.35,1.9 4.3,0.55 7,-1.5 2.7,-2.05 3.75,-6.1 0.85,-3.55 -0.55,-6.8 -1.35,-3.25 -4.2,-5.2 l -3.65,-2.05 q -1.85,-0.8 -3.2,-1.8 -1.35,-0.95 -1.8,-2.55 -0.45,-1.55 0.45,-4.25 1.75,-5.2 4.95,-9.4 3.2,-4.2 7.6,-7.5 3.9,-2.9 8.3,-5 4.45,-2.1 9,-3.2 4.6,-1.1 9,-1.1 6.7,0.05 13.05,2.2 6.4,2.15 11.85,6 l 2.95,2.05 3.25,2.75 q 1.4,1.55 1.5,3.05 -0.1,1.3 -1.15,2.05 -1.05,0.75 -2.4,1.55 -1.3,0.75 -2.15,2.05 l -1.55,2.9 q -1,1.9 -1.6,3.9 -0.65,2 -0.15,3.15 0.55,1.15 2.95,0.6 1.3,-0.35 1.5,-0.95 0.25,-0.6 -0.1,-1.35 l -0.65,-1.65 q -0.35,-0.9 -0.25,-1.75 0.75,-4 3.4,-5.75 2.65,-1.7 6.3,-1.7 3.65,0 7.45,1.2 3.8,1.2 6.95,3.1 3.15,1.85 4.75,3.9 2.2,2.9 2.2,5.05 -0.05,2.1 -1.95,3.35 -1.9,1.25 -5.25,1.45 -3.3,0.2 -5.55,2.05 -2.25,1.8 -3.05,5.15 -0.65,2.9 0.15,5.55 0.85,2.7 3.3,4.4 l 1.75,0.85 2.15,0.55 1.9,-0.2 q 0.8,-0.4 1.3,-1.25 0.45,-0.9 0.25,-1.5 -0.25,-0.6 -1.5,-0.35 -0.2,1.5 -1.1,1.75 -0.85,0.25 -2,-0.3 -1.1,-0.55 -2.05,-1.45 l -1.35,-1.6 q -1,-2.2 -0.4,-4.65 0.6,-2.4 2.05,-4.25 2,-2.5 4.9,-2.8 2.85,-0.3 5.9,0.6 l 5.5,2.15"
         id="path29"
         inkscape:connector-curvature="0"
         style="fill:#e6faff;fill-rule:evenodd;stroke:none" />
      <path
         d="m -141.55,-40.55 q 3,-4 4.5,-8.95 -0.9,3.15 -0.8,6.05 0.1,3 1.05,5.7 -1.85,-0.45 -2.9,0.45 -1.1,0.9 -1.7,2.4 l -0.9,2.8 q -1.3,4.25 -4.35,6.5 -3.1,2.25 -7.1,3.05 l -8.2,0.75 q -5.55,0 -11.45,-1.8 l -0.95,-0.3 -0.6,0.85 q -2.55,3.45 -6.25,6.05 -3.7,2.65 -7.95,4.1 -4.25,1.5 -8.45,1.5 -4.6,0 -9.25,-1.7 -4.65,-1.65 -8.6,-4.65 -3.95,-3 -6.35,-6.95 -2.4,-3.95 -2.45,-8.5 0.05,-4.25 2.35,-8.1 2.25,-3.85 5.9,-6.7 3.65,-2.8 7.85,-4 4.25,-1.2 8.25,-0.1 4,1.1 7,5.15 1.15,1.6 1.75,3.55 0.65,2 0.45,4 -0.2,2 -1.6,3.75 -0.95,1.1 -2.55,1.7 -1.6,0.6 -3.2,0.45 -1.65,-0.1 -2.55,-1.1 -0.95,-1 -0.5,-3.15 l 0.9,-0.3 0.85,-0.3 -2.2,0.05 q -0.9,0.85 -1.1,2.45 -0.25,1.65 0.7,3.1 0.9,1.5 3.35,1.9 4.3,0.6 7,-1.45 2.7,-2.05 3.75,-6.1 0.85,-3.55 -0.55,-6.8 -1.35,-3.25 -4.2,-5.25 l -3.65,-2 q -1.85,-0.85 -3.2,-1.8 -1.35,-0.95 -1.8,-2.55 -0.45,-1.6 0.45,-4.3 1.9,-5.55 5.45,-10 -0.6,3.9 0,7.85 0.55,3.95 2.35,7.55 2.05,4.05 5.8,6.8 3.7,2.7 8.45,3.45 4.7,0.7 9.75,-1.25 -2.9,3.45 -2.9,6.6 0,3.15 2.05,5.55 2.05,2.35 5.2,3.45 3.2,1.1 6.65,0.4 5.05,-0.55 9.25,-3.15 4.2,-2.6 7.2,-6.7"
         id="path31"
         inkscape:connector-curvature="0"
         style="fill:#c5f1fc;fill-rule:evenodd;stroke:none" />
      <path
         d="m -97.9,-44.9 q 2.65,1.55 4.7,4.1 2.05,2.55 3.25,5.55 1.2,3.05 1.2,6 -0.05,4.65 -2.4,8.65 -2.4,4 -6.3,7 -3.85,3.05 -8.45,4.75 -4.6,1.7 -9.15,1.75 -3.5,-0.05 -7.55,-1.25 -4.1,-1.25 -7.95,-3.55 -3.9,-2.25 -6.8,-5.4 -2.9,-3.1 -4.05,-6.85 -1.1,-3.8 0.3,-8 0.45,-1.15 1.4,-2.05 l 1.75,-1.7 q 0.85,-0.8 1.2,-1.7 1.45,3.95 4.3,7 2.85,3.05 6.6,5 3.7,1.9 7.8,2.45 4.1,0.55 8.05,-0.55 4.15,-1.4 6.95,-4.65 2.8,-3.3 4.1,-7.6 1.35,-4.3 1.05,-8.95"
         id="path33"
         inkscape:connector-curvature="0"
         style="fill:#c5f1fc;fill-rule:evenodd;stroke:none" />
      <path
         d="m -185.8,14.55 q 2.75,1.75 4.5,4.3 1.75,2.55 1.8,5.55 -0.1,3.5 -2.4,6.35 -2.3,2.85 -5.75,4.5 -3.5,1.7 -7.05,1.75 -3.65,-0.05 -7.15,-1.85 -3.5,-1.8 -5.75,-4.8 -3.25,0.95 -6.45,1 l -5.25,-0.7 q -2.65,-0.7 -5.15,-2 -0.75,3.05 -3.1,5.45 -2.35,2.4 -5.5,3.8 -3.2,1.35 -6.4,1.4 -3.55,-0.05 -7,-1.75 -3.4,-1.75 -5.7,-4.6 -2.25,-2.9 -2.35,-6.4 0.1,-3.45 2.25,-6.25 2.2,-2.75 5.55,-4.4 l -0.15,-1.45 q 0.1,-2.85 1.95,-5.15 1.85,-2.25 4.65,-3.6 2.8,-1.35 5.7,-1.35 l 1.05,0.05 q 2.1,-3.05 5.25,-5.3 3.15,-2.25 6.85,-3.5 3.7,-1.3 7.35,-1.3 3.8,0 7.65,1.4 3.85,1.35 7.1,3.8 3.25,2.45 5.3,5.65 2.05,3.25 2.3,6.95 3.1,0.7 5.9,2.45"
         id="path35"
         inkscape:connector-curvature="0"
         style="fill:#29aad6;fill-rule:evenodd;stroke:none" />
      <path
         d="m -183.7,18.9 q 1.75,2.4 1.8,5.15 -0.1,3.15 -2.2,5.7 -2.1,2.55 -5.25,4.05 -3.15,1.55 -6.35,1.55 -3.3,-0.05 -6.5,-1.7 -3.2,-1.6 -5.25,-4.35 l -0.3,-0.4 -0.5,0.15 -5.9,0.9 -4.25,-0.4 q -2.1,-0.4 -3.7,-1.55 -1.55,-1.15 -2.25,-3.35 l -0.45,-1.5 q -0.35,-0.75 -0.9,-1.2 -0.6,-0.5 -1.55,-0.25 l 1.05,1.35 q 0.8,0.65 1.2,1.55 0.9,2.75 -0.2,5.1 -1.05,2.35 -3.35,4.1 -2.3,1.8 -4.95,2.75 -2.7,1 -4.95,1.05 -3.15,-0.05 -6.3,-1.6 -3.1,-1.5 -5.2,-4.1 -2.05,-2.6 -2.15,-5.8 0,-1.65 0.7,-3.3 0.7,-1.65 1.9,-3 1.2,-1.35 2.65,-2.1 l 2.85,-1.1 3.1,-0.3 q 1.45,0.15 2.5,1.45 0.75,0.95 1.05,2.2 0.35,1.3 -0.2,2.45 l -1,1.1 q -0.75,0.55 -1.45,0.65 -0.75,0.05 -0.9,-0.95 -0.65,-0.15 -0.75,0.2 -0.15,0.3 0.1,0.75 l 0.65,0.65 q 0.65,0.25 1.55,0 0.95,-0.25 1.45,-0.6 1.3,-0.9 1.75,-2.3 0.4,-1.35 0.05,-2.85 -0.4,-1.75 -1.55,-2.7 -1.2,-0.95 -2.9,-1.05 -2.6,-0.2 -3.45,-1.5 -0.8,-1.35 0.9,-3.6 1.05,-1.35 3.25,-2.5 2.25,-1.15 4.75,-1.6 2.5,-0.45 4.45,0.35 1.95,0.8 2.5,3.35 0.05,0.6 -0.25,1.2 l -0.35,1.05 q -0.05,0.45 0.8,0.7 1.25,0.3 1.55,-0.3 0.25,-0.6 -0.05,-1.65 l -0.85,-2 -0.8,-1.5 q -0.45,-0.7 -1.1,-1.1 l -1.25,-0.75 q -0.55,-0.4 -0.6,-1.1 0.05,-0.8 0.8,-1.55 l 1.65,-1.45 1.55,-1.05 q 2.8,-2 6.1,-3.1 3.3,-1.15 6.8,-1.15 3.45,0 7,1.3 3.55,1.25 6.6,3.5 2.3,1.7 3.95,3.9 1.65,2.2 2.55,4.85 0.6,1.85 0.05,2.75 -0.6,0.9 -1.8,1.45 l -2.5,1.35 q -1.45,1 -2.15,2.7 -0.75,1.65 -0.3,3.5 0.55,2.1 1.95,3.2 1.4,1.05 3.65,0.75 1.25,-0.25 1.7,-1 0.5,-0.75 0.4,-1.6 -0.15,-0.85 -0.6,-1.3 -0.5,-0.4 -1.15,0 l 0.9,0.3 q 0.3,1.45 -0.6,1.95 l -2.05,0.2 q -1.2,-0.3 -1.9,-1.05 -1.05,-1.4 -0.8,-3 0.2,-1.6 1.15,-2.85 1.95,-2.6 4.65,-2.9 2.7,-0.25 5.35,1.1 2.6,1.35 4.4,3.75"
         id="path37"
         inkscape:connector-curvature="0"
         style="fill:#e6faff;fill-rule:evenodd;stroke:none" />
      <path
         d="m -184.1,29.8 q -2.1,2.55 -5.25,4.05 -3.15,1.5 -6.35,1.55 -3.3,-0.05 -6.5,-1.7 -3.2,-1.65 -5.25,-4.35 l -0.3,-0.45 -0.5,0.15 q -3.05,0.95 -5.9,0.95 l -4.25,-0.4 q -2.1,-0.4 -3.7,-1.6 -1.55,-1.15 -2.25,-3.35 l -0.45,-1.45 q -0.3,-0.75 -0.9,-1.25 -0.55,-0.45 -1.5,-0.25 1.05,-2.8 0.1,-6.15 1.2,3.95 4.1,6.65 2.85,2.7 6.8,3.2 2.4,0.45 4.45,-0.65 2.05,-1.15 2.65,-3.2 0.55,-2.05 -1.4,-4.45 2.6,1 5.05,0.65 2.45,-0.4 4.35,-1.8 1.95,-1.4 3,-3.5 0.95,-1.9 1.25,-3.95 0.3,-2.05 0,-4.05 1.85,2.3 2.8,5.2 0.6,1.85 0.05,2.75 -0.6,0.85 -1.8,1.4 l -2.5,1.35 q -1.45,1 -2.15,2.7 -0.75,1.7 -0.3,3.55 0.55,2.1 1.95,3.15 1.4,1.05 3.65,0.75 1.25,-0.2 1.7,-1 0.5,-0.75 0.4,-1.6 -0.15,-0.8 -0.6,-1.25 -0.5,-0.45 -1.15,0 l 0.9,0.3 q 0.3,1.45 -0.6,1.9 l -2.05,0.2 q -1.2,-0.25 -1.9,-1.05 -1.05,-1.35 -0.8,-2.95 0.2,-1.6 1.15,-2.9 1.95,-2.6 4.65,-2.85 2.7,-0.3 5.35,1.05 2.6,1.4 4.4,3.8 1.75,2.35 1.8,5.15 -0.1,3.15 -2.2,5.7"
         id="path39"
         inkscape:connector-curvature="0"
         style="fill:#c5f1fc;fill-rule:evenodd;stroke:none" />
      <path
         d="m -228.55,33.8 q -2.3,1.8 -4.95,2.75 -2.7,1 -4.95,1.05 -3.15,-0.05 -6.3,-1.6 -3.1,-1.5 -5.2,-4.1 -2.05,-2.6 -2.15,-5.8 0.05,-2.35 1.35,-4.6 1.3,-2.25 3.4,-3.5 -0.15,2.4 0.55,4.65 0.65,2.25 2.15,3.9 1.45,1.7 3.55,2.45 2.75,0.75 5.55,0 2.85,-0.7 5.05,-2.6 2.25,-1.9 3.25,-4.6 l 1.1,1.3 q 0.8,0.6 1.15,1.5 0.9,2.75 -0.2,5.1 -1.05,2.35 -3.35,4.1"
         id="path41"
         inkscape:connector-curvature="0"
         style="fill:#c5f1fc;fill-rule:evenodd;stroke:none" />
      <path
         d="m -36.45,-18.8 q -1.35,1.7 -3.45,2.75 -2.1,1 -4.2,1 -2.2,0 -4.3,-1.1 -2.1,-1.1 -3.45,-2.9 -1.95,0.6 -3.85,0.6 -3.2,0 -6.25,-1.6 -0.45,1.85 -1.85,3.25 -1.45,1.45 -3.35,2.3 -1.9,0.85 -3.8,0.85 -2.15,-0.05 -4.2,-1.05 -2.05,-1.05 -3.45,-2.75 -1.35,-1.75 -1.4,-3.85 0.05,-2.1 1.35,-3.75 1.35,-1.65 3.35,-2.65 l -0.1,-0.85 q 0.05,-1.7 1.15,-3.1 1.1,-1.35 2.8,-2.15 1.7,-0.8 3.4,-0.85 l 0.65,0.05 q 1.95,-2.75 5.1,-4.4 3.2,-1.6 6.6,-1.65 3.05,0.05 6.05,1.45 3,1.4 5.05,3.85 2.05,2.4 2.3,5.4 1.85,0.4 3.5,1.45 1.7,1.05 2.75,2.6 1.05,1.5 1.05,3.3 -0.05,2.1 -1.45,3.8"
         id="path43"
         inkscape:connector-curvature="0"
         style="fill:#29aad6;fill-rule:evenodd;stroke:none" />
      <path
         d="m -37.75,-19.4 q -1.25,1.5 -3.15,2.4 -1.9,0.9 -3.8,0.95 -2,-0.05 -3.9,-1 -1.95,-1 -3.15,-2.65 l -0.2,-0.25 -0.3,0.1 q -1.8,0.55 -3.55,0.55 -2,0.05 -3.7,-0.6 -1.75,-0.65 -2.4,-2.6 l -0.5,-1.3 q -0.4,-0.65 -1.25,-0.45 l 0.65,0.8 0.7,0.9 q 0.55,1.65 -0.1,3.05 -0.65,1.45 -2,2.5 l -3,1.65 q -1.6,0.6 -2.95,0.6 -1.9,0 -3.8,-0.95 -1.85,-0.9 -3.1,-2.45 -1.25,-1.55 -1.3,-3.45 0.05,-1.5 0.9,-2.95 0.9,-1.4 2.25,-2.1 l 2.65,-0.85 q 1.45,-0.25 2.45,0.85 0.45,0.6 0.6,1.35 0.2,0.75 -0.1,1.45 -0.15,0.3 -0.65,0.65 -0.45,0.35 -0.85,0.4 -0.45,0.05 -0.55,-0.55 -0.55,-0.1 -0.45,0.3 l 0.5,0.65 q 0.35,0.15 0.9,0 l 0.9,-0.35 q 0.75,-0.55 1,-1.4 0.25,-0.8 0.05,-1.7 -0.55,-2.1 -2.65,-2.25 -1.6,-0.1 -2.1,-0.9 -0.5,-0.8 0.55,-2.15 l 1.95,-1.5 2.85,-0.95 2.65,0.2 q 1.2,0.45 1.5,2 l -0.15,0.7 -0.2,0.65 q 0,0.3 0.5,0.45 1,0.2 1,-0.45 0,-0.7 -0.45,-1.55 l -0.65,-1.3 q -0.45,-0.6 -1.05,-0.9 -0.65,-0.25 -0.7,-0.85 0.05,-0.75 0.95,-1.4 l 1.4,-1.05 q 1.7,-1.2 3.7,-1.85 2,-0.7 4.05,-0.7 l 4.2,0.75 q 2.15,0.75 4,2.15 2.75,2 3.9,5.25 0.35,1.1 0,1.65 -0.35,0.5 -1.05,0.85 -0.75,0.3 -1.5,0.8 -0.9,0.6 -1.3,1.6 -0.45,1.05 -0.2,2.15 0.35,1.25 1.2,1.9 0.8,0.6 2.15,0.45 1,-0.2 1.2,-0.9 0.2,-0.7 -0.1,-1.25 -0.35,-0.5 -0.85,-0.2 l 0.55,0.2 q 0.15,0.9 -0.4,1.15 l -1.25,0.1 q -0.7,-0.15 -1.1,-0.6 -0.65,-0.85 -0.5,-1.8 0.15,-0.95 0.7,-1.7 1.15,-1.55 2.8,-1.75 1.6,-0.15 3.2,0.65 1.55,0.85 2.65,2.25 1.05,1.45 1.1,3.1 -0.05,1.9 -1.35,3.45"
         id="path45"
         inkscape:connector-curvature="0"
         style="fill:#e6faff;fill-rule:evenodd;stroke:none" />
      <path
         d="m -40.9,-16.95 q -1.9,0.9 -3.8,0.9 -2,0 -3.9,-1 -1.9,-1 -3.15,-2.6 l -0.2,-0.25 -0.3,0.05 q -1.8,0.55 -3.55,0.55 -1.95,0.05 -3.7,-0.6 -1.75,-0.6 -2.4,-2.6 l -0.5,-1.25 q -0.35,-0.65 -1.2,-0.5 0.6,-1.65 0.05,-3.7 0.75,2.4 2.45,4 1.75,1.65 4.1,1.9 1.45,0.3 2.65,-0.4 1.25,-0.65 1.6,-1.9 0.35,-1.25 -0.85,-2.65 2.4,0.85 4.45,0 2.05,-0.9 3,-2.8 1.15,-2.3 0.75,-4.8 1.1,1.4 1.7,3.1 0.35,1.1 0,1.65 -0.35,0.55 -1.05,0.85 l -1.5,0.8 q -0.9,0.65 -1.3,1.65 -0.45,1 -0.2,2.1 0.35,1.25 1.2,1.9 0.8,0.65 2.15,0.45 1,-0.2 1.2,-0.9 0.2,-0.7 -0.1,-1.2 -0.3,-0.55 -0.85,-0.2 l 0.55,0.15 q 0.15,0.9 -0.35,1.15 l -1.25,0.15 q -0.75,-0.15 -1.15,-0.65 -0.65,-0.8 -0.5,-1.75 0.15,-1 0.7,-1.75 1.15,-1.55 2.8,-1.7 1.6,-0.2 3.2,0.65 1.6,0.8 2.65,2.25 1.05,1.4 1.1,3.1 -0.05,1.9 -1.35,3.4 -1.25,1.55 -3.15,2.45"
         id="path47"
         inkscape:connector-curvature="0"
         style="fill:#c5f1fc;fill-rule:evenodd;stroke:none" />
      <path
         d="m -67.4,-15.3 q -1.6,0.6 -2.95,0.6 -1.9,0 -3.8,-0.95 -1.85,-0.9 -3.1,-2.45 -1.25,-1.55 -1.3,-3.5 0.05,-1.4 0.8,-2.75 0.8,-1.35 2.05,-2.1 -0.15,2.2 0.85,4.05 1,1.85 2.9,2.55 1.65,0.45 3.35,0 1.7,-0.45 3,-1.55 1.35,-1.15 1.95,-2.8 l 0.65,0.8 0.7,0.9 q 0.55,1.65 -0.1,3.05 -0.65,1.4 -2,2.5 l -3,1.65"
         id="path49"
         inkscape:connector-curvature="0"
         style="fill:#c5f1fc;fill-rule:evenodd;stroke:none" />
      <path
         d="m 187.05,-35 q 1.4,2 1.45,4.4 -0.05,2.8 -1.9,5.1 -1.85,2.3 -4.65,3.6 -2.75,1.35 -5.6,1.4 -2.95,-0.05 -5.75,-1.5 -2.8,-1.45 -4.6,-3.8 -2.6,0.75 -5.15,0.75 l -4.2,-0.55 q -2.1,-0.55 -4.1,-1.55 -0.6,2.45 -2.5,4.35 -1.85,1.9 -4.4,3 -2.55,1.1 -5.1,1.15 -2.85,-0.05 -5.6,-1.4 -2.75,-1.4 -4.55,-3.7 -1.85,-2.3 -1.9,-5.1 0.05,-2.75 1.8,-5 1.8,-2.2 4.45,-3.5 l -0.1,-1.15 q 0.05,-2.3 1.55,-4.15 1.45,-1.8 3.7,-2.9 2.25,-1.05 4.55,-1.1 l 0.85,0.05 q 1.65,-2.4 4.2,-4.2 2.5,-1.85 5.5,-2.85 2.95,-1 5.85,-1 3.05,0 6.1,1.1 3.1,1.1 5.7,3.05 2.6,1.95 4.25,4.55 1.65,2.55 1.85,5.55 2.5,0.55 4.7,1.95 2.2,1.4 3.6,3.45"
         id="path51"
         inkscape:connector-curvature="0"
         style="fill:#29aad6;fill-rule:evenodd;stroke:none" />
      <path
         d="m 176.9,-42.45 q 0.45,1.45 0,2.2 -0.45,0.7 -1.4,1.15 l -2,1.05 q -1.2,0.85 -1.75,2.2 -0.55,1.3 -0.2,2.8 0.4,1.7 1.55,2.55 1.1,0.85 2.9,0.6 1.35,-0.25 1.6,-1.2 0.25,-0.95 -0.2,-1.65 -0.4,-0.7 -1.1,-0.25 l 0.7,0.25 q 0.25,1.15 -0.45,1.55 l -1.7,0.1 q -0.95,-0.2 -1.5,-0.8 -0.85,-1.1 -0.65,-2.4 0.2,-1.25 0.95,-2.3 1.55,-2.05 3.7,-2.3 2.15,-0.2 4.3,0.9 2.1,1.05 3.5,3 1.4,1.9 1.45,4.1 -0.05,2.55 -1.75,4.6 -1.7,2 -4.2,3.2 -2.5,1.2 -5.1,1.25 -2.65,-0.05 -5.2,-1.35 -2.55,-1.3 -4.15,-3.5 l -0.25,-0.35 -0.4,0.15 q -2.45,0.7 -4.75,0.75 l -3.4,-0.35 q -1.65,-0.3 -2.95,-1.25 -1.25,-0.9 -1.8,-2.7 l -0.7,-1.7 q -0.45,-0.85 -1.6,-0.6 0.2,0.55 0.85,1.05 l 0.95,1.25 q 0.7,2.2 -0.15,4.05 -0.9,1.9 -2.7,3.3 -1.85,1.4 -4,2.2 -2.1,0.8 -3.95,0.8 -2.55,0 -5,-1.25 -2.5,-1.2 -4.15,-3.25 -1.7,-2.1 -1.75,-4.65 0.05,-2 1.2,-3.9 1.2,-1.9 3,-2.8 l 2.3,-0.9 2.45,-0.25 q 1.2,0.15 2,1.15 0.6,0.75 0.85,1.8 0.25,1 -0.15,1.9 l -0.8,0.9 -1.2,0.5 q -0.55,0.1 -0.7,-0.75 -0.75,-0.1 -0.65,0.45 0.15,0.55 0.7,0.85 0.5,0.2 1.2,0 0.75,-0.2 1.15,-0.5 1.05,-0.7 1.4,-1.8 0.35,-1.1 0.05,-2.3 -0.35,-1.4 -1.25,-2.15 -0.95,-0.75 -2.3,-0.85 -2.1,-0.15 -2.75,-1.2 -0.7,-1.05 0.7,-2.9 0.85,-1.05 2.6,-2 1.8,-0.9 3.8,-1.25 l 3.55,0.25 q 1.55,0.65 2,2.7 l -0.2,0.95 -0.25,0.85 q -0.05,0.4 0.65,0.55 1.3,0.3 1.3,-0.6 0,-0.85 -0.55,-2.05 l -0.9,-1.7 -1.4,-1.2 q -0.85,-0.35 -0.95,-1.15 0.05,-0.65 0.6,-1.25 l 1.35,-1.15 1.2,-0.85 q 2.3,-1.6 4.95,-2.5 2.6,-0.9 5.4,-0.9 2.75,0 5.6,1 2.85,1.05 5.3,2.85 3.7,2.7 5.2,7"
         id="path53"
         inkscape:connector-curvature="0"
         style="fill:#e6faff;fill-rule:evenodd;stroke:none" />
      <path
         d="m 185.15,-35 q 1.4,1.9 1.45,4.1 -0.05,2.55 -1.75,4.55 -1.7,2.05 -4.2,3.25 -2.55,1.2 -5.1,1.25 -2.65,-0.05 -5.2,-1.35 -2.55,-1.3 -4.2,-3.5 l -0.25,-0.35 -0.4,0.15 q -2.45,0.7 -4.75,0.7 l -3.4,-0.3 q -1.65,-0.3 -2.9,-1.25 -1.3,-0.9 -1.8,-2.7 l -0.7,-1.7 q -0.5,-0.85 -1.6,-0.65 0.8,-2.25 0.1,-4.95 0.95,3.2 3.25,5.35 2.3,2.15 5.45,2.55 1.95,0.35 3.55,-0.5 1.65,-0.9 2.1,-2.55 0.5,-1.7 -1.1,-3.6 3.2,1.2 5.9,0 2.7,-1.15 4.05,-3.7 0.75,-1.5 0.95,-3.15 0.25,-1.65 0,-3.25 1.5,1.85 2.3,4.15 0.45,1.45 0,2.2 -0.45,0.7 -1.4,1.15 l -2,1.05 q -1.2,0.8 -1.75,2.15 -0.6,1.35 -0.25,2.85 0.45,1.7 1.55,2.55 1.15,0.85 2.9,0.6 1.35,-0.25 1.6,-1.2 0.25,-0.95 -0.15,-1.65 -0.4,-0.7 -1.1,-0.25 l 0.7,0.25 q 0.2,1.15 -0.5,1.55 l -1.65,0.1 q -0.95,-0.2 -1.5,-0.8 -0.85,-1.1 -0.65,-2.4 0.15,-1.25 0.9,-2.3 1.55,-2.05 3.75,-2.3 2.15,-0.2 4.25,0.85 2.1,1.1 3.55,3.05"
         id="path55"
         inkscape:connector-curvature="0"
         style="fill:#c5f1fc;fill-rule:evenodd;stroke:none" />
      <path
         d="m 152.15,-30.45 q 0.7,2.2 -0.15,4.1 -0.9,1.9 -2.7,3.3 -1.85,1.4 -4,2.2 -2.1,0.8 -3.95,0.8 -2.55,0 -5,-1.25 -2.5,-1.2 -4.15,-3.3 -1.7,-2.05 -1.75,-4.6 0.05,-1.9 1.1,-3.7 1.05,-1.8 2.7,-2.8 -0.15,2.95 1.15,5.4 1.3,2.45 3.85,3.4 2.2,0.6 4.45,0 2.25,-0.55 4.05,-2.1 1.8,-1.5 2.6,-3.7 0.25,0.55 0.85,1.05 l 0.95,1.2"
         id="path57"
         inkscape:connector-curvature="0"
         style="fill:#c5f1fc;fill-rule:evenodd;stroke:none" />
      <path
         d="m 248.5,4.15 q -2.7,2.05 -5.9,3.25 -3.2,1.15 -6.35,1.15 -2.9,0 -5.8,-1 -2.9,-1 -5.4,-2.8 -2.55,-1.8 -4.3,-4.15 -3.85,1.15 -7.7,1.2 -3.1,0 -6.3,-0.85 -3.2,-0.85 -6.2,-2.35 -0.9,3.65 -3.7,6.5 -2.8,2.9 -6.65,4.55 -3.8,1.65 -7.65,1.7 -3.15,0 -6.35,-1.2 -3.15,-1.2 -5.8,-3.35 -2.65,-2.1 -4.25,-4.85 -1.6,-2.8 -1.65,-5.95 0.05,-2.75 1.25,-5.15 1.25,-2.4 3.35,-4.35 2.15,-1.95 4.75,-3.25 -0.15,-0.8 -0.15,-1.7 0.1,-3.45 2.3,-6.2 2.25,-2.7 5.6,-4.35 3.35,-1.6 6.85,-1.6 l 1.25,0.05 q 2.5,-3.65 6.3,-6.35 3.8,-2.7 8.2,-4.2 4.45,-1.55 8.85,-1.55 4.55,0.05 9.15,1.65 4.6,1.65 8.5,4.6 3.95,2.9 6.4,6.8 2.45,3.85 2.8,8.35 3.75,0.8 7.05,2.9 3.3,2.1 5.4,5.15 2.1,3.05 2.15,6.65 -0.05,3.15 -1.65,5.9 -1.65,2.7 -4.35,4.8"
         id="path59"
         inkscape:connector-curvature="0"
         style="fill:#29aad6;fill-rule:evenodd;stroke:none" />
      <path
         d="m 250.1,-1.7 q -1.5,2.45 -3.95,4.3 -2.4,1.85 -5.3,2.9 -2.9,1.05 -5.8,1.05 -2.6,0 -5.25,-0.9 Q 227.15,4.7 224.9,3.1 222.6,1.45 221,-0.7 L 220.6,-1.2 220,-1 q -3.65,1.1 -7.1,1.1 l -5.1,-0.45 q -2.5,-0.5 -4.4,-1.9 -1.9,-1.4 -2.7,-4.05 l -0.55,-1.75 q -0.4,-0.95 -1.1,-1.5 -0.65,-0.55 -1.85,-0.25 0.2,0.6 0.75,1.1 l 1.1,1.05 0.9,1.3 q 1.05,3.3 -0.25,6.1 -1.3,2.85 -4.05,4.95 -2.75,2.15 -5.95,3.3 -3.2,1.2 -5.95,1.25 -2.8,-0.05 -5.65,-1.1 -2.9,-1.05 -5.3,-2.95 -2.4,-1.9 -3.9,-4.35 -1.45,-2.5 -1.5,-5.4 0,-1.95 0.85,-3.95 0.85,-2 2.25,-3.6 1.45,-1.65 3.25,-2.5 1.55,-0.75 3.4,-1.3 l 3.65,-0.4 q 1.8,0.2 3.05,1.75 0.9,1.15 1.3,2.65 0.35,1.5 -0.3,2.9 -0.3,0.6 -1.2,1.3 -0.9,0.7 -1.75,0.8 -0.85,0.1 -1.05,-1.15 -0.8,-0.15 -0.95,0.25 -0.1,0.4 0.15,0.9 0.3,0.55 0.8,0.8 0.8,0.3 1.85,0 1.1,-0.3 1.75,-0.75 1.55,-1.05 2.05,-2.7 0.55,-1.7 0.1,-3.45 -0.5,-2.1 -1.9,-3.25 -1.4,-1.1 -3.45,-1.25 -3.15,-0.2 -4.1,-1.8 -1,-1.6 1,-4.35 1.3,-1.6 3.95,-3 2.65,-1.35 5.7,-1.9 l 5.35,0.4 q 2.35,0.95 2.95,4.05 0.05,0.75 -0.3,1.45 l -0.4,1.25 q -0.05,0.55 1,0.85 1.5,0.35 1.85,-0.35 0.3,-0.75 -0.1,-2 l -1,-2.4 -0.95,-1.8 -1.35,-1.3 -1.5,-0.95 q -0.65,-0.45 -0.7,-1.25 0.05,-0.95 0.95,-1.9 l 2,-1.75 1.85,-1.25 q 3.4,-2.4 7.35,-3.75 3.95,-1.35 8.1,-1.35 4.15,0 8.4,1.55 4.3,1.5 7.95,4.25 2.75,2 4.75,4.65 2,2.6 3.1,5.85 0.7,2.2 0,3.25 -0.7,1.1 -2.15,1.75 l -2.95,1.6 q -1.8,1.2 -2.65,3.25 -0.85,2 -0.35,4.2 0.65,2.55 2.35,3.8 1.65,1.3 4.35,0.95 1.5,-0.25 2.1,-1.2 0.55,-0.9 0.45,-1.9 -0.15,-1 -0.7,-1.55 l -1.35,-0.05 0.5,0.2 0.55,0.2 q 0.35,1.75 -0.75,2.3 l -2.45,0.25 q -1.45,-0.35 -2.25,-1.25 -1.3,-1.65 -1,-3.6 0.25,-1.9 1.35,-3.45 2.35,-3.1 5.6,-3.45 3.25,-0.35 6.4,1.3 3.2,1.65 5.3,4.55 2.1,2.85 2.2,6.15 -0.05,2.85 -1.55,5.3"
         id="path61"
         inkscape:connector-curvature="0"
         style="fill:#e6faff;fill-rule:evenodd;stroke:none" />
      <path
         d="m 240.8,5.5 q -2.9,1.05 -5.75,1.05 -2.6,0 -5.25,-0.9 -2.65,-0.95 -4.95,-2.55 -2.3,-1.65 -3.9,-3.8 L 220.6,-1.2 220,-1 q -3.7,1.1 -7.1,1.1 l -5.1,-0.45 q -2.5,-0.5 -4.4,-1.9 -1.9,-1.4 -2.7,-4.05 l -0.6,-1.75 q -0.35,-0.9 -1.05,-1.5 -0.65,-0.55 -1.8,-0.3 1.25,-3.3 0.15,-7.3 0.95,3.1 2.8,5.6 1.9,2.55 4.5,4.15 2.6,1.65 5.7,1.95 l 4.15,-0.25 q 2,-0.65 3.25,-2.15 1.3,-1.45 1.3,-3.45 0,-1.95 -1.85,-4.1 3.15,1.2 6.1,0.8 2.95,-0.45 5.25,-2.15 2.3,-1.7 3.6,-4.2 1.1,-2.25 1.45,-4.7 0.35,-2.45 0,-4.9 2.2,2.75 3.4,6.25 0.7,2.2 0,3.25 -0.65,1.1 -2.1,1.75 l -3,1.6 q -1.75,1.2 -2.65,3.25 -0.85,2 -0.3,4.2 0.65,2.55 2.3,3.8 1.7,1.3 4.4,0.95 1.5,-0.25 2.05,-1.2 0.6,-0.9 0.45,-1.9 -0.15,-1.05 -0.7,-1.55 l -1.35,-0.05 0.55,0.2 0.5,0.2 q 0.35,1.75 -0.7,2.3 l -2.5,0.25 q -1.45,-0.35 -2.25,-1.25 -1.25,-1.65 -1,-3.6 0.3,-1.9 1.4,-3.45 2.35,-3.1 5.6,-3.45 3.2,-0.35 6.4,1.3 3.15,1.65 5.25,4.55 2.15,2.85 2.2,6.15 -0.05,2.85 -1.55,5.3 -1.45,2.45 -3.9,4.3 -2.45,1.85 -5.35,2.9"
         id="path63"
         inkscape:connector-curvature="0"
         style="fill:#c5f1fc;fill-rule:evenodd;stroke:none" />
      <path
         d="m 189.7,8.05 q -3.2,1.15 -5.95,1.2 -2.8,0 -5.65,-1.1 -2.9,-1.05 -5.3,-2.95 -2.4,-1.85 -3.9,-4.35 -1.45,-2.5 -1.5,-5.35 0.05,-2.85 1.65,-5.55 1.55,-2.7 4.05,-4.2 -0.2,2.9 0.65,5.55 0.8,2.7 2.55,4.7 1.75,2.05 4.3,2.95 3.3,0.9 6.7,0 3.35,-0.85 6.05,-3.1 2.65,-2.3 3.9,-5.55 0.35,0.8 1.3,1.55 0.9,0.75 1.4,1.8 1.05,3.3 -0.25,6.1 -1.3,2.85 -4.05,4.95 -2.75,2.15 -5.95,3.35"
         id="path65"
         inkscape:connector-curvature="0"
         style="fill:#c5f1fc;fill-rule:evenodd;stroke:none" />
      <path
         d="m 564.2,60.2 q 2.7,1.35 4.8,3.3 2.15,1.95 3.4,4.4 1.3,2.45 1.3,5.25 -0.05,3.2 -1.65,6 -1.65,2.8 -4.3,4.95 -2.7,2.15 -5.9,3.35 -3.25,1.25 -6.45,1.25 -3.95,-0.05 -7.8,-1.7 -3.85,-1.7 -6.7,-4.65 -2.9,-2.9 -3.8,-6.6 -3.05,1.55 -6.25,2.4 -3.25,0.85 -6.4,0.85 -3.9,0 -7.85,-1.2 -1.75,2.4 -4.35,4.2 -2.55,1.85 -5.5,2.85 -2.95,1.05 -5.85,1.05 -3.25,-0.05 -6.5,-1.2 -3.25,-1.2 -5.95,-3.3 -2.75,-2.1 -4.4,-4.9 -1.65,-2.75 -1.7,-5.95 0.05,-3.65 2.2,-6.75 2.1,-3.1 5.5,-5.25 3.35,-2.15 7.15,-2.95 0.3,-4.55 2.85,-8.5 2.5,-3.9 6.45,-6.85 3.95,-3 8.65,-4.65 4.65,-1.65 9.3,-1.7 4.45,0 8.95,1.55 4.5,1.55 8.35,4.3 3.85,2.75 6.4,6.45 l 1.25,-0.1 q 3.55,0.05 6.95,1.7 3.45,1.6 5.7,4.4 2.25,2.75 2.35,6.25 l -0.2,1.75"
         id="path67"
         inkscape:connector-curvature="0"
         style="fill:#29aad6;fill-rule:evenodd;stroke:none" />
      <path
         d="m 566,62.45 q 1.9,0.95 3.45,2.65 1.5,1.75 2.4,3.85 0.85,2.1 0.9,4.2 -0.05,3.05 -1.65,5.7 -1.55,2.65 -4.1,4.65 -2.55,2 -5.6,3.15 -3.05,1.1 -6.05,1.15 -2.9,-0.05 -6.3,-1.3 -3.45,-1.25 -6.35,-3.5 -2.9,-2.3 -4.3,-5.25 -1.4,-3 -0.25,-6.5 l 0.95,-1.4 1.2,-1.15 q 0.55,-0.5 0.75,-1.15 -1.25,-0.3 -1.95,0.3 -0.75,0.55 -1.15,1.55 l -0.6,1.9 q -0.85,2.8 -2.85,4.25 -2.05,1.5 -4.7,2 l -5.4,0.5 q -3.65,0 -7.55,-1.15 l -0.65,-0.2 -0.4,0.55 q -1.7,2.3 -4.1,4 -2.45,1.75 -5.25,2.7 -2.8,1 -5.6,1 -3.05,0 -6.1,-1.1 -3.1,-1.15 -5.7,-3.1 -2.6,-2 -4.15,-4.6 -1.6,-2.6 -1.65,-5.6 0.1,-3.5 2.35,-6.55 2.25,-3.05 5.6,-4.8 3.35,-1.75 6.8,-1.4 3.45,0.35 5.95,3.65 1.15,1.65 1.45,3.7 0.3,2.05 -1.05,3.8 -0.85,0.95 -2.4,1.3 L 499.3,70 q -1.1,-0.6 -0.75,-2.45 l 0.55,-0.2 0.6,-0.2 -1.45,0.05 q -0.6,0.55 -0.75,1.6 -0.15,1.1 0.45,2.05 0.6,0.95 2.2,1.25 2.9,0.4 4.65,-0.95 1.8,-1.35 2.5,-4.05 0.55,-2.35 -0.35,-4.5 -0.95,-2.15 -2.8,-3.45 l -3.2,-1.7 q -1.5,-0.7 -2.25,-1.8 -0.75,-1.15 0,-3.5 1.2,-3.45 3.3,-6.2 2.1,-2.8 5,-4.95 3.9,-2.9 8.45,-4.5 4.55,-1.65 8.95,-1.65 4.4,0.05 8.6,1.45 4.25,1.45 7.85,3.95 l 1.9,1.35 2.15,1.85 q 0.95,1 1,2 -0.05,0.85 -0.75,1.35 l -1.55,1 q -0.9,0.5 -1.45,1.4 l -1,1.9 -1.1,2.55 q -0.4,1.35 -0.05,2.1 0.35,0.75 1.95,0.4 1.05,-0.3 1.05,-0.9 l -0.45,-1.35 q -0.35,-0.75 -0.3,-1.5 0.65,-3.3 3.15,-4.3 2.5,-1 5.7,-0.45 3.2,0.55 6,2.05 2.85,1.45 4.2,3.15 2.15,2.9 1.1,4.6 -1.05,1.7 -4.4,1.95 -2.15,0.1 -3.65,1.35 -1.5,1.2 -2.05,3.4 -0.45,1.9 0.1,3.65 0.55,1.8 2.2,2.9 l 1.85,0.8 q 1.15,0.3 2,0 l 0.8,-0.85 0.2,-0.95 q -0.15,-0.45 -1,-0.25 -0.2,1.3 -1.1,1.2 -0.9,-0.1 -1.85,-0.85 -0.95,-0.75 -1.3,-1.4 -0.7,-1.45 -0.3,-3.05 0.4,-1.65 1.35,-2.85 1.35,-1.65 3.25,-1.85 l 3.85,0.4 3.65,1.4"
         id="path69"
         inkscape:connector-curvature="0"
         style="fill:#e6faff;fill-rule:evenodd;stroke:none" />
      <path
         d="m 540.85,59.7 q -1.15,4.3 0.15,7.85 -1.2,-0.25 -1.95,0.35 -0.7,0.55 -1.1,1.55 l -0.6,1.85 q -0.85,2.8 -2.85,4.3 -2.05,1.45 -4.7,2 l -5.4,0.5 q -3.65,0 -7.55,-1.2 l -0.65,-0.15 -0.4,0.5 q -1.7,2.3 -4.1,4.05 -2.45,1.7 -5.25,2.7 -2.8,0.95 -5.6,1 -3.05,-0.05 -6.1,-1.15 -3.1,-1.1 -5.7,-3.1 -2.6,-1.95 -4.15,-4.55 -1.6,-2.65 -1.65,-5.65 0.1,-3.5 2.35,-6.55 2.25,-3.05 5.6,-4.8 3.35,-1.75 6.8,-1.35 3.45,0.35 5.95,3.65 1.15,1.6 1.45,3.65 0.3,2.05 -1.05,3.8 -0.85,1 -2.4,1.35 l -2.65,-0.25 q -1.1,-0.6 -0.75,-2.45 l 0.55,-0.25 0.6,-0.15 q -0.85,-0.55 -1.45,0 -0.6,0.55 -0.75,1.65 -0.15,1.05 0.45,2.05 0.6,0.95 2.2,1.25 2.9,0.35 4.65,-1 1.8,-1.35 2.5,-4 0.55,-2.35 -0.35,-4.5 -0.95,-2.15 -2.8,-3.45 l -3.2,-1.7 q -1.5,-0.7 -2.25,-1.85 -0.75,-1.15 0,-3.5 1.25,-3.65 3.65,-6.6 -0.4,2.6 -0.05,5.2 0.4,2.6 1.6,4.95 1.35,2.7 3.8,4.5 2.45,1.8 5.6,2.25 3.1,0.5 6.45,-0.8 -1.95,2.25 -1.95,4.35 0,2.1 1.35,3.7 1.35,1.55 3.45,2.3 l 4.4,0.25 q 3.3,-0.4 6.1,-2.1 2.75,-1.7 4.75,-4.4 2,-2.75 3,-6.05"
         id="path71"
         inkscape:connector-curvature="0"
         style="fill:#c5f1fc;fill-rule:evenodd;stroke:none" />
      <path
         d="m 571.95,69.25 q 0.8,2 0.8,3.95 0,3.05 -1.6,5.7 -1.55,2.65 -4.1,4.65 -2.6,2 -5.6,3.1 -3.05,1.15 -6.05,1.15 -2.9,0 -6.35,-1.3 -3.4,-1.25 -6.3,-3.5 -2.9,-2.25 -4.3,-5.25 -1.4,-3 -0.25,-6.5 0.3,-0.75 0.9,-1.35 l 1.15,-1.1 0.8,-1.15 q 1.3,3.5 4.15,5.9 2.85,2.4 6.45,3.35 3.6,0.9 7.1,-0.05 2.7,-0.95 4.55,-3.1 1.85,-2.15 2.75,-5 0.9,-2.85 0.7,-5.9 1.7,1 3.1,2.7 1.35,1.7 2.1,3.7"
         id="path73"
         inkscape:connector-curvature="0"
         style="fill:#c5f1fc;fill-rule:evenodd;stroke:none" />
      <path
         d="m 701,57.15 q 2.8,1.4 5.05,3.45 2.3,2.1 3.65,4.7 1.3,2.6 1.35,5.55 -0.05,3.35 -1.8,6.35 -1.7,2.95 -4.55,5.25 -2.85,2.25 -6.25,3.55 -3.4,1.3 -6.8,1.3 -4.15,-0.05 -8.25,-1.85 -4.1,-1.75 -7.1,-4.85 -3.05,-3.1 -4,-7 -3.2,1.65 -6.65,2.55 -3.4,0.85 -6.75,0.9 -4.1,-0.05 -8.3,-1.3 -1.9,2.55 -4.6,4.45 -2.7,1.95 -5.8,3 -3.15,1.1 -6.25,1.1 -3.4,0 -6.85,-1.25 -3.4,-1.25 -6.3,-3.5 -2.9,-2.2 -4.65,-5.15 -1.75,-2.9 -1.8,-6.3 0.05,-3.9 2.3,-7.15 2.3,-3.3 5.85,-5.55 3.55,-2.25 7.6,-3.15 0.3,-4.8 2.95,-8.95 2.65,-4.15 6.85,-7.3 4.2,-3.15 9.15,-4.9 4.95,-1.75 9.85,-1.8 4.75,0 9.5,1.65 4.75,1.6 8.8,4.55 4.05,2.9 6.75,6.8 l 1.35,-0.05 q 3.75,0 7.4,1.75 3.6,1.7 6,4.65 2.35,2.95 2.45,6.65 L 701,57.15"
         id="path75"
         inkscape:connector-curvature="0"
         style="fill:#29aad6;fill-rule:evenodd;stroke:none" />
      <path
         d="m 697.9,49.35 q 2.3,3.1 1.15,4.9 -1.1,1.75 -4.65,2 -2.3,0.15 -3.85,1.45 -1.6,1.25 -2.15,3.6 -0.5,2 0.1,3.9 0.6,1.85 2.3,3.05 0.75,0.5 2,0.85 1.2,0.3 2.05,0 l 0.9,-0.9 q 0.35,-0.6 0.2,-1.05 -0.15,-0.45 -1.05,-0.25 -0.25,1.4 -1.2,1.3 -0.95,-0.1 -1.95,-0.9 l -1.4,-1.5 q -0.7,-1.55 -0.3,-3.25 0.45,-1.7 1.45,-3 1.4,-1.7 3.4,-1.95 2,-0.2 4.15,0.45 2.1,0.65 3.85,1.5 2,0.95 3.6,2.75 1.6,1.85 2.55,4.1 0.95,2.25 0.95,4.45 -0.05,3.2 -1.7,6 -1.65,2.8 -4.35,4.95 -2.75,2.1 -5.95,3.3 -3.25,1.2 -6.4,1.2 -3.05,0 -6.7,-1.35 -3.6,-1.35 -6.65,-3.7 -3.1,-2.4 -4.55,-5.6 -1.5,-3.15 -0.3,-6.85 0.35,-0.8 1,-1.45 l 1.25,-1.2 0.85,-1.25 q -1.35,-0.3 -2.1,0.3 -0.8,0.65 -1.2,1.65 l -0.65,2 q -0.9,3 -3.05,4.55 -2.1,1.55 -4.95,2.1 l -5.7,0.55 q -3.9,0 -8,-1.25 l -0.7,-0.2 -0.4,0.55 q -1.8,2.45 -4.35,4.25 -2.6,1.85 -5.55,2.9 -2.95,1 -5.9,1.05 -3.25,-0.05 -6.5,-1.2 -3.25,-1.2 -6,-3.3 -2.75,-2.05 -4.45,-4.8 -1.65,-2.75 -1.7,-5.95 0.1,-3.75 2.45,-6.95 2.4,-3.25 5.95,-5.1 3.55,-1.85 7.2,-1.45 3.65,0.35 6.3,3.85 1.25,1.75 1.55,3.9 0.3,2.15 -1.1,4.05 l -1.8,1.15 -2.25,0.35 q -1.15,-0.1 -1.75,-0.8 -0.65,-0.7 -0.35,-2.2 l 0.6,-0.2 0.6,-0.2 q -0.9,-0.55 -1.55,0 -0.65,0.6 -0.75,1.75 -0.15,1.15 0.45,2.15 0.65,1.05 2.35,1.35 3.05,0.4 4.9,-1.05 1.9,-1.4 2.65,-4.25 0.55,-2.5 -0.4,-4.75 -0.95,-2.3 -2.95,-3.65 l -3.35,-1.8 q -1.6,-0.75 -2.4,-1.95 -0.8,-1.2 0,-3.7 1.25,-3.65 3.5,-6.55 2.25,-2.95 5.3,-5.25 4.15,-3.1 8.95,-4.8 4.8,-1.7 9.45,-1.7 4.65,0.05 9.1,1.55 4.5,1.5 8.3,4.2 l 2.05,1.4 q 1.25,0.9 2.25,1.95 1,1.05 1.05,2.1 -0.05,0.95 -0.8,1.45 l -1.65,1.1 q -0.9,0.5 -1.5,1.45 l -1.1,2 q -0.7,1.3 -1.1,2.7 -0.45,1.4 -0.1,2.2 0.35,0.85 2.05,0.45 1.15,-0.35 1.1,-0.95 l -0.45,-1.45 q -0.4,-0.8 -0.35,-1.6 0.55,-2.8 2.4,-4 1.85,-1.2 4.4,-1.2 2.55,0 5.2,0.8 2.7,0.85 4.9,2.2 2.2,1.3 3.3,2.7"
         id="path77"
         inkscape:connector-curvature="0"
         style="fill:#e6faff;fill-rule:evenodd;stroke:none" />
      <path
         d="m 661.6,69.85 q 3.5,-0.4 6.45,-2.2 2.95,-1.85 5.05,-4.7 2.1,-2.85 3.2,-6.4 -1.25,4.55 0.1,8.35 -1.25,-0.3 -2.05,0.35 -0.75,0.6 -1.15,1.65 l -0.65,1.95 q -0.9,3 -3.05,4.55 -2.1,1.55 -4.95,2.1 l -5.7,0.55 q -3.9,0 -8,-1.25 l -0.7,-0.2 -0.4,0.55 q -1.8,2.45 -4.35,4.25 -2.6,1.85 -5.55,2.9 -2.95,1 -5.9,1.05 -3.25,-0.05 -6.5,-1.2 -3.25,-1.2 -6,-3.25 -2.75,-2.1 -4.45,-4.85 -1.65,-2.75 -1.7,-5.95 0.1,-3.75 2.45,-6.95 2.4,-3.25 5.95,-5.1 3.55,-1.85 7.2,-1.45 3.65,0.35 6.3,3.85 1.25,1.75 1.55,3.9 0.3,2.15 -1.1,4.05 l -1.8,1.15 -2.25,0.35 q -1.15,-0.1 -1.75,-0.8 -0.65,-0.7 -0.35,-2.2 l 0.6,-0.2 0.6,-0.2 q -0.9,-0.55 -1.55,0 -0.65,0.6 -0.75,1.75 -0.15,1.15 0.45,2.15 0.65,1.05 2.35,1.35 3.05,0.4 4.9,-1.05 1.9,-1.4 2.65,-4.25 0.55,-2.5 -0.4,-4.75 -0.95,-2.3 -2.95,-3.65 l -3.35,-1.8 q -1.6,-0.75 -2.4,-1.95 -0.8,-1.2 0,-3.7 1.35,-3.9 3.85,-7 -0.4,2.75 0,5.5 0.4,2.75 1.65,5.25 1.45,2.85 4.05,4.75 2.6,1.9 5.9,2.4 3.3,0.5 6.8,-0.85 -2.05,2.4 -2.05,4.6 0.05,2.2 1.45,3.9 1.45,1.65 3.65,2.4 l 4.65,0.3"
         id="path79"
         inkscape:connector-curvature="0"
         style="fill:#c5f1fc;fill-rule:evenodd;stroke:none" />
      <path
         d="m 703.6,59.9 q 1.85,1.1 3.3,2.85 1.45,1.8 2.25,3.9 0.85,2.1 0.85,4.2 -0.05,3.2 -1.7,6 -1.65,2.8 -4.35,4.95 -2.75,2.1 -5.95,3.3 -3.2,1.2 -6.4,1.2 -3.05,0 -6.65,-1.35 -3.6,-1.35 -6.7,-3.7 -3.1,-2.4 -4.55,-5.6 -1.45,-3.15 -0.25,-6.85 0.3,-0.8 0.95,-1.4 l 1.2,-1.2 0.85,-1.2 q 1.4,3.7 4.4,6.25 3,2.5 6.8,3.5 3.8,0.95 7.5,-0.05 2.9,-1 4.85,-3.25 1.95,-2.3 2.9,-5.3 0.9,-3 0.7,-6.25"
         id="path81"
         inkscape:connector-curvature="0"
         style="fill:#c5f1fc;fill-rule:evenodd;stroke:none" />
      <path
         d="m 435.8,-48.8 q 4.05,2 7.3,4.95 3.25,3 5.15,6.7 1.9,3.75 1.95,7.95 -0.05,4.85 -2.5,9.1 -2.5,4.25 -6.55,7.5 -4.05,3.25 -8.95,5.05 -4.85,1.85 -9.75,1.9 -4.4,0 -8.85,-1.5 -4.45,-1.5 -8.4,-4.15 -3.9,-2.65 -6.65,-6.2 -2.75,-3.55 -3.75,-7.75 -4.65,2.35 -9.5,3.6 -4.9,1.3 -9.7,1.3 -5.9,-0.05 -11.85,-1.85 -2.7,3.65 -6.6,6.4 -3.85,2.75 -8.3,4.3 -4.5,1.55 -8.9,1.6 -4.9,-0.05 -9.8,-1.85 -4.95,-1.8 -9.05,-4.95 -4.15,-3.2 -6.65,-7.4 -2.55,-4.2 -2.6,-9.05 0.05,-4.15 1.95,-7.85 1.85,-3.7 5.05,-6.7 3.2,-3 7.2,-5.1 4,-2.05 8.3,-3 0.35,-5.5 2.9,-10.4 2.55,-4.95 6.75,-9.05 4.15,-4.1 9.4,-7.1 5.2,-3 10.9,-4.65 5.7,-1.65 11.3,-1.65 6.75,0.05 13.55,2.35 6.8,2.3 12.65,6.5 5.8,4.15 9.65,9.75 l 1.95,-0.1 q 4,0 8,1.45 3.95,1.4 7.3,3.95 3.3,2.55 5.3,5.95 2.05,3.4 2.1,7.35 l -0.3,2.65"
         id="path83"
         inkscape:connector-curvature="0"
         style="fill:#29aad6;fill-rule:evenodd;stroke:none" />
      <path
         d="m 438.6,-45.4 q 2.9,1.35 5.15,3.95 2.3,2.65 3.65,5.85 1.35,3.2 1.35,6.35 -0.05,4.65 -2.4,8.65 -2.4,4 -6.25,7.05 -3.9,3 -8.5,4.7 -4.6,1.7 -9.15,1.75 -3.5,0 -7.55,-1.25 -4.1,-1.25 -7.95,-3.55 -3.9,-2.25 -6.8,-5.4 -2.85,-3.1 -4,-6.85 -1.15,-3.8 0.3,-8 0.45,-1.2 1.35,-2.1 l 1.85,-1.7 q 0.85,-0.8 1.15,-1.75 -1.85,-0.5 -3,0.4 -1.1,0.9 -1.7,2.4 l -0.9,2.8 q -1.3,4.3 -4.35,6.5 -3.1,2.25 -7.1,3.05 l -8.2,0.75 q -5.55,0 -11.45,-1.75 l -0.95,-0.3 -0.6,0.8 q -2.55,3.45 -6.25,6.1 -3.7,2.6 -7.95,4.1 -4.25,1.45 -8.45,1.5 -4.6,-0.05 -9.25,-1.7 -4.65,-1.7 -8.6,-4.7 -3.95,-3 -6.35,-6.95 -2.4,-3.95 -2.45,-8.5 0.05,-4.2 2.35,-8.05 2.25,-3.9 5.9,-6.7 3.65,-2.85 7.85,-4.05 4.25,-1.15 8.25,-0.05 4,1.1 7,5.1 1.15,1.6 1.75,3.6 0.65,1.95 0.45,3.95 -0.2,2.05 -1.6,3.8 -0.95,1.05 -2.55,1.65 -1.6,0.6 -3.2,0.5 -1.65,-0.1 -2.55,-1.1 -0.95,-1.05 -0.5,-3.15 l 0.9,-0.35 0.85,-0.25 q -1.25,-0.85 -2.2,0 -0.9,0.9 -1.1,2.5 -0.25,1.6 0.7,3.1 0.9,1.45 3.35,1.9 4.3,0.55 7,-1.5 2.7,-2.05 3.75,-6.1 0.85,-3.55 -0.55,-6.8 -1.35,-3.25 -4.2,-5.2 -1.85,-1.2 -3.65,-2.05 -1.85,-0.8 -3.2,-1.8 -1.35,-0.95 -1.8,-2.55 -0.45,-1.55 0.45,-4.25 1.75,-5.2 4.95,-9.4 3.2,-4.2 7.6,-7.5 3.9,-2.9 8.3,-5 4.45,-2.1 9,-3.2 4.6,-1.1 9,-1.1 6.7,0.05 13.05,2.2 6.4,2.15 11.85,6 l 2.95,2.05 3.25,2.75 q 1.4,1.55 1.5,3.05 -0.1,1.3 -1.15,2.05 l -2.4,1.55 q -1.3,0.75 -2.15,2.05 l -1.55,2.9 q -1,1.9 -1.6,3.9 -0.65,2 -0.15,3.15 0.55,1.15 2.95,0.6 1.3,-0.35 1.5,-0.95 0.25,-0.6 -0.1,-1.35 l -0.65,-1.65 q -0.35,-0.9 -0.25,-1.75 0.75,-4 3.4,-5.75 2.65,-1.7 6.3,-1.7 3.65,0 7.45,1.2 3.8,1.2 6.95,3.1 3.15,1.85 4.75,3.9 2.2,2.9 2.2,5.05 -0.05,2.1 -1.95,3.35 -1.9,1.25 -5.25,1.45 -3.3,0.2 -5.55,2.05 -2.25,1.8 -3.05,5.15 -0.65,2.9 0.15,5.55 0.85,2.7 3.3,4.4 0.7,0.45 1.75,0.85 l 2.15,0.55 1.9,-0.2 q 0.8,-0.4 1.3,-1.25 0.45,-0.9 0.25,-1.5 -0.25,-0.6 -1.5,-0.35 -0.2,1.5 -1.1,1.75 -0.85,0.25 -2,-0.3 -1.1,-0.55 -2.05,-1.45 -0.95,-0.9 -1.35,-1.6 -1,-2.2 -0.4,-4.65 0.6,-2.4 2.05,-4.25 2,-2.5 4.9,-2.8 2.85,-0.3 5.9,0.6 3,0.95 5.5,2.15"
         id="path85"
         inkscape:connector-curvature="0"
         style="fill:#e6faff;fill-rule:evenodd;stroke:none" />
      <path
         d="m 395.95,-40.55 q 3,-4 4.5,-8.95 -0.9,3.15 -0.8,6.05 0.1,3 1.05,5.7 -1.85,-0.45 -2.9,0.45 -1.1,0.9 -1.7,2.4 -0.6,1.5 -0.9,2.8 -1.3,4.25 -4.35,6.5 -3.1,2.25 -7.1,3.05 l -8.2,0.75 q -5.55,0 -11.45,-1.8 l -0.95,-0.3 -0.6,0.85 q -2.55,3.45 -6.25,6.05 -3.7,2.65 -7.95,4.1 -4.25,1.5 -8.45,1.5 -4.6,0 -9.25,-1.7 -4.65,-1.65 -8.6,-4.65 -3.95,-3 -6.35,-6.95 -2.4,-3.95 -2.45,-8.5 0.05,-4.25 2.35,-8.1 2.25,-3.85 5.9,-6.7 3.65,-2.8 7.85,-4 4.25,-1.2 8.25,-0.1 4,1.1 7,5.15 1.15,1.6 1.75,3.55 0.65,2 0.45,4 -0.2,2 -1.6,3.75 -0.95,1.1 -2.55,1.7 -1.6,0.6 -3.2,0.45 -1.65,-0.1 -2.55,-1.1 -0.95,-1 -0.5,-3.15 l 0.9,-0.3 0.85,-0.3 -2.2,0.05 q -0.9,0.85 -1.1,2.45 -0.25,1.65 0.7,3.1 0.9,1.5 3.35,1.9 4.3,0.6 7,-1.45 2.7,-2.05 3.75,-6.1 0.85,-3.55 -0.55,-6.8 -1.35,-3.25 -4.2,-5.25 l -3.65,-2 q -1.85,-0.85 -3.2,-1.8 -1.35,-0.95 -1.8,-2.55 -0.45,-1.6 0.45,-4.3 1.9,-5.55 5.45,-10 -0.6,3.9 0,7.85 0.55,3.95 2.35,7.55 2.05,4.05 5.8,6.8 3.7,2.7 8.45,3.45 4.7,0.7 9.75,-1.25 -2.9,3.45 -2.9,6.6 0,3.15 2.05,5.55 2.05,2.35 5.2,3.45 3.2,1.1 6.65,0.4 5.05,-0.55 9.25,-3.15 4.2,-2.6 7.2,-6.7"
         id="path87"
         inkscape:connector-curvature="0"
         style="fill:#c5f1fc;fill-rule:evenodd;stroke:none" />
      <path
         d="m 439.6,-44.9 q 2.65,1.55 4.7,4.1 2.05,2.55 3.25,5.55 1.2,3.05 1.2,6 -0.05,4.65 -2.4,8.65 -2.4,4 -6.3,7 -3.85,3.05 -8.45,4.75 -4.6,1.7 -9.15,1.75 -3.5,-0.05 -7.55,-1.25 -4.1,-1.25 -7.95,-3.55 -3.9,-2.25 -6.8,-5.4 -2.9,-3.1 -4.05,-6.85 -1.1,-3.8 0.3,-8 0.45,-1.15 1.4,-2.05 l 1.75,-1.7 1.2,-1.7 q 1.45,3.95 4.3,7 2.85,3.05 6.6,5 3.7,1.9 7.8,2.45 4.1,0.55 8.05,-0.55 4.15,-1.4 6.95,-4.65 2.8,-3.3 4.1,-7.6 1.35,-4.3 1.05,-8.95"
         id="path89"
         inkscape:connector-curvature="0"
         style="fill:#c5f1fc;fill-rule:evenodd;stroke:none" />
      <path
         d="m 351.7,14.55 q 2.75,1.75 4.5,4.3 1.75,2.55 1.8,5.55 -0.1,3.5 -2.4,6.35 -2.3,2.85 -5.75,4.5 -3.5,1.7 -7.05,1.75 -3.65,-0.05 -7.15,-1.85 -3.5,-1.8 -5.75,-4.8 -3.25,0.95 -6.45,1 l -5.25,-0.7 q -2.65,-0.7 -5.15,-2 -0.75,3.05 -3.1,5.45 -2.35,2.4 -5.5,3.8 -3.2,1.35 -6.4,1.4 -3.55,-0.05 -7,-1.75 -3.4,-1.75 -5.7,-4.6 -2.25,-2.9 -2.35,-6.4 0.1,-3.45 2.25,-6.25 2.2,-2.75 5.55,-4.4 l -0.15,-1.45 q 0.1,-2.85 1.95,-5.15 1.85,-2.25 4.65,-3.6 2.8,-1.35 5.7,-1.35 L 304,4.4 q 2.1,-3.05 5.25,-5.3 3.15,-2.25 6.85,-3.5 3.7,-1.3 7.35,-1.3 3.8,0 7.65,1.4 3.85,1.35 7.1,3.8 3.25,2.45 5.3,5.65 2.05,3.25 2.3,6.95 3.1,0.7 5.9,2.45"
         id="path91"
         inkscape:connector-curvature="0"
         style="fill:#29aad6;fill-rule:evenodd;stroke:none" />
      <path
         d="m 353.8,18.9 q 1.75,2.4 1.8,5.15 -0.1,3.15 -2.2,5.7 -2.1,2.55 -5.25,4.05 -3.15,1.55 -6.35,1.55 -3.3,-0.05 -6.5,-1.7 -3.2,-1.6 -5.25,-4.35 l -0.3,-0.4 -0.5,0.15 q -3.05,0.9 -5.9,0.9 l -4.25,-0.4 q -2.1,-0.4 -3.7,-1.55 -1.55,-1.15 -2.25,-3.35 l -0.45,-1.5 -0.9,-1.2 q -0.6,-0.5 -1.55,-0.25 0.25,0.75 1.05,1.35 0.8,0.65 1.2,1.55 0.9,2.75 -0.2,5.1 -1.05,2.35 -3.35,4.1 -2.3,1.8 -4.95,2.75 -2.7,1 -4.95,1.05 -3.15,-0.05 -6.3,-1.6 -3.1,-1.5 -5.2,-4.1 -2.05,-2.6 -2.15,-5.8 0,-1.65 0.7,-3.3 0.7,-1.65 1.9,-3 1.2,-1.35 2.65,-2.1 1.3,-0.6 2.85,-1.1 l 3.1,-0.3 q 1.45,0.15 2.5,1.45 0.75,0.95 1.05,2.2 0.35,1.3 -0.2,2.45 l -1,1.1 q -0.75,0.55 -1.45,0.65 -0.75,0.05 -0.9,-0.95 -0.65,-0.15 -0.75,0.2 -0.15,0.3 0.1,0.75 l 0.65,0.65 q 0.65,0.25 1.55,0 l 1.45,-0.6 q 1.3,-0.9 1.75,-2.3 0.4,-1.35 0.05,-2.85 -0.4,-1.75 -1.55,-2.7 -1.2,-0.95 -2.9,-1.05 -2.6,-0.2 -3.45,-1.5 -0.8,-1.35 0.9,-3.6 1.05,-1.35 3.25,-2.5 2.25,-1.15 4.75,-1.6 l 4.45,0.35 q 1.95,0.8 2.5,3.35 l -0.25,1.2 -0.35,1.05 q -0.05,0.45 0.8,0.7 1.25,0.3 1.55,-0.3 0.25,-0.6 -0.05,-1.65 l -0.85,-2 -0.8,-1.5 -1.1,-1.1 -1.25,-0.75 q -0.55,-0.4 -0.6,-1.1 0.05,-0.8 0.8,-1.55 Q 308,2 308.9,1.35 l 1.55,-1.05 q 2.8,-2 6.1,-3.1 3.3,-1.15 6.8,-1.15 3.45,0 7,1.3 3.55,1.25 6.6,3.5 2.3,1.7 3.95,3.9 1.65,2.2 2.55,4.85 0.6,1.85 0.05,2.75 -0.6,0.9 -1.8,1.45 l -2.5,1.35 q -1.45,1 -2.15,2.7 -0.75,1.65 -0.3,3.5 0.55,2.1 1.95,3.2 1.4,1.05 3.65,0.75 1.25,-0.25 1.7,-1 0.5,-0.75 0.4,-1.6 -0.15,-0.85 -0.6,-1.3 -0.5,-0.4 -1.15,0 l 0.9,0.3 q 0.3,1.45 -0.6,1.95 l -2.05,0.2 q -1.2,-0.3 -1.9,-1.05 -1.05,-1.4 -0.8,-3 0.2,-1.6 1.15,-2.85 1.95,-2.6 4.65,-2.9 2.7,-0.25 5.35,1.1 2.6,1.35 4.4,3.75"
         id="path93"
         inkscape:connector-curvature="0"
         style="fill:#e6faff;fill-rule:evenodd;stroke:none" />
      <path
         d="m 353.4,29.8 q -2.1,2.55 -5.25,4.05 -3.15,1.5 -6.35,1.55 -3.3,-0.05 -6.5,-1.7 -3.2,-1.65 -5.25,-4.35 l -0.3,-0.45 -0.5,0.15 Q 326.2,30 323.35,30 l -4.25,-0.4 q -2.1,-0.4 -3.7,-1.6 -1.55,-1.15 -2.25,-3.35 l -0.45,-1.45 -0.9,-1.25 q -0.55,-0.45 -1.5,-0.25 1.05,-2.8 0.1,-6.15 1.2,3.95 4.1,6.65 2.85,2.7 6.8,3.2 2.4,0.45 4.45,-0.65 2.05,-1.15 2.65,-3.2 0.55,-2.05 -1.4,-4.45 2.6,1 5.05,0.65 2.45,-0.4 4.35,-1.8 1.95,-1.4 3,-3.5 0.95,-1.9 1.25,-3.95 0.3,-2.05 0,-4.05 1.85,2.3 2.8,5.2 0.6,1.85 0.05,2.75 -0.6,0.85 -1.8,1.4 l -2.5,1.35 q -1.45,1 -2.15,2.7 -0.75,1.7 -0.3,3.55 0.55,2.1 1.95,3.15 1.4,1.05 3.65,0.75 1.25,-0.2 1.7,-1 0.5,-0.75 0.4,-1.6 -0.15,-0.8 -0.6,-1.25 -0.5,-0.45 -1.15,0 l 0.9,0.3 q 0.3,1.45 -0.6,1.9 l -2.05,0.2 q -1.2,-0.25 -1.9,-1.05 -1.05,-1.35 -0.8,-2.95 0.2,-1.6 1.15,-2.9 1.95,-2.6 4.65,-2.85 2.7,-0.3 5.35,1.05 2.6,1.4 4.4,3.8 1.75,2.35 1.8,5.15 -0.1,3.15 -2.2,5.7"
         id="path95"
         inkscape:connector-curvature="0"
         style="fill:#c5f1fc;fill-rule:evenodd;stroke:none" />
      <path
         d="m 308.95,33.8 q -2.3,1.8 -4.95,2.75 -2.7,1 -4.95,1.05 -3.15,-0.05 -6.3,-1.6 -3.1,-1.5 -5.2,-4.1 -2.05,-2.6 -2.15,-5.8 0.05,-2.35 1.35,-4.6 1.3,-2.25 3.4,-3.5 -0.15,2.4 0.55,4.65 0.65,2.25 2.15,3.9 1.45,1.7 3.55,2.45 2.75,0.75 5.55,0 2.85,-0.7 5.05,-2.6 2.25,-1.9 3.25,-4.6 0.3,0.7 1.1,1.3 0.8,0.6 1.15,1.5 0.9,2.75 -0.2,5.1 -1.05,2.35 -3.35,4.1"
         id="path97"
         inkscape:connector-curvature="0"
         style="fill:#c5f1fc;fill-rule:evenodd;stroke:none" />
      <path
         d="m 501.05,-18.8 q -1.35,1.7 -3.45,2.75 -2.1,1 -4.2,1 -2.2,0 -4.3,-1.1 -2.1,-1.1 -3.45,-2.9 l -3.85,0.6 q -3.2,0 -6.25,-1.6 -0.45,1.85 -1.85,3.25 -1.45,1.45 -3.35,2.3 -1.9,0.85 -3.8,0.85 -2.15,-0.05 -4.2,-1.05 -2.05,-1.05 -3.45,-2.75 -1.35,-1.75 -1.4,-3.85 0.05,-2.1 1.35,-3.75 1.35,-1.65 3.35,-2.65 l -0.1,-0.85 q 0.05,-1.7 1.15,-3.1 1.1,-1.35 2.8,-2.15 1.7,-0.8 3.4,-0.85 l 0.65,0.05 q 1.95,-2.75 5.1,-4.4 3.2,-1.6 6.6,-1.65 3.05,0.05 6.05,1.45 3,1.4 5.05,3.85 2.05,2.4 2.3,5.4 1.85,0.4 3.5,1.45 1.7,1.05 2.75,2.6 1.05,1.5 1.05,3.3 -0.05,2.1 -1.45,3.8"
         id="path99"
         inkscape:connector-curvature="0"
         style="fill:#29aad6;fill-rule:evenodd;stroke:none" />
      <path
         d="m 499.75,-19.4 q -1.25,1.5 -3.15,2.4 -1.9,0.9 -3.8,0.95 -2,-0.05 -3.9,-1 -1.95,-1 -3.15,-2.65 l -0.2,-0.25 -0.3,0.1 -3.55,0.55 q -2,0.05 -3.7,-0.6 -1.75,-0.65 -2.4,-2.6 l -0.5,-1.3 q -0.4,-0.65 -1.25,-0.45 0.15,0.45 0.65,0.8 l 0.7,0.9 q 0.55,1.65 -0.1,3.05 -0.65,1.45 -2,2.5 -1.4,1.05 -3,1.65 -1.6,0.6 -2.95,0.6 -1.9,0 -3.8,-0.95 -1.85,-0.9 -3.1,-2.45 -1.25,-1.55 -1.3,-3.45 0.05,-1.5 0.9,-2.95 0.9,-1.4 2.25,-2.1 l 2.65,-0.85 q 1.45,-0.25 2.45,0.85 l 0.6,1.35 q 0.2,0.75 -0.1,1.45 l -0.65,0.65 q -0.45,0.35 -0.85,0.4 -0.45,0.05 -0.55,-0.55 -0.55,-0.1 -0.45,0.3 0.1,0.4 0.5,0.65 0.35,0.15 0.9,0 l 0.9,-0.35 q 0.75,-0.55 1,-1.4 0.25,-0.8 0.05,-1.7 -0.55,-2.1 -2.65,-2.25 -1.6,-0.1 -2.1,-0.9 -0.5,-0.8 0.55,-2.15 l 1.95,-1.5 q 1.35,-0.7 2.85,-0.95 l 2.65,0.2 q 1.2,0.45 1.5,2 l -0.15,0.7 -0.2,0.65 q 0,0.3 0.5,0.45 1,0.2 1,-0.45 l -0.45,-1.55 -0.65,-1.3 -1.05,-0.9 q -0.65,-0.25 -0.7,-0.85 0.05,-0.75 0.95,-1.4 l 1.4,-1.05 q 1.7,-1.2 3.7,-1.85 l 4.05,-0.7 q 2.05,0 4.2,0.75 2.15,0.75 4,2.15 2.75,2 3.9,5.25 0.35,1.1 0,1.65 -0.35,0.5 -1.05,0.85 l -1.5,0.8 q -0.9,0.6 -1.3,1.6 -0.45,1.05 -0.2,2.15 0.35,1.25 1.2,1.9 0.8,0.6 2.15,0.45 1,-0.2 1.2,-0.9 0.2,-0.7 -0.1,-1.25 -0.35,-0.5 -0.85,-0.2 l 0.55,0.2 q 0.15,0.9 -0.4,1.15 l -1.25,0.1 q -0.7,-0.15 -1.1,-0.6 -0.65,-0.85 -0.5,-1.8 0.15,-0.95 0.7,-1.7 1.15,-1.55 2.8,-1.75 1.6,-0.15 3.2,0.65 1.55,0.85 2.65,2.25 1.05,1.45 1.1,3.1 -0.05,1.9 -1.35,3.45"
         id="path101"
         inkscape:connector-curvature="0"
         style="fill:#e6faff;fill-rule:evenodd;stroke:none" />
      <path
         d="m 496.6,-16.95 q -1.9,0.9 -3.8,0.9 -2,0 -3.9,-1 -1.9,-1 -3.15,-2.6 l -0.2,-0.25 -0.3,0.05 -3.55,0.55 q -1.95,0.05 -3.7,-0.6 -1.75,-0.6 -2.4,-2.6 l -0.5,-1.25 q -0.35,-0.65 -1.2,-0.5 0.6,-1.65 0.05,-3.7 0.75,2.4 2.45,4 1.75,1.65 4.1,1.9 1.45,0.3 2.65,-0.4 1.25,-0.65 1.6,-1.9 0.35,-1.25 -0.85,-2.65 2.4,0.85 4.45,0 2.05,-0.9 3,-2.8 1.15,-2.3 0.75,-4.8 1.1,1.4 1.7,3.1 0.35,1.1 0,1.65 -0.35,0.55 -1.05,0.85 l -1.5,0.8 q -0.9,0.65 -1.3,1.65 -0.45,1 -0.2,2.1 0.35,1.25 1.2,1.9 0.8,0.65 2.15,0.45 1,-0.2 1.2,-0.9 0.2,-0.7 -0.1,-1.2 -0.3,-0.55 -0.85,-0.2 l 0.55,0.15 q 0.15,0.9 -0.35,1.15 l -1.25,0.15 q -0.75,-0.15 -1.15,-0.65 -0.65,-0.8 -0.5,-1.75 0.15,-1 0.7,-1.75 1.15,-1.55 2.8,-1.7 1.6,-0.2 3.2,0.65 1.6,0.8 2.65,2.25 1.05,1.4 1.1,3.1 -0.05,1.9 -1.35,3.4 -1.25,1.55 -3.15,2.45"
         id="path103"
         inkscape:connector-curvature="0"
         style="fill:#c5f1fc;fill-rule:evenodd;stroke:none" />
      <path
         d="m 470.1,-15.3 q -1.6,0.6 -2.95,0.6 -1.9,0 -3.8,-0.95 -1.85,-0.9 -3.1,-2.45 -1.25,-1.55 -1.3,-3.5 0.05,-1.4 0.8,-2.75 0.8,-1.35 2.05,-2.1 -0.15,2.2 0.85,4.05 1,1.85 2.9,2.55 1.65,0.45 3.35,0 1.7,-0.45 3,-1.55 1.35,-1.15 1.95,-2.8 l 0.65,0.8 0.7,0.9 q 0.55,1.65 -0.1,3.05 -0.65,1.4 -2,2.5 -1.4,1.05 -3,1.65"
         id="path105"
         inkscape:connector-curvature="0"
         style="fill:#c5f1fc;fill-rule:evenodd;stroke:none" />
      <path
         d="m 726,-30.6 q -0.05,2.8 -1.9,5.1 -1.85,2.3 -4.65,3.6 -2.75,1.35 -5.6,1.4 -2.95,-0.05 -5.75,-1.5 -2.8,-1.45 -4.6,-3.8 -2.6,0.75 -5.15,0.75 l -4.2,-0.55 q -2.1,-0.55 -4.1,-1.55 -0.6,2.45 -2.5,4.35 -1.85,1.9 -4.4,3 -2.55,1.1 -5.1,1.15 -2.85,-0.05 -5.6,-1.4 -2.75,-1.4 -4.55,-3.7 -1.85,-2.3 -1.9,-5.1 0.05,-2.75 1.8,-5 1.8,-2.2 4.45,-3.5 l -0.1,-1.15 q 0.05,-2.3 1.55,-4.15 1.45,-1.8 3.7,-2.9 2.25,-1.05 4.55,-1.1 l 0.85,0.05 q 1.65,-2.4 4.2,-4.2 2.5,-1.85 5.5,-2.85 2.95,-1 5.85,-1 3.05,0 6.1,1.1 3.1,1.1 5.7,3.05 2.6,1.95 4.25,4.55 1.65,2.55 1.85,5.55 2.5,0.55 4.7,1.95 2.2,1.4 3.6,3.45 1.4,2 1.45,4.4"
         id="path107"
         inkscape:connector-curvature="0"
         style="fill:#29aad6;fill-rule:evenodd;stroke:none" />
      <path
         d="m 714.4,-42.45 q 0.45,1.45 0,2.2 -0.45,0.7 -1.4,1.15 l -2,1.05 q -1.2,0.85 -1.75,2.2 -0.55,1.3 -0.2,2.8 0.4,1.7 1.55,2.55 1.1,0.85 2.9,0.6 1.35,-0.25 1.6,-1.2 0.25,-0.95 -0.2,-1.65 -0.4,-0.7 -1.1,-0.25 l 0.7,0.25 q 0.25,1.15 -0.45,1.55 l -1.7,0.1 q -0.95,-0.2 -1.5,-0.8 -0.85,-1.1 -0.65,-2.4 0.2,-1.25 0.95,-2.3 1.55,-2.05 3.7,-2.3 2.15,-0.2 4.3,0.9 2.1,1.05 3.5,3 1.4,1.9 1.45,4.1 -0.05,2.55 -1.75,4.6 -1.7,2 -4.2,3.2 -2.5,1.2 -5.1,1.25 -2.65,-0.05 -5.2,-1.35 -2.55,-1.3 -4.15,-3.5 l -0.25,-0.35 -0.4,0.15 -4.75,0.75 -3.4,-0.35 q -1.65,-0.3 -2.95,-1.25 -1.25,-0.9 -1.8,-2.7 l -0.7,-1.7 q -0.45,-0.85 -1.6,-0.6 0.2,0.55 0.85,1.05 l 0.95,1.25 q 0.7,2.2 -0.15,4.05 -0.9,1.9 -2.7,3.3 -1.85,1.4 -4,2.2 -2.1,0.8 -3.95,0.8 -2.55,0 -5,-1.25 -2.5,-1.2 -4.15,-3.25 -1.7,-2.1 -1.75,-4.65 0.05,-2 1.2,-3.9 1.2,-1.9 3,-2.8 l 2.3,-0.9 2.45,-0.25 q 1.2,0.15 2,1.15 0.6,0.75 0.85,1.8 0.25,1 -0.15,1.9 l -0.8,0.9 -1.2,0.5 q -0.55,0.1 -0.7,-0.75 -0.75,-0.1 -0.65,0.45 0.15,0.55 0.7,0.85 0.5,0.2 1.2,0 0.75,-0.2 1.15,-0.5 1.05,-0.7 1.4,-1.8 0.35,-1.1 0.05,-2.3 -0.35,-1.4 -1.25,-2.15 -0.95,-0.75 -2.3,-0.85 -2.1,-0.15 -2.75,-1.2 -0.7,-1.05 0.7,-2.9 0.85,-1.05 2.6,-2 1.8,-0.9 3.8,-1.25 l 3.55,0.25 q 1.55,0.65 2,2.7 l -0.2,0.95 -0.25,0.85 q -0.05,0.4 0.65,0.55 1.3,0.3 1.3,-0.6 0,-0.85 -0.55,-2.05 l -0.9,-1.7 -1.4,-1.2 q -0.85,-0.35 -0.95,-1.15 0.05,-0.65 0.6,-1.25 l 1.35,-1.15 1.2,-0.85 q 2.3,-1.6 4.95,-2.5 2.6,-0.9 5.4,-0.9 2.75,0 5.6,1 2.85,1.05 5.3,2.85 3.7,2.7 5.2,7"
         id="path109"
         inkscape:connector-curvature="0"
         style="fill:#e6faff;fill-rule:evenodd;stroke:none" />
      <path
         d="m 722.65,-35 q 1.4,1.9 1.45,4.1 -0.05,2.55 -1.75,4.55 -1.7,2.05 -4.2,3.25 -2.55,1.2 -5.1,1.25 -2.65,-0.05 -5.2,-1.35 -2.55,-1.3 -4.2,-3.5 l -0.25,-0.35 -0.4,0.15 q -2.45,0.7 -4.75,0.7 l -3.4,-0.3 q -1.65,-0.3 -2.9,-1.25 -1.3,-0.9 -1.8,-2.7 l -0.7,-1.7 q -0.5,-0.85 -1.6,-0.65 0.8,-2.25 0.1,-4.95 0.95,3.2 3.25,5.35 2.3,2.15 5.45,2.55 1.95,0.35 3.55,-0.5 1.65,-0.9 2.1,-2.55 0.5,-1.7 -1.1,-3.6 3.2,1.2 5.9,0 2.7,-1.15 4.05,-3.7 0.75,-1.5 0.95,-3.15 0.25,-1.65 0,-3.25 1.5,1.85 2.3,4.15 0.45,1.45 0,2.2 -0.45,0.7 -1.4,1.15 l -2,1.05 q -1.2,0.8 -1.75,2.15 -0.6,1.35 -0.25,2.85 0.45,1.7 1.55,2.55 1.15,0.85 2.9,0.6 1.35,-0.25 1.6,-1.2 0.25,-0.95 -0.15,-1.65 -0.4,-0.7 -1.1,-0.25 l 0.7,0.25 q 0.2,1.15 -0.5,1.55 l -1.65,0.1 q -0.95,-0.2 -1.5,-0.8 -0.85,-1.1 -0.65,-2.4 0.15,-1.25 0.9,-2.3 1.55,-2.05 3.75,-2.3 2.15,-0.2 4.25,0.85 2.1,1.1 3.55,3.05"
         id="path111"
         inkscape:connector-curvature="0"
         style="fill:#c5f1fc;fill-rule:evenodd;stroke:none" />
      <path
         d="m 689.65,-30.45 q 0.7,2.2 -0.15,4.1 -0.9,1.9 -2.7,3.3 -1.85,1.4 -4,2.2 -2.1,0.8 -3.95,0.8 -2.55,0 -5,-1.25 -2.5,-1.2 -4.15,-3.3 -1.7,-2.05 -1.75,-4.6 0.05,-1.9 1.1,-3.7 1.05,-1.8 2.7,-2.8 -0.15,2.95 1.15,5.4 1.3,2.45 3.85,3.4 2.2,0.6 4.45,0 2.25,-0.55 4.05,-2.1 1.8,-1.5 2.6,-3.7 0.25,0.55 0.85,1.05 l 0.95,1.2"
         id="path113"
         inkscape:connector-curvature="0"
         style="fill:#c5f1fc;fill-rule:evenodd;stroke:none" />
      <path
         d="m 786,4.15 q -2.7,2.05 -5.9,3.25 -3.2,1.15 -6.35,1.15 -2.9,0 -5.8,-1 -2.9,-1 -5.4,-2.8 -2.55,-1.8 -4.3,-4.15 -3.85,1.15 -7.7,1.2 l -6.3,-0.85 q -3.2,-0.85 -6.2,-2.35 -0.9,3.65 -3.7,6.5 -2.8,2.9 -6.65,4.55 -3.8,1.65 -7.65,1.7 -3.15,0 -6.35,-1.2 -3.15,-1.2 -5.8,-3.35 -2.65,-2.1 -4.25,-4.85 -1.6,-2.8 -1.65,-5.95 0.05,-2.75 1.25,-5.15 1.25,-2.4 3.35,-4.35 2.15,-1.95 4.75,-3.25 -0.15,-0.8 -0.15,-1.7 0.1,-3.45 2.3,-6.2 2.25,-2.7 5.6,-4.35 3.35,-1.6 6.85,-1.6 l 1.25,0.05 q 2.5,-3.65 6.3,-6.35 3.8,-2.7 8.2,-4.2 4.45,-1.55 8.85,-1.55 4.55,0.05 9.15,1.65 4.6,1.65 8.5,4.6 3.95,2.9 6.4,6.8 2.45,3.85 2.8,8.35 3.75,0.8 7.05,2.9 3.3,2.1 5.4,5.15 2.1,3.05 2.15,6.65 -0.05,3.15 -1.65,5.9 -1.65,2.7 -4.35,4.8"
         id="path115"
         inkscape:connector-curvature="0"
         style="fill:#29aad6;fill-rule:evenodd;stroke:none" />
      <path
         d="m 787.6,-1.7 q -1.5,2.45 -3.95,4.3 -2.4,1.85 -5.3,2.9 -2.9,1.05 -5.8,1.05 -2.6,0 -5.25,-0.9 -2.65,-0.95 -4.9,-2.55 -2.3,-1.65 -3.9,-3.8 l -0.4,-0.5 -0.6,0.2 q -3.65,1.1 -7.1,1.1 l -5.1,-0.45 q -2.5,-0.5 -4.4,-1.9 -1.9,-1.4 -2.7,-4.05 l -0.55,-1.75 -1.1,-1.5 -1.85,-0.25 q 0.2,0.6 0.75,1.1 l 1.1,1.05 0.9,1.3 q 1.05,3.3 -0.25,6.1 -1.3,2.85 -4.05,4.95 -2.75,2.15 -5.95,3.3 -3.2,1.2 -5.95,1.25 -2.8,-0.05 -5.65,-1.1 -2.9,-1.05 -5.3,-2.95 -2.4,-1.9 -3.9,-4.35 -1.45,-2.5 -1.5,-5.4 0,-1.95 0.85,-3.95 0.85,-2 2.25,-3.6 1.45,-1.65 3.25,-2.5 1.55,-0.75 3.4,-1.3 l 3.65,-0.4 q 1.8,0.2 3.05,1.75 0.9,1.15 1.3,2.65 0.35,1.5 -0.3,2.9 -0.3,0.6 -1.2,1.3 -0.9,0.7 -1.75,0.8 -0.85,0.1 -1.05,-1.15 -0.8,-0.15 -0.95,0.25 -0.1,0.4 0.15,0.9 0.3,0.55 0.8,0.8 0.8,0.3 1.85,0 1.1,-0.3 1.75,-0.75 1.55,-1.05 2.05,-2.7 0.55,-1.7 0.1,-3.45 -0.5,-2.1 -1.9,-3.25 -1.4,-1.1 -3.45,-1.25 -3.15,-0.2 -4.1,-1.8 -1,-1.6 1,-4.35 1.3,-1.6 3.95,-3 2.65,-1.35 5.7,-1.9 l 5.35,0.4 q 2.35,0.95 2.95,4.05 0.05,0.75 -0.3,1.45 l -0.4,1.25 q -0.05,0.55 1,0.85 1.5,0.35 1.85,-0.35 0.3,-0.75 -0.1,-2 l -1,-2.4 -0.95,-1.8 -1.35,-1.3 -1.5,-0.95 q -0.65,-0.45 -0.7,-1.25 0.05,-0.95 0.95,-1.9 l 2,-1.75 1.85,-1.25 q 3.4,-2.4 7.35,-3.75 3.95,-1.35 8.1,-1.35 4.15,0 8.4,1.55 4.3,1.5 7.95,4.25 2.75,2 4.75,4.65 2,2.6 3.1,5.85 0.7,2.2 0,3.25 -0.7,1.1 -2.15,1.75 l -2.95,1.6 q -1.8,1.2 -2.65,3.25 -0.85,2 -0.35,4.2 0.65,2.55 2.35,3.8 1.65,1.3 4.35,0.95 1.5,-0.25 2.1,-1.2 0.55,-0.9 0.45,-1.9 -0.15,-1 -0.7,-1.55 l -1.35,-0.05 0.5,0.2 0.55,0.2 q 0.35,1.75 -0.75,2.3 l -2.45,0.25 q -1.45,-0.35 -2.25,-1.25 -1.3,-1.65 -1,-3.6 0.25,-1.9 1.35,-3.45 2.35,-3.1 5.6,-3.45 3.25,-0.35 6.4,1.3 3.2,1.65 5.3,4.55 2.1,2.85 2.2,6.15 -0.05,2.85 -1.55,5.3"
         id="path117"
         inkscape:connector-curvature="0"
         style="fill:#e6faff;fill-rule:evenodd;stroke:none" />
      <path
         d="m 778.3,5.5 q -2.9,1.05 -5.75,1.05 -2.6,0 -5.25,-0.9 -2.65,-0.95 -4.95,-2.55 -2.3,-1.65 -3.9,-3.8 l -0.35,-0.5 -0.6,0.2 q -3.7,1.1 -7.1,1.1 l -5.1,-0.45 q -2.5,-0.5 -4.4,-1.9 -1.9,-1.4 -2.7,-4.05 l -0.6,-1.75 q -0.35,-0.9 -1.05,-1.5 -0.65,-0.55 -1.8,-0.3 1.25,-3.3 0.15,-7.3 0.95,3.1 2.8,5.6 1.9,2.55 4.5,4.15 2.6,1.65 5.7,1.95 l 4.15,-0.25 q 2,-0.65 3.25,-2.15 1.3,-1.45 1.3,-3.45 0,-1.95 -1.85,-4.1 3.15,1.2 6.1,0.8 2.95,-0.45 5.25,-2.15 2.3,-1.7 3.6,-4.2 1.1,-2.25 1.45,-4.7 0.35,-2.45 0,-4.9 2.2,2.75 3.4,6.25 0.7,2.2 0,3.25 -0.65,1.1 -2.1,1.75 -1.45,0.65 -3,1.6 -1.75,1.2 -2.65,3.25 -0.85,2 -0.3,4.2 0.65,2.55 2.3,3.8 1.7,1.3 4.4,0.95 1.5,-0.25 2.05,-1.2 0.6,-0.9 0.45,-1.9 -0.15,-1.05 -0.7,-1.55 l -1.35,-0.05 0.55,0.2 0.5,0.2 q 0.35,1.75 -0.7,2.3 l -2.5,0.25 q -1.45,-0.35 -2.25,-1.25 -1.25,-1.65 -1,-3.6 0.3,-1.9 1.4,-3.45 2.35,-3.1 5.6,-3.45 3.2,-0.35 6.4,1.3 3.15,1.65 5.25,4.55 2.15,2.85 2.2,6.15 -0.05,2.85 -1.55,5.3 -1.45,2.45 -3.9,4.3 -2.45,1.85 -5.35,2.9"
         id="path119"
         inkscape:connector-curvature="0"
         style="fill:#c5f1fc;fill-rule:evenodd;stroke:none" />
      <path
         d="m 727.2,8.05 q -3.2,1.15 -5.95,1.2 -2.8,0 -5.65,-1.1 -2.9,-1.05 -5.3,-2.95 -2.4,-1.85 -3.9,-4.35 -1.45,-2.5 -1.5,-5.35 0.05,-2.85 1.65,-5.55 1.55,-2.7 4.05,-4.2 -0.2,2.9 0.65,5.55 0.8,2.7 2.55,4.7 1.75,2.05 4.3,2.95 3.3,0.9 6.7,0 3.35,-0.85 6.05,-3.1 2.65,-2.3 3.9,-5.55 0.35,0.8 1.3,1.55 0.9,0.75 1.4,1.8 1.05,3.3 -0.25,6.1 -1.3,2.85 -4.05,4.95 -2.75,2.15 -5.95,3.35"
         id="path121"
         inkscape:connector-curvature="0"
         style="fill:#c5f1fc;fill-rule:evenodd;stroke:none" />
    </g>
    <clipPath
       clipPathUnits="userSpaceOnUse"
       id="clipPath3042">
      <rect
         style="fill:#0029e2;fill-opacity:1;stroke:none"
         id="rect3044"
         width="548.25647"
         height="250.45113"
         x="530.36707"
         y="-32.060806" />
    </clipPath>
  </defs>
</svg>
