<?xml version="1.0" encoding="UTF-8" standalone="no"?>
<svg
   xmlns:dc="http://purl.org/dc/elements/1.1/"
   xmlns:cc="http://creativecommons.org/ns#"
   xmlns:rdf="http://www.w3.org/1999/02/22-rdf-syntax-ns#"
   xmlns:svg="http://www.w3.org/2000/svg"
   xmlns="http://www.w3.org/2000/svg"
   xmlns:xlink="http://www.w3.org/1999/xlink"
   xmlns:sodipodi="http://sodipodi.sourceforge.net/DTD/sodipodi-0.dtd"
   xmlns:inkscape="http://www.inkscape.org/namespaces/inkscape"
   height="126.33558"
   width="254.00235"
   id="svg2"
   version="1.1"
   inkscape:version="0.48.4 r9939"
   sodipodi:docname="happyjump.svg"
   inkscape:export-filename="/Work/Projects/Clients/LinguaZone/lz-games/html5_games/sources/Fishing/prep/mma/happyjump.png"
   inkscape:export-xdpi="90"
   inkscape:export-ydpi="90">
  <metadata
     id="metadata97">
    <rdf:RDF>
      <cc:Work
         rdf:about="">
        <dc:format>image/svg+xml</dc:format>
        <dc:type
           rdf:resource="http://purl.org/dc/dcmitype/StillImage" />
        <dc:title></dc:title>
      </cc:Work>
    </rdf:RDF>
  </metadata>
  <sodipodi:namedview
     pagecolor="#ffffff"
     bordercolor="#666666"
     borderopacity="1"
     objecttolerance="10"
     gridtolerance="10"
     guidetolerance="10"
     inkscape:pageopacity="0"
     inkscape:pageshadow="2"
     inkscape:window-width="1376"
     inkscape:window-height="642"
     id="namedview95"
     showgrid="false"
     fit-margin-top="0"
     fit-margin-left="0"
     fit-margin-right="0"
     fit-margin-bottom="0"
     inkscape:zoom="0.94475579"
     inkscape:cx="304.26334"
     inkscape:cy="88.264727"
     inkscape:window-x="2020"
     inkscape:window-y="102"
     inkscape:window-maximized="0"
     inkscape:current-layer="svg2" />
  <g
     transform="translate(61.448246,77.738505)"
     id="g4">
    <use
       height="120.25"
       transform="translate(-61.45,-74.7)"
       width="75.699997"
       xlink:href="#shape0"
       id="use6"
       x="0"
       y="0" />
    <use
       height="22.1"
       transform="translate(-32.75,-64.1)"
       width="31.700001"
       xlink:href="#sprite0"
       id="use8"
       x="0"
       y="0" />
  </g>
  <defs
     id="defs10">
    <g
       id="shape0"
       transform="translate(61.45,74.7)">
      <path
         d="m -42.55,30.25 q -1.1,1.2 -3.05,1.75 l -4.05,0.7 -3.6,0.1 -1.5,-0.1 q -1.4,-0.35 -1.7,-0.85 -0.3,-0.55 -0.1,-0.95 l 0.25,-0.45 2.8,-0.45 2.35,-1.15 1.7,-1.3 0.65,-0.6 6.25,3.3"
         id="path13"
         inkscape:connector-curvature="0"
         style="fill:#333333;fill-rule:evenodd;stroke:none" />
      <path
         d="m -48.8,26.95 -0.65,0.6 -1.7,1.3 -2.35,1.15 -2.8,0.45 -0.25,0.45 q -0.2,0.4 0.1,0.95 0.3,0.5 1.7,0.85 l 1.5,0.1 3.6,-0.1 4.05,-0.7 q 1.95,-0.55 3.05,-1.75"
         id="path15"
         inkscape:connector-curvature="0"
         style="fill:none;stroke:#000000;stroke-width:2;stroke-linecap:round;stroke-linejoin:round" />
      <path
         d="m 2.55,-34.85 2.85,8.95 3.05,8.65 2.6,7.1 q 1.35,3.7 1.9,7.8 Q 13.5,1.7 13.1,6 12.65,10.6 11.2,14.8 9.65,19 7.3,22.65 6.2,24.95 4.4,27.3 l -3.85,4.35 -3.9,3.65 -3,2.5 -1.25,0.95 0.55,0.8 1.1,1.75 1.05,1.65 q 0.3,0.65 0.1,1 l -0.55,0.45 q -0.4,0.1 -0.4,0.15 -4.15,-0.05 -6.85,-0.95 -2.7,-0.95 -4.25,-2.2 l -2.3,-2.25 q -3.85,0.45 -7.9,0.1 -7.65,-0.8 -14,-4.25 -6.4,-3.5 -10.95,-9 -4.55,-5.5 -6.75,-12.4 -2.2,-6.9 -1.55,-14.55 0.8,-7.95 4.5,-14.45 1.3,-2.4 2.65,-6.05 l 2.65,-8.1 2.3,-8.8 1.75,-8.2 q 0.7,-3.85 0.95,-6.4 0.45,-4.8 2.6,-8.75 2.15,-3.9 5.55,-6.75 3.45,-2.85 7.7,-4.2 4.3,-1.35 9.05,-0.95 4.75,0.5 8.7,2.65 3.95,2.15 6.75,5.55 2.85,3.45 4.2,7.7 1.35,4.25 0.95,9.05 -0.15,2.15 0.6,5.8 0.65,3.6 1.95,8"
         id="path17"
         inkscape:connector-curvature="0"
         style="fill:#666666;fill-rule:evenodd;stroke:none" />
      <path
         d="m 2.55,-34.85 q -1.3,-4.4 -1.95,-8 -0.75,-3.65 -0.6,-5.8 0.4,-4.8 -0.95,-9.05 -1.35,-4.25 -4.2,-7.7 -2.8,-3.4 -6.75,-5.55 -3.95,-2.15 -8.7,-2.65 -4.75,-0.4 -9.05,0.95 -4.25,1.35 -7.7,4.2 -3.4,2.85 -5.55,6.75 -2.15,3.95 -2.6,8.75 -0.25,2.55 -0.95,6.4 l -1.75,8.2 -2.3,8.8 -2.65,8.1 q -1.35,3.65 -2.65,6.05 -3.7,6.5 -4.5,14.45 -0.65,7.65 1.55,14.55 2.2,6.9 6.75,12.4 4.55,5.5 10.95,9 6.35,3.45 14,4.25 4.05,0.35 7.9,-0.1 l 2.3,2.25 q 1.55,1.25 4.25,2.2 2.7,0.9 6.85,0.95 0,-0.05 0.4,-0.15 l 0.55,-0.45 q 0.2,-0.35 -0.1,-1 l -1.05,-1.65 -1.1,-1.75 -0.55,-0.8 1.25,-0.95 3,-2.5 3.9,-3.65 L 4.4,27.3 Q 6.2,24.95 7.3,22.65 9.65,19 11.2,14.8 12.65,10.6 13.1,6 q 0.4,-4.3 -0.15,-8.35 -0.55,-4.1 -1.9,-7.8 l -2.6,-7.1 -3.05,-8.65 -2.85,-8.95"
         id="path19"
         inkscape:connector-curvature="0"
         style="fill:none;stroke:#000000;stroke-width:2;stroke-linecap:round;stroke-linejoin:round" />
      <path
         d="m -35.8,-64.75 q -1.85,3.7 -2.25,7.95 l -0.25,2.8 -0.65,6.85 q -0.35,3.45 -0.95,6.35 l -0.8,3.2 -1.05,4.6 q -0.5,2.2 -0.5,4.3 l 0.15,1.65 q -1.4,-0.75 -2.45,-0.35 -0.85,0.35 -1.35,1.2 l -0.9,1.85 -0.55,2.1 -0.25,0.95 q -0.75,2.6 -1.65,5.05 l -1.6,4.85 q -0.75,2.5 -1.05,5.2 -0.65,7.45 1.45,14.15 2.05,6.7 6.35,12.05 4.25,5.4 10.2,8.75 6,3.35 13.15,4.15 7.9,0.75 14.75,-1.65 6.75,-2.4 12.15,-7.8 -1.55,2.7 -3.85,5.3 l -4.65,4.75 -3.95,3.4 -1.65,1.3 -0.55,0.4 0.2,0.3 2.15,3.5 0.8,1.05 -0.15,-0.05 0.15,0.25 -0.5,0.25 q -3.9,-0.05 -6.45,-0.95 -2.6,-0.85 -4.1,-2 l -2.15,-2.2 -0.25,-0.35 -0.4,0.05 q -3.95,0.5 -7.8,0.1 -7.5,-0.75 -13.7,-4.15 -6.3,-3.4 -10.75,-8.8 -4.5,-5.4 -6.65,-12.15 -2.15,-6.8 -1.5,-14.3 0.75,-7.55 4.4,-14.15 1.3,-2.4 2.7,-6.1 1.35,-3.75 2.6,-8.1 l 2.3,-8.85 1.8,-8.3 q 0.75,-3.9 1,-6.55 0.4,-4.2 2.2,-7.8 1.85,-3.65 4.85,-6.35 2.95,-2.75 6.85,-4.3 -3.1,2.85 -4.9,6.6"
         id="path21"
         inkscape:connector-curvature="0"
         style="fill:#333333;fill-rule:evenodd;stroke:none" />
      <path
         d="m 4.35,-25.95 2.75,7.85 2.45,6.75 0.4,1.05 q 2.15,5.9 2.2,12.2 L 12,5.3 11.2,10.2 q -2.4,5.65 -6.2,9.9 -3.8,4.15 -8.6,6.5 -4.9,2.3 -10.35,2.5 -5.25,0.15 -10.15,-1.8 -4.9,-1.9 -9,-5.7 -3.3,-3.1 -5.65,-7 -2.3,-3.95 -3.6,-8.45 Q -43.7,1.6 -43.8,-3.2 l -0.05,-1.2 q 0,-6.35 2.05,-12.2 l 1.4,-5.4 1.15,-7.05 0.9,-7.7 0.6,-7.4 0.2,-6.15 0,-1.5 0,-0.75 q -0.05,-3 0.65,-5.9 0.65,-2.95 2.35,-5.2 1.7,-2.3 4.65,-3.35 l 2.05,-0.65 2.4,-0.45 3.55,0.15 q 1.85,0.3 3.4,1.15 1.55,0.9 2.35,2.3 -0.35,-0.75 0.5,-1.75 0.8,-1 2.35,-1.6 l 3.25,-0.1 q 1.25,0.45 2.35,1.55 l 2.05,2.35 1.6,2.35 q 1.85,4.15 2,8.75 0.05,2.1 1.25,6.05 0.05,2.25 0.75,5.6 0.7,3.35 1.9,7.3 l 2.5,8.05"
         id="path23"
         inkscape:connector-curvature="0"
         style="fill:#cccccc;fill-rule:evenodd;stroke:none" />
      <path
         d="m 4.4,-25.95 2.7,7.85 2.45,6.75 0.45,1.05 q 2.15,5.9 2.15,12.15 L 12,5.3 11.15,10.2 Q 8.5,16.6 4.05,21.1 -0.4,25.5 -6.1,27.6 -0.85,25.05 3.15,20.35 7.1,15.65 9.3,9.15 L 9.9,4.1 9.85,0.55 Q 9.5,-5.95 7,-11.9 l -0.4,-1.05 -2.85,-6.85 -3.15,-7.9 -2.95,-8.15 -2.3,-7.45 q -0.9,-3.45 -1.05,-5.75 -1.4,-4 -1.55,-6.15 -0.45,-4.75 -2.5,-8.9 l -1.35,-1.9 -1.75,-2 2.8,0.05 q 1.25,0.45 2.35,1.55 l 2.05,2.35 1.6,2.35 q 1.85,4.15 2,8.75 0.05,2.1 1.25,6.05 0.05,2.25 0.75,5.6 0.7,3.35 1.9,7.35 l 2.55,8"
         id="path25"
         inkscape:connector-curvature="0"
         style="fill:#e5e5e5;fill-rule:evenodd;stroke:none" />
      <path
         d="m -35.35,-62.45 q 1.25,-2.15 3.4,-3.55 -1.75,2.3 -2.45,5.25 -0.7,2.9 -0.7,5.95 l 0.05,0.75 0,1.55 -0.2,6.15 -0.55,7.4 q -0.4,3.9 -0.95,7.7 l -1.15,7 -1.4,5.4 q -2.05,5.85 -2.05,12.2 l 0.05,1.25 q 0.1,4.8 1.45,9.3 1.3,4.5 3.65,8.45 2.3,3.9 5.6,7 4.05,3.8 9,5.75 4.85,1.95 10.15,1.8 4.3,-0.2 8.3,-1.7 3.95,-1.55 7.35,-4.25 -3.7,3.75 -8.35,5.9 -4.6,2.1 -9.8,2.35 -5.25,0.1 -10.15,-1.85 -4.9,-1.95 -9,-5.75 -3.3,-3.1 -5.65,-7 -2.3,-3.9 -3.6,-8.4 -1.35,-4.5 -1.45,-9.35 l -0.05,-1.2 q 0,-6.35 2.05,-12.2 l 1.4,-5.4 1.15,-7 0.9,-7.7 0.6,-7.45 0.2,-6.15 0,-1.55 0,-0.7 q -0.05,-2.65 0.45,-5.2 0.55,-2.6 1.75,-4.75"
         id="path27"
         inkscape:connector-curvature="0"
         style="fill:#b4b4b4;fill-rule:evenodd;stroke:none" />
      <path
         d="m -9.05,-36.9 -0.25,1.2 -0.8,2.85 q -0.5,1.7 -1.35,3.5 -0.8,1.75 -1.95,2.95 -1.2,1.25 -2.65,1.5 -1.55,0.15 -3.15,-0.9 -1.65,-1.05 -3.25,-2.65 l -2.85,-3.35 -2.05,-2.8 -0.8,-1.2 19.1,-1.1"
         id="path29"
         inkscape:connector-curvature="0"
         style="fill:#b4b4b4;fill-rule:evenodd;stroke:none" />
      <path
         d="m -9.6,-36.9 -0.3,1.15 -1.15,2.55 q -0.75,1.45 -2,2.6 -1.25,1.15 -3.1,1.3 -1.9,0 -4.05,-1.1 -2.15,-1.1 -4,-2.6 l -3.15,-2.6 -1.25,-1.25 19,-0.05"
         id="path31"
         inkscape:connector-curvature="0"
         style="fill:#d8a235;fill-rule:evenodd;stroke:none" />
      <path
         d="m -9.6,-36.9 -19,0.05 1.25,1.25 3.15,2.6 q 1.85,1.5 4,2.6 2.15,1.1 4.05,1.1 1.85,-0.15 3.1,-1.3 1.25,-1.15 2,-2.6 l 1.15,-2.55 0.3,-1.15"
         id="path33"
         inkscape:connector-curvature="0"
         style="fill:none;stroke:#000000;stroke-width:1;stroke-linecap:round;stroke-linejoin:round" />
      <path
         d="m -12.35,-36.2 -0.15,0.75 q -0.1,0.7 -0.5,1.6 -0.45,0.9 -1.3,1.6 -0.8,0.7 -2.15,0.75 -1.35,0 -2.65,-0.7 l -2.55,-1.6 -1.8,-1.65 -0.75,-0.7 11.85,-0.05"
         id="path35"
         inkscape:connector-curvature="0"
         style="fill:#c12d05;fill-rule:evenodd;stroke:none" />
      <path
         d="m -12.35,-36.2 -11.85,0.05 0.75,0.7 1.8,1.65 2.55,1.6 q 1.3,0.7 2.65,0.7 1.35,-0.05 2.15,-0.75 0.85,-0.7 1.3,-1.6 0.4,-0.9 0.5,-1.6 l 0.15,-0.75"
         id="path37"
         inkscape:connector-curvature="0"
         style="fill:none;stroke:#000000;stroke-width:1;stroke-linecap:round;stroke-linejoin:round" />
      <path
         d="m -20.1,-35.8 q 0.8,1.65 2.45,2.4 1.6,0.7 3.5,0.55 -0.8,0.95 -2.3,1.05 -1.3,0 -2.65,-0.75 l -2.5,-1.65 -1.75,-1.6 1.2,0 2.05,0"
         id="path39"
         inkscape:connector-curvature="0"
         style="fill:#9b0d0d;fill-rule:evenodd;stroke:none" />
      <path
         d="m -44.65,-27.05 1.25,0.45 3.4,0.45 q 2.15,0.1 4.8,-0.75 2.15,-0.8 4.35,-2.05 l 3.75,-2.45 2.25,-1.75 0.45,-0.2 0.9,0.15 q 0.45,0.3 0.6,1.4 l 0,2.3 q -0.1,1.7 -0.55,4.15 -0.5,2.4 -1.55,5 -1.1,2.55 -3,4.85 -1.9,2.3 -4.8,3.75 -2.95,1.45 -7.15,1.65 -4.25,0.15 -9.9,-1.5 l 5.2,-15.45"
         id="path41"
         inkscape:connector-curvature="0"
         style="fill:#666666;fill-rule:evenodd;stroke:none" />
      <path
         d="m -44.65,-27.05 1.25,0.45 3.4,0.45 q 2.15,0.1 4.8,-0.75 2.15,-0.8 4.35,-2.05 l 3.75,-2.45 2.25,-1.75 0.45,-0.2 0.9,0.15 q 0.45,0.3 0.6,1.4 l 0,2.3 q -0.1,1.7 -0.55,4.15 -0.5,2.4 -1.55,5 -1.1,2.55 -3,4.85 -1.9,2.3 -4.8,3.75 -2.95,1.45 -7.15,1.65 -4.25,0.15 -9.9,-1.5"
         id="path43"
         inkscape:connector-curvature="0"
         style="fill:none;stroke:#000000;stroke-width:2;stroke-linecap:round;stroke-linejoin:round" />
      <path
         d="m -43.9,-16.2 q 1.25,1.1 2.7,1.6 1.45,0.45 3.25,0 2.85,-1 6.3,-2.9 3.35,-1.9 6.6,-4.35 -1.6,4.15 -4.4,6.65 -2.85,2.5 -6.4,3.5 -3.55,0.95 -7.45,0.65 -3.95,-0.3 -7.8,-1.7 0.05,-0.95 -0.2,-1.75 l -0.4,-1.65 q -0.25,-0.9 0.05,-1.9 l 0.5,-0.9 0.95,-1.35 1.1,-1 0.9,0.05 2,2.6 2.3,2.45"
         id="path45"
         inkscape:connector-curvature="0"
         style="fill:#333333;fill-rule:evenodd;stroke:none" />
      <path
         d="m -33.05,-25.95 -2.6,0.65 q -2.75,0.15 -5.35,-0.65 l 1.3,0.3 2.65,0.1 3.4,-0.75 q 1.65,-0.7 3.4,-1.75 l 3.05,-2.1 1.85,-1.65 0.35,-0.1 0.4,0 0.35,0.4 0.15,0.55 0,0.45 -0.05,2.2 q -0.05,1.5 -0.4,3.45 -0.4,1.95 -1.25,4 -0.85,2 -2.4,3.75 -1.55,1.75 -3.9,2.9 0.9,-0.5 2.1,-2.1 1.2,-1.7 2.25,-3.85 1,-2.25 1.55,-4.3 0.5,-2.1 0.2,-3.45 -0.25,-0.55 -1.35,-0.25 l -2.6,0.95 -3.1,1.25"
         id="path47"
         inkscape:connector-curvature="0"
         style="fill:#999999;fill-rule:evenodd;stroke:none" />
      <path
         d="m 6.6,-29.15 q 0.8,0.25 1.85,1.6 1,1.3 1.55,4.5 0.8,4.8 0.35,7.2 -0.5,2.45 -2.4,2.4 l -3.3,-0.45 q -2.25,-0.5 -5.05,-1.9 -2.85,-1.4 -5.65,-4.05 -2.8,-2.7 -4.9,-7.1 -0.85,-2 -0.35,-3.2 0.5,-1.2 1.8,-1.55 l 2.9,0.25 0.75,0.45 q 1.8,1.25 3.7,2 1.85,0.75 3.8,0.75 1.95,0 4.05,-1.1 l 0.9,0.2"
         id="path49"
         inkscape:connector-curvature="0"
         style="fill:#666666;fill-rule:evenodd;stroke:none" />
      <path
         d="m 6.6,-29.15 q 0.8,0.25 1.85,1.6 1,1.3 1.55,4.5 0.8,4.8 0.35,7.2 -0.5,2.45 -2.4,2.4 l -3.3,-0.45 q -2.25,-0.5 -5.05,-1.9 -2.85,-1.4 -5.65,-4.05 -2.8,-2.7 -4.9,-7.1 -0.85,-2 -0.35,-3.2 0.5,-1.2 1.8,-1.55 l 2.9,0.25 0.75,0.45 q 1.8,1.25 3.7,2 1.85,0.75 3.8,0.75 1.95,0 4.05,-1.1 l 0.9,0.2"
         id="path51"
         inkscape:connector-curvature="0"
         style="fill:none;stroke:#000000;stroke-width:2;stroke-linecap:round;stroke-linejoin:round" />
      <path
         d="m 5.8,-28.6 0.95,0.3 1.4,1.6 q 0.7,1.2 1.2,3.75 l 0.45,5 q 0,2.5 -0.75,3.4 -0.4,0.45 -1.1,0.45 l -0.15,0 -0.3,0 q 1.35,-1.2 1.65,-3.25 l 0.1,-1.05 Q 9.2,-20.2 8.6,-21.8 8,-23.35 7.15,-24.2 5.55,-25.5 3.6,-25.85 l -4.05,-0.55 -3.6,-0.4 q -1.7,-0.35 -3.15,-1.2 -1.5,-0.95 -2.55,-2.8 l 1.35,-0.3 q 0.7,0 1.45,0.35 l 0.75,0.4 q 1.65,1.1 3.55,1.95 1.9,0.8 4.05,0.9 2.1,0.05 4.4,-1.1"
         id="path53"
         inkscape:connector-curvature="0"
         style="fill:#999999;fill-rule:evenodd;stroke:none" />
      <path
         d="m -28.9,36.55 -0.05,1.25 0.45,2.95 q 0.45,1.7 1.7,3.25 l 0,0.1 -0.4,0.25 -1.5,-0.05 -2.45,-0.2 q -1.5,-0.2 -3.3,-1.1 -1.9,-0.9 -3.7,-3.05 -1.85,-2.2 -3.4,-6.25 l 12.65,2.85"
         id="path55"
         inkscape:connector-curvature="0"
         style="fill:#333333;fill-rule:evenodd;stroke:none" />
      <path
         d="m -28.9,36.55 -0.05,1.25 0.45,2.95 q 0.45,1.7 1.7,3.25 l 0,0.1 -0.4,0.25 -1.5,-0.05 -2.45,-0.2 q -1.5,-0.2 -3.3,-1.1 -1.9,-0.9 -3.7,-3.05 -1.85,-2.2 -3.4,-6.25"
         id="path57"
         inkscape:connector-curvature="0"
         style="fill:none;stroke:#000000;stroke-width:2;stroke-linecap:round;stroke-linejoin:round" />
      <path
         d="m -19.15,39.15 0.95,-0.15 2.25,-0.45 2.75,-0.7 q 1.4,-0.45 2.4,-1.05"
         id="path59"
         inkscape:connector-curvature="0"
         style="fill:none;stroke:#000000;stroke-width:1;stroke-linecap:round;stroke-linejoin:round" />
      <path
         d="m -4.75,-40.45 1.25,0.45 0.3,0.55 0.4,1.2 q 0.1,0.7 -0.3,1.25 -0.4,0.5 -1.1,0.55 l -1.15,0 -0.6,-0.1 q -0.8,1.65 -1.75,2.2 -1,0.55 -2.1,0.4 -1.1,-0.1 -2.35,-0.55 l -2.55,-0.65 -2.7,-0.2 -2.65,0 -2,-0.05 -2.8,-0.1 -2.7,-0.45 Q -28.7,-36.3 -29.1,-37 l -0.55,-1.15 q 0,-0.25 0.7,-0.35 l 2.45,-0.35 3.35,-0.6 q 1.7,-0.35 3.2,-1.05 1.1,-0.45 2.05,-1.15 0.9,-0.65 1.65,-1.65 l 0.6,-0.9 0.85,-1.15 q 0.45,-0.5 1,-0.6 0.5,-0.1 0.95,0.65 0.65,1.05 2.1,2 1.5,0.95 3.15,1.65 l 2.85,1.2"
         id="path61"
         inkscape:connector-curvature="0"
         style="fill:#f9c248;fill-rule:evenodd;stroke:none" />
      <path
         d="m -4.75,-40.45 1.25,0.45 0.3,0.55 0.4,1.2 q 0.1,0.7 -0.3,1.25 -0.4,0.5 -1.1,0.55 l -1.15,0 -0.6,-0.1 q -0.8,1.65 -1.75,2.2 -1,0.55 -2.1,0.4 -1.1,-0.1 -2.35,-0.55 l -2.55,-0.65 -2.7,-0.2 -2.65,0 -2,-0.05 -2.8,-0.1 -2.7,-0.45 Q -28.7,-36.3 -29.1,-37 l -0.55,-1.15 q 0,-0.25 0.7,-0.35 l 2.45,-0.35 3.35,-0.6 q 1.7,-0.35 3.2,-1.05 1.1,-0.45 2.05,-1.15 0.9,-0.65 1.65,-1.65 l 0.6,-0.9 0.85,-1.15 q 0.45,-0.5 1,-0.6 0.5,-0.1 0.95,0.65 0.65,1.05 2.1,2 1.5,0.95 3.15,1.65 l 2.85,1.2"
         id="path63"
         inkscape:connector-curvature="0"
         style="fill:none;stroke:#000000;stroke-width:1;stroke-linecap:round;stroke-linejoin:round" />
      <path
         d="m -3.35,-37.15 q -0.25,0.3 -0.85,0.4 l -1.15,0 -0.8,-0.15 -0.3,-0.1 0.05,0.55 q -0.7,1.55 -1.65,2 l -2,0.2 -2.35,-0.65 -2.45,-0.6 -3.55,-0.2 -2.95,-0.05 -2.65,-0.05 -3.05,-0.4 q -1.35,-0.25 -1.75,-0.95 l -0.25,-0.45 -0.15,-0.4 0,-0.15 q 0.65,0.6 1.45,0.85 l 1.5,0.3 0.85,0.05 4.5,0.25 5.15,-0.45 1.2,-0.3 1.3,-0.05 q 0.8,0.15 1.4,0.6 l 1.3,0.7 1.55,0.05 q 0.75,-0.25 1.45,-0.65 l 0.55,-0.6 0.65,-0.5 1.05,0.1 q 0.55,0.2 1,0 0.35,-0.2 0.5,-0.55 l 0.55,-0.45 0.1,0.85 q 0.05,0.45 -0.2,0.8"
         id="path65"
         inkscape:connector-curvature="0"
         style="fill:#d8a235;fill-rule:evenodd;stroke:none" />
      <path
         d="m -14.9,-40.75 0.5,0.15 0.85,0.35 q 0.3,0.25 -0.2,0.45 l -0.85,0.1 -0.3,-1.05"
         id="path67"
         inkscape:connector-curvature="0"
         style="fill:#d8a235;fill-rule:evenodd;stroke:none" />
      <path
         d="m -7.8,-40.55 q -1.55,-0.65 -3.9,-2.2 l -0.45,-0.35 -0.8,-0.7 -0.75,-0.35 -0.75,0.45 q -0.5,0.4 -1.35,0.5 l 0.35,-0.65 0.8,-1.2 q 0.45,-0.55 0.85,-0.5 l 0.4,0.15 0.5,0.65 1.05,1 q 1.1,0.95 3.1,2.05 2,1.1 4.85,1.75 0,0.05 -0.3,0.15 -0.35,0.15 -1.2,0 l -2.4,-0.75"
         id="path69"
         inkscape:connector-curvature="0"
         style="fill:#ffe4b3;fill-rule:evenodd;stroke:none" />
    </g>
    <g
       id="sprite0"
       transform="translate(15.85,12.4)">
      <use
         height="19.4"
         transform="translate(-15.85,-9.7)"
         width="31.65"
         xlink:href="#shape1"
         id="use72"
         x="0"
         y="0" />
    </g>
    <g
       id="shape1"
       transform="translate(15.85,9.7)">
      <path
         d="m -0.3,0.45 q 0.2,1.8 -0.1,3.5 Q -0.65,5.6 -1.35,7 l -6.3,1.1 -4.5,1.1 Q -13.4,7.9 -14.25,6 -15.1,4.15 -15.3,1.9 q -0.25,-2.9 0.5,-5.3 0.8,-2.4 2.35,-3.95 1.55,-1.5 3.65,-1.75 3.2,-0.3 5.5,2.15 2.3,2.4 3,7.4"
         id="path75"
         inkscape:connector-curvature="0"
         style="fill:#ffffff;fill-rule:evenodd;stroke:none" />
      <path
         d="m -0.3,0.45 q -0.7,-5 -3,-7.4 -2.3,-2.45 -5.5,-2.15 -2.1,0.25 -3.65,1.75 -1.55,1.55 -2.35,3.95 -0.75,2.4 -0.5,5.3 0.2,2.25 1.05,4.1 0.85,1.9 2.1,3.2 l 4.5,-1.1 6.3,-1.1 q 0.7,-1.4 0.95,-3.05 0.3,-1.7 0.1,-3.5"
         id="path77"
         inkscape:connector-curvature="0"
         style="fill:none;stroke:#000000;stroke-width:1;stroke-linecap:round;stroke-linejoin:round" />
      <path
         d="m -12.85,0.6 q 0.25,2.6 1.25,4.45 1,1.9 2.65,2.95 L -12,8.75 q -2.55,-2.45 -2.95,-6.9 -0.25,-2.7 0.45,-5 0.7,-2.25 2.15,-3.75 1.4,-1.5 3.3,-1.8 -1.95,1.15 -3,3.65 -1.05,2.45 -0.8,5.65"
         id="path79"
         inkscape:connector-curvature="0"
         style="fill:#e5e2be;fill-rule:evenodd;stroke:none" />
      <path
         d="m 11.95,-8.2 q 1.25,1.15 2.1,3.2 0.9,2.05 1.15,4.7 L 15.3,2.4 15.15,5.2 14.7,7.45 Q 12.4,6.4 10.15,6.05 7.95,5.7 6.55,6.05 5.4,3.8 5.1,0.7 4.9,-1.9 5.35,-4.15 q 0.5,-2.15 1.5,-3.5 1.05,-1.4 2.45,-1.55 1.4,-0.1 2.65,1"
         id="path81"
         inkscape:connector-curvature="0"
         style="fill:#ffffff;fill-rule:evenodd;stroke:none" />
      <path
         d="m 11.95,-8.2 q -1.25,-1.1 -2.65,-1 -1.4,0.15 -2.45,1.55 -1,1.35 -1.5,3.5 Q 4.9,-1.9 5.1,0.7 q 0.3,3.1 1.45,5.35 1.4,-0.35 3.6,0 2.25,0.35 4.55,1.4 L 15.15,5.2 15.3,2.4 15.2,-0.3 Q 14.95,-2.95 14.05,-5 13.2,-7.05 11.95,-8.2"
         id="path83"
         inkscape:connector-curvature="0"
         style="fill:none;stroke:#000000;stroke-width:1;stroke-linecap:round;stroke-linejoin:round" />
      <path
         d="M 5.4,-0.95 Q 5.4,-3.5 6.1,-5.5 6.85,-7.45 8,-8.35 7.1,-6.2 7.1,-3.2 l 0.05,1.55 Q 7.3,0 7.6,1.5 7.95,3 8.55,4.1 9.1,5.25 10,5.65 L 8.4,5.6 6.8,5.55 5.9,3.3 Q 5.6,2.15 5.45,0.65 L 5.4,-0.95"
         id="path85"
         inkscape:connector-curvature="0"
         style="fill:#e5e2be;fill-rule:evenodd;stroke:none" />
      <path
         d="m -3.95,-1.95 q 1.4,0.2 2.25,1.55 Q -0.9,1 -1.05,2.95 -1.25,4.8 -2.35,6 -3.4,7.2 -4.8,7.15 -6.25,6.95 -7,5.6 -7.85,4.2 -7.7,2.25 q 0.2,-1.9 1.25,-3.05 1.1,-1.2 2.5,-1.15"
         id="path87"
         inkscape:connector-curvature="0"
         style="fill:#000000;fill-rule:evenodd;stroke:none" />
      <path
         d="M -2.35,1 Q -2.4,1.8 -2.8,2.25 -3.25,2.75 -3.8,2.7 -4.35,2.65 -4.65,2.05 -5,1.55 -4.95,0.8 -4.9,0 -4.45,-0.45 q 0.4,-0.5 1,-0.45 0.55,0.05 0.9,0.65 0.3,0.5 0.2,1.25"
         id="path89"
         inkscape:connector-curvature="0"
         style="fill:#ffffff;fill-rule:evenodd;stroke:none" />
      <path
         d="M 14.6,1.95 Q 14.4,3.55 13.65,4.5 12.9,5.5 11.85,5.45 10.85,5.3 10.25,4.2 9.7,3.05 9.8,1.45 9.95,-0.1 10.75,-1.1 q 0.75,-0.95 1.8,-0.9 1,0.15 1.6,1.25 0.6,1.15 0.45,2.7"
         id="path91"
         inkscape:connector-curvature="0"
         style="fill:#000000;fill-rule:evenodd;stroke:none" />
      <path
         d="m 14.05,0.55 -0.4,1 Q 13.35,1.95 12.85,1.9 12.45,1.85 12.2,1.4 11.95,0.95 12,0.35 q 0.05,-0.6 0.4,-1 0.3,-0.4 0.75,-0.35 l 0.65,0.5 q 0.3,0.45 0.25,1.05"
         id="path93"
         inkscape:connector-curvature="0"
         style="fill:#ffffff;fill-rule:evenodd;stroke:none" />
    </g>
    <g
       transform="translate(38.55,62.1)"
       id="shape0-5">
      <path
         id="path3083"
         d="m -19.6,42.85 q -1.1,1.2 -3.05,1.75 l -4.05,0.7 -3.6,0.1 -1.5,-0.1 q -1.4,-0.35 -1.7,-0.85 -0.3,-0.55 -0.1,-0.95 l 0.25,-0.45 2.8,-0.45 2.35,-1.15 1.7,-1.3 0.65,-0.6 6.25,3.3"
         inkscape:connector-curvature="0"
         style="fill:#333333;fill-rule:evenodd;stroke:none" />
      <path
         id="path3085"
         d="m -25.85,39.55 -0.65,0.6 -1.7,1.3 -2.35,1.15 -2.8,0.45 -0.25,0.45 q -0.2,0.4 0.1,0.95 0.3,0.5 1.7,0.85 l 1.5,0.1 3.6,-0.1 4.05,-0.7 q 1.95,-0.55 3.05,-1.75"
         inkscape:connector-curvature="0"
         style="fill:none;stroke:#000000;stroke-width:2;stroke-linecap:round;stroke-linejoin:round" />
      <path
         id="path3087"
         d="m 2.3,-61 q 4.75,0.5 8.7,2.65 3.95,2.15 6.75,5.55 2.85,3.45 4.2,7.7 1.35,4.25 0.95,9.05 -0.15,2.15 0.6,5.8 0.65,3.6 1.95,8 l 2.85,8.95 3.05,8.65 2.6,7.1 q 1.35,3.7 1.9,7.8 0.55,4.05 0.15,8.35 -0.45,4.6 -1.9,8.8 -1.55,4.2 -3.9,7.85 -1.65,3.35 -4.05,5.8 l -5,4.6 q -2.6,2.2 -4.85,4.9 l -0.6,1 -1.05,2.75 -1.05,3.1 -1.45,2.5 q -0.85,1 -2.1,1.15 Q 8.9,61.1 8.4,60.05 7.85,59 7.55,57.65 L 6.7,55.4 Q 5.3,53.35 3.65,52.7 1.9,52.05 -0.05,52.05 l -4.1,-0.2 q -7.65,-0.8 -14,-4.25 -6.4,-3.5 -10.95,-9 -4.55,-5.5 -6.75,-12.4 -2.2,-6.9 -1.55,-14.55 0.8,-7.95 4.5,-14.45 1.3,-2.4 2.65,-6.05 l 2.65,-8.1 2.3,-8.8 1.75,-8.2 q 0.7,-3.85 0.95,-6.4 0.45,-4.8 2.6,-8.75 2.15,-3.9 5.55,-6.75 3.45,-2.85 7.7,-4.2 4.3,-1.35 9.05,-0.95"
         inkscape:connector-curvature="0"
         style="fill:#666666;fill-rule:evenodd;stroke:none" />
      <path
         id="path3089"
         d="m 2.3,-61 q -4.75,-0.4 -9.05,0.95 -4.25,1.35 -7.7,4.2 -3.4,2.85 -5.55,6.75 -2.15,3.95 -2.6,8.75 -0.25,2.55 -0.95,6.4 l -1.75,8.2 -2.3,8.8 -2.65,8.1 q -1.35,3.65 -2.65,6.05 -3.7,6.5 -4.5,14.45 -0.65,7.65 1.55,14.55 2.2,6.9 6.75,12.4 4.55,5.5 10.95,9 6.35,3.45 14,4.25 l 4.1,0.2 q 1.95,0 3.7,0.65 1.65,0.65 3.05,2.7 l 0.85,2.25 q 0.3,1.35 0.85,2.4 0.5,1.05 1.65,1 1.25,-0.15 2.1,-1.15 l 1.45,-2.5 1.05,-3.1 1.05,-2.75 0.6,-1 q 2.25,-2.7 4.85,-4.9 l 5,-4.6 q 2.4,-2.45 4.05,-5.8 2.35,-3.65 3.9,-7.85 1.45,-4.2 1.9,-8.8 0.4,-4.3 -0.15,-8.35 -0.55,-4.1 -1.9,-7.8 l -2.6,-7.1 -3.05,-8.65 -2.85,-8.95 q -1.3,-4.4 -1.95,-8 -0.75,-3.65 -0.6,-5.8 0.4,-4.8 -0.95,-9.05 -1.35,-4.25 -4.2,-7.7 Q 14.95,-56.2 11,-58.35 7.05,-60.5 2.3,-61"
         inkscape:connector-curvature="0"
         style="fill:none;stroke:#000000;stroke-width:2;stroke-linecap:round;stroke-linejoin:round" />
      <path
         id="path3091"
         d="m -14.85,-54.45 q 2.95,-2.75 6.85,-4.3 -3.1,2.85 -4.9,6.6 -1.85,3.7 -2.25,7.95 l -0.25,2.8 -0.65,6.85 q -0.35,3.45 -0.95,6.35 l -0.8,3.2 -1.05,4.6 q -0.5,2.2 -0.5,4.3 l 0.15,1.65 q -1.4,-0.75 -2.45,-0.35 -0.85,0.35 -1.35,1.2 l -0.9,1.85 -0.55,2.1 -0.25,0.95 q -0.75,2.6 -1.65,5.05 l -1.6,4.85 q -0.75,2.5 -1.05,5.2 -0.65,7.45 1.45,14.15 2.05,6.7 6.35,12.05 4.25,5.4 10.2,8.75 6,3.35 13.15,4.15 7.9,0.75 14.75,-1.65 6.75,-2.4 12.15,-7.8 -2.1,3.6 -5,6.6 L 18,48.35 q -1.9,1.8 -3.05,4 l -2.3,4.4 q -1.2,2.2 -3.05,3.85 -0.25,0.05 -0.8,-1 L 7.5,57.1 6.2,54.35 5.4,52.9 Q 4.1,51.6 2.7,51.35 L -0.35,51.2 -4.1,51.15 Q -11.6,50.4 -17.8,47 q -6.3,-3.4 -10.75,-8.8 -4.5,-5.4 -6.65,-12.15 -2.15,-6.8 -1.5,-14.3 0.75,-7.55 4.4,-14.15 1.3,-2.4 2.7,-6.1 1.35,-3.75 2.6,-8.1 l 2.3,-8.85 1.8,-8.3 q 0.75,-3.9 1,-6.55 0.4,-4.2 2.2,-7.8 1.85,-3.65 4.85,-6.35"
         inkscape:connector-curvature="0"
         style="fill:#333333;fill-rule:evenodd;stroke:none" />
      <path
         id="path3093"
         d="m 12.9,-55.35 q 1.25,0.45 2.35,1.55 l 2.05,2.35 1.6,2.35 q 1.85,4.15 2,8.75 0.05,2.1 1.25,6.05 0.05,2.25 0.75,5.6 0.7,3.35 1.9,7.3 l 2.5,8.05 2.75,7.85 2.45,6.75 0.4,1.05 q 2.15,5.9 2.2,12.2 l -0.15,3.4 -0.8,4.9 q -2.4,5.65 -6.2,9.9 -3.8,4.15 -8.6,6.5 -4.9,2.3 -10.35,2.5 -5.25,0.15 -10.15,-1.8 -4.9,-1.9 -9,-5.7 -3.3,-3.1 -5.65,-7 -2.3,-3.95 -3.6,-8.45 -1.35,-4.55 -1.45,-9.35 L -20.9,8.2 q 0,-6.35 2.05,-12.2 l 1.4,-5.4 1.15,-7.05 0.9,-7.7 0.6,-7.4 0.2,-6.15 0,-1.5 0,-0.75 q -0.05,-3 0.65,-5.9 0.65,-2.95 2.35,-5.2 1.7,-2.3 4.65,-3.35 l 2.05,-0.65 2.4,-0.45 3.55,0.15 q 1.85,0.3 3.4,1.15 1.55,0.9 2.35,2.3 -0.35,-0.75 0.5,-1.75 0.8,-1 2.35,-1.6 l 3.25,-0.1"
         inkscape:connector-curvature="0"
         style="fill:#cccccc;fill-rule:evenodd;stroke:none" />
      <path
         id="path3095"
         d="m 15,-54.1 1.75,1.85 1.4,2 2.1,3.6 q 0.9,1.85 1.25,3.9 l 0.5,4.05 0.35,6.15 q 0.3,3 1.05,6.05 0.9,3.8 2.1,7.55 l 2.45,7.5 4.55,12.7 0.1,0.25 0.25,0.5 0.1,0.3 q 2.15,5.9 2.15,12.15 l -0.15,3.45 -0.85,4.9 q -2.65,6.4 -7.1,10.9 -4.45,4.4 -10.15,6.5 5.25,-2.55 9.25,-7.25 3.95,-4.7 6.15,-11.2 L 32.85,16.7 32.8,13.15 Q 32.45,6.65 29.95,0.7 l -0.4,-1.05 -2.85,-6.85 -3.15,-7.9 -2.95,-8.15 q -1.4,-4 -2.3,-7.45 -0.9,-3.45 -1.05,-5.75 -1.4,-4 -1.55,-6.15 -0.45,-4.75 -2.5,-8.9 l -1.35,-1.9 -1.75,-2 2.8,0.05 2.1,1.25"
         inkscape:connector-curvature="0"
         style="fill:#e5e5e5;fill-rule:evenodd;stroke:none" />
      <path
         id="path3097"
         d="m -12.4,-49.85 q 1.25,-2.15 3.4,-3.55 -1.75,2.3 -2.45,5.25 -0.7,2.9 -0.7,5.95 l 0.05,0.75 0,1.55 -0.2,6.15 -0.55,7.4 q -0.4,3.9 -0.95,7.7 l -1.15,7 -1.4,5.4 q -2.05,5.85 -2.05,12.2 l 0.05,1.25 q 0.1,4.8 1.45,9.3 1.3,4.5 3.65,8.45 2.3,3.9 5.6,7 4.05,3.8 9,5.75 4.85,1.95 10.15,1.8 4.3,-0.2 8.3,-1.7 3.95,-1.55 7.35,-4.25 -3.7,3.75 -8.35,5.9 -4.6,2.1 -9.8,2.35 -5.25,0.1 -10.15,-1.85 -4.9,-1.95 -9,-5.75 -3.3,-3.1 -5.65,-7 -2.3,-3.9 -3.6,-8.4 -1.35,-4.5 -1.45,-9.35 l -0.05,-1.2 q 0,-6.35 2.05,-12.2 l 1.4,-5.4 1.15,-7 0.9,-7.7 0.6,-7.45 0.2,-6.15 0,-1.55 0,-0.7 q -0.05,-2.65 0.45,-5.2 0.55,-2.6 1.75,-4.75"
         inkscape:connector-curvature="0"
         style="fill:#b4b4b4;fill-rule:evenodd;stroke:none" />
      <path
         id="path3099"
         d="m 13.9,-24.3 -0.25,1.2 -0.8,2.85 q -0.5,1.7 -1.35,3.5 -0.8,1.75 -1.95,2.95 -1.2,1.25 -2.65,1.5 -1.55,0.15 -3.15,-0.9 -1.65,-1.05 -3.25,-2.65 l -2.85,-3.35 -2.05,-2.8 -0.8,-1.2 19.1,-1.1"
         inkscape:connector-curvature="0"
         style="fill:#b4b4b4;fill-rule:evenodd;stroke:none" />
      <path
         id="path3101"
         d="m -19.3,-16.1 2.7,-0.1 2.05,0.3 0.8,0.25 1.05,0.95 q 1.05,0.85 3.1,1.85 2.05,1 5.05,1.4 l 3.85,0.1 3.85,-0.3 3.3,-0.5 2,-0.5 0.55,0.05 q 0.45,0.05 0.8,0.5 0.35,0.45 -0.05,1.55 L 8.65,-8.5 Q 7.8,-7 6.2,-5 L 2.35,-1.15 Q 0.1,0.7 -2.8,1.95 -5.75,3.2 -9.3,3.3 -12.85,3.35 -17,1.7 -21.25,0.05 -26,-3.9 l 6.7,-12.2"
         inkscape:connector-curvature="0"
         style="fill:#666666;fill-rule:evenodd;stroke:none" />
      <path
         id="path3103"
         d="m -26,-3.9 q 4.75,3.95 9,5.6 4.15,1.65 7.7,1.6 3.55,-0.1 6.5,-1.35 2.9,-1.25 5.15,-3.1 L 6.2,-5 q 1.6,-2 2.45,-3.5 l 1.1,-2.05 q 0.4,-1.1 0.05,-1.55 -0.35,-0.45 -0.8,-0.5 l -0.55,-0.05 -2,0.5 -3.3,0.5 -3.85,0.3 -3.85,-0.1 q -3,-0.4 -5.05,-1.4 -2.05,-1 -3.1,-1.85 l -1.05,-0.95 -0.8,-0.25 -2.05,-0.3 -2.7,0.1"
         inkscape:connector-curvature="0"
         style="fill:none;stroke:#000000;stroke-width:2;stroke-linecap:round;stroke-linejoin:round" />
      <path
         id="path3105"
         d="m -26.75,-5.45 q 0.55,-0.8 0.7,-1.65 l 0.35,-1.7 q 0.2,-0.9 0.95,-1.7 l 0.85,-0.55 1.55,-0.85 1.6,-0.45 q 0.7,-0.05 0.85,0.45 l 1.05,4.3 q 0.6,2.25 1.95,4 1.35,1.7 3.9,2.15 l 0.05,0 4.75,0.15 5.5,-0.35 5.7,-0.8 q -3.55,3.05 -7.4,4.1 l -7.85,0.4 q -3.95,-0.65 -7.65,-2.6 -3.7,-1.95 -6.85,-4.9"
         inkscape:connector-curvature="0"
         style="fill:#333333;fill-rule:evenodd;stroke:none" />
      <path
         id="path3107"
         d="m 8.5,-12.3 0.5,0.1 0.45,0.25 0.1,0.6 -0.15,0.7 -0.2,0.45 -1.4,2.4 -2.65,3.45 q -1.65,1.9 -3.9,3.6 -2.25,1.7 -5.1,2.8 -2.85,1 -6.3,0.85 1.1,0 2.8,-0.7 1.8,-0.75 3.85,-2 L 0.45,-2.55 Q 2.35,-4.05 3.7,-5.6 5,-7.15 5.3,-8.45 5.4,-9 4.45,-9.3 l -2.55,-0.5 -3.4,-0.3 -3.4,-0.35 -2.65,-0.65 q -1.85,-0.7 -1.3,-0.55 l 4.25,0.6 q 2.4,0.25 5.05,0.05 l 4.9,-0.6 3.15,-0.7"
         inkscape:connector-curvature="0"
         style="fill:#999999;fill-rule:evenodd;stroke:none" />
      <path
         id="path3109"
         d="m 19.95,-12.05 q 1.95,-0.25 3.65,-1.25 1.65,-1 2.95,-3 l 0.5,-0.15 1.4,-0.1 q 0.9,0.1 2.2,0.9 l 2.8,2.65 q 3.05,3.75 3.85,6.1 0.8,2.35 -0.85,3.3 l -3.05,1.2 q -2.2,0.75 -5.35,0.95 -3.15,0.2 -6.95,-0.75 -3.75,-0.95 -7.75,-3.65 -1.75,-1.35 -1.9,-2.6 -0.15,-1.35 0.8,-2.3 0.95,-0.95 2.6,-1.15 l 0.9,0 4.2,-0.15"
         inkscape:connector-curvature="0"
         style="fill:#666666;fill-rule:evenodd;stroke:none" />
      <path
         id="path3111"
         d="m 19.95,-12.05 q 1.95,-0.25 3.65,-1.25 1.65,-1 2.95,-3 l 0.5,-0.15 1.4,-0.1 q 0.9,0.1 2.2,0.9 l 2.8,2.65 q 3.05,3.75 3.85,6.1 0.8,2.35 -0.85,3.3 l -3.05,1.2 q -2.2,0.75 -5.35,0.95 -3.15,0.2 -6.95,-0.75 -3.75,-0.95 -7.75,-3.65 -1.75,-1.35 -1.9,-2.6 -0.15,-1.35 0.8,-2.3 0.95,-0.95 2.6,-1.15 l 0.9,0 4.2,-0.15"
         inkscape:connector-curvature="0"
         style="fill:none;stroke:#000000;stroke-width:2;stroke-linecap:round;stroke-linejoin:round" />
      <path
         id="path3113"
         d="m 14.85,-11.2 0.8,0 4.1,-0.1 q 2.05,-0.25 3.95,-1.25 1.8,-1.05 3.25,-3.15 l 0.95,-0.2 q 0.75,0 2.05,0.65 1.2,0.7 2.9,2.7 l 2.9,4.1 q 1.25,2.1 1.05,3.3 -0.1,0.55 -0.75,0.95 L 35.7,-4.05 Q 36.25,-5.7 35.5,-7.6 l -0.5,-1 q -0.9,-1.55 -2.2,-2.6 -1.3,-1.1 -2.45,-1.4 l -3.95,0.35 -3.75,1.6 -3.3,1.4 q -1.65,0.6 -3.35,0.6 -1.75,-0.1 -3.6,-1.15 0.35,-0.6 1,-0.95 l 1.45,-0.45"
         inkscape:connector-curvature="0"
         style="fill:#999999;fill-rule:evenodd;stroke:none" />
      <path
         id="path3115"
         d="M 3.8,51.75 4.75,51.6 7,51.15 9.75,50.45 q 1.4,-0.45 2.4,-1.05"
         inkscape:connector-curvature="0"
         style="fill:none;stroke:#000000;stroke-width:1;stroke-linecap:round;stroke-linejoin:round" />
      <path
         id="path3117"
         d="m 13.4,-24.3 -0.3,1.15 -1.15,2.55 q -0.75,1.45 -2,2.6 -1.25,1.15 -3.1,1.3 -1.9,0 -4.05,-1.1 -2.15,-1.1 -4,-2.6 l -3.15,-2.6 -1.25,-1.25 19,-0.05"
         inkscape:connector-curvature="0"
         style="fill:#d8a235;fill-rule:evenodd;stroke:none" />
      <path
         id="path3119"
         d="m 13.4,-24.3 -19,0.05 1.25,1.25 3.15,2.6 q 1.85,1.5 4,2.6 2.15,1.1 4.05,1.1 1.85,-0.15 3.1,-1.3 1.25,-1.15 2,-2.6 l 1.15,-2.55 0.3,-1.15"
         inkscape:connector-curvature="0"
         style="fill:none;stroke:#000000;stroke-width:1;stroke-linecap:round;stroke-linejoin:round" />
      <path
         id="path3121"
         d="m 10.6,-23.6 -0.15,0.75 -0.5,1.6 q -0.45,0.9 -1.3,1.6 -0.8,0.7 -2.15,0.75 -1.35,0 -2.65,-0.7 l -2.55,-1.6 -1.8,-1.65 -0.75,-0.7 11.85,-0.05"
         inkscape:connector-curvature="0"
         style="fill:#c12d05;fill-rule:evenodd;stroke:none" />
      <path
         id="path3123"
         d="m 10.6,-23.6 -11.85,0.05 0.75,0.7 1.8,1.65 2.55,1.6 q 1.3,0.7 2.65,0.7 1.35,-0.05 2.15,-0.75 0.85,-0.7 1.3,-1.6 l 0.5,-1.6 0.15,-0.75"
         inkscape:connector-curvature="0"
         style="fill:none;stroke:#000000;stroke-width:1;stroke-linecap:round;stroke-linejoin:round" />
      <path
         id="path3125"
         d="m 2.85,-23.2 q 0.8,1.65 2.45,2.4 1.6,0.7 3.5,0.55 -0.8,0.95 -2.3,1.05 -1.3,0 -2.65,-0.75 l -2.5,-1.65 -1.75,-1.6 1.2,0 2.05,0"
         inkscape:connector-curvature="0"
         style="fill:#9b0d0d;fill-rule:evenodd;stroke:none" />
      <path
         id="path3127"
         d="m 18.2,-27.85 1.25,0.45 0.3,0.55 0.4,1.2 q 0.1,0.7 -0.3,1.25 -0.4,0.5 -1.1,0.55 l -1.15,0 -0.6,-0.1 q -0.8,1.65 -1.75,2.2 -1,0.55 -2.1,0.4 -1.1,-0.1 -2.35,-0.55 l -2.55,-0.65 -2.7,-0.2 -2.65,0 -2,-0.05 -2.8,-0.1 -2.7,-0.45 q -1.15,-0.35 -1.55,-1.05 l -0.55,-1.15 q 0,-0.25 0.7,-0.35 l 2.45,-0.35 3.35,-0.6 Q 1.5,-27.2 3,-27.9 l 2.05,-1.15 1.65,-1.65 0.6,-0.9 0.85,-1.15 1,-0.6 q 0.5,-0.1 0.95,0.65 0.65,1.05 2.1,2 1.5,0.95 3.15,1.65 l 2.85,1.2"
         inkscape:connector-curvature="0"
         style="fill:#f9c248;fill-rule:evenodd;stroke:none" />
      <path
         id="path3129"
         d="m 18.2,-27.85 1.25,0.45 0.3,0.55 0.4,1.2 q 0.1,0.7 -0.3,1.25 -0.4,0.5 -1.1,0.55 l -1.15,0 -0.6,-0.1 q -0.8,1.65 -1.75,2.2 -1,0.55 -2.1,0.4 -1.1,-0.1 -2.35,-0.55 l -2.55,-0.65 -2.7,-0.2 -2.65,0 -2,-0.05 -2.8,-0.1 -2.7,-0.45 q -1.15,-0.35 -1.55,-1.05 l -0.55,-1.15 q 0,-0.25 0.7,-0.35 l 2.45,-0.35 3.35,-0.6 Q 1.5,-27.2 3,-27.9 l 2.05,-1.15 1.65,-1.65 0.6,-0.9 0.85,-1.15 1,-0.6 q 0.5,-0.1 0.95,0.65 0.65,1.05 2.1,2 1.5,0.95 3.15,1.65 l 2.85,1.2"
         inkscape:connector-curvature="0"
         style="fill:none;stroke:#000000;stroke-width:1;stroke-linecap:round;stroke-linejoin:round" />
      <path
         id="path3131"
         d="m 19.6,-24.55 q -0.25,0.3 -0.85,0.4 l -1.15,0 -0.8,-0.15 -0.3,-0.1 0.05,0.55 q -0.7,1.55 -1.65,2 l -2,0.2 -2.35,-0.65 -2.45,-0.6 -3.55,-0.2 -2.95,-0.05 -2.65,-0.05 -3.05,-0.4 q -1.35,-0.25 -1.75,-0.95 L -6.1,-25 l -0.15,-0.4 0,-0.15 1.45,0.85 1.5,0.3 0.85,0.05 4.5,0.25 5.15,-0.45 1.2,-0.3 1.3,-0.05 1.4,0.6 1.3,0.7 1.55,0.05 1.45,-0.65 0.55,-0.6 0.65,-0.5 1.05,0.1 q 0.55,0.2 1,0 l 0.5,-0.55 0.55,-0.45 0.1,0.85 -0.2,0.8"
         inkscape:connector-curvature="0"
         style="fill:#d8a235;fill-rule:evenodd;stroke:none" />
      <path
         id="path3133"
         d="m 8.05,-28.15 0.5,0.15 0.85,0.35 q 0.3,0.25 -0.2,0.45 l -0.85,0.1 -0.3,-1.05"
         inkscape:connector-curvature="0"
         style="fill:#d8a235;fill-rule:evenodd;stroke:none" />
      <path
         id="path3135"
         d="m 15.15,-27.95 q -1.55,-0.65 -3.9,-2.2 L 10.8,-30.5 10,-31.2 9.25,-31.55 8.5,-31.1 q -0.5,0.4 -1.35,0.5 l 0.35,-0.65 0.8,-1.2 q 0.45,-0.55 0.85,-0.5 l 0.4,0.15 0.5,0.65 1.05,1 q 1.1,0.95 3.1,2.05 2,1.1 4.85,1.75 0,0.05 -0.3,0.15 -0.35,0.15 -1.2,0 -0.85,-0.1 -2.4,-0.75"
         inkscape:connector-curvature="0"
         style="fill:#ffe4b3;fill-rule:evenodd;stroke:none" />
      <path
         id="path3137"
         d="m 5.5,-38.3 q 0.2,1.8 -0.1,3.5 -0.25,1.65 -0.95,3.05 l -6.3,1.1 -4.5,1.1 q -1.25,-1.3 -2.1,-3.2 -0.85,-1.85 -1.05,-4.1 -0.25,-2.9 0.5,-5.3 0.8,-2.4 2.35,-3.95 1.55,-1.5 3.65,-1.75 3.2,-0.3 5.5,2.15 2.3,2.4 3,7.4"
         inkscape:connector-curvature="0"
         style="fill:#ffffff;fill-rule:evenodd;stroke:none" />
      <path
         id="path3139"
         d="m 5.5,-38.3 q -0.7,-5 -3,-7.4 -2.3,-2.45 -5.5,-2.15 -2.1,0.25 -3.65,1.75 -1.55,1.55 -2.35,3.95 -0.75,2.4 -0.5,5.3 0.2,2.25 1.05,4.1 0.85,1.9 2.1,3.2 l 4.5,-1.1 6.3,-1.1 q 0.7,-1.4 0.95,-3.05 0.3,-1.7 0.1,-3.5"
         inkscape:connector-curvature="0"
         style="fill:none;stroke:#000000;stroke-width:1;stroke-linecap:round;stroke-linejoin:round" />
      <path
         id="path3141"
         d="m -7.05,-38.15 q 0.25,2.6 1.25,4.45 1,1.9 2.65,2.95 L -6.2,-30 q -2.55,-2.45 -2.95,-6.9 -0.25,-2.7 0.45,-5 0.7,-2.25 2.15,-3.75 1.4,-1.5 3.3,-1.8 -1.95,1.15 -3,3.65 -1.05,2.45 -0.8,5.65"
         inkscape:connector-curvature="0"
         style="fill:#e5e2be;fill-rule:evenodd;stroke:none" />
      <path
         id="path3143"
         d="m 0.95,-31.65 q -1.45,-0.15 -2.25,-1.55 -0.8,-1.4 -0.65,-3.3 0.2,-1.9 1.25,-3.1 1.1,-1.15 2.5,-1.1 1.4,0.15 2.25,1.55 0.8,1.4 0.65,3.3 -0.2,1.9 -1.3,3.1 -1.05,1.2 -2.45,1.1"
         inkscape:connector-curvature="0"
         style="fill:#000000;fill-rule:evenodd;stroke:none" />
      <path
         id="path3145"
         d="M 3.45,-37.75 Q 3.4,-36.95 3,-36.5 2.55,-36 2,-36.05 1.45,-36.1 1.15,-36.7 q -0.35,-0.5 -0.3,-1.25 0.05,-0.8 0.5,-1.25 0.4,-0.5 1,-0.45 l 0.9,0.65 q 0.3,0.5 0.2,1.25"
         inkscape:connector-curvature="0"
         style="fill:#ffffff;fill-rule:evenodd;stroke:none" />
      <path
         id="path3147"
         d="m 17.8,-46.95 q 1.25,1.15 2.1,3.2 0.9,2.05 1.15,4.7 l 0.1,2.7 -0.15,2.8 -0.45,2.25 q -2.3,-1.05 -4.55,-1.4 -2.2,-0.35 -3.6,0 -1.15,-2.25 -1.45,-5.35 -0.2,-2.6 0.25,-4.85 0.5,-2.15 1.5,-3.5 1.05,-1.4 2.45,-1.55 1.4,-0.1 2.65,1"
         inkscape:connector-curvature="0"
         style="fill:#ffffff;fill-rule:evenodd;stroke:none" />
      <path
         id="path3149"
         d="m 17.8,-46.95 q -1.25,-1.1 -2.65,-1 -1.4,0.15 -2.45,1.55 -1,1.35 -1.5,3.5 -0.45,2.25 -0.25,4.85 0.3,3.1 1.45,5.35 1.4,-0.35 3.6,0 2.25,0.35 4.55,1.4 l 0.45,-2.25 0.15,-2.8 -0.1,-2.7 q -0.25,-2.65 -1.15,-4.7 -0.85,-2.05 -2.1,-3.2"
         inkscape:connector-curvature="0"
         style="fill:none;stroke:#000000;stroke-width:1;stroke-linecap:round;stroke-linejoin:round" />
      <path
         id="path3151"
         d="m 11.2,-39.7 q 0,-2.55 0.7,-4.55 0.75,-1.95 1.9,-2.85 -0.9,2.15 -0.9,5.15 l 0.05,1.55 q 0.15,1.65 0.45,3.15 0.35,1.5 0.95,2.6 0.55,1.15 1.45,1.55 l -1.6,-0.05 -1.6,-0.05 -0.9,-2.25 q -0.3,-1.15 -0.45,-2.65 l -0.05,-1.6"
         inkscape:connector-curvature="0"
         style="fill:#e5e2be;fill-rule:evenodd;stroke:none" />
      <path
         id="path3153"
         d="m 20.4,-36.8 q -0.2,1.6 -0.95,2.55 -0.75,1 -1.8,0.95 -1,-0.15 -1.6,-1.25 -0.55,-1.15 -0.45,-2.75 0.15,-1.55 0.95,-2.55 0.75,-0.95 1.8,-0.9 1,0.15 1.6,1.25 0.6,1.15 0.45,2.7"
         inkscape:connector-curvature="0"
         style="fill:#000000;fill-rule:evenodd;stroke:none" />
      <path
         id="path3155"
         d="m 19.8,-38.2 -0.4,1 q -0.3,0.4 -0.8,0.35 -0.4,-0.05 -0.65,-0.5 -0.25,-0.45 -0.2,-1.05 0.05,-0.6 0.4,-1 0.3,-0.4 0.75,-0.35 0.4,0.05 0.65,0.5 0.3,0.45 0.25,1.05"
         inkscape:connector-curvature="0"
         style="fill:#ffffff;fill-rule:evenodd;stroke:none" />
      <path
         id="path3157"
         d="M 2.25,47.3 1.3,47.9 -1,49.25 q -1.4,0.8 -2.95,1.45 l -2.9,0.8 -0.4,1.15 -1.15,2.55 -1.8,2.95 q -1.05,1.4 -2.3,2.2 -1.3,0.7 -2.75,0.25 l -0.35,-0.5 q -0.35,-0.55 -0.35,-1.6 l 0.4,-2.5 0.6,-3.7 q 0.2,-2 -0.3,-3.6 l 17.5,-1.4"
         inkscape:connector-curvature="0"
         style="fill:#333333;fill-rule:evenodd;stroke:none" />
      <path
         id="path3159"
         d="M 2.25,47.3 1.3,47.9 -1,49.25 q -1.4,0.8 -2.95,1.45 l -2.9,0.8 -0.4,1.15 -1.15,2.55 -1.8,2.95 q -1.05,1.4 -2.3,2.2 -1.3,0.7 -2.75,0.25 l -0.35,-0.5 q -0.35,-0.55 -0.35,-1.6 l 0.4,-2.5 0.6,-3.7 q 0.2,-2 -0.3,-3.6"
         inkscape:connector-curvature="0"
         style="fill:none;stroke:#000000;stroke-width:2;stroke-linecap:round;stroke-linejoin:round" />
    </g>
    <g
       transform="translate(61.45,74.7)"
       id="shape0-2">
      <path
         id="path3216"
         d="m -42.55,30.25 q -1.1,1.2 -3.05,1.75 l -4.05,0.7 -3.6,0.1 -1.5,-0.1 q -1.4,-0.35 -1.7,-0.85 -0.3,-0.55 -0.1,-0.95 l 0.25,-0.45 2.8,-0.45 2.35,-1.15 1.7,-1.3 0.65,-0.6 6.25,3.3"
         inkscape:connector-curvature="0"
         style="fill:#333333;fill-rule:evenodd;stroke:none" />
      <path
         id="path3218"
         d="m -48.8,26.95 -0.65,0.6 -1.7,1.3 -2.35,1.15 -2.8,0.45 -0.25,0.45 q -0.2,0.4 0.1,0.95 0.3,0.5 1.7,0.85 l 1.5,0.1 3.6,-0.1 4.05,-0.7 q 1.95,-0.55 3.05,-1.75"
         inkscape:connector-curvature="0"
         style="fill:none;stroke:#000000;stroke-width:2;stroke-linecap:round;stroke-linejoin:round" />
      <path
         id="path3220"
         d="m 2.55,-34.85 2.85,8.95 3.05,8.65 2.6,7.1 q 1.35,3.7 1.9,7.8 Q 13.5,1.7 13.1,6 12.65,10.6 11.2,14.8 9.65,19 7.3,22.65 6.2,24.95 4.4,27.3 l -3.85,4.35 -3.9,3.65 -3,2.5 -1.25,0.95 0.55,0.8 1.1,1.75 1.05,1.65 q 0.3,0.65 0.1,1 l -0.55,0.45 q -0.4,0.1 -0.4,0.15 -4.15,-0.05 -6.85,-0.95 -2.7,-0.95 -4.25,-2.2 l -2.3,-2.25 q -3.85,0.45 -7.9,0.1 -7.65,-0.8 -14,-4.25 -6.4,-3.5 -10.95,-9 -4.55,-5.5 -6.75,-12.4 -2.2,-6.9 -1.55,-14.55 0.8,-7.95 4.5,-14.45 1.3,-2.4 2.65,-6.05 l 2.65,-8.1 2.3,-8.8 1.75,-8.2 q 0.7,-3.85 0.95,-6.4 0.45,-4.8 2.6,-8.75 2.15,-3.9 5.55,-6.75 3.45,-2.85 7.7,-4.2 4.3,-1.35 9.05,-0.95 4.75,0.5 8.7,2.65 3.95,2.15 6.75,5.55 2.85,3.45 4.2,7.7 1.35,4.25 0.95,9.05 -0.15,2.15 0.6,5.8 0.65,3.6 1.95,8"
         inkscape:connector-curvature="0"
         style="fill:#666666;fill-rule:evenodd;stroke:none" />
      <path
         id="path3222"
         d="m 2.55,-34.85 q -1.3,-4.4 -1.95,-8 -0.75,-3.65 -0.6,-5.8 0.4,-4.8 -0.95,-9.05 -1.35,-4.25 -4.2,-7.7 -2.8,-3.4 -6.75,-5.55 -3.95,-2.15 -8.7,-2.65 -4.75,-0.4 -9.05,0.95 -4.25,1.35 -7.7,4.2 -3.4,2.85 -5.55,6.75 -2.15,3.95 -2.6,8.75 -0.25,2.55 -0.95,6.4 l -1.75,8.2 -2.3,8.8 -2.65,8.1 q -1.35,3.65 -2.65,6.05 -3.7,6.5 -4.5,14.45 -0.65,7.65 1.55,14.55 2.2,6.9 6.75,12.4 4.55,5.5 10.95,9 6.35,3.45 14,4.25 4.05,0.35 7.9,-0.1 l 2.3,2.25 q 1.55,1.25 4.25,2.2 2.7,0.9 6.85,0.95 0,-0.05 0.4,-0.15 l 0.55,-0.45 q 0.2,-0.35 -0.1,-1 l -1.05,-1.65 -1.1,-1.75 -0.55,-0.8 1.25,-0.95 3,-2.5 3.9,-3.65 L 4.4,27.3 Q 6.2,24.95 7.3,22.65 9.65,19 11.2,14.8 12.65,10.6 13.1,6 q 0.4,-4.3 -0.15,-8.35 -0.55,-4.1 -1.9,-7.8 l -2.6,-7.1 -3.05,-8.65 -2.85,-8.95"
         inkscape:connector-curvature="0"
         style="fill:none;stroke:#000000;stroke-width:2;stroke-linecap:round;stroke-linejoin:round" />
      <path
         id="path3224"
         d="m -35.8,-64.75 q -1.85,3.7 -2.25,7.95 l -0.25,2.8 -0.65,6.85 q -0.35,3.45 -0.95,6.35 l -0.8,3.2 -1.05,4.6 q -0.5,2.2 -0.5,4.3 l 0.15,1.65 q -1.4,-0.75 -2.45,-0.35 -0.85,0.35 -1.35,1.2 l -0.9,1.85 -0.55,2.1 -0.25,0.95 q -0.75,2.6 -1.65,5.05 l -1.6,4.85 q -0.75,2.5 -1.05,5.2 -0.65,7.45 1.45,14.15 2.05,6.7 6.35,12.05 4.25,5.4 10.2,8.75 6,3.35 13.15,4.15 7.9,0.75 14.75,-1.65 6.75,-2.4 12.15,-7.8 -1.55,2.7 -3.85,5.3 l -4.65,4.75 -3.95,3.4 -1.65,1.3 -0.55,0.4 0.2,0.3 2.15,3.5 0.8,1.05 -0.15,-0.05 0.15,0.25 -0.5,0.25 q -3.9,-0.05 -6.45,-0.95 -2.6,-0.85 -4.1,-2 l -2.15,-2.2 -0.25,-0.35 -0.4,0.05 q -3.95,0.5 -7.8,0.1 -7.5,-0.75 -13.7,-4.15 -6.3,-3.4 -10.75,-8.8 -4.5,-5.4 -6.65,-12.15 -2.15,-6.8 -1.5,-14.3 0.75,-7.55 4.4,-14.15 1.3,-2.4 2.7,-6.1 1.35,-3.75 2.6,-8.1 l 2.3,-8.85 1.8,-8.3 q 0.75,-3.9 1,-6.55 0.4,-4.2 2.2,-7.8 1.85,-3.65 4.85,-6.35 2.95,-2.75 6.85,-4.3 -3.1,2.85 -4.9,6.6"
         inkscape:connector-curvature="0"
         style="fill:#333333;fill-rule:evenodd;stroke:none" />
      <path
         id="path3226"
         d="m 4.35,-25.95 2.75,7.85 2.45,6.75 0.4,1.05 q 2.15,5.9 2.2,12.2 L 12,5.3 11.2,10.2 q -2.4,5.65 -6.2,9.9 -3.8,4.15 -8.6,6.5 -4.9,2.3 -10.35,2.5 -5.25,0.15 -10.15,-1.8 -4.9,-1.9 -9,-5.7 -3.3,-3.1 -5.65,-7 -2.3,-3.95 -3.6,-8.45 Q -43.7,1.6 -43.8,-3.2 l -0.05,-1.2 q 0,-6.35 2.05,-12.2 l 1.4,-5.4 1.15,-7.05 0.9,-7.7 0.6,-7.4 0.2,-6.15 0,-1.5 0,-0.75 q -0.05,-3 0.65,-5.9 0.65,-2.95 2.35,-5.2 1.7,-2.3 4.65,-3.35 l 2.05,-0.65 2.4,-0.45 3.55,0.15 q 1.85,0.3 3.4,1.15 1.55,0.9 2.35,2.3 -0.35,-0.75 0.5,-1.75 0.8,-1 2.35,-1.6 l 3.25,-0.1 q 1.25,0.45 2.35,1.55 l 2.05,2.35 1.6,2.35 q 1.85,4.15 2,8.75 0.05,2.1 1.25,6.05 0.05,2.25 0.75,5.6 0.7,3.35 1.9,7.3 l 2.5,8.05"
         inkscape:connector-curvature="0"
         style="fill:#cccccc;fill-rule:evenodd;stroke:none" />
      <path
         id="path3228"
         d="m 4.4,-25.95 2.7,7.85 2.45,6.75 0.45,1.05 q 2.15,5.9 2.15,12.15 L 12,5.3 11.15,10.2 Q 8.5,16.6 4.05,21.1 -0.4,25.5 -6.1,27.6 -0.85,25.05 3.15,20.35 7.1,15.65 9.3,9.15 L 9.9,4.1 9.85,0.55 Q 9.5,-5.95 7,-11.9 l -0.4,-1.05 -2.85,-6.85 -3.15,-7.9 -2.95,-8.15 -2.3,-7.45 q -0.9,-3.45 -1.05,-5.75 -1.4,-4 -1.55,-6.15 -0.45,-4.75 -2.5,-8.9 l -1.35,-1.9 -1.75,-2 2.8,0.05 q 1.25,0.45 2.35,1.55 l 2.05,2.35 1.6,2.35 q 1.85,4.15 2,8.75 0.05,2.1 1.25,6.05 0.05,2.25 0.75,5.6 0.7,3.35 1.9,7.35 l 2.55,8"
         inkscape:connector-curvature="0"
         style="fill:#e5e5e5;fill-rule:evenodd;stroke:none" />
      <path
         id="path3230"
         d="m -35.35,-62.45 q 1.25,-2.15 3.4,-3.55 -1.75,2.3 -2.45,5.25 -0.7,2.9 -0.7,5.95 l 0.05,0.75 0,1.55 -0.2,6.15 -0.55,7.4 q -0.4,3.9 -0.95,7.7 l -1.15,7 -1.4,5.4 q -2.05,5.85 -2.05,12.2 l 0.05,1.25 q 0.1,4.8 1.45,9.3 1.3,4.5 3.65,8.45 2.3,3.9 5.6,7 4.05,3.8 9,5.75 4.85,1.95 10.15,1.8 4.3,-0.2 8.3,-1.7 3.95,-1.55 7.35,-4.25 -3.7,3.75 -8.35,5.9 -4.6,2.1 -9.8,2.35 -5.25,0.1 -10.15,-1.85 -4.9,-1.95 -9,-5.75 -3.3,-3.1 -5.65,-7 -2.3,-3.9 -3.6,-8.4 -1.35,-4.5 -1.45,-9.35 l -0.05,-1.2 q 0,-6.35 2.05,-12.2 l 1.4,-5.4 1.15,-7 0.9,-7.7 0.6,-7.45 0.2,-6.15 0,-1.55 0,-0.7 q -0.05,-2.65 0.45,-5.2 0.55,-2.6 1.75,-4.75"
         inkscape:connector-curvature="0"
         style="fill:#b4b4b4;fill-rule:evenodd;stroke:none" />
      <path
         id="path3232"
         d="m -9.05,-36.9 -0.25,1.2 -0.8,2.85 q -0.5,1.7 -1.35,3.5 -0.8,1.75 -1.95,2.95 -1.2,1.25 -2.65,1.5 -1.55,0.15 -3.15,-0.9 -1.65,-1.05 -3.25,-2.65 l -2.85,-3.35 -2.05,-2.8 -0.8,-1.2 19.1,-1.1"
         inkscape:connector-curvature="0"
         style="fill:#b4b4b4;fill-rule:evenodd;stroke:none" />
      <path
         id="path3234"
         d="m -16.15,-29.3 q -1.9,0 -4.05,-1.1 -2.15,-1.1 -4,-2.55 l -3.1,-2.65 -1.3,-1.2 19,-0.1 -0.3,1.15 -1.1,2.55 q -0.8,1.45 -2.05,2.6 -1.25,1.15 -3.1,1.3"
         inkscape:connector-curvature="0"
         style="fill:#d8a235;fill-rule:evenodd;stroke:none" />
      <path
         id="path3236"
         d="m -16.15,-29.3 q 1.85,-0.15 3.1,-1.3 1.25,-1.15 2.05,-2.6 l 1.1,-2.55 0.3,-1.15 -19,0.1 1.3,1.2 3.1,2.65 q 1.85,1.45 4,2.55 2.15,1.1 4.05,1.1"
         inkscape:connector-curvature="0"
         style="fill:none;stroke:#000000;stroke-width:1;stroke-linecap:round;stroke-linejoin:round" />
      <path
         id="path3238"
         d="m -12.35,-36.2 -0.15,0.75 q -0.1,0.7 -0.5,1.6 -0.45,0.9 -1.3,1.6 -0.8,0.7 -2.15,0.75 -1.35,0 -2.65,-0.7 l -2.55,-1.6 -1.8,-1.65 -0.75,-0.7 11.85,-0.05"
         inkscape:connector-curvature="0"
         style="fill:#c12d05;fill-rule:evenodd;stroke:none" />
      <path
         id="path3240"
         d="m -12.35,-36.2 -11.85,0.05 0.75,0.7 1.8,1.65 2.55,1.6 q 1.3,0.7 2.65,0.7 1.35,-0.05 2.15,-0.75 0.85,-0.7 1.3,-1.6 0.4,-0.9 0.5,-1.6 l 0.15,-0.75"
         inkscape:connector-curvature="0"
         style="fill:none;stroke:#000000;stroke-width:1;stroke-linecap:round;stroke-linejoin:round" />
      <path
         id="path3242"
         d="m -20.1,-35.8 q 0.8,1.65 2.45,2.4 1.6,0.7 3.5,0.55 -0.8,0.95 -2.3,1.05 -1.3,0 -2.65,-0.75 l -2.5,-1.65 -1.75,-1.6 1.2,0 2.05,0"
         inkscape:connector-curvature="0"
         style="fill:#9b0d0d;fill-rule:evenodd;stroke:none" />
      <path
         id="path3244"
         d="m -44.65,-27.05 1.25,0.45 3.4,0.45 q 2.15,0.1 4.8,-0.75 2.15,-0.8 4.35,-2.05 l 3.75,-2.45 2.25,-1.75 0.45,-0.2 0.9,0.15 q 0.45,0.3 0.6,1.4 l 0,2.3 q -0.1,1.7 -0.55,4.15 -0.5,2.4 -1.55,5 -1.1,2.55 -3,4.85 -1.9,2.3 -4.8,3.75 -2.95,1.45 -7.15,1.65 -4.25,0.15 -9.9,-1.5 l 5.2,-15.45"
         inkscape:connector-curvature="0"
         style="fill:#666666;fill-rule:evenodd;stroke:none" />
      <path
         id="path3246"
         d="m -44.65,-27.05 1.25,0.45 3.4,0.45 q 2.15,0.1 4.8,-0.75 2.15,-0.8 4.35,-2.05 l 3.75,-2.45 2.25,-1.75 0.45,-0.2 0.9,0.15 q 0.45,0.3 0.6,1.4 l 0,2.3 q -0.1,1.7 -0.55,4.15 -0.5,2.4 -1.55,5 -1.1,2.55 -3,4.85 -1.9,2.3 -4.8,3.75 -2.95,1.45 -7.15,1.65 -4.25,0.15 -9.9,-1.5"
         inkscape:connector-curvature="0"
         style="fill:none;stroke:#000000;stroke-width:2;stroke-linecap:round;stroke-linejoin:round" />
      <path
         id="path3248"
         d="m -43.9,-16.2 q 1.25,1.1 2.7,1.6 1.45,0.45 3.25,0 2.85,-1 6.3,-2.9 3.35,-1.9 6.6,-4.35 -1.6,4.15 -4.4,6.65 -2.85,2.5 -6.4,3.5 -3.55,0.95 -7.45,0.65 -3.95,-0.3 -7.8,-1.7 0.05,-0.95 -0.2,-1.75 l -0.4,-1.65 q -0.25,-0.9 0.05,-1.9 l 0.5,-0.9 0.95,-1.35 1.1,-1 0.9,0.05 2,2.6 2.3,2.45"
         inkscape:connector-curvature="0"
         style="fill:#333333;fill-rule:evenodd;stroke:none" />
      <path
         id="path3250"
         d="m -44,-26.5 1.55,0.4 3.25,0.25 q 1.85,-0.05 4.1,-0.75 2.1,-0.75 4.3,-2 2.1,-1.2 3.8,-2.4 l 2.35,-1.9 0.35,-0.1 0.55,0 0.4,0.5 0.1,0.7 0,0.55 -0.1,2.65 q -0.15,1.8 -0.7,4.2 -0.6,2.35 -1.75,4.8 -1.1,2.4 -3.05,4.5 -1.95,2.05 -4.9,3.3 1.15,-0.55 2.7,-2.45 1.5,-2 2.85,-4.6 1.35,-2.65 2.15,-5.15 0.7,-2.5 0.35,-4.15 -0.25,-0.7 -1.6,-0.4 l -3.25,1 -3.8,1.4 q -1.9,0.6 -3.2,0.7 -3.4,0.05 -6.45,-1.05"
         inkscape:connector-curvature="0"
         style="fill:#999999;fill-rule:evenodd;stroke:none" />
      <path
         id="path3252"
         d="m 6.6,-29.15 q 0.8,0.25 1.85,1.6 1,1.3 1.55,4.5 0.8,4.8 0.35,7.2 -0.5,2.45 -2.4,2.4 l -3.3,-0.45 q -2.25,-0.5 -5.05,-1.9 -2.85,-1.4 -5.65,-4.05 -2.8,-2.7 -4.9,-7.1 -0.85,-2 -0.35,-3.2 0.5,-1.2 1.8,-1.55 l 2.9,0.25 0.75,0.45 q 1.8,1.25 3.7,2 1.85,0.75 3.8,0.75 1.95,0 4.05,-1.1 l 0.9,0.2"
         inkscape:connector-curvature="0"
         style="fill:#666666;fill-rule:evenodd;stroke:none" />
      <path
         id="path3254"
         d="m 6.6,-29.15 q 0.8,0.25 1.85,1.6 1,1.3 1.55,4.5 0.8,4.8 0.35,7.2 -0.5,2.45 -2.4,2.4 l -3.3,-0.45 q -2.25,-0.5 -5.05,-1.9 -2.85,-1.4 -5.65,-4.05 -2.8,-2.7 -4.9,-7.1 -0.85,-2 -0.35,-3.2 0.5,-1.2 1.8,-1.55 l 2.9,0.25 0.75,0.45 q 1.8,1.25 3.7,2 1.85,0.75 3.8,0.75 1.95,0 4.05,-1.1 l 0.9,0.2"
         inkscape:connector-curvature="0"
         style="fill:none;stroke:#000000;stroke-width:2;stroke-linecap:round;stroke-linejoin:round" />
      <path
         id="path3256"
         d="m 5.8,-28.6 0.95,0.3 1.4,1.6 q 0.7,1.2 1.2,3.75 l 0.45,5 q 0,2.5 -0.75,3.4 -0.4,0.45 -1.1,0.45 l -0.15,0 -0.3,0 q 1.35,-1.2 1.65,-3.25 l 0.1,-1.05 Q 9.2,-20.2 8.6,-21.8 8,-23.35 7.15,-24.2 5.55,-25.5 3.6,-25.85 l -4.05,-0.55 -3.6,-0.4 q -1.7,-0.35 -3.15,-1.2 -1.5,-0.95 -2.55,-2.8 l 1.35,-0.3 q 0.7,0 1.45,0.35 l 0.75,0.4 q 1.65,1.1 3.55,1.95 1.9,0.8 4.05,0.9 2.1,0.05 4.4,-1.1"
         inkscape:connector-curvature="0"
         style="fill:#999999;fill-rule:evenodd;stroke:none" />
      <path
         id="path3258"
         d="m -28.9,36.55 -0.05,1.25 0.45,2.95 q 0.45,1.7 1.7,3.25 l 0,0.1 -0.4,0.25 -1.5,-0.05 -2.45,-0.2 q -1.5,-0.2 -3.3,-1.1 -1.9,-0.9 -3.7,-3.05 -1.85,-2.2 -3.4,-6.25 l 12.65,2.85"
         inkscape:connector-curvature="0"
         style="fill:#333333;fill-rule:evenodd;stroke:none" />
      <path
         id="path3260"
         d="m -28.9,36.55 -0.05,1.25 0.45,2.95 q 0.45,1.7 1.7,3.25 l 0,0.1 -0.4,0.25 -1.5,-0.05 -2.45,-0.2 q -1.5,-0.2 -3.3,-1.1 -1.9,-0.9 -3.7,-3.05 -1.85,-2.2 -3.4,-6.25"
         inkscape:connector-curvature="0"
         style="fill:none;stroke:#000000;stroke-width:2;stroke-linecap:round;stroke-linejoin:round" />
      <path
         id="path3262"
         d="m -19.15,39.15 0.95,-0.15 2.25,-0.45 2.75,-0.7 q 1.4,-0.45 2.4,-1.05"
         inkscape:connector-curvature="0"
         style="fill:none;stroke:#000000;stroke-width:1;stroke-linecap:round;stroke-linejoin:round" />
      <path
         id="path3264"
         d="m -4.75,-40.45 1.25,0.45 0.3,0.55 0.4,1.2 q 0.1,0.7 -0.3,1.25 -0.4,0.5 -1.1,0.55 l -1.15,0 -0.6,-0.1 q -0.8,1.65 -1.75,2.2 -1,0.55 -2.1,0.4 -1.1,-0.1 -2.35,-0.55 l -2.55,-0.65 -2.7,-0.2 -2.65,0 -2,-0.05 -2.8,-0.1 -2.7,-0.45 Q -28.7,-36.3 -29.1,-37 l -0.55,-1.15 q 0,-0.25 0.7,-0.35 l 2.45,-0.35 3.35,-0.6 q 1.7,-0.35 3.2,-1.05 1.1,-0.45 2.05,-1.15 0.9,-0.65 1.65,-1.65 l 0.6,-0.9 0.85,-1.15 q 0.45,-0.5 1,-0.6 0.5,-0.1 0.95,0.65 0.65,1.05 2.1,2 1.5,0.95 3.15,1.65 l 2.85,1.2"
         inkscape:connector-curvature="0"
         style="fill:#f9c248;fill-rule:evenodd;stroke:none" />
      <path
         id="path3266"
         d="m -4.75,-40.45 1.25,0.45 0.3,0.55 0.4,1.2 q 0.1,0.7 -0.3,1.25 -0.4,0.5 -1.1,0.55 l -1.15,0 -0.6,-0.1 q -0.8,1.65 -1.75,2.2 -1,0.55 -2.1,0.4 -1.1,-0.1 -2.35,-0.55 l -2.55,-0.65 -2.7,-0.2 -2.65,0 -2,-0.05 -2.8,-0.1 -2.7,-0.45 Q -28.7,-36.3 -29.1,-37 l -0.55,-1.15 q 0,-0.25 0.7,-0.35 l 2.45,-0.35 3.35,-0.6 q 1.7,-0.35 3.2,-1.05 1.1,-0.45 2.05,-1.15 0.9,-0.65 1.65,-1.65 l 0.6,-0.9 0.85,-1.15 q 0.45,-0.5 1,-0.6 0.5,-0.1 0.95,0.65 0.65,1.05 2.1,2 1.5,0.95 3.15,1.65 l 2.85,1.2"
         inkscape:connector-curvature="0"
         style="fill:none;stroke:#000000;stroke-width:1;stroke-linecap:round;stroke-linejoin:round" />
      <path
         id="path3268"
         d="m -3.35,-37.15 q -0.25,0.3 -0.85,0.4 l -1.15,0 -0.8,-0.15 -0.3,-0.1 0.05,0.55 q -0.7,1.55 -1.65,2 l -2,0.2 -2.35,-0.65 -2.45,-0.6 -3.55,-0.2 -2.95,-0.05 -2.65,-0.05 -3.05,-0.4 q -1.35,-0.25 -1.75,-0.95 l -0.25,-0.45 -0.15,-0.4 0,-0.15 q 0.65,0.6 1.45,0.85 l 1.5,0.3 0.85,0.05 4.5,0.25 5.15,-0.45 1.2,-0.3 1.3,-0.05 q 0.8,0.15 1.4,0.6 l 1.3,0.7 1.55,0.05 q 0.75,-0.25 1.45,-0.65 l 0.55,-0.6 0.65,-0.5 1.05,0.1 q 0.55,0.2 1,0 0.35,-0.2 0.5,-0.55 l 0.55,-0.45 0.1,0.85 q 0.05,0.45 -0.2,0.8"
         inkscape:connector-curvature="0"
         style="fill:#d8a235;fill-rule:evenodd;stroke:none" />
      <path
         id="path3270"
         d="m -14.9,-40.75 0.5,0.15 0.85,0.35 q 0.3,0.25 -0.2,0.45 l -0.85,0.1 -0.3,-1.05"
         inkscape:connector-curvature="0"
         style="fill:#d8a235;fill-rule:evenodd;stroke:none" />
      <path
         id="path3272"
         d="m -7.8,-40.55 q -1.55,-0.65 -3.9,-2.2 l -0.45,-0.35 -0.8,-0.7 -0.75,-0.35 -0.75,0.45 q -0.5,0.4 -1.35,0.5 l 0.35,-0.65 0.8,-1.2 q 0.45,-0.55 0.85,-0.5 l 0.4,0.15 0.5,0.65 1.05,1 q 1.1,0.95 3.1,2.05 2,1.1 4.85,1.75 0,0.05 -0.3,0.15 -0.35,0.15 -1.2,0 l -2.4,-0.75"
         inkscape:connector-curvature="0"
         style="fill:#ffe4b3;fill-rule:evenodd;stroke:none" />
      <path
         id="path3274"
         d="m -17.2,-51.25 q 0.2,1.8 -0.1,3.5 -0.25,1.65 -0.95,3.05 l -6.3,1.1 -4.5,1.1 q -1.25,-1.3 -2.1,-3.2 -0.85,-1.85 -1.05,-4.1 -0.25,-2.9 0.5,-5.3 0.8,-2.4 2.35,-3.95 1.55,-1.5 3.65,-1.75 3.2,-0.3 5.5,2.15 2.3,2.4 3,7.4"
         inkscape:connector-curvature="0"
         style="fill:#ffffff;fill-rule:evenodd;stroke:none" />
      <path
         id="path3276"
         d="m -17.2,-51.25 q -0.7,-5 -3,-7.4 -2.3,-2.45 -5.5,-2.15 -2.1,0.25 -3.65,1.75 -1.55,1.55 -2.35,3.95 -0.75,2.4 -0.5,5.3 0.2,2.25 1.05,4.1 0.85,1.9 2.1,3.2 l 4.5,-1.1 6.3,-1.1 q 0.7,-1.4 0.95,-3.05 0.3,-1.7 0.1,-3.5"
         inkscape:connector-curvature="0"
         style="fill:none;stroke:#000000;stroke-width:1;stroke-linecap:round;stroke-linejoin:round" />
      <path
         id="path3278"
         d="m -29.75,-51.1 q 0.25,2.6 1.25,4.45 1,1.9 2.65,2.95 l -3.05,0.75 q -2.55,-2.45 -2.95,-6.9 -0.25,-2.7 0.45,-5 0.7,-2.25 2.15,-3.75 1.4,-1.5 3.3,-1.8 -1.95,1.15 -3,3.65 -1.05,2.45 -0.8,5.65"
         inkscape:connector-curvature="0"
         style="fill:#e5e2be;fill-rule:evenodd;stroke:none" />
      <path
         id="path3280"
         d="m -21.7,-44.6 q -1.45,-0.15 -2.25,-1.55 -0.8,-1.4 -0.65,-3.3 0.2,-1.9 1.25,-3.1 1.1,-1.15 2.5,-1.1 1.4,0.15 2.25,1.55 0.8,1.4 0.65,3.3 -0.2,1.9 -1.3,3.1 -1.05,1.2 -2.45,1.1"
         inkscape:connector-curvature="0"
         style="fill:#000000;fill-rule:evenodd;stroke:none" />
      <path
         id="path3282"
         d="m -19.25,-50.7 q -0.05,0.8 -0.45,1.25 -0.45,0.5 -1,0.45 -0.55,-0.05 -0.85,-0.65 -0.35,-0.5 -0.3,-1.25 0.05,-0.8 0.5,-1.25 0.4,-0.5 1,-0.45 0.55,0.05 0.9,0.65 0.3,0.5 0.2,1.25"
         inkscape:connector-curvature="0"
         style="fill:#ffffff;fill-rule:evenodd;stroke:none" />
      <path
         id="path3284"
         d="m -4.95,-59.9 q 1.25,1.15 2.1,3.2 0.9,2.05 1.15,4.7 l 0.1,2.7 q 0,1.45 -0.15,2.8 -0.15,1.35 -0.45,2.25 -2.3,-1.05 -4.55,-1.4 -2.2,-0.35 -3.6,0 -1.15,-2.25 -1.45,-5.35 -0.2,-2.6 0.25,-4.85 0.5,-2.15 1.5,-3.5 1.05,-1.4 2.45,-1.55 1.4,-0.1 2.65,1"
         inkscape:connector-curvature="0"
         style="fill:#ffffff;fill-rule:evenodd;stroke:none" />
      <path
         id="path3286"
         d="m -4.95,-59.9 q -1.25,-1.1 -2.65,-1 -1.4,0.15 -2.45,1.55 -1,1.35 -1.5,3.5 -0.45,2.25 -0.25,4.85 0.3,3.1 1.45,5.35 1.4,-0.35 3.6,0 2.25,0.35 4.55,1.4 0.3,-0.9 0.45,-2.25 0.15,-1.35 0.15,-2.8 L -1.7,-52 q -0.25,-2.65 -1.15,-4.7 -0.85,-2.05 -2.1,-3.2"
         inkscape:connector-curvature="0"
         style="fill:none;stroke:#000000;stroke-width:1;stroke-linecap:round;stroke-linejoin:round" />
      <path
         id="path3288"
         d="m -11.5,-52.65 q 0,-2.55 0.7,-4.55 0.75,-1.95 1.9,-2.85 -0.9,2.15 -0.9,5.15 l 0.05,1.55 0.45,3.15 0.95,2.6 q 0.55,1.15 1.45,1.55 l -1.6,-0.05 -1.6,-0.05 -0.9,-2.25 -0.45,-2.65 -0.05,-1.6"
         inkscape:connector-curvature="0"
         style="fill:#e5e2be;fill-rule:evenodd;stroke:none" />
      <path
         id="path3290"
         d="m -2.3,-49.75 q -0.2,1.6 -0.95,2.55 -0.75,1 -1.8,0.95 -1,-0.15 -1.6,-1.25 -0.55,-1.15 -0.45,-2.75 0.15,-1.55 0.95,-2.55 0.75,-0.95 1.8,-0.9 1,0.15 1.6,1.25 0.6,1.15 0.45,2.7"
         inkscape:connector-curvature="0"
         style="fill:#000000;fill-rule:evenodd;stroke:none" />
      <path
         id="path3292"
         d="m -2.85,-51.15 -0.4,1 q -0.3,0.4 -0.8,0.35 l -0.65,-0.5 -0.2,-1.05 0.4,-1 q 0.3,-0.4 0.75,-0.35 0.4,0.05 0.65,0.5 0.3,0.45 0.25,1.05"
         inkscape:connector-curvature="0"
         style="fill:#ffffff;fill-rule:evenodd;stroke:none" />
      <path
         id="path3294"
         d="m -25.55,-61 q 3.2,-0.3 5.5,2.15 2.3,2.4 3,7.4 0.2,1.8 -0.1,3.5 -0.25,1.65 -0.9,3.05 l -6.35,1.15 -4.5,1.05 q -1.25,-1.3 -2.1,-3.15 -0.85,-1.9 -1.05,-4.15 -0.25,-2.9 0.55,-5.3 0.75,-2.4 2.35,-3.95 1.5,-1.5 3.6,-1.75"
         inkscape:connector-curvature="0"
         style="fill:#666666;fill-rule:evenodd;stroke:none" />
      <path
         id="path3296"
         d="m -25.55,-61 q -2.1,0.25 -3.6,1.75 -1.6,1.55 -2.35,3.95 -0.8,2.4 -0.55,5.3 0.2,2.25 1.05,4.15 0.85,1.85 2.1,3.15 l 4.5,-1.05 6.35,-1.15 q 0.65,-1.4 0.9,-3.05 0.3,-1.7 0.1,-3.5 -0.7,-5 -3,-7.4 -2.3,-2.45 -5.5,-2.15"
         inkscape:connector-curvature="0"
         style="fill:none;stroke:#000000;stroke-width:1;stroke-linecap:round;stroke-linejoin:round" />
      <path
         id="path3298"
         d="m -31.25,-55 q 0.7,-2.3 2.15,-3.75 1.4,-1.55 3.35,-1.85 -2,1.15 -3.05,3.65 -1.05,2.5 -0.8,5.65 0.25,2.6 1.25,4.45 1,1.9 2.7,2.95 l -3.1,0.8 q -2.55,-2.5 -2.95,-6.9 -0.25,-2.7 0.45,-5"
         inkscape:connector-curvature="0"
         style="fill:#333333;fill-rule:evenodd;stroke:none" />
      <path
         id="path3300"
         d="m -4.8,-60.05 q 1.25,1.1 2.1,3.15 0.9,2.05 1.15,4.7 l 0.15,2.7 -0.2,2.85 q -0.15,1.3 -0.45,2.2 -2.3,-1.05 -4.5,-1.4 -2.25,-0.35 -3.65,0 -1.15,-2.25 -1.45,-5.35 -0.2,-2.6 0.25,-4.8 0.5,-2.2 1.5,-3.55 1.05,-1.35 2.45,-1.55 1.4,-0.1 2.65,1.05"
         inkscape:connector-curvature="0"
         style="fill:#666666;fill-rule:evenodd;stroke:none" />
      <path
         id="path3302"
         d="m -4.8,-60.05 q -1.25,-1.15 -2.65,-1.05 -1.4,0.2 -2.45,1.55 -1,1.35 -1.5,3.55 -0.45,2.2 -0.25,4.8 0.3,3.1 1.45,5.35 1.4,-0.35 3.65,0 2.2,0.35 4.5,1.4 0.3,-0.9 0.45,-2.2 l 0.2,-2.85 -0.15,-2.7 q -0.25,-2.65 -1.15,-4.7 -0.85,-2.05 -2.1,-3.15"
         inkscape:connector-curvature="0"
         style="fill:none;stroke:#000000;stroke-width:1;stroke-linecap:round;stroke-linejoin:round" />
      <path
         id="path3304"
         d="m -11.35,-52.8 q 0,-2.6 0.7,-4.55 0.75,-2 1.95,-2.9 -0.95,2.15 -0.95,5.15 l 0.05,1.6 0.45,3.15 0.95,2.55 q 0.55,1.1 1.5,1.55 l -1.65,-0.05 -1.6,-0.05 -0.85,-2.25 -0.45,-2.65 -0.1,-1.55"
         inkscape:connector-curvature="0"
         style="fill:#333333;fill-rule:evenodd;stroke:none" />
    </g>
  </defs>
  <g
     id="g3076"
     transform="translate(233.55363,86.590037)">
    <use
       id="use3078"
       xlink:href="#shape0-5"
       width="77.099998"
       transform="matrix(1,0,0,1.0178,-143.81949,-86.6077)"
       height="124.15"
       x="0"
       y="0" />
  </g>
  <g
     id="g3209"
     transform="translate(239.73393,77.738505)">
    <use
       id="use3211"
       xlink:href="#shape0-2"
       width="75.699997"
       transform="translate(-61.45,-74.7)"
       height="120.25"
       x="0"
       y="0" />
  </g>
</svg>
