<?xml version="1.0" encoding="UTF-8" standalone="no"?>
<svg xmlns:xlink="http://www.w3.org/1999/xlink" height="13.0px" width="11.0px" xmlns="http://www.w3.org/2000/svg">
  <g transform="matrix(1, 0, 0, 1, 0.5, 0.5)">
    <use height="13.0" transform="matrix(1.0, 0.0, 0.0, 1.0, -0.5, -0.5)" width="11.0" xlink:href="#shape0"/>
  </g>
  <defs>
    <g id="shape0" transform="matrix(1, 0, 0, 1, 0.5, 0.5)">
      <path d="M1.45 1.75 Q2.95 0.0 5.0 0.0 7.05 0.0 8.5 1.75 10.0 3.5 10.0 6.0 10.0 8.5 8.5 10.25 7.05 12.0 5.0 12.0 2.95 12.0 1.45 10.25 0.0 8.5 0.0 6.0 0.0 3.5 1.45 1.75" fill="#003300" fill-rule="evenodd" stroke="none"/>
      <path d="M1.45 1.75 Q2.95 0.0 5.0 0.0 7.05 0.0 8.5 1.75 10.0 3.5 10.0 6.0 10.0 8.5 8.5 10.25 7.05 12.0 5.0 12.0 2.95 12.0 1.45 10.25 0.0 8.5 0.0 6.0 0.0 3.5 1.45 1.75" fill="none" stroke="#000000" stroke-linecap="round" stroke-linejoin="round" stroke-width="1.0"/>
    </g>
  </defs>
</svg>
