<?xml version="1.0" encoding="UTF-8" standalone="no"?>
<svg xmlns:xlink="http://www.w3.org/1999/xlink" height="43.2px" width="126.2px" xmlns="http://www.w3.org/2000/svg">
  <g transform="matrix(1, 0, 0, 1, 64.35, 22.35)">
    <use height="33.45" transform="matrix(0.2442, 0.0, 0.0, 0.2442, -53.8927, -7.8509)" width="33.4" xlink:href="#sprite0"/>
    <use height="41.45" transform="matrix(1.0, 0.0, 0.0, 1.0, -64.3, -22.35)" width="120.3" xlink:href="#shape1"/>
  </g>
  <defs>
    <g id="sprite0" transform="matrix(1, 0, 0, 1, 16.35, 23.55)">
      <use height="25.4" transform="matrix(0.8077, 0.0, 0.0, 0.8077, -9.9866, -10.6327)" width="25.4" xlink:href="#shape0"/>
    </g>
    <g id="shape0" transform="matrix(1, 0, 0, 1, 12.55, 13.35)">
      <path d="M8.9 -9.4 Q12.5 -5.8 12.5 -0.65 12.5 4.45 8.9 8.1 5.25 11.7 0.15 11.7 -5.0 11.7 -8.6 8.1 -12.2 4.45 -12.2 -0.65 -12.2 -5.8 -8.6 -9.4 -5.0 -13.0 0.15 -13.0 5.25 -13.0 8.9 -9.4" fill="#ccffff" fill-opacity="0.49019608" fill-rule="evenodd" stroke="none"/>
      <path d="M8.9 -9.4 Q12.5 -5.8 12.5 -0.65 12.5 4.45 8.9 8.1 5.25 11.7 0.15 11.7 -5.0 11.7 -8.6 8.1 -12.2 4.45 -12.2 -0.65 -12.2 -5.8 -8.6 -9.4 -5.0 -13.0 0.15 -13.0 5.25 -13.0 8.9 -9.4" fill="none" stroke="#00ccff" stroke-linecap="round" stroke-linejoin="round" stroke-opacity="0.49019608" stroke-width="0.75"/>
      <path d="M8.05 -7.55 Q10.05 -4.8 10.05 -0.8 10.05 3.15 8.05 5.95 6.1 8.75 3.3 8.8 L2.65 8.75 Q4.25 8.1 5.55 6.25 7.5 3.5 7.5 -0.5 7.5 -4.45 5.55 -7.25 3.8 -9.7 1.4 -9.95 L3.3 -10.35 Q6.1 -10.35 8.05 -7.55" fill="#ffffff" fill-opacity="0.49019608" fill-rule="evenodd" stroke="none"/>
      <path d="M-7.6 -6.4 Q-7.6 -7.35 -6.95 -8.0 -6.3 -8.65 -5.35 -8.65 -4.4 -8.65 -3.75 -8.0 -3.1 -7.35 -3.1 -6.4 -3.1 -5.45 -3.75 -4.8 -4.4 -4.15 -5.35 -4.15 -6.3 -4.15 -6.95 -4.8 -7.6 -5.45 -7.6 -6.4" fill="#ffffff" fill-opacity="0.49019608" fill-rule="evenodd" stroke="none"/>
    </g>
    <g id="shape1" transform="matrix(1, 0, 0, 1, 64.3, 22.35)">
      <path d="M-51.45 0.35 L-53.95 -2.4 -57.0 -5.15 Q-58.6 -6.45 -60.2 -7.1 L-63.3 -7.45 Q-63.4 -6.15 -62.95 -5.05 L-61.75 -3.1 -60.3 -1.35 -58.65 0.85 -57.8 2.35 -57.55 2.85 -58.05 3.5 -59.2 5.05 -60.6 7.15 -61.85 9.2 -62.45 10.85 Q-62.6 11.65 -61.85 12.0 L-59.7 11.85 Q-58.3 11.4 -56.35 9.8 -54.4 8.2 -52.1 5.15 L-51.45 0.35" fill="#497028" fill-rule="evenodd" stroke="none"/>
      <path d="M-51.45 0.35 L-53.95 -2.4 -57.0 -5.15 Q-58.6 -6.45 -60.2 -7.1 L-63.3 -7.45 Q-63.4 -6.15 -62.95 -5.05 L-61.75 -3.1 -60.3 -1.35 -58.65 0.85 -57.8 2.35 -57.55 2.85 -58.05 3.5 -59.2 5.05 -60.6 7.15 -61.85 9.2 -62.45 10.85 Q-62.6 11.65 -61.85 12.0 L-59.7 11.85 Q-58.3 11.4 -56.35 9.8 -54.4 8.2 -52.1 5.15" fill="none" stroke="#000000" stroke-linecap="round" stroke-linejoin="round" stroke-width="2.0"/>
      <path d="M-59.05 9.1 L-59.9 9.6 -60.85 9.55 -61.75 9.05 -62.45 10.8 Q-62.55 11.6 -61.8 11.95 L-59.7 11.8 Q-58.25 11.35 -56.35 9.75 -54.4 8.15 -52.05 5.1 L-51.85 3.6 Q-52.85 3.55 -53.8 4.1 L-55.55 5.6 -57.3 7.45 Q-58.15 8.45 -59.05 9.1" fill="#3c5b1d" fill-rule="evenodd" stroke="none"/>
      <path d="M-53.1 5.25 L-50.1 6.15 -45.0 7.55 -39.25 9.0 -33.6 10.3 -28.7 11.4 -25.3 12.2 -13.9 14.6 -2.3 16.5 9.4 17.4 21.1 16.85 25.8 16.05 28.75 15.05 30.35 14.1 31.0 13.3 Q31.4 12.55 32.05 12.25 L33.5 11.75 34.85 11.15 35.35 10.7 Q35.6 10.45 35.85 10.35 L36.1 10.25 36.65 10.05 36.9 9.9 43.15 10.65 48.25 10.3 51.65 9.65 52.9 9.3 Q54.15 8.75 54.6 8.1 55.05 7.5 55.0 6.95 L54.8 6.05 54.6 5.7 Q49.65 5.25 45.85 4.3 42.1 3.35 39.65 2.25 37.25 1.2 36.25 0.45 35.35 -0.3 34.4 -2.05 L32.4 -6.45 29.95 -12.6 Q28.9 -15.25 27.4 -16.75 25.95 -18.3 24.5 -19.05 L22.1 -20.0 21.1 -20.2 4.75 -19.25 Q-3.35 -18.15 -11.3 -16.05 -19.25 -14.0 -26.95 -11.25 -36.25 -8.0 -45.25 -3.9 L-46.9 -3.2 -49.25 -2.1 -51.85 -0.8 -53.1 0.0 -54.1 0.75 Q-55.05 1.55 -55.45 2.45 -55.85 3.25 -55.45 4.05 -55.25 4.4 -53.8 4.95 L-53.1 5.25" fill="#497028" fill-rule="evenodd" stroke="none"/>
      <path d="M-53.1 0.0 L-51.85 -0.8 -49.25 -2.1 -46.9 -3.2 -45.25 -3.9 Q-36.25 -8.0 -26.95 -11.25 -19.25 -14.0 -11.3 -16.05 -3.35 -18.15 4.75 -19.25 L21.1 -20.2 22.1 -20.0 24.5 -19.05 Q25.95 -18.3 27.4 -16.75 28.9 -15.25 29.95 -12.6 L32.4 -6.45 34.4 -2.05 Q35.35 -0.3 36.25 0.45 37.25 1.2 39.65 2.25 42.1 3.35 45.85 4.3 49.65 5.25 54.6 5.7 L54.8 6.05 55.0 6.95 Q55.05 7.5 54.6 8.1 54.15 8.75 52.9 9.3 L51.65 9.65 48.25 10.3 43.15 10.65 36.9 9.9 36.65 10.05 36.1 10.25 35.85 10.35 Q35.6 10.45 35.35 10.7 L34.85 11.15 33.5 11.75 32.05 12.25 Q31.4 12.55 31.0 13.3 L30.35 14.1 28.75 15.05 25.8 16.05 21.1 16.85 9.4 17.4 -2.3 16.5 -13.9 14.6 -25.3 12.2 -28.7 11.4 -33.6 10.3 -39.25 9.0 -45.0 7.55 -50.1 6.15 -53.1 5.25" fill="none" stroke="#000000" stroke-linecap="round" stroke-linejoin="round" stroke-width="2.0"/>
      <path d="M-26.6 -8.2 L-14.0 -11.7 -1.8 -14.6 9.4 -16.55 19.0 -17.25 Q21.3 -17.25 23.0 -16.5 L26.2 -14.7 29.6 -12.4 29.55 -12.45 Q28.55 -14.95 27.2 -16.35 25.85 -17.85 24.5 -18.55 L22.15 -19.55 21.05 -19.8 Q10.45 -20.05 -1.45 -17.85 -13.3 -15.6 -26.8 -10.9 L-35.95 -7.4 Q-40.55 -5.55 -45.1 -3.5 L-46.15 -3.05 -48.5 -2.05 -51.2 -0.7 -53.6 0.9 Q-54.65 1.7 -55.1 2.6 -55.35 3.2 -55.15 3.7 -54.65 2.3 -53.45 1.2 -52.15 0.15 -50.75 -0.45 L-39.05 -4.35 -26.6 -8.2" fill="#638c3b" fill-rule="evenodd" stroke="none"/>
      <path d="M-51.65 5.4 L-50.15 5.9 -45.25 7.25 -39.75 8.65 -34.45 9.9 -30.05 10.9 -25.25 11.95 -14.3 14.3 -2.75 16.2 9.15 17.15 21.1 16.65 25.9 15.8 28.8 14.8 30.3 13.85 30.8 13.2 Q31.25 12.4 31.9 12.1 32.5 11.75 33.3 11.55 L34.7 11.0 35.7 10.2 35.75 10.15 36.9 9.7 36.95 9.7 43.1 10.4 48.15 10.1 51.55 9.45 52.85 9.1 53.8 8.55 54.6 7.7 Q54.85 7.25 54.6 6.65 54.3 6.0 53.65 5.8 L53.25 5.85 52.8 6.0 52.6 6.05 Q53.3 6.45 53.25 6.8 L52.65 7.5 51.35 8.1 50.0 8.55 49.2 8.75 46.75 8.95 44.05 9.05 41.7 8.75 38.35 7.7 35.75 6.85 33.35 6.65 Q32.15 6.8 30.8 7.7 L29.75 8.6 29.05 9.5 28.25 10.45 Q27.15 11.4 25.7 12.0 24.3 12.65 22.8 13.0 L19.85 13.4 Q12.3 13.8 5.75 13.6 L-6.7 12.8 -18.15 11.3 -29.05 9.35 -40.2 7.25 -51.65 5.4" fill="#3c5b1d" fill-rule="evenodd" stroke="none"/>
      <path d="M14.55 -6.15 Q13.9 -4.4 13.7 -2.75 13.5 -0.7 14.45 1.3 15.4 3.3 17.15 5.0 18.85 6.65 21.0 7.8 23.1 8.9 25.25 9.15 27.35 9.45 29.1 8.6 30.85 7.7 31.85 5.45 32.5 3.85 32.55 1.8 32.65 -0.3 32.25 -2.5 L31.0 -6.85 Q30.15 -8.95 28.9 -10.6 27.7 -12.25 26.15 -13.2 L24.95 -13.8 21.6 -13.95 Q20.0 -13.55 18.65 -12.35 17.3 -11.2 16.25 -9.55 15.25 -7.9 14.55 -6.15" fill="#ffffff" fill-rule="evenodd" stroke="none"/>
      <path d="M14.55 -6.15 Q15.25 -7.9 16.25 -9.55 17.3 -11.2 18.65 -12.35 20.0 -13.55 21.6 -13.95 L24.95 -13.8 26.15 -13.2 Q27.7 -12.25 28.9 -10.6 30.15 -8.95 31.0 -6.85 L32.25 -2.5 Q32.65 -0.3 32.55 1.8 32.5 3.85 31.85 5.45 30.85 7.7 29.1 8.6 27.35 9.45 25.25 9.15 23.1 8.9 21.0 7.8 18.85 6.65 17.15 5.0 15.4 3.3 14.45 1.3 13.5 -0.7 13.7 -2.75 13.9 -4.4 14.55 -6.15" fill="none" stroke="#000000" stroke-linecap="round" stroke-linejoin="round" stroke-width="1.0"/>
      <path d="M13.95 -2.7 Q13.75 -0.9 14.55 0.9 15.3 2.7 16.8 4.3 18.25 5.85 20.1 7.0 21.9 8.15 23.85 8.7 L28.65 8.55 Q30.7 7.7 31.65 5.4 L31.9 4.75 27.8 5.3 23.2 4.55 Q21.0 3.9 19.2 2.4 17.45 0.95 16.25 -1.05 15.05 -3.1 14.55 -5.35 14.1 -3.95 13.95 -2.7" fill="#e1e8da" fill-rule="evenodd" stroke="none"/>
      <path d="M23.4 -6.95 Q22.55 -5.4 22.2 -3.6 21.8 -1.75 21.85 0.0 21.9 1.8 22.35 3.3 22.85 5.4 24.0 6.9 25.15 8.35 26.7 9.2 28.05 9.05 29.05 8.5 L30.65 7.2 31.55 6.0 31.85 5.5 Q32.4 4.0 32.5 2.15 L32.25 -1.75 31.35 -5.6 30.0 -8.8 28.45 -10.8 Q26.75 -10.55 25.45 -9.5 24.2 -8.5 23.4 -6.95" fill="#000000" fill-rule="evenodd" stroke="none"/>
      <path d="M37.55 10.15 L36.9 10.0 35.25 9.85 32.9 9.95 Q31.65 10.1 30.4 10.55" fill="none" stroke="#000000" stroke-linecap="round" stroke-linejoin="round" stroke-width="1.0"/>
      <path d="M13.3 15.2 L12.45 16.65 11.6 17.5 Q11.3 17.85 11.35 17.95 L11.4 18.05 13.9 17.95 15.7 17.35 16.9 16.5 17.5 15.8 17.7 15.5 13.3 15.2" fill="#3c5b1d" fill-rule="evenodd" stroke="none"/>
      <path d="M17.7 15.5 L17.5 15.8 16.9 16.5 15.7 17.35 13.9 17.95 11.4 18.05 11.35 17.95 Q11.3 17.85 11.6 17.5 L12.45 16.65 13.3 15.2" fill="none" stroke="#000000" stroke-linecap="round" stroke-linejoin="round" stroke-width="2.0"/>
      <path d="M21.3 -22.35 L20.65 -22.3 Q19.75 -21.75 19.6 -20.9 19.45 -20.0 19.75 -19.15 L20.3 -17.65 20.65 -17.05 Q21.65 -17.8 22.7 -17.95 L24.7 -17.85 26.15 -17.35 26.8 -17.05 26.9 -17.5 27.3 -18.45 27.85 -19.6 Q28.15 -20.1 27.95 -20.3 L27.5 -20.6 27.2 -20.65 Q26.05 -21.4 24.95 -21.8 L22.85 -22.25 21.3 -22.35" fill="#000000" fill-rule="evenodd" stroke="none"/>
      <path d="M8.05 -0.85 Q8.2 0.1 8.9 1.25 10.2 3.1 11.35 4.1 12.5 5.1 13.2 5.5 L13.95 5.85 13.4 5.2 12.15 3.5 Q11.4 2.4 10.8 1.05 10.15 -0.3 9.9 -1.8 9.7 -3.25 10.15 -4.65 L9.8 -4.4 9.0 -3.65 Q8.55 -3.2 8.25 -2.45 7.95 -1.75 8.05 -0.85" fill="#3c5b1d" fill-rule="evenodd" stroke="none"/>
      <path d="M34.95 -0.4 L35.05 0.05 35.85 1.3 Q36.5 2.15 38.15 3.2 39.55 4.1 41.55 4.65 L45.6 5.5 49.55 5.95 52.45 6.05 53.65 6.1 45.35 4.5 Q41.95 3.65 39.9 2.8 37.85 1.95 36.75 1.2 L35.3 0.05 34.95 -0.4" fill="#638c3b" fill-rule="evenodd" stroke="none"/>
      <path d="M25.2 -0.1 Q25.2 1.25 25.55 2.4 25.95 3.5 26.6 4.15 27.25 4.8 28.05 4.8 28.85 4.8 29.5 4.15 L30.55 2.4 Q30.95 1.25 30.95 -0.1 30.95 -1.5 30.55 -2.6 L29.5 -4.4 Q28.85 -5.05 28.05 -5.05 27.25 -5.05 26.6 -4.4 25.95 -3.75 25.55 -2.6 25.2 -1.5 25.2 -0.1" fill="#1e3502" fill-rule="evenodd" stroke="none"/>
      <path d="M24.65 -5.2 Q24.7 -4.15 25.1 -3.45 25.5 -2.8 26.1 -2.75 26.7 -2.8 27.1 -3.45 27.5 -4.15 27.5 -5.2 27.5 -6.2 27.1 -6.9 26.7 -7.6 26.1 -7.6 25.5 -7.6 25.1 -6.9 24.7 -6.2 24.65 -5.2" fill="#ffffff" fill-rule="evenodd" stroke="none"/>
    </g>
  </defs>
</svg>
