<?xml version="1.0" encoding="UTF-8" standalone="no"?>
<svg xmlns:xlink="http://www.w3.org/1999/xlink" height="43.2px" width="126.2px" xmlns="http://www.w3.org/2000/svg">
  <g transform="matrix(1, 0, 0, 1, 64.35, 22.35)">
    <use height="33.45" transform="matrix(0.2442, 0.0, 0.0, 0.2442, -53.8927, -7.8509)" width="33.4" xlink:href="#sprite0"/>
    <use height="43.2" transform="matrix(1.0, 0.0, 0.0, 1.0, -64.35, -22.35)" width="126.2" xlink:href="#shape1"/>
  </g>
  <defs>
    <g id="sprite0" transform="matrix(1, 0, 0, 1, 16.35, 23.55)">
      <use height="25.4" transform="matrix(0.8077, 0.0, 0.0, 0.8077, -9.9866, -10.6327)" width="25.4" xlink:href="#shape0"/>
    </g>
    <g id="shape0" transform="matrix(1, 0, 0, 1, 12.55, 13.35)">
      <path d="M8.9 -9.4 Q12.5 -5.8 12.5 -0.65 12.5 4.45 8.9 8.1 5.25 11.7 0.15 11.7 -5.0 11.7 -8.6 8.1 -12.2 4.45 -12.2 -0.65 -12.2 -5.8 -8.6 -9.4 -5.0 -13.0 0.15 -13.0 5.25 -13.0 8.9 -9.4" fill="#ccffff" fill-opacity="0.49019608" fill-rule="evenodd" stroke="none"/>
      <path d="M8.9 -9.4 Q12.5 -5.8 12.5 -0.65 12.5 4.45 8.9 8.1 5.25 11.7 0.15 11.7 -5.0 11.7 -8.6 8.1 -12.2 4.45 -12.2 -0.65 -12.2 -5.8 -8.6 -9.4 -5.0 -13.0 0.15 -13.0 5.25 -13.0 8.9 -9.4" fill="none" stroke="#00ccff" stroke-linecap="round" stroke-linejoin="round" stroke-opacity="0.49019608" stroke-width="0.75"/>
      <path d="M8.05 -7.55 Q10.05 -4.8 10.05 -0.8 10.05 3.15 8.05 5.95 6.1 8.75 3.3 8.8 L2.65 8.75 Q4.25 8.1 5.55 6.25 7.5 3.5 7.5 -0.5 7.5 -4.45 5.55 -7.25 3.8 -9.7 1.4 -9.95 L3.3 -10.35 Q6.1 -10.35 8.05 -7.55" fill="#ffffff" fill-opacity="0.49019608" fill-rule="evenodd" stroke="none"/>
      <path d="M-7.6 -6.4 Q-7.6 -7.35 -6.95 -8.0 -6.3 -8.65 -5.35 -8.65 -4.4 -8.65 -3.75 -8.0 -3.1 -7.35 -3.1 -6.4 -3.1 -5.45 -3.75 -4.8 -4.4 -4.15 -5.35 -4.15 -6.3 -4.15 -6.95 -4.8 -7.6 -5.45 -7.6 -6.4" fill="#ffffff" fill-opacity="0.49019608" fill-rule="evenodd" stroke="none"/>
    </g>
    <g id="shape1" transform="matrix(1, 0, 0, 1, 64.35, 22.35)">
      <path d="M-41.05 -3.2 L-43.45 -2.15 -46.0 -0.85 -48.25 0.75 Q-49.25 1.55 -49.65 2.4 -50.05 3.25 -49.65 4.05 -49.45 4.4 -48.0 4.95 L-44.3 6.15 -39.2 7.5 -33.45 8.95 -27.75 10.25 -22.9 11.4 -19.5 12.15 -8.1 14.6 3.55 16.45 15.25 17.35 26.9 16.85 31.6 16.05 34.55 15.05 36.2 14.05 36.85 13.25 Q37.25 12.55 37.9 12.2 38.55 11.9 39.3 11.7 L40.65 11.15 41.15 10.7 Q41.45 10.45 41.7 10.3 L41.95 10.2 42.45 10.0 42.75 9.9 48.95 10.6 54.05 10.3 57.45 9.65 58.75 9.25 Q59.95 8.7 60.4 8.1 L60.85 6.9 60.6 6.05 60.4 5.7 51.7 4.3 Q47.9 3.3 45.5 2.25 43.05 1.2 42.1 0.4 41.15 -0.3 40.25 -2.1 39.3 -3.85 38.2 -6.5 L35.8 -12.65 Q34.7 -15.25 33.25 -16.75 31.75 -18.3 30.3 -19.05 28.9 -19.8 27.9 -20.0 L26.95 -20.25 10.6 -19.3 Q2.45 -18.15 -5.45 -16.1 -13.45 -14.0 -21.1 -11.3 -30.45 -8.0 -39.4 -3.9 L-41.05 -3.2" fill="#497028" fill-rule="evenodd" stroke="none"/>
      <path d="M-41.05 -3.2 L-39.4 -3.9 Q-30.45 -8.0 -21.1 -11.3 -13.45 -14.0 -5.45 -16.1 2.45 -18.15 10.6 -19.3 L26.95 -20.25 27.9 -20.0 Q28.9 -19.8 30.3 -19.05 31.75 -18.3 33.25 -16.75 34.7 -15.25 35.8 -12.65 L38.2 -6.5 Q39.3 -3.85 40.25 -2.1 41.15 -0.3 42.1 0.4 43.05 1.2 45.5 2.25 47.9 3.3 51.7 4.3 L60.4 5.7 60.6 6.05 60.85 6.9 60.4 8.1 Q59.95 8.7 58.75 9.25 L57.45 9.65 54.05 10.3 48.95 10.6 42.75 9.9 42.45 10.0 41.95 10.2 41.7 10.3 Q41.45 10.45 41.15 10.7 L40.65 11.15 39.3 11.7 Q38.55 11.9 37.9 12.2 37.25 12.55 36.85 13.25 L36.2 14.05 34.55 15.05 31.6 16.05 26.9 16.85 15.25 17.35 3.55 16.45 -8.1 14.6 -19.5 12.15 -22.9 11.4 -27.75 10.25 -33.45 8.95 -39.2 7.5 -44.3 6.15 -48.0 4.95 Q-49.45 4.4 -49.65 4.05 -50.05 3.25 -49.65 2.4 -49.25 1.55 -48.25 0.75 L-46.0 -0.85 -43.45 -2.15 -41.05 -3.2" fill="none" stroke="#000000" stroke-linecap="round" stroke-linejoin="round" stroke-width="2.0"/>
      <path d="M-44.9 -0.5 L-33.2 -4.35 -20.75 -8.2 -8.15 -11.7 4.05 -14.6 15.2 -16.55 24.8 -17.3 Q27.15 -17.25 28.85 -16.5 L32.05 -14.7 Q33.6 -13.6 35.4 -12.45 L35.4 -12.5 Q34.35 -14.95 33.0 -16.4 L30.3 -18.6 28.0 -19.55 26.9 -19.8 Q16.25 -20.05 4.4 -17.85 -7.5 -15.6 -21.0 -10.9 L-30.15 -7.45 Q-34.7 -5.6 -39.25 -3.55 L-40.35 -3.05 -42.65 -2.05 -45.35 -0.7 Q-46.75 0.05 -47.8 0.9 -48.85 1.7 -49.25 2.6 -49.5 3.2 -49.35 3.7 -48.8 2.25 -47.6 1.2 -46.35 0.15 -44.9 -0.5" fill="#638c3b" fill-rule="evenodd" stroke="none"/>
      <path d="M-45.85 5.4 L-44.35 5.9 -39.45 7.25 -33.95 8.65 -28.65 9.9 -24.25 10.9 -19.45 11.95 -8.5 14.3 3.05 16.2 14.95 17.15 26.9 16.65 31.7 15.8 34.6 14.8 36.1 13.85 36.6 13.2 Q37.05 12.4 37.7 12.1 L39.1 11.55 40.5 11.0 41.5 10.2 41.55 10.15 42.7 9.7 42.75 9.7 48.9 10.4 53.95 10.1 57.35 9.45 58.65 9.1 59.6 8.55 60.4 7.7 Q60.65 7.25 60.4 6.65 60.1 6.0 59.45 5.8 L59.05 5.85 58.6 6.0 58.4 6.05 Q59.1 6.45 59.05 6.8 L58.45 7.5 57.15 8.1 55.8 8.55 55.0 8.75 52.55 8.95 49.85 9.05 47.5 8.75 44.15 7.7 41.55 6.85 39.15 6.65 Q37.95 6.8 36.6 7.7 L35.55 8.6 34.85 9.5 34.05 10.45 Q32.95 11.4 31.5 12.0 L28.6 13.0 25.65 13.4 Q18.1 13.8 11.55 13.6 L-0.9 12.8 -12.35 11.3 -23.25 9.35 -34.4 7.25 -45.85 5.4" fill="#3c5b1d" fill-rule="evenodd" stroke="none"/>
      <path d="M20.35 -6.15 Q19.7 -4.4 19.5 -2.75 19.3 -0.7 20.25 1.3 21.2 3.3 22.95 5.0 24.65 6.65 26.8 7.8 28.9 8.9 31.05 9.15 33.15 9.45 34.9 8.6 36.65 7.7 37.65 5.45 38.3 3.85 38.35 1.8 38.45 -0.3 38.05 -2.5 L36.8 -6.85 Q35.95 -8.95 34.7 -10.6 33.5 -12.25 31.95 -13.2 L30.75 -13.8 27.4 -13.95 Q25.8 -13.55 24.45 -12.35 23.1 -11.2 22.05 -9.55 21.05 -7.9 20.35 -6.15" fill="#ffffff" fill-rule="evenodd" stroke="none"/>
      <path d="M20.35 -6.15 Q21.05 -7.9 22.05 -9.55 23.1 -11.2 24.45 -12.35 25.8 -13.55 27.4 -13.95 L30.75 -13.8 31.95 -13.2 Q33.5 -12.25 34.7 -10.6 35.95 -8.95 36.8 -6.85 L38.05 -2.5 Q38.45 -0.3 38.35 1.8 38.3 3.85 37.65 5.45 36.65 7.7 34.9 8.6 33.15 9.45 31.05 9.15 28.9 8.9 26.8 7.8 24.65 6.65 22.95 5.0 21.2 3.3 20.25 1.3 19.3 -0.7 19.5 -2.75 19.7 -4.4 20.35 -6.15" fill="none" stroke="#000000" stroke-linecap="round" stroke-linejoin="round" stroke-width="1.0"/>
      <path d="M19.75 -2.7 Q19.55 -0.9 20.35 0.9 21.1 2.7 22.6 4.3 24.05 5.85 25.9 7.0 27.7 8.15 29.65 8.7 L34.45 8.55 Q36.5 7.7 37.45 5.4 L37.7 4.75 33.6 5.3 Q31.4 5.25 29.0 4.55 26.8 3.9 25.0 2.4 23.25 0.95 22.05 -1.05 20.85 -3.1 20.35 -5.35 19.9 -3.95 19.75 -2.7" fill="#e1e8da" fill-rule="evenodd" stroke="none"/>
      <path d="M29.2 -6.95 Q28.35 -5.4 28.0 -3.6 27.6 -1.75 27.65 0.0 27.7 1.8 28.15 3.3 28.65 5.4 29.8 6.9 30.95 8.35 32.5 9.2 33.85 9.05 34.85 8.5 L36.45 7.2 37.35 6.0 37.65 5.5 Q38.2 4.0 38.3 2.15 L38.05 -1.75 37.15 -5.6 35.8 -8.8 34.25 -10.8 Q32.55 -10.55 31.25 -9.5 30.0 -8.5 29.2 -6.95" fill="#000000" fill-rule="evenodd" stroke="none"/>
      <path d="M43.35 10.15 L42.7 10.0 41.05 9.85 38.7 9.95 Q37.45 10.1 36.2 10.55" fill="none" stroke="#000000" stroke-linecap="round" stroke-linejoin="round" stroke-width="1.0"/>
      <path d="M19.1 15.4 L18.25 17.55 17.4 18.95 Q17.1 19.45 17.15 19.6 L17.2 19.8 19.7 19.6 Q20.75 19.3 21.5 18.65 L22.7 17.4 23.3 16.3 23.5 15.8 19.1 15.4" fill="#3c5b1d" fill-rule="evenodd" stroke="none"/>
      <path d="M23.5 15.8 L23.3 16.3 22.7 17.4 21.5 18.65 Q20.75 19.3 19.7 19.6 L17.2 19.8 17.15 19.6 Q17.1 19.45 17.4 18.95 L18.25 17.55 19.1 15.4" fill="none" stroke="#000000" stroke-linecap="round" stroke-linejoin="round" stroke-width="2.0"/>
      <path d="M27.1 -22.35 L26.45 -22.3 Q25.55 -21.75 25.4 -20.9 25.25 -20.0 25.55 -19.15 L26.1 -17.65 26.45 -17.05 Q27.45 -17.8 28.5 -17.95 L30.5 -17.85 31.95 -17.35 32.6 -17.05 32.7 -17.5 33.1 -18.45 33.65 -19.6 Q33.95 -20.1 33.75 -20.3 L33.3 -20.6 33.0 -20.65 Q31.85 -21.4 30.75 -21.8 L28.65 -22.25 27.1 -22.35" fill="#000000" fill-rule="evenodd" stroke="none"/>
      <path d="M-47.05 -0.05 L-50.5 -2.8 -54.65 -5.55 Q-56.85 -6.85 -59.1 -7.5 L-63.35 -7.85 Q-63.45 -6.55 -62.8 -5.45 -62.2 -4.4 -61.2 -3.5 -60.2 -2.55 -59.25 -1.75 L-56.95 0.45 Q-56.1 1.4 -55.8 1.95 L-55.45 2.45 -56.1 3.1 -57.7 4.65 -59.65 6.75 -61.3 8.8 -62.15 10.45 Q-62.3 11.25 -61.35 11.6 L-58.4 11.45 Q-56.45 11.0 -53.8 9.4 -51.15 7.8 -47.95 4.75 L-47.05 -0.05" fill="#497028" fill-rule="evenodd" stroke="none"/>
      <path d="M-47.05 -0.05 L-50.5 -2.8 -54.65 -5.55 Q-56.85 -6.85 -59.1 -7.5 L-63.35 -7.85 Q-63.45 -6.55 -62.8 -5.45 -62.2 -4.4 -61.2 -3.5 -60.2 -2.55 -59.25 -1.75 L-56.95 0.45 Q-56.1 1.4 -55.8 1.95 L-55.45 2.45 -56.1 3.1 -57.7 4.65 -59.65 6.75 -61.3 8.8 -62.15 10.45 Q-62.3 11.25 -61.35 11.6 L-58.4 11.45 Q-56.45 11.0 -53.8 9.4 -51.15 7.8 -47.95 4.75" fill="none" stroke="#000000" stroke-linecap="round" stroke-linejoin="round" stroke-width="2.0"/>
      <path d="M-57.5 8.7 Q-58.0 9.1 -58.65 9.2 L-60.0 9.15 -61.2 8.65 -62.15 10.4 Q-62.3 11.2 -61.3 11.55 L-58.4 11.4 Q-56.45 10.95 -53.8 9.35 -51.1 7.75 -47.9 4.7 L-47.65 3.2 Q-49.05 3.15 -50.3 3.7 L-52.75 5.2 -55.15 7.05 -57.5 8.7" fill="#3c5b1d" fill-rule="evenodd" stroke="none"/>
      <path d="M13.85 -0.85 Q14.0 0.1 14.7 1.25 L17.15 4.1 19.0 5.5 19.75 5.85 19.2 5.2 17.95 3.5 Q17.2 2.4 16.6 1.05 15.95 -0.3 15.7 -1.8 15.5 -3.25 15.95 -4.65 L15.6 -4.4 14.8 -3.65 Q14.35 -3.2 14.05 -2.45 13.75 -1.75 13.85 -0.85" fill="#3c5b1d" fill-rule="evenodd" stroke="none"/>
      <path d="M40.75 -0.4 L40.85 0.05 41.65 1.3 43.95 3.2 Q45.35 4.1 47.35 4.65 L51.4 5.5 55.35 5.95 58.25 6.05 59.45 6.1 51.15 4.5 Q47.75 3.65 45.7 2.8 43.65 1.95 42.55 1.2 L41.1 0.05 40.75 -0.4" fill="#638c3b" fill-rule="evenodd" stroke="none"/>
      <path d="M31.0 -0.1 Q31.0 1.25 31.35 2.4 31.75 3.5 32.4 4.15 33.05 4.8 33.85 4.8 34.65 4.8 35.3 4.15 L36.35 2.4 Q36.75 1.25 36.75 -0.1 36.75 -1.5 36.35 -2.6 L35.3 -4.4 Q34.65 -5.05 33.85 -5.05 33.05 -5.05 32.4 -4.4 31.75 -3.75 31.35 -2.6 31.0 -1.5 31.0 -0.1" fill="#1e3502" fill-rule="evenodd" stroke="none"/>
      <path d="M30.45 -5.2 Q30.5 -4.15 30.9 -3.45 31.3 -2.8 31.9 -2.75 32.5 -2.8 32.9 -3.45 33.3 -4.15 33.3 -5.2 33.3 -6.2 32.9 -6.9 32.5 -7.6 31.9 -7.6 31.3 -7.6 30.9 -6.9 30.5 -6.2 30.45 -5.2" fill="#ffffff" fill-rule="evenodd" stroke="none"/>
    </g>
  </defs>
</svg>
