<?xml version="1.0" encoding="UTF-8" standalone="no"?>
<svg xmlns:xlink="http://www.w3.org/1999/xlink" height="43.2px" width="126.2px" xmlns="http://www.w3.org/2000/svg">
  <g transform="matrix(1, 0, 0, 1, 64.35, 22.35)">
    <use height="33.45" transform="matrix(0.2442, 0.0, 0.0, 0.2442, -53.8927, -7.8509)" width="33.4" xlink:href="#sprite0"/>
    <use height="41.1" transform="matrix(1.0, 0.0, 0.0, 1.0, -58.3, -22.35)" width="116.9" xlink:href="#shape1"/>
  </g>
  <defs>
    <g id="sprite0" transform="matrix(1, 0, 0, 1, 16.35, 23.55)">
      <use height="25.4" transform="matrix(0.8077, 0.0, 0.0, 0.8077, -9.9866, -10.6327)" width="25.4" xlink:href="#shape0"/>
    </g>
    <g id="shape0" transform="matrix(1, 0, 0, 1, 12.55, 13.35)">
      <path d="M8.9 -9.4 Q12.5 -5.8 12.5 -0.65 12.5 4.45 8.9 8.1 5.25 11.7 0.15 11.7 -5.0 11.7 -8.6 8.1 -12.2 4.45 -12.2 -0.65 -12.2 -5.8 -8.6 -9.4 -5.0 -13.0 0.15 -13.0 5.25 -13.0 8.9 -9.4" fill="#ccffff" fill-opacity="0.49019608" fill-rule="evenodd" stroke="none"/>
      <path d="M8.9 -9.4 Q12.5 -5.8 12.5 -0.65 12.5 4.45 8.9 8.1 5.25 11.7 0.15 11.7 -5.0 11.7 -8.6 8.1 -12.2 4.45 -12.2 -0.65 -12.2 -5.8 -8.6 -9.4 -5.0 -13.0 0.15 -13.0 5.25 -13.0 8.9 -9.4" fill="none" stroke="#00ccff" stroke-linecap="round" stroke-linejoin="round" stroke-opacity="0.49019608" stroke-width="0.75"/>
      <path d="M8.05 -7.55 Q10.05 -4.8 10.05 -0.8 10.05 3.15 8.05 5.95 6.1 8.75 3.3 8.8 L2.65 8.75 Q4.25 8.1 5.55 6.25 7.5 3.5 7.5 -0.5 7.5 -4.45 5.55 -7.25 3.8 -9.7 1.4 -9.95 L3.3 -10.35 Q6.1 -10.35 8.05 -7.55" fill="#ffffff" fill-opacity="0.49019608" fill-rule="evenodd" stroke="none"/>
      <path d="M-7.6 -6.4 Q-7.6 -7.35 -6.95 -8.0 -6.3 -8.65 -5.35 -8.65 -4.4 -8.65 -3.75 -8.0 -3.1 -7.35 -3.1 -6.4 -3.1 -5.45 -3.75 -4.8 -4.4 -4.15 -5.35 -4.15 -6.3 -4.15 -6.95 -4.8 -7.6 -5.45 -7.6 -6.4" fill="#ffffff" fill-opacity="0.49019608" fill-rule="evenodd" stroke="none"/>
    </g>
    <g id="shape1" transform="matrix(1, 0, 0, 1, 58.3, 22.35)">
      <path d="M-42.5 -3.2 L-44.8 -2.15 -47.35 -0.85 -49.55 0.75 Q-50.5 1.55 -50.9 2.4 -51.3 3.25 -50.9 4.05 -50.7 4.4 -49.3 4.95 L-45.65 6.15 -40.65 7.5 -35.0 8.95 -29.45 10.25 -24.6 11.4 -21.3 12.15 -10.1 14.6 1.3 16.45 12.8 17.35 24.3 16.85 28.9 16.05 31.8 15.05 33.35 14.05 34.0 13.25 Q34.4 12.55 35.05 12.2 L36.45 11.7 37.8 11.15 38.3 10.7 38.8 10.3 39.05 10.2 39.55 10.0 39.8 9.9 45.95 10.6 50.95 10.3 54.3 9.65 55.5 9.25 57.15 8.1 Q57.65 7.45 57.6 6.9 L57.4 6.05 57.15 5.7 Q52.3 5.2 48.6 4.3 44.9 3.3 42.5 2.25 40.15 1.2 39.2 0.4 38.25 -0.3 37.35 -2.1 L35.35 -6.5 33.0 -12.65 Q31.95 -15.25 30.5 -16.75 29.05 -18.3 27.6 -19.05 26.2 -19.8 25.25 -20.0 L24.3 -20.25 8.25 -19.3 Q0.25 -18.15 -7.55 -16.1 -15.35 -14.0 -22.9 -11.3 -32.05 -8.0 -40.9 -3.9 L-42.5 -3.2" fill="#497028" fill-rule="evenodd" stroke="none"/>
      <path d="M-42.5 -3.2 L-40.9 -3.9 Q-32.05 -8.0 -22.9 -11.3 -15.35 -14.0 -7.55 -16.1 0.25 -18.15 8.25 -19.3 L24.3 -20.25 25.25 -20.0 Q26.2 -19.8 27.6 -19.05 29.05 -18.3 30.5 -16.75 31.95 -15.25 33.0 -12.65 L35.35 -6.5 37.35 -2.1 Q38.25 -0.3 39.2 0.4 40.15 1.2 42.5 2.25 44.9 3.3 48.6 4.3 52.3 5.2 57.15 5.7 L57.4 6.05 57.6 6.9 Q57.65 7.45 57.15 8.1 L55.5 9.25 54.3 9.65 50.95 10.3 45.95 10.6 39.8 9.9 39.55 10.0 39.05 10.2 38.8 10.3 38.3 10.7 37.8 11.15 36.45 11.7 35.05 12.2 Q34.4 12.55 34.0 13.25 L33.35 14.05 31.8 15.05 28.9 16.05 24.3 16.85 12.8 17.35 1.3 16.45 -10.1 14.6 -21.3 12.15 -24.6 11.4 -29.45 10.25 -35.0 8.95 -40.65 7.5 -45.65 6.15 -49.3 4.95 Q-50.7 4.4 -50.9 4.05 -51.3 3.25 -50.9 2.4 -50.5 1.55 -49.55 0.75 L-47.35 -0.85 -44.8 -2.15 -42.5 -3.2" fill="none" stroke="#000000" stroke-linecap="round" stroke-linejoin="round" stroke-width="2.0"/>
      <path d="M-46.2 -0.5 L-34.75 -4.35 -22.5 -8.2 -10.15 -11.7 1.85 -14.6 12.85 -16.55 22.25 -17.3 Q24.5 -17.25 26.2 -16.5 27.85 -15.8 29.35 -14.7 L32.65 -12.45 32.65 -12.5 Q31.65 -14.95 30.3 -16.4 28.95 -17.85 27.65 -18.6 L25.35 -19.55 24.3 -19.8 Q13.85 -20.05 2.2 -17.85 -9.5 -15.6 -22.75 -10.9 L-31.7 -7.45 -40.65 -3.55 -41.7 -3.05 -44.0 -2.05 -46.65 -0.7 Q-48.0 0.05 -49.05 0.9 -50.1 1.7 -50.5 2.6 -50.75 3.2 -50.6 3.7 -50.05 2.25 -48.85 1.2 L-46.2 -0.5" fill="#638c3b" fill-rule="evenodd" stroke="none"/>
      <path d="M-47.1 5.4 L-45.65 5.9 -40.8 7.25 -35.4 8.65 -30.2 9.9 -25.9 10.9 -21.2 11.95 -10.4 14.3 0.95 16.2 12.6 17.15 24.35 16.65 29.05 15.8 31.9 14.8 33.4 13.85 33.9 13.2 Q34.3 12.4 34.95 12.1 35.55 11.75 36.3 11.55 L37.7 11.0 38.7 10.2 38.75 10.15 39.85 9.7 39.9 9.7 45.95 10.4 50.9 10.1 54.25 9.45 55.5 9.1 56.5 8.55 57.25 7.7 Q57.5 7.25 57.25 6.65 57.0 6.0 56.3 5.8 L55.95 5.85 55.45 6.0 55.3 6.05 Q56.0 6.45 55.95 6.8 L55.35 7.5 54.05 8.1 52.75 8.55 51.95 8.75 49.55 8.95 46.85 9.05 44.55 8.75 41.3 7.7 38.75 6.85 36.35 6.65 Q35.2 6.8 33.9 7.7 L32.85 8.6 32.15 9.5 31.35 10.45 28.9 12.0 26.0 13.0 23.1 13.4 Q15.7 13.8 9.25 13.6 L-2.95 12.8 -14.2 11.3 -24.9 9.35 -35.85 7.25 -47.1 5.4" fill="#3c5b1d" fill-rule="evenodd" stroke="none"/>
      <path d="M17.9 -6.15 Q17.25 -4.4 17.05 -2.75 16.85 -0.7 17.75 1.3 18.7 3.3 20.4 5.0 22.1 6.65 24.2 7.8 26.25 8.9 28.35 9.15 30.45 9.45 32.15 8.6 33.9 7.7 34.85 5.45 35.5 3.85 35.55 1.8 35.7 -0.3 35.25 -2.5 34.85 -4.75 34.05 -6.85 33.2 -8.95 32.0 -10.6 30.8 -12.25 29.3 -13.2 L28.05 -13.8 24.8 -13.95 Q23.25 -13.55 21.9 -12.35 20.6 -11.2 19.55 -9.55 18.55 -7.9 17.9 -6.15" fill="#ffffff" fill-rule="evenodd" stroke="none"/>
      <path d="M17.9 -6.15 Q18.55 -7.9 19.55 -9.55 20.6 -11.2 21.9 -12.35 23.25 -13.55 24.8 -13.95 L28.05 -13.8 29.3 -13.2 Q30.8 -12.25 32.0 -10.6 33.2 -8.95 34.05 -6.85 34.85 -4.75 35.25 -2.5 35.7 -0.3 35.55 1.8 35.5 3.85 34.85 5.45 33.9 7.7 32.15 8.6 30.45 9.45 28.35 9.15 26.25 8.9 24.2 7.8 22.1 6.65 20.4 5.0 18.7 3.3 17.75 1.3 16.85 -0.7 17.05 -2.75 17.25 -4.4 17.9 -6.15" fill="none" stroke="#000000" stroke-linecap="round" stroke-linejoin="round" stroke-width="1.0"/>
      <path d="M17.25 -2.7 Q17.1 -0.9 17.85 0.9 18.6 2.7 20.05 4.3 21.45 5.85 23.3 7.0 25.1 8.15 27.0 8.7 L31.7 8.55 Q33.7 7.7 34.65 5.4 L34.9 4.75 30.85 5.3 26.35 4.55 Q24.15 3.9 22.4 2.4 20.7 0.95 19.5 -1.05 18.35 -3.1 17.85 -5.35 L17.25 -2.7" fill="#e1e8da" fill-rule="evenodd" stroke="none"/>
      <path d="M26.55 -6.95 Q25.75 -5.4 25.35 -3.6 25.0 -1.75 25.05 0.0 25.1 1.8 25.5 3.3 26.05 5.4 27.15 6.9 28.25 8.35 29.8 9.2 31.15 9.05 32.1 8.5 L33.7 7.2 34.55 6.0 34.85 5.5 Q35.4 4.0 35.5 2.15 35.55 0.25 35.25 -1.75 L34.4 -5.6 33.05 -8.8 31.5 -10.8 Q29.85 -10.55 28.6 -9.5 27.35 -8.5 26.55 -6.95" fill="#000000" fill-rule="evenodd" stroke="none"/>
      <path d="M40.5 10.15 L39.85 10.0 38.2 9.85 35.95 9.95 Q34.7 10.1 33.45 10.55" fill="none" stroke="#000000" stroke-linecap="round" stroke-linejoin="round" stroke-width="1.0"/>
      <path d="M16.7 15.2 L15.85 16.45 15.0 17.25 14.75 17.6 14.8 17.7 17.25 17.6 19.05 17.05 20.2 16.35 20.8 15.7 21.0 15.45 16.7 15.2" fill="#3c5b1d" fill-rule="evenodd" stroke="none"/>
      <path d="M21.0 15.45 L20.8 15.7 20.2 16.35 19.05 17.05 17.25 17.6 14.8 17.7 14.75 17.6 15.0 17.25 15.85 16.45 16.7 15.2" fill="none" stroke="#000000" stroke-linecap="round" stroke-linejoin="round" stroke-width="2.0"/>
      <path d="M24.5 -22.35 L23.9 -22.3 Q23.0 -21.75 22.85 -20.9 22.7 -20.0 22.95 -19.15 L23.55 -17.65 23.9 -17.05 Q24.85 -17.8 25.9 -17.95 L27.85 -17.85 29.3 -17.35 29.9 -17.05 30.05 -17.5 30.4 -18.45 30.95 -19.6 Q31.2 -20.1 31.05 -20.3 L30.6 -20.6 30.3 -20.65 Q29.2 -21.4 28.1 -21.8 L26.05 -22.25 24.5 -22.35" fill="#000000" fill-rule="evenodd" stroke="none"/>
      <path d="M11.5 -0.85 Q11.65 0.1 12.35 1.25 L14.75 4.1 16.55 5.5 17.3 5.85 16.75 5.2 15.55 3.5 14.2 1.05 Q13.55 -0.3 13.35 -1.8 13.1 -3.25 13.6 -4.65 L13.2 -4.4 12.45 -3.65 11.7 -2.45 Q11.4 -1.75 11.5 -0.85" fill="#3c5b1d" fill-rule="evenodd" stroke="none"/>
      <path d="M37.85 -0.4 L38.0 0.05 38.75 1.3 Q39.4 2.15 41.0 3.2 42.4 4.1 44.35 4.65 L48.35 5.5 52.2 5.95 55.1 6.05 56.25 6.1 48.1 4.5 Q44.8 3.65 42.75 2.8 40.7 1.95 39.65 1.2 L38.2 0.05 37.85 -0.4" fill="#638c3b" fill-rule="evenodd" stroke="none"/>
      <path d="M28.3 -0.1 Q28.3 1.25 28.65 2.4 29.05 3.5 29.7 4.15 30.3 4.8 31.1 4.8 31.9 4.8 32.55 4.15 33.2 3.5 33.55 2.4 33.95 1.25 33.95 -0.1 33.95 -1.5 33.55 -2.6 L32.55 -4.4 Q31.9 -5.05 31.1 -5.05 30.3 -5.05 29.7 -4.4 29.05 -3.75 28.65 -2.6 28.3 -1.5 28.3 -0.1" fill="#1e3502" fill-rule="evenodd" stroke="none"/>
      <path d="M27.8 -5.2 Q27.85 -4.15 28.25 -3.45 28.6 -2.8 29.2 -2.75 29.8 -2.8 30.2 -3.45 30.6 -4.15 30.6 -5.2 30.6 -6.2 30.2 -6.9 29.8 -7.6 29.2 -7.6 28.6 -7.6 28.25 -6.9 27.85 -6.2 27.8 -5.2" fill="#ffffff" fill-rule="evenodd" stroke="none"/>
      <path d="M-46.3 -0.55 L-48.65 -4.4 Q-49.95 -6.55 -51.45 -8.35 -52.9 -10.15 -54.4 -11.1 -55.9 -12.1 -57.3 -11.6 -57.35 -9.75 -56.95 -8.25 L-55.85 -5.4 -54.5 -2.95 -53.0 0.2 -52.2 2.25 -52.0 3.0 -52.45 3.9 -53.5 6.15 -54.8 9.05 -55.9 12.0 -56.5 14.3 Q-56.6 15.45 -55.95 15.95 L-53.95 15.75 Q-52.65 15.1 -50.85 12.85 -49.1 10.6 -46.95 6.3 L-46.3 -0.55" fill="#497028" fill-rule="evenodd" stroke="none"/>
      <path d="M-46.3 -0.55 L-48.65 -4.4 Q-49.95 -6.55 -51.45 -8.35 -52.9 -10.15 -54.4 -11.1 -55.9 -12.1 -57.3 -11.6 -57.35 -9.75 -56.95 -8.25 L-55.85 -5.4 -54.5 -2.95 -53.0 0.2 -52.2 2.25 -52.0 3.0 -52.45 3.9 -53.5 6.15 -54.8 9.05 -55.9 12.0 -56.5 14.3 Q-56.6 15.45 -55.95 15.95 L-53.95 15.75 Q-52.65 15.1 -50.85 12.85 -49.1 10.6 -46.95 6.3" fill="none" stroke="#000000" stroke-linecap="round" stroke-linejoin="round" stroke-width="2.0"/>
      <path d="M-53.4 11.9 L-54.15 12.55 -55.05 12.5 -55.9 11.8 -56.5 14.25 Q-56.6 15.45 -55.95 15.9 L-54.0 15.75 Q-52.7 15.05 -50.9 12.8 -49.1 10.55 -46.95 6.25 L-46.75 4.1 Q-47.7 4.0 -48.55 4.8 L-50.2 6.9 -51.8 9.55 -53.4 11.9" fill="#3c5b1d" fill-rule="evenodd" stroke="none"/>
    </g>
  </defs>
</svg>
