<?xml version="1.0" encoding="UTF-8" standalone="no"?>
<svg xmlns:xlink="http://www.w3.org/1999/xlink" height="42.55px" width="128.7px" xmlns="http://www.w3.org/2000/svg">
  <g transform="matrix(1, 0, 0, 1, 58.8, 21.25)">
    <use height="33.45" transform="matrix(0.5815, 0.0, 0.0, 0.5815, 50.4933, 1.0068)" width="33.4" xlink:href="#sprite0"/>
    <use height="42.55" transform="matrix(1.0, 0.0, 0.0, 1.0, -58.75, -21.25)" width="114.1" xlink:href="#shape1"/>
  </g>
  <defs>
    <g id="sprite0" transform="matrix(1, 0, 0, 1, 16.35, 23.55)">
      <use height="25.4" transform="matrix(0.8077, 0.0, 0.0, 0.8077, -9.9866, -10.6327)" width="25.4" xlink:href="#shape0"/>
    </g>
    <g id="shape0" transform="matrix(1, 0, 0, 1, 12.55, 13.35)">
      <path d="M8.9 -9.4 Q12.5 -5.8 12.5 -0.65 12.5 4.45 8.9 8.1 5.25 11.7 0.15 11.7 -5.0 11.7 -8.6 8.1 -12.2 4.45 -12.2 -0.65 -12.2 -5.8 -8.6 -9.4 -5.0 -13.0 0.15 -13.0 5.25 -13.0 8.9 -9.4" fill="#ccffff" fill-opacity="0.49019608" fill-rule="evenodd" stroke="none"/>
      <path d="M8.9 -9.4 Q12.5 -5.8 12.5 -0.65 12.5 4.45 8.9 8.1 5.25 11.7 0.15 11.7 -5.0 11.7 -8.6 8.1 -12.2 4.45 -12.2 -0.65 -12.2 -5.8 -8.6 -9.4 -5.0 -13.0 0.15 -13.0 5.25 -13.0 8.9 -9.4" fill="none" stroke="#00ccff" stroke-linecap="round" stroke-linejoin="round" stroke-opacity="0.49019608" stroke-width="0.75"/>
      <path d="M8.05 -7.55 Q10.05 -4.8 10.05 -0.8 10.05 3.15 8.05 5.95 6.1 8.75 3.3 8.8 L2.65 8.75 Q4.25 8.1 5.55 6.25 7.5 3.5 7.5 -0.5 7.5 -4.45 5.55 -7.25 3.8 -9.7 1.4 -9.95 L3.3 -10.35 Q6.1 -10.35 8.05 -7.55" fill="#ffffff" fill-opacity="0.49019608" fill-rule="evenodd" stroke="none"/>
      <path d="M-7.6 -6.4 Q-7.6 -7.35 -6.95 -8.0 -6.3 -8.65 -5.35 -8.65 -4.4 -8.65 -3.75 -8.0 -3.1 -7.35 -3.1 -6.4 -3.1 -5.45 -3.75 -4.8 -4.4 -4.15 -5.35 -4.15 -6.3 -4.15 -6.95 -4.8 -7.6 -5.45 -7.6 -6.4" fill="#ffffff" fill-opacity="0.49019608" fill-rule="evenodd" stroke="none"/>
    </g>
    <g id="shape1" transform="matrix(1, 0, 0, 1, 58.75, 21.25)">
      <path d="M8.45 -11.55 L8.2 -12.2 7.45 -13.85 6.0 -15.95 3.75 -17.95 Q2.4 -18.9 0.6 -19.4 L-0.05 -19.65 -1.65 -20.05 -3.45 -20.25 Q-4.25 -20.2 -4.75 -19.7 -5.15 -19.15 -4.95 -18.45 L-4.3 -17.0 -3.5 -15.45 Q-3.1 -14.75 -3.05 -14.1 L-3.2 -12.05 -3.35 -11.3 8.45 -11.55" fill="#167fa3" fill-rule="evenodd" stroke="none"/>
      <path d="M8.45 -11.55 L8.2 -12.2 7.45 -13.85 6.0 -15.95 3.75 -17.95 Q2.4 -18.9 0.6 -19.4 L-0.05 -19.65 -1.65 -20.05 -3.45 -20.25 Q-4.25 -20.2 -4.75 -19.7 -5.15 -19.15 -4.95 -18.45 L-4.3 -17.0 -3.5 -15.45 Q-3.1 -14.75 -3.05 -14.1 L-3.2 -12.05 -3.35 -11.3" fill="none" stroke="#000000" stroke-linecap="round" stroke-linejoin="round" stroke-width="2.0"/>
      <path d="M-0.7 -19.65 L-2.15 -20.0 -3.6 -20.05 Q-4.25 -19.95 -4.6 -19.6 L-4.85 -18.95 -4.75 -18.45 -1.1 -18.5 2.55 -17.8 Q4.3 -17.15 5.5 -15.75 6.8 -14.3 7.25 -11.8 L7.65 -11.8 8.1 -11.8 7.5 -13.25 6.15 -15.45 3.85 -17.65 Q2.45 -18.7 0.5 -19.25 L-0.7 -19.65" fill="#1f95b5" fill-rule="evenodd" stroke="none"/>
      <path d="M-48.15 -5.25 L-49.3 -4.85 Q-49.9 -4.7 -50.25 -4.35 -51.05 -3.6 -50.9 -3.0 L-49.75 -1.9 -47.55 -1.05 -44.9 -0.4 -42.5 0.0 -40.95 0.35 -30.8 3.15 -20.7 6.05 -11.8 8.35 -3.65 10.15 3.05 11.45 7.6 12.25 9.25 12.5 Q12.65 15.4 16.15 17.1 19.7 18.8 23.1 19.5 L29.65 20.3 35.15 20.05 39.15 19.3 41.2 18.65 42.4 18.5 43.6 19.0 44.95 19.5 Q45.65 19.7 46.5 19.5 47.3 19.3 47.4 18.8 47.5 18.3 47.2 17.75 L46.6 16.8 46.2 16.4 47.0 16.2 49.0 15.55 Q50.15 15.1 51.35 14.35 L53.4 12.6 Q54.25 11.6 54.35 10.25 54.4 8.9 53.7 7.8 53.05 6.65 51.85 5.7 L49.25 3.85 46.5 2.1 44.0 0.45 41.2 -2.1 38.7 -4.9 36.85 -7.25 36.15 -8.2 Q34.85 -9.8 33.2 -10.75 L29.75 -12.2 26.4 -12.85 23.75 -13.0 22.4 -13.0 -5.6 -12.15 -21.65 -10.95 Q-29.65 -9.95 -37.5 -8.1 -42.35 -7.05 -47.05 -5.55 L-48.15 -5.25" fill="#ffe473" fill-rule="evenodd" stroke="none"/>
      <path d="M-48.15 -5.25 L-47.05 -5.55 Q-42.35 -7.05 -37.5 -8.1 -29.65 -9.95 -21.65 -10.95 L-5.6 -12.15 22.4 -13.0 23.75 -13.0 26.4 -12.85 29.75 -12.2 33.2 -10.75 Q34.85 -9.8 36.15 -8.2 L36.85 -7.25 38.7 -4.9 41.2 -2.1 44.0 0.45 46.5 2.1 49.25 3.85 51.85 5.7 Q53.05 6.65 53.7 7.8 54.4 8.9 54.35 10.25 54.25 11.6 53.4 12.6 L51.35 14.35 Q50.15 15.1 49.0 15.55 L47.0 16.2 46.2 16.4 46.6 16.8 47.2 17.75 Q47.5 18.3 47.4 18.8 47.3 19.3 46.5 19.5 45.65 19.7 44.95 19.5 L43.6 19.0 42.4 18.5 41.2 18.65 39.15 19.3 35.15 20.05 29.65 20.3 23.1 19.5 Q19.7 18.8 16.15 17.1 12.65 15.4 9.25 12.5 L7.6 12.25 3.05 11.45 -3.65 10.15 -11.8 8.35 -20.7 6.05 -30.8 3.15 -40.95 0.35 -42.5 0.0 -44.9 -0.4 -47.55 -1.05 -49.75 -1.9 -50.9 -3.0 Q-51.05 -3.6 -50.25 -4.35 -49.9 -4.7 -49.3 -4.85 L-48.15 -5.25" fill="none" stroke="#000000" stroke-linecap="round" stroke-linejoin="round" stroke-width="2.0"/>
      <path d="M-37.4 -7.7 L-40.8 -6.9 -44.6 -5.85 -43.3 -6.15 -42.8 -6.3 Q-35.9 -8.25 -28.9 -9.0 L-15.0 -9.9 -1.2 -9.85 7.5 -9.8 16.25 -9.95 19.1 -10.4 22.15 -11.0 24.3 -10.95 26.25 -10.5 Q26.25 -10.5 26.35 -10.45 30.35 -11.55 34.9 -8.95 32.95 -10.8 29.8 -11.7 26.7 -12.65 22.65 -12.55 L-5.55 -11.7 -21.6 -10.55 Q-29.6 -9.55 -37.4 -7.7" fill="#fcedae" fill-rule="evenodd" stroke="none"/>
      <path d="M-50.45 -3.25 L-50.45 -3.15 Q-50.25 -2.65 -49.35 -2.2 -48.45 -1.75 -47.15 -1.4 L-44.6 -0.8 -42.45 -0.4 -40.8 -0.1 -34.85 1.55 -28.95 3.25 -20.55 5.65 -11.85 7.9 -3.8 9.65 2.8 10.95 7.4 11.75 9.35 12.1 9.45 12.1 9.55 12.15 Q13.45 15.5 17.6 17.25 21.7 18.95 25.6 19.5 L32.8 19.85 38.2 19.1 41.0 18.25 42.5 18.1 43.85 18.6 45.05 19.05 Q45.7 19.25 46.4 19.05 L47.0 18.65 47.0 18.55 46.65 17.6 45.95 16.7 45.4 16.15 46.15 16.0 47.0 15.8 48.85 15.15 51.1 14.05 Q52.25 13.35 53.05 12.4 53.85 11.45 53.95 10.25 L53.95 10.0 Q53.95 9.0 53.35 8.05 52.65 9.55 51.1 10.85 48.85 12.4 46.3 13.05 L41.1 13.4 Q38.55 13.1 36.4 11.95 L37.3 12.75 38.6 13.8 39.7 14.65 39.8 14.75 Q35.6 15.9 31.35 15.8 26.95 15.7 22.85 14.45 18.75 13.15 15.25 10.8 11.7 8.4 9.1 5.0 L9.25 5.8 9.35 6.5 9.25 6.95 8.95 7.1 5.0 7.75 1.1 7.25 -2.85 6.2 -3.3 6.1 -4.3 5.8 -5.35 5.55 -5.8 5.4 -6.55 5.25 -8.4 4.8 -10.85 4.25 -13.25 3.65 -15.15 3.2 -15.9 3.05 -27.5 0.3 -38.95 -1.9 -50.45 -3.25" fill="#ccb244" fill-rule="evenodd" stroke="none"/>
      <path d="M21.3 -7.4 L20.6 -7.15 Q19.9 -6.9 18.9 -6.25 17.9 -5.65 16.95 -4.65 16.05 -3.65 15.55 -2.15 15.0 -0.65 15.3 1.35 15.55 3.35 16.95 6.0 18.4 8.6 21.3 11.9 L20.75 11.25 19.4 9.45 17.85 6.7 Q17.05 5.15 16.55 3.3 16.05 1.5 16.1 -0.45 16.15 -1.6 16.7 -2.65 17.2 -3.7 18.0 -4.55 L19.5 -6.05 20.8 -7.05 21.3 -7.4" fill="#000000" fill-rule="evenodd" stroke="none"/>
      <path d="M29.95 -14.25 Q29.55 -13.4 29.5 -12.55 L29.6 -11.1 29.7 -10.45 30.05 -10.1 30.8 -9.5 Q31.25 -9.2 31.6 -9.15 31.95 -9.1 31.95 -9.6 32.0 -10.15 32.4 -10.8 L33.35 -12.1 34.3 -13.15 34.75 -13.55 33.85 -14.7 32.75 -15.25 31.8 -15.5 31.4 -15.5 Q30.35 -15.05 29.95 -14.25" fill="#000000" fill-rule="evenodd" stroke="none"/>
      <path d="M29.55 -1.25 Q30.05 0.45 30.95 1.7 31.85 2.95 32.95 3.5 34.0 4.1 35.1 3.8 36.15 3.5 36.75 2.45 37.35 1.4 37.45 -0.1 37.6 -1.65 37.1 -3.35 36.65 -5.05 35.75 -6.3 34.85 -7.55 33.75 -8.1 32.7 -8.65 31.65 -8.4 30.6 -8.1 29.95 -7.05 29.35 -6.0 29.2 -4.45 29.1 -2.95 29.55 -1.25" fill="#ffffff" fill-rule="evenodd" stroke="none"/>
      <path d="M29.55 -1.25 Q30.05 0.45 30.95 1.7 31.85 2.95 32.95 3.5 34.0 4.1 35.1 3.8 36.15 3.5 36.75 2.45 37.35 1.4 37.45 -0.1 37.6 -1.65 37.1 -3.35 36.65 -5.05 35.75 -6.3 34.85 -7.55 33.75 -8.1 32.7 -8.65 31.65 -8.4 30.6 -8.1 29.95 -7.05 29.35 -6.0 29.2 -4.45 29.1 -2.95 29.55 -1.25" fill="none" stroke="#000000" stroke-linecap="round" stroke-linejoin="round" stroke-width="1.0"/>
      <path d="M34.15 -5.85 Q33.35 -5.6 32.85 -4.8 32.4 -3.95 32.3 -2.8 32.2 -1.65 32.6 -0.3 32.95 1.1 33.75 2.1 34.5 3.05 35.45 3.45 36.25 3.05 36.75 2.0 37.25 1.0 37.3 -0.35 L36.95 -3.3 36.05 -5.45 Q35.1 -6.05 34.15 -5.85" fill="#000000" fill-rule="evenodd" stroke="none"/>
      <path d="M34.4 -4.15 Q33.6 -3.9 33.3 -2.9 33.05 -1.9 33.4 -0.6 33.65 0.3 34.15 0.9 34.6 1.55 35.2 1.8 36.0 1.35 36.3 0.15 36.55 -1.05 36.15 -2.55 L35.6 -3.9 Q35.0 -4.3 34.4 -4.15" fill="#635311" fill-rule="evenodd" stroke="none"/>
      <path d="M33.15 -3.15 Q33.35 -2.5 33.7 -2.2 34.1 -1.85 34.5 -1.95 34.85 -2.05 35.0 -2.55 L35.0 -3.65 34.4 -4.6 33.65 -4.85 33.15 -4.25 Q33.0 -3.75 33.15 -3.15" fill="#ffffff" fill-rule="evenodd" stroke="none"/>
      <path d="M31.4 5.85 L29.6 6.35 28.8 6.55 31.65 6.4 33.95 5.3 35.7 3.85 36.75 2.55 37.15 1.95 36.8 1.75 36.35 2.3 35.2 3.6 33.35 5.0 31.4 5.85" fill="#000000" fill-rule="evenodd" stroke="none"/>
      <path d="M46.25 16.4 L45.25 16.45 42.7 16.05 Q41.05 15.65 39.0 14.35 37.0 13.1 34.75 10.5" fill="none" stroke="#000000" stroke-linecap="round" stroke-linejoin="round" stroke-width="1.0"/>
      <path d="M9.95 0.5 L10.05 0.7 Q10.15 0.9 10.6 1.0 L11.85 1.0 14.3 0.25 14.55 -1.95 14.1 -2.45 13.0 -3.4 11.65 -4.25 Q11.0 -4.55 10.5 -4.25 10.05 -3.9 9.9 -3.15 L9.75 -1.55 9.85 -0.1 9.95 0.5" fill="#167fa3" fill-rule="evenodd" stroke="none"/>
      <path d="M9.95 0.5 L10.05 0.7 Q10.15 0.9 10.6 1.0 L11.85 1.0 14.3 0.25 14.55 -1.95 14.1 -2.45 13.0 -3.4 11.65 -4.25 Q11.0 -4.55 10.5 -4.25 10.05 -3.9 9.9 -3.15 L9.75 -1.55 9.85 -0.1 9.95 0.5" fill="none" stroke="#000000" stroke-linecap="round" stroke-linejoin="round" stroke-width="1.0"/>
      <path d="M10.55 -4.05 Q10.15 -3.7 10.0 -3.0 L9.9 -1.5 10.0 -0.1 10.1 0.5 10.2 0.65 10.85 0.85 Q10.4 0.0 10.3 -0.9 10.2 -1.75 10.65 -2.35 11.15 -3.05 11.75 -3.05 12.4 -3.05 13.05 -2.65 L14.35 -1.65 14.4 -1.8 13.8 -2.45 12.75 -3.35 11.55 -4.05 Q11.0 -4.3 10.55 -4.05" fill="#40a9c6" fill-rule="evenodd" stroke="none"/>
      <path d="M34.15 8.85 L32.65 9.25 Q32.3 9.55 32.4 9.9 L32.75 10.55 33.05 10.8 Q32.8 10.1 33.1 9.7 33.35 9.25 33.75 9.05 L34.15 8.85" fill="#000000" fill-rule="evenodd" stroke="none"/>
      <path d="M-54.95 -9.6 L-57.6 -10.05 -57.1 -9.7 -55.95 -8.6 -54.6 -6.8 Q-53.9 -5.85 -53.5 -4.55 -53.05 -3.25 -53.1 -1.8 -53.15 -0.3 -53.65 1.15 -54.1 2.55 -54.8 3.8 L-56.15 6.05 -57.3 7.55 -57.75 8.1 -54.1 4.8 Q-52.65 3.45 -51.3 1.7 L-50.45 0.5 -49.6 -0.5 Q-49.15 -0.95 -48.6 -0.8 L-49.4 -3.0 -48.45 -5.4 Q-48.9 -5.05 -49.2 -5.2 L-49.85 -5.8 -50.4 -6.6 -52.4 -8.45 Q-53.6 -9.2 -54.95 -9.6" fill="#167fa3" fill-rule="evenodd" stroke="none"/>
      <path d="M-54.95 -9.6 Q-53.6 -9.2 -52.4 -8.45 L-50.4 -6.6 -49.85 -5.8 -49.2 -5.2 Q-48.9 -5.05 -48.45 -5.4 L-49.4 -3.0 -48.6 -0.8 Q-49.15 -0.95 -49.6 -0.5 L-50.45 0.5 -51.3 1.7 Q-52.65 3.45 -54.1 4.8 L-57.75 8.1 -57.3 7.55 -56.15 6.05 -54.8 3.8 Q-54.1 2.55 -53.65 1.15 -53.15 -0.3 -53.1 -1.8 -53.05 -3.25 -53.5 -4.55 -53.9 -5.85 -54.6 -6.8 L-55.95 -8.6 -57.1 -9.7 -57.6 -10.05 -54.95 -9.6" fill="none" stroke="#000000" stroke-linecap="round" stroke-linejoin="round" stroke-width="2.0"/>
      <path d="M13.15 13.1 Q13.1 13.95 12.7 14.65 L11.9 15.9 11.5 16.4 15.25 16.3 17.7 15.65 19.1 14.75 19.75 14.0 19.9 13.7 19.9 13.55 19.5 13.15 18.15 12.8 16.0 12.65 14.05 12.75 Q13.25 12.85 13.15 13.1" fill="#167fa3" fill-rule="evenodd" stroke="none"/>
      <path d="M13.15 13.1 Q13.1 13.95 12.7 14.65 L11.9 15.9 11.5 16.4 15.25 16.3 17.7 15.65 19.1 14.75 19.75 14.0 19.9 13.7 19.9 13.55 19.5 13.15 18.15 12.8 16.0 12.65 14.05 12.75 Q13.25 12.85 13.15 13.1" fill="none" stroke="#000000" stroke-linecap="round" stroke-linejoin="round" stroke-width="1.0"/>
      <path d="M13.4 13.1 L13.0 14.45 12.35 15.6 11.8 16.3 15.3 16.15 17.6 15.55 18.9 14.75 19.5 14.0 19.7 13.65 19.65 13.55 19.3 13.2 18.15 12.9 16.35 12.75 14.65 12.8 13.55 13.0 Q13.4 13.05 13.4 13.1" fill="#167fa3" fill-rule="evenodd" stroke="none"/>
      <path d="M13.4 13.1 Q13.4 13.05 13.55 13.0 L14.65 12.8 16.35 12.75 18.15 12.9 19.3 13.2 19.65 13.55 19.7 13.65 19.5 14.0 18.9 14.75 17.6 15.55 15.3 16.15 11.8 16.3 12.35 15.6 13.0 14.45 13.4 13.1" fill="none" stroke="#000000" stroke-linecap="round" stroke-linejoin="round" stroke-width="1.0"/>
      <path d="M18.3 13.05 L17.3 14.7 Q16.6 15.45 15.4 16.0 L17.55 15.4 Q18.35 15.05 18.75 14.65 L19.35 14.0 19.5 13.65 19.5 13.6 19.3 13.4 18.3 13.05" fill="#0f6e87" fill-rule="evenodd" stroke="none"/>
    </g>
  </defs>
</svg>
