<?xml version="1.0" encoding="UTF-8" standalone="no"?>
<svg xmlns:xlink="http://www.w3.org/1999/xlink" height="42.55px" width="128.7px" xmlns="http://www.w3.org/2000/svg">
  <g transform="matrix(1, 0, 0, 1, 58.8, 21.25)">
    <use height="33.45" transform="matrix(0.5815, 0.0, 0.0, 0.5815, 50.4933, 1.0068)" width="33.4" xlink:href="#sprite0"/>
    <use height="42.55" transform="matrix(1.0, 0.0, 0.0, 1.0, -57.5, -21.25)" width="116.05" xlink:href="#shape1"/>
  </g>
  <defs>
    <g id="sprite0" transform="matrix(1, 0, 0, 1, 16.35, 23.55)">
      <use height="25.4" transform="matrix(0.8077, 0.0, 0.0, 0.8077, -9.9866, -10.6327)" width="25.4" xlink:href="#shape0"/>
    </g>
    <g id="shape0" transform="matrix(1, 0, 0, 1, 12.55, 13.35)">
      <path d="M8.9 -9.4 Q12.5 -5.8 12.5 -0.65 12.5 4.45 8.9 8.1 5.25 11.7 0.15 11.7 -5.0 11.7 -8.6 8.1 -12.2 4.45 -12.2 -0.65 -12.2 -5.8 -8.6 -9.4 -5.0 -13.0 0.15 -13.0 5.25 -13.0 8.9 -9.4" fill="#ccffff" fill-opacity="0.49019608" fill-rule="evenodd" stroke="none"/>
      <path d="M8.9 -9.4 Q12.5 -5.8 12.5 -0.65 12.5 4.45 8.9 8.1 5.25 11.7 0.15 11.7 -5.0 11.7 -8.6 8.1 -12.2 4.45 -12.2 -0.65 -12.2 -5.8 -8.6 -9.4 -5.0 -13.0 0.15 -13.0 5.25 -13.0 8.9 -9.4" fill="none" stroke="#00ccff" stroke-linecap="round" stroke-linejoin="round" stroke-opacity="0.49019608" stroke-width="0.75"/>
      <path d="M8.05 -7.55 Q10.05 -4.8 10.05 -0.8 10.05 3.15 8.05 5.95 6.1 8.75 3.3 8.8 L2.65 8.75 Q4.25 8.1 5.55 6.25 7.5 3.5 7.5 -0.5 7.5 -4.45 5.55 -7.25 3.8 -9.7 1.4 -9.95 L3.3 -10.35 Q6.1 -10.35 8.05 -7.55" fill="#ffffff" fill-opacity="0.49019608" fill-rule="evenodd" stroke="none"/>
      <path d="M-7.6 -6.4 Q-7.6 -7.35 -6.95 -8.0 -6.3 -8.65 -5.35 -8.65 -4.4 -8.65 -3.75 -8.0 -3.1 -7.35 -3.1 -6.4 -3.1 -5.45 -3.75 -4.8 -4.4 -4.15 -5.35 -4.15 -6.3 -4.15 -6.95 -4.8 -7.6 -5.45 -7.6 -6.4" fill="#ffffff" fill-opacity="0.49019608" fill-rule="evenodd" stroke="none"/>
    </g>
    <g id="shape1" transform="matrix(1, 0, 0, 1, 57.5, 21.25)">
      <path d="M12.2 -11.55 L11.95 -12.2 11.2 -13.85 9.8 -15.95 7.6 -17.95 Q6.25 -18.9 4.45 -19.4 L3.8 -19.65 2.25 -20.05 0.45 -20.25 Q-0.35 -20.2 -0.8 -19.7 -1.2 -19.15 -1.05 -18.45 L-0.4 -17.0 0.4 -15.45 0.85 -14.1 0.7 -12.05 0.55 -11.3 12.2 -11.55" fill="#167fa3" fill-rule="evenodd" stroke="none"/>
      <path d="M12.2 -11.55 L11.95 -12.2 11.2 -13.85 9.8 -15.95 7.6 -17.95 Q6.25 -18.9 4.45 -19.4 L3.8 -19.65 2.25 -20.05 0.45 -20.25 Q-0.35 -20.2 -0.8 -19.7 -1.2 -19.15 -1.05 -18.45 L-0.4 -17.0 0.4 -15.45 0.85 -14.1 0.7 -12.05 0.55 -11.3" fill="none" stroke="#000000" stroke-linecap="round" stroke-linejoin="round" stroke-width="2.0"/>
      <path d="M3.2 -19.65 L1.7 -20.0 0.25 -20.05 -0.7 -19.6 -0.95 -18.95 -0.85 -18.45 2.8 -18.5 6.35 -17.8 Q8.05 -17.15 9.3 -15.75 10.55 -14.3 11.0 -11.8 L11.4 -11.8 11.85 -11.8 11.25 -13.25 9.9 -15.45 7.65 -17.65 Q6.3 -18.7 4.35 -19.25 L4.3 -19.25 3.2 -19.65" fill="#1f95b5" fill-rule="evenodd" stroke="none"/>
      <path d="M-43.7 -5.25 L-44.85 -4.85 Q-45.45 -4.7 -45.8 -4.35 -46.6 -3.6 -46.4 -3.0 -46.2 -2.4 -45.3 -1.9 -44.4 -1.45 -43.1 -1.05 L-40.5 -0.4 -38.15 0.0 -36.6 0.35 -26.6 3.15 -16.6 6.05 -7.8 8.35 0.25 10.15 6.9 11.45 11.35 12.25 13.0 12.5 Q16.35 15.4 19.85 17.1 23.3 18.8 26.7 19.5 L33.15 20.3 38.55 20.05 42.55 19.3 44.55 18.65 45.75 18.5 46.95 19.0 48.3 19.5 Q48.95 19.7 49.8 19.5 L50.7 18.8 50.5 17.75 49.9 16.8 49.55 16.4 50.3 16.2 52.25 15.55 54.6 14.35 56.6 12.6 Q57.45 11.6 57.55 10.25 57.6 8.9 56.95 7.8 56.25 6.65 55.1 5.7 53.9 4.7 52.55 3.85 L49.8 2.1 47.3 0.45 44.55 -2.1 42.1 -4.9 40.25 -7.25 39.55 -8.2 Q38.3 -9.8 36.65 -10.75 L33.25 -12.2 29.95 -12.85 27.35 -13.0 26.0 -13.0 -1.65 -12.15 -17.55 -10.95 Q-25.45 -9.95 -33.2 -8.1 L-42.65 -5.55 -43.7 -5.25" fill="#ffe473" fill-rule="evenodd" stroke="none"/>
      <path d="M-43.7 -5.25 L-42.65 -5.55 -33.2 -8.1 Q-25.45 -9.95 -17.55 -10.95 L-1.65 -12.15 26.0 -13.0 27.35 -13.0 29.95 -12.85 33.25 -12.2 36.65 -10.75 Q38.3 -9.8 39.55 -8.2 L40.25 -7.25 42.1 -4.9 44.55 -2.1 47.3 0.45 49.8 2.1 52.55 3.85 Q53.9 4.7 55.1 5.7 56.25 6.65 56.95 7.8 57.6 8.9 57.55 10.25 57.45 11.6 56.6 12.6 L54.6 14.35 52.25 15.55 50.3 16.2 49.55 16.4 49.9 16.8 50.5 17.75 50.7 18.8 49.8 19.5 Q48.95 19.7 48.3 19.5 L46.95 19.0 45.75 18.5 44.55 18.65 42.55 19.3 38.55 20.05 33.15 20.3 26.7 19.5 Q23.3 18.8 19.85 17.1 16.35 15.4 13.0 12.5 L11.35 12.25 6.9 11.45 0.25 10.15 -7.8 8.35 -16.6 6.05 -26.6 3.15 -36.6 0.35 -38.15 0.0 -40.5 -0.4 -43.1 -1.05 Q-44.4 -1.45 -45.3 -1.9 -46.2 -2.4 -46.4 -3.0 -46.6 -3.6 -45.8 -4.35 -45.45 -4.7 -44.85 -4.85 L-43.7 -5.25" fill="none" stroke="#000000" stroke-linecap="round" stroke-linejoin="round" stroke-width="2.0"/>
      <path d="M-33.15 -7.7 L-36.5 -6.9 -40.25 -5.85 -38.95 -6.15 -38.45 -6.3 Q-31.65 -8.25 -24.75 -9.0 L-11.0 -9.9 2.6 -9.85 11.2 -9.8 19.85 -9.95 22.7 -10.4 25.7 -11.0 27.85 -10.95 29.75 -10.5 29.9 -10.45 Q33.8 -11.55 38.3 -8.95 36.35 -10.8 33.25 -11.7 30.2 -12.65 26.2 -12.55 L-1.7 -11.7 -17.55 -10.55 Q-25.45 -9.55 -33.15 -7.7" fill="#fcedae" fill-rule="evenodd" stroke="none"/>
      <path d="M-46.0 -3.25 L-46.0 -3.15 -44.9 -2.2 -42.75 -1.4 -40.2 -0.8 -38.1 -0.4 -36.45 -0.1 -30.55 1.55 -24.75 3.25 -16.45 5.65 -7.85 7.9 0.05 9.65 6.65 10.95 11.15 11.75 13.1 12.1 13.2 12.1 13.3 12.15 Q17.15 15.5 21.25 17.25 25.3 18.95 29.15 19.5 L36.25 19.85 41.6 19.1 44.35 18.25 45.8 18.1 47.15 18.6 48.35 19.05 Q49.0 19.25 49.7 19.05 L50.3 18.65 50.3 18.55 49.95 17.6 49.25 16.7 48.7 16.15 49.45 16.0 50.25 15.8 52.1 15.15 Q53.25 14.7 54.35 14.05 L56.25 12.4 Q57.05 11.45 57.15 10.25 L57.15 10.0 Q57.15 9.0 56.55 8.05 55.85 9.55 54.35 10.85 52.15 12.4 49.6 13.05 L44.45 13.4 Q41.95 13.1 39.85 11.95 L40.7 12.75 41.95 13.8 43.1 14.65 43.2 14.75 Q39.0 15.9 34.85 15.8 30.5 15.7 26.4 14.45 22.35 13.15 18.9 10.8 15.4 8.4 12.85 5.0 L13.0 5.8 13.1 6.5 13.0 6.95 12.7 7.1 8.8 7.75 4.95 7.25 1.05 6.2 0.6 6.1 -0.45 5.8 -1.4 5.55 -1.9 5.4 -2.6 5.25 -4.45 4.8 -6.9 4.25 -9.25 3.65 -11.15 3.2 -11.85 3.05 -23.35 0.3 -34.65 -1.9 -46.0 -3.25" fill="#ccb244" fill-rule="evenodd" stroke="none"/>
      <path d="M24.9 -7.4 L24.2 -7.15 Q23.5 -6.9 22.55 -6.25 21.55 -5.65 20.65 -4.65 19.7 -3.65 19.2 -2.15 18.7 -0.65 18.95 1.35 19.25 3.35 20.65 6.0 22.0 8.6 24.9 11.9 L24.35 11.25 23.05 9.45 21.5 6.7 Q20.7 5.15 20.2 3.3 19.7 1.5 19.75 -0.45 19.8 -1.6 20.35 -2.65 20.85 -3.7 21.6 -4.55 L23.1 -6.05 24.4 -7.05 24.9 -7.4" fill="#000000" fill-rule="evenodd" stroke="none"/>
      <path d="M31.35 -15.95 Q30.95 -15.05 30.9 -14.1 L31.0 -12.45 31.1 -11.75 31.45 -11.35 32.2 -10.7 Q32.65 -10.35 33.0 -10.3 33.3 -10.25 33.35 -10.8 L33.75 -12.15 34.7 -13.55 35.65 -14.7 36.1 -15.2 35.25 -16.45 34.15 -17.05 33.15 -17.35 32.8 -17.35 Q31.75 -16.85 31.35 -15.95" fill="#000000" fill-rule="evenodd" stroke="none"/>
      <path d="M33.05 -1.85 Q33.55 0.05 34.45 1.45 35.3 2.8 36.4 3.45 37.45 4.1 38.5 3.75 39.55 3.4 40.15 2.25 40.75 1.1 40.85 -0.6 41.0 -2.3 40.5 -4.2 40.05 -6.1 39.15 -7.5 38.3 -8.85 37.2 -9.5 36.15 -10.1 35.1 -9.8 34.05 -9.45 33.45 -8.3 32.85 -7.15 32.7 -5.4 32.6 -3.75 33.05 -1.85" fill="#ffffff" fill-rule="evenodd" stroke="none"/>
      <path d="M33.05 -1.85 Q33.55 0.05 34.45 1.45 35.3 2.8 36.4 3.45 37.45 4.1 38.5 3.75 39.55 3.4 40.15 2.25 40.75 1.1 40.85 -0.6 41.0 -2.3 40.5 -4.2 40.05 -6.1 39.15 -7.5 38.3 -8.85 37.2 -9.5 36.15 -10.1 35.1 -9.8 34.05 -9.45 33.45 -8.3 32.85 -7.15 32.7 -5.4 32.6 -3.75 33.05 -1.85" fill="none" stroke="#000000" stroke-linecap="round" stroke-linejoin="round" stroke-width="1.0"/>
      <path d="M37.55 -6.95 Q36.75 -6.65 36.25 -5.75 35.8 -4.85 35.7 -3.55 35.65 -2.25 36.0 -0.8 36.4 0.8 37.15 1.9 37.9 3.0 38.8 3.4 39.65 2.95 40.1 1.8 40.6 0.65 40.65 -0.85 L40.3 -4.1 39.4 -6.5 Q38.45 -7.2 37.55 -6.95" fill="#000000" fill-rule="evenodd" stroke="none"/>
      <path d="M37.75 -5.05 Q37.0 -4.75 36.7 -3.65 36.45 -2.55 36.75 -1.1 37.05 -0.1 37.5 0.6 L38.55 1.55 Q39.4 1.1 39.65 -0.25 39.9 -1.6 39.5 -3.25 L38.95 -4.8 37.75 -5.05" fill="#635311" fill-rule="evenodd" stroke="none"/>
      <path d="M36.6 -3.95 Q36.8 -3.25 37.15 -2.9 37.5 -2.5 37.9 -2.6 38.25 -2.75 38.4 -3.3 L38.4 -4.5 37.8 -5.55 Q37.45 -5.95 37.05 -5.85 L36.55 -5.15 36.6 -3.95" fill="#ffffff" fill-rule="evenodd" stroke="none"/>
      <path d="M34.85 5.85 L33.1 6.35 32.3 6.55 35.1 6.4 37.4 5.3 39.1 3.85 40.2 2.55 40.55 1.95 40.2 1.75 39.8 2.3 38.65 3.6 36.8 5.0 34.85 5.85" fill="#000000" fill-rule="evenodd" stroke="none"/>
      <path d="M49.55 16.4 L48.6 16.45 46.05 16.05 Q44.45 15.65 42.4 14.35 40.4 13.1 38.2 10.5" fill="none" stroke="#000000" stroke-linecap="round" stroke-linejoin="round" stroke-width="1.0"/>
      <path d="M11.2 0.5 L11.35 0.7 12.1 1.0 14.1 1.0 17.85 0.25 18.2 -1.95 17.5 -2.45 15.85 -3.4 13.8 -4.25 Q12.75 -4.55 12.0 -4.25 11.3 -3.9 11.05 -3.15 L10.9 -1.55 Q10.9 -0.7 11.05 -0.1 L11.2 0.5" fill="#167fa3" fill-rule="evenodd" stroke="none"/>
      <path d="M11.2 0.5 L11.35 0.7 12.1 1.0 14.1 1.0 17.85 0.25 18.2 -1.95 17.5 -2.45 15.85 -3.4 13.8 -4.25 Q12.75 -4.55 12.0 -4.25 11.3 -3.9 11.05 -3.15 L10.9 -1.55 Q10.9 -0.7 11.05 -0.1 L11.2 0.5" fill="none" stroke="#000000" stroke-linecap="round" stroke-linejoin="round" stroke-width="1.0"/>
      <path d="M12.1 -4.05 Q11.45 -3.7 11.25 -3.0 L11.1 -1.5 11.25 -0.1 11.4 0.5 11.6 0.65 12.5 0.85 Q11.85 0.0 11.65 -0.9 11.55 -1.75 12.25 -2.35 13.0 -3.05 13.95 -3.05 L15.95 -2.65 17.95 -1.65 18.0 -1.8 17.05 -2.45 15.45 -3.35 13.65 -4.05 Q12.75 -4.3 12.1 -4.05" fill="#40a9c6" fill-rule="evenodd" stroke="none"/>
      <path d="M16.85 13.55 L16.4 16.5 15.6 18.8 15.2 19.75 18.95 19.5 Q20.4 19.1 21.35 18.3 L22.7 16.7 23.35 15.3 23.5 14.7 23.5 14.4 23.1 13.7 21.8 13.0 19.65 12.7 17.7 12.95 Q16.9 13.15 16.85 13.55" fill="#167fa3" fill-rule="evenodd" stroke="none"/>
      <path d="M16.85 13.55 L16.4 16.5 15.6 18.8 15.2 19.75 18.95 19.5 Q20.4 19.1 21.35 18.3 L22.7 16.7 23.35 15.3 23.5 14.7 23.5 14.4 23.1 13.7 21.8 13.0 19.65 12.7 17.7 12.95 Q16.9 13.15 16.85 13.55" fill="none" stroke="#000000" stroke-linecap="round" stroke-linejoin="round" stroke-width="1.0"/>
      <path d="M17.05 13.65 L16.7 16.15 16.05 18.3 15.5 19.6 19.0 19.35 Q20.35 18.95 21.2 18.2 L22.5 16.7 23.15 15.35 23.3 14.7 23.25 14.45 22.9 13.85 Q22.6 13.55 21.75 13.3 L20.0 13.0 18.3 13.05 Q17.55 13.2 17.2 13.45 L17.05 13.65" fill="#167fa3" fill-rule="evenodd" stroke="none"/>
      <path d="M17.05 13.65 L17.2 13.45 Q17.55 13.2 18.3 13.05 L20.0 13.0 21.75 13.3 Q22.6 13.55 22.9 13.85 L23.25 14.45 23.3 14.7 23.15 15.35 22.5 16.7 21.2 18.2 Q20.35 18.95 19.0 19.35 L15.5 19.6 16.05 18.3 16.7 16.15 17.05 13.65" fill="none" stroke="#000000" stroke-linecap="round" stroke-linejoin="round" stroke-width="1.0"/>
      <path d="M21.95 13.55 Q21.65 15.15 20.95 16.6 20.25 18.05 19.05 19.1 20.35 18.65 21.15 18.0 L22.35 16.55 22.95 15.3 23.1 14.65 23.1 14.6 22.9 14.15 Q22.7 13.85 21.95 13.55" fill="#0f6e87" fill-rule="evenodd" stroke="none"/>
      <path d="M37.6 8.85 Q36.45 8.95 36.1 9.25 35.75 9.55 35.9 9.9 L36.25 10.55 36.5 10.8 Q36.25 10.1 36.55 9.7 36.8 9.25 37.2 9.05 L37.6 8.85" fill="#000000" fill-rule="evenodd" stroke="none"/>
      <path d="M-52.75 -9.65 L-56.3 -10.55 -55.65 -10.15 -54.1 -9.05 -52.3 -7.4 Q-51.4 -6.5 -50.8 -5.4 -50.25 -4.3 -50.3 -3.2 -50.35 -2.05 -51.0 -1.05 L-52.55 0.8 -54.35 2.25 -55.9 3.2 -56.5 3.55 -51.65 1.75 Q-49.7 0.95 -47.85 -0.1 L-46.75 -0.85 -45.65 -1.5 Q-45.05 -1.75 -44.3 -1.5 L-45.35 -3.4 -44.1 -5.05 Q-44.7 -4.85 -45.15 -5.05 L-45.95 -5.65 -46.7 -6.4 -49.35 -8.2 -52.75 -9.65" fill="#167fa3" fill-rule="evenodd" stroke="none"/>
      <path d="M-52.75 -9.65 L-49.35 -8.2 -46.7 -6.4 -45.95 -5.65 -45.15 -5.05 Q-44.7 -4.85 -44.1 -5.05 L-45.35 -3.4 -44.3 -1.5 Q-45.05 -1.75 -45.65 -1.5 L-46.75 -0.85 -47.85 -0.1 Q-49.7 0.95 -51.65 1.75 L-56.5 3.55 -55.9 3.2 -54.35 2.25 -52.55 0.8 -51.0 -1.05 Q-50.35 -2.05 -50.3 -3.2 -50.25 -4.3 -50.8 -5.4 -51.4 -6.5 -52.3 -7.4 L-54.1 -9.05 -55.65 -10.15 -56.3 -10.55 -52.75 -9.65" fill="none" stroke="#000000" stroke-linecap="round" stroke-linejoin="round" stroke-width="2.0"/>
    </g>
  </defs>
</svg>
