<?xml version="1.0" encoding="UTF-8" standalone="no"?>
<svg xmlns:xlink="http://www.w3.org/1999/xlink" height="42.55px" width="128.7px" xmlns="http://www.w3.org/2000/svg">
  <g transform="matrix(1, 0, 0, 1, 58.8, 21.25)">
    <use height="33.45" transform="matrix(0.5815, 0.0, 0.0, 0.5815, 50.4933, 1.0068)" width="33.4" xlink:href="#sprite0"/>
    <use height="42.55" transform="matrix(1.0, 0.0, 0.0, 1.0, -58.8, -21.25)" width="117.45" xlink:href="#shape1"/>
  </g>
  <defs>
    <g id="sprite0" transform="matrix(1, 0, 0, 1, 16.35, 23.55)">
      <use height="25.4" transform="matrix(0.8077, 0.0, 0.0, 0.8077, -9.9866, -10.6327)" width="25.4" xlink:href="#shape0"/>
    </g>
    <g id="shape0" transform="matrix(1, 0, 0, 1, 12.55, 13.35)">
      <path d="M8.9 -9.4 Q12.5 -5.8 12.5 -0.65 12.5 4.45 8.9 8.1 5.25 11.7 0.15 11.7 -5.0 11.7 -8.6 8.1 -12.2 4.45 -12.2 -0.65 -12.2 -5.8 -8.6 -9.4 -5.0 -13.0 0.15 -13.0 5.25 -13.0 8.9 -9.4" fill="#ccffff" fill-opacity="0.49019608" fill-rule="evenodd" stroke="none"/>
      <path d="M8.9 -9.4 Q12.5 -5.8 12.5 -0.65 12.5 4.45 8.9 8.1 5.25 11.7 0.15 11.7 -5.0 11.7 -8.6 8.1 -12.2 4.45 -12.2 -0.65 -12.2 -5.8 -8.6 -9.4 -5.0 -13.0 0.15 -13.0 5.25 -13.0 8.9 -9.4" fill="none" stroke="#00ccff" stroke-linecap="round" stroke-linejoin="round" stroke-opacity="0.49019608" stroke-width="0.75"/>
      <path d="M8.05 -7.55 Q10.05 -4.8 10.05 -0.8 10.05 3.15 8.05 5.95 6.1 8.75 3.3 8.8 L2.65 8.75 Q4.25 8.1 5.55 6.25 7.5 3.5 7.5 -0.5 7.5 -4.45 5.55 -7.25 3.8 -9.7 1.4 -9.95 L3.3 -10.35 Q6.1 -10.35 8.05 -7.55" fill="#ffffff" fill-opacity="0.49019608" fill-rule="evenodd" stroke="none"/>
      <path d="M-7.6 -6.4 Q-7.6 -7.35 -6.95 -8.0 -6.3 -8.65 -5.35 -8.65 -4.4 -8.65 -3.75 -8.0 -3.1 -7.35 -3.1 -6.4 -3.1 -5.45 -3.75 -4.8 -4.4 -4.15 -5.35 -4.15 -6.3 -4.15 -6.95 -4.8 -7.6 -5.45 -7.6 -6.4" fill="#ffffff" fill-opacity="0.49019608" fill-rule="evenodd" stroke="none"/>
    </g>
    <g id="shape1" transform="matrix(1, 0, 0, 1, 58.8, 21.25)">
      <path d="M11.75 -11.55 L11.5 -12.2 10.75 -13.85 9.3 -15.95 Q8.4 -17.0 7.05 -17.95 5.7 -18.9 3.9 -19.4 L3.25 -19.65 1.65 -20.05 -0.15 -20.25 Q-0.95 -20.2 -1.45 -19.7 -1.85 -19.15 -1.65 -18.45 L-1.0 -17.0 -0.2 -15.45 0.25 -14.1 0.1 -12.05 -0.05 -11.3 11.75 -11.55" fill="#167fa3" fill-rule="evenodd" stroke="none"/>
      <path d="M11.75 -11.55 L11.5 -12.2 10.75 -13.85 9.3 -15.95 Q8.4 -17.0 7.05 -17.95 5.7 -18.9 3.9 -19.4 L3.25 -19.65 1.65 -20.05 -0.15 -20.25 Q-0.95 -20.2 -1.45 -19.7 -1.85 -19.15 -1.65 -18.45 L-1.0 -17.0 -0.2 -15.45 0.25 -14.1 0.1 -12.05 -0.05 -11.3" fill="none" stroke="#000000" stroke-linecap="round" stroke-linejoin="round" stroke-width="2.0"/>
      <path d="M2.6 -19.65 L1.15 -20.0 -0.3 -20.05 -1.3 -19.6 -1.55 -18.95 -1.45 -18.45 2.2 -18.5 Q4.1 -18.4 5.85 -17.8 7.6 -17.15 8.8 -15.75 10.1 -14.3 10.55 -11.8 L10.95 -11.8 11.4 -11.8 10.8 -13.25 9.45 -15.45 7.15 -17.65 Q5.75 -18.7 3.8 -19.25 L2.6 -19.65" fill="#1f95b5" fill-rule="evenodd" stroke="none"/>
      <path d="M-44.85 -5.25 L-46.0 -4.85 Q-46.6 -4.7 -46.95 -4.35 -47.75 -3.6 -47.6 -3.0 L-46.45 -1.9 -44.25 -1.05 -41.6 -0.4 -39.2 0.0 -37.65 0.35 -27.5 3.15 -17.4 6.05 -8.5 8.35 -0.35 10.15 6.35 11.45 10.9 12.25 12.55 12.5 Q15.95 15.4 19.45 17.1 23.0 18.8 26.4 19.5 L32.95 20.3 38.45 20.05 42.45 19.3 44.5 18.65 45.7 18.5 46.9 19.0 48.25 19.5 Q48.95 19.7 49.8 19.5 L50.7 18.8 Q50.8 18.3 50.5 17.75 L49.9 16.8 49.5 16.4 50.3 16.2 52.3 15.55 Q53.45 15.1 54.65 14.35 L56.7 12.6 Q57.55 11.6 57.65 10.25 57.7 8.9 57.0 7.8 56.35 6.65 55.15 5.7 L52.55 3.85 49.8 2.1 47.3 0.45 44.5 -2.1 42.0 -4.9 40.15 -7.25 39.45 -8.2 Q38.15 -9.8 36.5 -10.75 L33.05 -12.2 29.7 -12.85 27.05 -13.0 25.7 -13.0 -2.3 -12.15 -18.35 -10.95 Q-26.35 -9.95 -34.2 -8.1 L-43.75 -5.55 -44.85 -5.25" fill="#ffe473" fill-rule="evenodd" stroke="none"/>
      <path d="M-44.85 -5.25 L-43.75 -5.55 -34.2 -8.1 Q-26.35 -9.95 -18.35 -10.95 L-2.3 -12.15 25.7 -13.0 27.05 -13.0 29.7 -12.85 33.05 -12.2 36.5 -10.75 Q38.15 -9.8 39.45 -8.2 L40.15 -7.25 42.0 -4.9 44.5 -2.1 47.3 0.45 49.8 2.1 52.55 3.85 55.15 5.7 Q56.35 6.65 57.0 7.8 57.7 8.9 57.65 10.25 57.55 11.6 56.7 12.6 L54.65 14.35 Q53.45 15.1 52.3 15.55 L50.3 16.2 49.5 16.4 49.9 16.8 50.5 17.75 Q50.8 18.3 50.7 18.8 L49.8 19.5 Q48.95 19.7 48.25 19.5 L46.9 19.0 45.7 18.5 44.5 18.65 42.45 19.3 38.45 20.05 32.95 20.3 26.4 19.5 Q23.0 18.8 19.45 17.1 15.95 15.4 12.55 12.5 L10.9 12.25 6.35 11.45 -0.35 10.15 -8.5 8.35 -17.4 6.05 -27.5 3.15 -37.65 0.35 -39.2 0.0 -41.6 -0.4 -44.25 -1.05 -46.45 -1.9 -47.6 -3.0 Q-47.75 -3.6 -46.95 -4.35 -46.6 -4.7 -46.0 -4.85 L-44.85 -5.25" fill="none" stroke="#000000" stroke-linecap="round" stroke-linejoin="round" stroke-width="2.0"/>
      <path d="M-34.1 -7.7 L-37.5 -6.9 -41.3 -5.85 -40.0 -6.15 -39.5 -6.3 Q-32.6 -8.25 -25.6 -9.0 L-11.7 -9.9 2.1 -9.85 10.8 -9.8 19.55 -9.95 22.4 -10.4 25.45 -11.0 27.6 -10.95 29.55 -10.5 Q29.55 -10.5 29.65 -10.45 33.65 -11.55 38.2 -8.95 36.25 -10.8 33.1 -11.7 30.0 -12.65 25.95 -12.55 L-2.25 -11.7 -18.3 -10.55 Q-26.3 -9.55 -34.1 -7.7" fill="#fcedae" fill-rule="evenodd" stroke="none"/>
      <path d="M-47.15 -3.25 L-47.15 -3.15 Q-46.95 -2.65 -46.05 -2.2 L-43.85 -1.4 -41.3 -0.8 -39.15 -0.4 -37.5 -0.1 -31.55 1.55 -25.65 3.25 -17.25 5.65 -8.55 7.9 -0.5 9.65 6.1 10.95 10.7 11.75 12.65 12.1 12.75 12.1 12.85 12.15 Q16.75 15.5 20.9 17.25 25.0 18.95 28.9 19.5 L36.1 19.85 41.5 19.1 44.3 18.25 45.8 18.1 47.15 18.6 48.35 19.05 Q49.0 19.25 49.7 19.05 L50.3 18.65 50.3 18.55 49.95 17.6 49.25 16.7 48.7 16.15 49.45 16.0 50.3 15.8 52.15 15.15 54.4 14.05 Q55.55 13.35 56.35 12.4 57.15 11.45 57.25 10.25 L57.25 10.0 Q57.25 9.0 56.65 8.05 55.95 9.55 54.4 10.85 52.15 12.4 49.6 13.05 L44.4 13.4 Q41.85 13.1 39.7 11.95 L40.6 12.75 41.9 13.8 43.0 14.65 43.1 14.75 Q38.9 15.9 34.65 15.8 30.25 15.7 26.15 14.45 22.05 13.15 18.55 10.8 15.0 8.4 12.4 5.0 L12.55 5.8 12.65 6.5 12.55 6.95 12.25 7.1 8.3 7.75 4.4 7.25 0.45 6.2 0.0 6.1 -1.0 5.8 -2.05 5.55 -2.5 5.4 -3.25 5.25 -5.1 4.8 -7.55 4.25 -9.95 3.65 -11.85 3.2 -12.6 3.05 -24.2 0.3 -35.65 -1.9 -47.15 -3.25" fill="#ccb244" fill-rule="evenodd" stroke="none"/>
      <path d="M24.6 -7.4 L23.9 -7.15 Q23.2 -6.9 22.2 -6.25 L20.25 -4.65 Q19.35 -3.65 18.85 -2.15 18.3 -0.65 18.6 1.35 18.85 3.35 20.25 6.0 21.7 8.6 24.6 11.9 L24.05 11.25 22.7 9.45 21.15 6.7 Q20.35 5.15 19.85 3.3 19.35 1.5 19.4 -0.45 19.45 -1.6 20.0 -2.65 20.5 -3.7 21.3 -4.55 L22.8 -6.05 24.1 -7.05 24.6 -7.4" fill="#000000" fill-rule="evenodd" stroke="none"/>
      <path d="M33.25 -14.25 Q32.85 -13.4 32.8 -12.55 L32.9 -11.1 33.0 -10.45 33.35 -10.1 34.1 -9.5 34.9 -9.15 Q35.25 -9.1 35.25 -9.6 35.3 -10.15 35.7 -10.8 L36.65 -12.1 37.6 -13.15 38.05 -13.55 37.15 -14.7 36.05 -15.25 35.1 -15.5 34.7 -15.5 Q33.65 -15.05 33.25 -14.25" fill="#000000" fill-rule="evenodd" stroke="none"/>
      <path d="M32.85 -1.25 Q33.35 0.45 34.25 1.7 35.15 2.95 36.25 3.5 L38.4 3.8 Q39.45 3.5 40.05 2.45 40.65 1.4 40.75 -0.1 40.9 -1.65 40.4 -3.35 39.95 -5.05 39.05 -6.3 38.15 -7.55 37.05 -8.1 36.0 -8.65 34.95 -8.4 33.9 -8.1 33.25 -7.05 32.65 -6.0 32.5 -4.45 32.4 -2.95 32.85 -1.25" fill="#ffffff" fill-rule="evenodd" stroke="none"/>
      <path d="M32.85 -1.25 Q33.35 0.45 34.25 1.7 35.15 2.95 36.25 3.5 L38.4 3.8 Q39.45 3.5 40.05 2.45 40.65 1.4 40.75 -0.1 40.9 -1.65 40.4 -3.35 39.95 -5.05 39.05 -6.3 38.15 -7.55 37.05 -8.1 36.0 -8.65 34.95 -8.4 33.9 -8.1 33.25 -7.05 32.65 -6.0 32.5 -4.45 32.4 -2.95 32.85 -1.25" fill="none" stroke="#000000" stroke-linecap="round" stroke-linejoin="round" stroke-width="1.0"/>
      <path d="M37.45 -5.85 Q36.65 -5.6 36.15 -4.8 35.7 -3.95 35.6 -2.8 35.5 -1.65 35.9 -0.3 36.25 1.1 37.05 2.1 37.8 3.05 38.75 3.45 39.55 3.05 40.05 2.0 40.55 1.0 40.6 -0.35 L40.25 -3.3 39.35 -5.45 Q38.4 -6.05 37.45 -5.85" fill="#000000" fill-rule="evenodd" stroke="none"/>
      <path d="M37.7 -4.15 Q36.9 -3.9 36.6 -2.9 36.35 -1.9 36.7 -0.6 36.95 0.3 37.45 0.9 37.9 1.55 38.5 1.8 39.3 1.35 39.6 0.15 39.85 -1.05 39.45 -2.55 L38.9 -3.9 37.7 -4.15" fill="#635311" fill-rule="evenodd" stroke="none"/>
      <path d="M36.45 -3.15 Q36.65 -2.5 37.0 -2.2 37.4 -1.85 37.8 -1.95 38.15 -2.05 38.3 -2.55 L38.3 -3.65 37.7 -4.6 36.95 -4.85 36.45 -4.25 Q36.3 -3.75 36.45 -3.15" fill="#ffffff" fill-rule="evenodd" stroke="none"/>
      <path d="M34.7 5.85 L32.9 6.35 32.1 6.55 34.95 6.4 Q36.25 6.0 37.25 5.3 L39.0 3.85 40.05 2.55 40.45 1.95 40.1 1.75 39.65 2.3 38.5 3.6 36.65 5.0 34.7 5.85" fill="#000000" fill-rule="evenodd" stroke="none"/>
      <path d="M49.55 16.4 L48.55 16.45 46.0 16.05 Q44.35 15.65 42.3 14.35 40.3 13.1 38.05 10.5" fill="none" stroke="#000000" stroke-linecap="round" stroke-linejoin="round" stroke-width="1.0"/>
      <path d="M10.75 0.5 L10.9 0.7 Q11.05 0.9 11.7 1.0 L13.7 1.0 17.45 0.25 17.85 -1.95 17.15 -2.45 15.45 -3.4 13.4 -4.25 Q12.35 -4.55 11.6 -4.25 10.9 -3.9 10.6 -3.15 L10.45 -1.55 10.6 -0.1 10.75 0.5" fill="#167fa3" fill-rule="evenodd" stroke="none"/>
      <path d="M10.75 0.5 L10.9 0.7 Q11.05 0.9 11.7 1.0 L13.7 1.0 17.45 0.25 17.85 -1.95 17.15 -2.45 15.45 -3.4 13.4 -4.25 Q12.35 -4.55 11.6 -4.25 10.9 -3.9 10.6 -3.15 L10.45 -1.55 10.6 -0.1 10.75 0.5" fill="none" stroke="#000000" stroke-linecap="round" stroke-linejoin="round" stroke-width="1.0"/>
      <path d="M11.7 -4.05 Q11.05 -3.7 10.85 -3.0 10.6 -2.3 10.65 -1.5 L10.85 -0.1 10.95 0.5 11.15 0.65 12.1 0.85 Q11.4 0.0 11.25 -0.9 11.1 -1.75 11.85 -2.35 12.6 -3.05 13.55 -3.05 L15.55 -2.65 17.6 -1.65 17.65 -1.8 16.7 -2.45 15.1 -3.35 13.25 -4.05 Q12.35 -4.3 11.7 -4.05" fill="#40a9c6" fill-rule="evenodd" stroke="none"/>
      <path d="M37.45 8.85 L35.95 9.25 Q35.6 9.55 35.7 9.9 L36.05 10.55 36.35 10.8 Q36.1 10.1 36.4 9.7 36.65 9.25 37.05 9.05 L37.45 8.85" fill="#000000" fill-rule="evenodd" stroke="none"/>
      <path d="M-54.0 -9.65 L-57.6 -10.55 -56.9 -10.15 -55.4 -9.05 -53.55 -7.4 Q-52.65 -6.5 -52.05 -5.4 -51.45 -4.3 -51.5 -3.2 -51.6 -2.05 -52.25 -1.05 -52.85 0.0 -53.8 0.8 L-55.65 2.25 -57.2 3.2 -57.8 3.55 Q-55.3 2.75 -52.9 1.75 -50.9 0.95 -49.05 -0.1 L-47.95 -0.85 -46.8 -1.5 Q-46.2 -1.75 -45.5 -1.5 L-46.55 -3.4 -45.25 -5.05 Q-45.85 -4.85 -46.3 -5.05 L-47.1 -5.65 -47.85 -6.4 -50.6 -8.2 -54.0 -9.65" fill="#167fa3" fill-rule="evenodd" stroke="none"/>
      <path d="M-54.0 -9.65 L-50.6 -8.2 -47.85 -6.4 -47.1 -5.65 -46.3 -5.05 Q-45.85 -4.85 -45.25 -5.05 L-46.55 -3.4 -45.5 -1.5 Q-46.2 -1.75 -46.8 -1.5 L-47.95 -0.85 -49.05 -0.1 Q-50.9 0.95 -52.9 1.75 -55.3 2.75 -57.8 3.55 L-57.2 3.2 -55.65 2.25 -53.8 0.8 Q-52.85 0.0 -52.25 -1.05 -51.6 -2.05 -51.5 -3.2 -51.45 -4.3 -52.05 -5.4 -52.65 -6.5 -53.55 -7.4 L-55.4 -9.05 -56.9 -10.15 -57.6 -10.55 -54.0 -9.65" fill="none" stroke="#000000" stroke-linecap="round" stroke-linejoin="round" stroke-width="2.0"/>
      <path d="M16.45 13.55 L16.0 16.5 15.2 18.8 14.8 19.75 18.55 19.5 Q20.1 19.1 21.0 18.3 L22.4 16.7 23.05 15.3 23.2 14.7 23.2 14.4 22.8 13.7 Q22.45 13.3 21.45 13.0 L19.3 12.7 17.35 12.95 Q16.55 13.15 16.45 13.55" fill="#167fa3" fill-rule="evenodd" stroke="none"/>
      <path d="M16.45 13.55 L16.0 16.5 15.2 18.8 14.8 19.75 18.55 19.5 Q20.1 19.1 21.0 18.3 L22.4 16.7 23.05 15.3 23.2 14.7 23.2 14.4 22.8 13.7 Q22.45 13.3 21.45 13.0 L19.3 12.7 17.35 12.95 Q16.55 13.15 16.45 13.55" fill="none" stroke="#000000" stroke-linecap="round" stroke-linejoin="round" stroke-width="1.0"/>
      <path d="M16.7 13.65 L16.3 16.15 15.65 18.3 15.1 19.6 18.6 19.35 Q20.05 18.95 20.9 18.2 L22.2 16.7 22.8 15.35 23.0 14.7 22.95 14.45 22.6 13.85 Q22.3 13.55 21.45 13.3 L19.65 13.0 17.95 13.05 Q17.2 13.2 16.85 13.45 L16.7 13.65" fill="#167fa3" fill-rule="evenodd" stroke="none"/>
      <path d="M16.7 13.65 L16.85 13.45 Q17.2 13.2 17.95 13.05 L19.65 13.0 21.45 13.3 Q22.3 13.55 22.6 13.85 L22.95 14.45 23.0 14.7 22.8 15.35 22.2 16.7 20.9 18.2 Q20.05 18.95 18.6 19.35 L15.1 19.6 15.65 18.3 16.3 16.15 16.7 13.65" fill="none" stroke="#000000" stroke-linecap="round" stroke-linejoin="round" stroke-width="1.0"/>
      <path d="M21.6 13.55 Q21.3 15.15 20.6 16.6 19.9 18.05 18.7 19.1 20.0 18.65 20.85 18.0 L22.05 16.55 22.65 15.3 22.8 14.65 22.8 14.6 22.6 14.15 Q22.4 13.85 21.6 13.55" fill="#0f6e87" fill-rule="evenodd" stroke="none"/>
    </g>
  </defs>
</svg>
