<?xml version="1.0" encoding="UTF-8" standalone="no"?>
<svg xmlns:xlink="http://www.w3.org/1999/xlink" height="172.85px" width="66.6px" xmlns="http://www.w3.org/2000/svg">
  <g transform="matrix(1, 0, 0, 1, 7.35, 17.45)">
    <use height="156.5" transform="matrix(0.6361, 0.0, 0.0, 0.6356, 12.0081, 55.9089)" width="16.4" xlink:href="#sprite0"/>
    <use height="78.3" transform="matrix(1.0, 0.0, 0.0, 1.0, -7.35, -17.45)" width="66.6" xlink:href="#shape1"/>
  </g>
  <defs>
    <g id="sprite0" transform="matrix(1, 0, 0, 1, 13.9, 35.7)">
      <use height="156.5" transform="matrix(1.0, 0.0, 0.0, 1.0, -13.9, -35.7)" width="16.4" xlink:href="#shape0"/>
    </g>
    <g id="shape0" transform="matrix(1, 0, 0, 1, 13.9, 35.7)">
      <path d="M0.2 -35.35 Q4.65 -2.75 -1.0 29.6 L-9.6 74.75 Q-13.9 97.35 -13.5 120.45" fill="none" stroke="#003b9f" stroke-linecap="round" stroke-linejoin="round" stroke-width="0.75"/>
    </g>
    <g id="shape1" transform="matrix(1, 0, 0, 1, 7.35, 17.45)">
      <path d="M21.55 49.9 L23.05 47.95 Q26.45 51.35 24.95 52.6 23.5 53.75 21.55 52.8 20.3 51.65 21.55 49.9" fill="#b256b0" fill-rule="evenodd" stroke="none"/>
      <path d="M21.55 52.75 Q20.35 51.6 21.55 49.85 L23.05 47.95 23.35 48.3 Q21.4 50.15 21.55 52.75" fill="#7c3e7c" fill-rule="evenodd" stroke="none"/>
      <path d="M24.0 49.1 Q23.2 49.65 21.8 48.6 L24.8 48.35 24.0 49.1" fill="#082344" fill-rule="evenodd" stroke="none"/>
      <path d="M23.5 52.45 L22.7 52.25 22.7 52.0 21.35 51.75 23.05 51.5 Q24.5 51.3 24.5 51.9 24.25 52.6 23.5 52.45" fill="#7c3e7c" fill-rule="evenodd" stroke="none"/>
      <path d="M49.4 -14.45 Q53.65 -16.75 59.25 -17.45 54.75 -16.05 49.65 -11.4 44.55 -6.8 41.15 -0.95 37.75 4.9 38.35 10.05 41.75 9.85 47.0 11.1 52.2 12.3 54.1 14.6 L47.7 14.9 Q44.65 15.15 43.8 18.05 43.65 18.75 43.65 19.7 43.85 23.9 46.4 28.35 L51.15 37.25 Q53.3 41.75 52.4 45.9 49.45 43.35 46.85 40.35 44.2 37.35 40.85 35.4 39.75 40.25 41.05 45.25 42.3 52.95 42.1 60.85 41.9 58.7 39.25 55.05 36.65 51.45 34.2 49.9 31.7 48.7 28.85 48.8 L23.25 48.55 Q20.6 47.8 18.2 46.5 15.7 45.15 13.0 44.8 9.3 44.65 6.0 46.35 2.65 48.1 0.1 50.65 0.55 47.0 1.3 43.6 2.05 40.15 1.85 36.3 1.3 31.5 -1.25 28.7 -3.8 25.85 -7.35 23.0 -3.95 23.35 -3.15 19.9 -2.3 16.4 -2.35 13.7 -1.95 8.25 -2.8 2.95 -3.4 0.75 -4.55 -1.25 -5.75 -3.25 -6.15 -5.45 -4.05 -1.9 -0.5 1.65 L6.2 8.0 Q8.4 10.1 10.25 10.8 L15.05 11.65 Q15.3 8.05 13.55 4.9 11.65 -1.9 10.9 -8.9 11.75 -6.5 15.3 -1.55 18.9 3.4 21.6 3.7 23.3 3.25 25.05 0.45 26.85 -2.3 27.5 -4.3 27.95 -1.35 29.3 1.35 30.75 1.25 31.3 0.4 L32.6 -1.6 Q35.9 -5.95 40.55 -9.0 45.1 -12.15 49.4 -14.45" fill="#b256b0" fill-rule="evenodd" stroke="none"/>
      <path d="M0.8 7.6 Q0.35 5.85 -0.6 4.2 -1.5 2.5 -1.85 0.75 -0.15 3.65 2.65 6.5 L8.05 11.7 Q10.55 14.1 13.1 14.45 L14.55 18.6 10.6 17.9 7.85 18.05 Q6.5 24.5 8.95 27.4 11.4 30.35 18.5 28.75 17.1 30.75 17.35 32.75 24.35 32.15 29.7 28.2 28.05 30.95 24.9 32.5 21.8 34.1 21.85 37.25 22.45 38.45 24.75 39.15 27.1 39.85 28.55 40.65 33.8 43.75 36.85 49.15 L36.9 54.55 Q36.75 52.8 34.65 49.85 32.55 46.9 30.6 45.65 28.55 44.7 26.25 44.8 L21.75 44.55 Q19.65 43.95 17.7 42.9 15.7 41.8 13.5 41.55 7.45 41.75 3.2 46.25 3.5 43.3 4.15 40.55 4.75 37.75 4.55 34.6 4.15 30.75 2.05 28.45 0.0 26.15 -2.8 23.85 -0.1 24.15 0.55 21.3 1.25 18.5 1.2 16.3 1.5 11.9 0.8 7.6" fill="#7c3e7c" fill-rule="evenodd" stroke="none"/>
    </g>
  </defs>
</svg>
