<?xml version="1.0" encoding="UTF-8" standalone="no"?>
<svg xmlns:xlink="http://www.w3.org/1999/xlink" height="43.2px" width="126.2px" xmlns="http://www.w3.org/2000/svg">
  <g transform="matrix(1, 0, 0, 1, 64.35, 22.35)">
    <use height="33.45" transform="matrix(0.2442, 0.0, 0.0, 0.2442, -53.8927, -7.8509)" width="33.4" xlink:href="#sprite0"/>
    <use height="41.1" transform="matrix(1.0, 0.0, 0.0, 1.0, -62.4, -22.35)" width="116.9" xlink:href="#shape1"/>
  </g>
  <defs>
    <g id="sprite0" transform="matrix(1, 0, 0, 1, 16.35, 23.55)">
      <use height="25.4" transform="matrix(0.8077, 0.0, 0.0, 0.8077, -9.9866, -10.6327)" width="25.4" xlink:href="#shape0"/>
    </g>
    <g id="shape0" transform="matrix(1, 0, 0, 1, 12.55, 13.35)">
      <path d="M8.9 -9.4 Q12.5 -5.8 12.5 -0.65 12.5 4.45 8.9 8.1 5.25 11.7 0.15 11.7 -5.0 11.7 -8.6 8.1 -12.2 4.45 -12.2 -0.65 -12.2 -5.8 -8.6 -9.4 -5.0 -13.0 0.15 -13.0 5.25 -13.0 8.9 -9.4" fill="#ccffff" fill-opacity="0.49019608" fill-rule="evenodd" stroke="none"/>
      <path d="M8.9 -9.4 Q12.5 -5.8 12.5 -0.65 12.5 4.45 8.9 8.1 5.25 11.7 0.15 11.7 -5.0 11.7 -8.6 8.1 -12.2 4.45 -12.2 -0.65 -12.2 -5.8 -8.6 -9.4 -5.0 -13.0 0.15 -13.0 5.25 -13.0 8.9 -9.4" fill="none" stroke="#00ccff" stroke-linecap="round" stroke-linejoin="round" stroke-opacity="0.49019608" stroke-width="0.75"/>
      <path d="M8.05 -7.55 Q10.05 -4.8 10.05 -0.8 10.05 3.15 8.05 5.95 6.1 8.75 3.3 8.8 L2.65 8.75 Q4.25 8.1 5.55 6.25 7.5 3.5 7.5 -0.5 7.5 -4.45 5.55 -7.25 3.8 -9.7 1.4 -9.95 L3.3 -10.35 Q6.1 -10.35 8.05 -7.55" fill="#ffffff" fill-opacity="0.49019608" fill-rule="evenodd" stroke="none"/>
      <path d="M-7.6 -6.4 Q-7.6 -7.35 -6.95 -8.0 -6.3 -8.65 -5.35 -8.65 -4.4 -8.65 -3.75 -8.0 -3.1 -7.35 -3.1 -6.4 -3.1 -5.45 -3.75 -4.8 -4.4 -4.15 -5.35 -4.15 -6.3 -4.15 -6.95 -4.8 -7.6 -5.45 -7.6 -6.4" fill="#ffffff" fill-opacity="0.49019608" fill-rule="evenodd" stroke="none"/>
    </g>
    <g id="shape1" transform="matrix(1, 0, 0, 1, 62.4, 22.35)">
      <path d="M38.7 -3.2 L41.0 -2.15 43.55 -0.85 45.75 0.75 Q46.7 1.55 47.1 2.4 47.5 3.25 47.1 4.05 46.9 4.4 45.5 4.95 L41.85 6.15 36.85 7.5 31.2 8.95 25.65 10.25 20.8 11.4 17.5 12.15 6.3 14.6 -5.1 16.45 -16.6 17.35 -28.1 16.85 -32.7 16.05 -35.6 15.05 -37.15 14.05 -37.8 13.25 Q-38.2 12.55 -38.85 12.2 -39.5 11.9 -40.25 11.7 L-41.6 11.15 -42.1 10.7 -42.6 10.3 -42.85 10.2 -43.35 10.0 -43.6 9.9 -49.75 10.6 -54.75 10.3 -58.1 9.65 -59.3 9.25 -60.95 8.1 Q-61.45 7.45 -61.4 6.9 L-61.2 6.05 -60.95 5.7 Q-56.1 5.2 -52.4 4.3 L-46.3 2.25 Q-43.95 1.2 -43.0 0.4 -42.05 -0.3 -41.15 -2.1 L-39.15 -6.5 -36.8 -12.65 Q-35.75 -15.25 -34.3 -16.75 -32.85 -18.3 -31.4 -19.05 -30.0 -19.8 -29.05 -20.0 L-28.1 -20.25 -12.05 -19.3 Q-4.05 -18.15 3.75 -16.1 11.55 -14.0 19.1 -11.3 28.25 -8.0 37.1 -3.9 L38.7 -3.2" fill="#497028" fill-rule="evenodd" stroke="none"/>
      <path d="M38.7 -3.2 L37.1 -3.9 Q28.25 -8.0 19.1 -11.3 11.55 -14.0 3.75 -16.1 -4.05 -18.15 -12.05 -19.3 L-28.1 -20.25 -29.05 -20.0 Q-30.0 -19.8 -31.4 -19.05 -32.85 -18.3 -34.3 -16.75 -35.75 -15.25 -36.8 -12.65 L-39.15 -6.5 -41.15 -2.1 Q-42.05 -0.3 -43.0 0.4 -43.95 1.2 -46.3 2.25 L-52.4 4.3 Q-56.1 5.2 -60.95 5.7 L-61.2 6.05 -61.4 6.9 Q-61.45 7.45 -60.95 8.1 L-59.3 9.25 -58.1 9.65 -54.75 10.3 -49.75 10.6 -43.6 9.9 -43.35 10.0 -42.85 10.2 -42.6 10.3 -42.1 10.7 -41.6 11.15 -40.25 11.7 Q-39.5 11.9 -38.85 12.2 -38.2 12.55 -37.8 13.25 L-37.15 14.05 -35.6 15.05 -32.7 16.05 -28.1 16.85 -16.6 17.35 -5.1 16.45 6.3 14.6 17.5 12.15 20.8 11.4 25.65 10.25 31.2 8.95 36.85 7.5 41.85 6.15 45.5 4.95 Q46.9 4.4 47.1 4.05 47.5 3.25 47.1 2.4 46.7 1.55 45.75 0.75 L43.55 -0.85 41.0 -2.15 38.7 -3.2" fill="none" stroke="#000000" stroke-linecap="round" stroke-linejoin="round" stroke-width="2.0"/>
      <path d="M42.4 -0.5 L30.95 -4.35 18.7 -8.2 6.35 -11.7 -5.65 -14.6 -16.65 -16.55 -26.05 -17.3 Q-28.3 -17.25 -30.0 -16.5 -31.65 -15.8 -33.15 -14.7 L-36.45 -12.45 -36.45 -12.5 Q-35.45 -14.95 -34.1 -16.4 L-31.45 -18.6 -29.15 -19.55 -28.1 -19.8 Q-17.65 -20.05 -6.0 -17.85 5.7 -15.6 18.95 -10.9 L27.9 -7.45 36.85 -3.55 37.9 -3.05 40.2 -2.05 42.85 -0.7 Q44.2 0.05 45.25 0.9 46.3 1.7 46.7 2.6 46.95 3.2 46.8 3.7 46.25 2.25 45.05 1.2 43.85 0.15 42.4 -0.5" fill="#638c3b" fill-rule="evenodd" stroke="none"/>
      <path d="M43.3 5.4 L41.85 5.9 37.0 7.25 31.6 8.65 26.4 9.9 22.1 10.9 17.4 11.95 6.6 14.3 -4.75 16.2 -16.4 17.15 -28.15 16.65 -32.85 15.8 -35.7 14.8 -37.2 13.85 -37.7 13.2 Q-38.1 12.4 -38.75 12.1 -39.35 11.75 -40.1 11.55 L-41.5 11.0 -42.5 10.2 -42.55 10.15 -43.65 9.7 -43.7 9.7 -49.75 10.4 -54.7 10.1 -58.05 9.45 -59.3 9.1 -60.3 8.55 -61.05 7.7 Q-61.3 7.25 -61.05 6.65 -60.8 6.0 -60.1 5.8 L-59.75 5.85 -59.25 6.0 -59.1 6.05 Q-59.8 6.45 -59.75 6.8 L-59.15 7.5 -57.85 8.1 -56.55 8.55 -55.75 8.75 -53.35 8.95 -50.65 9.05 -48.35 8.75 -45.1 7.7 -42.55 6.85 -40.15 6.65 Q-39.0 6.8 -37.7 7.7 L-36.65 8.6 -35.95 9.5 -35.15 10.45 -32.7 12.0 -29.8 13.0 -26.9 13.4 Q-19.5 13.8 -13.05 13.6 L-0.85 12.8 10.4 11.3 21.1 9.35 32.05 7.25 43.3 5.4" fill="#3c5b1d" fill-rule="evenodd" stroke="none"/>
      <path d="M-21.7 -6.15 Q-21.05 -4.4 -20.85 -2.75 -20.65 -0.7 -21.55 1.3 -22.5 3.3 -24.2 5.0 -25.9 6.65 -28.0 7.8 -30.05 8.9 -32.15 9.15 -34.25 9.45 -35.95 8.6 -37.7 7.7 -38.65 5.45 -39.3 3.85 -39.35 1.8 -39.5 -0.3 -39.05 -2.5 -38.65 -4.75 -37.85 -6.85 -37.0 -8.95 -35.8 -10.6 -34.6 -12.25 -33.1 -13.2 L-31.85 -13.8 -28.6 -13.95 Q-27.05 -13.55 -25.7 -12.35 L-23.35 -9.55 Q-22.35 -7.9 -21.7 -6.15" fill="#ffffff" fill-rule="evenodd" stroke="none"/>
      <path d="M-21.7 -6.15 Q-22.35 -7.9 -23.35 -9.55 L-25.7 -12.35 Q-27.05 -13.55 -28.6 -13.95 L-31.85 -13.8 -33.1 -13.2 Q-34.6 -12.25 -35.8 -10.6 -37.0 -8.95 -37.85 -6.85 -38.65 -4.75 -39.05 -2.5 -39.5 -0.3 -39.35 1.8 -39.3 3.85 -38.65 5.45 -37.7 7.7 -35.95 8.6 -34.25 9.45 -32.15 9.15 -30.05 8.9 -28.0 7.8 -25.9 6.65 -24.2 5.0 -22.5 3.3 -21.55 1.3 -20.65 -0.7 -20.85 -2.75 -21.05 -4.4 -21.7 -6.15" fill="none" stroke="#000000" stroke-linecap="round" stroke-linejoin="round" stroke-width="1.0"/>
      <path d="M-21.05 -2.7 Q-20.9 -0.9 -21.65 0.9 -22.4 2.7 -23.85 4.3 -25.25 5.85 -27.1 7.0 -28.9 8.15 -30.8 8.7 L-35.5 8.55 Q-37.5 7.7 -38.45 5.4 L-38.7 4.75 -34.65 5.3 -30.15 4.55 Q-27.95 3.9 -26.2 2.4 -24.5 0.95 -23.3 -1.05 -22.15 -3.1 -21.65 -5.35 L-21.05 -2.7" fill="#e1e8da" fill-rule="evenodd" stroke="none"/>
      <path d="M-30.35 -6.95 Q-29.55 -5.4 -29.15 -3.6 -28.8 -1.75 -28.85 0.0 -28.9 1.8 -29.3 3.3 -29.85 5.4 -30.95 6.9 -32.05 8.35 -33.6 9.2 -34.95 9.05 -35.9 8.5 L-37.5 7.2 -38.35 6.0 -38.65 5.5 Q-39.2 4.0 -39.3 2.15 L-39.05 -1.75 -38.2 -5.6 -36.85 -8.8 -35.3 -10.8 Q-33.65 -10.55 -32.4 -9.5 -31.15 -8.5 -30.35 -6.95" fill="#000000" fill-rule="evenodd" stroke="none"/>
      <path d="M-44.3 10.15 L-43.65 10.0 -42.0 9.85 -39.75 9.95 -37.25 10.55" fill="none" stroke="#000000" stroke-linecap="round" stroke-linejoin="round" stroke-width="1.0"/>
      <path d="M-20.5 15.2 L-19.65 16.45 -18.8 17.25 -18.55 17.6 -18.6 17.7 -21.05 17.6 -22.85 17.05 -24.0 16.35 -24.6 15.7 -24.8 15.45 -20.5 15.2" fill="#3c5b1d" fill-rule="evenodd" stroke="none"/>
      <path d="M-24.8 15.45 L-24.6 15.7 -24.0 16.35 -22.85 17.05 -21.05 17.6 -18.6 17.7 -18.55 17.6 -18.8 17.25 -19.65 16.45 -20.5 15.2" fill="none" stroke="#000000" stroke-linecap="round" stroke-linejoin="round" stroke-width="2.0"/>
      <path d="M-28.3 -22.35 L-27.7 -22.3 Q-26.8 -21.75 -26.65 -20.9 -26.5 -20.0 -26.75 -19.15 L-27.35 -17.65 -27.7 -17.05 Q-28.65 -17.8 -29.7 -17.95 L-31.65 -17.85 -33.1 -17.35 -33.7 -17.05 -33.85 -17.5 -34.2 -18.45 -34.75 -19.6 Q-35.0 -20.1 -34.85 -20.3 L-34.4 -20.6 -34.1 -20.65 Q-33.0 -21.4 -31.9 -21.8 L-29.85 -22.25 -28.3 -22.35" fill="#000000" fill-rule="evenodd" stroke="none"/>
      <path d="M-15.3 -0.85 Q-15.45 0.1 -16.15 1.25 -17.4 3.1 -18.55 4.1 L-20.35 5.5 -21.1 5.85 -20.55 5.2 -19.35 3.5 -18.0 1.05 Q-17.35 -0.3 -17.15 -1.8 -16.9 -3.25 -17.4 -4.65 L-17.0 -4.4 -16.25 -3.65 -15.5 -2.45 Q-15.2 -1.75 -15.3 -0.85" fill="#3c5b1d" fill-rule="evenodd" stroke="none"/>
      <path d="M-41.65 -0.4 L-41.8 0.05 -42.55 1.3 Q-43.2 2.15 -44.8 3.2 -46.2 4.1 -48.15 4.65 L-52.15 5.5 -56.0 5.95 -58.9 6.05 -60.05 6.1 -51.9 4.5 Q-48.6 3.65 -46.55 2.8 -44.5 1.95 -43.45 1.2 L-42.0 0.05 -41.65 -0.4" fill="#638c3b" fill-rule="evenodd" stroke="none"/>
      <path d="M-32.1 -0.1 Q-32.1 1.25 -32.45 2.4 -32.85 3.5 -33.5 4.15 -34.1 4.8 -34.9 4.8 -35.7 4.8 -36.35 4.15 L-37.35 2.4 Q-37.75 1.25 -37.75 -0.1 -37.75 -1.5 -37.35 -2.6 L-36.35 -4.4 Q-35.7 -5.05 -34.9 -5.05 -34.1 -5.05 -33.5 -4.4 -32.85 -3.75 -32.45 -2.6 -32.1 -1.5 -32.1 -0.1" fill="#1e3502" fill-rule="evenodd" stroke="none"/>
      <path d="M-31.6 -5.2 Q-31.65 -4.15 -32.05 -3.45 -32.4 -2.8 -33.0 -2.75 -33.6 -2.8 -34.0 -3.45 -34.4 -4.15 -34.4 -5.2 -34.4 -6.2 -34.0 -6.9 -33.6 -7.6 -33.0 -7.6 -32.4 -7.6 -32.05 -6.9 -31.65 -6.2 -31.6 -5.2" fill="#ffffff" fill-rule="evenodd" stroke="none"/>
      <path d="M42.5 -0.55 L44.85 -4.4 47.65 -8.35 Q49.1 -10.15 50.6 -11.1 52.1 -12.1 53.5 -11.6 53.55 -9.75 53.15 -8.25 52.7 -6.7 52.05 -5.4 L50.7 -2.95 49.2 0.2 48.4 2.25 48.2 3.0 48.65 3.9 49.7 6.15 51.0 9.05 52.1 12.0 52.7 14.3 Q52.8 15.45 52.15 15.95 L50.15 15.75 Q48.85 15.1 47.05 12.85 45.3 10.6 43.15 6.3 L42.5 -0.55" fill="#497028" fill-rule="evenodd" stroke="none"/>
      <path d="M42.5 -0.55 L44.85 -4.4 47.65 -8.35 Q49.1 -10.15 50.6 -11.1 52.1 -12.1 53.5 -11.6 53.55 -9.75 53.15 -8.25 52.7 -6.7 52.05 -5.4 L50.7 -2.95 49.2 0.2 48.4 2.25 48.2 3.0 48.65 3.9 49.7 6.15 51.0 9.05 52.1 12.0 52.7 14.3 Q52.8 15.45 52.15 15.95 L50.15 15.75 Q48.85 15.1 47.05 12.85 45.3 10.6 43.15 6.3" fill="none" stroke="#000000" stroke-linecap="round" stroke-linejoin="round" stroke-width="2.0"/>
      <path d="M49.6 11.9 Q49.9 12.45 50.35 12.55 L51.25 12.5 52.1 11.8 52.7 14.25 Q52.8 15.45 52.15 15.9 L50.2 15.75 Q48.9 15.05 47.1 12.8 45.3 10.55 43.15 6.25 L42.95 4.1 Q43.9 4.0 44.75 4.8 L46.4 6.9 48.0 9.55 49.6 11.9" fill="#3c5b1d" fill-rule="evenodd" stroke="none"/>
    </g>
  </defs>
</svg>
