<?xml version="1.0" encoding="UTF-8" standalone="no"?>
<svg xmlns:xlink="http://www.w3.org/1999/xlink" height="18.2px" width="18.05px" xmlns="http://www.w3.org/2000/svg">
  <g transform="matrix(1, 0, 0, 1, 9.0, 9.1)">
    <use height="18.2" transform="matrix(1.0, 0.0, 0.0, 1.0, -9.0, -9.1)" width="18.05" xlink:href="#shape0"/>
  </g>
  <defs>
    <g id="shape0" transform="matrix(1, 0, 0, 1, 9.0, 9.1)">
      <path d="M4.15 -4.1 Q2.45 -5.75 0.0 -5.75 -2.45 -5.75 -4.2 -4.1 -5.9 -2.4 -5.9 0.0 -5.9 2.4 -4.2 4.1 -2.45 5.8 0.0 5.8 2.45 5.8 4.15 4.1 5.9 2.4 5.9 0.0 5.9 -2.4 4.15 -4.1 5.9 -2.4 5.9 0.0 5.9 2.4 4.15 4.1 2.45 5.8 0.0 5.8 -2.45 5.8 -4.2 4.1 -5.9 2.4 -5.9 0.0 -5.9 -2.4 -4.2 -4.1 -2.45 -5.75 0.0 -5.75 2.45 -5.75 4.15 -4.1 M6.05 -6.1 Q8.55 -3.55 8.55 0.0 8.55 3.55 6.05 6.1 3.6 8.6 0.05 8.6 -3.5 8.6 -6.0 6.1 -8.5 3.55 -8.5 0.0 -8.5 -3.55 -6.0 -6.1 -3.5 -8.6 0.05 -8.6 3.6 -8.6 6.05 -6.1 M3.55 -0.15 L3.25 -1.95 Q2.45 -3.4 -0.2 -3.4 L-1.35 -3.25 Q-2.3 -3.1 -2.75 -2.4 L-3.15 -1.9 -3.55 -1.0 -3.55 -0.95 -3.45 0.85 -3.1 1.8 Q-2.55 2.75 -1.5 3.0 L-0.25 3.25 Q3.55 3.25 3.55 -0.15" fill="#ffffff" fill-rule="evenodd" stroke="none"/>
      <path d="M3.55 -0.15 Q3.55 3.25 -0.25 3.25 L-1.5 3.0 Q-2.55 2.75 -3.1 1.8 L-3.45 0.85 -3.55 -0.95 -3.55 -1.0 -3.15 -1.9 -2.75 -2.4 Q-2.3 -3.1 -1.35 -3.25 L-0.2 -3.4 Q2.45 -3.4 3.25 -1.95 L3.55 -0.15" fill="#8a3939" fill-rule="evenodd" stroke="none"/>
      <path d="M4.15 -4.1 Q5.9 -2.4 5.9 0.0 5.9 2.4 4.15 4.1 2.45 5.8 0.0 5.8 -2.45 5.8 -4.2 4.1 -5.9 2.4 -5.9 0.0 -5.9 -2.4 -4.2 -4.1 -2.45 -5.75 0.0 -5.75 2.45 -5.75 4.15 -4.1" fill="none" stroke="#793031" stroke-linecap="round" stroke-linejoin="round" stroke-width="2.45"/>
      <path d="M6.05 -6.1 Q8.55 -3.55 8.55 0.0 8.55 3.55 6.05 6.1 3.6 8.6 0.05 8.6 -3.5 8.6 -6.0 6.1 -8.5 3.55 -8.5 0.0 -8.5 -3.55 -6.0 -6.1 -3.5 -8.6 0.05 -8.6 3.6 -8.6 6.05 -6.1" fill="none" stroke="#a94545" stroke-linecap="round" stroke-linejoin="round" stroke-width="1.0"/>
    </g>
  </defs>
</svg>
