<?xml version="1.0" encoding="UTF-8" standalone="no"?>
<svg xmlns:xlink="http://www.w3.org/1999/xlink" height="289.4px" width="263.9px" xmlns="http://www.w3.org/2000/svg">
  <g transform="matrix(1, 0, 0, 1, -0.8, 0.95)">
    <use height="119.85" transform="matrix(1.0, 0.0, 0.0, 1.0, 0.8, -0.95)" width="93.55" xlink:href="#shape0"/>
    <use height="26.3" transform="matrix(1.0, 0.0, 0.0, 1.0, 50.55, 10.55)" width="32.8" xlink:href="#sprite0"/>
    <use height="214.9" transform="matrix(0.9999, -0.0053, 0.0053, 0.9999, 45.5427, 51.632)" width="219.2" xlink:href="#shape2"/>
    <use height="22.25" transform="matrix(0.9999, -0.0053, 0.0053, 0.9999, 217.5459, 265.3541)" width="22.35" xlink:href="#shape3"/>
    <use height="24.8" transform="matrix(1.0, 0.0, 0.0, 1.0, 18.75, 38.1)" width="39.9" xlink:href="#shape4"/>
  </g>
  <defs>
    <g id="shape0" transform="matrix(1, 0, 0, 1, -0.8, 0.95)">
      <path d="M93.25 56.9 Q93.6 58.15 92.5 60.05 89.9 64.15 86.85 66.5 83.75 68.85 80.8 69.9 77.8 70.95 75.5 71.2 L72.2 71.3 Q70.3 71.05 70.1 68.65 69.9 66.15 71.25 61.45 71.9 59.15 72.75 57.9 73.6 56.7 74.4 56.25 75.2 55.75 75.75 55.75 L76.25 55.75 Q78.2 57.05 80.15 57.3 L84.05 56.95 Q85.95 56.45 87.9 55.45 88.3 55.2 88.75 55.1 90.35 54.6 91.6 55.1 92.85 55.6 93.25 56.9" fill="#666666" fill-rule="evenodd" stroke="none"/>
      <path d="M93.25 56.9 Q92.85 55.6 91.6 55.1 90.35 54.6 88.75 55.1 88.3 55.2 87.9 55.45 85.95 56.45 84.05 56.95 L80.15 57.3 Q78.2 57.05 76.25 55.75 L75.75 55.75 Q75.2 55.75 74.4 56.25 73.6 56.7 72.75 57.9 71.9 59.15 71.25 61.45 69.9 66.15 70.1 68.65 70.3 71.05 72.2 71.3 L75.5 71.2 Q77.8 70.95 80.8 69.9 83.75 68.85 86.85 66.5 89.9 64.15 92.5 60.05 93.6 58.15 93.25 56.9" fill="none" stroke="#000000" stroke-linecap="round" stroke-linejoin="round" stroke-width="2.0"/>
      <path d="M75.1 56.65 L76.05 56.45 Q78.2 57.85 80.35 58.05 L84.45 57.6 Q86.4 57.0 88.2 56.05 L88.95 55.8 90.5 55.6 Q91.2 55.65 91.75 56.05 90.5 57.8 88.9 58.5 87.35 59.25 85.65 59.35 L82.0 59.35 Q79.9 59.2 77.95 59.4 75.9 59.55 74.2 60.7 73.25 61.4 72.5 62.9 71.75 64.4 71.5 66.15 L71.45 67.25 Q71.5 69.3 72.7 70.65 L72.45 70.65 72.3 70.65 Q71.55 70.5 71.2 70.05 70.55 69.05 70.85 66.6 71.1 64.6 71.9 61.65 72.65 59.15 73.5 58.05 74.4 56.95 75.1 56.65" fill="#999999" fill-rule="evenodd" stroke="none"/>
      <path d="M15.5 92.5 Q14.05 93.3 12.0 93.15 L7.95 92.4 4.6 91.25 3.2 90.65 Q1.95 89.9 1.85 89.3 1.75 88.7 2.05 88.35 L2.45 88.0 Q4.25 88.75 6.15 88.55 L9.35 87.8 10.7 87.25 15.5 92.5" fill="#333333" fill-rule="evenodd" stroke="none"/>
      <path d="M10.7 87.25 L9.35 87.8 6.15 88.55 Q4.25 88.75 2.45 88.0 L2.05 88.35 Q1.75 88.7 1.85 89.3 1.95 89.9 3.2 90.65 L4.6 91.25 7.95 92.4 12.0 93.15 Q14.05 93.3 15.5 92.5" fill="none" stroke="#000000" stroke-linecap="round" stroke-linejoin="round" stroke-width="2.0"/>
      <path d="M62.35 0.05 Q66.8 0.2 71.15 2.2 75.45 4.25 78.5 7.6 81.45 10.95 82.95 15.15 84.45 19.3 84.3 23.85 84.15 28.3 82.15 32.65 81.25 34.65 80.7 38.3 80.1 41.9 79.9 46.5 L79.5 55.9 79.45 65.05 79.5 72.6 Q79.5 76.6 78.65 80.65 77.8 84.6 76.0 88.5 L73.1 94.2 Q71.55 97.05 69.65 99.55 67.75 102.0 65.45 103.8 62.45 106.75 59.7 108.2 56.9 109.65 54.2 110.2 L48.65 111.15 Q45.4 111.65 42.1 111.15 L35.8 109.7 Q32.85 108.7 30.55 107.7 L26.95 106.2 Q21.25 103.9 17.0 100.0 12.75 96.05 10.05 91.0 7.35 85.95 6.3 80.2 5.2 74.5 5.95 68.65 6.65 62.75 9.25 57.2 10.9 53.55 13.25 50.55 15.55 47.5 18.35 45.05 L22.95 40.25 28.1 33.5 33.25 26.05 37.65 18.9 40.75 13.2 Q42.8 8.85 46.15 5.9 49.5 2.9 53.7 1.4 57.85 -0.15 62.35 0.05" fill="#666666" fill-rule="evenodd" stroke="none"/>
      <path d="M62.35 0.05 Q57.85 -0.15 53.7 1.4 49.5 2.9 46.15 5.9 42.8 8.85 40.75 13.2 L37.65 18.9 33.25 26.05 28.1 33.5 22.95 40.25 18.35 45.05 Q15.55 47.5 13.25 50.55 10.9 53.55 9.25 57.2 6.65 62.75 5.95 68.65 5.2 74.5 6.3 80.2 7.35 85.95 10.05 91.0 12.75 96.05 17.0 100.0 21.25 103.9 26.95 106.2 L30.55 107.7 Q32.85 108.7 35.8 109.7 L42.1 111.15 Q45.4 111.65 48.65 111.15 L54.2 110.2 Q56.9 109.65 59.7 108.2 62.45 106.75 65.45 103.8 67.75 102.0 69.65 99.55 71.55 97.05 73.1 94.2 L76.0 88.5 Q77.8 84.6 78.65 80.65 79.5 76.6 79.5 72.6 L79.45 65.05 79.5 55.9 79.9 46.5 Q80.1 41.9 80.7 38.3 81.25 34.65 82.15 32.65 84.15 28.3 84.3 23.85 84.45 19.3 82.95 15.15 81.45 10.95 78.5 7.6 75.45 4.25 71.15 2.2 66.8 0.2 62.35 0.05" fill="none" stroke="#000000" stroke-linecap="round" stroke-linejoin="round" stroke-width="2.0"/>
      <path d="M60.7 0.8 Q56.85 2.4 53.85 5.35 50.85 8.25 49.0 12.1 L47.85 14.65 44.95 20.85 41.9 26.45 40.05 29.25 Q38.65 31.25 37.5 33.2 36.35 35.1 35.6 37.1 35.3 37.85 35.15 38.7 34.1 37.5 32.95 37.55 32.05 37.6 31.3 38.2 30.55 38.75 29.9 39.65 L28.6 41.4 28.05 42.25 24.75 46.45 21.6 50.5 Q20.1 52.6 18.9 55.05 15.8 61.8 15.5 68.8 15.15 75.85 17.4 82.35 19.6 88.8 24.05 94.0 28.5 99.2 35.0 102.3 39.85 104.65 45.15 105.9 50.5 107.15 55.7 106.8 60.9 106.4 65.35 103.8 62.15 106.2 58.7 107.55 55.15 108.9 52.15 109.65 L47.2 111.05 43.1 110.5 39.2 109.85 35.45 109.6 35.1 108.6 35.0 108.2 34.6 108.1 Q30.75 107.2 27.2 105.55 21.8 102.95 17.65 99.05 13.5 95.1 10.85 90.15 8.2 85.2 7.15 79.75 6.05 74.25 6.65 68.55 7.3 62.9 9.85 57.45 13.1 50.55 18.8 45.6 L23.35 40.75 28.6 34.05 33.75 26.5 38.25 19.3 41.35 13.5 Q43.15 9.6 46.1 6.85 49.05 4.05 52.8 2.55 56.5 0.95 60.7 0.8" fill="#333333" fill-rule="evenodd" stroke="none"/>
      <path d="M82.7 19.0 Q83.05 23.5 81.6 27.95 80.95 29.9 80.75 34.0 80.0 36.15 79.55 39.55 79.05 42.95 78.85 47.1 78.6 51.15 78.5 55.5 L78.5 63.8 78.5 71.0 78.5 72.1 Q78.55 78.4 76.45 84.35 L75.15 87.5 72.7 91.8 Q68.55 96.4 63.6 99.05 58.6 101.65 53.25 102.25 47.9 102.8 42.7 101.15 37.65 99.45 33.7 96.0 29.75 92.55 27.2 87.55 25.15 83.55 24.3 79.1 23.4 74.6 23.7 69.9 24.0 65.2 25.5 60.65 L25.9 59.5 Q28.05 53.5 31.9 48.7 L35.05 44.1 38.5 37.9 42.0 30.95 45.05 24.15 47.3 18.4 47.85 17.0 48.05 16.3 Q49.05 13.45 50.65 10.95 52.3 8.45 54.65 6.85 57.0 5.3 60.15 5.25 L62.3 5.4 64.7 5.8 Q66.35 6.15 68.0 7.1 69.6 8.0 70.8 9.3 71.95 10.65 72.25 12.25 72.2 11.45 73.3 10.8 74.4 10.1 76.05 10.1 77.7 10.05 79.2 11.1 80.15 11.95 80.85 13.35 L82.0 16.25 82.7 19.0" fill="#cccccc" fill-rule="evenodd" stroke="none"/>
      <path d="M79.2 11.1 Q80.2 11.9 80.9 13.35 L82.0 16.25 82.7 19.0 Q83.05 23.5 81.65 27.95 81.0 29.9 80.8 34.0 80.05 36.15 79.6 39.6 79.1 42.95 78.9 47.05 L78.6 55.45 78.5 63.8 78.55 71.0 78.55 72.1 Q78.6 78.4 76.5 84.3 L75.2 87.5 72.75 91.8 Q68.1 96.95 62.35 99.65 56.65 102.3 50.6 102.35 56.4 101.75 61.8 98.65 67.1 95.55 71.35 90.25 72.65 88.0 73.6 85.6 L74.8 82.3 Q76.65 76.1 76.3 69.6 L76.25 68.45 75.9 61.05 75.6 52.55 75.55 43.9 Q75.6 39.65 75.9 36.1 76.2 32.6 76.9 30.35 76.9 26.15 77.5 24.05 78.7 19.4 78.15 14.8 L77.55 12.55 76.6 10.1 Q78.0 10.2 79.2 11.1" fill="#e5e5e5" fill-rule="evenodd" stroke="none"/>
      <path d="M53.55 7.65 Q55.4 6.05 57.9 5.45 55.5 7.0 53.85 9.55 52.15 12.05 51.2 14.95 L50.95 15.65 50.45 17.1 48.15 22.8 45.1 29.6 41.65 36.55 38.15 42.75 Q36.5 45.55 35.05 47.35 31.15 52.2 29.0 58.15 L28.6 59.3 Q27.15 63.9 26.85 68.55 26.55 73.25 27.4 77.75 28.3 82.2 30.35 86.25 32.85 91.2 36.85 94.7 40.75 98.15 45.8 99.8 49.9 101.1 54.2 101.05 58.4 100.95 62.55 99.5 57.75 101.8 52.7 102.25 47.6 102.65 42.7 101.1 37.65 99.4 33.7 95.95 29.75 92.5 27.2 87.55 25.15 83.5 24.3 79.05 23.4 74.55 23.7 69.85 24.0 65.2 25.5 60.6 L25.9 59.45 Q28.05 53.5 31.9 48.65 L35.05 44.05 38.5 37.85 42.0 30.9 45.05 24.1 47.3 18.4 47.85 16.95 48.05 16.25 Q48.9 13.75 50.3 11.5 51.65 9.25 53.55 7.65" fill="#b4b4b4" fill-rule="evenodd" stroke="none"/>
      <path d="M51.65 36.6 L51.3 35.2 69.65 40.65 69.0 41.7 67.3 44.1 64.85 46.9 Q63.5 48.25 62.0 49.05 60.45 49.8 59.0 49.55 57.55 49.15 56.3 47.65 55.1 46.1 54.2 44.05 L52.6 39.95 51.65 36.6" fill="#b4b4b4" fill-rule="evenodd" stroke="none"/>
      <path d="M42.0 103.65 L42.35 105.0 42.9 108.4 42.85 113.0 Q42.55 115.45 41.35 117.75 L40.9 117.85 39.95 117.8 39.1 117.15 37.9 115.25 35.75 112.05 33.2 109.05 Q31.85 107.75 30.75 107.6 L42.0 103.65" fill="#333333" fill-rule="evenodd" stroke="none"/>
      <path d="M42.0 103.65 L42.35 105.0 42.9 108.4 42.85 113.0 Q42.55 115.45 41.35 117.75 L40.9 117.85 39.95 117.8 39.1 117.15 37.9 115.25 35.75 112.05 33.2 109.05 Q31.85 107.75 30.75 107.6" fill="none" stroke="#000000" stroke-linecap="round" stroke-linejoin="round" stroke-width="2.0"/>
      <path d="M65.1 102.8 L65.55 104.05 66.35 107.2 Q66.75 109.15 66.8 111.4 66.8 113.65 66.1 115.8 66.05 115.8 65.75 115.95 L64.95 116.1 64.1 115.7 62.9 114.35 60.75 112.1 58.2 110.05 Q56.95 109.25 56.0 109.3 L65.1 102.8" fill="#333333" fill-rule="evenodd" stroke="none"/>
      <path d="M65.1 102.8 L65.55 104.05 66.35 107.2 Q66.75 109.15 66.8 111.4 66.8 113.65 66.1 115.8 66.05 115.8 65.75 115.95 L64.95 116.1 64.1 115.7 62.9 114.35 60.75 112.1 58.2 110.05 Q56.95 109.25 56.0 109.3" fill="none" stroke="#000000" stroke-linecap="round" stroke-linejoin="round" stroke-width="2.0"/>
      <path d="M68.55 41.3 L66.7 43.35 63.9 45.1 60.5 45.3 Q59.1 44.85 57.75 43.6 L55.25 40.75 53.2 37.65 51.8 35.1 51.3 34.1 69.25 40.3 68.55 41.3" fill="#d8a235" fill-rule="evenodd" stroke="none"/>
      <path d="M68.55 41.3 L69.25 40.3 51.3 34.1 51.8 35.1 53.2 37.65 55.25 40.75 57.75 43.6 Q59.1 44.85 60.5 45.3 L63.9 45.1 66.7 43.35 68.55 41.3" fill="none" stroke="#000000" stroke-linecap="round" stroke-linejoin="round" stroke-width="1.0"/>
      <path d="M66.4 40.05 L66.05 40.7 65.0 42.05 63.3 43.15 Q62.25 43.55 60.95 43.15 59.7 42.7 58.65 41.6 L56.85 39.25 55.65 37.15 55.25 36.2 66.4 40.05" fill="#c12d05" fill-rule="evenodd" stroke="none"/>
      <path d="M66.4 40.05 L55.25 36.2 55.65 37.15 56.85 39.25 58.65 41.6 Q59.7 42.7 60.95 43.15 62.25 43.55 63.3 43.15 L65.0 42.05 66.05 40.7 66.4 40.05" fill="none" stroke="#000000" stroke-linecap="round" stroke-linejoin="round" stroke-width="1.0"/>
      <path d="M58.95 37.85 Q59.15 39.65 60.45 40.95 61.75 42.15 63.55 42.65 L62.4 43.0 61.05 42.8 Q59.8 42.4 58.8 41.25 L56.95 38.85 55.85 36.8 57.0 37.2 58.95 37.85" fill="#9b0d0d" fill-rule="evenodd" stroke="none"/>
      <path d="M68.95 31.3 Q69.2 32.55 70.25 33.9 L72.7 36.55 74.95 38.6 75.95 39.4 76.1 40.05 76.1 41.3 Q75.95 42.0 75.4 42.4 L74.2 42.55 73.05 42.15 72.55 41.85 Q71.2 43.15 70.15 43.35 L68.05 43.1 Q67.05 42.6 66.05 41.8 L63.8 40.3 61.35 39.25 58.8 38.3 56.95 37.6 54.35 36.6 Q52.95 36.0 51.95 35.3 50.95 34.55 50.85 33.75 L50.75 32.55 51.45 32.45 53.95 32.9 57.3 33.5 60.65 33.55 62.95 33.1 Q64.05 32.8 65.05 32.1 L65.9 31.45 Q66.45 31.0 67.1 30.65 L68.25 30.4 Q68.75 30.45 68.95 31.3" fill="#f9c248" fill-rule="evenodd" stroke="none"/>
      <path d="M68.95 31.3 Q69.2 32.55 70.25 33.9 L72.7 36.55 74.95 38.6 75.95 39.4 76.1 40.05 76.1 41.3 Q75.95 42.0 75.4 42.4 L74.2 42.55 73.05 42.15 72.55 41.85 Q71.2 43.15 70.15 43.35 L68.05 43.1 Q67.05 42.6 66.05 41.8 L63.8 40.3 61.35 39.25 58.8 38.3 56.95 37.6 54.35 36.6 Q52.95 36.0 51.95 35.3 50.95 34.55 50.85 33.75 L50.75 32.55 51.45 32.45 53.95 32.9 57.3 33.5 60.65 33.55 62.95 33.1 Q64.05 32.8 65.05 32.1 L65.9 31.45 Q66.45 31.0 67.1 30.65 L68.25 30.4 Q68.75 30.45 68.95 31.3" fill="none" stroke="#000000" stroke-linecap="round" stroke-linejoin="round" stroke-width="1.0"/>
      <path d="M65.15 36.05 L65.2 34.95 65.65 35.25 66.3 35.9 Q66.5 36.2 66.0 36.2 L65.15 36.05" fill="#d8a235" fill-rule="evenodd" stroke="none"/>
      <path d="M72.6 40.45 Q73.1 40.5 73.55 40.85 74.0 41.25 74.5 41.2 74.95 41.15 75.15 40.85 75.4 40.6 75.8 40.6 L75.65 41.45 75.2 42.15 74.25 42.2 73.2 41.85 72.4 41.45 72.2 41.25 72.1 41.8 Q70.85 43.0 69.8 43.1 68.8 43.2 67.85 42.65 L65.85 41.3 63.75 39.85 Q62.2 39.05 60.5 38.5 L57.75 37.5 55.25 36.55 52.5 35.25 Q51.3 34.45 51.15 33.7 L51.1 33.15 51.05 32.8 51.1 32.65 52.2 33.9 53.5 34.7 54.25 35.05 58.45 36.7 Q60.75 37.55 63.45 38.0 L64.7 38.2 65.95 38.55 Q66.65 38.9 67.1 39.55 L68.05 40.7 Q68.7 41.15 69.45 41.2 L71.05 41.05 71.8 40.7 Q72.2 40.45 72.6 40.45" fill="#d8a235" fill-rule="evenodd" stroke="none"/>
      <path d="M74.1 38.95 L72.1 37.45 Q70.85 36.35 69.1 34.05 L68.85 33.6 68.25 32.65 67.65 32.1 66.8 32.3 Q66.25 32.55 65.4 32.3 L65.95 31.8 67.1 30.95 Q67.7 30.6 68.05 30.75 L68.4 31.05 Q68.7 31.3 68.65 31.85 L69.3 33.1 71.5 36.05 Q73.05 37.75 75.55 39.3 L75.2 39.35 74.1 38.95" fill="#ffe4b3" fill-rule="evenodd" stroke="none"/>
    </g>
    <g id="sprite0" transform="matrix(1, 0, 0, 1, 16.3, 13.6)">
      <use height="25.05" transform="matrix(1.0, 0.0, 0.0, 1.0, -16.0, -12.55)" width="32.05" xlink:href="#shape1"/>
    </g>
    <g id="shape1" transform="matrix(1, 0, 0, 1, 16.0, 12.55)">
      <path d="M-0.2 -5.3 Q0.25 -2.8 -0.45 0.0 -1.35 3.3 -3.3 5.45 L-9.6 4.55 -14.45 4.5 Q-15.3 2.8 -15.45 0.7 -15.65 -1.4 -15.05 -3.7 -14.35 -6.5 -12.75 -8.5 -11.2 -10.5 -9.2 -11.45 -7.25 -12.35 -5.2 -11.85 -3.15 -11.3 -1.85 -9.55 -0.6 -7.8 -0.2 -5.3" fill="#ffffff" fill-rule="evenodd" stroke="none"/>
      <path d="M-0.2 -5.3 Q-0.6 -7.8 -1.85 -9.55 -3.15 -11.3 -5.2 -11.85 -7.25 -12.35 -9.2 -11.45 -11.2 -10.5 -12.75 -8.5 -14.35 -6.5 -15.05 -3.7 -15.65 -1.4 -15.45 0.7 -15.3 2.8 -14.45 4.5 L-9.6 4.55 -3.3 5.45 Q-1.35 3.3 -0.45 0.0 0.25 -2.8 -0.2 -5.3" fill="none" stroke="#000000" stroke-linecap="round" stroke-linejoin="round" stroke-width="1.0"/>
      <path d="M-12.4 -4.25 Q-13.05 -1.8 -12.7 0.4 -12.4 2.55 -11.3 4.1 L-14.15 4.15 Q-14.95 2.55 -15.1 0.5 -15.25 -1.55 -14.7 -3.75 -14.0 -6.35 -12.65 -8.2 -11.3 -10.1 -9.55 -11.0 -7.8 -11.9 -5.95 -11.6 -8.1 -11.2 -9.85 -9.2 -11.6 -7.25 -12.4 -4.25" fill="#e5e2be" fill-rule="evenodd" stroke="none"/>
      <path d="M15.0 4.9 Q14.35 7.35 13.2 9.2 12.1 11.05 10.7 12.0 7.65 9.55 4.35 8.05 3.95 5.45 4.75 2.3 5.4 -0.25 6.6 -2.15 7.8 -4.05 9.3 -4.95 10.75 -5.9 12.2 -5.55 13.65 -5.15 14.45 -3.65 15.3 -2.1 15.5 0.1 15.6 2.35 15.0 4.9" fill="#ffffff" fill-rule="evenodd" stroke="none"/>
      <path d="M15.0 4.9 Q15.6 2.35 15.5 0.1 15.3 -2.1 14.45 -3.65 13.65 -5.15 12.2 -5.55 10.75 -5.9 9.3 -4.95 7.8 -4.05 6.6 -2.15 5.4 -0.25 4.75 2.3 3.95 5.45 4.35 8.05 7.65 9.55 10.7 12.0 12.1 11.05 13.2 9.2 14.35 7.35 15.0 4.9" fill="none" stroke="#000000" stroke-linecap="round" stroke-linejoin="round" stroke-width="1.0"/>
      <path d="M5.1 2.3 L5.55 0.8 Q6.45 -1.65 7.8 -3.2 9.15 -4.8 10.65 -5.2 9.0 -3.55 7.95 -0.7 L7.5 0.75 Q6.9 3.2 7.05 5.35 7.2 7.55 8.1 9.1 8.9 10.4 10.1 10.7 10.85 10.9 11.6 10.7 L10.45 11.6 Q7.75 9.45 4.8 8.05 4.6 6.75 4.65 5.3 4.7 3.85 5.1 2.3" fill="#e5e2be" fill-rule="evenodd" stroke="none"/>
      <path d="M-1.3 2.85 Q-2.0 4.3 -3.15 4.9 L-5.4 5.1 Q-6.45 4.55 -6.7 3.25 -6.95 1.95 -6.3 0.5 -5.6 -0.95 -4.45 -1.6 L-2.2 -1.8 Q-1.15 -1.2 -0.85 0.1 -0.6 1.35 -1.3 2.85" fill="#000000" fill-rule="evenodd" stroke="none"/>
      <path d="M-2.45 3.75 Q-2.75 4.35 -3.2 4.6 L-4.1 4.7 -4.6 3.95 Q-4.7 3.4 -4.45 2.8 L-3.7 2.0 -2.8 1.95 Q-2.4 2.15 -2.3 2.7 -2.2 3.2 -2.45 3.75" fill="#ffffff" fill-rule="evenodd" stroke="none"/>
      <path d="M13.05 9.55 L11.55 11.3 Q10.65 11.85 9.85 11.5 9.05 11.1 8.9 10.05 8.75 9.0 9.3 7.75 9.9 6.55 10.8 6.0 L12.5 5.8 Q13.25 6.2 13.45 7.25 13.6 8.3 13.05 9.55" fill="#000000" fill-rule="evenodd" stroke="none"/>
      <path d="M11.9 10.3 L11.35 10.95 10.65 11.0 10.2 10.4 Q10.15 10.0 10.35 9.55 L10.95 8.9 11.65 8.85 12.05 9.45 11.9 10.3" fill="#ffffff" fill-rule="evenodd" stroke="none"/>
      <path d="M-1.85 -9.45 Q-3.2 -7.5 -5.2 -6.05 -7.2 -4.6 -9.65 -3.7 -12.5 -2.8 -15.25 -2.75 L-15.05 -3.7 Q-14.35 -6.5 -12.8 -8.5 -11.25 -10.5 -9.25 -11.4 -7.25 -12.35 -5.2 -11.85 -3.15 -11.3 -1.85 -9.45" fill="#666666" fill-rule="evenodd" stroke="none"/>
      <path d="M-1.85 -9.45 Q-3.15 -11.3 -5.2 -11.85 -7.25 -12.35 -9.25 -11.4 -11.25 -10.5 -12.8 -8.5 -14.35 -6.5 -15.05 -3.7 L-15.25 -2.75 Q-12.5 -2.8 -9.65 -3.7 -7.2 -4.6 -5.2 -6.05 -3.2 -7.5 -1.85 -9.45" fill="none" stroke="#000000" stroke-linecap="round" stroke-linejoin="round" stroke-width="1.0"/>
      <path d="M-5.15 -11.45 Q-7.65 -10.25 -9.3 -8.2 -10.95 -6.15 -11.9 -3.5 L-14.85 -3.1 -14.75 -3.6 Q-14.15 -5.95 -12.85 -7.8 -11.55 -9.7 -9.85 -10.7 -7.55 -12.05 -5.3 -11.5 L-5.15 -11.45" fill="#333333" fill-rule="evenodd" stroke="none"/>
      <path d="M12.25 -5.55 Q13.65 -5.15 14.5 -3.6 15.35 -2.1 15.5 0.15 15.65 2.35 15.05 4.95 L15.0 5.05 14.25 4.55 Q11.65 2.95 10.5 0.4 9.35 -2.2 9.9 -5.25 L12.25 -5.55" fill="#666666" fill-rule="evenodd" stroke="none"/>
      <path d="M12.25 -5.55 L9.9 -5.25 Q9.35 -2.2 10.5 0.4 11.65 2.95 14.25 4.55 L15.0 5.05 15.05 4.95 Q15.65 2.35 15.5 0.15 15.35 -2.1 14.5 -3.6 13.65 -5.15 12.25 -5.55" fill="none" stroke="#000000" stroke-linecap="round" stroke-linejoin="round" stroke-width="1.0"/>
      <path d="M14.05 -3.6 L12.05 -3.8 Q11.0 -3.75 10.0 -3.1 L10.0 -3.35 10.15 -5.0 12.1 -5.2 Q13.3 -4.9 14.05 -3.6" fill="#333333" fill-rule="evenodd" stroke="none"/>
    </g>
    <g id="shape2" transform="matrix(1, 0, 0, 1, 109.0, 107.45)">
      <path d="M41.15 -101.0 L41.2 -100.7 Q41.2 -100.0 40.75 -99.55 40.25 -99.05 39.55 -99.0 38.85 -99.0 38.35 -99.45 37.85 -99.95 37.8 -100.7 L37.85 -100.95 38.7 -100.95 38.7 -100.7 Q38.7 -100.35 38.95 -100.1 39.2 -99.9 39.55 -99.9 39.9 -99.9 40.1 -100.15 L40.35 -100.7 40.3 -100.95 41.15 -101.0" fill="#c1c1c6" fill-rule="evenodd" stroke="none"/>
      <path d="M41.15 -101.0 L40.3 -100.95 40.35 -100.7 40.1 -100.15 Q39.9 -99.9 39.55 -99.9 39.2 -99.9 38.95 -100.1 38.7 -100.35 38.7 -100.7 L38.7 -100.95 37.85 -100.95 37.8 -100.7 Q37.85 -99.95 38.35 -99.45 38.85 -99.0 39.55 -99.0 40.25 -99.05 40.75 -99.55 41.2 -100.0 41.2 -100.7 L41.15 -101.0" fill="none" stroke="#000000" stroke-linecap="round" stroke-linejoin="round" stroke-width="1.0"/>
      <path d="M-0.95 -101.95 L-0.9 -101.65 Q-0.9 -100.95 -1.35 -100.5 -1.85 -100.0 -2.55 -99.95 -3.25 -99.95 -3.75 -100.45 -4.25 -100.9 -4.3 -101.65 L-4.25 -101.9 -3.4 -101.9 -3.4 -101.65 -3.15 -101.05 -2.55 -100.85 Q-2.2 -100.85 -2.0 -101.1 -1.75 -101.3 -1.75 -101.65 L-1.8 -101.9 -0.95 -101.95" fill="#c1c1c6" fill-rule="evenodd" stroke="none"/>
      <path d="M-0.95 -101.95 L-1.8 -101.9 -1.75 -101.65 Q-1.75 -101.3 -2.0 -101.1 -2.2 -100.85 -2.55 -100.85 L-3.15 -101.05 -3.4 -101.65 -3.4 -101.9 -4.25 -101.9 -4.3 -101.65 Q-4.25 -100.9 -3.75 -100.45 -3.25 -99.95 -2.55 -99.95 -1.85 -100.0 -1.35 -100.5 -0.9 -100.95 -0.9 -101.65 L-0.95 -101.95" fill="none" stroke="#000000" stroke-linecap="round" stroke-linejoin="round" stroke-width="1.0"/>
      <path d="M-35.55 -102.05 L-35.5 -101.75 Q-35.5 -101.05 -35.95 -100.6 -36.45 -100.1 -37.15 -100.05 -37.85 -100.05 -38.35 -100.55 -38.85 -101.0 -38.9 -101.75 L-38.85 -102.0 -38.0 -102.0 -38.0 -101.75 -37.75 -101.15 -37.15 -100.95 Q-36.8 -100.95 -36.6 -101.2 -36.35 -101.4 -36.35 -101.75 L-36.4 -102.0 -35.55 -102.05" fill="#c1c1c6" fill-rule="evenodd" stroke="none"/>
      <path d="M-35.55 -102.05 L-36.4 -102.0 -36.35 -101.75 Q-36.35 -101.4 -36.6 -101.2 -36.8 -100.95 -37.15 -100.95 L-37.75 -101.15 -38.0 -101.75 -38.0 -102.0 -38.85 -102.0 -38.9 -101.75 Q-38.85 -101.0 -38.35 -100.55 -37.85 -100.05 -37.15 -100.05 -36.45 -100.1 -35.95 -100.6 -35.5 -101.05 -35.5 -101.75 L-35.55 -102.05" fill="none" stroke="#000000" stroke-linecap="round" stroke-linejoin="round" stroke-width="1.0"/>
      <path d="M-71.6 -103.3 L-71.55 -103.0 Q-71.55 -102.3 -72.0 -101.85 -72.5 -101.35 -73.2 -101.3 -73.9 -101.3 -74.4 -101.8 -74.9 -102.25 -74.95 -103.0 L-74.9 -103.25 -74.05 -103.25 -74.05 -103.0 -73.8 -102.4 -73.2 -102.2 Q-72.85 -102.2 -72.65 -102.45 -72.4 -102.65 -72.4 -103.0 L-72.45 -103.25 -71.6 -103.3" fill="#c1c1c6" fill-rule="evenodd" stroke="none"/>
      <path d="M-71.6 -103.3 L-72.45 -103.25 -72.4 -103.0 Q-72.4 -102.65 -72.65 -102.45 -72.85 -102.2 -73.2 -102.2 L-73.8 -102.4 -74.05 -103.0 -74.05 -103.25 -74.9 -103.25 -74.95 -103.0 Q-74.9 -102.25 -74.4 -101.8 -73.9 -101.3 -73.2 -101.3 -72.5 -101.35 -72.0 -101.85 -71.55 -102.3 -71.55 -103.0 L-71.6 -103.3" fill="none" stroke="#000000" stroke-linecap="round" stroke-linejoin="round" stroke-width="1.0"/>
      <path d="M80.75 -100.65 L80.8 -100.35 Q80.8 -99.65 80.35 -99.2 79.85 -98.7 79.15 -98.65 78.45 -98.65 77.95 -99.15 77.45 -99.6 77.4 -100.35 L77.45 -100.6 78.3 -100.6 78.3 -100.35 Q78.3 -100.0 78.55 -99.75 78.8 -99.55 79.15 -99.55 L79.7 -99.8 79.95 -100.35 79.9 -100.6 80.75 -100.65" fill="#c1c1c6" fill-rule="evenodd" stroke="none"/>
      <path d="M80.75 -100.65 L79.9 -100.6 79.95 -100.35 79.7 -99.8 79.15 -99.55 Q78.8 -99.55 78.55 -99.75 78.3 -100.0 78.3 -100.35 L78.3 -100.6 77.45 -100.6 77.4 -100.35 Q77.45 -99.6 77.95 -99.15 78.45 -98.65 79.15 -98.65 79.85 -98.7 80.35 -99.2 80.8 -99.65 80.8 -100.35 L80.75 -100.65" fill="none" stroke="#000000" stroke-linecap="round" stroke-linejoin="round" stroke-width="1.0"/>
      <path d="M-86.3 -92.3 Q-87.0 -90.35 -88.6 -88.9 -90.3 -87.5 -92.35 -87.15 L-96.3 -87.45 Q-98.2 -88.15 -99.65 -89.75 -101.05 -91.45 -101.4 -93.5 -101.75 -95.5 -101.1 -97.45 -100.4 -99.35 -98.75 -100.8 -97.1 -102.2 -95.1 -102.55 L-91.15 -102.25 Q-89.2 -101.55 -87.75 -99.9 -86.35 -98.25 -86.0 -96.25 -85.65 -94.2 -86.3 -92.3" fill="#c1c1c6" fill-rule="evenodd" stroke="none"/>
      <path d="M-86.3 -92.3 Q-87.0 -90.35 -88.6 -88.9 -90.3 -87.5 -92.35 -87.15 L-96.3 -87.45 Q-98.2 -88.15 -99.65 -89.75 -101.05 -91.45 -101.4 -93.5 -101.75 -95.5 -101.1 -97.45 -100.4 -99.35 -98.75 -100.8 -97.1 -102.2 -95.1 -102.55 L-91.15 -102.25 Q-89.2 -101.55 -87.75 -99.9 -86.35 -98.25 -86.0 -96.25 -85.65 -94.2 -86.3 -92.3" fill="none" stroke="#000000" stroke-linecap="round" stroke-linejoin="round" stroke-width="1.0"/>
      <path d="M-93.4 -102.2 L-93.35 -102.15 Q-95.65 -101.45 -96.9 -100.0 -98.15 -98.55 -98.35 -96.6 -98.6 -94.65 -97.65 -92.6 -95.85 -89.75 -93.2 -87.9 L-93.5 -87.45 Q-95.15 -87.35 -96.7 -88.05 -98.2 -88.65 -99.35 -90.0 -100.7 -91.6 -101.0 -93.5 -101.35 -95.4 -100.7 -97.25 -100.1 -99.1 -98.55 -100.45 L-96.1 -101.8 -93.4 -102.2" fill="#b6b6b7" fill-rule="evenodd" stroke="none"/>
      <path d="M-88.15 -99.6 Q-86.8 -98.05 -86.45 -96.1 -86.15 -94.25 -86.8 -92.35 -87.4 -90.55 -88.95 -89.2 -90.15 -88.2 -91.55 -87.75 -89.9 -90.05 -89.55 -92.6 -89.15 -95.15 -89.95 -97.6 -90.75 -100.05 -92.55 -102.1 -91.3 -101.9 -90.15 -101.25 L-88.15 -99.6" fill="#d6d6d8" fill-rule="evenodd" stroke="none"/>
      <path d="M-91.8 -100.25 Q-90.4 -99.75 -89.35 -98.55 -88.3 -97.35 -88.05 -95.85 -87.8 -94.4 -88.3 -92.95 -88.8 -91.55 -90.0 -90.5 -91.2 -89.45 -92.7 -89.2 L-95.6 -89.45 Q-97.0 -89.95 -98.05 -91.15 -99.1 -92.35 -99.35 -93.85 -99.55 -95.3 -99.1 -96.75 -98.6 -98.15 -97.4 -99.2 -96.2 -100.25 -94.7 -100.5 L-91.8 -100.25" fill="#d8d8d8" fill-rule="evenodd" stroke="none"/>
      <path d="M-89.7 -98.25 Q-88.4 -96.7 -88.4 -94.75 -88.45 -92.8 -89.8 -91.25 -89.25 -93.25 -89.45 -95.2 -89.6 -97.15 -90.45 -99.0 L-89.7 -98.25" fill="#e3e3e5" fill-rule="evenodd" stroke="none"/>
      <path d="M-97.65 -92.6 Q-96.7 -91.1 -95.45 -89.9 -96.75 -90.3 -97.75 -91.4 -98.9 -92.8 -99.0 -94.55 -99.1 -96.3 -98.15 -97.75 -98.85 -95.35 -97.65 -92.6" fill="#bbbbbc" fill-rule="evenodd" stroke="none"/>
      <path d="M-97.7 -85.8 L-99.1 -86.6 -94.0 -95.85 -92.55 -95.1 -97.7 -85.8" fill="#6d6d70" fill-rule="evenodd" stroke="none"/>
      <path d="M-97.7 -85.8 L-99.1 -86.6 -94.0 -95.85 -92.55 -95.1 -97.7 -85.8" fill="none" stroke="#000000" stroke-linecap="round" stroke-linejoin="round" stroke-width="1.0"/>
      <path d="M-97.9 -86.35 L-98.05 -86.45 -93.35 -95.0 -93.15 -94.9 -94.0 -93.4 -95.5 -90.65 -97.05 -87.85 -97.9 -86.35" fill="#7b7b7c" fill-rule="evenodd" stroke="none"/>
      <path d="M-93.55 -95.15 L-95.9 -90.95 -98.4 -86.65 -98.55 -86.75 -97.7 -88.25 -96.15 -91.05 -94.65 -93.8 -93.85 -95.3 -93.55 -95.15" fill="#59595b" fill-rule="evenodd" stroke="none"/>
      <path d="M-96.65 -84.3 Q-96.9 -83.95 -97.3 -83.8 L-98.05 -83.85 -100.6 -85.25 -101.05 -85.9 -100.9 -86.7 Q-100.65 -87.1 -100.25 -87.2 L-99.5 -87.2 -97.0 -85.75 -96.55 -85.1 Q-96.45 -84.75 -96.65 -84.3" fill="#6d6d70" fill-rule="evenodd" stroke="none"/>
      <path d="M-96.65 -84.3 Q-96.9 -83.95 -97.3 -83.8 L-98.05 -83.85 -100.6 -85.25 -101.05 -85.9 -100.9 -86.7 Q-100.65 -87.1 -100.25 -87.2 L-99.5 -87.2 -97.0 -85.75 -96.55 -85.1 Q-96.45 -84.75 -96.65 -84.3" fill="none" stroke="#000000" stroke-linecap="round" stroke-linejoin="round" stroke-width="1.0"/>
      <path d="M-99.6 -86.75 Q-99.7 -85.8 -99.4 -85.1 L-100.35 -85.65 -100.6 -85.95 -100.55 -86.5 -100.15 -86.85 -99.7 -86.8 -99.6 -86.75" fill="#59595b" fill-rule="evenodd" stroke="none"/>
      <path d="M-97.85 -84.2 L-98.0 -84.3 Q-98.0 -85.25 -98.45 -86.1 L-97.2 -85.4 -96.95 -85.1 -97.05 -84.55 -97.4 -84.2 -97.85 -84.2" fill="#7b7b7c" fill-rule="evenodd" stroke="none"/>
      <path d="M-87.85 -89.45 Q-87.8 -89.4 -86.55 -90.05 -85.5 -90.55 -83.2 -92.1 -81.0 -93.75 -78.5 -96.25 -76.0 -98.85 -73.2 -102.9 L-71.05 -101.9 Q-69.3 -101.1 -65.25 -99.85 -61.5 -98.75 -57.0 -98.25 -52.55 -97.75 -47.2 -98.45 -42.0 -99.2 -37.05 -101.95 L-35.65 -101.15 -31.8 -99.45 Q-29.65 -98.6 -25.95 -97.7 L-18.8 -96.85 Q-15.1 -96.8 -10.8 -97.8 -6.5 -98.9 -2.5 -101.45 L-0.5 -100.5 4.8 -98.35 Q8.0 -97.2 12.45 -96.2 16.6 -95.25 21.4 -95.1 26.05 -94.95 30.7 -96.15 35.25 -97.4 39.35 -100.55 L41.75 -99.75 Q43.85 -99.0 48.15 -98.05 L57.25 -96.7 67.9 -97.0 Q73.4 -97.7 78.8 -100.15 L80.45 -99.5 84.9 -98.1 Q87.7 -97.4 91.3 -97.05 L98.9 -97.3 Q102.7 -97.8 107.0 -99.75 107.5 -98.15 106.65 -95.55 L92.0 -55.95 Q83.5 -33.15 79.45 -15.15 74.5 6.75 71.15 31.9" fill="none" stroke="#000000" stroke-linecap="round" stroke-linejoin="round" stroke-width="1.0"/>
      <path d="M71.15 31.9 Q66.55 66.35 64.95 106.95" fill="none" stroke="#000099" stroke-linecap="round" stroke-linejoin="round" stroke-width="1.0"/>
      <path d="M108.25 -99.7 L107.45 -99.75 -106.3 -103.1 -106.9 -103.2 Q-107.45 -103.3 -107.95 -103.7 -108.5 -104.15 -108.5 -105.1 -108.4 -106.15 -107.8 -106.5 L-106.7 -106.9 -106.05 -106.9 107.45 -100.65 107.9 -100.8 108.35 -100.55 108.5 -100.1 108.25 -99.7" fill="#c1c1c6" fill-rule="evenodd" stroke="none"/>
      <path d="M108.25 -99.7 L108.5 -100.1 108.35 -100.55 107.9 -100.8 107.45 -100.65 -106.05 -106.9 -106.7 -106.9 -107.8 -106.5 Q-108.4 -106.15 -108.5 -105.1 -108.5 -104.15 -107.95 -103.7 -107.45 -103.3 -106.9 -103.2 L-106.3 -103.1 107.45 -99.75 108.25 -99.7" fill="none" stroke="#000000" stroke-linecap="round" stroke-linejoin="round" stroke-width="1.0"/>
      <path d="M108.0 -100.15 L107.95 -100.0 107.75 -100.0 107.7 -100.05 107.65 -100.15 108.0 -100.15 M-78.1 -105.15 L-107.95 -105.6 -107.6 -106.15 -107.45 -106.25 -78.1 -105.15" fill="#dbdbdd" fill-rule="evenodd" stroke="none"/>
      <path d="M108.0 -100.3 L108.0 -100.25 107.65 -100.25 107.7 -100.3 108.0 -100.3 M-87.65 -103.7 L-107.4 -103.85 -107.75 -104.15 -107.9 -104.3 -87.65 -103.7" fill="#9a9a9b" fill-rule="evenodd" stroke="none"/>
      <path d="M-92.5 -93.4 Q-93.1 -92.9 -93.9 -92.95 -94.6 -93.0 -95.2 -93.6 -95.65 -94.2 -95.65 -95.0 -95.55 -95.7 -94.95 -96.3 -94.35 -96.75 -93.55 -96.75 -92.85 -96.65 -92.3 -96.05 -91.8 -95.45 -91.85 -94.65 -91.9 -93.95 -92.5 -93.4" fill="#6d6d70" fill-rule="evenodd" stroke="none"/>
      <path d="M-92.5 -93.4 Q-93.1 -92.9 -93.9 -92.95 -94.6 -93.0 -95.2 -93.6 -95.65 -94.2 -95.65 -95.0 -95.55 -95.7 -94.95 -96.3 -94.35 -96.75 -93.55 -96.75 -92.85 -96.65 -92.3 -96.05 -91.8 -95.45 -91.85 -94.65 -91.9 -93.95 -92.5 -93.4" fill="none" stroke="#000000" stroke-linecap="round" stroke-linejoin="round" stroke-width="1.0"/>
      <path d="M-92.95 -93.6 Q-92.65 -94.25 -92.7 -94.9 -92.75 -95.6 -93.25 -96.25 L-92.6 -95.85 Q-92.2 -95.35 -92.25 -94.75 -92.3 -94.15 -92.75 -93.75 L-92.95 -93.6" fill="#7b7b7c" fill-rule="evenodd" stroke="none"/>
      <path d="M-94.1 -96.25 Q-94.45 -95.25 -94.2 -94.55 -93.9 -93.9 -93.3 -93.4 L-94.15 -93.4 Q-94.55 -93.5 -94.85 -93.85 -95.25 -94.35 -95.2 -94.95 L-94.7 -95.95 -94.1 -96.25" fill="#59595b" fill-rule="evenodd" stroke="none"/>
      <path d="M109.65 -100.6 L109.7 -100.3 Q109.7 -99.6 109.25 -99.15 108.75 -98.65 108.05 -98.6 107.35 -98.6 106.85 -99.05 106.35 -99.55 106.3 -100.3 L106.35 -100.55 107.2 -100.55 107.2 -100.3 Q107.2 -99.95 107.45 -99.7 L108.05 -99.5 Q108.4 -99.5 108.6 -99.75 L108.85 -100.3 108.8 -100.55 109.65 -100.6" fill="#c1c1c6" fill-rule="evenodd" stroke="none"/>
      <path d="M109.65 -100.6 L108.8 -100.55 108.85 -100.3 108.6 -99.75 Q108.4 -99.5 108.05 -99.5 L107.45 -99.7 Q107.2 -99.95 107.2 -100.3 L107.2 -100.55 106.35 -100.55 106.3 -100.3 Q106.35 -99.55 106.85 -99.05 107.35 -98.6 108.05 -98.6 108.75 -98.65 109.25 -99.15 109.7 -99.6 109.7 -100.3 L109.65 -100.6" fill="none" stroke="#000000" stroke-linecap="round" stroke-linejoin="round" stroke-width="1.0"/>
    </g>
    <g id="shape3" transform="matrix(1, 0, 0, 1, -8.6, -8.85)">
      <path d="M29.75 21.75 L30.55 22.05 30.95 22.4 Q30.8 24.85 29.4 26.8 28.05 28.75 25.75 29.9 23.5 31.05 20.75 31.1 16.7 31.0 13.9 28.7 11.05 26.4 10.6 22.8 L10.6 17.95 Q9.25 17.35 9.0 15.9 L8.6 15.9 8.6 10.05 10.6 10.05 10.6 8.85 12.7 8.85 12.75 10.05 14.5 10.05 14.5 15.9 14.1 15.9 Q13.85 17.15 12.8 17.8 L12.8 22.4 Q13.1 25.25 15.3 27.15 17.5 29.05 20.75 29.1 24.0 29.05 26.25 27.15 28.45 25.25 28.7 22.4 L29.0 22.05 Q29.3 21.8 29.75 21.75" fill="#0000cc" fill-opacity="0.43137255" fill-rule="evenodd" stroke="none"/>
    </g>
    <g id="shape4" transform="matrix(1, 0, 0, 1, -18.75, -38.1)">
      <path d="M37.1 40.0 L37.7 41.4 Q38.25 42.75 39.7 44.65 41.1 46.5 43.75 48.25 45.35 49.3 47.35 50.15 L51.2 51.65 54.5 52.7 56.65 53.15 57.15 53.45 Q57.55 53.7 57.65 54.3 57.75 54.9 56.85 55.75 L54.85 57.2 50.75 59.4 Q48.3 60.55 45.25 61.3 L38.8 61.9 Q35.45 61.75 32.05 60.15 28.65 58.55 25.5 55.05 22.35 51.5 19.75 45.5 28.45 34.35 37.1 40.0" fill="#666666" fill-rule="evenodd" stroke="none"/>
      <path d="M37.1 40.0 L37.7 41.4 Q38.25 42.75 39.7 44.65 41.1 46.5 43.75 48.25 45.35 49.3 47.35 50.15 L51.2 51.65 54.5 52.7 56.65 53.15 57.15 53.45 Q57.55 53.7 57.65 54.3 57.75 54.9 56.85 55.75 L54.85 57.2 50.75 59.4 Q48.3 60.55 45.25 61.3 L38.8 61.9 Q35.45 61.75 32.05 60.15 28.65 58.55 25.5 55.05 22.35 51.5 19.75 45.5" fill="none" stroke="#000000" stroke-linecap="round" stroke-linejoin="round" stroke-width="2.0"/>
      <path d="M30.9 53.9 Q33.85 55.75 37.95 57.45 42.0 59.1 46.55 60.35 41.65 61.6 37.5 60.85 33.3 60.0 29.85 57.6 26.45 55.15 23.9 51.55 21.4 48.0 19.85 43.7 L21.3 42.45 22.45 41.0 Q23.1 40.25 24.2 39.85 L25.2 39.4 Q25.95 39.0 26.85 38.7 L28.25 38.35 Q28.8 38.3 28.7 38.9 L27.85 42.25 Q27.4 44.0 27.4 45.9 27.4 47.75 28.2 49.8 28.95 51.8 30.9 53.9" fill="#333333" fill-rule="evenodd" stroke="none"/>
      <path d="M38.3 45.0 Q37.7 43.9 37.4 42.85 L36.7 40.75 37.65 42.65 Q38.4 43.95 39.85 45.55 L43.55 48.6 47.05 50.45 50.85 51.95 54.25 53.0 56.5 53.55 56.95 53.75 57.25 54.25 57.1 54.9 56.6 55.45 56.15 55.8 53.6 57.4 49.25 59.35 43.65 60.8 Q40.6 61.3 37.35 60.9 34.1 60.5 30.95 58.8 L34.0 59.5 Q36.1 59.7 38.75 59.5 L44.0 58.9 48.65 57.6 Q50.65 56.75 51.6 55.7 52.05 55.05 50.9 54.25 L47.75 52.3 43.65 50.0 40.2 47.35 38.3 45.0" fill="#999999" fill-rule="evenodd" stroke="none"/>
    </g>
  </defs>
</svg>
