<?xml version="1.0" encoding="UTF-8" standalone="no"?>
<svg xmlns:xlink="http://www.w3.org/1999/xlink" height="11.4px" width="22.9px" xmlns="http://www.w3.org/2000/svg">
  <g transform="matrix(1, 0, 0, 1, 2.0, -1.0)">
    <use height="11.4" transform="matrix(1.0, 0.0, 0.0, 1.0, -2.0, 1.0)" width="22.9" xlink:href="#shape0"/>
  </g>
  <defs>
    <g id="shape0" transform="matrix(1, 0, 0, 1, 2.0, -1.0)">
      <path d="M15.15 5.1 L3.85 6.45 -2.0 6.75 -2.0 2.2 -1.95 2.2 Q-1.85 2.8 -1.0 3.0 L1.85 3.05 Q4.05 4.0 6.45 3.85 9.15 3.7 11.35 4.4 L13.1 4.65 15.1 5.05 15.15 5.1" fill="#573e4b" fill-rule="evenodd" stroke="none"/>
      <path d="M17.1 5.85 L17.3 5.55 Q17.1 6.2 16.45 6.25 16.85 6.2 17.1 5.85" fill="#000000" fill-opacity="0.16078432" fill-rule="evenodd" stroke="none"/>
      <path d="M-1.95 2.2 L-2.0 2.0 Q-2.0 1.0 -1.0 1.0 L2.3 1.0 11.2 2.05 Q17.35 2.9 17.35 4.9 L17.35 5.1 Q17.3 4.3 16.35 4.15 15.35 4.05 15.35 5.1 L15.35 5.25 15.5 5.75 15.55 5.8 Q15.75 6.2 16.3 6.25 15.55 6.25 15.45 5.75 L15.15 5.1 15.1 5.05 13.1 4.65 11.35 4.4 Q9.15 3.7 6.45 3.85 4.05 4.0 1.85 3.05 L-1.0 3.0 Q-1.85 2.8 -1.95 2.2" fill="#000000" fill-opacity="0.2509804" fill-rule="evenodd" stroke="none"/>
      <path d="M20.8 3.55 L20.15 3.05 20.9 4.0 20.9 4.55 Q20.9 5.8 20.35 6.75 L19.85 6.5 Q20.4 5.65 20.4 4.65 L20.35 4.1 Q18.2 2.3 16.8 1.7 L16.8 1.4 Q18.15 1.45 19.35 2.3 L20.4 3.25 Q20.7 3.35 20.8 3.55" fill="#000000" fill-opacity="0.3529412" fill-rule="evenodd" stroke="none"/>
      <path d="M17.5 9.95 L18.0 10.4 Q16.5 11.15 13.6 12.1 L13.35 12.25 13.1 12.25 12.95 12.3 10.05 12.3 10.0 12.3 5.7 12.3 5.5 12.4 3.75 12.4 3.5 12.15 3.6 11.9 12.85 11.75 Q16.0 10.75 17.5 9.95" fill="#000000" fill-opacity="0.3529412" fill-rule="evenodd" stroke="none"/>
      <path d="M-2.0 2.05 L-1.9 2.05 -1.85 2.05 3.95 2.4 Q16.1 3.25 16.1 4.35 16.1 5.5 3.95 6.3 L-1.85 6.6 -1.9 6.6 -2.0 6.6 -2.0 4.95 -1.9 4.95 -0.1 4.9 10.8 3.9 Q10.8 3.3 -0.1 2.9 L-1.9 2.85 -2.0 2.85 -2.0 2.05" fill="#573e4b" fill-rule="evenodd" stroke="none"/>
      <path d="M-2.0 4.95 L-2.0 4.1 -1.9 4.1 6.05 3.65 -1.9 3.2 -2.0 3.2 -2.0 2.85 -1.9 2.85 -0.1 2.9 Q10.8 3.3 10.8 3.9 L-0.1 4.9 -1.9 4.95 -2.0 4.95" fill="#45323e" fill-rule="evenodd" stroke="none"/>
      <path d="M-2.0 4.1 L-2.0 3.2 -1.9 3.2 6.05 3.65 -1.9 4.1 -2.0 4.1" fill="#31242d" fill-rule="evenodd" stroke="none"/>
      <path d="M-2.0 2.05 L-2.0 1.05 4.45 1.6 Q17.6 2.95 17.6 4.8 17.6 6.6 4.45 7.9 L-2.0 8.5 -2.0 6.6 -1.9 6.6 -1.85 6.6 3.95 6.3 Q16.1 5.5 16.1 4.35 16.1 3.25 3.95 2.4 L-1.85 2.05 -1.9 2.05 -2.0 2.05" fill="url(#gradient0)" fill-rule="evenodd" stroke="none"/>
      <path d="M16.7 4.25 Q17.35 4.45 17.35 5.15 17.35 6.35 15.7 7.4 14.1 8.4 11.5 8.9 L8.45 8.95 2.0 10.0 -1.4 10.0 -2.0 9.7 -2.0 8.15 -1.4 8.0 1.75 7.95 Q5.4 6.95 8.25 6.9 L11.2 6.85 12.9 6.0 14.65 5.0 Q15.85 4.0 16.7 4.25" fill="#000000" fill-opacity="0.2509804" fill-rule="evenodd" stroke="none"/>
    </g>
    <radialGradient cx="0" cy="0" gradientTransform="matrix(0.0538, 0.0, 0.0, 0.0056, -25.9, 4.8)" gradientUnits="userSpaceOnUse" id="gradient0" r="819.2" spreadMethod="pad">
      <stop offset="0.00392156862745098" stop-color="#573e4b" stop-opacity="0.93333334"/>
      <stop offset="0.6823529411764706" stop-color="#573e4b" stop-opacity="0.43137255"/>
      <stop offset="1.0" stop-color="#140e12" stop-opacity="0.0"/>
    </radialGradient>
  </defs>
</svg>
