<?xml version="1.0" encoding="UTF-8" standalone="no"?>
<svg xmlns:xlink="http://www.w3.org/1999/xlink" height="155.95px" width="172.55px" xmlns="http://www.w3.org/2000/svg">
  <g transform="matrix(1, 0, 0, 1, 0.0, 41.05)">
    <use height="190.15" transform="matrix(0.5998, 0.0, 0.0, 1.4398, 52.4357, -159.6048)" width="151.65" xlink:href="#shape0"/>
  </g>
  <defs>
    <g id="shape0" transform="matrix(1, 0, 0, 1, 75.8, 95.05)">
      <path d="M-6.75 -94.95 Q1.65 -96.05 10.15 -86.35 18.85 -76.35 23.25 -59.8 28.2 -41.3 25.9 -20.75 23.9 -2.7 16.45 14.6 23.15 1.85 31.4 -8.85 54.65 -38.95 70.25 -18.1 83.1 -0.95 66.4 31.5 55.0 53.9 38.95 68.5 23.2 82.85 -0.5 92.85 -19.4 100.8 -35.5 80.55 -42.25 72.0 -49.3 57.4 L-59.1 35.9 Q-70.85 11.0 -74.4 -8.4 -79.9 -38.65 -63.75 -48.55 -48.6 -57.75 -33.65 -9.15 -26.2 15.2 -21.75 41.35 -23.5 8.0 -22.5 -25.7 -20.5 -93.15 -6.75 -94.95" fill="#ffffff" fill-opacity="0.101960786" fill-rule="evenodd" stroke="none"/>
    </g>
  </defs>
</svg>
