<?xml version="1.0" encoding="UTF-8" standalone="no"?>
<svg xmlns:xlink="http://www.w3.org/1999/xlink" height="37.9px" width="39.85px" xmlns="http://www.w3.org/2000/svg">
  <g transform="matrix(1, 0, 0, 1, 0.0, 0.0)">
    <path d="M33.1 4.85 L33.75 4.75 Q37.8 4.75 39.25 11.75 39.95 15.25 39.85 18.8 39.85 20.25 38.1 23.8 36.0 27.95 33.05 31.25 24.65 40.65 15.0 36.75 9.85 34.0 4.85 26.35 0.0 18.95 0.0 14.55 0.0 11.3 1.3 7.75 3.1 2.65 6.5 3.1 L6.65 3.15 Q6.7 4.25 5.2 5.95 3.35 8.1 3.0 8.9 2.55 9.95 2.25 11.75 L2.2 11.85 2.0 14.65 Q2.0 15.25 3.3 18.35 4.95 22.2 7.05 25.55 13.5 35.8 20.8 35.8 26.65 35.8 32.5 28.75 37.65 22.5 37.65 18.8 37.65 15.25 36.7 11.5 35.65 7.25 33.85 5.65 L33.1 4.85" fill="#3e2928" fill-opacity="0.9882353" fill-rule="evenodd" stroke="none"/>
    <path d="M6.5 3.1 Q10.85 0.0 18.25 0.0 26.35 0.0 31.4 4.45 L31.9 4.4 Q32.5 4.4 33.1 4.85 L33.85 5.65 Q35.65 7.25 36.7 11.5 37.65 15.25 37.65 18.8 37.65 22.5 32.5 28.75 26.65 35.8 20.8 35.8 13.5 35.8 7.05 25.55 4.95 22.2 3.3 18.35 2.0 15.25 2.0 14.65 L2.2 11.85 2.25 11.75 Q2.55 9.95 3.0 8.9 3.35 8.1 5.2 5.95 6.7 4.25 6.65 3.15 L6.5 3.1" fill="#a27666" fill-rule="evenodd" stroke="none"/>
  </g>
</svg>
