<?xml version="1.0" encoding="UTF-8" standalone="no"?>
<svg xmlns:xlink="http://www.w3.org/1999/xlink" height="31.25px" width="81.55px" xmlns="http://www.w3.org/2000/svg">
  <g transform="matrix(1, 0, 0, 1, 0.0, 0.0)">
    <path d="M71.65 10.15 L67.5 9.25 67.5 9.0 64.75 8.75 60.25 8.8 58.15 8.65 60.0 8.4 62.25 8.25 65.25 8.4 Q69.55 8.5 71.55 9.3 L74.65 10.4 74.5 10.55 71.65 10.15 M71.75 15.05 L65.75 12.8 Q61.4 11.05 58.9 10.4 61.65 10.95 65.85 12.45 69.6 13.8 71.9 14.9 L71.75 15.05 M75.2 6.85 Q79.9 8.05 81.55 9.25 L74.9 7.6 Q67.75 5.85 57.65 5.9 L58.0 5.5 59.9 5.3 60.75 5.15 Q68.6 5.15 75.2 6.85 M68.55 1.5 Q60.25 2.55 58.0 4.25 57.5 4.05 57.4 3.9 58.65 2.65 62.85 1.65 69.0 0.25 79.9 0.0 L68.55 1.5 M52.5 19.75 Q58.85 22.05 62.4 24.65 65.05 26.6 68.75 31.0 L68.5 31.25 Q63.75 26.3 62.25 25.1 58.2 21.9 52.1 20.0 52.1 19.8 52.5 19.75 M27.15 2.45 L23.0 1.55 20.5 1.3 10.75 1.3 9.65 1.15 13.35 0.85 16.75 0.65 21.1 0.8 23.35 1.05 27.35 1.75 Q28.6 2.05 29.25 2.5 L27.15 2.45 M28.25 5.0 L27.95 5.05 27.75 5.0 20.75 5.05 Q12.2 6.4 7.45 8.0 5.25 8.7 0.0 11.25 1.45 9.2 7.25 7.1 14.5 4.5 22.9 4.5 L27.9 4.55 28.25 5.0 M27.65 8.55 L27.75 8.75 Q24.65 10.2 21.25 12.25 L16.25 15.25 Q17.75 13.35 21.0 11.1 24.85 8.5 27.15 8.5 L27.65 8.55 M28.0 7.0 Q20.25 7.6 16.85 8.9 13.85 10.05 12.9 10.05 L16.45 8.7 24.5 6.75 27.25 6.75 27.6 6.8 Q27.95 6.85 28.0 7.0 M36.5 19.55 L36.75 19.75 Q34.55 23.2 26.25 26.25 L25.3 26.0 25.25 25.75 Q23.4 25.75 21.2 27.8 L21.25 27.65 Q21.25 25.65 25.75 25.65 26.2 25.65 30.6 23.1 L36.5 19.55" fill="#3e2928" fill-opacity="0.9882353" fill-rule="evenodd" stroke="none"/>
    <path d="M54.75 5.65 Q55.15 6.05 55.15 6.5 55.15 8.55 53.2 8.9 51.25 9.2 51.25 6.65 51.25 5.0 52.5 5.0 54.1 5.0 54.75 5.65 M47.4 6.65 L47.7 6.65 48.0 7.55 48.25 8.2 47.75 11.1 Q47.35 12.4 46.8 12.95 46.15 14.95 43.4 14.9 40.0 14.85 39.85 11.9 L39.3 10.55 38.5 7.4 Q38.5 7.0 38.65 6.7 L38.7 6.45 43.0 7.05 47.4 6.65 M35.0 4.9 L35.1 5.7 Q35.1 7.85 33.2 7.95 31.35 8.0 31.35 6.0 31.35 5.15 31.6 4.75 31.95 4.15 33.0 4.15 34.65 4.15 35.0 4.9" fill="#d1aca6" fill-opacity="0.9882353" fill-rule="evenodd" stroke="none"/>
    <path d="M38.05 6.2 Q37.2 6.0 37.25 4.85 37.25 2.65 43.5 2.65 46.3 2.65 47.6 3.8 48.4 4.55 48.4 5.35 48.4 6.55 47.7 6.65 L47.4 6.65 Q48.25 6.3 48.25 5.65 L48.15 5.05 44.9 4.75 45.0 4.4 Q45.0 3.5 44.0 3.5 L41.0 3.75 Q40.55 3.95 40.5 4.55 L38.4 4.75 Q37.75 4.95 37.75 5.75 L38.05 6.2" fill="#72200b" fill-rule="evenodd" stroke="none"/>
    <path d="M38.05 6.2 L37.75 5.75 Q37.75 4.95 38.4 4.75 L40.5 4.55 Q40.55 3.95 41.0 3.75 L44.0 3.5 Q45.0 3.5 45.0 4.4 L44.9 4.75 48.15 5.05 48.25 5.65 Q48.25 6.3 47.4 6.65 L43.0 7.05 38.7 6.45 38.05 6.2" fill="#ad442f" fill-opacity="0.9882353" fill-rule="evenodd" stroke="none"/>
  </g>
</svg>
