<?xml version="1.0" encoding="UTF-8" standalone="no"?>
<svg xmlns:xlink="http://www.w3.org/1999/xlink" height="25.55px" width="43.65px" xmlns="http://www.w3.org/2000/svg">
  <g transform="matrix(1, 0, 0, 1, 80.9, 23.15)">
    <path d="M-37.35 1.9 L-37.35 2.1 -37.4 2.2 -37.65 2.25 -38.25 1.95 -39.6 1.35 Q-41.2 1.35 -41.95 1.85 L-42.65 2.3 -42.8 2.3 -42.9 2.4 Q-43.2 2.4 -43.2 2.0 L-43.15 1.75 -43.2 1.55 Q-43.2 1.1 -42.45 0.65 -41.4 0.0 -39.75 0.15 L-39.7 0.2 -39.45 0.15 Q-37.25 0.85 -37.25 1.6 L-37.35 1.9" fill="#33221b" fill-opacity="0.9882353" fill-rule="evenodd" stroke="none"/>
    <path d="M-64.35 -12.5 L-63.8 -13.6 -63.4 -13.65 -63.2 -13.45 -62.8 -12.8 Q-62.3 -12.55 -62.15 -11.8 L-62.15 -10.65 -62.25 -9.55 -62.25 -9.4 Q-62.4 -9.0 -62.85 -8.95 L-63.2 -8.95 -63.65 -9.1 -63.7 -9.15 -63.75 -9.35 Q-64.65 -9.25 -64.65 -10.9 L-64.35 -12.5 M-73.9 -9.0 L-69.25 -12.4 -68.65 -12.35 -68.45 -12.2 -68.4 -11.75 Q-68.4 -10.55 -69.0 -9.7 -69.3 -8.85 -70.5 -8.2 -71.3 -7.75 -72.0 -7.95 -73.9 -7.45 -73.9 -9.0 M-65.15 -9.6 L-65.2 -8.1 Q-65.45 -7.15 -66.75 -7.15 L-68.3 -7.55 Q-68.65 -7.85 -68.65 -8.25 -68.65 -8.7 -67.55 -10.35 L-66.15 -12.15 Q-65.35 -11.85 -65.2 -11.05 L-65.15 -9.6" fill="#d1aca6" fill-opacity="0.9882353" fill-rule="evenodd" stroke="none"/>
    <path d="M-69.25 -5.0 L-70.8 -5.4 Q-76.5 -4.6 -79.2 -10.8 -80.9 -14.6 -80.9 -18.4 -80.9 -22.9 -78.5 -22.9 L-77.75 -22.75 -77.0 -22.9 -76.65 -23.15 Q-75.25 -23.15 -73.05 -20.0 -70.5 -16.3 -69.9 -15.9 L-64.35 -12.5 -64.65 -10.9 Q-64.65 -9.25 -63.75 -9.35 L-63.7 -9.15 -63.9 -9.15 -64.55 -8.9 -64.65 -8.3 Q-64.65 -7.25 -63.55 -7.35 L-63.2 -7.4 Q-62.4 -7.6 -62.4 -8.25 -62.4 -8.75 -62.85 -8.95 -62.4 -9.0 -62.25 -9.4 L-62.25 -9.55 -62.15 -8.7 Q-62.15 -7.95 -62.7 -7.15 -62.8 -6.35 -63.2 -5.8 -64.5 -3.95 -68.95 -4.9 -63.65 -4.9 -63.65 -6.55 -63.65 -6.85 -64.4 -7.4 L-65.55 -6.9 -68.65 -6.5 Q-68.75 -7.15 -69.65 -7.15 -70.25 -7.15 -70.25 -6.9 L-70.4 -6.75 -70.4 -6.35 Q-70.4 -5.85 -69.25 -5.0 M-75.65 -7.05 Q-75.65 -6.05 -73.15 -5.9 -70.65 -5.8 -70.65 -7.0 L-70.75 -7.6 -74.9 -7.9 Q-75.5 -7.9 -75.55 -7.65 L-75.65 -7.05 M-73.9 -9.0 Q-73.9 -7.45 -72.0 -7.95 -71.3 -7.75 -70.5 -8.2 -69.3 -8.85 -69.0 -9.7 -68.4 -10.55 -68.4 -11.75 L-68.45 -12.2 -68.65 -12.35 -69.25 -12.4 -73.9 -9.0 M-65.15 -9.6 L-65.2 -11.05 Q-65.35 -11.85 -66.15 -12.15 L-67.55 -10.35 Q-68.65 -8.7 -68.65 -8.25 -68.65 -7.85 -68.3 -7.55 L-66.75 -7.15 Q-65.45 -7.15 -65.2 -8.1 L-65.15 -9.6" fill="#3e2928" fill-opacity="0.9882353" fill-rule="evenodd" stroke="none"/>
    <path d="M-68.95 -4.9 L-69.15 -4.9 -69.25 -5.0 Q-70.4 -5.85 -70.4 -6.35 L-70.4 -6.75 -70.25 -6.9 Q-70.25 -7.15 -69.65 -7.15 -68.75 -7.15 -68.65 -6.5 L-65.55 -6.9 -64.4 -7.4 Q-63.65 -6.85 -63.65 -6.55 -63.65 -4.9 -68.95 -4.9 M-75.65 -7.05 L-75.55 -7.65 Q-75.5 -7.9 -74.9 -7.9 L-70.75 -7.6 -70.65 -7.0 Q-70.65 -5.8 -73.15 -5.9 -75.65 -6.05 -75.65 -7.05 M-62.85 -8.95 Q-62.4 -8.75 -62.4 -8.25 -62.4 -7.6 -63.2 -7.4 L-63.55 -7.35 Q-64.65 -7.25 -64.65 -8.3 L-64.55 -8.9 -63.9 -9.15 -63.7 -9.15 -63.65 -9.1 -63.2 -8.95 -62.85 -8.95" fill="#a27666" fill-rule="evenodd" stroke="none"/>
  </g>
</svg>
