<?xml version="1.0" encoding="UTF-8" standalone="no"?>
<svg xmlns:xlink="http://www.w3.org/1999/xlink" height="44.1px" width="22.05px" xmlns="http://www.w3.org/2000/svg">
  <g transform="matrix(1, 0, 0, 1, 20.45, 35.25)">
    <path d="M-18.45 2.85 L-18.8 1.9 -18.8 1.0 -19.4 1.15 -20.45 0.9 Q-20.25 0.3 -19.25 -0.55 L-18.9 -0.8 -18.35 -1.25 -16.7 -2.35 -17.0 -3.05 -16.55 -3.95 -16.2 -4.2 Q-15.95 -5.3 -14.9 -6.1 L-12.15 -7.8 -11.4 -9.8 -10.35 -15.2 Q-9.55 -19.9 -9.55 -21.3 L-9.3 -22.55 -9.65 -25.35 -10.1 -29.3 -10.65 -33.8 Q-10.65 -35.65 -8.6 -35.1 -6.45 -34.5 -4.1 -31.65 -1.7 -28.5 -0.55 -26.0 0.15 -24.6 0.9 -19.8 L1.2 -18.15 1.6 -14.8 1.6 -14.25 1.6 -13.95 Q1.2 -8.45 0.1 -3.05 -2.1 7.8 -5.6 7.8 L-5.95 7.75 -7.3 8.05 -9.55 7.8 -10.05 8.3 -10.8 8.7 -10.9 8.85 -11.1 8.8 -11.9 8.85 Q-13.55 8.85 -14.05 8.45 L-14.25 8.25 Q-15.0 7.9 -15.35 6.85 L-15.3 6.55 -16.05 6.65 Q-17.35 6.65 -17.7 5.8 L-17.7 5.7 Q-16.85 6.4 -15.9 6.4 -14.8 6.4 -14.8 5.4 L-14.9 4.9 -15.15 4.8 -15.45 5.1 Q-15.65 5.4 -16.0 5.4 L-17.8 5.15 -17.8 4.55 -17.15 4.8 Q-16.55 4.8 -16.65 4.4 L-16.65 4.3 -16.0 4.7 -15.8 4.85 -15.65 4.75 -15.6 4.2 Q-15.6 3.75 -15.9 3.1 L-17.15 2.25 Q-17.4 1.6 -17.9 1.25 -18.5 1.5 -18.5 2.3 L-18.45 2.85 M-14.05 -1.75 L-14.05 -1.7 -15.4 0.7 -15.3 1.65 -13.5 2.05 -12.65 2.45 Q-11.25 1.8 -10.9 1.35 L-10.6 0.9 -9.9 1.15 -7.8 2.4 Q-6.0 3.45 -5.15 3.45 -4.25 3.45 -4.1 2.75 L-3.85 2.5 -3.65 2.75 -3.15 2.65 -2.95 1.95 Q-1.6 -0.35 -0.5 -6.55 0.6 -12.7 0.6 -17.05 L0.5 -18.8 Q0.05 -23.05 -2.6 -26.9 -3.95 -28.8 -4.85 -28.75 -5.85 -28.65 -5.85 -26.0 L-5.75 -24.95 -5.55 -21.5 Q-5.55 -20.9 -7.65 -14.6 L-8.65 -11.9 -12.15 -7.7 -12.05 -7.25 -12.0 -7.2 -12.1 -7.0 -12.05 -6.75 Q-13.2 -6.1 -14.4 -4.65 L-14.4 -4.6 Q-15.15 -4.7 -15.15 -3.8 L-15.1 -3.0 -14.7 -2.8 -14.6 -2.75 -14.05 -1.75 M-4.05 2.25 L-4.1 2.35 -4.1 2.15 -4.05 2.25 M-7.2 -2.9 L-9.05 -3.6 -10.2 -3.8 Q-9.0 -3.9 -7.8 -3.25 L-7.2 -2.9 M-15.65 -1.5 L-16.1 -1.95 -18.5 0.0 -18.35 0.05 -16.15 -0.85 -15.65 -1.5 M-14.9 -1.6 L-14.95 -1.65 -14.95 -1.6 -14.9 -1.6 M-8.45 5.85 L-9.65 6.65 Q-9.35 6.75 -9.1 7.2 L-7.3 7.5 Q-6.6 7.5 -5.85 6.75 -5.15 6.05 -5.15 5.5 L-5.25 5.05 -5.4 4.85 -7.2 5.4 -7.3 5.2 -7.25 5.1 -7.15 5.1 Q-6.55 5.1 -6.65 4.85 L-6.6 4.35 Q-6.6 3.45 -9.0 2.3 -11.4 1.15 -11.55 2.65 L-11.1 3.05 -11.15 3.35 Q-11.15 3.9 -9.8 5.0 L-8.45 5.85 M-11.65 6.3 L-11.75 6.1 -11.65 6.05 -11.55 5.2 Q-11.95 4.45 -13.3 3.4 -14.85 2.2 -15.65 2.45 L-15.3 3.3 -15.3 3.35 -14.3 5.2 -13.35 6.65 -13.5 6.55 -14.15 6.15 -14.9 6.35 -14.9 6.9 -13.95 7.75 -12.55 8.1 Q-10.3 8.1 -10.3 6.65 L-10.35 6.15 -10.6 5.9 Q-11.15 5.8 -11.65 6.25 L-11.65 6.3 M-17.2 0.25 L-17.4 0.35 -16.95 0.7 -16.65 0.25 -17.05 0.2 -17.2 0.25" fill="#402b2a" fill-opacity="0.9882353" fill-rule="evenodd" stroke="none"/>
    <path d="M-12.05 -6.75 L-12.1 -7.0 -12.0 -7.2 -12.05 -7.25 -12.15 -7.7 -8.65 -11.9 -7.65 -14.6 Q-5.55 -20.9 -5.55 -21.5 L-5.75 -24.95 -5.85 -26.0 Q-5.85 -28.65 -4.85 -28.75 -3.95 -28.8 -2.6 -26.9 0.05 -23.05 0.5 -18.8 L0.6 -17.05 Q0.6 -12.7 -0.5 -6.55 -1.6 -0.35 -2.95 1.95 L-3.15 2.65 -3.65 2.75 -3.85 2.5 -4.1 2.75 Q-4.25 3.45 -5.15 3.45 -6.0 3.45 -7.8 2.4 L-9.9 1.15 -10.6 0.9 -10.9 1.35 Q-11.25 1.8 -12.65 2.45 L-13.5 2.05 -15.3 1.65 -15.4 0.7 -14.05 -1.7 -14.05 -1.75 Q-14.0 -3.05 -12.5 -3.6 L-10.2 -3.8 -9.05 -3.6 -7.2 -2.9 Q-4.25 -1.35 -4.1 2.15 L-4.1 2.35 -4.05 2.25 Q-2.6 -1.05 -1.8 -5.55 -1.05 -9.95 -1.05 -14.3 -1.05 -14.6 -1.4 -15.1 L-1.9 -15.55 Q-3.25 -15.55 -4.6 -14.85 -6.55 -13.4 -7.9 -11.1 -9.8 -7.85 -11.85 -6.6 L-11.95 -6.55 -12.05 -6.75" fill="#75504a" fill-rule="evenodd" stroke="none"/>
    <path d="M-17.7 5.7 L-17.8 5.65 -17.8 5.15 -16.0 5.4 Q-15.65 5.4 -15.45 5.1 L-15.15 4.8 -14.9 4.9 -14.8 5.4 Q-14.8 6.4 -15.9 6.4 -16.85 6.4 -17.7 5.7 M-14.05 -1.75 L-14.6 -2.75 -14.7 -2.8 -15.1 -3.0 -15.15 -3.8 Q-15.15 -4.7 -14.4 -4.6 L-14.4 -4.65 Q-13.2 -6.1 -12.05 -6.75 L-11.95 -6.55 -11.85 -6.6 Q-9.8 -7.85 -7.9 -11.1 -6.55 -13.4 -4.6 -14.85 -3.25 -15.55 -1.9 -15.55 L-1.4 -15.1 Q-1.05 -14.6 -1.05 -14.3 -1.05 -9.95 -1.8 -5.55 -2.6 -1.05 -4.05 2.25 L-4.1 2.15 Q-4.25 -1.35 -7.2 -2.9 L-7.8 -3.25 Q-9.0 -3.9 -10.2 -3.8 L-12.5 -3.6 Q-14.0 -3.05 -14.05 -1.75 M-14.9 -1.6 L-14.95 -1.6 -14.95 -1.65 -14.9 -1.6 M-8.45 5.85 L-7.8 5.55 -7.65 5.55 -7.55 5.5 -7.2 5.4 -5.4 4.85 -5.25 5.05 -5.15 5.5 Q-5.15 6.05 -5.85 6.75 -6.6 7.5 -7.3 7.5 L-9.1 7.2 Q-9.35 6.75 -9.65 6.65 L-8.45 5.85 M-11.65 6.3 L-11.65 6.25 Q-11.15 5.8 -10.6 5.9 L-10.35 6.15 -10.3 6.65 Q-10.3 8.1 -12.55 8.1 L-13.95 7.75 -14.9 6.9 -14.9 6.35 -14.15 6.15 -13.5 6.55 -13.35 6.65 -12.7 6.75 -11.9 6.5 -11.65 6.3" fill="#a27666" fill-rule="evenodd" stroke="none"/>
    <path d="M-17.8 4.55 Q-18.25 4.1 -18.45 2.85 L-18.5 2.3 Q-18.5 1.5 -17.9 1.25 -17.4 1.6 -17.15 2.25 L-15.9 3.1 Q-15.6 3.75 -15.6 4.2 L-15.65 4.75 -15.8 4.85 -16.0 4.7 -16.65 4.3 -16.65 4.4 Q-16.55 4.8 -17.15 4.8 L-17.8 4.55 M-15.65 -1.5 L-16.15 -0.85 -18.35 0.05 -18.5 0.0 -16.1 -1.95 -15.65 -1.5 M-7.2 5.4 L-7.55 5.5 -7.65 5.55 -7.8 5.55 -8.45 5.85 -9.8 5.0 Q-11.15 3.9 -11.15 3.35 L-11.1 3.05 -11.55 2.65 Q-11.4 1.15 -9.0 2.3 -6.6 3.45 -6.6 4.35 L-6.65 4.85 Q-6.55 5.1 -7.15 5.1 L-7.25 5.1 -7.3 5.2 -7.2 5.4 M-13.35 6.65 L-14.3 5.2 -15.3 3.35 -15.3 3.3 -15.65 2.45 Q-14.85 2.2 -13.3 3.4 -11.95 4.45 -11.55 5.2 L-11.65 6.05 -11.75 6.1 -11.65 6.3 -11.9 6.5 -12.7 6.75 -13.35 6.65" fill="#d1aca6" fill-opacity="0.9882353" fill-rule="evenodd" stroke="none"/>
  </g>
</svg>
