<?xml version="1.0" encoding="UTF-8" standalone="no"?>
<svg xmlns:xlink="http://www.w3.org/1999/xlink" height="59.9px" width="20.85px" xmlns="http://www.w3.org/2000/svg">
  <g transform="matrix(1, 0, 0, 1, 14.35, 39.2)">
    <path d="M1.05 -27.3 Q1.45 -25.05 1.75 -16.8 L2.3 -14.35 3.15 -11.7 3.75 -10.2 4.0 -9.2 4.05 -9.1 Q5.15 -8.1 5.8 -4.9 6.5 -1.55 6.5 1.95 L6.35 5.05 Q6.0 7.35 5.25 9.15 L4.7 10.35 4.8 11.55 4.8 11.7 4.75 12.9 4.8 13.45 4.6 13.35 4.45 13.45 Q4.05 13.0 3.4 12.8 L3.2 12.45 Q1.9 13.95 0.05 15.1 L0.05 16.0 0.0 18.7 Q0.1 18.95 -0.5 18.95 -1.05 18.95 -1.75 16.9 L-2.2 15.5 -4.85 16.75 -4.85 16.8 Q-4.85 17.6 -6.4 20.7 -7.05 20.7 -7.4 19.4 L-7.85 17.8 -7.85 17.1 Q-9.05 16.0 -9.8 13.55 -10.65 10.65 -11.25 9.85 -11.95 10.4 -12.4 10.4 L-12.6 10.4 -13.75 11.6 -14.2 11.45 -14.35 10.9 Q-14.35 9.45 -12.7 5.3 L-11.3 2.15 -11.2 0.25 -11.3 -1.5 Q-12.0 -3.5 -12.2 -5.8 L-12.2 -6.4 -11.95 -13.0 Q-11.45 -19.95 -10.2 -26.85 L-10.25 -28.45 -10.0 -30.7 -10.4 -32.4 -10.5 -36.0 -10.45 -36.5 -10.5 -36.7 -10.4 -37.0 Q-10.15 -38.65 -8.8 -39.1 L-7.75 -39.2 Q-6.6 -39.2 -5.1 -38.3 -0.2 -35.4 0.25 -30.4 L1.05 -27.3 M3.5 9.05 L4.45 7.0 Q5.25 5.4 5.25 4.65 L5.25 3.95 Q5.1 -1.2 2.95 -7.0 L1.3 -10.95 Q-0.5 -16.55 -0.5 -18.15 L-0.5 -18.7 -0.5 -19.2 -0.65 -24.3 -0.55 -26.55 -1.4 -29.4 Q-1.9 -30.75 -2.55 -31.6 -3.2 -33.15 -5.1 -33.95 -7.55 -34.9 -7.9 -33.5 L-8.0 -33.15 -8.2 -31.1 -7.95 -29.8 -7.7 -28.5 Q-7.7 -23.4 -8.95 -16.1 L-9.8 -10.85 -10.2 -7.8 Q-10.2 -5.65 -9.6 -3.35 L-9.35 -2.45 -9.85 1.35 -10.0 1.1 -11.2 7.85 -7.75 14.8 -7.75 14.85 -7.65 15.3 Q-8.2 15.55 -8.2 15.95 L-7.5 16.65 Q-5.2 16.45 -5.1 15.65 L-4.95 15.6 -3.05 15.05 -2.5 15.55 Q-2.25 15.35 -1.65 15.05 L-1.75 15.3 -1.3 16.9 Q-0.8 18.2 -0.5 18.35 L0.0 18.05 0.0 15.05 -0.5 14.55 -0.9 14.65 Q-0.25 14.15 -0.25 13.65 L-0.25 13.55 1.4 11.9 2.1 11.95 3.0 11.4 3.0 11.6 3.2 12.25 Q3.45 12.85 4.0 12.85 L4.4 12.75 4.5 12.65 4.5 11.6 4.4 10.6 4.1 10.5 4.5 9.55 4.4 9.1 4.25 8.9 3.5 9.05 M-11.5 8.65 Q-11.65 7.2 -12.5 7.2 L-13.25 7.3 -13.35 7.8 -12.8 8.85 -12.0 9.6 -11.6 9.5 -11.5 9.4 -11.5 8.65 M-14.25 10.2 L-14.15 10.65 -13.75 10.8 -13.05 10.15 -12.75 9.35 Q-12.75 8.8 -13.25 8.6 L-13.95 9.5 -14.25 10.2 M-5.55 16.8 L-5.75 16.7 Q-6.8 16.6 -7.15 17.25 L-7.35 18.7 Q-7.35 19.35 -6.7 19.9 L-6.0 18.65 -5.5 17.2 -5.55 16.8" fill="#402b2a" fill-opacity="0.9882353" fill-rule="evenodd" stroke="none"/>
    <path d="M-9.35 -2.45 L-9.6 -3.35 Q-10.2 -5.65 -10.2 -7.8 L-9.8 -10.85 -8.95 -16.1 Q-7.7 -23.4 -7.7 -28.5 L-7.95 -29.8 -8.2 -31.1 -8.0 -33.15 -7.9 -33.5 Q-7.55 -34.9 -5.1 -33.95 -3.2 -33.15 -2.55 -31.6 -1.9 -30.75 -1.4 -29.4 L-0.55 -26.55 -0.65 -24.3 -0.5 -19.2 -0.5 -18.7 -0.5 -18.15 Q-0.5 -16.55 1.3 -10.95 L2.95 -7.0 Q5.1 -1.2 5.25 3.95 L5.25 4.65 Q5.25 5.4 4.45 7.0 L3.5 9.05 2.2 9.85 Q1.05 10.8 1.05 11.3 L1.15 11.75 1.25 11.85 1.4 11.9 -0.25 13.55 -0.25 13.35 -0.15 13.2 -0.25 13.3 Q-0.45 12.45 -1.75 13.15 -3.25 13.95 -3.25 14.85 L-3.05 15.05 -4.95 15.6 -5.1 15.65 -5.1 15.55 -5.15 15.1 -5.25 14.95 -7.15 15.05 -7.65 15.3 -7.75 14.85 -7.75 14.8 Q-7.65 14.05 -4.55 12.75 -0.95 11.25 -0.2 10.15 L2.8 6.25 3.3 5.8 3.65 4.8 3.5 2.2 Q2.9 -2.1 0.55 -8.05 -1.95 -14.2 -2.45 -16.9 L-3.85 -17.2 Q-5.9 -17.2 -7.5 -11.8 L-8.05 -9.15 -8.7 -6.35 -8.65 -5.45 -9.2 -3.2 -9.35 -2.45" fill="#75504a" fill-rule="evenodd" stroke="none"/>
    <path d="M3.5 9.05 L4.25 8.9 4.4 9.1 4.5 9.55 4.1 10.5 Q3.4 10.35 3.15 10.75 L3.0 11.4 2.1 11.95 1.4 11.9 1.25 11.85 1.15 11.75 1.05 11.3 Q1.05 10.8 2.2 9.85 L3.5 9.05 M-0.25 13.55 L-0.25 13.65 Q-0.25 14.15 -0.9 14.65 L-1.65 15.05 Q-2.25 15.35 -2.5 15.55 L-3.05 15.05 -3.25 14.85 Q-3.25 13.95 -1.75 13.15 -0.45 12.45 -0.25 13.3 L-0.15 13.2 -0.25 13.35 -0.25 13.55 M-5.1 15.65 Q-5.2 16.45 -7.5 16.65 L-8.2 15.95 Q-8.2 15.55 -7.65 15.3 L-7.15 15.05 -5.25 14.95 -5.15 15.1 -5.1 15.55 -5.1 15.65 M-7.75 14.8 L-11.2 7.85 -10.0 1.1 -9.85 1.35 -9.35 -2.45 -9.2 -3.2 -8.65 -5.45 -8.7 -6.35 -8.05 -9.15 -7.5 -11.8 Q-5.9 -17.2 -3.85 -17.2 L-2.45 -16.9 Q-1.95 -14.2 0.55 -8.05 2.9 -2.1 3.5 2.2 L3.65 4.8 3.3 5.8 2.8 6.25 -0.2 10.15 Q-0.95 11.25 -4.55 12.75 -7.65 14.05 -7.75 14.8 M-11.5 8.65 L-11.5 9.4 -11.6 9.5 -12.0 9.6 -12.8 8.85 -13.35 7.8 -13.25 7.3 -12.5 7.2 Q-11.65 7.2 -11.5 8.65" fill="#a27666" fill-rule="evenodd" stroke="none"/>
    <path d="M4.1 10.5 L4.4 10.6 4.5 11.6 4.5 12.65 4.4 12.75 4.0 12.85 Q3.45 12.85 3.2 12.25 L3.0 11.6 3.0 11.4 3.15 10.75 Q3.4 10.35 4.1 10.5 M-0.9 14.65 L-0.5 14.55 0.0 15.05 0.0 18.05 -0.5 18.35 Q-0.8 18.2 -1.3 16.9 L-1.75 15.3 -1.65 15.05 -0.9 14.65 M-14.25 10.2 L-13.95 9.5 -13.25 8.6 Q-12.75 8.8 -12.75 9.35 L-13.05 10.15 -13.75 10.8 -14.15 10.65 -14.25 10.2 M-5.55 16.8 L-5.5 17.2 -6.0 18.65 -6.7 19.9 Q-7.35 19.35 -7.35 18.7 L-7.15 17.25 Q-6.8 16.6 -5.75 16.7 L-5.55 16.8" fill="#d1aca6" fill-opacity="0.9882353" fill-rule="evenodd" stroke="none"/>
  </g>
</svg>
