<?xml version="1.0" encoding="UTF-8" standalone="no"?>
<svg xmlns:xlink="http://www.w3.org/1999/xlink" height="59.9px" width="20.85px" xmlns="http://www.w3.org/2000/svg">
  <g transform="matrix(1, 0, 0, 1, 14.1, 42.6)">
    <path d="M1.3 -30.7 Q1.7 -28.45 2.0 -20.2 L2.55 -17.75 Q2.9 -16.4 3.4 -15.1 L4.0 -13.6 4.25 -12.6 4.3 -12.5 Q5.4 -11.5 6.05 -8.3 6.75 -4.95 6.75 -1.45 L6.6 1.65 Q6.25 3.95 5.5 5.75 L4.95 6.95 5.05 8.15 5.05 8.3 5.0 9.5 5.05 10.05 4.85 9.95 4.7 10.05 Q4.3 9.6 3.65 9.4 L3.45 9.05 Q2.15 10.55 0.3 11.7 L0.3 12.6 0.25 15.3 Q0.35 15.55 -0.25 15.55 -0.8 15.55 -1.5 13.5 L-1.95 12.1 -4.6 13.35 -4.6 13.4 Q-4.6 14.2 -6.15 17.3 -6.8 17.3 -7.15 16.0 L-7.6 14.4 -7.6 13.7 Q-8.8 12.6 -9.55 10.15 -10.4 7.25 -11.0 6.45 -11.7 7.0 -12.15 7.0 L-12.35 7.0 -13.5 8.2 -13.95 8.05 -14.1 7.5 Q-14.1 6.05 -12.45 1.9 L-11.05 -1.25 -10.95 -3.15 -11.05 -4.9 Q-11.75 -6.9 -11.95 -9.2 L-11.95 -9.8 -11.7 -16.4 Q-11.2 -23.35 -9.95 -30.25 L-10.0 -31.85 -9.75 -34.1 -10.15 -35.8 -10.25 -39.4 -10.2 -39.9 -10.25 -40.1 -10.15 -40.4 Q-9.9 -42.05 -8.55 -42.5 L-7.5 -42.6 Q-6.35 -42.6 -4.85 -41.7 0.05 -38.8 0.5 -33.8 L1.3 -30.7 M-9.1 -5.85 L-9.6 -2.05 -9.75 -2.3 -10.95 4.45 -7.5 11.4 -7.5 11.45 -7.4 11.9 Q-7.95 12.15 -7.95 12.55 L-7.25 13.25 Q-4.95 13.05 -4.85 12.25 L-4.7 12.2 -2.8 11.65 -2.25 12.15 -1.4 11.65 -1.5 11.9 -1.05 13.5 -0.25 14.95 0.25 14.65 0.25 11.65 -0.25 11.15 -0.65 11.25 Q0.0 10.75 0.0 10.25 L0.0 10.15 1.65 8.5 2.35 8.55 3.25 8.0 3.25 8.2 3.45 8.85 Q3.7 9.45 4.25 9.45 L4.65 9.35 4.75 9.25 4.75 8.2 4.65 7.2 4.35 7.1 4.75 6.15 4.65 5.7 4.5 5.5 3.75 5.65 4.7 3.6 Q5.5 2.0 5.5 1.25 L5.5 0.55 Q5.35 -4.6 3.2 -10.4 L1.55 -14.35 Q-0.25 -19.95 -0.25 -21.55 L-0.25 -22.1 -0.25 -22.6 -0.4 -27.7 -0.3 -29.95 -1.15 -32.8 Q-1.65 -34.15 -2.3 -35.0 -2.95 -36.55 -4.85 -37.35 -7.3 -38.3 -7.65 -36.9 L-7.75 -36.55 -7.95 -34.5 -7.7 -33.2 -7.45 -31.9 Q-7.45 -26.8 -8.7 -19.5 L-9.55 -14.25 -9.95 -11.2 Q-9.95 -9.05 -9.35 -6.75 L-9.1 -5.85 M-12.5 5.95 Q-12.5 5.4 -13.0 5.2 L-13.7 6.1 -14.0 6.8 -13.9 7.25 -13.5 7.4 -12.8 6.75 -12.5 5.95 M-12.25 3.8 L-13.0 3.9 -13.1 4.4 -12.55 5.45 -11.75 6.2 -11.35 6.1 -11.25 6.0 -11.25 5.25 Q-11.4 3.8 -12.25 3.8 M-5.3 13.4 L-5.5 13.3 Q-6.55 13.2 -6.9 13.85 L-7.1 15.3 Q-7.1 15.95 -6.45 16.5 L-5.75 15.25 -5.25 13.8 -5.3 13.4" fill="#402b2a" fill-opacity="0.9882353" fill-rule="evenodd" stroke="none"/>
    <path d="M-7.5 11.4 Q-7.4 10.65 -4.3 9.35 -0.7 7.85 0.05 6.75 L3.05 2.85 3.55 2.4 3.9 1.4 3.75 -1.2 Q3.15 -5.5 0.8 -11.45 -1.7 -17.6 -2.2 -20.3 L-3.6 -20.6 Q-5.65 -20.6 -7.25 -15.2 L-7.8 -12.55 -8.45 -9.75 -8.4 -8.85 -8.95 -6.6 -9.1 -5.85 -9.35 -6.75 Q-9.95 -9.05 -9.95 -11.2 L-9.55 -14.25 -8.7 -19.5 Q-7.45 -26.8 -7.45 -31.9 L-7.7 -33.2 -7.95 -34.5 -7.75 -36.55 -7.65 -36.9 Q-7.3 -38.3 -4.85 -37.35 -2.95 -36.55 -2.3 -35.0 -1.65 -34.15 -1.15 -32.8 L-0.3 -29.95 -0.4 -27.7 -0.25 -22.6 -0.25 -22.1 -0.25 -21.55 Q-0.25 -19.95 1.55 -14.35 L3.2 -10.4 Q5.35 -4.6 5.5 0.55 L5.5 1.25 Q5.5 2.0 4.7 3.6 L3.75 5.65 2.45 6.45 Q1.3 7.4 1.3 7.9 L1.4 8.35 1.5 8.45 1.65 8.5 0.0 10.15 0.0 9.95 0.1 9.8 0.0 9.9 Q-0.2 9.05 -1.5 9.75 -3.0 10.55 -3.0 11.45 L-2.8 11.65 -4.7 12.2 -4.85 12.25 -4.85 12.15 -4.9 11.7 -5.0 11.55 -6.9 11.65 -7.4 11.9 -7.5 11.45 -7.5 11.4" fill="#75504a" fill-rule="evenodd" stroke="none"/>
    <path d="M-9.1 -5.85 L-8.95 -6.6 -8.4 -8.85 -8.45 -9.75 -7.8 -12.55 -7.25 -15.2 Q-5.65 -20.6 -3.6 -20.6 L-2.2 -20.3 Q-1.7 -17.6 0.8 -11.45 3.15 -5.5 3.75 -1.2 L3.9 1.4 3.55 2.4 3.05 2.85 0.05 6.75 Q-0.7 7.85 -4.3 9.35 -7.4 10.65 -7.5 11.4 L-10.95 4.45 -9.75 -2.3 -9.6 -2.05 -9.1 -5.85 M-7.4 11.9 L-6.9 11.65 -5.0 11.55 -4.9 11.7 -4.85 12.15 -4.85 12.25 Q-4.95 13.05 -7.25 13.25 L-7.95 12.55 Q-7.95 12.15 -7.4 11.9 M-2.8 11.65 L-3.0 11.45 Q-3.0 10.55 -1.5 9.75 -0.2 9.05 0.0 9.9 L0.1 9.8 0.0 9.95 0.0 10.15 0.0 10.25 Q0.0 10.75 -0.65 11.25 -1.25 11.35 -1.4 11.65 L-2.25 12.15 -2.8 11.65 M1.65 8.5 L1.5 8.45 1.4 8.35 1.3 7.9 Q1.3 7.4 2.45 6.45 L3.75 5.65 4.5 5.5 4.65 5.7 4.75 6.15 4.35 7.1 Q3.65 6.95 3.4 7.35 L3.25 8.0 2.35 8.55 1.65 8.5 M-12.25 3.8 Q-11.4 3.8 -11.25 5.25 L-11.25 6.0 -11.35 6.1 -11.75 6.2 -12.55 5.45 -13.1 4.4 -13.0 3.9 -12.25 3.8" fill="#a27666" fill-rule="evenodd" stroke="none"/>
    <path d="M4.35 7.1 L4.65 7.2 4.75 8.2 4.75 9.25 4.65 9.35 4.25 9.45 Q3.7 9.45 3.45 8.85 L3.25 8.2 3.25 8.0 3.4 7.35 Q3.65 6.95 4.35 7.1 M-0.65 11.25 L-0.25 11.15 0.25 11.65 0.25 14.65 -0.25 14.95 -1.05 13.5 -1.5 11.9 -1.4 11.65 Q-1.25 11.35 -0.65 11.25 M-12.5 5.95 L-12.8 6.75 -13.5 7.4 -13.9 7.25 -14.0 6.8 -13.7 6.1 -13.0 5.2 Q-12.5 5.4 -12.5 5.95 M-5.3 13.4 L-5.25 13.8 -5.75 15.25 -6.45 16.5 Q-7.1 15.95 -7.1 15.3 L-6.9 13.85 Q-6.55 13.2 -5.5 13.3 L-5.3 13.4" fill="#d1aca6" fill-opacity="0.9882353" fill-rule="evenodd" stroke="none"/>
  </g>
</svg>
