<?xml version="1.0" encoding="UTF-8" standalone="no"?>
<svg xmlns:xlink="http://www.w3.org/1999/xlink" height="56.35px" width="29.95px" xmlns="http://www.w3.org/2000/svg">
  <g transform="matrix(1, 0, 0, 1, 10.3, 37.7)">
    <path d="M8.4 18.65 L8.15 18.65 Q6.75 18.65 2.0 13.5 L-2.45 8.35 Q-3.45 8.35 -3.7 9.45 L-3.6 9.85 -4.6 12.65 -4.6 12.7 -4.6 13.2 -5.95 10.7 -6.7 6.7 Q-7.2 4.1 -8.1 2.65 -10.15 -0.45 -10.3 -4.85 -10.15 -15.15 -8.3 -25.3 L-8.35 -26.9 -8.1 -29.15 Q-8.4 -29.85 -8.5 -30.85 L-8.6 -34.45 -8.55 -34.95 -8.6 -35.15 -8.5 -35.45 Q-8.25 -37.1 -6.9 -37.55 -5.4 -38.05 -3.2 -36.75 1.7 -33.85 2.15 -28.85 L2.95 -25.75 Q3.35 -23.5 3.65 -15.25 5.3 -6.8 10.85 -0.35 L14.4 3.4 15.55 4.6 Q16.1 4.8 17.15 5.95 L19.65 9.3 Q19.65 10.1 18.75 10.1 L18.0 9.85 18.4 9.9 19.25 9.75 19.4 9.25 17.35 7.1 Q16.5 6.35 15.4 6.65 L15.45 6.55 15.8 5.35 15.7 4.9 15.45 4.75 Q14.4 4.45 13.9 5.1 13.8 3.8 12.2 2.4 L11.9 2.15 9.65 -1.35 6.15 -6.25 Q4.5 -10.6 2.7 -13.75 L2.55 -14.05 Q1.9 -17.65 1.9 -19.9 1.9 -24.2 0.5 -27.85 0.0 -29.2 -0.65 -30.05 -1.3 -31.6 -3.2 -32.4 -5.65 -33.35 -6.0 -31.95 L-6.1 -31.6 -6.3 -29.55 -6.05 -28.25 -5.8 -26.95 Q-5.8 -21.85 -7.05 -14.55 L-8.3 -6.25 Q-8.3 -4.1 -7.7 -1.8 L-7.3 -0.45 -6.95 0.9 -7.05 1.2 -6.75 2.7 Q-6.55 3.7 -5.6 4.35 L-5.55 4.35 -4.9 4.8 Q-2.4 5.95 -0.7 7.5 -0.25 7.9 0.4 10.0 L1.05 10.8 0.95 11.4 Q0.95 12.0 1.95 12.65 2.95 13.35 4.55 13.5 3.7 13.9 3.7 14.35 L3.8 14.8 3.9 14.9 4.65 15.2 Q5.15 14.95 6.75 14.35 7.3 14.15 7.3 13.6 L7.25 13.15 7.15 13.0 6.9 13.0 9.25 11.3 9.9 11.95 Q12.45 10.4 12.45 9.85 L12.4 9.4 12.3 9.2 11.65 9.1 11.3 9.15 13.45 6.45 13.4 7.1 Q13.4 7.7 14.15 8.35 L14.65 8.15 15.3 6.85 15.3 7.05 Q15.3 7.4 16.15 8.5 L17.25 9.55 16.85 9.35 15.05 8.4 14.0 9.9 13.35 11.15 15.55 14.0 Q15.55 14.75 14.9 14.75 L12.65 13.7 Q10.65 12.65 9.95 12.65 L7.7 14.25 Q7.7 14.75 8.25 16.5 L9.15 17.8 9.1 18.15 7.65 16.0 Q6.7 14.55 5.65 14.9 L5.6 14.85 5.55 15.3 Q5.55 15.6 6.65 17.05 7.8 18.5 8.4 18.65 M11.65 11.4 L11.55 11.85 Q11.55 12.05 12.65 13.1 13.85 14.3 14.65 14.45 L15.15 14.15 15.15 13.75 Q13.45 11.35 11.65 11.4 M-6.35 7.5 L-6.15 8.1 Q-5.75 8.6 -4.75 8.6 -4.15 8.6 -3.35 7.9 -3.5 6.75 -4.95 6.7 -6.35 6.65 -6.35 7.5 M-5.1 8.9 Q-5.6 9.15 -5.6 10.8 L-5.55 11.55 -4.85 12.35 -4.35 11.85 -4.5 10.25 Q-4.6 9.2 -5.1 8.9" fill="#402b2a" fill-opacity="0.9882353" fill-rule="evenodd" stroke="none"/>
    <path d="M15.3 6.85 L14.65 8.15 14.15 8.35 Q13.4 7.7 13.4 7.1 L13.45 6.45 13.9 5.25 13.9 5.1 Q14.4 4.45 15.45 4.75 L15.7 4.9 15.8 5.35 15.45 6.55 15.4 6.65 15.3 6.85 M11.3 9.15 L11.65 9.1 12.3 9.2 12.4 9.4 12.45 9.85 Q12.45 10.4 9.9 11.95 L9.25 11.3 10.65 9.85 11.3 9.15 M6.9 13.0 L7.15 13.0 7.25 13.15 7.3 13.6 Q7.3 14.15 6.75 14.35 5.15 14.95 4.65 15.2 L3.9 14.9 3.8 14.8 3.7 14.35 Q3.7 13.9 4.55 13.5 L5.15 13.5 Q5.9 13.5 6.9 13.0 M1.05 10.8 L0.4 10.0 Q-0.25 7.9 -0.7 7.5 -2.4 5.95 -4.9 4.8 L-5.55 4.35 -5.1 3.9 -5.65 2.2 -5.65 2.1 -5.6 1.6 -6.2 -0.8 Q-6.8 -3.3 -6.8 -4.8 L-5.6 -10.25 Q-4.0 -15.65 -1.95 -15.65 -0.35 -15.65 0.35 -14.5 L0.75 -13.95 Q1.2 -12.45 2.6 -9.2 L4.65 -4.65 Q6.3 -1.5 11.65 5.0 7.3 11.35 4.95 11.35 3.75 11.35 3.0 10.9 L1.9 10.45 1.25 10.6 1.05 10.75 1.05 10.8 M-6.35 7.5 Q-6.35 6.65 -4.95 6.7 -3.5 6.75 -3.35 7.9 -4.15 8.6 -4.75 8.6 -5.75 8.6 -6.15 8.1 L-6.35 7.5" fill="#a27666" fill-rule="evenodd" stroke="none"/>
    <path d="M13.45 6.45 L11.3 9.15 10.65 9.85 9.25 11.3 6.9 13.0 Q5.9 13.5 5.15 13.5 L4.55 13.5 Q2.95 13.35 1.95 12.65 0.95 12.0 0.95 11.4 L1.05 10.8 1.05 10.75 1.25 10.6 1.9 10.45 3.0 10.9 Q3.75 11.35 4.95 11.35 7.3 11.35 11.65 5.0 6.3 -1.5 4.65 -4.65 L2.6 -9.2 Q1.2 -12.45 0.75 -13.95 L0.35 -14.5 Q-0.35 -15.65 -1.95 -15.65 -4.0 -15.65 -5.6 -10.25 L-6.8 -4.8 Q-6.8 -3.3 -6.2 -0.8 L-5.6 1.6 -5.65 2.1 -5.65 2.2 -5.1 3.9 -5.55 4.35 -5.6 4.35 Q-6.55 3.7 -6.75 2.7 L-7.05 1.2 -6.95 0.9 -7.3 -0.45 -7.7 -1.8 Q-8.3 -4.1 -8.3 -6.25 L-7.05 -14.55 Q-5.8 -21.85 -5.8 -26.95 L-6.05 -28.25 -6.3 -29.55 -6.1 -31.6 -6.0 -31.95 Q-5.65 -33.35 -3.2 -32.4 -1.3 -31.6 -0.65 -30.05 0.0 -29.2 0.5 -27.85 1.9 -24.2 1.9 -19.9 1.9 -17.65 2.55 -14.05 L2.7 -13.75 Q4.5 -10.6 6.15 -6.25 L9.65 -1.35 11.9 2.15 12.2 2.4 Q13.8 3.8 13.9 5.1 L13.9 5.25 13.45 6.45" fill="#75504a" fill-rule="evenodd" stroke="none"/>
    <path d="M8.4 18.65 Q7.8 18.5 6.65 17.05 5.55 15.6 5.55 15.3 L5.6 14.85 5.65 14.9 Q6.7 14.55 7.65 16.0 L9.1 18.15 9.15 18.2 9.0 18.5 8.5 18.65 8.4 18.65 M17.25 9.55 L16.15 8.5 Q15.3 7.4 15.3 7.05 L15.3 6.85 15.4 6.65 Q16.5 6.35 17.35 7.1 L19.4 9.25 19.25 9.75 18.4 9.9 18.0 9.85 17.25 9.55 M11.65 11.4 Q13.45 11.35 15.15 13.75 L15.15 14.15 14.65 14.45 Q13.85 14.3 12.65 13.1 11.55 12.05 11.55 11.85 L11.65 11.4 M-5.1 8.9 Q-4.6 9.2 -4.5 10.25 L-4.35 11.85 -4.85 12.35 -5.55 11.55 -5.6 10.8 Q-5.6 9.15 -5.1 8.9" fill="#d1aca6" fill-opacity="0.9882353" fill-rule="evenodd" stroke="none"/>
  </g>
</svg>
