<?xml version="1.0" encoding="UTF-8" standalone="no"?>
<svg xmlns:xlink="http://www.w3.org/1999/xlink" height="102.45px" width="58.4px" xmlns="http://www.w3.org/2000/svg">
  <g transform="matrix(1, 0, 0, 1, -41.65, -11.55)">
    <path d="M84.0 17.5 L85.05 17.8 Q85.5 18.5 86.25 19.0 L87.5 19.5 88.35 20.15 87.55 20.15 86.1 20.15 Q86.7 20.85 87.5 22.75 L88.0 24.1 87.7 25.4 87.1 27.4 87.4 29.3 87.4 29.65 87.45 29.65 88.0 28.8 88.3 28.15 88.4 28.3 88.35 28.6 88.8 28.9 88.8 29.85 88.7 31.45 88.4 33.65 Q88.25 33.25 87.75 33.25 L86.55 33.6 Q85.95 33.8 85.1 33.25 83.95 32.5 82.1 32.4 79.65 32.3 77.75 33.3 77.65 32.75 77.0 32.75 76.6 32.75 76.2 33.25 L76.0 33.55 75.85 33.3 75.9 32.35 Q75.9 31.5 74.85 31.5 74.25 31.5 74.05 30.75 73.8 30.0 73.25 30.0 72.8 30.0 72.2 30.45 L71.25 31.15 70.5 30.5 68.55 30.9 67.1 31.25 66.45 31.0 65.75 30.75 62.75 30.0 62.2 30.15 62.0 30.25 62.0 31.25 60.45 31.35 Q59.15 29.25 58.75 29.25 58.2 29.25 58.0 29.65 L57.75 30.25 Q56.9 28.75 55.2 28.95 53.5 29.2 53.5 30.9 L53.55 31.4 53.3 31.35 53.1 31.1 51.8 29.3 51.75 29.25 51.55 28.5 51.15 26.35 51.05 25.55 Q51.05 21.6 53.7 18.55 L54.25 18.0 54.15 18.45 54.15 18.65 Q55.2 16.1 61.6 14.75 L63.95 13.8 66.3 13.5 Q68.6 13.1 74.75 14.45 L77.15 15.05 80.1 16.55 83.65 18.0 Q84.3 18.0 84.05 17.75 L84.05 17.55 84.0 17.5 M88.55 34.15 L88.55 34.4 88.45 34.4 88.45 34.2 88.55 34.15" fill="#452d30" fill-opacity="0.9882353" fill-rule="evenodd" stroke="none"/>
    <path d="M84.0 17.5 L84.05 17.55 84.05 17.75 Q84.3 18.0 83.65 18.0 L80.1 16.55 77.15 15.05 74.75 14.45 Q68.6 13.1 66.3 13.5 L63.95 13.8 61.6 14.75 Q55.2 16.1 54.15 18.65 L54.15 18.45 54.25 18.0 Q54.5 17.05 56.0 16.25 L59.05 14.2 Q61.15 13.1 63.45 12.75 67.8 10.85 73.1 11.95 L72.15 12.0 72.55 12.3 Q73.0 12.5 73.05 12.65 L76.0 13.15 77.7 13.3 Q78.85 13.6 80.1 14.5 L80.45 14.75 80.95 15.15 84.0 17.5 M88.4 33.65 L88.7 31.45 88.8 29.85 88.8 28.9 Q89.4 28.75 89.5 28.3 L89.55 27.3 89.45 26.3 89.55 26.25 90.15 26.35 89.9 28.15 90.1 28.3 89.05 30.3 88.9 30.55 88.7 31.45 Q88.7 31.9 89.7 32.55 L89.2 33.65 88.75 34.05 88.55 34.15 88.45 34.2 88.4 33.65" fill="#613f41" fill-opacity="0.9411765" fill-rule="evenodd" stroke="none"/>
    <path d="M90.55 21.15 L90.8 21.15 90.95 21.15 91.0 21.3 90.55 21.15 M91.85 21.85 L92.3 21.9 Q93.05 21.9 94.95 20.0 L96.0 19.5 95.85 20.0 Q93.05 22.0 93.05 22.55 L93.05 22.75 92.8 23.4 92.75 23.3 92.55 23.0 91.85 21.85 M93.4 26.15 L93.55 26.3 93.05 26.55 93.25 26.05 93.4 26.15" fill="#25181c" fill-opacity="0.38431373" fill-rule="evenodd" stroke="none"/>
    <path d="M91.0 21.3 Q91.5 21.5 91.85 21.85 L92.55 23.0 92.75 23.3 92.8 23.4 92.9 23.55 92.95 23.75 93.35 24.05 93.4 24.7 93.4 25.15 93.25 26.05 93.05 26.55 92.85 26.9 92.7 27.2 92.5 27.55 91.95 28.15 91.05 28.65 90.6 28.6 90.1 28.3 89.9 28.15 90.15 26.35 89.55 26.25 89.45 26.3 89.3 25.0 89.3 24.95 Q90.3 24.75 90.5 22.15 L90.55 21.15 91.0 21.3 M92.1 28.15 L92.05 28.6 92.05 28.45 92.05 28.15 92.1 28.15 M92.05 28.65 Q91.9 31.15 90.55 32.15 L90.6 31.55 90.9 31.1 Q91.95 29.7 92.05 28.65" fill="#53393e" fill-opacity="0.8980392" fill-rule="evenodd" stroke="none"/>
    <path d="M88.8 28.9 L88.35 28.6 88.4 28.3 88.3 28.15 88.0 28.8 87.45 29.65 87.4 29.65 87.4 29.3 87.1 27.4 87.7 25.4 88.0 24.1 87.5 22.75 Q86.7 20.85 86.1 20.15 L87.55 20.15 88.35 20.15 89.1 20.6 Q89.4 21.1 90.55 21.15 L90.5 22.15 Q90.3 24.75 89.3 24.95 L89.3 25.0 89.45 26.3 89.55 27.3 89.5 28.3 Q89.4 28.75 88.8 28.9" fill="#6e464a" fill-opacity="0.9882353" fill-rule="evenodd" stroke="none"/>
    <path d="M96.0 19.5 L96.5 19.1 96.7 19.0 97.1 19.15 96.45 19.55 95.85 20.0 96.0 19.5 M93.05 22.75 L93.3 22.45 92.9 23.55 92.8 23.4 93.05 22.75 M92.95 23.75 Q93.6 23.15 94.8 22.6 95.95 22.1 99.05 21.25 L99.65 21.4 Q97.8 22.3 93.35 24.05 L92.95 23.75 M93.4 24.7 L94.25 24.45 95.85 23.8 Q98.8 22.6 100.05 22.3 L96.55 24.15 98.65 24.4 93.35 25.9 93.4 26.15 93.25 26.05 93.4 25.15 93.4 24.7 M93.55 26.3 Q93.9 26.65 94.65 26.65 L97.55 26.15 96.1 26.8 93.55 27.3 92.7 27.2 92.85 26.9 93.05 26.55 93.55 26.3 M92.5 27.55 L92.8 27.65 96.55 28.3 97.15 28.4 92.1 28.15 92.05 28.15 91.95 28.15 92.5 27.55" fill="#130c0e" fill-opacity="0.18431373" fill-rule="evenodd" stroke="none"/>
    <path d="M92.05 28.6 L92.05 28.65 Q91.95 29.7 90.9 31.1 L90.6 31.55 90.55 32.15 90.3 32.9 88.75 34.05 89.2 33.65 89.7 32.55 Q88.7 31.9 88.7 31.45 L88.9 30.55 89.05 30.3 90.1 28.3 90.6 28.6 91.05 28.65 91.95 28.15 92.05 28.15 92.05 28.45 92.05 28.6" fill="#644c4d" fill-opacity="0.9254902" fill-rule="evenodd" stroke="none"/>
    <path d="M75.6 40.15 L75.75 40.05 76.25 39.8 76.05 40.0 Q75.95 40.1 75.8 40.15 L75.6 40.15 M76.45 39.65 L77.35 39.1 77.35 39.15 77.4 39.5 78.05 39.75 78.1 39.9 78.15 39.85 78.15 39.9 78.1 39.9 78.05 39.9 76.55 39.85 76.5 39.65 76.45 39.65 M70.25 39.75 L70.4 39.9 70.2 39.9 70.25 39.75" fill="#160f10" fill-opacity="0.99215686" fill-rule="evenodd" stroke="none"/>
    <path d="M53.55 31.4 L53.5 30.9 Q53.5 29.2 55.2 28.95 56.9 28.75 57.75 30.25 L58.0 29.65 Q58.2 29.25 58.75 29.25 59.15 29.25 60.45 31.35 L62.0 31.25 62.0 30.25 62.2 30.15 62.75 30.0 65.75 30.75 66.45 31.0 67.1 31.25 68.55 30.9 70.5 30.5 71.25 31.15 72.2 30.45 Q72.8 30.0 73.25 30.0 73.8 30.0 74.05 30.75 74.25 31.5 74.85 31.5 75.9 31.5 75.9 32.35 L75.85 33.3 76.0 33.55 76.2 33.25 Q76.6 32.75 77.0 32.75 77.65 32.75 77.75 33.3 79.65 32.3 82.1 32.4 83.95 32.5 85.1 33.25 85.95 33.8 86.55 33.6 L87.75 33.25 Q88.25 33.25 88.4 33.65 L88.45 34.2 88.45 34.4 88.4 34.6 Q88.4 35.55 88.1 35.9 87.6 36.45 85.4 37.0 L86.15 38.3 86.4 39.4 86.25 39.55 86.75 40.1 86.6 40.35 Q87.7 41.9 89.9 47.0 L90.55 48.45 91.2 51.25 91.6 53.0 Q92.85 58.65 92.85 60.05 L92.85 61.6 92.65 62.3 93.0 63.75 93.25 63.6 93.35 64.65 93.65 65.65 93.8 66.0 94.95 70.1 95.2 72.4 95.15 72.8 95.05 72.9 94.65 71.45 94.55 71.55 94.0 69.85 94.5 74.15 94.55 75.15 94.15 75.15 Q94.8 77.65 94.8 79.35 L94.8 79.95 95.0 80.15 95.8 81.35 95.9 80.3 96.05 77.8 96.3 77.75 Q96.65 78.8 96.65 80.25 L96.45 82.2 96.75 81.05 Q97.1 79.3 98.05 78.5 L98.3 78.55 98.4 78.95 98.4 79.15 98.55 79.15 98.6 79.55 98.25 82.0 97.9 84.85 97.55 85.15 97.55 86.15 97.55 87.1 97.55 87.15 97.0 87.15 96.75 86.55 96.8 85.7 96.8 85.65 96.8 85.55 96.75 85.4 96.1 84.7 96.0 84.65 96.0 84.6 95.0 83.5 Q94.75 82.5 92.6 80.75 L91.05 79.6 Q90.95 78.8 88.9 77.8 85.2 75.1 82.95 75.0 L77.3 75.4 70.2 75.75 Q69.75 75.85 69.45 76.2 L67.95 76.0 60.55 72.65 Q57.3 72.65 51.5 68.3 49.6 66.85 48.95 67.1 48.15 67.35 48.05 69.85 47.55 70.15 47.55 70.8 47.15 70.85 47.1 71.5 46.8 72.1 46.8 73.1 L46.8 73.25 46.55 73.15 46.55 75.15 46.55 76.15 46.55 78.15 46.55 79.15 45.55 79.15 44.8 78.9 44.55 78.15 Q48.75 64.1 53.45 50.9 L50.6 54.5 47.25 59.4 47.15 59.3 Q46.75 59.6 46.3 60.65 L45.95 60.55 45.9 60.2 Q47.35 56.65 48.75 54.55 49.35 52.65 51.95 47.95 L54.2 43.95 54.5 43.5 55.3 42.2 55.55 41.8 55.6 41.6 55.6 41.55 55.55 41.5 55.6 41.5 55.9 40.5 55.85 39.85 56.0 36.4 Q55.9 35.15 54.7 33.5 53.75 32.25 53.55 31.4 M75.6 40.15 L74.8 40.6 75.05 40.65 Q72.9 41.95 72.9 44.05 L73.05 44.9 74.55 43.9 79.7 41.3 Q79.95 40.45 80.7 39.75 L82.1 39.5 Q84.8 38.95 85.0 38.65 82.5 37.65 80.1 38.15 78.75 38.4 78.25 38.9 L77.45 38.85 77.35 39.1 76.45 39.65 76.25 39.8 75.75 40.05 75.6 40.15 M53.65 49.15 L53.2 49.9 53.05 50.15 Q53.45 49.85 53.9 49.6 L54.05 49.15 53.65 49.15 M70.25 39.75 L70.2 39.9 70.4 39.9 70.25 39.75" fill="#452d2f" fill-opacity="0.99607843" fill-rule="evenodd" stroke="none"/>
    <path d="M55.3 42.2 L55.3 41.95 55.3 41.8 55.6 41.6 55.55 41.8 55.3 42.2 M77.35 39.1 L77.45 38.85 78.25 38.9 Q78.75 38.4 80.1 38.15 82.5 37.65 85.0 38.65 84.8 38.95 82.1 39.5 L80.7 39.75 Q79.95 40.45 79.7 41.3 L74.55 43.9 73.05 44.9 72.9 44.05 Q72.9 41.95 75.05 40.65 L74.8 40.6 75.6 40.15 75.8 40.15 Q75.95 40.1 76.05 40.0 L76.25 39.8 76.45 39.65 76.5 39.65 76.55 39.85 78.05 39.9 78.1 39.9 78.15 39.9 78.15 39.85 78.1 39.9 78.05 39.75 77.4 39.5 77.35 39.15 77.35 39.1" fill="#211717" fill-opacity="0.9764706" fill-rule="evenodd" stroke="none"/>
    <path d="M97.8 62.45 L98.55 65.15 98.15 65.1 98.15 64.95 97.8 62.45" fill="#1b1112" fill-opacity="0.44313726" fill-rule="evenodd" stroke="none"/>
    <path d="M92.45 50.05 L92.8 50.55 92.8 50.7 93.15 53.4 94.05 56.55 94.75 58.65 Q94.75 59.4 93.85 59.25 L94.4 61.1 94.75 62.65 Q94.75 63.2 94.4 63.2 L94.1 63.25 94.45 64.4 94.95 70.1 93.8 66.0 93.65 65.65 93.35 64.65 93.25 63.6 93.0 63.75 92.65 62.3 92.85 61.6 92.85 60.05 Q92.85 58.65 91.6 53.0 L91.2 51.25 91.15 50.35 91.2 49.9 92.0 51.5 Q92.6 51.5 92.5 51.25 L92.5 50.55 92.45 50.05 M95.05 72.9 L95.05 75.15 94.55 75.15 94.5 74.15 94.0 69.85 94.55 71.55 94.65 71.45 95.05 72.9" fill="#5f3e40" fill-opacity="0.99607843" fill-rule="evenodd" stroke="none"/>
    <path d="M86.75 40.1 L86.75 40.0 Q87.85 40.65 90.15 44.75 92.15 48.35 92.45 50.05 L92.5 50.55 92.5 51.25 Q92.6 51.5 92.0 51.5 L91.2 49.9 91.15 50.35 91.2 51.25 90.55 48.45 89.9 47.0 Q87.7 41.9 86.6 40.35 L86.75 40.1 M92.8 50.55 Q93.95 52.45 95.3 55.55 97.15 59.75 97.8 62.45 L98.15 64.95 98.15 65.1 98.55 65.15 98.55 66.15 98.55 67.15 98.55 78.15 98.55 79.15 98.4 79.15 98.4 78.95 98.3 78.55 98.05 78.5 Q97.1 79.3 96.75 81.05 L96.45 82.2 96.65 80.25 Q96.65 78.8 96.3 77.75 L96.05 77.8 95.9 80.3 95.8 81.35 95.0 80.15 94.8 79.95 94.8 79.35 Q94.8 77.65 94.15 75.15 L94.55 75.15 95.05 75.15 95.05 72.9 95.15 72.8 95.2 72.4 94.95 70.1 94.45 64.4 94.1 63.25 94.4 63.2 Q94.75 63.2 94.75 62.65 L94.4 61.1 93.85 59.25 Q94.75 59.4 94.75 58.65 L94.05 56.55 93.15 53.4 92.8 50.7 92.8 50.55" fill="#694547" fill-opacity="0.9843137" fill-rule="evenodd" stroke="none"/>
    <path d="M98.55 67.15 L99.05 67.2 99.15 67.8 99.05 68.5 99.05 75.05 98.6 79.55 98.55 79.15 98.55 78.15 98.55 67.15 M97.9 84.85 L97.7 86.7 97.55 87.1 97.55 86.15 97.55 85.15 97.9 84.85" fill="#261819" fill-opacity="0.42745098" fill-rule="evenodd" stroke="none"/>
    <path d="M95.0 83.5 Q94.15 82.8 92.55 82.0 L92.55 81.65 Q92.55 80.85 90.1 78.95 86.8 76.4 82.4 76.4 L78.5 76.8 78.55 77.05 Q78.55 77.55 75.75 78.8 L71.45 80.1 71.2 80.2 Q70.85 81.05 69.25 81.75 66.8 82.9 62.4 82.9 58.4 82.9 56.35 80.25 L55.6 78.7 Q52.65 76.4 52.35 75.3 51.3 74.5 50.85 73.6 L49.75 72.4 Q48.7 71.3 48.1 70.95 L48.05 70.35 48.05 69.85 Q48.15 67.35 48.95 67.1 49.6 66.85 51.5 68.3 57.3 72.65 60.55 72.65 L67.95 76.0 69.45 76.2 Q69.75 75.85 70.2 75.75 L77.3 75.4 82.95 75.0 Q85.2 75.1 88.9 77.8 90.95 78.8 91.05 79.6 L92.6 80.75 Q94.75 82.5 95.0 83.5 M94.65 86.9 L95.6 86.15 96.05 84.95 96.0 84.65 96.1 84.7 96.75 85.4 96.8 85.55 96.8 85.65 96.8 85.7 96.75 86.55 Q96.5 87.4 95.8 87.4 95.1 87.4 94.65 86.9 M54.05 73.65 L54.2 73.65 53.6 73.6 53.65 73.65 54.05 73.65 M55.4 74.6 L57.0 74.9 56.95 74.85 Q56.2 74.3 55.45 74.0 L55.45 74.4 55.4 74.6" fill="#3f292c" fill-opacity="0.99215686" fill-rule="evenodd" stroke="none"/>
    <path d="M48.1 70.95 Q48.7 71.3 49.75 72.4 L50.85 73.6 Q51.3 74.5 52.35 75.3 52.65 76.4 55.6 78.7 L56.35 80.25 Q58.4 82.9 62.4 82.9 66.8 82.9 69.25 81.75 70.85 81.05 71.2 80.2 L71.45 80.1 75.75 78.8 Q78.55 77.55 78.55 77.05 L78.5 76.8 82.4 76.4 Q86.8 76.4 90.1 78.95 92.55 80.85 92.55 81.65 L92.55 82.0 Q94.15 82.8 95.0 83.5 L96.0 84.6 96.0 84.65 96.05 84.95 95.6 86.15 94.65 86.9 94.55 86.9 94.25 86.6 94.3 86.05 Q94.3 85.6 90.4 82.2 86.1 78.4 83.9 78.4 L80.5 78.95 Q80.1 80.0 75.15 81.3 L74.85 81.4 73.75 81.85 Q68.9 83.9 66.05 83.9 L64.3 83.75 63.4 83.75 Q59.8 83.75 57.3 82.5 L55.55 81.35 Q53.55 80.45 51.85 78.5 L50.1 76.2 49.4 75.45 49.0 75.0 48.55 74.45 Q47.05 72.55 47.05 71.8 L47.1 71.5 Q47.15 70.85 47.55 70.8 L48.1 70.95 M84.05 82.9 Q81.65 82.9 81.05 82.35 L80.9 82.1 84.45 82.9 84.05 82.9" fill="#382527" fill-opacity="0.99215686" fill-rule="evenodd" stroke="none"/>
    <path d="M97.55 87.15 Q97.4 87.9 97.55 89.15 L96.3 93.55 96.3 94.85 96.25 96.1 95.55 97.65 95.9 99.75 Q95.2 100.7 95.1 101.7 L95.3 99.2 94.8 101.2 95.05 102.55 95.05 102.9 95.15 103.2 95.25 103.8 94.8 104.8 94.8 104.6 94.7 104.6 94.65 104.95 94.75 104.95 Q94.05 106.6 94.05 107.3 L94.15 107.9 94.4 108.2 94.3 109.35 94.8 110.45 94.8 110.5 94.65 111.85 94.65 111.9 Q94.7 112.15 94.05 112.15 L93.8 112.15 Q92.5 111.85 91.55 109.0 L90.65 105.4 90.0 103.7 88.2 101.5 86.3 99.1 86.25 99.05 Q82.3 91.0 72.55 93.15 L72.55 94.15 71.65 94.35 Q66.2 97.4 60.55 93.15 L60.45 92.65 Q59.9 92.5 59.65 92.15 L59.8 92.05 59.5 91.85 Q59.25 91.2 59.55 90.15 L60.05 90.15 Q59.4 85.8 54.55 85.15 54.05 85.15 53.95 84.95 52.15 81.55 49.55 79.15 L49.55 78.15 49.4 75.45 50.1 76.2 51.85 78.5 Q53.55 80.45 55.55 81.35 L57.3 82.5 Q59.8 83.75 63.4 83.75 L64.3 83.75 66.05 83.9 Q68.9 83.9 73.75 81.85 L74.85 81.4 75.15 81.3 Q80.1 80.0 80.5 78.95 L83.9 78.4 Q86.1 78.4 90.4 82.2 94.3 85.6 94.3 86.05 L94.25 86.6 94.55 86.9 94.65 86.9 Q95.1 87.4 95.8 87.4 96.5 87.4 96.75 86.55 L97.0 87.15 97.55 87.15 M48.05 69.85 L48.05 70.35 48.1 70.95 47.55 70.8 Q47.55 70.15 48.05 69.85 M47.1 71.5 L47.05 71.8 Q47.05 72.55 48.55 74.45 L48.05 74.65 47.95 74.65 46.55 76.15 46.55 75.15 46.55 73.15 46.8 73.25 46.8 73.1 Q46.8 72.1 47.1 71.5 M84.05 82.9 L84.45 82.9 80.9 82.1 81.05 82.35 Q81.65 82.9 84.05 82.9 M95.4 97.55 L95.45 97.55 95.35 97.45 95.4 97.8 95.4 97.55 M47.75 88.25 L47.7 86.9 Q47.7 86.05 48.05 85.8 48.6 88.1 49.1 89.3 L49.35 89.9 Q49.95 91.3 51.05 92.9 L51.2 92.65 51.8 91.55 Q52.5 91.55 52.7 91.85 L52.95 92.4 53.7 91.4 Q54.25 90.8 54.9 90.8 L55.15 91.15 53.85 93.7 52.55 95.9 52.2 95.6 52.05 95.4 51.95 96.4 Q51.85 97.1 51.3 97.4 L51.25 97.3 Q49.15 93.85 48.45 91.95 47.9 90.3 47.75 88.25" fill="#301e20" fill-opacity="0.99215686" fill-rule="evenodd" stroke="none"/>
    <path d="M88.5 104.2 L87.5 103.2 87.7 104.15 87.55 104.4 86.8 102.4 85.75 100.9 85.65 100.9 83.9 97.8 83.3 97.5 82.3 97.1 80.85 95.9 Q79.65 95.0 78.0 94.6 75.45 93.45 74.5 94.15 L73.55 94.15 72.55 94.15 72.55 93.15 Q82.3 91.0 86.25 99.05 L85.85 98.6 86.3 99.2 Q89.3 103.0 89.3 104.2 L89.3 104.65 89.15 104.8 88.5 104.2 M82.45 95.55 L81.05 94.65 81.05 94.9 Q81.05 95.25 83.55 97.3 L81.8 95.65 82.45 95.6 82.45 95.55" fill="#251919" fill-opacity="0.9254902" fill-rule="evenodd" stroke="none"/>
    <path d="M90.3 111.0 L89.95 109.5 89.2 105.9 88.5 104.2 89.15 104.8 89.3 104.65 89.3 104.2 Q89.3 103.0 86.3 99.2 L85.85 98.6 86.25 99.05 86.3 99.1 88.2 101.5 90.0 103.7 90.65 105.4 91.55 109.0 Q92.5 111.85 93.8 112.15 L92.85 112.55 91.8 112.9 Q90.9 112.9 90.3 111.0 M82.45 95.55 L82.45 95.6 81.8 95.65 83.55 97.3 Q81.05 95.25 81.05 94.9 L81.05 94.65 82.45 95.55" fill="#1a1011" fill-opacity="0.79607844" fill-rule="evenodd" stroke="none"/>
    <path d="M77.7 13.3 L76.0 13.15 73.05 12.65 Q73.0 12.5 72.55 12.3 L72.15 12.0 73.1 11.95 Q75.65 11.9 77.7 13.3" fill="#735c55" fill-opacity="0.84313726" fill-rule="evenodd" stroke="none"/>
    <path d="M80.45 14.75 L80.8 14.9 80.95 15.15 80.45 14.75" fill="#cbbaa1" fill-opacity="0.8901961" fill-rule="evenodd" stroke="none"/>
    <path d="M44.7 64.15 L44.8 63.55 44.8 63.0 44.85 62.75 45.95 60.55 46.3 60.65 Q46.75 59.6 47.15 59.3 L47.25 59.4 50.6 54.5 53.45 50.9 Q48.75 64.1 44.55 78.15 L44.8 78.9 45.55 79.15 45.65 80.15 Q46.15 82.45 45.05 83.0 L44.55 81.55 44.2 81.75 44.5 84.15 44.3 84.15 43.95 82.7 Q43.55 78.45 43.55 74.15 L43.7 73.9 43.65 73.3 Q43.65 70.95 44.8 65.85 L45.1 64.65 45.05 64.15 44.7 64.15 M53.65 49.15 L54.05 49.15 53.9 49.6 Q53.45 49.85 53.05 50.15 L53.2 49.9 53.65 49.15" fill="#4c3133" fill-opacity="0.972549" fill-rule="evenodd" stroke="none"/>
    <path d="M54.2 43.95 L54.35 43.6 54.5 43.5 54.2 43.95" fill="#120b0c" fill-opacity="0.45882353" fill-rule="evenodd" stroke="none"/>
    <path d="M47.0 96.3 L46.9 96.3 46.6 95.85 45.2 93.55 44.7 92.55 44.5 92.15 Q44.05 92.15 43.95 91.95 L42.9 89.3 42.55 87.75 42.55 87.15 42.55 75.25 44.05 67.15 44.05 66.45 44.7 64.15 45.05 64.15 45.1 64.65 44.8 65.85 Q43.65 70.95 43.65 73.3 L43.7 73.9 43.55 74.15 Q43.55 78.45 43.95 82.7 L44.3 84.15 44.5 84.15 44.2 81.75 44.55 81.55 45.05 83.0 Q45.55 85.1 45.65 88.75 45.8 93.45 47.3 96.05 L47.0 96.3 M44.8 89.55 L44.95 89.5 44.7 87.9 44.8 89.55" fill="#59383a" fill-opacity="0.8784314" fill-rule="evenodd" stroke="none"/>
    <path d="M55.4 74.6 L55.45 74.4 55.45 74.0 Q56.2 74.3 56.95 74.85 L57.0 74.9 55.4 74.6 M54.05 73.65 L53.65 73.65 53.6 73.6 54.2 73.65 54.05 73.65" fill="#3e282b" fill-opacity="0.99215686" fill-rule="evenodd" stroke="none"/>
    <path d="M60.8 96.95 L59.3 94.05 58.55 92.85 58.5 92.8 58.3 92.9 Q57.55 92.9 57.2 92.45 L57.2 92.4 56.85 93.05 56.55 92.8 56.55 93.15 55.55 93.15 55.55 94.15 Q55.55 95.15 55.95 95.95 56.05 96.15 56.55 96.15 L56.5 97.15 56.4 97.5 Q54.6 96.3 54.55 98.35 L53.55 98.15 Q52.95 100.3 54.45 100.65 L54.55 101.15 53.7 100.95 Q51.15 99.45 49.0 97.55 L50.6 97.65 51.25 97.3 51.3 97.4 Q51.85 97.1 51.95 96.4 L52.05 95.4 52.2 95.6 52.55 95.9 53.85 93.7 55.15 91.15 54.9 90.8 Q54.25 90.8 53.7 91.4 L52.95 92.4 52.7 91.85 Q52.5 91.55 51.8 91.55 L51.2 92.65 51.05 92.9 Q49.95 91.3 49.35 89.9 48.2 85.25 48.55 79.15 L49.55 79.15 Q52.15 81.55 53.95 84.95 54.05 85.15 54.55 85.15 56.15 88.05 58.7 89.9 L59.55 90.15 Q59.25 91.2 59.5 91.85 L59.8 92.05 59.65 92.15 Q59.9 92.5 60.45 92.65 L60.55 93.15 60.1 93.15 61.3 95.15 Q62.9 98.4 62.9 101.2 L62.75 102.65 62.65 102.9 62.3 102.9 61.9 100.3 60.8 96.95 M48.75 97.35 L48.55 97.15 48.8 97.2 48.75 97.35" fill="#1b1112" fill-opacity="0.972549" fill-rule="evenodd" stroke="none"/>
    <path d="M48.55 74.45 L49.0 75.0 49.4 75.45 49.55 78.15 49.55 79.15 48.55 79.15 Q48.2 85.25 49.35 89.9 L49.1 89.3 Q48.6 88.1 48.05 85.8 47.7 86.05 47.7 86.9 L47.75 88.25 Q46.65 84.15 46.55 79.15 L46.55 78.15 46.55 76.15 47.95 74.65 48.05 74.65 48.55 74.45" fill="#201415" fill-opacity="0.99607843" fill-rule="evenodd" stroke="none"/>
    <path d="M42.55 87.75 L41.65 82.95 42.05 80.95 42.45 75.75 42.55 75.25 42.55 87.15 42.55 87.75" fill="#42292b" fill-opacity="0.5882353" fill-rule="evenodd" stroke="none"/>
    <path d="M49.0 97.55 L48.75 97.4 48.75 97.35 48.8 97.2 48.55 97.15 47.75 96.9 47.0 96.3 47.3 96.05 Q45.8 93.45 45.65 88.75 45.55 85.1 45.05 83.0 46.15 82.45 45.65 80.15 L45.55 79.15 46.55 79.15 Q46.65 84.15 47.75 88.25 47.9 90.3 48.45 91.95 49.15 93.85 51.25 97.3 L50.6 97.65 49.0 97.55 M46.6 95.85 Q45.3 94.5 44.7 92.55 L45.2 93.55 46.6 95.85 M44.8 89.55 L44.7 87.9 44.95 89.5 44.8 89.55" fill="#462c2f" fill-opacity="0.9607843" fill-rule="evenodd" stroke="none"/>
    <path d="M54.55 85.15 Q59.4 85.8 60.05 90.15 L59.55 90.15 58.7 89.9 Q56.15 88.05 54.55 85.15" fill="#251718" fill-rule="evenodd" stroke="none"/>
    <path d="M57.7 94.25 L56.8 93.65 56.7 93.3 56.85 93.05 57.2 92.4 57.2 92.45 Q57.55 92.9 58.3 92.9 L58.5 92.8 58.55 92.85 58.45 93.4 57.55 93.15 Q57.55 93.75 57.7 94.25 M56.85 94.0 L57.25 95.15 56.55 95.15 56.55 96.15 Q56.05 96.15 55.95 95.95 55.55 95.15 55.55 94.15 L56.85 94.0" fill="#51483f" fill-opacity="0.7137255" fill-rule="evenodd" stroke="none"/>
    <path d="M72.55 94.15 L72.4 95.0 Q71.65 95.8 70.55 97.75 68.75 100.9 68.05 103.15 L67.55 103.15 Q67.1 105.25 67.55 106.45 L67.55 107.55 Q66.95 107.6 66.25 108.15 L65.85 107.9 Q64.0 105.55 62.75 102.65 L62.9 101.2 Q62.9 98.4 61.3 95.15 L60.1 93.15 60.55 93.15 Q66.2 97.4 71.65 94.35 L72.55 94.15 M67.8 108.1 L67.85 108.15 67.75 108.15 67.8 108.1 M61.55 99.15 L61.05 99.15 61.05 98.9 60.8 96.95 61.9 100.3 61.55 99.15 M56.55 93.15 L56.85 94.0 55.55 94.15 55.55 93.15 56.55 93.15" fill="#201415" fill-opacity="0.94509804" fill-rule="evenodd" stroke="none"/>
    <path d="M59.3 94.05 L60.05 96.9 59.8 97.15 Q58.15 96.05 57.7 94.25 57.55 93.75 57.55 93.15 L58.45 93.4 58.55 92.85 59.3 94.05 M57.25 95.15 L57.85 97.05 Q58.7 99.4 59.35 100.3 L59.35 100.35 57.55 98.45 56.4 97.5 56.5 97.15 56.55 96.15 56.55 95.15 57.25 95.15 M54.55 98.35 L54.55 98.45 56.2 100.7 57.8 102.25 Q56.55 102.65 54.55 101.15 L54.45 100.65 Q52.95 100.3 53.55 98.15 L54.55 98.35" fill="#8c7968" fill-opacity="0.7529412" fill-rule="evenodd" stroke="none"/>
    <path d="M80.85 95.9 L80.05 95.65 78.0 94.6 Q79.65 95.0 80.85 95.9" fill="#ad927f" fill-opacity="0.8392157" fill-rule="evenodd" stroke="none"/>
    <path d="M68.05 103.15 Q67.55 104.7 67.55 105.85 L67.55 106.45 Q67.1 105.25 67.55 103.15 L68.05 103.15 M70.6 109.15 L70.7 109.15 70.75 109.3 70.6 109.35 70.6 109.15 M71.0 110.05 L71.05 110.15 70.9 110.15 71.0 110.05" fill="#201311" fill-opacity="0.34901962" fill-rule="evenodd" stroke="none"/>
    <path d="M94.8 110.5 L95.4 110.4 95.55 110.45 95.55 111.45 96.9 111.05 97.15 111.4 96.55 112.1 96.2 112.35 94.55 113.4 94.45 113.55 94.25 113.8 93.8 114.0 Q91.15 114.0 90.5 112.75 L90.3 111.0 Q90.9 112.9 91.8 112.9 L92.85 112.55 94.3 112.35 94.9 111.85 95.1 111.75 94.65 111.85 94.8 110.5 M67.85 108.15 Q68.55 109.15 70.55 109.15 L70.6 109.15 70.6 109.35 70.75 109.3 71.15 109.15 71.3 109.2 71.3 109.6 71.0 110.05 70.9 110.15 70.55 110.4 70.4 110.7 69.35 111.0 69.3 111.0 Q67.7 111.75 66.7 111.9 L66.3 111.9 64.95 111.65 65.35 111.4 Q64.3 111.4 63.85 110.85 L64.85 110.9 Q65.85 110.9 66.85 109.6 L67.75 108.15 67.85 108.15" fill="#5f3a31" fill-opacity="0.78431374" fill-rule="evenodd" stroke="none"/>
    <path d="M67.55 107.55 L67.65 107.55 67.9 107.9 67.8 108.1 67.75 108.15 66.85 109.6 Q65.85 110.9 64.85 110.9 L63.85 110.85 62.15 110.65 62.05 109.45 61.8 108.9 61.4 107.1 61.4 107.05 Q61.4 105.85 61.55 105.5 L61.55 105.15 61.55 99.15 61.9 100.3 62.3 102.9 62.65 102.9 62.75 102.65 Q64.0 105.55 65.85 107.9 L66.25 108.15 Q66.95 107.6 67.55 107.55" fill="#140d0e" fill-opacity="0.84313726" fill-rule="evenodd" stroke="none"/>
    <path d="M66.7 111.9 Q60.65 113.05 61.4 107.1 L61.8 108.9 62.05 109.45 62.15 110.65 63.85 110.85 Q64.3 111.4 65.35 111.4 L64.95 111.65 66.3 111.9 66.7 111.9" fill="#0b0707" fill-opacity="0.47843137" fill-rule="evenodd" stroke="none"/>
    <path d="M96.55 112.1 L96.8 112.15 Q95.15 113.0 94.4 113.85 L94.25 113.8 94.45 113.55 94.55 113.4 96.2 112.35 96.55 112.1 M93.8 112.15 L94.05 112.15 Q94.7 112.15 94.65 111.9 L94.65 111.85 95.1 111.75 94.9 111.85 94.3 112.35 92.85 112.55 93.8 112.15" fill="#4e302b" fill-opacity="0.8117647" fill-rule="evenodd" stroke="none"/>
  </g>
</svg>
