<?xml version="1.0" encoding="UTF-8" standalone="no"?>
<svg xmlns:xlink="http://www.w3.org/1999/xlink" height="46.45px" width="147.75px" xmlns="http://www.w3.org/2000/svg">
  <g transform="matrix(1, 0, 0, 1, 0.0, 0.0)">
    <path d="M112.5 2.65 L113.5 2.65 113.75 2.75 Q114.25 3.05 114.5 3.65 L114.3 4.15 114.05 4.65 111.15 4.8 109.75 4.65 Q108.85 4.65 107.5 5.15 L107.35 5.15 101.75 5.15 94.0 5.15 93.15 5.1 93.05 4.9 92.1 4.8 91.9 4.85 91.55 4.8 91.45 4.75 90.55 4.55 89.7 4.35 89.45 4.3 87.5 3.35 87.5 3.1 87.5 3.05 Q87.5 2.25 87.95 2.1 L90.8 2.05 Q102.1 2.6 112.5 2.65 M145.0 3.15 L145.8 4.25 146.0 5.15 Q145.5 5.15 145.3 5.4 144.25 6.85 142.0 7.15 L141.0 7.15 129.55 7.15 126.1 7.35 126.05 7.15 123.35 7.3 120.4 7.45 120.05 6.65 111.65 5.4 111.55 5.15 Q121.25 5.1 131.0 4.65 L131.0 4.15 Q136.65 2.8 144.0 3.15 L145.0 3.15" fill="#c57d6a" fill-rule="evenodd" stroke="none"/>
    <path d="M113.75 2.75 Q128.95 2.15 145.0 2.65 L145.0 3.15 144.0 3.15 Q136.65 2.8 131.0 4.15 L130.0 4.15 114.3 4.15 114.5 3.65 Q114.25 3.05 113.75 2.75" fill="#d7a48e" fill-rule="evenodd" stroke="none"/>
    <path d="M146.0 5.15 L146.0 6.15 146.05 7.15 Q146.7 11.35 145.0 13.15 145.1 17.55 145.9 21.15 L146.0 22.15 146.05 23.15 Q146.55 32.7 140.0 35.15 L139.0 35.15 118.0 35.15 118.0 36.15 117.0 36.15 Q92.4 37.4 69.0 36.15 62.25 39.9 54.05 42.3 51.0 43.15 48.3 44.7 40.45 49.2 37.0 42.15 L37.05 42.1 37.25 42.5 38.0 42.65 38.5 42.45 38.5 42.55 Q38.5 43.8 38.8 43.4 L38.95 43.55 40.0 43.65 Q41.3 43.65 43.95 41.95 L44.7 41.5 Q51.1 41.5 56.35 37.65 L56.95 37.3 56.0 38.45 Q56.3 38.9 57.0 39.15 58.85 38.0 65.6 34.55 L66.6 34.05 84.0 33.4 Q89.75 33.9 92.0 32.15 L91.0 32.2 Q84.75 32.4 82.0 29.15 L114.0 27.2 115.0 27.15 115.75 27.4 116.0 28.15 115.05 28.3 Q110.7 29.85 105.0 30.15 108.25 31.9 114.0 31.45 L122.25 31.0 123.0 31.15 131.0 31.15 135.8 29.5 Q137.95 28.6 138.5 27.75 L138.3 27.2 137.65 26.8 138.0 26.15 137.85 26.1 Q138.15 26.0 138.25 25.75 L138.5 25.15 Q138.0 24.2 136.2 23.55 L135.0 23.2 135.0 23.15 134.2 21.65 Q133.8 20.9 133.8 20.15 133.8 19.45 134.75 18.5 L136.0 17.15 135.55 16.4 Q136.0 16.15 134.75 16.15 L133.6 16.35 133.0 16.65 Q132.7 15.65 131.3 14.35 L132.1 13.65 Q135.35 11.25 139.0 10.7 L138.55 11.15 138.15 11.4 Q138.0 11.6 138.0 12.4 138.0 13.2 138.25 13.4 L139.0 13.65 141.1 11.4 143.5 8.65 Q143.2 7.95 142.5 7.65 L141.45 7.6 142.0 7.15 Q144.25 6.85 145.3 5.4 145.5 5.15 146.0 5.15 M130.05 17.05 L130.15 17.15 130.1 17.15 130.05 17.05" fill="#6d4750" fill-rule="evenodd" stroke="none"/>
    <path d="M141.45 7.6 L142.5 7.65 Q143.2 7.95 143.5 8.65 L141.1 11.4 139.0 13.65 138.25 13.4 Q138.0 13.2 138.0 12.4 138.0 11.6 138.15 11.4 L138.55 11.15 139.0 10.7 Q135.35 11.25 132.1 13.65 L131.3 14.35 Q132.7 15.65 133.0 16.65 L133.6 16.35 134.75 16.15 Q136.0 16.15 135.55 16.4 L136.0 17.15 134.75 18.5 Q133.8 19.45 133.8 20.15 133.8 20.9 134.2 21.65 L135.0 23.15 135.0 23.2 136.2 23.55 Q138.0 24.2 138.5 25.15 L138.25 25.75 Q138.15 26.0 137.85 26.1 L137.25 26.15 136.7 26.15 Q134.75 24.9 133.8 24.6 L132.6 24.35 132.5 23.8 132.55 23.15 Q131.8 22.4 131.55 21.4 L131.05 18.65 Q130.8 17.9 130.15 17.15 L130.05 17.05 129.45 16.45 129.05 16.05 128.3 16.5 128.1 16.3 127.0 15.4 Q127.0 14.75 127.55 13.9 128.2 12.9 129.0 12.7 L127.25 11.35 127.1 11.15 125.75 11.15 Q125.05 10.6 124.0 10.15 L119.5 10.15 119.25 10.15 119.0 9.95 119.15 9.65 117.0 9.65 116.25 9.4 Q116.0 9.2 116.0 8.4 L116.0 8.35 114.85 7.8 114.8 7.8 113.85 7.5 109.75 7.25 107.65 7.45 107.55 7.15 111.05 6.85 112.0 5.95 111.65 5.4 120.05 6.65 120.4 7.45 123.35 7.3 126.05 7.15 126.1 7.35 129.55 7.15 129.8 7.3 Q130.0 7.4 130.0 8.0 L141.45 7.6 M107.35 5.15 L107.5 5.15 106.2 5.65 105.8 5.8 Q106.2 5.3 107.35 5.15 M94.7 5.85 L103.85 6.15 94.8 6.45 Q94.95 6.25 94.7 5.85 M106.9 9.15 L91.0 10.15 Q87.5 9.2 83.05 9.65 80.75 9.9 77.0 7.15 80.45 7.05 82.75 6.1 L83.5 6.65 86.5 6.9 Q86.5 8.3 87.5 8.65 L98.0 9.15 106.9 9.15 M91.9 4.85 L92.1 4.8 93.05 4.9 93.15 5.1 91.85 4.85 91.9 4.85 M89.45 4.3 L86.8 3.45 86.85 3.1 86.85 3.05 86.95 3.1 87.5 3.35 89.45 4.3 M81.2 4.25 L81.65 4.9 82.25 5.6 81.0 4.95 81.2 4.25 M44.05 28.4 L44.0 28.45 44.3 28.9 50.5 29.7 53.5 30.15 59.5 29.65 60.1 29.15 62.45 29.15 62.5 29.75 Q62.5 30.4 62.0 30.85 61.5 31.35 61.5 31.95 55.4 36.2 54.0 36.65 L51.8 36.65 51.65 36.5 Q51.5 36.3 51.5 35.55 L51.7 35.0 Q52.05 34.3 53.25 33.7 55.25 32.6 56.0 31.5 L56.05 31.4 56.0 31.2 52.7 31.2 49.35 31.15 Q44.75 30.9 41.2 29.85 L43.45 28.5 43.9 28.4 44.05 28.4" fill="#8c5d5d" fill-rule="evenodd" stroke="none"/>
    <path d="M146.0 6.15 Q147.75 8.9 147.75 14.15 147.75 19.4 146.0 22.15 L145.9 21.15 Q145.1 17.55 145.0 13.15 146.7 11.35 146.05 7.15 L146.0 6.15" fill="#9d7570" fill-rule="evenodd" stroke="none"/>
    <path d="M131.0 4.15 L131.0 4.65 Q121.25 5.1 111.55 5.15 L111.5 4.9 111.15 4.8 114.05 4.65 114.3 4.15 130.0 4.15 131.0 4.15" fill="#d18e77" fill-rule="evenodd" stroke="none"/>
    <path d="M137.65 26.8 L138.3 27.2 138.5 27.75 Q137.95 28.6 135.8 29.5 L131.0 31.15 123.0 31.15 122.25 31.0 Q122.0 30.8 122.0 30.05 L122.05 29.35 122.3 29.15 127.65 28.85 133.8 28.4 Q133.25 27.6 131.2 27.2 L127.8 26.4 127.75 26.35 Q127.5 25.85 127.5 24.9 L130.25 24.4 132.6 24.35 133.8 24.6 Q134.75 24.9 136.7 26.15 L137.65 26.8 M66.6 34.05 L65.6 34.55 Q58.85 38.0 57.0 39.15 56.3 38.9 56.0 38.45 L56.95 37.3 Q59.2 34.8 63.25 32.4 68.55 29.25 73.05 28.65 L73.25 29.15 73.5 29.65 Q71.25 31.6 66.6 34.05 M125.75 11.15 L126.35 11.7 Q127.5 13.0 125.8 14.15 126.0 14.45 125.8 14.9 126.4 15.05 127.0 15.4 L128.1 16.3 128.3 16.5 Q129.0 17.3 129.0 17.75 129.0 19.1 128.2 20.3 127.15 21.9 124.75 23.2 124.0 23.6 123.15 23.95 117.8 26.15 108.5 26.15 L107.2 26.05 106.8 25.9 Q106.5 25.45 106.5 24.7 107.05 24.15 110.05 23.85 L115.5 22.95 Q115.3 21.65 115.4 21.1 115.6 20.15 117.3 19.9 116.5 17.9 116.55 17.2 114.15 17.25 113.85 16.6 L114.0 15.7 107.15 15.85 99.5 16.15 86.85 16.15 81.0 16.15 79.9 15.1 79.5 14.5 79.75 13.3 80.0 12.05 Q80.0 11.4 80.95 11.15 L87.0 10.4 91.05 10.4 95.35 10.55 106.5 10.7 107.0 10.65 107.35 11.15 107.55 12.1 107.55 12.4 107.85 12.45 110.55 13.0 110.95 13.1 113.4 13.4 Q114.3 13.4 114.0 13.2 L113.5 12.95 Q115.55 10.7 116.35 10.45 L117.35 10.3 119.25 10.15 119.5 10.15 124.0 10.15 Q125.05 10.6 125.75 11.15 M44.05 28.4 L43.9 28.4 43.45 28.5 Q42.85 28.65 42.0 29.15 L41.7 29.35 Q40.3 30.15 39.0 30.15 38.0 30.15 37.5 29.8 35.05 30.3 32.05 31.65 L26.0 31.65 25.25 31.5 Q25.0 31.35 25.0 30.55 25.0 29.6 26.6 29.15 28.95 28.5 29.8 27.9 L28.55 25.75 28.5 25.65 27.5 23.4 27.55 22.6 27.75 22.2 29.7 22.25 Q30.3 22.35 30.3 23.45 L32.1 24.8 Q34.85 26.05 40.0 25.65 L40.85 26.4 41.2 26.25 Q44.65 25.4 47.55 26.9 L65.5 27.15 66.2 27.3 Q66.5 27.4 66.5 28.15 66.5 28.95 66.2 29.1 L65.5 29.15 62.45 29.15 60.1 29.15 47.5 29.15 Q45.5 28.45 44.05 28.4 M12.8 28.65 L12.0 27.45 13.4 19.95 13.75 18.6 13.25 18.5 Q13.0 18.35 13.0 17.55 L13.05 16.85 13.3 16.65 14.6 16.65 Q15.35 15.3 16.5 14.65 L17.2 14.8 Q17.5 14.9 17.5 15.65 L17.45 16.6 25.5 16.4 30.85 18.3 24.8 18.4 24.0 18.65 22.0 18.65 21.55 19.65 17.1 19.65 Q16.55 23.4 15.5 24.95 L16.9 25.15 Q17.5 25.35 17.5 26.15 L17.25 27.15 16.75 27.2 16.5 27.45 21.25 27.15 23.55 27.4 24.0 28.15 21.0 30.0 21.0 30.15 20.6 30.65 19.25 30.65 13.85 30.35 12.8 28.65 M38.6 18.85 L39.2 18.8 40.45 18.75 40.4 18.85 Q40.25 19.15 39.5 19.15 L38.6 18.85 M36.0 28.65 L34.55 28.9 37.0 28.7 37.0 28.3 37.0 28.05 36.5 28.45 36.0 28.65" fill="#79525a" fill-rule="evenodd" stroke="none"/>
    <path d="M45.35 37.9 L47.35 37.4 50.8 35.75 51.0 35.15 51.7 35.0 51.5 35.55 Q51.5 36.3 51.65 36.5 L51.8 36.65 54.0 36.65 Q55.4 36.2 61.5 31.95 61.5 31.35 62.0 30.85 62.5 30.4 62.5 29.75 L62.45 29.15 65.5 29.15 66.2 29.1 Q66.5 28.95 66.5 28.15 66.5 27.4 66.2 27.3 L65.5 27.15 47.55 26.9 Q44.65 25.4 41.2 26.25 L40.85 26.4 40.0 25.65 Q34.85 26.05 32.1 24.8 L30.3 23.45 Q30.3 22.35 29.7 22.25 L27.75 22.2 27.55 22.6 27.5 23.4 28.5 25.65 28.55 25.75 27.05 25.9 29.5 27.65 Q28.9 28.5 27.4 28.9 L23.0 30.15 21.0 30.15 21.0 30.0 24.0 28.15 23.55 27.4 21.25 27.15 16.5 27.45 16.75 27.2 17.25 27.15 17.5 26.15 Q17.5 25.35 16.9 25.15 L15.5 24.95 Q16.55 23.4 17.1 19.65 L21.55 19.65 22.0 18.65 24.0 18.65 24.8 18.4 30.85 18.3 25.5 16.4 17.45 16.6 17.5 15.65 Q17.5 14.9 17.2 14.8 L16.5 14.65 Q15.35 15.3 14.6 16.65 L13.3 16.65 13.05 16.85 13.0 17.55 Q13.0 18.35 13.25 18.5 L13.75 18.6 13.4 19.95 12.0 27.45 12.8 28.65 Q12.5 28.55 12.35 28.45 11.5 29.95 11.5 32.15 L11.5 32.65 2.0 32.15 2.0 33.15 1.4 32.95 1.1 32.15 1.5 32.15 2.75 31.9 2.8 31.1 Q4.15 30.85 4.75 30.0 L5.0 29.15 6.0 29.15 7.0 29.15 Q10.75 24.9 11.5 18.15 L11.0 18.15 11.0 17.15 Q11.25 10.9 8.0 8.15 L8.0 7.15 Q14.3 8.35 22.0 8.15 L23.0 8.15 25.2 8.15 26.5 8.15 28.3 8.0 32.7 7.7 32.5 8.8 Q32.5 9.7 32.75 10.1 L33.5 10.65 34.0 10.4 Q34.55 11.8 37.05 11.35 38.0 11.15 38.2 10.75 L38.75 9.45 40.0 8.2 Q38.1 4.95 35.2 5.7 33.65 6.1 33.0 7.05 L33.0 6.15 Q35.05 4.7 39.0 5.1 L40.0 5.15 Q42.35 8.3 49.05 7.7 L50.1 7.8 Q53.7 8.85 55.0 7.15 L58.0 7.15 59.0 7.15 Q62.75 8.9 68.5 8.65 L68.6 9.05 Q69.25 12.4 73.0 13.15 76.7 13.95 79.0 16.15 83.5 16.75 86.85 16.15 L99.5 16.15 107.15 15.85 114.0 15.7 113.85 16.6 Q114.15 17.25 116.55 17.2 116.5 17.9 117.3 19.9 115.6 20.15 115.4 21.1 115.3 21.65 115.5 22.95 L110.05 23.85 Q107.05 24.15 106.5 24.7 106.5 25.45 106.8 25.9 L107.2 26.05 108.5 26.15 Q117.8 26.15 123.15 23.95 120.45 26.55 115.0 26.15 L115.0 27.15 114.0 27.2 82.0 29.15 81.0 29.15 73.25 29.15 73.05 28.65 Q68.55 29.25 63.25 32.4 59.2 34.8 56.95 37.3 L56.35 37.65 Q51.1 41.5 44.7 41.5 L43.95 41.95 Q41.3 43.65 40.0 43.65 L38.95 43.55 38.8 43.4 Q38.5 43.8 38.5 42.55 L38.5 42.45 38.55 42.25 Q38.9 40.8 42.45 39.1 L45.35 37.9 M142.0 7.15 L141.45 7.6 130.0 8.0 Q130.0 7.4 129.8 7.3 L129.55 7.15 141.0 7.15 142.0 7.15 M137.85 26.1 L138.0 26.15 137.65 26.8 136.7 26.15 137.25 26.15 137.85 26.1 M122.25 31.0 L114.0 31.45 Q108.25 31.9 105.0 30.15 110.7 29.85 115.05 28.3 L116.0 28.15 Q117.0 27.65 118.0 27.7 123.9 27.9 127.75 26.35 L127.8 26.4 131.2 27.2 Q133.25 27.6 133.8 28.4 L127.65 28.85 122.3 29.15 122.05 29.35 122.0 30.05 Q122.0 30.8 122.25 31.0 M127.0 15.4 Q126.4 15.05 125.8 14.9 126.0 14.45 125.8 14.15 127.5 13.0 126.35 11.7 L125.75 11.15 127.1 11.15 127.25 11.35 129.0 12.7 Q128.2 12.9 127.55 13.9 127.0 14.75 127.0 15.4 M119.25 10.15 L117.35 10.3 Q118.05 9.95 119.0 9.95 L119.25 10.15 M114.0 13.2 Q114.3 13.4 113.4 13.4 L110.95 13.1 110.7 12.6 Q112.5 13.7 114.0 13.2 M107.85 12.45 L107.55 12.4 107.55 12.1 107.8 12.4 107.85 12.45 M106.5 10.7 L95.35 10.55 91.05 10.4 91.0 10.15 106.9 9.15 107.55 9.15 108.0 8.15 107.65 7.45 109.75 7.25 108.75 8.0 107.55 10.0 106.55 10.15 106.55 9.95 106.5 10.65 106.5 10.7 M128.2 20.3 Q129.0 19.1 129.0 17.75 129.0 17.3 128.3 16.5 L129.05 16.05 129.45 16.45 130.05 17.05 130.1 17.15 130.15 17.15 Q130.8 17.9 131.05 18.65 L131.55 21.4 Q131.8 22.4 132.55 23.15 L132.5 23.8 132.6 24.35 130.25 24.4 Q131.55 20.05 128.2 20.3 M113.85 7.5 L114.8 7.8 114.85 7.8 114.75 7.9 114.45 8.1 113.85 7.5 M60.1 29.15 L59.5 29.65 53.5 30.15 50.5 29.7 44.3 28.9 44.0 28.45 44.05 28.4 Q45.5 28.45 47.5 29.15 L60.1 29.15 M43.45 28.5 L41.2 29.85 Q37.7 31.5 32.05 31.65 35.05 30.3 37.5 29.8 38.0 30.15 39.0 30.15 40.3 30.15 41.7 29.35 L42.0 29.15 Q42.85 28.65 43.45 28.5 M38.6 18.85 L39.5 19.15 Q40.25 19.15 40.4 18.85 L40.45 18.75 39.2 18.8 38.6 18.85 M36.0 28.65 L36.5 28.45 37.0 28.05 37.0 28.3 37.0 28.7 34.55 28.9 36.0 28.65" fill="#80595e" fill-rule="evenodd" stroke="none"/>
    <path d="M116.0 28.15 L115.75 27.4 115.0 27.15 115.0 26.15 Q120.45 26.55 123.15 23.95 124.0 23.6 124.75 23.2 127.15 21.9 128.2 20.3 131.55 20.05 130.25 24.4 L127.5 24.9 Q127.5 25.85 127.75 26.35 123.9 27.9 118.0 27.7 117.0 27.65 116.0 28.15" fill="#6f4953" fill-rule="evenodd" stroke="none"/>
    <path d="M140.0 35.15 L140.0 35.65 Q129.0 36.15 118.0 36.15 L118.0 35.15 139.0 35.15 140.0 35.15" fill="#ae7a70" fill-rule="evenodd" stroke="none"/>
    <path d="M111.55 5.15 L111.65 5.4 112.0 5.95 111.05 6.85 107.55 7.15 107.65 7.45 108.0 8.15 107.55 9.15 106.9 9.15 98.0 9.15 87.5 8.65 Q86.5 8.3 86.5 6.9 L83.5 6.65 82.75 6.1 82.25 5.6 81.65 4.9 81.2 4.25 81.1 4.15 Q80.5 3.25 80.5 2.55 80.5 1.8 81.0 1.65 L81.5 1.65 83.0 1.65 85.0 1.65 86.85 3.05 86.85 3.1 86.8 3.45 89.45 4.3 89.7 4.35 90.55 4.55 91.45 4.75 91.55 4.8 91.85 4.85 93.15 5.1 94.0 5.15 94.7 5.8 94.7 5.85 Q94.95 6.25 94.8 6.45 L103.85 6.15 104.0 6.15 105.8 5.8 106.2 5.65 107.5 5.15 Q108.85 4.65 109.75 4.65 L111.15 4.8 111.5 4.9 111.55 5.15 M91.05 10.4 L87.0 10.4 80.95 11.15 Q80.0 11.4 80.0 12.05 L79.75 13.3 79.5 14.5 79.9 15.1 81.0 16.15 86.85 16.15 Q83.5 16.75 79.0 16.15 76.7 13.95 73.0 13.15 69.25 12.4 68.6 9.05 L68.5 8.65 Q62.75 8.9 59.0 7.15 L73.0 7.15 74.0 7.15 76.0 7.15 77.0 7.15 Q80.75 9.9 83.05 9.65 87.5 9.2 91.0 10.15 L91.05 10.4" fill="#765057" fill-rule="evenodd" stroke="none"/>
    <path d="M117.35 10.3 L116.35 10.45 Q115.55 10.7 113.5 12.95 L114.0 13.2 Q112.5 13.7 110.7 12.6 L110.45 12.2 Q113.9 12.3 114.6 11.15 115.3 11.15 115.35 10.95 L115.3 10.7 115.5 9.55 114.75 8.45 114.45 8.1 114.75 7.9 114.85 7.8 116.0 8.35 116.0 8.4 Q116.0 9.2 116.25 9.4 L117.0 9.65 119.15 9.65 119.0 9.95 Q118.05 9.95 117.35 10.3" fill="#996966" fill-rule="evenodd" stroke="none"/>
    <path d="M66.55 2.0 Q72.2 0.5 80.0 1.15 L83.05 1.4 83.0 1.65 81.5 1.65 81.0 1.65 Q80.5 1.8 80.5 2.55 80.5 3.25 81.1 4.15 L78.6 4.15 80.0 3.15 79.55 2.4 73.7 1.85 Q69.0 1.7 69.0 1.9 L66.55 2.0 M109.75 7.25 L113.85 7.5 114.45 8.1 114.75 8.45 115.5 9.55 115.3 10.7 115.35 10.95 Q115.3 11.15 114.6 11.15 L114.5 11.15 Q113.6 11.15 113.4 10.3 113.25 9.4 111.4 9.4 110.1 9.4 109.75 10.05 L109.25 10.75 Q108.4 10.0 107.55 10.0 L108.75 8.0 109.75 7.25 M33.0 7.05 Q33.65 6.1 35.2 5.7 38.1 4.95 40.0 8.2 L38.75 9.45 38.5 9.65 Q38.0 9.15 37.65 8.35 37.45 7.9 36.75 7.9 36.4 7.9 35.65 8.45 34.6 9.15 34.25 10.2 L34.0 10.4 33.5 10.65 32.75 10.1 Q32.5 9.7 32.5 8.8 L32.7 7.7 Q32.75 7.4 32.95 7.15 L33.0 7.05" fill="#68434c" fill-rule="evenodd" stroke="none"/>
    <path d="M107.35 5.15 Q106.2 5.3 105.8 5.8 L104.0 6.15 103.9 5.6 101.75 5.15 107.35 5.15 M87.5 3.35 L86.95 3.1 87.5 3.1 87.5 3.35" fill="#cd8a75" fill-rule="evenodd" stroke="none"/>
    <path d="M83.05 1.4 L83.05 1.35 83.3 1.15 94.45 0.5 Q99.6 0.3 101.25 1.95 L112.5 2.65 Q102.1 2.6 90.8 2.05 L87.95 2.1 Q87.5 2.25 87.5 3.05 L87.5 3.1 86.95 3.1 86.85 3.05 85.0 1.65 83.0 1.65 83.05 1.4 M104.0 6.15 L103.85 6.15 94.7 5.85 94.7 5.8 94.0 5.15 101.75 5.15 103.9 5.6 104.0 6.15 M91.55 4.8 L91.9 4.85 91.85 4.85 91.55 4.8 M81.1 4.15 L81.2 4.25 81.0 4.95 82.25 5.6 82.75 6.1 Q80.45 7.05 77.0 7.15 L76.0 7.15 74.0 7.15 74.0 6.15 74.0 5.15 76.85 4.7 76.95 4.6 77.5 4.65 78.6 4.15 81.1 4.15" fill="#aa6e64" fill-rule="evenodd" stroke="none"/>
    <path d="M110.95 13.1 L110.55 13.0 107.85 12.45 107.8 12.4 107.55 12.1 107.35 11.15 107.0 10.65 106.5 10.7 106.5 10.65 106.55 9.95 106.55 10.15 107.55 10.0 Q108.4 10.0 109.25 10.75 L110.45 12.2 110.7 12.6 110.95 13.1" fill="#81595d" fill-rule="evenodd" stroke="none"/>
    <path d="M82.0 29.15 Q84.75 32.4 91.0 32.2 L92.0 32.15 Q89.75 33.9 84.0 33.4 L66.6 34.05 Q71.25 31.6 73.5 29.65 L73.25 29.15 81.0 29.15 82.0 29.15" fill="#754f57" fill-rule="evenodd" stroke="none"/>
    <path d="M41.4 39.35 Q44.2 37.8 45.35 37.9 L42.45 39.1 Q38.9 40.8 38.55 42.25 L38.5 41.3 Q38.5 40.95 41.4 39.35 M50.05 2.2 L62.5 2.6 62.55 2.35 62.8 2.15 66.55 2.0 69.0 1.9 Q69.0 1.7 73.7 1.85 L79.55 2.4 80.0 3.15 78.6 4.15 77.5 4.65 76.95 4.6 63.5 4.15 50.55 4.15 51.0 3.15 Q50.7 2.45 50.05 2.2" fill="#e0b79d" fill-rule="evenodd" stroke="none"/>
    <path d="M76.95 4.6 L76.85 4.7 74.0 5.15 73.0 5.15 51.0 5.15 50.0 5.15 46.0 5.15 46.0 4.15 48.0 4.15 49.0 4.15 50.55 4.15 63.5 4.15 76.95 4.6" fill="#d7a58e" fill-rule="evenodd" stroke="none"/>
    <path d="M74.0 5.15 L74.0 6.15 73.0 6.15 54.0 6.15 53.05 6.25 Q50.9 6.8 51.0 5.15 L73.0 5.15 74.0 5.15" fill="#c98975" fill-rule="evenodd" stroke="none"/>
    <path d="M74.0 7.15 L73.0 7.15 59.0 7.15 58.0 7.15 55.0 7.15 54.25 6.9 54.0 6.15 73.0 6.15 74.0 6.15 74.0 7.15" fill="#9a6560" fill-rule="evenodd" stroke="none"/>
    <path d="M54.0 6.15 L54.25 6.9 55.0 7.15 Q53.7 8.85 50.1 7.8 L49.05 7.7 Q42.35 8.3 40.0 5.15 L45.0 5.15 46.0 5.15 50.0 5.15 51.0 5.15 Q50.9 6.8 53.05 6.25 L54.0 6.15" fill="#9d6a65" fill-rule="evenodd" stroke="none"/>
    <path d="M37.05 42.1 L37.0 41.55 Q37.0 40.55 38.6 40.15 L41.4 39.35 Q38.5 40.95 38.5 41.3 L38.55 42.25 38.5 42.45 38.0 42.65 37.25 42.5 37.05 42.1 M1.1 32.15 L0.65 32.1 0.0 31.9 0.0 28.9 Q1.55 26.6 2.5 26.15 L3.15 26.35 3.2 26.35 Q3.5 26.45 3.5 27.25 L3.15 29.4 2.8 31.1 2.75 31.9 1.5 32.15 1.1 32.15 M2.4 14.95 L1.0 15.15 0.25 15.0 Q0.0 14.85 0.0 14.05 L1.25 11.55 Q2.5 9.25 2.5 8.25 2.5 7.5 2.1 6.45 L1.5 4.7 2.25 4.6 2.0 2.15 22.0 0.1 22.8 0.05 27.35 0.25 Q28.85 0.55 30.0 1.15 L29.9 1.65 40.0 1.65 41.45 1.8 50.0 2.15 50.05 2.2 Q50.7 2.45 51.0 3.15 L50.55 4.15 49.0 4.15 48.0 4.15 46.0 4.15 43.5 4.15 39.8 3.9 34.0 3.9 33.55 4.5 32.0 6.15 29.9 6.15 29.7 6.2 29.0 5.65 19.45 4.95 19.3 4.85 27.3 4.4 Q28.1 3.0 29.55 2.45 L29.9 2.35 22.5 2.65 15.0 2.65 14.45 3.05 Q9.0 2.9 5.0 4.15 L5.0 5.15 5.0 6.15 5.0 6.65 Q5.5 7.7 5.5 8.9 L5.35 10.15 5.25 10.6 4.55 12.35 4.4 12.65 Q3.5 14.4 2.4 14.95 M33.5 3.85 Q31.5 4.0 31.1 4.45 L31.75 4.4 33.35 4.1 33.85 3.85 33.5 3.85" fill="#e6cdb1" fill-rule="evenodd" stroke="none"/>
    <path d="M46.0 4.15 L46.0 5.15 45.0 5.15 40.0 5.15 39.0 5.1 Q35.05 4.7 33.0 6.15 L33.0 7.05 32.95 7.15 32.0 7.2 29.6 7.45 30.0 6.65 29.7 6.2 29.9 6.15 32.0 6.15 33.55 4.5 Q34.15 4.15 35.0 4.15 L43.5 4.15 46.0 4.15 M33.5 3.85 L33.85 3.85 33.35 4.1 31.75 4.4 31.1 4.45 Q31.5 4.0 33.5 3.85 M14.45 3.05 L15.0 2.65 22.5 2.65 29.9 2.35 29.55 2.45 Q28.1 3.0 27.3 4.4 L19.3 4.85 19.0 4.65 17.1 4.65 14.3 4.25 14.0 3.95 14.25 3.3 14.45 3.05" fill="#c49180" fill-rule="evenodd" stroke="none"/>
    <path d="M51.0 35.15 L50.0 35.15 28.0 36.15 28.0 35.65 Q17.0 35.15 6.0 35.15 L5.1 34.95 2.0 33.15 2.0 32.15 11.5 32.65 11.5 32.15 Q11.5 29.95 12.35 28.45 12.5 28.55 12.8 28.65 L13.85 30.35 19.25 30.65 20.6 30.65 21.0 30.15 23.0 30.15 27.4 28.9 Q28.9 28.5 29.5 27.65 L27.05 25.9 28.55 25.75 29.8 27.9 Q28.95 28.5 26.6 29.15 25.0 29.6 25.0 30.55 25.0 31.35 25.25 31.5 L26.0 31.65 32.05 31.65 Q37.7 31.5 41.2 29.85 44.75 30.9 49.35 31.15 L52.7 31.2 56.0 31.5 Q55.25 32.6 53.25 33.7 52.05 34.3 51.7 35.0 L51.0 35.15" fill="#6d4751" fill-rule="evenodd" stroke="none"/>
    <path d="M52.7 31.2 L56.0 31.2 56.05 31.4 56.0 31.5 52.7 31.2" fill="#775158" fill-rule="evenodd" stroke="none"/>
    <path d="M32.7 7.7 L28.3 8.0 26.5 8.15 25.2 8.15 23.0 8.15 23.0 8.0 20.65 7.65 18.0 7.65 12.0 7.15 11.1 6.3 8.0 5.15 8.0 4.15 14.0 3.95 14.3 4.25 17.1 4.65 19.0 4.65 19.3 4.85 19.45 4.95 29.0 5.65 29.7 6.2 30.0 6.65 29.6 7.45 32.0 7.2 32.95 7.15 Q32.75 7.4 32.7 7.7" fill="#bd8879" fill-rule="evenodd" stroke="none"/>
    <path d="M23.0 8.15 L22.0 8.15 Q14.3 8.35 8.0 7.15 L8.0 8.15 7.0 8.15 7.0 7.15 7.0 5.15 8.0 5.15 11.1 6.3 12.0 7.15 18.0 7.65 20.65 7.65 23.0 8.0 23.0 8.15" fill="#986d6a" fill-rule="evenodd" stroke="none"/>
    <path d="M3.0 25.15 L2.5 25.15 Q3.15 19.3 2.4 14.95 3.5 14.4 4.4 12.65 L4.55 12.35 Q6.65 10.75 5.55 6.25 L5.0 6.15 5.0 5.15 5.0 4.15 Q9.0 2.9 14.45 3.05 L14.25 3.3 14.0 3.95 8.0 4.15 8.0 5.15 7.0 5.15 7.0 7.15 7.0 8.15 7.1 9.15 Q7.9 14.05 5.0 15.15 L5.0 16.15 4.5 16.15 Q4.7 19.35 3.0 20.15 L3.0 24.15 3.0 25.15" fill="#cea08f" fill-rule="evenodd" stroke="none"/>
    <path d="M6.0 29.15 L5.0 29.15 5.0 28.15 5.0 16.15 5.0 15.15 Q7.9 14.05 7.1 9.15 L7.0 8.15 8.0 8.15 8.15 9.1 Q9.85 14.8 6.0 16.15 L6.0 28.15 6.0 29.15" fill="#b78075" fill-rule="evenodd" stroke="none"/>
    <path d="M8.0 8.15 Q11.25 10.9 11.0 17.15 L11.0 18.15 10.95 18.65 Q7.5 19.15 7.0 22.15 L7.0 28.15 7.0 29.15 6.0 29.15 6.0 28.15 6.0 16.15 Q9.85 14.8 8.15 9.1 L8.0 8.15" fill="#9c6d69" fill-rule="evenodd" stroke="none"/>
    <path d="M3.15 26.35 L3.1 26.1 3.0 25.15 3.0 24.15 3.0 20.15 Q4.7 19.35 4.5 16.15 L5.0 16.15 5.0 28.15 5.0 29.15 4.75 30.0 Q4.15 30.85 2.8 31.1 L3.15 29.4 3.5 27.25 Q3.5 26.45 3.2 26.35 L3.15 26.35" fill="#c78e80" fill-rule="evenodd" stroke="none"/>
    <path d="M11.0 18.15 L11.5 18.15 Q10.75 24.9 7.0 29.15 L7.0 28.15 7.0 22.15 Q7.5 19.15 10.95 18.65 L11.0 18.15" fill="#906565" fill-rule="evenodd" stroke="none"/>
    <path d="M28.0 36.15 L16.0 36.5 Q9.75 36.9 6.0 35.15 17.0 35.15 28.0 35.65 L28.0 36.15" fill="#a98982" fill-rule="evenodd" stroke="none"/>
  </g>
</svg>
