<?xml version="1.0" encoding="UTF-8" standalone="no"?>
<svg xmlns:xlink="http://www.w3.org/1999/xlink" height="69.0px" width="222.75px" xmlns="http://www.w3.org/2000/svg">
  <g transform="matrix(1, 0, 0, 1, 0.0, 0.0)">
    <path d="M221.65 67.75 Q221.1 68.7 219.5 69.0 218.75 69.0 217.55 67.7 L216.5 66.25 Q216.5 65.9 217.25 63.8 218.0 61.7 218.0 61.0 218.0 54.6 218.75 41.55 219.5 28.5 219.5 21.9 219.5 18.9 218.5 12.1 217.5 5.35 217.5 2.6 L217.55 1.8 Q217.6 1.75 217.8 1.65 L219.8 1.75 219.75 4.95 Q219.75 5.8 220.5 13.05 221.25 20.25 221.25 24.1 L220.55 38.4 Q219.8 49.45 219.8 51.25 219.8 53.3 220.55 58.15 L220.5 58.75 220.7 60.1 Q220.8 63.9 219.3 66.25 L218.85 66.4 Q218.7 66.5 218.85 66.55 L218.0 66.35 217.0 66.25 217.0 67.0 218.15 67.65 220.0 68.05 221.5 67.8 221.65 67.75 M0.65 65.7 Q0.5 64.95 0.5 63.95 L1.0 59.25 0.5 47.4 0.0 35.6 Q0.0 24.4 0.5 18.75 L0.5 10.1 Q0.7 4.8 2.0 2.0 L2.3 2.65 2.0 2.75 Q3.3 18.25 3.3 23.75 L2.3 38.35 3.05 46.15 Q3.2 50.25 4.05 55.55 L4.5 59.65 4.4 62.5 Q4.15 64.25 3.05 65.3 3.45 65.65 4.3 65.85 4.65 65.95 4.5 66.75 L3.8 67.1 2.5 67.3 Q1.35 67.3 1.3 66.9 1.25 66.05 0.75 65.55 L0.65 65.7" fill="#e1b498" fill-rule="evenodd" stroke="none"/>
    <path d="M219.8 1.75 L219.8 0.0 220.75 0.0 Q222.75 12.95 222.75 24.2 L221.9 39.1 221.05 51.3 221.8 58.0 222.55 66.5 Q222.55 67.35 221.65 67.75 L221.5 67.8 220.0 68.05 218.15 67.65 217.0 67.0 217.0 66.25 218.0 66.35 218.85 66.55 Q218.7 66.5 218.85 66.4 L219.3 66.25 Q220.8 63.9 220.7 60.1 L220.6 58.7 220.55 58.15 Q219.8 53.3 219.8 51.25 219.8 49.45 220.55 38.4 L221.25 24.1 Q221.25 20.25 220.5 13.05 219.75 5.8 219.75 4.95 L219.8 1.75 M2.3 2.65 L3.25 2.4 4.1 10.4 4.75 19.25 3.55 38.55 Q5.25 58.85 5.25 62.3 5.25 62.95 5.9 64.8 6.5 66.65 6.5 67.25 L6.35 68.6 Q6.1 69.0 5.25 69.0 0.25 69.0 0.25 67.05 0.25 66.25 0.4 66.0 L0.65 65.7 0.75 65.55 Q1.25 66.05 1.3 66.9 1.35 67.3 2.5 67.3 L3.8 67.1 4.5 66.75 Q4.65 65.95 4.3 65.85 3.45 65.65 3.05 65.3 4.15 64.25 4.4 62.5 L4.5 59.65 4.05 55.55 3.4 49.45 3.05 46.15 2.3 38.35 3.3 23.75 Q3.3 18.25 2.0 2.75 L2.3 2.65" fill="#b38275" fill-rule="evenodd" stroke="none"/>
  </g>
</svg>
