<?xml version="1.0" encoding="UTF-8" standalone="no"?>
<svg xmlns:xlink="http://www.w3.org/1999/xlink" height="14.0px" width="26.6px" xmlns="http://www.w3.org/2000/svg">
  <g transform="matrix(1, 0, 0, 1, -0.5, 0.0)">
    <path d="M26.75 1.55 L27.1 1.55 27.1 6.3 26.65 6.3 21.4 6.0 19.05 5.9 10.1 5.0 9.2 4.3 10.8 3.75 13.15 3.35 14.1 3.2 Q16.0 2.45 19.45 2.45 L24.1 2.4 26.5 1.65 26.75 1.55" fill="#573e4b" fill-rule="evenodd" stroke="none"/>
    <path d="M9.2 4.3 Q8.0 3.5 6.95 3.5 6.25 3.5 5.95 3.75 6.1 3.3 6.8 2.95 L9.4 2.05 12.2 1.3 16.35 0.5 19.0 0.45 19.35 0.4 23.7 0.35 Q26.5 -0.4 27.1 0.4 L27.1 1.3 26.75 1.55 26.5 1.65 24.1 2.4 19.45 2.45 Q16.0 2.45 14.1 3.2 L13.15 3.35 10.8 3.75 9.2 4.3" fill="#000000" fill-opacity="0.2509804" fill-rule="evenodd" stroke="none"/>
    <path d="M27.1 4.55 L23.25 4.4 21.15 4.35 Q10.3 3.9 10.3 3.3 10.3 2.7 21.15 2.3 L23.25 2.25 27.1 2.15 27.1 2.55 26.1 2.55 24.3 2.6 14.8 3.05 24.3 3.55 26.1 3.6 27.1 3.6 27.1 4.55" fill="#45323e" fill-rule="evenodd" stroke="none"/>
    <path d="M27.1 1.4 L27.1 2.15 23.25 2.25 21.15 2.3 Q10.3 2.7 10.3 3.3 10.3 3.9 21.15 4.35 L23.25 4.4 27.1 4.55 27.1 6.15 27.05 6.15 26.6 6.15 21.35 5.85 19.0 5.75 Q6.85 4.9 6.85 3.75 6.85 2.6 19.0 1.8 L21.35 1.7 26.6 1.4 27.05 1.4 27.1 1.4" fill="#573e4b" fill-rule="evenodd" stroke="none"/>
    <path d="M27.1 2.55 L27.1 3.6 26.1 3.6 24.3 3.55 14.8 3.05 24.3 2.6 26.1 2.55 27.1 2.55" fill="#31242d" fill-rule="evenodd" stroke="none"/>
    <path d="M27.1 1.4 L27.05 1.4 26.6 1.4 21.35 1.7 19.0 1.8 Q6.85 2.6 6.85 3.75 6.85 4.9 19.0 5.75 L21.35 5.85 26.6 6.15 27.05 6.15 27.1 6.15 27.1 8.2 16.85 7.35 Q4.3 6.05 4.3 4.25 4.3 2.4 16.85 1.05 L27.1 0.3 27.1 1.4" fill="url(#gradient0)" fill-rule="evenodd" stroke="none"/>
    <path d="M27.1 8.1 L27.1 9.75 26.6 9.9 23.25 9.9 Q17.85 8.65 17.2 8.25 12.8 8.15 9.15 6.85 5.75 5.65 5.75 4.45 5.75 3.5 6.9 3.5 7.4 3.5 10.2 5.2 L17.1 6.3 Q22.45 7.25 23.5 7.85 L26.6 7.9 27.1 8.1" fill="#000000" fill-opacity="0.2509804" fill-rule="evenodd" stroke="none"/>
    <path d="M12.35 10.05 L12.0 10.55 Q9.05 10.1 7.4 9.45 5.75 8.8 4.1 7.0 L4.1 6.7 5.65 7.7 7.6 9.0 11.8 9.95 12.35 10.05 M0.75 5.9 Q0.5 5.75 0.5 5.1 0.5 3.75 1.35 2.35 2.55 0.35 4.75 0.3 L4.85 0.5 Q2.4 1.25 1.6 2.95 L0.95 5.8 0.75 5.9" fill="#000000" fill-opacity="0.3529412" fill-rule="evenodd" stroke="none"/>
    <path d="M26.0 13.5 L26.25 13.75 26.15 14.0 22.1 14.0 21.15 13.6 17.35 13.4 17.05 13.25 16.85 13.0 14.6 12.85 14.85 12.45 17.6 12.85 21.25 13.05 22.15 13.45 26.0 13.5" fill="#000000" fill-opacity="0.3529412" fill-rule="evenodd" stroke="none"/>
  </g>
  <defs>
    <radialGradient cx="0" cy="0" gradientTransform="matrix(0.0538, 0.0, 0.0, 0.0056, 47.75, 4.25)" gradientUnits="userSpaceOnUse" id="gradient0" r="819.2" spreadMethod="pad">
      <stop offset="0.00392156862745098" stop-color="#573e4b" stop-opacity="0.93333334"/>
      <stop offset="0.6823529411764706" stop-color="#573e4b" stop-opacity="0.43137255"/>
      <stop offset="1.0" stop-color="#140e12" stop-opacity="0.0"/>
    </radialGradient>
  </defs>
</svg>
