<?xml version="1.0" encoding="UTF-8" standalone="no"?>
<svg xmlns:xlink="http://www.w3.org/1999/xlink" height="194.7px" width="459.65px" xmlns="http://www.w3.org/2000/svg">
  <g transform="matrix(1, 0, 0, 1, -99.35, -42.8)">
    <path d="M100.4 237.5 L99.35 236.6 99.35 236.55 100.4 237.5" fill="#663300" fill-rule="evenodd" stroke="none"/>
    <path d="M556.75 44.9 L556.7 44.85 556.7 44.8 557.0 44.75 556.7 44.85 557.0 44.75 557.0 44.8 556.95 44.8 556.9 44.85 556.75 44.9 M556.35 44.9 L556.3 44.95 556.3 45.0 535.95 50.35 536.0 50.3 536.0 50.25 556.35 44.9 M535.55 50.45 L535.3 50.55 535.3 50.5 535.3 50.45 535.35 50.45 535.5 50.4 535.55 50.4 535.55 50.45 535.3 50.5 535.55 50.45 M556.3 44.95 L536.0 50.3 556.3 44.95" fill="#000000" fill-rule="evenodd" stroke="none"/>
    <path d="M534.95 49.2 L556.7 43.45 557.7 43.65 557.65 43.65 558.3 44.4 558.3 44.45 558.15 45.45 558.15 45.4 Q557.85 45.9 557.35 46.05 L535.6 51.8 534.6 51.65 Q534.1 51.35 533.95 50.85 533.85 50.3 534.15 49.85 534.4 49.35 534.9 49.2 L534.95 49.2 M556.9 44.45 L535.25 50.15 535.2 50.2 535.15 50.2 535.1 50.2 535.0 50.3 534.95 50.35 534.95 50.6 534.95 50.65 535.05 50.8 535.1 50.8 535.35 50.85 557.05 45.1 557.1 45.1 557.2 45.05 557.3 45.0 557.3 44.9 557.35 44.7 557.3 44.55 557.25 44.5 557.15 44.45 556.9 44.45" fill="#000000" fill-opacity="0.32941177" fill-rule="evenodd" stroke="none"/>
    <path d="M534.75 48.6 L556.5 42.85 556.55 42.85 558.0 43.05 558.05 43.1 Q558.7 43.5 558.95 44.25 L558.95 44.3 Q559.1 45.05 558.7 45.75 L558.7 45.8 Q558.25 46.45 557.55 46.7 L557.5 46.7 535.75 52.45 534.3 52.2 534.25 52.2 Q533.55 51.75 533.35 51.05 L533.35 51.0 Q533.15 50.2 533.55 49.55 L533.6 49.5 Q534.0 48.8 534.75 48.6 M556.75 44.9 L556.3 45.0 556.3 44.95 556.35 44.9 556.7 44.8 556.7 44.85 556.75 44.9 M556.6 43.15 L534.85 48.9 Q534.15 49.1 533.85 49.7 L533.85 49.65 Q533.5 50.25 533.65 50.9 L533.65 50.95 534.45 51.95 534.4 51.9 535.65 52.1 535.7 52.1 557.45 46.35 558.45 45.6 558.4 45.6 Q558.75 45.0 558.6 44.35 558.4 43.65 557.85 43.35 L556.6 43.15 M535.95 50.35 L535.55 50.45 535.55 50.4 535.5 50.4 536.0 50.25 536.0 50.3 535.95 50.35 M535.3 50.55 L535.25 50.55 535.25 50.5 535.25 50.45 535.25 50.5 535.3 50.5 535.3 50.55 M557.0 44.75 L557.05 44.75 557.0 44.8 557.0 44.75" fill="#000000" fill-opacity="0.105882354" fill-rule="evenodd" stroke="none"/>
    <path d="M534.95 49.2 L534.9 49.2 Q534.4 49.35 534.15 49.85 533.85 50.3 533.95 50.85 534.1 51.35 534.6 51.65 L535.6 51.8 557.35 46.05 Q557.85 45.9 558.15 45.4 L558.15 45.45 558.3 44.45 558.3 44.4 557.65 43.65 557.7 43.65 556.7 43.45 534.95 49.2 M556.6 43.15 L557.85 43.35 Q558.4 43.65 558.6 44.35 558.75 45.0 558.4 45.6 L558.45 45.6 557.45 46.35 535.7 52.1 535.65 52.1 534.4 51.9 534.45 51.95 533.65 50.95 533.65 50.9 Q533.5 50.25 533.85 49.65 L533.85 49.7 Q534.15 49.1 534.85 48.9 L556.6 43.15 M556.3 45.0 L556.75 44.9 556.9 44.85 556.95 44.8 557.0 44.8 557.05 44.75 557.0 44.75 556.7 44.8 556.35 44.9 536.0 50.25 535.5 50.4 535.35 50.45 535.3 50.45 535.3 50.5 535.25 50.5 535.25 50.45 535.25 50.5 535.25 50.55 535.3 50.55 535.55 50.45 535.95 50.35 556.3 45.0 M556.9 44.45 L557.15 44.45 557.25 44.5 557.3 44.55 557.35 44.7 557.3 44.9 557.3 45.0 557.2 45.05 557.1 45.1 557.05 45.1 535.35 50.85 535.1 50.8 535.05 50.8 534.95 50.65 534.95 50.6 534.95 50.35 535.0 50.3 535.1 50.2 535.15 50.2 535.2 50.2 535.25 50.15 556.9 44.45" fill="#000000" fill-opacity="0.21568628" fill-rule="evenodd" stroke="none"/>
    <path d="M556.7 44.85 L557.0 44.75 M535.3 50.5 L535.55 50.45 M536.0 50.3 L556.3 44.95" fill="none" stroke="#ffffff" stroke-linecap="round" stroke-linejoin="round" stroke-width="1.25"/>
  </g>
</svg>
