<?xml version="1.0" encoding="UTF-8" standalone="no"?>
<svg xmlns:xlink="http://www.w3.org/1999/xlink" height="19.4px" width="31.65px" xmlns="http://www.w3.org/2000/svg">
  <g transform="matrix(1, 0, 0, 1, 15.85, 9.7)">
    <path d="M-0.3 0.45 Q-0.1 2.25 -0.4 3.95 -0.65 5.6 -1.35 7.0 L-7.65 8.1 -12.15 9.2 Q-13.4 7.9 -14.25 6.0 -15.1 4.15 -15.3 1.9 -15.55 -1.0 -14.8 -3.4 -14.0 -5.8 -12.45 -7.35 -10.9 -8.85 -8.8 -9.1 -5.6 -9.4 -3.3 -6.95 -1.0 -4.55 -0.3 0.45" fill="#ffffff" fill-rule="evenodd" stroke="none"/>
    <path d="M-0.3 0.45 Q-1.0 -4.55 -3.3 -6.95 -5.6 -9.4 -8.8 -9.1 -10.9 -8.85 -12.45 -7.35 -14.0 -5.8 -14.8 -3.4 -15.55 -1.0 -15.3 1.9 -15.1 4.15 -14.25 6.0 -13.4 7.9 -12.15 9.2 L-7.65 8.1 -1.35 7.0 Q-0.65 5.6 -0.4 3.95 -0.1 2.25 -0.3 0.45" fill="none" stroke="#000000" stroke-linecap="round" stroke-linejoin="round" stroke-width="1.0"/>
    <path d="M-12.85 0.6 Q-12.6 3.2 -11.6 5.05 -10.6 6.95 -8.95 8.0 L-12.0 8.75 Q-14.55 6.3 -14.95 1.85 -15.2 -0.85 -14.5 -3.15 -13.8 -5.4 -12.35 -6.9 -10.95 -8.4 -9.05 -8.7 -11.0 -7.55 -12.05 -5.05 -13.1 -2.6 -12.85 0.6" fill="#e5e2be" fill-rule="evenodd" stroke="none"/>
    <path d="M11.95 -8.2 Q13.2 -7.05 14.05 -5.0 14.95 -2.95 15.2 -0.3 L15.3 2.4 15.15 5.2 14.7 7.45 Q12.4 6.4 10.15 6.05 7.95 5.7 6.55 6.05 5.4 3.8 5.1 0.7 4.9 -1.9 5.35 -4.15 5.85 -6.3 6.85 -7.65 7.9 -9.05 9.3 -9.2 10.7 -9.3 11.95 -8.2" fill="#ffffff" fill-rule="evenodd" stroke="none"/>
    <path d="M11.95 -8.2 Q10.7 -9.3 9.3 -9.2 7.9 -9.05 6.85 -7.65 5.85 -6.3 5.35 -4.15 4.9 -1.9 5.1 0.7 5.4 3.8 6.55 6.05 7.95 5.7 10.15 6.05 12.4 6.4 14.7 7.45 L15.15 5.2 15.3 2.4 15.2 -0.3 Q14.95 -2.95 14.05 -5.0 13.2 -7.05 11.95 -8.2" fill="none" stroke="#000000" stroke-linecap="round" stroke-linejoin="round" stroke-width="1.0"/>
    <path d="M5.4 -0.95 Q5.4 -3.5 6.1 -5.5 6.85 -7.45 8.0 -8.35 7.1 -6.2 7.1 -3.2 L7.15 -1.65 Q7.3 0.0 7.6 1.5 7.95 3.0 8.55 4.1 9.1 5.25 10.0 5.65 L8.4 5.6 6.8 5.55 5.9 3.3 Q5.6 2.15 5.45 0.65 L5.4 -0.95" fill="#e5e2be" fill-rule="evenodd" stroke="none"/>
    <path d="M-3.95 -1.95 Q-2.55 -1.75 -1.7 -0.4 -0.9 1.0 -1.05 2.95 -1.25 4.8 -2.35 6.0 -3.4 7.2 -4.8 7.15 -6.25 6.95 -7.0 5.6 -7.85 4.2 -7.7 2.25 -7.5 0.35 -6.45 -0.8 -5.35 -2.0 -3.95 -1.95" fill="#000000" fill-rule="evenodd" stroke="none"/>
    <path d="M-2.35 1.0 Q-2.4 1.8 -2.8 2.25 -3.25 2.75 -3.8 2.7 -4.35 2.65 -4.65 2.05 -5.0 1.55 -4.95 0.8 -4.9 0.0 -4.45 -0.45 -4.05 -0.95 -3.45 -0.9 -2.9 -0.85 -2.55 -0.25 -2.25 0.25 -2.35 1.0" fill="#ffffff" fill-rule="evenodd" stroke="none"/>
    <path d="M14.6 1.95 Q14.4 3.55 13.65 4.5 12.9 5.5 11.85 5.45 10.85 5.3 10.25 4.2 9.7 3.05 9.8 1.45 9.95 -0.1 10.75 -1.1 11.5 -2.05 12.55 -2.0 13.55 -1.85 14.15 -0.75 14.75 0.4 14.6 1.95" fill="#000000" fill-rule="evenodd" stroke="none"/>
    <path d="M14.05 0.55 L13.65 1.55 Q13.35 1.95 12.85 1.9 12.45 1.85 12.2 1.4 11.95 0.95 12.0 0.35 12.05 -0.25 12.4 -0.65 12.7 -1.05 13.15 -1.0 L13.8 -0.5 Q14.1 -0.05 14.05 0.55" fill="#ffffff" fill-rule="evenodd" stroke="none"/>
  </g>
</svg>
