<?xml version="1.0" encoding="UTF-8" standalone="no"?>
<svg xmlns:xlink="http://www.w3.org/1999/xlink" height="180.95px" width="314.35px" xmlns="http://www.w3.org/2000/svg">
  <g transform="matrix(1, 0, 0, 1, 36.5, 159.95)">
    <path d="M-19.75 -51.3 L-16.35 -50.95 Q-14.3 -50.65 -12.15 -49.75 -10.1 -48.9 -8.55 -47.2 -7.5 -45.85 -7.95 -44.05 -8.45 -42.3 -9.85 -40.4 -11.3 -38.55 -12.9 -36.95 L-15.75 -34.4 -16.95 -33.4 Q-19.75 -34.4 -21.55 -36.1 -23.45 -37.85 -24.45 -39.65 L-26.0 -42.75 -26.4 -44.1 -21.15 -51.35 -19.75 -51.3" fill="#333333" fill-rule="evenodd" stroke="none"/>
    <path d="M-19.75 -51.3 L-21.15 -51.35 -26.4 -44.1 -26.0 -42.75 -24.45 -39.65 Q-23.45 -37.85 -21.55 -36.1 -19.75 -34.4 -16.95 -33.4 L-15.75 -34.4 -12.9 -36.95 Q-11.3 -38.55 -9.85 -40.4 -8.45 -42.3 -7.95 -44.05 -7.5 -45.85 -8.55 -47.2 -10.1 -48.9 -12.15 -49.75 -14.3 -50.65 -16.35 -50.95 L-19.75 -51.3" fill="none" stroke="#000000" stroke-linecap="round" stroke-linejoin="round" stroke-width="2.0"/>
    <path d="M66.8 -123.4 Q67.05 -122.5 66.55 -122.05 L64.9 -121.95 Q63.9 -122.25 62.9 -123.15 L62.55 -123.45 62.9 -123.75 63.25 -124.0 63.6 -123.65 Q64.1 -123.2 64.55 -123.05 L65.35 -123.1 Q65.6 -123.35 65.5 -123.75 L64.9 -124.65 64.5 -124.9 64.85 -125.2 65.2 -125.45 65.6 -125.15 Q66.55 -124.25 66.8 -123.4" fill="#c1c1c6" fill-rule="evenodd" stroke="none"/>
    <path d="M66.8 -123.4 Q66.55 -124.25 65.6 -125.15 L65.2 -125.45 64.85 -125.2 64.5 -124.9 64.9 -124.65 65.5 -123.75 Q65.6 -123.35 65.35 -123.1 L64.55 -123.05 Q64.1 -123.2 63.6 -123.65 L63.25 -124.0 62.9 -123.75 62.55 -123.45 62.9 -123.15 Q63.9 -122.25 64.9 -121.95 L66.55 -122.05 Q67.05 -122.5 66.8 -123.4" fill="none" stroke="#000000" stroke-linecap="round" stroke-linejoin="round" stroke-width="1.0"/>
    <path d="M33.9 -97.1 Q34.25 -96.1 33.8 -95.6 L32.3 -95.45 Q31.3 -95.75 30.35 -96.7 L30.0 -97.1 30.25 -97.4 30.55 -97.7 30.9 -97.3 Q31.4 -96.85 31.9 -96.65 L32.6 -96.75 Q32.8 -97.0 32.65 -97.5 L32.0 -98.4 31.6 -98.75 32.2 -99.3 32.6 -99.0 Q33.55 -98.05 33.9 -97.1" fill="#c1c1c6" fill-rule="evenodd" stroke="none"/>
    <path d="M33.9 -97.1 Q33.55 -98.05 32.6 -99.0 L32.2 -99.3 31.6 -98.75 32.0 -98.4 32.65 -97.5 Q32.8 -97.0 32.6 -96.75 L31.9 -96.65 Q31.4 -96.85 30.9 -97.3 L30.55 -97.7 30.25 -97.4 30.0 -97.1 30.35 -96.7 Q31.3 -95.75 32.3 -95.45 L33.8 -95.6 Q34.25 -96.1 33.9 -97.1" fill="none" stroke="#000000" stroke-linecap="round" stroke-linejoin="round" stroke-width="1.0"/>
    <path d="M9.25 -74.75 L8.9 -75.1 9.45 -75.75 9.8 -75.4 11.0 -73.5 Q11.3 -72.5 10.9 -71.95 10.45 -71.4 9.55 -71.7 8.7 -71.95 7.75 -72.85 L7.45 -73.2 7.7 -73.55 8.0 -73.9 8.25 -73.55 9.15 -72.95 Q9.6 -72.8 9.8 -73.1 10.0 -73.35 9.85 -73.85 L9.25 -74.75" fill="#c1c1c6" fill-rule="evenodd" stroke="none"/>
    <path d="M9.25 -74.75 L9.85 -73.85 Q10.0 -73.35 9.8 -73.1 9.6 -72.8 9.15 -72.95 L8.25 -73.55 8.0 -73.9 7.7 -73.55 7.45 -73.2 7.75 -72.85 Q8.7 -71.95 9.55 -71.7 10.45 -71.4 10.9 -71.95 11.3 -72.5 11.0 -73.5 L9.8 -75.4 9.45 -75.75 8.9 -75.1 9.25 -74.75" fill="none" stroke="#000000" stroke-linecap="round" stroke-linejoin="round" stroke-width="1.0"/>
    <path d="M-13.7 -48.5 L-13.95 -48.7 -13.7 -49.1 -13.5 -49.5 -13.2 -49.2 Q-12.5 -48.4 -12.3 -47.45 -12.1 -46.5 -12.45 -45.9 -12.9 -45.3 -13.6 -45.45 -14.35 -45.55 -15.1 -46.35 L-15.35 -46.65 -15.1 -47.0 -14.85 -47.4 -14.6 -47.05 -13.9 -46.6 Q-13.5 -46.55 -13.3 -46.85 -13.15 -47.15 -13.25 -47.6 L-13.7 -48.5" fill="#c1c1c6" fill-rule="evenodd" stroke="none"/>
    <path d="M-13.7 -48.5 L-13.25 -47.6 Q-13.15 -47.15 -13.3 -46.85 -13.5 -46.55 -13.9 -46.6 L-14.6 -47.05 -14.85 -47.4 -15.1 -47.0 -15.35 -46.65 -15.1 -46.35 Q-14.35 -45.55 -13.6 -45.45 -12.9 -45.3 -12.45 -45.9 -12.1 -46.5 -12.3 -47.45 -12.5 -48.4 -13.2 -49.2 L-13.5 -49.5 -13.7 -49.1 -13.95 -48.7 -13.7 -48.5" fill="none" stroke="#000000" stroke-linecap="round" stroke-linejoin="round" stroke-width="1.0"/>
    <path d="M101.35 -146.0 Q102.15 -145.3 102.2 -144.55 102.25 -143.85 101.6 -143.45 L99.95 -143.3 Q98.95 -143.5 98.15 -144.2 L97.9 -144.5 98.35 -144.75 98.75 -144.95 99.0 -144.65 Q99.4 -144.3 99.85 -144.2 L100.65 -144.25 Q101.0 -144.5 100.95 -144.85 L100.55 -145.55 100.2 -145.8 100.65 -146.0 101.1 -146.25 101.35 -146.0" fill="#c1c1c6" fill-rule="evenodd" stroke="none"/>
    <path d="M101.35 -146.0 L101.1 -146.25 100.65 -146.0 100.2 -145.8 100.55 -145.55 100.95 -144.85 Q101.0 -144.5 100.65 -144.25 L99.85 -144.2 Q99.4 -144.3 99.0 -144.65 L98.75 -144.95 98.35 -144.75 97.9 -144.5 98.15 -144.2 Q98.95 -143.5 99.95 -143.3 L101.6 -143.45 Q102.25 -143.85 102.2 -144.55 102.15 -145.3 101.35 -146.0" fill="none" stroke="#000000" stroke-linecap="round" stroke-linejoin="round" stroke-width="1.0"/>
    <path d="M130.05 -158.95 Q130.55 -158.45 130.35 -157.8 L129.45 -156.8 127.8 -156.6 Q126.9 -156.75 126.35 -157.3 L126.15 -157.5 126.65 -157.75 127.15 -157.95 127.3 -157.75 Q127.55 -157.45 128.0 -157.4 L128.8 -157.5 129.25 -158.0 129.1 -158.55 128.85 -158.7 129.3 -158.9 129.8 -159.15 130.05 -158.95" fill="#c1c1c6" fill-rule="evenodd" stroke="none"/>
    <path d="M130.05 -158.95 L129.8 -159.15 129.3 -158.9 128.85 -158.7 129.1 -158.55 129.25 -158.0 128.8 -157.5 128.0 -157.4 Q127.55 -157.45 127.3 -157.75 L127.15 -157.95 126.65 -157.75 126.15 -157.5 126.35 -157.3 Q126.9 -156.75 127.8 -156.6 L129.45 -156.8 130.35 -157.8 Q130.55 -158.45 130.05 -158.95" fill="none" stroke="#000000" stroke-linecap="round" stroke-linejoin="round" stroke-width="1.0"/>
    <path d="M-12.85 -22.9 Q-12.25 -25.6 -12.3 -28.9 -12.4 -32.25 -12.9 -35.65 L-13.8 -41.95 -14.45 -46.65 Q-14.6 -48.5 -14.05 -48.65 L-8.4 -50.15 Q-5.3 -51.0 -2.15 -52.65 1.0 -54.3 3.55 -57.15 6.1 -60.05 7.5 -64.6 8.9 -69.15 8.6 -75.9 13.85 -75.1 17.6 -76.05 21.4 -77.05 23.95 -79.3 26.5 -81.5 28.05 -84.35 29.6 -87.25 30.4 -90.15 L31.5 -95.55 31.8 -99.35 Q38.0 -99.2 42.65 -100.7 47.35 -102.15 50.75 -104.7 54.2 -107.25 56.55 -110.2 58.85 -113.25 60.4 -116.05 L62.85 -121.0 Q63.75 -123.15 64.3 -123.85 L74.9 -124.35 Q79.5 -125.3 82.9 -127.35 86.3 -129.4 88.85 -131.95 L93.3 -137.05 96.65 -141.7 Q98.2 -143.7 99.65 -144.75 101.05 -145.65 103.75 -146.5 L109.8 -148.35 116.75 -150.7 Q120.35 -152.05 123.55 -153.85 126.75 -155.7 129.05 -158.15" fill="none" stroke="#000000" stroke-linecap="round" stroke-linejoin="round" stroke-width="1.0"/>
    <path d="M130.45 -158.75 Q130.2 -158.3 129.55 -158.4 103.25 -147.1 80.3 -133.1 57.3 -119.05 37.35 -101.95 17.35 -84.8 -0.1 -64.35 -17.6 -43.85 -32.9 -19.75 L-33.3 -19.25 -34.2 -18.65 Q-34.75 -18.5 -35.4 -19.25 -36.0 -20.1 -36.0 -20.95 L-35.65 -22.35 -35.3 -22.95 Q-22.4 -45.15 -6.4 -64.85 9.55 -84.5 29.2 -101.3 44.1 -113.9 60.25 -124.3 76.45 -134.7 93.7 -143.3 110.95 -151.9 128.95 -159.1 L129.35 -159.4 129.95 -159.45 Q130.6 -159.25 130.45 -158.75" fill="#c1c1c6" fill-rule="evenodd" stroke="none"/>
    <path d="M130.45 -158.75 Q130.6 -159.25 129.95 -159.45 L129.35 -159.4 128.95 -159.1 Q110.95 -151.9 93.7 -143.3 76.45 -134.7 60.25 -124.3 44.1 -113.9 29.2 -101.3 9.55 -84.5 -6.4 -64.85 -22.4 -45.15 -35.3 -22.95 L-35.65 -22.35 -36.0 -20.95 Q-36.0 -20.1 -35.4 -19.25 -34.75 -18.5 -34.2 -18.65 L-33.3 -19.25 -32.9 -19.75 Q-17.6 -43.85 -0.1 -64.35 17.35 -84.8 37.35 -101.95 57.3 -119.05 80.3 -133.1 103.25 -147.1 129.55 -158.4 130.2 -158.3 130.45 -158.75" fill="none" stroke="#000000" stroke-linecap="round" stroke-linejoin="round" stroke-width="1.0"/>
    <path d="M127.2 -157.85 L123.9 -156.45 121.05 -155.25 117.85 -153.85 Q92.85 -142.9 71.0 -129.4 49.15 -115.9 30.25 -99.5 11.3 -83.05 -5.05 -63.35 -21.4 -43.6 -35.45 -20.15 L-35.6 -20.9 -35.6 -21.1 Q-20.95 -45.9 -3.6 -66.3 13.75 -86.7 34.0 -103.35 54.15 -120.0 77.4 -133.45 100.7 -146.95 127.2 -157.85 M129.95 -158.95 L129.95 -158.9 129.7 -158.8 129.65 -158.8 129.55 -158.8 129.95 -158.95" fill="#dbdbdd" fill-rule="evenodd" stroke="none"/>
    <path d="M129.8 -159.05 L129.85 -159.0 129.4 -158.85 129.45 -158.9 129.8 -159.05 M121.45 -155.6 L123.25 -156.35 124.85 -157.0 126.75 -157.75 Q100.5 -146.6 77.7 -132.6 54.9 -118.65 35.15 -101.55 15.35 -84.45 -1.8 -63.95 -19.0 -43.5 -34.0 -19.25 L-34.35 -19.15 -34.55 -19.15 Q-20.05 -42.85 -3.4 -63.0 13.25 -83.1 32.45 -99.95 51.65 -116.75 73.8 -130.65 95.95 -144.45 121.45 -155.6" fill="#9a9a9b" fill-rule="evenodd" stroke="none"/>
    <path d="M-12.35 -22.8 Q-13.05 -20.9 -14.6 -19.6 -16.1 -18.3 -18.15 -17.85 -21.2 -17.25 -23.55 -18.95 -25.9 -20.65 -26.8 -24.05 -27.35 -26.35 -26.95 -28.45 -26.6 -30.6 -25.35 -32.05 -24.1 -33.55 -22.05 -33.95 -19.95 -34.3 -17.9 -33.45 -15.85 -32.6 -14.3 -30.9 -12.7 -29.2 -12.2 -26.95 -11.7 -24.7 -12.35 -22.8" fill="#c1c1c6" fill-rule="evenodd" stroke="none"/>
    <path d="M-12.35 -22.8 Q-13.05 -20.9 -14.6 -19.6 -16.1 -18.3 -18.15 -17.85 -21.2 -17.25 -23.55 -18.95 -25.9 -20.65 -26.8 -24.05 -27.35 -26.35 -26.95 -28.45 -26.6 -30.6 -25.35 -32.05 -24.1 -33.55 -22.05 -33.95 -19.95 -34.3 -17.9 -33.45 -15.85 -32.6 -14.3 -30.9 -12.7 -29.2 -12.2 -26.95 -11.7 -24.7 -12.35 -22.8" fill="none" stroke="#000000" stroke-linecap="round" stroke-linejoin="round" stroke-width="1.0"/>
    <path d="M-13.45 -22.45 L-13.2 -21.95 Q-13.95 -20.5 -15.25 -19.5 -16.55 -18.55 -18.2 -18.2 -21.1 -17.65 -23.3 -19.3 -25.55 -20.85 -26.4 -24.1 -26.75 -25.65 -26.7 -27.15 -26.65 -28.6 -26.1 -29.9 L-26.05 -29.9 Q-26.3 -26.1 -24.55 -23.75 -22.8 -21.35 -19.55 -21.0 -16.4 -21.15 -13.45 -22.45" fill="#b6b6b7" fill-rule="evenodd" stroke="none"/>
    <path d="M-18.0 -32.95 Q-16.1 -32.15 -14.6 -30.6 -13.15 -28.95 -12.65 -26.85 -12.3 -25.25 -12.55 -23.85 -13.8 -26.5 -16.0 -28.25 -18.2 -29.95 -20.75 -30.65 -23.35 -31.3 -25.75 -30.7 -25.15 -31.75 -24.2 -32.5 -23.25 -33.2 -21.95 -33.45 -20.0 -33.75 -18.0 -32.95" fill="#d6d6d8" fill-rule="evenodd" stroke="none"/>
    <path d="M-25.1 -27.75 Q-24.8 -29.25 -23.85 -30.3 -22.95 -31.4 -21.4 -31.7 L-18.4 -31.35 Q-16.95 -30.75 -15.8 -29.55 -14.75 -28.3 -14.3 -26.65 -13.8 -24.15 -15.05 -22.3 -16.3 -20.4 -18.55 -19.9 -20.8 -19.5 -22.6 -20.75 -24.35 -22.05 -25.0 -24.55 -25.4 -26.2 -25.1 -27.75" fill="#d8d8d8" fill-rule="evenodd" stroke="none"/>
    <path d="M-18.7 -31.0 Q-17.45 -30.55 -16.45 -29.55 -15.4 -28.6 -14.9 -27.25 -16.45 -28.85 -18.3 -29.75 -20.2 -30.7 -22.2 -30.95 L-21.25 -31.25 -18.7 -31.0" fill="#e3e3e5" fill-rule="evenodd" stroke="none"/>
    <path d="M-19.55 -21.0 L-16.3 -21.5 Q-17.25 -20.6 -18.65 -20.25 -20.3 -19.95 -21.8 -20.7 -23.2 -21.5 -24.05 -23.1 -22.35 -21.25 -19.55 -21.0" fill="#bbbbbc" fill-rule="evenodd" stroke="none"/>
    <path d="M-15.75 -20.7 L-13.9 -17.5 -14.6 -17.1 -15.3 -16.7 -17.1 -19.85 -18.8 -22.65 -20.85 -25.95 -20.2 -26.4 -19.55 -26.85 -17.5 -23.5 -15.75 -20.7" fill="#6d6d70" fill-rule="evenodd" stroke="none"/>
    <path d="M-15.75 -20.7 L-13.9 -17.5 -14.6 -17.1 -15.3 -16.7 -17.1 -19.85 -18.8 -22.65 -20.85 -25.95 -20.2 -26.4 -19.55 -26.85 -17.5 -23.5 -15.75 -20.7" fill="none" stroke="#000000" stroke-linecap="round" stroke-linejoin="round" stroke-width="1.0"/>
    <path d="M-14.45 -17.65 L-14.6 -17.55 -17.0 -21.8 -19.75 -26.15 -19.6 -26.25 -18.65 -24.7 -17.0 -21.95 -15.35 -19.2 -14.45 -17.65" fill="#7b7b7c" fill-rule="evenodd" stroke="none"/>
    <path d="M-19.95 -26.0 L-17.4 -21.7 -15.0 -17.35 -15.15 -17.25 -16.0 -18.75 -17.65 -21.5 -19.35 -24.3 -20.25 -25.85 -19.95 -26.0" fill="#59595b" fill-rule="evenodd" stroke="none"/>
    <path d="M-12.15 -17.6 Q-11.95 -17.2 -12.05 -16.8 L-12.5 -16.2 -13.75 -15.5 -14.95 -14.8 -15.7 -14.75 -16.3 -15.2 -16.4 -16.0 -16.0 -16.65 -14.75 -17.35 -13.55 -18.05 -12.8 -18.1 Q-12.4 -17.95 -12.15 -17.6" fill="#6d6d70" fill-rule="evenodd" stroke="none"/>
    <path d="M-12.15 -17.6 Q-11.95 -17.2 -12.05 -16.8 L-12.5 -16.2 -13.75 -15.5 -14.95 -14.8 -15.7 -14.75 -16.3 -15.2 -16.4 -16.0 -16.0 -16.65 -14.75 -17.35 -13.55 -18.05 -12.8 -18.1 Q-12.4 -17.95 -12.15 -17.6" fill="none" stroke="#000000" stroke-linecap="round" stroke-linejoin="round" stroke-width="1.0"/>
    <path d="M-15.7 -16.35 Q-14.95 -15.8 -14.25 -15.75 L-14.7 -15.45 -15.2 -15.2 -15.55 -15.15 -15.95 -15.45 -16.0 -15.95 -15.8 -16.3 -15.7 -16.35" fill="#59595b" fill-rule="evenodd" stroke="none"/>
    <path d="M-12.7 -16.65 L-12.8 -16.55 -14.55 -17.1 -13.95 -17.4 -13.35 -17.75 -12.95 -17.8 -12.5 -17.45 Q-12.4 -17.2 -12.45 -16.95 L-12.7 -16.65" fill="#7b7b7c" fill-rule="evenodd" stroke="none"/>
    <path d="M-18.0 -26.05 Q-17.85 -25.25 -18.25 -24.55 -18.6 -23.95 -19.35 -23.8 -20.1 -23.65 -20.7 -24.1 -21.35 -24.55 -21.55 -25.35 -21.75 -26.2 -21.4 -26.85 -21.05 -27.5 -20.3 -27.65 -19.5 -27.8 -18.9 -27.35 -18.25 -26.9 -18.0 -26.05" fill="#6d6d70" fill-rule="evenodd" stroke="none"/>
    <path d="M-18.0 -26.05 Q-17.85 -25.25 -18.25 -24.55 -18.6 -23.95 -19.35 -23.8 -20.1 -23.65 -20.7 -24.1 -21.35 -24.55 -21.55 -25.35 -21.75 -26.2 -21.4 -26.85 -21.05 -27.5 -20.3 -27.65 -19.5 -27.8 -18.9 -27.35 -18.25 -26.9 -18.0 -26.05" fill="none" stroke="#000000" stroke-linecap="round" stroke-linejoin="round" stroke-width="1.0"/>
    <path d="M-18.4 -25.7 L-19.45 -26.7 -20.85 -26.85 -20.2 -27.25 -19.1 -26.95 Q-18.6 -26.65 -18.45 -25.95 L-18.4 -25.7" fill="#7b7b7c" fill-rule="evenodd" stroke="none"/>
    <path d="M-21.2 -26.1 Q-20.45 -25.25 -19.8 -25.15 L-18.4 -25.3 Q-18.45 -24.85 -18.75 -24.55 L-19.45 -24.15 Q-20.05 -24.05 -20.55 -24.4 -21.0 -24.75 -21.15 -25.4 L-21.2 -26.1" fill="#59595b" fill-rule="evenodd" stroke="none"/>
    <path d="M38.45 4.9 L39.3 5.65 41.6 7.4 Q43.0 8.35 44.85 9.0 46.65 9.65 48.6 9.55 L48.85 9.9 49.05 10.8 48.5 11.8 Q47.95 12.25 46.5 12.55 L45.1 12.65 41.75 12.7 37.35 12.35 Q35.05 12.1 33.1 11.35 31.1 10.6 29.95 9.3 L38.45 4.9" fill="#333333" fill-rule="evenodd" stroke="none"/>
    <path d="M38.45 4.9 L39.3 5.65 41.6 7.4 Q43.0 8.35 44.85 9.0 46.65 9.65 48.6 9.55 L48.85 9.9 49.05 10.8 48.5 11.8 Q47.95 12.25 46.5 12.55 L45.1 12.65 41.75 12.7 37.35 12.35 Q35.05 12.1 33.1 11.35 31.1 10.6 29.95 9.3" fill="none" stroke="#000000" stroke-linecap="round" stroke-linejoin="round" stroke-width="2.0"/>
    <path d="M43.4 -53.85 L45.95 -45.9 Q47.3 -42.3 48.65 -39.9 52.3 -33.5 53.1 -25.7 53.65 -19.55 52.2 -13.65 50.7 -7.85 47.45 -2.75 44.15 2.25 39.4 6.1 34.65 9.9 28.75 12.0 20.95 14.75 14.0 14.65 7.0 14.55 0.95 11.7 -7.85 7.55 -14.5 -2.4 -16.85 -6.0 -18.35 -10.15 -19.85 -14.3 -20.3 -18.8 -20.7 -23.05 -20.15 -27.05 -19.6 -31.1 -18.2 -34.75 L-15.6 -41.7 -12.55 -50.25 -9.75 -59.05 Q-8.45 -63.4 -7.7 -66.95 -7.05 -70.55 -7.2 -72.7 -7.65 -77.4 -6.25 -81.6 -4.9 -85.8 -2.05 -89.2 0.75 -92.55 4.75 -94.65 8.65 -96.75 13.4 -97.25 18.15 -97.65 22.45 -96.3 26.7 -95.0 30.15 -92.2 33.5 -89.4 35.7 -85.5 37.85 -81.65 38.35 -76.95 38.55 -74.4 39.3 -70.6 40.0 -66.85 41.05 -62.5 42.1 -58.2 43.4 -53.85" fill="#666666" fill-rule="evenodd" stroke="none"/>
    <path d="M43.4 -53.85 L45.95 -45.9 Q47.3 -42.3 48.65 -39.9 52.3 -33.5 53.1 -25.7 53.65 -19.55 52.2 -13.65 50.7 -7.85 47.45 -2.75 44.15 2.25 39.4 6.1 34.65 9.9 28.75 12.0 20.95 14.75 14.0 14.65 7.0 14.55 0.95 11.7 -7.85 7.55 -14.5 -2.4 -16.85 -6.0 -18.35 -10.15 -19.85 -14.3 -20.3 -18.8 -20.7 -23.05 -20.15 -27.05 -19.6 -31.1 -18.2 -34.75 L-15.6 -41.7 -12.55 -50.25 -9.75 -59.05 Q-8.45 -63.4 -7.7 -66.95 -7.05 -70.55 -7.2 -72.7 -7.65 -77.4 -6.25 -81.6 -4.9 -85.8 -2.05 -89.2 0.75 -92.55 4.75 -94.65 8.65 -96.75 13.4 -97.25 18.15 -97.65 22.45 -96.3 26.7 -95.0 30.15 -92.2 33.5 -89.4 35.7 -85.5 37.85 -81.65 38.35 -76.95 38.55 -74.4 39.3 -70.6 40.0 -66.85 41.05 -62.5 42.1 -58.2 43.4 -53.85" fill="none" stroke="#000000" stroke-linecap="round" stroke-linejoin="round" stroke-width="2.0"/>
    <path d="M35.4 -84.55 Q37.2 -81.0 37.65 -76.85 37.85 -74.25 38.6 -70.4 L40.4 -62.25 Q41.45 -57.85 42.75 -53.5 44.0 -49.2 45.35 -45.55 46.7 -41.9 48.05 -39.55 51.7 -33.05 52.45 -25.6 53.1 -18.2 50.95 -11.5 48.75 -4.85 44.3 0.5 39.8 5.8 33.6 9.15 27.3 12.5 19.8 13.25 L12.0 13.55 Q8.3 13.4 4.75 12.3 1.15 11.25 -2.35 8.85 L-6.2 5.7 -9.95 1.9 -13.1 -1.45 Q-7.8 3.75 -1.15 6.05 5.65 8.4 13.65 7.65 20.75 6.9 26.7 3.6 32.7 0.25 36.95 -5.05 41.2 -10.3 43.25 -16.9 45.35 -23.5 44.75 -30.85 44.45 -33.55 43.75 -35.95 L42.1 -40.75 Q41.2 -43.2 40.45 -45.7 L40.2 -46.7 39.6 -48.7 38.75 -50.6 37.45 -51.7 Q36.35 -52.1 34.95 -51.4 L35.1 -53.05 34.65 -57.25 33.55 -61.8 32.75 -64.95 Q32.1 -67.8 31.8 -71.2 L31.15 -77.95 30.9 -80.7 Q30.5 -84.9 28.65 -88.55 26.75 -92.25 23.7 -95.05 27.6 -93.55 30.6 -90.85 33.55 -88.15 35.4 -84.55" fill="#333333" fill-rule="evenodd" stroke="none"/>
    <path d="M29.75 -82.35 Q30.4 -79.5 30.4 -76.55 L30.35 -75.8 30.35 -74.3 30.55 -68.25 31.15 -60.95 32.05 -53.35 Q32.55 -49.6 33.25 -46.4 33.85 -43.25 34.6 -41.1 36.6 -35.35 36.65 -29.1 L36.65 -27.9 Q36.45 -23.15 35.15 -18.7 33.85 -14.25 31.5 -10.4 29.15 -6.55 25.9 -3.5 21.8 0.25 16.9 2.15 12.0 4.05 6.75 3.95 1.25 3.75 -3.55 1.45 -8.45 -0.85 -12.25 -4.95 -16.05 -9.1 -18.35 -14.7 -18.95 -17.1 -19.15 -19.5 L-19.35 -22.9 Q-19.35 -29.05 -17.15 -34.9 L-16.8 -35.95 -14.3 -42.6 -11.55 -50.3 -9.0 -58.25 -7.1 -65.4 Q-6.45 -68.75 -6.4 -70.95 -5.2 -74.85 -5.15 -76.9 -5.0 -81.5 -3.15 -85.55 L-1.55 -87.85 0.5 -90.2 Q1.6 -91.25 2.8 -91.7 L6.1 -91.6 Q7.6 -91.0 8.45 -90.05 9.3 -89.05 9.0 -88.3 9.75 -89.7 11.3 -90.55 12.85 -91.4 14.7 -91.7 L18.25 -91.85 20.65 -91.4 22.75 -90.75 Q25.65 -89.7 27.35 -87.45 29.05 -85.25 29.75 -82.35" fill="#cccccc" fill-rule="evenodd" stroke="none"/>
    <path d="M0.75 -90.45 L2.8 -91.7 5.65 -91.75 3.95 -89.75 2.55 -87.9 Q0.5 -83.8 0.1 -79.1 -0.1 -77.0 -1.5 -73.1 -1.65 -70.8 -2.55 -67.4 -3.4 -64.05 -4.8 -60.1 L-7.8 -52.05 -10.95 -44.25 -13.75 -37.5 -14.25 -36.45 Q-16.75 -30.55 -17.05 -24.2 L-17.05 -20.75 -16.55 -15.75 Q-14.35 -9.35 -10.35 -4.7 -6.35 -0.05 -1.1 2.45 -6.8 0.4 -11.25 -3.95 -15.7 -8.4 -18.35 -14.7 -18.95 -17.1 -19.15 -19.5 L-19.35 -22.9 Q-19.35 -29.1 -17.15 -34.9 L-17.05 -35.2 -16.9 -35.65 -16.8 -35.95 -12.2 -48.45 -9.75 -55.85 Q-8.55 -59.55 -7.6 -63.3 -6.9 -66.3 -6.6 -69.25 L-6.2 -75.3 -5.75 -79.3 Q-5.45 -81.3 -4.5 -83.15 L-2.4 -86.65 -0.95 -88.65 0.75 -90.45" fill="#e5e5e5" fill-rule="evenodd" stroke="none"/>
    <path d="M27.85 -76.5 L27.85 -78.05 27.85 -78.75 Q27.85 -81.75 27.15 -84.65 26.45 -87.55 24.7 -89.8 26.85 -88.4 28.1 -86.3 29.35 -84.2 29.85 -81.6 30.35 -79.1 30.35 -76.5 L30.35 -75.8 30.3 -74.25 30.55 -68.2 31.1 -60.9 Q31.5 -57.05 32.05 -53.3 32.55 -49.6 33.2 -46.4 33.85 -43.25 34.6 -41.1 36.6 -35.3 36.6 -29.05 L36.6 -27.85 Q36.45 -23.1 35.15 -18.65 33.8 -14.25 31.45 -10.35 29.1 -6.5 25.85 -3.45 21.8 0.3 16.9 2.2 12.0 4.1 6.75 4.0 1.55 3.75 -3.05 1.7 -7.75 -0.4 -11.45 -4.1 -8.05 -1.45 -4.1 0.1 -0.1 1.6 4.25 1.75 9.5 1.85 14.4 0.0 19.3 -1.95 23.4 -5.7 26.65 -8.75 29.0 -12.6 31.3 -16.5 32.65 -20.9 33.95 -25.35 34.1 -30.1 L34.15 -31.3 Q34.1 -37.55 32.1 -43.35 31.35 -45.45 30.7 -48.6 30.05 -51.8 29.5 -55.55 L28.6 -63.15 28.05 -70.45 Q27.8 -73.9 27.85 -76.5" fill="#b4b4b4" fill-rule="evenodd" stroke="none"/>
    <path d="M2.1 -59.9 L1.85 -61.1 20.95 -60.0 20.15 -58.85 18.15 -56.05 15.25 -52.8 Q13.7 -51.2 12.0 -50.15 10.35 -49.15 8.85 -49.25 7.35 -49.5 6.25 -50.75 5.05 -51.95 4.25 -53.65 3.4 -55.4 2.9 -57.1 L2.1 -59.9" fill="#b4b4b4" fill-rule="evenodd" stroke="none"/>
    <path d="M45.3 -45.85 Q46.55 -45.5 47.4 -44.15 48.15 -42.75 48.55 -40.85 L49.05 -36.85 49.05 -33.0 48.75 -30.1 Q48.2 -27.1 46.75 -24.5 45.35 -21.9 43.05 -19.85 L39.2 -17.15 Q37.0 -15.95 34.6 -15.25 32.25 -14.5 29.95 -14.45 28.85 -14.5 28.65 -14.95 28.35 -15.4 28.45 -15.9 L28.6 -16.35 30.15 -18.8 32.2 -23.0 33.85 -27.65 Q34.5 -30.5 34.3 -32.65 L33.75 -36.1 33.3 -37.35 33.35 -38.2 33.75 -40.15 Q34.0 -41.35 34.75 -42.55 L45.3 -45.85" fill="#666666" fill-rule="evenodd" stroke="none"/>
    <path d="M45.3 -45.85 Q46.55 -45.5 47.4 -44.15 48.15 -42.75 48.55 -40.85 L49.05 -36.85 49.05 -33.0 48.75 -30.1 Q48.2 -27.1 46.75 -24.5 45.35 -21.9 43.05 -19.85 L39.2 -17.15 Q37.0 -15.95 34.6 -15.25 32.25 -14.5 29.95 -14.45 28.85 -14.5 28.65 -14.95 28.35 -15.4 28.45 -15.9 L28.6 -16.35 30.15 -18.8 32.2 -23.0 33.85 -27.65 Q34.5 -30.5 34.3 -32.65 L33.75 -36.1 33.3 -37.35 33.35 -38.2 33.75 -40.15 Q34.0 -41.35 34.75 -42.55" fill="none" stroke="#000000" stroke-linecap="round" stroke-linejoin="round" stroke-width="2.0"/>
    <path d="M39.25 -43.75 L40.45 -44.85 41.25 -45.45 43.0 -45.5 44.65 -44.7 46.35 -44.45 Q48.3 -39.3 48.35 -34.2 48.45 -29.15 46.2 -24.85 43.95 -20.55 39.0 -17.7 41.1 -21.3 42.65 -24.95 44.25 -28.65 45.05 -31.7 L45.05 -31.75 Q45.5 -34.2 44.5 -36.0 43.45 -37.8 41.8 -39.15 L38.45 -41.6 Q38.05 -41.9 38.35 -42.5 L39.25 -43.75" fill="#333333" fill-rule="evenodd" stroke="none"/>
    <path d="M34.65 -26.9 L33.55 -22.85 Q32.95 -20.8 32.8 -19.35 32.55 -17.95 33.2 -17.75 34.7 -17.6 37.0 -18.6 39.25 -19.65 41.6 -21.35 L45.7 -24.75 Q47.4 -26.55 47.85 -27.85 46.85 -24.65 45.05 -22.45 43.25 -20.2 41.05 -18.75 38.85 -17.35 36.75 -16.5 L32.9 -15.3 30.45 -14.9 30.0 -14.85 29.35 -14.95 28.85 -15.3 Q28.75 -15.55 28.8 -15.8 L28.9 -16.2 30.5 -18.85 32.6 -23.0 Q33.6 -25.4 34.2 -27.6 L35.1 -31.65 35.15 -30.25 Q35.1 -28.95 34.65 -26.9" fill="#999999" fill-rule="evenodd" stroke="none"/>
    <path d="M2.7 -59.95 L2.35 -61.1 21.35 -61.0 20.1 -59.8 17.0 -57.25 Q15.05 -55.8 12.95 -54.7 10.85 -53.65 8.9 -53.6 7.05 -53.75 5.8 -54.9 4.5 -56.05 3.75 -57.45 3.0 -58.9 2.7 -59.95" fill="#d8a235" fill-rule="evenodd" stroke="none"/>
    <path d="M2.7 -59.95 L2.35 -61.1 21.35 -61.0 20.1 -59.8 17.0 -57.25 Q15.05 -55.8 12.95 -54.7 10.85 -53.65 8.9 -53.6 7.05 -53.75 5.8 -54.9 4.5 -56.05 3.75 -57.45 3.0 -58.9 2.7 -59.95" fill="none" stroke="#000000" stroke-linecap="round" stroke-linejoin="round" stroke-width="1.0"/>
    <path d="M11.9 -56.45 Q10.55 -55.75 9.25 -55.75 7.85 -55.8 7.05 -56.5 6.2 -57.2 5.8 -58.1 L5.25 -59.7 5.15 -60.4 16.95 -60.35 16.25 -59.65 14.4 -58.05 11.9 -56.45" fill="#c12d05" fill-rule="evenodd" stroke="none"/>
    <path d="M11.9 -56.45 Q10.55 -55.75 9.25 -55.75 7.85 -55.8 7.05 -56.5 6.2 -57.2 5.8 -58.1 L5.25 -59.7 5.15 -60.4 16.95 -60.35 16.25 -59.65 14.4 -58.05 11.9 -56.45" fill="none" stroke="#000000" stroke-linecap="round" stroke-linejoin="round" stroke-width="1.0"/>
    <path d="M12.85 -60.0 L14.9 -60.0 16.1 -60.0 14.35 -58.4 Q13.25 -57.5 11.85 -56.8 10.5 -56.05 9.2 -56.05 7.7 -56.15 6.9 -57.05 8.8 -56.95 10.4 -57.65 12.05 -58.4 12.85 -60.0" fill="#9b0d0d" fill-rule="evenodd" stroke="none"/>
    <path d="M19.3 -63.0 L21.75 -62.65 Q22.45 -62.55 22.45 -62.35 L21.9 -61.2 Q21.5 -60.5 20.35 -60.15 L17.7 -59.7 14.85 -59.6 12.9 -59.55 10.2 -59.55 7.5 -59.35 4.95 -58.7 2.6 -58.15 Q1.5 -58.0 0.55 -58.55 -0.4 -59.15 -1.25 -60.75 L-1.8 -60.65 -3.0 -60.65 Q-3.7 -60.7 -4.1 -61.2 -4.5 -61.75 -4.4 -62.4 L-3.95 -63.6 -3.7 -64.15 -2.4 -64.6 Q-1.25 -65.0 0.4 -65.75 2.05 -66.45 3.55 -67.4 5.0 -68.35 5.65 -69.35 6.1 -70.1 6.6 -70.0 7.15 -69.9 7.65 -69.4 L8.5 -68.25 9.1 -67.35 10.75 -65.75 Q11.65 -65.1 12.75 -64.6 14.3 -63.95 15.95 -63.6 L19.3 -63.0" fill="#f9c248" fill-rule="evenodd" stroke="none"/>
    <path d="M19.3 -63.0 L15.95 -63.6 Q14.3 -63.95 12.75 -64.6 11.65 -65.1 10.75 -65.75 L9.1 -67.35 8.5 -68.25 7.65 -69.4 Q7.15 -69.9 6.6 -70.0 6.1 -70.1 5.65 -69.35 5.0 -68.35 3.55 -67.4 2.05 -66.45 0.4 -65.75 -1.25 -65.0 -2.4 -64.6 L-3.7 -64.15 -3.95 -63.6 -4.4 -62.4 Q-4.5 -61.75 -4.1 -61.2 -3.7 -60.7 -3.0 -60.65 L-1.8 -60.65 -1.25 -60.75 Q-0.4 -59.15 0.55 -58.55 1.5 -58.0 2.6 -58.15 L4.95 -58.7 7.5 -59.35 10.2 -59.55 12.9 -59.55 14.85 -59.6 17.7 -59.7 20.35 -60.15 Q21.5 -60.5 21.9 -61.2 L22.45 -62.35 Q22.45 -62.55 21.75 -62.65 L19.3 -63.0" fill="none" stroke="#000000" stroke-linecap="round" stroke-linejoin="round" stroke-width="1.0"/>
    <path d="M19.8 -60.35 L16.85 -60.0 14.15 -59.95 11.2 -59.9 7.65 -59.7 5.2 -59.1 2.85 -58.45 0.85 -58.65 Q-0.05 -59.1 -0.85 -60.65 L-0.75 -61.15 -1.05 -61.1 -1.9 -60.95 -3.0 -60.95 Q-3.55 -61.0 -3.9 -61.35 L-4.1 -62.1 -3.95 -62.95 -3.45 -62.5 -2.95 -61.95 Q-2.45 -61.8 -1.9 -61.95 L-0.85 -62.05 -0.2 -61.55 0.4 -61.0 Q1.05 -60.55 1.8 -60.35 2.6 -60.1 3.35 -60.35 L4.6 -61.1 Q5.2 -61.55 6.0 -61.65 L7.3 -61.6 8.6 -61.35 13.7 -60.9 18.25 -61.1 19.1 -61.15 20.55 -61.45 Q21.35 -61.7 22.0 -62.3 L22.0 -62.15 21.85 -61.8 21.6 -61.35 Q21.2 -60.65 19.8 -60.35" fill="#d8a235" fill-rule="evenodd" stroke="none"/>
    <path d="M7.65 -64.95 L7.35 -63.9 6.5 -64.0 Q6.0 -64.25 6.35 -64.45 L7.15 -64.8 7.65 -64.95" fill="#d8a235" fill-rule="evenodd" stroke="none"/>
    <path d="M8.25 -67.95 L8.6 -67.3 Q7.75 -67.35 7.25 -67.75 L6.5 -68.2 5.75 -67.9 4.9 -67.2 4.5 -66.85 Q2.1 -65.3 0.6 -64.65 -0.95 -64.0 -1.8 -63.9 L-3.0 -63.95 -3.3 -64.1 Q-0.45 -64.7 1.55 -65.8 3.55 -66.9 4.65 -67.85 L5.7 -68.8 6.2 -69.45 6.6 -69.6 Q7.0 -69.65 7.45 -69.1 L8.25 -67.95" fill="#ffe4b3" fill-rule="evenodd" stroke="none"/>
    <path d="M9.15 7.4 L18.7 10.95 18.3 12.0 16.8 14.4 Q15.75 15.75 13.7 16.9 11.2 18.15 7.4 18.95 L-0.65 19.95 -8.85 19.7 Q-11.1 19.4 -11.65 18.7 -12.2 18.0 -11.6 17.05 -11.0 16.15 -9.75 15.35 -8.55 14.45 -7.25 13.95 -6.0 13.4 -5.15 13.4 -4.15 13.4 -1.85 12.5 L2.95 10.4 7.25 8.35 9.15 7.4" fill="#333333" fill-rule="evenodd" stroke="none"/>
    <path d="M9.15 7.4 L7.25 8.35 2.95 10.4 -1.85 12.5 Q-4.15 13.4 -5.15 13.4 -6.0 13.4 -7.25 13.95 -8.55 14.45 -9.75 15.35 -11.0 16.15 -11.6 17.05 -12.2 18.0 -11.65 18.7 -11.1 19.4 -8.85 19.7 L-0.65 19.95 7.4 18.95 Q11.2 18.15 13.7 16.9 15.75 15.75 16.8 14.4 L18.3 12.0 18.7 10.95" fill="none" stroke="#000000" stroke-linecap="round" stroke-linejoin="round" stroke-width="2.0"/>
    <path d="M-10.2 -50.2 L-11.55 -48.25 Q-12.55 -46.95 -14.3 -45.55 -16.1 -44.2 -18.7 -43.35 -21.3 -42.5 -24.75 -42.75 -26.3 -42.95 -26.85 -43.7 -27.5 -44.5 -27.3 -45.45 -27.1 -46.5 -26.25 -47.25 L-25.7 -47.6 Q-23.65 -48.7 -22.35 -50.35 -21.05 -51.95 -21.05 -54.6 L-20.65 -55.1 Q-20.25 -55.6 -19.05 -55.75 -17.95 -55.95 -15.7 -55.15 -12.4 -53.9 -11.0 -52.7 -9.65 -51.5 -10.2 -50.2" fill="#666666" fill-rule="evenodd" stroke="none"/>
    <path d="M-10.2 -50.2 L-11.55 -48.25 Q-12.55 -46.95 -14.3 -45.55 -16.1 -44.2 -18.7 -43.35 -21.3 -42.5 -24.75 -42.75 -26.3 -42.95 -26.85 -43.7 -27.5 -44.5 -27.3 -45.45 -27.1 -46.5 -26.25 -47.25 L-25.7 -47.6 Q-23.65 -48.7 -22.35 -50.35 -21.05 -51.95 -21.05 -54.6 L-20.65 -55.1 Q-20.25 -55.6 -19.05 -55.75 -17.95 -55.95 -15.7 -55.15 -12.4 -53.9 -11.0 -52.7 -9.65 -51.5 -10.2 -50.2" fill="none" stroke="#000000" stroke-linecap="round" stroke-linejoin="round" stroke-width="2.0"/>
    <path d="M-21.25 -51.1 Q-20.55 -52.5 -20.55 -54.45 L-20.1 -54.95 -18.65 -55.25 -15.9 -54.65 Q-13.8 -53.9 -12.5 -53.15 -10.95 -52.2 -10.65 -51.4 -10.45 -51.0 -10.65 -50.5 L-10.8 -50.25 Q-11.15 -51.55 -12.35 -52.5 L-13.0 -52.95 Q-14.2 -53.6 -15.35 -53.75 L-17.35 -53.7 Q-18.65 -53.15 -19.5 -52.0 L-21.15 -49.5 Q-21.75 -48.3 -22.5 -47.25 -23.25 -46.3 -24.3 -45.6 -25.3 -45.0 -26.85 -45.0 L-26.65 -45.95 -25.95 -46.8 -25.45 -47.15 Q-24.2 -47.85 -23.1 -48.8 -22.0 -49.75 -21.25 -51.1" fill="#999999" fill-rule="evenodd" stroke="none"/>
    <path d="M274.55 -7.55 L275.8 -4.45 276.5 -1.6 Q276.6 -0.35 276.0 0.2 L274.7 0.25 273.15 -0.95 270.9 -2.6 267.55 -3.9 262.7 -4.1 256.35 -2.7 246.3 -0.05 233.5 2.95 Q226.55 4.4 219.05 5.25 L203.9 5.9 Q196.3 5.75 189.15 4.05 181.95 2.3 175.75 -1.45 168.6 -5.85 164.35 -10.85 160.15 -15.85 158.1 -20.85 156.1 -25.9 155.6 -30.4 155.15 -34.95 155.5 -38.55 155.9 -42.05 156.45 -44.15 L157.1 -46.25 155.8 -47.15 Q154.55 -48.05 152.9 -49.95 151.2 -51.9 149.85 -54.85 148.45 -57.85 148.1 -61.9 147.7 -66.0 149.05 -71.3 L149.3 -72.15 149.4 -74.1 Q149.3 -75.25 148.55 -76.1 L146.95 -77.8 Q146.2 -78.7 146.05 -79.5 145.9 -80.35 146.95 -80.9 147.8 -81.25 149.05 -80.9 L151.5 -79.95 153.55 -78.8 154.45 -78.2 154.8 -79.5 156.0 -82.6 Q156.75 -84.5 158.0 -86.4 159.2 -88.35 160.85 -89.75 162.5 -91.2 164.55 -91.55 L165.35 -91.35 167.5 -90.0 Q168.8 -88.8 170.4 -86.25 171.65 -84.2 173.45 -81.95 175.2 -79.75 177.35 -77.75 179.5 -75.75 181.65 -74.45 183.85 -73.1 185.9 -72.9 L187.0 -72.55 189.6 -71.15 Q191.2 -70.15 192.95 -68.15 194.65 -66.2 196.05 -63.05 197.5 -59.9 198.15 -55.3 L199.45 -44.4 Q199.95 -39.35 200.75 -35.1 201.55 -30.85 203.2 -27.45 204.8 -24.1 207.75 -21.7 210.1 -19.75 212.75 -17.85 215.45 -15.9 218.9 -14.15 222.35 -12.4 227.1 -11.0 231.85 -9.55 238.35 -8.55 L253.6 -7.3 255.3 -8.1 259.35 -10.2 264.4 -13.15 Q267.0 -14.75 269.1 -16.35 L270.05 -16.9 272.2 -17.95 274.7 -18.6 Q275.9 -18.7 276.55 -17.95 277.1 -17.1 276.65 -16.0 L275.3 -13.7 273.65 -11.8 272.8 -11.0 273.35 -10.0 274.55 -7.55" fill="#a33128" fill-rule="evenodd" stroke="none"/>
    <path d="M274.55 -7.55 L275.8 -4.45 276.5 -1.6 Q276.6 -0.35 276.0 0.2 L274.7 0.25 273.15 -0.95 270.9 -2.6 267.55 -3.9 262.7 -4.1 256.35 -2.7 246.3 -0.05 233.5 2.95 Q226.55 4.4 219.05 5.25 L203.9 5.9 Q196.3 5.75 189.15 4.05 181.95 2.3 175.75 -1.45 168.6 -5.85 164.35 -10.85 160.15 -15.85 158.1 -20.85 156.1 -25.9 155.6 -30.4 155.15 -34.95 155.5 -38.55 155.9 -42.05 156.45 -44.15 L157.1 -46.25 155.8 -47.15 Q154.55 -48.05 152.9 -49.95 151.2 -51.9 149.85 -54.85 148.45 -57.85 148.1 -61.9 147.7 -66.0 149.05 -71.3 L149.3 -72.15 149.4 -74.1 Q149.3 -75.25 148.55 -76.1 L146.95 -77.8 Q146.2 -78.7 146.05 -79.5 145.9 -80.35 146.95 -80.9 147.8 -81.25 149.05 -80.9 L151.5 -79.95 153.55 -78.8 154.45 -78.2 154.8 -79.5 156.0 -82.6 Q156.75 -84.5 158.0 -86.4 159.2 -88.35 160.85 -89.75 162.5 -91.2 164.55 -91.55 L165.35 -91.35 167.5 -90.0 Q168.8 -88.8 170.4 -86.25 171.65 -84.2 173.45 -81.95 175.2 -79.75 177.35 -77.75 179.5 -75.75 181.65 -74.45 183.85 -73.1 185.9 -72.9 L187.0 -72.55 189.6 -71.15 Q191.2 -70.15 192.95 -68.15 194.65 -66.2 196.05 -63.05 197.5 -59.9 198.15 -55.3 L199.45 -44.4 Q199.95 -39.35 200.75 -35.1 201.55 -30.85 203.2 -27.45 204.8 -24.1 207.75 -21.7 210.1 -19.75 212.75 -17.85 215.45 -15.9 218.9 -14.15 222.35 -12.4 227.1 -11.0 231.85 -9.55 238.35 -8.55 L253.6 -7.3 255.3 -8.1 259.35 -10.2 264.4 -13.15 Q267.0 -14.75 269.1 -16.35 L270.05 -16.9 272.2 -17.95 274.7 -18.6 Q275.9 -18.7 276.55 -17.95 277.1 -17.1 276.65 -16.0 L275.3 -13.7 273.65 -11.8 272.8 -11.0 273.35 -10.0 274.55 -7.55" fill="none" stroke="#000000" stroke-linecap="round" stroke-linejoin="round" stroke-width="2.0"/>
    <path d="M192.7 -61.1 Q191.75 -64.2 189.85 -66.95 L185.65 -72.2 185.75 -72.2 187.45 -71.55 Q188.95 -70.95 190.95 -69.2 193.0 -67.45 194.8 -64.05 196.65 -60.7 197.45 -55.2 L198.5 -46.45 Q199.05 -40.85 199.85 -36.1 200.65 -31.35 202.35 -27.6 204.05 -23.8 207.3 -21.15 L207.4 -21.05 212.25 -17.35 Q214.8 -15.5 218.15 -13.8 221.45 -12.05 225.95 -10.6 230.5 -9.15 236.55 -8.15 L250.8 -6.7 Q245.9 -4.25 240.45 -3.4 235.05 -2.6 229.45 -3.15 223.85 -3.7 218.5 -5.4 213.1 -7.05 208.25 -9.6 203.0 -12.3 198.9 -16.55 194.85 -20.8 192.25 -26.2 189.65 -31.55 188.85 -37.5 188.05 -43.45 189.35 -49.5 189.4 -50.05 189.9 -50.55 L191.1 -51.75 192.35 -53.0 Q192.8 -53.65 192.85 -54.4 193.65 -58.05 192.7 -61.1" fill="#ba3b35" fill-rule="evenodd" stroke="none"/>
    <path d="M275.95 -17.55 Q276.35 -16.95 275.85 -15.9 L274.3 -13.65 272.35 -11.55 271.9 -11.2 272.2 -10.7 274.3 -6.3 275.65 -2.45 Q276.05 -0.8 275.6 -0.4 275.35 -0.25 275.0 -0.4 L273.8 -1.35 271.45 -3.1 Q270.0 -4.0 267.9 -4.55 L262.6 -4.8 258.7 -4.0 252.8 -2.45 242.65 0.15 230.2 2.8 216.45 4.75 Q209.4 5.4 202.3 5.1 195.2 4.8 188.55 3.1 181.9 1.4 176.1 -2.05 167.3 -7.45 162.3 -14.55 157.35 -21.7 156.3 -30.45 155.85 -34.9 156.2 -38.4 156.6 -41.85 157.1 -43.85 L157.75 -46.0 157.95 -46.55 157.4 -46.85 156.0 -47.85 Q154.75 -48.8 153.2 -50.65 151.6 -52.5 150.3 -55.4 149.0 -58.2 148.7 -62.15 148.4 -66.05 149.7 -71.05 L149.95 -72.1 Q150.2 -73.05 150.05 -74.3 149.95 -75.6 149.0 -76.6 L148.0 -77.65 147.1 -78.8 Q146.7 -79.4 146.75 -79.8 L146.8 -79.95 147.25 -80.25 149.1 -80.2 151.6 -79.1 154.0 -77.65 154.85 -77.1 155.1 -78.05 155.4 -79.15 156.35 -81.7 157.95 -84.95 Q158.9 -86.7 160.15 -88.1 161.4 -89.6 163.0 -90.35 161.9 -88.35 161.15 -86.15 L159.95 -81.75 Q159.25 -78.75 159.1 -75.0 158.95 -71.25 159.45 -67.25 159.9 -63.25 161.05 -59.5 162.15 -55.7 163.95 -52.6 165.8 -49.6 168.3 -47.7 170.85 -45.8 174.2 -45.6 172.8 -44.7 171.65 -42.35 170.55 -40.1 169.9 -37.1 169.25 -34.05 169.2 -30.9 169.2 -27.75 170.0 -25.05 171.7 -19.15 174.65 -15.05 177.6 -11.0 181.9 -8.2 186.25 -5.4 192.15 -3.35 199.55 -0.6 207.65 0.95 215.7 2.55 223.7 2.45 231.65 2.45 238.8 0.25 245.95 -1.95 251.5 -6.7 L253.55 -6.6 253.75 -6.6 253.9 -6.65 255.75 -7.6 259.85 -9.7 264.85 -12.6 Q267.45 -14.2 269.45 -15.8 L271.75 -17.05 Q273.1 -17.65 274.3 -17.85 275.5 -18.1 275.95 -17.55" fill="#842824" fill-rule="evenodd" stroke="none"/>
    <path d="M193.85 -75.6 L199.75 -76.1 Q200.3 -73.85 200.1 -71.75 199.85 -69.55 199.25 -67.75 L198.15 -64.95 197.6 -63.85 192.8 -65.45 Q193.95 -66.3 194.3 -67.9 194.65 -69.55 194.5 -71.3 L194.15 -74.3 193.85 -75.6" fill="#000000" fill-rule="evenodd" stroke="none"/>
    <path d="M174.65 -22.2 Q173.25 -22.0 171.6 -21.15 169.95 -20.35 168.45 -19.35 L166.05 -17.65 165.1 -16.85 Q164.15 -20.45 164.45 -23.1 164.75 -25.7 165.65 -27.4 166.6 -29.1 167.4 -29.9 L168.25 -30.75 174.65 -22.2" fill="#a33128" fill-rule="evenodd" stroke="none"/>
    <path d="M168.25 -30.75 L167.4 -29.9 Q166.6 -29.1 165.65 -27.4 164.75 -25.7 164.45 -23.1 164.15 -20.45 165.1 -16.85 L166.05 -17.65 168.45 -19.35 Q169.95 -20.35 171.6 -21.15 173.25 -22.0 174.65 -22.2" fill="none" stroke="#000000" stroke-linecap="round" stroke-linejoin="round" stroke-width="2.0"/>
    <path d="M190.95 -51.8 L192.8 -53.45 Q190.15 -50.55 187.2 -48.75 183.35 -46.35 179.4 -45.4 175.4 -44.4 171.8 -44.45 L165.3 -44.95 Q162.4 -45.4 160.75 -45.95 L159.05 -46.45 Q165.4 -44.95 170.55 -45.0 175.65 -45.0 179.55 -46.05 183.5 -47.1 186.3 -48.7 189.15 -50.2 190.95 -51.8" fill="#000000" fill-rule="evenodd" stroke="none"/>
    <path d="M172.35 -69.35 Q170.6 -67.65 170.4 -65.95 170.25 -64.2 171.05 -62.65 171.85 -61.1 173.05 -59.85 L175.1 -57.95 176.05 -57.2 Q172.5 -59.1 170.8 -60.7 169.05 -62.3 168.7 -63.7 168.3 -65.05 168.8 -66.1 L170.1 -67.9 171.65 -68.95 172.35 -69.35" fill="#000000" fill-rule="evenodd" stroke="none"/>
    <path d="M193.8 -33.9 L198.45 -25.05 Q197.15 -22.2 195.05 -19.8 L190.55 -15.4 Q188.2 -13.45 186.05 -12.05 183.9 -10.65 182.6 -9.95 L181.2 -9.15 Q179.6 -9.6 178.2 -10.65 176.75 -11.75 175.65 -13.0 L173.9 -15.2 173.25 -16.15 Q178.0 -17.35 181.45 -19.45 184.95 -21.55 187.3 -24.05 189.7 -26.5 191.15 -28.7 192.55 -30.95 193.15 -32.45 L193.8 -33.9" fill="#ba3b35" fill-rule="evenodd" stroke="none"/>
    <path d="M212.0 -12.4 Q211.75 -10.75 210.5 -8.6 209.2 -6.4 207.6 -4.3 L204.85 -0.8 203.6 0.65 195.2 -1.65 Q197.6 -2.4 199.2 -3.95 200.85 -5.55 201.9 -7.45 L203.55 -11.1 204.35 -14.0 204.55 -15.2 212.0 -12.4" fill="#ba3b35" fill-rule="evenodd" stroke="none"/>
    <path d="M225.05 -5.4 Q225.0 -3.25 224.45 -1.5 L223.35 1.4 222.7 2.5 213.85 2.5 Q215.25 1.75 216.3 0.1 217.35 -1.5 218.05 -3.3 L219.1 -6.4 219.45 -7.75 225.05 -5.4" fill="#ba3b35" fill-rule="evenodd" stroke="none"/>
    <path d="M233.0 -4.0 L237.65 -4.95 237.2 -2.7 236.3 -0.4 235.8 0.65 230.2 2.05 Q231.55 0.8 232.15 -0.6 L232.9 -2.95 233.0 -4.0" fill="#ba3b35" fill-rule="evenodd" stroke="none"/>
    <path d="M129.35 -155.6 Q128.6 -148.7 129.05 -141.1 129.5 -133.45 131.0 -125.7 132.5 -117.85 134.9 -110.55 137.25 -103.3 140.3 -97.05 143.35 -90.85 146.95 -86.35 150.55 -81.8 154.45 -79.65" fill="none" stroke="#000000" stroke-linecap="round" stroke-linejoin="round" stroke-width="1.0"/>
  </g>
</svg>
