<?xml version="1.0" encoding="UTF-8" standalone="no"?>
<svg xmlns:xlink="http://www.w3.org/1999/xlink" height="178.35px" width="314.25px" xmlns="http://www.w3.org/2000/svg">
  <g transform="matrix(1, 0, 0, 1, 156.45, 92.1)">
    <path d="M-112.3 78.45 L-112.6 79.2 Q-112.9 80.0 -113.75 81.0 -114.55 82.05 -116.1 82.95 -118.0 83.9 -120.9 84.45 L-127.05 85.2 -133.3 85.05 Q-135.0 84.8 -135.45 84.25 -135.85 83.75 -135.4 83.05 L-134.0 81.75 Q-133.1 81.1 -132.1 80.7 L-130.5 80.25 Q-129.75 80.25 -128.0 79.6 L-124.3 78.0 -121.0 76.45 -119.6 75.75 -112.3 78.45" fill="#333333" fill-rule="evenodd" stroke="none"/>
    <path d="M-119.6 75.75 L-121.0 76.45 -124.3 78.0 -128.0 79.6 Q-129.75 80.25 -130.5 80.25 L-132.1 80.7 Q-133.1 81.1 -134.0 81.75 L-135.4 83.05 Q-135.85 83.75 -135.45 84.25 -135.0 84.8 -133.3 85.05 L-127.05 85.2 -120.9 84.45 Q-118.0 83.9 -116.1 82.95 -114.55 82.05 -113.75 81.0 -112.9 80.0 -112.6 79.2 L-112.3 78.45" fill="none" stroke="#000000" stroke-linecap="round" stroke-linejoin="round" stroke-width="2.0"/>
    <path d="M-141.15 17.15 L-139.75 17.2 -136.35 17.5 Q-134.3 17.85 -132.15 18.75 -130.1 19.6 -128.55 21.25 -127.5 22.6 -127.95 24.4 -128.45 26.1 -129.85 27.95 -131.3 29.8 -132.9 31.4 L-135.75 33.9 -136.95 34.9 Q-139.75 33.95 -141.55 32.25 -143.45 30.5 -144.45 28.7 L-146.0 25.65 -146.4 24.3 -141.15 17.15" fill="#333333" fill-rule="evenodd" stroke="none"/>
    <path d="M-141.15 17.15 L-146.4 24.3 -146.0 25.65 -144.45 28.7 Q-143.45 30.5 -141.55 32.25 -139.75 33.95 -136.95 34.9 L-135.75 33.9 -132.9 31.4 Q-131.3 29.8 -129.85 27.95 -128.45 26.1 -127.95 24.4 -127.5 22.6 -128.55 21.25 -130.1 19.6 -132.15 18.75 -134.3 17.85 -136.35 17.5 L-139.75 17.2 -141.15 17.15" fill="none" stroke="#000000" stroke-linecap="round" stroke-linejoin="round" stroke-width="2.0"/>
    <path d="M-53.2 -52.15 Q-52.95 -51.3 -53.45 -50.85 L-55.1 -50.75 -57.1 -51.9 -57.45 -52.2 -57.1 -52.5 -56.75 -52.75 -56.4 -52.4 Q-55.9 -51.95 -55.45 -51.85 -54.9 -51.7 -54.65 -51.85 -54.4 -52.1 -54.5 -52.5 L-55.1 -53.35 -55.5 -53.65 -55.15 -53.9 -54.8 -54.15 -54.4 -53.9 Q-53.45 -53.0 -53.2 -52.15" fill="#c1c1c6" fill-rule="evenodd" stroke="none"/>
    <path d="M-53.2 -52.15 Q-53.45 -53.0 -54.4 -53.9 L-54.8 -54.15 -55.15 -53.9 -55.5 -53.65 -55.1 -53.35 -54.5 -52.5 Q-54.4 -52.1 -54.65 -51.85 -54.9 -51.7 -55.45 -51.85 -55.9 -51.95 -56.4 -52.4 L-56.75 -52.75 -57.1 -52.5 -57.45 -52.2 -57.1 -51.9 -55.1 -50.75 -53.45 -50.85 Q-52.95 -51.3 -53.2 -52.15" fill="none" stroke="#000000" stroke-linecap="round" stroke-linejoin="round" stroke-width="1.0"/>
    <path d="M-86.1 -28.1 Q-85.75 -27.15 -86.2 -26.65 L-87.7 -26.5 Q-88.7 -26.8 -89.65 -27.75 L-90.0 -28.1 -89.75 -28.4 -89.45 -28.7 -89.1 -28.3 -88.1 -27.7 -87.4 -27.75 Q-87.2 -28.05 -87.35 -28.5 L-88.0 -29.45 -88.4 -29.75 -87.8 -30.3 -87.4 -30.0 Q-86.45 -29.05 -86.1 -28.1" fill="#c1c1c6" fill-rule="evenodd" stroke="none"/>
    <path d="M-86.1 -28.1 Q-86.45 -29.05 -87.4 -30.0 L-87.8 -30.3 -88.4 -29.75 -88.0 -29.45 -87.35 -28.5 Q-87.2 -28.05 -87.4 -27.75 L-88.1 -27.7 -89.1 -28.3 -89.45 -28.7 -89.75 -28.4 -90.0 -28.1 -89.65 -27.75 Q-88.7 -26.8 -87.7 -26.5 L-86.2 -26.65 Q-85.75 -27.15 -86.1 -28.1" fill="none" stroke="#000000" stroke-linecap="round" stroke-linejoin="round" stroke-width="1.0"/>
    <path d="M-110.75 -6.05 L-111.1 -6.35 -110.55 -7.0 -110.2 -6.7 Q-109.35 -5.7 -109.0 -4.75 -108.7 -3.8 -109.1 -3.25 -109.55 -2.7 -110.45 -3.0 -111.3 -3.25 -112.25 -4.15 L-112.55 -4.5 -112.3 -4.85 -112.0 -5.2 -111.75 -4.8 -110.85 -4.2 Q-110.4 -4.1 -110.2 -4.35 -110.0 -4.65 -110.15 -5.1 L-110.75 -6.05" fill="#c1c1c6" fill-rule="evenodd" stroke="none"/>
    <path d="M-110.75 -6.05 L-110.15 -5.1 Q-110.0 -4.65 -110.2 -4.35 -110.4 -4.1 -110.85 -4.2 L-111.75 -4.8 -112.0 -5.2 -112.3 -4.85 -112.55 -4.5 -112.25 -4.15 Q-111.3 -3.25 -110.45 -3.0 -109.55 -2.7 -109.1 -3.25 -108.7 -3.8 -109.0 -4.75 -109.35 -5.7 -110.2 -6.7 L-110.55 -7.0 -111.1 -6.35 -110.75 -6.05" fill="none" stroke="#000000" stroke-linecap="round" stroke-linejoin="round" stroke-width="1.0"/>
    <path d="M-133.7 20.0 L-133.95 19.75 -133.7 19.4 -133.5 19.0 -133.2 19.3 Q-132.5 20.1 -132.3 21.05 -132.1 21.95 -132.45 22.55 -132.9 23.15 -133.6 23.0 -134.35 22.9 -135.1 22.1 L-135.35 21.8 -135.1 21.45 -134.85 21.1 -134.6 21.4 -133.9 21.85 Q-133.5 21.9 -133.3 21.6 -133.15 21.3 -133.25 20.85 L-133.7 20.0" fill="#c1c1c6" fill-rule="evenodd" stroke="none"/>
    <path d="M-133.7 20.0 L-133.25 20.85 Q-133.15 21.3 -133.3 21.6 -133.5 21.9 -133.9 21.85 L-134.6 21.4 -134.85 21.1 -135.1 21.45 -135.35 21.8 -135.1 22.1 Q-134.35 22.9 -133.6 23.0 -132.9 23.15 -132.45 22.55 -132.1 21.95 -132.3 21.05 -132.5 20.1 -133.2 19.3 L-133.5 19.0 -133.7 19.4 -133.95 19.75 -133.7 20.0" fill="none" stroke="#000000" stroke-linecap="round" stroke-linejoin="round" stroke-width="1.0"/>
    <path d="M-18.7 -78.15 Q-17.9 -77.45 -17.85 -76.7 -17.8 -76.0 -18.45 -75.6 L-20.1 -75.45 Q-21.1 -75.65 -21.9 -76.35 L-22.15 -76.65 -21.7 -76.9 -21.3 -77.1 -21.05 -76.8 Q-20.65 -76.45 -20.2 -76.35 L-19.4 -76.4 Q-19.05 -76.65 -19.1 -77.0 L-19.5 -77.7 -19.85 -77.95 -19.4 -78.15 -18.95 -78.4 -18.7 -78.15" fill="#c1c1c6" fill-rule="evenodd" stroke="none"/>
    <path d="M-18.7 -78.15 L-18.95 -78.4 -19.4 -78.15 -19.85 -77.95 -19.5 -77.7 -19.1 -77.0 Q-19.05 -76.65 -19.4 -76.4 L-20.2 -76.35 Q-20.65 -76.45 -21.05 -76.8 L-21.3 -77.1 -21.7 -76.9 -22.15 -76.65 -21.9 -76.35 Q-21.1 -75.65 -20.1 -75.45 L-18.45 -75.6 Q-17.8 -76.0 -17.85 -76.7 -17.9 -77.45 -18.7 -78.15" fill="none" stroke="#000000" stroke-linecap="round" stroke-linejoin="round" stroke-width="1.0"/>
    <path d="M10.05 -91.1 Q10.55 -90.6 10.35 -89.95 10.15 -89.35 9.45 -88.95 L7.8 -88.75 Q6.9 -88.9 6.35 -89.45 L6.15 -89.65 6.65 -89.9 7.15 -90.1 7.3 -89.9 Q7.55 -89.6 8.0 -89.55 L8.8 -89.65 9.25 -90.15 9.1 -90.7 8.85 -90.85 9.3 -91.05 9.8 -91.3 10.05 -91.1" fill="#c1c1c6" fill-rule="evenodd" stroke="none"/>
    <path d="M10.05 -91.1 L9.8 -91.3 9.3 -91.05 8.85 -90.85 9.1 -90.7 9.25 -90.15 8.8 -89.65 8.0 -89.55 Q7.55 -89.6 7.3 -89.9 L7.15 -90.1 6.65 -89.9 6.15 -89.65 6.35 -89.45 Q6.9 -88.9 7.8 -88.75 L9.45 -88.95 Q10.15 -89.35 10.35 -89.95 10.55 -90.6 10.05 -91.1" fill="none" stroke="#000000" stroke-linecap="round" stroke-linejoin="round" stroke-width="1.0"/>
    <path d="M-132.85 44.95 Q-132.25 42.25 -132.3 38.95 -132.4 35.6 -132.9 32.2 L-133.8 25.9 -134.45 21.2 Q-134.6 19.35 -134.05 19.2 L-128.4 17.7 Q-125.3 16.85 -122.15 15.2 -119.0 13.55 -116.45 10.7 -113.9 7.8 -112.5 3.25 -111.1 -1.3 -111.4 -8.05 -106.15 -7.25 -102.4 -8.2 -98.6 -9.2 -96.05 -11.45 -93.5 -13.65 -91.95 -16.5 -90.4 -19.4 -89.6 -22.3 -88.8 -25.25 -88.5 -27.7 -88.2 -30.15 -88.2 -31.5 -82.0 -31.35 -77.35 -32.85 -72.65 -34.3 -69.25 -36.85 -65.8 -39.4 -63.45 -42.35 -61.15 -45.4 -59.6 -48.2 L-57.15 -53.15 -55.7 -56.0 -45.1 -56.5 Q-40.5 -57.45 -37.1 -59.5 -33.7 -61.55 -31.15 -64.1 -28.65 -66.65 -26.7 -69.2 L-23.35 -73.85 Q-21.8 -75.85 -20.35 -76.9 L-16.25 -78.65 -10.2 -80.5 -3.25 -82.85 Q0.35 -84.2 3.55 -86.0 6.75 -87.85 9.05 -90.3" fill="none" stroke="#000000" stroke-linecap="round" stroke-linejoin="round" stroke-width="1.0"/>
    <path d="M10.45 -90.85 Q10.2 -90.45 9.6 -90.5 -16.75 -79.25 -39.7 -65.2 -62.65 -51.2 -82.65 -34.05 -102.65 -16.95 -120.1 3.5 -137.55 24.0 -152.9 48.1 L-153.3 48.6 -154.2 49.2 Q-154.75 49.35 -155.4 48.65 -156.0 47.75 -155.95 46.9 L-155.65 45.5 -155.3 44.95 Q-142.4 22.7 -126.4 3.05 -110.45 -16.65 -90.75 -33.45 -75.9 -46.05 -59.7 -56.45 -43.5 -66.85 -26.3 -75.45 -9.05 -84.05 8.95 -91.2 L9.35 -91.55 9.95 -91.55 Q10.6 -91.35 10.45 -90.85" fill="#c1c1c6" fill-rule="evenodd" stroke="none"/>
    <path d="M10.45 -90.85 Q10.6 -91.35 9.95 -91.55 L9.35 -91.55 8.95 -91.2 Q-9.05 -84.05 -26.3 -75.45 -43.5 -66.85 -59.7 -56.45 -75.9 -46.05 -90.75 -33.45 -110.45 -16.65 -126.4 3.05 -142.4 22.7 -155.3 44.95 L-155.65 45.5 -155.95 46.9 Q-156.0 47.75 -155.4 48.65 -154.75 49.35 -154.2 49.2 L-153.3 48.6 -152.9 48.1 Q-137.55 24.0 -120.1 3.5 -102.65 -16.95 -82.65 -34.05 -62.65 -51.2 -39.7 -65.2 -16.75 -79.25 9.6 -90.5 10.2 -90.45 10.45 -90.85" fill="none" stroke="#000000" stroke-linecap="round" stroke-linejoin="round" stroke-width="1.0"/>
    <path d="M7.15 -90.0 L3.85 -88.6 1.0 -87.4 -2.2 -86.0 Q-27.2 -75.05 -49.05 -61.55 -70.9 -48.05 -89.8 -31.65 -108.75 -15.2 -125.1 4.5 -141.45 24.25 -155.5 47.7 L-155.65 46.95 -155.65 46.75 Q-141.0 21.95 -123.65 1.55 -106.3 -18.85 -86.05 -35.5 -65.9 -52.15 -42.65 -65.6 -19.35 -79.1 7.15 -90.0 M9.9 -91.1 L9.9 -91.05 Q9.75 -90.95 9.65 -90.95 L9.6 -90.95 9.5 -90.95 9.9 -91.1" fill="#dbdbdd" fill-rule="evenodd" stroke="none"/>
    <path d="M9.75 -91.2 L9.8 -91.15 9.35 -91.0 9.4 -91.05 9.75 -91.2 M1.4 -87.75 L3.2 -88.5 4.8 -89.15 6.7 -89.9 Q-19.55 -78.75 -42.35 -64.75 -65.15 -50.8 -84.9 -33.7 -104.7 -16.6 -121.85 3.9 -139.05 24.35 -154.05 48.6 L-154.4 48.7 -154.6 48.7 Q-140.1 25.0 -123.45 4.85 -106.8 -15.25 -87.6 -32.1 -68.4 -48.9 -46.25 -62.8 -24.1 -76.6 1.4 -87.75" fill="#9a9a9b" fill-rule="evenodd" stroke="none"/>
    <path d="M-132.2 41.35 Q-131.7 43.55 -132.35 45.45 -133.05 47.3 -134.6 48.6 -136.1 49.9 -138.15 50.35 -141.2 50.95 -143.5 49.25 -145.85 47.6 -146.75 44.2 -147.35 41.9 -146.95 39.85 -146.55 37.75 -145.35 36.3 -144.1 34.8 -142.05 34.4 -139.95 34.05 -137.9 34.9 -135.85 35.7 -134.3 37.45 -132.7 39.1 -132.2 41.35" fill="#c1c1c6" fill-rule="evenodd" stroke="none"/>
    <path d="M-132.2 41.35 Q-131.7 43.55 -132.35 45.45 -133.05 47.3 -134.6 48.6 -136.1 49.9 -138.15 50.35 -141.2 50.95 -143.5 49.25 -145.85 47.6 -146.75 44.2 -147.35 41.9 -146.95 39.85 -146.55 37.75 -145.35 36.3 -144.1 34.8 -142.05 34.4 -139.95 34.05 -137.9 34.9 -135.85 35.7 -134.3 37.45 -132.7 39.1 -132.2 41.35" fill="none" stroke="#000000" stroke-linecap="round" stroke-linejoin="round" stroke-width="1.0"/>
    <path d="M-133.5 45.8 L-133.25 46.3 Q-134.0 47.7 -135.3 48.7 -136.6 49.65 -138.25 50.0 -141.15 50.5 -143.35 48.9 -145.6 47.35 -146.45 44.15 -146.8 42.6 -146.75 41.15 -146.7 39.65 -146.15 38.4 L-146.1 38.4 Q-146.35 42.15 -144.6 44.5 -142.85 46.85 -139.6 47.2 -136.45 47.05 -133.5 45.8" fill="#b6b6b7" fill-rule="evenodd" stroke="none"/>
    <path d="M-138.0 35.4 Q-136.1 36.15 -134.6 37.75 -133.15 39.35 -132.65 41.4 -132.3 43.05 -132.55 44.45 -133.8 41.8 -136.0 40.05 -138.2 38.35 -140.75 37.65 -143.35 37.0 -145.75 37.65 -145.15 36.55 -144.2 35.85 -143.25 35.15 -141.95 34.9 -140.0 34.6 -138.0 35.4" fill="#d6d6d8" fill-rule="evenodd" stroke="none"/>
    <path d="M-145.1 40.6 Q-144.8 39.05 -143.85 38.0 -142.95 36.95 -141.4 36.65 -139.9 36.4 -138.4 37.0 -136.95 37.55 -135.8 38.8 -134.75 40.05 -134.3 41.65 -133.8 44.15 -135.05 45.95 -136.3 47.8 -138.55 48.35 -140.8 48.75 -142.6 47.5 -144.35 46.2 -145.0 43.75 -145.4 42.1 -145.1 40.6" fill="#d8d8d8" fill-rule="evenodd" stroke="none"/>
    <path d="M-138.75 37.35 Q-137.5 37.8 -136.5 38.75 -135.45 39.75 -134.95 41.05 -136.5 39.5 -138.35 38.55 -140.25 37.65 -142.25 37.4 L-141.3 37.1 -138.75 37.35" fill="#e3e3e5" fill-rule="evenodd" stroke="none"/>
    <path d="M-139.55 47.25 L-136.3 46.75 Q-137.25 47.65 -138.65 47.95 -140.3 48.25 -141.8 47.5 -143.2 46.75 -144.05 45.15 -142.35 46.95 -139.55 47.25" fill="#bbbbbc" fill-rule="evenodd" stroke="none"/>
    <path d="M-135.75 47.55 L-133.9 50.7 -134.6 51.1 Q-134.95 51.25 -135.3 51.5 L-137.1 48.35 -138.8 45.6 -140.85 42.3 -140.2 41.85 -139.55 41.45 -137.5 44.75 -135.75 47.55" fill="#6d6d70" fill-rule="evenodd" stroke="none"/>
    <path d="M-135.75 47.55 L-133.9 50.7 -134.6 51.1 Q-134.95 51.25 -135.3 51.5 L-137.1 48.35 -138.8 45.6 -140.85 42.3 -140.2 41.85 -139.55 41.45 -137.5 44.75 -135.75 47.55" fill="none" stroke="#000000" stroke-linecap="round" stroke-linejoin="round" stroke-width="1.0"/>
    <path d="M-134.5 50.5 L-134.65 50.6 -137.05 46.4 -139.8 42.1 -139.65 42.0 -138.7 43.55 -137.05 46.25 -135.4 49.0 -134.5 50.5" fill="#7b7b7c" fill-rule="evenodd" stroke="none"/>
    <path d="M-140.0 42.25 L-137.45 46.5 -135.05 50.8 -135.2 50.95 -136.05 49.4 -137.7 46.7 -139.4 43.95 -140.3 42.4 -140.0 42.25" fill="#59595b" fill-rule="evenodd" stroke="none"/>
    <path d="M-132.15 50.6 Q-131.95 51.0 -132.05 51.4 L-132.5 52.0 -133.75 52.7 -134.95 53.35 -135.7 53.45 -136.3 52.95 -136.4 52.15 -136.0 51.55 -134.75 50.85 -133.55 50.15 -132.8 50.1 Q-132.4 50.25 -132.15 50.6" fill="#6d6d70" fill-rule="evenodd" stroke="none"/>
    <path d="M-132.15 50.6 Q-131.95 51.0 -132.05 51.4 L-132.5 52.0 -133.75 52.7 -134.95 53.35 -135.7 53.45 -136.3 52.95 -136.4 52.15 -136.0 51.55 -134.75 50.85 -133.55 50.15 -132.8 50.1 Q-132.4 50.25 -132.15 50.6" fill="none" stroke="#000000" stroke-linecap="round" stroke-linejoin="round" stroke-width="1.0"/>
    <path d="M-135.7 51.85 L-134.25 52.45 -134.7 52.75 -135.2 53.0 -135.55 53.05 -135.95 52.75 -136.0 52.25 -135.8 51.9 -135.7 51.85" fill="#59595b" fill-rule="evenodd" stroke="none"/>
    <path d="M-132.7 51.55 L-132.8 51.65 Q-133.6 51.2 -134.55 51.1 L-133.95 50.8 -133.35 50.45 -132.95 50.4 -132.5 50.75 Q-132.4 51.0 -132.45 51.2 -132.5 51.45 -132.7 51.55" fill="#7b7b7c" fill-rule="evenodd" stroke="none"/>
    <path d="M-138.05 42.25 Q-137.9 43.05 -138.3 43.7 -138.65 44.3 -139.4 44.5 L-140.75 44.2 Q-141.4 43.75 -141.6 42.9 -141.8 42.1 -141.45 41.45 -141.1 40.8 -140.35 40.6 -139.55 40.5 -138.95 40.95 -138.3 41.4 -138.05 42.25" fill="#6d6d70" fill-rule="evenodd" stroke="none"/>
    <path d="M-138.05 42.25 Q-137.9 43.05 -138.3 43.7 -138.65 44.3 -139.4 44.5 L-140.75 44.2 Q-141.4 43.75 -141.6 42.9 -141.8 42.1 -141.45 41.45 -141.1 40.8 -140.35 40.6 -139.55 40.5 -138.95 40.95 -138.3 41.4 -138.05 42.25" fill="none" stroke="#000000" stroke-linecap="round" stroke-linejoin="round" stroke-width="1.0"/>
    <path d="M-138.4 42.6 Q-138.85 41.95 -139.45 41.6 L-140.85 41.45 Q-140.6 41.1 -140.2 41.05 L-139.1 41.3 Q-138.6 41.65 -138.45 42.3 L-138.4 42.6" fill="#7b7b7c" fill-rule="evenodd" stroke="none"/>
    <path d="M-141.2 42.15 Q-140.45 43.0 -139.8 43.1 L-138.4 42.95 -138.75 43.7 Q-139.05 44.0 -139.45 44.05 L-140.55 43.8 -141.15 42.85 -141.2 42.15" fill="#59595b" fill-rule="evenodd" stroke="none"/>
    <path d="M-76.6 14.7 L-74.05 22.6 Q-72.7 26.2 -71.35 28.55 -67.7 34.9 -66.9 42.6 -66.35 48.7 -67.8 54.55 -69.3 60.3 -72.55 65.35 -75.85 70.3 -80.6 74.1 -85.35 77.85 -91.25 79.95 -99.05 82.65 -106.0 82.55 -113.0 82.45 -119.05 79.65 -127.85 75.5 -134.5 65.65 -136.85 62.1 -138.35 58.0 -139.85 53.9 -140.3 49.4 -140.7 45.25 -140.15 41.3 -139.6 37.3 -138.2 33.65 L-135.6 26.75 -132.55 18.3 -129.75 9.55 Q-128.45 5.25 -127.7 1.75 -127.05 -1.8 -127.2 -3.95 -127.65 -8.6 -126.25 -12.75 -124.9 -16.9 -122.05 -20.25 -119.25 -23.6 -115.25 -25.7 -111.35 -27.8 -106.6 -28.25 -101.85 -28.7 -97.55 -27.35 -93.3 -26.0 -89.85 -23.25 -86.5 -20.5 -84.3 -16.65 -82.15 -12.8 -81.65 -8.15 -81.45 -5.6 -80.7 -1.9 L-78.95 6.15 -76.6 14.7" fill="#666666" fill-rule="evenodd" stroke="none"/>
    <path d="M-76.6 14.7 L-74.05 22.6 Q-72.7 26.2 -71.35 28.55 -67.7 34.9 -66.9 42.6 -66.35 48.7 -67.8 54.55 -69.3 60.3 -72.55 65.35 -75.85 70.3 -80.6 74.1 -85.35 77.85 -91.25 79.95 -99.05 82.65 -106.0 82.55 -113.0 82.45 -119.05 79.65 -127.85 75.5 -134.5 65.65 -136.85 62.1 -138.35 58.0 -139.85 53.9 -140.3 49.4 -140.7 45.25 -140.15 41.3 -139.6 37.3 -138.2 33.65 L-135.6 26.75 -132.55 18.3 -129.75 9.55 Q-128.45 5.25 -127.7 1.75 -127.05 -1.8 -127.2 -3.95 -127.65 -8.6 -126.25 -12.75 -124.9 -16.9 -122.05 -20.25 -119.25 -23.6 -115.25 -25.7 -111.35 -27.8 -106.6 -28.25 -101.85 -28.7 -97.55 -27.35 -93.3 -26.0 -89.85 -23.25 -86.5 -20.5 -84.3 -16.65 -82.15 -12.8 -81.65 -8.15 -81.45 -5.6 -80.7 -1.9 L-78.95 6.15 -76.6 14.7" fill="none" stroke="#000000" stroke-linecap="round" stroke-linejoin="round" stroke-width="2.0"/>
    <path d="M-84.65 -15.7 Q-82.85 -12.2 -82.4 -8.1 -82.2 -5.5 -81.45 -1.7 L-79.65 6.4 -77.3 15.05 -74.7 22.9 Q-73.35 26.5 -72.0 28.85 -68.35 35.3 -67.6 42.7 -66.95 50.0 -69.1 56.65 -71.3 63.2 -75.75 68.5 -80.25 73.75 -86.45 77.1 -92.75 80.45 -100.25 81.15 L-108.05 81.45 Q-111.75 81.3 -115.3 80.25 -118.9 79.15 -122.4 76.8 L-126.25 73.7 -130.0 69.9 -133.15 66.6 Q-127.85 71.75 -121.2 74.0 -114.4 76.35 -106.4 75.6 -99.3 74.85 -93.35 71.6 -87.35 68.3 -83.1 63.05 -78.85 57.8 -76.8 51.25 -74.7 44.75 -75.3 37.45 -75.6 34.8 -76.3 32.4 -77.05 29.95 -77.95 27.65 L-79.6 22.75 -79.85 21.8 -80.45 19.8 Q-80.8 18.75 -81.3 17.95 -81.8 17.15 -82.6 16.8 -83.7 16.4 -85.1 17.1 L-84.95 15.5 Q-85.0 13.45 -85.4 11.3 L-86.5 6.85 -87.3 3.7 Q-87.95 0.9 -88.25 -2.5 L-88.9 -9.15 -89.15 -11.9 Q-89.55 -16.05 -91.4 -19.65 -93.3 -23.35 -96.35 -26.1 -92.45 -24.6 -89.45 -21.9 -86.5 -19.25 -84.65 -15.7" fill="#333333" fill-rule="evenodd" stroke="none"/>
    <path d="M-90.25 -13.5 Q-89.6 -10.65 -89.6 -7.7 L-89.65 -7.0 -89.65 -5.55 -89.45 0.45 -88.85 7.7 -87.95 15.25 -86.75 22.1 Q-86.15 25.2 -85.4 27.35 -83.4 33.05 -83.35 39.25 L-83.35 40.45 Q-83.55 45.15 -84.85 49.55 -86.15 53.95 -88.5 57.8 -90.85 61.6 -94.1 64.6 -98.2 68.3 -103.1 70.2 -108.0 72.1 -113.25 71.95 -118.75 71.8 -123.55 69.5 -128.45 67.2 -132.25 63.15 -136.05 59.05 -138.35 53.5 -138.95 51.15 -139.15 48.75 L-139.35 45.4 Q-139.35 39.25 -137.15 33.5 L-136.8 32.5 -134.3 25.9 -131.55 18.25 -129.0 10.4 -127.1 3.25 Q-126.45 0.0 -126.4 -2.2 -125.2 -6.05 -125.15 -8.1 -125.0 -12.6 -123.15 -16.65 L-121.55 -18.95 -119.5 -21.25 -117.2 -22.75 -113.9 -22.65 Q-112.4 -22.1 -111.55 -21.1 -110.7 -20.15 -111.0 -19.4 -110.25 -20.8 -108.7 -21.6 -107.15 -22.45 -105.3 -22.75 L-101.75 -22.9 -99.35 -22.45 -97.25 -21.85 Q-94.35 -20.8 -92.65 -18.55 -90.95 -16.35 -90.25 -13.5" fill="#cccccc" fill-rule="evenodd" stroke="none"/>
    <path d="M-119.25 -21.5 Q-118.35 -22.35 -117.2 -22.75 L-114.35 -22.8 -116.05 -20.85 -117.45 -19.0 Q-119.5 -14.95 -119.9 -10.3 -120.1 -8.2 -121.5 -4.3 -121.65 -2.05 -122.55 1.35 -123.4 4.65 -124.8 8.55 L-127.8 16.5 -130.95 24.25 -133.75 30.9 -134.25 31.95 Q-136.75 37.8 -137.05 44.1 L-137.05 47.55 -136.55 52.5 Q-134.35 58.8 -130.35 63.4 -126.35 68.0 -121.1 70.5 -126.8 68.45 -131.25 64.15 -135.7 59.75 -138.35 53.5 -138.95 51.15 -139.15 48.75 L-139.35 45.4 Q-139.35 39.25 -137.15 33.5 L-137.05 33.25 -136.9 32.75 -136.8 32.45 -132.2 20.1 -129.75 12.75 -127.6 5.4 Q-126.9 2.4 -126.6 -0.5 L-126.2 -6.5 -125.75 -10.45 Q-125.45 -12.45 -124.5 -14.3 L-122.4 -17.75 -120.95 -19.7 -119.25 -21.5" fill="#e5e5e5" fill-rule="evenodd" stroke="none"/>
    <path d="M-92.85 -15.8 Q-93.55 -18.65 -95.3 -20.9 -93.15 -19.55 -91.9 -17.45 -90.65 -15.35 -90.15 -12.8 -89.65 -10.3 -89.65 -7.75 L-89.65 -7.0 -89.7 -5.5 -89.45 0.5 -88.9 7.75 -87.95 15.25 -86.8 22.1 -85.4 27.35 Q-83.4 33.05 -83.4 39.25 L-83.4 40.45 Q-83.55 45.15 -84.85 49.55 -86.2 53.95 -88.55 57.75 -90.9 61.6 -94.15 64.6 -98.2 68.3 -103.1 70.25 -108.0 72.1 -113.25 72.0 -118.45 71.75 -123.05 69.7 -127.75 67.65 -131.45 63.95 -128.05 66.6 -124.1 68.1 -120.1 69.6 -115.75 69.75 -110.5 69.9 -105.6 68.0 -100.7 66.1 -96.6 62.4 -93.35 59.35 -91.0 55.55 -88.7 51.7 -87.35 47.35 -86.05 42.95 -85.9 38.25 L-85.85 37.05 Q-85.9 30.85 -87.9 25.1 L-89.3 19.9 -90.5 13.05 -91.4 5.5 -91.95 -1.75 -92.15 -7.75 -92.15 -9.25 -92.15 -9.95 Q-92.15 -12.95 -92.85 -15.8" fill="#b4b4b4" fill-rule="evenodd" stroke="none"/>
    <path d="M-99.85 9.8 L-101.85 12.55 -104.75 15.8 Q-106.3 17.35 -108.0 18.4 -109.65 19.4 -111.15 19.3 -112.65 19.05 -113.75 17.8 -114.95 16.6 -115.75 14.9 L-117.1 11.5 -117.9 8.7 -118.15 7.55 -99.05 8.6 -99.85 9.8" fill="#b4b4b4" fill-rule="evenodd" stroke="none"/>
    <path d="M-74.7 22.6 Q-73.45 22.95 -72.6 24.3 -71.85 25.65 -71.45 27.55 -71.05 29.45 -70.95 31.5 L-70.95 35.35 -71.25 38.2 Q-71.8 41.15 -73.25 43.75 -74.65 46.3 -76.95 48.35 -78.65 49.8 -80.8 51.0 -83.0 52.2 -85.4 52.9 -87.75 53.65 -90.05 53.65 -91.15 53.6 -91.35 53.2 -91.65 52.75 -91.55 52.25 L-91.4 51.8 -89.85 49.35 Q-88.85 47.6 -87.8 45.25 -86.75 42.9 -86.15 40.65 -85.5 37.8 -85.7 35.65 -85.85 33.45 -86.25 32.25 -86.55 31.4 -86.55 31.95 L-86.65 30.2 -86.25 28.25 Q-86.0 27.05 -85.25 25.85 L-74.7 22.6" fill="#666666" fill-rule="evenodd" stroke="none"/>
    <path d="M-74.7 22.6 Q-73.45 22.95 -72.6 24.3 -71.85 25.65 -71.45 27.55 -71.05 29.45 -70.95 31.5 L-70.95 35.35 -71.25 38.2 Q-71.8 41.15 -73.25 43.75 -74.65 46.3 -76.95 48.35 -78.65 49.8 -80.8 51.0 -83.0 52.2 -85.4 52.9 -87.75 53.65 -90.05 53.65 -91.15 53.6 -91.35 53.2 -91.65 52.75 -91.55 52.25 L-91.4 51.8 -89.85 49.35 Q-88.85 47.6 -87.8 45.25 -86.75 42.9 -86.15 40.65 -85.5 37.8 -85.7 35.65 -85.85 33.45 -86.25 32.25 -86.55 31.4 -86.55 31.95 M-86.65 30.2 L-86.25 28.25 Q-86.0 27.05 -85.25 25.85" fill="none" stroke="#000000" stroke-linecap="round" stroke-linejoin="round" stroke-width="2.0"/>
    <path d="M-80.75 24.7 L-79.55 23.6 -78.75 23.0 -77.0 22.95 -75.35 23.75 -73.65 24.0 Q-71.7 29.1 -71.65 34.15 -71.55 39.15 -73.8 43.4 -76.05 47.65 -81.0 50.5 -78.9 46.9 -77.35 43.3 -75.75 39.65 -74.95 36.65 L-74.95 36.55 Q-74.5 34.15 -75.5 32.35 -76.55 30.55 -78.2 29.25 L-81.55 26.8 Q-81.95 26.5 -81.65 25.95 L-80.75 24.7" fill="#333333" fill-rule="evenodd" stroke="none"/>
    <path d="M-85.4 41.45 L-86.5 45.4 -87.25 48.85 Q-87.5 50.25 -86.85 50.45 -85.35 50.65 -83.05 49.6 -80.8 48.55 -78.45 46.9 L-74.35 43.5 Q-72.65 41.7 -72.2 40.45 -73.2 43.65 -75.0 45.85 -76.8 48.05 -79.0 49.5 -81.2 50.9 -83.3 51.7 L-87.15 52.85 -89.6 53.3 -90.05 53.35 -90.7 53.25 -91.2 52.9 -91.25 52.4 -91.15 52.0 -89.55 49.4 -87.45 45.25 -85.85 40.7 -84.95 36.7 -84.9 38.1 -85.4 41.45" fill="#999999" fill-rule="evenodd" stroke="none"/>
    <path d="M-103.05 11.35 Q-105.0 12.8 -107.15 13.9 -109.25 14.95 -111.15 14.95 -113.0 14.8 -114.25 13.7 -115.55 12.55 -116.3 11.15 L-117.4 8.65 -117.75 7.55 -98.75 7.6 -99.95 8.8 -103.05 11.35" fill="#d8a235" fill-rule="evenodd" stroke="none"/>
    <path d="M-103.05 11.35 Q-105.0 12.8 -107.15 13.9 -109.25 14.95 -111.15 14.95 -113.0 14.8 -114.25 13.7 -115.55 12.55 -116.3 11.15 L-117.4 8.65 -117.75 7.55 -98.75 7.6 -99.95 8.8 -103.05 11.35" fill="none" stroke="#000000" stroke-linecap="round" stroke-linejoin="round" stroke-width="1.0"/>
    <path d="M-108.15 12.1 Q-109.5 12.8 -110.8 12.8 -112.2 12.75 -113.0 12.05 L-114.25 10.5 -114.8 8.9 -114.9 8.2 -103.1 8.25 -103.8 8.95 -105.65 10.55 -108.15 12.1" fill="#c12d05" fill-rule="evenodd" stroke="none"/>
    <path d="M-108.15 12.1 Q-109.5 12.8 -110.8 12.8 -112.2 12.75 -113.0 12.05 L-114.25 10.5 -114.8 8.9 -114.9 8.2 -103.1 8.25 -103.8 8.95 -105.65 10.55 -108.15 12.1" fill="none" stroke="#000000" stroke-linecap="round" stroke-linejoin="round" stroke-width="1.0"/>
    <path d="M-107.15 8.6 L-105.1 8.6 -103.9 8.6 -105.65 10.15 Q-106.75 11.05 -108.15 11.8 -109.5 12.5 -110.8 12.5 -112.3 12.4 -113.1 11.5 -111.2 11.65 -109.6 10.9 -107.95 10.2 -107.15 8.6" fill="#9b0d0d" fill-rule="evenodd" stroke="none"/>
    <path d="M-100.75 5.6 L-98.3 6.0 Q-97.6 6.05 -97.6 6.3 L-98.15 7.4 Q-98.55 8.1 -99.7 8.45 L-102.35 8.9 -105.2 9.0 -107.15 9.0 -109.85 9.0 -112.55 9.25 -115.1 9.9 -117.45 10.4 Q-118.55 10.55 -119.5 10.0 -120.45 9.45 -121.3 7.85 L-121.85 7.95 -123.05 7.95 Q-123.75 7.9 -124.15 7.4 -124.55 6.85 -124.45 6.2 L-124.0 5.05 -123.75 4.5 -122.45 4.05 -119.65 2.9 -116.5 1.25 Q-115.05 0.35 -114.4 -0.7 -113.95 -1.4 -113.45 -1.35 L-112.4 -0.7 -111.55 0.4 -110.95 1.3 -109.3 2.9 -107.3 4.05 -104.1 5.05 -100.75 5.6" fill="#f9c248" fill-rule="evenodd" stroke="none"/>
    <path d="M-100.75 5.6 L-104.1 5.05 -107.3 4.05 -109.3 2.9 -110.95 1.3 -111.55 0.4 -112.4 -0.7 -113.45 -1.35 Q-113.95 -1.4 -114.4 -0.7 -115.05 0.35 -116.5 1.25 L-119.65 2.9 -122.45 4.05 -123.75 4.5 -124.0 5.05 -124.45 6.2 Q-124.55 6.85 -124.15 7.4 -123.75 7.9 -123.05 7.95 L-121.85 7.95 -121.3 7.85 Q-120.45 9.45 -119.5 10.0 -118.55 10.55 -117.45 10.4 L-115.1 9.9 -112.55 9.25 -109.85 9.0 -107.15 9.0 -105.2 9.0 -102.35 8.9 -99.7 8.45 Q-98.55 8.1 -98.15 7.4 L-97.6 6.3 Q-97.6 6.05 -98.3 6.0 L-100.75 5.6" fill="none" stroke="#000000" stroke-linecap="round" stroke-linejoin="round" stroke-width="1.0"/>
    <path d="M-100.2 8.2 L-103.15 8.6 -105.85 8.6 -108.8 8.65 -112.35 8.85 -114.8 9.5 -117.15 10.1 -119.15 9.9 Q-120.05 9.45 -120.85 7.95 L-120.75 7.45 -121.05 7.5 -121.9 7.65 -123.0 7.65 Q-123.55 7.55 -123.9 7.25 L-124.1 6.45 -123.95 5.65 Q-123.55 5.8 -123.45 6.1 L-122.95 6.65 -121.9 6.65 -120.85 6.55 Q-120.5 6.65 -120.2 7.0 L-119.6 7.6 -118.2 8.25 -116.65 8.2 Q-115.95 7.95 -115.4 7.5 -114.8 7.05 -114.0 6.9 L-112.7 7.0 -111.4 7.25 -106.3 7.7 -101.75 7.45 -100.9 7.45 -99.45 7.1 Q-98.65 6.9 -98.0 6.3 L-98.0 6.45 -98.15 6.8 -98.4 7.25 Q-98.8 7.95 -100.2 8.2" fill="#d8a235" fill-rule="evenodd" stroke="none"/>
    <path d="M-112.35 3.7 Q-112.45 4.5 -112.65 4.7 L-113.5 4.6 Q-114.0 4.4 -113.65 4.2 -113.35 4.0 -112.85 3.85 L-112.35 3.7" fill="#d8a235" fill-rule="evenodd" stroke="none"/>
    <path d="M-111.75 0.75 L-111.4 1.4 Q-112.25 1.3 -112.75 0.9 L-113.5 0.45 -114.25 0.8 -115.1 1.5 -115.5 1.85 -119.4 4.0 -121.8 4.75 -123.0 4.7 -123.3 4.55 Q-120.45 3.95 -118.45 2.85 -116.45 1.75 -115.35 0.85 L-114.3 -0.1 -113.8 -0.75 -113.4 -0.9 Q-113.0 -0.95 -112.55 -0.4 L-111.75 0.75" fill="#ffe4b3" fill-rule="evenodd" stroke="none"/>
    <path d="M-135.7 13.4 Q-132.4 14.65 -131.0 15.85 -129.65 17.0 -130.2 18.3 L-131.55 20.25 -134.3 22.85 Q-136.1 24.2 -138.7 25.05 -141.3 25.9 -144.75 25.65 -146.3 25.5 -146.85 24.75 -147.5 23.95 -147.3 22.95 -147.1 21.95 -146.25 21.25 L-145.7 20.85 Q-143.65 19.8 -142.35 18.15 -141.05 16.55 -141.05 13.95 L-140.65 13.45 Q-140.25 12.95 -139.05 12.8 -137.95 12.6 -135.7 13.4" fill="#666666" fill-rule="evenodd" stroke="none"/>
    <path d="M-135.7 13.4 Q-132.4 14.65 -131.0 15.85 -129.65 17.0 -130.2 18.3 L-131.55 20.25 -134.3 22.85 Q-136.1 24.2 -138.7 25.05 -141.3 25.9 -144.75 25.65 -146.3 25.5 -146.85 24.75 -147.5 23.95 -147.3 22.95 -147.1 21.95 -146.25 21.25 L-145.7 20.85 Q-143.65 19.8 -142.35 18.15 -141.05 16.55 -141.05 13.95 L-140.65 13.45 Q-140.25 12.95 -139.05 12.8 -137.95 12.6 -135.7 13.4" fill="none" stroke="#000000" stroke-linecap="round" stroke-linejoin="round" stroke-width="2.0"/>
    <path d="M-135.35 14.85 Q-136.55 14.6 -137.35 14.85 -138.65 15.45 -139.5 16.55 L-141.15 19.05 -142.5 21.25 Q-143.25 22.25 -144.3 22.9 -145.3 23.5 -146.85 23.5 L-146.65 22.55 Q-146.4 22.05 -145.95 21.7 L-145.45 21.35 -143.1 19.75 Q-142.0 18.8 -141.25 17.45 -140.55 16.1 -140.55 14.15 L-140.1 13.65 -138.65 13.35 Q-137.7 13.3 -135.9 13.95 -133.8 14.7 -132.5 15.45 -130.95 16.35 -130.65 17.15 -130.45 17.6 -130.65 18.1 L-130.8 18.3 Q-131.15 17.05 -132.35 16.1 -132.7 15.85 -133.0 15.65 -134.2 15.0 -135.35 14.85" fill="#999999" fill-rule="evenodd" stroke="none"/>
    <path d="M-86.25 73.35 L-85.05 74.45 -81.9 76.8 Q-79.9 78.15 -77.35 79.1 -74.8 80.0 -72.05 79.85 L-71.75 80.3 Q-71.45 80.8 -71.45 81.5 -71.45 82.2 -72.2 82.9 -73.0 83.55 -75.0 84.0 L-76.95 84.15 -81.65 84.15 -87.75 83.7 Q-90.95 83.3 -93.75 82.3 -96.5 81.3 -98.1 79.45 L-86.25 73.35" fill="#333333" fill-rule="evenodd" stroke="none"/>
    <path d="M-86.25 73.35 L-85.05 74.45 -81.9 76.8 Q-79.9 78.15 -77.35 79.1 -74.8 80.0 -72.05 79.85 L-71.75 80.3 Q-71.45 80.8 -71.45 81.5 -71.45 82.2 -72.2 82.9 -73.0 83.55 -75.0 84.0 L-76.95 84.15 -81.65 84.15 -87.75 83.7 Q-90.95 83.3 -93.75 82.3 -96.5 81.3 -98.1 79.45" fill="none" stroke="#000000" stroke-linecap="round" stroke-linejoin="round" stroke-width="2.0"/>
    <path d="M154.5 60.3 L155.75 63.4 Q156.3 65.0 156.45 66.25 156.55 67.5 155.95 68.05 L154.65 68.1 153.1 66.9 Q152.2 66.1 150.85 65.25 149.5 64.45 147.5 63.95 L142.65 63.75 136.3 65.15 126.25 67.8 113.45 70.8 Q106.5 72.25 99.0 73.1 L83.85 73.75 Q76.25 73.6 69.1 71.9 61.9 70.15 55.7 66.4 48.55 62.0 44.3 57.0 40.1 52.0 38.05 47.0 36.05 41.95 35.55 37.45 35.1 32.9 35.45 29.3 35.85 25.8 36.4 23.7 36.95 21.65 37.05 21.6 L35.75 20.7 Q34.5 19.8 32.85 17.9 31.15 15.95 29.8 13.0 28.4 10.0 28.05 5.95 27.65 1.85 29.0 -3.45 L29.25 -4.3 29.35 -6.25 Q29.25 -7.4 28.5 -8.25 L26.9 -9.95 Q26.15 -10.85 26.0 -11.65 25.85 -12.5 26.9 -13.05 27.75 -13.4 29.0 -13.05 L31.45 -12.1 33.5 -10.95 34.4 -10.35 34.75 -11.65 35.95 -14.75 Q36.7 -16.65 37.95 -18.55 39.15 -20.5 40.8 -21.9 42.45 -23.35 44.5 -23.7 L45.3 -23.5 47.45 -22.15 Q48.75 -20.95 50.35 -18.4 51.6 -16.35 53.4 -14.1 L57.3 -9.9 Q59.45 -7.9 61.6 -6.6 63.8 -5.25 65.85 -5.05 L66.95 -4.7 69.55 -3.3 Q71.15 -2.3 72.9 -0.3 74.6 1.65 76.0 4.8 77.45 7.95 78.1 12.55 L79.4 23.45 Q79.9 28.5 80.7 32.75 81.5 37.0 83.15 40.4 84.75 43.75 87.7 46.15 90.05 48.1 92.7 50.0 95.4 51.95 98.85 53.7 102.3 55.45 107.05 56.85 111.8 58.3 118.3 59.3 L133.55 60.55 135.25 59.75 139.3 57.65 144.35 54.7 149.05 51.5 Q149.05 51.45 150.0 50.95 150.85 50.45 152.15 49.9 153.45 49.35 154.65 49.25 155.85 49.15 156.5 49.9 157.05 50.75 156.6 51.85 L155.25 54.15 153.6 56.05 152.75 56.85 153.3 57.85 154.5 60.3" fill="#a33128" fill-rule="evenodd" stroke="none"/>
    <path d="M154.5 60.3 L155.75 63.4 Q156.3 65.0 156.45 66.25 156.55 67.5 155.95 68.05 L154.65 68.1 153.1 66.9 Q152.2 66.1 150.85 65.25 149.5 64.45 147.5 63.95 L142.65 63.75 136.3 65.15 126.25 67.8 113.45 70.8 Q106.5 72.25 99.0 73.1 L83.85 73.75 Q76.25 73.6 69.1 71.9 61.9 70.15 55.7 66.4 48.55 62.0 44.3 57.0 40.1 52.0 38.05 47.0 36.05 41.95 35.55 37.45 35.1 32.9 35.45 29.3 35.85 25.8 36.4 23.7 36.95 21.65 37.05 21.6 L35.75 20.7 Q34.5 19.8 32.85 17.9 31.15 15.95 29.8 13.0 28.4 10.0 28.05 5.95 27.65 1.85 29.0 -3.45 L29.25 -4.3 29.35 -6.25 Q29.25 -7.4 28.5 -8.25 L26.9 -9.95 Q26.15 -10.85 26.0 -11.65 25.85 -12.5 26.9 -13.05 27.75 -13.4 29.0 -13.05 L31.45 -12.1 33.5 -10.95 34.4 -10.35 34.75 -11.65 35.95 -14.75 Q36.7 -16.65 37.95 -18.55 39.15 -20.5 40.8 -21.9 42.45 -23.35 44.5 -23.7 L45.3 -23.5 47.45 -22.15 Q48.75 -20.95 50.35 -18.4 51.6 -16.35 53.4 -14.1 L57.3 -9.9 Q59.45 -7.9 61.6 -6.6 63.8 -5.25 65.85 -5.05 L66.95 -4.7 69.55 -3.3 Q71.15 -2.3 72.9 -0.3 74.6 1.65 76.0 4.8 77.45 7.95 78.1 12.55 L79.4 23.45 Q79.9 28.5 80.7 32.75 81.5 37.0 83.15 40.4 84.75 43.75 87.7 46.15 90.05 48.1 92.7 50.0 95.4 51.95 98.85 53.7 102.3 55.45 107.05 56.85 111.8 58.3 118.3 59.3 L133.55 60.55 135.25 59.75 139.3 57.65 144.35 54.7 149.05 51.5 Q149.05 51.45 150.0 50.95 150.85 50.45 152.15 49.9 153.45 49.35 154.65 49.25 155.85 49.15 156.5 49.9 157.05 50.75 156.6 51.85 L155.25 54.15 153.6 56.05 152.75 56.85 153.3 57.85 154.5 60.3" fill="none" stroke="#000000" stroke-linecap="round" stroke-linejoin="round" stroke-width="2.0"/>
    <path d="M72.65 6.75 Q71.7 3.65 69.8 0.9 L65.6 -4.35 65.7 -4.35 67.4 -3.7 Q68.9 -3.1 70.9 -1.35 72.95 0.4 74.75 3.8 76.6 7.15 77.4 12.65 L78.45 21.4 Q79.0 27.0 79.8 31.75 80.6 36.5 82.3 40.25 84.0 44.05 87.25 46.7 L87.35 46.8 Q89.6 48.65 92.2 50.5 94.75 52.35 98.1 54.05 101.4 55.8 105.9 57.25 110.45 58.7 116.5 59.7 L130.75 61.15 Q125.85 63.6 120.4 64.45 115.0 65.25 109.4 64.7 103.8 64.15 98.45 62.45 93.05 60.8 88.2 58.25 82.95 55.55 78.85 51.3 74.8 47.05 72.2 41.65 69.6 36.3 68.8 30.35 68.0 24.4 69.3 18.35 69.35 17.8 69.85 17.3 L71.05 16.1 72.3 14.85 Q72.75 14.2 72.8 13.45 73.6 9.8 72.65 6.75" fill="#ba3b35" fill-rule="evenodd" stroke="none"/>
    <path d="M155.95 50.3 Q156.35 50.9 155.85 51.95 L154.3 54.2 152.35 56.3 151.9 56.65 152.2 57.15 154.3 61.55 155.65 65.4 Q156.05 67.05 155.6 67.45 L155.0 67.45 153.8 66.5 151.45 64.75 Q150.0 63.85 147.9 63.3 L142.6 63.05 138.7 63.85 132.8 65.4 122.65 68.0 110.2 70.65 96.45 72.6 Q89.4 73.25 82.3 72.95 75.2 72.65 68.55 70.95 61.9 69.25 56.1 65.8 47.3 60.4 42.3 53.3 37.35 46.15 36.3 37.4 35.85 32.95 36.2 29.45 36.6 26.0 37.1 24.0 37.65 21.9 37.75 21.85 L37.95 21.3 37.4 21.0 36.0 20.0 Q34.75 19.05 33.2 17.2 31.6 15.35 30.3 12.45 29.0 9.65 28.7 5.7 28.4 1.8 29.7 -3.2 L29.95 -4.25 Q30.2 -5.2 30.05 -6.45 29.95 -7.75 29.0 -8.75 L28.0 -9.8 27.1 -10.95 Q26.7 -11.55 26.75 -11.95 L26.8 -12.1 27.25 -12.4 29.1 -12.35 31.6 -11.25 34.0 -9.8 34.85 -9.25 35.1 -10.2 35.4 -11.3 36.35 -13.85 Q37.0 -15.45 37.95 -17.1 38.9 -18.85 40.15 -20.25 41.4 -21.75 43.0 -22.5 41.9 -20.5 41.15 -18.3 L39.95 -13.9 Q39.25 -10.9 39.1 -7.15 38.95 -3.4 39.45 0.6 39.9 4.6 41.05 8.35 42.15 12.15 43.95 15.25 45.8 18.25 48.3 20.15 50.85 22.05 54.2 22.25 52.8 23.15 51.65 25.5 50.55 27.75 49.9 30.75 49.25 33.8 49.2 36.95 49.2 40.1 50.0 42.8 51.7 48.7 54.65 52.8 57.6 56.85 61.9 59.65 66.25 62.45 72.15 64.5 79.55 67.25 87.65 68.8 95.7 70.4 103.7 70.3 111.65 70.3 118.8 68.1 125.95 65.9 131.5 61.15 L133.55 61.25 133.75 61.25 133.9 61.2 135.75 60.25 139.85 58.15 144.85 55.25 Q147.45 53.65 149.45 52.05 L151.75 50.8 Q153.1 50.2 154.3 50.0 155.5 49.75 155.95 50.3" fill="#842824" fill-rule="evenodd" stroke="none"/>
    <path d="M73.85 -7.75 L79.75 -8.25 Q80.3 -6.0 80.1 -3.9 79.85 -1.7 79.25 0.1 L78.15 2.9 77.6 4.0 72.8 2.4 Q73.95 1.55 74.3 -0.05 74.65 -1.7 74.5 -3.45 L74.15 -6.45 73.85 -7.75" fill="#000000" fill-rule="evenodd" stroke="none"/>
    <path d="M54.65 45.65 Q53.25 45.85 51.6 46.7 49.95 47.5 48.45 48.5 L46.05 50.2 45.1 51.0 Q44.15 47.4 44.45 44.75 44.75 42.15 45.65 40.45 46.6 38.75 47.4 37.95 L48.25 37.1 54.65 45.65" fill="#a33128" fill-rule="evenodd" stroke="none"/>
    <path d="M48.25 37.1 L47.4 37.95 Q46.6 38.75 45.65 40.45 44.75 42.15 44.45 44.75 44.15 47.4 45.1 51.0 L46.05 50.2 48.45 48.5 Q49.95 47.5 51.6 46.7 53.25 45.85 54.65 45.65" fill="none" stroke="#000000" stroke-linecap="round" stroke-linejoin="round" stroke-width="2.0"/>
    <path d="M70.9 16.05 L72.75 14.4 Q70.1 17.3 67.15 19.1 63.3 21.5 59.35 22.45 55.35 23.45 51.75 23.4 L45.25 22.9 40.7 21.9 39.0 21.4 Q45.35 22.9 50.5 22.85 55.6 22.85 59.5 21.8 63.45 20.75 66.25 19.15 69.1 17.65 70.9 16.05" fill="#000000" fill-rule="evenodd" stroke="none"/>
    <path d="M52.3 -1.5 Q50.55 0.2 50.35 1.9 50.2 3.65 51.0 5.2 51.8 6.75 53.0 8.0 L55.05 9.9 56.0 10.65 Q52.45 8.75 50.75 7.15 49.0 5.55 48.65 4.15 48.25 2.8 48.75 1.75 49.25 0.7 50.05 -0.05 L51.6 -1.1 52.3 -1.5" fill="#000000" fill-rule="evenodd" stroke="none"/>
    <path d="M73.8 33.95 L78.45 42.8 Q77.15 45.65 75.05 48.05 L70.55 52.45 Q68.2 54.4 66.05 55.8 L62.6 57.9 61.2 58.7 Q59.6 58.25 58.2 57.2 56.75 56.1 55.65 54.85 L53.9 52.65 53.25 51.7 Q58.0 50.5 61.45 48.4 64.95 46.3 67.3 43.8 69.7 41.35 71.15 39.15 L73.15 35.4 73.8 33.95" fill="#ba3b35" fill-rule="evenodd" stroke="none"/>
    <path d="M91.95 55.45 Q91.7 57.1 90.45 59.25 L87.55 63.55 84.8 67.05 83.55 68.5 75.15 66.2 Q77.55 65.45 79.15 63.9 80.8 62.3 81.85 60.4 L83.5 56.75 84.3 53.85 84.5 52.65 91.95 55.45" fill="#ba3b35" fill-rule="evenodd" stroke="none"/>
    <path d="M105.05 62.45 Q105.0 64.6 104.45 66.35 L103.35 69.25 102.7 70.35 93.85 70.35 Q95.25 69.6 96.3 67.95 97.35 66.35 98.05 64.55 L99.1 61.45 99.45 60.1 105.05 62.45" fill="#ba3b35" fill-rule="evenodd" stroke="none"/>
    <path d="M112.95 63.85 L117.6 62.9 117.15 65.15 116.25 67.45 115.75 68.5 110.15 69.9 Q111.5 68.65 112.1 67.25 L112.85 64.9 112.95 63.85" fill="#ba3b35" fill-rule="evenodd" stroke="none"/>
    <path d="M9.3 -87.75 Q8.55 -80.85 9.0 -73.25 9.45 -65.6 10.95 -57.85 12.45 -50.0 14.85 -42.7 17.2 -35.45 20.25 -29.2 23.3 -23.0 26.9 -18.5 30.5 -13.95 34.4 -11.8" fill="none" stroke="#000000" stroke-linecap="round" stroke-linejoin="round" stroke-width="1.0"/>
  </g>
</svg>
