<?xml version="1.0" encoding="UTF-8" standalone="no"?>
<svg xmlns:xlink="http://www.w3.org/1999/xlink" height="19.4px" width="31.65px" xmlns="http://www.w3.org/2000/svg">
  <g transform="matrix(1, 0, 0, 1, 15.85, 9.7)">
    <path d="M-0.3 0.45 Q-0.1 2.25 -0.4 3.95 -0.65 5.6 -1.35 7.0 L-7.65 8.1 -12.15 9.2 Q-13.4 7.9 -14.25 6.0 -15.1 4.15 -15.3 1.9 -15.55 -1.0 -14.8 -3.4 -14.0 -5.8 -12.45 -7.35 -10.9 -8.85 -8.8 -9.1 -5.6 -9.4 -3.3 -6.95 -1.0 -4.55 -0.3 0.45" fill="#ffffff" fill-rule="evenodd" stroke="none"/>
    <path d="M-0.3 0.45 Q-1.0 -4.55 -3.3 -6.95 -5.6 -9.4 -8.8 -9.1 -10.9 -8.85 -12.45 -7.35 -14.0 -5.8 -14.8 -3.4 -15.55 -1.0 -15.3 1.9 -15.1 4.15 -14.25 6.0 -13.4 7.9 -12.15 9.2 L-7.65 8.1 -1.35 7.0 Q-0.65 5.6 -0.4 3.95 -0.1 2.25 -0.3 0.45" fill="none" stroke="#000000" stroke-linecap="round" stroke-linejoin="round" stroke-width="1.0"/>
    <path d="M-12.85 0.6 Q-12.6 3.2 -11.6 5.05 -10.6 6.95 -8.95 8.0 L-12.0 8.75 Q-14.55 6.3 -14.95 1.85 -15.2 -0.85 -14.5 -3.15 -13.8 -5.4 -12.35 -6.9 -10.95 -8.4 -9.05 -8.7 -11.0 -7.55 -12.05 -5.05 -13.1 -2.6 -12.85 0.6" fill="#e5e2be" fill-rule="evenodd" stroke="none"/>
    <path d="M11.95 -8.2 Q13.2 -7.05 14.05 -5.0 14.95 -2.95 15.2 -0.3 L15.3 2.4 15.15 5.2 14.7 7.45 Q12.4 6.4 10.15 6.05 7.95 5.7 6.55 6.05 5.4 3.8 5.1 0.7 4.9 -1.9 5.35 -4.15 5.85 -6.3 6.85 -7.65 7.9 -9.05 9.3 -9.2 10.7 -9.3 11.95 -8.2" fill="#ffffff" fill-rule="evenodd" stroke="none"/>
    <path d="M11.95 -8.2 Q10.7 -9.3 9.3 -9.2 7.9 -9.05 6.85 -7.65 5.85 -6.3 5.35 -4.15 4.9 -1.9 5.1 0.7 5.4 3.8 6.55 6.05 7.95 5.7 10.15 6.05 12.4 6.4 14.7 7.45 L15.15 5.2 15.3 2.4 15.2 -0.3 Q14.95 -2.95 14.05 -5.0 13.2 -7.05 11.95 -8.2" fill="none" stroke="#000000" stroke-linecap="round" stroke-linejoin="round" stroke-width="1.0"/>
    <path d="M5.4 -0.95 Q5.4 -3.5 6.1 -5.5 6.85 -7.45 8.0 -8.35 7.1 -6.2 7.1 -3.2 L7.15 -1.65 Q7.3 0.0 7.6 1.5 7.95 3.0 8.55 4.1 9.1 5.25 10.0 5.65 L8.4 5.6 6.8 5.55 5.9 3.3 Q5.6 2.15 5.45 0.65 L5.4 -0.95" fill="#e5e2be" fill-rule="evenodd" stroke="none"/>
    <path d="M-10.4 -0.6 Q-9.0 -0.4 -8.15 0.95 -7.35 2.35 -7.5 4.3 -7.7 6.15 -8.8 7.35 -9.85 8.55 -11.25 8.5 -12.7 8.3 -13.45 6.95 -14.3 5.55 -14.15 3.6 -13.95 1.7 -12.9 0.55 -11.8 -0.65 -10.4 -0.6" fill="#000000" fill-rule="evenodd" stroke="none"/>
    <path d="M-8.8 2.35 Q-8.85 3.15 -9.25 3.6 -9.7 4.1 -10.25 4.05 L-11.1 3.4 Q-11.45 2.9 -11.4 2.15 -11.35 1.35 -10.9 0.9 -10.5 0.4 -9.9 0.45 -9.35 0.5 -9.0 1.1 -8.7 1.6 -8.8 2.35" fill="#ffffff" fill-rule="evenodd" stroke="none"/>
    <path d="M10.2 1.95 Q10.0 3.55 9.25 4.5 8.5 5.5 7.45 5.45 6.45 5.3 5.85 4.2 5.3 3.05 5.4 1.45 5.55 -0.1 6.35 -1.1 7.1 -2.05 8.15 -2.0 9.15 -1.85 9.75 -0.75 10.35 0.4 10.2 1.95" fill="#000000" fill-rule="evenodd" stroke="none"/>
    <path d="M9.65 0.55 L9.25 1.55 Q8.95 1.95 8.45 1.9 8.05 1.85 7.8 1.4 7.55 0.95 7.6 0.35 7.65 -0.25 8.0 -0.65 8.3 -1.05 8.75 -1.0 9.15 -0.95 9.4 -0.5 L9.65 0.55" fill="#ffffff" fill-rule="evenodd" stroke="none"/>
  </g>
</svg>
