<?xml version="1.0" encoding="UTF-8" standalone="no"?>
<svg xmlns:xlink="http://www.w3.org/1999/xlink" height="248.2px" width="229.05px" xmlns="http://www.w3.org/2000/svg">
  <g transform="matrix(1, 0, 0, 1, 165.6, 133.4)">
    <path d="M43.35 -88.3 L42.25 -83.25 41.9 -81.05 40.9 -46.35 40.2 -43.65 38.45 -36.7 36.05 -27.05 33.5 -16.35 31.2 -6.25 29.7 1.65 Q29.15 4.9 29.35 5.8 L30.65 12.05 Q31.25 15.35 31.25 18.3 L30.75 22.4 29.55 28.8 28.15 35.7 26.95 41.15 26.45 43.4 25.95 46.55 24.85 54.75 23.55 66.2 Q22.95 72.5 22.6 79.0 22.25 85.5 22.45 91.35 22.6 97.15 23.55 101.3 L21.25 102.65 Q18.95 104.0 14.4 105.75 9.85 107.55 3.15 109.0 -3.6 110.5 -12.5 110.95 L-32.4 110.0 -50.9 107.35 -63.5 105.3 -71.95 104.0 -78.05 103.6 -83.55 104.2 -89.75 105.2 -100.15 106.7 -113.15 108.4 -127.2 110.25 -140.85 111.95 -152.5 113.45 -160.6 114.45 -163.65 114.8 -165.3 -130.8 -146.8 -129.6 -129.05 -130.8 -124.9 -131.65 -113.65 -133.0 Q-106.5 -133.65 -97.25 -133.2 L-81.8 -132.5 -72.15 -131.45 Q-68.75 -130.65 -68.25 -128.8 L-69.9 -127.2 -73.4 -123.0 Q-75.35 -120.35 -76.55 -117.15 -77.75 -113.95 -77.1 -110.65 L-75.45 -110.4 -71.4 -109.8 -66.25 -109.1 -61.3 -108.5 -57.8 -108.25 Q-55.85 -108.35 -53.0 -109.25 L-46.3 -110.95 -37.65 -111.5 -41.1 -103.25 -23.75 -110.0 48.65 -108.1 49.25 -106.45 Q49.75 -104.9 49.65 -102.65 49.5 -100.45 47.7 -98.45 46.25 -96.9 45.15 -94.1 44.05 -91.3 43.35 -88.3" fill="#000000" fill-rule="evenodd" stroke="none"/>
    <path d="M43.2 -105.6 Q46.95 -105.0 47.65 -104.2 L33.2 -90.7 30.45 -90.55 23.55 -90.2 14.35 -89.75 4.9 -89.25 -3.0 -88.9 -7.35 -88.75 -11.4 -89.35 -16.5 -90.7 -20.9 -92.05 -22.8 -92.65 -91.3 -88.75 -83.6 -81.05 -87.05 -81.3 -94.0 -82.55 -103.0 -84.45 -112.6 -86.6 -121.2 -88.6 -127.5 -90.1 -129.9 -90.7 -165.6 -86.85 -165.6 -128.35 -162.65 -128.25 -155.1 -128.2 -144.75 -128.35 -133.5 -128.95 -123.15 -130.25 -112.35 -131.55 -99.8 -132.0 Q-93.3 -132.05 -87.45 -131.7 L-77.2 -130.8 Q-72.85 -130.15 -71.05 -129.3 -71.1 -127.85 -72.6 -127.2 -74.1 -126.55 -76.35 -126.4 L-80.8 -126.3 -84.55 -126.4 Q-86.0 -126.35 -87.05 -125.5 L-88.9 -123.5 -90.0 -121.5 -90.35 -120.6 -92.95 -120.1 -99.6 -118.7 -108.55 -116.75 -118.05 -114.45 -126.4 -112.15 Q-130.1 -111.0 -131.85 -110.0 -133.45 -109.05 -132.15 -108.5 L-127.5 -107.8 -119.4 -107.7 -109.45 -108.0 -99.25 -108.5 -90.35 -109.05 -80.4 -109.4 -73.1 -109.15 -67.4 -108.35 -62.35 -107.1 -57.45 -106.65 -51.6 -107.3 -46.0 -108.4 -41.8 -109.5 -40.15 -110.0 -41.2 -108.9 -43.3 -106.25 Q-44.45 -104.7 -45.05 -103.1 -45.65 -101.5 -45.0 -100.35 L-41.35 -100.2 Q-38.55 -101.0 -34.85 -102.65 L-27.6 -105.65 Q-24.05 -107.0 -21.8 -107.1 L-16.3 -107.15 -6.0 -107.2 7.05 -107.2 20.9 -106.95 33.65 -106.45 43.2 -105.6" fill="#a2ce7a" fill-rule="evenodd" stroke="none"/>
    <path d="M33.2 -90.7 L30.45 -90.6 23.55 -90.2 14.35 -89.75 4.9 -89.3 -3.0 -88.95 -7.35 -88.8 -11.4 -89.4 -16.5 -90.7 -20.9 -92.05 -22.8 -92.65 -91.3 -88.8 -83.6 -81.05 -87.05 -81.3 -94.0 -82.55 -103.0 -84.45 -112.6 -86.6 -121.2 -88.65 -127.5 -90.1 -129.9 -90.7 -165.6 -86.85 -165.6 -106.75 Q-160.65 -104.8 -155.5 -104.1 L-145.2 -103.4 -134.7 -103.45 Q-129.4 -103.55 -124.1 -103.25 -126.25 -103.2 -128.15 -102.35 L-131.7 -100.25 -135.1 -97.95 Q-136.8 -96.9 -138.6 -96.5 L-126.05 -95.95 -113.75 -95.15 Q-107.7 -94.5 -101.9 -92.65 -102.3 -93.65 -101.95 -94.85 -101.6 -96.05 -101.55 -97.2 -101.55 -98.4 -102.9 -99.4 L-80.6 -97.45 -58.35 -95.55 Q-47.25 -94.75 -36.0 -95.05 -24.7 -95.35 -13.15 -97.45 L-13.25 -96.4 Q-13.4 -95.4 -14.1 -94.6 L-1.45 -93.5 Q4.8 -93.35 10.9 -93.55 L23.2 -93.8 35.75 -93.1 33.2 -90.7" fill="#80a559" fill-rule="evenodd" stroke="none"/>
    <path d="M-77.2 -130.8 Q-72.85 -130.15 -71.05 -129.3 -71.1 -127.85 -72.6 -127.2 -74.1 -126.55 -76.35 -126.4 L-80.8 -126.3 -84.55 -126.4 Q-86.35 -126.3 -87.6 -125.05 -88.85 -123.8 -89.5 -122.45 L-97.1 -123.5 -94.65 -124.95 -92.25 -126.4 Q-94.5 -127.85 -96.95 -128.55 -99.4 -129.3 -100.95 -129.3 -108.95 -129.6 -116.95 -128.95 L-133.0 -127.35 -149.2 -125.65 -165.6 -125.15 -165.6 -128.35 -162.65 -128.25 -155.1 -128.2 -144.75 -128.35 -133.5 -128.95 -123.15 -130.25 -112.35 -131.55 -99.8 -132.0 Q-93.3 -132.05 -87.45 -131.7 L-77.2 -130.8" fill="#b9e882" fill-rule="evenodd" stroke="none"/>
    <path d="M-133.75 -86.85 L-142.4 110.0 -143.95 110.4 -147.75 111.2 -152.65 111.9 -157.35 112.0 Q-159.55 111.8 -160.75 110.95 L-163.65 -82.0 -163.6 -82.5 Q-163.45 -83.0 -162.3 -83.7 -161.1 -84.45 -158.0 -85.15 L-149.05 -86.35 -133.75 -86.85" fill="#9b6a3a" fill-rule="evenodd" stroke="none"/>
    <path d="M-133.75 -86.85 L-142.4 110.0 -143.95 110.4 -147.75 111.2 -152.65 111.9 -157.35 112.0 Q-159.55 111.8 -160.75 110.95 L-163.65 -82.0 -163.6 -82.5 Q-163.45 -83.0 -162.3 -83.7 -161.1 -84.45 -158.0 -85.15 L-149.05 -86.35 -133.75 -86.85" fill="none" stroke="#af7c5a" stroke-linecap="round" stroke-linejoin="round" stroke-width="0.9"/>
    <path d="M-25.85 -52.2 Q-26.65 -41.55 -27.8 -29.55 -29.0 -17.6 -30.6 -5.35 -32.2 6.9 -34.3 18.25 -36.4 29.65 -39.05 39.1 -41.7 48.55 -44.95 55.0 L-55.3 75.4 -61.1 87.45 -63.7 93.1 -64.25 94.55 -64.25 101.3 -65.85 100.85 -69.8 100.0 -74.85 99.25 Q-77.45 99.05 -79.7 99.35 L-77.75 -78.2 -83.55 -85.9 -23.7 -88.8 -23.9 -84.0 -24.6 -71.1 Q-25.05 -62.85 -25.85 -52.2" fill="#c98f4b" fill-rule="evenodd" stroke="none"/>
    <path d="M-72.0 65.6 Q-62.45 60.9 -53.9 54.1 -45.35 47.3 -38.75 37.95 -40.15 43.0 -41.7 47.3 -43.25 51.6 -44.95 55.0 L-55.3 75.4 -61.1 87.45 -63.7 93.1 -64.25 94.55 -64.25 101.3 -65.85 100.85 -69.8 100.0 -74.85 99.3 Q-77.5 99.05 -79.7 99.4 L-79.35 66.9 Q-76.15 67.8 -72.0 65.6" fill="#b57f4e" fill-rule="evenodd" stroke="none"/>
    <path d="M-23.7 -88.8 L-23.85 -85.75 -24.25 -77.4 -25.0 -64.7 -26.1 -48.85 -31.45 -77.2 Q-31.95 -78.2 -32.9 -78.5 -33.85 -78.85 -34.8 -78.5 -35.75 -78.15 -36.25 -77.2 -39.7 -71.05 -44.35 -67.9 -49.05 -64.7 -54.6 -63.9 -60.1 -63.05 -66.05 -63.85 -72.0 -64.65 -77.9 -66.4 L-77.75 -78.2 -83.55 -85.9 -23.7 -88.8" fill="#b57f4e" fill-rule="evenodd" stroke="none"/>
    <path d="M-81.05 -52.55 L-81.5 -33.25 -82.0 -10.05 -82.6 15.05 -83.15 40.1 -83.7 63.05 -84.1 81.9 -84.4 94.65 -84.5 99.4 -139.5 110.0 -128.9 -85.9 -83.55 -76.25 -82.8 -75.65 -81.4 -73.95 Q-80.7 -72.9 -80.65 -71.4 L-80.75 -65.9 -81.05 -52.55" fill="#9b6a3a" fill-rule="evenodd" stroke="none"/>
    <path d="M-81.05 -52.55 L-81.5 -33.25 -82.0 -10.05 -82.6 15.05 -83.15 40.1 -83.7 63.05 -84.1 81.9 -84.4 94.65 -84.5 99.4 -139.5 110.0 -128.9 -85.9 -83.55 -76.25 -82.8 -75.65 -81.4 -73.95 Q-80.7 -72.9 -80.65 -71.4 L-80.75 -65.9 -81.05 -52.55" fill="none" stroke="#af7c5a" stroke-linecap="round" stroke-linejoin="round" stroke-width="0.9"/>
    <path d="M-80.65 -71.45 L-84.5 99.4 -87.4 -67.55 -90.15 -68.05 -97.3 -69.85 Q-101.75 -71.1 -107.2 -73.2 -112.65 -75.3 -118.3 -78.45 -123.9 -81.55 -128.9 -85.9 L-83.55 -76.25 -80.65 -71.45" fill="#b57f4e" fill-rule="evenodd" stroke="none"/>
    <path d="M-21.75 -87.8 L-10.2 -84.9 -10.55 -81.1 -11.65 -70.85 -13.45 -55.85 Q-14.55 -47.35 -16.0 -37.75 -17.45 -28.15 -19.25 -18.25 -21.05 -8.35 -23.2 1.0 -25.4 10.35 -27.9 18.25 -30.45 26.2 -33.35 31.85 L-32.85 28.15 -31.55 18.05 -29.7 3.15 -27.55 -14.95 -25.45 -34.65 -23.6 -54.45 Q-22.75 -64.15 -22.25 -72.7 -21.8 -81.2 -21.75 -87.8" fill="#b57f4e" fill-rule="evenodd" stroke="none"/>
    <path d="M22.5 -51.35 L17.05 -28.7 10.6 -4.3 Q7.2 8.05 3.45 19.7 -0.3 31.3 -4.2 41.1 -8.15 50.95 -12.15 57.9 L-25.65 23.15 -24.2 17.4 -20.6 1.45 Q-18.35 -8.75 -15.85 -22.5 -13.35 -36.2 -11.05 -52.3 -8.8 -68.4 -7.3 -85.85 L30.3 -87.8 29.35 -83.05 26.65 -70.2 22.5 -51.35" fill="#c98f4b" fill-rule="evenodd" stroke="none"/>
    <path d="M-27.6 27.95 L-16.0 57.85 -24.7 108.05 -27.2 107.8 -33.7 107.05 -42.65 105.75 -52.35 103.85 Q-57.25 102.75 -61.35 101.3 L-62.35 94.55 -34.35 36.65 -27.6 27.95" fill="#9b6a3a" fill-rule="evenodd" stroke="none"/>
    <path d="M-27.6 27.95 L-16.0 57.85 -24.7 108.05 -27.2 107.8 -33.7 107.05 -42.65 105.75 -52.35 103.85 Q-57.25 102.75 -61.35 101.3 L-62.35 94.55 -34.35 36.65 -27.6 27.95" fill="none" stroke="#af7c5a" stroke-linecap="round" stroke-linejoin="round" stroke-width="0.9"/>
    <path d="M33.2 -86.85 L43.8 -99.4 39.0 -78.15 39.0 -50.2 38.25 -47.2 36.35 -39.35 33.75 -28.55 30.95 -16.5 28.5 -5.1 Q27.4 0.25 26.85 3.9 26.25 7.55 26.45 8.7 27.0 11.05 28.05 13.05 29.1 15.05 29.65 17.2 30.2 19.35 29.35 22.2 L27.8 26.65 25.8 32.15 23.75 37.6 22.25 41.75 21.6 43.4 19.7 55.0 20.65 97.45 18.45 99.0 12.45 102.5 Q8.55 104.55 3.35 106.2 -1.85 107.9 -8.0 108.35 -14.15 108.75 -20.85 107.1 L-15.05 70.45 -13.25 66.25 -8.2 55.0 -0.6 38.6 Q0.7 35.8 2.5 30.4 L6.4 17.85 10.7 2.6 15.0 -13.65 19.05 -29.2 22.35 -42.45 24.65 -51.6 25.45 -55.0 33.2 -86.85" fill="#b57f4e" fill-rule="evenodd" stroke="none"/>
    <path d="M-45.9 -72.5 L-45.6 -70.45 Q-48.6 -76.9 -51.9 -81.2 -55.2 -85.45 -57.95 -86.7 -56.8 -84.2 -56.0 -81.4 L-54.8 -76.1 -54.15 -72.05 -54.0 -70.45 Q-56.7 -76.2 -59.7 -79.8 -62.65 -83.35 -65.3 -85.25 -67.95 -87.15 -69.65 -87.85 L-71.3 -88.5 -60.4 -91.05 -59.05 -88.75 -52.05 -90.4 Q-50.15 -87.45 -48.85 -84.05 -47.6 -80.6 -46.9 -77.55 L-45.9 -72.5" fill="#000000" fill-rule="evenodd" stroke="none"/>
    <path d="M-62.3 -94.25 Q-60.4 -91.3 -59.15 -88.3 -57.9 -85.25 -57.15 -82.65 L-56.15 -78.5 -55.9 -76.9 Q-58.6 -82.6 -61.6 -85.7 -64.55 -88.8 -67.2 -90.05 -69.85 -91.35 -71.55 -91.55 L-73.2 -91.7 -62.3 -94.25" fill="#80a559" fill-rule="evenodd" stroke="none"/>
    <path d="M-53.95 -93.6 Q-52.05 -90.65 -50.8 -87.65 -49.55 -84.6 -48.8 -82.0 L-47.8 -77.85 -47.55 -76.25 Q-50.25 -81.95 -53.25 -85.05 -56.2 -88.15 -58.85 -89.4 -61.5 -90.7 -63.2 -90.9 L-64.85 -91.05 -53.95 -93.6" fill="#80a559" fill-rule="evenodd" stroke="none"/>
    <path d="M63.45 -82.55 Q60.0 -85.75 56.7 -88.0 53.35 -90.25 50.55 -91.45 47.75 -92.7 45.75 -92.7 47.85 -90.85 49.65 -88.6 L52.8 -84.2 54.95 -80.7 55.75 -79.3 Q51.05 -83.55 46.9 -85.7 42.75 -87.8 39.55 -88.55 L34.6 -89.25 32.75 -89.15 41.8 -95.8 44.0 -94.2 48.8 -101.25 Q51.75 -99.25 54.35 -96.15 57.0 -93.1 59.05 -90.0 L62.25 -84.75 63.45 -82.55" fill="#000000" fill-rule="evenodd" stroke="none"/>
    <path d="M57.95 -89.05 L59.4 -87.15 Q54.7 -91.35 50.7 -93.05 46.75 -94.75 43.85 -94.9 L39.3 -94.55 37.65 -94.0 43.15 -103.9 Q46.1 -101.9 48.95 -99.15 L54.2 -93.6 57.95 -89.05" fill="#a2ce7a" fill-rule="evenodd" stroke="none"/>
    <path d="M50.55 -85.9 L51.45 -84.5 Q46.75 -88.7 42.75 -90.4 38.8 -92.1 35.9 -92.25 L31.35 -91.9 29.8 -91.4 38.75 -98.0 Q41.7 -96.05 44.0 -93.75 L48.0 -89.35 50.55 -85.9" fill="#80a559" fill-rule="evenodd" stroke="none"/>
    <path d="M-62.3 -74.8 L-62.05 -73.15 Q-64.5 -78.4 -67.2 -81.9 -69.95 -85.45 -72.2 -86.45 -71.25 -84.35 -70.6 -82.1 -69.95 -79.8 -69.6 -77.75 L-69.05 -74.45 -68.9 -73.15 Q-71.15 -77.85 -73.6 -80.8 -76.05 -83.7 -78.2 -85.25 -80.4 -86.8 -81.75 -87.35 L-83.1 -87.9 -74.2 -90.0 -73.05 -88.15 -67.35 -89.45 Q-65.75 -87.05 -64.75 -84.25 -63.7 -81.45 -63.1 -78.95 L-62.3 -74.8" fill="#000000" fill-rule="evenodd" stroke="none"/>
    <path d="M-72.55 -86.15 Q-71.4 -82.9 -70.95 -80.7 L-70.5 -78.4 Q-72.75 -83.1 -75.2 -85.65 -77.65 -88.2 -79.8 -89.25 -82.0 -90.25 -83.35 -90.45 L-84.7 -90.55 -75.8 -92.65 Q-73.7 -89.4 -72.55 -86.15" fill="#80a559" fill-rule="evenodd" stroke="none"/>
    <path d="M-65.7 -85.6 Q-64.55 -82.35 -64.1 -80.15 L-63.65 -77.85 Q-65.9 -82.55 -68.35 -85.1 -70.8 -87.65 -72.95 -88.7 -75.15 -89.7 -76.5 -89.9 L-77.85 -90.0 -68.95 -92.1 Q-66.85 -88.85 -65.7 -85.6" fill="#80a559" fill-rule="evenodd" stroke="none"/>
    <path d="M47.7 -104.2 L44.7 -101.45 20.7 -102.55 -3.15 -104.3 -27.15 -105.8 Q-23.9 -107.05 -21.8 -107.1 L-16.3 -107.15 -6.0 -107.2 7.05 -107.2 20.95 -106.95 33.65 -106.45 43.25 -105.6 Q47.0 -105.05 47.7 -104.2" fill="#b9e882" fill-rule="evenodd" stroke="none"/>
    <path d="M-73.55 -123.65 L-74.5 -123.2 -76.45 -121.65 Q-77.5 -120.65 -78.25 -119.0 L-79.2 -115.8 -79.5 -113.3 -79.55 -112.3 -81.9 -112.1 -88.05 -111.65 -96.5 -111.15 -105.75 -110.75 -114.35 -110.6 -120.9 -111.0 -118.4 -111.7 -112.25 -113.35 -104.35 -115.3 -96.6 -116.95 -90.9 -117.65 -86.9 -117.65 -87.25 -118.5 -87.55 -120.4 Q-87.6 -121.5 -86.9 -122.45 -86.2 -123.35 -84.25 -123.65 L-79.1 -123.95 -75.15 -123.8 -73.55 -123.65" fill="#9b6a3a" fill-rule="evenodd" stroke="none"/>
  </g>
</svg>
