<?xml version="1.0" encoding="UTF-8" standalone="no"?>
<svg xmlns:xlink="http://www.w3.org/1999/xlink" height="76.15px" width="216.3px" xmlns="http://www.w3.org/2000/svg">
  <g transform="matrix(1, 0, 0, 1, 110.0, 31.5)">
    <path d="M33.0 -16.15 L55.15 -12.7 Q65.2 -10.95 72.05 -9.25 78.95 -7.6 81.75 -6.0 85.55 -3.75 86.85 -1.7 88.2 0.4 87.8 2.3 87.35 4.2 86.0 5.95 L83.0 9.35 Q81.4 10.95 80.3 12.45 79.2 13.95 79.4 15.35 79.55 16.7 81.75 18.0 85.75 20.3 90.4 22.65 L99.2 27.0 106.0 30.25 Q108.65 31.45 86.05 36.4 -104.4 51.0 -110.0 39.7 L-107.25 -31.5 -102.45 -31.05 -89.3 -29.85 -69.85 -28.0 -45.9 -25.55 -19.5 -22.7 7.45 -19.5 33.0 -16.15" fill="#b4e6fc" fill-rule="evenodd" stroke="none"/>
    <path d="M5.25 -21.45 Q11.9 -20.55 17.75 -18.8 23.6 -17.05 28.05 -14.05 31.15 -11.8 33.2 -8.95 L37.25 -3.2 Q39.25 -0.35 42.25 1.85 43.6 2.75 46.4 3.4 L52.7 4.75 59.45 6.2 Q62.75 7.0 65.1 8.1 67.45 9.2 68.0 10.75 69.25 15.15 67.8 18.0 66.35 20.85 63.0 22.5 59.65 24.2 55.3 24.95 L46.35 25.9 37.85 25.95 31.6 25.8 12.75 26.45 -5.15 28.25 -18.7 29.75 -40.95 30.9 Q-52.25 30.9 -61.8 27.05 -71.35 23.15 -83.25 23.7 -95.1 24.25 -108.4 15.6 L-108.15 5.5 -107.85 -6.95 -107.55 -18.4 -107.35 -26.75 -107.25 -30.0 -107.25 -31.5 -33.0 -24.2 -21.3 -23.35 -8.15 -22.7 5.25 -21.45" fill="#89d4e8" fill-rule="evenodd" stroke="none"/>
  </g>
</svg>
