<?xml version="1.0" encoding="UTF-8" standalone="no"?>
<svg xmlns:xlink="http://www.w3.org/1999/xlink" height="277.4px" width="229.05px" xmlns="http://www.w3.org/2000/svg">
  <g transform="matrix(1, 0, 0, 1, 92.2, -148.65)">
    <path d="M47.0 176.0 L47.4 175.85 Q49.85 175.05 51.6 174.95 L57.1 174.9 67.4 174.85 80.45 174.85 Q87.45 174.9 94.3 175.1 L94.35 175.1 107.05 175.6 116.15 176.4 116.65 176.45 Q120.4 177.0 121.1 177.85 L118.9 179.9 118.1 180.6 115.25 180.55 94.1 179.5 70.25 177.75 46.25 176.25 47.0 176.0 M-91.85 153.75 L-91.45 153.75 -89.25 153.8 -81.7 153.85 -71.35 153.7 -60.1 153.1 -49.75 151.8 -38.95 150.5 -26.4 150.05 Q-19.9 150.0 -14.05 150.35 L-3.8 151.25 Q0.55 151.9 2.35 152.75 2.3 154.2 0.8 154.85 -0.7 155.5 -2.95 155.65 L-7.4 155.75 -11.15 155.65 Q-12.3 155.7 -13.15 156.25 L-13.3 156.3 -14.2 157.0 -14.35 157.15 -14.4 157.2 -15.55 158.65 -16.0 159.4 -16.1 159.6 -23.7 158.55 Q-22.3 157.8 -21.25 157.1 -20.25 156.35 -18.85 155.65 -21.1 154.2 -23.55 153.5 -26.0 152.75 -27.55 152.75 -35.55 152.45 -43.55 153.1 L-59.6 154.7 -75.8 156.4 -92.2 156.9 -92.2 153.7 -92.15 153.7 -91.85 153.75" fill="#b9e882" fill-rule="evenodd" stroke="none"/>
    <path d="M80.6 192.65 L87.75 192.3 96.95 191.85 100.8 191.65 103.85 191.5 106.4 191.35 106.6 191.35 108.3 189.8 109.3 189.8 110.25 189.9 106.15 192.9 108.0 192.8 108.65 192.85 106.6 195.2 98.85 227.05 98.05 230.45 95.75 239.6 92.45 252.85 91.95 254.85 90.1 254.85 90.45 253.35 95.9 230.7 100.05 211.85 102.75 199.0 103.7 194.25 66.1 196.2 Q64.6 213.65 62.35 229.75 60.15 245.15 57.8 258.35 57.3 259.3 57.0 260.5 L56.85 261.85 54.5 261.85 57.4 244.3 59.95 226.2 61.75 211.2 62.85 200.95 63.2 197.15 51.65 194.25 Q51.6 200.85 51.15 209.35 L49.8 227.6 47.95 247.4 46.15 264.4 45.6 266.05 44.1 266.35 45.6 252.5 47.3 233.2 47.45 231.55 47.55 229.85 48.35 218.85 48.4 217.35 48.75 212.15 48.8 210.95 49.1 205.9 49.5 198.05 49.55 196.3 49.7 193.25 23.05 194.55 24.55 198.0 Q25.8 201.45 26.5 204.5 L27.5 209.55 27.8 211.6 Q24.8 205.15 21.5 200.85 18.2 196.6 15.45 195.35 16.6 197.85 17.4 200.65 L18.6 205.95 19.25 210.0 19.4 211.6 Q16.7 205.85 13.7 202.25 10.9 198.85 8.35 197.0 L8.65 197.8 10.3 203.1 11.1 207.25 11.35 208.9 Q8.9 203.65 6.2 200.15 3.45 196.6 1.2 195.6 L2.8 199.95 3.8 204.3 4.35 207.6 4.5 208.9 Q2.25 204.2 -0.2 201.25 -2.65 198.35 -4.8 196.8 L-6.05 195.95 -10.15 196.15 -4.35 203.85 -4.5 215.65 -4.45 215.65 -5.05 266.3 -6.2 266.05 -8.4 263.85 -8.4 262.35 -8.15 252.25 -8.1 249.3 -8.1 248.8 -8.05 246.9 -7.65 229.5 -7.35 216.15 -7.25 210.6 Q-7.3 209.15 -8.0 208.1 L-9.4 206.4 -10.15 205.8 -55.5 196.15 -58.95 260.7 -63.25 261.7 -60.35 195.2 -75.65 195.7 -84.6 196.9 Q-87.7 197.6 -88.9 198.35 -90.05 199.05 -90.2 199.55 L-90.25 200.05 -89.2 267.2 -91.1 267.55 -91.6 195.15 -91.2 195.1 -56.5 191.35 -54.1 191.95 -54.0 192.0 -53.95 192.0 -53.85 192.05 -50.4 192.85 -47.8 193.45 -45.8 193.9 -39.2 195.45 -29.6 197.6 -20.6 199.5 -13.65 200.75 -10.2 201.0 -17.85 193.3 -15.45 193.15 -6.75 192.65 -6.4 192.8 -5.65 193.2 Q-4.15 194.1 -2.4 195.75 L-1.8 196.4 Q0.65 198.95 2.9 203.65 L2.45 201.35 0.85 195.9 0.75 195.6 -0.35 193.0 -0.15 193.1 0.45 193.35 1.15 193.75 3.55 195.5 5.05 196.95 Q7.5 199.5 9.75 204.2 L9.3 201.9 7.7 196.45 7.25 195.3 6.0 192.6 5.65 191.95 6.0 191.9 6.2 192.0 7.0 192.4 Q8.7 193.4 10.6 195.15 L11.8 196.35 Q14.8 199.45 17.5 205.15 L17.25 203.55 16.25 199.4 14.75 194.95 14.25 193.75 13.55 192.2 13.8 192.3 14.55 192.65 15.35 193.1 17.85 194.8 20.15 197.0 Q23.15 200.1 25.85 205.8 L25.6 204.2 24.6 200.05 22.7 194.6 22.6 194.4 21.35 191.65 21.0 191.05 50.6 189.4 52.5 190.0 56.9 191.35 59.5 192.05 62.0 192.7 66.05 193.3 70.4 193.15 78.3 192.8 80.6 192.65 M118.9 179.9 L121.1 177.85 Q120.4 177.0 116.65 176.45 L116.15 176.4 107.05 175.6 94.35 175.1 94.3 175.1 Q87.45 174.9 80.45 174.85 L67.4 174.85 57.1 174.9 51.6 174.95 Q49.85 175.05 47.4 175.85 L47.0 176.0 45.8 176.4 38.55 179.4 32.05 181.85 28.4 181.7 Q27.75 180.55 28.35 178.95 28.95 177.35 30.1 175.8 L32.2 173.15 33.25 172.05 31.6 172.55 27.4 173.65 21.8 174.75 15.95 175.4 11.05 174.95 6.0 173.7 0.3 172.9 -7.0 172.65 -16.95 173.0 -25.85 173.55 -36.05 174.05 -46.0 174.35 -54.1 174.25 -58.75 173.55 Q-60.05 173.0 -58.45 172.05 -56.7 171.05 -53.0 169.9 L-44.65 167.6 -35.15 165.3 -26.2 163.35 -19.55 161.95 -16.95 161.45 -16.6 160.55 -16.1 159.6 -16.0 159.4 -15.55 158.65 -14.4 157.2 -14.35 157.15 -13.65 156.55 -13.3 156.3 -13.15 156.25 Q-12.3 155.7 -11.15 155.65 L-7.4 155.75 -2.95 155.65 Q-0.7 155.5 0.8 154.85 2.3 154.2 2.35 152.75 0.55 151.9 -3.8 151.25 L-14.05 150.35 Q-19.9 150.0 -26.4 150.05 L-38.95 150.5 -49.75 151.8 -60.1 153.1 -71.35 153.7 -81.7 153.85 -89.25 153.8 -91.45 153.75 -91.85 153.75 -91.9 151.25 -73.4 152.45 -55.65 151.25 -51.5 150.4 -40.25 149.05 Q-33.1 148.4 -23.85 148.85 L-8.4 149.55 1.25 150.6 Q4.65 151.4 5.15 153.25 L3.5 154.85 0.0 159.05 Q-1.95 161.7 -3.15 164.9 -4.35 168.1 -3.7 171.4 L-2.05 171.65 2.0 172.25 7.15 172.95 12.1 173.55 15.6 173.8 Q17.55 173.7 20.4 172.8 23.3 171.9 27.1 171.1 L35.75 170.55 32.3 178.8 49.65 172.05 122.05 173.95 122.65 175.6 Q123.15 177.15 123.05 179.4 L122.7 181.15 Q125.35 183.05 127.75 185.9 130.4 188.95 132.45 192.05 L135.65 197.3 136.85 199.5 Q133.4 196.3 130.1 194.05 126.75 191.8 123.95 190.6 121.15 189.35 119.15 189.35 121.25 191.2 123.05 193.45 L126.2 197.85 128.35 201.35 129.15 202.75 Q124.45 198.5 120.3 196.35 118.3 195.35 116.55 194.65 L115.65 198.8 115.3 201.0 114.3 235.7 113.6 238.4 112.65 242.15 108.2 249.2 109.75 242.7 111.65 234.85 112.4 231.85 112.4 203.9 114.65 194.0 112.95 193.5 108.65 192.85 111.0 190.0 Q112.95 190.35 115.25 191.3 L116.15 191.65 117.2 192.15 Q120.75 193.9 124.85 197.55 L123.95 196.15 121.4 192.7 118.15 189.05 117.4 188.3 116.2 187.15 116.15 187.15 116.2 187.15 116.5 187.15 117.25 187.15 117.85 187.2 118.8 187.35 Q121.15 187.75 124.1 189.0 128.1 190.7 132.8 194.9 L131.35 193.0 127.6 188.45 122.35 182.9 121.95 182.55 121.4 182.0 118.9 179.9 M-10.85 158.4 Q-12.8 158.7 -13.5 159.6 -14.2 160.55 -14.15 161.65 L-13.85 163.55 -13.5 164.4 -17.5 164.4 -23.2 165.1 -30.95 166.75 -38.85 168.7 -45.0 170.35 -47.5 171.05 -40.95 171.45 -32.35 171.3 -23.1 170.9 -14.65 170.4 -8.5 169.95 -6.15 169.75 -6.1 168.75 -5.8 166.25 -4.85 163.05 Q-4.1 161.4 -3.05 160.4 -1.95 159.35 -1.1 158.85 L-0.15 158.4 -1.75 158.25 -5.7 158.1 -10.85 158.4" fill="#000000" fill-rule="evenodd" stroke="none"/>
    <path d="M100.8 191.65 L96.95 191.85 87.75 192.3 80.6 192.65 78.3 192.75 70.4 193.1 66.05 193.25 62.0 192.65 59.5 192.05 56.9 191.35 52.5 190.0 50.6 189.4 21.0 191.05 21.35 191.65 22.6 194.4 22.7 194.6 24.6 200.05 25.6 204.2 25.85 205.8 Q23.15 200.1 20.15 197.0 L17.85 194.8 15.35 193.1 14.55 192.65 13.8 192.3 13.55 192.2 14.25 193.75 14.75 194.95 16.25 199.4 17.25 203.55 17.5 205.15 Q14.8 199.45 11.8 196.35 L10.6 195.15 Q8.7 193.4 7.0 192.4 L6.2 192.0 6.0 191.9 5.65 191.95 6.0 192.6 7.25 195.3 7.7 196.45 9.3 201.9 9.75 204.2 Q7.5 199.5 5.05 196.95 L3.55 195.5 1.15 193.75 0.45 193.35 -0.15 193.1 -0.35 193.0 0.75 195.6 0.85 195.9 2.45 201.35 2.9 203.65 Q0.65 198.95 -1.8 196.4 L-2.4 195.75 Q-4.15 194.1 -5.65 193.2 L-6.4 192.8 -6.75 192.65 -15.45 193.15 -17.9 193.25 -17.85 193.3 -10.2 201.0 -13.65 200.75 -20.6 199.5 -29.6 197.6 -39.2 195.45 -45.8 193.9 -47.8 193.4 -50.4 192.85 -53.85 192.05 -53.95 192.0 -54.0 192.0 -54.1 191.95 -56.5 191.35 -91.2 195.1 -91.9 195.2 -92.2 195.2 -92.2 175.3 Q-87.25 177.25 -82.1 177.95 L-71.8 178.65 -61.3 178.6 Q-56.0 178.5 -50.7 178.8 -52.85 178.85 -54.75 179.7 -56.6 180.6 -58.3 181.8 L-61.7 184.1 Q-63.4 185.15 -65.2 185.55 L-52.65 186.1 -40.35 186.9 Q-34.3 187.55 -28.5 189.4 -28.9 188.4 -28.55 187.2 -28.2 186.0 -28.15 184.85 -28.15 183.65 -29.5 182.65 L-7.2 184.6 15.05 186.5 Q26.15 187.3 37.4 187.0 48.7 186.7 60.25 184.6 L60.15 185.65 Q60.0 186.65 59.3 187.45 L71.95 188.55 Q78.2 188.7 84.3 188.5 90.4 188.25 96.6 188.25 L105.9 188.65 112.15 184.05 112.95 184.6 113.45 184.95 114.55 185.8 116.15 187.15 116.2 187.15 117.4 188.3 118.15 189.05 121.4 192.7 123.95 196.15 124.85 197.55 Q120.75 193.9 117.2 192.15 L116.15 191.65 115.25 191.3 Q112.95 190.35 111.0 190.0 L110.25 189.9 109.3 189.8 108.3 189.8 106.6 191.35 106.4 191.35 103.85 191.45 100.8 191.65" fill="#80a559" fill-rule="evenodd" stroke="none"/>
    <path d="M80.6 192.65 L78.3 192.8 70.4 193.15 66.05 193.3 62.0 192.7 59.5 192.05 62.0 192.65 66.05 193.25 70.4 193.1 78.3 192.75 80.6 192.65 M-15.45 193.15 L-17.85 193.3 -17.9 193.25 -15.45 193.15 M-45.8 193.9 L-47.8 193.45 -50.4 192.85 -47.8 193.4 -45.8 193.9 M-91.2 195.1 L-91.6 195.15 -91.9 195.2 -91.2 195.1 M106.4 191.35 L103.85 191.5 100.8 191.65 103.85 191.45 106.4 191.35 M47.0 176.0 L46.25 176.25 70.25 177.75 94.1 179.5 115.25 180.55 118.1 180.6 118.9 179.9 121.4 182.0 121.95 182.55 122.35 182.9 127.6 188.45 131.35 193.0 132.8 194.9 Q128.1 190.7 124.1 189.0 121.15 187.75 118.8 187.35 L117.85 187.2 117.25 187.15 116.5 187.15 116.2 187.15 116.15 187.15 114.55 185.8 113.45 184.95 112.95 184.6 112.15 184.05 105.9 188.65 96.6 188.25 Q90.4 188.25 84.3 188.5 78.2 188.7 71.95 188.55 L59.3 187.45 Q60.0 186.65 60.15 185.65 L60.25 184.6 Q48.7 186.7 37.4 187.0 26.15 187.3 15.05 186.5 L-7.2 184.6 -29.5 182.65 Q-28.15 183.65 -28.15 184.85 -28.2 186.0 -28.55 187.2 -28.9 188.4 -28.5 189.4 -34.3 187.55 -40.35 186.9 L-52.65 186.1 -65.2 185.55 Q-63.4 185.15 -61.7 184.1 L-58.3 181.8 Q-56.6 180.6 -54.75 179.7 -52.85 178.85 -50.7 178.8 -56.0 178.5 -61.3 178.6 L-71.8 178.65 -82.1 177.95 Q-87.25 177.25 -92.2 175.3 L-92.2 156.9 -75.8 156.4 -59.6 154.7 -43.55 153.1 Q-35.55 152.45 -27.55 152.75 -26.0 152.75 -23.55 153.5 -21.1 154.2 -18.85 155.65 -20.25 156.35 -21.25 157.1 -22.3 157.8 -23.7 158.55 L-16.1 159.6 -16.6 160.55 -16.95 161.45 -19.55 161.95 -26.2 163.35 -35.15 165.3 -44.65 167.6 -53.0 169.9 Q-56.7 171.05 -58.45 172.05 -60.05 173.0 -58.75 173.55 L-54.1 174.25 -46.0 174.35 -36.05 174.05 -25.85 173.55 -16.95 173.0 -7.0 172.65 0.3 172.9 6.0 173.7 11.05 174.95 15.95 175.4 21.8 174.75 27.4 173.65 31.6 172.55 33.25 172.05 32.2 173.15 30.1 175.8 Q28.95 177.35 28.35 178.95 27.75 180.55 28.4 181.7 L32.05 181.85 38.55 179.4 45.8 176.4 47.0 176.0 M-13.3 156.3 L-13.65 156.55 -14.35 157.15 -14.2 157.0 -13.3 156.3" fill="#a2ce7a" fill-rule="evenodd" stroke="none"/>
    <path d="M-55.5 196.15 L-10.15 205.8 -7.25 210.6 -7.35 216.15 -7.65 229.5 -8.05 246.9 -8.1 248.8 -8.1 249.3 -8.15 252.25 -8.4 262.35 -8.45 263.8 -10.4 261.85 -13.15 261.85 -14.0 214.5 -16.75 214.0 -23.9 212.2 Q-28.35 210.95 -33.8 208.85 -39.25 206.75 -44.9 203.6 -50.5 200.5 -55.5 196.15 M-4.45 215.65 L-4.5 215.65 -4.35 203.85 -10.15 196.15 -6.05 195.95 -4.8 196.8 Q-2.65 198.35 -0.2 201.25 2.25 204.2 4.5 208.9 L4.35 207.6 3.8 204.3 2.8 199.95 1.2 195.6 Q3.45 196.6 6.2 200.15 8.9 203.65 11.35 208.9 L11.1 207.25 10.3 203.1 8.65 197.8 8.35 197.0 Q10.9 198.85 13.7 202.25 16.7 205.85 19.4 211.6 L19.25 210.0 18.6 205.95 17.4 200.65 Q16.6 197.85 15.45 195.35 18.2 196.6 21.5 200.85 24.8 205.15 27.8 211.6 L27.5 209.55 26.5 204.5 Q25.8 201.45 24.55 198.0 L23.05 194.55 49.7 193.25 49.55 196.3 49.15 204.65 49.1 205.9 48.8 210.95 48.75 212.15 48.4 217.35 48.35 218.85 47.55 229.85 47.45 231.55 47.3 233.2 Q44.55 219.25 41.95 204.85 41.45 203.85 40.5 203.55 39.55 203.2 38.6 203.55 37.65 203.9 37.15 204.85 33.7 211.0 29.05 214.15 24.35 217.35 18.8 218.15 13.3 219.0 7.35 218.2 1.4 217.4 -4.45 215.65 M46.15 264.4 L47.95 247.4 49.8 227.6 51.15 209.35 Q51.6 200.85 51.65 194.25 L63.2 197.15 62.85 200.95 61.75 211.2 59.95 226.2 57.4 244.3 54.5 261.85 47.0 261.85 46.15 264.4 M91.95 254.85 L92.45 252.85 95.75 239.6 98.05 230.45 98.85 227.05 106.6 195.2 108.65 192.85 112.95 193.5 114.65 194.0 112.4 203.9 112.4 231.85 111.65 234.85 109.75 242.7 108.2 249.2 107.25 250.65 100.25 254.85 91.95 254.85" fill="#b57f4e" fill-rule="evenodd" stroke="none"/>
    <path d="M-89.2 267.2 L-90.25 200.05 -90.2 199.55 Q-90.05 199.05 -88.9 198.35 -87.7 197.6 -84.6 196.9 L-75.65 195.7 -60.35 195.2 -63.25 261.7 Q-75.8 264.65 -89.2 267.2 M-58.95 260.7 L-55.5 196.15 Q-50.5 200.5 -44.9 203.6 -39.25 206.75 -33.8 208.85 -28.35 210.95 -23.9 212.2 L-16.75 214.0 -14.0 214.5 -13.15 261.85 -46.8 261.85 -52.4 259.05 -58.95 260.7 M-10.15 205.8 L-9.4 206.4 -8.0 208.1 Q-7.3 209.15 -7.25 210.6 L-10.15 205.8 M-8.4 262.35 L-8.4 263.85 -8.45 263.8 -8.4 262.35 M-10.85 158.4 L-5.7 158.1 -1.75 158.25 -0.15 158.4 -1.1 158.85 Q-1.95 159.35 -3.05 160.4 -4.1 161.4 -4.85 163.05 L-5.8 166.25 -6.1 168.75 -6.15 169.75 -8.5 169.95 -14.65 170.4 -23.1 170.9 -32.35 171.3 -40.95 171.45 -47.5 171.05 -45.0 170.35 -38.85 168.7 -30.95 166.75 -23.2 165.1 -17.5 164.4 -13.5 164.4 -13.85 163.55 -14.15 161.65 Q-14.2 160.55 -13.5 159.6 -12.8 158.7 -10.85 158.4" fill="#9b6a3a" fill-rule="evenodd" stroke="none"/>
    <path d="M-5.05 266.3 L-4.45 215.65 Q1.4 217.4 7.35 218.2 13.3 219.0 18.8 218.15 24.35 217.35 29.05 214.15 33.7 211.0 37.15 204.85 37.65 203.9 38.6 203.55 39.55 203.2 40.5 203.55 41.45 203.85 41.95 204.85 44.55 219.25 47.3 233.2 L45.6 252.5 44.1 266.35 Q20.1 271.0 -5.05 266.3 M49.55 196.3 L49.5 198.05 49.1 205.9 49.15 204.65 49.55 196.3 M57.8 258.35 Q60.15 245.15 62.35 229.75 64.6 213.65 66.1 196.2 L103.7 194.25 102.75 199.0 100.05 211.85 95.9 230.7 90.45 253.35 90.1 254.85 61.05 254.85 Q58.95 255.9 57.8 258.35" fill="#c98f4b" fill-rule="evenodd" stroke="none"/>
    <path d="M-89.2 267.2 L-90.25 200.05 -90.2 199.55 Q-90.05 199.05 -88.9 198.35 -87.7 197.6 -84.6 196.9 L-75.65 195.7 -60.35 195.2 -63.25 261.7 M-58.95 260.7 L-55.5 196.15 -10.15 205.8 -9.4 206.4 -8.0 208.1 Q-7.3 209.15 -7.25 210.6 L-7.35 216.15 -7.65 229.5 -8.05 246.9 -8.1 248.8 -8.1 249.3 -8.15 252.25 -8.4 262.35 -8.4 263.85" fill="none" stroke="#af7c5a" stroke-linecap="round" stroke-linejoin="round" stroke-width="0.9"/>
    <path d="M129.5 348.55 L118.0 347.3 Q110.7 346.75 101.35 347.05 L102.95 348.3 106.9 351.85 Q109.25 354.2 111.85 357.55 114.45 360.95 116.65 365.25 118.8 369.55 119.9 374.75 L88.6 364.25 87.65 366.85 Q86.8 369.4 86.05 373.6 85.3 377.8 85.6 382.85 85.9 387.9 88.15 393.0 90.4 398.1 95.55 402.4 L93.7 402.8 89.2 403.9 83.55 405.35 78.2 406.9 Q75.8 407.7 74.7 408.4 73.9 409.0 72.8 410.3 L69.75 413.35 Q67.75 415.1 64.1 417.0 60.45 418.9 54.5 420.65 48.55 422.4 39.55 423.7 30.55 425.05 17.85 425.6 L-0.1 425.6 0.5 317.9 4.4 317.85 15.15 318.05 31.05 318.95 50.65 320.95 Q61.15 322.3 72.25 324.55 83.4 326.8 94.4 330.2 105.4 333.55 115.45 338.3 125.5 343.0 133.8 349.3 L129.5 348.55" fill="#000000" fill-rule="evenodd" stroke="none"/>
    <path d="M124.9 346.4 L119.2 345.85 111.6 345.35 Q107.5 345.2 103.6 345.35 L96.75 346.15 98.5 347.25 102.85 350.6 Q105.5 352.8 108.4 356.05 111.3 359.35 113.75 363.6 116.25 367.85 117.6 373.05 L84.55 361.3 83.8 370.45 81.4 369.9 75.1 368.4 66.25 366.45 56.2 364.3 46.3 362.4 57.6 374.2 55.45 373.4 49.95 371.35 42.6 368.65 34.8 365.8 28.0 363.35 23.7 361.85 30.65 372.5 -0.65 368.0 -0.35 320.35 3.65 320.1 Q7.6 319.95 14.75 319.95 L31.5 320.65 52.5 322.9 Q63.9 324.5 76.4 327.5 88.9 330.45 101.75 335.15 114.65 339.9 127.15 346.7 L124.9 346.4" fill="#a2ce7a" fill-rule="evenodd" stroke="none"/>
    <path d="M127.15 346.7 L124.9 346.4 119.2 345.85 111.6 345.35 Q107.5 345.2 103.6 345.35 L96.75 346.15 98.5 347.25 102.85 350.6 108.4 356.05 Q111.3 359.3 113.75 363.6 116.25 367.85 117.6 373.0 L116.55 371.2 112.85 365.75 Q110.2 362.15 105.45 356.8 100.65 351.55 97.55 349.15 94.5 346.75 93.0 346.1 L91.55 345.6 Q99.0 343.7 104.85 343.55 L114.1 343.85 117.55 344.45 Q101.0 337.2 85.9 332.95 70.8 328.7 57.65 326.7 44.5 324.7 33.8 324.25 23.15 323.8 15.5 324.25 L3.75 325.3 -0.4 325.95 -0.35 320.35 3.65 320.1 Q7.6 319.9 14.75 319.95 L31.5 320.65 52.5 322.9 Q63.9 324.5 76.4 327.5 88.9 330.45 101.75 335.15 114.6 339.9 127.15 346.7" fill="#b9e882" fill-rule="evenodd" stroke="none"/>
    <path d="M31.55 374.2 L15.75 424.55 -0.05 425.6 -1.5 369.7 31.55 374.2" fill="#9b6a3a" fill-rule="evenodd" stroke="none"/>
    <path d="M31.55 374.2 L15.75 424.55 -0.05 425.6 -1.5 369.7 31.55 374.2" fill="none" stroke="#af7c5a" stroke-linecap="round" stroke-linejoin="round" stroke-width="0.9"/>
    <path d="M31.55 374.2 L15.75 424.55 26.6 376.6 19.25 372.55 31.55 374.2" fill="#b57f4e" fill-rule="evenodd" stroke="none"/>
    <path d="M69.9 411.2 Q68.2 412.75 63.7 415.05 59.25 417.4 51.0 419.7 42.75 422.0 29.8 423.55 L18.5 425.25 34.15 375.3 28.95 366.3 62.85 377.55 52.4 365.2 80.5 370.95 71.55 409.55 69.9 411.2" fill="#c98f4b" fill-rule="evenodd" stroke="none"/>
    <path d="M76.45 373.2 L62.55 369.45 65.45 382.2 39.95 373.2 39.95 378.05 31.1 385.1 34.15 375.3 28.95 366.3 62.85 377.55 52.45 365.2 80.5 370.95 79.05 377.35 76.45 373.2" fill="#9b6a3a" fill-rule="evenodd" stroke="none"/>
    <path d="M84.75 371.4 L84.4 373.65 Q84.1 375.8 84.05 379.3 84.0 382.8 84.75 386.8 85.45 390.8 87.45 394.55 89.45 398.25 93.25 400.9 L91.35 401.4 86.6 402.75 80.55 404.55 74.7 406.5 81.65 372.1 84.75 371.4" fill="#9b6a3a" fill-rule="evenodd" stroke="none"/>
    <path d="M84.75 371.4 L84.4 373.65 Q84.1 375.8 84.05 379.3 84.0 382.8 84.75 386.8 85.45 390.8 87.45 394.55 89.45 398.25 93.25 400.9 L91.35 401.4 86.6 402.75 80.55 404.55 74.7 406.5 81.65 372.1 84.75 371.4" fill="none" stroke="#af7c5a" stroke-linecap="round" stroke-linejoin="round" stroke-width="0.9"/>
    <path d="M82.8 357.9 L83.8 370.4 80.75 369.7 72.8 367.9 61.8 365.35 49.5 362.45 37.65 359.6 80.2 366.9 82.8 357.9" fill="#b9e882" fill-rule="evenodd" stroke="none"/>
    <path d="M21.35 360.0 L57.6 374.2 23.7 361.85 30.65 372.5 -0.65 368.0 25.2 369.7 21.35 360.0" fill="#b9e882" fill-rule="evenodd" stroke="none"/>
    <path d="M71.5 364.7 L32.4 353.45 53.25 371.4 7.2 355.7 19.35 369.15 -0.65 368.05 0.2 335.5 3.35 336.4 11.6 338.85 23.35 342.55 36.9 347.3 Q43.9 349.9 50.55 352.75 57.2 355.65 62.65 358.65 68.1 361.65 71.5 364.7" fill="#80a559" fill-rule="evenodd" stroke="none"/>
  </g>
</svg>
