<?xml version="1.0" encoding="UTF-8" standalone="no"?>
<svg xmlns:xlink="http://www.w3.org/1999/xlink" height="23.05px" width="114.85px" xmlns="http://www.w3.org/2000/svg">
  <g transform="matrix(1, 0, 0, 1, 0.0, 0.5)">
    <path d="M111.85 0.0 Q114.4 0.0 114.85 1.2 L114.5 3.45 113.55 5.0 106.75 17.55 106.6 17.85 106.4 18.15 Q103.05 22.7 97.0 22.05 L25.95 22.05 3.15 22.05 2.9 22.05 Q0.3 22.0 0.05 21.05 L0.0 20.95 Q-0.1 19.95 1.85 18.15 L17.05 3.9 Q21.2 0.0 26.45 0.0 L111.85 0.0 M21.55 5.65 L3.15 22.05 21.55 5.65 Q23.7 3.75 27.1 3.45 23.7 3.75 21.55 5.65 M112.8 3.0 L27.1 3.45 112.8 3.0 M24.5 6.65 L25.95 22.05 24.5 6.65" fill="url(#gradient0)" fill-rule="evenodd" stroke="none"/>
    <path d="M21.55 5.65 Q23.7 3.75 27.1 3.45" fill="none" stroke="#000000" stroke-linecap="round" stroke-linejoin="round" stroke-width="1.0"/>
    <path d="M111.85 0.0 L26.45 0.0 Q21.2 0.0 17.05 3.9 L1.85 18.15 M3.15 22.05 L21.55 5.65 M27.1 3.45 L112.8 3.0 M25.95 22.05 L24.5 6.65" fill="none" stroke="#000000" stroke-linecap="round" stroke-linejoin="round" stroke-width="1.0"/>
  </g>
  <defs>
    <radialGradient cx="0" cy="0" gradientTransform="matrix(0.1609, 0.0, 0.0, 0.1355, 49.75, 70.8)" gradientUnits="userSpaceOnUse" id="gradient0" r="819.2" spreadMethod="pad">
      <stop offset="0.0" stop-color="#000000"/>
      <stop offset="0.8196078431372549" stop-color="#6fc47e"/>
    </radialGradient>
  </defs>
</svg>
