<?xml version="1.0" encoding="UTF-8" standalone="no"?>
<svg xmlns:xlink="http://www.w3.org/1999/xlink" height="76.85px" width="116.2px" xmlns="http://www.w3.org/2000/svg">
  <g transform="matrix(1, 0, 0, 1, 0.5, 0.5)">
    <path d="M113.8 5.0 L114.5 5.1 113.6 10.55 106.5 23.1 Q104.0 26.95 98.05 26.3 L34.85 26.4 34.85 22.05 97.25 22.05 Q103.3 22.7 106.65 18.15 L106.85 17.85 107.0 17.55 113.8 5.0 M0.3 21.05 Q0.55 22.0 3.15 22.05 L34.8 22.05 34.8 26.4 1.75 26.45 0.3 21.05" fill="#996699" fill-rule="evenodd" stroke="none"/>
    <path d="M106.35 53.3 L104.1 70.4 Q104.0 75.25 98.6 75.85 L62.3 73.85 62.3 73.75 34.85 73.2 34.85 69.7 67.2 70.35 67.2 70.6 95.1 72.05 Q100.05 72.4 101.6 69.35 L102.55 61.35 106.65 26.95 Q108.85 15.65 110.65 20.4 L106.35 53.3 M3.55 39.25 L5.15 50.3 3.5 63.9 Q3.3 67.25 6.5 68.25 L34.8 69.7 34.8 73.2 4.0 71.5 Q0.3 70.55 0.0 66.05 L3.55 39.25 M67.2 73.85 L62.3 73.75 67.2 73.85" fill="#9900cc" fill-rule="evenodd" stroke="none"/>
    <path d="M34.85 26.4 L98.05 26.3 Q104.0 26.95 106.5 23.1 L113.6 10.55 111.3 33.65 110.6 42.1 Q110.25 45.4 109.6 47.15 L109.0 48.6 Q108.95 48.3 107.1 51.7 L106.35 53.3 110.65 20.4 Q108.85 15.65 106.65 26.95 L102.55 61.35 101.7 63.1 Q99.1 68.8 93.7 68.9 L65.95 67.8 62.3 67.65 62.3 67.55 34.85 67.15 34.85 26.4 M99.1 62.7 L102.0 30.4 99.1 62.7 M34.8 26.4 L34.8 67.15 15.95 66.35 Q7.85 67.25 6.5 58.6 L3.55 39.2 1.65 26.5 1.75 26.45 34.8 26.4 M62.3 67.55 L65.95 67.8 62.3 67.55" fill="#336699" fill-rule="evenodd" stroke="none"/>
    <path d="M115.1 1.2 Q114.65 0.0 112.1 0.0 M114.75 3.45 Q115.45 2.0 115.1 1.2 M114.75 3.45 L113.8 5.0 107.0 17.55 106.85 17.85 106.65 18.15 Q103.3 22.7 97.25 22.05 L34.85 22.05 M34.85 26.4 L98.05 26.3 Q104.0 26.95 106.5 23.1 L113.6 10.55 M111.3 33.65 L110.6 42.1 Q110.25 45.4 109.6 47.15 L109.0 48.6 Q108.95 48.3 107.1 51.7 L106.35 53.3 104.1 70.4 Q104.0 75.25 98.6 75.85 L62.3 73.85 M62.3 73.75 L34.85 73.2 M34.85 69.7 L67.2 70.35 M67.2 70.6 L95.1 72.05 Q100.05 72.4 101.6 69.35 L102.55 61.35 101.7 63.1 Q99.1 68.8 93.7 68.9 L65.95 67.8 62.3 67.65 M62.3 67.55 L34.85 67.15 M106.35 53.3 L110.65 20.4 Q108.85 15.65 106.65 26.95 L102.55 61.35 M102.0 30.4 L99.1 62.7 M2.1 18.15 Q0.15 19.95 0.25 20.95 M0.3 21.05 Q0.55 22.0 3.15 22.05 L34.8 22.05 M34.8 67.15 L15.95 66.35 Q7.85 67.25 6.5 58.6 L3.55 39.2 3.55 39.25 5.15 50.3 3.5 63.9 Q3.3 67.25 6.5 68.25 L34.8 69.7 M34.8 73.2 L4.0 71.5 Q0.3 70.55 0.0 66.05 L3.55 39.25 M1.65 26.5 L3.55 39.2 M1.65 26.45 L1.65 26.5 M34.8 26.4 L1.75 26.45 M65.95 67.8 L62.3 67.55 M62.3 73.75 L67.2 73.85" fill="none" stroke="#000000" stroke-linecap="round" stroke-linejoin="round" stroke-width="1.0"/>
    <path d="M115.1 1.2 L114.75 3.45 M114.5 5.1 L114.75 3.45 M113.6 10.55 L114.5 5.1 M113.6 10.55 L111.3 33.65 M0.25 20.95 L0.3 21.05 M1.75 26.45 L1.65 26.45 M1.75 26.45 L0.3 21.05" fill="none" stroke="#000000" stroke-linecap="round" stroke-linejoin="round" stroke-width="1.0"/>
    <path d="M1.15 6.2 L0.65 4.8 Q0.3 4.25 0.25 3.7" fill="none" stroke="#cccccc" stroke-linecap="round" stroke-linejoin="round" stroke-width="1.0"/>
    <path d="M1.15 3.4 L0.8 3.4" fill="none" stroke="#cccccc" stroke-linecap="round" stroke-linejoin="round" stroke-width="1.0"/>
  </g>
</svg>
