<?xml version="1.0" encoding="UTF-8" standalone="no"?>
<svg xmlns:xlink="http://www.w3.org/1999/xlink" height="119.85px" width="93.55px" xmlns="http://www.w3.org/2000/svg">
  <g transform="matrix(1, 0, 0, 1, -0.8, 0.95)">
    <path d="M93.25 56.9 Q93.6 58.15 92.5 60.05 89.9 64.15 86.85 66.5 83.75 68.85 80.8 69.9 77.8 70.95 75.5 71.2 L72.2 71.3 Q70.3 71.05 70.1 68.65 69.9 66.15 71.25 61.45 71.9 59.15 72.75 57.9 73.6 56.7 74.4 56.25 75.2 55.75 75.75 55.75 L76.25 55.75 Q78.2 57.05 80.15 57.3 L84.05 56.95 Q85.95 56.45 87.9 55.45 88.3 55.2 88.75 55.1 90.35 54.6 91.6 55.1 92.85 55.6 93.25 56.9" fill="#666666" fill-rule="evenodd" stroke="none"/>
    <path d="M93.25 56.9 Q92.85 55.6 91.6 55.1 90.35 54.6 88.75 55.1 88.3 55.2 87.9 55.45 85.95 56.45 84.05 56.95 L80.15 57.3 Q78.2 57.05 76.25 55.75 L75.75 55.75 Q75.2 55.75 74.4 56.25 73.6 56.7 72.75 57.9 71.9 59.15 71.25 61.45 69.9 66.15 70.1 68.65 70.3 71.05 72.2 71.3 L75.5 71.2 Q77.8 70.95 80.8 69.9 83.75 68.85 86.85 66.5 89.9 64.15 92.5 60.05 93.6 58.15 93.25 56.9" fill="none" stroke="#000000" stroke-linecap="round" stroke-linejoin="round" stroke-width="2.0"/>
    <path d="M75.1 56.65 L76.05 56.45 Q78.2 57.85 80.35 58.05 L84.45 57.6 Q86.4 57.0 88.2 56.05 L88.95 55.8 90.5 55.6 Q91.2 55.65 91.75 56.05 90.5 57.8 88.9 58.5 87.35 59.25 85.65 59.35 L82.0 59.35 Q79.9 59.2 77.95 59.4 75.9 59.55 74.2 60.7 73.25 61.4 72.5 62.9 71.75 64.4 71.5 66.15 L71.45 67.25 Q71.5 69.3 72.7 70.65 L72.45 70.65 72.3 70.65 Q71.55 70.5 71.2 70.05 70.55 69.05 70.85 66.6 71.1 64.6 71.9 61.65 72.65 59.15 73.5 58.05 74.4 56.95 75.1 56.65" fill="#999999" fill-rule="evenodd" stroke="none"/>
    <path d="M15.5 92.5 Q14.05 93.3 12.0 93.15 L7.95 92.4 4.6 91.25 3.2 90.65 Q1.95 89.9 1.85 89.3 1.75 88.7 2.05 88.35 L2.45 88.0 Q4.25 88.75 6.15 88.55 L9.35 87.8 10.7 87.25 15.5 92.5" fill="#333333" fill-rule="evenodd" stroke="none"/>
    <path d="M10.7 87.25 L9.35 87.8 6.15 88.55 Q4.25 88.75 2.45 88.0 L2.05 88.35 Q1.75 88.7 1.85 89.3 1.95 89.9 3.2 90.65 L4.6 91.25 7.95 92.4 12.0 93.15 Q14.05 93.3 15.5 92.5" fill="none" stroke="#000000" stroke-linecap="round" stroke-linejoin="round" stroke-width="2.0"/>
    <path d="M62.35 0.05 Q66.8 0.2 71.15 2.2 75.45 4.25 78.5 7.6 81.45 10.95 82.95 15.15 84.45 19.3 84.3 23.85 84.15 28.3 82.15 32.65 81.25 34.65 80.7 38.3 80.1 41.9 79.9 46.5 L79.5 55.9 79.45 65.05 79.5 72.6 Q79.5 76.6 78.65 80.65 77.8 84.6 76.0 88.5 L73.1 94.2 Q71.55 97.05 69.65 99.55 67.75 102.0 65.45 103.8 62.45 106.75 59.7 108.2 56.9 109.65 54.2 110.2 L48.65 111.15 Q45.4 111.65 42.1 111.15 L35.8 109.7 Q32.85 108.7 30.55 107.7 L26.95 106.2 Q21.25 103.9 17.0 100.0 12.75 96.05 10.05 91.0 7.35 85.95 6.3 80.2 5.2 74.5 5.95 68.65 6.65 62.75 9.25 57.2 10.9 53.55 13.25 50.55 15.55 47.5 18.35 45.05 L22.95 40.25 28.1 33.5 33.25 26.05 37.65 18.9 40.75 13.2 Q42.8 8.85 46.15 5.9 49.5 2.9 53.7 1.4 57.85 -0.15 62.35 0.05" fill="#666666" fill-rule="evenodd" stroke="none"/>
    <path d="M62.35 0.05 Q57.85 -0.15 53.7 1.4 49.5 2.9 46.15 5.9 42.8 8.85 40.75 13.2 L37.65 18.9 33.25 26.05 28.1 33.5 22.95 40.25 18.35 45.05 Q15.55 47.5 13.25 50.55 10.9 53.55 9.25 57.2 6.65 62.75 5.95 68.65 5.2 74.5 6.3 80.2 7.35 85.95 10.05 91.0 12.75 96.05 17.0 100.0 21.25 103.9 26.95 106.2 L30.55 107.7 Q32.85 108.7 35.8 109.7 L42.1 111.15 Q45.4 111.65 48.65 111.15 L54.2 110.2 Q56.9 109.65 59.7 108.2 62.45 106.75 65.45 103.8 67.75 102.0 69.65 99.55 71.55 97.05 73.1 94.2 L76.0 88.5 Q77.8 84.6 78.65 80.65 79.5 76.6 79.5 72.6 L79.45 65.05 79.5 55.9 79.9 46.5 Q80.1 41.9 80.7 38.3 81.25 34.65 82.15 32.65 84.15 28.3 84.3 23.85 84.45 19.3 82.95 15.15 81.45 10.95 78.5 7.6 75.45 4.25 71.15 2.2 66.8 0.2 62.35 0.05" fill="none" stroke="#000000" stroke-linecap="round" stroke-linejoin="round" stroke-width="2.0"/>
    <path d="M60.7 0.8 Q56.85 2.4 53.85 5.35 50.85 8.25 49.0 12.1 L47.85 14.65 44.95 20.85 41.9 26.45 40.05 29.25 Q38.65 31.25 37.5 33.2 36.35 35.1 35.6 37.1 35.3 37.85 35.15 38.7 34.1 37.5 32.95 37.55 32.05 37.6 31.3 38.2 30.55 38.75 29.9 39.65 L28.6 41.4 28.05 42.25 24.75 46.45 21.6 50.5 Q20.1 52.6 18.9 55.05 15.8 61.8 15.5 68.8 15.15 75.85 17.4 82.35 19.6 88.8 24.05 94.0 28.5 99.2 35.0 102.3 39.85 104.65 45.15 105.9 50.5 107.15 55.7 106.8 60.9 106.4 65.35 103.8 62.15 106.2 58.7 107.55 55.15 108.9 52.15 109.65 L47.2 111.05 43.1 110.5 39.2 109.85 35.45 109.6 35.1 108.6 35.0 108.2 34.6 108.1 Q30.75 107.2 27.2 105.55 21.8 102.95 17.65 99.05 13.5 95.1 10.85 90.15 8.2 85.2 7.15 79.75 6.05 74.25 6.65 68.55 7.3 62.9 9.85 57.45 13.1 50.55 18.8 45.6 L23.35 40.75 28.6 34.05 33.75 26.5 38.25 19.3 41.35 13.5 Q43.15 9.6 46.1 6.85 49.05 4.05 52.8 2.55 56.5 0.95 60.7 0.8" fill="#333333" fill-rule="evenodd" stroke="none"/>
    <path d="M82.7 19.0 Q83.05 23.5 81.6 27.95 80.95 29.9 80.75 34.0 80.0 36.15 79.55 39.55 79.05 42.95 78.85 47.1 78.6 51.15 78.5 55.5 L78.5 63.8 78.5 71.0 78.5 72.1 Q78.55 78.4 76.45 84.35 L75.15 87.5 72.7 91.8 Q68.55 96.4 63.6 99.05 58.6 101.65 53.25 102.25 47.9 102.8 42.7 101.15 37.65 99.45 33.7 96.0 29.75 92.55 27.2 87.55 25.15 83.55 24.3 79.1 23.4 74.6 23.7 69.9 24.0 65.2 25.5 60.65 L25.9 59.5 Q28.05 53.5 31.9 48.7 L35.05 44.1 38.5 37.9 42.0 30.95 45.05 24.15 47.3 18.4 47.85 17.0 48.05 16.3 Q49.05 13.45 50.65 10.95 52.3 8.45 54.65 6.85 57.0 5.3 60.15 5.25 L62.3 5.4 64.7 5.8 Q66.35 6.15 68.0 7.1 69.6 8.0 70.8 9.3 71.95 10.65 72.25 12.25 72.2 11.45 73.3 10.8 74.4 10.1 76.05 10.1 77.7 10.05 79.2 11.1 80.15 11.95 80.85 13.35 L82.0 16.25 82.7 19.0" fill="#cccccc" fill-rule="evenodd" stroke="none"/>
    <path d="M79.2 11.1 Q80.2 11.9 80.9 13.35 L82.0 16.25 82.7 19.0 Q83.05 23.5 81.65 27.95 81.0 29.9 80.8 34.0 80.05 36.15 79.6 39.6 79.1 42.95 78.9 47.05 L78.6 55.45 78.5 63.8 78.55 71.0 78.55 72.1 Q78.6 78.4 76.5 84.3 L75.2 87.5 72.75 91.8 Q68.1 96.95 62.35 99.65 56.65 102.3 50.6 102.35 56.4 101.75 61.8 98.65 67.1 95.55 71.35 90.25 72.65 88.0 73.6 85.6 L74.8 82.3 Q76.65 76.1 76.3 69.6 L76.25 68.45 75.9 61.05 75.6 52.55 75.55 43.9 Q75.6 39.65 75.9 36.1 76.2 32.6 76.9 30.35 76.9 26.15 77.5 24.05 78.7 19.4 78.15 14.8 L77.55 12.55 76.6 10.1 Q78.0 10.2 79.2 11.1" fill="#e5e5e5" fill-rule="evenodd" stroke="none"/>
    <path d="M53.55 7.65 Q55.4 6.05 57.9 5.45 55.5 7.0 53.85 9.55 52.15 12.05 51.2 14.95 L50.95 15.65 50.45 17.1 48.15 22.8 45.1 29.6 41.65 36.55 38.15 42.75 Q36.5 45.55 35.05 47.35 31.15 52.2 29.0 58.15 L28.6 59.3 Q27.15 63.9 26.85 68.55 26.55 73.25 27.4 77.75 28.3 82.2 30.35 86.25 32.85 91.2 36.85 94.7 40.75 98.15 45.8 99.8 49.9 101.1 54.2 101.05 58.4 100.95 62.55 99.5 57.75 101.8 52.7 102.25 47.6 102.65 42.7 101.1 37.65 99.4 33.7 95.95 29.75 92.5 27.2 87.55 25.15 83.5 24.3 79.05 23.4 74.55 23.7 69.85 24.0 65.2 25.5 60.6 L25.9 59.45 Q28.05 53.5 31.9 48.65 L35.05 44.05 38.5 37.85 42.0 30.9 45.05 24.1 47.3 18.4 47.85 16.95 48.05 16.25 Q48.9 13.75 50.3 11.5 51.65 9.25 53.55 7.65" fill="#b4b4b4" fill-rule="evenodd" stroke="none"/>
    <path d="M51.65 36.6 L51.3 35.2 69.65 40.65 69.0 41.7 67.3 44.1 64.85 46.9 Q63.5 48.25 62.0 49.05 60.45 49.8 59.0 49.55 57.55 49.15 56.3 47.65 55.1 46.1 54.2 44.05 L52.6 39.95 51.65 36.6" fill="#b4b4b4" fill-rule="evenodd" stroke="none"/>
    <path d="M42.0 103.65 L42.35 105.0 42.9 108.4 42.85 113.0 Q42.55 115.45 41.35 117.75 L40.9 117.85 39.95 117.8 39.1 117.15 37.9 115.25 35.75 112.05 33.2 109.05 Q31.85 107.75 30.75 107.6 L42.0 103.65" fill="#333333" fill-rule="evenodd" stroke="none"/>
    <path d="M42.0 103.65 L42.35 105.0 42.9 108.4 42.85 113.0 Q42.55 115.45 41.35 117.75 L40.9 117.85 39.95 117.8 39.1 117.15 37.9 115.25 35.75 112.05 33.2 109.05 Q31.85 107.75 30.75 107.6" fill="none" stroke="#000000" stroke-linecap="round" stroke-linejoin="round" stroke-width="2.0"/>
    <path d="M65.1 102.8 L65.55 104.05 66.35 107.2 Q66.75 109.15 66.8 111.4 66.8 113.65 66.1 115.8 66.05 115.8 65.75 115.95 L64.95 116.1 64.1 115.7 62.9 114.35 60.75 112.1 58.2 110.05 Q56.95 109.25 56.0 109.3 L65.1 102.8" fill="#333333" fill-rule="evenodd" stroke="none"/>
    <path d="M65.1 102.8 L65.55 104.05 66.35 107.2 Q66.75 109.15 66.8 111.4 66.8 113.65 66.1 115.8 66.05 115.8 65.75 115.95 L64.95 116.1 64.1 115.7 62.9 114.35 60.75 112.1 58.2 110.05 Q56.95 109.25 56.0 109.3" fill="none" stroke="#000000" stroke-linecap="round" stroke-linejoin="round" stroke-width="2.0"/>
    <path d="M68.55 41.3 L66.7 43.35 63.9 45.1 60.5 45.3 Q59.1 44.85 57.75 43.6 L55.25 40.75 53.2 37.65 51.8 35.1 51.3 34.1 69.25 40.3 68.55 41.3" fill="#d8a235" fill-rule="evenodd" stroke="none"/>
    <path d="M68.55 41.3 L69.25 40.3 51.3 34.1 51.8 35.1 53.2 37.65 55.25 40.75 57.75 43.6 Q59.1 44.85 60.5 45.3 L63.9 45.1 66.7 43.35 68.55 41.3" fill="none" stroke="#000000" stroke-linecap="round" stroke-linejoin="round" stroke-width="1.0"/>
    <path d="M66.4 40.05 L66.05 40.7 65.0 42.05 63.3 43.15 Q62.25 43.55 60.95 43.15 59.7 42.7 58.65 41.6 L56.85 39.25 55.65 37.15 55.25 36.2 66.4 40.05" fill="#c12d05" fill-rule="evenodd" stroke="none"/>
    <path d="M66.4 40.05 L55.25 36.2 55.65 37.15 56.85 39.25 58.65 41.6 Q59.7 42.7 60.95 43.15 62.25 43.55 63.3 43.15 L65.0 42.05 66.05 40.7 66.4 40.05" fill="none" stroke="#000000" stroke-linecap="round" stroke-linejoin="round" stroke-width="1.0"/>
    <path d="M58.95 37.85 Q59.15 39.65 60.45 40.95 61.75 42.15 63.55 42.65 L62.4 43.0 61.05 42.8 Q59.8 42.4 58.8 41.25 L56.95 38.85 55.85 36.8 57.0 37.2 58.95 37.85" fill="#9b0d0d" fill-rule="evenodd" stroke="none"/>
    <path d="M68.95 31.3 Q69.2 32.55 70.25 33.9 L72.7 36.55 74.95 38.6 75.95 39.4 76.1 40.05 76.1 41.3 Q75.95 42.0 75.4 42.4 L74.2 42.55 73.05 42.15 72.55 41.85 Q71.2 43.15 70.15 43.35 L68.05 43.1 Q67.05 42.6 66.05 41.8 L63.8 40.3 61.35 39.25 58.8 38.3 56.95 37.6 54.35 36.6 Q52.95 36.0 51.95 35.3 50.95 34.55 50.85 33.75 L50.75 32.55 51.45 32.45 53.95 32.9 57.3 33.5 60.65 33.55 62.95 33.1 Q64.05 32.8 65.05 32.1 L65.9 31.45 Q66.45 31.0 67.1 30.65 L68.25 30.4 Q68.75 30.45 68.95 31.3" fill="#f9c248" fill-rule="evenodd" stroke="none"/>
    <path d="M68.95 31.3 Q69.2 32.55 70.25 33.9 L72.7 36.55 74.95 38.6 75.95 39.4 76.1 40.05 76.1 41.3 Q75.95 42.0 75.4 42.4 L74.2 42.55 73.05 42.15 72.55 41.85 Q71.2 43.15 70.15 43.35 L68.05 43.1 Q67.05 42.6 66.05 41.8 L63.8 40.3 61.35 39.25 58.8 38.3 56.95 37.6 54.35 36.6 Q52.95 36.0 51.95 35.3 50.95 34.55 50.85 33.75 L50.75 32.55 51.45 32.45 53.95 32.9 57.3 33.5 60.65 33.55 62.95 33.1 Q64.05 32.8 65.05 32.1 L65.9 31.45 Q66.45 31.0 67.1 30.65 L68.25 30.4 Q68.75 30.45 68.95 31.3" fill="none" stroke="#000000" stroke-linecap="round" stroke-linejoin="round" stroke-width="1.0"/>
    <path d="M65.15 36.05 L65.2 34.95 65.65 35.25 66.3 35.9 Q66.5 36.2 66.0 36.2 L65.15 36.05" fill="#d8a235" fill-rule="evenodd" stroke="none"/>
    <path d="M72.6 40.45 Q73.1 40.5 73.55 40.85 74.0 41.25 74.5 41.2 74.95 41.15 75.15 40.85 75.4 40.6 75.8 40.6 L75.65 41.45 75.2 42.15 74.25 42.2 73.2 41.85 72.4 41.45 72.2 41.25 72.1 41.8 Q70.85 43.0 69.8 43.1 68.8 43.2 67.85 42.65 L65.85 41.3 63.75 39.85 Q62.2 39.05 60.5 38.5 L57.75 37.5 55.25 36.55 52.5 35.25 Q51.3 34.45 51.15 33.7 L51.1 33.15 51.05 32.8 51.1 32.65 52.2 33.9 53.5 34.7 54.25 35.05 58.45 36.7 Q60.75 37.55 63.45 38.0 L64.7 38.2 65.95 38.55 Q66.65 38.9 67.1 39.55 L68.05 40.7 Q68.7 41.15 69.45 41.2 L71.05 41.05 71.8 40.7 Q72.2 40.45 72.6 40.45" fill="#d8a235" fill-rule="evenodd" stroke="none"/>
    <path d="M74.1 38.95 L72.1 37.45 Q70.85 36.35 69.1 34.05 L68.85 33.6 68.25 32.65 67.65 32.1 66.8 32.3 Q66.25 32.55 65.4 32.3 L65.95 31.8 67.1 30.95 Q67.7 30.6 68.05 30.75 L68.4 31.05 Q68.7 31.3 68.65 31.85 L69.3 33.1 71.5 36.05 Q73.05 37.75 75.55 39.3 L75.2 39.35 74.1 38.95" fill="#ffe4b3" fill-rule="evenodd" stroke="none"/>
  </g>
</svg>
