<?xml version="1.0" encoding="UTF-8" standalone="no"?>
<svg xmlns:xlink="http://www.w3.org/1999/xlink" height="25.05px" width="32.05px" xmlns="http://www.w3.org/2000/svg">
  <g transform="matrix(1, 0, 0, 1, 16.0, 12.55)">
    <path d="M-0.2 -5.3 Q0.25 -2.8 -0.45 0.0 -1.35 3.3 -3.3 5.45 L-9.6 4.55 -14.45 4.5 Q-15.3 2.8 -15.45 0.7 -15.65 -1.4 -15.05 -3.7 -14.35 -6.5 -12.75 -8.5 -11.2 -10.5 -9.2 -11.45 -7.25 -12.35 -5.2 -11.85 -3.15 -11.3 -1.85 -9.55 -0.6 -7.8 -0.2 -5.3" fill="#ffffff" fill-rule="evenodd" stroke="none"/>
    <path d="M-0.2 -5.3 Q-0.6 -7.8 -1.85 -9.55 -3.15 -11.3 -5.2 -11.85 -7.25 -12.35 -9.2 -11.45 -11.2 -10.5 -12.75 -8.5 -14.35 -6.5 -15.05 -3.7 -15.65 -1.4 -15.45 0.7 -15.3 2.8 -14.45 4.5 L-9.6 4.55 -3.3 5.45 Q-1.35 3.3 -0.45 0.0 0.25 -2.8 -0.2 -5.3" fill="none" stroke="#000000" stroke-linecap="round" stroke-linejoin="round" stroke-width="1.0"/>
    <path d="M-12.4 -4.25 Q-13.05 -1.8 -12.7 0.4 -12.4 2.55 -11.3 4.1 L-14.15 4.15 Q-14.95 2.55 -15.1 0.5 -15.25 -1.55 -14.7 -3.75 -14.0 -6.35 -12.65 -8.2 -11.3 -10.1 -9.55 -11.0 -7.8 -11.9 -5.95 -11.6 -8.1 -11.2 -9.85 -9.2 -11.6 -7.25 -12.4 -4.25" fill="#e5e2be" fill-rule="evenodd" stroke="none"/>
    <path d="M15.0 4.9 Q14.35 7.35 13.2 9.2 12.1 11.05 10.7 12.0 7.65 9.55 4.35 8.05 3.95 5.45 4.75 2.3 5.4 -0.25 6.6 -2.15 7.8 -4.05 9.3 -4.95 10.75 -5.9 12.2 -5.55 13.65 -5.15 14.45 -3.65 15.3 -2.1 15.5 0.1 15.6 2.35 15.0 4.9" fill="#ffffff" fill-rule="evenodd" stroke="none"/>
    <path d="M15.0 4.9 Q15.6 2.35 15.5 0.1 15.3 -2.1 14.45 -3.65 13.65 -5.15 12.2 -5.55 10.75 -5.9 9.3 -4.95 7.8 -4.05 6.6 -2.15 5.4 -0.25 4.75 2.3 3.95 5.45 4.35 8.05 7.65 9.55 10.7 12.0 12.1 11.05 13.2 9.2 14.35 7.35 15.0 4.9" fill="none" stroke="#000000" stroke-linecap="round" stroke-linejoin="round" stroke-width="1.0"/>
    <path d="M5.1 2.3 L5.55 0.8 Q6.45 -1.65 7.8 -3.2 9.15 -4.8 10.65 -5.2 9.0 -3.55 7.95 -0.7 L7.5 0.75 Q6.9 3.2 7.05 5.35 7.2 7.55 8.1 9.1 8.9 10.4 10.1 10.7 10.85 10.9 11.6 10.7 L10.45 11.6 Q7.75 9.45 4.8 8.05 4.6 6.75 4.65 5.3 4.7 3.85 5.1 2.3" fill="#e5e2be" fill-rule="evenodd" stroke="none"/>
    <path d="M-1.3 2.85 Q-2.0 4.3 -3.15 4.9 L-5.4 5.1 Q-6.45 4.55 -6.7 3.25 -6.95 1.95 -6.3 0.5 -5.6 -0.95 -4.45 -1.6 L-2.2 -1.8 Q-1.15 -1.2 -0.85 0.1 -0.6 1.35 -1.3 2.85" fill="#000000" fill-rule="evenodd" stroke="none"/>
    <path d="M-2.45 3.75 Q-2.75 4.35 -3.2 4.6 L-4.1 4.7 -4.6 3.95 Q-4.7 3.4 -4.45 2.8 L-3.7 2.0 -2.8 1.95 Q-2.4 2.15 -2.3 2.7 -2.2 3.2 -2.45 3.75" fill="#ffffff" fill-rule="evenodd" stroke="none"/>
    <path d="M13.05 9.55 L11.55 11.3 Q10.65 11.85 9.85 11.5 9.05 11.1 8.9 10.05 8.75 9.0 9.3 7.75 9.9 6.55 10.8 6.0 L12.5 5.8 Q13.25 6.2 13.45 7.25 13.6 8.3 13.05 9.55" fill="#000000" fill-rule="evenodd" stroke="none"/>
    <path d="M11.9 10.3 L11.35 10.95 10.65 11.0 10.2 10.4 Q10.15 10.0 10.35 9.55 L10.95 8.9 11.65 8.85 12.05 9.45 11.9 10.3" fill="#ffffff" fill-rule="evenodd" stroke="none"/>
    <path d="M-1.85 -9.45 Q-3.2 -7.5 -5.2 -6.05 -7.2 -4.6 -9.65 -3.7 -12.5 -2.8 -15.25 -2.75 L-15.05 -3.7 Q-14.35 -6.5 -12.8 -8.5 -11.25 -10.5 -9.25 -11.4 -7.25 -12.35 -5.2 -11.85 -3.15 -11.3 -1.85 -9.45" fill="#666666" fill-rule="evenodd" stroke="none"/>
    <path d="M-1.85 -9.45 Q-3.15 -11.3 -5.2 -11.85 -7.25 -12.35 -9.25 -11.4 -11.25 -10.5 -12.8 -8.5 -14.35 -6.5 -15.05 -3.7 L-15.25 -2.75 Q-12.5 -2.8 -9.65 -3.7 -7.2 -4.6 -5.2 -6.05 -3.2 -7.5 -1.85 -9.45" fill="none" stroke="#000000" stroke-linecap="round" stroke-linejoin="round" stroke-width="1.0"/>
    <path d="M-5.15 -11.45 Q-7.65 -10.25 -9.3 -8.2 -10.95 -6.15 -11.9 -3.5 L-14.85 -3.1 -14.75 -3.6 Q-14.15 -5.95 -12.85 -7.8 -11.55 -9.7 -9.85 -10.7 -7.55 -12.05 -5.3 -11.5 L-5.15 -11.45" fill="#333333" fill-rule="evenodd" stroke="none"/>
    <path d="M12.25 -5.55 Q13.65 -5.15 14.5 -3.6 15.35 -2.1 15.5 0.15 15.65 2.35 15.05 4.95 L15.0 5.05 14.25 4.55 Q11.65 2.95 10.5 0.4 9.35 -2.2 9.9 -5.25 L12.25 -5.55" fill="#666666" fill-rule="evenodd" stroke="none"/>
    <path d="M12.25 -5.55 L9.9 -5.25 Q9.35 -2.2 10.5 0.4 11.65 2.95 14.25 4.55 L15.0 5.05 15.05 4.95 Q15.65 2.35 15.5 0.15 15.35 -2.1 14.5 -3.6 13.65 -5.15 12.25 -5.55" fill="none" stroke="#000000" stroke-linecap="round" stroke-linejoin="round" stroke-width="1.0"/>
    <path d="M14.05 -3.6 L12.05 -3.8 Q11.0 -3.75 10.0 -3.1 L10.0 -3.35 10.15 -5.0 12.1 -5.2 Q13.3 -4.9 14.05 -3.6" fill="#333333" fill-rule="evenodd" stroke="none"/>
  </g>
</svg>
