<?xml version="1.0" encoding="UTF-8" standalone="no"?>
<svg xmlns:xlink="http://www.w3.org/1999/xlink" height="23.55px" width="31.9px" xmlns="http://www.w3.org/2000/svg">
  <g transform="matrix(1, 0, 0, 1, 16.3, 11.2)">
    <path d="M-6.1 -10.5 Q-4.05 -10.0 -2.65 -8.4 -1.3 -6.8 -0.75 -4.5 -0.2 -2.15 -0.75 0.45 -1.5 3.45 -3.3 5.45 L-9.65 4.65 Q-12.6 4.45 -14.55 4.55 -15.45 2.95 -15.7 1.05 -16.0 -0.9 -15.55 -3.0 -15.0 -5.6 -13.5 -7.45 -12.05 -9.3 -10.1 -10.15 -8.2 -11.0 -6.1 -10.5" fill="#666666" fill-rule="evenodd" stroke="none"/>
    <path d="M-6.1 -10.5 Q-8.2 -11.0 -10.1 -10.15 -12.05 -9.3 -13.5 -7.45 -15.0 -5.6 -15.55 -3.0 -16.0 -0.9 -15.7 1.05 -15.45 2.95 -14.55 4.55 -12.6 4.45 -9.65 4.65 L-3.3 5.45 Q-1.5 3.45 -0.75 0.45 -0.2 -2.15 -0.75 -4.5 -1.3 -6.8 -2.65 -8.4 -4.05 -10.0 -6.1 -10.5" fill="none" stroke="#000000" stroke-linecap="round" stroke-linejoin="round" stroke-width="1.0"/>
    <path d="M-15.2 -3.05 Q-14.65 -5.45 -13.35 -7.15 -12.1 -8.9 -10.4 -9.75 -8.7 -10.6 -6.85 -10.3 -9.0 -9.9 -10.6 -8.1 -12.25 -6.3 -12.9 -3.5 -13.45 -1.25 -13.0 0.8 -12.55 2.8 -11.4 4.2 L-14.2 4.25 Q-15.1 2.75 -15.35 0.85 -15.65 -1.05 -15.2 -3.05" fill="#333333" fill-rule="evenodd" stroke="none"/>
    <path d="M11.95 -4.2 Q13.3 -3.9 14.1 -2.45 14.9 -1.1 15.05 1.0 15.2 3.0 14.6 5.35 14.0 7.6 12.9 9.3 11.85 10.95 10.55 11.85 7.65 9.6 4.55 8.25 4.15 5.85 4.9 2.95 5.55 0.6 6.65 -1.1 7.8 -2.85 9.2 -3.65 10.6 -4.55 11.95 -4.2" fill="#666666" fill-rule="evenodd" stroke="none"/>
    <path d="M11.95 -4.2 Q10.6 -4.55 9.2 -3.65 7.8 -2.85 6.65 -1.1 5.55 0.6 4.9 2.95 4.15 5.85 4.55 8.25 7.65 9.6 10.55 11.85 11.85 10.95 12.9 9.3 14.0 7.6 14.6 5.35 15.2 3.0 15.05 1.0 14.9 -1.1 14.1 -2.45 13.3 -3.9 11.95 -4.2" fill="none" stroke="#000000" stroke-linecap="round" stroke-linejoin="round" stroke-width="1.0"/>
    <path d="M7.8 -2.05 Q9.05 -3.5 10.45 -3.9 8.95 -2.4 7.95 0.2 7.7 0.8 7.55 1.55 6.95 3.8 7.1 5.8 7.25 7.8 8.05 9.15 8.8 10.4 9.95 10.7 L11.35 10.65 10.3 11.5 Q7.7 9.55 4.95 8.25 4.75 7.05 4.8 5.7 4.85 4.35 5.25 2.95 L5.65 1.55 Q6.5 -0.65 7.8 -2.05" fill="#333333" fill-rule="evenodd" stroke="none"/>
  </g>
</svg>
