<?xml version="1.0" encoding="UTF-8" standalone="no"?>
<svg xmlns:xlink="http://www.w3.org/1999/xlink" height="26.3px" width="32.5px" xmlns="http://www.w3.org/2000/svg">
  <g transform="matrix(1, 0, 0, 1, 16.0, 13.6)">
    <path d="M-0.2 -5.95 Q0.25 -3.3 -0.45 -0.3 -1.35 3.2 -3.3 5.45 L-9.6 4.5 -14.45 4.45 Q-15.3 2.6 -15.45 0.4 -15.65 -1.85 -15.05 -4.25 -14.35 -7.25 -12.75 -9.35 -11.2 -11.5 -9.2 -12.5 -7.25 -13.45 -5.2 -12.95 -3.15 -12.35 -1.85 -10.45 -0.6 -8.6 -0.2 -5.95" fill="#ffffff" fill-rule="evenodd" stroke="none"/>
    <path d="M-0.2 -5.95 Q-0.6 -8.6 -1.85 -10.45 -3.15 -12.35 -5.2 -12.95 -7.25 -13.45 -9.2 -12.5 -11.2 -11.5 -12.75 -9.35 -14.35 -7.25 -15.05 -4.25 -15.65 -1.85 -15.45 0.4 -15.3 2.6 -14.45 4.45 L-9.6 4.5 -3.3 5.45 Q-1.35 3.2 -0.45 -0.3 0.25 -3.3 -0.2 -5.95" fill="none" stroke="#000000" stroke-linecap="round" stroke-linejoin="round" stroke-width="1.0"/>
    <path d="M-12.4 -4.9 Q-13.05 -2.3 -12.7 0.05 -12.4 2.35 -11.3 4.0 L-14.15 4.05 Q-14.95 2.35 -15.1 0.15 -15.25 -2.0 -14.7 -4.35 -14.0 -7.1 -12.65 -9.1 -11.3 -11.1 -9.55 -12.05 -7.8 -13.05 -5.95 -12.7 -8.1 -12.25 -9.85 -10.15 -11.6 -8.1 -12.4 -4.9" fill="#e5e2be" fill-rule="evenodd" stroke="none"/>
    <path d="M-1.3 2.7 Q-2.0 4.2 -3.15 4.9 -4.3 5.6 -5.4 5.1 -6.45 4.5 -6.7 3.15 -6.95 1.75 -6.3 0.2 -5.6 -1.35 -4.45 -2.05 L-2.2 -2.2 Q-1.15 -1.6 -0.85 -0.25 -0.6 1.15 -1.3 2.7" fill="#000000" fill-rule="evenodd" stroke="none"/>
    <path d="M-2.45 3.65 Q-2.75 4.25 -3.2 4.55 L-4.1 4.6 Q-4.5 4.4 -4.6 3.8 -4.7 3.25 -4.45 2.65 L-3.7 1.75 -2.8 1.7 Q-2.4 1.9 -2.3 2.5 -2.2 3.05 -2.45 3.65" fill="#ffffff" fill-rule="evenodd" stroke="none"/>
    <path d="M-1.85 -10.4 Q-3.2 -8.3 -5.2 -6.75 -7.2 -5.2 -9.65 -4.25 -12.5 -3.3 -15.25 -3.25 L-15.05 -4.25 Q-14.35 -7.25 -12.8 -9.35 -11.25 -11.5 -9.25 -12.45 -7.25 -13.45 -5.2 -12.9 -3.15 -12.35 -1.85 -10.4" fill="#666666" fill-rule="evenodd" stroke="none"/>
    <path d="M-1.85 -10.4 Q-3.15 -12.35 -5.2 -12.9 -7.25 -13.45 -9.25 -12.45 -11.25 -11.5 -12.8 -9.35 -14.35 -7.25 -15.05 -4.25 L-15.25 -3.25 Q-12.5 -3.3 -9.65 -4.25 -7.2 -5.2 -5.2 -6.75 -3.2 -8.3 -1.85 -10.4" fill="none" stroke="#000000" stroke-linecap="round" stroke-linejoin="round" stroke-width="1.0"/>
    <path d="M-5.15 -12.55 Q-7.65 -11.3 -9.3 -9.1 -10.95 -6.9 -11.9 -4.1 L-14.85 -3.7 -14.75 -4.2 Q-14.15 -6.7 -12.85 -8.65 -11.55 -10.7 -9.85 -11.75 -7.55 -13.2 -5.3 -12.6 L-5.15 -12.55" fill="#333333" fill-rule="evenodd" stroke="none"/>
    <path d="M15.45 4.55 Q14.75 7.2 13.55 9.2 12.35 11.15 10.9 12.2 7.7 9.55 4.25 7.95 3.8 5.15 4.65 1.75 5.35 -1.0 6.6 -3.05 7.9 -5.05 9.4 -6.05 10.95 -7.05 12.5 -6.65 14.0 -6.25 14.85 -4.6 15.75 -3.0 15.95 -0.6 16.1 1.8 15.45 4.55" fill="#ffffff" fill-rule="evenodd" stroke="none"/>
    <path d="M15.45 4.55 Q16.1 1.8 15.95 -0.6 15.75 -3.0 14.85 -4.6 14.0 -6.25 12.5 -6.65 10.95 -7.05 9.4 -6.05 7.9 -5.05 6.6 -3.05 5.35 -1.0 4.65 1.75 3.8 5.15 4.25 7.95 7.7 9.55 10.9 12.2 12.35 11.15 13.55 9.2 14.75 7.2 15.45 4.55" fill="none" stroke="#000000" stroke-linecap="round" stroke-linejoin="round" stroke-width="1.0"/>
    <path d="M5.05 1.75 L5.5 0.1 Q6.45 -2.45 7.85 -4.15 9.3 -5.85 10.85 -6.3 9.15 -4.55 8.05 -1.5 L7.55 0.1 Q6.95 2.7 7.1 5.05 7.25 7.4 8.15 9.0 9.0 10.45 10.3 10.8 L11.85 10.75 10.65 11.75 Q7.8 9.45 4.7 7.95 4.5 6.55 4.55 4.95 4.6 3.4 5.05 1.75" fill="#e5e2be" fill-rule="evenodd" stroke="none"/>
    <path d="M13.35 9.5 Q12.7 10.8 11.8 11.4 10.85 12.0 10.0 11.6 9.15 11.15 9.0 10.05 8.85 8.9 9.4 7.6 10.05 6.35 11.0 5.75 11.95 5.1 12.8 5.5 13.6 5.95 13.8 7.1 13.95 8.2 13.35 9.5" fill="#000000" fill-rule="evenodd" stroke="none"/>
    <path d="M12.2 10.4 L11.6 11.05 10.85 11.15 10.4 10.5 Q10.35 10.05 10.55 9.55 10.75 9.05 11.2 8.85 L11.9 8.8 Q12.3 9.0 12.35 9.45 L12.2 10.4" fill="#ffffff" fill-rule="evenodd" stroke="none"/>
    <path d="M15.4 4.65 L15.5 4.55 15.45 4.7 15.4 4.65" fill="#1979af" fill-rule="evenodd" stroke="none"/>
    <path d="M15.4 4.65 L14.65 4.15 Q11.9 2.45 10.7 -0.3 9.5 -3.1 10.1 -6.35 11.3 -7.0 12.55 -6.65 14.0 -6.25 14.95 -4.6 15.8 -3.0 15.95 -0.6 16.15 1.8 15.5 4.55 L15.4 4.65" fill="#666666" fill-rule="evenodd" stroke="none"/>
    <path d="M15.5 4.55 Q16.15 1.8 15.95 -0.6 15.8 -3.0 14.95 -4.6 14.0 -6.25 12.55 -6.65 11.3 -7.0 10.1 -6.35 9.5 -3.1 10.7 -0.3 11.9 2.45 14.65 4.15 L15.4 4.65 M15.5 4.55 L15.45 4.7 15.4 4.65" fill="none" stroke="#000000" stroke-linecap="round" stroke-linejoin="round" stroke-width="1.0"/>
    <path d="M14.45 -4.6 L12.3 -4.8 Q11.2 -4.75 10.15 -4.05 L10.15 -4.3 10.3 -6.05 12.35 -6.3 Q13.6 -5.95 14.45 -4.6" fill="#333333" fill-rule="evenodd" stroke="none"/>
  </g>
</svg>
