<?xml version="1.0" encoding="UTF-8" standalone="no"?>
<svg xmlns:xlink="http://www.w3.org/1999/xlink" height="214.9px" width="219.2px" xmlns="http://www.w3.org/2000/svg">
  <g transform="matrix(1, 0, 0, 1, 109.0, 107.45)">
    <path d="M41.15 -101.0 L41.2 -100.7 Q41.2 -100.0 40.75 -99.55 40.25 -99.05 39.55 -99.0 38.85 -99.0 38.35 -99.45 37.85 -99.95 37.8 -100.7 L37.85 -100.95 38.7 -100.95 38.7 -100.7 Q38.7 -100.35 38.95 -100.1 39.2 -99.9 39.55 -99.9 39.9 -99.9 40.1 -100.15 L40.35 -100.7 40.3 -100.95 41.15 -101.0" fill="#c1c1c6" fill-rule="evenodd" stroke="none"/>
    <path d="M41.15 -101.0 L40.3 -100.95 40.35 -100.7 40.1 -100.15 Q39.9 -99.9 39.55 -99.9 39.2 -99.9 38.95 -100.1 38.7 -100.35 38.7 -100.7 L38.7 -100.95 37.85 -100.95 37.8 -100.7 Q37.85 -99.95 38.35 -99.45 38.85 -99.0 39.55 -99.0 40.25 -99.05 40.75 -99.55 41.2 -100.0 41.2 -100.7 L41.15 -101.0" fill="none" stroke="#000000" stroke-linecap="round" stroke-linejoin="round" stroke-width="1.0"/>
    <path d="M-0.95 -101.95 L-0.9 -101.65 Q-0.9 -100.95 -1.35 -100.5 -1.85 -100.0 -2.55 -99.95 -3.25 -99.95 -3.75 -100.45 -4.25 -100.9 -4.3 -101.65 L-4.25 -101.9 -3.4 -101.9 -3.4 -101.65 -3.15 -101.05 -2.55 -100.85 Q-2.2 -100.85 -2.0 -101.1 -1.75 -101.3 -1.75 -101.65 L-1.8 -101.9 -0.95 -101.95" fill="#c1c1c6" fill-rule="evenodd" stroke="none"/>
    <path d="M-0.95 -101.95 L-1.8 -101.9 -1.75 -101.65 Q-1.75 -101.3 -2.0 -101.1 -2.2 -100.85 -2.55 -100.85 L-3.15 -101.05 -3.4 -101.65 -3.4 -101.9 -4.25 -101.9 -4.3 -101.65 Q-4.25 -100.9 -3.75 -100.45 -3.25 -99.95 -2.55 -99.95 -1.85 -100.0 -1.35 -100.5 -0.9 -100.95 -0.9 -101.65 L-0.95 -101.95" fill="none" stroke="#000000" stroke-linecap="round" stroke-linejoin="round" stroke-width="1.0"/>
    <path d="M-35.55 -102.05 L-35.5 -101.75 Q-35.5 -101.05 -35.95 -100.6 -36.45 -100.1 -37.15 -100.05 -37.85 -100.05 -38.35 -100.55 -38.85 -101.0 -38.9 -101.75 L-38.85 -102.0 -38.0 -102.0 -38.0 -101.75 -37.75 -101.15 -37.15 -100.95 Q-36.8 -100.95 -36.6 -101.2 -36.35 -101.4 -36.35 -101.75 L-36.4 -102.0 -35.55 -102.05" fill="#c1c1c6" fill-rule="evenodd" stroke="none"/>
    <path d="M-35.55 -102.05 L-36.4 -102.0 -36.35 -101.75 Q-36.35 -101.4 -36.6 -101.2 -36.8 -100.95 -37.15 -100.95 L-37.75 -101.15 -38.0 -101.75 -38.0 -102.0 -38.85 -102.0 -38.9 -101.75 Q-38.85 -101.0 -38.35 -100.55 -37.85 -100.05 -37.15 -100.05 -36.45 -100.1 -35.95 -100.6 -35.5 -101.05 -35.5 -101.75 L-35.55 -102.05" fill="none" stroke="#000000" stroke-linecap="round" stroke-linejoin="round" stroke-width="1.0"/>
    <path d="M-71.6 -103.3 L-71.55 -103.0 Q-71.55 -102.3 -72.0 -101.85 -72.5 -101.35 -73.2 -101.3 -73.9 -101.3 -74.4 -101.8 -74.9 -102.25 -74.95 -103.0 L-74.9 -103.25 -74.05 -103.25 -74.05 -103.0 -73.8 -102.4 -73.2 -102.2 Q-72.85 -102.2 -72.65 -102.45 -72.4 -102.65 -72.4 -103.0 L-72.45 -103.25 -71.6 -103.3" fill="#c1c1c6" fill-rule="evenodd" stroke="none"/>
    <path d="M-71.6 -103.3 L-72.45 -103.25 -72.4 -103.0 Q-72.4 -102.65 -72.65 -102.45 -72.85 -102.2 -73.2 -102.2 L-73.8 -102.4 -74.05 -103.0 -74.05 -103.25 -74.9 -103.25 -74.95 -103.0 Q-74.9 -102.25 -74.4 -101.8 -73.9 -101.3 -73.2 -101.3 -72.5 -101.35 -72.0 -101.85 -71.55 -102.3 -71.55 -103.0 L-71.6 -103.3" fill="none" stroke="#000000" stroke-linecap="round" stroke-linejoin="round" stroke-width="1.0"/>
    <path d="M80.75 -100.65 L80.8 -100.35 Q80.8 -99.65 80.35 -99.2 79.85 -98.7 79.15 -98.65 78.45 -98.65 77.95 -99.15 77.45 -99.6 77.4 -100.35 L77.45 -100.6 78.3 -100.6 78.3 -100.35 Q78.3 -100.0 78.55 -99.75 78.8 -99.55 79.15 -99.55 L79.7 -99.8 79.95 -100.35 79.9 -100.6 80.75 -100.65" fill="#c1c1c6" fill-rule="evenodd" stroke="none"/>
    <path d="M80.75 -100.65 L79.9 -100.6 79.95 -100.35 79.7 -99.8 79.15 -99.55 Q78.8 -99.55 78.55 -99.75 78.3 -100.0 78.3 -100.35 L78.3 -100.6 77.45 -100.6 77.4 -100.35 Q77.45 -99.6 77.95 -99.15 78.45 -98.65 79.15 -98.65 79.85 -98.7 80.35 -99.2 80.8 -99.65 80.8 -100.35 L80.75 -100.65" fill="none" stroke="#000000" stroke-linecap="round" stroke-linejoin="round" stroke-width="1.0"/>
    <path d="M-86.3 -92.3 Q-87.0 -90.35 -88.6 -88.9 -90.3 -87.5 -92.35 -87.15 L-96.3 -87.45 Q-98.2 -88.15 -99.65 -89.75 -101.05 -91.45 -101.4 -93.5 -101.75 -95.5 -101.1 -97.45 -100.4 -99.35 -98.75 -100.8 -97.1 -102.2 -95.1 -102.55 L-91.15 -102.25 Q-89.2 -101.55 -87.75 -99.9 -86.35 -98.25 -86.0 -96.25 -85.65 -94.2 -86.3 -92.3" fill="#c1c1c6" fill-rule="evenodd" stroke="none"/>
    <path d="M-86.3 -92.3 Q-87.0 -90.35 -88.6 -88.9 -90.3 -87.5 -92.35 -87.15 L-96.3 -87.45 Q-98.2 -88.15 -99.65 -89.75 -101.05 -91.45 -101.4 -93.5 -101.75 -95.5 -101.1 -97.45 -100.4 -99.35 -98.75 -100.8 -97.1 -102.2 -95.1 -102.55 L-91.15 -102.25 Q-89.2 -101.55 -87.75 -99.9 -86.35 -98.25 -86.0 -96.25 -85.65 -94.2 -86.3 -92.3" fill="none" stroke="#000000" stroke-linecap="round" stroke-linejoin="round" stroke-width="1.0"/>
    <path d="M-93.4 -102.2 L-93.35 -102.15 Q-95.65 -101.45 -96.9 -100.0 -98.15 -98.55 -98.35 -96.6 -98.6 -94.65 -97.65 -92.6 -95.85 -89.75 -93.2 -87.9 L-93.5 -87.45 Q-95.15 -87.35 -96.7 -88.05 -98.2 -88.65 -99.35 -90.0 -100.7 -91.6 -101.0 -93.5 -101.35 -95.4 -100.7 -97.25 -100.1 -99.1 -98.55 -100.45 L-96.1 -101.8 -93.4 -102.2" fill="#b6b6b7" fill-rule="evenodd" stroke="none"/>
    <path d="M-88.15 -99.6 Q-86.8 -98.05 -86.45 -96.1 -86.15 -94.25 -86.8 -92.35 -87.4 -90.55 -88.95 -89.2 -90.15 -88.2 -91.55 -87.75 -89.9 -90.05 -89.55 -92.6 -89.15 -95.15 -89.95 -97.6 -90.75 -100.05 -92.55 -102.1 -91.3 -101.9 -90.15 -101.25 L-88.15 -99.6" fill="#d6d6d8" fill-rule="evenodd" stroke="none"/>
    <path d="M-91.8 -100.25 Q-90.4 -99.75 -89.35 -98.55 -88.3 -97.35 -88.05 -95.85 -87.8 -94.4 -88.3 -92.95 -88.8 -91.55 -90.0 -90.5 -91.2 -89.45 -92.7 -89.2 L-95.6 -89.45 Q-97.0 -89.95 -98.05 -91.15 -99.1 -92.35 -99.35 -93.85 -99.55 -95.3 -99.1 -96.75 -98.6 -98.15 -97.4 -99.2 -96.2 -100.25 -94.7 -100.5 L-91.8 -100.25" fill="#d8d8d8" fill-rule="evenodd" stroke="none"/>
    <path d="M-89.7 -98.25 Q-88.4 -96.7 -88.4 -94.75 -88.45 -92.8 -89.8 -91.25 -89.25 -93.25 -89.45 -95.2 -89.6 -97.15 -90.45 -99.0 L-89.7 -98.25" fill="#e3e3e5" fill-rule="evenodd" stroke="none"/>
    <path d="M-97.65 -92.6 Q-96.7 -91.1 -95.45 -89.9 -96.75 -90.3 -97.75 -91.4 -98.9 -92.8 -99.0 -94.55 -99.1 -96.3 -98.15 -97.75 -98.85 -95.35 -97.65 -92.6" fill="#bbbbbc" fill-rule="evenodd" stroke="none"/>
    <path d="M-97.7 -85.8 L-99.1 -86.6 -94.0 -95.85 -92.55 -95.1 -97.7 -85.8" fill="#6d6d70" fill-rule="evenodd" stroke="none"/>
    <path d="M-97.7 -85.8 L-99.1 -86.6 -94.0 -95.85 -92.55 -95.1 -97.7 -85.8" fill="none" stroke="#000000" stroke-linecap="round" stroke-linejoin="round" stroke-width="1.0"/>
    <path d="M-97.9 -86.35 L-98.05 -86.45 -93.35 -95.0 -93.15 -94.9 -94.0 -93.4 -95.5 -90.65 -97.05 -87.85 -97.9 -86.35" fill="#7b7b7c" fill-rule="evenodd" stroke="none"/>
    <path d="M-93.55 -95.15 L-95.9 -90.95 -98.4 -86.65 -98.55 -86.75 -97.7 -88.25 -96.15 -91.05 -94.65 -93.8 -93.85 -95.3 -93.55 -95.15" fill="#59595b" fill-rule="evenodd" stroke="none"/>
    <path d="M-96.65 -84.3 Q-96.9 -83.95 -97.3 -83.8 L-98.05 -83.85 -100.6 -85.25 -101.05 -85.9 -100.9 -86.7 Q-100.65 -87.1 -100.25 -87.2 L-99.5 -87.2 -97.0 -85.75 -96.55 -85.1 Q-96.45 -84.75 -96.65 -84.3" fill="#6d6d70" fill-rule="evenodd" stroke="none"/>
    <path d="M-96.65 -84.3 Q-96.9 -83.95 -97.3 -83.8 L-98.05 -83.85 -100.6 -85.25 -101.05 -85.9 -100.9 -86.7 Q-100.65 -87.1 -100.25 -87.2 L-99.5 -87.2 -97.0 -85.75 -96.55 -85.1 Q-96.45 -84.75 -96.65 -84.3" fill="none" stroke="#000000" stroke-linecap="round" stroke-linejoin="round" stroke-width="1.0"/>
    <path d="M-99.6 -86.75 Q-99.7 -85.8 -99.4 -85.1 L-100.35 -85.65 -100.6 -85.95 -100.55 -86.5 -100.15 -86.85 -99.7 -86.8 -99.6 -86.75" fill="#59595b" fill-rule="evenodd" stroke="none"/>
    <path d="M-97.85 -84.2 L-98.0 -84.3 Q-98.0 -85.25 -98.45 -86.1 L-97.2 -85.4 -96.95 -85.1 -97.05 -84.55 -97.4 -84.2 -97.85 -84.2" fill="#7b7b7c" fill-rule="evenodd" stroke="none"/>
    <path d="M-87.85 -89.45 Q-87.8 -89.4 -86.55 -90.05 -85.5 -90.55 -83.2 -92.1 -81.0 -93.75 -78.5 -96.25 -76.0 -98.85 -73.2 -102.9 L-71.05 -101.9 Q-69.3 -101.1 -65.25 -99.85 -61.5 -98.75 -57.0 -98.25 -52.55 -97.75 -47.2 -98.45 -42.0 -99.2 -37.05 -101.95 L-35.65 -101.15 -31.8 -99.45 Q-29.65 -98.6 -25.95 -97.7 L-18.8 -96.85 Q-15.1 -96.8 -10.8 -97.8 -6.5 -98.9 -2.5 -101.45 L-0.5 -100.5 4.8 -98.35 Q8.0 -97.2 12.45 -96.2 16.6 -95.25 21.4 -95.1 26.05 -94.95 30.7 -96.15 35.25 -97.4 39.35 -100.55 L41.75 -99.75 Q43.85 -99.0 48.15 -98.05 L57.25 -96.7 67.9 -97.0 Q73.4 -97.7 78.8 -100.15 L80.45 -99.5 84.9 -98.1 Q87.7 -97.4 91.3 -97.05 L98.9 -97.3 Q102.7 -97.8 107.0 -99.75 107.5 -98.15 106.65 -95.55 L92.0 -55.95 Q83.5 -33.15 79.45 -15.15 74.5 6.75 71.15 31.9" fill="none" stroke="#000000" stroke-linecap="round" stroke-linejoin="round" stroke-width="1.0"/>
    <path d="M71.15 31.9 Q66.55 66.35 64.95 106.95" fill="none" stroke="#000099" stroke-linecap="round" stroke-linejoin="round" stroke-width="1.0"/>
    <path d="M108.25 -99.7 L107.45 -99.75 -106.3 -103.1 -106.9 -103.2 Q-107.45 -103.3 -107.95 -103.7 -108.5 -104.15 -108.5 -105.1 -108.4 -106.15 -107.8 -106.5 L-106.7 -106.9 -106.05 -106.9 107.45 -100.65 107.9 -100.8 108.35 -100.55 108.5 -100.1 108.25 -99.7" fill="#c1c1c6" fill-rule="evenodd" stroke="none"/>
    <path d="M108.25 -99.7 L108.5 -100.1 108.35 -100.55 107.9 -100.8 107.45 -100.65 -106.05 -106.9 -106.7 -106.9 -107.8 -106.5 Q-108.4 -106.15 -108.5 -105.1 -108.5 -104.15 -107.95 -103.7 -107.45 -103.3 -106.9 -103.2 L-106.3 -103.1 107.45 -99.75 108.25 -99.7" fill="none" stroke="#000000" stroke-linecap="round" stroke-linejoin="round" stroke-width="1.0"/>
    <path d="M108.0 -100.15 L107.95 -100.0 107.75 -100.0 107.7 -100.05 107.65 -100.15 108.0 -100.15 M-78.1 -105.15 L-107.95 -105.6 -107.6 -106.15 -107.45 -106.25 -78.1 -105.15" fill="#dbdbdd" fill-rule="evenodd" stroke="none"/>
    <path d="M108.0 -100.3 L108.0 -100.25 107.65 -100.25 107.7 -100.3 108.0 -100.3 M-87.65 -103.7 L-107.4 -103.85 -107.75 -104.15 -107.9 -104.3 -87.65 -103.7" fill="#9a9a9b" fill-rule="evenodd" stroke="none"/>
    <path d="M-92.5 -93.4 Q-93.1 -92.9 -93.9 -92.95 -94.6 -93.0 -95.2 -93.6 -95.65 -94.2 -95.65 -95.0 -95.55 -95.7 -94.95 -96.3 -94.35 -96.75 -93.55 -96.75 -92.85 -96.65 -92.3 -96.05 -91.8 -95.45 -91.85 -94.65 -91.9 -93.95 -92.5 -93.4" fill="#6d6d70" fill-rule="evenodd" stroke="none"/>
    <path d="M-92.5 -93.4 Q-93.1 -92.9 -93.9 -92.95 -94.6 -93.0 -95.2 -93.6 -95.65 -94.2 -95.65 -95.0 -95.55 -95.7 -94.95 -96.3 -94.35 -96.75 -93.55 -96.75 -92.85 -96.65 -92.3 -96.05 -91.8 -95.45 -91.85 -94.65 -91.9 -93.95 -92.5 -93.4" fill="none" stroke="#000000" stroke-linecap="round" stroke-linejoin="round" stroke-width="1.0"/>
    <path d="M-92.95 -93.6 Q-92.65 -94.25 -92.7 -94.9 -92.75 -95.6 -93.25 -96.25 L-92.6 -95.85 Q-92.2 -95.35 -92.25 -94.75 -92.3 -94.15 -92.75 -93.75 L-92.95 -93.6" fill="#7b7b7c" fill-rule="evenodd" stroke="none"/>
    <path d="M-94.1 -96.25 Q-94.45 -95.25 -94.2 -94.55 -93.9 -93.9 -93.3 -93.4 L-94.15 -93.4 Q-94.55 -93.5 -94.85 -93.85 -95.25 -94.35 -95.2 -94.95 L-94.7 -95.95 -94.1 -96.25" fill="#59595b" fill-rule="evenodd" stroke="none"/>
    <path d="M109.65 -100.6 L109.7 -100.3 Q109.7 -99.6 109.25 -99.15 108.75 -98.65 108.05 -98.6 107.35 -98.6 106.85 -99.05 106.35 -99.55 106.3 -100.3 L106.35 -100.55 107.2 -100.55 107.2 -100.3 Q107.2 -99.95 107.45 -99.7 L108.05 -99.5 Q108.4 -99.5 108.6 -99.75 L108.85 -100.3 108.8 -100.55 109.65 -100.6" fill="#c1c1c6" fill-rule="evenodd" stroke="none"/>
    <path d="M109.65 -100.6 L108.8 -100.55 108.85 -100.3 108.6 -99.75 Q108.4 -99.5 108.05 -99.5 L107.45 -99.7 Q107.2 -99.95 107.2 -100.3 L107.2 -100.55 106.35 -100.55 106.3 -100.3 Q106.35 -99.55 106.85 -99.05 107.35 -98.6 108.05 -98.6 108.75 -98.65 109.25 -99.15 109.7 -99.6 109.7 -100.3 L109.65 -100.6" fill="none" stroke="#000000" stroke-linecap="round" stroke-linejoin="round" stroke-width="1.0"/>
  </g>
</svg>
