<?xml version="1.0" encoding="UTF-8" standalone="no"?>
<svg xmlns:xlink="http://www.w3.org/1999/xlink" height="22.25px" width="22.35px" xmlns="http://www.w3.org/2000/svg">
  <g transform="matrix(1, 0, 0, 1, -8.6, -8.85)">
    <path d="M29.75 21.75 L30.55 22.05 30.95 22.4 Q30.8 24.85 29.4 26.8 28.05 28.75 25.75 29.9 23.5 31.05 20.75 31.1 16.7 31.0 13.9 28.7 11.05 26.4 10.6 22.8 L10.6 17.95 Q9.25 17.35 9.0 15.9 L8.6 15.9 8.6 10.05 10.6 10.05 10.6 8.85 12.7 8.85 12.75 10.05 14.5 10.05 14.5 15.9 14.1 15.9 Q13.85 17.15 12.8 17.8 L12.8 22.4 Q13.1 25.25 15.3 27.15 17.5 29.05 20.75 29.1 24.0 29.05 26.25 27.15 28.45 25.25 28.7 22.4 L29.0 22.05 Q29.3 21.8 29.75 21.75" fill="#000000" fill-rule="evenodd" stroke="none"/>
  </g>
</svg>
