<?xml version="1.0" encoding="UTF-8" standalone="no"?>
<svg xmlns:xlink="http://www.w3.org/1999/xlink" height="24.8px" width="39.9px" xmlns="http://www.w3.org/2000/svg">
  <g transform="matrix(1, 0, 0, 1, -18.75, -38.1)">
    <path d="M37.1 40.0 L37.7 41.4 Q38.25 42.75 39.7 44.65 41.1 46.5 43.75 48.25 45.35 49.3 47.35 50.15 L51.2 51.65 54.5 52.7 56.65 53.15 57.15 53.45 Q57.55 53.7 57.65 54.3 57.75 54.9 56.85 55.75 L54.85 57.2 50.75 59.4 Q48.3 60.55 45.25 61.3 L38.8 61.9 Q35.45 61.75 32.05 60.15 28.65 58.55 25.5 55.05 22.35 51.5 19.75 45.5 28.45 34.35 37.1 40.0" fill="#666666" fill-rule="evenodd" stroke="none"/>
    <path d="M37.1 40.0 L37.7 41.4 Q38.25 42.75 39.7 44.65 41.1 46.5 43.75 48.25 45.35 49.3 47.35 50.15 L51.2 51.65 54.5 52.7 56.65 53.15 57.15 53.45 Q57.55 53.7 57.65 54.3 57.75 54.9 56.85 55.75 L54.85 57.2 50.75 59.4 Q48.3 60.55 45.25 61.3 L38.8 61.9 Q35.45 61.75 32.05 60.15 28.65 58.55 25.5 55.05 22.35 51.5 19.75 45.5" fill="none" stroke="#000000" stroke-linecap="round" stroke-linejoin="round" stroke-width="2.0"/>
    <path d="M30.9 53.9 Q33.85 55.75 37.95 57.45 42.0 59.1 46.55 60.35 41.65 61.6 37.5 60.85 33.3 60.0 29.85 57.6 26.45 55.15 23.9 51.55 21.4 48.0 19.85 43.7 L21.3 42.45 22.45 41.0 Q23.1 40.25 24.2 39.85 L25.2 39.4 Q25.95 39.0 26.85 38.7 L28.25 38.35 Q28.8 38.3 28.7 38.9 L27.85 42.25 Q27.4 44.0 27.4 45.9 27.4 47.75 28.2 49.8 28.95 51.8 30.9 53.9" fill="#333333" fill-rule="evenodd" stroke="none"/>
    <path d="M38.3 45.0 Q37.7 43.9 37.4 42.85 L36.7 40.75 37.65 42.65 Q38.4 43.95 39.85 45.55 L43.55 48.6 47.05 50.45 50.85 51.95 54.25 53.0 56.5 53.55 56.95 53.75 57.25 54.25 57.1 54.9 56.6 55.45 56.15 55.8 53.6 57.4 49.25 59.35 43.65 60.8 Q40.6 61.3 37.35 60.9 34.1 60.5 30.95 58.8 L34.0 59.5 Q36.1 59.7 38.75 59.5 L44.0 58.9 48.65 57.6 Q50.65 56.75 51.6 55.7 52.05 55.05 50.9 54.25 L47.75 52.3 43.65 50.0 40.2 47.35 38.3 45.0" fill="#999999" fill-rule="evenodd" stroke="none"/>
  </g>
</svg>
