<?xml version="1.0" encoding="UTF-8" standalone="no"?>
<svg xmlns:xlink="http://www.w3.org/1999/xlink" height="118.2px" width="79.5px" xmlns="http://www.w3.org/2000/svg">
  <g transform="matrix(1, 0, 0, 1, 63.35, 72.7)">
    <path d="M-43.55 30.45 Q-44.7 31.65 -46.75 32.2 L-51.05 32.9 -54.8 32.95 -56.35 32.85 Q-57.85 32.55 -58.15 32.05 -58.5 31.5 -58.3 31.1 L-58.0 30.65 -55.1 30.25 Q-53.7 29.75 -52.55 29.05 L-50.8 27.8 -50.15 27.2 -43.55 30.45" fill="#08577a" fill-rule="evenodd" stroke="none"/>
    <path d="M-50.15 27.2 L-50.8 27.8 -52.55 29.05 Q-53.7 29.75 -55.1 30.25 L-58.0 30.65 -58.3 31.1 Q-58.5 31.5 -58.15 32.05 -57.85 32.55 -56.35 32.85 L-54.8 32.95 -51.05 32.9 -46.75 32.2 Q-44.7 31.65 -43.55 30.45" fill="none" stroke="#000000" stroke-linecap="round" stroke-linejoin="round" stroke-width="2.0"/>
    <path d="M1.2 -47.1 Q1.0 -44.95 1.8 -41.4 2.5 -37.85 3.9 -33.5 5.25 -29.2 6.9 -24.7 L10.1 -16.2 12.8 -9.25 Q14.25 -5.6 14.85 -1.55 15.4 2.4 15.0 6.65 14.5 11.15 12.95 15.3 11.35 19.45 8.85 23.0 7.7 25.25 5.8 27.55 L1.75 31.85 -2.3 35.45 -5.5 37.9 -6.75 38.8 -6.2 39.6 -5.1 41.35 -4.0 42.95 Q-3.65 43.55 -3.85 43.9 -4.05 44.25 -4.45 44.35 L-4.85 44.5 Q-9.2 44.5 -12.05 43.6 -14.9 42.65 -16.55 41.45 L-18.9 39.2 Q-23.0 39.65 -27.25 39.3 -35.3 38.5 -42.0 35.1 -48.7 31.7 -53.5 26.3 -58.3 20.9 -60.6 14.1 -62.9 7.3 -62.2 -0.2 -61.35 -8.0 -57.5 -14.4 -56.1 -16.75 -54.7 -20.35 -53.25 -24.0 -51.95 -28.3 L-49.5 -36.95 -47.65 -45.05 -46.65 -51.35 Q-46.15 -56.05 -43.9 -59.9 -41.65 -63.75 -38.05 -66.55 -34.45 -69.35 -29.95 -70.65 -25.5 -72.0 -20.45 -71.6 -15.5 -71.1 -11.3 -69.0 -7.15 -66.9 -4.2 -63.55 -1.25 -60.2 0.2 -56.0 1.65 -51.8 1.2 -47.1" fill="#666666" fill-rule="evenodd" stroke="none"/>
    <path d="M1.2 -47.1 Q1.65 -51.8 0.2 -56.0 -1.25 -60.2 -4.2 -63.55 -7.15 -66.9 -11.3 -69.0 -15.5 -71.1 -20.45 -71.6 -25.5 -72.0 -29.95 -70.65 -34.45 -69.35 -38.05 -66.55 -41.65 -63.75 -43.9 -59.9 -46.15 -56.05 -46.65 -51.35 L-47.65 -45.05 -49.5 -36.95 -51.95 -28.3 Q-53.25 -24.0 -54.7 -20.35 -56.1 -16.75 -57.5 -14.4 -61.35 -8.0 -62.2 -0.2 -62.9 7.3 -60.6 14.1 -58.3 20.9 -53.5 26.3 -48.7 31.7 -42.0 35.1 -35.3 38.5 -27.25 39.3 -23.0 39.65 -18.9 39.2 L-16.55 41.45 Q-14.9 42.65 -12.05 43.6 -9.2 44.5 -4.85 44.5 L-4.45 44.35 Q-4.05 44.25 -3.85 43.9 -3.65 43.55 -4.0 42.95 L-5.1 41.35 -6.2 39.6 -6.75 38.8 -5.5 37.9 -2.3 35.45 1.75 31.85 5.8 27.55 Q7.7 25.25 8.85 23.0 11.35 19.45 12.95 15.3 14.5 11.15 15.0 6.65 15.4 2.4 14.85 -1.55 14.25 -5.6 12.8 -9.25 L10.1 -16.2 6.9 -24.7 Q5.25 -29.2 3.9 -33.5 2.5 -37.85 1.8 -41.4 1.0 -44.95 1.2 -47.1" fill="none" stroke="#000000" stroke-linecap="round" stroke-linejoin="round" stroke-width="2.0"/>
    <path d="M-36.4 -62.9 Q-38.4 -59.3 -38.8 -55.1 L-39.05 -52.3 -39.7 -45.6 Q-40.1 -42.2 -40.75 -39.4 L-41.6 -36.2 -42.7 -31.7 Q-43.2 -29.55 -43.2 -27.5 L-43.05 -25.85 Q-44.5 -26.55 -45.65 -26.2 L-47.05 -25.05 -47.95 -23.2 -48.55 -21.15 -48.85 -20.2 Q-49.65 -17.65 -50.6 -15.25 L-52.25 -10.45 Q-53.05 -8.05 -53.35 -5.35 -54.0 1.95 -51.85 8.55 -49.65 15.15 -45.15 20.4 -40.7 25.7 -34.4 29.0 -28.15 32.3 -20.6 33.05 -12.25 33.8 -5.1 31.45 2.05 29.1 7.7 23.75 6.05 26.45 3.65 29.0 L-1.25 33.65 -5.4 37.0 -7.15 38.3 -7.7 38.65 -7.5 38.95 -5.25 42.4 -4.45 43.45 -4.55 43.4 -4.45 43.6 -4.9 43.85 Q-9.0 43.8 -11.7 42.95 -14.45 42.15 -16.0 41.0 L-18.3 38.8 -18.55 38.5 -18.95 38.55 Q-23.1 39.0 -27.15 38.65 -35.05 37.9 -41.6 34.55 -48.2 31.2 -52.85 25.9 -57.6 20.55 -59.85 13.95 -62.15 7.25 -61.45 -0.1 -60.7 -7.55 -56.8 -14.05 -55.45 -16.4 -54.0 -20.0 L-51.25 -27.95 -48.8 -36.65 Q-47.7 -41.05 -46.95 -44.8 -46.2 -48.65 -45.9 -51.25 -45.5 -55.4 -43.55 -58.95 -41.6 -62.5 -38.45 -65.2 -35.35 -67.9 -31.25 -69.4 -34.5 -66.6 -36.4 -62.9" fill="#333333" fill-rule="evenodd" stroke="none"/>
    <path d="M0.4 -45.35 Q0.4 -43.15 1.15 -39.85 1.9 -36.55 3.15 -32.7 L5.8 -24.75 8.7 -17.05 11.3 -10.4 11.7 -9.4 Q13.95 -3.6 14.0 2.6 L13.8 5.95 12.95 10.75 Q10.5 16.3 6.5 20.45 2.45 24.55 -2.6 26.85 -7.7 29.1 -13.45 29.35 -19.0 29.45 -24.15 27.6 -29.3 25.7 -33.6 21.95 -37.05 18.9 -39.5 15.05 -41.95 11.2 -43.35 6.8 -44.7 2.35 -44.85 -2.4 L-44.9 -3.6 Q-44.9 -9.85 -42.75 -15.6 -42.0 -17.75 -41.3 -20.9 L-40.05 -27.8 -39.1 -35.35 -38.5 -42.65 -38.25 -48.7 -38.3 -50.2 -38.3 -50.9 Q-38.35 -53.9 -37.6 -56.75 -36.9 -59.6 -35.1 -61.8 -33.35 -64.05 -30.25 -65.1 L-28.05 -65.75 -25.55 -66.2 -21.8 -66.05 Q-19.85 -65.75 -18.25 -64.9 -16.65 -64.05 -15.8 -62.7 -16.15 -63.4 -15.25 -64.4 -14.4 -65.35 -12.75 -65.95 L-9.35 -66.05 Q-8.05 -65.6 -6.85 -64.55 L-4.75 -62.2 -3.05 -59.9 Q-1.1 -55.85 -0.95 -51.3 -0.9 -49.25 0.4 -45.35" fill="#cccccc" fill-rule="evenodd" stroke="none"/>
    <path d="M0.35 -45.4 Q0.4 -43.15 1.15 -39.85 1.9 -36.55 3.15 -32.65 L5.8 -24.75 8.7 -17.05 11.25 -10.4 11.7 -9.4 Q14.0 -3.6 14.0 2.6 L13.8 5.95 12.95 10.75 Q10.15 17.05 5.5 21.45 0.75 25.8 -5.2 27.85 0.35 25.35 4.55 20.75 8.7 16.1 11.0 9.75 L11.6 4.75 11.55 1.25 Q11.2 -5.1 8.6 -10.95 L8.15 -12.0 5.15 -18.7 1.85 -26.5 -1.3 -34.5 Q-2.8 -38.45 -3.7 -41.8 -4.65 -45.2 -4.8 -47.5 -6.25 -51.4 -6.45 -53.5 -6.9 -58.2 -9.05 -62.25 L-10.5 -64.15 -12.3 -66.1 -9.35 -66.05 Q-8.05 -65.6 -6.9 -64.55 L-4.7 -62.2 -3.05 -59.9 Q-1.1 -55.85 -0.95 -51.3 -0.9 -49.25 0.35 -45.4" fill="#e5e5e5" fill-rule="evenodd" stroke="none"/>
    <path d="M-35.95 -60.6 Q-34.6 -62.7 -32.35 -64.1 -34.25 -61.85 -34.95 -58.95 -35.7 -56.1 -35.7 -53.1 L-35.65 -52.35 -35.65 -50.85 -35.85 -44.8 -36.45 -37.5 -37.4 -29.95 -38.65 -23.05 -40.15 -17.75 Q-42.25 -11.95 -42.25 -5.75 L-42.25 -4.55 Q-42.1 0.2 -40.7 4.6 -39.35 9.05 -36.85 12.9 -34.4 16.75 -31.0 19.8 -26.7 23.5 -21.5 25.45 -16.35 27.35 -10.85 27.2 -6.3 27.05 -2.1 25.55 2.05 24.05 5.65 21.35 1.7 25.05 -3.15 27.2 -8.05 29.25 -13.45 29.45 -19.0 29.6 -24.15 27.65 -29.3 25.75 -33.6 22.0 -37.05 19.0 -39.5 15.15 -41.95 11.3 -43.35 6.85 -44.7 2.45 -44.85 -2.3 L-44.9 -3.5 Q-44.9 -9.75 -42.75 -15.5 -42.0 -17.65 -41.3 -20.8 L-40.05 -27.7 -39.1 -35.25 -38.5 -42.55 -38.25 -48.6 -38.3 -50.1 -38.3 -50.85 Q-38.3 -53.45 -37.8 -55.95 -37.25 -58.5 -35.95 -60.6" fill="#b4b4b4" fill-rule="evenodd" stroke="none"/>
    <path d="M-8.35 -35.5 L-8.6 -34.3 -9.4 -31.5 Q-9.95 -29.8 -10.85 -28.1 -11.7 -26.4 -12.9 -25.15 -14.1 -23.95 -15.7 -23.7 -17.3 -23.55 -19.0 -24.6 -20.75 -25.6 -22.45 -27.2 L-25.4 -30.45 -27.6 -33.25 -28.4 -34.4 -8.35 -35.5" fill="#b4b4b4" fill-rule="evenodd" stroke="none"/>
    <path d="M-10.4 -31.85 Q-11.2 -30.45 -12.5 -29.3 -13.85 -28.2 -15.8 -28.05 -17.8 -28.05 -20.0 -29.1 L-24.25 -31.65 -27.55 -34.25 -28.85 -35.45 -8.85 -35.5 -9.2 -34.35 Q-9.55 -33.3 -10.4 -31.85" fill="#d8a235" fill-rule="evenodd" stroke="none"/>
    <path d="M-10.4 -31.85 Q-9.55 -33.3 -9.2 -34.35 L-8.85 -35.5 -28.85 -35.45 -27.55 -34.25 -24.25 -31.65 -20.0 -29.1 Q-17.8 -28.05 -15.8 -28.05 -13.85 -28.2 -12.5 -29.3 -11.2 -30.45 -10.4 -31.85" fill="none" stroke="#000000" stroke-linecap="round" stroke-linejoin="round" stroke-width="1.0"/>
    <path d="M-11.8 -34.85 L-11.95 -34.15 Q-12.05 -33.45 -12.5 -32.55 -12.95 -31.65 -13.8 -30.95 -14.65 -30.3 -16.1 -30.2 -17.5 -30.2 -18.9 -30.9 -20.35 -31.6 -21.55 -32.5 L-23.45 -34.1 -24.25 -34.8 -11.8 -34.85" fill="#c12d05" fill-rule="evenodd" stroke="none"/>
    <path d="M-11.8 -34.85 L-24.25 -34.8 -23.45 -34.1 -21.55 -32.5 Q-20.35 -31.6 -18.9 -30.9 -17.5 -30.2 -16.1 -30.2 -14.65 -30.3 -13.8 -30.95 -12.95 -31.65 -12.5 -32.55 -12.05 -33.45 -11.95 -34.15 L-11.8 -34.85" fill="none" stroke="#000000" stroke-linecap="round" stroke-linejoin="round" stroke-width="1.0"/>
    <path d="M-19.95 -34.45 Q-19.1 -32.85 -17.35 -32.1 -15.65 -31.4 -13.65 -31.55 -14.5 -30.65 -16.1 -30.55 -17.45 -30.55 -18.9 -31.25 L-21.5 -32.85 -23.35 -34.45 -22.05 -34.45 -19.95 -34.45" fill="#9b0d0d" fill-rule="evenodd" stroke="none"/>
    <path d="M-45.75 -25.85 L-44.45 -25.4 -40.85 -24.95 Q-38.65 -24.85 -35.85 -25.65 -33.55 -26.45 -31.25 -27.65 -29.0 -28.85 -27.3 -30.05 L-25.0 -31.85 -24.5 -32.0 -23.55 -31.85 Q-23.1 -31.6 -22.9 -30.5 L-22.9 -28.25 Q-23.0 -26.55 -23.5 -24.15 -24.0 -21.8 -25.1 -19.25 -26.3 -16.7 -28.25 -14.45 -30.25 -12.25 -33.35 -10.75 -36.45 -9.35 -40.85 -9.15 -45.3 -9.05 -51.25 -10.65 L-45.75 -25.85" fill="#666666" fill-rule="evenodd" stroke="none"/>
    <path d="M-45.75 -25.85 L-44.45 -25.4 -40.85 -24.95 Q-38.65 -24.85 -35.85 -25.65 -33.55 -26.45 -31.25 -27.65 -29.0 -28.85 -27.3 -30.05 L-25.0 -31.85 -24.5 -32.0 -23.55 -31.85 Q-23.1 -31.6 -22.9 -30.5 L-22.9 -28.25 Q-23.0 -26.55 -23.5 -24.15 -24.0 -21.8 -25.1 -19.25 -26.3 -16.7 -28.25 -14.45 -30.25 -12.25 -33.35 -10.75 -36.45 -9.35 -40.85 -9.15 -45.3 -9.05 -51.25 -10.65" fill="none" stroke="#000000" stroke-linecap="round" stroke-linejoin="round" stroke-width="2.0"/>
    <path d="M-44.95 -15.2 L-42.1 -13.6 Q-40.55 -13.2 -38.7 -13.6 L-38.65 -13.6 Q-35.65 -14.6 -32.05 -16.45 -28.55 -18.35 -25.1 -20.75 -26.8 -16.65 -29.75 -14.2 -32.7 -11.75 -36.45 -10.8 -40.25 -9.85 -44.35 -10.15 -48.45 -10.4 -52.55 -11.8 -52.45 -12.75 -52.7 -13.5 L-53.15 -15.15 Q-53.4 -16.05 -53.1 -17.0 L-52.55 -17.9 -51.6 -19.2 -50.4 -20.2 -49.45 -20.15 -47.4 -17.6 -44.95 -15.2" fill="#333333" fill-rule="evenodd" stroke="none"/>
    <path d="M-45.1 -25.3 L-43.45 -24.9 -40.05 -24.65 -35.7 -25.45 Q-33.5 -26.15 -31.2 -27.35 L-27.2 -29.75 -24.75 -31.6 -24.35 -31.7 -23.8 -31.7 -23.4 -31.2 -23.25 -30.5 -23.25 -30.0 -23.4 -27.35 Q-23.55 -25.6 -24.1 -23.2 -24.7 -20.95 -25.9 -18.5 -27.1 -16.15 -29.15 -14.1 -31.2 -12.1 -34.3 -10.85 -33.1 -11.4 -31.5 -13.3 -29.9 -15.2 -28.45 -17.8 -27.05 -20.4 -26.2 -22.85 -25.45 -25.35 -25.8 -26.95 -26.1 -27.6 -27.5 -27.3 L-30.95 -26.3 -34.95 -25.0 Q-36.95 -24.35 -38.3 -24.3 -41.85 -24.25 -45.1 -25.3" fill="#999999" fill-rule="evenodd" stroke="none"/>
    <path d="M8.1 -27.9 Q9.0 -27.65 10.05 -26.35 11.1 -25.05 11.7 -21.95 12.55 -17.2 12.05 -14.8 11.5 -12.45 9.55 -12.45 L6.1 -12.9 Q3.7 -13.4 0.75 -14.8 -2.25 -16.15 -5.2 -18.75 -8.15 -21.45 -10.35 -25.75 -11.25 -27.7 -10.7 -28.9 -10.15 -30.1 -8.8 -30.45 L-5.75 -30.15 -4.95 -29.7 Q-3.05 -28.5 -1.1 -27.8 0.85 -27.05 2.9 -27.0 4.95 -27.05 7.2 -28.1 L8.1 -27.9" fill="#666666" fill-rule="evenodd" stroke="none"/>
    <path d="M8.1 -27.9 Q9.0 -27.65 10.05 -26.35 11.1 -25.05 11.7 -21.95 12.55 -17.2 12.05 -14.8 11.5 -12.45 9.55 -12.45 L6.1 -12.9 Q3.7 -13.4 0.75 -14.8 -2.25 -16.15 -5.2 -18.75 -8.15 -21.45 -10.35 -25.75 -11.25 -27.7 -10.7 -28.9 -10.15 -30.1 -8.8 -30.45 L-5.75 -30.15 -4.95 -29.7 Q-3.05 -28.5 -1.1 -27.8 0.85 -27.05 2.9 -27.0 4.95 -27.05 7.2 -28.1 L8.1 -27.9" fill="none" stroke="#000000" stroke-linecap="round" stroke-linejoin="round" stroke-width="2.0"/>
    <path d="M7.3 -27.35 L8.3 -27.05 Q9.0 -26.7 9.75 -25.5 10.5 -24.3 11.0 -21.75 L11.5 -16.85 Q11.5 -14.4 10.75 -13.55 10.3 -13.1 9.55 -13.1 L9.4 -13.1 9.1 -13.1 Q10.5 -14.3 10.85 -16.25 L10.9 -17.35 Q10.85 -19.1 10.25 -20.65 9.6 -22.2 8.75 -23.0 7.05 -24.3 5.0 -24.65 L0.75 -25.2 -3.05 -25.6 Q-4.85 -25.9 -6.4 -26.75 -7.95 -27.65 -9.05 -29.5 L-7.65 -29.8 -6.1 -29.5 -5.3 -29.05 Q-3.55 -27.95 -1.55 -27.15 0.4 -26.35 2.65 -26.3 4.85 -26.2 7.3 -27.35" fill="#999999" fill-rule="evenodd" stroke="none"/>
    <path d="M-29.25 36.65 L-29.3 37.9 -28.8 40.8 Q-28.35 42.5 -27.05 44.05 L-27.0 44.15 -27.45 44.35 -29.0 44.3 -31.55 44.1 Q-33.15 43.9 -35.05 43.05 -37.0 42.15 -38.9 40.05 -40.85 37.85 -42.5 33.9 L-29.25 36.65" fill="#333333" fill-rule="evenodd" stroke="none"/>
    <path d="M-29.25 36.65 L-29.3 37.9 -28.8 40.8 Q-28.35 42.5 -27.05 44.05 L-27.0 44.15 -27.45 44.35 -29.0 44.3 -31.55 44.1 Q-33.15 43.9 -35.05 43.05 -37.0 42.15 -38.9 40.05 -40.85 37.85 -42.5 33.9" fill="none" stroke="#000000" stroke-linecap="round" stroke-linejoin="round" stroke-width="2.0"/>
    <path d="M-18.95 39.25 L-17.95 39.15 -15.6 38.7 -12.7 37.95 Q-11.25 37.55 -10.15 36.95" fill="none" stroke="#000000" stroke-linecap="round" stroke-linejoin="round" stroke-width="1.0"/>
    <path d="M-3.8 -39.0 L-2.5 -38.6 -2.2 -38.05 Q-1.9 -37.5 -1.75 -36.8 -1.65 -36.15 -2.05 -35.6 -2.5 -35.15 -3.2 -35.05 L-4.45 -35.05 -5.05 -35.15 Q-5.95 -33.55 -6.95 -33.0 -7.95 -32.45 -9.1 -32.6 L-11.55 -33.15 -14.3 -33.8 -17.1 -34.0 -19.9 -34.0 -22.0 -34.05 -24.95 -34.15 -27.8 -34.6 Q-29.0 -34.95 -29.4 -35.6 L-29.95 -36.75 Q-30.0 -37.0 -29.25 -37.05 L-26.65 -37.45 -23.15 -38.0 Q-21.4 -38.35 -19.8 -39.0 -18.65 -39.5 -17.65 -40.15 -16.7 -40.8 -15.9 -41.8 L-15.3 -42.65 -14.4 -43.8 -13.35 -44.4 Q-12.8 -44.5 -12.35 -43.75 -11.65 -42.75 -10.1 -41.8 -8.55 -40.9 -6.8 -40.15 L-3.8 -39.0" fill="#f9c248" fill-rule="evenodd" stroke="none"/>
    <path d="M-3.8 -39.0 L-2.5 -38.6 -2.2 -38.05 Q-1.9 -37.5 -1.75 -36.8 -1.65 -36.15 -2.05 -35.6 -2.5 -35.15 -3.2 -35.05 L-4.45 -35.05 -5.05 -35.15 Q-5.95 -33.55 -6.95 -33.0 -7.95 -32.45 -9.1 -32.6 L-11.55 -33.15 -14.3 -33.8 -17.1 -34.0 -19.9 -34.0 -22.0 -34.05 -24.95 -34.15 -27.8 -34.6 Q-29.0 -34.95 -29.4 -35.6 L-29.95 -36.75 Q-30.0 -37.0 -29.25 -37.05 L-26.65 -37.45 -23.15 -38.0 Q-21.4 -38.35 -19.8 -39.0 -18.65 -39.5 -17.65 -40.15 -16.7 -40.8 -15.9 -41.8 L-15.3 -42.65 -14.4 -43.8 -13.35 -44.4 Q-12.8 -44.5 -12.35 -43.75 -11.65 -42.75 -10.1 -41.8 -8.55 -40.9 -6.8 -40.15 L-3.8 -39.0" fill="none" stroke="#000000" stroke-linecap="round" stroke-linejoin="round" stroke-width="1.0"/>
    <path d="M-2.3 -35.8 Q-2.6 -35.45 -3.2 -35.4 L-4.4 -35.4 -5.3 -35.55 -5.6 -35.6 -5.5 -35.1 Q-6.3 -33.6 -7.25 -33.15 L-9.35 -32.95 -11.85 -33.55 -14.4 -34.15 -18.15 -34.35 -21.2 -34.4 -24.05 -34.45 -27.2 -34.8 Q-28.65 -35.1 -29.1 -35.8 L-29.3 -36.25 -29.5 -36.6 -29.5 -36.75 Q-28.85 -36.15 -27.95 -35.9 L-26.4 -35.6 -25.55 -35.6 -20.8 -35.35 -15.35 -35.8 -14.1 -36.05 -12.7 -36.15 -11.25 -35.55 -9.9 -34.8 Q-9.1 -34.6 -8.25 -34.8 -7.45 -35.05 -6.75 -35.45 L-6.15 -36.0 -5.45 -36.5 -4.35 -36.4 Q-3.8 -36.25 -3.3 -36.4 -2.95 -36.6 -2.8 -36.95 L-2.25 -37.4 -2.1 -36.55 Q-2.05 -36.15 -2.3 -35.8" fill="#d8a235" fill-rule="evenodd" stroke="none"/>
    <path d="M-14.45 -39.3 L-13.9 -39.15 -13.05 -38.8 Q-12.7 -38.6 -13.25 -38.35 L-14.15 -38.25 -14.45 -39.3" fill="#d8a235" fill-rule="evenodd" stroke="none"/>
    <path d="M-6.95 -39.1 Q-8.6 -39.75 -11.1 -41.25 L-11.55 -41.6 -12.4 -42.3 -13.2 -42.6 -14.0 -42.2 Q-14.5 -41.75 -15.4 -41.7 L-15.05 -42.35 -14.2 -43.5 Q-13.7 -44.05 -13.3 -44.0 L-12.85 -43.85 -12.35 -43.2 -11.25 -42.25 -8.0 -40.2 Q-5.9 -39.1 -2.9 -38.5 -2.9 -38.45 -3.2 -38.35 L-4.45 -38.3 Q-5.35 -38.45 -6.95 -39.1" fill="#ffe4b3" fill-rule="evenodd" stroke="none"/>
    <path d="M-16.95 -49.6 Q-16.7 -47.85 -17.0 -46.15 -17.3 -44.55 -18.0 -43.2 L-24.65 -42.1 -29.35 -41.0 Q-30.7 -42.3 -31.6 -44.15 -32.45 -45.95 -32.7 -48.2 -32.95 -51.0 -32.15 -53.4 -31.3 -55.75 -29.65 -57.3 -28.05 -58.75 -25.85 -59.0 -22.5 -59.3 -20.05 -56.9 -17.65 -54.55 -16.95 -49.6" fill="#ffffff" fill-rule="evenodd" stroke="none"/>
    <path d="M-16.95 -49.6 Q-17.65 -54.55 -20.05 -56.9 -22.5 -59.3 -25.85 -59.0 -28.05 -58.75 -29.65 -57.3 -31.3 -55.75 -32.15 -53.4 -32.95 -51.0 -32.7 -48.2 -32.45 -45.95 -31.6 -44.15 -30.7 -42.3 -29.35 -41.0 L-24.65 -42.1 -18.0 -43.2 Q-17.3 -44.55 -17.0 -46.15 -16.7 -47.85 -16.95 -49.6" fill="none" stroke="#000000" stroke-linecap="round" stroke-linejoin="round" stroke-width="1.0"/>
    <path d="M-30.1 -49.45 Q-29.85 -46.9 -28.75 -45.1 -27.7 -43.2 -25.95 -42.2 L-29.2 -41.45 Q-31.85 -43.9 -32.3 -48.2 -32.55 -50.85 -31.8 -53.15 -31.1 -55.35 -29.6 -56.8 -28.1 -58.3 -26.1 -58.6 -28.15 -57.45 -29.25 -55.0 -30.35 -52.6 -30.1 -49.45" fill="#e5e2be" fill-rule="evenodd" stroke="none"/>
    <path d="M-21.6 -43.1 Q-23.1 -43.25 -23.95 -44.6 -24.8 -46.0 -24.65 -47.85 -24.45 -49.75 -23.35 -50.9 -22.2 -52.05 -20.7 -52.0 -19.25 -51.85 -18.35 -50.5 -17.5 -49.1 -17.65 -47.2 -17.9 -45.35 -19.0 -44.2 -20.1 -43.0 -21.6 -43.1" fill="#000000" fill-rule="evenodd" stroke="none"/>
    <path d="M-19.05 -49.05 Q-19.1 -48.3 -19.55 -47.85 -20.0 -47.35 -20.6 -47.4 L-21.5 -48.05 Q-21.85 -48.55 -21.8 -49.3 -21.75 -50.05 -21.3 -50.5 -20.85 -51.0 -20.2 -50.95 -19.65 -50.9 -19.3 -50.35 -18.95 -49.8 -19.05 -49.05" fill="#ffffff" fill-rule="evenodd" stroke="none"/>
    <path d="M-4.0 -58.1 Q-2.7 -56.95 -1.8 -55.0 -0.9 -52.95 -0.65 -50.35 -0.5 -49.15 -0.5 -47.7 -0.5 -46.25 -0.65 -44.95 -0.8 -43.6 -1.15 -42.75 -3.6 -43.75 -5.9 -44.1 -8.2 -44.45 -9.7 -44.1 -10.9 -46.3 -11.25 -49.35 -11.45 -51.95 -10.95 -54.1 -10.45 -56.25 -9.4 -57.6 -8.3 -58.95 -6.8 -59.1 -5.35 -59.2 -4.0 -58.1" fill="#ffffff" fill-rule="evenodd" stroke="none"/>
    <path d="M-4.0 -58.1 Q-5.35 -59.2 -6.8 -59.1 -8.3 -58.95 -9.4 -57.6 -10.45 -56.25 -10.95 -54.1 -11.45 -51.95 -11.25 -49.35 -10.9 -46.3 -9.7 -44.1 -8.2 -44.45 -5.9 -44.1 -3.6 -43.75 -1.15 -42.75 -0.8 -43.6 -0.65 -44.95 -0.5 -46.25 -0.5 -47.7 -0.5 -49.15 -0.65 -50.35 -0.9 -52.95 -1.8 -55.0 -2.7 -56.95 -4.0 -58.1" fill="none" stroke="#000000" stroke-linecap="round" stroke-linejoin="round" stroke-width="1.0"/>
    <path d="M-10.9 -50.95 Q-10.9 -53.5 -10.15 -55.45 -9.4 -57.35 -8.15 -58.25 -9.15 -56.15 -9.15 -53.2 L-9.05 -51.65 -8.6 -48.55 Q-8.2 -47.05 -7.6 -46.0 -7.0 -44.9 -6.05 -44.5 L-7.75 -44.55 -9.45 -44.6 -10.35 -46.8 -10.85 -49.4 -10.9 -50.95" fill="#e5e2be" fill-rule="evenodd" stroke="none"/>
    <path d="M-1.2 -48.15 Q-1.4 -46.6 -2.2 -45.65 -3.0 -44.7 -4.1 -44.7 -5.15 -44.85 -5.75 -45.95 -6.35 -47.05 -6.25 -48.65 -6.05 -50.2 -5.25 -51.15 -4.45 -52.1 -3.4 -52.05 -2.3 -51.9 -1.7 -50.8 -1.05 -49.7 -1.2 -48.15" fill="#000000" fill-rule="evenodd" stroke="none"/>
    <path d="M-1.8 -49.55 Q-1.9 -48.9 -2.2 -48.55 -2.55 -48.15 -3.05 -48.2 L-3.75 -48.7 -3.95 -49.7 -3.55 -50.7 Q-3.2 -51.1 -2.75 -51.05 L-2.05 -50.55 Q-1.75 -50.1 -1.8 -49.55" fill="#ffffff" fill-rule="evenodd" stroke="none"/>
  </g>
</svg>
