<?xml version="1.0" encoding="UTF-8" standalone="no"?>
<svg xmlns:xlink="http://www.w3.org/1999/xlink" height="124.15px" width="77.1px" xmlns="http://www.w3.org/2000/svg">
  <g transform="matrix(1, 0, 0, 1, 38.55, 62.1)">
    <path d="M-19.6 42.85 Q-20.7 44.05 -22.65 44.6 L-26.7 45.3 -30.3 45.4 -31.8 45.3 Q-33.2 44.95 -33.5 44.45 -33.8 43.9 -33.6 43.5 L-33.35 43.05 -30.55 42.6 -28.2 41.45 -26.5 40.15 -25.85 39.55 -19.6 42.85" fill="#333333" fill-rule="evenodd" stroke="none"/>
    <path d="M-25.85 39.55 L-26.5 40.15 -28.2 41.45 -30.55 42.6 -33.35 43.05 -33.6 43.5 Q-33.8 43.9 -33.5 44.45 -33.2 44.95 -31.8 45.3 L-30.3 45.4 -26.7 45.3 -22.65 44.6 Q-20.7 44.05 -19.6 42.85" fill="none" stroke="#000000" stroke-linecap="round" stroke-linejoin="round" stroke-width="2.0"/>
    <path d="M2.3 -61.0 Q7.05 -60.5 11.0 -58.35 14.95 -56.2 17.75 -52.8 20.6 -49.35 21.95 -45.1 23.3 -40.85 22.9 -36.05 22.75 -33.9 23.5 -30.25 24.15 -26.65 25.45 -22.25 L28.3 -13.3 31.35 -4.65 33.95 2.45 Q35.3 6.15 35.85 10.25 36.4 14.3 36.0 18.6 35.55 23.2 34.1 27.4 32.55 31.6 30.2 35.25 28.55 38.6 26.15 41.05 L21.15 45.65 Q18.55 47.85 16.3 50.55 L15.7 51.55 14.65 54.3 13.6 57.4 12.15 59.9 Q11.3 60.9 10.05 61.05 8.9 61.1 8.4 60.05 7.85 59.0 7.55 57.65 L6.7 55.4 Q5.3 53.35 3.65 52.7 1.9 52.05 -0.05 52.05 L-4.15 51.85 Q-11.8 51.05 -18.15 47.6 -24.55 44.1 -29.1 38.6 -33.65 33.1 -35.85 26.2 -38.05 19.3 -37.4 11.65 -36.6 3.7 -32.9 -2.8 -31.6 -5.2 -30.25 -8.85 L-27.6 -16.95 -25.3 -25.75 -23.55 -33.95 Q-22.85 -37.8 -22.6 -40.35 -22.15 -45.15 -20.0 -49.1 -17.85 -53.0 -14.45 -55.85 -11.0 -58.7 -6.75 -60.05 -2.45 -61.4 2.3 -61.0" fill="#666666" fill-rule="evenodd" stroke="none"/>
    <path d="M2.3 -61.0 Q-2.45 -61.4 -6.75 -60.05 -11.0 -58.7 -14.45 -55.85 -17.85 -53.0 -20.0 -49.1 -22.15 -45.15 -22.6 -40.35 -22.85 -37.8 -23.55 -33.95 L-25.3 -25.75 -27.6 -16.95 -30.25 -8.85 Q-31.6 -5.2 -32.9 -2.8 -36.6 3.7 -37.4 11.65 -38.05 19.3 -35.85 26.2 -33.65 33.1 -29.1 38.6 -24.55 44.1 -18.15 47.6 -11.8 51.05 -4.15 51.85 L-0.05 52.05 Q1.9 52.05 3.65 52.7 5.3 53.35 6.7 55.4 L7.55 57.65 Q7.85 59.0 8.4 60.05 8.9 61.1 10.05 61.05 11.3 60.9 12.15 59.9 L13.6 57.4 14.65 54.3 15.7 51.55 16.3 50.55 Q18.55 47.85 21.15 45.65 L26.15 41.05 Q28.55 38.6 30.2 35.25 32.55 31.6 34.1 27.4 35.55 23.2 36.0 18.6 36.4 14.3 35.85 10.25 35.3 6.15 33.95 2.45 L31.35 -4.65 28.3 -13.3 25.45 -22.25 Q24.15 -26.65 23.5 -30.25 22.75 -33.9 22.9 -36.05 23.3 -40.85 21.95 -45.1 20.6 -49.35 17.75 -52.8 14.95 -56.2 11.0 -58.35 7.05 -60.5 2.3 -61.0" fill="none" stroke="#000000" stroke-linecap="round" stroke-linejoin="round" stroke-width="2.0"/>
    <path d="M-14.85 -54.45 Q-11.9 -57.2 -8.0 -58.75 -11.1 -55.9 -12.9 -52.15 -14.75 -48.45 -15.15 -44.2 L-15.4 -41.4 -16.05 -34.55 Q-16.4 -31.1 -17.0 -28.2 L-17.8 -25.0 -18.85 -20.4 Q-19.35 -18.2 -19.35 -16.1 L-19.2 -14.45 Q-20.6 -15.2 -21.65 -14.8 -22.5 -14.45 -23.0 -13.6 L-23.9 -11.75 -24.45 -9.65 -24.7 -8.7 Q-25.45 -6.1 -26.35 -3.65 L-27.95 1.2 Q-28.7 3.7 -29.0 6.4 -29.65 13.85 -27.55 20.55 -25.5 27.25 -21.2 32.6 -16.95 38.0 -11.0 41.35 -5.0 44.7 2.15 45.5 10.05 46.25 16.9 43.85 23.65 41.45 29.05 36.05 26.95 39.65 24.05 42.65 L18.0 48.35 Q16.1 50.15 14.95 52.35 L12.65 56.75 Q11.45 58.95 9.6 60.6 9.35 60.65 8.8 59.6 L7.5 57.1 6.2 54.35 5.4 52.9 Q4.1 51.6 2.7 51.35 L-0.35 51.2 -4.1 51.15 Q-11.6 50.4 -17.8 47.0 -24.1 43.6 -28.55 38.2 -33.05 32.8 -35.2 26.05 -37.35 19.25 -36.7 11.75 -35.95 4.2 -32.3 -2.4 -31.0 -4.8 -29.6 -8.5 -28.25 -12.25 -27.0 -16.6 L-24.7 -25.45 -22.9 -33.75 Q-22.15 -37.65 -21.9 -40.3 -21.5 -44.5 -19.7 -48.1 -17.85 -51.75 -14.85 -54.45" fill="#333333" fill-rule="evenodd" stroke="none"/>
    <path d="M12.9 -55.35 Q14.15 -54.9 15.25 -53.8 L17.3 -51.45 18.9 -49.1 Q20.75 -44.95 20.9 -40.35 20.95 -38.25 22.15 -34.3 22.2 -32.05 22.9 -28.7 23.6 -25.35 24.8 -21.4 L27.3 -13.35 30.05 -5.5 32.5 1.25 32.9 2.3 Q35.05 8.2 35.1 14.5 L34.95 17.9 34.15 22.8 Q31.75 28.45 27.95 32.7 24.15 36.85 19.35 39.2 14.45 41.5 9.0 41.7 3.75 41.85 -1.15 39.9 -6.05 38.0 -10.15 34.2 -13.45 31.1 -15.8 27.2 -18.1 23.25 -19.4 18.75 -20.75 14.2 -20.85 9.4 L-20.9 8.2 Q-20.9 1.85 -18.85 -4.0 L-17.45 -9.4 -16.3 -16.45 -15.4 -24.15 -14.8 -31.55 -14.6 -37.7 -14.6 -39.2 -14.6 -39.95 Q-14.65 -42.95 -13.95 -45.85 -13.3 -48.8 -11.6 -51.05 -9.9 -53.35 -6.95 -54.4 L-4.9 -55.05 -2.5 -55.5 1.05 -55.35 Q2.9 -55.05 4.45 -54.2 6.0 -53.3 6.8 -51.9 6.45 -52.65 7.3 -53.65 8.1 -54.65 9.65 -55.25 L12.9 -55.35" fill="#cccccc" fill-rule="evenodd" stroke="none"/>
    <path d="M15.0 -54.1 L16.75 -52.25 18.15 -50.25 20.25 -46.65 Q21.15 -44.8 21.5 -42.75 L22.0 -38.7 22.35 -32.55 Q22.65 -29.55 23.4 -26.5 24.3 -22.7 25.5 -18.95 L27.95 -11.45 32.5 1.25 32.6 1.5 32.85 2.0 32.95 2.3 Q35.1 8.2 35.1 14.45 L34.95 17.9 34.1 22.8 Q31.45 29.2 27.0 33.7 22.55 38.1 16.85 40.2 22.1 37.65 26.1 32.95 30.05 28.25 32.25 21.75 L32.85 16.7 32.8 13.15 Q32.45 6.65 29.95 0.7 L29.55 -0.35 26.7 -7.2 23.55 -15.1 20.6 -23.25 Q19.2 -27.25 18.3 -30.7 17.4 -34.15 17.25 -36.45 15.85 -40.45 15.7 -42.6 15.25 -47.35 13.2 -51.5 L11.85 -53.4 10.1 -55.4 12.9 -55.35 15.0 -54.1" fill="#e5e5e5" fill-rule="evenodd" stroke="none"/>
    <path d="M-12.4 -49.85 Q-11.15 -52.0 -9.0 -53.4 -10.75 -51.1 -11.45 -48.15 -12.15 -45.25 -12.15 -42.2 L-12.1 -41.45 -12.1 -39.9 -12.3 -33.75 -12.85 -26.35 Q-13.25 -22.45 -13.8 -18.65 L-14.95 -11.65 -16.35 -6.25 Q-18.4 -0.4 -18.4 5.95 L-18.35 7.2 Q-18.25 12.0 -16.9 16.5 -15.6 21.0 -13.25 24.95 -10.95 28.85 -7.65 31.95 -3.6 35.75 1.35 37.7 6.2 39.65 11.5 39.5 15.8 39.3 19.8 37.8 23.75 36.25 27.15 33.55 23.45 37.3 18.8 39.45 14.2 41.55 9.0 41.8 3.75 41.9 -1.15 39.95 -6.05 38.0 -10.15 34.2 -13.45 31.1 -15.8 27.2 -18.1 23.3 -19.4 18.8 -20.75 14.3 -20.85 9.45 L-20.9 8.25 Q-20.9 1.9 -18.85 -3.95 L-17.45 -9.35 -16.3 -16.35 -15.4 -24.05 -14.8 -31.5 -14.6 -37.65 -14.6 -39.2 -14.6 -39.9 Q-14.65 -42.55 -14.15 -45.1 -13.6 -47.7 -12.4 -49.85" fill="#b4b4b4" fill-rule="evenodd" stroke="none"/>
    <path d="M13.9 -24.3 L13.65 -23.1 12.85 -20.25 Q12.35 -18.55 11.5 -16.75 10.7 -15.0 9.55 -13.8 8.35 -12.55 6.9 -12.3 5.35 -12.15 3.75 -13.2 2.1 -14.25 0.5 -15.85 L-2.35 -19.2 -4.4 -22.0 -5.2 -23.2 13.9 -24.3" fill="#b4b4b4" fill-rule="evenodd" stroke="none"/>
    <path d="M-19.3 -16.1 L-16.6 -16.2 -14.55 -15.9 -13.75 -15.65 -12.7 -14.7 Q-11.65 -13.85 -9.6 -12.85 -7.55 -11.85 -4.55 -11.45 L-0.7 -11.35 3.15 -11.65 6.45 -12.15 8.45 -12.65 9.0 -12.6 Q9.45 -12.55 9.8 -12.1 10.15 -11.65 9.75 -10.55 L8.65 -8.5 Q7.8 -7.0 6.2 -5.0 L2.35 -1.15 Q0.1 0.7 -2.8 1.95 -5.75 3.2 -9.3 3.3 -12.85 3.35 -17.0 1.7 -21.25 0.05 -26.0 -3.9 L-19.3 -16.1" fill="#666666" fill-rule="evenodd" stroke="none"/>
    <path d="M-26.0 -3.9 Q-21.25 0.05 -17.0 1.7 -12.85 3.35 -9.3 3.3 -5.75 3.2 -2.8 1.95 0.1 0.7 2.35 -1.15 L6.2 -5.0 Q7.8 -7.0 8.65 -8.5 L9.75 -10.55 Q10.15 -11.65 9.8 -12.1 9.45 -12.55 9.0 -12.6 L8.45 -12.65 6.45 -12.15 3.15 -11.65 -0.7 -11.35 -4.55 -11.45 Q-7.55 -11.85 -9.6 -12.85 -11.65 -13.85 -12.7 -14.7 L-13.75 -15.65 -14.55 -15.9 -16.6 -16.2 -19.3 -16.1" fill="none" stroke="#000000" stroke-linecap="round" stroke-linejoin="round" stroke-width="2.0"/>
    <path d="M-26.75 -5.45 Q-26.2 -6.25 -26.05 -7.1 L-25.7 -8.8 Q-25.5 -9.7 -24.75 -10.5 L-23.9 -11.05 -22.35 -11.9 -20.75 -12.35 Q-20.05 -12.4 -19.9 -11.9 L-18.85 -7.6 Q-18.25 -5.35 -16.9 -3.6 -15.55 -1.9 -13.0 -1.45 L-12.95 -1.45 -8.2 -1.3 -2.7 -1.65 3.0 -2.45 Q-0.55 0.6 -4.4 1.65 L-12.25 2.05 Q-16.2 1.4 -19.9 -0.55 -23.6 -2.5 -26.75 -5.45" fill="#333333" fill-rule="evenodd" stroke="none"/>
    <path d="M8.5 -12.3 L9.0 -12.2 9.45 -11.95 9.55 -11.35 9.4 -10.65 9.2 -10.2 7.8 -7.8 5.15 -4.35 Q3.5 -2.45 1.25 -0.75 -1.0 0.95 -3.85 2.05 -6.7 3.05 -10.15 2.9 -9.05 2.9 -7.35 2.2 -5.55 1.45 -3.5 0.2 L0.45 -2.55 Q2.35 -4.05 3.7 -5.6 5.0 -7.15 5.3 -8.45 5.4 -9.0 4.45 -9.3 L1.9 -9.8 -1.5 -10.1 -4.9 -10.45 -7.55 -11.1 Q-9.4 -11.8 -8.85 -11.65 L-4.6 -11.05 Q-2.2 -10.8 0.45 -11.0 L5.35 -11.6 8.5 -12.3" fill="#999999" fill-rule="evenodd" stroke="none"/>
    <path d="M19.95 -12.05 Q21.9 -12.3 23.6 -13.3 25.25 -14.3 26.55 -16.3 L27.05 -16.45 28.45 -16.55 Q29.35 -16.45 30.65 -15.65 L33.45 -13.0 Q36.5 -9.25 37.3 -6.9 38.1 -4.55 36.45 -3.6 L33.4 -2.4 Q31.2 -1.65 28.05 -1.45 24.9 -1.25 21.1 -2.2 17.35 -3.15 13.35 -5.85 11.6 -7.2 11.45 -8.45 11.3 -9.8 12.25 -10.75 13.2 -11.7 14.85 -11.9 L15.75 -11.9 19.95 -12.05" fill="#666666" fill-rule="evenodd" stroke="none"/>
    <path d="M19.95 -12.05 Q21.9 -12.3 23.6 -13.3 25.25 -14.3 26.55 -16.3 L27.05 -16.45 28.45 -16.55 Q29.35 -16.45 30.65 -15.65 L33.45 -13.0 Q36.5 -9.25 37.3 -6.9 38.1 -4.55 36.45 -3.6 L33.4 -2.4 Q31.2 -1.65 28.05 -1.45 24.9 -1.25 21.1 -2.2 17.35 -3.15 13.35 -5.85 11.6 -7.2 11.45 -8.45 11.3 -9.8 12.25 -10.75 13.2 -11.7 14.85 -11.9 L15.75 -11.9 19.95 -12.05" fill="none" stroke="#000000" stroke-linecap="round" stroke-linejoin="round" stroke-width="2.0"/>
    <path d="M14.85 -11.2 L15.65 -11.2 19.75 -11.3 Q21.8 -11.55 23.7 -12.55 25.5 -13.6 26.95 -15.7 L27.9 -15.9 Q28.65 -15.9 29.95 -15.25 31.15 -14.55 32.85 -12.55 L35.75 -8.45 Q37.0 -6.35 36.8 -5.15 36.7 -4.6 36.05 -4.2 L35.7 -4.05 Q36.25 -5.7 35.5 -7.6 L35.0 -8.6 Q34.1 -10.15 32.8 -11.2 31.5 -12.3 30.35 -12.6 L26.4 -12.25 22.65 -10.65 19.35 -9.25 Q17.7 -8.65 16.0 -8.65 14.25 -8.75 12.4 -9.8 12.75 -10.4 13.4 -10.75 L14.85 -11.2" fill="#999999" fill-rule="evenodd" stroke="none"/>
    <path d="M3.8 51.75 L4.75 51.6 7.0 51.15 9.75 50.45 Q11.15 50.0 12.15 49.4" fill="none" stroke="#000000" stroke-linecap="round" stroke-linejoin="round" stroke-width="1.0"/>
    <path d="M13.4 -24.3 L13.1 -23.15 11.95 -20.6 Q11.2 -19.15 9.95 -18.0 8.7 -16.85 6.85 -16.7 4.95 -16.7 2.8 -17.8 0.65 -18.9 -1.2 -20.4 L-4.35 -23.0 -5.6 -24.25 13.4 -24.3" fill="#d8a235" fill-rule="evenodd" stroke="none"/>
    <path d="M13.4 -24.3 L-5.6 -24.25 -4.35 -23.0 -1.2 -20.4 Q0.65 -18.9 2.8 -17.8 4.95 -16.7 6.85 -16.7 8.7 -16.85 9.95 -18.0 11.2 -19.15 11.95 -20.6 L13.1 -23.15 13.4 -24.3" fill="none" stroke="#000000" stroke-linecap="round" stroke-linejoin="round" stroke-width="1.0"/>
    <path d="M10.6 -23.6 L10.45 -22.85 9.95 -21.25 Q9.5 -20.35 8.65 -19.65 7.85 -18.95 6.5 -18.9 5.15 -18.9 3.85 -19.6 L1.3 -21.2 -0.5 -22.85 -1.25 -23.55 10.6 -23.6" fill="#c12d05" fill-rule="evenodd" stroke="none"/>
    <path d="M10.6 -23.6 L-1.25 -23.55 -0.5 -22.85 1.3 -21.2 3.85 -19.6 Q5.15 -18.9 6.5 -18.9 7.85 -18.95 8.65 -19.65 9.5 -20.35 9.95 -21.25 L10.45 -22.85 10.6 -23.6" fill="none" stroke="#000000" stroke-linecap="round" stroke-linejoin="round" stroke-width="1.0"/>
    <path d="M2.85 -23.2 Q3.65 -21.55 5.3 -20.8 6.9 -20.1 8.8 -20.25 8.0 -19.3 6.5 -19.2 5.2 -19.2 3.85 -19.95 L1.35 -21.6 -0.4 -23.2 0.8 -23.2 2.85 -23.2" fill="#9b0d0d" fill-rule="evenodd" stroke="none"/>
    <path d="M18.2 -27.85 L19.45 -27.4 19.75 -26.85 20.15 -25.65 Q20.25 -24.95 19.85 -24.4 19.45 -23.9 18.75 -23.85 L17.6 -23.85 17.0 -23.95 Q16.2 -22.3 15.25 -21.75 14.25 -21.2 13.15 -21.35 12.05 -21.45 10.8 -21.9 L8.25 -22.55 5.55 -22.75 2.9 -22.75 0.9 -22.8 -1.9 -22.9 -4.6 -23.35 Q-5.75 -23.7 -6.15 -24.4 L-6.7 -25.55 Q-6.7 -25.8 -6.0 -25.9 L-3.55 -26.25 -0.2 -26.85 Q1.5 -27.2 3.0 -27.9 L5.05 -29.05 6.7 -30.7 7.3 -31.6 8.15 -32.75 9.15 -33.35 Q9.65 -33.45 10.1 -32.7 10.75 -31.65 12.2 -30.7 13.7 -29.75 15.35 -29.05 L18.2 -27.85" fill="#f9c248" fill-rule="evenodd" stroke="none"/>
    <path d="M18.2 -27.85 L19.45 -27.4 19.75 -26.85 20.15 -25.65 Q20.25 -24.95 19.85 -24.4 19.45 -23.9 18.75 -23.85 L17.6 -23.85 17.0 -23.95 Q16.2 -22.3 15.25 -21.75 14.25 -21.2 13.15 -21.35 12.05 -21.45 10.8 -21.9 L8.25 -22.55 5.55 -22.75 2.9 -22.75 0.9 -22.8 -1.9 -22.9 -4.6 -23.35 Q-5.75 -23.7 -6.15 -24.4 L-6.7 -25.55 Q-6.7 -25.8 -6.0 -25.9 L-3.55 -26.25 -0.2 -26.85 Q1.5 -27.2 3.0 -27.9 L5.05 -29.05 6.7 -30.7 7.3 -31.6 8.15 -32.75 9.15 -33.35 Q9.65 -33.45 10.1 -32.7 10.75 -31.65 12.2 -30.7 13.7 -29.75 15.35 -29.05 L18.2 -27.85" fill="none" stroke="#000000" stroke-linecap="round" stroke-linejoin="round" stroke-width="1.0"/>
    <path d="M19.6 -24.55 Q19.35 -24.25 18.75 -24.15 L17.6 -24.15 16.8 -24.3 16.5 -24.4 16.55 -23.85 Q15.85 -22.3 14.9 -21.85 L12.9 -21.65 10.55 -22.3 8.1 -22.9 4.55 -23.1 1.6 -23.15 -1.05 -23.2 -4.1 -23.6 Q-5.45 -23.85 -5.85 -24.55 L-6.1 -25.0 -6.25 -25.4 -6.25 -25.55 -4.8 -24.7 -3.3 -24.4 -2.45 -24.35 2.05 -24.1 7.2 -24.55 8.4 -24.85 9.7 -24.9 11.1 -24.3 12.4 -23.6 13.95 -23.55 15.4 -24.2 15.95 -24.8 16.6 -25.3 17.65 -25.2 Q18.2 -25.0 18.65 -25.2 L19.15 -25.75 19.7 -26.2 19.8 -25.35 19.6 -24.55" fill="#d8a235" fill-rule="evenodd" stroke="none"/>
    <path d="M8.05 -28.15 L8.55 -28.0 9.4 -27.65 Q9.7 -27.4 9.2 -27.2 L8.35 -27.1 8.05 -28.15" fill="#d8a235" fill-rule="evenodd" stroke="none"/>
    <path d="M15.15 -27.95 Q13.6 -28.6 11.25 -30.15 L10.8 -30.5 10.0 -31.2 9.25 -31.55 8.5 -31.1 Q8.0 -30.7 7.15 -30.6 L7.5 -31.25 8.3 -32.45 Q8.75 -33.0 9.15 -32.95 L9.55 -32.8 10.05 -32.15 11.1 -31.15 Q12.2 -30.2 14.2 -29.1 16.2 -28.0 19.05 -27.35 19.05 -27.3 18.75 -27.2 18.4 -27.05 17.55 -27.2 16.7 -27.3 15.15 -27.95" fill="#ffe4b3" fill-rule="evenodd" stroke="none"/>
    <path d="M5.5 -38.3 Q5.7 -36.5 5.4 -34.8 5.15 -33.15 4.45 -31.75 L-1.85 -30.65 -6.35 -29.55 Q-7.6 -30.85 -8.45 -32.75 -9.3 -34.6 -9.5 -36.85 -9.75 -39.75 -9.0 -42.15 -8.2 -44.55 -6.65 -46.1 -5.1 -47.6 -3.0 -47.85 0.2 -48.15 2.5 -45.7 4.8 -43.3 5.5 -38.3" fill="#ffffff" fill-rule="evenodd" stroke="none"/>
    <path d="M5.5 -38.3 Q4.8 -43.3 2.5 -45.7 0.2 -48.15 -3.0 -47.85 -5.1 -47.6 -6.65 -46.1 -8.2 -44.55 -9.0 -42.15 -9.75 -39.75 -9.5 -36.85 -9.3 -34.6 -8.45 -32.75 -7.6 -30.85 -6.35 -29.55 L-1.85 -30.65 4.45 -31.75 Q5.15 -33.15 5.4 -34.8 5.7 -36.5 5.5 -38.3" fill="none" stroke="#000000" stroke-linecap="round" stroke-linejoin="round" stroke-width="1.0"/>
    <path d="M-7.05 -38.15 Q-6.8 -35.55 -5.8 -33.7 -4.8 -31.8 -3.15 -30.75 L-6.2 -30.0 Q-8.75 -32.45 -9.15 -36.9 -9.4 -39.6 -8.7 -41.9 -8.0 -44.15 -6.55 -45.65 -5.15 -47.15 -3.25 -47.45 -5.2 -46.3 -6.25 -43.8 -7.3 -41.35 -7.05 -38.15" fill="#e5e2be" fill-rule="evenodd" stroke="none"/>
    <path d="M0.95 -31.65 Q-0.5 -31.8 -1.3 -33.2 -2.1 -34.6 -1.95 -36.5 -1.75 -38.4 -0.7 -39.6 0.4 -40.75 1.8 -40.7 3.2 -40.55 4.05 -39.15 4.85 -37.75 4.7 -35.85 4.5 -33.95 3.4 -32.75 2.35 -31.55 0.95 -31.65" fill="#000000" fill-rule="evenodd" stroke="none"/>
    <path d="M3.45 -37.75 Q3.4 -36.95 3.0 -36.5 2.55 -36.0 2.0 -36.05 1.45 -36.1 1.15 -36.7 0.8 -37.2 0.85 -37.95 0.9 -38.75 1.35 -39.2 1.75 -39.7 2.35 -39.65 L3.25 -39.0 Q3.55 -38.5 3.45 -37.75" fill="#ffffff" fill-rule="evenodd" stroke="none"/>
    <path d="M17.8 -46.95 Q19.05 -45.8 19.9 -43.75 20.8 -41.7 21.05 -39.05 L21.15 -36.35 21.0 -33.55 20.55 -31.3 Q18.25 -32.35 16.0 -32.7 13.8 -33.05 12.4 -32.7 11.25 -34.95 10.95 -38.05 10.75 -40.65 11.2 -42.9 11.7 -45.05 12.7 -46.4 13.75 -47.8 15.15 -47.95 16.55 -48.05 17.8 -46.95" fill="#ffffff" fill-rule="evenodd" stroke="none"/>
    <path d="M17.8 -46.95 Q16.55 -48.05 15.15 -47.95 13.75 -47.8 12.7 -46.4 11.7 -45.05 11.2 -42.9 10.75 -40.65 10.95 -38.05 11.25 -34.95 12.4 -32.7 13.8 -33.05 16.0 -32.7 18.25 -32.35 20.55 -31.3 L21.0 -33.55 21.15 -36.35 21.05 -39.05 Q20.8 -41.7 19.9 -43.75 19.05 -45.8 17.8 -46.95" fill="none" stroke="#000000" stroke-linecap="round" stroke-linejoin="round" stroke-width="1.0"/>
    <path d="M11.2 -39.7 Q11.2 -42.25 11.9 -44.25 12.65 -46.2 13.8 -47.1 12.9 -44.95 12.9 -41.95 L12.95 -40.4 Q13.1 -38.75 13.4 -37.25 13.75 -35.75 14.35 -34.65 14.9 -33.5 15.8 -33.1 L14.2 -33.15 12.6 -33.2 11.7 -35.45 Q11.4 -36.6 11.25 -38.1 L11.2 -39.7" fill="#e5e2be" fill-rule="evenodd" stroke="none"/>
    <path d="M20.4 -36.8 Q20.2 -35.2 19.45 -34.25 18.7 -33.25 17.65 -33.3 16.65 -33.45 16.05 -34.55 15.5 -35.7 15.6 -37.3 15.75 -38.85 16.55 -39.85 17.3 -40.8 18.35 -40.75 19.35 -40.6 19.95 -39.5 20.55 -38.35 20.4 -36.8" fill="#000000" fill-rule="evenodd" stroke="none"/>
    <path d="M19.8 -38.2 L19.4 -37.2 Q19.1 -36.8 18.6 -36.85 18.2 -36.9 17.95 -37.35 17.7 -37.8 17.75 -38.4 17.8 -39.0 18.15 -39.4 18.45 -39.8 18.9 -39.75 19.3 -39.7 19.55 -39.25 19.85 -38.8 19.8 -38.2" fill="#ffffff" fill-rule="evenodd" stroke="none"/>
    <path d="M2.25 47.3 L1.3 47.9 -1.0 49.25 Q-2.4 50.05 -3.95 50.7 L-6.85 51.5 -7.25 52.65 -8.4 55.2 -10.2 58.15 Q-11.25 59.55 -12.5 60.35 -13.8 61.05 -15.25 60.6 L-15.6 60.1 Q-15.95 59.55 -15.95 58.5 L-15.55 56.0 -14.95 52.3 Q-14.75 50.3 -15.25 48.7 L2.25 47.3" fill="#333333" fill-rule="evenodd" stroke="none"/>
    <path d="M2.25 47.3 L1.3 47.9 -1.0 49.25 Q-2.4 50.05 -3.95 50.7 L-6.85 51.5 -7.25 52.65 -8.4 55.2 -10.2 58.15 Q-11.25 59.55 -12.5 60.35 -13.8 61.05 -15.25 60.6 L-15.6 60.1 Q-15.95 59.55 -15.95 58.5 L-15.55 56.0 -14.95 52.3 Q-14.75 50.3 -15.25 48.7" fill="none" stroke="#000000" stroke-linecap="round" stroke-linejoin="round" stroke-width="2.0"/>
  </g>
</svg>
