<?xml version="1.0" encoding="UTF-8" standalone="no"?>
<svg xmlns:xlink="http://www.w3.org/1999/xlink" height="120.25px" width="75.7px" xmlns="http://www.w3.org/2000/svg">
  <g transform="matrix(1, 0, 0, 1, 61.45, 74.7)">
    <path d="M-48.8 26.95 L-42.55 30.25 Q-43.65 31.45 -45.6 32.0 L-49.65 32.7 -53.25 32.8 -54.75 32.7 Q-56.15 32.35 -56.45 31.85 -56.75 31.3 -56.55 30.9 L-56.3 30.45 -53.5 30.0 -51.15 28.85 -49.45 27.55 -48.8 26.95" fill="#333333" fill-rule="evenodd" stroke="none"/>
    <path d="M-48.8 26.95 L-49.45 27.55 -51.15 28.85 -53.5 30.0 -56.3 30.45 -56.55 30.9 Q-56.75 31.3 -56.45 31.85 -56.15 32.35 -54.75 32.7 L-53.25 32.8 -49.65 32.7 -45.6 32.0 Q-43.65 31.45 -42.55 30.25" fill="none" stroke="#000000" stroke-linecap="round" stroke-linejoin="round" stroke-width="2.0"/>
    <path d="M2.55 -34.85 L5.4 -25.9 8.45 -17.25 11.05 -10.15 Q12.4 -6.45 12.95 -2.35 13.5 1.7 13.1 6.0 12.65 10.6 11.2 14.8 9.65 19.0 7.3 22.65 6.2 24.95 4.4 27.3 L0.55 31.65 -3.35 35.3 -6.35 37.8 -7.6 38.75 -7.05 39.55 -5.95 41.3 -4.9 42.95 Q-4.6 43.6 -4.8 43.95 L-5.35 44.4 Q-5.75 44.5 -5.75 44.55 -9.9 44.5 -12.6 43.6 -15.3 42.65 -16.85 41.4 L-19.15 39.15 Q-23.0 39.6 -27.05 39.25 -34.7 38.45 -41.05 35.0 -47.45 31.5 -52.0 26.0 -56.55 20.5 -58.75 13.6 -60.95 6.7 -60.3 -0.95 -59.5 -8.9 -55.8 -15.4 -54.5 -17.8 -53.15 -21.45 L-50.5 -29.55 -48.2 -38.35 -46.45 -46.55 Q-45.75 -50.4 -45.5 -52.95 -45.05 -57.75 -42.9 -61.7 -40.75 -65.6 -37.35 -68.45 -33.9 -71.3 -29.65 -72.65 -25.35 -74.0 -20.6 -73.6 -15.85 -73.1 -11.9 -70.95 -7.95 -68.8 -5.15 -65.4 -2.3 -61.95 -0.95 -57.7 0.4 -53.45 0.0 -48.65 -0.15 -46.5 0.6 -42.85 1.25 -39.25 2.55 -34.85" fill="#666666" fill-rule="evenodd" stroke="none"/>
    <path d="M2.55 -34.85 Q1.25 -39.25 0.6 -42.85 -0.15 -46.5 0.0 -48.65 0.4 -53.45 -0.95 -57.7 -2.3 -61.95 -5.15 -65.4 -7.95 -68.8 -11.9 -70.95 -15.85 -73.1 -20.6 -73.6 -25.35 -74.0 -29.65 -72.65 -33.9 -71.3 -37.35 -68.45 -40.75 -65.6 -42.9 -61.7 -45.05 -57.75 -45.5 -52.95 -45.75 -50.4 -46.45 -46.55 L-48.2 -38.35 -50.5 -29.55 -53.15 -21.45 Q-54.5 -17.8 -55.8 -15.4 -59.5 -8.9 -60.3 -0.95 -60.95 6.7 -58.75 13.6 -56.55 20.5 -52.0 26.0 -47.45 31.5 -41.05 35.0 -34.7 38.45 -27.05 39.25 -23.0 39.6 -19.15 39.15 L-16.85 41.4 Q-15.3 42.65 -12.6 43.6 -9.9 44.5 -5.75 44.55 -5.75 44.5 -5.35 44.4 L-4.8 43.95 Q-4.6 43.6 -4.9 42.95 L-5.95 41.3 -7.05 39.55 -7.6 38.75 -6.35 37.8 -3.35 35.3 0.55 31.65 4.4 27.3 Q6.2 24.95 7.3 22.65 9.65 19.0 11.2 14.8 12.65 10.6 13.1 6.0 13.5 1.7 12.95 -2.35 12.4 -6.45 11.05 -10.15 L8.45 -17.25 5.4 -25.9 2.55 -34.85" fill="none" stroke="#000000" stroke-linecap="round" stroke-linejoin="round" stroke-width="2.0"/>
    <path d="M-35.8 -64.75 Q-37.65 -61.05 -38.05 -56.8 L-38.3 -54.0 -38.95 -47.15 Q-39.3 -43.7 -39.9 -40.8 L-40.7 -37.6 -41.75 -33.0 Q-42.25 -30.8 -42.25 -28.7 L-42.1 -27.05 Q-43.5 -27.8 -44.55 -27.4 -45.4 -27.05 -45.9 -26.2 L-46.8 -24.35 -47.35 -22.25 -47.6 -21.3 Q-48.35 -18.7 -49.25 -16.25 L-50.85 -11.4 Q-51.6 -8.9 -51.9 -6.2 -52.55 1.25 -50.45 7.95 -48.4 14.65 -44.1 20.0 -39.85 25.4 -33.9 28.75 -27.9 32.1 -20.75 32.9 -12.85 33.65 -6.0 31.25 0.75 28.85 6.15 23.45 4.6 26.15 2.3 28.75 L-2.35 33.5 -6.3 36.9 -7.95 38.2 -8.5 38.6 -8.3 38.9 -6.15 42.4 -5.35 43.45 -5.5 43.4 -5.35 43.65 -5.85 43.9 Q-9.75 43.85 -12.3 42.95 -14.9 42.1 -16.4 40.95 L-18.55 38.75 -18.8 38.4 -19.2 38.45 Q-23.15 38.95 -27.0 38.55 -34.5 37.8 -40.7 34.4 -47.0 31.0 -51.45 25.6 -55.95 20.2 -58.1 13.45 -60.25 6.65 -59.6 -0.85 -58.85 -8.4 -55.2 -15.0 -53.9 -17.4 -52.5 -21.1 -51.15 -24.85 -49.9 -29.2 L-47.6 -38.05 -45.8 -46.35 Q-45.05 -50.25 -44.8 -52.9 -44.4 -57.1 -42.6 -60.7 -40.75 -64.35 -37.75 -67.05 -34.8 -69.8 -30.9 -71.35 -34.0 -68.5 -35.8 -64.75" fill="#333333" fill-rule="evenodd" stroke="none"/>
    <path d="M4.35 -25.95 L7.1 -18.1 9.55 -11.35 9.95 -10.3 Q12.1 -4.4 12.15 1.9 L12.0 5.3 11.2 10.2 Q8.8 15.85 5.0 20.1 1.2 24.25 -3.6 26.6 -8.5 28.9 -13.95 29.1 -19.2 29.25 -24.1 27.3 -29.0 25.4 -33.1 21.6 -36.4 18.5 -38.75 14.6 -41.05 10.65 -42.35 6.15 -43.7 1.6 -43.8 -3.2 L-43.85 -4.4 Q-43.85 -10.75 -41.8 -16.6 L-40.4 -22.0 -39.25 -29.05 -38.35 -36.75 -37.75 -44.15 -37.55 -50.3 -37.55 -51.8 -37.55 -52.55 Q-37.6 -55.55 -36.9 -58.45 -36.25 -61.4 -34.55 -63.65 -32.85 -65.95 -29.9 -67.0 L-27.85 -67.65 -25.45 -68.1 -21.9 -67.95 Q-20.05 -67.65 -18.5 -66.8 -16.95 -65.9 -16.15 -64.5 -16.5 -65.25 -15.65 -66.25 -14.85 -67.25 -13.3 -67.85 L-10.05 -67.95 Q-8.8 -67.5 -7.7 -66.4 L-5.65 -64.05 -4.05 -61.7 Q-2.2 -57.55 -2.05 -52.95 -2.0 -50.85 -0.8 -46.9 -0.75 -44.65 -0.05 -41.3 0.65 -37.95 1.85 -34.0 L4.35 -25.95" fill="#cccccc" fill-rule="evenodd" stroke="none"/>
    <path d="M4.4 -25.95 L7.1 -18.1 9.55 -11.35 10.0 -10.3 Q12.15 -4.4 12.15 1.85 L12.0 5.3 11.15 10.2 Q8.5 16.6 4.05 21.1 -0.4 25.5 -6.1 27.6 -0.85 25.05 3.15 20.35 7.1 15.65 9.3 9.15 L9.9 4.1 9.85 0.55 Q9.5 -5.95 7.0 -11.9 L6.6 -12.95 3.75 -19.8 0.6 -27.7 -2.35 -35.85 -4.65 -43.3 Q-5.55 -46.75 -5.7 -49.05 -7.1 -53.05 -7.25 -55.2 -7.7 -59.95 -9.75 -64.1 L-11.1 -66.0 -12.85 -68.0 -10.05 -67.95 Q-8.8 -67.5 -7.7 -66.4 L-5.65 -64.05 -4.05 -61.7 Q-2.2 -57.55 -2.05 -52.95 -2.0 -50.85 -0.8 -46.9 -0.75 -44.65 -0.05 -41.3 0.65 -37.95 1.85 -33.95 L4.4 -25.95" fill="#e5e5e5" fill-rule="evenodd" stroke="none"/>
    <path d="M-35.35 -62.45 Q-34.1 -64.6 -31.95 -66.0 -33.7 -63.7 -34.4 -60.75 -35.1 -57.85 -35.1 -54.8 L-35.05 -54.05 -35.05 -52.5 -35.25 -46.35 -35.8 -38.95 Q-36.2 -35.05 -36.75 -31.25 L-37.9 -24.25 -39.3 -18.85 Q-41.35 -13.0 -41.35 -6.65 L-41.3 -5.4 Q-41.2 -0.6 -39.85 3.9 -38.55 8.4 -36.2 12.35 -33.9 16.25 -30.6 19.35 -26.55 23.15 -21.6 25.1 -16.75 27.05 -11.45 26.9 -7.15 26.7 -3.15 25.2 0.8 23.65 4.2 20.95 0.5 24.7 -4.15 26.85 -8.75 28.95 -13.95 29.2 -19.2 29.3 -24.1 27.35 -29.0 25.4 -33.1 21.6 -36.4 18.5 -38.75 14.6 -41.05 10.7 -42.35 6.2 -43.7 1.7 -43.8 -3.15 L-43.85 -4.35 Q-43.85 -10.7 -41.8 -16.55 L-40.4 -21.95 -39.25 -28.95 -38.35 -36.65 -37.75 -44.1 -37.55 -50.25 -37.55 -51.8 -37.55 -52.5 Q-37.6 -55.15 -37.1 -57.7 -36.55 -60.3 -35.35 -62.45" fill="#b4b4b4" fill-rule="evenodd" stroke="none"/>
    <path d="M-9.05 -36.9 L-9.3 -35.7 -10.1 -32.85 Q-10.6 -31.15 -11.45 -29.35 -12.25 -27.6 -13.4 -26.4 -14.6 -25.15 -16.05 -24.9 -17.6 -24.75 -19.2 -25.8 -20.85 -26.85 -22.45 -28.45 L-25.3 -31.8 -27.35 -34.6 -28.15 -35.8 -9.05 -36.9" fill="#b4b4b4" fill-rule="evenodd" stroke="none"/>
    <path d="M-11.05 -33.2 Q-11.8 -31.75 -13.05 -30.6 -14.3 -29.45 -16.15 -29.3 -18.05 -29.3 -20.2 -30.4 -22.35 -31.5 -24.2 -33.0 L-27.35 -35.6 -28.6 -36.85 -9.6 -36.9 -9.9 -35.75 -11.05 -33.2" fill="#d8a235" fill-rule="evenodd" stroke="none"/>
    <path d="M-11.05 -33.2 L-9.9 -35.75 -9.6 -36.9 -28.6 -36.85 -27.35 -35.6 -24.2 -33.0 Q-22.35 -31.5 -20.2 -30.4 -18.05 -29.3 -16.15 -29.3 -14.3 -29.45 -13.05 -30.6 -11.8 -31.75 -11.05 -33.2" fill="none" stroke="#000000" stroke-linecap="round" stroke-linejoin="round" stroke-width="1.0"/>
    <path d="M-12.35 -36.2 L-12.5 -35.45 Q-12.6 -34.75 -13.0 -33.85 -13.45 -32.95 -14.3 -32.25 -15.1 -31.55 -16.45 -31.5 -17.8 -31.5 -19.1 -32.2 L-21.65 -33.8 -23.45 -35.45 -24.2 -36.15 -12.35 -36.2" fill="#c12d05" fill-rule="evenodd" stroke="none"/>
    <path d="M-12.35 -36.2 L-24.2 -36.15 -23.45 -35.45 -21.65 -33.8 -19.1 -32.2 Q-17.8 -31.5 -16.45 -31.5 -15.1 -31.55 -14.3 -32.25 -13.45 -32.95 -13.0 -33.85 -12.6 -34.75 -12.5 -35.45 L-12.35 -36.2" fill="none" stroke="#000000" stroke-linecap="round" stroke-linejoin="round" stroke-width="1.0"/>
    <path d="M-20.1 -35.8 Q-19.3 -34.15 -17.65 -33.4 -16.05 -32.7 -14.15 -32.85 -14.95 -31.9 -16.45 -31.8 -17.75 -31.8 -19.1 -32.55 L-21.6 -34.2 -23.35 -35.8 -22.15 -35.8 -20.1 -35.8" fill="#9b0d0d" fill-rule="evenodd" stroke="none"/>
    <path d="M-49.85 -11.6 L-44.65 -27.05 -43.4 -26.6 -40.0 -26.15 Q-37.85 -26.05 -35.2 -26.9 -33.05 -27.7 -30.85 -28.95 L-27.1 -31.4 -24.85 -33.15 -24.4 -33.35 -23.5 -33.2 Q-23.05 -32.9 -22.9 -31.8 L-22.9 -29.5 Q-23.0 -27.8 -23.45 -25.35 -23.95 -22.95 -25.0 -20.35 -26.1 -17.8 -28.0 -15.5 -29.9 -13.2 -32.8 -11.75 -35.75 -10.3 -39.95 -10.1 -44.2 -9.95 -49.85 -11.6" fill="#666666" fill-rule="evenodd" stroke="none"/>
    <path d="M-44.65 -27.05 L-43.4 -26.6 -40.0 -26.15 Q-37.85 -26.05 -35.2 -26.9 -33.05 -27.7 -30.85 -28.95 L-27.1 -31.4 -24.85 -33.15 -24.4 -33.35 -23.5 -33.2 Q-23.05 -32.9 -22.9 -31.8 L-22.9 -29.5 Q-23.0 -27.8 -23.45 -25.35 -23.95 -22.95 -25.0 -20.35 -26.1 -17.8 -28.0 -15.5 -29.9 -13.2 -32.8 -11.75 -35.75 -10.3 -39.95 -10.1 -44.2 -9.95 -49.85 -11.6" fill="none" stroke="#000000" stroke-linecap="round" stroke-linejoin="round" stroke-width="2.0"/>
    <path d="M-43.9 -16.2 Q-42.65 -15.1 -41.2 -14.6 -39.75 -14.15 -37.95 -14.6 -35.1 -15.6 -31.65 -17.5 -28.3 -19.4 -25.05 -21.85 -26.65 -17.7 -29.45 -15.2 -32.3 -12.7 -35.85 -11.7 -39.4 -10.75 -43.3 -11.05 -47.25 -11.35 -51.1 -12.75 -51.05 -13.7 -51.3 -14.5 L-51.7 -16.15 Q-51.95 -17.05 -51.65 -18.05 L-51.15 -18.95 -50.2 -20.3 -49.1 -21.3 -48.2 -21.25 -46.2 -18.65 -43.9 -16.2" fill="#333333" fill-rule="evenodd" stroke="none"/>
    <path d="M-33.05 -25.95 L-35.65 -25.3 Q-38.4 -25.15 -41.0 -25.95 L-39.7 -25.65 -37.05 -25.55 -33.65 -26.3 Q-32.0 -27.0 -30.25 -28.05 L-27.2 -30.15 -25.35 -31.8 -25.0 -31.9 -24.6 -31.9 -24.25 -31.5 -24.1 -30.95 -24.1 -30.5 -24.15 -28.3 Q-24.2 -26.8 -24.55 -24.85 -24.95 -22.9 -25.8 -20.85 -26.65 -18.85 -28.2 -17.1 -29.75 -15.35 -32.1 -14.2 -31.2 -14.7 -30.0 -16.3 -28.8 -18.0 -27.75 -20.15 -26.75 -22.4 -26.2 -24.45 -25.7 -26.55 -26.0 -27.9 -26.25 -28.45 -27.35 -28.15 L-29.95 -27.2 -33.05 -25.95" fill="#999999" fill-rule="evenodd" stroke="none"/>
    <path d="M6.6 -29.15 Q7.4 -28.9 8.45 -27.55 9.45 -26.25 10.0 -23.05 10.8 -18.25 10.35 -15.85 9.85 -13.4 7.95 -13.45 L4.65 -13.9 Q2.4 -14.4 -0.4 -15.8 -3.25 -17.2 -6.05 -19.85 -8.85 -22.55 -10.95 -26.95 -11.8 -28.95 -11.3 -30.15 -10.8 -31.35 -9.5 -31.7 L-6.6 -31.45 -5.85 -31.0 Q-4.05 -29.75 -2.15 -29.0 -0.3 -28.25 1.65 -28.25 3.6 -28.25 5.7 -29.35 L6.6 -29.15" fill="#666666" fill-rule="evenodd" stroke="none"/>
    <path d="M6.6 -29.15 Q7.4 -28.9 8.45 -27.55 9.45 -26.25 10.0 -23.05 10.8 -18.25 10.35 -15.85 9.85 -13.4 7.95 -13.45 L4.65 -13.9 Q2.4 -14.4 -0.4 -15.8 -3.25 -17.2 -6.05 -19.85 -8.85 -22.55 -10.95 -26.95 -11.8 -28.95 -11.3 -30.15 -10.8 -31.35 -9.5 -31.7 L-6.6 -31.45 -5.85 -31.0 Q-4.05 -29.75 -2.15 -29.0 -0.3 -28.25 1.65 -28.25 3.6 -28.25 5.7 -29.35 L6.6 -29.15" fill="none" stroke="#000000" stroke-linecap="round" stroke-linejoin="round" stroke-width="2.0"/>
    <path d="M5.8 -28.6 L6.75 -28.3 8.15 -26.7 Q8.85 -25.5 9.35 -22.95 L9.8 -17.95 Q9.8 -15.45 9.05 -14.55 8.65 -14.1 7.95 -14.1 L7.8 -14.1 7.5 -14.1 Q8.85 -15.3 9.15 -17.35 L9.25 -18.4 Q9.2 -20.2 8.6 -21.8 8.0 -23.35 7.15 -24.2 5.55 -25.5 3.6 -25.85 L-0.45 -26.4 -4.05 -26.8 Q-5.75 -27.15 -7.2 -28.0 -8.7 -28.95 -9.75 -30.8 L-8.4 -31.1 Q-7.7 -31.1 -6.95 -30.75 L-6.2 -30.35 Q-4.55 -29.25 -2.65 -28.4 -0.75 -27.6 1.4 -27.5 3.5 -27.45 5.8 -28.6" fill="#999999" fill-rule="evenodd" stroke="none"/>
    <path d="M-28.9 36.55 L-28.95 37.8 -28.5 40.75 Q-28.05 42.45 -26.8 44.0 L-26.8 44.1 -27.2 44.35 -28.7 44.3 -31.15 44.1 Q-32.65 43.9 -34.45 43.0 -36.35 42.1 -38.15 39.95 -40.0 37.75 -41.55 33.7 L-28.9 36.55" fill="#333333" fill-rule="evenodd" stroke="none"/>
    <path d="M-28.9 36.55 L-28.95 37.8 -28.5 40.75 Q-28.05 42.45 -26.8 44.0 L-26.8 44.1 -27.2 44.35 -28.7 44.3 -31.15 44.1 Q-32.65 43.9 -34.45 43.0 -36.35 42.1 -38.15 39.95 -40.0 37.75 -41.55 33.7" fill="none" stroke="#000000" stroke-linecap="round" stroke-linejoin="round" stroke-width="2.0"/>
    <path d="M-19.15 39.15 L-18.2 39.0 -15.95 38.55 -13.2 37.85 Q-11.8 37.4 -10.8 36.8" fill="none" stroke="#000000" stroke-linecap="round" stroke-linejoin="round" stroke-width="1.0"/>
    <path d="M-4.75 -40.45 L-3.5 -40.0 -3.2 -39.45 -2.8 -38.25 Q-2.7 -37.55 -3.1 -37.0 -3.5 -36.5 -4.2 -36.45 L-5.35 -36.45 -5.95 -36.55 Q-6.75 -34.9 -7.7 -34.35 -8.7 -33.8 -9.8 -33.95 -10.9 -34.05 -12.15 -34.5 L-14.7 -35.15 -17.4 -35.35 -20.05 -35.35 -22.05 -35.4 -24.85 -35.5 -27.55 -35.95 Q-28.7 -36.3 -29.1 -37.0 L-29.65 -38.15 Q-29.65 -38.4 -28.95 -38.5 L-26.5 -38.85 -23.15 -39.45 Q-21.45 -39.8 -19.95 -40.5 -18.85 -40.95 -17.9 -41.65 -17.0 -42.3 -16.25 -43.3 L-15.65 -44.2 -14.8 -45.35 Q-14.35 -45.85 -13.8 -45.95 -13.3 -46.05 -12.85 -45.3 -12.2 -44.25 -10.75 -43.3 -9.25 -42.35 -7.6 -41.65 L-4.75 -40.45" fill="#f9c248" fill-rule="evenodd" stroke="none"/>
    <path d="M-4.75 -40.45 L-3.5 -40.0 -3.2 -39.45 -2.8 -38.25 Q-2.7 -37.55 -3.1 -37.0 -3.5 -36.5 -4.2 -36.45 L-5.35 -36.45 -5.95 -36.55 Q-6.75 -34.9 -7.7 -34.35 -8.7 -33.8 -9.8 -33.95 -10.9 -34.05 -12.15 -34.5 L-14.7 -35.15 -17.4 -35.35 -20.05 -35.35 -22.05 -35.4 -24.85 -35.5 -27.55 -35.95 Q-28.7 -36.3 -29.1 -37.0 L-29.65 -38.15 Q-29.65 -38.4 -28.95 -38.5 L-26.5 -38.85 -23.15 -39.45 Q-21.45 -39.8 -19.95 -40.5 -18.85 -40.95 -17.9 -41.65 -17.0 -42.3 -16.25 -43.3 L-15.65 -44.2 -14.8 -45.35 Q-14.35 -45.85 -13.8 -45.95 -13.3 -46.05 -12.85 -45.3 -12.2 -44.25 -10.75 -43.3 -9.25 -42.35 -7.6 -41.65 L-4.75 -40.45" fill="none" stroke="#000000" stroke-linecap="round" stroke-linejoin="round" stroke-width="1.0"/>
    <path d="M-3.35 -37.15 Q-3.6 -36.85 -4.2 -36.75 L-5.35 -36.75 -6.15 -36.9 -6.45 -37.0 -6.4 -36.45 Q-7.1 -34.9 -8.05 -34.45 L-10.05 -34.25 -12.4 -34.9 -14.85 -35.5 -18.4 -35.7 -21.35 -35.75 -24.0 -35.8 -27.05 -36.2 Q-28.4 -36.45 -28.8 -37.15 L-29.05 -37.6 -29.2 -38.0 -29.2 -38.15 Q-28.55 -37.55 -27.75 -37.3 L-26.25 -37.0 -25.4 -36.95 -20.9 -36.7 -15.75 -37.15 -14.55 -37.45 -13.25 -37.5 Q-12.45 -37.35 -11.85 -36.9 L-10.55 -36.2 -9.0 -36.15 Q-8.25 -36.4 -7.55 -36.8 L-7.0 -37.4 -6.35 -37.9 -5.3 -37.8 Q-4.75 -37.6 -4.3 -37.8 -3.95 -38.0 -3.8 -38.35 L-3.25 -38.8 -3.15 -37.95 Q-3.1 -37.5 -3.35 -37.15" fill="#d8a235" fill-rule="evenodd" stroke="none"/>
    <path d="M-14.9 -40.75 L-14.4 -40.6 -13.55 -40.25 Q-13.25 -40.0 -13.75 -39.8 L-14.6 -39.7 -14.9 -40.75" fill="#d8a235" fill-rule="evenodd" stroke="none"/>
    <path d="M-7.8 -40.55 Q-9.35 -41.2 -11.7 -42.75 L-12.15 -43.1 -12.95 -43.8 -13.7 -44.15 -14.45 -43.7 Q-14.95 -43.3 -15.8 -43.2 L-15.45 -43.85 -14.65 -45.05 Q-14.2 -45.6 -13.8 -45.55 L-13.4 -45.4 -12.9 -44.75 -11.85 -43.75 Q-10.75 -42.8 -8.75 -41.7 -6.75 -40.6 -3.9 -39.95 -3.9 -39.9 -4.2 -39.8 -4.55 -39.65 -5.4 -39.8 L-7.8 -40.55" fill="#ffe4b3" fill-rule="evenodd" stroke="none"/>
  </g>
</svg>
