<?xml version="1.0" encoding="UTF-8" standalone="no"?>
<svg xmlns:xlink="http://www.w3.org/1999/xlink" height="42.1px" width="126.2px" xmlns="http://www.w3.org/2000/svg">
  <g transform="matrix(1, 0, 0, 1, 64.35, 21.25)">
    <path d="M38.55 -3.2 L40.95 -2.15 43.5 -0.85 45.75 0.75 Q46.75 1.55 47.15 2.4 47.55 3.25 47.15 4.05 46.95 4.4 45.5 4.95 L41.8 6.15 36.7 7.5 30.95 8.95 25.25 10.25 20.4 11.4 17.0 12.15 5.6 14.6 -6.05 16.45 -17.75 17.35 -29.4 16.85 -34.1 16.05 -37.05 15.05 -38.7 14.05 -39.35 13.25 Q-39.75 12.55 -40.4 12.2 -41.05 11.9 -41.8 11.7 L-43.15 11.15 -43.65 10.7 Q-43.95 10.45 -44.2 10.3 L-44.45 10.2 -44.95 10.0 -45.25 9.9 -51.45 10.6 -56.55 10.3 -59.95 9.65 -61.25 9.25 -62.9 8.1 -63.35 6.9 -63.1 6.05 -62.9 5.7 -54.2 4.3 -48.0 2.25 Q-45.55 1.2 -44.6 0.4 -43.65 -0.3 -42.75 -2.1 L-40.7 -6.5 -38.3 -12.65 Q-37.2 -15.25 -35.75 -16.75 -34.25 -18.3 -32.8 -19.05 L-30.4 -20.0 -29.45 -20.25 -13.1 -19.3 Q-4.95 -18.15 2.95 -16.1 10.95 -14.0 18.6 -11.3 27.95 -8.0 36.9 -3.9 L38.55 -3.2" fill="#497028" fill-rule="evenodd" stroke="none"/>
    <path d="M38.55 -3.2 L36.9 -3.9 Q27.95 -8.0 18.6 -11.3 10.95 -14.0 2.95 -16.1 -4.95 -18.15 -13.1 -19.3 L-29.45 -20.25 -30.4 -20.0 -32.8 -19.05 Q-34.25 -18.3 -35.75 -16.75 -37.2 -15.25 -38.3 -12.65 L-40.7 -6.5 -42.75 -2.1 Q-43.65 -0.3 -44.6 0.4 -45.55 1.2 -48.0 2.25 L-54.2 4.3 -62.9 5.7 -63.1 6.05 -63.35 6.9 -62.9 8.1 -61.25 9.25 -59.95 9.65 -56.55 10.3 -51.45 10.6 -45.25 9.9 -44.95 10.0 -44.45 10.2 -44.2 10.3 Q-43.95 10.45 -43.65 10.7 L-43.15 11.15 -41.8 11.7 Q-41.05 11.9 -40.4 12.2 -39.75 12.55 -39.35 13.25 L-38.7 14.05 -37.05 15.05 -34.1 16.05 -29.4 16.85 -17.75 17.35 -6.05 16.45 5.6 14.6 17.0 12.15 20.4 11.4 25.25 10.25 30.95 8.95 36.7 7.5 41.8 6.15 45.5 4.95 Q46.95 4.4 47.15 4.05 47.55 3.25 47.15 2.4 46.75 1.55 45.75 0.75 L43.5 -0.85 40.95 -2.15 38.55 -3.2" fill="none" stroke="#000000" stroke-linecap="round" stroke-linejoin="round" stroke-width="2.0"/>
    <path d="M42.4 -0.5 L30.7 -4.35 18.25 -8.2 5.65 -11.7 -6.55 -14.6 -17.7 -16.55 -27.3 -17.3 Q-29.65 -17.25 -31.35 -16.5 L-34.55 -14.7 -37.9 -12.45 -37.9 -12.5 Q-36.85 -14.95 -35.5 -16.4 L-32.8 -18.6 -30.5 -19.55 -29.4 -19.8 Q-18.75 -20.05 -6.9 -17.85 5.0 -15.6 18.5 -10.9 L27.65 -7.45 36.75 -3.55 37.85 -3.05 40.15 -2.05 42.85 -0.7 45.3 0.9 Q46.35 1.7 46.75 2.6 47.0 3.2 46.85 3.7 46.3 2.25 45.1 1.2 L42.4 -0.5" fill="#638c3b" fill-rule="evenodd" stroke="none"/>
    <path d="M43.35 5.4 L41.85 5.9 36.95 7.25 31.45 8.65 26.15 9.9 21.75 10.9 16.95 11.95 6.0 14.3 -5.55 16.2 -17.45 17.15 -29.4 16.65 -34.2 15.8 -37.1 14.8 -38.6 13.85 -39.1 13.2 Q-39.55 12.4 -40.2 12.1 -40.8 11.75 -41.6 11.55 L-43.0 11.0 -44.0 10.2 -44.05 10.15 -45.2 9.7 -45.25 9.7 -51.4 10.4 -56.45 10.1 -59.85 9.45 -61.15 9.1 -62.1 8.55 -62.9 7.7 Q-63.15 7.25 -62.9 6.65 -62.6 6.0 -61.95 5.8 L-61.55 5.85 -61.1 6.0 -60.9 6.05 Q-61.6 6.45 -61.55 6.8 L-60.95 7.5 -59.65 8.1 -58.3 8.55 -57.5 8.75 -55.05 8.95 -52.35 9.05 -50.0 8.75 -46.65 7.7 -44.05 6.85 -41.65 6.65 Q-40.45 6.8 -39.1 7.7 L-38.05 8.6 -37.35 9.5 -36.55 10.45 Q-35.45 11.4 -34.0 12.0 L-31.1 13.0 -28.15 13.4 Q-20.6 13.8 -14.05 13.6 L-1.6 12.8 9.85 11.3 20.75 9.35 31.9 7.25 43.35 5.4" fill="#3c5b1d" fill-rule="evenodd" stroke="none"/>
    <path d="M-25.6 -10.35 L-25.65 -10.6 -25.6 -10.8 -25.35 -10.9 -25.15 -10.8 -24.35 -9.85 Q-23.3 -8.45 -22.6 -6.9 -21.95 -5.4 -21.7 -3.95 -21.45 -2.1 -22.1 -0.25 -22.75 1.6 -24.55 3.3 -26.4 4.95 -28.9 5.85 -31.4 6.7 -33.95 6.8 -36.5 6.95 -37.95 6.05 -39.4 5.2 -40.45 3.2 L-41.0 1.55 -40.95 1.35 -40.75 1.2 -40.5 1.25 -40.4 1.4 -39.9 2.9 Q-38.95 4.7 -37.3 5.4 -35.65 6.1 -33.6 5.9 -31.5 5.65 -29.4 4.75 -27.3 3.8 -25.65 2.45 -23.95 1.05 -23.0 -0.6 -22.1 -2.25 -22.3 -3.85 L-22.3 -3.9 Q-22.55 -5.25 -23.15 -6.7 L-24.85 -9.45 -25.6 -10.35" fill="#000000" fill-rule="evenodd" stroke="none"/>
    <path d="M-22.2 -3.85 Q-22.05 -2.35 -22.8 -0.8 -23.6 0.75 -25.05 2.1 -26.5 3.4 -28.35 4.4 -30.2 5.35 -32.1 5.8 -34.9 6.45 -36.95 5.7 -38.95 4.95 -39.95 3.0 L-40.2 2.45 -36.1 2.9 -31.5 2.3 Q-29.25 1.7 -27.45 0.5 -25.75 -0.75 -24.55 -2.5 -23.35 -4.2 -22.85 -6.1 L-22.2 -3.85" fill="#3c5b1d" fill-rule="evenodd" stroke="none"/>
    <path d="M-45.85 10.15 L-45.2 10.0 -43.55 9.85 -41.2 9.95 -38.7 10.55" fill="none" stroke="#000000" stroke-linecap="round" stroke-linejoin="round" stroke-width="1.0"/>
    <path d="M-21.6 15.4 L-20.75 17.55 -19.9 18.95 Q-19.6 19.45 -19.65 19.6 L-19.7 19.8 -22.2 19.6 Q-23.25 19.3 -24.0 18.65 L-25.2 17.4 -25.8 16.3 -26.0 15.8 -21.6 15.4" fill="#3c5b1d" fill-rule="evenodd" stroke="none"/>
    <path d="M-26.0 15.8 L-25.8 16.3 -25.2 17.4 -24.0 18.65 Q-23.25 19.3 -22.2 19.6 L-19.7 19.8 -19.65 19.6 Q-19.6 19.45 -19.9 18.95 L-20.75 17.55 -21.6 15.4" fill="none" stroke="#000000" stroke-linecap="round" stroke-linejoin="round" stroke-width="2.0"/>
    <path d="M-28.5 -20.1 L-27.85 -20.05 Q-26.95 -19.5 -26.8 -18.65 -26.65 -17.75 -26.95 -16.9 L-27.5 -15.4 -27.85 -14.8 Q-28.85 -15.55 -29.9 -15.7 L-31.9 -15.6 -33.35 -15.1 -34.0 -14.8 -34.1 -15.25 -34.5 -16.2 -35.05 -17.35 Q-35.35 -17.85 -35.15 -18.05 L-34.7 -18.35 -34.4 -18.4 -32.15 -19.55 -30.05 -20.0 -28.5 -20.1" fill="#000000" fill-rule="evenodd" stroke="none"/>
    <path d="M44.55 -0.05 L48.0 -2.8 Q49.95 -4.3 52.15 -5.55 54.35 -6.85 56.6 -7.5 L60.85 -7.85 Q60.95 -6.55 60.3 -5.45 59.7 -4.4 58.7 -3.5 L56.75 -1.75 54.45 0.45 53.3 1.95 52.95 2.45 53.6 3.1 55.2 4.65 57.15 6.75 58.8 8.8 59.65 10.45 Q59.8 11.25 58.85 11.6 L55.9 11.45 Q53.95 11.0 51.3 9.4 48.65 7.8 45.45 4.75 L44.55 -0.05" fill="#497028" fill-rule="evenodd" stroke="none"/>
    <path d="M44.55 -0.05 L48.0 -2.8 Q49.95 -4.3 52.15 -5.55 54.35 -6.85 56.6 -7.5 L60.85 -7.85 Q60.95 -6.55 60.3 -5.45 59.7 -4.4 58.7 -3.5 L56.75 -1.75 54.45 0.45 53.3 1.95 52.95 2.45 53.6 3.1 55.2 4.65 57.15 6.75 58.8 8.8 59.65 10.45 Q59.8 11.25 58.85 11.6 L55.9 11.45 Q53.95 11.0 51.3 9.4 48.65 7.8 45.45 4.75" fill="none" stroke="#000000" stroke-linecap="round" stroke-linejoin="round" stroke-width="2.0"/>
    <path d="M54.25 8.5 Q54.7 8.85 55.3 8.95 L56.5 8.9 57.65 8.4 58.5 10.1 Q58.6 10.85 57.7 11.2 L55.05 11.05 Q53.25 10.6 50.8 9.1 48.35 7.55 45.4 4.65 L45.15 3.2 Q46.45 3.15 47.6 3.7 L49.85 5.1 52.05 6.9 Q53.1 7.85 54.25 8.5" fill="#3c5b1d" fill-rule="evenodd" stroke="none"/>
    <path d="M-16.35 -0.85 Q-16.45 0.05 -17.2 1.2 -18.5 3.05 -19.65 4.1 L-21.5 5.45 -22.25 5.85 -21.7 5.2 -20.45 3.45 -19.05 1.05 Q-18.45 -0.35 -18.2 -1.8 -18.0 -3.25 -18.45 -4.65 L-18.1 -4.4 -17.3 -3.7 Q-16.85 -3.2 -16.55 -2.5 -16.3 -1.75 -16.35 -0.85" fill="#3c5b1d" fill-rule="evenodd" stroke="none"/>
    <path d="M-43.25 -0.4 L-43.35 0.05 -44.15 1.3 -46.45 3.2 Q-47.85 4.1 -49.85 4.65 L-53.9 5.5 -57.85 5.95 -60.75 6.05 -61.95 6.1 -53.65 4.5 Q-50.25 3.65 -48.2 2.8 -46.15 1.95 -45.05 1.2 L-43.6 0.05 -43.25 -0.4" fill="#638c3b" fill-rule="evenodd" stroke="none"/>
  </g>
</svg>
