<?xml version="1.0" encoding="UTF-8" standalone="no"?>
<svg xmlns:xlink="http://www.w3.org/1999/xlink" height="198.55px" width="180.4px" xmlns="http://www.w3.org/2000/svg">
  <g transform="matrix(1, 0, 0, 1, 141.65, 222.45)">
    <path d="M-70.45 -111.5 Q-69.4 -106.8 -69.9 -102.95 -70.45 -99.15 -71.8 -96.3 -73.15 -93.45 -74.65 -91.65 -76.05 -89.9 -76.9 -89.25 -78.4 -88.1 -80.25 -89.7 -82.15 -91.3 -84.5 -95.55 -85.65 -97.65 -85.9 -99.1 -86.15 -100.6 -85.9 -101.45 L-85.35 -102.75 -85.0 -103.1 Q-82.65 -103.6 -81.15 -104.75 -79.6 -106.0 -78.6 -107.7 -77.65 -109.45 -77.0 -111.5 L-76.65 -112.35 Q-75.85 -113.8 -74.55 -114.35 L-72.15 -114.2 Q-71.0 -113.6 -70.45 -111.5" fill="#666666" fill-rule="evenodd" stroke="none"/>
    <path d="M-70.45 -111.5 Q-71.0 -113.6 -72.15 -114.2 L-74.55 -114.35 Q-75.85 -113.8 -76.65 -112.35 L-77.0 -111.5 Q-77.65 -109.45 -78.6 -107.7 -79.6 -106.0 -81.15 -104.75 -82.65 -103.6 -85.0 -103.1 L-85.35 -102.75 -85.9 -101.45 Q-86.15 -100.6 -85.9 -99.1 -85.65 -97.65 -84.5 -95.55 -82.15 -91.3 -80.25 -89.7 -78.4 -88.1 -76.9 -89.25 -76.05 -89.9 -74.65 -91.65 -73.15 -93.45 -71.8 -96.3 -70.45 -99.15 -69.9 -102.95 -69.4 -106.8 -70.45 -111.5" fill="none" stroke="#000000" stroke-linecap="round" stroke-linejoin="round" stroke-width="2.0"/>
    <path d="M-73.8 -113.8 Q-73.5 -111.7 -74.05 -110.1 -74.65 -108.45 -75.8 -107.15 L-78.4 -104.6 -81.2 -101.75 Q-82.55 -100.2 -82.95 -98.2 -83.1 -97.0 -82.6 -95.4 -82.1 -93.85 -81.05 -92.4 L-80.25 -91.6 Q-78.8 -90.2 -77.05 -90.1 L-77.3 -89.8 Q-77.9 -89.4 -78.5 -89.5 -79.65 -89.75 -81.15 -91.65 -82.4 -93.25 -83.9 -95.9 -85.1 -98.2 -85.3 -99.55 -85.45 -101.0 -85.15 -101.65 L-84.65 -102.5 Q-82.1 -103.0 -80.5 -104.35 -78.9 -105.7 -77.9 -107.55 -76.9 -109.4 -76.3 -111.3 L-76.0 -112.05 -75.05 -113.2 Q-74.45 -113.7 -73.8 -113.8" fill="#999999" fill-rule="evenodd" stroke="none"/>
    <path d="M-101.35 -32.45 Q-101.7 -31.25 -102.75 -30.1 L-105.25 -28.05 Q-106.75 -27.15 -108.1 -26.5 -109.45 -25.8 -110.35 -25.45 L-111.3 -25.05 -113.2 -25.1 Q-113.7 -25.5 -113.7 -25.95 L-113.65 -26.45 Q-112.35 -27.0 -111.3 -28.0 L-109.65 -30.1 -108.7 -31.95 -108.4 -32.8 -101.35 -32.45" fill="#333333" fill-rule="evenodd" stroke="none"/>
    <path d="M-108.4 -32.8 L-108.7 -31.95 -109.65 -30.1 -111.3 -28.0 Q-112.35 -27.0 -113.65 -26.45 L-113.7 -25.95 Q-113.7 -25.5 -113.2 -25.1 L-111.3 -25.05 -110.35 -25.45 Q-109.45 -25.8 -108.1 -26.5 -106.75 -27.15 -105.25 -28.05 L-102.75 -30.1 Q-101.7 -31.25 -101.35 -32.45" fill="none" stroke="#000000" stroke-linecap="round" stroke-linejoin="round" stroke-width="2.0"/>
    <path d="M-139.3 -106.3 Q-140.85 -110.75 -140.6 -115.25 -140.35 -119.7 -138.45 -123.7 -136.55 -127.7 -133.25 -130.75 -130.0 -133.8 -125.55 -135.4 -121.05 -137.0 -116.55 -136.75 -112.1 -136.5 -108.1 -134.6 -104.1 -132.7 -101.05 -129.4 -98.0 -126.15 -96.35 -121.65 -95.6 -119.6 -93.4 -116.65 L-88.2 -110.25 -81.85 -103.4 -75.5 -96.85 -70.15 -91.6 Q-67.3 -88.75 -65.05 -85.3 -62.85 -81.9 -61.4 -77.85 L-59.45 -71.85 Q-58.55 -68.7 -58.15 -65.6 -57.7 -62.55 -58.1 -59.65 -58.1 -55.5 -59.05 -52.5 -60.0 -49.55 -61.5 -47.2 L-64.75 -42.65 Q-66.75 -40.05 -69.4 -38.05 -72.1 -36.05 -74.9 -34.65 -77.65 -33.25 -80.0 -32.3 L-83.6 -30.85 Q-89.25 -28.5 -95.0 -28.25 -100.75 -28.05 -106.2 -29.75 -111.7 -31.4 -116.45 -34.7 -121.25 -38.0 -124.85 -42.65 -128.5 -47.3 -130.55 -53.05 -131.9 -56.8 -132.4 -60.5 -132.95 -64.3 -132.65 -67.95 -132.5 -70.75 -132.85 -74.6 -133.2 -78.55 -133.9 -83.0 L-135.55 -91.95 -137.4 -100.1 -139.3 -106.3" fill="#666666" fill-rule="evenodd" stroke="none"/>
    <path d="M-139.3 -106.3 L-137.4 -100.1 -135.55 -91.95 -133.9 -83.0 Q-133.2 -78.55 -132.85 -74.6 -132.5 -70.75 -132.65 -67.95 -132.95 -64.3 -132.4 -60.5 -131.9 -56.8 -130.55 -53.05 -128.5 -47.3 -124.85 -42.65 -121.25 -38.0 -116.45 -34.7 -111.7 -31.4 -106.2 -29.75 -100.75 -28.05 -95.0 -28.25 -89.25 -28.5 -83.6 -30.85 L-80.0 -32.3 Q-77.65 -33.25 -74.9 -34.65 -72.1 -36.05 -69.4 -38.05 -66.75 -40.05 -64.75 -42.65 L-61.5 -47.2 Q-60.0 -49.55 -59.05 -52.5 -58.1 -55.5 -58.1 -59.65 -57.7 -62.55 -58.15 -65.6 -58.55 -68.7 -59.45 -71.85 L-61.4 -77.85 Q-62.85 -81.9 -65.05 -85.3 -67.3 -88.75 -70.15 -91.6 L-75.5 -96.85 -81.85 -103.4 -88.2 -110.25 -93.4 -116.65 Q-95.6 -119.6 -96.35 -121.65 -98.0 -126.15 -101.05 -129.4 -104.1 -132.7 -108.1 -134.6 -112.1 -136.5 -116.55 -136.75 -121.05 -137.0 -125.55 -135.4 -130.0 -133.8 -133.25 -130.75 -136.55 -127.7 -138.45 -123.7 -140.35 -119.7 -140.6 -115.25 -140.85 -110.75 -139.3 -106.3" fill="none" stroke="#000000" stroke-linecap="round" stroke-linejoin="round" stroke-width="2.0"/>
    <path d="M-136.75 -100.15 Q-137.75 -103.95 -138.65 -106.45 -140.05 -110.45 -139.95 -114.5 -139.8 -118.5 -138.3 -122.25 -136.75 -125.95 -133.85 -129.0 -135.5 -125.15 -135.55 -121.0 -135.65 -116.85 -134.2 -112.85 L-133.25 -110.2 -130.9 -103.75 -129.1 -97.65 -128.5 -94.4 -127.5 -89.8 Q-126.95 -87.65 -126.05 -85.7 L-125.25 -84.3 Q-126.85 -84.35 -127.65 -83.55 -128.5 -82.55 -128.4 -80.9 L-127.95 -77.75 -127.75 -76.75 -127.15 -71.5 -126.55 -66.45 Q-126.15 -63.9 -125.25 -61.35 -122.7 -54.35 -117.95 -49.15 -113.3 -44.0 -107.15 -40.95 -101.05 -37.95 -94.2 -37.4 -87.45 -36.9 -80.65 -39.2 -76.85 -40.6 -73.25 -42.5 -69.65 -44.45 -66.55 -47.0 -63.5 -49.55 -61.3 -52.7 -59.1 -55.85 -58.15 -59.55 -58.6 -56.6 -59.55 -53.95 -60.55 -51.3 -61.75 -48.95 L-64.1 -44.8 -65.9 -41.65 -69.15 -39.15 -72.4 -36.9 -75.2 -34.4 Q-75.75 -34.65 -76.15 -34.85 L-76.5 -35.05 -76.85 -34.85 Q-80.2 -32.75 -83.85 -31.45 -89.5 -29.45 -95.2 -29.35 -100.9 -29.25 -106.25 -30.85 -111.6 -32.45 -116.2 -35.55 -120.85 -38.7 -124.35 -43.1 -127.9 -47.6 -129.95 -53.25 -132.5 -60.4 -132.0 -67.85 -131.8 -70.6 -132.15 -74.55 -132.5 -78.45 -133.2 -82.95 L-134.8 -91.9 -136.75 -100.15" fill="#333333" fill-rule="evenodd" stroke="none"/>
    <path d="M-131.1 -125.45 L-129.5 -126.9 -127.5 -128.3 Q-126.1 -129.2 -124.25 -129.7 L-120.7 -130.1 Q-118.95 -129.95 -117.65 -129.0 -118.1 -129.4 -118.0 -130.25 L-117.35 -132.05 Q-116.85 -133.0 -115.85 -133.75 -114.9 -134.5 -113.55 -134.7 L-110.8 -134.3 Q-109.35 -133.85 -107.9 -133.05 L-105.5 -131.6 Q-102.1 -128.7 -99.95 -124.55 -99.05 -122.7 -96.3 -119.65 -95.35 -117.6 -93.25 -114.85 L-88.45 -109.05 -82.8 -102.9 -76.95 -97.0 -71.9 -91.95 -71.1 -91.15 Q-66.65 -86.75 -63.95 -81.1 L-62.65 -77.95 Q-61.85 -75.65 -61.35 -73.15 -61.05 -67.1 -62.7 -61.7 -64.35 -56.3 -67.75 -52.15 -71.15 -47.95 -76.0 -45.5 -80.65 -43.15 -85.9 -42.8 -91.2 -42.45 -96.5 -44.15 -102.9 -46.3 -108.1 -50.9 -113.3 -55.5 -116.65 -62.0 L-117.15 -63.05 Q-119.85 -68.8 -120.5 -74.95 -120.75 -77.2 -121.5 -80.35 L-123.4 -87.2 -125.85 -94.55 -128.45 -101.45 -130.9 -107.15 -131.55 -108.5 -131.9 -109.15 Q-133.2 -111.9 -133.8 -114.8 -134.4 -117.75 -133.85 -120.45 -133.3 -123.25 -131.1 -125.45" fill="#cccccc" fill-rule="evenodd" stroke="none"/>
    <path d="M-107.9 -133.1 L-105.45 -131.65 Q-102.1 -128.75 -99.95 -124.6 -99.0 -122.7 -96.3 -119.65 -95.3 -117.6 -93.25 -114.9 L-88.45 -109.1 -82.75 -102.95 -76.95 -97.0 -71.85 -91.95 -71.05 -91.2 Q-66.65 -86.8 -63.95 -81.1 L-62.65 -77.95 Q-61.8 -75.65 -61.3 -73.2 -61.0 -66.3 -63.15 -60.35 -65.25 -54.45 -69.5 -50.15 -65.85 -54.7 -64.25 -60.65 -62.65 -66.6 -63.4 -73.35 -64.05 -75.85 -65.05 -78.15 L-66.55 -81.35 Q-69.6 -87.05 -74.4 -91.35 L-75.25 -92.15 -80.7 -97.1 -86.95 -102.9 -93.05 -109.0 -98.25 -114.75 Q-100.5 -117.45 -101.6 -119.5 -104.55 -122.5 -105.65 -124.35 -108.0 -128.55 -111.65 -131.4 L-113.7 -132.5 -116.05 -133.6 Q-115.05 -134.5 -113.5 -134.7 L-110.8 -134.35 -107.9 -133.1" fill="#e5e5e5" fill-rule="evenodd" stroke="none"/>
    <path d="M-130.65 -112.25 L-130.3 -111.6 -129.65 -110.25 -127.25 -104.55 -124.6 -97.6 -122.15 -90.3 -120.25 -83.45 Q-119.5 -80.3 -119.25 -78.05 -118.6 -71.9 -115.9 -66.15 L-115.4 -65.05 Q-112.05 -58.6 -106.85 -54.0 -101.65 -49.4 -95.25 -47.25 -89.95 -45.55 -84.7 -45.85 -79.45 -46.2 -74.75 -48.55 -70.9 -50.55 -67.95 -53.55 -65.05 -56.65 -63.1 -60.5 -64.9 -55.55 -68.15 -51.7 -71.45 -47.8 -76.05 -45.45 -80.7 -43.1 -85.95 -42.75 -91.25 -42.45 -96.5 -44.15 -102.95 -46.3 -108.15 -50.9 -113.4 -55.5 -116.65 -61.95 L-117.2 -63.05 Q-119.9 -68.8 -120.55 -74.9 -120.8 -77.15 -121.55 -80.35 -122.35 -83.55 -123.5 -87.2 -124.6 -90.85 -125.95 -94.5 L-128.5 -101.45 -130.95 -107.15 -131.65 -108.5 -131.95 -109.15 Q-133.1 -111.55 -133.7 -114.05 -134.35 -116.6 -134.1 -119.05 -133.9 -121.55 -132.55 -123.7 -133.15 -120.9 -132.55 -117.95 -131.95 -115.0 -130.65 -112.25" fill="#b4b4b4" fill-rule="evenodd" stroke="none"/>
    <path d="M-99.55 -107.15 L-99.25 -106.0 -98.75 -103.1 Q-98.5 -101.35 -98.5 -99.4 -98.55 -97.5 -99.05 -95.85 -99.55 -94.2 -100.8 -93.35 -102.1 -92.65 -104.0 -92.85 -105.95 -93.1 -108.05 -93.9 -110.2 -94.7 -112.05 -95.7 -113.95 -96.65 -115.1 -97.35 L-116.3 -98.1 -99.55 -107.15" fill="#b4b4b4" fill-rule="evenodd" stroke="none"/>
    <path d="M-74.7 -43.2 L-73.5 -42.45 -70.7 -40.45 -67.55 -37.2 Q-66.0 -35.25 -65.2 -32.75 L-65.45 -32.4 -66.15 -31.75 -67.25 -31.6 -69.4 -32.1 -73.15 -32.85 -77.1 -33.2 Q-78.95 -33.2 -79.85 -32.45 L-74.7 -43.2" fill="#333333" fill-rule="evenodd" stroke="none"/>
    <path d="M-74.7 -43.2 L-73.5 -42.45 -70.7 -40.45 -67.55 -37.2 Q-66.0 -35.25 -65.2 -32.75 L-65.45 -32.4 -66.15 -31.75 -67.25 -31.6 -69.4 -32.1 -73.15 -32.85 -77.1 -33.2 Q-78.95 -33.2 -79.85 -32.45" fill="none" stroke="#000000" stroke-linecap="round" stroke-linejoin="round" stroke-width="2.0"/>
    <path d="M-59.0 -60.1 L-57.8 -59.55 Q-56.7 -59.0 -55.05 -57.9 L-51.75 -55.25 Q-50.2 -53.65 -49.15 -51.65 L-49.3 -51.3 -49.8 -50.65 Q-50.15 -50.3 -50.6 -50.3 L-52.45 -50.45 -55.55 -50.5 -58.75 -50.15 Q-60.25 -49.85 -60.85 -49.15 L-59.0 -60.1" fill="#333333" fill-rule="evenodd" stroke="none"/>
    <path d="M-59.0 -60.1 L-57.8 -59.55 Q-56.7 -59.0 -55.05 -57.9 L-51.75 -55.25 Q-50.2 -53.65 -49.15 -51.65 L-49.3 -51.3 -49.8 -50.65 Q-50.15 -50.3 -50.6 -50.3 L-52.45 -50.45 -55.55 -50.5 -58.75 -50.15 Q-60.25 -49.85 -60.85 -49.15" fill="none" stroke="#000000" stroke-linecap="round" stroke-linejoin="round" stroke-width="2.0"/>
    <path d="M-113.45 -116.45 Q-111.75 -113.55 -111.6 -110.65 -114.55 -108.75 -116.7 -106.85 L-120.15 -103.5 Q-121.95 -104.1 -123.55 -105.5 -125.15 -106.85 -126.35 -108.85 -127.8 -111.35 -128.1 -113.85 -128.45 -116.35 -127.65 -118.4 -126.9 -120.45 -125.15 -121.55 -123.3 -122.55 -121.2 -122.25 -119.0 -121.95 -116.95 -120.45 -114.95 -118.95 -113.45 -116.45" fill="#ffffff" fill-rule="evenodd" stroke="none"/>
    <path d="M-113.45 -116.45 Q-114.95 -118.95 -116.95 -120.45 -119.0 -121.95 -121.2 -122.25 -123.3 -122.55 -125.15 -121.55 -126.9 -120.45 -127.65 -118.4 -128.45 -116.35 -128.1 -113.85 -127.8 -111.35 -126.35 -108.85 -125.15 -106.85 -123.55 -105.5 -121.95 -104.1 -120.15 -103.5 L-116.7 -106.85 Q-114.55 -108.75 -111.6 -110.65 -111.75 -113.55 -113.45 -116.45" fill="none" stroke="#000000" stroke-linecap="round" stroke-linejoin="round" stroke-width="1.0"/>
    <path d="M-127.6 -118.0 Q-126.95 -119.85 -125.45 -120.9 -126.7 -119.1 -126.6 -116.45 -126.45 -113.85 -124.85 -111.15 -123.55 -109.0 -121.8 -107.7 -120.05 -106.35 -118.2 -106.05 L-120.2 -104.0 Q-121.85 -104.6 -123.45 -105.95 -124.95 -107.3 -126.1 -109.2 -127.45 -111.5 -127.85 -113.8 -128.2 -116.1 -127.6 -118.0" fill="#e5e2be" fill-rule="evenodd" stroke="none"/>
    <path d="M-99.0 -123.95 Q-97.7 -121.8 -97.2 -119.7 -96.75 -117.55 -97.1 -115.9 -100.95 -115.45 -104.3 -114.25 -106.4 -115.75 -108.1 -118.55 -109.4 -120.85 -109.9 -123.0 -110.35 -125.25 -110.0 -126.9 -109.65 -128.6 -108.35 -129.4 L-105.4 -129.65 Q-103.75 -129.15 -102.05 -127.65 -100.35 -126.2 -99.0 -123.95" fill="#ffffff" fill-rule="evenodd" stroke="none"/>
    <path d="M-99.0 -123.95 Q-100.35 -126.2 -102.05 -127.65 -103.75 -129.15 -105.4 -129.65 L-108.35 -129.4 Q-109.65 -128.6 -110.0 -126.9 -110.35 -125.25 -109.9 -123.0 -109.4 -120.85 -108.1 -118.55 -106.4 -115.75 -104.3 -114.25 -100.95 -115.45 -97.1 -115.9 -96.75 -117.55 -97.2 -119.7 -97.7 -121.8 -99.0 -123.95" fill="none" stroke="#000000" stroke-linecap="round" stroke-linejoin="round" stroke-width="1.0"/>
    <path d="M-108.6 -120.25 Q-109.7 -122.5 -109.85 -124.6 -110.0 -126.7 -109.2 -128.0 -109.2 -125.7 -107.95 -123.0 L-107.25 -121.65 Q-106.0 -119.5 -104.3 -118.0 -102.65 -116.6 -100.95 -116.2 L-98.4 -116.4 Q-97.75 -116.8 -97.4 -117.45 -97.4 -116.7 -97.55 -116.05 -101.0 -115.6 -104.0 -114.5 L-106.1 -116.4 -107.85 -118.85 -108.6 -120.25" fill="#e5e2be" fill-rule="evenodd" stroke="none"/>
    <path d="M-112.0 -113.95 Q-111.5 -112.4 -111.85 -111.2 -112.25 -109.9 -113.3 -109.45 -114.45 -109.1 -115.55 -109.9 -116.65 -110.6 -117.2 -112.1 -117.7 -113.6 -117.35 -114.9 -116.95 -116.15 -115.85 -116.65 -114.75 -116.95 -113.7 -116.2 -112.55 -115.5 -112.0 -113.95" fill="#000000" fill-rule="evenodd" stroke="none"/>
    <path d="M-112.2 -112.55 Q-111.95 -111.9 -112.1 -111.4 -112.25 -110.9 -112.7 -110.75 L-113.55 -110.85 -114.2 -111.8 Q-114.4 -112.35 -114.25 -112.85 -114.1 -113.4 -113.7 -113.55 L-112.8 -113.4 -112.2 -112.55" fill="#ffffff" fill-rule="evenodd" stroke="none"/>
    <path d="M-97.2 -119.3 Q-96.75 -118.05 -97.0 -117.0 -97.2 -116.0 -98.05 -115.65 -98.9 -115.4 -99.75 -116.0 -100.6 -116.65 -101.05 -117.9 -101.5 -119.15 -101.25 -120.2 -101.0 -121.25 -100.15 -121.55 -99.3 -121.85 -98.45 -121.2 -97.65 -120.55 -97.2 -119.3" fill="#000000" fill-rule="evenodd" stroke="none"/>
    <path d="M-97.4 -118.0 L-97.35 -117.15 Q-97.45 -116.7 -97.8 -116.6 L-98.5 -116.7 -99.05 -117.4 -99.1 -118.25 -98.6 -118.8 -97.95 -118.7 -97.4 -118.0" fill="#ffffff" fill-rule="evenodd" stroke="none"/>
    <path d="M-96.45 -99.3 Q-97.15 -97.6 -99.0 -96.6 -100.55 -95.9 -102.65 -95.85 L-107.0 -96.1 -111.2 -96.95 Q-113.15 -97.45 -114.35 -97.85 L-115.6 -98.25 -96.05 -106.9 -95.75 -105.65 -95.65 -102.7 Q-95.7 -100.95 -96.45 -99.3" fill="#d8a235" fill-rule="evenodd" stroke="none"/>
    <path d="M-96.45 -99.3 Q-95.7 -100.95 -95.65 -102.7 L-95.75 -105.65 -96.05 -106.9 -115.6 -98.25 -114.35 -97.85 Q-113.15 -97.45 -111.2 -96.95 L-107.0 -96.1 -102.65 -95.85 Q-100.55 -95.9 -99.0 -96.6 -97.15 -97.6 -96.45 -99.3" fill="none" stroke="#000000" stroke-linecap="round" stroke-linejoin="round" stroke-width="1.0"/>
    <path d="M-98.5 -105.05 L-98.25 -104.25 -98.05 -102.45 Q-98.05 -101.35 -98.55 -100.35 -99.05 -99.3 -100.4 -98.6 L-103.5 -98.1 -106.85 -98.5 -109.6 -99.25 -110.75 -99.6 -98.5 -105.05" fill="#c12d05" fill-rule="evenodd" stroke="none"/>
    <path d="M-98.5 -105.05 L-110.75 -99.6 -109.6 -99.25 -106.85 -98.5 -103.5 -98.1 -100.4 -98.6 Q-99.05 -99.3 -98.55 -100.35 -98.05 -101.35 -98.05 -102.45 L-98.25 -104.25 -98.5 -105.05" fill="none" stroke="#000000" stroke-linecap="round" stroke-linejoin="round" stroke-width="1.0"/>
    <path d="M-106.4 -101.15 Q-104.7 -99.85 -102.7 -99.95 -100.6 -99.95 -98.75 -100.9 -99.05 -99.7 -100.6 -98.9 L-103.75 -98.4 -107.05 -98.9 -109.75 -99.6 -108.45 -100.2 -106.4 -101.15" fill="#9b0d0d" fill-rule="evenodd" stroke="none"/>
    <path d="M-95.4 -112.1 L-94.55 -111.2 Q-94.15 -110.65 -94.25 -109.95 -94.4 -109.3 -95.0 -109.0 -95.55 -108.6 -96.1 -108.45 L-96.65 -108.3 Q-96.65 -106.45 -97.3 -105.55 -97.95 -104.65 -99.0 -104.3 L-101.3 -103.75 -103.95 -103.3 -106.4 -102.3 -108.85 -101.15 -110.65 -100.3 -113.2 -99.2 -115.8 -98.5 Q-117.0 -98.25 -117.65 -98.8 L-118.6 -99.6 Q-118.75 -99.8 -118.1 -100.15 L-116.05 -101.55 -113.35 -103.5 Q-112.0 -104.6 -110.95 -105.85 L-109.6 -107.75 Q-109.05 -108.75 -108.85 -109.95 L-108.7 -111.05 -108.35 -112.35 Q-108.2 -113.1 -107.75 -113.35 L-106.6 -113.2 Q-105.55 -112.55 -103.8 -112.35 L-100.3 -112.15 -97.2 -112.3 -95.95 -112.45 -95.4 -112.1" fill="#f9c248" fill-rule="evenodd" stroke="none"/>
    <path d="M-95.4 -112.1 L-94.55 -111.2 Q-94.15 -110.65 -94.25 -109.95 -94.4 -109.3 -95.0 -109.0 -95.55 -108.6 -96.1 -108.45 L-96.65 -108.3 Q-96.65 -106.45 -97.3 -105.55 -97.95 -104.65 -99.0 -104.3 L-101.3 -103.75 -103.95 -103.3 -106.4 -102.3 -108.85 -101.15 -110.65 -100.3 -113.2 -99.2 -115.8 -98.5 Q-117.0 -98.25 -117.65 -98.8 L-118.6 -99.6 Q-118.75 -99.8 -118.1 -100.15 L-116.05 -101.55 -113.35 -103.5 Q-112.0 -104.6 -110.95 -105.85 L-109.6 -107.75 Q-109.05 -108.75 -108.85 -109.95 L-108.7 -111.05 -108.35 -112.35 Q-108.2 -113.1 -107.75 -113.35 L-106.6 -113.2 Q-105.55 -112.55 -103.8 -112.35 L-100.3 -112.15 -97.2 -112.3 -95.95 -112.45 -95.4 -112.1" fill="none" stroke="#000000" stroke-linecap="round" stroke-linejoin="round" stroke-width="1.0"/>
    <path d="M-95.65 -110.2 L-95.4 -110.95 -95.15 -111.55 -94.65 -110.85 Q-94.45 -110.45 -94.55 -110.1 -94.65 -109.65 -95.1 -109.35 -95.6 -109.05 -96.15 -108.85 L-96.95 -108.6 -97.2 -108.55 -96.95 -108.1 Q-96.95 -106.4 -97.6 -105.6 -98.3 -104.8 -99.3 -104.55 L-101.65 -104.1 -104.15 -103.6 -107.45 -102.25 -110.1 -101.0 -112.5 -99.9 -115.4 -99.0 -117.4 -99.05 -117.8 -99.4 -118.15 -99.7 -118.2 -99.8 -116.55 -99.7 -115.1 -100.0 -114.3 -100.35 -110.15 -102.05 -105.7 -104.7 -104.7 -105.45 -103.55 -106.1 -102.05 -106.15 -100.55 -106.05 Q-99.8 -106.15 -99.2 -106.7 L-98.2 -107.9 -97.9 -108.7 -97.5 -109.4 -96.55 -109.75 Q-95.95 -109.8 -95.65 -110.2" fill="#d8a235" fill-rule="evenodd" stroke="none"/>
    <path d="M-106.45 -108.35 L-105.9 -108.45 -105.05 -108.4 Q-104.7 -108.4 -105.05 -108.0 -105.6 -107.4 -105.8 -107.55 L-106.45 -108.35" fill="#d8a235" fill-rule="evenodd" stroke="none"/>
    <path d="M-99.05 -111.25 L-104.5 -111.45 -105.05 -111.6 -106.15 -111.85 -106.95 -111.85 -107.4 -111.1 Q-107.6 -110.6 -108.35 -110.15 L-108.35 -110.9 -108.15 -112.25 Q-108.0 -113.0 -107.65 -113.1 L-107.15 -113.15 Q-106.75 -113.15 -106.4 -112.8 L-105.05 -112.3 -101.45 -111.8 -96.3 -112.3 -96.75 -111.85 Q-97.25 -111.45 -99.05 -111.25" fill="#ffe4b3" fill-rule="evenodd" stroke="none"/>
    <path d="M-10.0 -174.9 Q-9.5 -174.4 -9.5 -173.65 -9.5 -173.0 -10.0 -172.5 -10.5 -172.0 -11.15 -171.95 -11.85 -171.95 -12.35 -172.45 L-12.55 -172.65 -11.95 -173.3 -11.75 -173.1 Q-11.5 -172.8 -11.15 -172.85 L-10.6 -173.05 -10.3 -173.7 -10.6 -174.3 -10.8 -174.4 -10.2 -175.05 -10.0 -174.9" fill="#c1c1c6" fill-rule="evenodd" stroke="none"/>
    <path d="M-10.0 -174.9 L-10.2 -175.05 -10.8 -174.4 -10.6 -174.3 -10.3 -173.7 -10.6 -173.05 -11.15 -172.85 Q-11.5 -172.8 -11.75 -173.1 L-11.95 -173.3 -12.55 -172.65 -12.35 -172.45 Q-11.85 -171.95 -11.15 -171.95 -10.5 -172.0 -10.0 -172.5 -9.5 -173.0 -9.5 -173.65 -9.5 -174.4 -10.0 -174.9" fill="none" stroke="#000000" stroke-linecap="round" stroke-linejoin="round" stroke-width="1.0"/>
    <path d="M-40.45 -145.95 Q-39.95 -145.45 -39.95 -144.75 -39.95 -144.05 -40.45 -143.55 -40.95 -143.05 -41.6 -143.0 -42.3 -143.05 -42.8 -143.5 L-43.0 -143.7 -42.4 -144.35 -42.2 -144.15 Q-41.95 -143.85 -41.65 -143.9 -41.3 -143.9 -41.05 -144.15 L-40.75 -144.75 -41.05 -145.35 -41.25 -145.45 -40.65 -146.1 -40.45 -145.95" fill="#c1c1c6" fill-rule="evenodd" stroke="none"/>
    <path d="M-40.45 -145.95 L-40.65 -146.1 -41.25 -145.45 -41.05 -145.35 -40.75 -144.75 -41.05 -144.15 Q-41.3 -143.9 -41.65 -143.9 -41.95 -143.85 -42.2 -144.15 L-42.4 -144.35 -43.0 -143.7 -42.8 -143.5 Q-42.3 -143.05 -41.6 -143.0 -40.95 -143.05 -40.45 -143.55 -39.95 -144.05 -39.95 -144.75 -39.95 -145.45 -40.45 -145.95" fill="none" stroke="#000000" stroke-linecap="round" stroke-linejoin="round" stroke-width="1.0"/>
    <path d="M-64.9 -121.7 Q-64.4 -121.2 -64.4 -120.5 -64.4 -119.8 -64.9 -119.3 -65.4 -118.8 -66.05 -118.75 -66.75 -118.8 -67.25 -119.25 L-67.45 -119.45 -66.85 -120.1 -66.65 -119.9 Q-66.4 -119.6 -66.05 -119.65 L-65.5 -119.85 -65.2 -120.5 -65.5 -121.1 -65.7 -121.2 -65.1 -121.85 -64.9 -121.7" fill="#c1c1c6" fill-rule="evenodd" stroke="none"/>
    <path d="M-64.9 -121.7 L-65.1 -121.85 -65.7 -121.2 -65.5 -121.1 -65.2 -120.5 -65.5 -119.85 -66.05 -119.65 Q-66.4 -119.6 -66.65 -119.9 L-66.85 -120.1 -67.45 -119.45 -67.25 -119.25 Q-66.75 -118.8 -66.05 -118.75 -65.4 -118.8 -64.9 -119.3 -64.4 -119.8 -64.4 -120.5 -64.4 -121.2 -64.9 -121.7" fill="none" stroke="#000000" stroke-linecap="round" stroke-linejoin="round" stroke-width="1.0"/>
    <path d="M-91.25 -97.2 Q-90.75 -96.7 -90.75 -96.0 -90.75 -95.3 -91.25 -94.8 -91.75 -94.3 -92.4 -94.25 -93.1 -94.3 -93.6 -94.75 L-93.8 -94.95 -93.2 -95.6 -93.0 -95.4 Q-92.75 -95.1 -92.45 -95.15 -92.1 -95.15 -91.85 -95.4 L-91.55 -96.0 -91.85 -96.6 -92.05 -96.7 -91.45 -97.35 -91.25 -97.2" fill="#c1c1c6" fill-rule="evenodd" stroke="none"/>
    <path d="M-91.25 -97.2 L-91.45 -97.35 -92.05 -96.7 -91.85 -96.6 -91.55 -96.0 -91.85 -95.4 Q-92.1 -95.15 -92.45 -95.15 -92.75 -95.1 -93.0 -95.4 L-93.2 -95.6 -93.8 -94.95 -93.6 -94.75 Q-93.1 -94.3 -92.4 -94.25 -91.75 -94.3 -91.25 -94.8 -90.75 -95.3 -90.75 -96.0 -90.75 -96.7 -91.25 -97.2" fill="none" stroke="#000000" stroke-linecap="round" stroke-linejoin="round" stroke-width="1.0"/>
    <path d="M18.2 -202.55 Q18.7 -202.05 18.7 -201.35 18.7 -200.65 18.2 -200.15 17.7 -199.65 17.05 -199.6 16.35 -199.65 15.85 -200.1 L15.65 -200.3 16.25 -200.95 16.45 -200.75 Q16.7 -200.45 17.05 -200.5 L17.6 -200.7 17.9 -201.35 17.6 -201.95 17.4 -202.05 18.0 -202.7 18.2 -202.55" fill="#c1c1c6" fill-rule="evenodd" stroke="none"/>
    <path d="M18.2 -202.55 L18.0 -202.7 17.4 -202.05 17.6 -201.95 17.9 -201.35 17.6 -200.7 17.05 -200.5 Q16.7 -200.45 16.45 -200.75 L16.25 -200.95 15.65 -200.3 15.85 -200.1 Q16.35 -199.65 17.05 -199.6 17.7 -199.65 18.2 -200.15 18.7 -200.65 18.7 -201.35 18.7 -202.05 18.2 -202.55" fill="none" stroke="#000000" stroke-linecap="round" stroke-linejoin="round" stroke-width="1.0"/>
    <path d="M37.75 -221.5 Q38.25 -221.0 38.25 -220.25 38.25 -219.6 37.75 -219.1 37.25 -218.6 36.6 -218.55 35.9 -218.55 35.4 -219.05 L35.2 -219.25 35.8 -219.9 36.0 -219.7 Q36.25 -219.4 36.6 -219.45 L37.15 -219.65 37.45 -220.3 37.15 -220.9 36.95 -221.0 37.55 -221.65 37.75 -221.5" fill="#c1c1c6" fill-rule="evenodd" stroke="none"/>
    <path d="M37.75 -221.5 L37.55 -221.65 36.95 -221.0 37.15 -220.9 37.45 -220.3 37.15 -219.65 36.6 -219.45 Q36.25 -219.4 36.0 -219.7 L35.8 -219.9 35.2 -219.25 35.4 -219.05 Q35.9 -218.55 36.6 -218.55 37.25 -218.6 37.75 -219.1 38.25 -219.6 38.25 -220.25 38.25 -221.0 37.75 -221.5" fill="none" stroke="#000000" stroke-linecap="round" stroke-linejoin="round" stroke-width="1.0"/>
    <path d="M-93.2 -76.15 L-92.75 -77.5 Q-92.3 -78.8 -91.8 -81.3 -91.4 -83.85 -91.4 -87.55 -91.45 -91.25 -92.35 -95.95 L-90.8 -96.5 -86.75 -98.3 Q-84.2 -99.55 -81.2 -101.5 -78.2 -103.45 -75.25 -106.2 -72.3 -108.95 -69.9 -112.55 -67.5 -116.15 -66.15 -120.7 L-64.6 -121.15 Q-63.1 -121.6 -60.65 -122.65 -58.25 -123.7 -55.4 -125.5 -52.5 -127.3 -49.7 -129.95 -46.95 -132.6 -44.7 -136.25 -42.5 -139.95 -41.4 -144.7 L-39.3 -145.4 Q-37.3 -146.15 -34.05 -147.65 -30.85 -149.15 -27.15 -151.45 -23.5 -153.8 -20.05 -157.0 -16.65 -160.2 -14.25 -164.3 -11.9 -168.4 -11.25 -173.5 L-9.6 -174.25 -5.4 -176.5 Q-2.8 -178.05 0.35 -180.35 3.5 -182.65 6.65 -185.7 9.85 -188.75 12.55 -192.55 15.2 -196.4 16.9 -201.0 L18.55 -201.65 Q20.1 -202.35 22.6 -203.8 25.1 -205.3 27.9 -207.55 30.65 -209.85 33.15 -213.1 35.55 -216.2 37.05 -220.25" fill="none" stroke="#000000" stroke-linecap="round" stroke-linejoin="round" stroke-width="1.0"/>
    <path d="M38.05 -221.3 Q38.0 -220.8 37.5 -220.8 L-115.85 -72.75 -116.35 -72.4 Q-116.8 -72.05 -117.45 -72.05 -118.1 -71.95 -118.8 -72.6 -119.4 -73.45 -119.3 -74.1 L-118.75 -75.2 -118.35 -75.65 36.85 -221.4 Q36.95 -221.95 37.55 -221.95 38.05 -221.85 38.05 -221.3" fill="#c1c1c6" fill-rule="evenodd" stroke="none"/>
    <path d="M38.05 -221.3 Q38.05 -221.85 37.55 -221.95 36.95 -221.95 36.85 -221.4 L-118.35 -75.65 -118.75 -75.2 -119.3 -74.1 Q-119.4 -73.45 -118.8 -72.6 -118.1 -71.95 -117.45 -72.05 -116.8 -72.05 -116.35 -72.4 L-115.85 -72.75 37.5 -220.8 Q38.0 -220.8 38.05 -221.3" fill="none" stroke="#000000" stroke-linecap="round" stroke-linejoin="round" stroke-width="1.0"/>
    <path d="M37.6 -221.5 L37.65 -221.45 37.45 -221.25 37.3 -221.2 37.6 -221.5 M-97.4 -94.15 L-118.85 -73.5 -118.95 -74.05 -118.9 -74.3 -97.4 -94.15" fill="#dbdbdd" fill-rule="evenodd" stroke="none"/>
    <path d="M37.5 -221.65 L37.5 -221.55 37.25 -221.35 37.3 -221.4 37.5 -221.65 M-103.05 -86.4 L-117.2 -72.6 -117.6 -72.6 -117.85 -72.6 -103.05 -86.4" fill="#9a9a9b" fill-rule="evenodd" stroke="none"/>
  </g>
</svg>
