<?xml version="1.0" encoding="UTF-8" standalone="no"?>
<svg xmlns:xlink="http://www.w3.org/1999/xlink" height="43.2px" width="120.3px" xmlns="http://www.w3.org/2000/svg">
  <g transform="matrix(1, 0, 0, 1, 64.3, 22.35)">
    <path d="M43.15 0.35 L45.65 -2.4 48.7 -5.15 Q50.3 -6.45 51.9 -7.1 L55.0 -7.45 Q55.1 -6.15 54.65 -5.05 L53.45 -3.1 52.0 -1.35 50.35 0.85 49.5 2.35 49.25 2.85 49.75 3.5 50.9 5.05 52.3 7.15 53.55 9.2 54.15 10.85 Q54.3 11.65 53.55 12.0 L51.4 11.85 Q50.0 11.4 48.05 9.8 46.1 8.2 43.8 5.15 L43.15 0.35" fill="#497028" fill-rule="evenodd" stroke="none"/>
    <path d="M43.15 0.35 L45.65 -2.4 48.7 -5.15 Q50.3 -6.45 51.9 -7.1 L55.0 -7.45 Q55.1 -6.15 54.65 -5.05 L53.45 -3.1 52.0 -1.35 50.35 0.85 49.5 2.35 49.25 2.85 49.75 3.5 50.9 5.05 52.3 7.15 53.55 9.2 54.15 10.85 Q54.3 11.65 53.55 12.0 L51.4 11.85 Q50.0 11.4 48.05 9.8 46.1 8.2 43.8 5.15" fill="none" stroke="#000000" stroke-linecap="round" stroke-linejoin="round" stroke-width="2.0"/>
    <path d="M50.75 9.1 Q51.1 9.5 51.6 9.6 L52.55 9.55 53.45 9.05 54.15 10.8 Q54.25 11.6 53.5 11.95 L51.4 11.8 Q49.95 11.35 48.05 9.75 46.1 8.15 43.75 5.1 L43.55 3.6 Q44.55 3.55 45.5 4.1 46.4 4.7 47.25 5.6 L49.0 7.45 50.75 9.1" fill="#3c5b1d" fill-rule="evenodd" stroke="none"/>
    <path d="M44.8 5.25 L41.8 6.15 36.7 7.55 30.95 9.0 25.3 10.3 20.4 11.4 17.0 12.2 5.6 14.6 -6.0 16.5 -17.7 17.4 -29.4 16.85 -34.1 16.05 -37.05 15.05 Q-38.15 14.55 -38.65 14.1 L-39.3 13.3 Q-39.7 12.55 -40.35 12.25 L-41.8 11.75 -43.15 11.15 -43.65 10.7 Q-43.9 10.45 -44.15 10.35 L-44.4 10.25 -44.95 10.05 -45.2 9.9 -51.45 10.65 -56.55 10.3 -59.95 9.65 -61.2 9.3 Q-62.45 8.75 -62.9 8.1 L-63.3 6.95 -63.1 6.05 -62.9 5.7 -54.15 4.3 Q-50.4 3.35 -47.95 2.25 -45.55 1.2 -44.55 0.45 -43.65 -0.3 -42.7 -2.05 L-40.7 -6.45 -38.25 -12.6 Q-37.2 -15.25 -35.7 -16.75 -34.25 -18.3 -32.8 -19.05 L-30.4 -20.0 -29.4 -20.2 -13.05 -19.25 Q-4.95 -18.15 3.0 -16.05 10.95 -14.0 18.65 -11.25 27.95 -8.0 36.95 -3.9 37.5 -3.65 38.6 -3.2 L40.95 -2.1 43.55 -0.8 44.8 0.0 45.8 0.75 Q46.75 1.55 47.15 2.45 47.55 3.25 47.15 4.05 46.95 4.4 45.5 4.95 L44.8 5.25" fill="#497028" fill-rule="evenodd" stroke="none"/>
    <path d="M44.8 0.0 L43.55 -0.8 40.95 -2.1 38.6 -3.2 Q37.5 -3.65 36.95 -3.9 27.95 -8.0 18.65 -11.25 10.95 -14.0 3.0 -16.05 -4.95 -18.15 -13.05 -19.25 L-29.4 -20.2 -30.4 -20.0 -32.8 -19.05 Q-34.25 -18.3 -35.7 -16.75 -37.2 -15.25 -38.25 -12.6 L-40.7 -6.45 -42.7 -2.05 Q-43.65 -0.3 -44.55 0.45 -45.55 1.2 -47.95 2.25 -50.4 3.35 -54.15 4.3 L-62.9 5.7 -63.1 6.05 -63.3 6.95 -62.9 8.1 Q-62.45 8.75 -61.2 9.3 L-59.95 9.65 -56.55 10.3 -51.45 10.65 -45.2 9.9 -44.95 10.05 -44.4 10.25 -44.15 10.35 Q-43.9 10.45 -43.65 10.7 L-43.15 11.15 -41.8 11.75 -40.35 12.25 Q-39.7 12.55 -39.3 13.3 L-38.65 14.1 Q-38.15 14.55 -37.05 15.05 L-34.1 16.05 -29.4 16.85 -17.7 17.4 -6.0 16.5 5.6 14.6 17.0 12.2 20.4 11.4 25.3 10.3 30.95 9.0 36.7 7.55 41.8 6.15 44.8 5.25" fill="none" stroke="#000000" stroke-linecap="round" stroke-linejoin="round" stroke-width="2.0"/>
    <path d="M18.3 -8.2 L5.7 -11.7 -6.5 -14.6 -17.7 -16.55 -27.3 -17.25 Q-29.6 -17.25 -31.3 -16.5 -33.0 -15.8 -34.5 -14.7 L-37.9 -12.4 -37.85 -12.45 Q-36.85 -14.95 -35.5 -16.35 -34.15 -17.85 -32.8 -18.55 L-30.45 -19.55 -29.35 -19.8 Q-18.75 -20.05 -6.85 -17.85 5.0 -15.6 18.5 -10.9 L27.65 -7.4 36.8 -3.5 37.85 -3.05 40.2 -2.05 42.9 -0.7 Q44.25 0.05 45.3 0.9 46.35 1.7 46.8 2.6 L46.85 3.7 Q46.35 2.3 45.15 1.2 L42.45 -0.45 30.75 -4.35 18.3 -8.2" fill="#638c3b" fill-rule="evenodd" stroke="none"/>
    <path d="M43.35 5.4 L41.85 5.9 36.95 7.25 31.45 8.65 26.15 9.9 21.75 10.9 16.95 11.95 6.0 14.3 -5.55 16.2 -17.45 17.15 -29.4 16.65 -34.2 15.8 -37.1 14.8 -38.6 13.85 -39.1 13.2 Q-39.55 12.4 -40.2 12.1 -40.8 11.75 -41.6 11.55 L-43.0 11.0 -44.0 10.2 -44.05 10.15 -45.2 9.7 -45.25 9.7 -51.4 10.4 -56.45 10.1 -59.85 9.45 -61.15 9.1 -62.1 8.55 -62.9 7.7 Q-63.15 7.25 -62.9 6.65 -62.6 6.0 -61.95 5.8 L-61.55 5.85 -61.1 6.0 -60.9 6.05 Q-61.6 6.45 -61.55 6.8 L-60.95 7.5 -59.65 8.1 -58.3 8.55 -57.5 8.75 -55.05 8.95 -52.35 9.05 -50.0 8.75 -46.65 7.7 -44.05 6.85 -41.65 6.65 Q-40.45 6.8 -39.1 7.7 L-38.05 8.6 -37.35 9.5 -36.55 10.45 Q-35.45 11.4 -34.0 12.0 L-31.1 13.0 -28.15 13.4 Q-20.6 13.8 -14.05 13.6 L-1.6 12.8 9.85 11.3 20.75 9.35 31.9 7.25 43.35 5.4" fill="#3c5b1d" fill-rule="evenodd" stroke="none"/>
    <path d="M-22.85 -7.3 Q-22.2 -5.4 -22.0 -3.65 -21.8 -1.45 -22.75 0.7 -23.7 2.85 -25.45 4.7 -27.15 6.5 -29.3 7.7 -31.4 8.95 -33.55 9.2 -35.65 9.5 -37.4 8.6 -39.15 7.65 -40.15 5.2 -40.8 3.5 -40.85 1.25 -40.95 -1.0 -40.55 -3.4 -40.15 -5.8 -39.3 -8.05 -38.45 -10.35 -37.2 -12.15 -36.0 -13.95 -34.45 -14.95 L-33.25 -15.6 -29.9 -15.8 Q-28.3 -15.3 -26.95 -14.05 -25.6 -12.75 -24.55 -11.0 -23.55 -9.25 -22.85 -7.3" fill="#ffffff" fill-rule="evenodd" stroke="none"/>
    <path d="M-22.85 -7.3 Q-23.55 -9.25 -24.55 -11.0 -25.6 -12.75 -26.95 -14.05 -28.3 -15.3 -29.9 -15.8 L-33.25 -15.6 -34.45 -14.95 Q-36.0 -13.95 -37.2 -12.15 -38.45 -10.35 -39.3 -8.05 -40.15 -5.8 -40.55 -3.4 -40.95 -1.0 -40.85 1.25 -40.8 3.5 -40.15 5.2 -39.15 7.65 -37.4 8.6 -35.65 9.5 -33.55 9.2 -31.4 8.95 -29.3 7.7 -27.15 6.5 -25.45 4.7 -23.7 2.85 -22.75 0.7 -21.8 -1.45 -22.0 -3.65 -22.2 -5.4 -22.85 -7.3" fill="none" stroke="#000000" stroke-linecap="round" stroke-linejoin="round" stroke-width="1.0"/>
    <path d="M-22.25 -3.65 Q-22.05 -1.7 -22.85 0.25 -23.6 2.2 -25.1 3.9 -26.55 5.6 -28.4 6.85 -30.2 8.1 -32.15 8.7 L-36.95 8.55 Q-39.0 7.6 -39.95 5.1 L-40.2 4.4 -36.1 5.0 Q-33.9 4.95 -31.5 4.2 -29.3 3.5 -27.5 1.9 -25.75 0.3 -24.55 -1.85 -23.35 -4.05 -22.85 -6.5 -22.4 -5.0 -22.25 -3.65" fill="#e1e8da" fill-rule="evenodd" stroke="none"/>
    <path d="M-31.7 -8.2 Q-30.85 -6.55 -30.5 -4.6 -30.1 -2.65 -30.15 -0.7 -30.2 1.2 -30.65 2.85 -31.15 5.1 -32.3 6.7 -33.45 8.3 -35.0 9.2 -36.35 9.05 -37.35 8.45 -38.35 7.8 -38.95 7.1 L-39.85 5.8 -40.15 5.2 Q-40.7 3.6 -40.8 1.6 L-40.55 -2.6 -39.65 -6.75 -38.3 -10.25 -36.75 -12.4 Q-35.05 -12.15 -33.75 -11.0 -32.5 -9.9 -31.7 -8.2" fill="#000000" fill-rule="evenodd" stroke="none"/>
    <path d="M-45.85 10.15 L-45.2 10.0 -43.55 9.85 -41.2 9.95 -38.7 10.55" fill="none" stroke="#000000" stroke-linecap="round" stroke-linejoin="round" stroke-width="1.0"/>
    <path d="M-21.6 15.4 L-20.75 17.55 -19.9 18.95 Q-19.6 19.45 -19.65 19.6 L-19.7 19.8 -22.2 19.6 Q-23.25 19.3 -24.0 18.65 L-25.2 17.4 -25.8 16.3 -26.0 15.8 -21.6 15.4" fill="#3c5b1d" fill-rule="evenodd" stroke="none"/>
    <path d="M-26.0 15.8 L-25.8 16.3 -25.2 17.4 -24.0 18.65 Q-23.25 19.3 -22.2 19.6 L-19.7 19.8 -19.65 19.6 Q-19.6 19.45 -19.9 18.95 L-20.75 17.55 -21.6 15.4" fill="none" stroke="#000000" stroke-linecap="round" stroke-linejoin="round" stroke-width="2.0"/>
    <path d="M-29.6 -22.35 L-28.95 -22.3 Q-28.05 -21.75 -27.9 -20.9 -27.75 -20.0 -28.05 -19.15 L-28.6 -17.65 -28.95 -17.05 Q-29.95 -17.8 -31.0 -17.95 L-33.0 -17.85 -34.45 -17.35 -35.1 -17.05 -35.2 -17.5 -35.6 -18.45 -36.15 -19.6 Q-36.45 -20.1 -36.25 -20.3 -36.1 -20.55 -35.8 -20.6 L-35.5 -20.65 Q-34.35 -21.4 -33.25 -21.8 L-31.15 -22.25 -29.6 -22.35" fill="#000000" fill-rule="evenodd" stroke="none"/>
    <path d="M-16.35 -0.85 Q-16.5 0.1 -17.2 1.25 L-19.65 4.1 -21.5 5.5 -22.25 5.85 -21.7 5.2 -20.45 3.5 -19.1 1.05 Q-18.45 -0.3 -18.2 -1.8 -18.0 -3.25 -18.45 -4.65 L-18.1 -4.4 -17.3 -3.65 Q-16.85 -3.2 -16.55 -2.45 -16.25 -1.75 -16.35 -0.85" fill="#3c5b1d" fill-rule="evenodd" stroke="none"/>
    <path d="M-43.25 -0.4 L-43.35 0.05 -44.15 1.3 -46.45 3.2 Q-47.85 4.1 -49.85 4.65 L-53.9 5.5 -57.85 5.95 -60.75 6.05 -61.95 6.1 -53.65 4.5 Q-50.25 3.65 -48.2 2.8 -46.15 1.95 -45.05 1.2 L-43.6 0.05 -43.25 -0.4" fill="#638c3b" fill-rule="evenodd" stroke="none"/>
    <path d="M-33.5 -0.85 Q-33.5 0.65 -33.85 1.85 -34.25 3.05 -34.9 3.75 -35.55 4.45 -36.35 4.45 -37.15 4.45 -37.8 3.75 L-38.85 1.85 Q-39.25 0.65 -39.25 -0.85 -39.25 -2.35 -38.85 -3.55 L-37.8 -5.45 Q-37.15 -6.2 -36.35 -6.2 -35.55 -6.2 -34.9 -5.45 -34.25 -4.75 -33.85 -3.55 -33.5 -2.35 -33.5 -0.85" fill="#1e3502" fill-rule="evenodd" stroke="none"/>
    <path d="M-32.95 -6.35 Q-33.0 -5.25 -33.4 -4.5 -33.8 -3.75 -34.4 -3.75 -35.0 -3.75 -35.4 -4.5 -35.8 -5.25 -35.8 -6.35 -35.8 -7.45 -35.4 -8.2 -35.0 -8.95 -34.4 -8.95 -33.8 -8.95 -33.4 -8.2 -33.0 -7.45 -32.95 -6.35" fill="#ffffff" fill-rule="evenodd" stroke="none"/>
  </g>
</svg>
