<?xml version="1.0" encoding="UTF-8" standalone="no"?>
<svg xmlns:xlink="http://www.w3.org/1999/xlink" height="28.3px" width="33.7px" xmlns="http://www.w3.org/2000/svg">
  <g transform="matrix(1, 0, 0, 1, 13.55, 17.25)">
    <path d="M10.6 -13.5 L11.85 -14.55 18.85 -6.7 17.6 -5.6 10.6 -13.5" fill="#6d6d70" fill-rule="evenodd" stroke="none"/>
    <path d="M10.6 -13.5 L11.85 -14.55 18.85 -6.7 17.6 -5.6 10.6 -13.5" fill="none" stroke="#000000" stroke-linecap="round" stroke-linejoin="round" stroke-width="1.0"/>
    <path d="M11.2 -13.5 L11.35 -13.6 14.5 -9.9 17.8 -6.3 17.65 -6.2 16.5 -7.5 14.4 -9.85 12.35 -12.2 11.2 -13.5" fill="#7b7b7c" fill-rule="evenodd" stroke="none"/>
    <path d="M17.9 -6.45 L14.75 -10.05 11.6 -13.85 11.7 -13.95 12.85 -12.65 14.95 -10.35 17.0 -8.0 18.15 -6.7 17.9 -6.45" fill="#59595b" fill-rule="evenodd" stroke="none"/>
    <path d="M8.8 -12.95 L8.55 -13.75 Q8.55 -14.15 8.85 -14.45 L11.05 -16.3 Q11.35 -16.6 11.75 -16.55 L12.45 -16.15 12.75 -15.4 12.5 -14.65 10.3 -12.8 Q9.95 -12.5 9.55 -12.6 9.15 -12.6 8.8 -12.95" fill="#6d6d70" fill-rule="evenodd" stroke="none"/>
    <path d="M8.8 -12.95 L8.55 -13.75 Q8.55 -14.15 8.85 -14.45 L11.05 -16.3 Q11.35 -16.6 11.75 -16.55 L12.45 -16.15 12.75 -15.4 12.5 -14.65 10.3 -12.8 Q9.95 -12.5 9.55 -12.6 9.15 -12.6 8.8 -12.95" fill="none" stroke="#000000" stroke-linecap="round" stroke-linejoin="round" stroke-width="1.0"/>
    <path d="M12.05 -14.95 L10.45 -15.25 11.25 -16.0 11.65 -16.1 12.15 -15.85 12.35 -15.35 12.15 -14.95 12.05 -14.95" fill="#59595b" fill-rule="evenodd" stroke="none"/>
    <path d="M9.2 -14.15 L9.35 -14.2 11.15 -14.05 10.1 -13.1 9.75 -13.0 Q9.45 -13.0 9.25 -13.25 L9.05 -13.65 9.2 -14.15" fill="#7b7b7c" fill-rule="evenodd" stroke="none"/>
    <path d="M16.0 -6.0 Q15.8 -6.8 16.05 -7.5 16.35 -8.15 17.1 -8.45 17.85 -8.7 18.55 -8.45 L19.55 -7.4 Q19.8 -6.65 19.5 -5.95 19.2 -5.25 18.45 -4.95 L17.0 -5.0 Q16.35 -5.25 16.0 -6.0" fill="#6d6d70" fill-rule="evenodd" stroke="none"/>
    <path d="M16.0 -6.0 Q15.8 -6.8 16.05 -7.5 16.35 -8.15 17.1 -8.45 17.85 -8.7 18.55 -8.45 L19.55 -7.4 Q19.8 -6.65 19.5 -5.95 19.2 -5.25 18.45 -4.95 L17.0 -5.0 Q16.35 -5.25 16.0 -6.0" fill="none" stroke="#000000" stroke-linecap="round" stroke-linejoin="round" stroke-width="1.0"/>
    <path d="M16.2 -6.45 Q16.75 -5.95 17.45 -5.75 L18.8 -5.85 18.2 -5.35 17.05 -5.4 Q16.55 -5.6 16.3 -6.2 L16.2 -6.45" fill="#7b7b7c" fill-rule="evenodd" stroke="none"/>
    <path d="M19.15 -6.55 Q18.35 -7.2 17.65 -7.25 L16.25 -6.75 Q16.3 -7.65 17.2 -8.05 L18.35 -8.0 Q18.8 -7.8 19.05 -7.2 L19.15 -6.55" fill="#59595b" fill-rule="evenodd" stroke="none"/>
    <path d="M-7.6 -6.65 L-6.3 -6.4 -2.9 -6.5 Q-0.75 -6.75 1.75 -8.0 3.85 -9.1 5.85 -10.7 L9.35 -13.75 11.3 -15.85 11.7 -16.1 Q12.1 -16.35 12.65 -16.1 13.15 -15.95 13.4 -14.85 L13.65 -12.55 13.6 -8.3 Q13.4 -5.85 12.65 -3.05 11.9 -0.3 10.3 2.35 8.7 4.9 5.95 6.85 3.2 8.75 -0.95 9.6 -5.15 10.4 -10.95 9.7 -15.0 -4.85 -7.6 -6.65" fill="#666666" fill-rule="evenodd" stroke="none"/>
    <path d="M-7.6 -6.65 L-6.3 -6.4 -2.9 -6.5 Q-0.75 -6.75 1.75 -8.0 3.85 -9.1 5.85 -10.7 L9.35 -13.75 11.3 -15.85 11.7 -16.1 Q12.1 -16.35 12.65 -16.1 13.15 -15.95 13.4 -14.85 L13.65 -12.55 13.6 -8.3 Q13.4 -5.85 12.65 -3.05 11.9 -0.3 10.3 2.35 8.7 4.9 5.95 6.85 3.2 8.75 -0.95 9.6 -5.15 10.4 -10.95 9.7" fill="none" stroke="#000000" stroke-linecap="round" stroke-linejoin="round" stroke-width="2.0"/>
    <path d="M-12.85 -0.3 Q-12.65 -0.8 -12.25 -0.4 L-9.15 2.55 Q-7.45 4.05 -5.1 4.8 -2.85 5.55 0.5 4.9 L0.55 4.85 Q3.25 3.4 6.4 1.0 9.5 -1.45 12.45 -4.45 11.3 0.0 8.85 2.95 6.35 5.85 2.95 7.4 -0.45 8.95 -4.4 9.3 L-12.35 8.8 Q-12.4 7.85 -12.7 7.1 L-13.35 5.5 Q-13.65 4.65 -13.45 3.55 L-13.4 2.6 -13.25 1.0 -12.85 -0.3" fill="#333333" fill-rule="evenodd" stroke="none"/>
    <path d="M12.25 -15.8 L12.7 -15.35 12.95 -14.7 13.0 -14.2 13.1 -11.45 12.75 -7.1 Q12.4 -4.65 11.45 -2.0 10.5 0.65 8.7 3.05 7.0 5.35 4.25 7.05 L6.15 5.0 8.25 1.3 10.05 -3.15 11.1 -7.4 Q11.35 -9.45 10.95 -10.65 L9.45 -10.75 Q8.25 -10.25 6.55 -9.2 L2.95 -7.1 Q1.05 -6.05 -0.65 -5.55 L-3.35 -5.2 -5.4 -5.45 -7.35 -5.95 -5.45 -5.8 -2.2 -6.15 Q-0.35 -6.55 1.8 -7.6 3.75 -8.7 5.75 -10.25 L9.3 -13.3 11.4 -15.55 11.75 -15.8 12.25 -15.8" fill="#999999" fill-rule="evenodd" stroke="none"/>
  </g>
</svg>
