<?xml version="1.0" encoding="UTF-8" standalone="no"?>
<svg xmlns:xlink="http://www.w3.org/1999/xlink" height="119.85px" width="93.55px" xmlns="http://www.w3.org/2000/svg">
  <g transform="matrix(1, 0, 0, 1, 220.85, 117.25)">
    <path d="M-145.4 -60.55 Q-143.45 -59.25 -141.5 -59.0 L-137.6 -59.35 Q-135.7 -59.85 -133.75 -60.85 L-132.9 -61.2 Q-131.3 -61.7 -130.05 -61.2 -128.8 -60.7 -128.4 -59.4 -128.05 -58.15 -129.15 -56.25 -131.75 -52.15 -134.8 -49.8 -137.9 -47.45 -140.85 -46.4 -143.85 -45.35 -146.15 -45.1 L-149.45 -45.0 Q-151.35 -45.25 -151.55 -47.65 -151.75 -50.15 -150.4 -54.85 -149.75 -57.15 -148.9 -58.4 L-147.25 -60.05 -145.9 -60.55 -145.4 -60.55" fill="#666666" fill-rule="evenodd" stroke="none"/>
    <path d="M-145.4 -60.55 L-145.9 -60.55 -147.25 -60.05 -148.9 -58.4 Q-149.75 -57.15 -150.4 -54.85 -151.75 -50.15 -151.55 -47.65 -151.35 -45.25 -149.45 -45.0 L-146.15 -45.1 Q-143.85 -45.35 -140.85 -46.4 -137.9 -47.45 -134.8 -49.8 -131.75 -52.15 -129.15 -56.25 -128.05 -58.15 -128.4 -59.4 -128.8 -60.7 -130.05 -61.2 -131.3 -61.7 -132.9 -61.2 L-133.75 -60.85 Q-135.7 -59.85 -137.6 -59.35 L-141.5 -59.0 Q-143.45 -59.25 -145.4 -60.55" fill="none" stroke="#000000" stroke-linecap="round" stroke-linejoin="round" stroke-width="2.0"/>
    <path d="M-145.6 -59.85 Q-143.45 -58.45 -141.3 -58.25 L-137.2 -58.7 Q-135.25 -59.3 -133.45 -60.25 L-132.7 -60.5 -131.15 -60.7 -129.9 -60.25 Q-131.15 -58.5 -132.75 -57.8 -134.3 -57.05 -136.0 -56.95 L-139.65 -56.95 Q-141.75 -57.1 -143.7 -56.9 -145.75 -56.75 -147.45 -55.6 -148.4 -54.9 -149.15 -53.4 -149.9 -51.9 -150.15 -50.15 L-150.2 -49.05 Q-150.15 -47.0 -148.95 -45.65 L-149.2 -45.65 -149.35 -45.65 Q-150.1 -45.8 -150.45 -46.25 -151.1 -47.25 -150.8 -49.7 L-149.75 -54.65 Q-149.0 -57.15 -148.15 -58.25 L-146.55 -59.65 -145.6 -59.85" fill="#999999" fill-rule="evenodd" stroke="none"/>
    <path d="M-206.15 -23.8 Q-207.6 -23.0 -209.65 -23.15 -211.7 -23.3 -213.7 -23.9 -215.75 -24.5 -217.05 -25.05 -218.45 -25.6 -218.45 -25.65 -219.7 -26.4 -219.8 -27.0 -219.9 -27.6 -219.6 -27.95 L-219.2 -28.3 Q-217.4 -27.55 -215.5 -27.75 L-212.3 -28.5 -210.95 -29.05 -206.15 -23.8" fill="#333333" fill-rule="evenodd" stroke="none"/>
    <path d="M-210.95 -29.05 L-212.3 -28.5 -215.5 -27.75 Q-217.4 -27.55 -219.2 -28.3 L-219.6 -27.95 Q-219.9 -27.6 -219.8 -27.0 -219.7 -26.4 -218.45 -25.65 -218.45 -25.6 -217.05 -25.05 -215.75 -24.5 -213.7 -23.9 -211.7 -23.3 -209.65 -23.15 -207.6 -23.0 -206.15 -23.8" fill="none" stroke="#000000" stroke-linecap="round" stroke-linejoin="round" stroke-width="2.0"/>
    <path d="M-159.3 -116.25 Q-154.85 -116.1 -150.5 -114.1 -146.2 -112.05 -143.15 -108.7 -140.2 -105.35 -138.7 -101.15 -137.2 -97.0 -137.35 -92.45 -137.5 -88.0 -139.5 -83.65 -140.4 -81.65 -140.95 -78.0 -141.55 -74.4 -141.75 -69.8 L-142.15 -60.4 -142.2 -51.25 -142.15 -43.7 Q-142.15 -39.7 -143.0 -35.65 -143.85 -31.7 -145.65 -27.8 L-148.55 -22.1 Q-150.1 -19.25 -152.0 -16.75 -153.9 -14.3 -156.2 -12.5 -159.2 -9.55 -161.95 -8.1 -164.75 -6.65 -167.45 -6.1 L-173.0 -5.15 Q-176.25 -4.65 -179.55 -5.15 -182.85 -5.65 -185.85 -6.6 L-191.1 -8.6 -194.7 -10.1 Q-200.4 -12.4 -204.65 -16.3 -208.9 -20.25 -211.6 -25.3 -214.3 -30.35 -215.35 -36.1 -216.45 -41.8 -215.7 -47.65 -215.0 -53.55 -212.4 -59.1 -210.75 -62.75 -208.4 -65.75 -206.1 -68.8 -203.3 -71.25 -201.25 -73.05 -198.7 -76.05 L-193.55 -82.8 Q-190.9 -86.45 -188.4 -90.25 L-184.0 -97.4 -180.9 -103.1 Q-178.85 -107.45 -175.5 -110.4 -172.15 -113.4 -167.95 -114.9 -163.8 -116.45 -159.3 -116.25" fill="#666666" fill-rule="evenodd" stroke="none"/>
    <path d="M-159.3 -116.25 Q-163.8 -116.45 -167.95 -114.9 -172.15 -113.4 -175.5 -110.4 -178.85 -107.45 -180.9 -103.1 L-184.0 -97.4 -188.4 -90.25 Q-190.9 -86.45 -193.55 -82.8 L-198.7 -76.05 Q-201.25 -73.05 -203.3 -71.25 -206.1 -68.8 -208.4 -65.75 -210.75 -62.75 -212.4 -59.1 -215.0 -53.55 -215.7 -47.65 -216.45 -41.8 -215.35 -36.1 -214.3 -30.35 -211.6 -25.3 -208.9 -20.25 -204.65 -16.3 -200.4 -12.4 -194.7 -10.1 L-191.1 -8.6 -185.85 -6.6 Q-182.85 -5.65 -179.55 -5.15 -176.25 -4.65 -173.0 -5.15 L-167.45 -6.1 Q-164.75 -6.65 -161.95 -8.1 -159.2 -9.55 -156.2 -12.5 -153.9 -14.3 -152.0 -16.75 -150.1 -19.25 -148.55 -22.1 L-145.65 -27.8 Q-143.85 -31.7 -143.0 -35.65 -142.15 -39.7 -142.15 -43.7 L-142.2 -51.25 -142.15 -60.4 -141.75 -69.8 Q-141.55 -74.4 -140.95 -78.0 -140.4 -81.65 -139.5 -83.65 -137.5 -88.0 -137.35 -92.45 -137.2 -97.0 -138.7 -101.15 -140.2 -105.35 -143.15 -108.7 -146.2 -112.05 -150.5 -114.1 -154.85 -116.1 -159.3 -116.25" fill="none" stroke="#000000" stroke-linecap="round" stroke-linejoin="round" stroke-width="2.0"/>
    <path d="M-175.55 -109.45 Q-172.6 -112.25 -168.85 -113.75 -165.15 -115.35 -160.95 -115.5 -164.8 -113.9 -167.8 -110.95 -170.8 -108.05 -172.65 -104.2 L-173.8 -101.65 -176.7 -95.45 Q-178.25 -92.35 -179.75 -89.85 L-181.6 -87.05 -184.15 -83.1 -186.05 -79.2 -186.5 -77.6 Q-187.55 -78.8 -188.7 -78.75 -189.6 -78.7 -190.35 -78.1 L-191.75 -76.65 -193.05 -74.9 -193.6 -74.05 -196.9 -69.85 -200.05 -65.8 -202.75 -61.25 Q-205.85 -54.5 -206.15 -47.5 -206.5 -40.45 -204.25 -33.95 -202.05 -27.5 -197.6 -22.3 -193.15 -17.1 -186.65 -14.0 -181.8 -11.65 -176.5 -10.4 -171.15 -9.15 -165.95 -9.5 -160.75 -9.9 -156.3 -12.5 -159.5 -10.1 -162.95 -8.75 -166.5 -7.4 -169.5 -6.65 L-174.45 -5.25 -178.55 -5.8 -182.45 -6.45 -186.2 -6.7 -186.55 -7.7 -186.65 -8.1 -187.05 -8.2 Q-190.9 -9.1 -194.45 -10.75 -199.85 -13.35 -204.0 -17.25 -208.15 -21.2 -210.8 -26.15 -213.45 -31.1 -214.5 -36.55 -215.6 -42.05 -215.0 -47.75 -214.35 -53.4 -211.8 -58.85 -208.55 -65.75 -202.85 -70.7 -200.8 -72.5 -198.3 -75.55 L-193.05 -82.25 -187.9 -89.8 -183.4 -97.0 -180.3 -102.8 Q-178.5 -106.7 -175.55 -109.45" fill="#333333" fill-rule="evenodd" stroke="none"/>
    <path d="M-156.95 -110.5 Q-155.3 -110.15 -153.65 -109.2 -152.05 -108.3 -150.85 -107.0 -149.7 -105.65 -149.4 -104.05 -149.45 -104.85 -148.35 -105.5 -147.25 -106.2 -145.6 -106.2 -143.95 -106.25 -142.45 -105.2 -141.5 -104.35 -140.8 -102.95 L-139.65 -100.05 -138.95 -97.3 Q-138.6 -92.8 -140.05 -88.35 -140.7 -86.4 -140.9 -82.3 -141.65 -80.15 -142.1 -76.75 L-142.8 -69.2 -143.15 -60.8 -143.15 -52.5 -143.15 -45.3 -143.15 -44.2 Q-143.1 -37.9 -145.2 -31.95 L-146.5 -28.8 Q-147.6 -26.6 -148.95 -24.5 -153.1 -19.9 -158.05 -17.25 -163.05 -14.65 -168.4 -14.05 -173.75 -13.5 -178.95 -15.15 -184.0 -16.85 -187.95 -20.3 -191.9 -23.75 -194.45 -28.75 -196.5 -32.75 -197.35 -37.2 -198.25 -41.7 -197.95 -46.4 -197.65 -51.1 -196.15 -55.65 L-195.75 -56.8 Q-193.6 -62.8 -189.75 -67.6 -188.3 -69.4 -186.6 -72.2 L-183.15 -78.4 Q-181.35 -81.8 -179.65 -85.35 L-176.6 -92.15 -174.35 -97.9 -173.8 -99.3 -173.6 -100.0 Q-172.6 -102.85 -171.0 -105.35 -169.35 -107.85 -167.0 -109.45 -164.65 -111.0 -161.5 -111.05 L-159.35 -110.9 -156.95 -110.5" fill="#cccccc" fill-rule="evenodd" stroke="none"/>
    <path d="M-142.45 -105.2 Q-141.45 -104.4 -140.75 -102.95 -140.05 -101.6 -139.65 -100.05 L-138.95 -97.3 Q-138.6 -92.8 -140.0 -88.35 -140.65 -86.4 -140.85 -82.3 -141.6 -80.15 -142.05 -76.7 L-142.75 -69.25 -143.05 -60.85 -143.15 -52.5 -143.1 -45.3 -143.1 -44.2 Q-143.05 -37.9 -145.15 -32.0 L-146.45 -28.8 Q-147.55 -26.55 -148.9 -24.5 -153.55 -19.35 -159.3 -16.65 -165.0 -14.0 -171.05 -13.95 -165.25 -14.55 -159.85 -17.65 -154.55 -20.75 -150.3 -26.05 -149.0 -28.3 -148.05 -30.7 L-146.85 -34.0 Q-145.0 -40.2 -145.35 -46.7 L-145.4 -47.85 -145.75 -55.25 -146.05 -63.75 -146.1 -72.4 -145.75 -80.2 Q-145.45 -83.7 -144.75 -85.95 -144.75 -90.15 -144.15 -92.25 -142.95 -96.9 -143.5 -101.5 L-144.1 -103.75 -145.05 -106.2 Q-143.65 -106.1 -142.45 -105.2" fill="#e5e5e5" fill-rule="evenodd" stroke="none"/>
    <path d="M-168.1 -108.65 Q-166.25 -110.25 -163.75 -110.85 -166.15 -109.3 -167.8 -106.75 -169.5 -104.25 -170.45 -101.35 L-170.7 -100.65 -171.2 -99.2 Q-172.1 -96.7 -173.5 -93.5 L-176.55 -86.7 -180.0 -79.75 -183.5 -73.55 Q-185.15 -70.75 -186.6 -68.95 -190.5 -64.1 -192.65 -58.15 L-193.05 -57.0 Q-194.5 -52.4 -194.8 -47.75 -195.1 -43.05 -194.25 -38.55 -193.35 -34.1 -191.3 -30.05 -188.8 -25.1 -184.8 -21.6 -180.9 -18.15 -175.85 -16.5 -171.75 -15.2 -167.45 -15.25 -163.25 -15.35 -159.1 -16.8 -163.9 -14.5 -168.95 -14.05 -174.05 -13.65 -178.95 -15.2 -184.0 -16.9 -187.95 -20.35 -191.9 -23.8 -194.45 -28.75 -196.5 -32.8 -197.35 -37.25 -198.25 -41.75 -197.95 -46.45 -197.65 -51.1 -196.15 -55.7 L-195.75 -56.85 Q-193.6 -62.8 -189.75 -67.65 -188.3 -69.45 -186.6 -72.25 L-183.15 -78.45 Q-181.35 -81.85 -179.65 -85.4 L-176.6 -92.2 -174.35 -97.9 -173.8 -99.35 -173.6 -100.05 Q-172.75 -102.55 -171.35 -104.8 -170.0 -107.05 -168.1 -108.65" fill="#b4b4b4" fill-rule="evenodd" stroke="none"/>
    <path d="M-152.0 -75.65 L-152.65 -74.6 -154.35 -72.2 -156.8 -69.4 Q-158.15 -68.05 -159.65 -67.25 -161.2 -66.5 -162.65 -66.75 -164.1 -67.15 -165.35 -68.65 -166.55 -70.2 -167.45 -72.25 L-169.05 -76.35 -170.0 -79.7 -170.35 -81.1 -152.0 -75.65" fill="#b4b4b4" fill-rule="evenodd" stroke="none"/>
    <path d="M-179.65 -12.65 L-179.3 -11.3 Q-178.95 -10.0 -178.75 -7.9 -178.55 -5.75 -178.8 -3.3 -179.1 -0.85 -180.3 1.45 L-180.75 1.55 -181.7 1.5 -182.55 0.85 -183.75 -1.05 -185.9 -4.25 Q-187.1 -5.95 -188.45 -7.25 -189.8 -8.55 -190.9 -8.7 L-179.65 -12.65" fill="#333333" fill-rule="evenodd" stroke="none"/>
    <path d="M-179.65 -12.65 L-179.3 -11.3 Q-178.95 -10.0 -178.75 -7.9 -178.55 -5.75 -178.8 -3.3 -179.1 -0.85 -180.3 1.45 L-180.75 1.55 -181.7 1.5 -182.55 0.85 -183.75 -1.05 -185.9 -4.25 Q-187.1 -5.95 -188.45 -7.25 -189.8 -8.55 -190.9 -8.7" fill="none" stroke="#000000" stroke-linecap="round" stroke-linejoin="round" stroke-width="2.0"/>
    <path d="M-156.55 -13.5 L-156.1 -12.25 -155.3 -9.1 Q-154.9 -7.15 -154.85 -4.9 -154.85 -2.65 -155.55 -0.5 L-155.9 -0.35 -156.7 -0.2 Q-157.2 -0.25 -157.55 -0.6 L-158.75 -1.95 -160.9 -4.2 -163.45 -6.25 Q-164.7 -7.05 -165.65 -7.0 L-156.55 -13.5" fill="#333333" fill-rule="evenodd" stroke="none"/>
    <path d="M-156.55 -13.5 L-156.1 -12.25 -155.3 -9.1 Q-154.9 -7.15 -154.85 -4.9 -154.85 -2.65 -155.55 -0.5 L-155.9 -0.35 -156.7 -0.2 Q-157.2 -0.25 -157.55 -0.6 L-158.75 -1.95 -160.9 -4.2 -163.45 -6.25 Q-164.7 -7.05 -165.65 -7.0" fill="none" stroke="#000000" stroke-linecap="round" stroke-linejoin="round" stroke-width="2.0"/>
    <path d="M-153.1 -75.0 L-154.95 -72.95 Q-156.2 -71.85 -157.75 -71.2 L-161.15 -71.0 Q-162.55 -71.45 -163.9 -72.7 L-166.4 -75.55 -168.45 -78.65 -169.85 -81.2 -170.35 -82.2 -152.4 -76.0 -153.1 -75.0" fill="#d8a235" fill-rule="evenodd" stroke="none"/>
    <path d="M-153.1 -75.0 L-152.4 -76.0 -170.35 -82.2 -169.85 -81.2 -168.45 -78.65 -166.4 -75.55 -163.9 -72.7 Q-162.55 -71.45 -161.15 -71.0 L-157.75 -71.2 Q-156.2 -71.85 -154.95 -72.95 L-153.1 -75.0" fill="none" stroke="#000000" stroke-linecap="round" stroke-linejoin="round" stroke-width="1.0"/>
    <path d="M-155.25 -76.25 L-155.6 -75.6 -156.65 -74.25 Q-157.35 -73.55 -158.35 -73.15 -159.4 -72.75 -160.7 -73.15 -161.95 -73.6 -163.0 -74.7 L-164.8 -77.05 -166.0 -79.15 -166.4 -80.1 -155.25 -76.25" fill="#c12d05" fill-rule="evenodd" stroke="none"/>
    <path d="M-155.25 -76.25 L-166.4 -80.1 -166.0 -79.15 -164.8 -77.05 -163.0 -74.7 Q-161.95 -73.6 -160.7 -73.15 -159.4 -72.75 -158.35 -73.15 -157.35 -73.55 -156.65 -74.25 L-155.6 -75.6 -155.25 -76.25" fill="none" stroke="#000000" stroke-linecap="round" stroke-linejoin="round" stroke-width="1.0"/>
    <path d="M-162.7 -78.45 Q-162.5 -76.65 -161.2 -75.35 -159.9 -74.15 -158.1 -73.65 L-159.25 -73.3 -160.6 -73.5 Q-161.85 -73.9 -162.85 -75.05 L-164.7 -77.45 -165.8 -79.5 -164.65 -79.1 -162.7 -78.45" fill="#9b0d0d" fill-rule="evenodd" stroke="none"/>
    <path d="M-152.7 -85.0 Q-152.45 -83.75 -151.4 -82.4 L-148.95 -79.75 -146.7 -77.7 -145.7 -76.9 -145.55 -76.25 -145.55 -75.0 Q-145.7 -74.3 -146.25 -73.9 L-147.45 -73.75 -148.6 -74.15 -149.1 -74.45 Q-150.45 -73.15 -151.5 -72.95 L-153.6 -73.2 Q-154.6 -73.7 -155.6 -74.5 -156.65 -75.35 -157.85 -76.0 L-160.3 -77.05 -162.85 -78.0 -164.7 -78.7 -167.3 -79.7 Q-168.7 -80.3 -169.7 -81.0 -170.7 -81.75 -170.8 -82.55 L-170.9 -83.75 -170.2 -83.85 -167.7 -83.4 -164.35 -82.8 -161.0 -82.75 -158.7 -83.2 Q-157.6 -83.5 -156.6 -84.2 L-155.75 -84.85 -154.55 -85.65 -153.4 -85.9 Q-152.9 -85.85 -152.7 -85.0" fill="#f9c248" fill-rule="evenodd" stroke="none"/>
    <path d="M-152.7 -85.0 Q-152.45 -83.75 -151.4 -82.4 L-148.95 -79.75 -146.7 -77.7 -145.7 -76.9 -145.55 -76.25 -145.55 -75.0 Q-145.7 -74.3 -146.25 -73.9 L-147.45 -73.75 -148.6 -74.15 -149.1 -74.45 Q-150.45 -73.15 -151.5 -72.95 L-153.6 -73.2 Q-154.6 -73.7 -155.6 -74.5 -156.65 -75.35 -157.85 -76.0 L-160.3 -77.05 -162.85 -78.0 -164.7 -78.7 -167.3 -79.7 Q-168.7 -80.3 -169.7 -81.0 -170.7 -81.75 -170.8 -82.55 L-170.9 -83.75 -170.2 -83.85 -167.7 -83.4 -164.35 -82.8 -161.0 -82.75 -158.7 -83.2 Q-157.6 -83.5 -156.6 -84.2 L-155.75 -84.85 -154.55 -85.65 -153.4 -85.9 Q-152.9 -85.85 -152.7 -85.0" fill="none" stroke="#000000" stroke-linecap="round" stroke-linejoin="round" stroke-width="1.0"/>
    <path d="M-156.5 -80.25 L-156.45 -81.35 -156.0 -81.05 -155.35 -80.4 Q-155.15 -80.1 -155.65 -80.1 L-156.5 -80.25" fill="#d8a235" fill-rule="evenodd" stroke="none"/>
    <path d="M-149.05 -75.85 L-148.1 -75.45 Q-147.65 -75.05 -147.15 -75.1 -146.7 -75.15 -146.5 -75.45 L-145.85 -75.7 -146.0 -74.85 -146.45 -74.15 -147.4 -74.1 -148.45 -74.45 -149.25 -74.85 -149.45 -75.05 -149.55 -74.5 Q-150.8 -73.3 -151.85 -73.2 -152.85 -73.1 -153.8 -73.65 L-155.8 -75.0 -157.9 -76.45 -161.15 -77.8 -163.9 -78.8 -166.4 -79.75 Q-167.95 -80.35 -169.15 -81.05 -170.35 -81.85 -170.5 -82.6 L-170.55 -83.15 -170.6 -83.5 -170.55 -83.65 -169.45 -82.4 -168.15 -81.6 -167.4 -81.25 Q-165.55 -80.4 -163.2 -79.6 -160.9 -78.75 -158.2 -78.3 L-156.95 -78.1 -155.7 -77.75 -154.55 -76.75 -153.6 -75.6 Q-152.95 -75.15 -152.2 -75.1 L-150.6 -75.25 -149.85 -75.6 -149.05 -75.85" fill="#d8a235" fill-rule="evenodd" stroke="none"/>
    <path d="M-147.55 -77.35 Q-148.35 -77.7 -149.55 -78.85 L-152.55 -82.25 -152.8 -82.7 -153.4 -83.65 -154.0 -84.2 -154.85 -84.0 Q-155.4 -83.75 -156.25 -84.0 L-155.7 -84.5 -154.55 -85.35 -153.6 -85.55 -153.25 -85.25 Q-152.95 -85.0 -153.0 -84.45 L-152.35 -83.2 -150.15 -80.25 Q-148.6 -78.55 -146.1 -77.0 L-146.45 -76.95 Q-146.8 -76.95 -147.55 -77.35" fill="#ffe4b3" fill-rule="evenodd" stroke="none"/>
  </g>
</svg>
