<?xml version="1.0" encoding="UTF-8" standalone="no"?>
<svg xmlns:xlink="http://www.w3.org/1999/xlink" height="24.2px" width="219.2px" xmlns="http://www.w3.org/2000/svg">
  <g transform="matrix(1, 0, 0, 1, 109.6, 12.1)">
    <path d="M40.55 -5.65 L40.6 -5.35 Q40.6 -4.65 40.15 -4.2 39.65 -3.7 38.95 -3.65 38.25 -3.65 37.75 -4.1 37.25 -4.6 37.2 -5.35 L37.25 -5.6 38.1 -5.6 38.1 -5.35 Q38.1 -5.0 38.35 -4.75 38.6 -4.55 38.95 -4.55 39.3 -4.55 39.5 -4.8 L39.75 -5.35 39.7 -5.6 40.55 -5.65" fill="#c1c1c6" fill-rule="evenodd" stroke="none"/>
    <path d="M40.55 -5.65 L39.7 -5.6 39.75 -5.35 39.5 -4.8 Q39.3 -4.55 38.95 -4.55 38.6 -4.55 38.35 -4.75 38.1 -5.0 38.1 -5.35 L38.1 -5.6 37.25 -5.6 37.2 -5.35 Q37.25 -4.6 37.75 -4.1 38.25 -3.65 38.95 -3.65 39.65 -3.7 40.15 -4.2 40.6 -4.65 40.6 -5.35 L40.55 -5.65" fill="none" stroke="#000000" stroke-linecap="round" stroke-linejoin="round" stroke-width="1.0"/>
    <path d="M-1.55 -6.6 L-1.5 -6.3 Q-1.5 -5.6 -1.95 -5.15 -2.45 -4.65 -3.15 -4.6 -3.85 -4.6 -4.35 -5.1 -4.85 -5.55 -4.9 -6.3 L-4.85 -6.55 -4.0 -6.55 -4.0 -6.3 -3.75 -5.7 -3.15 -5.5 Q-2.8 -5.5 -2.6 -5.75 -2.35 -5.95 -2.35 -6.3 L-2.4 -6.55 -1.55 -6.6" fill="#c1c1c6" fill-rule="evenodd" stroke="none"/>
    <path d="M-1.55 -6.6 L-2.4 -6.55 -2.35 -6.3 Q-2.35 -5.95 -2.6 -5.75 -2.8 -5.5 -3.15 -5.5 L-3.75 -5.7 -4.0 -6.3 -4.0 -6.55 -4.85 -6.55 -4.9 -6.3 Q-4.85 -5.55 -4.35 -5.1 -3.85 -4.6 -3.15 -4.6 -2.45 -4.65 -1.95 -5.15 -1.5 -5.6 -1.5 -6.3 L-1.55 -6.6" fill="none" stroke="#000000" stroke-linecap="round" stroke-linejoin="round" stroke-width="1.0"/>
    <path d="M-36.15 -6.7 L-36.1 -6.4 Q-36.1 -5.7 -36.55 -5.25 -37.05 -4.75 -37.75 -4.7 -38.45 -4.7 -38.95 -5.2 -39.45 -5.65 -39.5 -6.4 L-39.45 -6.65 -38.6 -6.65 -38.6 -6.4 -38.35 -5.8 -37.75 -5.6 Q-37.4 -5.6 -37.2 -5.85 -36.95 -6.05 -36.95 -6.4 L-37.0 -6.65 -36.15 -6.7" fill="#c1c1c6" fill-rule="evenodd" stroke="none"/>
    <path d="M-36.15 -6.7 L-37.0 -6.65 -36.95 -6.4 Q-36.95 -6.05 -37.2 -5.85 -37.4 -5.6 -37.75 -5.6 L-38.35 -5.8 -38.6 -6.4 -38.6 -6.65 -39.45 -6.65 -39.5 -6.4 Q-39.45 -5.65 -38.95 -5.2 -38.45 -4.7 -37.75 -4.7 -37.05 -4.75 -36.55 -5.25 -36.1 -5.7 -36.1 -6.4 L-36.15 -6.7" fill="none" stroke="#000000" stroke-linecap="round" stroke-linejoin="round" stroke-width="1.0"/>
    <path d="M-72.2 -7.95 L-72.15 -7.65 Q-72.15 -6.95 -72.6 -6.5 -73.1 -6.0 -73.8 -5.95 -74.5 -5.95 -75.0 -6.45 -75.5 -6.9 -75.55 -7.65 L-75.5 -7.9 -74.65 -7.9 -74.65 -7.65 -74.4 -7.05 -73.8 -6.85 Q-73.45 -6.85 -73.25 -7.1 -73.0 -7.3 -73.0 -7.65 L-73.05 -7.9 -72.2 -7.95" fill="#c1c1c6" fill-rule="evenodd" stroke="none"/>
    <path d="M-72.2 -7.95 L-73.05 -7.9 -73.0 -7.65 Q-73.0 -7.3 -73.25 -7.1 -73.45 -6.85 -73.8 -6.85 L-74.4 -7.05 -74.65 -7.65 -74.65 -7.9 -75.5 -7.9 -75.55 -7.65 Q-75.5 -6.9 -75.0 -6.45 -74.5 -5.95 -73.8 -5.95 -73.1 -6.0 -72.6 -6.5 -72.15 -6.95 -72.15 -7.65 L-72.2 -7.95" fill="none" stroke="#000000" stroke-linecap="round" stroke-linejoin="round" stroke-width="1.0"/>
    <path d="M80.15 -5.3 L80.2 -5.0 Q80.2 -4.3 79.75 -3.85 79.25 -3.35 78.55 -3.3 77.85 -3.3 77.35 -3.8 76.85 -4.25 76.8 -5.0 L76.85 -5.25 77.7 -5.25 77.7 -5.0 Q77.7 -4.65 77.95 -4.4 78.2 -4.2 78.55 -4.2 78.9 -4.2 79.1 -4.45 L79.35 -5.0 79.3 -5.25 80.15 -5.3" fill="#c1c1c6" fill-rule="evenodd" stroke="none"/>
    <path d="M80.15 -5.3 L79.3 -5.25 79.35 -5.0 79.1 -4.45 Q78.9 -4.2 78.55 -4.2 78.2 -4.2 77.95 -4.4 77.7 -4.65 77.7 -5.0 L77.7 -5.25 76.85 -5.25 76.8 -5.0 Q76.85 -4.25 77.35 -3.8 77.85 -3.3 78.55 -3.3 79.25 -3.35 79.75 -3.85 80.2 -4.3 80.2 -5.0 L80.15 -5.3" fill="none" stroke="#000000" stroke-linecap="round" stroke-linejoin="round" stroke-width="1.0"/>
    <path d="M-86.9 3.05 Q-87.6 5.0 -89.2 6.45 -90.9 7.85 -92.95 8.2 L-96.9 7.9 Q-98.8 7.2 -100.25 5.6 -101.65 3.9 -102.0 1.85 -102.35 -0.15 -101.7 -2.1 -101.0 -4.0 -99.35 -5.45 -97.7 -6.85 -95.7 -7.2 L-91.75 -6.9 Q-89.8 -6.2 -88.35 -4.55 -86.95 -2.9 -86.6 -0.9 -86.25 1.15 -86.9 3.05" fill="#c1c1c6" fill-rule="evenodd" stroke="none"/>
    <path d="M-86.9 3.05 Q-87.6 5.0 -89.2 6.45 -90.9 7.85 -92.95 8.2 L-96.9 7.9 Q-98.8 7.2 -100.25 5.6 -101.65 3.9 -102.0 1.85 -102.35 -0.15 -101.7 -2.1 -101.0 -4.0 -99.35 -5.45 -97.7 -6.85 -95.7 -7.2 L-91.75 -6.9 Q-89.8 -6.2 -88.35 -4.55 -86.95 -2.9 -86.6 -0.9 -86.25 1.15 -86.9 3.05" fill="none" stroke="#000000" stroke-linecap="round" stroke-linejoin="round" stroke-width="1.0"/>
    <path d="M-94.0 -6.85 L-93.95 -6.8 Q-96.25 -6.1 -97.5 -4.65 -98.75 -3.2 -98.95 -1.25 -99.2 0.7 -98.25 2.75 -96.45 5.6 -93.8 7.45 L-94.1 7.9 Q-95.75 8.0 -97.3 7.3 -98.8 6.7 -99.95 5.35 -101.3 3.75 -101.6 1.85 -101.95 -0.05 -101.3 -1.9 -100.7 -3.75 -99.15 -5.1 -98.05 -6.05 -96.7 -6.45 L-94.0 -6.85" fill="#b6b6b7" fill-rule="evenodd" stroke="none"/>
    <path d="M-88.75 -4.25 Q-87.4 -2.7 -87.05 -0.75 -86.75 1.1 -87.4 3.0 -88.0 4.8 -89.55 6.15 -90.75 7.15 -92.15 7.6 -90.5 5.3 -90.15 2.75 -89.75 0.2 -90.55 -2.25 -91.35 -4.7 -93.15 -6.75 -91.9 -6.55 -90.75 -5.9 -89.6 -5.3 -88.75 -4.25" fill="#d6d6d8" fill-rule="evenodd" stroke="none"/>
    <path d="M-92.4 -4.9 Q-91.0 -4.4 -89.95 -3.2 -88.9 -2.0 -88.65 -0.5 -88.4 0.95 -88.9 2.4 -89.4 3.8 -90.6 4.85 -91.8 5.9 -93.3 6.15 L-96.2 5.9 Q-97.6 5.4 -98.65 4.2 -99.7 3.0 -99.95 1.5 -100.15 0.05 -99.7 -1.4 -99.2 -2.8 -98.0 -3.85 -96.8 -4.9 -95.3 -5.15 L-92.4 -4.9" fill="#d8d8d8" fill-rule="evenodd" stroke="none"/>
    <path d="M-90.3 -2.9 Q-89.0 -1.35 -89.0 0.6 -89.05 2.55 -90.4 4.1 -89.85 2.1 -90.05 0.15 -90.2 -1.8 -91.05 -3.65 L-90.3 -2.9" fill="#e3e3e5" fill-rule="evenodd" stroke="none"/>
    <path d="M-98.25 2.75 L-96.05 5.45 Q-97.35 5.05 -98.35 3.95 -99.5 2.55 -99.6 0.8 -99.7 -0.95 -98.75 -2.4 -99.45 0.0 -98.25 2.75" fill="#bbbbbc" fill-rule="evenodd" stroke="none"/>
    <path d="M-98.3 9.55 L-99.7 8.75 -94.6 -0.5 -93.15 0.25 -98.3 9.55" fill="#6d6d70" fill-rule="evenodd" stroke="none"/>
    <path d="M-98.3 9.55 L-99.7 8.75 -94.6 -0.5 -93.15 0.25 -98.3 9.55" fill="none" stroke="#000000" stroke-linecap="round" stroke-linejoin="round" stroke-width="1.0"/>
    <path d="M-98.5 9.0 L-98.65 8.9 -93.95 0.35 -93.75 0.45 -94.6 1.95 -96.1 4.7 -97.65 7.5 -98.5 9.0" fill="#7b7b7c" fill-rule="evenodd" stroke="none"/>
    <path d="M-94.15 0.2 L-96.5 4.4 -99.0 8.7 -99.15 8.6 -98.3 7.1 -96.75 4.3 -95.25 1.55 -94.45 0.05 -94.15 0.2" fill="#59595b" fill-rule="evenodd" stroke="none"/>
    <path d="M-97.25 11.05 L-97.9 11.55 -98.65 11.5 -101.2 10.1 -101.65 9.45 -101.5 8.65 -100.85 8.15 Q-100.5 8.0 -100.1 8.15 L-97.6 9.6 Q-97.25 9.8 -97.15 10.25 -97.05 10.6 -97.25 11.05" fill="#6d6d70" fill-rule="evenodd" stroke="none"/>
    <path d="M-97.25 11.05 L-97.9 11.55 -98.65 11.5 -101.2 10.1 -101.65 9.45 -101.5 8.65 -100.85 8.15 Q-100.5 8.0 -100.1 8.15 L-97.6 9.6 Q-97.25 9.8 -97.15 10.25 -97.05 10.6 -97.25 11.05" fill="none" stroke="#000000" stroke-linecap="round" stroke-linejoin="round" stroke-width="1.0"/>
    <path d="M-100.2 8.6 Q-100.3 9.55 -100.0 10.25 L-100.95 9.7 -101.2 9.4 -101.15 8.85 -100.75 8.5 -100.3 8.55 -100.2 8.6" fill="#59595b" fill-rule="evenodd" stroke="none"/>
    <path d="M-98.45 11.15 L-98.6 11.05 Q-98.6 10.1 -99.05 9.25 L-97.8 9.95 -97.55 10.25 -97.65 10.8 -98.0 11.15 -98.45 11.15" fill="#7b7b7c" fill-rule="evenodd" stroke="none"/>
    <path d="M-88.45 5.9 L-87.15 5.3 -83.8 3.25 -79.1 -0.9 Q-76.6 -3.5 -73.8 -7.55 L-71.65 -6.55 Q-69.9 -5.75 -65.85 -4.5 -62.1 -3.4 -57.6 -2.9 -53.15 -2.4 -47.8 -3.1 -42.6 -3.85 -37.65 -6.6 L-36.25 -5.8 -32.4 -4.1 Q-30.25 -3.25 -26.55 -2.35 L-19.4 -1.5 Q-15.7 -1.45 -11.4 -2.45 -7.1 -3.55 -3.1 -6.1 -2.1 -5.65 -1.1 -5.15 0.35 -4.45 4.2 -3.0 7.4 -1.85 11.85 -0.85 16.0 0.1 20.8 0.25 25.45 0.4 30.1 -0.8 34.65 -2.05 38.75 -5.2 L41.15 -4.4 Q43.25 -3.65 47.55 -2.7 L56.65 -1.35 67.3 -1.65 Q72.8 -2.35 78.2 -4.8 L79.85 -4.15 84.3 -2.75 Q87.1 -2.05 90.7 -1.7 L98.3 -1.95 Q102.1 -2.45 106.4 -4.4" fill="none" stroke="#000000" stroke-linecap="round" stroke-linejoin="round" stroke-width="1.0"/>
    <path d="M107.65 -4.35 L106.85 -4.4 -106.9 -7.75 -107.5 -7.85 Q-108.05 -7.95 -108.55 -8.35 -109.1 -8.8 -109.1 -9.75 -109.0 -10.8 -108.4 -11.15 L-107.3 -11.55 -106.65 -11.55 106.85 -5.3 107.3 -5.45 107.75 -5.2 107.9 -4.75 107.65 -4.35" fill="#c1c1c6" fill-rule="evenodd" stroke="none"/>
    <path d="M107.65 -4.35 L107.9 -4.75 107.75 -5.2 107.3 -5.45 106.85 -5.3 -106.65 -11.55 -107.3 -11.55 -108.4 -11.15 Q-109.0 -10.8 -109.1 -9.75 -109.1 -8.8 -108.55 -8.35 -108.05 -7.95 -107.5 -7.85 L-106.9 -7.75 106.85 -4.4 107.65 -4.35" fill="none" stroke="#000000" stroke-linecap="round" stroke-linejoin="round" stroke-width="1.0"/>
    <path d="M107.4 -4.8 L107.35 -4.65 107.15 -4.65 107.1 -4.7 107.05 -4.8 107.4 -4.8 M-78.7 -9.8 L-108.55 -10.25 -108.2 -10.8 -108.05 -10.9 -78.7 -9.8" fill="#dbdbdd" fill-rule="evenodd" stroke="none"/>
    <path d="M107.4 -4.95 L107.4 -4.9 107.05 -4.9 107.1 -4.95 107.4 -4.95 M-88.25 -8.35 L-108.0 -8.5 -108.35 -8.8 -108.5 -8.95 -88.25 -8.35" fill="#9a9a9b" fill-rule="evenodd" stroke="none"/>
    <path d="M-93.1 1.95 Q-93.7 2.45 -94.5 2.4 -95.2 2.35 -95.8 1.75 -96.25 1.15 -96.25 0.35 L-95.55 -0.95 Q-94.95 -1.4 -94.15 -1.4 L-92.9 -0.7 Q-92.4 -0.1 -92.45 0.7 -92.5 1.4 -93.1 1.95" fill="#6d6d70" fill-rule="evenodd" stroke="none"/>
    <path d="M-93.1 1.95 Q-93.7 2.45 -94.5 2.4 -95.2 2.35 -95.8 1.75 -96.25 1.15 -96.25 0.35 L-95.55 -0.95 Q-94.95 -1.4 -94.15 -1.4 L-92.9 -0.7 Q-92.4 -0.1 -92.45 0.7 -92.5 1.4 -93.1 1.95" fill="none" stroke="#000000" stroke-linecap="round" stroke-linejoin="round" stroke-width="1.0"/>
    <path d="M-93.55 1.75 Q-93.25 1.1 -93.3 0.45 -93.35 -0.25 -93.85 -0.9 L-93.2 -0.5 Q-92.8 0.0 -92.85 0.6 -92.9 1.2 -93.35 1.6 L-93.55 1.75" fill="#7b7b7c" fill-rule="evenodd" stroke="none"/>
    <path d="M-94.7 -0.9 Q-95.05 0.1 -94.8 0.8 L-93.9 1.95 -94.75 1.95 -95.45 1.5 -95.8 0.4 -95.3 -0.6 -94.7 -0.9" fill="#59595b" fill-rule="evenodd" stroke="none"/>
    <path d="M109.05 -5.25 L109.1 -4.95 Q109.1 -4.25 108.65 -3.8 108.15 -3.3 107.45 -3.25 106.75 -3.25 106.25 -3.7 105.75 -4.2 105.7 -4.95 L105.75 -5.2 106.6 -5.2 106.6 -4.95 Q106.6 -4.6 106.85 -4.35 L107.45 -4.15 Q107.8 -4.15 108.0 -4.4 L108.25 -4.95 108.2 -5.2 109.05 -5.25" fill="#c1c1c6" fill-rule="evenodd" stroke="none"/>
    <path d="M109.05 -5.25 L108.2 -5.2 108.25 -4.95 108.0 -4.4 Q107.8 -4.15 107.45 -4.15 L106.85 -4.35 Q106.6 -4.6 106.6 -4.95 L106.6 -5.2 105.75 -5.2 105.7 -4.95 Q105.75 -4.2 106.25 -3.7 106.75 -3.25 107.45 -3.25 108.15 -3.3 108.65 -3.8 109.1 -4.25 109.1 -4.95 L109.05 -5.25" fill="none" stroke="#000000" stroke-linecap="round" stroke-linejoin="round" stroke-width="1.0"/>
  </g>
</svg>
