<?xml version="1.0" encoding="UTF-8" standalone="no"?>
<svg xmlns:xlink="http://www.w3.org/1999/xlink" height="26.35px" width="38.8px" xmlns="http://www.w3.org/2000/svg">
  <g transform="matrix(1, 0, 0, 1, 21.0, 14.2)">
    <path d="M-7.8 -13.2 Q-3.8 -10.7 -3.15 -9.35 -2.6 -8.0 -1.15 -6.1 0.25 -4.25 2.9 -2.5 4.5 -1.45 6.5 -0.6 L10.35 0.9 13.65 1.95 15.8 2.4 16.3 2.7 Q16.7 2.95 16.8 3.55 16.9 4.15 16.0 5.0 L14.0 6.45 Q12.4 7.5 9.9 8.65 7.45 9.8 4.4 10.55 L-2.05 11.15 Q-5.4 11.0 -8.8 9.4 -12.2 7.8 -15.35 4.3 -18.5 0.75 -19.5 -6.85 -11.85 -15.7 -7.8 -13.2" fill="#666666" fill-rule="evenodd" stroke="none"/>
    <path d="M-7.8 -13.2 Q-3.8 -10.7 -3.15 -9.35 -2.6 -8.0 -1.15 -6.1 0.25 -4.25 2.9 -2.5 4.5 -1.45 6.5 -0.6 L10.35 0.9 13.65 1.95 15.8 2.4 16.3 2.7 Q16.7 2.95 16.8 3.55 16.9 4.15 16.0 5.0 L14.0 6.45 Q12.4 7.5 9.9 8.65 7.45 9.8 4.4 10.55 L-2.05 11.15 Q-5.4 11.0 -8.8 9.4 -12.2 7.8 -15.35 4.3 -18.5 0.75 -19.5 -6.85" fill="none" stroke="#000000" stroke-linecap="round" stroke-linejoin="round" stroke-width="2.0"/>
    <path d="M-12.15 -11.85 L-13.0 -8.5 Q-13.45 -6.75 -13.45 -4.85 -13.45 -3.0 -12.65 -0.95 -11.9 1.05 -9.95 3.15 -7.0 5.0 -2.9 6.7 1.15 8.35 5.7 9.6 0.8 10.85 -3.35 10.1 -7.55 9.25 -11.0 6.85 -14.4 4.4 -16.95 0.8 -19.45 -2.75 -21.0 -7.05 -20.15 -7.55 -19.55 -8.3 L-18.4 -9.75 Q-17.75 -10.5 -16.65 -10.9 L-15.65 -11.35 -14.0 -12.05 -12.6 -12.4 Q-12.05 -12.45 -12.15 -11.85" fill="#333333" fill-rule="evenodd" stroke="none"/>
    <path d="M6.2 -0.3 L10.0 1.2 13.4 2.25 15.65 2.8 16.1 3.0 16.4 3.5 16.25 4.15 15.75 4.7 15.3 5.05 12.75 6.65 8.4 8.6 Q5.85 9.55 2.8 10.05 -0.25 10.55 -3.5 10.15 -6.75 9.75 -9.9 8.05 -8.9 8.55 -6.85 8.75 -4.75 8.95 -2.1 8.75 L3.15 8.15 7.8 6.85 Q9.8 6.0 10.75 4.95 11.2 4.3 10.05 3.5 L6.9 1.55 2.8 -0.75 Q0.75 -2.05 -0.65 -3.4 L-2.55 -5.75 -3.45 -7.9 -4.15 -10.0 -3.2 -8.1 Q-2.45 -6.8 -1.0 -5.2 0.45 -3.65 2.7 -2.15 L6.2 -0.3" fill="#999999" fill-rule="evenodd" stroke="none"/>
  </g>
</svg>
