<?xml version="1.0" encoding="UTF-8" standalone="no"?>
<svg xmlns:xlink="http://www.w3.org/1999/xlink" height="119.85px" width="264.45px" xmlns="http://www.w3.org/2000/svg">
  <g transform="matrix(1, 0, 0, 1, 51.6, 62.2)">
    <path d="M28.65 -4.2 L32.6 -5.1 36.7 -5.55 Q39.15 -5.6 41.2 -4.85 43.15 -4.15 44.3 -2.3 43.3 -1.05 41.9 -0.65 L39.0 -0.15 Q37.55 0.0 36.25 0.65 34.55 1.65 33.4 3.4 L31.2 7.05 28.8 10.4 Q27.45 11.85 25.5 12.15 22.7 12.5 21.25 11.35 19.75 10.25 19.35 8.3 18.95 6.3 19.35 4.15 19.75 1.85 20.4 0.5 21.05 -0.85 22.25 -1.65 23.45 -2.5 25.5 -3.2 L28.65 -4.2" fill="#666666" fill-rule="evenodd" stroke="none"/>
    <path d="M28.65 -4.2 L25.5 -3.2 Q23.45 -2.5 22.25 -1.65 21.05 -0.85 20.4 0.5 19.75 1.85 19.35 4.15 18.95 6.3 19.35 8.3 19.75 10.25 21.25 11.35 22.7 12.5 25.5 12.15 27.45 11.85 28.8 10.4 L31.2 7.05 33.4 3.4 Q34.55 1.65 36.25 0.65 37.55 0.0 39.0 -0.15 L41.9 -0.65 Q43.3 -1.05 44.3 -2.3 43.15 -4.15 41.2 -4.85 39.15 -5.6 36.7 -5.55 L32.6 -5.1 28.65 -4.2" fill="none" stroke="#000000" stroke-linecap="round" stroke-linejoin="round" stroke-width="2.0"/>
    <path d="M39.55 -0.6 L37.75 -0.3 Q36.85 -0.1 36.05 0.35 34.5 1.25 33.4 2.8 32.25 4.3 31.35 6.0 L29.2 9.4 Q28.0 10.95 26.4 11.6 27.25 8.65 28.85 5.9 30.4 3.05 32.35 0.75 34.3 -1.6 36.3 -3.2 L39.2 -4.0 42.05 -4.0 Q43.15 -3.35 43.8 -2.3 43.0 -1.4 41.9 -1.05 L39.55 -0.6" fill="#999999" fill-rule="evenodd" stroke="none"/>
    <path d="M-36.9 31.25 Q-38.35 32.05 -40.4 31.9 L-44.45 31.15 -47.8 30.0 -49.2 29.4 Q-50.45 28.65 -50.55 28.05 -50.65 27.45 -50.35 27.1 L-49.95 26.75 Q-48.15 27.5 -46.25 27.3 L-43.05 26.55 -41.7 26.0 -36.9 31.25" fill="#333333" fill-rule="evenodd" stroke="none"/>
    <path d="M-41.7 26.0 L-43.05 26.55 -46.25 27.3 Q-48.15 27.5 -49.95 26.75 L-50.35 27.1 Q-50.65 27.45 -50.55 28.05 -50.45 28.65 -49.2 29.4 L-47.8 30.0 -44.45 31.15 -40.4 31.9 Q-38.35 32.05 -36.9 31.25" fill="none" stroke="#000000" stroke-linecap="round" stroke-linejoin="round" stroke-width="2.0"/>
    <path d="M9.95 -61.2 Q14.4 -61.05 18.75 -59.05 23.05 -57.0 26.1 -53.65 29.05 -50.3 30.55 -46.1 32.05 -41.95 31.9 -37.4 31.75 -32.95 29.75 -28.6 28.85 -26.6 28.3 -22.95 27.7 -19.35 27.5 -14.75 L27.1 -5.35 27.05 3.8 27.1 11.35 Q27.1 15.35 26.25 19.4 25.4 23.35 23.6 27.25 L20.7 32.95 Q19.15 35.8 17.25 38.3 15.35 40.75 13.05 42.55 10.05 45.5 7.3 46.95 4.5 48.4 1.8 48.95 L-3.75 49.9 Q-7.0 50.4 -10.3 49.9 L-16.6 48.45 -21.85 46.45 -25.45 44.95 Q-31.15 42.65 -35.4 38.75 -39.65 34.8 -42.35 29.75 -45.05 24.7 -46.1 18.95 -47.2 13.25 -46.45 7.4 -45.75 1.5 -43.15 -4.05 -41.5 -7.7 -39.15 -10.7 -36.85 -13.75 -34.05 -16.2 -32.0 -18.0 -29.45 -21.0 L-24.3 -27.75 Q-21.65 -31.4 -19.15 -35.2 L-14.75 -42.35 -11.65 -48.05 Q-9.6 -52.4 -6.25 -55.35 -2.9 -58.35 1.3 -59.85 5.45 -61.4 9.95 -61.2" fill="#666666" fill-rule="evenodd" stroke="none"/>
    <path d="M9.95 -61.2 Q5.45 -61.4 1.3 -59.85 -2.9 -58.35 -6.25 -55.35 -9.6 -52.4 -11.65 -48.05 L-14.75 -42.35 -19.15 -35.2 Q-21.65 -31.4 -24.3 -27.75 L-29.45 -21.0 Q-32.0 -18.0 -34.05 -16.2 -36.85 -13.75 -39.15 -10.7 -41.5 -7.7 -43.15 -4.05 -45.75 1.5 -46.45 7.4 -47.2 13.25 -46.1 18.95 -45.05 24.7 -42.35 29.75 -39.65 34.8 -35.4 38.75 -31.15 42.65 -25.45 44.95 L-21.85 46.45 -16.6 48.45 -10.3 49.9 Q-7.0 50.4 -3.75 49.9 L1.8 48.95 Q4.5 48.4 7.3 46.95 10.05 45.5 13.05 42.55 15.35 40.75 17.25 38.3 19.15 35.8 20.7 32.95 L23.6 27.25 Q25.4 23.35 26.25 19.4 27.1 15.35 27.1 11.35 L27.05 3.8 27.1 -5.35 27.5 -14.75 Q27.7 -19.35 28.3 -22.95 28.85 -26.6 29.75 -28.6 31.75 -32.95 31.9 -37.4 32.05 -41.95 30.55 -46.1 29.05 -50.3 26.1 -53.65 23.05 -57.0 18.75 -59.05 14.4 -61.05 9.95 -61.2" fill="none" stroke="#000000" stroke-linecap="round" stroke-linejoin="round" stroke-width="2.0"/>
    <path d="M0.45 -58.7 Q4.15 -60.3 8.35 -60.45 4.5 -58.85 1.5 -55.9 -1.5 -53.0 -3.35 -49.15 L-4.5 -46.6 -7.4 -40.4 Q-8.95 -37.3 -10.45 -34.8 L-12.3 -32.0 -14.85 -28.05 -16.75 -24.15 -17.2 -22.55 Q-18.25 -23.75 -19.4 -23.7 -20.3 -23.65 -21.05 -23.05 L-22.45 -21.6 -23.75 -19.85 -24.3 -19.0 -27.6 -14.8 -30.75 -10.75 -33.45 -6.2 Q-36.55 0.55 -36.85 7.55 -37.2 14.6 -34.95 21.1 -32.75 27.55 -28.3 32.75 -23.85 37.95 -17.35 41.05 -12.5 43.4 -7.2 44.65 -1.85 45.9 3.35 45.55 8.55 45.15 13.0 42.55 9.8 44.95 6.35 46.3 L-0.2 48.4 -5.15 49.8 -9.25 49.25 -13.15 48.6 -16.9 48.35 -17.25 47.35 -17.35 46.95 -17.75 46.85 Q-21.6 45.95 -25.15 44.3 -30.55 41.7 -34.7 37.8 -38.85 33.85 -41.5 28.9 -44.15 23.95 -45.2 18.5 -46.3 13.0 -45.7 7.3 -45.05 1.65 -42.5 -3.8 -39.25 -10.7 -33.55 -15.65 -31.5 -17.45 -29.0 -20.5 -26.45 -23.5 -23.75 -27.2 -21.1 -30.9 -18.6 -34.75 L-14.1 -41.95 -11.0 -47.75 Q-9.2 -51.65 -6.25 -54.4 -3.3 -57.2 0.45 -58.7" fill="#333333" fill-rule="evenodd" stroke="none"/>
    <path d="M2.3 -54.45 Q4.65 -56.0 7.8 -56.05 L9.95 -55.9 12.35 -55.5 Q14.0 -55.15 15.65 -54.2 17.25 -53.3 18.45 -52.0 19.6 -50.65 19.9 -49.05 19.85 -49.85 20.95 -50.5 22.05 -51.2 23.7 -51.2 25.35 -51.25 26.85 -50.2 27.8 -49.35 28.5 -47.95 L29.65 -45.05 30.35 -42.3 Q30.7 -37.8 29.25 -33.35 28.6 -31.4 28.4 -27.3 27.65 -25.15 27.2 -21.75 26.7 -18.35 26.5 -14.2 26.25 -10.15 26.15 -5.8 L26.15 2.5 26.15 9.7 26.15 10.8 Q26.2 17.1 24.1 23.05 L22.8 26.2 20.35 30.5 Q16.2 35.1 11.25 37.75 6.25 40.35 0.9 40.95 -4.45 41.5 -9.65 39.85 -14.7 38.15 -18.65 34.7 -22.6 31.25 -25.15 26.25 -27.2 22.25 -28.05 17.8 -28.95 13.3 -28.65 8.6 -28.35 3.9 -26.85 -0.65 L-26.45 -1.8 Q-24.3 -7.8 -20.45 -12.6 -19.0 -14.4 -17.3 -17.2 L-13.85 -23.4 -10.35 -30.35 -7.3 -37.15 -5.05 -42.9 -4.5 -44.3 -4.3 -45.0 Q-3.3 -47.85 -1.7 -50.35 -0.05 -52.85 2.3 -54.45" fill="#cccccc" fill-rule="evenodd" stroke="none"/>
    <path d="M24.2 -51.15 Q25.6 -51.05 26.8 -50.15 L28.75 -48.0 30.3 -45.2 31.25 -42.55 31.3 -38.2 Q31.2 -36.0 30.55 -33.25 L29.9 -31.7 28.95 -29.7 Q28.45 -28.6 28.4 -27.25 27.65 -25.1 27.2 -21.65 26.7 -18.3 26.5 -14.2 L26.2 -5.8 26.1 2.55 26.15 9.75 26.15 10.85 Q26.2 17.15 24.1 23.05 L22.8 26.25 20.35 30.55 Q15.7 35.7 9.95 38.4 4.25 41.05 -1.8 41.1 4.0 40.5 9.4 37.4 14.7 34.3 18.95 29.0 20.25 26.75 21.2 24.35 L22.4 21.05 Q24.25 14.85 23.9 8.35 L23.85 7.2 23.5 -0.2 23.2 -8.7 23.15 -17.35 Q23.2 -21.6 23.5 -25.15 23.8 -28.65 24.5 -30.9 24.5 -35.1 25.1 -37.2 26.3 -41.85 25.75 -46.45 L25.15 -48.7 24.2 -51.15" fill="#e5e5e5" fill-rule="evenodd" stroke="none"/>
    <path d="M1.2 -53.6 Q3.05 -55.2 5.55 -55.8 3.15 -54.25 1.5 -51.7 -0.2 -49.2 -1.15 -46.3 L-1.4 -45.6 -1.9 -44.15 -4.2 -38.45 -7.25 -31.65 -10.7 -24.7 -14.2 -18.5 -17.3 -13.9 Q-21.2 -9.05 -23.35 -3.1 L-23.75 -1.95 Q-25.2 2.65 -25.5 7.3 -25.8 12.0 -24.95 16.5 -24.05 20.95 -22.0 25.0 -19.5 29.95 -15.5 33.45 -11.6 36.9 -6.55 38.55 -2.45 39.85 1.85 39.8 6.05 39.7 10.2 38.25 5.4 40.55 0.35 41.0 -4.75 41.4 -9.65 39.85 -14.7 38.15 -18.65 34.7 -22.6 31.25 -25.15 26.3 -27.2 22.25 -28.05 17.8 -28.95 13.3 -28.65 8.6 -28.35 3.95 -26.85 -0.65 L-26.45 -1.8 Q-24.3 -7.75 -20.45 -12.6 -19.0 -14.4 -17.3 -17.2 L-13.85 -23.4 -10.35 -30.35 -7.3 -37.15 -5.05 -42.85 -4.5 -44.3 -4.3 -45.0 Q-3.45 -47.5 -2.05 -49.75 -0.7 -52.0 1.2 -53.6" fill="#b4b4b4" fill-rule="evenodd" stroke="none"/>
    <path d="M17.25 -20.65 L16.6 -19.6 14.9 -17.2 12.45 -14.4 Q11.1 -13.05 9.6 -12.25 8.05 -11.5 6.6 -11.75 5.15 -12.15 3.9 -13.65 2.7 -15.2 1.8 -17.25 0.85 -19.35 0.2 -21.35 L-0.75 -24.7 -1.1 -26.1 17.25 -20.65" fill="#b4b4b4" fill-rule="evenodd" stroke="none"/>
    <path d="M-10.4 42.4 L-10.05 43.75 Q-9.7 45.05 -9.5 47.15 -9.3 49.3 -9.55 51.75 -9.85 54.2 -11.05 56.5 L-11.5 56.6 -12.45 56.55 -13.3 55.9 -14.5 54.0 Q-15.4 52.5 -16.65 50.8 -17.85 49.1 -19.2 47.8 -20.55 46.5 -21.65 46.35 L-10.4 42.4" fill="#333333" fill-rule="evenodd" stroke="none"/>
    <path d="M-10.4 42.4 L-10.05 43.75 Q-9.7 45.05 -9.5 47.15 -9.3 49.3 -9.55 51.75 -9.85 54.2 -11.05 56.5 L-11.5 56.6 -12.45 56.55 -13.3 55.9 -14.5 54.0 Q-15.4 52.5 -16.65 50.8 -17.85 49.1 -19.2 47.8 -20.55 46.5 -21.65 46.35" fill="none" stroke="#000000" stroke-linecap="round" stroke-linejoin="round" stroke-width="2.0"/>
    <path d="M12.75 41.55 L13.2 42.8 14.0 45.95 Q14.4 47.9 14.45 50.15 14.45 52.4 13.75 54.55 13.7 54.55 13.4 54.7 L12.6 54.85 Q12.1 54.8 11.75 54.45 L10.55 53.1 8.4 50.85 Q7.1 49.65 5.85 48.8 4.6 48.0 3.65 48.05 L12.75 41.55" fill="#333333" fill-rule="evenodd" stroke="none"/>
    <path d="M12.75 41.55 L13.2 42.8 14.0 45.95 Q14.4 47.9 14.45 50.15 14.45 52.4 13.75 54.55 13.7 54.55 13.4 54.7 L12.6 54.85 Q12.1 54.8 11.75 54.45 L10.55 53.1 8.4 50.85 Q7.1 49.65 5.85 48.8 4.6 48.0 3.65 48.05" fill="none" stroke="#000000" stroke-linecap="round" stroke-linejoin="round" stroke-width="2.0"/>
    <path d="M145.0 -4.05 L145.05 -3.75 Q145.05 -3.05 144.6 -2.6 144.1 -2.1 143.4 -2.05 142.7 -2.05 142.2 -2.5 141.7 -3.0 141.65 -3.7 L141.7 -4.0 142.55 -4.0 142.55 -3.75 142.8 -3.15 143.4 -2.95 143.95 -3.2 144.2 -3.75 144.15 -4.0 145.0 -4.05" fill="#c1c1c6" fill-rule="evenodd" stroke="none"/>
    <path d="M145.0 -4.05 L144.15 -4.0 144.2 -3.75 143.95 -3.2 143.4 -2.95 142.8 -3.15 142.55 -3.75 142.55 -4.0 141.7 -4.0 141.65 -3.7 Q141.7 -3.0 142.2 -2.5 142.7 -2.05 143.4 -2.05 144.1 -2.1 144.6 -2.6 145.05 -3.05 145.05 -3.75 L145.0 -4.05" fill="none" stroke="#000000" stroke-linecap="round" stroke-linejoin="round" stroke-width="1.0"/>
    <path d="M102.9 -5.0 L102.95 -4.7 Q102.95 -4.0 102.5 -3.55 102.0 -3.05 101.3 -3.0 100.6 -3.0 100.1 -3.5 99.6 -3.95 99.55 -4.7 L99.6 -4.95 100.45 -4.95 100.45 -4.7 Q100.45 -4.35 100.7 -4.1 L101.3 -3.9 Q101.65 -3.9 101.85 -4.15 L102.1 -4.7 102.05 -4.95 102.9 -5.0" fill="#c1c1c6" fill-rule="evenodd" stroke="none"/>
    <path d="M102.9 -5.0 L102.05 -4.95 102.1 -4.7 101.85 -4.15 Q101.65 -3.9 101.3 -3.9 L100.7 -4.1 Q100.45 -4.35 100.45 -4.7 L100.45 -4.95 99.6 -4.95 99.55 -4.7 Q99.6 -3.95 100.1 -3.5 100.6 -3.0 101.3 -3.0 102.0 -3.05 102.5 -3.55 102.95 -4.0 102.95 -4.7 L102.9 -5.0" fill="none" stroke="#000000" stroke-linecap="round" stroke-linejoin="round" stroke-width="1.0"/>
    <path d="M68.3 -5.05 L68.35 -4.75 Q68.35 -4.05 67.9 -3.6 67.4 -3.1 66.7 -3.05 66.0 -3.05 65.5 -3.5 65.0 -4.0 64.95 -4.7 L65.0 -5.0 65.85 -5.0 65.85 -4.75 Q65.85 -4.4 66.1 -4.15 66.35 -3.95 66.7 -3.95 67.05 -3.95 67.25 -4.2 L67.5 -4.75 67.45 -5.0 68.3 -5.05" fill="#c1c1c6" fill-rule="evenodd" stroke="none"/>
    <path d="M68.3 -5.05 L67.45 -5.0 67.5 -4.75 67.25 -4.2 Q67.05 -3.95 66.7 -3.95 66.35 -3.95 66.1 -4.15 65.85 -4.4 65.85 -4.75 L65.85 -5.0 65.0 -5.0 64.95 -4.7 Q65.0 -4.0 65.5 -3.5 66.0 -3.05 66.7 -3.05 67.4 -3.1 67.9 -3.6 68.35 -4.05 68.35 -4.75 L68.3 -5.05" fill="none" stroke="#000000" stroke-linecap="round" stroke-linejoin="round" stroke-width="1.0"/>
    <path d="M32.2 -6.3 L32.25 -6.0 Q32.25 -5.3 31.8 -4.85 31.3 -4.35 30.6 -4.3 29.9 -4.3 29.4 -4.8 28.9 -5.25 28.85 -6.0 L28.9 -6.25 29.75 -6.25 29.75 -6.0 Q29.75 -5.65 30.0 -5.4 L30.6 -5.2 Q30.95 -5.2 31.15 -5.45 L31.4 -6.0 31.35 -6.25 32.2 -6.3" fill="#c1c1c6" fill-rule="evenodd" stroke="none"/>
    <path d="M32.2 -6.3 L31.35 -6.25 31.4 -6.0 31.15 -5.45 Q30.95 -5.2 30.6 -5.2 L30.0 -5.4 Q29.75 -5.65 29.75 -6.0 L29.75 -6.25 28.9 -6.25 28.85 -6.0 Q28.9 -5.25 29.4 -4.8 29.9 -4.3 30.6 -4.3 31.3 -4.35 31.8 -4.85 32.25 -5.3 32.25 -6.0 L32.2 -6.3" fill="none" stroke="#000000" stroke-linecap="round" stroke-linejoin="round" stroke-width="1.0"/>
    <path d="M184.6 -3.65 L184.65 -3.35 Q184.65 -2.65 184.2 -2.2 183.7 -1.7 183.0 -1.65 182.3 -1.65 181.8 -2.1 181.3 -2.6 181.25 -3.35 L181.3 -3.6 182.15 -3.6 182.15 -3.35 182.4 -2.75 183.0 -2.55 Q183.35 -2.55 183.55 -2.8 L183.8 -3.35 183.75 -3.6 184.6 -3.65" fill="#c1c1c6" fill-rule="evenodd" stroke="none"/>
    <path d="M184.6 -3.65 L183.75 -3.6 183.8 -3.35 183.55 -2.8 Q183.35 -2.55 183.0 -2.55 L182.4 -2.75 182.15 -3.35 182.15 -3.6 181.3 -3.6 181.25 -3.35 Q181.3 -2.6 181.8 -2.1 182.3 -1.65 183.0 -1.65 183.7 -1.7 184.2 -2.2 184.65 -2.65 184.65 -3.35 L184.6 -3.65" fill="none" stroke="#000000" stroke-linecap="round" stroke-linejoin="round" stroke-width="1.0"/>
    <path d="M211.9 -3.35 L211.95 -3.05 Q211.95 -2.35 211.5 -1.9 211.0 -1.4 210.3 -1.35 209.6 -1.35 209.1 -1.8 208.6 -2.3 208.55 -3.0 L208.6 -3.3 209.45 -3.3 209.45 -3.05 Q209.45 -2.7 209.7 -2.45 L210.3 -2.25 Q210.65 -2.25 210.85 -2.5 L211.1 -3.05 211.05 -3.3 211.9 -3.35" fill="#c1c1c6" fill-rule="evenodd" stroke="none"/>
    <path d="M211.9 -3.35 L211.05 -3.3 211.1 -3.05 210.85 -2.5 Q210.65 -2.25 210.3 -2.25 L209.7 -2.45 Q209.45 -2.7 209.45 -3.05 L209.45 -3.3 208.6 -3.3 208.55 -3.0 Q208.6 -2.3 209.1 -1.8 209.6 -1.35 210.3 -1.35 211.0 -1.4 211.5 -1.9 211.95 -2.35 211.95 -3.05 L211.9 -3.35" fill="none" stroke="#000000" stroke-linecap="round" stroke-linejoin="round" stroke-width="1.0"/>
    <path d="M17.55 4.7 Q16.85 6.65 15.25 8.1 13.55 9.5 11.5 9.85 L7.55 9.55 Q5.65 8.85 4.2 7.25 2.8 5.55 2.45 3.5 2.1 1.5 2.75 -0.45 3.45 -2.35 5.1 -3.8 6.75 -5.2 8.75 -5.55 L12.7 -5.25 Q14.65 -4.55 16.1 -2.9 17.5 -1.25 17.85 0.75 18.2 2.8 17.55 4.7" fill="#c1c1c6" fill-rule="evenodd" stroke="none"/>
    <path d="M17.55 4.7 Q16.85 6.65 15.25 8.1 13.55 9.5 11.5 9.85 L7.55 9.55 Q5.65 8.85 4.2 7.25 2.8 5.55 2.45 3.5 2.1 1.5 2.75 -0.45 3.45 -2.35 5.1 -3.8 6.75 -5.2 8.75 -5.55 L12.7 -5.25 Q14.65 -4.55 16.1 -2.9 17.5 -1.25 17.85 0.75 18.2 2.8 17.55 4.7" fill="none" stroke="#000000" stroke-linecap="round" stroke-linejoin="round" stroke-width="1.0"/>
    <path d="M10.45 -5.2 L10.5 -5.15 Q8.2 -4.45 6.95 -3.0 5.65 -1.55 5.5 0.4 5.25 2.35 6.2 4.4 8.0 7.25 10.65 9.1 L10.35 9.55 Q8.7 9.65 7.15 8.95 5.65 8.35 4.5 7.0 3.15 5.4 2.85 3.5 2.5 1.6 3.15 -0.25 3.75 -2.1 5.3 -3.45 6.4 -4.4 7.75 -4.8 L10.45 -5.2" fill="#b6b6b7" fill-rule="evenodd" stroke="none"/>
    <path d="M15.75 -2.6 Q17.1 -1.05 17.45 0.9 17.75 2.75 17.1 4.65 16.5 6.45 14.95 7.8 L12.35 9.25 Q14.0 6.95 14.35 4.4 14.75 1.85 13.95 -0.6 13.15 -3.05 11.35 -5.1 12.6 -4.9 13.75 -4.25 L15.75 -2.6" fill="#d6d6d8" fill-rule="evenodd" stroke="none"/>
    <path d="M12.0 -3.25 Q13.4 -2.75 14.45 -1.55 15.5 -0.35 15.75 1.15 16.0 2.6 15.5 4.05 15.0 5.45 13.8 6.5 12.6 7.55 11.1 7.8 L8.2 7.55 Q6.8 7.05 5.75 5.85 4.7 4.65 4.45 3.15 4.25 1.7 4.7 0.25 5.2 -1.15 6.4 -2.2 7.6 -3.25 9.1 -3.5 L12.0 -3.25" fill="#d8d8d8" fill-rule="evenodd" stroke="none"/>
    <path d="M14.15 -1.25 Q15.45 0.3 15.45 2.25 15.4 4.2 14.05 5.75 14.6 3.75 14.4 1.8 14.25 -0.15 13.4 -2.0 L14.15 -1.25" fill="#e3e3e5" fill-rule="evenodd" stroke="none"/>
    <path d="M6.2 4.4 L8.4 7.1 Q7.1 6.7 6.1 5.6 4.95 4.2 4.85 2.45 4.75 0.7 5.7 -0.75 5.0 1.65 6.2 4.4" fill="#bbbbbc" fill-rule="evenodd" stroke="none"/>
    <path d="M6.15 11.2 L4.75 10.4 9.85 1.15 11.3 1.9 6.15 11.2" fill="#6d6d70" fill-rule="evenodd" stroke="none"/>
    <path d="M6.15 11.2 L4.75 10.4 9.85 1.15 11.3 1.9 6.15 11.2" fill="none" stroke="#000000" stroke-linecap="round" stroke-linejoin="round" stroke-width="1.0"/>
    <path d="M5.95 10.65 L5.8 10.55 10.5 2.0 10.7 2.1 9.85 3.6 8.35 6.35 6.8 9.15 5.95 10.65" fill="#7b7b7c" fill-rule="evenodd" stroke="none"/>
    <path d="M10.3 1.85 L7.95 6.05 5.45 10.35 5.3 10.25 6.15 8.75 7.7 5.95 9.2 3.2 10.0 1.7 10.3 1.85" fill="#59595b" fill-rule="evenodd" stroke="none"/>
    <path d="M7.2 12.7 L6.55 13.2 5.8 13.15 3.25 11.75 2.8 11.1 2.95 10.3 Q3.2 9.9 3.6 9.8 3.95 9.65 4.35 9.8 L6.85 11.25 7.3 11.9 7.2 12.7" fill="#6d6d70" fill-rule="evenodd" stroke="none"/>
    <path d="M7.2 12.7 L6.55 13.2 5.8 13.15 3.25 11.75 2.8 11.1 2.95 10.3 Q3.2 9.9 3.6 9.8 3.95 9.65 4.35 9.8 L6.85 11.25 7.3 11.9 7.2 12.7" fill="none" stroke="#000000" stroke-linecap="round" stroke-linejoin="round" stroke-width="1.0"/>
    <path d="M4.2 10.25 Q4.1 11.2 4.4 11.9 L3.45 11.35 3.2 11.05 Q3.15 10.8 3.25 10.5 L3.65 10.15 4.1 10.2 4.2 10.25" fill="#59595b" fill-rule="evenodd" stroke="none"/>
    <path d="M6.0 12.8 L5.85 12.7 Q5.85 11.75 5.4 10.9 L6.65 11.6 6.9 11.9 6.8 12.45 6.45 12.8 6.0 12.8" fill="#7b7b7c" fill-rule="evenodd" stroke="none"/>
    <path d="M16.05 7.55 L17.35 6.95 20.7 4.9 25.4 0.75 Q27.95 -1.85 30.7 -5.9 30.7 -5.85 32.85 -4.9 34.95 -3.95 38.65 -2.85 42.25 -1.8 46.9 -1.25 51.55 -0.75 56.7 -1.45 61.8 -2.2 66.85 -4.95 L68.25 -4.15 Q69.6 -3.45 72.1 -2.45 74.6 -1.5 77.95 -0.7 L85.1 0.15 Q88.95 0.2 93.1 -0.8 97.25 -1.85 101.4 -4.45 101.45 -4.4 103.4 -3.5 105.3 -2.6 108.7 -1.35 112.05 -0.15 116.35 0.8 L125.3 1.9 Q129.95 2.05 134.6 0.85 139.15 -0.4 143.25 -3.55 L145.65 -2.75 Q148.0 -1.95 152.05 -1.05 156.05 -0.15 161.15 0.3 L171.8 0.0 Q177.3 -0.7 182.7 -3.15 L184.35 -2.5 Q185.95 -1.85 188.8 -1.1 191.55 -0.4 195.2 -0.05 L202.8 -0.3 Q205.45 -0.65 208.15 -1.6" fill="none" stroke="#000000" stroke-linecap="round" stroke-linejoin="round" stroke-width="1.0"/>
    <path d="M212.1 -2.7 L211.3 -2.75 -2.45 -6.1 -3.05 -6.2 Q-3.6 -6.3 -4.1 -6.7 -4.65 -7.15 -4.65 -8.1 -4.55 -9.15 -3.95 -9.5 L-2.85 -9.9 -2.2 -9.9 211.3 -3.65 211.75 -3.8 212.2 -3.55 212.35 -3.1 212.1 -2.7" fill="#c1c1c6" fill-rule="evenodd" stroke="none"/>
    <path d="M212.1 -2.7 L212.35 -3.1 212.2 -3.55 211.75 -3.8 211.3 -3.65 -2.2 -9.9 -2.85 -9.9 -3.95 -9.5 Q-4.55 -9.15 -4.65 -8.1 -4.65 -7.15 -4.1 -6.7 -3.6 -6.3 -3.05 -6.2 L-2.45 -6.1 211.3 -2.75 212.1 -2.7" fill="none" stroke="#000000" stroke-linecap="round" stroke-linejoin="round" stroke-width="1.0"/>
    <path d="M211.85 -3.15 L211.8 -3.0 211.6 -3.0 211.55 -3.05 211.5 -3.15 211.85 -3.15 M25.75 -8.15 L-4.1 -8.6 -3.75 -9.15 -3.6 -9.25 25.75 -8.15" fill="#dbdbdd" fill-rule="evenodd" stroke="none"/>
    <path d="M211.85 -3.3 L211.85 -3.25 211.5 -3.25 211.55 -3.3 211.85 -3.3 M16.2 -6.7 L-3.55 -6.85 -3.9 -7.15 -4.05 -7.3 16.2 -6.7" fill="#9a9a9b" fill-rule="evenodd" stroke="none"/>
    <path d="M11.35 3.6 Q10.75 4.1 9.95 4.05 9.25 4.0 8.65 3.4 8.2 2.8 8.2 2.0 8.3 1.3 8.9 0.7 9.5 0.25 10.3 0.25 11.0 0.35 11.55 0.95 12.05 1.55 12.0 2.35 11.95 3.05 11.35 3.6" fill="#6d6d70" fill-rule="evenodd" stroke="none"/>
    <path d="M11.35 3.6 Q10.75 4.1 9.95 4.05 9.25 4.0 8.65 3.4 8.2 2.8 8.2 2.0 8.3 1.3 8.9 0.7 9.5 0.25 10.3 0.25 11.0 0.35 11.55 0.95 12.05 1.55 12.0 2.35 11.95 3.05 11.35 3.6" fill="none" stroke="#000000" stroke-linecap="round" stroke-linejoin="round" stroke-width="1.0"/>
    <path d="M10.9 3.4 L11.15 2.1 Q11.1 1.4 10.6 0.75 11.0 0.9 11.25 1.15 11.65 1.65 11.6 2.25 11.55 2.85 11.1 3.25 L10.9 3.4" fill="#7b7b7c" fill-rule="evenodd" stroke="none"/>
    <path d="M9.75 0.75 Q9.4 1.75 9.65 2.45 9.95 3.1 10.55 3.6 L9.7 3.6 9.0 3.15 Q8.6 2.65 8.65 2.05 8.7 1.5 9.15 1.05 L9.75 0.75" fill="#59595b" fill-rule="evenodd" stroke="none"/>
    <path d="M-14.2 -21.3 L-13.6 -19.9 Q-13.05 -18.55 -11.6 -16.65 -10.2 -14.8 -7.55 -13.05 -5.95 -12.0 -3.95 -11.15 L-0.1 -9.65 3.2 -8.6 5.35 -8.15 5.85 -7.85 Q6.25 -7.6 6.35 -7.0 6.45 -6.4 5.55 -5.55 5.15 -5.15 3.55 -4.1 1.95 -3.05 -0.55 -1.9 -3.0 -0.75 -6.05 0.0 L-12.5 0.6 Q-15.85 0.45 -19.25 -1.15 -22.65 -2.75 -25.8 -6.25 -28.95 -9.8 -31.55 -15.8 L-14.2 -21.3" fill="#666666" fill-rule="evenodd" stroke="none"/>
    <path d="M-14.2 -21.3 L-13.6 -19.9 Q-13.05 -18.55 -11.6 -16.65 -10.2 -14.8 -7.55 -13.05 -5.95 -12.0 -3.95 -11.15 L-0.1 -9.65 3.2 -8.6 5.35 -8.15 5.85 -7.85 Q6.25 -7.6 6.35 -7.0 6.45 -6.4 5.55 -5.55 5.15 -5.15 3.55 -4.1 1.95 -3.05 -0.55 -1.9 -3.0 -0.75 -6.05 0.0 L-12.5 0.6 Q-15.85 0.45 -19.25 -1.15 -22.65 -2.75 -25.8 -6.25 -28.95 -9.8 -31.55 -15.8" fill="none" stroke="#000000" stroke-linecap="round" stroke-linejoin="round" stroke-width="2.0"/>
    <path d="M-22.65 -22.4 L-23.5 -19.05 Q-23.95 -17.3 -23.95 -15.4 -23.95 -13.55 -23.15 -11.5 -22.4 -9.5 -20.45 -7.4 -17.5 -5.55 -13.4 -3.85 -9.35 -2.2 -4.8 -0.95 -9.7 0.3 -13.85 -0.45 -18.05 -1.3 -21.5 -3.7 -24.9 -6.15 -27.45 -9.75 -29.95 -13.3 -31.5 -17.6 L-30.05 -18.85 -28.9 -20.3 -27.15 -21.45 -26.15 -21.9 -24.5 -22.6 -23.1 -22.95 Q-22.55 -23.0 -22.65 -22.4" fill="#333333" fill-rule="evenodd" stroke="none"/>
    <path d="M2.95 -8.25 L5.2 -7.7 5.65 -7.5 5.95 -7.0 5.8 -6.35 5.3 -5.8 4.85 -5.45 2.3 -3.85 Q0.5 -2.9 -2.05 -1.9 -4.6 -0.95 -7.65 -0.45 -10.7 0.05 -13.95 -0.35 -17.2 -0.75 -20.35 -2.45 -19.35 -1.95 -17.3 -1.75 -15.2 -1.55 -12.55 -1.75 L-7.3 -2.35 Q-4.7 -2.85 -2.65 -3.65 -0.65 -4.5 0.3 -5.55 0.75 -6.2 -0.4 -7.0 L-3.55 -8.95 -7.65 -11.25 -11.1 -13.9 -13.0 -16.25 -13.9 -18.4 -14.6 -20.5 -13.65 -18.6 -11.45 -15.7 Q-10.0 -14.15 -7.75 -12.65 -6.2 -11.7 -4.25 -10.8 L-0.45 -9.3 2.95 -8.25" fill="#999999" fill-rule="evenodd" stroke="none"/>
    <path d="M14.25 -40.3 Q14.7 -37.85 14.0 -35.1 13.1 -31.85 11.15 -29.8 L4.85 -30.65 0.0 -30.7 Q-0.85 -32.4 -1.0 -34.45 -1.2 -36.5 -0.6 -38.75 0.1 -41.45 1.7 -43.4 3.25 -45.4 5.25 -46.3 7.2 -47.2 9.25 -46.7 11.3 -46.15 12.6 -44.45 13.85 -42.75 14.25 -40.3" fill="#ffffff" fill-rule="evenodd" stroke="none"/>
    <path d="M14.25 -40.3 Q13.85 -42.75 12.6 -44.45 11.3 -46.15 9.25 -46.7 7.2 -47.2 5.25 -46.3 3.25 -45.4 1.7 -43.4 0.1 -41.45 -0.6 -38.75 -1.2 -36.5 -1.0 -34.45 -0.85 -32.4 0.0 -30.7 L4.85 -30.65 11.15 -29.8 Q13.1 -31.85 14.0 -35.1 14.7 -37.85 14.25 -40.3" fill="none" stroke="#000000" stroke-linecap="round" stroke-linejoin="round" stroke-width="1.0"/>
    <path d="M2.1 -39.3 Q1.45 -36.9 1.8 -34.75 2.1 -32.65 3.2 -31.1 L0.35 -31.1 Q-0.45 -32.65 -0.6 -34.65 -0.75 -36.65 -0.2 -38.85 0.5 -41.35 1.85 -43.2 3.2 -45.05 4.95 -45.9 6.7 -46.8 8.55 -46.5 6.4 -46.1 4.65 -44.15 2.9 -42.25 2.1 -39.3" fill="#e5e2be" fill-rule="evenodd" stroke="none"/>
    <path d="M29.5 -30.3 Q28.85 -27.9 27.7 -26.1 26.6 -24.3 25.2 -23.35 22.15 -25.75 18.85 -27.25 18.45 -29.75 19.25 -32.9 19.9 -35.4 21.1 -37.25 22.3 -39.1 23.8 -40.0 25.25 -40.9 26.7 -40.55 28.15 -40.2 28.95 -38.65 29.8 -37.2 30.0 -35.0 30.1 -32.8 29.5 -30.3" fill="#ffffff" fill-rule="evenodd" stroke="none"/>
    <path d="M29.5 -30.3 Q30.1 -32.8 30.0 -35.0 29.8 -37.2 28.95 -38.65 28.15 -40.2 26.7 -40.55 25.25 -40.9 23.8 -40.0 22.3 -39.1 21.1 -37.25 19.9 -35.4 19.25 -32.9 18.45 -29.75 18.85 -27.25 22.15 -25.75 25.2 -23.35 26.6 -24.3 27.7 -26.1 28.85 -27.9 29.5 -30.3" fill="none" stroke="#000000" stroke-linecap="round" stroke-linejoin="round" stroke-width="1.0"/>
    <path d="M19.55 -32.85 L20.0 -34.35 Q20.9 -36.7 22.25 -38.25 23.6 -39.8 25.1 -40.2 23.45 -38.6 22.4 -35.8 L21.95 -34.4 Q21.35 -32.0 21.5 -29.85 21.65 -27.7 22.55 -26.2 23.35 -24.9 24.55 -24.6 L26.05 -24.65 24.9 -23.75 Q22.2 -25.85 19.25 -27.2 19.05 -28.5 19.1 -29.9 19.15 -31.35 19.55 -32.85" fill="#e5e2be" fill-rule="evenodd" stroke="none"/>
    <path d="M13.2 -32.3 Q12.5 -30.9 11.35 -30.3 10.2 -29.65 9.1 -30.1 8.05 -30.65 7.8 -31.9 7.55 -33.15 8.2 -34.6 8.9 -36.05 10.05 -36.65 L12.3 -36.85 Q13.35 -36.3 13.65 -35.0 13.9 -33.75 13.2 -32.3" fill="#000000" fill-rule="evenodd" stroke="none"/>
    <path d="M12.1 -31.45 L11.35 -30.65 10.45 -30.6 Q10.05 -30.8 9.95 -31.3 9.85 -31.8 10.1 -32.4 L10.85 -33.2 11.75 -33.25 12.25 -32.55 12.1 -31.45" fill="#ffffff" fill-rule="evenodd" stroke="none"/>
    <path d="M27.55 -25.85 Q26.95 -24.65 26.05 -24.1 25.15 -23.55 24.35 -23.9 23.55 -24.35 23.4 -25.35 23.25 -26.4 23.8 -27.6 24.4 -28.75 25.3 -29.3 L27.0 -29.5 Q27.75 -29.1 27.95 -28.05 28.1 -27.05 27.55 -25.85" fill="#000000" fill-rule="evenodd" stroke="none"/>
    <path d="M26.45 -25.0 L25.9 -24.4 25.2 -24.35 24.75 -24.9 24.9 -25.75 25.5 -26.4 26.2 -26.45 26.6 -25.85 26.45 -25.0" fill="#ffffff" fill-rule="evenodd" stroke="none"/>
    <path d="M12.65 -44.35 Q11.3 -42.45 9.3 -41.0 7.3 -39.6 4.85 -38.7 2.0 -37.85 -0.75 -37.8 L-0.55 -38.7 Q0.15 -41.45 1.7 -43.4 3.25 -45.4 5.25 -46.3 7.25 -47.2 9.3 -46.7 11.35 -46.15 12.65 -44.35" fill="#666666" fill-rule="evenodd" stroke="none"/>
    <path d="M12.65 -44.35 Q11.35 -46.15 9.3 -46.7 7.25 -47.2 5.25 -46.3 3.25 -45.4 1.7 -43.4 0.15 -41.45 -0.55 -38.7 L-0.75 -37.8 Q2.0 -37.85 4.85 -38.7 7.3 -39.6 9.3 -41.0 11.3 -42.45 12.65 -44.35" fill="none" stroke="#000000" stroke-linecap="round" stroke-linejoin="round" stroke-width="1.0"/>
    <path d="M9.35 -46.3 Q6.85 -45.15 5.2 -43.15 3.55 -41.15 2.6 -38.55 L-0.35 -38.15 -0.25 -38.65 Q0.35 -40.95 1.65 -42.75 2.95 -44.6 4.65 -45.6 6.95 -46.9 9.2 -46.4 L9.35 -46.3" fill="#333333" fill-rule="evenodd" stroke="none"/>
    <path d="M29.4 -30.2 L29.5 -30.3 29.45 -30.2 29.4 -30.2" fill="#1979af" fill-rule="evenodd" stroke="none"/>
    <path d="M29.4 -30.2 L28.7 -30.7 Q26.1 -32.25 24.95 -34.75 23.8 -37.3 24.35 -40.25 L26.7 -40.55 Q28.1 -40.2 28.95 -38.65 29.8 -37.2 29.95 -35.0 30.1 -32.8 29.5 -30.3 L29.4 -30.2" fill="#666666" fill-rule="evenodd" stroke="none"/>
    <path d="M29.5 -30.3 Q30.1 -32.8 29.95 -35.0 29.8 -37.2 28.95 -38.65 28.1 -40.2 26.7 -40.55 L24.35 -40.25 Q23.8 -37.3 24.95 -34.75 26.1 -32.25 28.7 -30.7 L29.4 -30.2 M29.5 -30.3 L29.45 -30.2 29.4 -30.2" fill="none" stroke="#000000" stroke-linecap="round" stroke-linejoin="round" stroke-width="1.0"/>
    <path d="M28.6 -38.7 L26.6 -38.9 Q25.55 -38.85 24.55 -38.2 L24.55 -38.4 24.7 -40.05 26.65 -40.25 Q27.85 -39.95 28.6 -38.7" fill="#333333" fill-rule="evenodd" stroke="none"/>
    <path d="M10.6 -49.3 L11.9 -50.25 12.5 -50.7 12.25 -49.9 Q12.0 -49.15 11.0 -48.35 10.05 -47.5 7.95 -46.95 L2.3 -46.65 3.45 -46.85 6.1 -47.4 Q7.65 -47.75 9.0 -48.35 9.8 -48.75 10.6 -49.3" fill="#000000" fill-rule="evenodd" stroke="none"/>
    <path d="M25.4 -44.85 L26.2 -43.1 Q26.7 -42.05 27.6 -40.95 L28.9 -39.6 30.15 -38.6 30.75 -38.15 29.9 -38.05 Q29.2 -38.0 28.25 -38.5 27.3 -39.0 26.4 -40.6 25.6 -42.25 25.2 -45.55 L25.4 -44.85" fill="#000000" fill-rule="evenodd" stroke="none"/>
    <path d="M7.25 -50.4 L7.9 -50.85 Q8.55 -51.2 9.4 -51.15 10.2 -51.15 10.75 -50.05 L10.15 -49.65 8.8 -49.4 Q8.0 -49.45 7.25 -50.4" fill="#ffffff" fill-rule="evenodd" stroke="none"/>
    <path d="M29.05 -39.75 Q28.65 -40.15 28.9 -41.25 L29.55 -41.25 Q30.15 -41.2 30.6 -40.8 31.05 -40.45 30.6 -39.3 L30.0 -39.3 Q29.5 -39.35 29.05 -39.75" fill="#ffffff" fill-rule="evenodd" stroke="none"/>
  </g>
</svg>
