<?xml version="1.0" encoding="UTF-8" standalone="no"?>
<svg xmlns:xlink="http://www.w3.org/1999/xlink" height="14.55px" width="46.95px" xmlns="http://www.w3.org/2000/svg">
  <g transform="matrix(1, 0, 0, 1, 23.45, 7.3)">
    <path d="M-4.95 -3.5 L-4.4 -2.85 -4.4 -2.3 -4.9 -2.0 -6.1 -2.05 -7.55 -2.1 -9.5 -2.35 -11.95 -2.75 -14.05 -3.0 Q-14.85 -2.95 -15.55 -2.45 L-16.95 -1.35 -17.9 -0.35 Q-18.25 -0.05 -18.5 -0.1 -18.8 -0.15 -18.95 -0.3 L-19.1 -0.55 Q-19.65 -1.05 -19.35 -1.55 L-18.35 -2.4 -17.1 -2.95 -16.5 -3.15 Q-17.25 -3.6 -17.25 -4.1 -17.3 -4.6 -16.75 -5.0 L-15.45 -5.6 -14.05 -5.55 -13.1 -5.05 -12.8 -4.75 -12.05 -4.85 -10.2 -4.9 -8.6 -4.6 -7.4 -4.15 -6.85 -3.85 -4.95 -3.5" fill="#ffffff" fill-rule="evenodd" stroke="none"/>
    <path d="M-4.95 -3.5 L-6.85 -3.85 -7.4 -4.15 -8.6 -4.6 -10.2 -4.9 -12.05 -4.85 -12.8 -4.75 -13.1 -5.05 -14.05 -5.55 -15.45 -5.6 -16.75 -5.0 Q-17.3 -4.6 -17.25 -4.1 -17.25 -3.6 -16.5 -3.15 L-17.1 -2.95 -18.35 -2.4 -19.35 -1.55 Q-19.65 -1.05 -19.1 -0.55 L-18.95 -0.3 Q-18.8 -0.15 -18.5 -0.1 -18.25 -0.05 -17.9 -0.35 L-16.95 -1.35 -15.55 -2.45 Q-14.85 -2.95 -14.05 -3.0 L-11.95 -2.75 -9.5 -2.35 -7.55 -2.1 -6.1 -2.05 -4.9 -2.0 -4.4 -2.3 -4.4 -2.85 -4.95 -3.5" fill="none" stroke="#000000" stroke-linecap="round" stroke-linejoin="round" stroke-width="1.0"/>
    <path d="M10.3 4.3 L10.05 4.65 9.65 4.85 10.05 5.5 9.9 6.25 9.35 6.75 Q8.7 6.75 8.6 6.25 8.5 5.75 8.65 5.15 L8.95 4.2 8.35 4.15 7.85 3.85 7.6 3.45 7.15 3.1 6.65 2.95 6.1 2.8 5.7 2.35 5.35 1.85 4.55 1.5 3.9 1.1 3.45 0.45 Q3.3 0.1 3.45 -0.2 L3.95 -0.55 4.9 -0.3 5.3 0.0 5.7 0.3 6.15 0.3 6.55 0.2 Q7.1 0.1 7.5 0.45 L8.15 1.2 8.85 1.95 9.8 2.45 Q10.25 2.75 10.4 3.4 L10.3 4.3" fill="#ffffff" fill-rule="evenodd" stroke="none"/>
    <path d="M10.3 4.3 L10.05 4.65 9.65 4.85 10.05 5.5 9.9 6.25 9.35 6.75 Q8.7 6.75 8.6 6.25 8.5 5.75 8.65 5.15 L8.95 4.2 8.35 4.15 7.85 3.85 7.6 3.45 7.15 3.1 6.65 2.95 6.1 2.8 5.7 2.35 5.35 1.85 4.55 1.5 3.9 1.1 3.45 0.45 Q3.3 0.1 3.45 -0.2 L3.95 -0.55 4.9 -0.3 5.3 0.0 5.7 0.3 6.15 0.3 6.55 0.2 Q7.1 0.1 7.5 0.45 L8.15 1.2 8.85 1.95 9.8 2.45 Q10.25 2.75 10.4 3.4 L10.3 4.3" fill="none" stroke="#000000" stroke-linecap="round" stroke-linejoin="round" stroke-width="1.0"/>
    <path d="M16.25 3.8 L16.95 3.45 18.45 2.9 19.8 2.8 Q20.3 2.95 20.0 3.8 L19.1 5.4 18.05 5.55 16.25 3.8" fill="#ffffff" fill-rule="evenodd" stroke="none"/>
    <path d="M16.25 3.8 L16.95 3.45 18.45 2.9 19.8 2.8 Q20.3 2.95 20.0 3.8 L19.1 5.4 18.05 5.55 16.25 3.8" fill="none" stroke="#000000" stroke-linecap="round" stroke-linejoin="round" stroke-width="1.0"/>
    <path d="M-19.3 -5.25 Q-20.85 -3.55 -21.95 -3.8 -23.0 -4.05 -22.95 -5.8 -22.85 -6.75 -22.3 -6.8 L-21.05 -6.5 -19.85 -5.7 -19.3 -5.25" fill="#ffffff" fill-rule="evenodd" stroke="none"/>
    <path d="M-19.3 -5.25 L-19.85 -5.7 -21.05 -6.5 -22.3 -6.8 Q-22.85 -6.75 -22.95 -5.8 -23.0 -4.05 -21.95 -3.8 -20.85 -3.55 -19.3 -5.25" fill="none" stroke="#000000" stroke-linecap="round" stroke-linejoin="round" stroke-width="1.0"/>
    <path d="M19.45 0.3 L19.85 -0.3 20.8 -1.45 21.9 -2.1 Q22.45 -2.2 22.8 -1.35 23.4 0.35 22.4 0.85 21.45 1.45 19.45 0.3" fill="#ffffff" fill-rule="evenodd" stroke="none"/>
    <path d="M19.45 0.3 L19.85 -0.3 20.8 -1.45 21.9 -2.1 Q22.45 -2.2 22.8 -1.35 23.4 0.35 22.4 0.85 21.45 1.45 19.45 0.3" fill="none" stroke="#000000" stroke-linecap="round" stroke-linejoin="round" stroke-width="1.0"/>
  </g>
</svg>
