<?xml version="1.0" encoding="UTF-8" standalone="no"?>
<svg xmlns:xlink="http://www.w3.org/1999/xlink" height="23.9px" width="54.15px" xmlns="http://www.w3.org/2000/svg">
  <g transform="matrix(1, 0, 0, 1, 28.25, 12.7)">
    <path d="M-5.0 -3.15 L-4.45 -2.45 -4.45 -1.8 Q-4.45 -1.5 -4.95 -1.45 L-6.2 -1.5 -7.65 -1.6 -9.65 -1.85 -12.2 -2.35 -14.3 -2.55 Q-15.1 -2.55 -15.85 -2.0 L-17.25 -0.7 -18.25 0.4 Q-18.6 0.75 -18.9 0.7 L-19.3 0.45 -19.5 0.2 Q-20.05 -0.4 -19.75 -0.95 L-18.75 -1.9 -17.45 -2.55 -16.8 -2.75 Q-17.6 -3.3 -17.6 -3.85 -17.65 -4.4 -17.1 -4.9 L-15.75 -5.55 -14.35 -5.45 Q-13.7 -5.25 -13.35 -4.9 L-13.05 -4.55 -12.3 -4.7 -10.35 -4.75 -8.75 -4.45 -7.5 -3.9 -6.95 -3.55 Q-5.55 -3.45 -5.0 -3.15" fill="#ffffff" fill-rule="evenodd" stroke="none"/>
    <path d="M-5.0 -3.15 Q-5.55 -3.45 -6.95 -3.55 L-7.5 -3.9 -8.75 -4.45 -10.35 -4.75 -12.3 -4.7 -13.05 -4.55 -13.35 -4.9 Q-13.7 -5.25 -14.35 -5.45 L-15.75 -5.55 -17.1 -4.9 Q-17.65 -4.4 -17.6 -3.85 -17.6 -3.3 -16.8 -2.75 L-17.45 -2.55 -18.75 -1.9 -19.75 -0.95 Q-20.05 -0.4 -19.5 0.2 L-19.3 0.45 -18.9 0.7 Q-18.6 0.75 -18.25 0.4 L-17.25 -0.7 -15.85 -2.0 Q-15.1 -2.55 -14.3 -2.55 L-12.2 -2.35 -9.65 -1.85 -7.65 -1.6 -6.2 -1.5 -4.95 -1.45 Q-4.45 -1.5 -4.45 -1.8 L-4.45 -2.45 -5.0 -3.15" fill="none" stroke="#000000" stroke-linecap="round" stroke-linejoin="round" stroke-width="1.0"/>
    <path d="M11.5 5.45 L11.2 5.9 Q10.9 6.2 10.75 6.1 L11.2 6.9 11.05 7.85 10.35 8.4 Q9.65 8.4 9.5 7.8 9.4 7.2 9.6 6.5 L9.9 5.35 9.2 5.25 8.65 4.9 8.35 4.4 7.85 3.95 7.2 3.8 6.6 3.6 6.15 3.05 5.75 2.45 Q5.3 2.2 4.8 2.05 L4.05 1.55 Q3.65 1.25 3.5 0.75 3.35 0.35 3.5 -0.05 3.65 -0.45 4.1 -0.45 L5.2 -0.2 5.65 0.2 6.15 0.6 6.65 0.55 7.1 0.4 Q7.75 0.35 8.25 0.7 L9.0 1.65 Q9.25 2.3 9.85 2.6 10.4 2.85 10.95 3.2 11.45 3.55 11.65 4.35 L11.5 5.45" fill="#ffffff" fill-rule="evenodd" stroke="none"/>
    <path d="M11.5 5.45 L11.2 5.9 Q10.9 6.2 10.75 6.1 L11.2 6.9 11.05 7.85 10.35 8.4 Q9.65 8.4 9.5 7.8 9.4 7.2 9.6 6.5 L9.9 5.35 9.2 5.25 8.65 4.9 8.35 4.4 7.85 3.95 7.2 3.8 6.6 3.6 6.15 3.05 5.75 2.45 Q5.3 2.2 4.8 2.05 L4.05 1.55 Q3.65 1.25 3.5 0.75 3.35 0.35 3.5 -0.05 3.65 -0.45 4.1 -0.45 L5.2 -0.2 5.65 0.2 6.15 0.6 6.65 0.55 7.1 0.4 Q7.75 0.35 8.25 0.7 L9.0 1.65 Q9.25 2.3 9.85 2.6 10.4 2.85 10.95 3.2 11.45 3.55 11.65 4.35 L11.5 5.45" fill="none" stroke="#000000" stroke-linecap="round" stroke-linejoin="round" stroke-width="1.0"/>
    <path d="M20.35 8.8 L21.05 8.45 22.55 7.9 23.9 7.8 Q24.4 7.95 24.1 8.8 L23.2 10.4 Q22.8 10.9 22.15 10.55 L20.35 8.8" fill="#ffffff" fill-rule="evenodd" stroke="none"/>
    <path d="M20.35 8.8 L21.05 8.45 22.55 7.9 23.9 7.8 Q24.4 7.95 24.1 8.8 L23.2 10.4 Q22.8 10.9 22.15 10.55 L20.35 8.8" fill="none" stroke="#000000" stroke-linecap="round" stroke-linejoin="round" stroke-width="1.0"/>
    <path d="M-24.1 -10.65 Q-25.65 -8.95 -26.75 -9.2 -27.8 -9.45 -27.75 -11.2 -27.65 -12.15 -27.1 -12.2 L-25.85 -11.9 -24.65 -11.1 -24.1 -10.65" fill="#ffffff" fill-rule="evenodd" stroke="none"/>
    <path d="M-24.1 -10.65 L-24.65 -11.1 -25.85 -11.9 -27.1 -12.2 Q-27.65 -12.15 -27.75 -11.2 -27.8 -9.45 -26.75 -9.2 -25.65 -8.95 -24.1 -10.65" fill="none" stroke="#000000" stroke-linecap="round" stroke-linejoin="round" stroke-width="1.0"/>
    <path d="M21.85 -1.4 L22.25 -2.0 23.2 -3.15 Q23.75 -3.7 24.3 -3.8 24.85 -3.9 25.2 -3.05 25.8 -1.35 24.8 -0.85 23.85 -0.25 21.85 -1.4" fill="#ffffff" fill-rule="evenodd" stroke="none"/>
    <path d="M21.85 -1.4 L22.25 -2.0 23.2 -3.15 Q23.75 -3.7 24.3 -3.8 24.85 -3.9 25.2 -3.05 25.8 -1.35 24.8 -0.85 23.85 -0.25 21.85 -1.4" fill="none" stroke="#000000" stroke-linecap="round" stroke-linejoin="round" stroke-width="1.0"/>
  </g>
</svg>
