<?xml version="1.0" encoding="UTF-8" standalone="no"?>
<svg xmlns:xlink="http://www.w3.org/1999/xlink" height="16.05px" width="26.35px" xmlns="http://www.w3.org/2000/svg">
  <g transform="matrix(1, 0, 0, 1, 2.2, 29.45)">
    <path d="M15.05 -21.2 Q16.95 -21.05 18.35 -20.25 19.7 -19.45 19.9 -18.15 20.05 -16.9 18.3 -15.3 17.3 -14.45 15.95 -14.1 L13.2 -13.9 10.55 -14.5 Q9.35 -14.95 8.1 -15.9 L5.65 -17.8 3.05 -19.4 Q1.75 -20.05 0.3 -19.95 0.1 -21.05 0.35 -21.7 L1.3 -22.7 3.25 -23.15 5.45 -23.0 10.25 -22.0 15.05 -21.2" fill="#d8a235" fill-rule="evenodd" stroke="none"/>
    <path d="M15.05 -21.2 L10.25 -22.0 5.45 -23.0 3.25 -23.15 1.3 -22.7 0.35 -21.7 Q0.1 -21.05 0.3 -19.95 1.75 -20.05 3.05 -19.4 L5.65 -17.8 8.1 -15.9 Q9.35 -14.95 10.55 -14.5 L13.2 -13.9 15.95 -14.1 Q17.3 -14.45 18.3 -15.3 20.05 -16.9 19.9 -18.15 19.7 -19.45 18.35 -20.25 16.95 -21.05 15.05 -21.2" fill="none" stroke="#000000" stroke-linecap="round" stroke-linejoin="round" stroke-width="1.0"/>
    <path d="M17.9 -18.7 L17.3 -18.1 Q16.05 -17.25 14.45 -16.9 L11.15 -17.0 8.2 -18.75 5.4 -20.45 Q4.0 -21.2 2.25 -21.4 L3.0 -22.15 Q3.65 -22.5 4.55 -22.5 L6.3 -22.35 10.2 -21.6 14.05 -20.95 Q15.5 -20.85 16.6 -20.2 17.65 -19.65 17.9 -18.7" fill="#b23820" fill-rule="evenodd" stroke="none"/>
    <path d="M17.9 -18.7 Q17.65 -19.65 16.6 -20.2 15.5 -20.85 14.05 -20.95 L10.2 -21.6 6.3 -22.35 4.55 -22.5 Q3.65 -22.5 3.0 -22.15 L2.25 -21.4 Q4.0 -21.2 5.4 -20.45 L8.2 -18.75 11.15 -17.0 14.45 -16.9 Q16.05 -17.25 17.3 -18.1 L17.9 -18.7" fill="none" stroke="#000000" stroke-linecap="round" stroke-linejoin="round" stroke-width="1.0"/>
    <path d="M22.45 -20.85 L23.5 -20.05 23.6 -19.4 23.55 -18.2 Q23.45 -17.5 22.9 -17.1 L21.65 -17.0 20.55 -17.4 20.05 -17.65 Q18.6 -16.35 17.35 -16.3 16.15 -16.25 14.95 -17.0 L12.4 -18.65 Q9.05 -20.8 5.05 -20.95 L2.05 -20.9 0.15 -20.4 -1.6 -19.5 Q-1.8 -19.45 -1.6 -20.0 L-1.15 -21.25 -0.55 -22.65 -0.2 -23.4 Q0.85 -24.55 2.25 -25.15 2.6 -25.4 3.05 -25.5 L6.25 -26.05 9.55 -26.25 Q11.2 -26.35 12.6 -27.25 L13.85 -28.2 Q14.7 -28.75 15.45 -28.95 16.25 -29.1 16.5 -28.0 16.75 -26.8 17.85 -25.5 18.9 -24.1 20.25 -22.9 L22.45 -20.85" fill="#f9c248" fill-rule="evenodd" stroke="none"/>
    <path d="M22.45 -20.85 L23.5 -20.05 23.6 -19.4 23.55 -18.2 Q23.45 -17.5 22.9 -17.1 L21.65 -17.0 20.55 -17.4 20.05 -17.65 Q18.6 -16.35 17.35 -16.3 16.15 -16.25 14.95 -17.0 L12.4 -18.65 Q9.05 -20.8 5.05 -20.95 L2.05 -20.9 0.15 -20.4 -1.6 -19.5 Q-1.8 -19.45 -1.6 -20.0 L-1.15 -21.25 -0.55 -22.65 -0.2 -23.4 Q0.85 -24.55 2.25 -25.15 2.6 -25.4 3.05 -25.5 L6.25 -26.05 9.55 -26.25 Q11.2 -26.35 12.6 -27.25 L13.85 -28.2 Q14.7 -28.75 15.45 -28.95 16.25 -29.1 16.5 -28.0 16.75 -26.8 17.85 -25.5 18.9 -24.1 20.25 -22.9 L22.45 -20.85" fill="none" stroke="#000000" stroke-linecap="round" stroke-linejoin="round" stroke-width="1.0"/>
    <path d="M21.25 -19.45 Q22.55 -19.35 22.9 -18.95 23.25 -18.5 23.0 -18.05 22.65 -17.6 21.95 -17.5 21.2 -17.4 20.25 -18.0 L20.1 -18.05 20.0 -18.15 19.8 -17.95 Q18.65 -16.85 17.65 -16.7 16.6 -16.6 15.65 -17.05 14.6 -17.55 13.5 -18.35 L12.55 -18.95 Q9.0 -21.15 5.05 -21.35 L2.2 -21.25 0.35 -20.9 -1.2 -20.2 -0.9 -21.25 -0.7 -21.8 0.7 -22.05 4.1 -22.3 8.1 -22.15 Q10.1 -21.9 11.45 -21.15 L13.8 -19.8 16.3 -18.6 17.3 -18.25 17.85 -18.35 18.45 -18.6 19.85 -19.15 21.25 -19.45" fill="#d8a235" fill-rule="evenodd" stroke="none"/>
    <path d="M13.75 -24.3 L14.4 -23.9 15.2 -23.2 Q15.55 -22.85 14.9 -22.7 14.25 -22.6 14.0 -23.0 L13.75 -23.8 13.75 -24.3" fill="#d8a235" fill-rule="evenodd" stroke="none"/>
    <path d="M20.45 -20.85 Q19.35 -21.6 17.95 -23.35 L16.0 -25.95 15.25 -26.9 15.15 -27.05 14.6 -26.95 13.4 -26.7 12.35 -26.6 12.85 -27.15 Q13.3 -27.7 14.05 -28.15 L15.6 -28.4 16.15 -27.45 17.55 -25.1 Q18.5 -23.75 19.85 -22.35 21.15 -20.95 22.85 -19.95 L22.2 -20.0 Q21.55 -20.15 20.45 -20.85" fill="#ffe4b3" fill-rule="evenodd" stroke="none"/>
  </g>
</svg>
