<?xml version="1.0" encoding="UTF-8" standalone="no"?>
<svg xmlns:xlink="http://www.w3.org/1999/xlink" height="49.95px" width="61.35px" xmlns="http://www.w3.org/2000/svg">
  <g transform="matrix(1, 0, 0, 1, 57.45, 30.35)">
    <path d="M-23.25 -24.8 L-20.95 -26.7 -17.8 -27.9 -15.8 -27.6 -14.6 -23.5 -14.6 -21.75 -17.75 -21.25 -18.7 -20.95 Q-21.3 -20.15 -24.65 -18.45 -25.65 -18.45 -25.95 -19.1 -26.4 -19.95 -27.6 -20.3 L-24.55 -23.5 -23.25 -24.8 M-50.5 -20.25 L-52.3 -19.85 -56.9 -19.85 Q-56.9 -20.75 -57.1 -20.75 L-57.1 -24.95 -51.85 -24.95 -47.95 -24.1 Q-45.35 -23.45 -44.25 -22.65 L-44.9 -20.8 Q-45.25 -19.85 -45.9 -19.85 L-47.7 -20.4 -50.5 -20.25" fill="#003300" fill-rule="evenodd" stroke="none"/>
    <path d="M-18.7 -20.95 L-18.3 -20.45 -17.65 -20.85 Q-15.85 -20.9 -7.25 -12.35 -5.85 -14.75 -3.55 -17.2 -0.85 -20.15 1.4 -20.95 L1.95 -16.7 Q1.95 -10.85 -2.6 -6.85 3.0 -3.4 3.55 2.55 L1.1 2.9 Q-1.6 2.9 -4.0 0.2 -5.6 -1.6 -6.3 -3.4 L-10.7 1.15 Q-14.05 4.25 -16.5 5.3 L-16.7 5.55 -16.9 5.85 -12.0 6.45 -11.65 7.45 Q-11.65 8.85 -14.1 8.8 L-19.3 9.1 -24.05 13.35 -27.2 15.75 Q-29.0 16.95 -30.1 17.1 -30.95 19.3 -33.3 19.25 -35.7 19.15 -36.4 18.55 -37.15 17.9 -37.4 16.55 L-37.95 16.7 Q-43.6 13.8 -47.15 10.95 L-47.5 10.65 -53.05 10.7 Q-57.55 10.4 -56.7 8.05 L-53.65 8.2 Q-51.4 8.2 -51.05 7.05 L-51.75 6.1 Q-55.0 1.4 -55.2 -6.75 -55.45 -14.9 -50.45 -19.95 L-50.5 -20.25 -47.7 -20.4 -45.9 -19.85 Q-45.25 -19.85 -44.9 -20.8 L-44.25 -22.65 Q-45.35 -23.45 -47.95 -24.1 L-47.7 -25.65 Q-42.1 -30.75 -34.55 -29.9 -27.0 -29.05 -24.25 -25.7 L-23.25 -24.8 -24.55 -23.5 -27.6 -20.3 Q-26.4 -19.95 -25.95 -19.1 -25.65 -18.45 -24.65 -18.45 -21.3 -20.15 -18.7 -20.95 M-13.7 -8.25 Q-14.0 -11.1 -15.2 -14.55 -16.55 -18.4 -18.25 -20.45 L-18.3 -20.45 -18.25 -20.45 Q-16.55 -18.4 -15.2 -14.55 -14.0 -11.1 -13.7 -8.25 L-13.6 -6.65 -13.55 -5.85 Q-13.55 -1.0 -14.45 1.6 -15.1 3.2 -16.5 5.3 -15.1 3.2 -14.45 1.6 -13.55 -1.0 -13.55 -5.85 L-13.6 -6.65 -13.7 -8.25 M-6.55 -4.0 L-6.3 -3.4 -6.55 -4.0 M-7.55 -11.85 L-7.25 -12.35 -7.55 -11.85 M-19.3 9.1 L-19.05 8.75 -17.9 7.25 -17.1 6.15 -16.9 5.85 -17.1 6.15 -17.9 7.25 -19.05 8.75 -19.3 9.1 M-40.8 9.0 Q-37.9 14.4 -37.45 16.45 L-37.4 16.55 -37.45 16.45 Q-37.9 14.4 -40.8 9.0 M-26.8 7.25 Q-29.25 11.3 -29.25 12.1 -29.45 15.1 -30.1 17.1 -29.45 15.1 -29.25 12.1 -29.25 11.3 -26.8 7.25 M-47.5 10.65 L-48.0 10.2 -50.95 7.25 -51.05 7.05 -50.95 7.25 -48.0 10.2 -47.5 10.65" fill="#497028" fill-rule="evenodd" stroke="none"/>
    <path d="M-23.25 -24.8 L-20.95 -26.7 -17.8 -27.9 -15.8 -27.6 -14.6 -23.5 -14.6 -21.75 -17.75 -21.25 -18.7 -20.95 M-16.7 5.55 L-16.9 5.85 -17.1 6.15 -17.9 7.25 -19.05 8.75 -19.3 9.1 -24.05 13.35 -27.2 15.75 Q-29.0 16.95 -30.1 17.1 -30.95 19.3 -33.3 19.25 -35.7 19.15 -36.4 18.55 -37.15 17.9 -37.4 16.55 L-37.45 16.45 Q-37.9 14.4 -40.8 9.0 M-37.95 16.7 Q-43.6 13.8 -47.15 10.95 M-51.05 7.05 L-51.75 6.1 Q-55.0 1.4 -55.2 -6.75 -55.45 -14.9 -50.45 -19.95 M-50.5 -20.25 L-52.3 -19.85 -56.9 -19.85 Q-56.9 -20.75 -57.1 -20.75 L-57.1 -24.95 -51.85 -24.95 -47.95 -24.1 Q-45.35 -23.45 -44.25 -22.65 L-44.9 -20.8 Q-45.25 -19.85 -45.9 -19.85 L-47.7 -20.4 -50.5 -20.25 M-47.7 -25.65 Q-42.1 -30.75 -34.55 -29.9 -27.0 -29.05 -24.25 -25.7 M-23.25 -24.8 L-24.55 -23.5 -27.6 -20.3 Q-26.4 -19.95 -25.95 -19.1 -25.65 -18.45 -24.65 -18.45 -21.3 -20.15 -18.7 -20.95 M-13.7 -8.25 L-13.6 -6.65 -13.55 -5.85 Q-13.55 -1.0 -14.45 1.6 -15.1 3.2 -16.5 5.3 M-51.05 7.05 L-50.95 7.25 -48.0 10.2 -47.5 10.65 M-30.1 17.1 Q-29.45 15.1 -29.25 12.1 -29.25 11.3 -26.8 7.25" fill="none" stroke="#000000" stroke-linecap="round" stroke-linejoin="round" stroke-width="0.75"/>
    <path d="M-18.7 -20.95 L-18.3 -20.45 -17.65 -20.85 Q-15.85 -20.9 -7.25 -12.35 -5.85 -14.75 -3.55 -17.2 -0.85 -20.15 1.4 -20.95 L1.95 -16.7 Q1.95 -10.85 -2.6 -6.85 3.0 -3.4 3.55 2.55 L1.1 2.9 Q-1.6 2.9 -4.0 0.2 -5.6 -1.6 -6.3 -3.4 L-10.7 1.15 Q-14.05 4.25 -16.5 5.3 L-16.7 5.55 M-16.9 5.85 L-12.0 6.45 -11.65 7.45 Q-11.65 8.85 -14.1 8.8 L-19.3 9.1 M-47.15 10.95 L-47.5 10.65 -53.05 10.7 Q-57.55 10.4 -56.7 8.05 L-53.65 8.2 Q-51.4 8.2 -51.05 7.05 M-18.3 -20.45 L-18.25 -20.45 Q-16.55 -18.4 -15.2 -14.55 -14.0 -11.1 -13.7 -8.25 M-7.25 -12.35 L-7.55 -11.85 M-6.3 -3.4 L-6.55 -4.0" fill="none" stroke="#000000" stroke-linecap="round" stroke-linejoin="round" stroke-width="0.75"/>
    <path d="M-48.0 -13.1 Q-46.1 -16.35 -43.35 -16.3 -40.7 -16.35 -38.8 -13.1 -36.9 -9.95 -36.9 -5.4 -36.9 -0.9 -38.8 2.25 -40.7 5.45 -43.35 5.45 -46.1 5.45 -48.0 2.25 -49.85 -0.9 -49.85 -5.4 -49.85 -9.95 -48.0 -13.1 M-40.6 -8.7 Q-41.75 -10.7 -43.35 -10.7 -45.0 -10.7 -46.1 -8.7 -47.25 -6.7 -47.25 -3.85 -47.25 -1.0 -46.1 1.0 -45.0 3.0 -43.35 3.0 -41.75 3.0 -40.6 1.0 -39.55 -1.0 -39.5 -3.85 -39.55 -6.7 -40.6 -8.7" fill="#ffffff" fill-rule="evenodd" stroke="none"/>
    <path d="M-40.6 -8.7 Q-39.55 -6.7 -39.5 -3.85 -39.55 -1.0 -40.6 1.0 -41.75 3.0 -43.35 3.0 -45.0 3.0 -46.1 1.0 -47.25 -1.0 -47.25 -3.85 -47.25 -6.7 -46.1 -8.7 -45.0 -10.7 -43.35 -10.7 -41.75 -10.7 -40.6 -8.7 M-42.8 -5.4 L-42.65 -6.15 Q-42.65 -7.25 -43.15 -7.9 -43.6 -8.55 -44.2 -8.55 -44.9 -8.55 -45.4 -7.9 -45.85 -7.25 -45.85 -6.15 -45.85 -5.1 -45.4 -4.45 L-44.55 -3.75 -44.7 -2.5 Q-44.7 -1.4 -44.2 -0.55 -43.6 0.25 -42.85 0.25 -42.15 0.25 -41.65 -0.55 -41.05 -1.4 -41.05 -2.5 -41.05 -3.75 -41.65 -4.6 -42.15 -5.4 -42.8 -5.4 -42.15 -5.4 -41.65 -4.6 -41.05 -3.75 -41.05 -2.5 -41.05 -1.4 -41.65 -0.55 -42.15 0.25 -42.85 0.25 -43.6 0.25 -44.2 -0.55 -44.7 -1.4 -44.7 -2.5 L-44.55 -3.75 -44.2 -3.7 Q-43.6 -3.75 -43.15 -4.45 L-42.8 -5.4" fill="#333333" fill-rule="evenodd" stroke="none"/>
    <path d="M-44.55 -3.75 L-45.4 -4.45 Q-45.85 -5.1 -45.85 -6.15 -45.85 -7.25 -45.4 -7.9 -44.9 -8.55 -44.2 -8.55 -43.6 -8.55 -43.15 -7.9 -42.65 -7.25 -42.65 -6.15 L-42.8 -5.4 -43.15 -4.45 Q-43.6 -3.75 -44.2 -3.7 L-44.55 -3.75" fill="#cccccc" fill-rule="evenodd" stroke="none"/>
    <path d="M-48.0 -13.1 Q-46.1 -16.35 -43.35 -16.3 -40.7 -16.35 -38.8 -13.1 -36.9 -9.95 -36.9 -5.4 -36.9 -0.9 -38.8 2.25 -40.7 5.45 -43.35 5.45 -46.1 5.45 -48.0 2.25 -49.85 -0.9 -49.85 -5.4 -49.85 -9.95 -48.0 -13.1 M-42.8 -5.4 Q-42.15 -5.4 -41.65 -4.6 -41.05 -3.75 -41.05 -2.5 -41.05 -1.4 -41.65 -0.55 -42.15 0.25 -42.85 0.25 -43.6 0.25 -44.2 -0.55 -44.7 -1.4 -44.7 -2.5 L-44.55 -3.75" fill="none" stroke="#000000" stroke-linecap="round" stroke-linejoin="round" stroke-width="0.75"/>
    <path d="M-20.15 -14.2 Q-18.75 -11.75 -18.35 -8.55 -18.2 -7.35 -18.2 -6.05 L-18.35 -3.6 Q-18.75 -0.35 -20.15 2.05 -21.55 4.5 -23.5 5.15 L-25.0 5.45 -26.55 5.15 Q-28.5 4.5 -29.95 2.05 -31.85 -1.25 -31.85 -6.05 -31.85 -10.9 -29.95 -14.2 -27.9 -17.6 -25.0 -17.6 -22.15 -17.6 -20.15 -14.2 M-27.9 -9.5 Q-29.1 -7.45 -29.1 -4.4 -29.1 -1.4 -27.9 0.8 -26.7 2.85 -25.0 2.85 -23.35 2.85 -22.15 0.8 -20.95 -1.4 -20.95 -4.4 -20.95 -7.45 -22.15 -9.5 -23.35 -11.65 -25.0 -11.65 -26.7 -11.65 -27.9 -9.5" fill="#ffffff" fill-rule="evenodd" stroke="none"/>
    <path d="M-27.9 -9.5 Q-26.7 -11.65 -25.0 -11.65 -23.35 -11.65 -22.15 -9.5 -20.95 -7.45 -20.95 -4.4 -20.95 -1.4 -22.15 0.8 -23.35 2.85 -25.0 2.85 -26.7 2.85 -27.9 0.8 -29.1 -1.4 -29.1 -4.4 -29.1 -7.45 -27.9 -9.5 M-26.2 -4.25 L-25.95 -4.25 Q-25.25 -4.25 -24.8 -5.0 L-24.4 -6.05 Q-23.7 -5.95 -23.2 -5.15 -22.55 -4.25 -22.55 -3.0 -22.55 -1.85 -23.2 -0.9 -23.75 0.0 -24.55 0.0 -25.3 0.0 -25.85 -0.9 -26.45 -1.85 -26.45 -3.0 L-26.2 -4.25 -26.45 -3.0 Q-26.45 -1.85 -25.85 -0.9 -25.3 0.0 -24.55 0.0 -23.75 0.0 -23.2 -0.9 -22.55 -1.85 -22.55 -3.0 -22.55 -4.25 -23.2 -5.15 -23.7 -5.95 -24.4 -6.05 L-24.25 -6.85 Q-24.3 -7.95 -24.8 -8.6 -25.25 -9.35 -25.95 -9.35 -26.65 -9.35 -27.15 -8.6 -27.65 -7.95 -27.55 -6.85 -27.65 -5.75 -27.15 -5.0 L-26.2 -4.25" fill="#333333" fill-rule="evenodd" stroke="none"/>
    <path d="M-24.4 -6.05 L-24.8 -5.0 Q-25.25 -4.25 -25.95 -4.25 L-26.2 -4.25 -27.15 -5.0 Q-27.65 -5.75 -27.55 -6.85 -27.65 -7.95 -27.15 -8.6 -26.65 -9.35 -25.95 -9.35 -25.25 -9.35 -24.8 -8.6 -24.3 -7.95 -24.25 -6.85 L-24.4 -6.05" fill="#cccccc" fill-rule="evenodd" stroke="none"/>
    <path d="M-20.15 -14.2 Q-18.75 -11.75 -18.35 -8.55 -18.2 -7.35 -18.2 -6.05 L-18.35 -3.6 Q-18.75 -0.35 -20.15 2.05 -21.55 4.5 -23.5 5.15 L-25.0 5.45 -26.55 5.15 Q-28.5 4.5 -29.95 2.05 -31.85 -1.25 -31.85 -6.05 -31.85 -10.9 -29.95 -14.2 -27.9 -17.6 -25.0 -17.6 -22.15 -17.6 -20.15 -14.2 M-26.2 -4.25 L-26.45 -3.0 Q-26.45 -1.85 -25.85 -0.9 -25.3 0.0 -24.55 0.0 -23.75 0.0 -23.2 -0.9 -22.55 -1.85 -22.55 -3.0 -22.55 -4.25 -23.2 -5.15 -23.7 -5.95 -24.4 -6.05" fill="none" stroke="#000000" stroke-linecap="round" stroke-linejoin="round" stroke-width="0.75"/>
  </g>
</svg>
