<?xml version="1.0" encoding="UTF-8" standalone="no"?>
<svg xmlns:xlink="http://www.w3.org/1999/xlink" height="49.95px" width="61.35px" xmlns="http://www.w3.org/2000/svg">
  <g transform="matrix(1, 0, 0, 1, 19.5, 37.35)">
    <path d="M7.65 -31.8 Q6.15 -33.35 5.35 -33.7 L2.2 -34.9 0.2 -34.6 -1.0 -30.5 -1.0 -28.75 2.15 -28.25 3.1 -27.95 Q5.7 -27.15 9.05 -25.45 10.05 -25.45 10.35 -26.1 10.8 -26.95 12.0 -27.3 L8.95 -30.5 7.65 -31.8 M34.9 -27.25 L36.7 -26.85 41.3 -26.85 Q41.3 -27.75 41.5 -27.75 L41.5 -31.95 36.25 -31.95 32.35 -31.1 Q29.75 -30.45 28.65 -29.65 L29.3 -27.8 Q29.65 -26.85 30.3 -26.85 L32.1 -27.4 34.9 -27.25" fill="#003300" fill-rule="evenodd" stroke="none"/>
    <path d="M3.1 -27.95 L2.7 -27.45 2.05 -27.85 Q0.25 -27.9 -8.35 -19.35 -9.75 -21.75 -12.05 -24.2 -14.75 -27.15 -17.0 -27.95 L-17.55 -23.7 Q-17.55 -17.85 -13.0 -13.85 -18.6 -10.4 -19.15 -4.45 L-16.7 -4.1 Q-14.0 -4.1 -11.6 -6.8 -10.0 -8.6 -9.3 -10.4 -6.9 -7.75 -4.9 -5.85 -1.55 -2.75 0.9 -1.7 L1.1 -1.45 1.3 -1.15 Q-0.35 -0.55 -3.6 -0.55 -3.6 -0.2 -3.95 0.45 -3.95 1.85 -1.5 1.8 L3.7 2.1 8.45 6.35 11.6 8.75 Q13.4 9.95 14.5 10.1 15.35 12.3 17.7 12.25 20.1 12.15 20.8 11.55 21.55 10.9 21.8 9.55 L22.35 9.7 Q28.0 6.8 31.55 3.95 L31.9 3.65 37.45 3.7 Q41.95 3.4 41.1 1.05 L38.05 1.2 Q35.8 1.2 35.45 0.05 L36.15 -0.9 Q39.4 -5.6 39.6 -13.75 39.85 -21.9 34.85 -26.95 L34.9 -27.25 32.1 -27.4 30.3 -26.85 Q29.65 -26.85 29.3 -27.8 L28.65 -29.65 Q29.75 -30.45 32.35 -31.1 L32.1 -32.65 Q26.5 -37.75 18.95 -36.9 11.4 -36.05 8.65 -32.7 L7.65 -31.8 8.95 -30.5 12.0 -27.3 Q10.8 -26.95 10.35 -26.1 10.05 -25.45 9.05 -25.45 5.7 -27.15 3.1 -27.95 M-1.9 -15.25 Q-1.6 -18.1 -0.4 -21.55 0.95 -25.4 2.65 -27.45 L2.7 -27.45 2.65 -27.45 Q0.95 -25.4 -0.4 -21.55 -1.6 -18.1 -1.9 -15.25 L-2.0 -13.65 -2.05 -12.85 Q-2.05 -8.0 -1.15 -5.4 -0.5 -3.8 0.9 -1.7 -0.5 -3.8 -1.15 -5.4 -2.05 -8.0 -2.05 -12.85 L-2.0 -13.65 -1.9 -15.25 M-9.05 -11.0 L-9.3 -10.4 -9.05 -11.0 M-8.05 -18.85 L-8.35 -19.35 -8.05 -18.85 M3.7 2.1 L3.45 1.75 2.3 0.25 1.5 -0.85 1.3 -1.15 1.5 -0.85 2.3 0.25 3.45 1.75 3.7 2.1 M25.2 2.0 Q22.3 7.4 21.85 9.45 L21.8 9.55 21.85 9.45 Q22.3 7.4 25.2 2.0 M11.2 0.25 Q13.65 4.3 13.65 5.1 13.85 8.1 14.5 10.1 13.85 8.1 13.65 5.1 13.65 4.3 11.2 0.25 M31.9 3.65 L32.4 3.2 35.35 0.25 35.45 0.05 35.35 0.25 32.4 3.2 31.9 3.65" fill="#497028" fill-rule="evenodd" stroke="none"/>
    <path d="M7.65 -31.8 Q6.15 -33.35 5.35 -33.7 L2.2 -34.9 0.2 -34.6 -1.0 -30.5 -1.0 -28.75 2.15 -28.25 3.1 -27.95 M1.1 -1.45 L1.3 -1.15 1.5 -0.85 2.3 0.25 3.45 1.75 3.7 2.1 8.45 6.35 11.6 8.75 Q13.4 9.95 14.5 10.1 15.35 12.3 17.7 12.25 20.1 12.15 20.8 11.55 21.55 10.9 21.8 9.55 L21.85 9.45 Q22.3 7.4 25.2 2.0 M22.35 9.7 Q28.0 6.8 31.55 3.95 M35.45 0.05 L36.15 -0.9 Q39.4 -5.6 39.6 -13.75 39.85 -21.9 34.85 -26.95 M34.9 -27.25 L36.7 -26.85 41.3 -26.85 Q41.3 -27.75 41.5 -27.75 L41.5 -31.95 36.25 -31.95 32.35 -31.1 Q29.75 -30.45 28.65 -29.65 L29.3 -27.8 Q29.65 -26.85 30.3 -26.85 L32.1 -27.4 34.9 -27.25 M32.1 -32.65 Q26.5 -37.75 18.95 -36.9 11.4 -36.05 8.65 -32.7 M7.65 -31.8 L8.95 -30.5 12.0 -27.3 Q10.8 -26.95 10.35 -26.1 10.05 -25.45 9.05 -25.45 5.7 -27.15 3.1 -27.95 M-1.9 -15.25 L-2.0 -13.65 -2.05 -12.85 Q-2.05 -8.0 -1.15 -5.4 -0.5 -3.8 0.9 -1.7 M35.45 0.05 L35.35 0.25 32.4 3.2 31.9 3.65 M14.5 10.1 Q13.85 8.1 13.65 5.1 13.65 4.3 11.2 0.25" fill="none" stroke="#000000" stroke-linecap="round" stroke-linejoin="round" stroke-width="0.75"/>
    <path d="M3.1 -27.95 L2.7 -27.45 2.05 -27.85 Q0.25 -27.9 -8.35 -19.35 -9.75 -21.75 -12.05 -24.2 -14.75 -27.15 -17.0 -27.95 L-17.55 -23.7 Q-17.55 -17.85 -13.0 -13.85 -18.6 -10.4 -19.15 -4.45 L-16.7 -4.1 Q-14.0 -4.1 -11.6 -6.8 -10.0 -8.6 -9.3 -10.4 -6.9 -7.75 -4.9 -5.85 -1.55 -2.75 0.9 -1.7 L1.1 -1.45 M1.3 -1.15 Q-0.35 -0.55 -3.6 -0.55 -3.6 -0.2 -3.95 0.45 -3.95 1.85 -1.5 1.8 L3.7 2.1 M31.55 3.95 L31.9 3.65 37.45 3.7 Q41.95 3.4 41.1 1.05 L38.05 1.2 Q35.8 1.2 35.45 0.05 M2.7 -27.45 L2.65 -27.45 Q0.95 -25.4 -0.4 -21.55 -1.6 -18.1 -1.9 -15.25 M-8.35 -19.35 L-8.05 -18.85 M-9.3 -10.4 L-9.05 -11.0" fill="none" stroke="#000000" stroke-linecap="round" stroke-linejoin="round" stroke-width="0.75"/>
    <path d="M32.4 -20.1 Q30.5 -23.35 27.75 -23.3 25.1 -23.35 23.2 -20.1 21.3 -16.95 21.3 -12.4 21.3 -7.9 23.2 -4.75 25.1 -1.55 27.75 -1.55 30.5 -1.55 32.4 -4.75 34.25 -7.9 34.25 -12.4 34.25 -16.95 32.4 -20.1 M25.0 -15.7 Q26.15 -17.7 27.75 -17.7 29.4 -17.7 30.5 -15.7 31.65 -13.7 31.65 -10.85 31.65 -8.0 30.5 -6.0 29.4 -4.0 27.75 -4.0 26.15 -4.0 25.0 -6.0 23.95 -8.0 23.9 -10.85 23.95 -13.7 25.0 -15.7" fill="#ffffff" fill-rule="evenodd" stroke="none"/>
    <path d="M25.0 -15.7 Q23.95 -13.7 23.9 -10.85 23.95 -8.0 25.0 -6.0 26.15 -4.0 27.75 -4.0 29.4 -4.0 30.5 -6.0 31.65 -8.0 31.65 -10.85 31.65 -13.7 30.5 -15.7 29.4 -17.7 27.75 -17.7 26.15 -17.7 25.0 -15.7 M27.2 -12.4 L27.05 -13.15 Q27.05 -14.25 27.55 -14.9 28.0 -15.55 28.6 -15.55 29.3 -15.55 29.8 -14.9 30.25 -14.25 30.25 -13.15 30.25 -12.1 29.8 -11.45 L28.95 -10.75 29.1 -9.5 Q29.1 -8.4 28.6 -7.55 28.0 -6.75 27.25 -6.75 26.55 -6.75 26.05 -7.55 25.45 -8.4 25.45 -9.5 25.45 -10.75 26.05 -11.6 26.55 -12.4 27.2 -12.4 26.55 -12.4 26.05 -11.6 25.45 -10.75 25.45 -9.5 25.45 -8.4 26.05 -7.55 26.55 -6.75 27.25 -6.75 28.0 -6.75 28.6 -7.55 29.1 -8.4 29.1 -9.5 L28.95 -10.75 28.6 -10.7 Q28.0 -10.75 27.55 -11.45 27.25 -11.9 27.2 -12.4" fill="#333333" fill-rule="evenodd" stroke="none"/>
    <path d="M28.95 -10.75 L29.8 -11.45 Q30.25 -12.1 30.25 -13.15 30.25 -14.25 29.8 -14.9 29.3 -15.55 28.6 -15.55 28.0 -15.55 27.55 -14.9 27.05 -14.25 27.05 -13.15 L27.2 -12.4 Q27.25 -11.9 27.55 -11.45 28.0 -10.75 28.6 -10.7 L28.95 -10.75" fill="#cccccc" fill-rule="evenodd" stroke="none"/>
    <path d="M32.4 -20.1 Q30.5 -23.35 27.75 -23.3 25.1 -23.35 23.2 -20.1 21.3 -16.95 21.3 -12.4 21.3 -7.9 23.2 -4.75 25.1 -1.55 27.75 -1.55 30.5 -1.55 32.4 -4.75 34.25 -7.9 34.25 -12.4 34.25 -16.95 32.4 -20.1 M27.2 -12.4 Q26.55 -12.4 26.05 -11.6 25.45 -10.75 25.45 -9.5 25.45 -8.4 26.05 -7.55 26.55 -6.75 27.25 -6.75 28.0 -6.75 28.6 -7.55 29.1 -8.4 29.1 -9.5 L28.95 -10.75" fill="none" stroke="#000000" stroke-linecap="round" stroke-linejoin="round" stroke-width="0.75"/>
    <path d="M4.55 -21.2 Q3.15 -18.75 2.75 -15.55 2.6 -14.35 2.6 -13.05 L2.75 -10.6 Q3.15 -7.35 4.55 -4.95 5.95 -2.5 7.9 -1.85 L9.4 -1.55 10.95 -1.85 Q12.9 -2.5 14.35 -4.95 16.25 -8.25 16.25 -13.05 16.25 -17.9 14.35 -21.2 12.3 -24.6 9.4 -24.6 6.55 -24.6 4.55 -21.2 M12.3 -16.5 Q13.5 -14.45 13.5 -11.4 13.5 -8.4 12.3 -6.2 11.1 -4.15 9.4 -4.15 7.75 -4.15 6.55 -6.2 5.35 -8.4 5.35 -11.4 5.35 -14.45 6.55 -16.5 7.75 -18.65 9.4 -18.65 11.1 -18.65 12.3 -16.5" fill="#ffffff" fill-rule="evenodd" stroke="none"/>
    <path d="M12.3 -16.5 Q11.1 -18.65 9.4 -18.65 7.75 -18.65 6.55 -16.5 5.35 -14.45 5.35 -11.4 5.35 -8.4 6.55 -6.2 7.75 -4.15 9.4 -4.15 11.1 -4.15 12.3 -6.2 13.5 -8.4 13.5 -11.4 13.5 -14.45 12.3 -16.5 M10.6 -11.25 L10.35 -11.25 Q9.65 -11.25 9.2 -12.0 L8.8 -13.05 Q8.1 -12.95 7.6 -12.15 6.95 -11.25 6.95 -10.0 6.95 -8.85 7.6 -7.9 8.15 -7.0 8.95 -7.0 9.7 -7.0 10.25 -7.9 10.85 -8.85 10.85 -10.0 L10.6 -11.25 10.85 -10.0 Q10.85 -8.85 10.25 -7.9 9.7 -7.0 8.95 -7.0 8.15 -7.0 7.6 -7.9 6.95 -8.85 6.95 -10.0 6.95 -11.25 7.6 -12.15 8.1 -12.95 8.8 -13.05 L8.65 -13.85 Q8.7 -14.95 9.2 -15.6 9.65 -16.35 10.35 -16.35 11.05 -16.35 11.55 -15.6 12.05 -14.95 11.95 -13.85 12.05 -12.75 11.55 -12.0 11.2 -11.4 10.6 -11.25" fill="#333333" fill-rule="evenodd" stroke="none"/>
    <path d="M8.8 -13.05 L9.2 -12.0 Q9.65 -11.25 10.35 -11.25 L10.6 -11.25 Q11.2 -11.4 11.55 -12.0 12.05 -12.75 11.95 -13.85 12.05 -14.95 11.55 -15.6 11.05 -16.35 10.35 -16.35 9.65 -16.35 9.2 -15.6 8.7 -14.95 8.65 -13.85 L8.8 -13.05" fill="#cccccc" fill-rule="evenodd" stroke="none"/>
    <path d="M4.55 -21.2 Q3.15 -18.75 2.75 -15.55 2.6 -14.35 2.6 -13.05 L2.75 -10.6 Q3.15 -7.35 4.55 -4.95 5.95 -2.5 7.9 -1.85 L9.4 -1.55 10.95 -1.85 Q12.9 -2.5 14.35 -4.95 16.25 -8.25 16.25 -13.05 16.25 -17.9 14.35 -21.2 12.3 -24.6 9.4 -24.6 6.55 -24.6 4.55 -21.2 M10.6 -11.25 L10.85 -10.0 Q10.85 -8.85 10.25 -7.9 9.7 -7.0 8.95 -7.0 8.15 -7.0 7.6 -7.9 6.95 -8.85 6.95 -10.0 6.95 -11.25 7.6 -12.15 8.1 -12.95 8.8 -13.05" fill="none" stroke="#000000" stroke-linecap="round" stroke-linejoin="round" stroke-width="0.75"/>
  </g>
</svg>
