<?xml version="1.0" encoding="UTF-8" standalone="no"?>
<svg xmlns:xlink="http://www.w3.org/1999/xlink" height="42.55px" width="116.05px" xmlns="http://www.w3.org/2000/svg">
  <g transform="matrix(1, 0, 0, 1, 57.45, 21.25)">
    <path d="M-11.1 -11.55 L-10.85 -12.2 -10.1 -13.85 -8.7 -15.95 -6.5 -17.95 Q-5.15 -18.9 -3.35 -19.4 L-2.7 -19.65 -1.15 -20.05 0.65 -20.25 Q1.45 -20.2 1.9 -19.7 2.3 -19.15 2.15 -18.45 L1.5 -17.0 0.7 -15.45 Q0.3 -14.75 0.25 -14.1 L0.4 -12.05 0.55 -11.3 -11.1 -11.55" fill="#167fa3" fill-rule="evenodd" stroke="none"/>
    <path d="M-11.1 -11.55 L-10.85 -12.2 -10.1 -13.85 -8.7 -15.95 -6.5 -17.95 Q-5.15 -18.9 -3.35 -19.4 L-2.7 -19.65 -1.15 -20.05 0.65 -20.25 Q1.45 -20.2 1.9 -19.7 2.3 -19.15 2.15 -18.45 L1.5 -17.0 0.7 -15.45 Q0.3 -14.75 0.25 -14.1 L0.4 -12.05 0.55 -11.3" fill="none" stroke="#000000" stroke-linecap="round" stroke-linejoin="round" stroke-width="2.0"/>
    <path d="M-2.1 -19.65 L-0.6 -20.0 0.85 -20.05 1.8 -19.6 2.05 -18.95 1.95 -18.45 -1.7 -18.5 -5.25 -17.8 Q-6.95 -17.15 -8.2 -15.75 -9.45 -14.3 -9.9 -11.8 L-10.3 -11.8 -10.75 -11.8 -10.15 -13.25 -8.8 -15.45 Q-7.9 -16.6 -6.55 -17.65 -5.2 -18.7 -3.25 -19.25 L-3.2 -19.25 -2.1 -19.65" fill="#1f95b5" fill-rule="evenodd" stroke="none"/>
    <path d="M44.8 -5.25 L45.95 -4.85 46.9 -4.35 Q47.7 -3.6 47.5 -3.0 47.3 -2.4 46.4 -1.9 L44.2 -1.05 41.6 -0.4 39.25 0.0 37.7 0.35 27.7 3.15 17.7 6.05 8.9 8.35 0.85 10.15 -5.8 11.45 -10.25 12.25 -11.9 12.5 Q-15.25 15.4 -18.75 17.1 -22.2 18.8 -25.6 19.5 L-32.05 20.3 -37.45 20.05 -41.45 19.3 -43.45 18.65 -44.65 18.5 -45.85 19.0 -47.2 19.5 Q-47.85 19.7 -48.7 19.5 -49.5 19.3 -49.6 18.8 L-49.4 17.75 -48.8 16.8 -48.45 16.4 -49.2 16.2 -51.15 15.55 Q-52.35 15.1 -53.5 14.35 L-55.5 12.6 Q-56.35 11.6 -56.45 10.25 -56.5 8.9 -55.85 7.8 L-54.0 5.7 -51.45 3.85 -48.7 2.1 -46.2 0.45 -43.45 -2.1 -41.0 -4.9 -39.15 -7.25 -38.45 -8.2 Q-37.2 -9.8 -35.55 -10.75 -33.9 -11.7 -32.15 -12.2 L-28.85 -12.85 -26.25 -13.0 -24.9 -13.0 2.75 -12.15 18.65 -10.95 Q26.55 -9.95 34.3 -8.1 39.1 -7.05 43.75 -5.55 L44.8 -5.25" fill="#ffe473" fill-rule="evenodd" stroke="none"/>
    <path d="M44.8 -5.25 L43.75 -5.55 Q39.1 -7.05 34.3 -8.1 26.55 -9.95 18.65 -10.95 L2.75 -12.15 -24.9 -13.0 -26.25 -13.0 -28.85 -12.85 -32.15 -12.2 Q-33.9 -11.7 -35.55 -10.75 -37.2 -9.8 -38.45 -8.2 L-39.15 -7.25 -41.0 -4.9 -43.45 -2.1 -46.2 0.45 -48.7 2.1 -51.45 3.85 -54.0 5.7 -55.85 7.8 Q-56.5 8.9 -56.45 10.25 -56.35 11.6 -55.5 12.6 L-53.5 14.35 Q-52.35 15.1 -51.15 15.55 L-49.2 16.2 -48.45 16.4 -48.8 16.8 -49.4 17.75 -49.6 18.8 Q-49.5 19.3 -48.7 19.5 -47.85 19.7 -47.2 19.5 L-45.85 19.0 -44.65 18.5 -43.45 18.65 -41.45 19.3 -37.45 20.05 -32.05 20.3 -25.6 19.5 Q-22.2 18.8 -18.75 17.1 -15.25 15.4 -11.9 12.5 L-10.25 12.25 -5.8 11.45 0.85 10.15 8.9 8.35 17.7 6.05 27.7 3.15 37.7 0.35 39.25 0.0 41.6 -0.4 44.2 -1.05 46.4 -1.9 Q47.3 -2.4 47.5 -3.0 47.7 -3.6 46.9 -4.35 L45.95 -4.85 44.8 -5.25" fill="none" stroke="#000000" stroke-linecap="round" stroke-linejoin="round" stroke-width="2.0"/>
    <path d="M34.25 -7.7 L37.6 -6.9 41.35 -5.85 40.05 -6.15 39.55 -6.3 Q32.75 -8.25 25.85 -9.0 L12.1 -9.9 -1.5 -9.85 -10.1 -9.8 -18.75 -9.95 -21.6 -10.4 -24.6 -11.0 -26.75 -10.95 -28.65 -10.5 -28.8 -10.45 Q-32.7 -11.55 -37.2 -8.95 -35.25 -10.8 -32.15 -11.7 -29.1 -12.65 -25.1 -12.55 L2.8 -11.7 18.65 -10.55 Q26.55 -9.55 34.25 -7.7" fill="#fcedae" fill-rule="evenodd" stroke="none"/>
    <path d="M47.1 -3.25 L47.1 -3.15 Q46.9 -2.65 46.0 -2.2 45.1 -1.75 43.85 -1.4 L41.3 -0.8 39.2 -0.4 37.55 -0.1 31.65 1.55 25.85 3.25 17.55 5.65 8.95 7.9 1.05 9.65 -5.55 10.95 -10.05 11.75 -12.0 12.1 -12.1 12.1 -12.2 12.15 Q-16.05 15.5 -20.15 17.25 -24.2 18.95 -28.05 19.5 L-35.15 19.85 -40.5 19.1 -43.25 18.25 -44.7 18.1 -46.05 18.6 -47.25 19.05 Q-47.9 19.25 -48.6 19.05 L-49.2 18.65 -49.2 18.55 -48.85 17.6 -48.15 16.7 -47.6 16.15 -48.35 16.0 -49.15 15.8 -51.0 15.15 -53.25 14.05 -55.15 12.4 Q-55.95 11.45 -56.05 10.25 L-56.05 10.0 Q-56.05 9.0 -55.45 8.05 -54.75 9.55 -53.25 10.85 -51.05 12.4 -48.5 13.05 L-43.35 13.4 Q-40.85 13.1 -38.75 11.95 L-39.6 12.75 -40.85 13.8 -42.0 14.65 -42.1 14.75 Q-37.9 15.9 -33.75 15.8 -29.4 15.7 -25.3 14.45 -21.25 13.15 -17.8 10.8 -14.3 8.4 -11.75 5.0 L-11.9 5.8 -12.0 6.5 -11.9 6.95 -11.6 7.1 -7.7 7.75 -3.85 7.25 0.05 6.2 0.5 6.1 1.55 5.8 2.5 5.55 3.0 5.4 3.7 5.25 5.55 4.8 8.0 4.25 10.35 3.65 12.25 3.2 12.95 3.05 24.45 0.3 35.75 -1.9 47.1 -3.25" fill="#ccb244" fill-rule="evenodd" stroke="none"/>
    <path d="M-23.8 -7.4 L-23.1 -7.15 -21.45 -6.25 -19.55 -4.65 Q-18.6 -3.65 -18.1 -2.15 -17.6 -0.65 -17.85 1.35 -18.15 3.35 -19.55 6.0 -20.9 8.6 -23.8 11.9 L-23.25 11.25 -21.95 9.45 -20.4 6.7 Q-19.6 5.15 -19.1 3.3 -18.6 1.5 -18.65 -0.45 -18.7 -1.6 -19.25 -2.65 -19.75 -3.7 -20.5 -4.55 L-22.0 -6.05 -23.3 -7.05 -23.8 -7.4" fill="#000000" fill-rule="evenodd" stroke="none"/>
    <path d="M-32.3 -14.25 Q-31.9 -13.4 -31.85 -12.55 L-31.95 -11.1 -32.05 -10.45 -32.4 -10.1 -33.15 -9.5 Q-33.6 -9.2 -33.95 -9.15 -34.25 -9.1 -34.3 -9.6 L-34.7 -10.8 -35.65 -12.1 -36.6 -13.15 -37.05 -13.55 -36.2 -14.7 -35.1 -15.25 -34.1 -15.5 -33.75 -15.5 Q-32.7 -15.05 -32.3 -14.25" fill="#000000" fill-rule="evenodd" stroke="none"/>
    <path d="M-31.95 -1.25 Q-32.45 0.45 -33.35 1.7 -34.2 2.95 -35.3 3.5 -36.35 4.1 -37.4 3.8 -38.45 3.5 -39.05 2.45 -39.65 1.4 -39.75 -0.1 -39.9 -1.65 -39.4 -3.35 -38.95 -5.05 -38.05 -6.3 -37.2 -7.55 -36.1 -8.1 -35.05 -8.65 -34.0 -8.4 -32.95 -8.1 -32.35 -7.05 -31.75 -6.0 -31.6 -4.45 -31.5 -2.95 -31.95 -1.25" fill="#ffffff" fill-rule="evenodd" stroke="none"/>
    <path d="M-31.95 -1.25 Q-32.45 0.45 -33.35 1.7 -34.2 2.95 -35.3 3.5 -36.35 4.1 -37.4 3.8 -38.45 3.5 -39.05 2.45 -39.65 1.4 -39.75 -0.1 -39.9 -1.65 -39.4 -3.35 -38.95 -5.05 -38.05 -6.3 -37.2 -7.55 -36.1 -8.1 -35.05 -8.65 -34.0 -8.4 -32.95 -8.1 -32.35 -7.05 -31.75 -6.0 -31.6 -4.45 -31.5 -2.95 -31.95 -1.25" fill="none" stroke="#000000" stroke-linecap="round" stroke-linejoin="round" stroke-width="1.0"/>
    <path d="M-36.45 -5.85 Q-35.65 -5.6 -35.15 -4.8 -34.7 -3.95 -34.6 -2.8 -34.55 -1.65 -34.9 -0.3 -35.3 1.1 -36.05 2.1 -36.8 3.05 -37.7 3.45 -38.55 3.05 -39.0 2.0 -39.5 1.0 -39.55 -0.35 L-39.2 -3.3 -38.3 -5.45 Q-37.35 -6.05 -36.45 -5.85" fill="#000000" fill-rule="evenodd" stroke="none"/>
    <path d="M-36.65 -4.15 Q-35.9 -3.9 -35.6 -2.9 -35.35 -1.9 -35.65 -0.6 -35.95 0.3 -36.4 0.9 L-37.45 1.8 Q-38.3 1.35 -38.55 0.15 -38.8 -1.05 -38.4 -2.55 L-37.85 -3.9 -36.65 -4.15" fill="#635311" fill-rule="evenodd" stroke="none"/>
    <path d="M-35.5 -3.15 Q-35.7 -2.5 -36.05 -2.2 -36.4 -1.85 -36.8 -1.95 -37.15 -2.05 -37.3 -2.55 L-37.3 -3.65 -36.7 -4.6 -35.95 -4.85 -35.45 -4.25 -35.5 -3.15" fill="#ffffff" fill-rule="evenodd" stroke="none"/>
    <path d="M-33.75 5.85 L-32.0 6.35 -31.2 6.55 -34.0 6.4 Q-35.3 6.0 -36.3 5.3 L-38.0 3.85 -39.1 2.55 -39.45 1.95 -39.1 1.75 -38.7 2.3 -37.55 3.6 -35.7 5.0 -33.75 5.85" fill="#000000" fill-rule="evenodd" stroke="none"/>
    <path d="M-48.45 16.4 L-47.5 16.45 -44.95 16.05 Q-43.35 15.65 -41.3 14.35 -39.3 13.1 -37.1 10.5" fill="none" stroke="#000000" stroke-linecap="round" stroke-linejoin="round" stroke-width="1.0"/>
    <path d="M-10.1 0.5 L-10.25 0.7 -11.0 1.0 -13.0 1.0 -16.75 0.25 -17.1 -1.95 -16.4 -2.45 -14.75 -3.4 -12.7 -4.25 Q-11.65 -4.55 -10.9 -4.25 -10.2 -3.9 -9.95 -3.15 L-9.8 -1.55 Q-9.8 -0.7 -9.95 -0.1 L-10.1 0.5" fill="#167fa3" fill-rule="evenodd" stroke="none"/>
    <path d="M-10.1 0.5 L-10.25 0.7 -11.0 1.0 -13.0 1.0 -16.75 0.25 -17.1 -1.95 -16.4 -2.45 -14.75 -3.4 -12.7 -4.25 Q-11.65 -4.55 -10.9 -4.25 -10.2 -3.9 -9.95 -3.15 L-9.8 -1.55 Q-9.8 -0.7 -9.95 -0.1 L-10.1 0.5" fill="none" stroke="#000000" stroke-linecap="round" stroke-linejoin="round" stroke-width="1.0"/>
    <path d="M-11.0 -4.05 Q-10.35 -3.7 -10.15 -3.0 L-10.0 -1.5 -10.15 -0.1 -10.3 0.5 -10.5 0.65 -11.4 0.85 Q-10.75 0.0 -10.55 -0.9 -10.45 -1.75 -11.15 -2.35 -11.9 -3.05 -12.85 -3.05 L-14.85 -2.65 -16.85 -1.65 -16.9 -1.8 -15.95 -2.45 -14.35 -3.35 -12.55 -4.05 Q-11.65 -4.3 -11.0 -4.05" fill="#40a9c6" fill-rule="evenodd" stroke="none"/>
    <path d="M-15.75 13.55 L-15.3 16.5 -14.5 18.8 -14.1 19.75 -17.85 19.5 Q-19.3 19.1 -20.25 18.3 L-21.6 16.7 -22.25 15.3 -22.4 14.7 -22.4 14.4 -22.0 13.7 Q-21.65 13.3 -20.7 13.0 L-18.55 12.7 -16.6 12.95 Q-15.8 13.15 -15.75 13.55" fill="#167fa3" fill-rule="evenodd" stroke="none"/>
    <path d="M-15.75 13.55 L-15.3 16.5 -14.5 18.8 -14.1 19.75 -17.85 19.5 Q-19.3 19.1 -20.25 18.3 L-21.6 16.7 -22.25 15.3 -22.4 14.7 -22.4 14.4 -22.0 13.7 Q-21.65 13.3 -20.7 13.0 L-18.55 12.7 -16.6 12.95 Q-15.8 13.15 -15.75 13.55" fill="none" stroke="#000000" stroke-linecap="round" stroke-linejoin="round" stroke-width="1.0"/>
    <path d="M-15.95 13.65 L-15.6 16.15 -14.95 18.3 -14.4 19.6 -17.9 19.35 Q-19.25 18.95 -20.1 18.2 L-21.4 16.7 -22.05 15.35 -22.2 14.7 -22.15 14.45 -21.8 13.85 -20.65 13.3 -18.9 13.0 -17.2 13.05 -16.1 13.45 -15.95 13.65" fill="#167fa3" fill-rule="evenodd" stroke="none"/>
    <path d="M-15.95 13.65 L-16.1 13.45 -17.2 13.05 -18.9 13.0 -20.65 13.3 -21.8 13.85 -22.15 14.45 -22.2 14.7 -22.05 15.35 -21.4 16.7 -20.1 18.2 Q-19.25 18.95 -17.9 19.35 L-14.4 19.6 -14.95 18.3 -15.6 16.15 -15.95 13.65" fill="none" stroke="#000000" stroke-linecap="round" stroke-linejoin="round" stroke-width="1.0"/>
    <path d="M-20.85 13.55 Q-20.55 15.15 -19.85 16.6 -19.15 18.05 -17.95 19.1 -19.25 18.65 -20.05 18.0 L-21.25 16.55 -21.85 15.3 -22.0 14.65 -22.0 14.6 -21.8 14.15 -20.85 13.55" fill="#0f6e87" fill-rule="evenodd" stroke="none"/>
    <path d="M-36.5 8.85 Q-35.35 8.95 -35.0 9.25 -34.65 9.55 -34.8 9.9 -34.9 10.3 -35.15 10.55 L-35.4 10.8 Q-35.15 10.1 -35.45 9.7 -35.7 9.25 -36.1 9.05 L-36.5 8.85" fill="#000000" fill-rule="evenodd" stroke="none"/>
    <path d="M53.85 -9.65 L57.4 -10.55 56.75 -10.15 55.2 -9.05 53.4 -7.4 Q52.5 -6.5 51.9 -5.4 51.35 -4.3 51.4 -3.2 51.45 -2.05 52.1 -1.05 52.75 0.0 53.65 0.8 L55.45 2.25 57.0 3.2 57.6 3.55 Q55.15 2.75 52.75 1.75 50.8 0.95 48.95 -0.1 L47.85 -0.85 46.75 -1.5 Q46.15 -1.75 45.4 -1.5 L46.45 -3.4 45.2 -5.05 Q45.8 -4.85 46.25 -5.05 L47.05 -5.65 47.8 -6.4 Q49.05 -7.45 50.45 -8.2 L53.85 -9.65" fill="#167fa3" fill-rule="evenodd" stroke="none"/>
    <path d="M53.85 -9.65 L50.45 -8.2 Q49.05 -7.45 47.8 -6.4 L47.05 -5.65 46.25 -5.05 Q45.8 -4.85 45.2 -5.05 L46.45 -3.4 45.4 -1.5 Q46.15 -1.75 46.75 -1.5 L47.85 -0.85 48.95 -0.1 Q50.8 0.95 52.75 1.75 55.15 2.75 57.6 3.55 L57.0 3.2 55.45 2.25 53.65 0.8 Q52.75 0.0 52.1 -1.05 51.45 -2.05 51.4 -3.2 51.35 -4.3 51.9 -5.4 52.5 -6.5 53.4 -7.4 L55.2 -9.05 56.75 -10.15 57.4 -10.55 53.85 -9.65" fill="none" stroke="#000000" stroke-linecap="round" stroke-linejoin="round" stroke-width="2.0"/>
  </g>
</svg>
