<?xml version="1.0" encoding="UTF-8" standalone="no"?>
<svg xmlns:xlink="http://www.w3.org/1999/xlink" height="19.7px" width="18.6px" xmlns="http://www.w3.org/2000/svg">
  <g transform="matrix(1, 0, 0, 1, -3.0, -4.15)">
    <path d="M14.55 9.0 L16.0 9.0 Q18.0 9.0 18.0 11.0 L18.0 16.5 Q18.0 18.5 16.0 18.5 L15.5 18.5 5.0 18.5 Q3.0 18.5 3.0 16.5 L3.0 11.0 Q3.0 9.0 5.0 9.0 L14.55 9.0 12.25 10.25 14.55 9.0 M12.75 15.75 L15.5 18.5 12.75 15.75" fill="#666666" fill-rule="evenodd" stroke="none"/>
    <path d="M14.55 9.0 L12.25 10.25 M14.55 9.0 L19.5 6.25 19.5 21.75 M15.5 18.5 L12.75 15.75 M18.75 21.75 L15.5 18.5" fill="none" stroke="#666666" stroke-linecap="round" stroke-linejoin="round" stroke-width="4.25"/>
  </g>
</svg>
