<?xml version="1.0" encoding="UTF-8" standalone="no"?>
<svg xmlns:xlink="http://www.w3.org/1999/xlink" height="42.5px" width="114.05px" xmlns="http://www.w3.org/2000/svg">
  <g transform="matrix(1, 0, 0, 1, 58.7, 21.2)">
    <path d="M51.55 -13.75 L54.2 -15.85 53.7 -15.2 52.55 -13.4 51.2 -10.75 Q50.5 -9.35 50.1 -7.8 49.65 -6.25 49.7 -4.85 49.75 -3.35 50.25 -2.2 50.7 -1.1 51.4 -0.25 L52.75 1.15 53.9 1.95 54.35 2.25 50.7 1.15 Q49.25 0.7 47.9 -0.2 47.45 -0.5 47.05 -0.9 L46.2 -1.4 Q45.75 -1.55 45.2 -1.05 L46.0 -3.8 45.05 -5.6 Q45.5 -5.5 45.8 -5.9 L46.45 -6.85 47.0 -8.0 49.0 -11.05 51.55 -13.75" fill="#167fa3" fill-rule="evenodd" stroke="none"/>
    <path d="M51.55 -13.75 L49.0 -11.05 47.0 -8.0 46.45 -6.85 45.8 -5.9 Q45.5 -5.5 45.05 -5.6 L46.0 -3.8 45.2 -1.05 Q45.75 -1.55 46.2 -1.4 L47.05 -0.9 Q47.45 -0.5 47.9 -0.2 49.25 0.7 50.7 1.15 L54.35 2.25 53.9 1.95 52.75 1.15 51.4 -0.25 Q50.7 -1.1 50.25 -2.2 49.75 -3.35 49.7 -4.85 49.65 -6.25 50.1 -7.8 50.5 -9.35 51.2 -10.75 L52.55 -13.4 53.7 -15.2 54.2 -15.85 51.55 -13.75" fill="none" stroke="#000000" stroke-linecap="round" stroke-linejoin="round" stroke-width="2.0"/>
    <path d="M-11.8 -11.55 L-11.6 -12.2 -10.85 -13.85 -9.4 -15.9 -7.15 -17.95 Q-5.85 -18.9 -4.0 -19.4 L-3.3 -19.65 -1.75 -20.05 0.05 -20.2 Q0.85 -20.2 1.35 -19.65 1.75 -19.15 1.55 -18.45 L0.95 -17.0 0.1 -15.45 -0.35 -14.05 -0.2 -12.05 -0.05 -11.25 -11.8 -11.55" fill="#167fa3" fill-rule="evenodd" stroke="none"/>
    <path d="M-11.8 -11.55 L-11.6 -12.2 -10.85 -13.85 -9.4 -15.9 -7.15 -17.95 Q-5.85 -18.9 -4.0 -19.4 L-3.3 -19.65 -1.75 -20.05 0.05 -20.2 Q0.85 -20.2 1.35 -19.65 1.75 -19.15 1.55 -18.45 L0.95 -17.0 0.1 -15.45 -0.35 -14.05 -0.2 -12.05 -0.05 -11.25" fill="none" stroke="#000000" stroke-linecap="round" stroke-linejoin="round" stroke-width="2.0"/>
    <path d="M-2.7 -19.65 L-1.25 -20.0 0.2 -20.05 1.2 -19.6 1.45 -18.95 1.35 -18.45 -2.3 -18.5 -5.95 -17.8 Q-7.7 -17.15 -8.9 -15.75 -10.2 -14.3 -10.65 -11.8 L-11.05 -11.8 -11.5 -11.8 -10.9 -13.25 -9.55 -15.45 -7.25 -17.65 Q-5.85 -18.7 -3.9 -19.25 L-2.7 -19.65" fill="#1f95b5" fill-rule="evenodd" stroke="none"/>
    <path d="M18.3 -10.95 Q26.25 -9.95 34.15 -8.1 L43.65 -5.5 44.75 -5.2 45.9 -4.85 Q46.5 -4.7 46.85 -4.35 47.65 -3.6 47.5 -3.0 L46.35 -1.9 44.15 -1.05 41.55 -0.4 39.1 0.05 37.55 0.35 27.45 3.2 17.3 6.1 8.4 8.35 0.25 10.15 -6.45 11.45 -11.0 12.25 -12.65 12.55 Q-16.05 15.4 -19.55 17.1 -23.1 18.8 -26.5 19.5 L-33.0 20.3 -38.5 20.05 -42.55 19.35 -44.55 18.7 -45.8 18.55 -47.0 19.0 -48.35 19.5 Q-49.05 19.7 -49.9 19.5 -50.7 19.3 -50.8 18.8 -50.9 18.3 -50.6 17.8 L-49.95 16.85 -49.6 16.45 -50.4 16.2 -52.4 15.55 Q-53.55 15.1 -54.75 14.35 L-56.75 12.65 Q-57.6 11.6 -57.7 10.3 -57.8 8.95 -57.1 7.8 -56.45 6.65 -55.25 5.7 -54.1 4.7 -52.65 3.85 L-49.85 2.15 -47.35 0.45 -44.6 -2.05 -42.05 -4.9 -40.25 -7.25 -39.55 -8.2 Q-38.25 -9.8 -36.55 -10.75 -34.9 -11.7 -33.15 -12.15 L-29.8 -12.8 -27.15 -13.0 -25.8 -12.95 2.2 -12.15 18.3 -10.95" fill="#ffe473" fill-rule="evenodd" stroke="none"/>
    <path d="M18.3 -10.95 L2.2 -12.15 -25.8 -12.95 -27.15 -13.0 -29.8 -12.8 -33.15 -12.15 Q-34.9 -11.7 -36.55 -10.75 -38.25 -9.8 -39.55 -8.2 L-40.25 -7.25 -42.05 -4.9 -44.6 -2.05 -47.35 0.45 -49.85 2.15 -52.65 3.85 Q-54.1 4.7 -55.25 5.7 -56.45 6.65 -57.1 7.8 -57.8 8.95 -57.7 10.3 -57.6 11.6 -56.75 12.65 L-54.75 14.35 Q-53.55 15.1 -52.4 15.55 L-50.4 16.2 -49.6 16.45 -49.95 16.85 -50.6 17.8 Q-50.9 18.3 -50.8 18.8 -50.7 19.3 -49.9 19.5 -49.05 19.7 -48.35 19.5 L-47.0 19.0 -45.8 18.55 -44.55 18.7 -42.55 19.35 -38.5 20.05 -33.0 20.3 -26.5 19.5 Q-23.1 18.8 -19.55 17.1 -16.05 15.4 -12.65 12.55 L-11.0 12.25 -6.45 11.45 0.25 10.15 8.4 8.35 17.3 6.1 27.45 3.2 37.55 0.35 39.1 0.05 41.55 -0.4 44.15 -1.05 46.35 -1.9 47.5 -3.0 Q47.65 -3.6 46.85 -4.35 46.5 -4.7 45.9 -4.85 L44.75 -5.2 43.65 -5.5 34.15 -8.1 Q26.25 -9.95 18.3 -10.95" fill="none" stroke="#000000" stroke-linecap="round" stroke-linejoin="round" stroke-width="2.0"/>
    <path d="M34.0 -7.7 L37.4 -6.9 41.2 -5.85 39.9 -6.15 39.4 -6.3 Q32.5 -8.25 25.5 -9.0 L11.6 -9.9 -2.2 -9.85 -10.9 -9.8 -19.65 -9.95 -22.5 -10.4 -25.55 -11.0 -27.7 -10.95 -29.65 -10.5 Q-29.65 -10.5 -29.75 -10.45 -33.75 -11.55 -38.3 -8.95 -36.35 -10.8 -33.2 -11.7 -30.1 -12.65 -26.05 -12.55 L2.15 -11.7 18.2 -10.55 Q26.2 -9.55 34.0 -7.7" fill="#fcedae" fill-rule="evenodd" stroke="none"/>
    <path d="M47.05 -3.25 L47.05 -3.15 Q46.85 -2.65 45.95 -2.2 45.05 -1.75 43.75 -1.4 L41.2 -0.8 39.05 -0.4 37.4 -0.1 31.45 1.55 25.55 3.25 17.15 5.65 8.45 7.9 0.4 9.65 -6.2 10.95 -10.8 11.75 -12.75 12.1 -12.85 12.1 -12.95 12.15 Q-16.85 15.5 -21.0 17.25 -25.1 18.95 -29.0 19.5 L-36.2 19.85 -41.6 19.1 -44.4 18.25 -45.9 18.1 -47.25 18.6 -48.45 19.05 Q-49.1 19.25 -49.8 19.05 L-50.4 18.65 -50.4 18.55 -50.05 17.6 -49.35 16.7 -48.8 16.15 -49.55 16.0 -50.4 15.8 -52.25 15.15 -54.5 14.05 -56.45 12.4 Q-57.25 11.45 -57.35 10.25 L-57.35 10.0 Q-57.35 9.0 -56.75 8.05 -56.05 9.55 -54.5 10.85 -52.25 12.4 -49.7 13.05 L-44.5 13.4 Q-41.95 13.1 -39.8 11.95 L-40.7 12.75 -42.0 13.8 -43.1 14.65 -43.2 14.75 Q-39.0 15.9 -34.75 15.8 -30.35 15.7 -26.25 14.45 -22.15 13.15 -18.65 10.8 -15.1 8.4 -12.5 5.0 L-12.65 5.8 -12.75 6.5 -12.65 6.95 -12.35 7.1 -8.4 7.75 -4.5 7.25 -0.55 6.2 -0.1 6.1 0.9 5.8 1.95 5.55 2.4 5.4 3.15 5.25 5.0 4.8 7.45 4.25 9.85 3.65 11.75 3.2 12.5 3.05 24.1 0.3 35.55 -1.9 47.05 -3.25" fill="#ccb244" fill-rule="evenodd" stroke="none"/>
    <path d="M-24.7 -7.4 L-24.0 -7.15 -22.3 -6.25 -20.35 -4.65 Q-19.45 -3.65 -18.95 -2.15 -18.4 -0.65 -18.7 1.35 -18.95 3.35 -20.35 6.0 -21.8 8.6 -24.7 11.9 L-24.15 11.25 -22.8 9.45 -21.25 6.7 Q-20.45 5.15 -19.95 3.3 -19.45 1.5 -19.5 -0.45 -19.55 -1.6 -20.1 -2.65 -20.6 -3.7 -21.4 -4.55 L-22.9 -6.05 -24.2 -7.05 -24.7 -7.4" fill="#000000" fill-rule="evenodd" stroke="none"/>
    <path d="M-33.35 -14.25 Q-32.95 -13.4 -32.9 -12.55 L-33.0 -11.1 -33.1 -10.45 -33.45 -10.1 -34.2 -9.5 Q-34.65 -9.2 -35.0 -9.15 -35.35 -9.1 -35.35 -9.6 -35.4 -10.15 -35.8 -10.8 L-36.75 -12.1 -37.7 -13.15 -38.15 -13.55 -37.25 -14.7 -36.15 -15.25 -35.2 -15.5 -34.8 -15.5 Q-33.75 -15.05 -33.35 -14.25" fill="#000000" fill-rule="evenodd" stroke="none"/>
    <path d="M-32.95 -1.25 Q-33.45 0.45 -34.35 1.7 -35.25 2.95 -36.35 3.5 -37.4 4.1 -38.5 3.8 -39.55 3.5 -40.15 2.45 -40.75 1.4 -40.85 -0.1 -41.0 -1.65 -40.5 -3.35 -40.05 -5.05 -39.15 -6.3 -38.25 -7.55 -37.15 -8.1 -36.1 -8.65 -35.05 -8.4 -34.0 -8.1 -33.35 -7.05 -32.75 -6.0 -32.6 -4.45 -32.5 -2.95 -32.95 -1.25" fill="#ffffff" fill-rule="evenodd" stroke="none"/>
    <path d="M-32.95 -1.25 Q-33.45 0.45 -34.35 1.7 -35.25 2.95 -36.35 3.5 -37.4 4.1 -38.5 3.8 -39.55 3.5 -40.15 2.45 -40.75 1.4 -40.85 -0.1 -41.0 -1.65 -40.5 -3.35 -40.05 -5.05 -39.15 -6.3 -38.25 -7.55 -37.15 -8.1 -36.1 -8.65 -35.05 -8.4 -34.0 -8.1 -33.35 -7.05 -32.75 -6.0 -32.6 -4.45 -32.5 -2.95 -32.95 -1.25" fill="none" stroke="#000000" stroke-linecap="round" stroke-linejoin="round" stroke-width="1.0"/>
    <path d="M-37.55 -5.85 Q-36.75 -5.6 -36.25 -4.8 -35.8 -3.95 -35.7 -2.8 -35.6 -1.65 -36.0 -0.3 -36.35 1.1 -37.15 2.1 -37.9 3.05 -38.85 3.45 -39.65 3.05 -40.15 2.0 -40.65 1.0 -40.7 -0.35 L-40.35 -3.3 -39.45 -5.45 Q-38.5 -6.05 -37.55 -5.85" fill="#000000" fill-rule="evenodd" stroke="none"/>
    <path d="M-37.8 -4.15 Q-37.0 -3.9 -36.7 -2.9 -36.45 -1.9 -36.8 -0.6 -37.05 0.3 -37.55 0.9 -38.0 1.55 -38.6 1.8 -39.4 1.35 -39.7 0.15 -39.95 -1.05 -39.55 -2.55 L-39.0 -3.9 Q-38.4 -4.3 -37.8 -4.15" fill="#635311" fill-rule="evenodd" stroke="none"/>
    <path d="M-36.55 -3.15 Q-36.75 -2.5 -37.1 -2.2 -37.5 -1.85 -37.9 -1.95 L-38.4 -2.55 -38.4 -3.65 -37.8 -4.6 -37.05 -4.85 -36.55 -4.25 Q-36.4 -3.75 -36.55 -3.15" fill="#ffffff" fill-rule="evenodd" stroke="none"/>
    <path d="M-34.8 5.85 L-33.0 6.35 -32.2 6.55 -35.05 6.4 Q-36.35 6.0 -37.35 5.3 L-39.1 3.85 -40.15 2.55 -40.55 1.95 -40.2 1.75 -39.75 2.3 -38.6 3.6 -36.75 5.0 -34.8 5.85" fill="#000000" fill-rule="evenodd" stroke="none"/>
    <path d="M-49.65 16.4 L-48.65 16.45 -46.1 16.05 Q-44.45 15.65 -42.4 14.35 -40.4 13.1 -38.15 10.5" fill="none" stroke="#000000" stroke-linecap="round" stroke-linejoin="round" stroke-width="1.0"/>
    <path d="M-13.0 0.5 L-13.1 0.7 -13.65 1.0 -15.05 1.0 -17.65 0.25 -17.95 -1.95 -17.45 -2.45 -16.25 -3.4 -14.85 -4.25 Q-14.1 -4.55 -13.6 -4.25 -13.1 -3.9 -12.9 -3.15 L-12.8 -1.55 -12.9 -0.1 -13.0 0.5" fill="#167fa3" fill-rule="evenodd" stroke="none"/>
    <path d="M-13.0 0.5 L-13.1 0.7 -13.65 1.0 -15.05 1.0 -17.65 0.25 -17.95 -1.95 -17.45 -2.45 -16.25 -3.4 -14.85 -4.25 Q-14.1 -4.55 -13.6 -4.25 -13.1 -3.9 -12.9 -3.15 L-12.8 -1.55 -12.9 -0.1 -13.0 0.5" fill="none" stroke="#000000" stroke-linecap="round" stroke-linejoin="round" stroke-width="1.0"/>
    <path d="M-16.0 -3.35 Q-15.35 -3.8 -14.7 -4.05 L-13.65 -4.0 Q-13.2 -3.7 -13.05 -3.0 L-12.95 -1.5 -13.05 -0.1 -13.15 0.5 -13.25 0.65 -13.95 0.85 Q-13.45 -0.05 -13.35 -0.85 -13.25 -1.75 -13.75 -2.35 -14.25 -3.05 -14.95 -3.05 L-16.3 -2.65 -17.75 -1.65 -17.75 -1.85 -17.1 -2.45 -16.0 -3.35" fill="#40a9c6" fill-rule="evenodd" stroke="none"/>
    <path d="M-16.55 13.3 Q-16.5 14.35 -16.1 15.25 L-15.3 16.75 -14.9 17.35 -18.65 17.2 -21.1 16.4 -22.5 15.35 -23.15 14.45 -23.3 14.05 -23.3 13.85 -22.9 13.4 -21.55 12.95 -19.4 12.75 -17.45 12.9 Q-16.65 13.05 -16.55 13.3" fill="#167fa3" fill-rule="evenodd" stroke="none"/>
    <path d="M-16.55 13.3 Q-16.5 14.35 -16.1 15.25 L-15.3 16.75 -14.9 17.35 -18.65 17.2 -21.1 16.4 -22.5 15.35 -23.15 14.45 -23.3 14.05 -23.3 13.85 -22.9 13.4 -21.55 12.95 -19.4 12.75 -17.45 12.9 Q-16.65 13.05 -16.55 13.3" fill="none" stroke="#000000" stroke-linecap="round" stroke-linejoin="round" stroke-width="1.0"/>
    <path d="M-16.8 13.35 L-16.4 15.0 -15.75 16.4 -15.2 17.25 -18.7 17.1 -21.0 16.35 Q-21.85 15.85 -22.3 15.35 L-22.9 14.45 -23.1 14.05 -23.05 13.85 -22.7 13.5 -21.55 13.1 -19.75 12.95 -18.05 13.0 -16.95 13.2 -16.8 13.35" fill="#167fa3" fill-rule="evenodd" stroke="none"/>
    <path d="M-16.8 13.35 L-16.95 13.2 -18.05 13.0 -19.75 12.95 -21.55 13.1 -22.7 13.5 -23.05 13.85 -23.1 14.05 -22.9 14.45 -22.3 15.35 Q-21.85 15.85 -21.0 16.35 L-18.7 17.1 -15.2 17.25 -15.75 16.4 -16.4 15.0 -16.8 13.35" fill="none" stroke="#000000" stroke-linecap="round" stroke-linejoin="round" stroke-width="1.0"/>
    <path d="M-21.7 13.25 Q-21.4 14.3 -20.7 15.25 L-18.8 16.85 Q-20.1 16.6 -20.95 16.15 L-22.15 15.2 -22.75 14.4 -22.9 14.0 -22.9 13.95 -22.7 13.65 -21.7 13.25" fill="#0f6e87" fill-rule="evenodd" stroke="none"/>
    <path d="M-37.55 8.85 L-36.05 9.25 Q-35.7 9.55 -35.8 9.9 L-36.15 10.55 -36.45 10.8 Q-36.2 10.1 -36.5 9.7 -36.75 9.25 -37.15 9.05 L-37.55 8.85" fill="#000000" fill-rule="evenodd" stroke="none"/>
  </g>
</svg>
