<?xml version="1.0" encoding="UTF-8" standalone="no"?>
<svg xmlns:xlink="http://www.w3.org/1999/xlink" height="42.55px" width="114.1px" xmlns="http://www.w3.org/2000/svg">
  <g transform="matrix(1, 0, 0, 1, 13.75, 31.25)">
    <path d="M96.55 -23.75 L99.2 -25.85 98.7 -25.2 97.55 -23.4 96.2 -20.75 Q95.5 -19.35 95.1 -17.8 94.65 -16.25 94.7 -14.85 94.75 -13.35 95.25 -12.2 95.7 -11.1 96.4 -10.25 L97.75 -8.85 98.9 -8.05 99.35 -7.75 Q97.5 -8.15 95.7 -8.85 94.25 -9.3 92.9 -10.2 L92.05 -10.9 91.2 -11.4 Q90.75 -11.55 90.2 -11.05 L91.0 -13.8 90.05 -15.6 Q90.5 -15.5 90.8 -15.9 L91.45 -16.85 92.0 -18.0 94.0 -21.05 96.55 -23.75" fill="#167fa3" fill-rule="evenodd" stroke="none"/>
    <path d="M96.55 -23.75 L94.0 -21.05 92.0 -18.0 91.45 -16.85 90.8 -15.9 Q90.5 -15.5 90.05 -15.6 L91.0 -13.8 90.2 -11.05 Q90.75 -11.55 91.2 -11.4 L92.05 -10.9 92.9 -10.2 Q94.25 -9.3 95.7 -8.85 97.5 -8.15 99.35 -7.75 L98.9 -8.05 97.75 -8.85 96.4 -10.25 Q95.7 -11.1 95.25 -12.2 94.75 -13.35 94.7 -14.85 94.65 -16.25 95.1 -17.8 95.5 -19.35 96.2 -20.75 L97.55 -23.4 98.7 -25.2 99.2 -25.85 96.55 -23.75" fill="none" stroke="#000000" stroke-linecap="round" stroke-linejoin="round" stroke-width="2.0"/>
    <path d="M33.15 -21.55 L33.4 -22.2 34.15 -23.85 35.6 -25.95 Q36.5 -27.0 37.85 -27.95 39.2 -28.9 41.0 -29.4 L41.65 -29.65 43.25 -30.05 45.05 -30.25 Q45.85 -30.2 46.35 -29.7 46.75 -29.15 46.55 -28.45 L45.9 -27.0 45.1 -25.45 Q44.7 -24.75 44.65 -24.1 L44.8 -22.05 44.95 -21.3 33.15 -21.55" fill="#167fa3" fill-rule="evenodd" stroke="none"/>
    <path d="M33.15 -21.55 L33.4 -22.2 34.15 -23.85 35.6 -25.95 Q36.5 -27.0 37.85 -27.95 39.2 -28.9 41.0 -29.4 L41.65 -29.65 43.25 -30.05 45.05 -30.25 Q45.85 -30.2 46.35 -29.7 46.75 -29.15 46.55 -28.45 L45.9 -27.0 45.1 -25.45 Q44.7 -24.75 44.65 -24.1 L44.8 -22.05 44.95 -21.3" fill="none" stroke="#000000" stroke-linecap="round" stroke-linejoin="round" stroke-width="2.0"/>
    <path d="M42.3 -29.65 L43.75 -30.0 45.2 -30.05 46.2 -29.6 46.45 -28.95 46.35 -28.45 42.7 -28.5 39.05 -27.8 Q37.3 -27.15 36.1 -25.75 34.8 -24.3 34.35 -21.8 L33.95 -21.8 33.5 -21.8 34.1 -23.25 35.45 -25.45 37.75 -27.65 Q39.15 -28.7 41.1 -29.25 L42.3 -29.65" fill="#1f95b5" fill-rule="evenodd" stroke="none"/>
    <path d="M89.75 -15.25 L90.9 -14.85 Q91.5 -14.7 91.85 -14.35 92.65 -13.6 92.5 -13.0 L91.35 -11.9 89.15 -11.05 86.5 -10.4 84.1 -10.0 82.55 -9.65 72.4 -6.85 62.3 -3.95 53.4 -1.65 45.25 0.15 38.55 1.45 34.0 2.25 32.35 2.5 Q28.95 5.4 25.45 7.1 21.9 8.8 18.5 9.5 L11.95 10.3 6.45 10.05 2.45 9.3 0.4 8.65 -0.8 8.5 -2.0 9.0 -3.35 9.5 Q-4.05 9.7 -4.9 9.5 -5.7 9.3 -5.8 8.8 -5.9 8.3 -5.6 7.75 L-5.0 6.8 -4.6 6.4 -5.4 6.2 -7.4 5.55 -9.75 4.35 Q-10.95 3.65 -11.8 2.6 -12.65 1.6 -12.75 0.25 -12.8 -1.1 -12.1 -2.2 -11.45 -3.35 -10.25 -4.3 L-7.65 -6.15 -4.9 -7.9 -2.4 -9.55 0.4 -12.1 2.9 -14.9 4.75 -17.25 5.45 -18.2 Q6.75 -19.8 8.4 -20.75 10.1 -21.7 11.85 -22.2 L15.2 -22.85 17.85 -23.0 19.2 -23.0 47.2 -22.15 63.25 -20.95 Q71.25 -19.95 79.1 -18.1 83.95 -17.05 88.65 -15.55 L89.75 -15.25" fill="#ffe473" fill-rule="evenodd" stroke="none"/>
    <path d="M89.75 -15.25 L88.65 -15.55 Q83.95 -17.05 79.1 -18.1 71.25 -19.95 63.25 -20.95 L47.2 -22.15 19.2 -23.0 17.85 -23.0 15.2 -22.85 11.85 -22.2 Q10.1 -21.7 8.4 -20.75 6.75 -19.8 5.45 -18.2 L4.75 -17.25 2.9 -14.9 0.4 -12.1 -2.4 -9.55 -4.9 -7.9 -7.65 -6.15 -10.25 -4.3 Q-11.45 -3.35 -12.1 -2.2 -12.8 -1.1 -12.75 0.25 -12.65 1.6 -11.8 2.6 -10.95 3.65 -9.75 4.35 L-7.4 5.55 -5.4 6.2 -4.6 6.4 -5.0 6.8 -5.6 7.75 Q-5.9 8.3 -5.8 8.8 -5.7 9.3 -4.9 9.5 -4.05 9.7 -3.35 9.5 L-2.0 9.0 -0.8 8.5 0.4 8.65 2.45 9.3 6.45 10.05 11.95 10.3 18.5 9.5 Q21.9 8.8 25.45 7.1 28.95 5.4 32.35 2.5 L34.0 2.25 38.55 1.45 45.25 0.15 53.4 -1.65 62.3 -3.95 72.4 -6.85 82.55 -9.65 84.1 -10.0 86.5 -10.4 89.15 -11.05 91.35 -11.9 92.5 -13.0 Q92.65 -13.6 91.85 -14.35 91.5 -14.7 90.9 -14.85 L89.75 -15.25" fill="none" stroke="#000000" stroke-linecap="round" stroke-linejoin="round" stroke-width="2.0"/>
    <path d="M79.0 -17.7 L82.4 -16.9 86.2 -15.85 84.9 -16.15 84.4 -16.3 Q77.5 -18.25 70.5 -19.0 L56.6 -19.9 42.8 -19.85 34.1 -19.8 Q29.7 -19.8 25.35 -19.95 L22.5 -20.4 19.45 -21.0 17.3 -20.95 15.35 -20.5 15.25 -20.45 Q11.25 -21.55 6.7 -18.95 8.65 -20.8 11.8 -21.7 14.9 -22.65 18.95 -22.55 L47.15 -21.7 63.2 -20.55 Q71.2 -19.55 79.0 -17.7" fill="#fcedae" fill-rule="evenodd" stroke="none"/>
    <path d="M92.05 -13.25 L92.05 -13.15 Q91.85 -12.65 90.95 -12.2 90.05 -11.75 88.75 -11.4 L86.2 -10.8 84.05 -10.4 82.4 -10.1 76.45 -8.45 70.55 -6.75 62.15 -4.35 53.45 -2.1 45.4 -0.35 38.8 0.95 34.2 1.75 32.25 2.1 32.15 2.1 32.05 2.15 Q28.15 5.5 24.0 7.25 19.9 8.95 16.0 9.5 L8.8 9.85 3.4 9.1 0.6 8.25 -0.9 8.1 -2.25 8.6 -3.45 9.05 Q-4.1 9.25 -4.8 9.05 L-5.4 8.65 -5.4 8.55 Q-5.4 8.1 -5.05 7.6 L-4.35 6.7 -3.8 6.15 -4.55 6.0 -5.4 5.8 -7.25 5.15 -9.5 4.05 -11.45 2.4 Q-12.25 1.45 -12.35 0.25 L-12.35 0.0 Q-12.35 -1.0 -11.75 -1.95 -11.05 -0.45 -9.5 0.85 -7.25 2.4 -4.7 3.05 L0.5 3.4 Q3.05 3.1 5.2 1.95 L4.3 2.75 3.0 3.8 1.9 4.65 1.8 4.75 Q6.0 5.9 10.25 5.8 14.65 5.7 18.75 4.45 22.85 3.15 26.35 0.8 29.9 -1.6 32.5 -5.0 L32.35 -4.2 32.25 -3.5 32.35 -3.05 Q32.45 -2.9 32.65 -2.9 L36.6 -2.25 40.5 -2.75 44.45 -3.8 44.9 -3.9 45.9 -4.2 46.95 -4.45 47.4 -4.6 48.15 -4.75 50.0 -5.2 52.45 -5.75 54.85 -6.35 56.75 -6.8 57.5 -6.95 69.1 -9.7 80.55 -11.9 92.05 -13.25" fill="#ccb244" fill-rule="evenodd" stroke="none"/>
    <path d="M20.3 -17.4 L21.0 -17.15 22.7 -16.25 24.65 -14.65 Q25.55 -13.65 26.05 -12.15 26.6 -10.65 26.3 -8.65 26.05 -6.65 24.65 -4.0 23.2 -1.4 20.3 1.9 L20.85 1.25 22.2 -0.55 23.75 -3.3 Q24.55 -4.85 25.05 -6.7 25.55 -8.5 25.5 -10.45 25.45 -11.6 24.9 -12.65 L23.6 -14.55 22.1 -16.05 20.8 -17.05 20.3 -17.4" fill="#000000" fill-rule="evenodd" stroke="none"/>
    <path d="M11.65 -24.25 Q12.05 -23.4 12.1 -22.55 L12.0 -21.1 11.9 -20.45 11.55 -20.1 10.8 -19.5 Q10.35 -19.2 10.0 -19.15 9.65 -19.1 9.65 -19.6 L9.2 -20.8 8.25 -22.1 7.3 -23.15 6.85 -23.55 7.75 -24.7 8.85 -25.25 9.8 -25.5 10.2 -25.5 Q11.25 -25.05 11.65 -24.25" fill="#000000" fill-rule="evenodd" stroke="none"/>
    <path d="M12.05 -11.25 Q11.55 -9.55 10.65 -8.3 9.75 -7.05 8.65 -6.5 7.6 -5.9 6.5 -6.2 5.45 -6.5 4.85 -7.55 4.25 -8.6 4.15 -10.1 4.0 -11.65 4.5 -13.35 4.95 -15.05 5.85 -16.3 6.75 -17.55 7.85 -18.1 8.9 -18.65 9.95 -18.4 11.0 -18.1 11.65 -17.05 12.25 -16.0 12.4 -14.45 12.5 -12.95 12.05 -11.25" fill="#ffffff" fill-rule="evenodd" stroke="none"/>
    <path d="M12.05 -11.25 Q11.55 -9.55 10.65 -8.3 9.75 -7.05 8.65 -6.5 7.6 -5.9 6.5 -6.2 5.45 -6.5 4.85 -7.55 4.25 -8.6 4.15 -10.1 4.0 -11.65 4.5 -13.35 4.95 -15.05 5.85 -16.3 6.75 -17.55 7.85 -18.1 8.9 -18.65 9.95 -18.4 11.0 -18.1 11.65 -17.05 12.25 -16.0 12.4 -14.45 12.5 -12.95 12.05 -11.25" fill="none" stroke="#000000" stroke-linecap="round" stroke-linejoin="round" stroke-width="1.0"/>
    <path d="M7.45 -15.85 Q8.25 -15.6 8.75 -14.8 9.2 -13.95 9.3 -12.8 9.4 -11.65 9.0 -10.3 8.65 -8.9 7.85 -7.9 7.1 -6.95 6.15 -6.55 5.35 -6.95 4.85 -8.0 4.35 -9.0 4.3 -10.35 4.25 -11.75 4.65 -13.3 L5.55 -15.45 Q6.5 -16.05 7.45 -15.85" fill="#000000" fill-rule="evenodd" stroke="none"/>
    <path d="M7.2 -14.15 Q8.0 -13.9 8.3 -12.9 8.55 -11.9 8.2 -10.6 L7.45 -9.1 6.4 -8.2 Q5.6 -8.65 5.3 -9.85 5.05 -11.05 5.45 -12.55 5.65 -13.3 6.0 -13.9 6.6 -14.3 7.2 -14.15" fill="#635311" fill-rule="evenodd" stroke="none"/>
    <path d="M8.45 -13.15 L7.9 -12.2 Q7.5 -11.85 7.1 -11.95 L6.6 -12.55 Q6.45 -13.0 6.6 -13.65 L7.2 -14.6 Q7.55 -14.95 7.95 -14.85 L8.45 -14.25 8.45 -13.15" fill="#ffffff" fill-rule="evenodd" stroke="none"/>
    <path d="M10.2 -4.15 L12.0 -3.65 12.8 -3.45 9.95 -3.6 Q8.65 -4.0 7.65 -4.7 L5.9 -6.15 4.85 -7.45 4.45 -8.05 4.8 -8.25 5.25 -7.7 6.4 -6.4 Q7.15 -5.65 8.25 -5.0 9.15 -4.45 10.2 -4.15" fill="#000000" fill-rule="evenodd" stroke="none"/>
    <path d="M-4.65 6.4 L-3.65 6.45 -1.1 6.05 Q0.55 5.65 2.6 4.35 4.6 3.1 6.85 0.5" fill="none" stroke="#000000" stroke-linecap="round" stroke-linejoin="round" stroke-width="1.0"/>
    <path d="M32.0 -9.5 L31.9 -9.3 31.35 -9.0 29.95 -9.0 Q29.0 -9.15 27.35 -9.75 L27.05 -11.95 27.55 -12.45 28.75 -13.4 30.15 -14.25 Q30.9 -14.55 31.4 -14.25 L32.1 -13.15 32.2 -11.55 32.1 -10.1 32.0 -9.5" fill="#167fa3" fill-rule="evenodd" stroke="none"/>
    <path d="M32.0 -9.5 L31.9 -9.3 31.35 -9.0 29.95 -9.0 Q29.0 -9.15 27.35 -9.75 L27.05 -11.95 27.55 -12.45 28.75 -13.4 30.15 -14.25 Q30.9 -14.55 31.4 -14.25 L32.1 -13.15 32.2 -11.55 32.1 -10.1 32.0 -9.5" fill="none" stroke="#000000" stroke-linecap="round" stroke-linejoin="round" stroke-width="1.0"/>
    <path d="M29.0 -13.35 L30.3 -14.05 31.35 -14.0 Q31.8 -13.7 31.95 -13.0 L32.05 -11.5 31.95 -10.1 31.85 -9.5 31.75 -9.35 Q31.6 -9.2 31.05 -9.15 31.55 -10.05 31.65 -10.85 31.75 -11.75 31.25 -12.35 30.75 -13.05 30.05 -13.05 29.4 -13.05 28.7 -12.65 L27.25 -11.65 27.25 -11.85 27.9 -12.45 29.0 -13.35" fill="#40a9c6" fill-rule="evenodd" stroke="none"/>
    <path d="M28.45 3.3 Q28.5 4.35 28.9 5.25 L29.7 6.75 30.1 7.35 26.35 7.2 Q24.8 6.95 23.9 6.4 L22.5 5.35 21.85 4.45 21.7 4.05 21.7 3.85 22.1 3.4 23.45 2.95 25.6 2.75 27.55 2.9 Q28.35 3.05 28.45 3.3" fill="#167fa3" fill-rule="evenodd" stroke="none"/>
    <path d="M28.45 3.3 Q28.5 4.35 28.9 5.25 L29.7 6.75 30.1 7.35 26.35 7.2 Q24.8 6.95 23.9 6.4 L22.5 5.35 21.85 4.45 21.7 4.05 21.7 3.85 22.1 3.4 23.45 2.95 25.6 2.75 27.55 2.9 Q28.35 3.05 28.45 3.3" fill="none" stroke="#000000" stroke-linecap="round" stroke-linejoin="round" stroke-width="1.0"/>
    <path d="M28.2 3.35 Q28.25 4.2 28.6 5.0 L29.25 6.4 29.8 7.25 26.3 7.1 24.0 6.35 22.7 5.35 22.1 4.45 21.9 4.05 21.95 3.85 Q21.95 3.7 22.3 3.5 L23.45 3.1 25.25 2.95 26.95 3.0 28.05 3.2 28.2 3.35" fill="#167fa3" fill-rule="evenodd" stroke="none"/>
    <path d="M28.2 3.35 L28.05 3.2 26.95 3.0 25.25 2.95 23.45 3.1 22.3 3.5 Q21.95 3.7 21.95 3.85 L21.9 4.05 22.1 4.45 22.7 5.35 24.0 6.35 26.3 7.1 29.8 7.25 29.25 6.4 28.6 5.0 Q28.25 4.2 28.2 3.35" fill="none" stroke="#000000" stroke-linecap="round" stroke-linejoin="round" stroke-width="1.0"/>
    <path d="M23.3 3.25 Q23.6 4.3 24.3 5.25 25.0 6.2 26.2 6.85 24.9 6.6 24.05 6.15 L22.85 5.2 22.25 4.4 22.1 4.0 22.1 3.95 22.3 3.65 23.3 3.25" fill="#0f6e87" fill-rule="evenodd" stroke="none"/>
    <path d="M7.45 -1.15 L8.95 -0.75 9.2 -0.1 8.85 0.55 8.55 0.8 Q8.8 0.1 8.5 -0.3 L7.85 -0.95 7.45 -1.15" fill="#000000" fill-rule="evenodd" stroke="none"/>
  </g>
</svg>
