<?xml version="1.0" encoding="UTF-8" standalone="no"?>
<svg xmlns:xlink="http://www.w3.org/1999/xlink" height="34.9px" width="118.2px" xmlns="http://www.w3.org/2000/svg">
  <g transform="matrix(1, 0, 0, 1, 61.55, 17.2)">
    <path d="M42.6 -6.7 L38.6 -4.3 31.0 0.15 26.4 3.2 20.7 7.05 Q17.5 9.1 13.5 11.05 9.5 12.95 4.55 14.4 -0.4 15.8 -6.5 16.4 -12.55 17.0 -19.95 16.4 -27.3 15.75 -36.1 13.6 L-37.25 14.0 -40.3 14.75 -44.75 15.05 Q-47.2 14.9 -49.85 13.95 -52.55 13.0 -55.15 10.75 L-55.7 10.9 -56.95 11.05 -58.3 11.0 -59.0 10.5 Q-59.1 10.05 -58.7 9.65 L-57.7 8.8 -56.7 8.2 -56.25 8.0 Q-56.75 8.1 -57.25 7.6 L-58.4 6.05 -59.5 3.95 -60.3 2.0 -60.55 0.75 Q-60.4 -0.65 -59.6 -1.5 L-57.6 -2.8 -55.05 -3.65 -52.4 -4.35 Q-51.15 -4.75 -50.2 -5.35 -49.15 -6.1 -48.15 -7.15 L-46.1 -9.35 -43.9 -11.4 -41.5 -12.9 -38.85 -13.3 -37.05 -13.1 -36.25 -13.05 -36.1 -13.05 -34.2 -12.45 -28.2 -11.3 -17.55 -10.2 Q-11.05 -9.8 -1.85 -9.95 L10.25 -10.1 21.45 -10.15 31.25 -10.05 39.0 -9.85 44.1 -9.75 45.95 -9.65 46.15 -9.45 46.35 -8.85 45.8 -8.15 Q45.25 -7.75 43.7 -7.4 L42.6 -6.7" fill="#a33128" fill-rule="evenodd" stroke="none"/>
    <path d="M42.6 -6.7 L38.6 -4.3 31.0 0.15 26.4 3.2 20.7 7.05 Q17.5 9.1 13.5 11.05 9.5 12.95 4.55 14.4 -0.4 15.8 -6.5 16.4 -12.55 17.0 -19.95 16.4 -27.3 15.75 -36.1 13.6 L-37.25 14.0 -40.3 14.75 -44.75 15.05 Q-47.2 14.9 -49.85 13.95 -52.55 13.0 -55.15 10.75 L-55.7 10.9 -56.95 11.05 -58.3 11.0 -59.0 10.5 Q-59.1 10.05 -58.7 9.65 L-57.7 8.8 -56.7 8.2 -56.25 8.0 Q-56.75 8.1 -57.25 7.6 L-58.4 6.05 -59.5 3.95 -60.3 2.0 -60.55 0.75 Q-60.4 -0.65 -59.6 -1.5 L-57.6 -2.8 -55.05 -3.65 -52.4 -4.35 Q-51.15 -4.75 -50.2 -5.35 -49.15 -6.1 -48.15 -7.15 L-46.1 -9.35 -43.9 -11.4 -41.5 -12.9 -38.85 -13.3 -37.05 -13.1 -36.25 -13.05 -36.1 -13.05 -34.2 -12.45 -28.2 -11.3 -17.55 -10.2 Q-11.05 -9.8 -1.85 -9.95 L10.25 -10.1 21.45 -10.15 31.25 -10.05 39.0 -9.85 44.1 -9.75 45.95 -9.65 46.15 -9.45 46.35 -8.85 45.8 -8.15 Q45.25 -7.75 43.7 -7.4 L42.6 -6.7" fill="none" stroke="#000000" stroke-linecap="round" stroke-linejoin="round" stroke-width="2.0"/>
    <path d="M-29.25 4.1 Q-29.85 5.7 -31.0 6.95 L-33.6 9.45 -35.9 11.6 -36.7 13.35 -38.6 13.95 -41.75 14.5 Q-43.6 14.7 -45.8 14.5 -48.0 14.25 -50.3 13.3 -52.6 12.35 -54.8 10.45 L-55.0 10.3 -55.2 10.35 -57.5 10.6 -58.55 10.35 Q-58.6 10.05 -57.9 9.45 -57.15 8.85 -56.05 8.35 L-55.85 8.25 -56.2 7.45 -56.35 7.55 -56.7 7.4 -57.85 6.05 -58.95 4.0 -59.8 2.0 -60.1 0.8 Q-60.0 -0.4 -59.25 -1.25 L-59.3 -0.45 Q-59.3 0.7 -58.65 1.75 -56.25 4.7 -52.95 6.5 -49.65 8.25 -45.9 8.85 -42.2 9.4 -38.45 8.7 -34.75 8.05 -31.45 6.0 L-29.25 4.1" fill="#842824" fill-rule="evenodd" stroke="none"/>
    <path d="M45.75 -8.6 L45.1 -8.25 43.65 -7.8 43.6 -7.8 43.55 -7.8 43.5 -7.8 42.3 -7.05 38.3 -4.65 30.8 -0.2 Q28.7 1.05 26.0 2.95 L20.3 6.8 Q17.15 8.85 13.2 10.7 9.2 12.6 4.3 14.05 -0.6 15.45 -6.65 16.0 -12.65 16.6 -19.95 15.95 -27.25 15.35 -35.95 13.2 L-36.1 13.15 -36.45 13.2 -37.2 13.2 -37.65 13.25 -36.3 12.05 -34.75 10.8 -33.65 9.5 Q-31.25 10.85 -27.95 11.8 L-20.75 13.15 -12.65 13.55 -4.1 12.85 Q0.2 12.25 4.3 11.05 8.35 9.8 11.95 7.95 L20.75 3.2 28.95 -1.3 37.2 -5.3 Q41.4 -7.2 45.75 -8.6" fill="#842824" fill-rule="evenodd" stroke="none"/>
    <path d="M45.75 -9.25 L45.95 -8.9 45.8 -8.65 Q45.65 -8.5 45.15 -8.3 L43.65 -7.85 43.6 -7.85 43.5 -7.8 43.05 -7.5 42.1 -6.95 41.55 -6.6 28.45 -6.65 15.45 -6.45 2.25 -6.25 -11.15 -6.3 -24.6 -6.95 Q-29.4 -6.95 -31.9 -9.0 L-32.25 -8.75 -31.8 -7.95 -30.6 -5.4 Q-32.15 -7.45 -34.15 -8.95 -36.15 -10.5 -38.4 -11.2 L-43.0 -11.6 Q-40.9 -13.15 -38.9 -12.9 L-36.85 -12.7 -36.15 -12.65 -33.9 -12.0 -27.7 -10.8 -17.15 -9.75 Q-10.75 -9.35 -1.85 -9.55 L9.75 -9.7 20.6 -9.7 30.2 -9.6 37.95 -9.5 43.3 -9.35 45.75 -9.25" fill="#ba3b35" fill-rule="evenodd" stroke="none"/>
    <path d="M-40.1 -16.25 Q-39.2 -15.85 -39.05 -15.0 -38.85 -14.2 -39.05 -13.35 L-39.5 -11.85 -39.85 -11.25 Q-40.3 -12.05 -41.15 -12.4 L-43.0 -12.75 -44.6 -12.7 -45.3 -12.65 -45.05 -16.0 -44.35 -16.3 -42.5 -16.7 -40.1 -16.25" fill="#7a1b16" fill-rule="evenodd" stroke="none"/>
    <path d="M-40.1 -16.25 L-42.5 -16.7 -44.35 -16.3 -45.05 -16.0 -45.3 -12.65 -44.6 -12.7 -43.0 -12.75 -41.15 -12.4 Q-40.3 -12.05 -39.85 -11.25 L-39.5 -11.85 -39.05 -13.35 Q-38.85 -14.2 -39.05 -15.0 -39.2 -15.85 -40.1 -16.25" fill="none" stroke="#000000" stroke-linecap="round" stroke-linejoin="round" stroke-width="1.0"/>
    <path d="M-28.1 11.8 L-28.1 12.15 -28.0 12.95 -27.5 13.95 -26.45 14.75 -27.1 14.85 -28.85 14.95 -31.1 14.4 Q-32.3 13.9 -33.35 12.8 L-28.1 11.8" fill="#842824" fill-rule="evenodd" stroke="none"/>
    <path d="M-28.1 11.8 L-28.1 12.15 -28.0 12.95 -27.5 13.95 -26.45 14.75 -27.1 14.85 -28.85 14.95 -31.1 14.4 Q-32.3 13.9 -33.35 12.8" fill="none" stroke="#000000" stroke-linecap="round" stroke-linejoin="round" stroke-width="1.0"/>
    <path d="M-40.35 -3.1 Q-40.35 -1.35 -40.75 0.0 -41.2 1.4 -41.9 2.25 -42.65 3.05 -43.5 3.05 -44.4 3.05 -45.1 2.25 -45.85 1.4 -46.25 0.0 -46.7 -1.35 -46.7 -3.1 -46.7 -4.8 -46.25 -6.2 -45.85 -7.6 -45.1 -8.4 -44.4 -9.25 -43.5 -9.25 -42.65 -9.25 -41.9 -8.4 -41.2 -7.6 -40.75 -6.2 -40.35 -4.8 -40.35 -3.1" fill="#ffffff" fill-rule="evenodd" stroke="none"/>
    <path d="M-40.35 -3.1 Q-40.35 -1.35 -40.75 0.0 -41.2 1.4 -41.9 2.25 -42.65 3.05 -43.5 3.05 -44.4 3.05 -45.1 2.25 -45.85 1.4 -46.25 0.0 -46.7 -1.35 -46.7 -3.1 -46.7 -4.8 -46.25 -6.2 -45.85 -7.6 -45.1 -8.4 -44.4 -9.25 -43.5 -9.25 -42.65 -9.25 -41.9 -8.4 -41.2 -7.6 -40.75 -6.2 -40.35 -4.8 -40.35 -3.1" fill="none" stroke="#000000" stroke-linecap="round" stroke-linejoin="round" stroke-width="1.0"/>
    <path d="M-42.0 -3.3 Q-42.0 -2.3 -42.35 -1.45 -42.65 -0.6 -43.15 -0.1 -43.7 0.4 -44.35 0.4 L-45.55 -0.1 Q-46.05 -0.6 -46.4 -1.45 L-46.7 -3.3 -46.4 -5.15 -45.55 -6.5 -44.35 -7.0 Q-43.7 -7.0 -43.2 -6.5 -42.65 -6.0 -42.35 -5.15 -42.0 -4.35 -42.0 -3.3" fill="#000000" fill-rule="evenodd" stroke="none"/>
    <path d="M-42.75 -3.35 Q-42.75 -2.25 -43.2 -1.5 -43.65 -0.8 -44.35 -0.8 -45.05 -0.8 -45.45 -1.5 -45.95 -2.25 -45.95 -3.35 -45.95 -4.4 -45.45 -5.1 -45.0 -5.85 -44.35 -5.85 -43.65 -5.85 -43.2 -5.1 -42.75 -4.4 -42.75 -3.35" fill="#3a0707" fill-rule="evenodd" stroke="none"/>
    <path d="M-42.8 -5.05 L-43.0 -4.35 -43.4 -4.1 -43.85 -4.35 -44.0 -5.05 -43.85 -5.7 -43.4 -5.95 -43.0 -5.7 -42.8 -5.05" fill="#ffffff" fill-rule="evenodd" stroke="none"/>
    <path d="M-33.0 -8.15 Q-31.0 -5.85 -30.05 -3.8 -28.85 -1.25 -28.9 1.0 -28.95 3.2 -29.85 5.05 -30.75 6.9 -32.0 8.35 L-34.6 10.8 -36.75 12.25 -37.65 12.8 Q-34.2 10.55 -32.35 8.25 -30.5 6.0 -29.85 3.85 -29.2 1.65 -29.45 -0.3 -29.65 -2.25 -30.35 -3.85 L-31.9 -6.7 -33.0 -8.15" fill="#000000" fill-rule="evenodd" stroke="none"/>
    <path d="M43.0 -9.55 L45.55 -11.7 Q47.1 -12.6 48.85 -13.25 L52.35 -14.05 55.65 -13.95 Q55.35 -12.9 54.6 -12.0 L52.9 -10.45 50.75 -9.25 Q49.7 -8.75 48.7 -8.4 L50.9 -7.35 53.15 -5.9 54.75 -4.05 Q55.3 -3.0 55.05 -1.7 53.1 -1.95 50.9 -2.8 48.75 -3.65 46.75 -4.85 L43.35 -7.55 43.0 -9.55" fill="#a33128" fill-rule="evenodd" stroke="none"/>
    <path d="M43.35 -7.55 L46.75 -4.85 Q48.75 -3.65 50.9 -2.8 53.1 -1.95 55.05 -1.7 55.3 -3.0 54.75 -4.05 L53.15 -5.9 50.9 -7.35 48.7 -8.4 Q49.7 -8.75 50.75 -9.25 L52.9 -10.45 54.6 -12.0 Q55.35 -12.9 55.65 -13.95 L52.35 -14.05 48.85 -13.25 Q47.1 -12.6 45.55 -11.7 L43.0 -9.55" fill="none" stroke="#000000" stroke-linecap="round" stroke-linejoin="round" stroke-width="2.0"/>
    <path d="M-22.9 -6.7 L-17.15 -6.7 Q-16.65 -2.85 -16.8 0.4 -16.95 3.55 -17.5 6.05 -18.0 8.55 -18.6 10.25 L-19.65 12.85 -20.15 13.75 -24.85 12.35 Q-22.65 9.65 -21.8 6.95 -20.9 4.2 -20.95 1.75 -21.0 -0.65 -21.45 -2.6 L-22.4 -5.6 -22.9 -6.7" fill="#ba3b35" fill-rule="evenodd" stroke="none"/>
    <path d="M-8.3 -7.0 L-2.25 -6.45 Q-1.45 -3.0 -1.45 -0.05 -1.5 2.9 -2.05 5.2 -2.55 7.55 -3.25 9.2 L-4.45 11.7 -5.0 12.6 -10.25 13.15 Q-9.15 11.8 -8.55 9.8 -8.0 7.85 -7.8 5.6 L-7.6 1.1 -7.85 -2.95 -8.15 -5.85 -8.3 -7.0" fill="#ba3b35" fill-rule="evenodd" stroke="none"/>
    <path d="M14.05 -7.85 Q14.3 -5.9 13.95 -3.65 L13.05 0.85 11.75 4.9 10.65 7.8 10.2 8.95 3.55 11.45 Q4.65 10.3 5.35 8.6 L6.35 4.85 6.85 0.8 7.0 -2.8 6.95 -5.45 6.85 -6.45 14.05 -7.85" fill="#ba3b35" fill-rule="evenodd" stroke="none"/>
    <path d="M22.65 -6.45 L25.4 -7.85 Q26.05 -7.4 26.25 -6.5 L26.25 -4.5 25.85 -2.35 25.35 -0.7 25.15 0.0 22.1 1.95 Q23.0 0.45 23.25 -1.05 L23.3 -3.7 22.95 -5.7 22.65 -6.45" fill="#ba3b35" fill-rule="evenodd" stroke="none"/>
  </g>
</svg>
