<?xml version="1.0" encoding="UTF-8" standalone="no"?>
<svg xmlns:xlink="http://www.w3.org/1999/xlink" height="33.1px" width="114.9px" xmlns="http://www.w3.org/2000/svg">
  <g transform="matrix(1, 0, 0, 1, 63.05, 15.4)">
    <path d="M42.4 -9.05 Q43.1 -10.5 44.1 -11.55 L46.3 -13.4 48.7 -14.3 50.85 -14.25 50.2 -11.95 49.0 -10.1 47.6 -8.65 46.25 -7.7 47.7 -6.45 49.2 -4.75 Q49.9 -3.8 50.25 -2.55 50.65 -1.3 50.45 0.2 49.15 -0.1 47.7 -1.05 46.25 -2.1 44.9 -3.55 43.55 -5.0 42.65 -6.7 L42.4 -9.05" fill="#a33128" fill-rule="evenodd" stroke="none"/>
    <path d="M42.65 -6.7 Q43.55 -5.0 44.9 -3.55 46.25 -2.1 47.7 -1.05 49.15 -0.1 50.45 0.2 50.65 -1.3 50.25 -2.55 49.9 -3.8 49.2 -4.75 L47.7 -6.45 46.25 -7.7 47.6 -8.65 49.0 -10.1 50.2 -11.95 50.85 -14.25 48.7 -14.3 46.3 -13.4 44.1 -11.55 Q43.1 -10.5 42.4 -9.05" fill="none" stroke="#000000" stroke-linecap="round" stroke-linejoin="round" stroke-width="2.0"/>
    <path d="M43.8 -7.45 L43.7 -7.4 42.5 -6.7 38.5 -4.3 30.8 0.15 Q28.75 1.35 26.15 3.2 L20.35 7.1 Q17.1 9.1 13.05 11.05 9.0 13.0 3.95 14.4 -1.05 15.85 -7.2 16.4 -13.4 17.0 -20.85 16.4 -28.3 15.75 -37.25 13.6 L-38.4 14.05 -41.55 14.75 -46.0 15.05 Q-48.5 14.95 -51.2 13.95 -53.95 13.0 -56.55 10.75 L-57.1 10.9 -58.4 11.05 -59.75 11.0 -60.5 10.5 -60.15 9.65 -59.2 8.8 -58.15 8.2 -57.7 8.0 Q-58.15 8.15 -58.7 7.6 L-59.9 6.05 -61.0 3.95 -61.8 2.0 -62.05 0.8 Q-61.9 -0.65 -61.1 -1.45 -60.3 -2.35 -59.05 -2.8 L-56.45 -3.65 -53.8 -4.35 Q-52.5 -4.7 -51.55 -5.35 L-49.5 -7.15 -47.4 -9.3 -45.15 -11.4 -42.75 -12.9 -40.05 -13.3 -38.2 -13.1 -37.4 -13.0 -37.25 -13.0 -35.3 -12.45 -29.25 -11.3 -18.45 -10.2 Q-11.85 -9.75 -2.5 -9.95 L9.7 -10.1 21.1 -10.1 31.05 -10.0 38.9 -9.85 43.8 -9.7 Q45.6 -8.6 43.8 -7.45" fill="#a33128" fill-rule="evenodd" stroke="none"/>
    <path d="M43.8 -7.45 L43.7 -7.4 42.5 -6.7 38.5 -4.3 30.8 0.15 Q28.75 1.35 26.15 3.2 L20.35 7.1 Q17.1 9.1 13.05 11.05 9.0 13.0 3.95 14.4 -1.05 15.85 -7.2 16.4 -13.4 17.0 -20.85 16.4 -28.3 15.75 -37.25 13.6 L-38.4 14.05 -41.55 14.75 -46.0 15.05 Q-48.5 14.95 -51.2 13.95 -53.95 13.0 -56.55 10.75 L-57.1 10.9 -58.4 11.05 -59.75 11.0 -60.5 10.5 -60.15 9.65 -59.2 8.8 -58.15 8.2 -57.7 8.0 Q-58.15 8.15 -58.7 7.6 L-59.9 6.05 -61.0 3.95 -61.8 2.0 -62.05 0.8 Q-61.9 -0.65 -61.1 -1.45 -60.3 -2.35 -59.05 -2.8 L-56.45 -3.65 -53.8 -4.35 Q-52.5 -4.7 -51.55 -5.35 L-49.5 -7.15 -47.4 -9.3 -45.15 -11.4 -42.75 -12.9 -40.05 -13.3 -38.2 -13.1 -37.4 -13.0 -37.25 -13.0 -35.3 -12.45 -29.25 -11.3 -18.45 -10.2 Q-11.85 -9.75 -2.5 -9.95 L9.7 -10.1 21.1 -10.1 31.05 -10.0 38.9 -9.85 43.8 -9.7" fill="none" stroke="#000000" stroke-linecap="round" stroke-linejoin="round" stroke-width="2.0"/>
    <path d="M-30.35 4.1 Q-30.9 5.7 -32.1 6.95 L-34.75 9.45 -37.05 11.6 -37.85 13.35 -39.8 13.95 -43.0 14.5 Q-44.9 14.7 -47.1 14.5 -49.3 14.25 -51.65 13.3 -54.0 12.35 -56.25 10.45 L-56.4 10.3 -56.6 10.35 -59.0 10.6 -60.05 10.35 Q-60.1 10.05 -59.35 9.45 -58.6 8.85 -57.5 8.35 L-57.25 8.25 -57.65 7.45 -57.8 7.55 -58.2 7.4 -59.35 6.05 -60.45 4.0 -61.3 2.0 -61.6 0.8 Q-61.5 -0.4 -60.7 -1.25 L-60.8 -0.45 Q-60.8 0.7 -60.15 1.75 -57.7 4.7 -54.35 6.5 -51.0 8.25 -47.2 8.85 -43.45 9.4 -39.65 8.7 -35.9 8.05 -32.55 6.0 L-30.35 4.1" fill="#842824" fill-rule="evenodd" stroke="none"/>
    <path d="M43.5 -7.8 L42.3 -7.05 38.25 -4.65 30.65 -0.2 Q28.45 1.05 25.75 2.95 L20.0 6.8 Q16.8 8.85 12.75 10.7 8.7 12.6 3.75 14.05 -1.25 15.45 -7.35 16.0 -13.45 16.6 -20.85 15.95 -28.25 15.35 -37.1 13.2 L-37.2 13.15 -37.6 13.2 -38.35 13.2 -38.8 13.25 -37.45 12.05 -35.9 10.8 Q-35.15 10.15 -34.75 9.5 -32.3 10.85 -28.95 11.8 L-21.65 13.15 -13.45 13.55 -4.75 12.85 Q-0.4 12.25 3.7 11.05 7.85 9.8 11.5 7.95 L20.4 3.2 Q24.6 0.85 28.75 -1.3 L37.1 -5.3 Q41.35 -7.2 45.8 -8.6 L45.1 -8.25 43.6 -7.8 43.5 -7.8" fill="#842824" fill-rule="evenodd" stroke="none"/>
    <path d="M-2.5 -9.55 L9.25 -9.7 20.25 -9.7 30.0 -9.6 37.85 -9.45 43.3 -9.35 43.7 -9.3 44.75 -9.3 Q45.65 -8.7 44.75 -8.15 L43.7 -7.85 43.6 -7.85 43.55 -7.85 43.5 -7.8 43.0 -7.5 42.05 -6.95 41.45 -6.55 28.2 -6.65 15.05 -6.45 1.6 -6.25 -11.95 -6.3 -25.6 -6.95 Q-30.45 -6.95 -33.0 -9.0 L-33.35 -8.75 -32.9 -7.95 -31.65 -5.4 Q-33.25 -7.45 -35.3 -8.95 -37.3 -10.5 -39.6 -11.2 L-44.25 -11.55 Q-42.1 -13.1 -40.1 -12.9 L-38.05 -12.7 -37.3 -12.6 -35.0 -11.95 -28.75 -10.8 -18.05 -9.75 Q-11.55 -9.35 -2.5 -9.55" fill="#ba3b35" fill-rule="evenodd" stroke="none"/>
    <path d="M-42.1 -10.95 Q-41.15 -10.55 -41.0 -9.7 -40.8 -8.9 -41.0 -8.05 -41.2 -7.15 -41.5 -6.55 L-41.8 -5.95 Q-42.25 -6.75 -43.15 -7.1 L-45.0 -7.45 -46.65 -7.4 -47.35 -7.35 -47.1 -10.7 -46.4 -11.0 -44.5 -11.4 Q-43.35 -11.5 -42.1 -10.95" fill="#7a1b16" fill-rule="evenodd" stroke="none"/>
    <path d="M-42.1 -10.95 Q-43.35 -11.5 -44.5 -11.4 L-46.4 -11.0 -47.1 -10.7 -47.35 -7.35 -46.65 -7.4 -45.0 -7.45 -43.15 -7.1 Q-42.25 -6.75 -41.8 -5.95 L-41.5 -6.55 Q-41.2 -7.15 -41.0 -8.05 -40.8 -8.9 -41.0 -9.7 -41.15 -10.55 -42.1 -10.95" fill="none" stroke="#000000" stroke-linecap="round" stroke-linejoin="round" stroke-width="1.0"/>
    <path d="M-29.1 11.9 L-29.15 12.4 -29.0 13.6 -28.55 14.95 -27.45 16.1 -28.15 16.3 -29.9 16.4 Q-30.95 16.3 -32.15 15.65 -33.35 14.95 -34.45 13.3 L-29.1 11.9" fill="#842824" fill-rule="evenodd" stroke="none"/>
    <path d="M-29.1 11.9 L-29.15 12.4 -29.0 13.6 -28.55 14.95 -27.45 16.1 -28.15 16.3 -29.9 16.4 Q-30.95 16.3 -32.15 15.65 -33.35 14.95 -34.45 13.3" fill="none" stroke="#000000" stroke-linecap="round" stroke-linejoin="round" stroke-width="1.0"/>
    <path d="M-48.2 -2.45 L-47.95 -2.45 -47.8 -2.3 -47.8 -2.05 -47.9 -1.0 -47.8 -0.55 Q-48.3 1.0 -44.8 0.4 L-43.0 -1.0 -41.95 -2.3 -41.8 -2.45 -41.55 -2.4 -41.45 -2.2 -41.45 -2.0 -42.6 -0.55 Q-43.55 0.35 -44.5 0.95 -45.65 1.45 -46.55 1.5 L-46.6 1.5 Q-47.65 1.45 -48.15 0.85 -48.7 0.25 -48.65 -0.8 L-48.35 -2.25 -48.2 -2.45" fill="#000000" fill-rule="evenodd" stroke="none"/>
    <path d="M-34.1 -8.15 Q-32.05 -5.85 -31.05 -3.8 -29.9 -1.25 -29.95 1.0 -30.0 3.2 -30.9 5.05 -31.8 6.9 -33.1 8.35 L-35.7 10.8 -37.9 12.25 -38.8 12.8 Q-35.3 10.55 -33.45 8.25 -31.55 6.0 -30.9 3.85 -30.25 1.65 -30.5 -0.3 -30.7 -2.25 -31.4 -3.85 -32.15 -5.5 -33.0 -6.7 L-34.1 -8.15" fill="#000000" fill-rule="evenodd" stroke="none"/>
    <path d="M-23.95 -6.7 L-18.05 -6.7 Q-17.6 -2.85 -17.75 0.4 -17.9 3.55 -18.4 6.05 -18.95 8.55 -19.6 10.25 L-20.65 12.85 -21.15 13.75 -25.9 12.35 Q-23.65 9.65 -22.8 6.95 -21.9 4.2 -21.95 1.75 -21.95 -0.65 -22.45 -2.6 L-23.4 -5.6 -23.95 -6.7" fill="#ba3b35" fill-rule="evenodd" stroke="none"/>
    <path d="M-9.1 -7.0 L-2.9 -6.45 Q-2.15 -3.0 -2.15 -0.05 -2.15 2.9 -2.7 5.2 -3.25 7.55 -3.95 9.2 L-5.15 11.7 -5.75 12.6 -11.05 13.15 Q-9.95 11.8 -9.35 9.8 -8.75 7.85 -8.55 5.6 L-8.4 1.1 -8.6 -2.95 -8.95 -5.85 -9.1 -7.0" fill="#ba3b35" fill-rule="evenodd" stroke="none"/>
    <path d="M13.6 -7.85 Q13.85 -5.9 13.5 -3.65 13.2 -1.35 12.55 0.85 L11.3 4.9 10.15 7.8 9.65 8.95 2.95 11.45 Q4.05 10.3 4.75 8.6 5.45 6.85 5.8 4.85 L6.3 0.8 6.45 -2.8 6.35 -5.45 6.3 -6.45 13.6 -7.85" fill="#ba3b35" fill-rule="evenodd" stroke="none"/>
    <path d="M22.25 -6.45 L25.05 -7.85 Q25.7 -7.4 25.9 -6.5 L25.9 -4.5 25.5 -2.35 25.0 -0.7 24.8 0.0 21.7 1.95 Q22.6 0.45 22.85 -1.05 L22.9 -3.7 22.55 -5.7 22.25 -6.45" fill="#ba3b35" fill-rule="evenodd" stroke="none"/>
  </g>
</svg>
