<?xml version="1.0" encoding="UTF-8" standalone="no"?>
<svg xmlns:xlink="http://www.w3.org/1999/xlink" height="34.9px" width="119.8px" xmlns="http://www.w3.org/2000/svg">
  <g transform="matrix(1, 0, 0, 1, 63.05, 17.2)">
    <path d="M12.15 -10.2 L22.95 -11.25 29.05 -12.45 30.95 -13.0 31.1 -13.0 31.9 -13.1 33.75 -13.3 36.45 -12.9 Q37.7 -12.4 38.9 -11.4 L41.1 -9.3 43.2 -7.15 Q44.2 -6.1 45.25 -5.35 46.2 -4.75 47.5 -4.35 L50.2 -3.65 52.8 -2.8 54.8 -1.45 Q55.6 -0.65 55.75 0.8 L55.5 2.0 54.7 3.95 53.6 6.05 52.4 7.6 Q51.85 8.15 51.4 8.0 L51.85 8.2 52.9 8.8 53.85 9.65 54.2 10.5 53.45 11.05 52.15 11.05 50.85 10.9 50.25 10.8 Q47.65 13.0 44.95 13.95 42.2 14.9 39.7 15.05 L35.25 14.75 32.1 14.05 30.95 13.6 Q22.0 15.75 14.55 16.4 7.1 17.0 0.95 16.4 -5.25 15.8 -10.25 14.4 -15.3 12.95 -19.35 11.05 L-26.6 7.1 -32.45 3.2 Q-35.05 1.35 -37.1 0.15 L-44.8 -4.3 -48.8 -6.7 -49.95 -7.4 Q-51.55 -7.75 -52.1 -8.1 -52.7 -8.5 -52.65 -8.85 L-52.45 -9.45 -52.2 -9.65 -50.35 -9.7 -45.2 -9.85 -37.35 -10.0 -27.4 -10.1 -16.0 -10.1 -3.75 -9.95 Q5.55 -9.8 12.15 -10.2" fill="#a33128" fill-rule="evenodd" stroke="none"/>
    <path d="M12.15 -10.2 Q5.55 -9.8 -3.75 -9.95 L-16.0 -10.1 -27.4 -10.1 -37.35 -10.0 -45.2 -9.85 -50.35 -9.7 -52.2 -9.65 -52.45 -9.45 -52.65 -8.85 Q-52.7 -8.5 -52.1 -8.1 -51.55 -7.75 -49.95 -7.4 L-48.8 -6.7 -44.8 -4.3 -37.1 0.15 Q-35.05 1.35 -32.45 3.2 L-26.6 7.1 -19.35 11.05 Q-15.3 12.95 -10.25 14.4 -5.25 15.8 0.95 16.4 7.1 17.0 14.55 16.4 22.0 15.75 30.95 13.6 L32.1 14.05 35.25 14.75 39.7 15.05 Q42.2 14.9 44.95 13.95 47.65 13.0 50.25 10.8 L50.85 10.9 52.15 11.05 53.45 11.05 54.2 10.5 53.85 9.65 52.9 8.8 51.85 8.2 51.4 8.0 Q51.85 8.15 52.4 7.6 L53.6 6.05 54.7 3.95 55.5 2.0 55.75 0.8 Q55.6 -0.65 54.8 -1.45 L52.8 -2.8 50.2 -3.65 47.5 -4.35 Q46.2 -4.75 45.25 -5.35 44.2 -6.1 43.2 -7.15 L41.1 -9.3 38.9 -11.4 Q37.7 -12.4 36.45 -12.9 L33.75 -13.3 31.9 -13.1 31.1 -13.0 30.95 -13.0 29.05 -12.45 22.95 -11.25 12.15 -10.2" fill="none" stroke="#000000" stroke-linecap="round" stroke-linejoin="round" stroke-width="2.0"/>
    <path d="M26.25 6.0 L24.05 4.1 Q24.6 5.7 25.8 6.95 L28.45 9.45 30.75 11.6 31.55 13.35 33.5 13.95 36.7 14.5 Q38.6 14.7 40.8 14.5 43.0 14.25 45.35 13.3 47.7 12.35 49.95 10.45 L50.1 10.3 50.3 10.35 52.7 10.6 53.75 10.35 Q53.8 10.05 53.05 9.45 52.3 8.85 51.2 8.35 L50.95 8.25 51.35 7.45 51.5 7.55 51.9 7.4 53.05 6.05 54.15 4.0 55.0 2.0 55.3 0.8 Q55.2 -0.4 54.4 -1.25 L54.5 -0.45 Q54.5 0.7 53.85 1.75 51.4 4.7 48.05 6.5 44.7 8.25 40.9 8.85 37.15 9.4 33.35 8.7 29.6 8.05 26.25 6.0" fill="#842824" fill-rule="evenodd" stroke="none"/>
    <path d="M-49.9 -7.8 L-49.8 -7.8 -48.6 -7.05 -44.55 -4.65 -36.95 -0.2 Q-34.75 1.05 -32.05 2.95 L-26.3 6.8 Q-23.1 8.85 -19.05 10.7 -15.0 12.6 -10.05 14.05 -5.05 15.45 1.05 16.0 7.15 16.6 14.55 15.95 21.95 15.35 30.8 13.2 L30.9 13.15 31.3 13.2 32.05 13.2 32.5 13.25 31.15 12.05 29.6 10.8 28.45 9.5 Q26.0 10.85 22.65 11.8 L15.35 13.15 7.15 13.55 -1.55 12.85 -10.0 11.05 Q-14.15 9.8 -17.8 7.95 L-26.7 3.2 Q-30.9 0.85 -35.05 -1.3 -39.2 -3.45 -43.4 -5.3 -47.65 -7.2 -52.1 -8.6 L-51.4 -8.25 Q-50.9 -8.05 -49.9 -7.8" fill="#842824" fill-rule="evenodd" stroke="none"/>
    <path d="M-52.05 -9.25 L-52.25 -8.9 -52.1 -8.65 Q-51.95 -8.5 -51.45 -8.3 L-49.9 -7.85 -49.85 -7.85 -49.8 -7.8 -49.3 -7.5 -48.35 -6.95 -47.75 -6.6 -34.5 -6.65 -21.35 -6.45 -7.9 -6.25 Q-1.15 -6.2 5.65 -6.3 L19.3 -6.95 Q24.15 -6.95 26.7 -9.0 L27.05 -8.75 26.6 -7.95 25.35 -5.4 Q26.95 -7.45 29.0 -8.95 31.0 -10.5 33.3 -11.2 L37.95 -11.6 Q35.8 -13.15 33.8 -12.9 L31.75 -12.7 31.0 -12.65 28.7 -12.0 22.45 -10.8 11.75 -9.75 Q5.25 -9.35 -3.8 -9.55 L-15.55 -9.7 -26.55 -9.7 -36.3 -9.6 -44.15 -9.5 -49.6 -9.35 -52.05 -9.25" fill="#ba3b35" fill-rule="evenodd" stroke="none"/>
    <path d="M35.05 -16.25 Q34.1 -15.85 33.95 -15.0 33.75 -14.2 33.95 -13.35 34.15 -12.45 34.45 -11.85 L34.75 -11.25 Q35.2 -12.05 36.1 -12.4 L37.95 -12.75 39.6 -12.7 40.3 -12.65 40.05 -16.0 39.35 -16.3 37.45 -16.7 35.05 -16.25" fill="#7a1b16" fill-rule="evenodd" stroke="none"/>
    <path d="M35.05 -16.25 L37.45 -16.7 39.35 -16.3 40.05 -16.0 40.3 -12.65 39.6 -12.7 37.95 -12.75 36.1 -12.4 Q35.2 -12.05 34.75 -11.25 L34.45 -11.85 Q34.15 -12.45 33.95 -13.35 33.75 -14.2 33.95 -15.0 34.1 -15.85 35.05 -16.25" fill="none" stroke="#000000" stroke-linecap="round" stroke-linejoin="round" stroke-width="1.0"/>
    <path d="M22.8 11.8 L22.85 12.1 22.7 12.85 22.25 13.7 Q21.85 14.15 21.15 14.4 L21.85 14.5 23.6 14.6 25.85 14.1 Q27.05 13.7 28.15 12.65 L22.8 11.8" fill="#842824" fill-rule="evenodd" stroke="none"/>
    <path d="M22.8 11.8 L22.85 12.1 22.7 12.85 22.25 13.7 Q21.85 14.15 21.15 14.4 L21.85 14.5 23.6 14.6 25.85 14.1 Q27.05 13.7 28.15 12.65" fill="none" stroke="#000000" stroke-linecap="round" stroke-linejoin="round" stroke-width="1.0"/>
    <path d="M35.3 -3.1 Q35.3 -1.35 35.75 0.0 36.2 1.4 36.9 2.25 37.6 3.05 38.55 3.05 39.45 3.05 40.15 2.25 40.9 1.4 41.3 0.0 41.75 -1.35 41.75 -3.1 41.75 -4.8 41.3 -6.2 40.9 -7.6 40.15 -8.4 39.45 -9.25 38.55 -9.25 37.6 -9.25 36.9 -8.4 36.2 -7.6 35.75 -6.2 35.3 -4.8 35.3 -3.1" fill="#ffffff" fill-rule="evenodd" stroke="none"/>
    <path d="M35.3 -3.1 Q35.3 -1.35 35.75 0.0 36.2 1.4 36.9 2.25 37.6 3.05 38.55 3.05 39.45 3.05 40.15 2.25 40.9 1.4 41.3 0.0 41.75 -1.35 41.75 -3.1 41.75 -4.8 41.3 -6.2 40.9 -7.6 40.15 -8.4 39.45 -9.25 38.55 -9.25 37.6 -9.25 36.9 -8.4 36.2 -7.6 35.75 -6.2 35.3 -4.8 35.3 -3.1" fill="none" stroke="#000000" stroke-linecap="round" stroke-linejoin="round" stroke-width="1.0"/>
    <path d="M37.0 -3.3 Q37.0 -2.3 37.3 -1.45 37.65 -0.6 38.15 -0.1 38.7 0.4 39.4 0.4 40.05 0.4 40.55 -0.1 41.1 -0.6 41.45 -1.45 L41.75 -3.3 41.45 -5.15 40.55 -6.5 Q40.05 -7.0 39.4 -7.0 38.7 -7.0 38.2 -6.5 37.65 -6.0 37.3 -5.15 37.0 -4.35 37.0 -3.3" fill="#000000" fill-rule="evenodd" stroke="none"/>
    <path d="M37.75 -3.35 Q37.75 -2.25 38.25 -1.5 38.7 -0.8 39.4 -0.8 40.1 -0.8 40.5 -1.5 41.0 -2.25 41.0 -3.35 41.0 -4.4 40.5 -5.1 40.05 -5.85 39.4 -5.85 38.7 -5.85 38.25 -5.1 37.75 -4.4 37.75 -3.35" fill="#3a0707" fill-rule="evenodd" stroke="none"/>
    <path d="M37.75 -5.05 Q37.75 -4.65 37.9 -4.35 L38.35 -4.1 38.8 -4.35 38.95 -5.05 38.8 -5.7 38.35 -5.95 37.9 -5.7 37.75 -5.05" fill="#ffffff" fill-rule="evenodd" stroke="none"/>
    <path d="M27.8 -8.15 Q25.75 -5.85 24.75 -3.8 23.6 -1.25 23.65 1.0 23.7 3.2 24.6 5.05 25.5 6.9 26.8 8.35 L29.4 10.8 31.6 12.25 32.5 12.8 Q29.0 10.55 27.15 8.25 25.25 6.0 24.6 3.85 23.95 1.65 24.2 -0.3 24.4 -2.25 25.1 -3.85 L26.7 -6.7 27.8 -8.15" fill="#000000" fill-rule="evenodd" stroke="none"/>
    <path d="M-49.25 -9.55 Q-50.3 -10.75 -51.85 -11.7 L-55.15 -13.25 -58.75 -14.05 -62.05 -13.95 Q-61.8 -12.9 -61.05 -12.0 L-59.25 -10.45 -57.15 -9.25 -55.05 -8.4 -57.25 -7.35 -59.55 -5.9 -61.2 -4.05 Q-61.75 -3.0 -61.45 -1.7 -59.5 -1.95 -57.25 -2.8 -55.05 -3.65 -53.05 -4.85 -51.0 -6.1 -49.65 -7.55 L-49.25 -9.55" fill="#a33128" fill-rule="evenodd" stroke="none"/>
    <path d="M-49.65 -7.55 Q-51.0 -6.1 -53.05 -4.85 -55.05 -3.65 -57.25 -2.8 -59.5 -1.95 -61.45 -1.7 -61.75 -3.0 -61.2 -4.05 L-59.55 -5.9 -57.25 -7.35 -55.05 -8.4 -57.15 -9.25 -59.25 -10.45 -61.05 -12.0 Q-61.8 -12.9 -62.05 -13.95 L-58.75 -14.05 -55.15 -13.25 -51.85 -11.7 Q-50.3 -10.75 -49.25 -9.55" fill="none" stroke="#000000" stroke-linecap="round" stroke-linejoin="round" stroke-width="2.0"/>
    <path d="M17.65 -6.7 L11.75 -6.7 Q11.3 -2.8 11.4 0.4 11.6 3.55 12.1 6.1 L13.25 10.25 14.35 12.85 14.8 13.75 19.6 12.35 Q17.35 9.65 16.45 6.95 15.6 4.2 15.65 1.75 15.65 -0.65 16.15 -2.6 L17.1 -5.6 17.65 -6.7" fill="#ba3b35" fill-rule="evenodd" stroke="none"/>
    <path d="M2.8 -7.0 L-3.4 -6.45 Q-4.15 -3.0 -4.15 -0.05 -4.15 2.9 -3.6 5.2 L-2.35 9.2 -1.15 11.7 -0.55 12.6 4.75 13.15 Q3.65 11.8 3.05 9.8 2.45 7.85 2.25 5.6 L2.1 1.1 2.3 -2.95 2.65 -5.85 2.8 -7.0" fill="#ba3b35" fill-rule="evenodd" stroke="none"/>
    <path d="M-19.9 -7.85 Q-20.15 -5.9 -19.8 -3.65 -19.5 -1.35 -18.85 0.85 L-17.6 4.9 -16.45 7.8 -15.95 8.95 -9.25 11.45 Q-10.35 10.3 -11.05 8.6 -11.75 6.85 -12.1 4.85 L-12.6 0.8 -12.75 -2.8 -12.65 -5.45 -12.6 -6.45 -19.9 -7.85" fill="#ba3b35" fill-rule="evenodd" stroke="none"/>
    <path d="M-28.55 -6.45 L-31.35 -7.85 Q-32.0 -7.4 -32.2 -6.5 L-32.2 -4.5 -31.8 -2.35 -31.3 -0.7 -31.1 0.0 -28.0 1.95 Q-28.9 0.45 -29.15 -1.05 L-29.2 -3.7 -28.85 -5.7 -28.55 -6.45" fill="#ba3b35" fill-rule="evenodd" stroke="none"/>
  </g>
</svg>
