<?xml version="1.0" encoding="UTF-8" standalone="no"?>
<svg xmlns:xlink="http://www.w3.org/1999/xlink" height="34.9px" width="114.75px" xmlns="http://www.w3.org/2000/svg">
  <g transform="matrix(1, 0, 0, 1, 58.35, 17.2)">
    <path d="M-49.2 -6.7 L-45.15 -4.3 -37.45 0.15 -32.8 3.2 -27.0 7.05 Q-23.75 9.1 -19.7 11.05 -15.65 12.95 -10.6 14.4 -5.6 15.8 0.55 16.4 6.7 17.0 14.2 16.4 21.65 15.75 30.6 13.6 L31.75 14.0 34.9 14.75 39.35 15.05 Q41.85 14.9 44.55 13.95 47.25 13.0 49.9 10.75 L50.45 10.9 51.75 11.05 53.1 11.0 53.85 10.5 53.5 9.65 52.5 8.8 51.5 8.2 51.05 8.0 Q51.5 8.1 52.05 7.6 L53.25 6.05 54.35 3.95 55.15 2.0 55.4 0.75 Q55.25 -0.65 54.45 -1.5 L52.4 -2.8 49.8 -3.65 47.15 -4.35 Q45.85 -4.75 44.9 -5.35 L42.8 -7.15 40.7 -9.35 38.5 -11.4 Q37.35 -12.4 36.1 -12.9 L33.4 -13.3 31.55 -13.1 30.75 -13.05 30.6 -13.05 28.65 -12.45 22.6 -11.3 11.8 -10.2 Q5.2 -9.8 -4.15 -9.95 L-16.4 -10.1 -27.75 -10.15 -37.7 -10.05 -45.55 -9.85 -50.7 -9.75 -52.6 -9.65 -52.8 -9.45 -53.0 -8.85 -52.45 -8.15 Q-51.9 -7.75 -50.35 -7.4 L-49.2 -6.7" fill="#a33128" fill-rule="evenodd" stroke="none"/>
    <path d="M-49.2 -6.7 L-45.15 -4.3 -37.45 0.15 -32.8 3.2 -27.0 7.05 Q-23.75 9.1 -19.7 11.05 -15.65 12.95 -10.6 14.4 -5.6 15.8 0.55 16.4 6.7 17.0 14.2 16.4 21.65 15.75 30.6 13.6 L31.75 14.0 34.9 14.75 39.35 15.05 Q41.85 14.9 44.55 13.95 47.25 13.0 49.9 10.75 L50.45 10.9 51.75 11.05 53.1 11.0 53.85 10.5 53.5 9.65 52.5 8.8 51.5 8.2 51.05 8.0 Q51.5 8.1 52.05 7.6 L53.25 6.05 54.35 3.95 55.15 2.0 55.4 0.75 Q55.25 -0.65 54.45 -1.5 L52.4 -2.8 49.8 -3.65 47.15 -4.35 Q45.85 -4.75 44.9 -5.35 L42.8 -7.15 40.7 -9.35 38.5 -11.4 Q37.35 -12.4 36.1 -12.9 L33.4 -13.3 31.55 -13.1 30.75 -13.05 30.6 -13.05 28.65 -12.45 22.6 -11.3 11.8 -10.2 Q5.2 -9.8 -4.15 -9.95 L-16.4 -10.1 -27.75 -10.15 -37.7 -10.05 -45.55 -9.85 -50.7 -9.75 -52.6 -9.65 -52.8 -9.45 -53.0 -8.85 -52.45 -8.15 Q-51.9 -7.75 -50.35 -7.4 L-49.2 -6.7" fill="none" stroke="#000000" stroke-linecap="round" stroke-linejoin="round" stroke-width="2.0"/>
    <path d="M23.7 4.1 Q24.25 5.7 25.45 6.95 L28.1 9.45 30.4 11.6 31.2 13.35 33.15 13.95 36.35 14.5 Q38.25 14.7 40.45 14.5 42.65 14.25 45.0 13.3 47.35 12.35 49.6 10.45 L49.75 10.3 49.95 10.35 52.35 10.6 53.4 10.35 Q53.45 10.05 52.7 9.45 51.95 8.85 50.85 8.35 L50.6 8.25 51.0 7.45 51.15 7.55 51.55 7.4 52.7 6.05 53.8 4.0 54.65 2.0 54.95 0.8 Q54.85 -0.4 54.05 -1.25 L54.15 -0.45 Q54.15 0.7 53.5 1.75 51.05 4.7 47.7 6.5 44.35 8.25 40.55 8.85 36.8 9.4 33.0 8.7 29.25 8.05 25.9 6.0 L23.7 4.1" fill="#842824" fill-rule="evenodd" stroke="none"/>
    <path d="M-50.25 -7.8 L-50.15 -7.8 -48.95 -7.05 -44.9 -4.65 -37.3 -0.2 Q-35.1 1.05 -32.4 2.95 L-26.65 6.8 Q-23.45 8.85 -19.4 10.7 -15.35 12.6 -10.4 14.05 -5.4 15.45 0.7 16.0 6.8 16.6 14.2 15.95 21.6 15.35 30.45 13.2 L30.55 13.15 30.95 13.2 31.7 13.2 32.15 13.25 30.8 12.05 29.25 10.8 28.1 9.5 Q25.65 10.85 22.3 11.8 L15.0 13.15 6.8 13.55 -1.9 12.85 Q-6.25 12.25 -10.35 11.05 -14.5 9.8 -18.15 7.95 L-27.05 3.2 Q-31.25 0.85 -35.4 -1.3 L-43.75 -5.3 Q-48.0 -7.2 -52.45 -8.6 -52.25 -8.45 -51.75 -8.25 L-50.25 -7.8" fill="#842824" fill-rule="evenodd" stroke="none"/>
    <path d="M-52.4 -9.25 L-52.6 -8.9 -52.45 -8.65 -51.8 -8.3 -50.25 -7.85 -50.2 -7.85 -50.15 -7.8 -49.65 -7.5 -48.7 -6.95 -48.1 -6.6 -34.85 -6.65 -21.7 -6.45 -8.25 -6.25 Q-1.5 -6.2 5.3 -6.3 L18.95 -6.95 Q23.8 -6.95 26.35 -9.0 L26.7 -8.75 26.25 -7.95 25.0 -5.4 Q26.6 -7.45 28.65 -8.95 30.65 -10.5 32.95 -11.2 L37.6 -11.6 Q35.45 -13.15 33.45 -12.9 L31.4 -12.7 30.65 -12.65 28.35 -12.0 22.1 -10.8 11.4 -9.75 Q4.9 -9.35 -4.15 -9.55 L-15.9 -9.7 -26.9 -9.7 -36.65 -9.6 -44.5 -9.5 -49.95 -9.35 -52.4 -9.25" fill="#ba3b35" fill-rule="evenodd" stroke="none"/>
    <path d="M34.7 -16.25 Q33.75 -15.85 33.6 -15.0 33.4 -14.2 33.6 -13.35 L34.1 -11.85 34.4 -11.25 Q34.85 -12.05 35.75 -12.4 L37.6 -12.75 39.25 -12.7 39.95 -12.65 39.7 -16.0 39.0 -16.3 37.1 -16.7 34.7 -16.25" fill="#7a1b16" fill-rule="evenodd" stroke="none"/>
    <path d="M34.7 -16.25 L37.1 -16.7 39.0 -16.3 39.7 -16.0 39.95 -12.65 39.25 -12.7 37.6 -12.75 35.75 -12.4 Q34.85 -12.05 34.4 -11.25 L34.1 -11.85 33.6 -13.35 Q33.4 -14.2 33.6 -15.0 33.75 -15.85 34.7 -16.25" fill="none" stroke="#000000" stroke-linecap="round" stroke-linejoin="round" stroke-width="1.0"/>
    <path d="M22.45 11.9 L22.5 12.4 22.35 13.6 21.9 14.95 20.8 16.1 21.5 16.3 23.25 16.4 Q24.3 16.3 25.5 15.65 26.7 14.95 27.8 13.3 L22.45 11.9" fill="#842824" fill-rule="evenodd" stroke="none"/>
    <path d="M22.45 11.9 L22.5 12.4 22.35 13.6 21.9 14.95 20.8 16.1 21.5 16.3 23.25 16.4 Q24.3 16.3 25.5 15.65 26.7 14.95 27.8 13.3" fill="none" stroke="#000000" stroke-linecap="round" stroke-linejoin="round" stroke-width="1.0"/>
    <path d="M34.95 -3.1 Q34.95 -1.35 35.4 0.0 35.85 1.4 36.55 2.25 37.25 3.05 38.2 3.05 39.1 3.05 39.8 2.25 40.55 1.4 40.95 0.0 41.4 -1.35 41.4 -3.1 41.4 -4.8 40.95 -6.2 40.55 -7.6 39.8 -8.4 39.1 -9.25 38.2 -9.25 37.25 -9.25 36.55 -8.4 35.85 -7.6 35.4 -6.2 34.95 -4.8 34.95 -3.1" fill="#ffffff" fill-rule="evenodd" stroke="none"/>
    <path d="M34.95 -3.1 Q34.95 -1.35 35.4 0.0 35.85 1.4 36.55 2.25 37.25 3.05 38.2 3.05 39.1 3.05 39.8 2.25 40.55 1.4 40.95 0.0 41.4 -1.35 41.4 -3.1 41.4 -4.8 40.95 -6.2 40.55 -7.6 39.8 -8.4 39.1 -9.25 38.2 -9.25 37.25 -9.25 36.55 -8.4 35.85 -7.6 35.4 -6.2 34.95 -4.8 34.95 -3.1" fill="none" stroke="#000000" stroke-linecap="round" stroke-linejoin="round" stroke-width="1.0"/>
    <path d="M36.65 -3.3 Q36.65 -2.3 36.95 -1.45 37.3 -0.6 37.8 -0.1 38.35 0.4 39.05 0.4 39.7 0.4 40.2 -0.1 40.75 -0.6 41.1 -1.45 L41.4 -3.3 41.1 -5.15 40.2 -6.5 Q39.7 -7.0 39.05 -7.0 38.35 -7.0 37.85 -6.5 L36.95 -5.15 Q36.65 -4.35 36.65 -3.3" fill="#000000" fill-rule="evenodd" stroke="none"/>
    <path d="M37.4 -3.35 Q37.4 -2.25 37.9 -1.5 38.35 -0.8 39.05 -0.8 39.75 -0.8 40.15 -1.5 40.65 -2.25 40.65 -3.35 40.65 -4.4 40.15 -5.1 39.7 -5.85 39.05 -5.85 38.35 -5.85 37.9 -5.1 37.4 -4.4 37.4 -3.35" fill="#3a0707" fill-rule="evenodd" stroke="none"/>
    <path d="M37.4 -5.05 Q37.4 -4.65 37.55 -4.35 37.75 -4.1 38.0 -4.1 38.25 -4.1 38.45 -4.35 L38.6 -5.05 38.45 -5.7 38.0 -5.95 37.55 -5.7 37.4 -5.05" fill="#ffffff" fill-rule="evenodd" stroke="none"/>
    <path d="M27.45 -8.15 Q25.4 -5.85 24.4 -3.8 23.25 -1.25 23.3 1.0 23.35 3.2 24.25 5.05 25.15 6.9 26.45 8.35 L29.05 10.8 31.25 12.25 32.15 12.8 Q28.65 10.55 26.8 8.25 24.9 6.0 24.25 3.85 23.6 1.65 23.85 -0.3 24.05 -2.25 24.75 -3.85 L26.35 -6.7 27.45 -8.15" fill="#000000" fill-rule="evenodd" stroke="none"/>
    <path d="M17.3 -6.7 L11.4 -6.7 Q10.95 -2.85 11.1 0.4 11.25 3.55 11.75 6.05 12.3 8.55 12.95 10.25 L14.0 12.85 14.5 13.75 19.25 12.35 Q17.0 9.65 16.15 6.95 15.25 4.2 15.3 1.75 15.3 -0.65 15.8 -2.6 L16.75 -5.6 17.3 -6.7" fill="#ba3b35" fill-rule="evenodd" stroke="none"/>
    <path d="M2.45 -7.0 L-3.75 -6.45 Q-4.5 -3.0 -4.5 -0.05 -4.5 2.9 -3.95 5.2 L-2.7 9.2 -1.5 11.7 -0.9 12.6 4.4 13.15 Q3.3 11.8 2.7 9.8 2.1 7.85 1.9 5.6 L1.75 1.1 1.95 -2.95 2.3 -5.85 2.45 -7.0" fill="#ba3b35" fill-rule="evenodd" stroke="none"/>
    <path d="M-20.25 -7.85 Q-20.5 -5.9 -20.15 -3.65 -19.85 -1.35 -19.2 0.85 L-17.95 4.9 -16.8 7.8 -16.3 8.95 -9.6 11.45 Q-10.7 10.3 -11.4 8.6 -12.1 6.85 -12.45 4.85 L-12.95 0.8 -13.1 -2.8 -13.0 -5.45 -12.95 -6.45 -20.25 -7.85" fill="#ba3b35" fill-rule="evenodd" stroke="none"/>
    <path d="M-28.9 -6.45 L-31.7 -7.85 Q-32.35 -7.4 -32.55 -6.5 L-32.55 -4.5 -32.15 -2.35 -31.65 -0.7 -31.45 0.0 -28.35 1.95 Q-29.25 0.45 -29.5 -1.05 L-29.55 -3.7 -29.2 -5.7 -28.9 -6.45" fill="#ba3b35" fill-rule="evenodd" stroke="none"/>
    <path d="M-48.9 -9.5 Q-49.55 -10.9 -50.6 -12.0 -51.6 -13.1 -52.8 -13.8 -53.95 -14.5 -55.15 -14.75 L-57.35 -14.7 -56.65 -12.4 -55.5 -10.5 -54.05 -9.1 -52.7 -8.15 -54.15 -6.85 -55.7 -5.15 -56.75 -2.95 Q-57.1 -1.75 -56.95 -0.2 -55.65 -0.5 -54.15 -1.5 -52.7 -2.5 -51.4 -3.95 -50.05 -5.4 -49.1 -7.15 L-48.9 -9.5" fill="#a33128" fill-rule="evenodd" stroke="none"/>
    <path d="M-49.1 -7.15 Q-50.05 -5.4 -51.4 -3.95 -52.7 -2.5 -54.15 -1.5 -55.65 -0.5 -56.95 -0.2 -57.1 -1.75 -56.75 -2.95 L-55.7 -5.15 -54.15 -6.85 -52.7 -8.15 -54.05 -9.1 -55.5 -10.5 -56.65 -12.4 -57.35 -14.7 -55.15 -14.75 Q-53.95 -14.5 -52.8 -13.8 -51.6 -13.1 -50.6 -12.0 -49.55 -10.9 -48.9 -9.5" fill="none" stroke="#000000" stroke-linecap="round" stroke-linejoin="round" stroke-width="2.0"/>
  </g>
</svg>
