<?xml version="1.0" encoding="UTF-8" standalone="no"?>
<svg xmlns:xlink="http://www.w3.org/1999/xlink" height="66.8px" width="40.25px" xmlns="http://www.w3.org/2000/svg">
  <g transform="matrix(1, 0, 0, 1, 10.5, 65.8)">
    <path d="M-3.8 -51.85 Q-5.0 -52.75 -6.0 -54.0 L-7.95 -57.1 Q-8.75 -58.85 -9.15 -60.55 -9.6 -62.3 -9.5 -63.85 -8.45 -63.7 -7.45 -63.05 -6.5 -62.45 -5.7 -61.5 L-4.2 -59.55 -3.15 -57.55 -2.35 -59.9 -1.2 -62.35 Q-0.55 -63.5 0.45 -64.2 1.4 -64.9 2.75 -64.75 2.7 -62.8 2.15 -60.45 1.6 -58.2 0.6 -56.0 -0.3 -54.0 -1.4 -52.5 L-1.7 -52.2 -1.4 -52.5 -0.65 -51.6 2.2 -47.9 7.55 -40.8 11.15 -36.6 15.7 -31.3 20.55 -24.55 Q22.95 -20.75 25.0 -15.95 27.0 -11.15 28.35 -5.1 L28.75 -3.25 28.3 -3.2 27.95 -4.9 Q26.65 -10.9 24.65 -15.7 22.6 -20.45 20.25 -24.2 17.9 -28.0 15.5 -30.9 L11.0 -36.15 Q8.75 -38.6 7.2 -40.6 L1.9 -47.6 -0.95 -51.3 -1.7 -52.2 -1.75 -52.25 -3.35 -51.75 -3.8 -51.85 -3.35 -51.75 -2.85 -46.65 -2.05 -38.8 -0.9 -29.15 0.45 -18.2 2.05 -6.55 2.9 -0.05 2.5 0.0 1.65 -6.5 0.0 -18.65 -1.45 -29.95 -2.55 -39.8 -3.35 -47.65 -3.8 -51.85 M25.55 -2.85 L25.15 -2.8 24.4 -6.1 23.45 -6.55 20.8 -7.5 16.7 -8.2 Q14.3 -8.45 11.4 -8.1 8.55 -7.8 5.35 -6.65 L4.8 -11.1 4.15 -15.75 5.05 -15.9 7.65 -16.3 11.25 -16.6 15.25 -16.6 19.15 -16.0 Q20.7 -15.6 21.9 -14.8 23.45 -11.1 24.5 -7.1 L25.55 -2.85 M21.15 -2.3 L6.1 -0.45 6.1 -0.55 6.45 -0.65 9.35 -1.35 13.3 -2.05 17.75 -2.45 21.15 -2.3 M-0.3 -49.3 L1.35 -46.4 Q3.7 -42.45 6.35 -38.6 L11.85 -30.85 17.65 -22.65 18.75 -21.0 17.7 -21.3 14.65 -22.05 10.5 -22.8 5.95 -23.2 3.15 -23.05 2.95 -24.35 1.9 -31.8 2.05 -31.55 2.8 -31.9 4.7 -32.55 7.35 -32.8 Q8.85 -32.75 10.45 -32.0 L8.15 -34.8 7.45 -35.0 5.7 -35.3 3.55 -35.4 1.55 -35.15 1.45 -35.1 1.15 -37.45 Q0.3 -43.4 -0.3 -49.3" fill="#a33128" fill-rule="evenodd" stroke="none"/>
    <path d="M-3.35 -51.75 L-1.75 -52.25 -1.5 -51.95 -0.85 -51.1 -0.4 -50.6 -0.3 -49.3 Q0.3 -43.4 1.15 -37.45 L1.45 -35.1 1.55 -35.15 3.55 -35.4 5.7 -35.3 7.45 -35.0 8.15 -34.8 10.45 -32.0 Q8.85 -32.75 7.35 -32.8 L4.7 -32.55 2.8 -31.9 2.05 -31.55 1.9 -31.8 2.95 -24.35 3.15 -23.05 5.95 -23.2 10.5 -22.8 14.65 -22.05 17.7 -21.3 18.75 -21.0 18.9 -20.95 22.2 -14.6 21.9 -14.8 Q20.7 -15.6 19.15 -16.0 L15.25 -16.6 11.25 -16.6 7.65 -16.3 5.05 -15.9 4.15 -15.75 4.8 -11.1 5.35 -6.65 Q8.55 -7.8 11.4 -8.1 14.3 -8.45 16.7 -8.2 L20.8 -7.5 23.45 -6.55 24.4 -6.1 25.15 -2.8 21.15 -2.3 17.75 -2.45 13.3 -2.05 9.35 -1.35 6.45 -0.65 6.1 -0.55 6.1 -0.45 2.9 -0.05 2.05 -6.55 0.45 -18.2 -0.9 -29.15 -2.05 -38.8 -2.85 -46.65 -3.35 -51.75" fill="#ba3b35" fill-rule="evenodd" stroke="none"/>
    <path d="M-1.75 -52.25 L-1.7 -52.2 -0.95 -51.3 1.9 -47.6 7.2 -40.6 Q8.75 -38.6 11.0 -36.15 L15.5 -30.9 Q17.9 -28.0 20.25 -24.2 22.6 -20.45 24.65 -15.7 26.65 -10.9 27.95 -4.9 L28.3 -3.2 25.55 -2.85 24.5 -7.1 Q23.45 -11.1 21.9 -14.8 L22.2 -14.6 18.9 -20.95 18.75 -21.0 17.65 -22.65 11.85 -30.85 6.35 -38.6 Q3.7 -42.45 1.35 -46.4 L-0.3 -49.3 -0.4 -50.6 -0.85 -51.1 -1.5 -51.95 -1.75 -52.25" fill="#842824" fill-rule="evenodd" stroke="none"/>
    <path d="M-1.4 -52.5 Q-0.3 -54.0 0.6 -56.0 1.6 -58.2 2.15 -60.45 2.7 -62.8 2.75 -64.75 1.4 -64.9 0.45 -64.2 -0.55 -63.5 -1.2 -62.35 L-2.35 -59.9 -3.15 -57.55 -4.2 -59.55 -5.7 -61.5 Q-6.5 -62.45 -7.45 -63.05 -8.45 -63.7 -9.5 -63.85 -9.6 -62.3 -9.15 -60.55 -8.75 -58.85 -7.95 -57.1 L-6.0 -54.0 Q-5.0 -52.75 -3.8 -51.85 L-3.35 -51.75 M-1.7 -52.2 L-1.4 -52.5 -0.65 -51.6 2.2 -47.9 7.55 -40.8 11.15 -36.6 15.7 -31.3 20.55 -24.55 Q22.95 -20.75 25.0 -15.95 27.0 -11.15 28.35 -5.1 L28.75 -3.25 M2.5 0.0 L1.65 -6.5 0.0 -18.65 -1.45 -29.95 -2.55 -39.8 -3.35 -47.65 -3.8 -51.85" fill="none" stroke="#000000" stroke-linecap="round" stroke-linejoin="round" stroke-width="2.0"/>
  </g>
</svg>
