<?xml version="1.0" encoding="UTF-8" standalone="no"?>
<svg xmlns:xlink="http://www.w3.org/1999/xlink" height="64.15px" width="33.45px" xmlns="http://www.w3.org/2000/svg">
  <g transform="matrix(1, 0, 0, 1, -0.1, 59.75)">
    <path d="M23.1 -29.3 L23.15 -29.3 24.3 -30.6 26.1 -33.1 Q27.4 -35.3 27.9 -37.6 28.4 -39.95 27.8 -42.25 29.55 -40.3 29.55 -38.25 L29.55 -36.2 29.55 -35.5 29.15 -33.1 28.85 -30.6 28.75 -29.3 28.7 -26.4 28.6 -15.45 28.6 -14.9 28.05 0.45 26.25 -4.65 27.6 1.9 27.55 1.9 Q3.65 4.75 2.35 2.2 2.15 1.8 2.4 1.25 2.05 -0.95 2.15 -5.0 12.8 -43.15 23.2 -13.4 25.05 -14.55 25.05 -15.45 L25.2 -20.45 25.3 -23.35 26.3 -24.8 25.4 -25.15 25.6 -29.3 26.2 -30.6 26.35 -30.85 26.1 -31.1 25.35 -30.6 25.3 -30.6 23.2 -29.3 22.95 -28.45 23.1 -29.2 23.1 -29.3 M27.95 2.75 L27.9 3.7 27.75 2.85 27.95 2.75" fill="#ba3b35" fill-rule="evenodd" stroke="none"/>
    <path d="M3.05 -29.3 L3.2 -30.6 3.5 -32.75 2.95 -33.9 Q2.4 -35.0 1.9 -36.9 1.3 -38.85 1.15 -41.35 1.0 -43.85 1.7 -46.65 2.35 -49.45 4.35 -52.25 L4.15 -52.8 3.9 -54.1 3.75 -55.4 Q3.8 -56.05 4.2 -56.2 4.6 -56.35 5.1 -55.95 L6.05 -55.05 6.75 -54.1 7.0 -53.7 Q6.8 -54.15 7.3 -54.7 L8.7 -56.05 10.7 -57.35 12.55 -58.35 Q13.35 -58.75 13.75 -58.75 15.15 -58.75 16.05 -58.0 17.0 -57.3 17.6 -56.15 L18.7 -53.65 19.65 -51.0 Q20.15 -49.8 20.9 -48.9 L22.9 -47.0 25.25 -45.15 27.55 -43.15 29.25 -40.9 Q29.95 -39.7 29.95 -38.25 L29.95 -36.4 29.95 -35.6 29.95 -35.45 29.6 -33.5 29.25 -30.6 29.15 -29.3 29.0 -27.3 29.0 -26.85 29.0 -26.4 28.7 -26.4 28.75 -29.3 28.85 -30.6 29.15 -33.1 29.55 -35.5 29.55 -36.2 29.55 -38.25 Q29.55 -40.3 27.8 -42.25 28.4 -39.95 27.9 -37.6 27.4 -35.3 26.1 -33.1 L24.3 -30.6 23.15 -29.3 23.1 -29.3 22.95 -29.15 23.1 -29.2 22.95 -28.45 23.2 -29.3 25.3 -30.6 25.35 -30.6 26.1 -31.1 26.35 -30.85 26.2 -30.6 25.6 -29.3 Q25.2 -28.2 25.05 -26.85 L25.0 -26.0 Q24.8 -25.55 25.4 -25.15 L26.3 -24.8 25.3 -23.35 Q24.6 -21.9 25.2 -20.45 L25.05 -15.45 Q25.05 -14.55 23.2 -13.4 12.8 -43.15 2.15 -5.0 L2.35 -10.3 2.95 -23.8 2.55 -23.75 2.8 -26.85 3.05 -29.3 2.95 -23.8 3.05 -29.3 M27.55 1.9 L27.6 1.9 26.25 -4.65 28.05 0.45 28.75 2.3 27.95 2.75 27.75 2.85 27.55 1.9" fill="#a33128" fill-rule="evenodd" stroke="none"/>
    <path d="M3.05 -29.3 L3.2 -30.6 3.5 -32.75 2.95 -33.9 Q2.4 -35.0 1.9 -36.9 1.3 -38.85 1.15 -41.35 1.0 -43.85 1.7 -46.65 2.35 -49.45 4.35 -52.25 L4.15 -52.8 3.9 -54.1 3.75 -55.4 Q3.8 -56.05 4.2 -56.2 4.6 -56.35 5.1 -55.95 L6.05 -55.05 6.75 -54.1 7.0 -53.7 Q6.8 -54.15 7.3 -54.7 L8.7 -56.05 10.7 -57.35 12.55 -58.35 Q13.35 -58.75 13.75 -58.75 15.15 -58.75 16.05 -58.0 17.0 -57.3 17.6 -56.15 L18.7 -53.65 19.65 -51.0 Q20.15 -49.8 20.9 -48.9 L22.9 -47.0 25.25 -45.15 27.55 -43.15 29.25 -40.9 Q29.95 -39.7 29.95 -38.25 L29.95 -36.4 29.95 -35.6 29.95 -35.45 29.6 -33.5 29.25 -30.6 29.15 -29.3 29.0 -18.0 29.0 -15.45 29.0 3.4 M2.15 -5.0 Q2.05 -0.95 2.4 1.25 2.15 1.8 2.35 2.2 M3.05 -29.3 L2.95 -23.8 2.35 -10.3 2.15 -5.0" fill="none" stroke="#000000" stroke-linecap="round" stroke-linejoin="round" stroke-width="2.0"/>
    <path d="M13.6 -26.85 Q12.0 -27.3 10.6 -28.35 L7.85 -30.7 5.5 -32.8 5.45 -32.8 3.7 -33.45 2.9 -35.25 Q2.35 -36.6 1.95 -38.4 1.65 -40.25 1.6 -42.45 1.65 -44.75 2.35 -47.15 3.0 -49.55 4.75 -52.0 L4.85 -52.2 4.75 -52.4 4.25 -54.7 Q4.15 -55.65 4.4 -55.8 4.75 -55.85 5.4 -55.2 L6.7 -53.45 6.8 -53.25 7.55 -53.65 7.45 -53.85 7.5 -54.25 8.8 -55.5 10.7 -56.8 12.65 -57.85 13.75 -58.3 Q14.95 -58.3 15.9 -57.6 L15.1 -57.6 Q13.95 -57.5 12.95 -56.75 10.3 -54.0 8.85 -50.5 7.4 -47.0 7.2 -43.2 7.05 -39.4 8.1 -35.65 9.15 -31.95 11.45 -28.85 L13.6 -26.85" fill="#842824" fill-rule="evenodd" stroke="none"/>
    <path d="M32.75 -39.85 Q32.45 -38.9 31.6 -38.6 L29.95 -38.5 28.45 -38.8 27.8 -39.1 Q28.6 -39.6 28.8 -40.5 L29.0 -42.45 28.8 -44.05 28.6 -44.7 32.0 -44.8 32.35 -44.15 32.95 -42.35 Q33.2 -41.2 32.75 -39.85" fill="#7a1b16" fill-rule="evenodd" stroke="none"/>
    <path d="M32.75 -39.85 Q33.2 -41.2 32.95 -42.35 L32.35 -44.15 32.0 -44.8 28.6 -44.7 28.8 -44.05 29.0 -42.45 28.8 -40.5 Q28.6 -39.6 27.8 -39.1 L28.45 -38.8 29.95 -38.5 31.6 -38.6 Q32.45 -38.9 32.75 -39.85" fill="none" stroke="#000000" stroke-linecap="round" stroke-linejoin="round" stroke-width="1.0"/>
    <path d="M19.6 -38.75 L16.5 -38.85 Q15.1 -39.15 14.2 -39.8 13.3 -40.45 13.2 -41.35 13.1 -42.25 13.9 -43.05 L15.95 -44.4 Q17.25 -45.0 18.95 -45.15 L22.1 -45.0 Q23.55 -44.75 24.5 -44.1 25.35 -43.5 25.45 -42.6 25.55 -41.7 24.8 -40.85 24.05 -40.05 22.65 -39.45 21.35 -38.95 19.6 -38.75" fill="#ffffff" fill-rule="evenodd" stroke="none"/>
    <path d="M19.6 -38.75 L16.5 -38.85 Q15.1 -39.15 14.2 -39.8 13.3 -40.45 13.2 -41.35 13.1 -42.25 13.9 -43.05 L15.95 -44.4 Q17.25 -45.0 18.95 -45.15 L22.1 -45.0 Q23.55 -44.75 24.5 -44.1 25.35 -43.5 25.45 -42.6 25.55 -41.7 24.8 -40.85 24.05 -40.05 22.65 -39.45 21.35 -38.95 19.6 -38.75" fill="none" stroke="#000000" stroke-linecap="round" stroke-linejoin="round" stroke-width="1.0"/>
    <path d="M19.65 -40.55 L17.75 -40.7 Q16.9 -40.9 16.35 -41.4 15.8 -41.85 15.75 -42.55 15.65 -43.2 16.1 -43.8 L17.35 -44.8 19.15 -45.3 21.1 -45.15 22.45 -44.45 Q23.0 -43.95 23.1 -43.3 23.15 -42.6 22.7 -42.05 22.25 -41.45 21.5 -41.05 L19.65 -40.55" fill="#000000" fill-rule="evenodd" stroke="none"/>
    <path d="M19.65 -41.25 L17.8 -41.55 Q17.05 -41.95 16.9 -42.65 16.9 -43.35 17.55 -43.8 18.2 -44.4 19.3 -44.5 L21.1 -44.2 Q21.9 -43.8 21.95 -43.15 22.05 -42.45 21.35 -41.95 20.7 -41.4 19.65 -41.25" fill="#3a0707" fill-rule="evenodd" stroke="none"/>
    <path d="M21.3 -41.4 L20.6 -41.55 Q20.35 -41.65 20.3 -41.9 L20.5 -42.4 21.2 -42.6 21.85 -42.5 22.15 -42.1 21.95 -41.65 21.3 -41.4" fill="#ffffff" fill-rule="evenodd" stroke="none"/>
    <path d="M25.4 -31.85 Q23.4 -29.55 21.4 -28.4 18.95 -26.95 16.75 -26.8 14.55 -26.65 12.6 -27.35 10.65 -28.0 9.1 -29.2 L6.4 -31.6 4.75 -33.6 4.1 -34.45 Q6.75 -31.2 9.2 -29.55 11.65 -27.9 13.85 -27.5 16.05 -27.05 18.0 -27.5 19.85 -27.9 21.45 -28.75 23.0 -29.65 24.1 -30.6 L25.4 -31.85" fill="#000000" fill-rule="evenodd" stroke="none"/>
    <path d="M10.2 -13.55 Q8.65 -13.95 7.45 -14.75 5.9 -18.45 4.85 -22.45 4.25 -24.55 3.8 -26.7 L4.2 -26.75 4.95 -23.45 5.9 -23.0 Q6.85 -22.55 8.55 -22.05 L12.65 -21.35 Q15.05 -21.1 17.95 -21.45 20.8 -21.75 24.0 -22.9 L24.55 -18.45 25.2 -13.8 24.3 -13.65 21.7 -13.25 18.1 -12.95 14.1 -12.95 10.2 -13.55" fill="#a33128" fill-rule="evenodd" stroke="none"/>
    <path d="M10.6 -1.0 Q9.05 -1.4 7.85 -2.2 6.3 -5.9 5.25 -9.9 4.65 -12.0 4.2 -14.15 L4.6 -14.2 5.35 -10.9 6.3 -10.45 Q7.25 -10.0 8.95 -9.5 L13.05 -8.8 Q15.45 -8.55 18.35 -8.9 21.2 -9.2 24.4 -10.35 L24.95 -5.9 25.6 -1.25 24.7 -1.1 22.1 -0.7 18.5 -0.4 14.5 -0.4 10.6 -1.0" fill="#a33128" fill-rule="evenodd" stroke="none"/>
  </g>
</svg>
