<?xml version="1.0" encoding="UTF-8" standalone="no"?>
<svg xmlns:xlink="http://www.w3.org/1999/xlink" height="68.05px" width="36.65px" xmlns="http://www.w3.org/2000/svg">
  <g transform="matrix(1, 0, 0, 1, -0.9, 65.55)">
    <path d="M21.4 -64.5 Q22.15 -64.8 22.65 -63.85 23.1 -62.9 22.9 -60.9 22.7 -58.95 21.5 -56.1 20.25 -53.3 17.75 -49.85 L17.8 -49.75 19.5 -46.25 21.5 -41.35 23.7 -35.85 25.7 -30.4 27.5 -25.7 28.7 -22.5 32.6 -11.5 33.7 -8.05 Q32.8 -10.2 32.25 -11.85 L28.5 -22.4 26.8 -27.0 25.3 -31.25 23.3 -36.3 21.2 -41.55 19.2 -46.25 18.55 -47.7 21.9 -36.55 25.4 -25.8 28.75 -15.25 31.8 -4.1 Q31.95 -3.3 37.2 0.65 L5.55 1.05 6.5 -8.05 8.35 -21.05 10.5 -33.85 12.85 -45.95 Q13.15 -47.25 13.9 -48.45 L13.4 -48.3 12.55 -46.4 11.55 -43.55 10.85 -41.1 10.55 -39.95 7.9 -30.45 5.65 -20.9 Q3.15 -9.05 2.35 1.45 L1.9 1.5 2.55 -4.85 Q3.55 -13.0 5.25 -20.95 7.25 -30.65 10.15 -40.1 L10.6 -41.8 11.35 -44.3 12.35 -47.05 12.9 -48.25 9.8 -51.25 6.55 -55.0 Q4.95 -57.0 4.0 -59.1 3.0 -61.2 3.1 -63.25 L5.55 -63.05 Q6.65 -62.6 7.75 -61.7 L9.7 -60.0 Q11.15 -58.75 12.2 -58.05 13.25 -57.35 13.8 -57.1 L14.4 -56.8 14.9 -57.55 16.25 -59.3 18.05 -61.5 19.75 -63.3 20.4 -62.2 20.6 -60.85 20.3 -59.7 19.0 -57.1 17.45 -54.5 Q16.7 -53.2 16.25 -51.85 L16.15 -51.35 16.05 -50.95 16.05 -50.7 Q15.95 -49.95 16.1 -49.2 L16.1 -49.15 17.55 -49.65 17.6 -49.65 17.75 -49.85 Q20.2 -53.3 21.4 -56.05 22.65 -58.9 22.85 -60.9 23.05 -62.85 22.6 -63.8 22.15 -64.7 21.4 -64.5" fill="#497028" fill-rule="evenodd" stroke="none"/>
    <path d="M5.55 1.05 L2.35 1.45 Q3.15 -9.05 5.65 -20.9 L7.9 -30.45 10.55 -39.95 10.85 -41.1 11.55 -43.55 12.55 -46.4 13.4 -48.3 13.9 -48.45 Q13.15 -47.25 12.85 -45.95 L10.5 -33.85 8.35 -21.05 6.5 -8.05 5.55 1.05" fill="#638c3b" fill-rule="evenodd" stroke="none"/>
    <path d="M19.75 -63.3 L19.75 -63.35 21.3 -64.5 21.4 -64.5 Q22.15 -64.7 22.6 -63.8 23.05 -62.85 22.85 -60.9 22.65 -58.9 21.4 -56.05 20.2 -53.3 17.75 -49.85 L17.6 -49.65 17.55 -49.65 16.1 -49.15 16.1 -49.2 Q15.95 -49.95 16.05 -50.7 L16.05 -50.95 16.15 -51.35 16.25 -51.85 Q16.7 -53.2 17.45 -54.5 L19.0 -57.1 20.3 -59.7 20.6 -60.85 20.4 -62.2 19.75 -63.3 M33.7 -8.05 L35.25 -2.9 37.55 0.25 37.2 0.65 Q31.95 -3.3 31.8 -4.1 L28.75 -15.25 25.4 -25.8 21.9 -36.55 18.55 -47.7 19.2 -46.25 21.2 -41.55 23.3 -36.3 25.3 -31.25 26.8 -27.0 28.5 -22.4 32.25 -11.85 Q32.8 -10.2 33.7 -8.05" fill="#3c5b1d" fill-rule="evenodd" stroke="none"/>
    <path d="M21.3 -64.5 L21.4 -64.5 Q22.15 -64.8 22.65 -63.85 23.1 -62.9 22.9 -60.9 22.7 -58.95 21.5 -56.1 20.25 -53.3 17.75 -49.85 L17.8 -49.75 19.5 -46.25 21.5 -41.35 23.7 -35.85 25.7 -30.4 27.5 -25.7 28.7 -22.5 32.6 -11.5 33.7 -8.05 35.25 -2.9 M1.9 1.5 L2.55 -4.85 Q3.55 -13.0 5.25 -20.95 7.25 -30.65 10.15 -40.1 L10.6 -41.8 11.35 -44.3 12.35 -47.05 12.9 -48.25 9.8 -51.25 6.55 -55.0 Q4.95 -57.0 4.0 -59.1 3.0 -61.2 3.1 -63.25 L5.55 -63.05 Q6.65 -62.6 7.75 -61.7 L9.7 -60.0 Q11.15 -58.75 12.2 -58.05 13.25 -57.35 13.8 -57.1 L14.4 -56.8 14.9 -57.55 16.25 -59.3 18.05 -61.5 19.75 -63.3" fill="none" stroke="#000000" stroke-linecap="round" stroke-linejoin="round" stroke-width="2.0"/>
  </g>
</svg>
