<?xml version="1.0" encoding="UTF-8" standalone="no"?>
<svg xmlns:xlink="http://www.w3.org/1999/xlink" height="228.5px" width="600.35px" xmlns="http://www.w3.org/2000/svg">
  <g transform="matrix(1, 0, 0, 1, 537.4, 203.0)">
    <path d="M61.75 25.5 L-537.4 25.5 -537.4 -203.0 61.75 -203.0 61.75 25.5" fill="url(#gradient0)" fill-rule="evenodd" stroke="none"/>
    <path d="M-530.3 -141.4 Q-525.05 -139.8 -515.6 -137.7 -506.15 -135.6 -493.4 -133.95 -480.7 -132.35 -465.7 -132.15 -450.65 -131.95 -434.35 -134.2 -420.85 -136.2 -409.6 -140.1 -398.4 -143.95 -388.6 -148.7 L-369.5 -158.3 Q-360.15 -163.05 -350.5 -166.95 -340.85 -170.8 -329.95 -172.8 -318.95 -174.8 -305.95 -174.05 -294.8 -173.3 -286.3 -170.35 -277.85 -167.45 -271.3 -163.1 -264.7 -158.75 -259.3 -153.65 L-248.8 -143.55 Q-243.7 -138.45 -238.15 -134.1 -232.6 -129.75 -225.8 -126.85 -218.95 -123.9 -210.1 -123.15 -199.8 -122.4 -191.55 -124.55 -183.35 -126.65 -176.3 -130.55 -169.25 -134.45 -162.45 -139.05 -155.6 -143.65 -148.1 -147.8 -140.6 -152.0 -131.45 -154.7 -122.35 -157.35 -110.65 -157.45 -100.6 -157.4 -90.95 -154.8 -81.3 -152.25 -71.95 -148.1 -62.65 -143.9 -53.65 -139.0 L-35.8 -129.2 Q-27.0 -124.35 -18.35 -120.5 -9.75 -116.6 -1.2 -114.6 7.4 -112.55 15.95 -113.15 30.75 -114.45 40.05 -116.45 49.35 -118.45 54.35 -120.5 59.35 -122.55 61.15 -123.9 L62.95 -125.35 62.95 -99.9 60.3 -98.35 Q57.65 -96.85 52.3 -94.85 46.9 -92.85 38.7 -91.25 30.5 -89.7 19.45 -89.4 8.3 -89.1 -5.75 -91.0 -17.45 -92.75 -26.6 -96.25 -35.8 -99.8 -43.5 -104.3 L-58.45 -113.45 Q-65.75 -118.1 -73.6 -122.05 -81.4 -125.95 -90.9 -128.4 -100.35 -130.8 -112.45 -130.9 -122.9 -130.8 -131.95 -127.85 -140.95 -124.85 -149.35 -120.0 -157.65 -115.15 -165.85 -109.45 -174.05 -103.75 -182.75 -98.15 -191.5 -92.55 -201.3 -88.1 -211.05 -83.65 -222.65 -81.4 -234.2 -79.1 -248.1 -79.95 -261.95 -80.95 -271.7 -84.35 -281.4 -87.75 -288.1 -92.65 -294.8 -97.55 -299.5 -103.15 -304.15 -108.75 -307.9 -114.25 -311.6 -119.7 -315.45 -124.2 -319.35 -128.75 -324.4 -131.45 -329.4 -134.15 -336.7 -134.2 -343.2 -134.1 -352.9 -131.0 -362.55 -127.9 -374.65 -122.8 L-400.5 -111.55 Q-414.25 -105.45 -428.9 -99.35 -443.55 -93.2 -458.35 -88.15 -473.1 -83.05 -487.25 -80.0 -501.35 -77.0 -514.1 -77.0 -526.85 -77.0 -537.4 -81.05 L-535.6 -143.05 -530.3 -141.4" fill="#b6ecff" fill-rule="evenodd" stroke="none"/>
    <path d="M-139.65 -65.4 Q-137.2 -55.45 -138.45 -45.6 -139.7 -35.75 -144.0 -26.65 -148.3 -17.6 -154.9 -10.0 -161.55 -2.45 -169.85 2.9 -178.1 8.2 -187.4 10.6 -196.65 12.9 -205.75 12.0 -214.85 11.15 -223.15 7.4 -231.5 3.7 -238.45 -2.45 -245.45 -8.6 -250.5 -16.8 -255.55 -25.0 -258.1 -34.9 -260.55 -44.85 -260.05 -54.45 -259.5 -64.1 -256.3 -72.8 -253.05 -81.55 -247.5 -88.75 -241.95 -96.0 -234.35 -101.1 -226.8 -106.2 -217.55 -108.6 -208.25 -110.9 -198.45 -110.25 -188.65 -109.6 -179.25 -106.2 -169.85 -102.85 -161.8 -97.05 -153.75 -91.25 -148.0 -83.25 -142.2 -75.3 -139.65 -65.4" fill="#ffc952" fill-rule="evenodd" stroke="none"/>
    <path d="M-139.65 -65.4 Q-137.2 -55.45 -138.45 -45.6 -139.7 -35.75 -144.0 -26.65 -148.3 -17.6 -154.9 -10.0 -161.55 -2.45 -169.85 2.9 -178.1 8.2 -187.4 10.6 -196.65 12.9 -205.75 12.0 -214.85 11.15 -223.15 7.4 -231.5 3.7 -238.45 -2.45 -245.45 -8.6 -250.5 -16.8 -255.55 -25.0 -258.1 -34.9 -260.55 -44.85 -260.05 -54.45 -259.5 -64.1 -256.3 -72.8 -253.05 -81.55 -247.5 -88.75 -241.95 -96.0 -234.35 -101.1 -226.8 -106.2 -217.55 -108.6 -208.25 -110.9 -198.45 -110.25 -188.65 -109.6 -179.25 -106.2 -169.85 -102.85 -161.8 -97.05 -153.75 -91.25 -148.0 -83.25 -142.2 -75.3 -139.65 -65.4" fill="none" stroke="#ffffff" stroke-linecap="round" stroke-linejoin="round" stroke-width="2.0"/>
    <path d="M-175.75 -69.45 Q-173.8 -61.45 -175.5 -53.6 -177.2 -45.75 -181.7 -38.95 -186.2 -32.15 -192.6 -27.3 -199.0 -22.5 -206.5 -20.55 -214.0 -18.7 -221.2 -20.05 -228.4 -21.35 -234.65 -25.35 -240.9 -29.4 -245.45 -35.65 -249.95 -41.85 -252.0 -49.85 -254.0 -57.85 -253.0 -65.5 -251.95 -73.15 -248.4 -79.65 -244.8 -86.15 -239.1 -90.75 -233.35 -95.35 -225.9 -97.3 -219.9 -98.8 -213.6 -98.35 -207.3 -97.95 -201.25 -95.75 -195.2 -93.6 -190.0 -89.85 -184.85 -86.1 -181.1 -81.0 -177.4 -75.85 -175.75 -69.45" fill="#ffe473" fill-rule="evenodd" stroke="none"/>
    <path d="M-211.4 -72.55 Q-210.55 -68.8 -211.85 -65.2 -213.15 -61.6 -215.9 -58.95 -218.7 -56.35 -222.2 -55.4 L-229.05 -55.6 Q-232.3 -56.7 -234.75 -59.3 -237.2 -61.95 -238.2 -65.7 -239.1 -69.45 -238.2 -72.9 -237.3 -76.4 -234.95 -78.9 -232.55 -81.4 -229.05 -82.35 -225.5 -83.2 -221.8 -82.25 -218.1 -81.3 -215.3 -78.8 -212.45 -76.3 -211.4 -72.55" fill="#ffffff" fill-rule="evenodd" stroke="none"/>
    <path d="M-139.0 -49.55 Q-139.4 -41.6 -142.1 -33.75 -144.75 -25.9 -149.65 -18.45 -154.3 -11.35 -160.3 -5.7 -166.3 -0.05 -173.25 3.9 -180.15 7.8 -187.6 9.7 -198.1 12.35 -208.65 10.75 -219.2 9.15 -228.8 3.5 -221.7 5.65 -214.4 5.85 -207.1 6.05 -199.9 4.25 -192.45 2.35 -185.55 -1.6 -178.6 -5.5 -172.6 -11.15 -166.6 -16.85 -161.95 -23.95 -157.05 -31.35 -154.4 -39.25 -151.7 -47.1 -151.3 -55.05 -150.9 -62.95 -152.8 -70.65 -155.55 -81.2 -162.4 -90.05 -169.3 -98.85 -179.65 -105.1 L-181.05 -105.85 Q-173.9 -103.5 -167.35 -99.6 -157.0 -93.4 -150.1 -84.55 -143.25 -75.75 -140.5 -65.15 -138.6 -57.5 -139.0 -49.55" fill="#eda921" fill-rule="evenodd" stroke="none"/>
  </g>
  <defs>
    <linearGradient gradientTransform="matrix(0.0, 0.1134, -0.1329, 0.0, -237.8, -100.95)" gradientUnits="userSpaceOnUse" id="gradient0" spreadMethod="pad" x1="-819.2" x2="819.2">
      <stop offset="0.0" stop-color="#29b2ef"/>
      <stop offset="1.0" stop-color="#cfeeff"/>
    </linearGradient>
  </defs>
</svg>
