<?xml version="1.0" encoding="UTF-8" standalone="no"?>
<svg xmlns:xlink="http://www.w3.org/1999/xlink" height="219.85px" width="601.1px" xmlns="http://www.w3.org/2000/svg">
  <g transform="matrix(1, 0, 0, 1, 537.8, 19.85)">
    <path d="M61.55 199.5 L-537.4 199.5 -537.4 -19.85 61.55 -19.85 61.55 199.5" fill="#f5fcff" fill-rule="evenodd" stroke="none"/>
    <path d="M63.3 199.5 L-537.4 199.5 -537.4 -18.15 63.3 -18.15 63.3 199.5" fill="#009cea" fill-rule="evenodd" stroke="none"/>
    <path d="M50.8 4.4 Q57.25 0.4 62.0 -2.4 L62.0 199.5 -537.3 199.5 -537.3 -3.6 Q-524.7 -8.2 -511.35 -9.95 -497.95 -11.7 -484.7 -10.65 -471.35 -9.6 -458.9 -5.8 -441.4 -0.3 -423.6 5.05 -405.9 10.35 -387.9 14.55 -369.95 18.8 -351.85 20.95 -333.75 23.15 -315.6 22.35 -297.35 21.55 -279.15 16.85 L-252.5 9.75 Q-239.3 6.15 -226.0 3.05 -212.8 0.0 -199.4 -1.9 -186.0 -3.75 -172.35 -3.75 -158.75 -3.75 -144.7 -1.25 -130.65 1.25 -116.05 6.95 -92.85 16.0 -73.25 20.55 -53.65 25.05 -37.3 26.0 -20.95 26.95 -7.55 25.2 5.85 23.5 16.6 20.1 27.4 16.7 35.9 12.5 44.35 8.35 50.8 4.4" fill="url(#gradient0)" fill-rule="evenodd" stroke="none"/>
    <path d="M50.8 4.4 Q44.35 8.35 35.9 12.5 27.4 16.7 16.6 20.1 5.85 23.5 -7.55 25.2 -20.95 26.95 -37.3 26.0 -53.65 25.05 -73.25 20.55 -92.85 16.0 -116.05 6.95 -130.65 1.25 -144.7 -1.25 -158.75 -3.75 -172.35 -3.75 -186.0 -3.75 -199.4 -1.9 -212.8 0.0 -226.0 3.05 -239.3 6.15 -252.5 9.75 L-279.15 16.85 Q-297.35 21.55 -315.6 22.35 -333.75 23.15 -351.85 20.95 -369.95 18.8 -387.9 14.55 -405.9 10.35 -423.6 5.05 -441.4 -0.3 -458.9 -5.8 -471.35 -9.6 -484.7 -10.65 -497.95 -11.7 -511.35 -9.95 -524.7 -8.2 -537.3 -3.6 L-537.3 199.5 62.0 199.5 62.0 -2.4 Q57.25 0.4 50.8 4.4" fill="none" stroke="#00aaed" stroke-linecap="round" stroke-linejoin="round" stroke-width="1.0"/>
  </g>
  <defs>
    <linearGradient gradientTransform="matrix(0.0, 0.1446, -0.1722, 0.0, -237.6, 143.05)" gradientUnits="userSpaceOnUse" id="gradient0" spreadMethod="pad" x1="-819.2" x2="819.2">
      <stop offset="0.0" stop-color="#29b2ef"/>
      <stop offset="1.0" stop-color="#cfeeff"/>
    </linearGradient>
  </defs>
</svg>
