<?xml version="1.0" encoding="UTF-8" standalone="no"?>
<svg xmlns:xlink="http://www.w3.org/1999/xlink" height="267.3px" width="829.1px" xmlns="http://www.w3.org/2000/svg">
  <g transform="matrix(1, 0, 0, 1, 236.45, -23.7)">
    <path d="M572.55 68.8 L571.45 73.85 571.1 76.05 570.1 110.75 569.4 113.45 567.65 120.4 565.25 130.05 562.7 140.75 560.4 150.85 Q559.4 155.55 558.9 158.75 558.35 162.0 558.55 162.9 L559.85 169.15 Q560.45 172.45 560.45 175.4 L559.95 179.5 558.75 185.9 557.35 192.8 556.15 198.25 555.65 200.5 555.15 203.65 554.05 211.85 552.75 223.3 Q552.15 229.6 551.8 236.1 551.45 242.6 551.65 248.4 551.8 254.25 552.75 258.4 L550.45 259.75 Q548.15 261.1 543.6 262.85 539.05 264.65 532.35 266.1 525.6 267.6 516.7 268.05 L496.8 267.1 478.3 264.45 465.7 262.4 457.25 261.1 451.15 260.7 445.65 261.3 438.35 261.9 422.35 262.75 399.55 263.8 371.6 264.9 340.3 266.1 307.5 267.35 274.85 268.5 244.15 269.6 217.25 270.55 195.8 271.25 181.65 271.75 176.55 271.9 174.9 26.3 382.4 27.5 400.15 26.3 404.3 25.45 415.55 24.1 Q422.7 23.45 431.95 23.9 L447.4 24.6 457.05 25.65 Q460.45 26.45 460.95 28.3 L459.3 29.9 455.8 34.1 Q453.85 36.75 452.65 39.95 451.45 43.15 452.1 46.45 L453.75 46.7 457.8 47.3 462.95 48.0 467.9 48.6 471.4 48.85 Q473.35 48.75 476.2 47.85 479.1 46.95 482.9 46.15 L491.55 45.6 488.1 53.85 505.45 47.1 577.85 49.0 578.45 50.65 Q578.95 52.2 578.85 54.45 578.7 56.65 576.9 58.65 575.45 60.2 574.35 63.0 573.25 65.8 572.55 68.8" fill="#000000" fill-rule="evenodd" stroke="none"/>
    <path d="M-216.35 68.8 L-215.25 73.85 -214.9 76.05 -213.9 110.75 -213.2 113.45 -211.45 120.4 -209.05 130.05 -206.5 140.75 -204.2 150.85 Q-203.2 155.55 -202.7 158.75 -202.15 162.0 -202.35 162.9 L-203.65 169.15 Q-204.25 172.45 -204.25 175.4 L-203.75 179.5 -202.55 185.9 -201.15 192.8 -199.95 198.25 -199.45 200.5 -198.95 203.65 -197.85 211.85 -196.55 223.3 Q-195.95 229.6 -195.6 236.1 -195.25 242.6 -195.45 248.4 -195.6 254.25 -196.55 258.4 L-194.25 259.75 Q-191.95 261.1 -187.4 262.85 -182.85 264.65 -176.15 266.1 -169.4 267.6 -160.5 268.05 L-140.6 267.1 -122.1 264.45 -109.5 262.4 -101.05 261.1 -94.95 260.7 -89.45 261.3 -82.15 261.9 -66.15 262.75 -43.35 263.8 -15.4 264.9 15.9 266.1 48.7 267.35 81.35 268.5 112.05 269.6 138.95 270.55 160.4 271.25 174.55 271.75 179.65 271.9 181.3 26.3 -26.2 27.5 -43.95 26.3 -48.1 25.45 -59.35 24.1 Q-66.5 23.45 -75.75 23.9 L-91.2 24.6 -100.85 25.65 Q-104.25 26.45 -104.75 28.3 L-103.1 29.9 -99.6 34.1 Q-97.65 36.75 -96.45 39.95 -95.25 43.15 -95.9 46.45 L-97.55 46.7 -101.6 47.3 -106.75 48.0 -111.7 48.6 -115.2 48.85 Q-117.15 48.75 -120.0 47.85 -122.9 46.95 -126.7 46.15 L-135.35 45.6 -131.9 53.85 -149.25 47.1 -221.65 49.0 -222.25 50.65 Q-222.75 52.2 -222.65 54.45 -222.5 56.65 -220.7 58.65 -219.25 60.2 -218.15 63.0 -217.05 65.8 -216.35 68.8" fill="#000000" fill-rule="evenodd" stroke="none"/>
    <path d="M543.4 67.35 L533.85 67.85 525.9 68.2 521.55 68.35 517.45 67.75 512.3 66.4 507.85 65.1 506.0 64.45 437.05 68.35 444.8 76.05 441.3 75.8 434.3 74.55 425.25 72.65 415.65 70.5 406.95 68.5 400.65 67.0 398.2 66.4 362.3 70.25 359.6 71.55 352.5 74.75 342.2 79.0 Q336.45 81.3 330.1 83.4 323.75 85.5 317.45 86.95 311.15 88.4 305.6 88.8 L291.3 89.25 280.3 88.95 270.75 88.4 260.95 88.1 250.0 88.1 239.45 88.1 231.15 88.1 226.95 88.1 223.65 88.2 218.2 88.45 212.6 88.65 208.95 88.8 205.6 89.0 199.3 89.5 191.6 90.1 184.15 90.75 178.5 91.25 176.3 91.45 174.95 29.45 362.35 28.75 365.25 28.85 372.85 28.9 383.25 28.75 394.6 28.15 405.0 26.85 415.85 25.55 428.5 25.1 Q435.0 25.05 440.95 25.4 L451.25 26.3 Q455.6 26.95 457.45 27.8 457.4 29.25 455.85 29.9 L452.1 30.7 447.6 30.8 443.85 30.7 Q442.4 30.75 441.3 31.6 440.2 32.45 439.5 33.6 L438.4 35.6 438.0 36.5 435.4 37.0 428.7 38.4 419.7 40.35 410.1 42.65 Q405.4 43.85 401.7 45.0 398.05 46.15 396.25 47.1 394.6 48.05 395.9 48.6 L400.6 49.3 408.75 49.4 418.8 49.1 429.05 48.6 438.0 48.05 448.0 47.7 455.4 47.95 461.1 48.75 466.2 50.0 471.1 50.45 477.0 49.8 482.6 48.7 486.85 47.6 488.5 47.1 487.5 48.2 485.35 50.85 Q484.2 52.4 483.6 54.0 483.0 55.65 483.65 56.75 L487.3 56.9 Q490.1 56.1 493.85 54.45 L501.15 51.45 Q504.7 50.1 506.95 50.0 L512.5 49.95 522.85 49.9 536.0 49.9 Q543.05 49.95 549.95 50.15 L562.75 50.65 572.4 51.5 Q576.15 52.05 576.9 52.9 L562.3 66.4 559.55 66.55 552.6 66.9 543.4 67.35" fill="#a2ce7a" fill-rule="evenodd" stroke="none"/>
    <path d="M526.25 68.15 L521.9 68.3 517.85 67.7 512.7 66.4 508.3 65.05 506.45 64.45 437.95 68.3 445.65 76.05 442.2 75.8 435.2 74.55 426.2 72.65 416.65 70.5 408.0 68.45 401.75 67.0 399.35 66.4 363.65 70.25 360.75 71.6 353.1 74.95 342.2 79.35 Q336.05 81.7 329.4 83.85 322.75 85.95 316.3 87.4 308.65 89.05 300.15 89.4 291.65 89.7 281.25 89.25 L257.65 88.1 Q251.85 87.8 244.75 87.85 L229.85 88.15 214.45 88.85 199.9 89.7 187.75 90.5 179.4 91.15 176.3 91.4 176.3 80.75 216.3 82.75 224.3 80.75 228.3 83.4 228.95 78.75 238.3 78.75 240.6 78.7 246.3 78.35 253.5 77.35 Q257.2 76.65 260.3 75.4 264.3 73.7 266.8 71.85 L270.5 68.75 271.65 67.4 274.15 66.95 280.55 65.85 289.2 64.7 298.35 63.95 Q302.85 63.7 306.3 64.1 L312.75 65.15 Q315.0 65.75 315.9 66.25 L316.85 67.05 315.65 62.1 328.3 66.1 319.65 58.1 321.05 58.65 324.5 59.95 328.85 61.55 332.95 62.85 335.65 63.4 Q336.55 63.4 335.95 62.5 L333.95 60.4 331.5 58.35 330.3 57.4 344.95 60.1 338.3 54.75 339.65 55.05 342.95 55.5 347.3 55.6 Q349.6 55.5 351.65 54.75 L357.1 52.7 361.7 51.05 363.65 50.35 Q368.6 52.3 373.7 53.0 L384.05 53.7 394.55 53.65 Q399.85 53.55 405.15 53.85 402.95 53.9 401.1 54.75 399.25 55.65 397.55 56.85 L394.15 59.15 Q392.45 60.2 390.65 60.6 L403.15 61.15 415.45 61.95 Q421.5 62.6 427.3 64.45 426.95 63.45 427.3 62.25 L427.7 59.9 Q427.7 58.7 426.35 57.7 L448.65 59.65 470.85 61.55 Q482.0 62.35 493.25 62.05 504.55 61.75 516.1 59.65 L516.0 60.7 Q515.85 61.7 515.15 62.5 L527.8 63.6 540.1 63.55 Q546.25 63.3 552.4 63.3 L564.95 64.0 562.4 66.4 559.7 66.5 552.75 66.9 543.6 67.35 534.1 67.8 526.25 68.15" fill="#80a559" fill-rule="evenodd" stroke="none"/>
    <path d="M452.05 26.3 Q456.4 26.95 458.2 27.8 458.15 29.25 456.65 29.9 455.15 30.55 452.9 30.7 L448.45 30.8 444.7 30.7 Q442.9 30.8 441.65 32.05 440.4 33.3 439.75 34.65 L432.15 33.6 434.6 32.15 437.0 30.7 Q434.75 29.25 432.3 28.55 429.85 27.8 428.3 27.8 420.3 27.5 412.3 28.15 L396.25 29.75 380.05 31.45 363.65 31.95 305.65 28.8 309.35 28.8 319.2 28.9 333.35 28.95 350.1 28.9 367.55 28.75 383.9 28.35 397.35 27.75 406.1 26.85 416.9 25.55 429.45 25.1 Q435.9 25.05 441.8 25.4 L452.05 26.3" fill="#b9e882" fill-rule="evenodd" stroke="none"/>
    <path d="M378.25 71.5 Q385.9 70.3 395.45 70.25 L386.8 267.1 382.25 268.25 369.6 271.2 350.45 275.05 347.55 82.1 349.5 80.85 Q351.4 79.65 355.25 77.9 359.1 76.15 364.85 74.4 370.6 72.65 378.25 71.5" fill="#9b6a3a" fill-rule="evenodd" stroke="none"/>
    <path d="M378.25 71.5 Q385.9 70.3 395.45 70.25 L386.8 267.1 382.25 268.25 369.6 271.2 350.45 275.05 347.55 82.1 349.5 80.85 Q351.4 79.65 355.25 77.9 359.1 76.15 364.85 74.4 370.6 72.65 378.25 71.5" fill="none" stroke="#af7c5a" stroke-linecap="round" stroke-linejoin="round" stroke-width="0.9"/>
    <path d="M503.35 104.9 L501.4 127.55 Q500.2 139.5 498.6 151.75 497.0 164.0 494.9 175.35 492.8 186.75 490.15 196.2 487.5 205.65 484.25 212.1 L473.9 232.5 468.1 244.55 465.5 250.2 464.95 251.65 464.95 258.4 463.35 257.95 459.4 257.1 454.35 256.35 Q451.75 256.15 449.5 256.45 L451.45 78.9 445.65 71.2 505.5 68.3 505.3 73.1 504.6 86.0 503.35 104.9" fill="#c98f4b" fill-rule="evenodd" stroke="none"/>
    <path d="M457.2 222.7 Q466.75 218.0 475.3 211.2 483.85 204.4 490.45 195.05 L487.5 204.4 Q485.95 208.7 484.25 212.1 L473.9 232.5 468.1 244.55 465.5 250.2 464.95 251.65 464.95 258.4 463.35 257.95 459.4 257.1 454.35 256.4 Q451.7 256.15 449.5 256.5 L449.85 224.0 Q453.05 224.9 457.2 222.7" fill="#b57f4e" fill-rule="evenodd" stroke="none"/>
    <path d="M505.5 68.3 L505.35 71.35 504.95 79.7 504.2 92.4 503.1 108.25 Q500.35 94.3 497.75 79.9 497.25 78.9 496.3 78.6 495.35 78.25 494.4 78.6 493.45 78.95 492.95 79.9 489.5 86.05 484.85 89.2 480.15 92.4 474.6 93.2 469.1 94.05 463.15 93.25 457.2 92.45 451.3 90.7 L451.45 78.9 445.65 71.2 505.5 68.3" fill="#b57f4e" fill-rule="evenodd" stroke="none"/>
    <path d="M448.15 104.55 L447.7 123.85 447.2 147.05 446.6 172.15 446.05 197.2 445.5 220.15 445.1 239.0 444.8 251.75 444.7 256.5 389.7 267.1 400.3 71.2 445.65 80.85 446.4 81.45 Q447.1 82.05 447.8 83.15 448.5 84.2 448.55 85.7 L448.45 91.2 448.15 104.55" fill="#9b6a3a" fill-rule="evenodd" stroke="none"/>
    <path d="M448.15 104.55 L447.7 123.85 447.2 147.05 446.6 172.15 446.05 197.2 445.5 220.15 445.1 239.0 444.8 251.75 444.7 256.5 389.7 267.1 400.3 71.2 445.65 80.85 446.4 81.45 Q447.1 82.05 447.8 83.15 448.5 84.2 448.55 85.7 L448.45 91.2 448.15 104.55" fill="none" stroke="#af7c5a" stroke-linecap="round" stroke-linejoin="round" stroke-width="0.9"/>
    <path d="M448.55 85.65 L444.7 256.5 441.8 89.55 439.05 89.05 431.9 87.25 422.0 83.9 Q416.55 81.8 410.9 78.65 405.3 75.55 400.3 71.2 L445.65 80.85 448.55 85.65" fill="#b57f4e" fill-rule="evenodd" stroke="none"/>
    <path d="M507.45 69.3 L519.0 72.2 518.65 76.0 517.55 86.25 515.75 101.25 513.2 119.35 509.95 138.85 Q508.15 148.75 506.0 158.1 503.8 167.45 501.3 175.35 498.75 183.3 495.85 188.95 L496.35 185.25 497.65 175.15 499.5 160.25 501.65 142.15 503.75 122.45 505.6 102.65 506.95 84.4 Q507.4 75.9 507.45 69.3" fill="#b57f4e" fill-rule="evenodd" stroke="none"/>
    <path d="M551.7 105.75 L546.25 128.4 539.8 152.8 Q536.4 165.15 532.65 176.8 528.9 188.4 525.0 198.2 521.05 208.05 517.05 215.0 L503.55 180.25 505.0 174.5 508.6 158.55 Q510.85 148.35 513.35 134.6 515.85 120.9 518.15 104.8 520.4 88.7 521.9 71.25 L559.5 69.3 558.55 74.05 555.85 86.9 551.7 105.75" fill="#c98f4b" fill-rule="evenodd" stroke="none"/>
    <path d="M501.6 185.05 L513.2 214.95 504.5 265.15 502.0 264.9 495.5 264.15 486.55 262.85 476.85 260.95 Q471.95 259.85 467.85 258.4 L466.85 251.65 494.85 193.75 501.6 185.05" fill="#9b6a3a" fill-rule="evenodd" stroke="none"/>
    <path d="M501.6 185.05 L513.2 214.95 504.5 265.15 502.0 264.9 495.5 264.15 486.55 262.85 476.85 260.95 Q471.95 259.85 467.85 258.4 L466.85 251.65 494.85 193.75 501.6 185.05" fill="none" stroke="#af7c5a" stroke-linecap="round" stroke-linejoin="round" stroke-width="0.9"/>
    <path d="M562.4 70.25 L573.0 57.7 568.2 78.95 568.2 106.9 567.45 109.9 565.55 117.75 562.95 128.55 560.15 140.6 557.7 152.0 Q556.6 157.35 556.05 161.0 555.45 164.65 555.65 165.8 556.2 168.15 557.25 170.15 558.3 172.15 558.85 174.3 559.4 176.45 558.55 179.3 L557.0 183.75 555.0 189.25 552.95 194.7 551.45 198.85 550.8 200.5 548.9 212.1 549.85 254.55 547.65 256.1 541.65 259.6 Q537.75 261.65 532.55 263.3 527.35 265.0 521.2 265.45 515.05 265.85 508.35 264.2 L514.15 227.55 515.95 223.35 521.0 212.1 528.6 195.7 Q529.9 192.9 531.7 187.5 L535.6 174.95 539.9 159.7 544.2 143.45 548.25 127.9 551.55 114.65 553.85 105.5 554.65 102.1 562.4 70.25" fill="#b57f4e" fill-rule="evenodd" stroke="none"/>
    <path d="M483.3 84.6 L483.6 86.65 Q480.6 80.2 477.3 75.9 474.0 71.65 471.25 70.4 472.4 72.9 473.2 75.7 L474.4 81.0 475.05 85.05 475.2 86.65 Q472.5 80.9 469.5 77.3 466.55 73.75 463.9 71.85 461.25 69.95 459.55 69.25 L457.9 68.6 468.8 66.05 470.15 68.35 477.15 66.7 Q479.05 69.65 480.35 73.05 481.6 76.5 482.3 79.55 L483.3 84.6" fill="#000000" fill-rule="evenodd" stroke="none"/>
    <path d="M466.9 62.85 Q468.8 65.8 470.05 68.8 L472.05 74.45 473.05 78.6 473.3 80.2 Q470.6 74.5 467.6 71.4 464.65 68.3 462.0 67.05 459.35 65.75 457.65 65.55 L456.0 65.4 466.9 62.85" fill="#80a559" fill-rule="evenodd" stroke="none"/>
    <path d="M475.25 63.5 Q477.15 66.45 478.4 69.45 L480.4 75.1 481.4 79.25 481.65 80.85 Q478.95 75.15 475.95 72.05 473.0 68.95 470.35 67.7 467.7 66.4 466.0 66.2 L464.35 66.05 475.25 63.5" fill="#80a559" fill-rule="evenodd" stroke="none"/>
    <path d="M592.65 74.55 Q589.2 71.35 585.9 69.1 582.55 66.85 579.75 65.65 576.95 64.4 574.95 64.4 L578.85 68.5 582.0 72.9 584.15 76.4 584.95 77.8 Q580.25 73.55 576.1 71.4 571.95 69.3 568.75 68.55 L563.8 67.85 561.95 67.95 571.0 61.3 573.2 62.9 578.0 55.85 Q580.95 57.85 583.55 60.95 586.2 64.0 588.25 67.1 L591.45 72.35 592.65 74.55" fill="#000000" fill-rule="evenodd" stroke="none"/>
    <path d="M587.15 68.05 L588.6 69.95 Q583.9 65.75 579.9 64.05 575.95 62.35 573.05 62.2 L568.5 62.55 Q566.95 62.95 566.85 63.1 L572.35 53.2 Q575.3 55.2 578.15 57.95 L583.4 63.5 587.15 68.05" fill="#a2ce7a" fill-rule="evenodd" stroke="none"/>
    <path d="M579.75 71.2 L580.65 72.6 Q575.95 68.4 571.95 66.7 568.0 65.0 565.1 64.85 L560.55 65.2 559.0 65.7 567.95 59.1 Q570.9 61.05 573.2 63.35 L577.2 67.75 579.75 71.2" fill="#80a559" fill-rule="evenodd" stroke="none"/>
    <path d="M466.9 82.3 L467.15 83.95 Q464.7 78.7 462.0 75.2 459.25 71.65 457.0 70.65 457.95 72.75 458.6 75.0 L459.6 79.35 460.15 82.65 460.3 83.95 Q458.05 79.25 455.6 76.3 453.15 73.4 451.0 71.85 L447.45 69.75 446.1 69.2 455.0 67.1 456.15 68.95 461.85 67.65 Q463.45 70.05 464.45 72.85 L466.1 78.15 466.9 82.3" fill="#000000" fill-rule="evenodd" stroke="none"/>
    <path d="M456.65 70.95 Q457.8 74.2 458.25 76.4 L458.7 78.7 Q456.45 74.0 454.0 71.45 451.55 68.9 449.4 67.85 447.2 66.85 445.85 66.65 L444.5 66.55 453.4 64.45 Q455.5 67.7 456.65 70.95" fill="#80a559" fill-rule="evenodd" stroke="none"/>
    <path d="M463.5 71.5 Q464.65 74.75 465.1 76.95 L465.55 79.25 Q463.3 74.55 460.85 72.0 458.4 69.45 456.25 68.4 454.05 67.4 452.7 67.2 L451.35 67.1 460.25 65.0 Q462.35 68.25 463.5 71.5" fill="#80a559" fill-rule="evenodd" stroke="none"/>
    <path d="M512.9 49.95 L523.2 49.9 536.25 49.95 550.15 50.15 562.85 50.65 572.45 51.5 Q576.2 52.1 576.9 52.9 L573.9 55.7 549.9 54.55 526.05 52.85 502.05 51.3 Q505.3 50.05 507.4 50.0 L512.9 49.95" fill="#b9e882" fill-rule="evenodd" stroke="none"/>
    <path d="M476.6 230.15 Q478.8 234.5 479.9 239.65 L448.6 229.15 447.65 231.75 Q446.75 234.3 446.05 238.5 445.3 242.7 445.6 247.75 445.9 252.8 448.15 257.9 450.4 263.0 455.55 267.35 L453.7 267.75 449.2 268.8 443.5 270.25 438.2 271.85 Q435.8 272.65 434.65 273.3 433.85 273.9 432.8 275.2 L429.75 278.25 Q427.7 280.0 424.1 281.9 420.45 283.8 414.5 285.55 408.5 287.3 399.55 288.6 L377.85 290.5 359.9 290.5 338.65 181.4 343.5 181.45 356.7 181.8 376.1 182.9 399.7 185.2 Q412.25 186.65 425.35 189.05 438.45 191.4 450.95 194.9 463.5 198.35 474.5 203.15 485.45 207.9 493.8 214.2 L489.5 213.45 478.0 212.2 Q470.7 211.65 461.35 211.95 L462.95 213.2 Q464.5 214.4 466.85 216.75 469.25 219.1 471.85 222.45 474.45 225.85 476.6 230.15" fill="#000000" fill-rule="evenodd" stroke="none"/>
    <path d="M461.15 200.1 Q474.3 204.85 487.15 211.65 L484.85 211.4 479.0 210.8 471.2 210.3 Q467.0 210.15 463.0 210.3 L456.0 211.1 457.8 212.2 462.25 215.55 467.95 221.0 Q470.9 224.3 473.45 228.55 475.95 232.8 477.35 238.0 L443.55 226.25 442.75 235.4 440.3 234.85 433.85 233.35 424.8 231.4 414.55 229.25 404.4 227.35 415.95 239.15 413.75 238.35 408.15 236.3 400.6 233.6 392.65 230.75 385.7 228.3 381.25 226.8 388.4 237.45 358.6 233.25 345.65 238.45 337.65 234.45 330.65 240.45 310.65 234.45 307.65 243.45 295.65 233.45 294.65 247.45 Q293.1 244.9 290.05 242.45 287.0 240.05 283.15 237.8 279.35 235.55 275.4 233.7 271.45 231.8 268.15 230.4 L262.75 228.25 260.65 227.45 262.65 238.45 Q261.4 236.3 258.6 234.5 255.85 232.65 252.45 231.2 249.1 229.7 245.95 228.65 L240.75 227.0 238.65 226.45 247.65 236.45 224.95 226.45 226.65 227.95 Q228.3 229.85 229.25 232.25 L230.8 237.0 231.5 240.85 231.65 242.45 213.65 234.45 209.65 241.45 201.65 235.45 200.7 235.6 197.95 235.6 Q196.15 235.4 193.65 234.45 192.1 233.8 190.05 232.1 L185.85 228.3 181.85 224.15 178.85 220.8 177.65 219.45 176.65 177.45 179.75 177.4 187.7 177.4 198.65 177.3 210.6 177.15 221.55 176.85 229.65 176.45 238.75 175.65 250.7 174.85 264.0 174.4 277.15 174.8 Q283.5 175.25 288.65 176.45 L297.75 178.2 309.55 179.95 322.55 181.6 335.25 183.05 346.15 184.25 353.75 185.0 356.65 185.3 360.75 185.05 Q364.8 184.9 372.1 184.9 L389.25 185.6 410.75 187.85 Q422.45 189.45 435.2 192.45 448.0 195.4 461.15 200.1" fill="#a2ce7a" fill-rule="evenodd" stroke="none"/>
    <path d="M358.5 233.3 L359.3 233.0 356.3 233.0 358.5 233.3 345.6 238.45 337.6 234.45 330.6 240.45 310.6 234.45 307.6 243.45 295.6 233.45 294.6 247.45 Q293.05 244.95 290.0 242.5 286.95 240.05 283.15 237.8 279.3 235.6 275.35 233.7 L268.1 230.4 262.7 228.25 260.6 227.45 262.6 238.45 Q261.35 236.35 258.6 234.5 255.8 232.7 252.45 231.2 249.05 229.7 245.9 228.65 L240.7 227.05 238.6 226.45 247.6 236.45 224.8 226.4 Q227.05 227.95 228.4 230.55 229.75 233.15 230.45 235.9 L231.4 240.5 231.6 242.45 213.6 234.45 209.6 241.45 201.6 235.45 200.65 235.65 197.9 235.6 Q196.1 235.4 193.6 234.45 192.05 233.8 190.0 232.1 L185.8 228.3 181.8 224.15 178.8 220.8 177.6 219.45 177.45 212.85 186.1 219.15 Q190.5 222.25 195.6 224.45 L195.85 220.75 Q196.1 218.65 196.85 216.7 197.6 214.75 199.0 213.75 200.35 212.75 202.6 213.45 204.55 214.0 206.15 215.5 L209.4 218.4 Q211.15 219.9 213.6 220.45 213.55 217.95 213.15 215.7 L212.4 211.2 Q212.15 208.95 212.6 206.45 216.05 207.0 218.75 208.6 221.45 210.2 223.8 212.3 L228.6 216.45 227.15 213.5 225.7 210.75 Q225.15 209.45 225.6 208.45 226.15 207.0 227.45 206.9 L230.4 207.35 233.6 208.45 Q240.1 212.4 246.35 215.65 L258.85 221.95 Q265.1 225.0 271.6 228.45 269.35 225.4 268.0 221.85 266.65 218.25 266.6 214.45 L277.0 220.6 Q282.05 223.75 286.6 227.45 285.9 223.7 285.75 219.95 285.55 216.2 285.6 212.45 289.1 213.0 292.05 214.55 295.0 216.1 297.85 218.0 L303.6 221.45 303.7 217.1 Q303.75 214.8 304.2 213.15 304.6 211.5 305.6 211.45 308.55 211.5 310.5 213.25 312.4 215.0 313.85 217.6 L316.85 222.85 Q318.4 225.5 320.6 227.45 L321.4 223.25 Q321.75 221.1 322.45 219.3 323.15 217.5 324.6 216.45 326.1 215.0 327.6 215.4 329.1 215.8 330.6 217.2 L333.6 220.1 Q335.1 221.65 336.6 222.45 337.05 220.9 336.85 219.05 L336.7 215.85 Q336.65 214.5 337.6 214.45 342.5 215.1 346.65 217.25 350.8 219.35 354.5 222.35 L361.85 228.6 369.3 234.8 358.5 233.3" fill="#80a559" fill-rule="evenodd" stroke="none"/>
    <path d="M487.15 211.7 L484.9 211.4 479.2 210.85 471.6 210.35 Q467.5 210.15 463.6 210.3 L456.75 211.1 458.5 212.25 462.8 215.6 Q465.45 217.8 468.4 221.05 471.3 224.3 473.75 228.55 476.25 232.85 477.6 238.0 L476.55 236.2 472.85 230.7 Q470.2 227.1 465.45 221.75 460.65 216.55 457.55 214.15 454.5 211.7 453.0 211.1 451.75 210.55 451.55 210.55 459.0 208.7 464.85 208.5 L474.1 208.85 477.55 209.45 Q457.7 200.75 441.1 195.95 424.45 191.1 411.4 189.1 398.35 187.05 389.25 186.8 380.2 186.5 375.45 186.95 L370.65 187.45 353.65 185.45 358.0 185.2 Q362.25 185.05 369.95 185.05 L387.85 185.7 410.15 187.95 Q422.2 189.55 435.2 192.5 448.25 195.45 461.4 200.15 474.6 204.85 487.15 211.7" fill="#b9e882" fill-rule="evenodd" stroke="none"/>
    <path d="M391.5 239.15 L375.7 289.5 359.9 290.55 358.45 234.65 391.5 239.15" fill="#9b6a3a" fill-rule="evenodd" stroke="none"/>
    <path d="M391.5 239.15 L375.7 289.5 359.9 290.55 358.45 234.65 391.5 239.15" fill="none" stroke="#af7c5a" stroke-linecap="round" stroke-linejoin="round" stroke-width="0.9"/>
    <path d="M391.5 239.15 L375.7 289.5 386.55 241.55 379.2 237.5 391.5 239.15" fill="#b57f4e" fill-rule="evenodd" stroke="none"/>
    <path d="M429.85 276.15 Q428.15 277.7 423.65 280.0 419.2 282.35 410.95 284.65 402.7 286.95 389.75 288.5 L378.45 290.2 394.1 240.25 388.9 231.25 422.8 242.5 412.35 230.15 440.45 235.9 431.5 274.5 429.85 276.15" fill="#c98f4b" fill-rule="evenodd" stroke="none"/>
    <path d="M436.4 238.15 L422.5 234.4 425.4 247.15 399.9 238.15 399.9 243.0 391.05 250.05 394.1 240.25 388.9 231.25 422.8 242.5 412.4 230.15 440.45 235.9 439.0 242.3 436.4 238.15" fill="#9b6a3a" fill-rule="evenodd" stroke="none"/>
    <path d="M444.7 236.35 L444.35 238.6 Q444.05 240.75 444.0 244.25 443.95 247.75 444.7 251.75 445.4 255.75 447.4 259.5 449.4 263.2 453.2 265.85 L451.3 266.35 446.55 267.7 440.5 269.5 Q437.35 270.5 434.65 271.45 L441.6 237.05 444.7 236.35" fill="#9b6a3a" fill-rule="evenodd" stroke="none"/>
    <path d="M444.7 236.35 L444.35 238.6 Q444.05 240.75 444.0 244.25 443.95 247.75 444.7 251.75 445.4 255.75 447.4 259.5 449.4 263.2 453.2 265.85 L451.3 266.35 446.55 267.7 440.5 269.5 Q437.35 270.5 434.65 271.45 L441.6 237.05 444.7 236.35" fill="none" stroke="#af7c5a" stroke-linecap="round" stroke-linejoin="round" stroke-width="0.9"/>
    <path d="M442.75 222.85 L443.75 235.35 440.7 234.65 432.75 232.85 421.75 230.3 409.45 227.4 397.6 224.55 440.15 231.85 442.75 222.85" fill="#b9e882" fill-rule="evenodd" stroke="none"/>
    <path d="M381.3 224.95 L417.55 239.15 383.65 226.8 390.6 237.45 359.3 232.95 385.15 234.65 381.3 224.95" fill="#b9e882" fill-rule="evenodd" stroke="none"/>
    <path d="M455.65 33.45 L454.7 33.9 Q453.85 34.4 452.75 35.45 451.7 36.45 450.95 38.1 450.3 39.8 450.0 41.3 L449.7 43.8 449.65 44.8 447.3 45.0 441.15 45.45 432.7 45.95 423.45 46.35 414.85 46.5 408.3 46.1 410.8 45.4 416.95 43.75 424.85 41.8 432.6 40.15 438.3 39.45 442.3 39.45 441.95 38.6 441.65 36.7 Q441.6 35.6 442.3 34.65 443.0 33.75 444.95 33.45 L450.1 33.15 454.05 33.3 455.65 33.45" fill="#9b6a3a" fill-rule="evenodd" stroke="none"/>
    <path d="M340.65 83.4 L343.65 180.4 340.95 180.25 334.0 179.75 324.65 178.7 314.6 176.95 Q309.6 175.9 305.65 174.4 299.05 172.0 293.65 171.4 L284.95 171.05 281.65 171.4 269.65 92.4 272.4 92.7 279.3 93.45 288.2 94.35 297.05 95.1 303.65 95.4 310.45 94.45 317.65 92.4 323.3 90.35 325.65 89.4 340.65 83.4" fill="#9b6a3a" fill-rule="evenodd" stroke="none"/>
    <path d="M340.65 83.4 L343.65 180.4 340.95 180.25 334.0 179.75 324.65 178.7 314.6 176.95 Q309.6 175.9 305.65 174.4 299.05 172.0 293.65 171.4 L284.95 171.05 281.65 171.4 269.65 92.4 272.4 92.7 279.3 93.45 288.2 94.35 297.05 95.1 303.65 95.4 310.45 94.45 317.65 92.4 323.3 90.35 325.65 89.4 340.65 83.4" fill="none" stroke="#af7c5a" stroke-linecap="round" stroke-linejoin="round" stroke-width="0.9"/>
    <path d="M262.0 92.4 Q265.05 93.2 266.6 94.45 L277.6 168.45 271.6 171.45 269.45 168.1 263.85 159.2 256.1 146.6 247.6 132.05 239.7 117.4 Q236.05 110.25 233.65 104.35 231.25 98.45 230.85 94.75 230.45 91.05 232.6 90.45 L234.7 90.4 240.1 90.35 247.35 90.55 255.15 91.15 Q258.95 91.6 262.0 92.4" fill="#c98f4b" fill-rule="evenodd" stroke="none"/>
    <path d="M233.65 114.4 L266.65 167.4 264.6 167.9 259.25 168.9 251.85 169.95 243.65 170.4 234.1 170.4 227.85 170.4 225.65 170.4 228.65 120.4 233.65 114.4" fill="#9b6a3a" fill-rule="evenodd" stroke="none"/>
    <path d="M233.65 114.4 L266.65 167.4 264.6 167.9 259.25 168.9 251.85 169.95 243.65 170.4 234.1 170.4 227.85 170.4 225.65 170.4 228.65 120.4 233.65 114.4" fill="none" stroke="#af7c5a" stroke-linecap="round" stroke-linejoin="round" stroke-width="0.9"/>
    <path d="M226.85 93.25 L227.65 97.55 Q228.2 100.15 229.15 102.8 230.15 105.5 231.65 107.45 L225.65 117.45 222.65 169.45 220.65 172.45 197.65 173.45 197.25 170.1 196.2 161.2 194.95 148.65 193.75 134.2 193.0 119.6 Q192.75 112.55 193.0 106.75 193.25 101.0 194.1 97.45 194.95 93.9 196.65 93.45 L226.65 91.45 226.85 93.25" fill="#9b6a3a" fill-rule="evenodd" stroke="none"/>
    <path d="M226.85 93.25 L227.65 97.55 Q228.2 100.15 229.15 102.8 230.15 105.5 231.65 107.45 L225.65 117.45 222.65 169.45 220.65 172.45 197.65 173.45 197.25 170.1 196.2 161.2 194.95 148.65 193.75 134.2 193.0 119.6 Q192.75 112.55 193.0 106.75 193.25 101.0 194.1 97.45 194.95 93.9 196.65 93.45 L226.65 91.45 226.85 93.25" fill="none" stroke="#af7c5a" stroke-linecap="round" stroke-linejoin="round" stroke-width="0.9"/>
    <path d="M190.65 95.45 L190.05 98.0 188.65 104.2 Q187.85 108.0 187.2 112.1 186.5 116.15 186.3 119.5 186.1 122.85 186.65 124.45 L187.7 128.7 189.1 136.15 190.65 145.45 192.15 155.15 193.4 163.8 194.3 170.05 194.65 172.45 177.65 173.45 177.65 96.45 190.65 95.45" fill="#c98f4b" fill-rule="evenodd" stroke="none"/>
    <path d="M-187.2 67.35 L-177.65 67.85 -169.7 68.2 -165.35 68.35 -161.25 67.75 -156.1 66.4 -151.65 65.1 -149.8 64.45 -80.85 68.35 -88.6 76.05 -85.1 75.8 -78.1 74.55 -69.05 72.65 -59.45 70.5 -50.75 68.5 -44.45 67.0 -42.0 66.4 -6.1 70.25 -3.4 71.55 3.7 74.75 14.0 79.0 Q19.75 81.3 26.1 83.4 32.45 85.5 38.75 86.95 45.05 88.4 50.6 88.8 L64.9 89.25 75.9 88.95 85.45 88.4 95.25 88.1 106.2 88.1 116.75 88.1 125.05 88.1 129.25 88.1 132.55 88.2 138.0 88.45 143.6 88.65 147.25 88.8 150.6 89.0 156.9 89.5 164.6 90.1 172.05 90.75 177.7 91.25 179.9 91.45 181.25 29.45 -6.15 28.75 -9.05 28.85 -16.65 28.9 -27.05 28.75 -38.4 28.15 -48.8 26.85 -59.65 25.55 -72.3 25.1 Q-78.8 25.05 -84.75 25.4 L-95.05 26.3 Q-99.4 26.95 -101.25 27.8 -101.2 29.25 -99.65 29.9 -98.15 30.55 -95.9 30.7 L-91.4 30.8 -87.65 30.7 Q-86.2 30.75 -85.1 31.6 -84.0 32.45 -83.3 33.6 L-82.2 35.6 -81.8 36.5 -79.2 37.0 -72.5 38.4 -63.5 40.35 -53.9 42.65 Q-49.2 43.85 -45.5 45.0 -41.85 46.15 -40.05 47.1 -38.4 48.05 -39.7 48.6 L-44.4 49.3 -52.55 49.4 -62.6 49.1 -72.85 48.6 -81.8 48.05 -91.8 47.7 -99.2 47.95 -104.9 48.75 -110.0 50.0 -114.9 50.45 -120.8 49.8 -126.4 48.7 -130.65 47.6 -132.3 47.1 -131.3 48.2 Q-130.3 49.25 -129.15 50.85 -128.0 52.4 -127.4 54.0 -126.8 55.65 -127.45 56.75 L-131.1 56.9 -137.65 54.45 -144.95 51.45 Q-148.5 50.1 -150.75 50.0 L-156.3 49.95 -166.65 49.9 -179.8 49.9 Q-186.85 49.95 -193.75 50.15 L-206.55 50.65 -216.2 51.5 Q-219.95 52.05 -220.7 52.9 L-206.1 66.4 -203.35 66.55 -196.4 66.9 -187.2 67.35" fill="#a2ce7a" fill-rule="evenodd" stroke="none"/>
    <path d="M-196.2 63.3 L-208.75 64.0 -206.2 66.4 -203.5 66.5 -196.55 66.9 -187.4 67.35 -177.9 67.8 -170.05 68.15 -165.7 68.3 -161.65 67.7 -156.5 66.4 -152.1 65.05 -150.25 64.45 -81.75 68.3 -89.45 76.05 -86.0 75.8 -79.0 74.55 -70.0 72.65 -60.45 70.5 -51.8 68.45 -45.55 67.0 -43.15 66.4 -7.45 70.25 -4.55 71.6 3.1 74.95 14.0 79.35 Q20.15 81.7 26.8 83.85 L39.9 87.4 Q47.55 89.05 56.05 89.4 64.55 89.7 74.95 89.25 L98.55 88.1 Q104.35 87.8 111.45 87.85 L126.35 88.15 141.75 88.85 156.3 89.7 168.45 90.5 176.8 91.15 179.9 91.4 179.9 80.75 139.9 82.75 131.9 80.75 127.9 83.4 127.25 78.75 117.9 78.75 115.6 78.7 109.9 78.35 102.7 77.35 Q99.0 76.65 95.9 75.4 91.9 73.7 89.4 71.85 86.9 70.05 85.7 68.75 L84.55 67.4 82.05 66.95 75.65 65.85 67.0 64.7 57.85 63.95 Q53.35 63.7 49.9 64.1 L43.45 65.15 Q41.2 65.75 40.3 66.25 39.55 66.7 39.35 67.05 L40.55 62.1 27.9 66.1 36.55 58.1 35.15 58.65 31.7 59.95 27.35 61.55 23.25 62.85 20.55 63.4 Q19.65 63.4 20.25 62.5 L22.25 60.4 24.7 58.35 25.9 57.4 11.25 60.1 17.9 54.75 16.55 55.05 13.25 55.5 8.9 55.6 Q6.6 55.5 4.55 54.75 L-0.9 52.7 -5.5 51.05 -7.45 50.35 Q-12.4 52.3 -17.5 53.0 L-27.85 53.7 -38.35 53.65 Q-43.65 53.55 -48.95 53.85 -46.75 53.9 -44.9 54.75 -43.05 55.65 -41.35 56.85 L-37.95 59.15 Q-36.25 60.2 -34.45 60.6 L-46.95 61.15 -59.25 61.95 Q-65.3 62.6 -71.1 64.45 -70.75 63.45 -71.1 62.25 L-71.5 59.9 Q-71.5 58.7 -70.15 57.7 L-92.45 59.65 -114.65 61.55 Q-125.8 62.35 -137.05 62.05 -148.35 61.75 -159.9 59.65 L-159.8 60.7 Q-159.65 61.7 -158.95 62.5 L-171.6 63.6 Q-177.8 63.75 -183.9 63.55 L-196.2 63.3" fill="#80a559" fill-rule="evenodd" stroke="none"/>
    <path d="M-95.85 26.3 Q-100.2 26.95 -102.0 27.8 -101.95 29.25 -100.45 29.9 L-96.7 30.7 -92.25 30.8 -88.5 30.7 Q-86.7 30.8 -85.45 32.05 -84.2 33.3 -83.55 34.65 L-75.95 33.6 -78.4 32.15 -80.8 30.7 Q-78.55 29.25 -76.1 28.55 -73.65 27.8 -72.1 27.8 -64.1 27.5 -56.1 28.15 L-40.05 29.75 -23.85 31.45 -7.45 31.95 50.55 28.8 46.85 28.8 37.0 28.9 22.85 28.95 6.1 28.9 -11.35 28.75 -27.7 28.35 -41.15 27.75 -49.9 26.85 -60.7 25.55 -73.25 25.1 Q-79.7 25.05 -85.6 25.4 L-95.85 26.3" fill="#b9e882" fill-rule="evenodd" stroke="none"/>
    <path d="M-22.05 71.5 L-39.25 70.25 -30.6 267.1 -26.05 268.25 -13.4 271.2 5.75 275.05 8.65 82.1 6.7 80.85 Q4.8 79.65 0.95 77.9 -2.9 76.15 -8.65 74.4 -14.4 72.65 -22.05 71.5" fill="#9b6a3a" fill-rule="evenodd" stroke="none"/>
    <path d="M-22.05 71.5 L-39.25 70.25 -30.6 267.1 -26.05 268.25 -13.4 271.2 5.75 275.05 8.65 82.1 6.7 80.85 Q4.8 79.65 0.95 77.9 -2.9 76.15 -8.65 74.4 -14.4 72.65 -22.05 71.5" fill="none" stroke="#af7c5a" stroke-linecap="round" stroke-linejoin="round" stroke-width="0.9"/>
    <path d="M-147.15 104.9 L-145.2 127.55 Q-144.0 139.5 -142.4 151.75 -140.8 164.0 -138.7 175.35 -136.6 186.75 -133.95 196.2 -131.3 205.65 -128.05 212.1 -121.6 224.65 -117.7 232.5 L-111.9 244.55 -109.3 250.2 -108.75 251.65 -108.75 258.4 -107.15 257.95 -103.2 257.1 -98.15 256.35 Q-95.55 256.15 -93.3 256.45 L-95.25 78.9 -89.45 71.2 -149.3 68.3 -149.1 73.1 -148.4 86.0 -147.15 104.9" fill="#c98f4b" fill-rule="evenodd" stroke="none"/>
    <path d="M-101.0 222.7 Q-110.55 218.0 -119.1 211.2 -127.65 204.4 -134.25 195.05 L-131.3 204.4 Q-129.75 208.7 -128.05 212.1 -121.6 224.65 -117.7 232.5 L-111.9 244.55 -109.3 250.2 -108.75 251.65 -108.75 258.4 -107.15 257.95 -103.2 257.1 -98.15 256.4 Q-95.5 256.15 -93.3 256.5 L-93.65 224.0 Q-96.85 224.9 -101.0 222.7" fill="#b57f4e" fill-rule="evenodd" stroke="none"/>
    <path d="M-149.3 68.3 L-149.15 71.35 -148.75 79.7 -148.0 92.4 -146.9 108.25 Q-144.15 94.3 -141.55 79.9 -141.05 78.9 -140.1 78.6 -139.15 78.25 -138.2 78.6 -137.25 78.95 -136.75 79.9 -133.3 86.05 -128.65 89.2 -123.95 92.4 -118.4 93.2 -112.9 94.05 -106.95 93.25 -101.0 92.45 -95.1 90.7 L-95.25 78.9 -89.45 71.2 -149.3 68.3" fill="#b57f4e" fill-rule="evenodd" stroke="none"/>
    <path d="M-91.95 104.55 L-91.5 123.85 -91.0 147.05 -90.4 172.15 -89.85 197.2 -89.3 220.15 -88.9 239.0 -88.6 251.75 -88.5 256.5 -33.5 267.1 -44.1 71.2 -89.45 80.85 -90.2 81.45 -91.6 83.15 Q-92.3 84.2 -92.35 85.7 L-92.25 91.2 -91.95 104.55" fill="#9b6a3a" fill-rule="evenodd" stroke="none"/>
    <path d="M-91.95 104.55 L-91.5 123.85 -91.0 147.05 -90.4 172.15 -89.85 197.2 -89.3 220.15 -88.9 239.0 -88.6 251.75 -88.5 256.5 -33.5 267.1 -44.1 71.2 -89.45 80.85 -90.2 81.45 -91.6 83.15 Q-92.3 84.2 -92.35 85.7 L-92.25 91.2 -91.95 104.55" fill="none" stroke="#af7c5a" stroke-linecap="round" stroke-linejoin="round" stroke-width="0.9"/>
    <path d="M-92.35 85.65 L-88.5 256.5 -85.6 89.55 -82.85 89.05 -75.7 87.25 -65.8 83.9 Q-60.35 81.8 -54.7 78.65 -49.1 75.55 -44.1 71.2 L-89.45 80.85 -92.35 85.65" fill="#b57f4e" fill-rule="evenodd" stroke="none"/>
    <path d="M-151.25 69.3 L-162.8 72.2 -162.45 76.0 -161.35 86.25 -159.55 101.25 -157.0 119.35 -153.75 138.85 Q-151.95 148.75 -149.8 158.1 -147.6 167.45 -145.1 175.35 -142.55 183.3 -139.65 188.95 L-140.15 185.25 -141.45 175.15 -143.3 160.25 -145.45 142.15 -147.55 122.45 -149.4 102.65 -150.75 84.4 Q-151.2 75.9 -151.25 69.3" fill="#b57f4e" fill-rule="evenodd" stroke="none"/>
    <path d="M-195.5 105.75 L-190.05 128.4 -183.6 152.8 Q-180.2 165.15 -176.45 176.8 -172.7 188.4 -168.8 198.2 -164.85 208.05 -160.85 215.0 L-147.35 180.25 -148.8 174.5 -152.4 158.55 Q-154.65 148.35 -157.15 134.6 -159.65 120.9 -161.95 104.8 -164.2 88.7 -165.7 71.25 L-203.3 69.3 -202.35 74.05 -199.65 86.9 -195.5 105.75" fill="#c98f4b" fill-rule="evenodd" stroke="none"/>
    <path d="M-145.4 185.05 L-157.0 214.95 -148.3 265.15 -145.8 264.9 -139.3 264.15 -130.35 262.85 -120.65 260.95 Q-115.75 259.85 -111.65 258.4 L-110.65 251.65 -138.65 193.75 -145.4 185.05" fill="#9b6a3a" fill-rule="evenodd" stroke="none"/>
    <path d="M-145.4 185.05 L-157.0 214.95 -148.3 265.15 -145.8 264.9 -139.3 264.15 -130.35 262.85 -120.65 260.95 Q-115.75 259.85 -111.65 258.4 L-110.65 251.65 -138.65 193.75 -145.4 185.05" fill="none" stroke="#af7c5a" stroke-linecap="round" stroke-linejoin="round" stroke-width="0.9"/>
    <path d="M-206.2 70.25 L-216.8 57.7 -212.0 78.95 -212.0 106.9 -211.25 109.9 -209.35 117.75 -206.75 128.55 -203.95 140.6 -201.5 152.0 Q-200.4 157.35 -199.85 161.0 -199.25 164.65 -199.45 165.8 -200.0 168.15 -201.05 170.15 -202.1 172.15 -202.65 174.3 -203.2 176.45 -202.35 179.3 L-200.8 183.75 -198.8 189.25 -196.75 194.7 -195.25 198.85 -194.6 200.5 -192.7 212.1 -193.65 254.55 -191.45 256.1 -185.45 259.6 Q-181.55 261.65 -176.35 263.3 -171.15 265.0 -165.0 265.45 -158.85 265.85 -152.15 264.2 L-157.95 227.55 -159.75 223.35 -164.8 212.1 -172.4 195.7 Q-173.7 192.9 -175.5 187.5 L-179.4 174.95 -183.7 159.7 -188.0 143.45 -192.05 127.9 -195.35 114.65 -197.65 105.5 -198.45 102.1 -206.2 70.25" fill="#b57f4e" fill-rule="evenodd" stroke="none"/>
    <path d="M-127.1 84.6 L-127.4 86.65 Q-124.4 80.2 -121.1 75.9 -117.8 71.65 -115.05 70.4 -116.2 72.9 -117.0 75.7 L-118.2 81.0 -118.85 85.05 -119.0 86.65 Q-116.3 80.9 -113.3 77.3 -110.35 73.75 -107.7 71.85 -105.05 69.95 -103.35 69.25 L-101.7 68.6 -112.6 66.05 -113.95 68.35 -120.95 66.7 Q-122.85 69.65 -124.15 73.05 -125.4 76.5 -126.1 79.55 L-127.1 84.6" fill="#000000" fill-rule="evenodd" stroke="none"/>
    <path d="M-110.7 62.85 Q-112.6 65.8 -113.85 68.8 L-115.85 74.45 -116.85 78.6 -117.1 80.2 Q-114.4 74.5 -111.4 71.4 -108.45 68.3 -105.8 67.05 -103.15 65.75 -101.45 65.55 L-99.8 65.4 -110.7 62.85" fill="#80a559" fill-rule="evenodd" stroke="none"/>
    <path d="M-119.05 63.5 Q-120.95 66.45 -122.2 69.45 L-124.2 75.1 -125.2 79.25 -125.45 80.85 Q-122.75 75.15 -119.75 72.05 -116.8 68.95 -114.15 67.7 -111.5 66.4 -109.8 66.2 L-108.15 66.05 -119.05 63.5" fill="#80a559" fill-rule="evenodd" stroke="none"/>
    <path d="M-236.45 74.55 Q-233.0 71.35 -229.7 69.1 -226.35 66.85 -223.55 65.65 -220.75 64.4 -218.75 64.4 -220.85 66.25 -222.65 68.5 L-225.8 72.9 -227.95 76.4 -228.75 77.8 Q-224.05 73.55 -219.9 71.4 -215.75 69.3 -212.55 68.55 L-207.6 67.85 -205.75 67.95 -214.8 61.3 -217.0 62.9 -221.8 55.85 Q-224.75 57.85 -227.35 60.95 -230.0 64.0 -232.05 67.1 L-235.25 72.35 -236.45 74.55" fill="#000000" fill-rule="evenodd" stroke="none"/>
    <path d="M-230.95 68.05 L-232.4 69.95 Q-227.7 65.75 -223.7 64.05 -219.75 62.35 -216.85 62.2 L-212.3 62.55 Q-210.75 62.95 -210.65 63.1 L-216.15 53.2 Q-219.1 55.2 -221.95 57.95 L-227.2 63.5 -230.95 68.05" fill="#a2ce7a" fill-rule="evenodd" stroke="none"/>
    <path d="M-223.55 71.2 L-224.45 72.6 Q-219.75 68.4 -215.75 66.7 -211.8 65.0 -208.9 64.85 L-204.35 65.2 -202.8 65.7 -211.75 59.1 Q-214.7 61.05 -217.0 63.35 L-221.0 67.75 -223.55 71.2" fill="#80a559" fill-rule="evenodd" stroke="none"/>
    <path d="M-110.7 82.3 L-110.95 83.95 Q-108.5 78.7 -105.8 75.2 -103.05 71.65 -100.8 70.65 L-102.4 75.0 -103.4 79.35 -103.95 82.65 -104.1 83.95 Q-101.85 79.25 -99.4 76.3 -96.95 73.4 -94.8 71.85 -92.6 70.3 -91.25 69.75 L-89.9 69.2 -98.8 67.1 -99.95 68.95 -105.65 67.65 Q-107.25 70.05 -108.25 72.85 L-109.9 78.15 -110.7 82.3" fill="#000000" fill-rule="evenodd" stroke="none"/>
    <path d="M-100.45 70.95 Q-101.6 74.2 -102.05 76.4 L-102.5 78.7 Q-100.25 74.0 -97.8 71.45 -95.35 68.9 -93.2 67.85 -91.0 66.85 -89.65 66.65 L-88.3 66.55 -97.2 64.45 Q-99.3 67.7 -100.45 70.95" fill="#80a559" fill-rule="evenodd" stroke="none"/>
    <path d="M-107.3 71.5 L-108.9 76.95 -109.35 79.25 Q-107.1 74.55 -104.65 72.0 -102.2 69.45 -100.05 68.4 -97.85 67.4 -96.5 67.2 L-95.15 67.1 -104.05 65.0 Q-106.15 68.25 -107.3 71.5" fill="#80a559" fill-rule="evenodd" stroke="none"/>
    <path d="M-156.7 49.95 L-167.0 49.9 -180.05 49.95 -193.95 50.15 -206.65 50.65 -216.25 51.5 Q-220.0 52.1 -220.7 52.9 L-217.7 55.7 -193.7 54.55 -169.85 52.85 -145.85 51.3 Q-149.1 50.05 -151.2 50.0 L-156.7 49.95" fill="#b9e882" fill-rule="evenodd" stroke="none"/>
    <path d="M-120.4 230.15 Q-122.6 234.5 -123.7 239.65 L-92.4 229.15 -91.45 231.75 Q-90.55 234.3 -89.85 238.5 -89.1 242.7 -89.4 247.75 -89.7 252.8 -91.95 257.9 -94.2 263.0 -99.35 267.35 L-97.5 267.75 -93.0 268.8 -87.3 270.25 -82.0 271.85 Q-79.6 272.65 -78.45 273.3 L-76.6 275.2 -73.55 278.25 Q-71.5 280.0 -67.9 281.9 -64.25 283.8 -58.3 285.55 -52.3 287.3 -43.35 288.6 L-21.65 290.5 -3.7 290.5 17.55 181.4 12.7 181.45 -0.5 181.8 -19.9 182.9 -43.5 185.2 Q-56.05 186.65 -69.15 189.05 -82.25 191.4 -94.75 194.9 -107.3 198.35 -118.3 203.15 -129.25 207.9 -137.6 214.2 L-133.3 213.45 -121.8 212.2 Q-114.5 211.65 -105.15 211.95 L-106.75 213.2 Q-108.3 214.4 -110.65 216.75 -113.05 219.1 -115.65 222.45 -118.25 225.85 -120.4 230.15" fill="#000000" fill-rule="evenodd" stroke="none"/>
    <path d="M-104.95 200.1 Q-118.1 204.85 -130.95 211.65 L-128.65 211.4 -122.8 210.8 -115.0 210.3 Q-110.8 210.15 -106.8 210.3 L-99.8 211.1 -101.6 212.2 -106.05 215.55 Q-108.75 217.75 -111.75 221.0 -114.7 224.3 -117.25 228.55 -119.75 232.8 -121.15 238.0 L-87.35 226.25 -86.55 235.4 -84.1 234.85 -77.65 233.35 -68.6 231.4 -58.35 229.25 -48.2 227.35 -59.75 239.15 -57.55 238.35 Q-55.45 237.55 -51.95 236.3 L-44.4 233.6 -36.45 230.75 -29.5 228.3 -25.05 226.8 -32.2 237.45 -2.4 233.25 10.55 238.45 18.55 234.45 25.55 240.45 45.55 234.45 48.55 243.45 60.55 233.45 61.55 247.45 Q63.1 244.9 66.15 242.45 69.2 240.05 73.05 237.8 76.85 235.55 80.8 233.7 84.75 231.8 88.05 230.4 L93.45 228.25 95.55 227.45 93.55 238.45 Q94.8 236.3 97.6 234.5 100.35 232.65 103.75 231.2 107.1 229.7 110.25 228.65 L115.45 227.0 117.55 226.45 108.55 236.45 131.25 226.45 Q130.3 227.05 129.55 227.95 127.9 229.85 126.95 232.25 125.95 234.7 125.4 237.0 L124.7 240.85 124.55 242.45 142.55 234.45 146.55 241.45 154.55 235.45 155.5 235.6 158.25 235.6 Q160.05 235.4 162.55 234.45 164.1 233.8 166.15 232.1 L170.35 228.3 174.35 224.15 177.35 220.8 178.55 219.45 179.55 177.45 176.45 177.4 168.5 177.4 157.55 177.3 145.6 177.15 134.65 176.85 126.55 176.45 117.45 175.65 105.5 174.85 92.2 174.4 79.05 174.8 Q72.7 175.25 67.55 176.45 L58.45 178.2 46.65 179.95 33.65 181.6 20.95 183.05 10.05 184.25 2.45 185.0 -0.45 185.3 -4.55 185.05 Q-8.6 184.9 -15.9 184.9 L-33.05 185.6 -54.55 187.85 Q-66.25 189.45 -79.0 192.45 -91.8 195.4 -104.95 200.1" fill="#a2ce7a" fill-rule="evenodd" stroke="none"/>
    <path d="M-2.3 233.3 L-3.1 233.0 -0.1 233.0 -2.3 233.3 10.6 238.45 18.6 234.45 25.6 240.45 45.6 234.45 48.6 243.45 60.6 233.45 61.6 247.45 Q63.15 244.95 66.2 242.5 69.25 240.05 73.05 237.8 76.9 235.6 80.85 233.7 84.8 231.8 88.1 230.4 L93.5 228.25 95.6 227.45 93.6 238.45 Q94.85 236.35 97.6 234.5 100.4 232.7 103.75 231.2 107.15 229.7 110.3 228.65 113.45 227.6 115.5 227.05 L117.6 226.45 108.6 236.45 131.4 226.4 Q129.15 227.95 127.8 230.55 126.45 233.15 125.75 235.9 125.05 238.6 124.8 240.5 L124.6 242.45 142.6 234.45 146.6 241.45 154.6 235.45 155.55 235.65 158.3 235.6 Q160.1 235.4 162.6 234.45 L166.2 232.1 170.4 228.3 174.4 224.15 177.4 220.8 178.6 219.45 178.75 212.85 170.1 219.15 Q165.7 222.25 160.6 224.45 L160.35 220.75 Q160.1 218.65 159.35 216.7 158.6 214.75 157.2 213.75 155.85 212.75 153.6 213.45 151.65 214.0 150.05 215.5 L146.8 218.4 Q145.05 219.9 142.6 220.45 142.65 217.95 143.05 215.7 L143.8 211.2 Q144.05 208.95 143.6 206.45 140.15 207.0 137.45 208.6 134.75 210.2 132.4 212.3 L127.6 216.45 Q128.15 214.95 129.05 213.5 L130.5 210.75 Q131.05 209.45 130.6 208.45 130.05 207.0 128.75 206.9 127.45 206.8 125.8 207.35 L122.6 208.45 Q116.1 212.4 109.85 215.65 L97.35 221.95 Q91.1 225.0 84.6 228.45 86.85 225.4 88.2 221.85 89.55 218.25 89.6 214.45 84.3 217.4 79.2 220.6 74.15 223.75 69.6 227.45 70.3 223.7 70.45 219.95 L70.6 212.45 Q67.1 213.0 64.15 214.55 L58.35 218.0 Q55.55 219.9 52.6 221.45 L52.5 217.1 Q52.45 214.8 52.0 213.15 51.6 211.5 50.6 211.45 47.65 211.5 45.7 213.25 43.8 215.0 42.35 217.6 L39.35 222.85 Q37.8 225.5 35.6 227.45 L34.8 223.25 Q34.45 221.1 33.75 219.3 33.05 217.5 31.6 216.45 30.1 215.0 28.6 215.4 27.1 215.8 25.6 217.2 L22.6 220.1 Q21.1 221.65 19.6 222.45 19.15 220.9 19.35 219.05 L19.5 215.85 Q19.55 214.5 18.6 214.45 13.7 215.1 9.55 217.25 5.4 219.35 1.7 222.35 -2.05 225.3 -5.65 228.6 L-13.1 234.8 -2.3 233.3" fill="#80a559" fill-rule="evenodd" stroke="none"/>
    <path d="M-130.95 211.7 L-128.7 211.4 -123.0 210.85 -115.4 210.35 Q-111.3 210.15 -107.4 210.3 L-100.55 211.1 -102.3 212.25 -106.6 215.6 Q-109.25 217.8 -112.2 221.05 -115.1 224.3 -117.55 228.55 -120.05 232.85 -121.4 238.0 L-120.35 236.2 -116.65 230.7 Q-114.0 227.1 -109.25 221.75 -104.45 216.55 -101.35 214.15 -98.3 211.7 -96.8 211.1 -95.55 210.55 -95.35 210.55 -102.8 208.7 -108.65 208.5 L-117.9 208.85 -121.35 209.45 Q-101.5 200.75 -84.9 195.95 -68.25 191.1 -55.2 189.1 -42.15 187.05 -33.05 186.8 -24.0 186.5 -19.25 186.95 L-14.45 187.45 2.55 185.45 -1.8 185.2 Q-6.05 185.05 -13.75 185.05 L-31.65 185.7 -53.95 187.95 Q-66.0 189.55 -79.0 192.5 -92.05 195.45 -105.2 200.15 -118.4 204.85 -130.95 211.7" fill="#b9e882" fill-rule="evenodd" stroke="none"/>
    <path d="M-35.3 239.15 L-19.5 289.5 -3.7 290.55 -2.25 234.65 -35.3 239.15" fill="#9b6a3a" fill-rule="evenodd" stroke="none"/>
    <path d="M-35.3 239.15 L-19.5 289.5 -3.7 290.55 -2.25 234.65 -35.3 239.15" fill="none" stroke="#af7c5a" stroke-linecap="round" stroke-linejoin="round" stroke-width="0.9"/>
    <path d="M-35.3 239.15 L-19.5 289.5 -30.35 241.55 -23.0 237.5 -35.3 239.15" fill="#b57f4e" fill-rule="evenodd" stroke="none"/>
    <path d="M-73.65 276.15 Q-71.95 277.7 -67.45 280.0 -63.0 282.35 -54.75 284.65 -46.5 286.95 -33.55 288.5 L-22.25 290.2 -37.9 240.25 -32.7 231.25 -66.6 242.5 -56.15 230.15 -84.25 235.9 -75.3 274.5 -73.65 276.15" fill="#c98f4b" fill-rule="evenodd" stroke="none"/>
    <path d="M-80.2 238.15 L-66.3 234.4 -69.2 247.15 -43.7 238.15 -43.7 243.0 -34.85 250.05 -37.9 240.25 -32.7 231.25 -66.6 242.5 -56.2 230.15 -84.25 235.9 -82.8 242.3 -80.2 238.15" fill="#9b6a3a" fill-rule="evenodd" stroke="none"/>
    <path d="M-88.5 236.35 L-88.15 238.6 Q-87.85 240.75 -87.8 244.25 -87.75 247.75 -88.5 251.75 -89.2 255.75 -91.2 259.5 -93.2 263.2 -97.0 265.85 L-95.1 266.35 -90.35 267.7 -84.3 269.5 -78.45 271.45 -85.4 237.05 -88.5 236.35" fill="#9b6a3a" fill-rule="evenodd" stroke="none"/>
    <path d="M-88.5 236.35 L-88.15 238.6 Q-87.85 240.75 -87.8 244.25 -87.75 247.75 -88.5 251.75 -89.2 255.75 -91.2 259.5 -93.2 263.2 -97.0 265.85 L-95.1 266.35 -90.35 267.7 -84.3 269.5 -78.45 271.45 -85.4 237.05 -88.5 236.35" fill="none" stroke="#af7c5a" stroke-linecap="round" stroke-linejoin="round" stroke-width="0.9"/>
    <path d="M-86.55 222.85 L-87.55 235.35 -84.5 234.65 -76.55 232.85 -65.55 230.3 -53.25 227.4 -41.4 224.55 -83.95 231.85 -86.55 222.85" fill="#b9e882" fill-rule="evenodd" stroke="none"/>
    <path d="M-25.1 224.95 L-61.35 239.15 -27.45 226.8 -34.4 237.45 -3.1 232.95 -28.95 234.65 -25.1 224.95" fill="#b9e882" fill-rule="evenodd" stroke="none"/>
    <path d="M-99.45 33.45 L-98.5 33.9 Q-97.65 34.4 -96.55 35.45 -95.5 36.45 -94.75 38.1 -94.1 39.8 -93.8 41.3 L-93.5 43.8 -93.45 44.8 -91.1 45.0 -84.95 45.45 -76.5 45.95 -67.25 46.35 -58.65 46.5 -52.1 46.1 -54.6 45.4 -60.75 43.75 -68.65 41.8 -76.4 40.15 -82.1 39.45 -86.1 39.45 -85.75 38.6 -85.45 36.7 Q-85.4 35.6 -86.1 34.65 -86.8 33.75 -88.75 33.45 L-93.9 33.15 -97.85 33.3 -99.45 33.45" fill="#9b6a3a" fill-rule="evenodd" stroke="none"/>
    <path d="M15.55 83.4 L12.55 180.4 15.25 180.25 22.2 179.75 31.55 178.7 41.6 176.95 Q46.6 175.9 50.55 174.4 57.15 172.0 62.55 171.4 L71.25 171.05 74.55 171.4 86.55 92.4 83.8 92.7 76.9 93.45 68.0 94.35 59.15 95.1 52.55 95.4 45.75 94.45 Q42.0 93.6 38.55 92.4 L32.9 90.35 30.55 89.4 15.55 83.4" fill="#9b6a3a" fill-rule="evenodd" stroke="none"/>
    <path d="M15.55 83.4 L12.55 180.4 15.25 180.25 22.2 179.75 31.55 178.7 41.6 176.95 Q46.6 175.9 50.55 174.4 57.15 172.0 62.55 171.4 L71.25 171.05 74.55 171.4 86.55 92.4 83.8 92.7 76.9 93.45 68.0 94.35 59.15 95.1 52.55 95.4 45.75 94.45 Q42.0 93.6 38.55 92.4 L32.9 90.35 30.55 89.4 15.55 83.4" fill="none" stroke="#af7c5a" stroke-linecap="round" stroke-linejoin="round" stroke-width="0.9"/>
    <path d="M89.6 94.45 L78.6 168.45 84.6 171.45 86.75 168.1 92.35 159.2 100.1 146.6 108.6 132.05 116.5 117.4 Q120.15 110.25 122.55 104.35 124.95 98.45 125.35 94.75 125.75 91.05 123.6 90.45 L121.5 90.4 116.1 90.35 108.85 90.55 101.05 91.15 Q97.25 91.6 94.2 92.4 91.15 93.2 89.6 94.45" fill="#c98f4b" fill-rule="evenodd" stroke="none"/>
    <path d="M122.55 114.4 L89.55 167.4 91.6 167.9 96.95 168.9 104.35 169.95 112.55 170.4 122.1 170.4 128.35 170.4 130.55 170.4 127.55 120.4 122.55 114.4" fill="#9b6a3a" fill-rule="evenodd" stroke="none"/>
    <path d="M122.55 114.4 L89.55 167.4 91.6 167.9 96.95 168.9 104.35 169.95 112.55 170.4 122.1 170.4 128.35 170.4 130.55 170.4 127.55 120.4 122.55 114.4" fill="none" stroke="#af7c5a" stroke-linecap="round" stroke-linejoin="round" stroke-width="0.9"/>
    <path d="M129.35 93.25 L128.55 97.55 Q128.0 100.15 127.05 102.8 126.05 105.5 124.55 107.45 L130.55 117.45 133.55 169.45 135.55 172.45 158.55 173.45 158.95 170.1 160.0 161.2 161.25 148.65 162.45 134.2 163.2 119.6 Q163.45 112.55 163.2 106.75 162.95 101.0 162.1 97.45 161.25 93.9 159.55 93.45 L129.55 91.45 129.35 93.25" fill="#9b6a3a" fill-rule="evenodd" stroke="none"/>
    <path d="M129.35 93.25 L128.55 97.55 Q128.0 100.15 127.05 102.8 126.05 105.5 124.55 107.45 L130.55 117.45 133.55 169.45 135.55 172.45 158.55 173.45 158.95 170.1 160.0 161.2 161.25 148.65 162.45 134.2 163.2 119.6 Q163.45 112.55 163.2 106.75 162.95 101.0 162.1 97.45 161.25 93.9 159.55 93.45 L129.55 91.45 129.35 93.25" fill="none" stroke="#af7c5a" stroke-linecap="round" stroke-linejoin="round" stroke-width="0.9"/>
    <path d="M165.55 95.45 L166.15 98.0 167.55 104.2 169.0 112.1 Q169.7 116.15 169.9 119.5 170.1 122.85 169.55 124.45 169.1 125.6 168.5 128.7 L167.1 136.15 165.55 145.45 164.05 155.15 162.8 163.8 161.9 170.05 161.55 172.45 178.55 173.45 178.55 96.45 165.55 95.45" fill="#c98f4b" fill-rule="evenodd" stroke="none"/>
  </g>
</svg>
