<?xml version="1.0" encoding="UTF-8" standalone="no"?>
<svg xmlns:xlink="http://www.w3.org/1999/xlink" height="22.1px" width="31.65px" xmlns="http://www.w3.org/2000/svg">
  <g transform="matrix(1, 0, 0, 1, 15.85, 12.4)">
    <path d="M-0.3 -0.85 Q-0.1 1.25 -0.4 3.15 -0.65 5.05 -1.35 6.65 L-7.65 7.95 -12.15 9.2 Q-13.4 7.7 -14.25 5.55 -15.1 3.4 -15.3 0.8 -15.55 -2.5 -14.8 -5.25 -14.0 -8.05 -12.45 -9.8 -10.9 -11.5 -8.8 -11.8 -5.6 -12.1 -3.3 -9.35 -1.0 -6.6 -0.3 -0.85" fill="#ffffff" fill-rule="evenodd" stroke="none"/>
    <path d="M-0.3 -0.85 Q-1.0 -6.6 -3.3 -9.35 -5.6 -12.1 -8.8 -11.8 -10.9 -11.5 -12.45 -9.8 -14.0 -8.05 -14.8 -5.25 -15.55 -2.5 -15.3 0.8 -15.1 3.4 -14.25 5.55 -13.4 7.7 -12.15 9.2 L-7.65 7.95 -1.35 6.65 Q-0.65 5.05 -0.4 3.15 -0.1 1.25 -0.3 -0.85" fill="none" stroke="#000000" stroke-linecap="round" stroke-linejoin="round" stroke-width="1.0"/>
    <path d="M-12.85 -0.65 Q-12.6 2.3 -11.6 4.4 -10.6 6.6 -8.95 7.8 L-12.0 8.7 Q-14.55 5.85 -14.95 0.75 -15.2 -2.3 -14.5 -4.95 -13.8 -7.6 -12.35 -9.25 -10.95 -11.0 -9.05 -11.35 -11.0 -10.05 -12.05 -7.2 -13.1 -4.35 -12.85 -0.65" fill="#e5e2be" fill-rule="evenodd" stroke="none"/>
    <path d="M11.95 -10.75 Q13.2 -9.4 14.05 -7.1 14.95 -4.7 15.2 -1.7 L15.3 1.4 15.15 4.65 14.7 7.2 Q12.4 6.0 10.15 5.6 7.95 5.2 6.55 5.6 5.4 3.05 5.1 -0.55 4.9 -3.55 5.35 -6.1 5.85 -8.55 6.85 -10.15 7.9 -11.7 9.3 -11.9 10.7 -12.0 11.95 -10.75" fill="#ffffff" fill-rule="evenodd" stroke="none"/>
    <path d="M11.95 -10.75 Q10.7 -12.0 9.3 -11.9 7.9 -11.7 6.85 -10.15 5.85 -8.55 5.35 -6.1 4.9 -3.55 5.1 -0.55 5.4 3.05 6.55 5.6 7.95 5.2 10.15 5.6 12.4 6.0 14.7 7.2 L15.15 4.65 15.3 1.4 15.2 -1.7 Q14.95 -4.7 14.05 -7.1 13.2 -9.4 11.95 -10.75" fill="none" stroke="#000000" stroke-linecap="round" stroke-linejoin="round" stroke-width="1.0"/>
    <path d="M5.4 -2.45 Q5.4 -5.4 6.1 -7.65 6.85 -9.9 8.0 -10.95 7.1 -8.5 7.1 -5.05 L7.15 -3.25 Q7.3 -1.35 7.6 0.35 7.95 2.1 8.55 3.35 9.1 4.6 10.0 5.1 L8.4 5.0 6.8 5.0 5.9 2.4 Q5.6 1.1 5.45 -0.65 L5.4 -2.45" fill="#e5e2be" fill-rule="evenodd" stroke="none"/>
    <path d="M-3.95 -3.6 Q-2.55 -3.35 -1.7 -1.8 -0.9 -0.2 -1.05 2.05 -1.25 4.15 -2.35 5.55 -3.4 6.9 -4.8 6.85 -6.25 6.6 -7.0 5.05 -7.85 3.45 -7.7 1.25 -7.5 -0.95 -6.45 -2.25 -5.35 -3.65 -3.95 -3.6" fill="#000000" fill-rule="evenodd" stroke="none"/>
    <path d="M-2.35 -0.2 Q-2.4 0.7 -2.8 1.2 -3.25 1.75 -3.8 1.75 -4.35 1.65 -4.65 1.0 -5.0 0.4 -4.95 -0.45 -4.9 -1.35 -4.45 -1.9 -4.05 -2.45 -3.45 -2.4 -2.9 -2.3 -2.55 -1.7 -2.25 -1.1 -2.35 -0.2" fill="#ffffff" fill-rule="evenodd" stroke="none"/>
    <path d="M14.6 0.9 Q14.4 2.7 13.65 3.8 12.9 4.95 11.85 4.9 10.85 4.75 10.25 3.45 9.7 2.15 9.8 0.3 9.95 -1.5 10.75 -2.6 11.5 -3.75 12.55 -3.65 13.55 -3.5 14.15 -2.2 14.75 -0.9 14.6 0.9" fill="#000000" fill-rule="evenodd" stroke="none"/>
    <path d="M14.05 -0.75 L13.65 0.45 Q13.35 0.85 12.85 0.85 12.45 0.75 12.2 0.25 11.95 -0.25 12.0 -0.95 12.05 -1.65 12.4 -2.1 12.7 -2.55 13.15 -2.5 L13.8 -1.95 14.05 -0.75" fill="#ffffff" fill-rule="evenodd" stroke="none"/>
  </g>
</svg>
