<?xml version="1.0" encoding="UTF-8" standalone="no"?>
<svg xmlns:xlink="http://www.w3.org/1999/xlink" height="54.4px" width="41.25px" xmlns="http://www.w3.org/2000/svg">
  <g transform="matrix(1, 0, 0, 1, -1.8, 51.75)">
    <use height="54.4" transform="matrix(1.0, 0.0, 0.0, 1.0, 1.8, -51.75)" width="41.25" xlink:href="#shape0"/>
  </g>
  <defs>
    <g id="shape0" transform="matrix(1, 0, 0, 1, -1.8, 51.75)">
      <path d="M35.65 -4.5 L36.95 -3.9 39.05 -2.45 41.05 -0.2 42.05 1.65 41.85 1.65 40.75 -0.25 38.55 -2.55 36.4 -3.95 35.65 -4.25 35.65 -4.5 M41.1 1.65 L35.5 1.65 35.65 -3.55 Q37.6 -3.05 38.85 -1.95 40.25 -0.75 40.9 1.0 L41.1 1.65 M25.55 -9.85 L24.95 -10.8 24.75 -10.75 25.75 -8.7 26.2 -6.7 Q26.15 -5.75 25.45 -5.0 24.85 -4.25 24.0 -4.4 23.1 -4.55 22.25 -5.25 22.3 -4.5 22.45 -4.3 L22.65 -4.1 23.25 -3.95 24.6 -3.8 26.15 -3.95 Q26.8 -4.2 27.15 -4.8 27.4 -5.5 27.15 -6.4 L26.45 -8.25 25.55 -9.85 M27.35 -6.55 Q27.65 -5.5 27.35 -4.75 27.0 -4.05 26.25 -3.75 L24.65 -3.55 23.2 -3.75 22.6 -3.9 22.4 -4.05 Q22.2 -4.2 22.1 -4.85 L22.15 -6.85 Q22.25 -8.2 22.9 -10.6 L25.05 -11.0 25.55 -10.3 26.55 -8.6 27.35 -6.55" fill="#167fa3" fill-rule="evenodd" stroke="none"/>
      <path d="M41.85 1.65 L41.1 1.65 40.9 1.0 Q40.25 -0.75 38.85 -1.95 37.6 -3.05 35.65 -3.55 L35.65 -4.25 36.4 -3.95 38.55 -2.55 40.75 -0.25 41.85 1.65" fill="#1f95b5" fill-rule="evenodd" stroke="none"/>
      <path d="M6.7 -42.7 L6.9 -43.45 7.55 -45.45 8.75 -47.8 Q9.45 -49.0 10.5 -49.8 11.5 -50.65 12.85 -50.75 14.15 -50.85 15.3 -50.15 16.45 -49.5 17.4 -48.3 L19.25 -45.7 21.0 -42.9 22.65 -40.4 Q23.7 -39.05 25.2 -37.65 L28.05 -35.1 30.35 -33.3 Q31.3 -32.6 31.35 -32.6 32.9 -31.3 33.85 -29.6 L34.2 -29.0 33.95 -28.8 33.85 -28.75 Q33.1 -30.25 32.05 -31.35 L33.35 -28.5 32.75 -28.4 Q32.2 -28.4 32.25 -28.05 32.3 -27.7 32.65 -27.25 L33.25 -26.5 33.55 -26.15 33.85 -26.1 Q34.0 -24.4 33.55 -22.8 L33.65 -22.65 34.05 -20.75 34.1 -18.6 33.5 -15.55 33.05 -12.65 32.9 -3.95 32.95 1.65 15.7 1.65 Q15.4 0.1 15.4 -1.45 15.35 -3.4 16.0 -5.4 L16.15 -5.7 16.6 -5.8 17.3 -5.7 18.1 -5.55 Q14.7 -8.15 12.35 -11.65 9.95 -15.2 8.7 -19.3 7.4 -23.4 7.3 -27.8 7.2 -31.95 8.35 -36.1 L8.4 -36.25 8.45 -36.15 9.35 -35.0 10.35 -33.75 11.2 -32.85 Q10.0 -35.0 9.7 -37.55 9.4 -40.15 10.05 -42.7 10.7 -45.3 12.25 -47.55 13.55 -49.05 15.05 -49.8 14.1 -50.35 13.15 -50.4 L12.9 -50.4 Q11.65 -50.3 10.7 -49.5 9.75 -48.7 9.1 -47.55 L7.95 -45.3 7.3 -43.4 7.1 -42.6 6.95 -41.85 6.65 -42.15 6.7 -42.65 6.65 -42.15 6.4 -42.4 5.55 -43.1 4.55 -43.45 4.45 -43.45 4.05 -42.85 Q3.85 -42.15 4.05 -41.5 L4.5 -40.25 5.05 -38.9 Q5.2 -38.2 4.85 -37.45 4.5 -36.8 4.0 -34.65 3.5 -32.5 3.3 -29.2 3.05 -26.0 3.6 -22.05 4.15 -18.15 5.85 -14.05 7.55 -9.9 10.95 -6.0 L11.0 -5.9 11.05 -5.8 11.35 -3.85 12.15 0.75 12.35 1.65 11.9 1.65 11.65 0.5 10.85 -4.05 10.6 -5.7 Q7.7 -9.1 6.0 -12.6 4.3 -16.15 3.6 -19.55 2.85 -23.0 2.8 -26.05 2.75 -29.15 3.05 -31.55 3.35 -34.05 3.8 -35.6 L4.45 -37.6 Q4.7 -38.25 4.6 -38.85 L4.15 -40.05 3.65 -41.4 Q3.4 -42.1 3.6 -42.95 3.8 -43.75 4.3 -43.85 L5.35 -43.65 6.3 -43.0 6.7 -42.65 6.7 -42.7 M12.6 -31.2 Q10.0 -33.45 8.75 -35.45 L8.35 -36.1 8.75 -35.45 Q10.0 -33.45 12.6 -31.2 M19.3 -31.4 Q19.0 -30.4 19.6 -29.35 20.15 -28.3 21.4 -27.4 22.65 -26.5 24.35 -26.0 L27.55 -25.65 Q29.1 -25.8 30.15 -26.4 31.2 -27.05 31.5 -28.05 31.75 -29.15 31.2 -30.2 30.65 -31.3 29.4 -32.15 28.15 -33.05 26.45 -33.55 L23.25 -33.9 Q22.1 -33.85 21.25 -33.45 L21.15 -33.6 20.55 -33.2 19.25 -32.1 17.8 -30.4 Q17.1 -29.4 16.7 -28.1 16.3 -26.8 16.55 -25.25 L16.75 -26.05 17.25 -27.85 18.1 -29.8 19.3 -31.4 M34.9 -25.95 L35.35 -25.95 35.95 -22.85 36.1 -20.2 36.1 -18.85 35.65 -4.5 35.65 -4.25 35.65 -3.55 35.5 1.65 35.05 1.65 35.65 -19.1 Q35.75 -22.95 34.9 -25.95 M13.4 -29.5 L12.3 -29.45 12.6 -29.2 13.2 -28.85 Q13.55 -28.75 13.85 -29.1 14.15 -29.45 14.25 -30.6 L14.05 -30.15 13.4 -29.5 M17.1 -13.4 Q19.75 -12.0 21.75 -11.75 L25.25 -12.0 Q26.75 -12.5 27.75 -13.4 L29.4 -15.35 30.25 -17.0 30.5 -17.75 30.15 -17.2 29.15 -15.95 27.65 -14.4 Q26.8 -13.65 25.75 -13.1 24.7 -12.6 23.6 -12.55 L19.8 -13.0 Q17.95 -13.5 16.4 -14.25 14.85 -15.05 13.65 -15.85 L11.85 -17.15 11.25 -17.7 Q14.5 -14.8 17.1 -13.4 M27.35 -6.55 L26.55 -8.6 25.55 -10.3 25.05 -11.0 22.9 -10.6 Q22.25 -8.2 22.15 -6.85 L22.1 -4.85 Q22.2 -4.2 22.4 -4.05 L22.6 -3.9 23.2 -3.75 24.65 -3.55 26.25 -3.75 Q27.0 -4.05 27.35 -4.75 27.65 -5.5 27.35 -6.55" fill="#ffe473" fill-rule="evenodd" stroke="none"/>
      <path d="M33.85 -28.75 L33.35 -28.5 32.05 -31.35 Q33.1 -30.25 33.85 -28.75 M33.85 -26.1 L34.2 -26.0 34.9 -25.95 Q35.75 -22.95 35.65 -19.1 L35.05 1.65 32.95 1.65 32.9 -3.95 33.05 -12.65 33.5 -15.55 34.1 -18.6 34.05 -20.75 33.65 -22.65 33.55 -22.8 Q34.0 -24.4 33.85 -26.1" fill="#fcedae" fill-rule="evenodd" stroke="none"/>
      <path d="M25.55 -9.85 L26.45 -8.25 27.15 -6.4 Q27.4 -5.5 27.15 -4.8 26.8 -4.2 26.15 -3.95 L24.6 -3.8 23.25 -3.95 22.65 -4.1 22.45 -4.3 Q22.3 -4.5 22.25 -5.25 23.1 -4.55 24.0 -4.4 24.85 -4.25 25.45 -5.0 26.15 -5.75 26.2 -6.7 L25.75 -8.7 24.75 -10.75 24.95 -10.8 25.55 -9.85" fill="#40a9c6" fill-rule="evenodd" stroke="none"/>
      <path d="M6.65 -42.15 L6.95 -41.85 7.1 -42.6 7.3 -43.4 7.95 -45.3 9.1 -47.55 Q9.75 -48.7 10.7 -49.5 11.65 -50.3 12.9 -50.4 L13.15 -50.4 Q14.1 -50.35 15.05 -49.8 13.55 -49.05 12.25 -47.55 10.7 -45.3 10.05 -42.7 9.4 -40.15 9.7 -37.55 10.0 -35.0 11.2 -32.85 L10.35 -33.75 9.35 -35.0 8.45 -36.15 8.4 -36.25 8.35 -36.1 Q7.4 -37.8 7.05 -39.15 6.65 -40.75 6.65 -41.7 L6.65 -42.15 6.65 -41.7 Q6.65 -40.75 7.05 -39.15 7.4 -37.8 8.35 -36.1 7.2 -31.95 7.3 -27.8 7.4 -23.4 8.7 -19.3 9.95 -15.2 12.35 -11.65 14.7 -8.15 18.1 -5.55 L17.3 -5.7 16.6 -5.8 16.15 -5.7 16.0 -5.4 Q15.35 -3.4 15.4 -1.45 15.4 0.1 15.7 1.65 L12.35 1.65 12.15 0.75 11.35 -3.85 11.05 -5.8 11.0 -5.9 10.95 -6.0 Q7.55 -9.9 5.85 -14.05 4.15 -18.15 3.6 -22.05 3.05 -26.0 3.3 -29.2 3.5 -32.5 4.0 -34.65 4.5 -36.8 4.85 -37.45 5.2 -38.2 5.05 -38.9 L4.5 -40.25 4.05 -41.5 Q3.85 -42.15 4.05 -42.85 L4.45 -43.45 4.55 -43.45 5.55 -43.1 6.4 -42.4 6.65 -42.15" fill="#ccb244" fill-rule="evenodd" stroke="none"/>
      <path d="M27.3 -31.15 L27.05 -32.05 25.65 -32.6 22.95 -32.75 Q21.75 -32.45 21.3 -31.65 21.55 -31.05 22.2 -30.55 22.85 -30.1 23.75 -29.8 L25.9 -29.75 26.25 -29.6 Q26.85 -29.45 27.35 -29.6 27.85 -29.7 27.95 -30.1 L27.7 -30.85 27.3 -31.15 M21.25 -33.45 L21.35 -33.3 23.5 -33.75 26.4 -33.4 28.55 -32.5 Q29.15 -31.55 28.95 -30.6 28.65 -29.8 27.9 -29.3 27.05 -28.85 25.9 -28.75 L23.4 -29.0 Q22.0 -29.4 21.0 -30.2 20.05 -30.95 19.7 -31.85 L19.5 -31.65 19.3 -31.4 18.1 -29.8 17.25 -27.85 16.75 -26.05 16.55 -25.25 Q16.3 -26.8 16.7 -28.1 17.1 -29.4 17.8 -30.4 L19.25 -32.1 20.55 -33.2 21.15 -33.6 21.25 -33.45 M34.2 -29.0 L35.2 -29.8 36.25 -30.75 36.65 -31.2 37.8 -30.3 38.35 -29.2 38.6 -28.25 38.6 -27.85 Q38.15 -26.8 37.35 -26.4 L35.65 -25.95 35.35 -25.95 34.9 -25.95 34.2 -26.0 33.85 -26.1 33.55 -26.15 33.25 -26.5 32.65 -27.25 Q32.3 -27.7 32.25 -28.05 32.2 -28.4 32.75 -28.4 L33.35 -28.5 33.85 -28.75 33.95 -28.8 34.2 -29.0 M17.1 -13.4 Q14.5 -14.8 11.25 -17.7 L11.85 -17.15 13.65 -15.85 Q14.85 -15.05 16.4 -14.25 17.95 -13.5 19.8 -13.0 L23.6 -12.55 Q24.7 -12.6 25.75 -13.1 26.8 -13.65 27.65 -14.4 L29.15 -15.95 30.15 -17.2 30.5 -17.75 30.25 -17.0 29.4 -15.35 27.75 -13.4 Q26.75 -12.5 25.25 -12.0 L21.75 -11.75 Q19.75 -12.0 17.1 -13.4 M13.4 -29.5 L14.05 -30.15 14.25 -30.6 Q14.15 -29.45 13.85 -29.1 13.55 -28.75 13.2 -28.85 L12.6 -29.2 12.3 -29.45 13.4 -29.5" fill="#000000" fill-rule="evenodd" stroke="none"/>
      <path d="M25.9 -29.75 L25.3 -30.15 Q24.95 -30.55 25.05 -30.9 L25.65 -31.45 26.75 -31.4 27.3 -31.15 27.7 -30.85 27.95 -30.1 Q27.85 -29.7 27.35 -29.6 26.85 -29.45 26.25 -29.6 L25.9 -29.75 M21.25 -33.45 Q22.1 -33.85 23.25 -33.9 L26.45 -33.55 Q28.15 -33.05 29.4 -32.15 30.65 -31.3 31.2 -30.2 31.75 -29.15 31.5 -28.05 31.2 -27.05 30.15 -26.4 29.1 -25.8 27.55 -25.65 L24.35 -26.0 Q22.65 -26.5 21.4 -27.4 20.15 -28.3 19.6 -29.35 19.0 -30.4 19.3 -31.4 L19.5 -31.65 19.7 -31.85 Q20.05 -30.95 21.0 -30.2 22.0 -29.4 23.4 -29.0 L25.9 -28.75 Q27.05 -28.85 27.9 -29.3 28.65 -29.8 28.95 -30.6 29.15 -31.55 28.55 -32.5 L26.4 -33.4 23.5 -33.75 21.35 -33.3 21.25 -33.45" fill="#ffffff" fill-rule="evenodd" stroke="none"/>
      <path d="M25.9 -29.75 L23.75 -29.8 Q22.85 -30.1 22.2 -30.55 21.55 -31.05 21.3 -31.65 21.75 -32.45 22.95 -32.75 L25.65 -32.6 27.05 -32.05 27.3 -31.15 26.75 -31.4 25.65 -31.45 25.05 -30.9 Q24.95 -30.55 25.3 -30.15 L25.9 -29.75" fill="#635311" fill-rule="evenodd" stroke="none"/>
      <path d="M34.2 -29.0 L33.85 -29.6 Q32.9 -31.3 31.35 -32.6 31.3 -32.6 30.35 -33.3 L28.05 -35.1 25.2 -37.65 Q23.7 -39.05 22.65 -40.4 L21.0 -42.9 19.25 -45.7 17.4 -48.3 Q16.45 -49.5 15.3 -50.15 14.15 -50.85 12.85 -50.75 11.5 -50.65 10.5 -49.8 9.45 -49.0 8.75 -47.8 L7.55 -45.45 6.9 -43.45 6.7 -42.7 M35.35 -25.95 L35.95 -22.85 36.1 -20.2 36.1 -18.85 35.65 -4.5 36.95 -3.9 39.05 -2.45 41.05 -0.2 42.05 1.65 M11.9 1.65 L11.65 0.5 10.85 -4.05 10.6 -5.7 Q7.7 -9.1 6.0 -12.6 4.3 -16.15 3.6 -19.55 2.85 -23.0 2.8 -26.05 2.75 -29.15 3.05 -31.55 3.35 -34.05 3.8 -35.6 L4.45 -37.6 Q4.7 -38.25 4.6 -38.85 L4.15 -40.05 3.65 -41.4 Q3.4 -42.1 3.6 -42.95 3.8 -43.75 4.3 -43.85 L5.35 -43.65 6.3 -43.0 6.7 -42.65 M35.65 -4.25 L35.65 -3.55 35.5 1.65 M35.65 -4.5 L35.65 -4.25" fill="none" stroke="#000000" stroke-linecap="round" stroke-linejoin="round" stroke-width="2.0"/>
      <path d="M6.7 -42.7 L6.7 -42.65 6.65 -42.15 6.65 -41.7 Q6.65 -40.75 7.05 -39.15 7.4 -37.8 8.35 -36.1 L8.75 -35.45 Q10.0 -33.45 12.6 -31.2 M19.3 -31.4 Q19.0 -30.4 19.6 -29.35 20.15 -28.3 21.4 -27.4 22.65 -26.5 24.35 -26.0 L27.55 -25.65 Q29.1 -25.8 30.15 -26.4 31.2 -27.05 31.5 -28.05 31.75 -29.15 31.2 -30.2 30.65 -31.3 29.4 -32.15 28.15 -33.05 26.45 -33.55 L23.25 -33.9 Q22.1 -33.85 21.25 -33.45 M27.35 -6.55 Q27.65 -5.5 27.35 -4.75 27.0 -4.05 26.25 -3.75 L24.65 -3.55 23.2 -3.75 22.6 -3.9 22.4 -4.05 Q22.2 -4.2 22.1 -4.85 L22.15 -6.85 Q22.25 -8.2 22.9 -10.6 L25.05 -11.0 25.55 -10.3 26.55 -8.6 27.35 -6.55" fill="none" stroke="#000000" stroke-linecap="round" stroke-linejoin="round" stroke-width="1.0"/>
      <path d="M9.55 -9.6 L6.6 -9.15 4.3 -8.35 3.35 -7.95 Q3.15 -10.2 3.6 -11.7 4.0 -13.25 4.8 -14.15 L6.4 -15.55 7.8 -16.2 8.4 -16.35 8.7 -16.35 9.4 -15.95 10.1 -14.6 10.4 -12.45 10.15 -10.5 Q9.95 -9.7 9.55 -9.6" fill="#167fa3" fill-rule="evenodd" stroke="none"/>
      <path d="M9.55 -9.6 L6.6 -9.15 4.3 -8.35 3.35 -7.95 Q3.15 -10.2 3.6 -11.7 4.0 -13.25 4.8 -14.15 L6.4 -15.55 7.8 -16.2 8.4 -16.35 8.7 -16.35 9.4 -15.95 10.1 -14.6 10.4 -12.45 10.15 -10.5 Q9.95 -9.7 9.55 -9.6" fill="none" stroke="#000000" stroke-linecap="round" stroke-linejoin="round" stroke-width="1.0"/>
      <path d="M9.45 -9.85 L6.95 -9.45 4.8 -8.8 3.5 -8.25 Q3.35 -10.35 3.75 -11.75 4.15 -13.2 4.9 -14.05 L6.4 -15.35 Q7.15 -15.85 7.75 -15.95 L8.4 -16.15 8.65 -16.1 9.25 -15.75 9.8 -14.6 10.1 -12.8 10.05 -11.1 9.65 -10.0 9.45 -9.85" fill="#167fa3" fill-rule="evenodd" stroke="none"/>
      <path d="M9.45 -9.85 L9.65 -10.0 10.05 -11.1 10.1 -12.8 9.8 -14.6 9.25 -15.75 8.65 -16.1 8.4 -16.15 7.75 -15.95 Q7.15 -15.85 6.4 -15.35 L4.9 -14.05 Q4.15 -13.2 3.75 -11.75 3.35 -10.35 3.5 -8.25 L4.8 -8.8 6.95 -9.45 9.45 -9.85" fill="none" stroke="#000000" stroke-linecap="round" stroke-linejoin="round" stroke-width="1.0"/>
      <path d="M9.55 -14.75 Q7.95 -14.45 6.5 -13.75 5.05 -13.05 4.0 -11.85 L5.1 -14.0 6.55 -15.2 7.8 -15.8 8.45 -15.95 8.5 -15.95 8.95 -15.75 9.55 -14.75" fill="#0f6e87" fill-rule="evenodd" stroke="none"/>
    </g>
  </defs>
</svg>
