<?xml version="1.0" encoding="UTF-8" standalone="no"?>
<svg xmlns:xlink="http://www.w3.org/1999/xlink" height="409.4px" width="499.15px" xmlns="http://www.w3.org/2000/svg">
  <g transform="matrix(1, 0, 0, 1, 155.9, 255.65)">
    <use height="277.2" transform="matrix(1.0, 0.0, 0.0, 1.0, 100.0, -174.0)" width="33.9" xlink:href="#shape0"/>
    <use height="22.25" transform="matrix(0.8706, -0.4891, 0.4891, 0.8706, 131.6156, 104.3992)" width="22.35" xlink:href="#shape1"/>
    <use height="224.2" transform="matrix(0.9099, 0.4059, -0.4059, 0.9099, -63.7418, -249.917)" width="181.5" xlink:href="#sprite0"/>
    <use height="155.95" transform="matrix(1.0, 0.0, 0.0, 1.0, -2.3, -85.5)" width="172.55" xlink:href="#sprite1"/>
  </g>
  <defs>
    <g id="shape0" transform="matrix(1, 0, 0, 1, -100.0, 174.0)">
      <path d="M100.5 -173.5 Q129.5 -74.0 112.55 -2.15 104.95 30.0 108.35 54.35" fill="none" stroke="#000000" stroke-linecap="round" stroke-linejoin="round" stroke-width="1.0"/>
      <path d="M108.35 54.35 Q112.5 84.45 133.4 102.7" fill="none" stroke="#000099" stroke-linecap="round" stroke-linejoin="round" stroke-width="1.0"/>
    </g>
    <g id="shape1" transform="matrix(1, 0, 0, 1, -8.6, -8.85)">
      <path d="M29.75 21.75 L30.55 22.05 30.95 22.4 Q30.8 24.85 29.4 26.8 28.05 28.75 25.75 29.9 23.5 31.05 20.75 31.1 16.7 31.0 13.9 28.7 11.05 26.4 10.6 22.8 L10.6 17.95 Q9.25 17.35 9.0 15.9 L8.6 15.9 8.6 10.05 10.6 10.05 10.6 8.85 12.7 8.85 12.75 10.05 14.5 10.05 14.5 15.9 14.1 15.9 Q13.85 17.15 12.8 17.8 L12.8 22.4 Q13.1 25.25 15.3 27.15 17.5 29.05 20.75 29.1 24.0 29.05 26.25 27.15 28.45 25.25 28.7 22.4 L29.0 22.05 Q29.3 21.8 29.75 21.75" fill="#0000cc" fill-opacity="0.43137255" fill-rule="evenodd" stroke="none"/>
    </g>
    <g id="sprite0" transform="matrix(1, 0, 0, 1, 47.6, 169.9)">
      <use height="224.2" transform="matrix(1.0, 0.0, 0.0, 1.0, -47.6, -169.9)" width="181.5" xlink:href="#shape2"/>
    </g>
    <g id="shape2" transform="matrix(1, 0, 0, 1, 47.6, 169.9)">
      <path d="M23.75 -37.15 Q25.2 -32.55 25.1 -28.7 24.95 -24.85 23.85 -21.85 22.75 -18.85 21.5 -16.95 L19.45 -14.35 16.05 -14.45 Q14.0 -15.85 11.25 -19.9 9.9 -21.9 9.5 -23.3 9.15 -24.75 9.3 -25.65 9.4 -26.6 9.75 -27.0 L10.05 -27.4 Q12.3 -28.1 13.7 -29.4 15.15 -30.8 15.95 -32.6 16.75 -34.45 17.2 -36.55 L17.5 -37.4 Q18.15 -38.95 19.35 -39.6 L21.75 -39.75 Q23.0 -39.2 23.75 -37.15" fill="#666666" fill-rule="evenodd" stroke="none"/>
      <path d="M23.75 -37.15 Q23.0 -39.2 21.75 -39.75 L19.35 -39.6 Q18.15 -38.95 17.5 -37.4 L17.2 -36.55 Q16.75 -34.45 15.95 -32.6 15.15 -30.8 13.7 -29.4 12.3 -28.1 10.05 -27.4 L9.75 -27.0 Q9.4 -26.6 9.3 -25.65 9.15 -24.75 9.5 -23.3 9.9 -21.9 11.25 -19.9 14.0 -15.85 16.05 -14.45 L19.45 -14.35 21.5 -16.95 Q22.75 -18.85 23.85 -21.85 24.95 -24.85 25.1 -28.7 25.2 -32.55 23.75 -37.15" fill="none" stroke="#000000" stroke-linecap="round" stroke-linejoin="round" stroke-width="2.0"/>
      <path d="M19.05 -38.5 Q19.55 -39.0 20.2 -39.2 20.7 -37.1 20.3 -35.45 19.9 -33.75 18.85 -32.35 L16.55 -29.55 Q15.1 -28.05 14.0 -26.4 12.8 -24.75 12.6 -22.7 12.55 -21.5 13.2 -19.95 13.85 -18.45 15.05 -17.15 L15.9 -16.4 Q17.5 -15.15 19.25 -15.2 L19.05 -14.9 Q18.5 -14.4 17.85 -14.5 16.7 -14.6 15.0 -16.35 L11.9 -20.3 Q10.45 -22.5 10.15 -23.85 9.8 -25.25 10.05 -25.95 L10.5 -26.85 Q12.95 -27.6 14.45 -29.1 15.95 -30.65 16.75 -32.55 17.55 -34.45 18.0 -36.4 L18.2 -37.25 19.05 -38.5" fill="#999999" fill-rule="evenodd" stroke="none"/>
      <path d="M0.55 44.7 Q0.3 45.95 -0.65 47.2 L-2.95 49.45 -5.6 51.35 -7.8 52.6 -8.7 53.05 -10.6 53.2 -11.2 52.4 -11.2 51.9 Q-9.9 51.25 -9.0 50.15 -8.1 49.0 -7.55 47.85 L-6.8 45.9 -6.55 45.05 0.55 44.7" fill="#333333" fill-rule="evenodd" stroke="none"/>
      <path d="M-6.55 45.05 L-6.8 45.9 -7.55 47.85 Q-8.1 49.0 -9.0 50.15 -9.9 51.25 -11.2 51.9 L-11.2 52.4 -10.6 53.2 -8.7 53.05 -7.8 52.6 -5.6 51.35 -2.95 49.45 -0.65 47.2 Q0.3 45.95 0.55 44.7" fill="none" stroke="#000000" stroke-linecap="round" stroke-linejoin="round" stroke-width="2.0"/>
      <path d="M20.2 -22.1 L26.05 -17.35 Q29.15 -14.8 31.7 -11.55 34.25 -8.35 36.1 -4.45 L38.65 1.35 Q39.8 4.4 40.55 7.45 41.25 10.45 41.15 13.4 41.55 17.55 40.9 20.65 40.2 23.65 38.9 26.15 L36.1 31.05 Q34.4 33.8 31.9 36.05 29.4 38.3 26.75 40.0 L21.9 42.85 Q19.65 43.95 18.45 44.6 13.05 47.5 7.3 48.3 L-4.05 47.9 Q-9.7 46.75 -14.75 43.95 -19.8 41.1 -23.85 36.8 -27.95 32.5 -30.6 26.95 -32.3 23.35 -33.15 19.7 -34.05 15.95 -34.15 12.25 -34.2 9.5 -34.95 5.65 -35.7 1.75 -36.8 -2.65 L-39.3 -11.4 -41.95 -19.35 -44.4 -25.35 Q-46.4 -29.65 -46.6 -34.15 -46.8 -38.65 -45.25 -42.8 -43.75 -47.0 -40.8 -50.35 -37.8 -53.7 -33.5 -55.75 -29.15 -57.75 -24.7 -57.95 -20.2 -58.15 -16.0 -56.6 -11.85 -55.1 -8.45 -52.15 -5.1 -49.15 -3.05 -44.85 -2.05 -42.85 0.4 -40.1 L6.2 -34.25 13.2 -28.0 Q16.8 -24.9 20.2 -22.1" fill="#666666" fill-rule="evenodd" stroke="none"/>
      <path d="M20.2 -22.1 Q16.8 -24.9 13.2 -28.0 L6.2 -34.25 0.4 -40.1 Q-2.05 -42.85 -3.05 -44.85 -5.1 -49.15 -8.45 -52.15 -11.85 -55.1 -16.0 -56.6 -20.2 -58.15 -24.7 -57.95 -29.15 -57.75 -33.5 -55.75 -37.8 -53.7 -40.8 -50.35 -43.75 -47.0 -45.25 -42.8 -46.8 -38.65 -46.6 -34.15 -46.4 -29.65 -44.4 -25.35 L-41.95 -19.35 -39.3 -11.4 -36.8 -2.65 Q-35.7 1.75 -34.95 5.65 -34.2 9.5 -34.15 12.25 -34.05 15.95 -33.15 19.7 -32.3 23.35 -30.6 26.95 -27.95 32.5 -23.85 36.8 -19.8 41.1 -14.75 43.95 -9.7 46.75 -4.05 47.9 L7.3 48.3 Q13.05 47.5 18.45 44.6 19.65 43.95 21.9 42.85 L26.75 40.0 Q29.4 38.3 31.9 36.05 34.4 33.8 36.1 31.05 L38.9 26.15 Q40.2 23.65 40.9 20.65 41.55 17.55 41.15 13.4 41.25 10.45 40.55 7.45 39.8 4.4 38.65 1.35 L36.1 -4.45 Q34.25 -8.35 31.7 -11.55 29.15 -14.8 26.05 -17.35 L20.2 -22.1" fill="none" stroke="#000000" stroke-linecap="round" stroke-linejoin="round" stroke-width="2.0"/>
      <path d="M-41.35 -19.5 L-43.85 -25.65 Q-45.65 -29.45 -45.9 -33.5 -46.15 -37.55 -45.0 -41.4 -43.8 -45.25 -41.25 -48.6 -42.45 -44.6 -42.15 -40.45 -41.85 -36.3 -40.0 -32.4 L-38.8 -29.85 -35.85 -23.65 Q-34.4 -20.5 -33.45 -17.7 L-32.5 -14.55 -31.1 -10.05 Q-30.35 -7.95 -29.25 -6.1 L-28.3 -4.75 Q-29.9 -4.65 -30.65 -3.8 -31.4 -2.7 -31.1 -1.1 L-30.4 2.0 -30.1 3.0 -29.0 8.2 -27.9 13.2 Q-27.25 15.7 -26.1 18.15 -22.85 24.85 -17.65 29.6 -12.45 34.3 -6.05 36.75 0.35 39.2 7.2 39.05 14.0 38.9 20.55 35.95 L27.65 31.95 Q31.0 29.65 33.85 26.8 36.7 23.95 38.6 20.6 40.45 17.25 41.05 13.45 40.95 16.45 40.2 19.2 L38.5 24.4 36.55 28.75 35.05 32.1 32.05 34.9 29.05 37.5 Q27.55 38.75 26.45 40.2 L25.45 39.85 25.1 39.7 Q24.9 39.8 24.75 39.95 21.65 42.35 18.1 44.0 12.65 46.5 7.0 47.15 L-4.15 46.75 Q-9.7 45.7 -14.6 43.0 -19.5 40.35 -23.45 36.25 -27.45 32.1 -30.0 26.7 -33.25 19.8 -33.45 12.3 -33.55 9.5 -34.25 5.65 L-36.15 -2.65 -38.6 -11.45 -41.35 -19.5" fill="#333333" fill-rule="evenodd" stroke="none"/>
      <path d="M24.2 -17.6 L25.1 -16.9 Q29.95 -12.9 33.2 -7.5 L34.8 -4.5 36.6 0.15 Q37.45 6.2 36.3 11.75 35.15 17.3 32.2 21.75 29.2 26.25 24.6 29.2 20.15 32.0 14.95 32.85 L4.25 32.5 Q-2.35 31.0 -8.0 26.9 -13.65 22.8 -17.55 16.65 L-18.2 15.65 Q-21.45 10.15 -22.7 4.1 -23.15 1.85 -24.2 -1.25 L-26.75 -7.9 -29.9 -15.0 -33.2 -21.65 -36.15 -27.05 -36.95 -28.35 -37.35 -29.0 Q-38.9 -31.6 -39.8 -34.4 -40.7 -37.3 -40.4 -40.1 -40.1 -42.9 -38.15 -45.35 L-36.7 -46.9 -34.8 -48.5 Q-33.5 -49.6 -31.7 -50.25 -29.95 -50.9 -28.2 -50.95 -26.45 -51.0 -25.0 -50.2 -25.5 -50.5 -25.5 -51.4 -25.55 -52.25 -25.05 -53.25 L-23.7 -55.1 Q-22.85 -55.95 -21.5 -56.25 L-18.7 -56.15 -15.7 -55.15 -13.15 -53.95 Q-9.5 -51.35 -6.95 -47.45 -5.85 -45.65 -2.85 -42.9 -1.65 -40.95 0.65 -38.4 L6.0 -33.1 12.3 -27.5 18.65 -22.15 24.2 -17.6" fill="#cccccc" fill-rule="evenodd" stroke="none"/>
      <path d="M6.0 -33.1 L12.3 -27.5 18.65 -22.15 24.2 -17.6 25.1 -16.9 Q29.95 -12.9 33.2 -7.5 L34.8 -4.5 36.6 0.15 Q37.55 7.0 36.0 13.15 34.45 19.25 30.6 23.95 33.8 19.05 34.85 13.0 35.85 6.9 34.5 0.2 L32.35 -4.45 30.5 -7.5 Q26.95 -12.9 21.75 -16.75 L20.85 -17.45 14.9 -21.85 8.1 -27.05 1.45 -32.55 -4.3 -37.75 Q-6.85 -40.25 -8.15 -42.2 -11.4 -44.9 -12.65 -46.65 -15.4 -50.6 -19.3 -53.1 L-21.45 -54.0 -23.95 -54.9 Q-23.0 -55.9 -21.5 -56.25 L-18.7 -56.15 -15.7 -55.15 -13.15 -53.95 Q-9.5 -51.35 -6.95 -47.45 -5.85 -45.65 -2.85 -42.9 -1.65 -40.95 0.65 -38.4 L6.0 -33.1" fill="#e5e5e5" fill-rule="evenodd" stroke="none"/>
      <path d="M-36.2 -27.05 L-37.0 -28.35 -37.4 -29.0 Q-38.75 -31.25 -39.6 -33.7 -40.5 -36.15 -40.5 -38.65 -40.55 -41.15 -39.4 -43.45 -39.75 -40.6 -38.85 -37.7 -37.95 -34.85 -36.4 -32.2 L-36.0 -31.55 -35.2 -30.3 -32.25 -24.85 -28.95 -18.15 -25.8 -11.1 -23.25 -4.45 Q-22.2 -1.4 -21.7 0.85 -20.45 6.95 -17.25 12.4 L-16.6 13.45 Q-12.65 19.6 -7.0 23.7 -1.4 27.75 5.25 29.3 L15.9 29.7 Q21.1 28.85 25.55 26.05 29.2 23.7 31.85 20.35 34.5 17.0 36.05 12.95 34.75 18.1 31.85 22.25 28.9 26.45 24.55 29.25 20.15 32.05 14.95 32.9 L4.25 32.5 Q-2.35 31.0 -8.0 26.9 -13.7 22.8 -17.6 16.7 L-18.2 15.65 Q-21.5 10.15 -22.7 4.15 -23.15 1.9 -24.25 -1.25 L-26.8 -7.9 -29.95 -14.95 -33.25 -21.65 -36.2 -27.05" fill="#b4b4b4" fill-rule="evenodd" stroke="none"/>
      <path d="M-4.9 -30.1 L-4.45 -28.95 -3.7 -26.1 -3.1 -22.4 Q-2.9 -20.5 -3.25 -18.8 -3.65 -17.15 -4.8 -16.2 -6.0 -15.35 -7.95 -15.35 L-12.1 -16.0 -16.25 -17.4 -19.45 -18.8 -20.75 -19.4 -4.9 -30.1" fill="#b4b4b4" fill-rule="evenodd" stroke="none"/>
      <path d="M26.1 31.4 L27.35 32.0 30.4 33.75 33.85 36.7 Q35.55 38.45 36.55 40.9 L36.35 41.3 35.75 42.0 34.7 42.25 32.45 41.95 28.65 41.55 Q26.5 41.4 24.65 41.6 22.8 41.8 22.0 42.6 L26.1 31.4" fill="#333333" fill-rule="evenodd" stroke="none"/>
      <path d="M26.1 31.4 L27.35 32.0 30.4 33.75 33.85 36.7 Q35.55 38.45 36.55 40.9 L36.35 41.3 35.75 42.0 34.7 42.25 32.45 41.95 28.65 41.55 Q26.5 41.4 24.65 41.6 22.8 41.8 22.0 42.6" fill="none" stroke="#000000" stroke-linecap="round" stroke-linejoin="round" stroke-width="2.0"/>
      <path d="M40.2 13.0 L41.4 13.45 44.35 14.85 Q46.1 15.75 47.9 17.2 49.6 18.6 50.8 20.5 L50.7 20.9 50.3 21.6 49.5 21.95 47.65 22.05 44.55 22.3 41.35 22.9 Q39.9 23.35 39.4 24.15 L40.2 13.0" fill="#333333" fill-rule="evenodd" stroke="none"/>
      <path d="M40.2 13.0 L41.4 13.45 44.35 14.85 Q46.1 15.75 47.9 17.2 49.6 18.6 50.8 20.5 L50.7 20.9 50.3 21.6 49.5 21.95 47.65 22.05 44.55 22.3 41.35 22.9 Q39.9 23.35 39.4 24.15" fill="none" stroke="#000000" stroke-linecap="round" stroke-linejoin="round" stroke-width="2.0"/>
      <path d="M-19.6 -38.05 Q-17.65 -35.3 -17.2 -32.4 L-21.95 -28.15 -25.1 -24.4 Q-26.9 -24.9 -28.65 -26.1 -30.4 -27.3 -31.75 -29.2 -33.45 -31.55 -34.0 -34.0 -34.6 -36.5 -34.0 -38.6 -33.45 -40.75 -31.75 -42.0 -30.05 -43.2 -27.9 -43.05 -25.7 -42.95 -23.5 -41.65 -21.35 -40.4 -19.6 -38.05" fill="#ffffff" fill-rule="evenodd" stroke="none"/>
      <path d="M-19.6 -38.05 Q-21.35 -40.4 -23.5 -41.65 -25.7 -42.95 -27.9 -43.05 -30.05 -43.2 -31.75 -42.0 -33.45 -40.75 -34.0 -38.6 -34.6 -36.5 -34.0 -34.0 -33.45 -31.55 -31.75 -29.2 -30.4 -27.3 -28.65 -26.1 -26.9 -24.9 -25.1 -24.4 L-21.95 -28.15 -17.2 -32.4 Q-17.65 -35.3 -19.6 -38.05" fill="none" stroke="#000000" stroke-linecap="round" stroke-linejoin="round" stroke-width="1.0"/>
      <path d="M-33.9 -38.2 Q-33.45 -40.1 -32.05 -41.3 -33.1 -39.4 -32.7 -36.8 -32.35 -34.15 -30.5 -31.65 -29.0 -29.6 -27.1 -28.45 -25.25 -27.3 -23.4 -27.15 L-25.15 -24.9 Q-26.9 -25.4 -28.6 -26.55 -30.25 -27.7 -31.6 -29.6 -33.15 -31.7 -33.75 -34.0 -34.3 -36.25 -33.9 -38.2" fill="#e5e2be" fill-rule="evenodd" stroke="none"/>
      <path d="M-5.95 -46.85 Q-4.45 -44.85 -3.75 -42.75 -3.1 -40.7 -3.25 -39.0 -7.05 -38.2 -10.3 -36.65 -12.6 -38.0 -14.5 -40.65 -16.05 -42.75 -16.75 -44.9 -17.4 -47.05 -17.2 -48.8 -17.0 -50.5 -15.8 -51.4 -14.6 -52.25 -12.85 -51.95 -11.2 -51.6 -9.35 -50.3 -7.5 -49.0 -5.95 -46.85" fill="#ffffff" fill-rule="evenodd" stroke="none"/>
      <path d="M-5.95 -46.85 Q-7.5 -49.0 -9.35 -50.3 -11.2 -51.6 -12.85 -51.95 -14.6 -52.25 -15.8 -51.4 -17.0 -50.5 -17.2 -48.8 -17.4 -47.05 -16.75 -44.9 -16.05 -42.75 -14.5 -40.65 -12.6 -38.0 -10.3 -36.65 -7.05 -38.2 -3.25 -39.0 -3.1 -40.7 -3.75 -42.75 -4.45 -44.85 -5.95 -46.85" fill="none" stroke="#000000" stroke-linecap="round" stroke-linejoin="round" stroke-width="1.0"/>
      <path d="M-15.2 -42.25 Q-16.5 -44.45 -16.85 -46.55 -17.2 -48.6 -16.55 -50.0 -16.35 -47.7 -14.85 -45.1 L-14.0 -43.8 Q-12.5 -41.8 -10.7 -40.5 -8.9 -39.2 -7.2 -38.95 -5.7 -38.7 -4.65 -39.45 L-3.75 -40.6 -3.75 -39.15 Q-7.15 -38.4 -10.05 -37.0 L-12.3 -38.7 -14.35 -40.95 -15.2 -42.25" fill="#e5e2be" fill-rule="evenodd" stroke="none"/>
      <path d="M-18.0 -35.65 Q-17.3 -34.2 -17.55 -32.9 -17.85 -31.6 -18.9 -31.05 L-21.15 -31.25 Q-22.3 -31.85 -23.0 -33.3 -23.65 -34.8 -23.4 -36.05 -23.15 -37.35 -22.1 -37.95 L-19.85 -37.75 Q-18.7 -37.1 -18.0 -35.65" fill="#000000" fill-rule="evenodd" stroke="none"/>
      <path d="M-17.95 -34.25 Q-17.7 -33.65 -17.8 -33.1 -17.9 -32.6 -18.3 -32.35 L-19.2 -32.45 Q-19.65 -32.7 -19.95 -33.3 -20.2 -33.85 -20.1 -34.35 -20.0 -34.9 -19.6 -35.1 L-18.7 -35.05 -17.95 -34.25" fill="#ffffff" fill-rule="evenodd" stroke="none"/>
      <path d="M-3.65 -42.45 Q-3.1 -41.2 -3.25 -40.15 -3.4 -39.1 -4.2 -38.7 -5.0 -38.35 -5.9 -38.9 -6.8 -39.45 -7.4 -40.65 -7.95 -41.9 -7.8 -42.95 -7.65 -44.0 -6.85 -44.4 L-5.15 -44.2 Q-4.25 -43.65 -3.65 -42.45" fill="#000000" fill-rule="evenodd" stroke="none"/>
      <path d="M-3.8 -41.15 Q-3.55 -40.7 -3.65 -40.3 -3.7 -39.85 -4.05 -39.7 L-4.75 -39.75 -5.35 -40.4 -5.5 -41.25 -5.05 -41.85 -4.35 -41.8 -3.8 -41.15" fill="#ffffff" fill-rule="evenodd" stroke="none"/>
      <path d="M89.6 -117.8 Q90.15 -117.35 90.25 -116.65 90.3 -116.0 89.9 -115.45 89.45 -114.85 88.75 -114.8 88.05 -114.7 87.5 -115.15 L87.3 -115.3 87.85 -116.0 88.05 -115.8 88.65 -115.65 Q89.0 -115.65 89.25 -115.95 L89.4 -116.6 89.1 -117.15 88.85 -117.25 89.4 -117.95 89.6 -117.8" fill="#c1c1c6" fill-rule="evenodd" stroke="none"/>
      <path d="M89.6 -117.8 L89.4 -117.95 88.85 -117.25 89.1 -117.15 89.4 -116.6 89.25 -115.95 Q89.0 -115.65 88.65 -115.65 L88.05 -115.8 87.85 -116.0 87.3 -115.3 87.5 -115.15 Q88.05 -114.7 88.75 -114.8 89.45 -114.85 89.9 -115.45 90.3 -116.0 90.25 -116.65 90.15 -117.35 89.6 -117.8" fill="none" stroke="#000000" stroke-linecap="round" stroke-linejoin="round" stroke-width="1.0"/>
      <path d="M61.95 -85.95 L62.6 -84.85 Q62.65 -84.15 62.25 -83.6 61.8 -83.0 61.1 -82.95 60.4 -82.9 59.85 -83.3 L59.65 -83.45 60.2 -84.15 60.4 -83.95 61.0 -83.8 Q61.35 -83.8 61.55 -84.1 L61.75 -84.75 61.45 -85.3 61.2 -85.4 61.75 -86.1 61.95 -85.95" fill="#c1c1c6" fill-rule="evenodd" stroke="none"/>
      <path d="M61.95 -85.95 L61.75 -86.1 61.2 -85.4 61.45 -85.3 61.75 -84.75 61.55 -84.1 Q61.35 -83.8 61.0 -83.8 L60.4 -83.95 60.2 -84.15 59.65 -83.45 59.85 -83.3 Q60.4 -82.9 61.1 -82.95 61.8 -83.0 62.25 -83.6 62.65 -84.15 62.6 -84.85 L61.95 -85.95" fill="none" stroke="#000000" stroke-linecap="round" stroke-linejoin="round" stroke-width="1.0"/>
      <path d="M39.9 -59.35 Q40.45 -58.9 40.55 -58.25 40.6 -57.55 40.2 -57.0 39.75 -56.4 39.05 -56.35 38.35 -56.3 37.8 -56.7 L37.6 -56.85 38.15 -57.55 38.35 -57.35 38.95 -57.2 Q39.3 -57.2 39.55 -57.5 L39.7 -58.15 39.4 -58.7 39.15 -58.8 39.7 -59.5 39.9 -59.35" fill="#c1c1c6" fill-rule="evenodd" stroke="none"/>
      <path d="M39.9 -59.35 L39.7 -59.5 39.15 -58.8 39.4 -58.7 39.7 -58.15 39.55 -57.5 Q39.3 -57.2 38.95 -57.2 L38.35 -57.35 38.15 -57.55 37.6 -56.85 37.8 -56.7 Q38.35 -56.3 39.05 -56.35 39.75 -56.4 40.2 -57.0 40.6 -57.55 40.55 -58.25 40.45 -58.9 39.9 -59.35" fill="none" stroke="#000000" stroke-linecap="round" stroke-linejoin="round" stroke-width="1.0"/>
      <path d="M15.95 -32.35 Q16.5 -31.9 16.6 -31.25 16.65 -30.55 16.25 -30.0 15.8 -29.4 15.1 -29.35 14.4 -29.3 13.85 -29.7 L13.65 -29.85 14.2 -30.55 14.4 -30.35 15.0 -30.2 Q15.35 -30.2 15.55 -30.5 L15.75 -31.15 15.45 -31.7 15.2 -31.8 15.75 -32.5 15.95 -32.35" fill="#c1c1c6" fill-rule="evenodd" stroke="none"/>
      <path d="M15.95 -32.35 L15.75 -32.5 15.2 -31.8 15.45 -31.7 15.75 -31.15 15.55 -30.5 Q15.35 -30.2 15.0 -30.2 L14.4 -30.35 14.2 -30.55 13.65 -29.85 13.85 -29.7 Q14.4 -29.3 15.1 -29.35 15.8 -29.4 16.25 -30.0 16.65 -30.55 16.6 -31.25 16.5 -31.9 15.95 -32.35" fill="none" stroke="#000000" stroke-linecap="round" stroke-linejoin="round" stroke-width="1.0"/>
      <path d="M115.1 -148.1 L115.75 -147.0 Q115.8 -146.3 115.4 -145.75 114.95 -145.15 114.25 -145.1 113.55 -145.05 113.0 -145.45 L112.8 -145.6 113.35 -146.3 113.55 -146.1 114.15 -145.95 Q114.5 -145.95 114.75 -146.25 L114.9 -146.9 114.6 -147.45 114.35 -147.55 114.9 -148.25 115.1 -148.1" fill="#c1c1c6" fill-rule="evenodd" stroke="none"/>
      <path d="M115.1 -148.1 L114.9 -148.25 114.35 -147.55 114.6 -147.45 114.9 -146.9 114.75 -146.25 Q114.5 -145.95 114.15 -145.95 L113.55 -146.1 113.35 -146.3 112.8 -145.6 113.0 -145.45 Q113.55 -145.05 114.25 -145.1 114.95 -145.15 115.4 -145.75 115.8 -146.3 115.75 -147.0 L115.1 -148.1" fill="none" stroke="#000000" stroke-linecap="round" stroke-linejoin="round" stroke-width="1.0"/>
      <path d="M132.75 -168.9 Q133.3 -168.45 133.4 -167.75 133.45 -167.1 133.05 -166.55 132.6 -165.95 131.9 -165.9 131.2 -165.8 130.65 -166.25 L130.45 -166.4 131.0 -167.1 131.2 -166.9 131.8 -166.75 Q132.15 -166.75 132.4 -167.05 L132.55 -167.7 132.25 -168.25 132.0 -168.35 132.55 -169.05 132.75 -168.9" fill="#c1c1c6" fill-rule="evenodd" stroke="none"/>
      <path d="M132.75 -168.9 L132.55 -169.05 132.0 -168.35 132.25 -168.25 132.55 -167.7 132.4 -167.05 Q132.15 -166.75 131.8 -166.75 L131.2 -166.9 131.0 -167.1 130.45 -166.4 130.65 -166.25 Q131.2 -165.8 131.9 -165.9 132.6 -165.95 133.05 -166.55 133.45 -167.1 133.4 -167.75 133.3 -168.45 132.75 -168.9" fill="none" stroke="#000000" stroke-linecap="round" stroke-linejoin="round" stroke-width="1.0"/>
      <path d="M15.95 -10.2 Q15.95 -8.05 14.95 -6.25 13.9 -4.45 12.15 -3.4 10.4 -2.35 8.25 -2.25 6.05 -2.25 4.3 -3.25 2.5 -4.3 1.4 -6.05 0.35 -7.8 0.3 -9.95 0.3 -12.15 1.3 -13.9 2.35 -15.7 4.05 -16.8 5.8 -17.85 8.0 -17.9 10.15 -17.9 11.95 -16.9 13.75 -15.9 14.8 -14.15 15.85 -12.4 15.95 -10.2" fill="#c1c1c6" fill-rule="evenodd" stroke="none"/>
      <path d="M15.95 -10.2 Q15.95 -8.05 14.95 -6.25 13.9 -4.45 12.15 -3.4 10.4 -2.35 8.25 -2.25 6.05 -2.25 4.3 -3.25 2.5 -4.3 1.4 -6.05 0.35 -7.8 0.3 -9.95 0.3 -12.15 1.3 -13.9 2.35 -15.7 4.05 -16.8 5.8 -17.85 8.0 -17.9 10.15 -17.9 11.95 -16.9 13.75 -15.9 14.8 -14.15 15.85 -12.4 15.95 -10.2" fill="none" stroke="#000000" stroke-linecap="round" stroke-linejoin="round" stroke-width="1.0"/>
      <path d="M0.75 -9.95 Q0.75 -11.4 1.25 -12.7 1.75 -14.0 2.65 -15.0 L2.7 -15.0 Q1.8 -12.85 2.1 -10.9 2.45 -9.0 3.8 -7.6 5.2 -6.2 7.35 -5.6 10.7 -5.15 13.85 -6.05 L14.0 -5.5 Q12.95 -4.2 11.5 -3.45 10.0 -2.7 8.25 -2.65 6.2 -2.65 4.55 -3.6 2.85 -4.55 1.85 -6.2 0.8 -7.85 0.75 -9.95" fill="#b6b6b7" fill-rule="evenodd" stroke="none"/>
      <path d="M8.0 -17.45 Q10.1 -17.45 11.75 -16.5 13.45 -15.55 14.45 -13.9 15.5 -12.25 15.55 -10.15 15.55 -8.65 15.0 -7.25 14.3 -9.95 12.55 -11.9 10.8 -13.8 8.4 -14.75 6.05 -15.75 3.3 -15.65 5.25 -17.35 8.0 -17.45" fill="#d6d6d8" fill-rule="evenodd" stroke="none"/>
      <path d="M2.4 -10.0 Q2.45 -12.4 4.0 -14.05 5.6 -15.7 8.05 -15.8 10.45 -15.75 12.1 -14.2 13.75 -12.6 13.85 -10.15 13.8 -7.75 12.25 -6.1 10.6 -4.45 8.2 -4.35 5.8 -4.4 4.15 -5.95 2.5 -7.6 2.4 -10.0" fill="#d8d8d8" fill-rule="evenodd" stroke="none"/>
      <path d="M8.1 -15.35 Q10.15 -15.35 11.65 -14.05 13.1 -12.8 13.4 -10.8 12.25 -12.45 10.6 -13.55 9.0 -14.7 7.05 -15.2 L8.1 -15.35" fill="#e3e3e5" fill-rule="evenodd" stroke="none"/>
      <path d="M7.35 -5.65 L10.85 -5.55 Q9.7 -4.85 8.25 -4.75 6.4 -4.75 5.0 -5.8 3.65 -6.8 3.1 -8.5 4.55 -6.45 7.35 -5.65" fill="#bbbbbc" fill-rule="evenodd" stroke="none"/>
      <path d="M12.6 -1.25 L11.05 -0.65 7.15 -10.5 8.65 -11.1 12.6 -1.25" fill="#6d6d70" fill-rule="evenodd" stroke="none"/>
      <path d="M12.6 -1.25 L11.05 -0.65 7.15 -10.5 8.65 -11.1 12.6 -1.25" fill="none" stroke="#000000" stroke-linecap="round" stroke-linejoin="round" stroke-width="1.0"/>
      <path d="M12.05 -1.45 L11.85 -1.4 10.15 -5.95 8.3 -10.5 8.45 -10.55 9.1 -8.95 10.25 -6.0 11.4 -3.05 12.05 -1.45" fill="#7b7b7c" fill-rule="evenodd" stroke="none"/>
      <path d="M8.05 -10.4 L9.8 -5.9 11.5 -1.25 11.3 -1.2 10.7 -2.8 9.55 -5.7 8.4 -8.65 7.75 -10.25 8.05 -10.4" fill="#59595b" fill-rule="evenodd" stroke="none"/>
      <path d="M14.4 -1.05 L14.4 -0.25 13.85 0.35 11.15 1.35 10.4 1.3 9.85 0.7 Q9.7 0.25 9.85 -0.15 L10.35 -0.7 13.05 -1.75 13.85 -1.65 14.4 -1.05" fill="#6d6d70" fill-rule="evenodd" stroke="none"/>
      <path d="M14.4 -1.05 L14.4 -0.25 13.85 0.35 11.15 1.35 10.4 1.3 9.85 0.7 Q9.7 0.25 9.85 -0.15 L10.35 -0.7 13.05 -1.75 13.85 -1.65 14.4 -1.05" fill="none" stroke="#000000" stroke-linecap="round" stroke-linejoin="round" stroke-width="1.0"/>
      <path d="M10.65 -0.35 Q11.3 0.35 12.1 0.5 L11.05 0.95 10.65 0.9 10.25 0.5 10.25 0.0 10.55 -0.3 10.65 -0.35" fill="#59595b" fill-rule="evenodd" stroke="none"/>
      <path d="M13.65 -0.1 L13.55 -0.05 Q12.8 -0.65 11.85 -0.85 L13.2 -1.35 13.55 -1.3 13.95 -0.95 14.0 -0.45 13.65 -0.1" fill="#7b7b7c" fill-rule="evenodd" stroke="none"/>
      <path d="M16.05 -11.2 L16.4 -12.55 16.95 -16.45 Q17.1 -19.05 16.75 -22.7 16.35 -26.4 15.0 -31.05 L16.5 -31.75 20.35 -33.95 25.6 -37.65 Q28.4 -39.9 31.1 -42.9 33.75 -45.95 35.8 -49.75 37.85 -53.6 38.8 -58.25 L40.3 -58.85 Q41.7 -59.45 44.05 -60.75 46.35 -62.05 49.05 -64.1 51.75 -66.2 54.3 -69.1 56.8 -72.05 58.7 -75.85 60.55 -79.75 61.2 -84.6 L63.2 -85.55 Q65.15 -86.45 68.2 -88.25 L74.75 -92.75 Q78.2 -95.45 81.3 -98.95 84.4 -102.5 86.4 -106.8 88.35 -111.15 88.5 -116.25 L90.05 -117.15 94.05 -119.85 99.4 -124.25 Q102.35 -126.85 105.2 -130.2 108.05 -133.55 110.45 -137.6 112.75 -141.7 114.0 -146.45 L115.55 -147.25 119.4 -149.8 Q121.75 -151.5 124.3 -154.05 126.85 -156.65 129.05 -160.1 130.9 -163.1 132.0 -166.8" fill="none" stroke="#000000" stroke-linecap="round" stroke-linejoin="round" stroke-width="1.0"/>
      <path d="M133.15 -168.8 Q133.1 -168.3 132.6 -168.2 L-6.25 -5.65 -6.7 -5.25 Q-7.15 -4.85 -7.8 -4.75 -8.45 -4.65 -9.15 -5.2 -9.9 -6.0 -9.85 -6.65 L-9.4 -7.8 -9.05 -8.25 131.9 -168.8 Q131.95 -169.35 132.5 -169.4 133.05 -169.35 133.15 -168.8" fill="#c1c1c6" fill-rule="evenodd" stroke="none"/>
      <path d="M133.15 -168.8 Q133.05 -169.35 132.5 -169.4 131.95 -169.35 131.9 -168.8 L-9.05 -8.25 -9.4 -7.8 -9.85 -6.65 Q-9.9 -6.0 -9.15 -5.2 -8.45 -4.65 -7.8 -4.75 -7.15 -4.85 -6.7 -5.25 L-6.25 -5.65 132.6 -168.2 Q133.1 -168.3 133.15 -168.8" fill="none" stroke="#000000" stroke-linecap="round" stroke-linejoin="round" stroke-width="1.0"/>
      <path d="M132.7 -168.9 L132.75 -168.85 132.55 -168.65 132.45 -168.6 132.7 -168.9 M10.15 -28.7 L-9.25 -6.0 -9.4 -6.6 -9.4 -6.8 10.15 -28.7" fill="#dbdbdd" fill-rule="evenodd" stroke="none"/>
      <path d="M132.55 -169.0 L132.55 -168.95 132.3 -168.7 132.3 -168.75 132.55 -169.0 M5.2 -20.45 L-7.55 -5.25 -7.95 -5.2 -8.2 -5.2 5.2 -20.45" fill="#9a9a9b" fill-rule="evenodd" stroke="none"/>
      <path d="M10.05 -10.15 Q10.0 -9.35 9.45 -8.75 8.95 -8.25 8.15 -8.2 7.35 -8.2 6.8 -8.75 6.25 -9.25 6.2 -10.05 6.2 -10.85 6.75 -11.4 7.3 -11.95 8.1 -12.0 8.9 -12.0 9.45 -11.45 10.0 -10.95 10.05 -10.15" fill="#6d6d70" fill-rule="evenodd" stroke="none"/>
      <path d="M10.05 -10.15 Q10.0 -9.35 9.45 -8.75 8.95 -8.25 8.15 -8.2 7.35 -8.2 6.8 -8.75 6.25 -9.25 6.2 -10.05 6.2 -10.85 6.75 -11.4 7.3 -11.95 8.1 -12.0 8.9 -12.0 9.45 -11.45 10.0 -10.95 10.05 -10.15" fill="none" stroke="#000000" stroke-linecap="round" stroke-linejoin="round" stroke-width="1.0"/>
      <path d="M9.65 -9.85 L8.75 -10.9 Q8.25 -11.35 7.4 -11.3 L8.15 -11.55 Q8.75 -11.55 9.2 -11.15 9.65 -10.75 9.65 -10.1 L9.65 -9.85" fill="#7b7b7c" fill-rule="evenodd" stroke="none"/>
      <path d="M6.85 -10.7 Q7.4 -9.8 8.05 -9.55 L9.55 -9.5 Q9.15 -8.65 8.2 -8.6 7.55 -8.6 7.15 -9.0 6.75 -9.4 6.7 -10.05 L6.85 -10.7" fill="#59595b" fill-rule="evenodd" stroke="none"/>
      <path d="M-25.4 -6.3 L-24.0 -5.8 -20.25 -5.3 Q-17.85 -5.2 -14.8 -6.1 -12.35 -6.95 -9.8 -8.3 L-5.4 -10.95 -2.85 -12.95 -2.3 -13.1 -1.3 -12.95 Q-0.8 -12.7 -0.7 -11.45 L-0.9 -8.95 Q-1.1 -7.1 -1.75 -4.4 -2.45 -1.8 -3.8 1.05 -5.2 3.85 -7.45 6.4 -9.75 8.85 -13.15 10.5 -16.55 12.1 -21.25 12.25 -26.0 12.4 -32.25 10.65 L-25.4 -6.3" fill="#666666" fill-rule="evenodd" stroke="none"/>
      <path d="M-25.4 -6.3 L-24.0 -5.8 -20.25 -5.3 Q-17.85 -5.2 -14.8 -6.1 -12.35 -6.95 -9.8 -8.3 L-5.4 -10.95 -2.85 -12.95 -2.3 -13.1 -1.3 -12.95 Q-0.8 -12.7 -0.7 -11.45 L-0.9 -8.95 Q-1.1 -7.1 -1.75 -4.4 -2.45 -1.8 -3.8 1.05 -5.2 3.85 -7.45 6.4 -9.75 8.85 -13.15 10.5 -16.55 12.1 -21.25 12.25 -26.0 12.4 -32.25 10.65" fill="none" stroke="#000000" stroke-linecap="round" stroke-linejoin="round" stroke-width="2.0"/>
      <path d="M-32.3 -0.45 Q-31.95 -0.95 -31.6 -0.45 L-28.8 3.25 Q-27.25 5.1 -24.85 6.35 -22.45 7.55 -18.65 7.4 L-18.65 7.35 Q-15.35 6.25 -11.45 4.2 L-3.75 -0.55 Q-5.85 4.0 -9.1 6.75 -12.4 9.4 -16.45 10.5 -20.55 11.6 -24.9 11.25 -29.3 10.95 -33.55 9.4 -33.4 8.4 -33.6 7.5 L-34.0 5.65 Q-34.15 4.7 -33.75 3.6 L-33.5 2.55 -33.0 0.85 -32.3 -0.45" fill="#333333" fill-rule="evenodd" stroke="none"/>
      <path d="M-20.85 -4.0 Q-22.05 -4.25 -23.05 -4.65 L-25.1 -5.45 -23.05 -5.0 -19.4 -4.85 Q-17.3 -4.95 -14.75 -5.7 -12.35 -6.55 -9.85 -7.85 -7.35 -9.2 -5.4 -10.5 L-2.65 -12.6 -2.15 -12.75 -1.6 -12.7 -1.25 -12.15 -1.1 -11.4 -1.1 -10.85 Q-1.15 -9.9 -1.55 -7.9 -1.9 -5.85 -2.75 -3.25 -3.65 -0.7 -5.2 2.0 -6.75 4.65 -9.15 6.9 -11.55 9.1 -14.9 10.5 L-12.4 8.55 Q-10.9 7.05 -9.35 4.95 -7.8 2.8 -6.5 0.5 -5.25 -1.85 -4.55 -3.9 -3.85 -6.0 -4.1 -7.4 -4.25 -8.15 -5.65 -7.8 L-9.15 -6.6 Q-11.3 -5.75 -13.55 -4.95 -15.85 -4.15 -17.8 -3.95 L-20.85 -4.0" fill="#999999" fill-rule="evenodd" stroke="none"/>
      <path d="M-1.0 -22.5 Q-1.55 -20.75 -3.3 -19.6 -4.8 -18.75 -6.9 -18.5 L-11.25 -18.35 -15.5 -18.8 -18.75 -19.35 -20.05 -19.65 -1.3 -30.2 -0.95 -28.95 -0.55 -26.0 Q-0.45 -24.25 -1.0 -22.5" fill="#d8a235" fill-rule="evenodd" stroke="none"/>
      <path d="M-1.0 -22.5 Q-0.45 -24.25 -0.55 -26.0 L-0.95 -28.95 -1.3 -30.2 -20.05 -19.65 -18.75 -19.35 -15.5 -18.8 -11.25 -18.35 -6.9 -18.5 Q-4.8 -18.75 -3.3 -19.6 -1.55 -20.75 -1.0 -22.5" fill="none" stroke="#000000" stroke-linecap="round" stroke-linejoin="round" stroke-width="1.0"/>
      <path d="M-3.65 -28.05 L-3.35 -27.3 -2.95 -25.5 Q-2.85 -24.45 -3.25 -23.35 -3.65 -22.25 -4.9 -21.45 -6.2 -20.75 -8.0 -20.6 L-11.4 -20.7 -14.15 -21.2 -15.35 -21.45 -3.65 -28.05" fill="#c12d05" fill-rule="evenodd" stroke="none"/>
      <path d="M-3.65 -28.05 L-15.35 -21.45 -14.15 -21.2 -11.4 -20.7 -8.0 -20.6 Q-6.2 -20.75 -4.9 -21.45 -3.65 -22.25 -3.25 -23.35 -2.85 -24.45 -2.95 -25.5 L-3.35 -27.3 -3.65 -28.05" fill="none" stroke="#000000" stroke-linecap="round" stroke-linejoin="round" stroke-width="1.0"/>
      <path d="M-11.1 -23.45 Q-9.3 -22.35 -7.3 -22.55 -5.2 -22.8 -3.45 -23.95 -3.7 -22.7 -5.15 -21.8 -6.45 -21.05 -8.2 -20.95 L-11.6 -21.1 -14.3 -21.6 -13.1 -22.3 -11.1 -23.45" fill="#9b0d0d" fill-rule="evenodd" stroke="none"/>
      <path d="M-1.25 -35.4 L-0.25 -34.6 Q0.2 -34.05 0.1 -33.35 0.0 -32.75 -0.5 -32.35 -1.05 -31.95 -1.55 -31.75 L-2.1 -31.5 Q-1.95 -29.65 -2.45 -28.7 -3.05 -27.75 -4.05 -27.3 -5.05 -26.85 -6.3 -26.55 L-8.9 -25.8 -11.25 -24.6 -13.55 -23.2 -15.3 -22.2 Q-16.45 -21.55 -17.75 -20.85 -19.1 -20.2 -20.3 -19.85 L-22.15 -19.95 -23.15 -20.65 Q-23.35 -20.9 -22.75 -21.3 L-20.85 -22.9 -18.3 -25.1 Q-17.05 -26.3 -16.1 -27.65 L-14.95 -29.7 Q-14.5 -30.75 -14.4 -31.95 L-14.35 -33.05 -14.2 -34.45 -13.65 -35.5 -12.5 -35.45 Q-11.45 -34.9 -9.65 -34.85 L-6.1 -35.0 -3.05 -35.45 -1.75 -35.7 -1.25 -35.4" fill="#f9c248" fill-rule="evenodd" stroke="none"/>
      <path d="M-1.25 -35.4 L-0.25 -34.6 Q0.2 -34.05 0.1 -33.35 0.0 -32.75 -0.5 -32.35 -1.05 -31.95 -1.55 -31.75 L-2.1 -31.5 Q-1.95 -29.65 -2.45 -28.7 -3.05 -27.75 -4.05 -27.3 -5.05 -26.85 -6.3 -26.55 L-8.9 -25.8 -11.25 -24.6 -13.55 -23.2 -15.3 -22.2 Q-16.45 -21.55 -17.75 -20.85 -19.1 -20.2 -20.3 -19.85 L-22.15 -19.95 -23.15 -20.65 Q-23.35 -20.9 -22.75 -21.3 L-20.85 -22.9 -18.3 -25.1 Q-17.05 -26.3 -16.1 -27.65 L-14.95 -29.7 Q-14.5 -30.75 -14.4 -31.95 L-14.35 -33.05 -14.2 -34.45 -13.65 -35.5 -12.5 -35.45 Q-11.45 -34.9 -9.65 -34.85 L-6.1 -35.0 -3.05 -35.45 -1.75 -35.7 -1.25 -35.4" fill="none" stroke="#000000" stroke-linecap="round" stroke-linejoin="round" stroke-width="1.0"/>
      <path d="M-1.3 -33.45 Q-1.05 -33.85 -1.15 -34.2 L-0.95 -34.85 -0.35 -34.2 Q-0.1 -33.8 -0.15 -33.4 -0.25 -33.0 -0.7 -32.65 L-1.65 -32.05 -2.45 -31.75 Q-2.55 -31.65 -2.7 -31.65 L-2.4 -31.25 Q-2.2 -29.55 -2.8 -28.65 -3.4 -27.8 -4.4 -27.45 L-6.75 -26.75 -9.15 -26.05 -12.3 -24.4 -14.8 -22.9 -17.15 -21.55 Q-18.55 -20.8 -19.95 -20.35 L-21.95 -20.25 -22.4 -20.55 -22.75 -20.8 -22.8 -20.9 Q-21.95 -20.7 -21.1 -20.9 L-19.7 -21.4 -18.95 -21.8 -15.0 -23.95 Q-12.85 -25.25 -10.8 -27.0 L-9.9 -27.85 -8.8 -28.6 -7.3 -28.8 -5.8 -28.85 Q-5.05 -29.0 -4.5 -29.6 L-3.6 -30.9 -3.4 -31.75 -3.05 -32.45 -2.15 -32.95 Q-1.6 -33.05 -1.3 -33.45" fill="#d8a235" fill-rule="evenodd" stroke="none"/>
      <path d="M-11.9 -30.6 L-11.35 -30.75 -10.5 -30.8 Q-10.1 -30.8 -10.45 -30.4 -10.9 -29.75 -11.15 -29.85 L-11.9 -30.6" fill="#d8a235" fill-rule="evenodd" stroke="none"/>
      <path d="M-4.75 -34.2 L-10.2 -33.9 -10.8 -34.0 -11.85 -34.15 -12.65 -34.1 -13.1 -33.3 Q-13.25 -32.7 -13.95 -32.25 L-14.0 -32.95 -13.95 -34.35 -13.5 -35.25 -13.05 -35.35 Q-12.65 -35.4 -12.25 -35.05 L-10.85 -34.7 -7.2 -34.55 Q-4.85 -34.6 -2.1 -35.55 L-2.5 -35.05 Q-3.0 -34.6 -4.75 -34.2" fill="#ffe4b3" fill-rule="evenodd" stroke="none"/>
    </g>
    <g id="sprite1" transform="matrix(1, 0, 0, 1, 0.0, 41.05)">
      <use height="190.15" transform="matrix(0.5998, 0.0, 0.0, 0.5998, 52.4357, 0.8397)" width="151.65" xlink:href="#shape3"/>
      <use height="63.3" transform="matrix(0.1, 0.0, 0.0, 0.1, 162.8353, 43.4353)" width="63.3" xlink:href="#shape4"/>
      <use height="63.3" transform="matrix(0.1, 0.0, 0.0, 0.1, 134.7353, 21.1353)" width="63.3" xlink:href="#shape4"/>
      <use height="63.3" transform="matrix(0.1, 0.0, 0.0, 0.1, 156.1853, 13.6853)" width="63.3" xlink:href="#shape4"/>
      <use height="63.3" transform="matrix(0.1, 0.0, 0.0, 0.1, 34.5853, 12.0353)" width="63.3" xlink:href="#shape4"/>
      <use height="63.3" transform="matrix(0.1, 0.0, 0.0, 0.1, 46.9853, -13.6147)" width="63.3" xlink:href="#shape4"/>
      <use height="63.3" transform="matrix(0.1, 0.0, 0.0, 0.1, 22.1853, -13.6147)" width="63.3" xlink:href="#shape4"/>
    </g>
    <g id="shape3" transform="matrix(1, 0, 0, 1, 75.8, 95.05)">
      <path d="M-6.75 -94.95 Q1.65 -96.05 10.15 -86.35 18.85 -76.35 23.25 -59.8 28.2 -41.3 25.9 -20.75 23.9 -2.7 16.45 14.6 23.15 1.85 31.4 -8.85 54.65 -38.95 70.25 -18.1 83.1 -0.95 66.4 31.5 55.0 53.9 38.95 68.5 23.2 82.85 -0.5 92.85 -19.4 100.8 -35.5 80.55 -42.25 72.0 -49.3 57.4 L-59.1 35.9 Q-70.85 11.0 -74.4 -8.4 -79.9 -38.65 -63.75 -48.55 -48.6 -57.75 -33.65 -9.15 -26.2 15.2 -21.75 41.35 -23.5 8.0 -22.5 -25.7 -20.5 -93.15 -6.75 -94.95" fill="#ffffff" fill-opacity="0.4" fill-rule="evenodd" stroke="none"/>
    </g>
    <g id="shape4" transform="matrix(1, 0, 0, 1, 31.65, 31.65)">
      <path d="M0.0 -31.65 Q13.1 -31.65 22.35 -22.4 31.65 -13.1 31.65 0.0 31.65 13.1 22.35 22.35 13.1 31.65 0.0 31.65 -13.1 31.65 -22.4 22.35 -31.65 13.1 -31.65 0.0 -31.65 -13.1 -22.4 -22.4 -13.1 -31.65 0.0 -31.65" fill="#ffffff" fill-opacity="0.3019608" fill-rule="evenodd" stroke="none"/>
    </g>
  </defs>
</svg>
