<?xml version="1.0" encoding="UTF-8" standalone="no"?>
<svg xmlns:xlink="http://www.w3.org/1999/xlink" height="22.95px" width="69.95px" xmlns="http://www.w3.org/2000/svg">
  <g transform="matrix(1, 0, 0, 1, 38.75, -2.75)">
    <use height="19.7" transform="matrix(1.0, 0.0, 0.0, 1.0, 3.0, 4.15)" width="18.6" xlink:href="#shape0"/>
    <use height="23.5" transform="matrix(0.9145, 0.0, 0.0, 0.9145, 28.6355, 3.9355)" width="5.05" xlink:href="#sprite0"/>
    <use height="23.5" transform="matrix(0.4787, 0.0, 0.0, 0.4787, 24.0713, 9.0713)" width="5.05" xlink:href="#sprite0"/>
  </g>
  <defs>
    <g id="shape0" transform="matrix(1, 0, 0, 1, -3.0, -4.15)">
      <path d="M14.55 9.0 L16.0 9.0 Q18.0 9.0 18.0 11.0 L18.0 16.5 Q18.0 18.5 16.0 18.5 L15.5 18.5 5.0 18.5 Q3.0 18.5 3.0 16.5 L3.0 11.0 Q3.0 9.0 5.0 9.0 L14.55 9.0 12.25 10.25 14.55 9.0 M12.75 15.75 L15.5 18.5 12.75 15.75" fill="#666666" fill-rule="evenodd" stroke="none"/>
      <path d="M14.55 9.0 L12.25 10.25 M14.55 9.0 L19.5 6.25 19.5 21.75 M15.5 18.5 L12.75 15.75 M18.75 21.75 L15.5 18.5" fill="none" stroke="#666666" stroke-linecap="round" stroke-linejoin="round" stroke-width="4.25"/>
    </g>
    <g id="sprite0" transform="matrix(1, 0, 0, 1, 1.0, 1.0)">
      <use height="23.5" transform="matrix(1.0, 0.0, 0.0, 1.0, -1.0, -1.0)" width="5.05" xlink:href="#shape1"/>
    </g>
    <g id="shape1" transform="matrix(1, 0, 0, 1, 1.0, 1.0)">
      <path d="M0.0 0.0 Q6.1 11.2 0.0 21.5" fill="none" stroke="#666666" stroke-linecap="round" stroke-linejoin="round" stroke-width="2.0"/>
    </g>
  </defs>
</svg>
