<?xml version="1.0" encoding="UTF-8" standalone="no"?>
<svg xmlns:xlink="http://www.w3.org/1999/xlink" height="22.95px" width="69.95px" xmlns="http://www.w3.org/2000/svg">
  <g transform="matrix(1, 0, 0, 1, 38.75, -2.75)">
    <use height="22.5" transform="matrix(1.0, 0.0, 0.0, 1.0, -38.75, 2.75)" width="61.0" xlink:href="#shape0"/>
    <use height="22.45" transform="matrix(1.0, 0.0, 0.0, 1.0, -35.55, 3.25)" width="33.35" xlink:href="#text0"/>
    <use height="19.7" transform="matrix(1.0, 0.0, 0.0, 1.0, 3.0, 4.15)" width="18.6" xlink:href="#shape1"/>
  </g>
  <defs>
    <g id="shape0" transform="matrix(1, 0, 0, 1, 38.75, -2.75)">
      <path d="M22.25 23.35 Q22.25 25.25 19.2 25.25 L-35.7 25.25 Q-38.75 25.25 -38.75 23.35 L-38.75 4.65 Q-38.75 2.75 -35.7 2.75 L19.2 2.75 Q22.25 2.75 22.25 4.65 L22.25 23.35" fill="#ffffff" fill-opacity="0.0" fill-rule="evenodd" stroke="none"/>
    </g>
    <g id="text0" transform="matrix(1, 0, 0, 1, -3.2, -0.5)">
      <g transform="matrix(1.0, 0.0, 0.0, 1.0, 0.0, 0.0)">
        <use fill="#666666" height="22.45" transform="matrix(0.0098, 0.0, 0.0, 0.0098, 7.0, 10.0)" width="33.35" xlink:href="#font_Century_Gothic_C0"/>
        <use fill="#666666" height="22.45" transform="matrix(0.0098, 0.0, 0.0, 0.0098, 14.8, 10.0)" width="33.35" xlink:href="#font_Century_Gothic_l0"/>
        <use fill="#666666" height="22.45" transform="matrix(0.0098, 0.0, 0.0, 0.0098, 17.2, 10.0)" width="33.35" xlink:href="#font_Century_Gothic_i0"/>
        <use fill="#666666" height="22.45" transform="matrix(0.0098, 0.0, 0.0, 0.0098, 19.6, 10.0)" width="33.35" xlink:href="#font_Century_Gothic_c0"/>
        <use fill="#666666" height="22.45" transform="matrix(0.0098, 0.0, 0.0, 0.0098, 26.0, 10.0)" width="33.35" xlink:href="#font_Century_Gothic_k0"/>
      </g>
      <g transform="matrix(1.0, 0.0, 0.0, 1.0, 0.0, 0.0)">
        <use fill="#666666" height="22.45" transform="matrix(0.0098, 0.0, 0.0, 0.0098, 3.0, 20.0)" width="33.35" xlink:href="#font_Century_Gothic_t0"/>
        <use fill="#666666" height="22.45" transform="matrix(0.0098, 0.0, 0.0, 0.0098, 6.0, 20.0)" width="33.35" xlink:href="#font_Century_Gothic_o0"/>
        <use fill="#666666" height="22.45" transform="matrix(0.0098, 0.0, 0.0, 0.0098, 12.4, 20.0)" width="33.35" xlink:href="#font_Century_Gothic__0"/>
        <use fill="#666666" height="22.45" transform="matrix(0.0098, 0.0, 0.0, 0.0098, 15.2, 20.0)" width="33.35" xlink:href="#font_Century_Gothic_p0"/>
        <use fill="#666666" height="22.45" transform="matrix(0.0098, 0.0, 0.0, 0.0098, 21.8, 20.0)" width="33.35" xlink:href="#font_Century_Gothic_l0"/>
        <use fill="#666666" height="22.45" transform="matrix(0.0098, 0.0, 0.0, 0.0098, 24.2, 20.0)" width="33.35" xlink:href="#font_Century_Gothic_a0"/>
        <use fill="#666666" height="22.45" transform="matrix(0.0098, 0.0, 0.0, 0.0098, 30.8, 20.0)" width="33.35" xlink:href="#font_Century_Gothic_y0"/>
      </g>
    </g>
    <g id="font_Century_Gothic_C0">
      <path d="M760.0 -604.5 L760.0 -604.5 Q699.0 -675.5 615.0 -713.5 530.5 -752.0 440.0 -752.0 333.0 -752.0 240.0 -700.5 147.5 -648.5 97.5 -563.5 48.0 -478.5 48.0 -369.0 48.0 -200.0 157.0 -92.0 266.5 16.0 437.5 16.0 530.5 16.0 603.0 -15.0 675.5 -45.5 757.0 -125.0 L661.5 -224.0 Q600.5 -165.0 550.0 -142.5 499.0 -120.0 438.0 -120.0 366.0 -120.0 307.0 -152.0 248.5 -184.0 216.0 -240.5 184.0 -297.0 184.0 -369.5 184.0 -473.5 256.5 -545.0 329.5 -616.0 435.5 -616.0 561.0 -616.0 661.5 -511.5 L760.0 -604.5" fill-rule="evenodd" stroke="none"/>
    </g>
    <g id="font_Century_Gothic_l0">
      <path d="M56.0 0.0 L56.0 0.0 192.0 0.0 192.0 -756.0 56.0 -756.0 56.0 0.0" fill-rule="evenodd" stroke="none"/>
    </g>
    <g id="font_Century_Gothic_i0">
      <path d="M56.0 0.0 L56.0 0.0 192.0 0.0 192.0 -544.0 56.0 -544.0 56.0 0.0 M124.0 -768.0 L124.0 -768.0 Q89.0 -768.0 64.5 -742.5 40.0 -717.5 40.0 -681.5 40.0 -644.0 65.0 -618.0 89.5 -592.0 125.0 -592.0 159.0 -592.0 183.5 -617.5 208.0 -643.0 208.0 -679.5 208.0 -716.5 183.0 -742.0 158.5 -768.0 124.0 -768.0" fill-rule="evenodd" stroke="none"/>
    </g>
    <g id="font_Century_Gothic_c0">
      <path d="M600.0 -436.5 L600.0 -436.5 Q559.5 -493.5 495.0 -525.0 431.0 -556.0 350.5 -556.0 263.5 -556.0 193.0 -518.5 122.5 -480.5 83.5 -414.5 44.0 -348.5 44.0 -270.0 44.0 -157.0 124.5 -72.5 205.0 12.0 347.5 12.0 505.5 12.0 592.0 -102.0 L485.5 -176.0 Q434.5 -112.0 344.0 -112.0 270.5 -112.0 225.0 -156.0 180.0 -200.0 180.0 -269.0 180.0 -340.5 227.0 -386.5 274.5 -432.0 350.5 -432.0 392.5 -432.0 423.5 -419.5 455.0 -407.5 487.0 -376.0 L600.0 -436.5" fill-rule="evenodd" stroke="none"/>
    </g>
    <g id="font_Century_Gothic_k0">
      <path d="M72.0 0.0 L72.0 0.0 208.0 0.0 208.0 -249.5 439.5 0.0 612.5 0.0 348.0 -285.0 579.5 -544.0 409.5 -544.0 208.0 -318.5 208.0 -756.0 72.0 -756.0 72.0 0.0" fill-rule="evenodd" stroke="none"/>
    </g>
    <g id="font_Century_Gothic_t0">
      <path d="M88.0 -544.0 L88.0 -544.0 16.0 -544.0 16.0 -428.0 88.0 -428.0 88.0 0.0 224.0 0.0 224.0 -428.0 304.0 -428.0 304.0 -544.0 224.0 -544.0 224.0 -744.0 88.0 -744.0 88.0 -544.0" fill-rule="evenodd" stroke="none"/>
    </g>
    <g id="font_Century_Gothic_o0">
      <path d="M328.0 -432.0 L328.0 -432.0 Q392.5 -432.0 434.5 -388.0 476.0 -343.5 476.0 -272.5 476.0 -202.0 433.5 -157.0 391.0 -112.0 327.5 -112.0 263.5 -112.0 221.5 -156.5 180.0 -201.0 180.0 -272.5 180.0 -342.5 222.0 -387.0 264.5 -432.0 328.0 -432.0 M325.0 -556.0 L325.0 -556.0 Q219.0 -556.0 137.0 -482.5 44.0 -398.0 44.0 -271.5 44.0 -153.5 126.5 -70.5 209.0 12.0 325.5 12.0 404.5 12.0 470.0 -25.5 536.0 -63.0 574.0 -129.5 612.0 -196.0 612.0 -272.5 612.0 -348.5 574.0 -414.0 536.5 -479.5 469.0 -518.0 401.5 -556.0 325.0 -556.0" fill-rule="evenodd" stroke="none"/>
    </g>
    <g id="font_Century_Gothic_p0">
      <path d="M345.0 -432.0 L345.0 -432.0 Q410.0 -432.0 453.0 -387.5 496.0 -342.5 496.0 -273.0 496.0 -202.5 452.5 -157.5 408.5 -112.0 345.0 -112.0 279.0 -112.0 235.5 -156.5 192.0 -201.0 192.0 -273.5 192.0 -344.0 235.5 -388.0 279.0 -432.0 345.0 -432.0 M64.0 -544.0 L64.0 -544.0 64.0 200.0 200.0 200.0 200.0 -59.0 Q240.5 -21.0 281.5 -4.5 322.5 12.0 370.0 12.0 476.5 12.0 554.0 -69.0 632.0 -150.5 632.0 -271.0 632.0 -396.0 556.5 -476.0 481.5 -556.0 374.0 -556.0 324.5 -556.0 281.0 -538.0 237.5 -520.0 200.0 -484.0 L200.0 -544.0 64.0 -544.0" fill-rule="evenodd" stroke="none"/>
    </g>
    <g id="font_Century_Gothic_a0">
      <path d="M331.0 -432.0 L331.0 -432.0 Q397.0 -432.0 440.5 -388.0 484.0 -344.0 484.0 -273.5 484.0 -201.0 440.5 -156.5 397.0 -112.0 331.5 -112.0 267.5 -112.0 223.5 -157.5 180.0 -202.5 180.0 -273.0 180.0 -342.5 223.0 -387.5 266.0 -432.0 331.0 -432.0 M476.0 -484.0 L476.0 -484.0 Q439.0 -520.0 395.5 -538.0 352.0 -556.0 302.5 -556.0 195.0 -556.0 119.5 -476.0 44.0 -396.0 44.0 -271.0 44.0 -150.5 122.0 -69.0 200.0 12.0 306.5 12.0 354.0 12.0 395.0 -4.5 435.5 -21.0 476.0 -58.0 L476.0 0.0 612.0 0.0 612.0 -544.0 476.0 -544.0 476.0 -484.0" fill-rule="evenodd" stroke="none"/>
    </g>
    <g id="font_Century_Gothic_y0">
      <path d="M217.5 -44.5 L217.5 -44.5 105.0 200.0 245.5 200.0 586.0 -544.0 445.5 -544.0 290.0 -203.5 149.5 -544.0 11.0 -544.0 217.5 -44.5" fill-rule="evenodd" stroke="none"/>
    </g>
    <g id="shape1" transform="matrix(1, 0, 0, 1, -3.0, -4.15)">
      <path d="M14.55 9.0 L16.0 9.0 Q18.0 9.0 18.0 11.0 L18.0 16.5 Q18.0 18.5 16.0 18.5 L15.5 18.5 5.0 18.5 Q3.0 18.5 3.0 16.5 L3.0 11.0 Q3.0 9.0 5.0 9.0 L14.55 9.0 12.25 10.25 14.55 9.0 M12.75 15.75 L15.5 18.5 12.75 15.75" fill="#666666" fill-rule="evenodd" stroke="none"/>
      <path d="M14.55 9.0 L12.25 10.25 M14.55 9.0 L19.5 6.25 19.5 21.75 M15.5 18.5 L12.75 15.75 M18.75 21.75 L15.5 18.5" fill="none" stroke="#666666" stroke-linecap="round" stroke-linejoin="round" stroke-width="4.25"/>
    </g>
  </defs>
</svg>
