<?xml version="1.0" encoding="UTF-8" standalone="no"?>
<svg xmlns:xlink="http://www.w3.org/1999/xlink" height="79.05px" width="232.2px" xmlns="http://www.w3.org/2000/svg">
  <g transform="matrix(1, 0, 0, 1, 110.0, 31.5)">
    <use height="79.05" transform="matrix(1.0, 0.0, 0.0, 1.0, -110.0, -31.5)" width="232.2" xlink:href="#morphshape0"/>
    <use height="62.8" transform="matrix(1.0, 0.0, 0.0, 1.0, -108.6, -31.5)" width="200.15" xlink:href="#morphshape1"/>
  </g>
  <defs>
    <g id="morphshape0" transform="matrix(1, 0, 0, 1, 110.0, 31.5)">
      <path d="M-110.0 39.7 Q-104.4 51.0 86.05 36.4 108.65 31.45 106.0 30.25 102.6 28.6 99.2 27.0 94.8 24.8 90.4 22.65 85.75 20.3 81.75 18.0 79.55 16.7 79.4 15.35 79.2 13.95 80.3 12.45 81.4 10.95 83.0 9.35 L86.0 5.95 Q87.35 4.2 87.8 2.3 88.2 0.4 86.85 -1.7 85.55 -3.75 81.75 -6.0 78.95 -7.6 72.05 -9.25 65.2 -10.95 55.15 -12.7 44.05 -14.45 33.0 -16.15 L7.45 -19.5 -19.5 -22.7 -45.9 -25.55 -69.85 -28.0 -89.3 -29.85 -102.45 -31.05 -107.25 -31.5 -110.0 39.7" fill="#b4e6fc" fill-rule="evenodd" stroke="none"/>
      <path d="M-110.0 39.7 L-107.25 -31.5 -102.45 -31.05 -89.3 -29.85 -69.85 -28.0 -45.9 -25.55 -19.5 -22.7 7.45 -19.5 33.0 -16.15 Q44.05 -14.45 55.15 -12.7 65.2 -10.95 72.05 -9.25 78.95 -7.6 81.75 -6.0 85.55 -3.75 86.85 -1.7 88.2 0.4 87.8 2.3 87.35 4.2 86.0 5.95 L83.0 9.35 Q81.4 10.95 80.3 12.45 79.2 13.95 79.4 15.35 79.55 16.7 81.75 18.0 85.75 20.3 90.4 22.65 94.8 24.8 99.2 27.0 102.6 28.6 106.0 30.25 108.65 31.45 86.05 36.4 -104.4 51.0 -110.0 39.7" fill="none" stroke="#000000" stroke-linecap="round" stroke-linejoin="round" stroke-opacity="0.0" stroke-width="1.0"/>
    </g>
    <g id="morphshape1" transform="matrix(1, 0, 0, 1, 108.6, 31.5)">
      <path d="M-108.4 15.6 L-108.4 15.6 Q-106.4 16.8 -104.45 18.0 -95.9 22.75 -88.0 23.55 L-83.25 23.7 Q-75.85 23.35 -69.35 24.75 -65.4 25.6 -61.8 27.05 -57.1 28.95 -52.0 29.9 L-40.95 30.9 -34.3 30.8 -23.2 30.15 -18.7 29.75 -7.15 28.45 -5.15 28.25 6.05 27.0 12.75 26.45 22.95 25.9 31.6 25.8 37.85 25.95 41.65 26.0 Q44.0 25.95 46.35 25.9 L51.0 25.55 55.3 24.95 Q57.9 24.5 60.15 23.7 L63.0 22.5 Q65.5 21.3 66.95 19.4 L67.8 18.0 Q68.85 15.95 68.5 13.1 68.25 11.9 68.0 10.75 67.6 9.6 66.2 8.7 L65.1 8.1 62.9 7.2 Q61.15 6.7 59.45 6.2 L55.45 5.3 52.7 4.75 46.5 3.4 46.4 3.4 Q43.8 2.8 42.45 1.95 L42.25 1.85 Q39.25 -0.35 37.25 -3.2 L33.3 -8.75 33.2 -8.95 Q31.15 -11.8 28.05 -14.05 24.15 -16.7 19.15 -18.35 L17.75 -18.8 Q11.9 -20.55 5.25 -21.45 2.15 -21.8 -0.9 -22.15 -4.55 -22.45 -8.15 -22.7 L-9.65 -22.8 Q-14.8 -23.05 -19.95 -23.25 L-21.3 -23.35 -31.05 -24.0 -33.0 -24.2 -41.4 -25.1 -50.9 -26.1 -107.25 -31.5 -107.25 -30.0 -107.35 -27.4 -107.35 -26.75 -107.35 -26.45 -107.4 -23.85 -107.55 -18.4 -107.55 -17.2 -107.85 -8.6 -107.85 -6.95 -108.05 0.85 -108.15 5.5 -108.25 9.35 -108.4 15.6" fill="#89d4e8" fill-rule="evenodd" stroke="none"/>
      <path d="M-108.4 15.6 L-108.25 9.35 -108.15 5.5 -108.05 0.85 -107.85 -6.95 -107.85 -8.6 -107.55 -17.2 -107.55 -18.4 -107.4 -23.85 -107.35 -26.45 -107.35 -26.75 -107.35 -27.4 -107.25 -30.0 -107.25 -31.5 -50.9 -26.1 -41.4 -25.1 -33.0 -24.2 -31.05 -24.0 -21.3 -23.35 -19.95 -23.25 Q-14.8 -23.05 -9.65 -22.8 L-8.15 -22.7 Q-4.55 -22.45 -0.9 -22.15 2.15 -21.8 5.25 -21.45 11.9 -20.55 17.75 -18.8 L19.15 -18.35 Q24.15 -16.7 28.05 -14.05 31.15 -11.8 33.2 -8.95 L33.3 -8.75 37.25 -3.2 Q39.25 -0.35 42.25 1.85 L42.45 1.95 Q43.8 2.8 46.4 3.4 L46.5 3.4 52.7 4.75 55.45 5.3 59.45 6.2 Q61.15 6.7 62.9 7.2 L65.1 8.1 66.2 8.7 Q67.6 9.6 68.0 10.75 68.25 11.9 68.5 13.1 68.85 15.95 67.8 18.0 L66.95 19.4 Q65.5 21.3 63.0 22.5 L60.15 23.7 Q57.9 24.5 55.3 24.95 L51.0 25.55 46.35 25.9 Q44.0 25.95 41.65 26.0 L37.85 25.95 31.6 25.8 22.95 25.9 12.75 26.45 6.05 27.0 -5.15 28.25 -7.15 28.45 -18.7 29.75 -23.2 30.15 -34.3 30.8 -40.95 30.9 -52.0 29.9 Q-57.1 28.95 -61.8 27.05 -65.4 25.6 -69.35 24.75 -75.85 23.35 -83.25 23.7 L-88.0 23.55 Q-95.9 22.75 -104.45 18.0 -106.4 16.8 -108.4 15.6 L-108.4 15.6" fill="none" stroke="#000000" stroke-linecap="round" stroke-linejoin="round" stroke-opacity="0.0" stroke-width="1.0"/>
    </g>
  </defs>
</svg>
