<?xml version="1.0" encoding="UTF-8" standalone="no"?>
<svg xmlns:xlink="http://www.w3.org/1999/xlink" height="79.05px" width="232.2px" xmlns="http://www.w3.org/2000/svg">
  <g transform="matrix(1, 0, 0, 1, 110.0, 31.5)">
    <use height="79.05" transform="matrix(1.0, 0.0, 0.0, 1.0, -110.0, -31.5)" width="232.2" xlink:href="#morphshape0"/>
    <use height="62.8" transform="matrix(1.0, 0.0, 0.0, 1.0, -108.6, -31.5)" width="200.15" xlink:href="#morphshape1"/>
  </g>
  <defs>
    <g id="morphshape0" transform="matrix(1, 0, 0, 1, 110.0, 31.5)">
      <path d="M-110.05 38.55 Q-92.1 52.65 89.7 35.95 109.85 31.45 107.5 30.25 104.55 28.6 101.5 26.9 97.55 24.7 92.25 22.6 86.7 20.35 82.7 18.05 80.5 16.75 80.35 15.4 80.15 14.0 81.25 12.5 82.35 11.0 83.95 9.4 L86.95 6.0 Q88.3 4.25 89.7 2.25 91.05 0.25 89.15 -1.85 87.25 -3.9 83.5 -6.75 80.65 -9.05 72.45 -10.6 64.3 -12.15 55.1 -13.3 44.95 -14.45 33.7 -16.15 L8.0 -19.5 -19.1 -22.7 -45.65 -25.55 -69.7 -28.0 -89.25 -29.85 -102.45 -31.05 -107.25 -31.5 -109.9 38.5" fill="#b4e6fc" fill-rule="evenodd" stroke="none"/>
      <path d="M-109.9 38.5 L-107.25 -31.5 -102.45 -31.05 -89.25 -29.85 -69.7 -28.0 -45.65 -25.55 -19.1 -22.7 8.0 -19.5 33.7 -16.15 Q44.95 -14.45 55.1 -13.3 64.3 -12.15 72.45 -10.6 80.65 -9.05 83.5 -6.75 87.25 -3.9 89.15 -1.85 91.05 0.25 89.7 2.25 88.3 4.25 86.95 6.0 L83.95 9.4 Q82.35 11.0 81.25 12.5 80.15 14.0 80.35 15.4 80.5 16.75 82.7 18.05 86.7 20.35 92.25 22.6 97.55 24.7 101.5 26.9 104.55 28.6 107.5 30.25 109.85 31.45 89.7 35.95 -92.1 52.65 -110.05 38.55" fill="none" stroke="#000000" stroke-linecap="round" stroke-linejoin="round" stroke-opacity="0.0" stroke-width="1.0"/>
    </g>
    <g id="morphshape1" transform="matrix(1, 0, 0, 1, 108.6, 31.5)">
      <path d="M-108.4 16.85 L-108.4 16.85 Q-106.6 18.25 -104.7 19.6 -95.95 23.55 -87.6 24.35 L-82.7 24.5 Q-75.15 24.2 -68.4 25.5 -64.3 26.3 -60.55 27.65 -55.65 29.35 -50.4 30.2 L-38.95 31.05 -32.05 30.9 -20.6 30.2 -15.95 29.8 -4.05 28.7 -2.0 28.55 9.6 27.55 16.5 27.0 27.05 26.45 36.0 26.35 42.45 26.5 46.35 26.55 Q49.2 26.5 50.75 26.35 L54.3 25.95 57.5 25.3 Q59.1 24.75 61.35 23.9 L64.25 22.65 Q66.8 21.45 68.4 19.6 L69.35 18.2 Q70.7 16.15 70.3 13.3 70.05 12.1 69.75 10.95 69.3 9.8 67.85 8.9 L66.7 8.3 64.4 7.35 Q62.7 6.85 60.85 6.35 L56.75 5.5 53.95 5.0 47.55 3.7 47.45 3.7 Q44.7 3.1 43.35 2.25 L43.15 2.15 Q40.2 0.0 39.4 -2.75 L36.85 -7.85 36.75 -8.05 Q36.15 -10.75 33.05 -12.95 29.3 -15.45 23.8 -17.1 L22.35 -17.55 Q16.0 -19.3 9.35 -20.25 5.9 -20.7 2.95 -21.15 -0.7 -21.65 -4.45 -22.05 L-5.95 -22.2 Q-11.2 -22.6 -16.55 -22.85 L-17.9 -22.95 -27.95 -23.6 -29.95 -23.8 -38.65 -24.7 -48.45 -25.7 -106.7 -31.25 -106.9 -29.9 -107.35 -27.6 -107.35 -26.95 -107.35 -26.65 -107.4 -24.0 -107.55 -18.4 -107.55 -17.2 -107.85 -8.3 -107.85 -6.6 -108.05 1.45 -108.15 6.25 -108.25 10.2 -108.4 16.65" fill="#89d4e8" fill-rule="evenodd" stroke="none"/>
      <path d="M-108.4 16.65 L-108.25 10.2 -108.15 6.25 -108.05 1.45 -107.85 -6.6 -107.85 -8.3 -107.55 -17.2 -107.55 -18.4 -107.4 -24.0 -107.35 -26.65 -107.35 -26.95 -107.35 -27.6 -106.9 -29.9 -106.7 -31.25 -48.45 -25.7 -38.65 -24.7 -29.95 -23.8 -27.95 -23.6 -17.9 -22.95 -16.55 -22.85 Q-11.2 -22.6 -5.95 -22.2 L-4.45 -22.05 Q-0.7 -21.65 2.95 -21.15 5.9 -20.7 9.35 -20.25 16.0 -19.3 22.35 -17.55 L23.8 -17.1 Q29.3 -15.45 33.05 -12.95 36.15 -10.75 36.75 -8.05 L36.85 -7.85 39.4 -2.75 Q40.2 0.0 43.15 2.15 L43.35 2.25 Q44.7 3.1 47.45 3.7 L47.55 3.7 53.95 5.0 56.75 5.5 60.85 6.35 Q62.7 6.85 64.4 7.35 L66.7 8.3 67.85 8.9 Q69.3 9.8 69.75 10.95 70.05 12.1 70.3 13.3 70.7 16.15 69.35 18.2 L68.4 19.6 Q66.8 21.45 64.25 22.65 L61.35 23.9 Q59.1 24.75 57.5 25.3 L54.3 25.95 50.75 26.35 Q49.2 26.5 46.35 26.55 L42.45 26.5 36.0 26.35 27.05 26.45 16.5 27.0 9.6 27.55 -2.0 28.55 -4.05 28.7 -15.95 29.8 -20.6 30.2 -32.05 30.9 -38.95 31.05 -50.4 30.2 Q-55.65 29.35 -60.55 27.65 -64.3 26.3 -68.4 25.5 -75.15 24.2 -82.7 24.5 L-87.6 24.35 Q-95.95 23.55 -104.7 19.6 -106.6 18.25 -108.4 16.85 L-108.4 16.85" fill="none" stroke="#000000" stroke-linecap="round" stroke-linejoin="round" stroke-opacity="0.0" stroke-width="1.0"/>
    </g>
  </defs>
</svg>
