<?xml version="1.0" encoding="UTF-8" standalone="no"?>
<svg xmlns:xlink="http://www.w3.org/1999/xlink" height="79.05px" width="232.2px" xmlns="http://www.w3.org/2000/svg">
  <g transform="matrix(1, 0, 0, 1, 110.0, 31.5)">
    <use height="79.05" transform="matrix(1.0, 0.0, 0.0, 1.0, -110.0, -31.5)" width="232.2" xlink:href="#morphshape0"/>
    <use height="62.8" transform="matrix(1.0, 0.0, 0.0, 1.0, -108.6, -31.5)" width="200.15" xlink:href="#morphshape1"/>
  </g>
  <defs>
    <g id="morphshape0" transform="matrix(1, 0, 0, 1, 110.0, 31.5)">
      <path d="M-108.9 30.95 Q-16.8 61.9 113.1 32.55 118.4 30.75 118.15 29.85 118.1 28.15 117.3 25.8 116.25 23.3 105.3 21.85 94.25 20.3 90.05 18.0 87.7 16.7 87.55 15.35 87.35 13.95 88.5 12.45 89.65 10.95 91.35 9.35 L94.55 5.95 Q95.95 4.2 103.05 1.4 110.1 -1.4 104.55 -3.15 99.05 -4.9 95.65 -11.65 92.4 -18.25 76.1 -18.85 59.8 -19.5 55.85 -16.95 51.65 -14.4 39.2 -16.15 L12.55 -19.5 -15.55 -22.7 -43.1 -25.55 -68.1 -28.0 -88.45 -29.85 -102.15 -31.05 -107.15 -31.5 -109.0 30.95" fill="#b4e6fc" fill-rule="evenodd" stroke="none"/>
      <path d="M-109.0 30.95 L-107.15 -31.5 -102.15 -31.05 -88.45 -29.85 -68.1 -28.0 -43.1 -25.55 -15.55 -22.7 12.55 -19.5 39.2 -16.15 Q51.65 -14.4 55.85 -16.95 59.8 -19.5 76.1 -18.85 92.4 -18.25 95.65 -11.65 99.05 -4.9 104.55 -3.15 110.1 -1.4 103.05 1.4 95.95 4.2 94.55 5.95 L91.35 9.35 Q89.65 10.95 88.5 12.45 87.35 13.95 87.55 15.35 87.7 16.7 90.05 18.0 94.25 20.3 105.3 21.85 116.25 23.3 117.3 25.8 118.1 28.15 118.15 29.85 118.4 30.75 113.1 32.55 -16.8 61.9 -108.9 30.95" fill="none" stroke="#000000" stroke-linecap="round" stroke-linejoin="round" stroke-opacity="0.0" stroke-width="1.0"/>
    </g>
    <g id="morphshape1" transform="matrix(1, 0, 0, 1, 108.6, 31.5)">
      <path d="M-108.65 23.05 L-108.65 23.15 Q-108.35 25.85 -106.95 28.35 -96.8 27.35 -85.65 27.95 L-79.75 28.25 Q-71.05 28.5 -62.55 29.1 -57.55 29.4 -52.65 29.8 -46.25 30.3 -39.8 30.55 L-25.8 30.35 -17.4 29.8 -3.65 28.45 1.95 28.0 16.3 28.45 18.85 28.7 33.2 29.4 41.45 29.15 54.1 28.5 65.15 28.05 73.0 28.0 77.7 28.05 Q83.55 28.2 80.1 27.2 L76.85 26.2 73.3 25.05 Q68.9 23.6 71.5 22.45 L75.0 20.85 Q77.95 19.45 80.65 17.95 L82.4 16.85 Q85.75 14.45 84.75 11.4 84.2 9.85 83.4 8.75 82.3 7.3 80.55 6.65 L79.05 6.15 76.0 4.85 Q74.85 4.3 71.9 4.0 L66.85 3.7 63.4 3.6 55.45 2.95 55.25 2.95 Q51.6 2.45 50.2 1.55 L50.2 1.55 Q47.75 -0.15 54.5 -2.05 L60.55 -4.25 60.65 -4.25 Q68.8 -5.95 65.5 -7.75 62.85 -9.25 54.35 -10.7 L52.45 -11.0 Q42.85 -12.65 36.5 -13.95 30.95 -15.15 28.7 -16.2 25.05 -18.05 20.3 -19.35 L18.5 -19.8 Q12.45 -21.25 5.75 -22.0 L4.2 -22.2 -7.85 -23.2 -10.35 -23.3 -21.1 -23.9 -32.95 -24.75 -102.8 -31.25 -104.4 -31.1 -107.15 -30.8 -107.15 -29.95 -107.15 -29.4 -107.25 -26.25 -107.45 -19.5 -107.45 -18.25 -107.75 -7.4 -107.85 -5.2 -108.1 4.45 -108.3 10.45 -108.4 15.25 -108.6 23.15" fill="#89d4e8" fill-rule="evenodd" stroke="none"/>
      <path d="M-108.6 23.15 L-108.4 15.25 -108.3 10.45 -108.1 4.45 -107.85 -5.2 -107.75 -7.4 -107.45 -18.25 -107.45 -19.5 -107.25 -26.25 -107.15 -29.4 -107.15 -29.95 -107.15 -30.8 -104.4 -31.1 -102.8 -31.25 -32.95 -24.75 -21.1 -23.9 -10.35 -23.3 -7.85 -23.2 4.2 -22.2 5.75 -22.0 Q12.45 -21.25 18.5 -19.8 L20.3 -19.35 Q25.05 -18.05 28.7 -16.2 30.95 -15.15 36.5 -13.95 42.85 -12.65 52.45 -11.0 L54.35 -10.7 Q62.85 -9.25 65.5 -7.75 68.8 -5.95 60.65 -4.25 L60.55 -4.25 54.5 -2.05 Q47.75 -0.15 50.2 1.55 L50.2 1.55 Q51.6 2.45 55.25 2.95 L55.45 2.95 63.4 3.6 66.85 3.7 71.9 4.0 Q74.85 4.3 76.0 4.85 L79.05 6.15 80.55 6.65 Q82.3 7.3 83.4 8.75 84.2 9.85 84.75 11.4 85.75 14.45 82.4 16.85 L80.65 17.95 Q77.95 19.45 75.0 20.85 L71.5 22.45 Q68.9 23.6 73.3 25.05 L76.85 26.2 80.1 27.2 Q83.55 28.2 77.7 28.05 L73.0 28.0 65.15 28.05 54.1 28.5 41.45 29.15 33.2 29.4 18.85 28.7 16.3 28.45 1.95 28.0 -3.65 28.45 -17.4 29.8 -25.8 30.35 -39.8 30.55 Q-46.25 30.3 -52.65 29.8 -57.55 29.4 -62.55 29.1 -71.05 28.5 -79.75 28.25 L-85.65 27.95 Q-96.8 27.35 -106.95 28.35 -108.35 25.85 -108.65 23.15 L-108.65 23.05" fill="none" stroke="#000000" stroke-linecap="round" stroke-linejoin="round" stroke-opacity="0.0" stroke-width="1.0"/>
    </g>
  </defs>
</svg>
