<?xml version="1.0" encoding="UTF-8" standalone="no"?>
<svg xmlns:xlink="http://www.w3.org/1999/xlink" height="79.05px" width="232.2px" xmlns="http://www.w3.org/2000/svg">
  <g transform="matrix(1, 0, 0, 1, 110.0, 31.5)">
    <use height="79.05" transform="matrix(1.0, 0.0, 0.0, 1.0, -110.0, -31.5)" width="232.2" xlink:href="#morphshape0"/>
    <use height="62.8" transform="matrix(1.0, 0.0, 0.0, 1.0, -108.6, -31.5)" width="200.15" xlink:href="#morphshape1"/>
  </g>
  <defs>
    <g id="morphshape0" transform="matrix(1, 0, 0, 1, 110.0, 31.5)">
      <path d="M-109.0 32.15 Q-29.25 60.3 109.3 33.05 117.1 30.8 116.5 29.85 115.95 28.15 114.75 25.9 113.2 23.45 103.2 21.9 93.05 20.25 88.9 17.95 86.6 16.65 86.45 15.3 86.25 13.9 87.4 12.4 88.55 10.9 90.25 9.3 L93.4 5.9 Q94.8 4.15 100.95 1.5 107.05 -1.15 102.1 -2.95 97.2 -4.75 93.75 -10.85 90.55 -16.75 75.6 -17.5 60.65 -18.3 55.8 -16.35 50.6 -14.4 38.35 -16.15 L11.85 -19.5 -16.1 -22.7 -43.5 -25.55 -68.35 -28.0 -88.55 -29.85 -102.2 -31.05 -107.2 -31.5 -109.15 32.2" fill="#b4e6fc" fill-rule="evenodd" stroke="none"/>
      <path d="M-109.15 32.2 L-107.2 -31.5 -102.2 -31.05 -88.55 -29.85 -68.35 -28.0 -43.5 -25.55 -16.1 -22.7 11.85 -19.5 38.35 -16.15 Q50.6 -14.4 55.8 -16.35 60.65 -18.3 75.6 -17.5 90.55 -16.75 93.75 -10.85 97.2 -4.75 102.1 -2.95 107.05 -1.15 100.95 1.5 94.8 4.15 93.4 5.9 L90.25 9.3 Q88.55 10.9 87.4 12.4 86.25 13.9 86.45 15.3 86.6 16.65 88.9 17.95 93.05 20.25 103.2 21.9 113.2 23.45 114.75 25.9 115.95 28.15 116.5 29.85 117.1 30.8 109.3 33.05 -29.25 60.3 -109.0 32.15" fill="none" stroke="#000000" stroke-linecap="round" stroke-linejoin="round" stroke-opacity="0.0" stroke-width="1.0"/>
    </g>
    <g id="morphshape1" transform="matrix(1, 0, 0, 1, 108.6, 31.5)">
      <path d="M-108.45 21.9 L-108.45 22.0 Q-107.9 24.5 -106.45 26.8 -96.55 26.65 -85.85 27.3 L-80.1 27.55 Q-71.6 27.7 -63.4 28.4 -58.55 28.8 -53.85 29.35 -47.7 30.05 -41.45 30.4 L-27.9 30.4 -19.75 29.9 -6.4 28.65 -0.95 28.2 13.0 28.4 15.5 28.6 29.4 29.05 37.4 28.75 49.7 28.1 60.4 27.7 68.05 27.65 72.65 27.7 Q78.0 27.85 75.4 27.0 L73.3 26.1 70.9 25.05 Q67.5 23.75 70.05 22.65 L73.45 21.1 Q76.35 19.75 78.9 18.2 L80.5 17.05 Q83.5 14.7 82.6 11.65 82.1 10.15 81.35 9.05 80.35 7.65 78.65 6.95 L77.2 6.45 74.3 5.2 Q73.05 4.65 70.25 4.35 L65.35 3.95 62.0 3.8 54.3 3.05 54.1 3.05 Q50.6 2.55 49.2 1.65 L49.15 1.65 Q46.65 -0.15 52.15 -2.2 L56.75 -4.9 56.8 -4.95 Q63.5 -6.8 60.2 -8.65 57.35 -10.3 49.35 -11.75 L47.55 -12.1 Q38.5 -13.75 32.1 -15.0 26.9 -16.05 24.55 -17.0 20.9 -18.6 16.3 -19.75 L14.55 -20.15 Q8.65 -21.4 2.2 -22.1 L0.65 -22.3 -11.1 -23.25 -13.5 -23.35 -23.9 -24.0 -35.4 -24.9 -103.35 -31.25 -104.7 -30.9 -107.1 -30.25 -107.1 -29.4 -107.1 -28.9 -107.2 -25.85 -107.4 -19.3 -107.4 -18.05 -107.7 -7.55 -107.8 -5.45 -108.05 3.95 -108.25 9.75 -108.35 14.4 -108.55 22.05" fill="#89d4e8" fill-rule="evenodd" stroke="none"/>
      <path d="M-108.55 22.05 L-108.35 14.4 -108.25 9.75 -108.05 3.95 -107.8 -5.45 -107.7 -7.55 -107.4 -18.05 -107.4 -19.3 -107.2 -25.85 -107.1 -28.9 -107.1 -29.4 -107.1 -30.25 -104.7 -30.9 -103.35 -31.25 -35.4 -24.9 -23.9 -24.0 -13.5 -23.35 -11.1 -23.25 0.65 -22.3 2.2 -22.1 Q8.65 -21.4 14.55 -20.15 L16.3 -19.75 Q20.9 -18.6 24.55 -17.0 26.9 -16.05 32.1 -15.0 38.5 -13.75 47.55 -12.1 L49.35 -11.75 Q57.35 -10.3 60.2 -8.65 63.5 -6.8 56.8 -4.95 L56.75 -4.9 52.15 -2.2 Q46.65 -0.15 49.15 1.65 L49.2 1.65 Q50.6 2.55 54.1 3.05 L54.3 3.05 62.0 3.8 65.35 3.95 70.25 4.35 Q73.05 4.65 74.3 5.2 L77.2 6.45 78.65 6.95 Q80.35 7.65 81.35 9.05 82.1 10.15 82.6 11.65 83.5 14.7 80.5 17.05 L78.9 18.2 Q76.35 19.75 73.45 21.1 L70.05 22.65 Q67.5 23.75 70.9 25.05 L73.3 26.1 75.4 27.0 Q78.0 27.85 72.65 27.7 L68.05 27.65 60.4 27.7 49.7 28.1 37.4 28.75 29.4 29.05 15.5 28.6 13.0 28.4 -0.95 28.2 -6.4 28.65 -19.75 29.9 -27.9 30.4 -41.45 30.4 Q-47.7 30.05 -53.85 29.35 -58.55 28.8 -63.4 28.4 -71.6 27.7 -80.1 27.55 L-85.85 27.3 Q-96.55 26.65 -106.45 26.8 -107.9 24.5 -108.45 22.0 L-108.45 21.9" fill="none" stroke="#000000" stroke-linecap="round" stroke-linejoin="round" stroke-opacity="0.0" stroke-width="1.0"/>
    </g>
  </defs>
</svg>
