<?xml version="1.0" encoding="UTF-8" standalone="no"?>
<svg xmlns:xlink="http://www.w3.org/1999/xlink" height="79.05px" width="232.2px" xmlns="http://www.w3.org/2000/svg">
  <g transform="matrix(1, 0, 0, 1, 110.0, 31.5)">
    <use height="79.05" transform="matrix(1.0, 0.0, 0.0, 1.0, -110.0, -31.5)" width="232.2" xlink:href="#morphshape0"/>
    <use height="62.8" transform="matrix(1.0, 0.0, 0.0, 1.0, -108.6, -31.5)" width="200.15" xlink:href="#morphshape1"/>
  </g>
  <defs>
    <g id="morphshape0" transform="matrix(1, 0, 0, 1, 110.0, 31.5)">
      <path d="M-109.4 34.75 Q-54.35 57.3 101.5 34.25 114.2 31.1 112.95 30.1 111.45 28.4 109.55 26.35 107.05 23.95 98.9 22.2 90.6 20.3 86.5 18.0 84.2 16.7 84.05 15.35 83.85 13.95 85.0 12.45 86.15 10.95 87.8 9.35 L90.9 5.95 Q92.3 4.2 96.55 1.8 100.75 -0.6 97.0 -2.5 93.3 -4.35 89.75 -9.2 86.7 -13.65 74.4 -14.7 62.15 -15.8 55.6 -15.1 48.45 -14.4 36.6 -16.15 L10.4 -19.5 -17.2 -22.7 -44.25 -25.55 -68.8 -28.0 -88.75 -29.85 -102.25 -31.05 -107.2 -31.5 -109.4 34.7" fill="#b4e6fc" fill-rule="evenodd" stroke="none"/>
      <path d="M-109.4 34.7 L-107.2 -31.5 -102.25 -31.05 -88.75 -29.85 -68.8 -28.0 -44.25 -25.55 -17.2 -22.7 10.4 -19.5 36.6 -16.15 Q48.45 -14.4 55.6 -15.1 62.15 -15.8 74.4 -14.7 86.7 -13.65 89.75 -9.2 93.3 -4.35 97.0 -2.5 100.75 -0.6 96.55 1.8 92.3 4.2 90.9 5.95 L87.8 9.35 Q86.15 10.95 85.0 12.45 83.85 13.95 84.05 15.35 84.2 16.7 86.5 18.0 90.6 20.3 98.9 22.2 107.05 23.95 109.55 26.35 111.45 28.4 112.95 30.1 114.2 31.1 101.5 34.25 -54.35 57.3 -109.4 34.75" fill="none" stroke="#000000" stroke-linecap="round" stroke-linejoin="round" stroke-opacity="0.0" stroke-width="1.0"/>
    </g>
    <g id="morphshape1" transform="matrix(1, 0, 0, 1, 108.6, 31.5)">
      <path d="M-108.3 19.85 L-108.3 19.9 Q-107.3 21.95 -105.7 23.9 -96.25 25.35 -86.5 26.05 L-81.1 26.3 Q-72.95 26.3 -65.3 27.25 -60.75 27.8 -56.4 28.65 -50.7 29.75 -44.8 30.3 L-32.05 30.6 -24.4 30.25 -11.8 29.2 -6.65 28.75 6.5 28.45 8.85 28.5 21.85 28.4 29.45 28.05 41.05 27.45 51.1 27.15 58.3 27.15 62.65 27.2 Q67.0 27.3 66.05 26.7 L66.2 25.95 66.0 25.05 Q64.6 24.0 67.05 23.0 L70.3 21.55 Q73.05 20.25 75.25 18.6 L76.6 17.4 Q78.95 15.15 78.2 12.15 77.75 10.75 77.15 9.65 76.35 8.3 74.75 7.55 L73.4 7.0 70.7 5.85 Q69.3 5.3 66.85 4.95 L62.25 4.4 59.1 4.1 51.9 3.15 51.75 3.15 Q48.55 2.6 47.15 1.7 L47.05 1.65 Q44.4 -0.25 47.4 -2.55 L49.15 -6.2 49.15 -6.3 Q52.95 -8.5 49.7 -10.5 46.5 -12.5 39.5 -14.0 L37.8 -14.35 Q29.8 -16.05 23.35 -17.2 18.85 -18.05 16.25 -18.8 12.6 -20.0 8.35 -20.85 L6.65 -21.15 Q1.0 -22.1 -5.05 -22.65 L-6.55 -22.8 -17.65 -23.65 -19.9 -23.8 -29.65 -24.5 -40.5 -25.4 -104.6 -31.45 -105.5 -30.75 -107.15 -29.45 -107.15 -28.65 -107.15 -28.2 -107.25 -25.3 -107.45 -19.1 -107.45 -17.85 -107.75 -7.95 -107.8 -6.0 -108.05 2.85 -108.2 8.3 -108.3 12.7 -108.5 19.9" fill="#89d4e8" fill-rule="evenodd" stroke="none"/>
      <path d="M-108.5 19.9 L-108.3 12.7 -108.2 8.3 -108.05 2.85 -107.8 -6.0 -107.75 -7.95 -107.45 -17.85 -107.45 -19.1 -107.25 -25.3 -107.15 -28.2 -107.15 -28.65 -107.15 -29.45 -105.5 -30.75 -104.6 -31.45 -40.5 -25.4 -29.65 -24.5 -19.9 -23.8 -17.65 -23.65 -6.55 -22.8 -5.05 -22.65 Q1.0 -22.1 6.65 -21.15 L8.35 -20.85 Q12.6 -20.0 16.25 -18.8 18.85 -18.05 23.35 -17.2 29.8 -16.05 37.8 -14.35 L39.5 -14.0 Q46.5 -12.5 49.7 -10.5 52.95 -8.5 49.15 -6.3 L49.15 -6.2 47.4 -2.55 Q44.4 -0.25 47.05 1.65 L47.15 1.7 Q48.55 2.6 51.75 3.15 L51.9 3.15 59.1 4.1 62.25 4.4 66.85 4.95 Q69.3 5.3 70.7 5.85 L73.4 7.0 74.75 7.55 Q76.35 8.3 77.15 9.65 77.75 10.75 78.2 12.15 78.95 15.15 76.6 17.4 L75.25 18.6 Q73.05 20.25 70.3 21.55 L67.05 23.0 Q64.6 24.0 66.0 25.05 L66.2 25.95 66.05 26.7 Q67.0 27.3 62.65 27.2 L58.3 27.15 51.1 27.15 41.05 27.45 29.45 28.05 21.85 28.4 8.85 28.5 6.5 28.45 -6.65 28.75 -11.8 29.2 -24.4 30.25 -32.05 30.6 -44.8 30.3 Q-50.7 29.75 -56.4 28.65 -60.75 27.8 -65.3 27.25 -72.95 26.3 -81.1 26.3 L-86.5 26.05 Q-96.25 25.35 -105.7 23.9 -107.3 21.95 -108.3 19.9 L-108.3 19.85" fill="none" stroke="#000000" stroke-linecap="round" stroke-linejoin="round" stroke-opacity="0.0" stroke-width="1.0"/>
    </g>
  </defs>
</svg>
