<?xml version="1.0" encoding="UTF-8" standalone="no"?>
<svg xmlns:xlink="http://www.w3.org/1999/xlink" height="79.05px" width="232.2px" xmlns="http://www.w3.org/2000/svg">
  <g transform="matrix(1, 0, 0, 1, 110.0, 31.5)">
    <use height="79.05" transform="matrix(1.0, 0.0, 0.0, 1.0, -110.0, -31.5)" width="232.2" xlink:href="#morphshape0"/>
    <use height="62.8" transform="matrix(1.0, 0.0, 0.0, 1.0, -108.6, -31.5)" width="200.15" xlink:href="#morphshape1"/>
  </g>
  <defs>
    <g id="morphshape0" transform="matrix(1, 0, 0, 1, 110.0, 31.5)">
      <path d="M-109.9 38.55 Q-91.9 52.7 89.9 35.95 110.0 31.45 107.7 30.3 104.8 28.6 101.8 26.85 97.9 24.6 92.55 22.55 86.95 20.35 82.9 18.05 80.65 16.75 80.5 15.4 80.3 14.0 81.45 12.5 82.6 11.0 84.25 9.4 L87.3 6.0 Q88.7 4.25 90.1 2.2 91.45 0.15 89.5 -1.9 87.6 -3.9 83.9 -6.8 81.0 -9.15 72.75 -10.65 64.55 -12.2 55.4 -13.3 45.3 -14.4 34.05 -16.15 L8.3 -19.5 -18.85 -22.7 -45.45 -25.55 -69.55 -28.0 -89.15 -29.85 -102.4 -31.05 -107.25 -31.5 -109.85 38.45" fill="#b4e6fc" fill-rule="evenodd" stroke="none"/>
      <path d="M-109.85 38.45 L-107.25 -31.5 -102.4 -31.05 -89.15 -29.85 -69.55 -28.0 -45.45 -25.55 -18.85 -22.7 8.3 -19.5 34.05 -16.15 Q45.3 -14.4 55.4 -13.3 64.55 -12.2 72.75 -10.65 81.0 -9.15 83.9 -6.8 87.6 -3.9 89.5 -1.9 91.45 0.15 90.1 2.2 88.7 4.25 87.3 6.0 L84.25 9.4 Q82.6 11.0 81.45 12.5 80.3 14.0 80.5 15.4 80.65 16.75 82.9 18.05 86.95 20.35 92.55 22.55 97.9 24.6 101.8 26.85 104.8 28.6 107.7 30.3 110.0 31.45 89.9 35.95 -91.9 52.7 -109.9 38.55" fill="none" stroke="#000000" stroke-linecap="round" stroke-linejoin="round" stroke-opacity="0.0" stroke-width="1.0"/>
    </g>
    <g id="morphshape1" transform="matrix(1, 0, 0, 1, 108.6, 31.5)">
      <path d="M-108.25 16.4 L-108.25 16.45 Q-106.5 17.9 -104.65 19.3 -95.85 23.2 -87.45 23.95 L-82.5 24.15 Q-74.9 23.9 -68.1 25.15 -64.0 25.9 -60.2 27.2 -55.25 28.9 -49.95 29.75 L-38.45 30.55 -31.55 30.35 -20.05 29.6 -15.35 29.15 -3.4 28.1 -1.3 28.0 10.35 27.05 17.3 26.55 27.85 25.95 36.85 25.8 43.35 25.9 47.3 25.95 Q50.15 25.95 51.65 25.75 L55.15 25.3 58.3 24.6 Q59.9 24.0 62.2 23.15 L65.15 21.85 Q67.75 20.6 69.4 18.8 L70.4 17.45 Q71.8 15.35 71.35 12.45 71.05 11.2 70.7 10.1 70.2 8.9 68.75 8.05 L67.55 7.5 65.2 6.5 Q63.55 5.95 61.65 5.5 L57.5 4.7 54.65 4.25 48.2 3.0 48.05 3.0 Q45.3 2.45 43.9 1.55 L43.75 1.5 Q40.85 -0.6 40.1 -3.3 L37.6 -8.35 37.55 -8.5 Q37.0 -11.15 33.85 -13.3 30.15 -15.75 24.65 -17.35 L23.15 -17.75 Q16.75 -19.45 10.15 -20.45 6.7 -20.95 3.8 -21.4 0.15 -21.95 -3.65 -22.35 L-5.2 -22.5 Q-10.5 -22.95 -15.9 -23.25 L-17.3 -23.4 -27.4 -24.1 -29.45 -24.25 -38.2 -25.1 -48.05 -26.05 -106.35 -31.65 -106.6 -30.35 -107.1 -28.1 -107.1 -27.4 -107.1 -27.05 -107.2 -24.35 -107.4 -18.7 -107.4 -17.45 -107.7 -8.5 -107.75 -6.75 -108.0 1.35 -108.15 6.2 -108.25 10.2 -108.45 16.7" fill="#89d4e8" fill-rule="evenodd" stroke="none"/>
      <path d="M-108.45 16.7 L-108.25 10.2 -108.15 6.2 -108.0 1.35 -107.75 -6.75 -107.7 -8.5 -107.4 -17.45 -107.4 -18.7 -107.2 -24.35 -107.1 -27.05 -107.1 -27.4 -107.1 -28.1 -106.6 -30.35 -106.35 -31.65 -48.05 -26.05 -38.2 -25.1 -29.45 -24.25 -27.4 -24.1 -17.3 -23.4 -15.9 -23.25 Q-10.5 -22.95 -5.2 -22.5 L-3.65 -22.35 Q0.15 -21.95 3.8 -21.4 6.7 -20.95 10.15 -20.45 16.75 -19.45 23.15 -17.75 L24.65 -17.35 Q30.15 -15.75 33.85 -13.3 37.0 -11.15 37.55 -8.5 L37.6 -8.35 40.1 -3.3 Q40.85 -0.6 43.75 1.5 L43.9 1.55 Q45.3 2.45 48.05 3.0 L48.2 3.0 54.65 4.25 57.5 4.7 61.65 5.5 Q63.55 5.95 65.2 6.5 L67.55 7.5 68.75 8.05 Q70.2 8.9 70.7 10.1 71.05 11.2 71.35 12.45 71.8 15.35 70.4 17.45 L69.4 18.8 Q67.75 20.6 65.15 21.85 L62.2 23.15 Q59.9 24.0 58.3 24.6 L55.15 25.3 51.65 25.75 Q50.15 25.95 47.3 25.95 L43.35 25.9 36.85 25.8 27.85 25.95 17.3 26.55 10.35 27.05 -1.3 28.0 -3.4 28.1 -15.35 29.15 -20.05 29.6 -31.55 30.35 -38.45 30.55 -49.95 29.75 Q-55.25 28.9 -60.2 27.2 -64.0 25.9 -68.1 25.15 -74.9 23.9 -82.5 24.15 L-87.45 23.95 Q-95.85 23.2 -104.65 19.3 -106.5 17.9 -108.25 16.45 L-108.25 16.4" fill="none" stroke="#000000" stroke-linecap="round" stroke-linejoin="round" stroke-opacity="0.0" stroke-width="1.0"/>
    </g>
  </defs>
</svg>
