<?xml version="1.0" encoding="UTF-8" standalone="no"?>
<svg xmlns:xlink="http://www.w3.org/1999/xlink" height="79.05px" width="232.2px" xmlns="http://www.w3.org/2000/svg">
  <g transform="matrix(1, 0, 0, 1, 110.0, 31.5)">
    <use height="79.05" transform="matrix(1.0, 0.0, 0.0, 1.0, -110.0, -31.5)" width="232.2" xlink:href="#morphshape0"/>
    <use height="62.8" transform="matrix(1.0, 0.0, 0.0, 1.0, -108.6, -31.5)" width="200.15" xlink:href="#morphshape1"/>
  </g>
  <defs>
    <g id="morphshape0" transform="matrix(1, 0, 0, 1, 110.0, 31.5)">
      <path d="M-109.75 36.05 Q-67.1 55.75 97.4 34.85 112.6 31.25 110.95 30.15 108.95 28.5 106.65 26.6 103.65 24.3 96.45 22.4 89.1 20.35 85.05 18.05 82.8 16.75 82.65 15.4 82.45 14.0 83.55 12.5 84.65 11.0 86.25 9.4 L89.3 6.0 Q90.65 4.25 93.95 2.0 97.2 -0.25 94.1 -2.25 91.0 -4.2 87.35 -8.35 84.4 -12.05 73.5 -13.3 62.65 -14.55 55.2 -14.5 47.05 -14.45 35.4 -16.15 L9.4 -19.5 -18.0 -22.7 -44.85 -25.55 -69.2 -28.0 -89.0 -29.85 -102.35 -31.05 -107.2 -31.5 -109.6 36.0" fill="#b4e6fc" fill-rule="evenodd" stroke="none"/>
      <path d="M-109.6 36.0 L-107.2 -31.5 -102.35 -31.05 -89.0 -29.85 -69.2 -28.0 -44.85 -25.55 -18.0 -22.7 9.4 -19.5 35.4 -16.15 Q47.05 -14.45 55.2 -14.5 62.65 -14.55 73.5 -13.3 84.4 -12.05 87.35 -8.35 91.0 -4.2 94.1 -2.25 97.2 -0.25 93.95 2.0 90.65 4.25 89.3 6.0 L86.25 9.4 Q84.65 11.0 83.55 12.5 82.45 14.0 82.65 15.4 82.8 16.75 85.05 18.05 89.1 20.35 96.45 22.4 103.65 24.3 106.65 26.6 108.95 28.5 110.95 30.15 112.6 31.25 97.4 34.85 -67.1 55.75 -109.75 36.05" fill="none" stroke="#000000" stroke-linecap="round" stroke-linejoin="round" stroke-opacity="0.0" stroke-width="1.0"/>
    </g>
    <g id="morphshape1" transform="matrix(1, 0, 0, 1, 108.6, 31.5)">
      <path d="M-108.55 18.95 L-108.55 18.95 Q-107.25 20.75 -105.5 22.5 -96.3 24.8 -87.05 25.55 L-81.85 25.75 Q-73.9 25.65 -66.55 26.75 -62.15 27.4 -58.0 28.45 -52.6 29.75 -46.95 30.4 L-34.65 30.9 -27.25 30.65 -15.05 29.75 -10.1 29.35 2.6 28.75 4.8 28.7 17.3 28.25 24.65 27.8 35.9 27.25 45.55 27.05 52.45 27.15 56.6 27.2 Q60.45 27.2 60.35 26.75 L61.65 26.15 62.6 25.35 Q62.2 24.5 64.55 23.55 L67.65 22.2 Q70.3 20.95 72.25 19.2 L73.45 17.9 Q75.45 15.75 74.85 12.85 74.5 11.55 74.05 10.4 73.4 9.15 71.85 8.35 L70.6 7.75 68.05 6.7 Q66.55 6.2 64.35 5.75 L59.95 5.1 56.95 4.7 50.05 3.6 49.95 3.6 Q46.9 3.0 45.55 2.15 L45.4 2.05 Q42.6 0.05 44.3 -2.4 L44.6 -6.55 44.55 -6.7 Q46.85 -9.1 43.7 -11.2 40.3 -13.4 33.8 -15.0 L32.2 -15.4 Q24.75 -17.15 18.2 -18.2 14.05 -18.9 11.3 -19.55 7.65 -20.5 3.6 -21.2 L2.0 -21.45 Q-3.5 -22.2 -9.3 -22.6 L-10.7 -22.7 -21.4 -23.45 -23.55 -23.65 -32.95 -24.45 -43.45 -25.4 -105.55 -31.25 -106.2 -30.3 -107.4 -28.65 -107.4 -27.95 -107.4 -27.55 -107.45 -24.75 -107.6 -18.75 -107.6 -17.55 -107.9 -8.0 -107.9 -6.15 -108.1 2.4 -108.2 7.6 -108.3 11.85 -108.45 18.8" fill="#89d4e8" fill-rule="evenodd" stroke="none"/>
      <path d="M-108.45 18.8 L-108.3 11.85 -108.2 7.6 -108.1 2.4 -107.9 -6.15 -107.9 -8.0 -107.6 -17.55 -107.6 -18.75 -107.45 -24.75 -107.4 -27.55 -107.4 -27.95 -107.4 -28.65 -106.2 -30.3 -105.55 -31.25 -43.45 -25.4 -32.95 -24.45 -23.55 -23.65 -21.4 -23.45 -10.7 -22.7 -9.3 -22.6 Q-3.5 -22.2 2.0 -21.45 L3.6 -21.2 Q7.65 -20.5 11.3 -19.55 14.05 -18.9 18.2 -18.2 24.75 -17.15 32.2 -15.4 L33.8 -15.0 Q40.3 -13.4 43.7 -11.2 46.85 -9.1 44.55 -6.7 L44.6 -6.55 44.3 -2.4 Q42.6 0.05 45.4 2.05 L45.55 2.15 Q46.9 3.0 49.95 3.6 L50.05 3.6 56.95 4.7 59.95 5.1 64.35 5.75 Q66.55 6.2 68.05 6.7 L70.6 7.75 71.85 8.35 Q73.4 9.15 74.05 10.4 74.5 11.55 74.85 12.85 75.45 15.75 73.45 17.9 L72.25 19.2 Q70.3 20.95 67.65 22.2 L64.55 23.55 Q62.2 24.5 62.6 25.35 L61.65 26.15 60.35 26.75 Q60.45 27.2 56.6 27.2 L52.45 27.15 45.55 27.05 35.9 27.25 24.65 27.8 17.3 28.25 4.8 28.7 2.6 28.75 -10.1 29.35 -15.05 29.75 -27.25 30.65 -34.65 30.9 -46.95 30.4 Q-52.6 29.75 -58.0 28.45 -62.15 27.4 -66.55 26.75 -73.9 25.65 -81.85 25.75 L-87.05 25.55 Q-96.3 24.8 -105.5 22.5 -107.25 20.75 -108.55 18.95 L-108.55 18.95" fill="none" stroke="#000000" stroke-linecap="round" stroke-linejoin="round" stroke-opacity="0.0" stroke-width="1.0"/>
    </g>
  </defs>
</svg>
