<?xml version="1.0" encoding="UTF-8" standalone="no"?>
<svg xmlns:xlink="http://www.w3.org/1999/xlink" height="79.05px" width="232.2px" xmlns="http://www.w3.org/2000/svg">
  <g transform="matrix(1, 0, 0, 1, 110.0, 31.5)">
    <use height="79.05" transform="matrix(1.0, 0.0, 0.0, 1.0, -110.0, -31.5)" width="232.2" xlink:href="#morphshape0"/>
    <use height="62.8" transform="matrix(1.0, 0.0, 0.0, 1.0, -108.6, -31.5)" width="200.15" xlink:href="#morphshape1"/>
  </g>
  <defs>
    <g id="morphshape0" transform="matrix(1, 0, 0, 1, 110.0, 31.5)">
      <path d="M-109.35 33.45 Q-42.0 58.75 105.2 33.65 115.5 30.95 114.5 29.9 113.45 28.25 111.85 26.15 109.8 23.8 100.75 22.1 91.55 20.3 87.45 18.0 85.2 16.7 85.05 15.35 84.85 13.95 85.95 12.45 87.05 10.95 88.7 9.35 L91.8 5.95 Q93.15 4.2 98.35 1.7 103.5 -0.8 99.2 -2.7 94.9 -4.6 91.35 -10.0 88.25 -15.15 74.7 -16.1 61.15 -17.05 55.4 -15.75 49.2 -14.45 37.15 -16.15 L10.85 -19.5 -16.9 -22.7 -44.1 -25.55 -68.75 -28.0 -88.8 -29.85 -102.3 -31.05 -107.2 -31.5 -109.35 33.5" fill="#b4e6fc" fill-rule="evenodd" stroke="none"/>
      <path d="M-109.35 33.5 L-107.2 -31.5 -102.3 -31.05 -88.8 -29.85 -68.75 -28.0 -44.1 -25.55 -16.9 -22.7 10.85 -19.5 37.15 -16.15 Q49.2 -14.45 55.4 -15.75 61.15 -17.05 74.7 -16.1 88.25 -15.15 91.35 -10.0 94.9 -4.6 99.2 -2.7 103.5 -0.8 98.35 1.7 93.15 4.2 91.8 5.95 L88.7 9.35 Q87.05 10.95 85.95 12.45 84.85 13.95 85.05 15.35 85.2 16.7 87.45 18.0 91.55 20.3 100.75 22.1 109.8 23.8 111.85 26.15 113.45 28.25 114.5 29.9 115.5 30.95 105.2 33.65 -42.0 58.75 -109.35 33.45" fill="none" stroke="#000000" stroke-linecap="round" stroke-linejoin="round" stroke-opacity="0.0" stroke-width="1.0"/>
    </g>
    <g id="morphshape1" transform="matrix(1, 0, 0, 1, 108.6, 31.5)">
      <path d="M-108.7 21.0 L-108.7 21.05 Q-107.85 23.3 -106.25 25.4 -96.6 26.1 -86.4 26.8 L-80.85 27.0 Q-72.55 27.05 -64.65 27.9 -59.95 28.4 -55.45 29.15 -49.6 30.05 -43.6 30.5 L-30.5 30.7 -22.6 30.3 -9.65 29.2 -4.4 28.8 9.1 28.7 11.45 28.8 24.85 28.9 32.6 28.5 44.55 27.9 54.85 27.6 62.2 27.65 66.6 27.7 Q71.45 27.75 69.7 27.05 L68.75 26.3 67.5 25.35 Q65.1 24.25 67.55 23.2 L70.8 21.75 Q73.6 20.45 75.9 18.8 L77.35 17.55 Q80.0 15.3 79.25 12.35 78.85 10.95 78.25 9.8 77.4 8.5 75.75 7.75 L74.4 7.2 71.65 6.05 Q70.3 5.55 67.75 5.15 L63.05 4.65 59.85 4.4 52.45 3.5 52.3 3.5 Q48.95 2.95 47.6 2.1 L47.5 2.05 Q44.85 0.15 49.05 -2.05 L52.2 -5.25 52.2 -5.35 Q57.4 -7.4 54.2 -9.35 51.15 -11.2 43.65 -12.75 L41.95 -13.15 Q33.45 -14.85 26.95 -16.0 22.1 -16.9 19.6 -17.75 15.95 -19.1 11.55 -20.1 L9.9 -20.45 Q4.15 -21.5 -2.05 -22.05 L-3.5 -22.2 -14.85 -23.05 -17.15 -23.2 -27.2 -23.95 -38.35 -24.9 -104.3 -31.05 -105.4 -30.45 -107.35 -29.45 -107.35 -28.7 -107.35 -28.25 -107.4 -25.3 -107.55 -18.95 -107.55 -17.75 -107.85 -7.6 -107.9 -5.6 -108.1 3.5 -108.25 9.05 -108.35 13.55 -108.5 20.95" fill="#89d4e8" fill-rule="evenodd" stroke="none"/>
      <path d="M-108.5 20.95 L-108.35 13.55 -108.25 9.05 -108.1 3.5 -107.9 -5.6 -107.85 -7.6 -107.55 -17.75 -107.55 -18.95 -107.4 -25.3 -107.35 -28.25 -107.35 -28.7 -107.35 -29.45 -105.4 -30.45 -104.3 -31.05 -38.35 -24.9 -27.2 -23.95 -17.15 -23.2 -14.85 -23.05 -3.5 -22.2 -2.05 -22.05 Q4.15 -21.5 9.9 -20.45 L11.55 -20.1 Q15.95 -19.1 19.6 -17.75 22.1 -16.9 26.95 -16.0 33.45 -14.85 41.95 -13.15 L43.65 -12.75 Q51.15 -11.2 54.2 -9.35 57.4 -7.4 52.2 -5.35 L52.2 -5.25 49.05 -2.05 Q44.85 0.15 47.5 2.05 L47.6 2.1 Q48.95 2.95 52.3 3.5 L52.45 3.5 59.85 4.4 63.05 4.65 67.75 5.15 Q70.3 5.55 71.65 6.05 L74.4 7.2 75.75 7.75 Q77.4 8.5 78.25 9.8 78.85 10.95 79.25 12.35 80.0 15.3 77.35 17.55 L75.9 18.8 Q73.6 20.45 70.8 21.75 L67.55 23.2 Q65.1 24.25 67.5 25.35 L68.75 26.3 69.7 27.05 Q71.45 27.75 66.6 27.7 L62.2 27.65 54.85 27.6 44.55 27.9 32.6 28.5 24.85 28.9 11.45 28.8 9.1 28.7 -4.4 28.8 -9.65 29.2 -22.6 30.3 -30.5 30.7 -43.6 30.5 Q-49.6 30.05 -55.45 29.15 -59.95 28.4 -64.65 27.9 -72.55 27.05 -80.85 27.0 L-86.4 26.8 Q-96.6 26.1 -106.25 25.4 -107.85 23.3 -108.7 21.05 L-108.7 21.0" fill="none" stroke="#000000" stroke-linecap="round" stroke-linejoin="round" stroke-opacity="0.0" stroke-width="1.0"/>
    </g>
  </defs>
</svg>
