<?xml version="1.0" encoding="UTF-8" standalone="no"?>
<svg xmlns:xlink="http://www.w3.org/1999/xlink" height="79.05px" width="232.2px" xmlns="http://www.w3.org/2000/svg">
  <g transform="matrix(1, 0, 0, 1, 110.0, 31.5)">
    <use height="79.05" transform="matrix(1.0, 0.0, 0.0, 1.0, -110.0, -31.5)" width="232.2" xlink:href="#morphshape0"/>
    <use height="62.8" transform="matrix(1.0, 0.0, 0.0, 1.0, -108.6, -31.5)" width="200.15" xlink:href="#morphshape1"/>
  </g>
  <defs>
    <g id="morphshape0" transform="matrix(1, 0, 0, 1, 110.0, 31.5)">
      <path d="M-109.05 30.95 Q-17.0 61.85 112.9 32.55 118.25 30.75 117.95 29.8 117.85 28.15 117.0 25.85 115.9 23.4 105.0 21.9 94.0 20.3 89.85 18.0 87.55 16.7 87.4 15.35 87.2 13.95 88.3 12.45 89.4 10.95 91.05 9.35 L94.2 5.95 Q95.55 4.2 102.65 1.45 109.7 -1.3 104.2 -3.1 98.7 -4.9 95.25 -11.6 92.05 -18.15 75.8 -18.8 59.55 -19.45 55.55 -16.95 51.3 -14.45 38.85 -16.15 L12.25 -19.5 -15.8 -22.7 -43.3 -25.55 -68.25 -28.0 -88.55 -29.85 -102.2 -31.05 -107.15 -31.5 -109.05 31.0" fill="#b4e6fc" fill-rule="evenodd" stroke="none"/>
      <path d="M-109.05 31.0 L-107.15 -31.5 -102.2 -31.05 -88.55 -29.85 -68.25 -28.0 -43.3 -25.55 -15.8 -22.7 12.25 -19.5 38.85 -16.15 Q51.3 -14.45 55.55 -16.95 59.55 -19.45 75.8 -18.8 92.05 -18.15 95.25 -11.6 98.7 -4.9 104.2 -3.1 109.7 -1.3 102.65 1.45 95.55 4.2 94.2 5.95 L91.05 9.35 Q89.4 10.95 88.3 12.45 87.2 13.95 87.4 15.35 87.55 16.7 89.85 18.0 94.0 20.3 105.0 21.9 115.9 23.4 117.0 25.85 117.85 28.15 117.95 29.8 118.25 30.75 112.9 32.55 -17.0 61.85 -109.05 30.95" fill="none" stroke="#000000" stroke-linecap="round" stroke-linejoin="round" stroke-opacity="0.0" stroke-width="1.0"/>
    </g>
    <g id="morphshape1" transform="matrix(1, 0, 0, 1, 108.6, 31.5)">
      <path d="M-108.8 23.5 L-108.8 23.55 Q-108.45 26.2 -107.0 28.65 -96.9 27.7 -85.8 28.35 L-79.95 28.6 Q-71.3 28.8 -62.85 29.45 -57.85 29.8 -53.0 30.25 -46.65 30.75 -40.25 31.0 L-26.3 30.85 -17.9 30.35 -4.2 29.05 1.35 28.65 15.65 29.05 18.15 29.25 32.45 29.9 40.65 29.6 53.3 29.0 64.3 28.6 72.1 28.6 76.75 28.65 Q82.6 28.75 79.2 27.8 L76.0 26.85 72.5 25.75 Q68.1 24.35 70.65 23.2 L74.1 21.65 Q77.0 20.3 79.65 18.75 L81.35 17.6 Q84.65 15.25 83.7 12.25 83.2 10.75 82.45 9.6 81.4 8.2 79.65 7.5 L78.2 6.95 75.2 5.7 Q74.0 5.2 71.1 4.85 L66.1 4.5 62.7 4.35 54.8 3.65 54.65 3.65 Q51.0 3.1 49.65 2.25 L49.6 2.2 Q47.1 0.45 53.8 -1.5 L59.8 -3.75 59.85 -3.8 Q67.95 -5.55 64.7 -7.4 62.0 -8.95 53.5 -10.45 L51.65 -10.8 Q42.1 -12.5 35.7 -13.75 30.15 -14.9 27.85 -15.95 24.2 -17.75 19.5 -19.05 L17.75 -19.5 Q11.75 -20.9 5.1 -21.6 L3.6 -21.75 -8.4 -22.7 -10.85 -22.85 -21.55 -23.5 -33.35 -24.4 -103.15 -30.85 -104.7 -30.65 -107.4 -30.3 -107.4 -29.5 -107.4 -29.0 -107.45 -25.9 -107.6 -19.2 -107.6 -18.0 -107.9 -7.2 -107.95 -5.05 -108.15 4.55 -108.3 10.5 -108.4 15.25 -108.55 23.1" fill="#89d4e8" fill-rule="evenodd" stroke="none"/>
      <path d="M-108.55 23.1 L-108.4 15.25 -108.3 10.5 -108.15 4.55 -107.95 -5.05 -107.9 -7.2 -107.6 -18.0 -107.6 -19.2 -107.45 -25.9 -107.4 -29.0 -107.4 -29.5 -107.4 -30.3 -104.7 -30.65 -103.15 -30.85 -33.35 -24.4 -21.55 -23.5 -10.85 -22.85 -8.4 -22.7 3.6 -21.75 5.1 -21.6 Q11.75 -20.9 17.75 -19.5 L19.5 -19.05 Q24.2 -17.75 27.85 -15.95 30.15 -14.9 35.7 -13.75 42.1 -12.5 51.65 -10.8 L53.5 -10.45 Q62.0 -8.95 64.7 -7.4 67.95 -5.55 59.85 -3.8 L59.8 -3.75 53.8 -1.5 Q47.1 0.45 49.6 2.2 L49.65 2.25 Q51.0 3.1 54.65 3.65 L54.8 3.65 62.7 4.35 66.1 4.5 71.1 4.85 Q74.0 5.2 75.2 5.7 L78.2 6.95 79.65 7.5 Q81.4 8.2 82.45 9.6 83.2 10.75 83.7 12.25 84.65 15.25 81.35 17.6 L79.65 18.75 Q77.0 20.3 74.1 21.65 L70.65 23.2 Q68.1 24.35 72.5 25.75 L76.0 26.85 79.2 27.8 Q82.6 28.75 76.75 28.65 L72.1 28.6 64.3 28.6 53.3 29.0 40.65 29.6 32.45 29.9 18.15 29.25 15.65 29.05 1.35 28.65 -4.2 29.05 -17.9 30.35 -26.3 30.85 -40.25 31.0 Q-46.65 30.75 -53.0 30.25 -57.85 29.8 -62.85 29.45 -71.3 28.8 -79.95 28.6 L-85.8 28.35 Q-96.9 27.7 -107.0 28.65 -108.45 26.2 -108.8 23.55 L-108.8 23.5" fill="none" stroke="#000000" stroke-linecap="round" stroke-linejoin="round" stroke-opacity="0.0" stroke-width="1.0"/>
    </g>
  </defs>
</svg>
