<?xml version="1.0" encoding="UTF-8" standalone="no"?>
<svg xmlns:xlink="http://www.w3.org/1999/xlink" height="79.05px" width="232.2px" xmlns="http://www.w3.org/2000/svg">
  <g transform="matrix(1, 0, 0, 1, 110.0, 31.5)">
    <use height="79.05" transform="matrix(1.0, 0.0, 0.0, 1.0, -110.0, -31.5)" width="232.2" xlink:href="#morphshape0"/>
    <use height="62.8" transform="matrix(1.0, 0.0, 0.0, 1.0, -108.6, -31.5)" width="200.15" xlink:href="#morphshape1"/>
  </g>
  <defs>
    <g id="morphshape0" transform="matrix(1, 0, 0, 1, 110.0, 31.5)">
      <path d="M-108.85 29.65 Q-4.45 63.35 116.8 31.95 119.7 30.6 119.75 29.7 120.1 28.05 119.6 25.65 118.95 23.15 107.1 21.75 95.2 20.25 91.05 17.95 88.75 16.65 88.6 15.3 88.4 13.9 89.5 12.4 90.6 10.9 92.25 9.3 L95.4 5.9 Q96.75 4.15 104.8 1.3 112.8 -1.55 106.7 -3.3 100.6 -5.05 97.2 -12.4 93.95 -19.65 76.35 -20.15 58.75 -20.65 55.6 -17.55 52.35 -14.45 39.7 -16.15 L12.95 -19.5 -15.25 -22.7 -42.9 -25.55 -68.0 -28.0 -88.4 -29.85 -102.15 -31.05 -107.15 -31.5 -108.9 29.75" fill="#b4e6fc" fill-rule="evenodd" stroke="none"/>
      <path d="M-108.9 29.75 L-107.15 -31.5 -102.15 -31.05 -88.4 -29.85 -68.0 -28.0 -42.9 -25.55 -15.25 -22.7 12.95 -19.5 39.7 -16.15 Q52.35 -14.45 55.6 -17.55 58.75 -20.65 76.35 -20.15 93.95 -19.65 97.2 -12.4 100.6 -5.05 106.7 -3.3 112.8 -1.55 104.8 1.3 96.75 4.15 95.4 5.9 L92.25 9.3 Q90.6 10.9 89.5 12.4 88.4 13.9 88.6 15.3 88.75 16.65 91.05 17.95 95.2 20.25 107.1 21.75 118.95 23.15 119.6 25.65 120.1 28.05 119.75 29.7 119.7 30.6 116.8 31.95 -4.45 63.35 -108.85 29.65" fill="none" stroke="#000000" stroke-linecap="round" stroke-linejoin="round" stroke-opacity="0.0" stroke-width="1.0"/>
    </g>
    <g id="morphshape1" transform="matrix(1, 0, 0, 1, 108.6, 31.5)">
      <path d="M-108.75 24.45 L-108.75 24.5 Q-108.65 27.35 -107.3 30.0 -97.0 28.25 -85.45 28.9 L-79.45 29.15 Q-70.6 29.45 -61.85 30.0 -56.7 30.3 -51.65 30.6 -45.05 30.9 -38.45 31.05 L-24.1 30.75 -15.45 30.2 -1.4 28.8 4.3 28.4 19.0 29.05 21.6 29.3 36.35 30.25 44.75 30.0 57.75 29.4 69.1 28.95 77.15 28.9 81.95 28.95 Q88.3 29.1 84.1 28.0 L79.8 26.95 75.2 25.8 Q69.8 24.25 72.4 23.05 L75.95 21.45 Q78.9 20.1 81.75 18.6 L83.55 17.5 Q87.15 15.1 86.1 12.05 85.55 10.5 84.7 9.35 83.55 7.9 81.75 7.25 L80.25 6.7 77.15 5.4 Q76.05 4.9 72.95 4.6 L67.8 4.35 64.3 4.25 56.15 3.65 56.0 3.65 Q52.2 3.1 50.85 2.25 L50.8 2.2 Q48.4 0.5 56.35 -1.3 L63.75 -3.1 63.8 -3.15 Q73.35 -4.75 70.05 -6.55 67.5 -7.95 58.5 -9.4 L56.6 -9.75 Q46.5 -11.45 40.15 -12.75 34.25 -14.0 32.05 -15.15 28.4 -17.15 23.55 -18.6 L21.75 -19.1 Q15.65 -20.65 8.8 -21.45 L7.25 -21.6 -5.1 -22.6 -7.6 -22.75 -18.65 -23.35 -30.8 -24.25 -102.55 -30.85 -104.3 -30.85 -107.4 -30.8 -107.4 -29.95 -107.4 -29.4 -107.45 -26.25 -107.6 -19.35 -107.6 -18.15 -107.9 -7.05 -107.95 -4.85 -108.15 5.0 -108.3 11.15 -108.4 16.05 -108.55 24.15" fill="#89d4e8" fill-rule="evenodd" stroke="none"/>
      <path d="M-108.55 24.15 L-108.4 16.05 -108.3 11.15 -108.15 5.0 -107.95 -4.85 -107.9 -7.05 -107.6 -18.15 -107.6 -19.35 -107.45 -26.25 -107.4 -29.4 -107.4 -29.95 -107.4 -30.8 -104.3 -30.85 -102.55 -30.85 -30.8 -24.25 -18.65 -23.35 -7.6 -22.75 -5.1 -22.6 7.25 -21.6 8.8 -21.45 Q15.65 -20.65 21.75 -19.1 L23.55 -18.6 Q28.4 -17.15 32.05 -15.15 34.25 -14.0 40.15 -12.75 46.5 -11.45 56.6 -9.75 L58.5 -9.4 Q67.5 -7.95 70.05 -6.55 73.35 -4.75 63.8 -3.15 L63.75 -3.1 56.35 -1.3 Q48.4 0.5 50.8 2.2 L50.85 2.25 Q52.2 3.1 56.0 3.65 L56.15 3.65 64.3 4.25 67.8 4.35 72.95 4.6 Q76.05 4.9 77.15 5.4 L80.25 6.7 81.75 7.25 Q83.55 7.9 84.7 9.35 85.55 10.5 86.1 12.05 87.15 15.1 83.55 17.5 L81.75 18.6 Q78.9 20.1 75.95 21.45 L72.4 23.05 Q69.8 24.25 75.2 25.8 L79.8 26.95 84.1 28.0 Q88.3 29.1 81.95 28.95 L77.15 28.9 69.1 28.95 57.75 29.4 44.75 30.0 36.35 30.25 21.6 29.3 19.0 29.05 4.3 28.4 -1.4 28.8 -15.45 30.2 -24.1 30.75 -38.45 31.05 Q-45.05 30.9 -51.65 30.6 -56.7 30.3 -61.85 30.0 -70.6 29.45 -79.45 29.15 L-85.45 28.9 Q-97.0 28.25 -107.3 30.0 -108.65 27.35 -108.75 24.5 L-108.75 24.45" fill="none" stroke="#000000" stroke-linecap="round" stroke-linejoin="round" stroke-opacity="0.0" stroke-width="1.0"/>
    </g>
  </defs>
</svg>
