<?xml version="1.0" encoding="UTF-8" standalone="no"?>
<svg xmlns:xlink="http://www.w3.org/1999/xlink" height="79.05px" width="232.2px" xmlns="http://www.w3.org/2000/svg">
  <g transform="matrix(1, 0, 0, 1, 110.0, 31.5)">
    <use height="79.05" transform="matrix(1.0, 0.0, 0.0, 1.0, -110.0, -31.5)" width="232.2" xlink:href="#morphshape0"/>
    <use height="62.8" transform="matrix(1.0, 0.0, 0.0, 1.0, -108.6, -31.5)" width="200.15" xlink:href="#morphshape1"/>
  </g>
  <defs>
    <g id="morphshape0" transform="matrix(1, 0, 0, 1, 110.0, 31.5)">
      <path d="M-108.75 28.5 Q8.05 65.05 120.65 31.5 121.05 30.6 121.45 29.75 122.3 28.05 122.2 25.5 122.05 22.95 109.25 21.65 96.4 20.3 92.2 18.0 89.85 16.7 89.7 15.35 89.5 13.95 90.65 12.45 91.8 10.95 93.5 9.35 L96.7 5.95 Q98.1 4.2 107.1 1.2 116.05 -1.8 109.35 -3.5 102.65 -5.2 99.35 -13.2 96.0 -21.2 77.05 -21.55 58.1 -21.9 55.85 -18.15 53.6 -14.4 40.75 -16.15 L13.8 -19.5 -14.6 -22.7 -42.45 -25.55 -67.7 -28.0 -88.25 -29.85 -102.1 -31.05 -107.15 -31.5 -108.75 28.5" fill="#b4e6fc" fill-rule="evenodd" stroke="none"/>
      <path d="M-108.75 28.5 L-107.15 -31.5 -102.1 -31.05 -88.25 -29.85 -67.7 -28.0 -42.45 -25.55 -14.6 -22.7 13.8 -19.5 40.75 -16.15 Q53.6 -14.4 55.85 -18.15 58.1 -21.9 77.05 -21.55 96.0 -21.2 99.35 -13.2 102.65 -5.2 109.35 -3.5 116.05 -1.8 107.1 1.2 98.1 4.2 96.7 5.95 L93.5 9.35 Q91.8 10.95 90.65 12.45 89.5 13.95 89.7 15.35 89.85 16.7 92.2 18.0 96.4 20.3 109.25 21.65 122.05 22.95 122.2 25.5 122.3 28.05 121.45 29.75 121.05 30.6 120.65 31.5 8.05 65.05 -108.75 28.5" fill="none" stroke="#000000" stroke-linecap="round" stroke-linejoin="round" stroke-opacity="0.0" stroke-width="1.0"/>
    </g>
    <g id="morphshape1" transform="matrix(1, 0, 0, 1, 108.6, 31.5)">
      <path d="M-108.6 25.25 L-108.6 25.35 Q-108.75 28.45 -107.5 31.3 -96.95 28.7 -84.9 29.3 L-78.7 29.6 Q-69.65 30.0 -60.6 30.4 -55.3 30.6 -50.05 30.75 -43.2 30.85 -36.4 30.9 L-21.6 30.4 -12.7 29.75 1.75 28.25 7.65 27.8 22.75 28.7 25.45 29.05 40.65 30.3 49.3 30.1 62.65 29.45 74.35 28.95 82.65 28.85 87.6 28.9 Q94.45 29.1 89.4 27.85 L83.95 26.7 78.2 25.45 Q71.8 23.75 74.45 22.5 L78.1 20.8 Q81.15 19.4 84.2 18.0 L86.15 16.95 Q90.1 14.5 88.95 11.4 88.35 9.8 87.4 8.7 86.15 7.2 84.3 6.6 L82.7 6.1 79.45 4.7 Q78.45 4.15 75.15 3.9 L69.85 3.75 66.25 3.75 57.85 3.25 57.65 3.25 Q53.7 2.75 52.3 1.85 L52.3 1.85 Q50.0 0.25 59.2 -1.4 L68.05 -2.7 68.15 -2.7 Q79.2 -4.1 75.85 -5.8 73.5 -7.0 64.0 -8.4 L62.0 -8.7 Q51.35 -10.35 45.05 -11.75 38.8 -13.15 36.75 -14.4 33.1 -16.65 28.05 -18.25 L26.2 -18.8 Q19.95 -20.55 12.85 -21.45 L11.25 -21.65 -1.45 -22.7 -4.05 -22.8 -15.45 -23.35 -27.95 -24.2 -101.65 -31.0 -103.65 -31.2 -107.15 -31.5 -107.15 -30.6 -107.15 -30.0 -107.25 -26.75 -107.45 -19.65 -107.45 -18.4 -107.75 -6.95 -107.85 -4.65 -108.1 5.5 -108.3 11.85 -108.4 16.9 -108.6 25.25" fill="#89d4e8" fill-rule="evenodd" stroke="none"/>
      <path d="M-108.6 25.25 L-108.4 16.9 -108.3 11.85 -108.1 5.5 -107.85 -4.65 -107.75 -6.95 -107.45 -18.4 -107.45 -19.65 -107.25 -26.75 -107.15 -30.0 -107.15 -30.6 -107.15 -31.5 -103.65 -31.2 -101.65 -31.0 -27.95 -24.2 -15.45 -23.35 -4.05 -22.8 -1.45 -22.7 11.25 -21.65 12.85 -21.45 Q19.95 -20.55 26.2 -18.8 L28.05 -18.25 Q33.1 -16.65 36.75 -14.4 38.8 -13.15 45.05 -11.75 51.35 -10.35 62.0 -8.7 L64.0 -8.4 Q73.5 -7.0 75.85 -5.8 79.2 -4.1 68.15 -2.7 L68.05 -2.7 59.2 -1.4 Q50.0 0.25 52.3 1.85 L52.3 1.85 Q53.7 2.75 57.65 3.25 L57.85 3.25 66.25 3.75 69.85 3.75 75.15 3.9 Q78.45 4.15 79.45 4.7 L82.7 6.1 84.3 6.6 Q86.15 7.2 87.4 8.7 88.35 9.8 88.95 11.4 90.1 14.5 86.15 16.95 L84.2 18.0 Q81.15 19.4 78.1 20.8 L74.45 22.5 Q71.8 23.75 78.2 25.45 L83.95 26.7 89.4 27.85 Q94.45 29.1 87.6 28.9 L82.65 28.85 74.35 28.95 62.65 29.45 49.3 30.1 40.65 30.3 25.45 29.05 22.75 28.7 7.65 27.8 1.75 28.25 -12.7 29.75 -21.6 30.4 -36.4 30.9 Q-43.2 30.85 -50.05 30.75 -55.3 30.6 -60.6 30.4 -69.65 30.0 -78.7 29.6 L-84.9 29.3 Q-96.95 28.7 -107.5 31.3 -108.75 28.45 -108.6 25.35 L-108.6 25.25" fill="none" stroke="#000000" stroke-linecap="round" stroke-linejoin="round" stroke-opacity="0.0" stroke-width="1.0"/>
    </g>
  </defs>
</svg>
