<?xml version="1.0" encoding="UTF-8" standalone="no"?>
<svg xmlns:xlink="http://www.w3.org/1999/xlink" height="37.75px" width="98.0px" xmlns="http://www.w3.org/2000/svg">
  <g transform="matrix(1, 0, 0, 1, 0.0, 0.75)">
    <use height="37.0" transform="matrix(1.0, 0.0, 0.0, 1.0, 0.0, 0.0)" width="98.0" xlink:href="#text0"/>
    <use height="12.45" transform="matrix(1.0, 0.0, 0.0, 1.0, 47.3, -0.75)" width="13.1" xlink:href="#shape0"/>
  </g>
  <defs>
    <g id="shape0" transform="matrix(1, 0, 0, 1, -47.3, 0.75)">
      <path d="M59.5 3.05 L59.0 2.35 Q58.8 1.8 58.1 1.8 56.2 1.8 52.7 6.05 48.7 10.9 47.55 11.5 47.3 12.1 47.3 10.85 47.3 9.95 49.55 7.2 51.8 4.45 54.35 2.2 61.3 -3.8 60.25 2.5 L59.5 3.05" fill="#77c1be" fill-rule="evenodd" stroke="none"/>
    </g>
  </defs>
</svg>
