<?xml version="1.0" encoding="UTF-8" standalone="no"?>
<svg xmlns:xlink="http://www.w3.org/1999/xlink" height="37.75px" width="98.0px" xmlns="http://www.w3.org/2000/svg">
  <g transform="matrix(1, 0, 0, 1, 0.0, 0.75)">
    <use height="4.75" transform="matrix(1.0, 0.0, 0.0, 1.0, 32.75, 16.5)" width="9.05" xlink:href="#shape0"/>
    <use height="37.0" transform="matrix(1.0, 0.0, 0.0, 1.0, 0.0, 0.0)" width="98.0" xlink:href="#text0"/>
  </g>
  <defs>
    <g id="shape0" transform="matrix(1, 0, 0, 1, -32.75, -16.5)">
      <path d="M41.8 20.75 L39.25 20.95 36.5 21.25 Q34.7 21.25 33.55 19.55 L32.75 17.85 32.8 16.55 33.75 16.5 Q34.7 17.6 34.65 18.7 35.05 19.3 39.5 19.3 40.95 19.3 41.75 20.0 L41.8 20.75" fill="#77c1be" fill-rule="evenodd" stroke="none"/>
    </g>
  </defs>
</svg>
