<?xml version="1.0" encoding="UTF-8" standalone="no"?>
<svg xmlns:xlink="http://www.w3.org/1999/xlink" height="37.75px" width="98.0px" xmlns="http://www.w3.org/2000/svg">
  <g transform="matrix(1, 0, 0, 1, 0.0, 0.75)">
    <use height="2.3" transform="matrix(1.0, 0.0, 0.0, 1.0, 32.3, 8.25)" width="6.0" xlink:href="#shape0"/>
    <use height="37.0" transform="matrix(1.0, 0.0, 0.0, 1.0, 0.0, 0.0)" width="98.0" xlink:href="#text0"/>
  </g>
  <defs>
    <g id="shape0" transform="matrix(1, 0, 0, 1, -32.3, -8.25)">
      <path d="M34.2 9.6 Q34.95 10.2 38.0 8.5 L38.15 8.3 38.3 9.0 Q38.3 9.75 38.0 10.0 37.35 10.55 35.0 10.55 L33.15 10.35 Q32.65 10.1 32.3 9.0 L32.5 8.25 Q33.65 8.5 34.2 9.6" fill="#77c1be" fill-rule="evenodd" stroke="none"/>
    </g>
  </defs>
</svg>
