<?xml version="1.0" encoding="UTF-8" standalone="no"?>
<svg xmlns:xlink="http://www.w3.org/1999/xlink" height="37.75px" width="98.0px" xmlns="http://www.w3.org/2000/svg">
  <g transform="matrix(1, 0, 0, 1, 0.0, 0.75)">
    <use height="3.25" transform="matrix(1.0, 0.0, 0.0, 1.0, 40.5, 27.75)" width="5.05" xlink:href="#shape0"/>
    <use height="37.0" transform="matrix(1.0, 0.0, 0.0, 1.0, 0.0, 0.0)" width="98.0" xlink:href="#text0"/>
  </g>
  <defs>
    <g id="shape0" transform="matrix(1, 0, 0, 1, -40.5, -27.75)">
      <path d="M43.0 31.0 Q41.4 31.0 41.0 30.5 41.0 30.05 40.5 29.75 40.5 29.0 40.75 28.55 41.45 28.55 42.0 29.75 42.9 29.8 44.15 28.8 L45.55 27.75 45.0 29.7 Q44.45 31.0 43.0 31.0" fill="#77c1be" fill-rule="evenodd" stroke="none"/>
    </g>
  </defs>
</svg>
