<?xml version="1.0" encoding="UTF-8" standalone="no"?>
<svg xmlns:xlink="http://www.w3.org/1999/xlink" height="172.05px" width="51.7px" xmlns="http://www.w3.org/2000/svg">
  <g transform="matrix(1, 0, 0, 1, 0.0, 1.9)">
    <use height="156.5" transform="matrix(0.6645, 0.0, 0.0, 0.664, 12.563, 58.3951)" width="16.4" xlink:href="#sprite0"/>
    <use height="61.4" transform="matrix(1.0, 0.0, 0.0, 1.0, 0.0, 0.0)" width="41.55" xlink:href="#shape1"/>
  </g>
  <defs>
    <g id="sprite0" transform="matrix(1, 0, 0, 1, 13.9, 35.7)">
      <use height="156.5" transform="matrix(1.0, 0.0, 0.0, 1.0, -13.9, -35.7)" width="16.4" xlink:href="#shape0"/>
    </g>
    <g id="shape0" transform="matrix(1, 0, 0, 1, 13.9, 35.7)">
      <path d="M0.2 -35.35 Q4.65 -2.75 -1.0 29.6 L-9.6 74.75 Q-13.9 97.35 -13.5 120.45" fill="none" stroke="#003b9f" stroke-linecap="round" stroke-linejoin="round" stroke-width="0.75"/>
    </g>
    <g id="shape1" transform="matrix(1, 0, 0, 1, 0.0, 0.0)">
      <path d="M21.65 56.35 Q24.9 59.6 23.45 60.75 22.1 61.9 20.25 60.95 19.05 59.9 20.2 58.2 L21.65 56.35" fill="#ffc93f" fill-rule="evenodd" stroke="none"/>
      <path d="M22.0 56.7 Q20.1 58.45 20.2 60.95 19.1 59.85 20.2 58.2 L21.65 56.35 22.0 56.7" fill="#eaae2a" fill-rule="evenodd" stroke="none"/>
      <path d="M20.45 57.0 L23.3 56.75 22.55 57.45 Q21.8 58.0 20.45 57.0" fill="#b7831a" fill-rule="evenodd" stroke="none"/>
      <path d="M20.05 60.0 L21.65 59.75 Q23.05 59.55 23.05 60.15 22.8 60.8 22.1 60.65 L21.3 60.5 21.3 60.25 20.05 60.0" fill="#eaae2a" fill-rule="evenodd" stroke="none"/>
      <path d="M41.55 28.55 Q41.3 40.65 35.45 48.7 29.6 56.7 20.8 57.05 11.95 56.7 6.1 48.7 0.25 40.65 0.05 28.55 0.25 16.4 6.1 8.4 11.95 0.3 20.8 0.0 29.6 0.3 35.45 8.4 41.3 16.4 41.55 28.55" fill="#ffc93f" fill-rule="evenodd" stroke="none"/>
      <path d="M0.0 28.5 Q0.25 16.4 6.1 8.35 11.95 0.3 20.75 0.0 L22.15 0.05 Q16.7 0.95 12.45 4.5 8.2 8.05 6.25 12.8 1.3 26.15 6.25 40.15 11.3 51.95 22.45 56.9 L20.75 57.05 Q11.95 56.7 6.1 48.65 0.25 40.65 0.0 28.5" fill="#eaae2a" fill-rule="evenodd" stroke="none"/>
      <path d="M21.8 3.7 Q20.0 2.35 22.4 1.1 22.9 0.55 28.35 2.9 33.85 5.25 38.5 17.05 L35.7 13.15 Q33.1 9.65 31.05 8.2 29.6 7.45 26.55 6.3 23.55 5.1 21.8 3.7" fill="#f7d694" fill-rule="evenodd" stroke="none"/>
    </g>
  </defs>
</svg>
