<?xml version="1.0" encoding="UTF-8" standalone="no"?>
<svg xmlns:xlink="http://www.w3.org/1999/xlink" height="172.05px" width="51.7px" xmlns="http://www.w3.org/2000/svg">
  <g transform="matrix(1, 0, 0, 1, 0.0, 1.9)">
    <use height="156.5" transform="matrix(0.6645, 0.0, 0.0, 0.664, 12.563, 58.3951)" width="16.4" xlink:href="#sprite0"/>
    <use height="60.55" transform="matrix(1.0, 0.0, 0.0, 1.0, 0.2, -1.9)" width="51.5" xlink:href="#shape1"/>
  </g>
  <defs>
    <g id="sprite0" transform="matrix(1, 0, 0, 1, 13.9, 35.7)">
      <use height="156.5" transform="matrix(1.0, 0.0, 0.0, 1.0, -13.9, -35.7)" width="16.4" xlink:href="#shape0"/>
    </g>
    <g id="shape0" transform="matrix(1, 0, 0, 1, 13.9, 35.7)">
      <path d="M0.2 -35.35 Q4.65 -2.75 -1.0 29.6 L-9.6 74.75 Q-13.9 97.35 -13.5 120.45" fill="none" stroke="#003b9f" stroke-linecap="round" stroke-linejoin="round" stroke-width="0.75"/>
    </g>
    <g id="shape1" transform="matrix(1, 0, 0, 1, -0.2, 1.9)">
      <path d="M23.65 48.65 Q26.3 51.3 25.15 52.25 L22.55 52.4 Q21.55 51.55 22.5 50.15 L23.65 48.65" fill="#ffc93f" fill-rule="evenodd" stroke="none"/>
      <path d="M23.95 48.9 Q22.4 50.35 22.5 52.35 21.6 51.5 22.5 50.15 L23.65 48.65 23.95 48.9" fill="#eaae2a" fill-rule="evenodd" stroke="none"/>
      <path d="M22.75 49.2 L25.05 49.0 24.45 49.55 Q23.85 50.0 22.75 49.2" fill="#b7831a" fill-rule="evenodd" stroke="none"/>
      <path d="M22.4 51.6 L23.7 51.4 Q24.85 51.25 24.85 51.7 24.65 52.25 24.05 52.15 L23.4 52.0 23.4 51.8 22.4 51.6" fill="#eaae2a" fill-rule="evenodd" stroke="none"/>
      <path d="M44.3 2.75 Q40.3 6.3 37.7 10.85 35.05 15.4 35.55 19.35 38.15 19.2 42.2 20.15 46.25 21.1 47.75 22.85 L42.75 23.1 Q40.45 23.3 39.75 25.55 39.6 26.1 39.6 26.8 39.8 30.05 41.8 33.5 L45.45 40.4 Q47.1 43.85 46.4 47.05 L42.1 42.8 Q40.05 40.45 37.45 38.95 36.65 42.7 37.6 46.6 38.6 52.55 38.45 58.65 38.25 56.95 36.25 54.15 34.25 51.35 32.35 50.15 30.4 49.25 28.2 49.35 L23.85 49.1 Q21.8 48.55 19.95 47.5 18.0 46.5 15.9 46.25 13.05 46.1 10.5 47.45 7.95 48.8 5.95 50.75 6.3 47.95 6.9 45.3 7.5 42.65 7.3 39.65 6.9 35.95 4.9 33.75 2.9 31.6 0.2 29.4 2.8 29.65 3.45 26.95 4.1 24.25 4.05 22.2 4.4 17.95 3.7 13.85 3.25 12.15 2.35 10.6 1.45 9.05 1.1 7.4 2.75 10.1 5.5 12.85 L10.7 17.8 Q12.35 19.35 13.8 19.95 L17.5 20.6 Q17.7 17.8 16.35 15.35 14.9 10.15 14.3 4.7 14.95 6.55 17.75 10.4 20.5 14.2 22.6 14.45 23.9 14.1 25.25 11.95 26.6 9.8 27.15 8.25 27.5 10.55 28.55 12.6 29.65 12.55 30.1 11.9 L31.1 10.35 Q33.65 6.95 37.25 4.6 40.75 2.15 44.05 0.4 47.4 -1.4 51.7 -1.9 48.2 -0.8 44.3 2.75" fill="#ffc93f" fill-rule="evenodd" stroke="none"/>
      <path d="M6.8 24.2 Q7.05 20.8 6.5 17.5 6.15 16.1 5.45 14.85 4.7 13.55 4.45 12.2 5.75 14.4 7.95 16.65 L12.1 20.65 Q14.05 22.55 16.0 22.75 L17.15 26.0 14.05 25.45 11.9 25.55 Q10.9 30.55 12.8 32.8 14.7 35.1 20.15 33.85 19.1 35.4 19.3 36.95 24.7 36.45 28.85 33.4 27.55 35.5 25.15 36.75 22.75 38.0 22.75 40.4 23.25 41.35 25.05 41.9 L27.95 43.05 Q32.0 45.45 34.35 49.6 L34.4 53.8 Q34.3 52.45 32.65 50.15 31.05 47.85 29.55 46.95 27.95 46.15 26.2 46.25 L22.7 46.05 Q21.05 45.6 19.55 44.75 18.0 43.95 16.3 43.75 11.65 43.9 8.35 47.4 L9.05 42.95 Q9.55 40.8 9.4 38.4 9.05 35.4 7.45 33.6 5.9 31.85 3.7 30.05 5.8 30.3 6.3 28.1 6.85 25.9 6.8 24.2" fill="#eaae2a" fill-rule="evenodd" stroke="none"/>
    </g>
  </defs>
</svg>
