<?xml version="1.0" encoding="UTF-8" standalone="no"?>
<svg xmlns:xlink="http://www.w3.org/1999/xlink" height="71.2px" width="212.95px" xmlns="http://www.w3.org/2000/svg">
  <g transform="matrix(1, 0, 0, 1, 107.0, 32.25)">
    <use height="23.95" transform="matrix(1.0, 0.0, 0.0, 1.0, -107.0, 15.0)" width="122.95" xlink:href="#text0"/>
    <use height="45.55" transform="matrix(1.0, 0.0, 0.0, 1.0, -67.25, -27.2)" width="45.1" xlink:href="#shape0"/>
  </g>
  <defs>
    <g id="shape0" transform="matrix(1, 0, 0, 1, 67.25, 27.2)">
      <path d="M-47.9 -17.8 Q-48.05 -23.15 -45.4 -26.0 L-44.5 -26.85 -44.35 -26.0 Q-44.2 -24.45 -44.2 -22.3 L-44.2 -17.6 -47.6 -17.75 -47.9 -17.8 M-27.3 -2.45 L-27.2 -1.7 Q-27.2 -0.45 -28.55 1.0 -29.8 2.3 -30.75 2.35 L-30.65 2.15 -29.95 -0.15 -29.9 -0.4 -29.8 -0.75 Q-29.35 -1.45 -29.05 -2.45 -28.8 -3.2 -28.15 -3.2 -27.5 -3.2 -27.3 -2.45 M-59.8 6.9 Q-65.1 6.75 -66.9 3.6 L-66.9 1.7 -65.7 1.7 -61.5 4.05 -59.8 6.9" fill="#167fa3" fill-rule="evenodd" stroke="none"/>
      <path d="M-44.2 -17.6 L-42.45 -17.15 -36.5 -14.2 -36.25 -13.7 Q-37.65 -12.95 -37.75 -11.1 L-34.5 -9.8 Q-32.95 -9.85 -32.2 -10.45 L-31.85 -10.9 -31.8 -11.0 Q-29.3 -10.25 -25.55 -8.25 -24.95 -13.65 -23.15 -18.95 -24.15 -10.6 -24.15 -3.7 L-24.05 1.05 -22.5 6.1 Q-24.7 3.75 -26.45 -3.0 L-27.3 -2.45 Q-27.5 -3.2 -28.15 -3.2 -28.8 -3.2 -29.05 -2.45 -29.35 -1.45 -29.8 -0.75 L-29.9 -0.4 -29.95 -0.15 -30.65 2.15 -30.75 2.35 -31.75 5.0 Q-33.15 8.45 -36.4 11.8 L-39.2 14.0 Q-40.9 18.05 -44.7 18.0 -49.8 17.95 -51.1 16.95 -51.95 16.3 -53.1 14.25 -55.05 12.95 -56.4 11.65 L-56.25 11.3 -56.55 11.45 -59.8 6.9 -61.5 4.05 Q-63.1 1.1 -63.1 -0.6 -63.1 -4.15 -61.45 -7.75 L-57.9 -12.35 -57.75 -12.25 Q-55.4 -11.5 -54.7 -10.1 -52.5 -13.05 -53.5 -14.35 L-54.6 -15.4 Q-51.5 -17.65 -47.9 -17.75 L-47.6 -17.75 -44.2 -17.6 M-36.4 -7.3 Q-37.65 -9.45 -39.45 -9.45 -41.25 -9.45 -42.55 -7.3 -43.8 -5.15 -43.8 -2.05 -43.8 1.0 -42.55 3.2 -41.25 5.35 -39.45 5.35 -37.65 5.35 -36.4 3.2 -35.1 1.0 -35.1 -2.05 -35.1 -5.15 -36.4 -7.3 M-29.8 -0.75 Q-29.6 -2.4 -30.0 -4.9 L-30.55 -8.05 -32.2 -10.45 -30.55 -8.05 -30.0 -4.9 Q-29.6 -2.4 -29.8 -0.75 M-48.05 -2.25 Q-48.05 -5.35 -49.35 -7.5 -50.6 -9.7 -52.4 -9.7 -54.2 -9.7 -55.5 -7.5 -56.75 -5.35 -56.75 -2.25 -56.75 0.8 -55.5 2.95 -54.2 5.1 -52.4 5.15 -50.6 5.1 -49.35 2.95 -48.05 0.8 -48.05 -2.25 M-55.9 6.45 L-52.9 6.2 -52.2 6.2 -52.9 6.2 -55.9 6.45 M-38.4 11.05 L-39.2 14.0 -38.4 11.05 M-38.05 7.05 L-41.35 6.6 -38.05 7.05 M-36.4 11.8 L-37.35 9.6 -36.4 11.8 M-55.05 10.35 Q-55.9 10.65 -56.25 11.3 -55.9 10.65 -55.05 10.35 M-53.1 14.25 L-54.65 11.3 -53.1 14.25" fill="#ffe473" fill-rule="evenodd" stroke="none"/>
      <path d="M-36.4 -7.3 Q-35.1 -5.15 -35.1 -2.05 -35.1 1.0 -36.4 3.2 -37.65 5.35 -39.45 5.35 -41.25 5.35 -42.55 3.2 -43.8 1.0 -43.8 -2.05 -43.8 -5.15 -42.55 -7.3 -41.25 -9.45 -39.45 -9.45 -37.65 -9.45 -36.4 -7.3 M-48.05 -2.25 Q-48.05 0.8 -49.35 2.95 -50.6 5.1 -52.4 5.15 -54.2 5.1 -55.5 2.95 -56.75 0.8 -56.75 -2.25 -56.75 -5.35 -55.5 -7.5 -54.2 -9.7 -52.4 -9.7 -50.6 -9.7 -49.35 -7.5 -48.05 -5.35 -48.05 -2.25" fill="#ffffff" fill-rule="evenodd" stroke="none"/>
      <path d="M-36.25 -13.7 Q-35.35 -14.2 -33.9 -14.2 -31.65 -14.25 -31.65 -11.9 -31.65 -11.4 -31.8 -11.0 L-31.85 -10.9 -32.2 -10.45 Q-32.95 -9.85 -34.5 -9.8 L-37.75 -11.1 Q-37.65 -12.95 -36.25 -13.7 M-57.9 -12.35 Q-59.55 -13.0 -58.95 -14.05 -57.35 -15.75 -55.95 -15.75 L-54.6 -15.4 -53.5 -14.35 Q-52.5 -13.05 -54.7 -10.1 -55.4 -11.5 -57.75 -12.25 L-57.9 -12.35" fill="#666666" fill-rule="evenodd" stroke="none"/>
      <path d="M-47.9 -17.8 Q-48.05 -23.15 -45.4 -26.0 L-44.5 -26.85 -44.35 -26.0 Q-44.2 -24.45 -44.2 -22.3 L-44.2 -17.6 M-36.25 -13.7 Q-35.35 -14.2 -33.9 -14.2 -31.65 -14.25 -31.65 -11.9 -31.65 -11.4 -31.8 -11.0 M-47.9 -17.75 L-47.9 -17.8 M-32.2 -10.45 Q-32.95 -9.85 -34.5 -9.8 L-37.75 -11.1 Q-37.65 -12.95 -36.25 -13.7 M-31.85 -10.9 L-32.2 -10.45 M-48.05 -2.25 Q-48.05 0.8 -49.35 2.95 -50.6 5.1 -52.4 5.15 -54.2 5.1 -55.5 2.95 -56.75 0.8 -56.75 -2.25 -56.75 -5.35 -55.5 -7.5 -54.2 -9.7 -52.4 -9.7 -50.6 -9.7 -49.35 -7.5 -48.05 -5.35 -48.05 -2.25" fill="none" stroke="#000000" stroke-linecap="round" stroke-linejoin="round" stroke-width="0.75"/>
      <path d="M-44.2 -17.6 L-42.45 -17.15 -36.5 -14.2 M-31.8 -11.0 Q-29.3 -10.25 -25.55 -8.25 -24.95 -13.65 -23.15 -18.95 -24.15 -10.6 -24.15 -3.7 L-24.05 1.05 -22.5 6.1 Q-24.7 3.75 -26.45 -3.0 L-27.3 -2.45 -27.2 -1.7 Q-27.2 -0.45 -28.55 1.0 -29.8 2.3 -30.75 2.35 L-31.75 5.0 Q-33.15 8.45 -36.4 11.8 L-39.2 14.0 Q-40.9 18.05 -44.7 18.0 -49.8 17.95 -51.1 16.95 -51.95 16.3 -53.1 14.25 -55.05 12.95 -56.4 11.65 L-56.55 11.45 -59.8 6.9 Q-65.1 6.75 -66.9 3.6 L-66.9 1.7 -65.7 1.7 -61.5 4.05 Q-63.1 1.1 -63.1 -0.6 -63.1 -4.15 -61.45 -7.75 L-57.9 -12.35 Q-59.55 -13.0 -58.95 -14.05 -57.35 -15.75 -55.95 -15.75 L-54.6 -15.4 Q-51.5 -17.65 -47.9 -17.75 L-47.6 -17.75 -44.2 -17.6 M-36.4 -7.3 Q-35.1 -5.15 -35.1 -2.05 -35.1 1.0 -36.4 3.2 -37.65 5.35 -39.45 5.35 -41.25 5.35 -42.55 3.2 -43.8 1.0 -43.8 -2.05 -43.8 -5.15 -42.55 -7.3 -41.25 -9.45 -39.45 -9.45 -37.65 -9.45 -36.4 -7.3 M-31.8 -11.0 L-31.85 -10.9 M-32.2 -10.45 L-30.55 -8.05 -30.0 -4.9 Q-29.6 -2.4 -29.8 -0.75 -29.35 -1.45 -29.05 -2.45 -28.8 -3.2 -28.15 -3.2 -27.5 -3.2 -27.3 -2.45 M-29.8 -0.75 L-29.9 -0.4 -29.95 -0.15 -30.65 2.15 -30.75 2.35 M-54.6 -15.4 L-53.5 -14.35 Q-52.5 -13.05 -54.7 -10.1 -55.4 -11.5 -57.75 -12.25 L-57.9 -12.35 M-52.2 6.2 L-52.9 6.2 -55.9 6.45 M-56.4 11.65 L-56.25 11.3 Q-55.9 10.65 -55.05 10.35 M-61.5 4.05 L-59.8 6.9 M-54.65 11.3 L-53.1 14.25 M-37.35 9.6 L-36.4 11.8 M-41.35 6.6 L-38.05 7.05 M-39.2 14.0 L-38.4 11.05" fill="none" stroke="#000000" stroke-linecap="round" stroke-linejoin="round" stroke-width="0.75"/>
      <path d="M-51.6 -2.25 L-51.55 -2.85 Q-51.55 -3.65 -51.85 -4.2 -52.15 -4.75 -52.6 -4.75 -53.05 -4.75 -53.35 -4.2 L-53.65 -2.85 -53.35 -1.6 -53.3 -1.55 Q-53.65 -0.8 -53.65 0.2 -53.65 1.3 -53.25 2.1 -52.85 2.9 -52.25 2.9 -51.65 2.9 -51.25 2.1 -50.85 1.3 -50.85 0.2 -50.85 -0.9 -51.25 -1.7 L-51.6 -2.25 M-54.55 -4.15 Q-53.75 -5.5 -52.6 -5.5 -51.45 -5.5 -50.65 -4.15 -49.85 -2.75 -49.85 -0.8 -49.85 1.2 -50.65 2.5 -51.45 3.9 -52.6 3.9 -53.75 3.9 -54.55 2.5 -55.35 1.2 -55.35 -0.8 -55.35 -2.75 -54.55 -4.15" fill="#333333" fill-rule="evenodd" stroke="none"/>
      <path d="M-53.3 -1.55 L-53.35 -1.6 -53.65 -2.85 -53.35 -4.2 Q-53.05 -4.75 -52.6 -4.75 -52.15 -4.75 -51.85 -4.2 -51.55 -3.65 -51.55 -2.85 L-51.6 -2.25 -51.85 -1.6 Q-52.15 -1.0 -52.6 -1.0 -53.05 -1.0 -53.3 -1.55" fill="#cccccc" fill-rule="evenodd" stroke="none"/>
      <path d="M-51.6 -2.25 L-51.25 -1.7 Q-50.85 -0.9 -50.85 0.2 -50.85 1.3 -51.25 2.1 -51.65 2.9 -52.25 2.9 -52.85 2.9 -53.25 2.1 -53.65 1.3 -53.65 0.2 -53.65 -0.8 -53.3 -1.55 -53.05 -1.0 -52.6 -1.0 -52.15 -1.0 -51.85 -1.6 L-51.6 -2.25" fill="#000000" fill-rule="evenodd" stroke="none"/>
      <path d="M-54.55 -4.15 Q-53.75 -5.5 -52.6 -5.5 -51.45 -5.5 -50.65 -4.15 -49.85 -2.75 -49.85 -0.8 -49.85 1.2 -50.65 2.5 -51.45 3.9 -52.6 3.9 -53.75 3.9 -54.55 2.5 -55.35 1.2 -55.35 -0.8 -55.35 -2.75 -54.55 -4.15" fill="none" stroke="#000000" stroke-linecap="round" stroke-linejoin="round" stroke-width="0.75"/>
      <path d="M-38.85 -1.75 L-38.8 -2.35 Q-38.8 -3.15 -39.1 -3.7 -39.4 -4.25 -39.85 -4.25 -40.3 -4.25 -40.6 -3.7 L-40.9 -2.35 -40.6 -1.1 -40.55 -1.05 Q-40.9 -0.3 -40.9 0.7 -40.9 1.8 -40.5 2.6 -40.1 3.4 -39.5 3.4 -38.9 3.4 -38.5 2.6 -38.1 1.8 -38.1 0.7 -38.1 -0.4 -38.5 -1.2 L-38.85 -1.75 M-41.8 -3.65 Q-41.0 -5.0 -39.85 -5.0 -38.7 -5.0 -37.9 -3.65 -37.1 -2.25 -37.1 -0.3 -37.1 1.7 -37.9 3.0 -38.7 4.4 -39.85 4.4 -41.0 4.4 -41.8 3.0 -42.6 1.7 -42.6 -0.3 -42.6 -2.25 -41.8 -3.65" fill="#333333" fill-rule="evenodd" stroke="none"/>
      <path d="M-40.55 -1.05 L-40.6 -1.1 -40.9 -2.35 -40.6 -3.7 Q-40.3 -4.25 -39.85 -4.25 -39.4 -4.25 -39.1 -3.7 -38.8 -3.15 -38.8 -2.35 L-38.85 -1.75 -39.1 -1.1 Q-39.4 -0.5 -39.85 -0.5 -40.3 -0.5 -40.55 -1.05" fill="#cccccc" fill-rule="evenodd" stroke="none"/>
      <path d="M-38.85 -1.75 L-38.5 -1.2 Q-38.1 -0.4 -38.1 0.7 -38.1 1.8 -38.5 2.6 -38.9 3.4 -39.5 3.4 -40.1 3.4 -40.5 2.6 -40.9 1.8 -40.9 0.7 -40.9 -0.3 -40.55 -1.05 -40.3 -0.5 -39.85 -0.5 -39.4 -0.5 -39.1 -1.1 L-38.85 -1.75" fill="#000000" fill-rule="evenodd" stroke="none"/>
      <path d="M-41.8 -3.65 Q-41.0 -5.0 -39.85 -5.0 -38.7 -5.0 -37.9 -3.65 -37.1 -2.25 -37.1 -0.3 -37.1 1.7 -37.9 3.0 -38.7 4.4 -39.85 4.4 -41.0 4.4 -41.8 3.0 -42.6 1.7 -42.6 -0.3 -42.6 -2.25 -41.8 -3.65" fill="none" stroke="#000000" stroke-linecap="round" stroke-linejoin="round" stroke-width="0.75"/>
    </g>
  </defs>
</svg>
