<?xml version="1.0" encoding="UTF-8" standalone="no"?>
<svg xmlns:xlink="http://www.w3.org/1999/xlink" height="71.2px" width="212.95px" xmlns="http://www.w3.org/2000/svg">
  <g transform="matrix(1, 0, 0, 1, 107.0, 32.25)">
    <use height="23.95" transform="matrix(1.0, 0.0, 0.0, 1.0, -31.0, 9.0)" width="122.95" xlink:href="#text0"/>
    <use height="45.55" transform="matrix(1.0, 0.0, 0.0, 1.0, 10.75, -32.2)" width="45.1" xlink:href="#shape0"/>
  </g>
  <defs>
    <g id="shape0" transform="matrix(1, 0, 0, 1, -10.75, 32.2)">
      <path d="M16.5 -0.95 Q14.9 -3.9 14.9 -5.6 14.9 -9.15 16.55 -12.75 17.3 -14.1 20.1 -17.35 L20.25 -17.25 Q22.6 -16.5 23.3 -15.1 25.5 -18.05 24.5 -19.35 L23.4 -20.4 Q26.5 -22.65 30.1 -22.75 L30.4 -22.75 33.8 -22.6 35.55 -22.15 41.5 -19.2 41.75 -18.7 Q40.35 -17.95 40.25 -16.1 L43.5 -14.8 Q45.05 -14.85 45.8 -15.45 L46.15 -15.9 46.2 -16.0 Q48.7 -15.25 52.45 -13.25 53.05 -18.65 54.85 -23.95 53.85 -15.6 53.85 -8.7 L53.95 -3.95 55.5 1.1 Q53.3 -1.25 51.55 -8.0 L50.7 -7.45 Q50.5 -8.2 49.85 -8.2 49.2 -8.2 48.95 -7.45 L48.2 -5.75 48.1 -5.4 48.05 -5.15 47.35 -2.85 47.25 -2.65 46.25 0.0 Q44.85 3.45 41.6 6.8 L38.8 9.0 Q37.1 13.05 33.3 13.0 28.2 12.95 26.9 11.95 26.05 11.3 24.9 9.25 22.95 7.95 21.6 6.65 L21.75 6.3 Q22.1 5.65 22.95 5.35 22.1 5.65 21.75 6.3 L21.45 6.45 18.2 1.9 16.5 -0.95 M38.55 -14.45 Q36.75 -14.45 35.45 -12.3 34.2 -10.15 34.2 -7.05 34.2 -4.0 35.45 -1.8 36.75 0.35 38.55 0.35 40.35 0.35 41.6 -1.8 42.9 -4.0 42.9 -7.05 42.9 -10.15 41.6 -12.3 40.35 -14.45 38.55 -14.45 M22.5 -12.5 Q21.25 -10.35 21.25 -7.25 21.25 -4.2 22.5 -2.05 23.8 0.1 25.6 0.15 27.4 0.1 28.65 -2.05 29.95 -4.2 29.95 -7.25 29.95 -10.35 28.65 -12.5 27.4 -14.7 25.6 -14.7 23.8 -14.7 22.5 -12.5 M48.2 -5.75 Q48.4 -7.4 48.0 -9.9 L47.45 -13.05 45.8 -15.45 47.45 -13.05 48.0 -9.9 Q48.4 -7.4 48.2 -5.75 M39.95 2.05 L36.65 1.6 39.95 2.05 M40.65 4.6 L41.6 6.8 40.65 4.6 M23.35 6.3 L24.9 9.25 23.35 6.3 M39.6 6.05 L38.8 9.0 39.6 6.05 M22.1 1.45 L25.1 1.2 25.8 1.2 25.1 1.2 22.1 1.45" fill="#ffe473" fill-rule="evenodd" stroke="none"/>
      <path d="M20.1 -17.35 Q18.45 -18.0 19.05 -19.05 20.65 -20.75 22.05 -20.75 L23.4 -20.4 24.5 -19.35 Q25.5 -18.05 23.3 -15.1 22.6 -16.5 20.25 -17.25 L20.1 -17.35 M41.75 -18.7 Q42.65 -19.2 44.1 -19.2 46.35 -19.25 46.35 -16.9 L46.2 -16.0 46.15 -15.9 45.8 -15.45 Q45.05 -14.85 43.5 -14.8 L40.25 -16.1 Q40.35 -17.95 41.75 -18.7" fill="#666666" fill-rule="evenodd" stroke="none"/>
      <path d="M30.1 -22.8 Q29.9 -29.0 33.5 -31.85 L33.8 -27.3 33.8 -22.6 30.4 -22.75 30.1 -22.8 M50.7 -7.45 L50.8 -6.7 Q50.8 -5.45 49.45 -4.0 48.2 -2.7 47.25 -2.65 L47.35 -2.85 48.05 -5.15 48.1 -5.4 48.2 -5.75 48.95 -7.45 Q49.2 -8.2 49.85 -8.2 50.5 -8.2 50.7 -7.45 M18.2 1.9 Q12.9 1.75 11.1 -1.4 L11.1 -3.3 12.3 -3.3 16.5 -0.95 18.2 1.9" fill="#167fa3" fill-rule="evenodd" stroke="none"/>
      <path d="M22.5 -12.5 Q23.8 -14.7 25.6 -14.7 27.4 -14.7 28.65 -12.5 29.95 -10.35 29.95 -7.25 29.95 -4.2 28.65 -2.05 27.4 0.1 25.6 0.15 23.8 0.1 22.5 -2.05 21.25 -4.2 21.25 -7.25 21.25 -10.35 22.5 -12.5 M38.55 -14.45 Q40.35 -14.45 41.6 -12.3 42.9 -10.15 42.9 -7.05 42.9 -4.0 41.6 -1.8 40.35 0.35 38.55 0.35 36.75 0.35 35.45 -1.8 34.2 -4.0 34.2 -7.05 34.2 -10.15 35.45 -12.3 36.75 -14.45 38.55 -14.45" fill="#ffffff" fill-rule="evenodd" stroke="none"/>
      <path d="M16.5 -0.95 Q14.9 -3.9 14.9 -5.6 14.9 -9.15 16.55 -12.75 17.3 -14.1 20.1 -17.35 18.45 -18.0 19.05 -19.05 20.65 -20.75 22.05 -20.75 L23.4 -20.4 Q26.5 -22.65 30.1 -22.75 L30.1 -22.8 Q29.9 -29.0 33.5 -31.85 L33.8 -27.3 33.8 -22.6 35.55 -22.15 41.5 -19.2 M41.75 -18.7 Q42.65 -19.2 44.1 -19.2 46.35 -19.25 46.35 -16.9 L46.2 -16.0 Q48.7 -15.25 52.45 -13.25 53.05 -18.65 54.85 -23.95 53.85 -15.6 53.85 -8.7 L53.95 -3.95 55.5 1.1 Q53.3 -1.25 51.55 -8.0 L50.7 -7.45 50.8 -6.7 Q50.8 -5.45 49.45 -4.0 48.2 -2.7 47.25 -2.65 L46.25 0.0 Q44.85 3.45 41.6 6.8 L38.8 9.0 Q37.1 13.05 33.3 13.0 28.2 12.95 26.9 11.95 26.05 11.3 24.9 9.25 22.95 7.95 21.6 6.65 L21.45 6.45 18.2 1.9 Q12.9 1.75 11.1 -1.4 L11.1 -3.3 12.3 -3.3 16.5 -0.95 18.2 1.9 M30.4 -22.75 L33.8 -22.6 M20.1 -17.35 L20.25 -17.25 Q22.6 -16.5 23.3 -15.1 25.5 -18.05 24.5 -19.35 L23.4 -20.4 M22.5 -12.5 Q23.8 -14.7 25.6 -14.7 27.4 -14.7 28.65 -12.5 29.95 -10.35 29.95 -7.25 29.95 -4.2 28.65 -2.05 27.4 0.1 25.6 0.15 23.8 0.1 22.5 -2.05 21.25 -4.2 21.25 -7.25 21.25 -10.35 22.5 -12.5 M38.55 -14.45 Q40.35 -14.45 41.6 -12.3 42.9 -10.15 42.9 -7.05 42.9 -4.0 41.6 -1.8 40.35 0.35 38.55 0.35 36.75 0.35 35.45 -1.8 34.2 -4.0 34.2 -7.05 34.2 -10.15 35.45 -12.3 36.75 -14.45 38.55 -14.45 M30.1 -22.75 L30.4 -22.75 M46.2 -16.0 L46.15 -15.9 45.8 -15.45 47.45 -13.05 48.0 -9.9 Q48.4 -7.4 48.2 -5.75 L48.95 -7.45 Q49.2 -8.2 49.85 -8.2 50.5 -8.2 50.7 -7.45 M48.2 -5.75 L48.1 -5.4 48.05 -5.15 47.35 -2.85 47.25 -2.65 M41.75 -18.7 Q40.35 -17.95 40.25 -16.1 L43.5 -14.8 Q45.05 -14.85 45.8 -15.45 M41.6 6.8 L40.65 4.6 M36.65 1.6 L39.95 2.05 M21.75 6.3 L21.6 6.65 M21.75 6.3 Q22.1 5.65 22.95 5.35 M25.8 1.2 L25.1 1.2 22.1 1.45 M38.8 9.0 L39.6 6.05 M24.9 9.25 L23.35 6.3" fill="none" stroke="#000000" stroke-linecap="round" stroke-linejoin="round" stroke-width="0.75"/>
      <path d="M26.4 -7.25 L26.45 -7.85 26.15 -9.2 Q25.85 -9.75 25.4 -9.75 24.95 -9.75 24.65 -9.2 24.35 -8.65 24.35 -7.85 24.35 -7.1 24.65 -6.6 L24.7 -6.55 Q24.35 -5.8 24.35 -4.8 24.35 -3.7 24.75 -2.9 25.15 -2.1 25.75 -2.1 26.35 -2.1 26.75 -2.9 27.15 -3.7 27.15 -4.8 27.15 -5.9 26.75 -6.7 L26.4 -7.25 M23.45 -9.15 Q24.25 -10.5 25.4 -10.5 26.55 -10.5 27.35 -9.15 28.15 -7.75 28.15 -5.8 28.15 -3.8 27.35 -2.5 26.55 -1.1 25.4 -1.1 24.25 -1.1 23.45 -2.5 22.65 -3.8 22.65 -5.8 22.65 -7.75 23.45 -9.15" fill="#333333" fill-rule="evenodd" stroke="none"/>
      <path d="M24.7 -6.55 L24.65 -6.6 Q24.35 -7.1 24.35 -7.85 24.35 -8.65 24.65 -9.2 24.95 -9.75 25.4 -9.75 25.85 -9.75 26.15 -9.2 L26.45 -7.85 26.4 -7.25 26.15 -6.6 Q25.85 -6.0 25.4 -6.0 24.95 -6.0 24.7 -6.55" fill="#cccccc" fill-rule="evenodd" stroke="none"/>
      <path d="M26.4 -7.25 L26.75 -6.7 Q27.15 -5.9 27.15 -4.8 27.15 -3.7 26.75 -2.9 26.35 -2.1 25.75 -2.1 25.15 -2.1 24.75 -2.9 24.35 -3.7 24.35 -4.8 24.35 -5.8 24.7 -6.55 24.95 -6.0 25.4 -6.0 25.85 -6.0 26.15 -6.6 L26.4 -7.25" fill="#000000" fill-rule="evenodd" stroke="none"/>
      <path d="M23.45 -9.15 Q24.25 -10.5 25.4 -10.5 26.55 -10.5 27.35 -9.15 28.15 -7.75 28.15 -5.8 28.15 -3.8 27.35 -2.5 26.55 -1.1 25.4 -1.1 24.25 -1.1 23.45 -2.5 22.65 -3.8 22.65 -5.8 22.65 -7.75 23.45 -9.15" fill="none" stroke="#000000" stroke-linecap="round" stroke-linejoin="round" stroke-width="0.75"/>
      <path d="M39.15 -6.75 L39.2 -7.35 38.9 -8.7 38.15 -9.25 Q37.7 -9.25 37.4 -8.7 37.1 -8.15 37.1 -7.35 37.1 -6.6 37.4 -6.1 L37.45 -6.05 Q37.1 -5.3 37.1 -4.3 37.1 -3.2 37.5 -2.4 37.9 -1.6 38.5 -1.6 39.1 -1.6 39.5 -2.4 39.9 -3.2 39.9 -4.3 39.9 -5.4 39.5 -6.2 L39.15 -6.75 M36.2 -8.65 Q37.0 -10.0 38.15 -10.0 39.3 -10.0 40.1 -8.65 40.9 -7.25 40.9 -5.3 40.9 -3.3 40.1 -2.0 39.3 -0.6 38.15 -0.6 37.0 -0.6 36.2 -2.0 35.4 -3.3 35.4 -5.3 35.4 -7.25 36.2 -8.65" fill="#333333" fill-rule="evenodd" stroke="none"/>
      <path d="M37.45 -6.05 L37.4 -6.1 Q37.1 -6.6 37.1 -7.35 37.1 -8.15 37.4 -8.7 37.7 -9.25 38.15 -9.25 L38.9 -8.7 39.2 -7.35 39.15 -6.75 38.9 -6.1 Q38.6 -5.5 38.15 -5.5 37.7 -5.5 37.45 -6.05" fill="#cccccc" fill-rule="evenodd" stroke="none"/>
      <path d="M39.15 -6.75 L39.5 -6.2 Q39.9 -5.4 39.9 -4.3 39.9 -3.2 39.5 -2.4 39.1 -1.6 38.5 -1.6 37.9 -1.6 37.5 -2.4 37.1 -3.2 37.1 -4.3 37.1 -5.3 37.45 -6.05 37.7 -5.5 38.15 -5.5 38.6 -5.5 38.9 -6.1 L39.15 -6.75" fill="#000000" fill-rule="evenodd" stroke="none"/>
      <path d="M36.2 -8.65 Q37.0 -10.0 38.15 -10.0 39.3 -10.0 40.1 -8.65 40.9 -7.25 40.9 -5.3 40.9 -3.3 40.1 -2.0 39.3 -0.6 38.15 -0.6 37.0 -0.6 36.2 -2.0 35.4 -3.3 35.4 -5.3 35.4 -7.25 36.2 -8.65" fill="none" stroke="#000000" stroke-linecap="round" stroke-linejoin="round" stroke-width="0.75"/>
    </g>
  </defs>
</svg>
