<?xml version="1.0" encoding="UTF-8" standalone="no"?>
<svg xmlns:xlink="http://www.w3.org/1999/xlink" height="172.6px" width="63.2px" xmlns="http://www.w3.org/2000/svg">
  <g transform="matrix(1, 0, 0, 1, 8.85, 16.45)">
    <use height="156.5" transform="matrix(0.6165, 0.0, 0.0, 0.616, 11.6309, 54.1589)" width="16.4" xlink:href="#sprite0"/>
    <use height="74.3" transform="matrix(1.0, 0.0, 0.0, 1.0, -8.85, -16.45)" width="63.2" xlink:href="#shape1"/>
  </g>
  <defs>
    <g id="sprite0" transform="matrix(1, 0, 0, 1, 13.9, 35.7)">
      <use height="156.5" transform="matrix(1.0, 0.0, 0.0, 1.0, -13.9, -35.7)" width="16.4" xlink:href="#shape0"/>
    </g>
    <g id="shape0" transform="matrix(1, 0, 0, 1, 13.9, 35.7)">
      <path d="M0.2 -35.35 Q4.65 -2.75 -1.0 29.6 L-9.6 74.75 Q-13.9 97.35 -13.5 120.45" fill="none" stroke="#003b9f" stroke-linecap="round" stroke-linejoin="round" stroke-width="0.75"/>
    </g>
    <g id="shape1" transform="matrix(1, 0, 0, 1, 8.85, 16.45)">
      <path d="M18.55 47.45 Q19.7 45.75 20.0 45.6 23.25 48.85 21.8 50.0 20.4 51.1 18.6 50.2 17.4 49.15 18.55 47.45" fill="#cc1b1b" fill-rule="evenodd" stroke="none"/>
      <path d="M18.55 50.15 Q17.45 49.05 18.55 47.4 19.7 45.75 20.0 45.6 L20.3 45.9 Q18.45 47.65 18.55 50.15" fill="#aa1111" fill-rule="evenodd" stroke="none"/>
      <path d="M20.9 46.7 Q20.15 47.2 18.85 46.2 L21.65 46.0 20.9 46.7" fill="#680b0b" fill-rule="evenodd" stroke="none"/>
      <path d="M20.45 49.85 L19.65 49.7 19.65 49.45 18.4 49.25 20.0 48.95 Q21.35 48.75 21.4 49.35 21.15 50.0 20.45 49.85" fill="#aa1111" fill-rule="evenodd" stroke="none"/>
      <path d="M45.0 -13.65 Q49.05 -15.8 54.35 -16.45 50.1 -15.1 45.25 -10.7 40.4 -6.35 37.2 -0.8 33.95 4.75 34.55 9.65 37.75 9.45 42.7 10.6 47.65 11.8 49.5 13.95 L43.4 14.25 Q40.55 14.5 39.7 17.25 39.55 17.9 39.55 18.8 39.75 22.75 42.2 27.0 L46.7 35.45 Q48.75 39.7 47.85 43.65 45.05 41.25 42.6 38.4 40.05 35.55 36.9 33.7 35.85 38.3 37.1 43.05 38.3 50.35 38.1 57.85 37.9 55.8 35.4 52.35 32.9 48.9 30.6 47.45 28.2 46.3 25.5 46.4 L20.2 46.15 Q17.7 45.45 15.4 44.2 13.05 42.95 10.45 42.6 6.95 42.5 3.8 44.1 0.65 45.75 -1.75 48.15 -1.35 44.7 -0.6 41.45 0.1 38.2 -0.15 34.55 -0.6 30.0 -3.05 27.35 -5.5 24.65 -8.85 21.95 -5.6 22.25 -4.85 18.95 -4.05 15.65 -4.1 13.1 -3.7 7.95 -4.55 2.9 -5.1 0.85 -6.2 -1.1 -7.3 -3.0 -7.7 -5.05 -5.7 -1.7 -2.35 1.65 L4.05 7.7 Q6.1 9.65 7.9 10.35 9.65 11.05 12.4 11.15 12.65 7.75 11.0 4.75 9.2 -1.7 8.45 -8.35 9.25 -6.05 12.65 -1.35 16.05 3.35 18.65 3.6 20.25 3.2 21.9 0.55 23.6 -2.1 24.2 -3.95 24.65 -1.2 25.95 1.35 27.35 1.25 27.8 0.45 L29.1 -1.4 Q32.2 -5.55 36.6 -8.45 40.9 -11.45 45.0 -13.65" fill="#cc1b1b" fill-rule="evenodd" stroke="none"/>
      <path d="M-1.1 7.3 Q-1.5 5.65 -2.4 4.05 -3.3 2.5 -3.6 0.85 -2.0 3.55 0.65 6.3 L5.8 11.2 Q8.15 13.5 10.55 13.8 L11.95 17.75 8.15 17.05 5.55 17.2 Q4.3 23.35 6.6 26.1 8.95 28.9 15.7 27.4 14.35 29.3 14.6 31.15 21.25 30.6 26.3 26.85 24.75 29.45 21.75 30.95 18.85 32.45 18.85 35.45 19.45 36.6 21.65 37.25 23.85 37.9 25.25 38.7 30.2 41.6 33.1 46.7 L33.15 51.85 Q33.0 50.2 31.0 47.4 29.0 44.6 27.15 43.45 25.25 42.5 23.05 42.6 L18.8 42.4 Q16.8 41.8 14.9 40.8 13.05 39.75 10.95 39.55 5.2 39.7 1.15 44.0 1.45 41.2 2.05 38.6 2.65 35.95 2.45 32.95 2.05 29.3 0.1 27.1 -1.85 24.9 -4.55 22.75 -1.95 23.05 -1.3 20.3 -0.7 17.65 -0.7 15.55 -0.45 11.4 -1.1 7.3" fill="#aa1111" fill-rule="evenodd" stroke="none"/>
    </g>
  </defs>
</svg>
