<?xml version="1.0" encoding="UTF-8" standalone="no"?>
<svg xmlns:xlink="http://www.w3.org/1999/xlink" height="74.75px" width="116.1px" xmlns="http://www.w3.org/2000/svg">
  <g transform="matrix(1, 0, 0, 1, 0.5, 18.7)">
    <use height="74.75" transform="matrix(1.0, 0.0, 0.0, 1.0, -0.5, -18.7)" width="116.1" xlink:href="#shape0"/>
  </g>
  <defs>
    <g id="shape0" transform="matrix(1, 0, 0, 1, 0.5, 18.7)">
      <path d="M113.8 -15.3 L114.5 -15.2 113.6 -9.75 106.5 2.8 Q104.0 6.65 98.05 6.0 L34.85 6.1 34.85 1.75 97.25 1.75 Q103.3 2.4 106.65 -2.15 L106.85 -2.45 107.0 -2.75 113.8 -15.3 M34.8 1.75 L34.8 6.1 1.75 6.15 0.3 0.75 Q0.55 1.7 3.15 1.75 L34.8 1.75" fill="#996699" fill-rule="evenodd" stroke="none"/>
      <path d="M34.85 6.1 L98.05 6.0 Q104.0 6.65 106.5 2.8 L113.6 -9.75 112.65 0.0 110.6 21.8 Q110.25 25.1 109.6 26.85 L109.0 28.3 Q108.95 28.0 107.1 31.4 L106.35 33.0 110.65 0.1 Q108.85 -4.65 106.65 6.65 L102.55 41.05 101.7 42.8 Q99.1 48.5 93.7 48.6 L65.95 47.5 62.3 47.35 62.3 47.25 34.85 46.85 34.85 6.1 M99.1 42.4 L102.0 10.1 99.1 42.4 M62.3 47.25 L65.95 47.5 62.3 47.25 M34.8 6.1 L34.8 46.85 15.95 46.05 Q7.85 46.95 6.5 38.3 L3.55 18.9 1.65 6.2 1.75 6.15 34.8 6.1" fill="#336699" fill-rule="evenodd" stroke="none"/>
      <path d="M67.2 50.3 L95.1 51.75 Q100.05 52.1 101.6 49.05 L102.55 41.05 106.65 6.65 Q108.85 -4.65 110.65 0.1 L106.35 33.0 104.1 50.1 Q104.0 54.95 98.6 55.55 L62.3 53.55 62.3 53.45 34.85 52.9 34.85 49.4 67.2 50.05 67.2 50.3 M67.2 53.55 L62.3 53.45 67.2 53.55 M3.55 18.95 L5.15 30.0 3.5 43.6 Q3.3 46.95 6.5 47.95 L34.8 49.4 34.8 52.9 4.0 51.2 Q0.3 50.25 0.0 45.75 L3.55 18.95" fill="#9900cc" fill-rule="evenodd" stroke="none"/>
      <path d="M113.8 -15.3 L114.75 -16.85 114.95 -18.2 M113.8 -15.3 L107.0 -2.75 106.85 -2.45 106.65 -2.15 Q103.3 2.4 97.25 1.75 L34.85 1.75 M34.85 6.1 L98.05 6.0 Q104.0 6.65 106.5 2.8 L113.6 -9.75 114.5 -15.2 114.75 -16.85 M112.65 0.0 Q114.7 0.1 115.1 1.2 L114.95 2.1 M106.35 33.0 L107.1 31.4 Q108.95 28.0 109.0 28.3 L109.6 26.85 Q110.25 25.1 110.6 21.8 L112.65 0.0 113.6 -9.75 M102.55 41.05 L101.7 42.8 Q99.1 48.5 93.7 48.6 L65.95 47.5 62.3 47.35 M62.3 47.25 L34.85 46.85 M102.55 41.05 L101.6 49.05 Q100.05 52.1 95.1 51.75 L67.2 50.3 M67.2 50.05 L34.85 49.4 M34.85 52.9 L62.3 53.45 67.2 53.55 M102.0 10.1 L99.1 42.4 M106.35 33.0 L110.65 0.1 Q108.85 -4.65 106.65 6.65 L102.55 41.05 M62.3 53.55 L98.6 55.55 Q104.0 54.95 104.1 50.1 L106.35 33.0 M65.95 47.5 L62.3 47.25 M34.8 46.85 L15.95 46.05 Q7.85 46.95 6.5 38.3 L3.55 18.9 3.55 18.95 5.15 30.0 3.5 43.6 Q3.3 46.95 6.5 47.95 L34.8 49.4 M34.8 52.9 L4.0 51.2 Q0.3 50.25 0.0 45.75 L3.55 18.95 M0.3 0.75 Q0.55 1.7 3.15 1.75 L34.8 1.75 M1.75 6.15 L0.3 0.75 0.25 0.65 Q0.15 -0.35 2.1 -2.15 M1.75 6.15 L1.65 6.15 1.65 6.2 3.55 18.9 M34.8 6.1 L1.75 6.15" fill="none" stroke="#000000" stroke-linecap="round" stroke-linejoin="round" stroke-width="1.0"/>
      <path d="M1.15 -16.9 L0.8 -16.9 M1.15 -14.1 L0.65 -15.5 Q0.3 -16.05 0.25 -16.6" fill="none" stroke="#cccccc" stroke-linecap="round" stroke-linejoin="round" stroke-width="1.0"/>
    </g>
  </defs>
</svg>
