<?xml version="1.0" encoding="UTF-8" standalone="no"?>
<svg xmlns:xlink="http://www.w3.org/1999/xlink" height="13.4px" width="45.0px" xmlns="http://www.w3.org/2000/svg">
  <g transform="matrix(1, 0, 0, 1, 0.0, 0.0)">
    <use height="13.4" transform="matrix(1.0, 0.0, 0.0, 1.0, 0.0, 0.0)" width="45.0" xlink:href="#shape0"/>
  </g>
  <defs>
    <g id="shape0" transform="matrix(1, 0, 0, 1, 0.0, 0.0)">
      <path d="M42.5 0.65 Q44.05 0.85 44.75 1.3 L44.7 1.85 44.8 3.35 Q44.05 3.85 42.45 3.85 L40.1 3.75 38.9 3.4 33.85 3.4 32.35 3.6 28.9 2.95 26.2 2.15 21.75 2.15 21.4 2.2 14.4 2.2 14.05 2.15 8.8 2.1 8.2 1.9 4.0 1.9 Q3.2 1.85 0.9 2.85 L0.45 2.8 0.3 0.85 0.65 0.65 2.75 0.1 8.55 0.1 8.8 0.05 8.95 0.05 14.15 0.1 14.35 0.15 23.65 0.05 23.7 0.0 38.4 0.0 42.5 0.65" fill="#000000" fill-opacity="0.2509804" fill-rule="evenodd" stroke="none"/>
      <path d="M35.55 10.45 L44.75 10.45 45.0 10.7 44.9 10.95 28.75 10.95 28.5 10.8 Q28.5 10.55 28.75 10.45 L35.55 10.45 M31.85 13.15 L31.75 13.4 7.3 13.4 7.05 13.25 7.3 12.9 31.6 12.9 31.85 13.15 M0.55 11.2 L4.9 11.2 5.15 11.45 5.05 11.7 0.55 11.7 0.3 11.55 Q0.3 11.3 0.55 11.2" fill="#000000" fill-opacity="0.3529412" fill-rule="evenodd" stroke="none"/>
      <path d="M28.75 10.95 L24.05 11.0 23.8 11.15 19.7 11.15 19.6 11.1 11.3 11.05 10.9 10.95 7.55 10.9 2.35 10.35 Q0.0 9.95 0.0 9.45 0.0 8.8 1.0 8.8 L3.75 9.3 6.4 9.3 7.05 9.45 7.65 9.65 11.15 9.65 11.5 9.8 19.9 9.8 20.15 9.9 23.15 9.85 23.6 9.65 32.95 9.65 34.8 9.3 37.1 8.8 41.65 8.75 Q43.9 8.5 44.6 8.75 44.95 8.85 44.95 9.3 44.95 10.1 41.75 10.05 L37.35 10.1 35.55 10.45 28.75 10.45 Q28.5 10.55 28.5 10.8 L28.75 10.95" fill="#ffffff" fill-opacity="0.14117648" fill-rule="evenodd" stroke="none"/>
      <path d="M44.6 0.75 L44.6 8.2 20.7 9.0 Q9.6 9.0 0.25 8.45 L0.1 8.45 0.1 0.55 0.25 0.55 Q9.6 0.0 20.7 0.0 L44.6 0.75" fill="url(#gradient0)" fill-rule="evenodd" stroke="none"/>
      <path d="M44.6 2.55 L41.35 2.4 41.3 2.4 41.1 2.4 Q32.05 2.15 20.3 2.15 L1.35 2.35 1.3 2.35 0.9 2.35 0.25 2.4 0.1 2.4 0.1 1.65 0.25 1.65 Q9.6 1.25 21.25 1.25 34.35 1.25 44.5 1.75 L44.6 1.75 44.6 2.55 M0.1 4.8 L0.25 4.8 0.9 4.8 1.3 4.8 1.35 4.8 20.3 4.95 41.1 4.75 41.3 4.75 41.35 4.75 44.6 4.65 44.6 6.3 44.5 6.3 Q34.35 6.75 21.25 6.75 9.6 6.75 0.25 6.4 L0.1 6.4 0.1 4.8" fill="#573e4b" fill-rule="evenodd" stroke="none"/>
      <path d="M44.6 2.9 L43.1 2.85 41.55 2.85 38.6 2.75 38.55 2.75 38.4 2.75 20.15 2.65 3.6 2.75 3.55 2.75 3.2 2.75 2.45 2.75 0.25 2.8 0.1 2.8 0.1 2.4 0.25 2.4 0.9 2.35 1.3 2.35 1.35 2.35 20.3 2.15 Q32.05 2.15 41.1 2.4 L41.3 2.4 41.35 2.4 44.6 2.55 44.6 2.9 M0.1 3.85 L0.25 3.85 2.45 3.9 3.2 3.9 3.55 3.9 3.6 3.9 20.15 4.0 38.4 3.9 38.55 3.9 38.6 3.9 41.55 3.85 43.1 3.8 44.6 3.8 44.6 4.65 41.35 4.75 41.3 4.75 41.1 4.75 20.3 4.95 1.35 4.8 1.3 4.8 0.9 4.8 0.25 4.8 0.1 4.8 0.1 3.85" fill="#45323e" fill-rule="evenodd" stroke="none"/>
      <path d="M0.1 2.8 L0.25 2.8 2.45 2.75 3.2 2.75 3.55 2.75 3.6 2.75 20.15 2.65 38.4 2.75 38.55 2.75 38.6 2.75 41.55 2.85 43.1 2.85 44.6 2.9 44.6 3.8 43.1 3.8 41.55 3.85 38.6 3.9 38.55 3.9 38.4 3.9 20.15 4.0 3.6 3.9 3.55 3.9 3.2 3.9 2.45 3.9 0.25 3.85 0.1 3.85 0.1 2.8" fill="#31242d" fill-rule="evenodd" stroke="none"/>
      <path d="M44.6 7.75 L44.6 9.9 44.25 10.0 40.1 10.0 38.2 9.8 35.15 9.8 33.2 10.15 31.85 10.25 26.65 10.3 25.25 10.6 23.5 10.65 21.7 10.5 20.2 10.3 16.6 10.75 12.75 10.75 11.1 10.3 5.1 10.25 5.05 10.25 4.7 10.25 0.25 9.85 0.1 9.8 0.1 7.65 0.25 7.65 2.5 7.75 4.85 8.3 4.9 8.25 11.55 8.25 13.05 8.7 16.8 8.7 18.0 8.45 20.25 8.25 22.45 8.45 23.6 8.6 25.1 8.4 26.5 8.25 32.15 8.2 34.8 7.75 38.7 7.75 40.2 7.95 43.9 7.95 44.6 7.75" fill="#000000" fill-opacity="0.2509804" fill-rule="evenodd" stroke="none"/>
    </g>
    <radialGradient cx="0" cy="0" gradientTransform="matrix(0.0538, 0.0, 0.0, 0.0056, 20.7, 4.5)" gradientUnits="userSpaceOnUse" id="gradient0" r="819.2" spreadMethod="pad">
      <stop offset="0.00392156862745098" stop-color="#573e4b" stop-opacity="0.93333334"/>
      <stop offset="0.6980392156862745" stop-color="#573e4b" stop-opacity="0.43137255"/>
      <stop offset="1.0" stop-color="#140e12" stop-opacity="0.0"/>
    </radialGradient>
  </defs>
</svg>
