<?xml version="1.0" encoding="UTF-8" standalone="no"?>
<svg xmlns:xlink="http://www.w3.org/1999/xlink" height="79.05px" width="232.2px" xmlns="http://www.w3.org/2000/svg">
  <g transform="matrix(1, 0, 0, 1, 110.0, 31.5)">
    <path d="M-108.75 28.5 Q8.05 65.05 120.65 31.5 121.05 30.6 121.45 29.75 122.3 28.05 122.2 25.5 122.05 22.95 109.25 21.65 96.4 20.3 92.2 18.0 89.85 16.7 89.7 15.35 89.5 13.95 90.65 12.45 91.8 10.95 93.5 9.35 L96.7 5.95 Q98.1 4.2 107.1 1.2 116.05 -1.8 109.35 -3.5 102.65 -5.2 99.35 -13.2 96.0 -21.2 77.05 -21.55 58.1 -21.9 55.85 -18.15 53.6 -14.4 40.75 -16.15 L13.8 -19.5 -14.6 -22.7 -42.45 -25.55 -67.7 -28.0 -88.25 -29.85 -102.1 -31.05 -107.15 -31.5 -108.75 28.5" fill="#b4e6fc" fill-rule="evenodd" stroke="none">
      <animate attributeName="fill" dur="2s" repeatCount="indefinite" values="#b4e6fc;#b4e6fc"/>
      <animate attributeName="fill-opacity" dur="2s" repeatCount="indefinite" values="1.0;1.0"/>
      <animate attributeName="d" dur="2s" repeatCount="indefinite" values="M-108.75 28.5 Q8.05 65.05 120.65 31.5 121.05 30.6 121.45 29.75 122.3 28.05 122.2 25.5 122.05 22.95 109.25 21.65 96.4 20.3 92.2 18.0 89.85 16.7 89.7 15.35 89.5 13.95 90.65 12.45 91.8 10.95 93.5 9.35 L96.7 5.95 Q98.1 4.2 107.1 1.2 116.05 -1.8 109.35 -3.5 102.65 -5.2 99.35 -13.2 96.0 -21.2 77.05 -21.55 58.1 -21.9 55.85 -18.15 53.6 -14.4 40.75 -16.15 L13.8 -19.5 -14.6 -22.7 -42.45 -25.55 -67.7 -28.0 -88.25 -29.85 -102.1 -31.05 -107.15 -31.5 -108.75 28.5;M-110.0 39.7 Q-104.4 51.0 86.05 36.4 108.65 31.45 106.0 30.25 102.6 28.6 99.2 27.0 94.8 24.8 90.4 22.65 85.75 20.3 81.75 18.0 79.55 16.7 79.4 15.35 79.2 13.95 80.3 12.45 81.4 10.95 83.0 9.35 L86.0 5.95 Q87.35 4.2 87.8 2.3 88.2 0.4 86.85 -1.7 85.55 -3.75 81.75 -6.0 78.95 -7.6 72.05 -9.25 65.2 -10.95 55.15 -12.7 44.05 -14.45 33.0 -16.15 L7.45 -19.5 -19.5 -22.7 -45.9 -25.55 -69.85 -28.0 -89.3 -29.85 -102.45 -31.05 -107.25 -31.5 -110.0 39.7"/>
    </path>
    <path d="M-108.75 28.5 L-107.15 -31.5 -102.1 -31.05 -88.25 -29.85 -67.7 -28.0 -42.45 -25.55 -14.6 -22.7 13.8 -19.5 40.75 -16.15 Q53.6 -14.4 55.85 -18.15 58.1 -21.9 77.05 -21.55 96.0 -21.2 99.35 -13.2 102.65 -5.2 109.35 -3.5 116.05 -1.8 107.1 1.2 98.1 4.2 96.7 5.95 L93.5 9.35 Q91.8 10.95 90.65 12.45 89.5 13.95 89.7 15.35 89.85 16.7 92.2 18.0 96.4 20.3 109.25 21.65 122.05 22.95 122.2 25.5 122.3 28.05 121.45 29.75 121.05 30.6 120.65 31.5 8.05 65.05 -108.75 28.5" fill="none" stroke="#000000" stroke-linecap="round" stroke-linejoin="round" stroke-opacity="0.0" stroke-width="1.0">
      <animate attributeName="stroke" dur="2s" repeatCount="indefinite" values="#000000;#000000"/>
      <animate attributeName="stroke-width" dur="2s" repeatCount="indefinite" values="0.0;0.0"/>
      <animate attributeName="fill-opacity" dur="2s" repeatCount="indefinite" values="0.0;0.0"/>
      <animate attributeName="d" dur="2s" repeatCount="indefinite" values="M-108.75 28.5 L-107.15 -31.5 -102.1 -31.05 -88.25 -29.85 -67.7 -28.0 -42.45 -25.55 -14.6 -22.7 13.8 -19.5 40.75 -16.15 Q53.6 -14.4 55.85 -18.15 58.1 -21.9 77.05 -21.55 96.0 -21.2 99.35 -13.2 102.65 -5.2 109.35 -3.5 116.05 -1.8 107.1 1.2 98.1 4.2 96.7 5.95 L93.5 9.35 Q91.8 10.95 90.65 12.45 89.5 13.95 89.7 15.35 89.85 16.7 92.2 18.0 96.4 20.3 109.25 21.65 122.05 22.95 122.2 25.5 122.3 28.05 121.45 29.75 121.05 30.6 120.65 31.5 8.05 65.05 -108.75 28.5;M-110.0 39.7 L-107.25 -31.5 -102.45 -31.05 -89.3 -29.85 -69.85 -28.0 -45.9 -25.55 -19.5 -22.7 7.45 -19.5 33.0 -16.15 Q44.05 -14.45 55.15 -12.7 65.2 -10.95 72.05 -9.25 78.95 -7.6 81.75 -6.0 85.55 -3.75 86.85 -1.7 88.2 0.4 87.8 2.3 87.35 4.2 86.0 5.95 L83.0 9.35 Q81.4 10.95 80.3 12.45 79.2 13.95 79.4 15.35 79.55 16.7 81.75 18.0 85.75 20.3 90.4 22.65 94.8 24.8 99.2 27.0 102.6 28.6 106.0 30.25 108.65 31.45 86.05 36.4 -104.4 51.0 -110.0 39.7"/>
    </path>
  </g>
</svg>
