<?xml version="1.0" encoding="UTF-8" standalone="no"?>
<svg xmlns:xlink="http://www.w3.org/1999/xlink" height="51.3px" width="334.1px" xmlns="http://www.w3.org/2000/svg">
  <g transform="matrix(1, 0, 0, 1, 73.0, 21.0)">
    <use height="13.1" transform="matrix(1.0, 0.0, 0.0, 1.0, -73.0, 4.85)" width="19.9" xlink:href="#sprite0"/>
    <use height="51.3" transform="matrix(1.0, 0.0, 0.0, 1.0, -53.1, -21.0)" width="314.2" xlink:href="#sprite1"/>
  </g>
  <defs>
    <g id="sprite0" transform="matrix(1, 0, 0, 1, 0.0, 0.0)">
      <use height="13.1" transform="matrix(1.0, 0.0, 0.0, 1.0, 0.0, 0.0)" width="19.9" xlink:href="#shape0"/>
    </g>
    <g id="shape0" transform="matrix(1, 0, 0, 1, 0.0, 0.0)">
      <path d="M15.55 4.6 L19.9 3.9 19.9 13.1 Q16.3 12.75 11.85 10.85 9.25 9.75 6.9 8.35 5.55 7.35 2.7 4.0 0.0 0.8 0.0 0.35 L0.05 0.0 3.6 2.45 Q6.05 4.15 9.1 4.65 L15.55 4.6" fill="url(#gradient0)" fill-rule="evenodd" stroke="none"/>
    </g>
    <linearGradient gradientTransform="matrix(0.0121, 0.0, 0.0, 0.008, 9.95, 6.55)" gradientUnits="userSpaceOnUse" id="gradient0" spreadMethod="pad" x1="-819.2" x2="819.2">
      <stop offset="0.0" stop-color="#defaff"/>
      <stop offset="1.0" stop-color="#defaff" stop-opacity="0.3529412"/>
    </linearGradient>
    <g id="sprite1" transform="matrix(1, 0, 0, 1, 0.0, 0.0)">
      <use height="51.3" transform="matrix(1.0, 0.0, 0.0, 1.0, 0.0, 0.0)" width="314.2" xlink:href="#shape1"/>
    </g>
    <g id="shape1" transform="matrix(1, 0, 0, 1, 0.0, 0.0)">
      <path d="M314.2 51.3 L0.0 51.3 0.0 0.0 314.2 0.0 314.2 51.3" fill="#defaff" fill-opacity="0.3647059" fill-rule="evenodd" stroke="none"/>
    </g>
  </defs>
</svg>
