<?xml version="1.0" encoding="UTF-8" standalone="no"?>
<svg xmlns:xlink="http://www.w3.org/1999/xlink" height="1060.55px" width="1849.55px" xmlns="http://www.w3.org/2000/svg">
  <g transform="matrix(1, 0, 0, 1, 924.75, 529.35)">
    <use height="1058.65" transform="matrix(1.0, 0.0, 0.0, 1.0, -922.75, -529.35)" width="1846.05" xlink:href="#shape0"/>
  </g>
  <defs>
    <g id="shape0" transform="matrix(1, 0, 0, 1, 922.75, 529.35)">
      <path d="M-822.95 -502.75 Q-823.35 -498.55 -827.55 -498.15 -831.75 -498.55 -832.15 -502.75 -831.75 -506.95 -827.55 -507.35 -823.35 -506.95 -822.95 -502.75" fill="#ffffff" fill-rule="evenodd" stroke="none"/>
      <path d="M-917.55 -444.4 Q-917.8 -442.05 -920.15 -441.8 -922.5 -442.05 -922.75 -444.4 -922.5 -446.75 -920.15 -447.0 -917.8 -446.75 -917.55 -444.4" fill="#ffffff" fill-rule="evenodd" stroke="none"/>
      <path d="M-704.0 -399.25 Q-704.25 -396.75 -706.75 -396.5 -709.25 -396.75 -709.5 -399.25 -709.25 -401.75 -706.75 -402.0 -704.25 -401.75 -704.0 -399.25" fill="#ffffff" fill-rule="evenodd" stroke="none"/>
      <path d="M-328.05 -524.75 Q-328.45 -520.55 -332.65 -520.15 -336.85 -520.55 -337.25 -524.75 -336.85 -528.95 -332.65 -529.35 -328.45 -528.95 -328.05 -524.75" fill="#ffffff" fill-rule="evenodd" stroke="none"/>
      <path d="M292.1 -323.9 Q291.7 -319.7 287.5 -319.3 283.3 -319.7 282.9 -323.9 283.3 -328.1 287.5 -328.5 291.7 -328.1 292.1 -323.9" fill="#ffffff" fill-rule="evenodd" stroke="none"/>
      <path d="M854.5 -205.9 Q854.1 -201.7 849.9 -201.3 845.7 -201.7 845.3 -205.9 845.7 -210.1 849.9 -210.5 854.1 -210.1 854.5 -205.9" fill="#ffffff" fill-rule="evenodd" stroke="none"/>
      <path d="M892.15 208.35 Q891.75 212.55 887.55 212.95 883.35 212.55 882.95 208.35 883.35 204.15 887.55 203.75 891.75 204.15 892.15 208.35" fill="#ffffff" fill-rule="evenodd" stroke="none"/>
      <path d="M615.95 251.05 Q615.55 255.25 611.35 255.65 607.15 255.25 606.75 251.05 607.15 246.85 611.35 246.45 615.55 246.85 615.95 251.05" fill="#ffffff" fill-rule="evenodd" stroke="none"/>
      <path d="M267.0 524.7 Q266.6 528.9 262.4 529.3 258.2 528.9 257.8 524.7 258.2 520.5 262.4 520.1 266.6 520.5 267.0 524.7" fill="#ffffff" fill-rule="evenodd" stroke="none"/>
      <path d="M-905.5 379.1 Q-905.9 383.3 -910.1 383.7 -914.3 383.3 -914.7 379.1 -914.3 374.9 -910.1 374.5 -905.9 374.9 -905.5 379.1" fill="#ffffff" fill-rule="evenodd" stroke="none"/>
      <path d="M-867.85 100.4 Q-868.25 104.6 -872.45 105.0 -876.65 104.6 -877.05 100.4 -876.65 96.2 -872.45 95.8 -868.25 96.2 -867.85 100.4" fill="#ffffff" fill-rule="evenodd" stroke="none"/>
      <path d="M-772.45 -223.5 Q-772.85 -219.3 -777.05 -218.9 -781.25 -219.3 -781.65 -223.5 -781.25 -227.7 -777.05 -228.1 -772.85 -227.7 -772.45 -223.5" fill="#ffffff" fill-rule="evenodd" stroke="none"/>
      <path d="M-824.2 -333.95 Q-824.7 -328.9 -829.75 -328.4 -834.8 -328.9 -835.3 -333.95 -834.8 -339.0 -829.75 -339.5 -824.7 -339.0 -824.2 -333.95" fill="#ffffff" fill-rule="evenodd" stroke="none"/>
      <path d="M-554.0 -489.6 Q-554.4 -485.4 -558.6 -485.0 -562.8 -485.4 -563.2 -489.6 -562.8 -493.8 -558.6 -494.2 -554.4 -493.8 -554.0 -489.6" fill="#ffffff" fill-rule="evenodd" stroke="none"/>
      <path d="M5.9 -507.2 Q5.5 -503.0 1.3 -502.6 -2.9 -503.0 -3.3 -507.2 -2.9 -511.4 1.3 -511.8 5.5 -511.4 5.9 -507.2" fill="#ffffff" fill-rule="evenodd" stroke="none"/>
      <path d="M470.35 -499.65 Q469.95 -495.45 465.75 -495.05 461.55 -495.45 461.15 -499.65 461.55 -503.85 465.75 -504.25 469.95 -503.85 470.35 -499.65" fill="#ffffff" fill-rule="evenodd" stroke="none"/>
      <path d="M658.65 -183.3 Q658.25 -179.1 654.05 -178.7 649.85 -179.1 649.45 -183.3 649.85 -187.5 654.05 -187.9 658.25 -187.5 658.65 -183.3" fill="#ffffff" fill-rule="evenodd" stroke="none"/>
      <path d="M850.1 47.65 Q849.85 50.15 847.35 50.4 844.85 50.15 844.6 47.65 844.85 45.15 847.35 44.9 849.85 45.15 850.1 47.65" fill="#ffffff" fill-rule="evenodd" stroke="none"/>
      <path d="M98.75 -110.5 Q98.35 -106.3 94.15 -105.9 89.95 -106.3 89.55 -110.5 89.95 -114.7 94.15 -115.1 98.35 -114.7 98.75 -110.5" fill="#ffffff" fill-rule="evenodd" stroke="none"/>
      <path d="M-520.15 -57.8 Q-520.45 -54.8 -523.45 -54.5 -526.45 -54.8 -526.75 -57.8 -526.45 -60.8 -523.45 -61.1 -520.45 -60.8 -520.15 -57.8" fill="#ffffff" fill-rule="evenodd" stroke="none"/>
      <path d="M-749.1 298.75 Q-749.35 301.3 -751.9 301.55 -754.45 301.3 -754.7 298.75 -754.45 296.2 -751.9 295.95 -749.35 296.2 -749.1 298.75" fill="#ffffff" fill-rule="evenodd" stroke="none"/>
      <path d="M13.5 409.2 Q13.3 411.2 11.3 411.4 9.3 411.2 9.1 409.2 9.3 407.2 11.3 407.0 13.3 407.2 13.5 409.2" fill="#ffffff" fill-rule="evenodd" stroke="none"/>
      <path d="M174.1 160.65 Q173.7 164.85 169.5 165.25 165.3 164.85 164.9 160.65 165.3 156.45 169.5 156.05 173.7 156.45 174.1 160.65" fill="#ffffff" fill-rule="evenodd" stroke="none"/>
      <path d="M435.65 175.7 Q435.45 178.05 433.1 178.25 430.75 178.05 430.55 175.7 430.75 173.35 433.1 173.15 435.45 173.35 435.65 175.7" fill="#ffffff" fill-rule="evenodd" stroke="none"/>
      <path d="M847.6 429.3 Q847.35 431.8 844.85 432.05 842.35 431.8 842.1 429.3 842.35 426.8 844.85 426.55 847.35 426.8 847.6 429.3" fill="#ffffff" fill-rule="evenodd" stroke="none"/>
      <path d="M923.3 -509.7 Q923.05 -506.85 920.2 -506.6 917.35 -506.85 917.1 -509.7 917.35 -512.55 920.2 -512.8 923.05 -512.55 923.3 -509.7" fill="#ffffff" fill-rule="evenodd" stroke="none"/>
      <path d="M-225.1 -273.7 Q-225.5 -269.5 -229.7 -269.1 -233.9 -269.5 -234.3 -273.7 -233.9 -277.9 -229.7 -278.3 -225.5 -277.9 -225.1 -273.7" fill="#ffffff" fill-rule="evenodd" stroke="none"/>
      <path d="M-285.35 -190.85 Q-285.75 -186.65 -289.95 -186.25 -294.15 -186.65 -294.55 -190.85 -294.15 -195.05 -289.95 -195.45 -285.75 -195.05 -285.35 -190.85" fill="#ffffff" fill-rule="evenodd" stroke="none"/>
      <path d="M-579.1 524.7 Q-579.5 528.9 -583.7 529.3 -587.9 528.9 -588.3 524.7 -587.9 520.5 -583.7 520.1 -579.5 520.5 -579.1 524.7" fill="#ffffff" fill-rule="evenodd" stroke="none"/>
      <path d="M-448.55 323.85 Q-448.95 328.05 -453.15 328.45 -457.35 328.05 -457.75 323.85 -457.35 319.65 -453.15 319.25 -448.95 319.65 -448.55 323.85" fill="#ffffff" fill-rule="evenodd" stroke="none"/>
    </g>
  </defs>
</svg>
