<?xml version="1.0" encoding="UTF-8" standalone="no"?>
<svg xmlns:xlink="http://www.w3.org/1999/xlink" height="1060.55px" width="1849.55px" xmlns="http://www.w3.org/2000/svg">
  <g transform="matrix(1, 0, 0, 1, 924.75, 529.35)">
    <use height="1060.55" transform="matrix(1.0, 0.0, 0.0, 1.0, -924.75, -529.35)" width="1849.55" xlink:href="#shape0"/>
  </g>
  <defs>
    <g id="shape0" transform="matrix(1, 0, 0, 1, 924.75, 529.35)">
      <path d="M-822.0 -502.75 Q-822.5 -497.7 -827.55 -497.2 -832.6 -497.7 -833.1 -502.75 -832.6 -507.8 -827.55 -508.3 -822.5 -507.8 -822.0 -502.75" fill="#ffffff" fill-rule="evenodd" stroke="none"/>
      <path d="M-915.55 -444.4 Q-915.95 -440.2 -920.15 -439.8 -924.35 -440.2 -924.75 -444.4 -924.35 -448.6 -920.15 -449.0 -915.95 -448.6 -915.55 -444.4" fill="#ffffff" fill-rule="evenodd" stroke="none"/>
      <path d="M-702.15 -399.25 Q-702.55 -395.05 -706.75 -394.65 -710.95 -395.05 -711.35 -399.25 -710.95 -403.45 -706.75 -403.85 -702.55 -403.45 -702.15 -399.25" fill="#ffffff" fill-rule="evenodd" stroke="none"/>
      <path d="M-328.05 -524.75 Q-328.45 -520.55 -332.65 -520.15 -336.85 -520.55 -337.25 -524.75 -336.85 -528.95 -332.65 -529.35 -328.45 -528.95 -328.05 -524.75" fill="#ffffff" fill-rule="evenodd" stroke="none"/>
      <path d="M292.1 -323.9 Q291.7 -319.7 287.5 -319.3 283.3 -319.7 282.9 -323.9 283.3 -328.1 287.5 -328.5 291.7 -328.1 292.1 -323.9" fill="#ffffff" fill-rule="evenodd" stroke="none"/>
      <path d="M855.25 -205.9 Q854.8 -201.0 849.9 -200.55 845.0 -201.0 844.55 -205.9 845.0 -210.8 849.9 -211.25 854.8 -210.8 855.25 -205.9" fill="#ffffff" fill-rule="evenodd" stroke="none"/>
      <path d="M892.15 208.35 Q891.75 212.55 887.55 212.95 883.35 212.55 882.95 208.35 883.35 204.15 887.55 203.75 891.75 204.15 892.15 208.35" fill="#ffffff" fill-rule="evenodd" stroke="none"/>
      <path d="M615.95 251.05 Q615.55 255.25 611.35 255.65 607.15 255.25 606.75 251.05 607.15 246.85 611.35 246.45 615.55 246.85 615.95 251.05" fill="#ffffff" fill-rule="evenodd" stroke="none"/>
      <path d="M267.0 524.7 Q266.6 528.9 262.4 529.3 258.2 528.9 257.8 524.7 258.2 520.5 262.4 520.1 266.6 520.5 267.0 524.7" fill="#ffffff" fill-rule="evenodd" stroke="none"/>
      <path d="M-905.5 379.1 Q-905.9 383.3 -910.1 383.7 -914.3 383.3 -914.7 379.1 -914.3 374.9 -910.1 374.5 -905.9 374.9 -905.5 379.1" fill="#ffffff" fill-rule="evenodd" stroke="none"/>
      <path d="M-865.45 100.4 Q-866.05 106.8 -872.45 107.4 -878.85 106.8 -879.45 100.4 -878.85 94.0 -872.45 93.4 -866.05 94.0 -865.45 100.4" fill="#ffffff" fill-rule="evenodd" stroke="none"/>
      <path d="M-772.45 -223.5 Q-772.85 -219.3 -777.05 -218.9 -781.25 -219.3 -781.65 -223.5 -781.25 -227.7 -777.05 -228.1 -772.85 -227.7 -772.45 -223.5" fill="#ffffff" fill-rule="evenodd" stroke="none"/>
      <path d="M-825.15 -333.95 Q-825.55 -329.75 -829.75 -329.35 -833.95 -329.75 -834.35 -333.95 -833.95 -338.15 -829.75 -338.55 -825.55 -338.15 -825.15 -333.95" fill="#ffffff" fill-rule="evenodd" stroke="none"/>
      <path d="M-553.25 -489.6 Q-553.7 -484.7 -558.6 -484.25 -563.5 -484.7 -563.95 -489.6 -563.5 -494.5 -558.6 -494.95 -553.7 -494.5 -553.25 -489.6" fill="#ffffff" fill-rule="evenodd" stroke="none"/>
      <path d="M5.9 -507.2 Q5.5 -503.0 1.3 -502.6 -2.9 -503.0 -3.3 -507.2 -2.9 -511.4 1.3 -511.8 5.5 -511.4 5.9 -507.2" fill="#ffffff" fill-rule="evenodd" stroke="none"/>
      <path d="M471.4 -499.65 Q470.9 -494.5 465.75 -494.0 460.6 -494.5 460.1 -499.65 460.6 -504.8 465.75 -505.3 470.9 -504.8 471.4 -499.65" fill="#ffffff" fill-rule="evenodd" stroke="none"/>
      <path d="M658.65 -183.3 Q658.25 -179.1 654.05 -178.7 649.85 -179.1 649.45 -183.3 649.85 -187.5 654.05 -187.9 658.25 -187.5 658.65 -183.3" fill="#ffffff" fill-rule="evenodd" stroke="none"/>
      <path d="M851.95 47.65 Q851.55 51.85 847.35 52.25 843.15 51.85 842.75 47.65 843.15 43.45 847.35 43.05 851.55 43.45 851.95 47.65" fill="#ffffff" fill-rule="evenodd" stroke="none"/>
      <path d="M98.75 -110.5 Q98.35 -106.3 94.15 -105.9 89.95 -106.3 89.55 -110.5 89.95 -114.7 94.15 -115.1 98.35 -114.7 98.75 -110.5" fill="#ffffff" fill-rule="evenodd" stroke="none"/>
      <path d="M-518.85 -57.8 Q-519.25 -53.6 -523.45 -53.2 -527.65 -53.6 -528.05 -57.8 -527.65 -62.0 -523.45 -62.4 -519.25 -62.0 -518.85 -57.8" fill="#ffffff" fill-rule="evenodd" stroke="none"/>
      <path d="M-747.3 298.75 Q-747.7 302.95 -751.9 303.35 -756.1 302.95 -756.5 298.75 -756.1 294.55 -751.9 294.15 -747.7 294.55 -747.3 298.75" fill="#ffffff" fill-rule="evenodd" stroke="none"/>
      <path d="M15.9 409.2 Q15.5 413.4 11.3 413.8 7.1 413.4 6.7 409.2 7.1 405.0 11.3 404.6 15.5 405.0 15.9 409.2" fill="#ffffff" fill-rule="evenodd" stroke="none"/>
      <path d="M174.1 160.65 Q173.7 164.85 169.5 165.25 165.3 164.85 164.9 160.65 165.3 156.45 169.5 156.05 173.7 156.45 174.1 160.65" fill="#ffffff" fill-rule="evenodd" stroke="none"/>
      <path d="M439.25 175.7 Q438.7 181.3 433.1 181.85 427.5 181.3 426.95 175.7 427.5 170.1 433.1 169.55 438.7 170.1 439.25 175.7" fill="#ffffff" fill-rule="evenodd" stroke="none"/>
      <path d="M849.45 429.3 Q849.05 433.5 844.85 433.9 840.65 433.5 840.25 429.3 840.65 425.1 844.85 424.7 849.05 425.1 849.45 429.3" fill="#ffffff" fill-rule="evenodd" stroke="none"/>
      <path d="M924.8 -509.7 Q924.4 -505.5 920.2 -505.1 916.0 -505.5 915.6 -509.7 916.0 -513.9 920.2 -514.3 924.4 -513.9 924.8 -509.7" fill="#ffffff" fill-rule="evenodd" stroke="none"/>
      <path d="M-225.1 -273.7 Q-225.5 -269.5 -229.7 -269.1 -233.9 -269.5 -234.3 -273.7 -233.9 -277.9 -229.7 -278.3 -225.5 -277.9 -225.1 -273.7" fill="#ffffff" fill-rule="evenodd" stroke="none"/>
      <path d="M-283.85 -190.85 Q-284.4 -185.3 -289.95 -184.75 -295.5 -185.3 -296.05 -190.85 -295.5 -196.4 -289.95 -196.95 -284.4 -196.4 -283.85 -190.85" fill="#ffffff" fill-rule="evenodd" stroke="none"/>
      <path d="M-577.2 524.7 Q-577.75 530.65 -583.7 531.2 -589.65 530.65 -590.2 524.7 -589.65 518.75 -583.7 518.2 -577.75 518.75 -577.2 524.7" fill="#ffffff" fill-rule="evenodd" stroke="none"/>
      <path d="M-448.55 323.85 Q-448.95 328.05 -453.15 328.45 -457.35 328.05 -457.75 323.85 -457.35 319.65 -453.15 319.25 -448.95 319.65 -448.55 323.85" fill="#ffffff" fill-rule="evenodd" stroke="none"/>
    </g>
  </defs>
</svg>
