<?xml version="1.0" encoding="UTF-8" standalone="no"?>
<svg xmlns:xlink="http://www.w3.org/1999/xlink" height="296.05px" width="264.45px" xmlns="http://www.w3.org/2000/svg">
  <g transform="matrix(1, 0, 0, 1, 221.25, 128.45)">
    <use height="119.85" transform="matrix(1.0, 0.0, 0.0, 1.0, -220.85, -117.25)" width="93.55" xlink:href="#shape0"/>
    <use height="26.3" transform="matrix(1.0, 0.0, 0.0, 1.0, -171.1, -105.75)" width="32.8" xlink:href="#sprite0"/>
    <use height="202.0" transform="matrix(0.9855, -0.1562, 0.1562, 0.9855, -50.2152, -191.0743)" width="43.1" xlink:href="#shape2"/>
    <use height="22.25" transform="matrix(0.9855, -0.1562, 0.1562, 0.9855, -21.1419, 6.7288)" width="22.35" xlink:href="#shape3"/>
    <use height="24.2" transform="matrix(0.7922, -0.6047, 0.6047, 0.7922, -184.7408, -71.6614)" width="219.2" xlink:href="#shape4"/>
    <use height="26.35" transform="matrix(0.6744, -0.7327, 0.7327, 0.6744, -205.2167, -67.8908)" width="38.8" xlink:href="#shape5"/>
  </g>
  <defs>
    <g id="shape0" transform="matrix(1, 0, 0, 1, 220.85, 117.25)">
      <path d="M-145.4 -60.55 Q-143.45 -59.25 -141.5 -59.0 L-137.6 -59.35 Q-135.7 -59.85 -133.75 -60.85 L-132.9 -61.2 Q-131.3 -61.7 -130.05 -61.2 -128.8 -60.7 -128.4 -59.4 -128.05 -58.15 -129.15 -56.25 -131.75 -52.15 -134.8 -49.8 -137.9 -47.45 -140.85 -46.4 -143.85 -45.35 -146.15 -45.1 L-149.45 -45.0 Q-151.35 -45.25 -151.55 -47.65 -151.75 -50.15 -150.4 -54.85 -149.75 -57.15 -148.9 -58.4 L-147.25 -60.05 -145.9 -60.55 -145.4 -60.55" fill="#666666" fill-rule="evenodd" stroke="none"/>
      <path d="M-145.4 -60.55 L-145.9 -60.55 -147.25 -60.05 -148.9 -58.4 Q-149.75 -57.15 -150.4 -54.85 -151.75 -50.15 -151.55 -47.65 -151.35 -45.25 -149.45 -45.0 L-146.15 -45.1 Q-143.85 -45.35 -140.85 -46.4 -137.9 -47.45 -134.8 -49.8 -131.75 -52.15 -129.15 -56.25 -128.05 -58.15 -128.4 -59.4 -128.8 -60.7 -130.05 -61.2 -131.3 -61.7 -132.9 -61.2 L-133.75 -60.85 Q-135.7 -59.85 -137.6 -59.35 L-141.5 -59.0 Q-143.45 -59.25 -145.4 -60.55" fill="none" stroke="#000000" stroke-linecap="round" stroke-linejoin="round" stroke-width="2.0"/>
      <path d="M-145.6 -59.85 Q-143.45 -58.45 -141.3 -58.25 L-137.2 -58.7 Q-135.25 -59.3 -133.45 -60.25 L-132.7 -60.5 -131.15 -60.7 -129.9 -60.25 Q-131.15 -58.5 -132.75 -57.8 -134.3 -57.05 -136.0 -56.95 L-139.65 -56.95 Q-141.75 -57.1 -143.7 -56.9 -145.75 -56.75 -147.45 -55.6 -148.4 -54.9 -149.15 -53.4 -149.9 -51.9 -150.15 -50.15 L-150.2 -49.05 Q-150.15 -47.0 -148.95 -45.65 L-149.2 -45.65 -149.35 -45.65 Q-150.1 -45.8 -150.45 -46.25 -151.1 -47.25 -150.8 -49.7 L-149.75 -54.65 Q-149.0 -57.15 -148.15 -58.25 L-146.55 -59.65 -145.6 -59.85" fill="#999999" fill-rule="evenodd" stroke="none"/>
      <path d="M-206.15 -23.8 Q-207.6 -23.0 -209.65 -23.15 -211.7 -23.3 -213.7 -23.9 -215.75 -24.5 -217.05 -25.05 -218.45 -25.6 -218.45 -25.65 -219.7 -26.4 -219.8 -27.0 -219.9 -27.6 -219.6 -27.95 L-219.2 -28.3 Q-217.4 -27.55 -215.5 -27.75 L-212.3 -28.5 -210.95 -29.05 -206.15 -23.8" fill="#333333" fill-rule="evenodd" stroke="none"/>
      <path d="M-210.95 -29.05 L-212.3 -28.5 -215.5 -27.75 Q-217.4 -27.55 -219.2 -28.3 L-219.6 -27.95 Q-219.9 -27.6 -219.8 -27.0 -219.7 -26.4 -218.45 -25.65 -218.45 -25.6 -217.05 -25.05 -215.75 -24.5 -213.7 -23.9 -211.7 -23.3 -209.65 -23.15 -207.6 -23.0 -206.15 -23.8" fill="none" stroke="#000000" stroke-linecap="round" stroke-linejoin="round" stroke-width="2.0"/>
      <path d="M-159.3 -116.25 Q-154.85 -116.1 -150.5 -114.1 -146.2 -112.05 -143.15 -108.7 -140.2 -105.35 -138.7 -101.15 -137.2 -97.0 -137.35 -92.45 -137.5 -88.0 -139.5 -83.65 -140.4 -81.65 -140.95 -78.0 -141.55 -74.4 -141.75 -69.8 L-142.15 -60.4 -142.2 -51.25 -142.15 -43.7 Q-142.15 -39.7 -143.0 -35.65 -143.85 -31.7 -145.65 -27.8 L-148.55 -22.1 Q-150.1 -19.25 -152.0 -16.75 -153.9 -14.3 -156.2 -12.5 -159.2 -9.55 -161.95 -8.1 -164.75 -6.65 -167.45 -6.1 L-173.0 -5.15 Q-176.25 -4.65 -179.55 -5.15 -182.85 -5.65 -185.85 -6.6 L-191.1 -8.6 -194.7 -10.1 Q-200.4 -12.4 -204.65 -16.3 -208.9 -20.25 -211.6 -25.3 -214.3 -30.35 -215.35 -36.1 -216.45 -41.8 -215.7 -47.65 -215.0 -53.55 -212.4 -59.1 -210.75 -62.75 -208.4 -65.75 -206.1 -68.8 -203.3 -71.25 -201.25 -73.05 -198.7 -76.05 L-193.55 -82.8 Q-190.9 -86.45 -188.4 -90.25 L-184.0 -97.4 -180.9 -103.1 Q-178.85 -107.45 -175.5 -110.4 -172.15 -113.4 -167.95 -114.9 -163.8 -116.45 -159.3 -116.25" fill="#666666" fill-rule="evenodd" stroke="none"/>
      <path d="M-159.3 -116.25 Q-163.8 -116.45 -167.95 -114.9 -172.15 -113.4 -175.5 -110.4 -178.85 -107.45 -180.9 -103.1 L-184.0 -97.4 -188.4 -90.25 Q-190.9 -86.45 -193.55 -82.8 L-198.7 -76.05 Q-201.25 -73.05 -203.3 -71.25 -206.1 -68.8 -208.4 -65.75 -210.75 -62.75 -212.4 -59.1 -215.0 -53.55 -215.7 -47.65 -216.45 -41.8 -215.35 -36.1 -214.3 -30.35 -211.6 -25.3 -208.9 -20.25 -204.65 -16.3 -200.4 -12.4 -194.7 -10.1 L-191.1 -8.6 -185.85 -6.6 Q-182.85 -5.65 -179.55 -5.15 -176.25 -4.65 -173.0 -5.15 L-167.45 -6.1 Q-164.75 -6.65 -161.95 -8.1 -159.2 -9.55 -156.2 -12.5 -153.9 -14.3 -152.0 -16.75 -150.1 -19.25 -148.55 -22.1 L-145.65 -27.8 Q-143.85 -31.7 -143.0 -35.65 -142.15 -39.7 -142.15 -43.7 L-142.2 -51.25 -142.15 -60.4 -141.75 -69.8 Q-141.55 -74.4 -140.95 -78.0 -140.4 -81.65 -139.5 -83.65 -137.5 -88.0 -137.35 -92.45 -137.2 -97.0 -138.7 -101.15 -140.2 -105.35 -143.15 -108.7 -146.2 -112.05 -150.5 -114.1 -154.85 -116.1 -159.3 -116.25" fill="none" stroke="#000000" stroke-linecap="round" stroke-linejoin="round" stroke-width="2.0"/>
      <path d="M-175.55 -109.45 Q-172.6 -112.25 -168.85 -113.75 -165.15 -115.35 -160.95 -115.5 -164.8 -113.9 -167.8 -110.95 -170.8 -108.05 -172.65 -104.2 L-173.8 -101.65 -176.7 -95.45 Q-178.25 -92.35 -179.75 -89.85 L-181.6 -87.05 -184.15 -83.1 -186.05 -79.2 -186.5 -77.6 Q-187.55 -78.8 -188.7 -78.75 -189.6 -78.7 -190.35 -78.1 L-191.75 -76.65 -193.05 -74.9 -193.6 -74.05 -196.9 -69.85 -200.05 -65.8 -202.75 -61.25 Q-205.85 -54.5 -206.15 -47.5 -206.5 -40.45 -204.25 -33.95 -202.05 -27.5 -197.6 -22.3 -193.15 -17.1 -186.65 -14.0 -181.8 -11.65 -176.5 -10.4 -171.15 -9.15 -165.95 -9.5 -160.75 -9.9 -156.3 -12.5 -159.5 -10.1 -162.95 -8.75 -166.5 -7.4 -169.5 -6.65 L-174.45 -5.25 -178.55 -5.8 -182.45 -6.45 -186.2 -6.7 -186.55 -7.7 -186.65 -8.1 -187.05 -8.2 Q-190.9 -9.1 -194.45 -10.75 -199.85 -13.35 -204.0 -17.25 -208.15 -21.2 -210.8 -26.15 -213.45 -31.1 -214.5 -36.55 -215.6 -42.05 -215.0 -47.75 -214.35 -53.4 -211.8 -58.85 -208.55 -65.75 -202.85 -70.7 -200.8 -72.5 -198.3 -75.55 L-193.05 -82.25 -187.9 -89.8 -183.4 -97.0 -180.3 -102.8 Q-178.5 -106.7 -175.55 -109.45" fill="#333333" fill-rule="evenodd" stroke="none"/>
      <path d="M-156.95 -110.5 Q-155.3 -110.15 -153.65 -109.2 -152.05 -108.3 -150.85 -107.0 -149.7 -105.65 -149.4 -104.05 -149.45 -104.85 -148.35 -105.5 -147.25 -106.2 -145.6 -106.2 -143.95 -106.25 -142.45 -105.2 -141.5 -104.35 -140.8 -102.95 L-139.65 -100.05 -138.95 -97.3 Q-138.6 -92.8 -140.05 -88.35 -140.7 -86.4 -140.9 -82.3 -141.65 -80.15 -142.1 -76.75 L-142.8 -69.2 -143.15 -60.8 -143.15 -52.5 -143.15 -45.3 -143.15 -44.2 Q-143.1 -37.9 -145.2 -31.95 L-146.5 -28.8 Q-147.6 -26.6 -148.95 -24.5 -153.1 -19.9 -158.05 -17.25 -163.05 -14.65 -168.4 -14.05 -173.75 -13.5 -178.95 -15.15 -184.0 -16.85 -187.95 -20.3 -191.9 -23.75 -194.45 -28.75 -196.5 -32.75 -197.35 -37.2 -198.25 -41.7 -197.95 -46.4 -197.65 -51.1 -196.15 -55.65 L-195.75 -56.8 Q-193.6 -62.8 -189.75 -67.6 -188.3 -69.4 -186.6 -72.2 L-183.15 -78.4 Q-181.35 -81.8 -179.65 -85.35 L-176.6 -92.15 -174.35 -97.9 -173.8 -99.3 -173.6 -100.0 Q-172.6 -102.85 -171.0 -105.35 -169.35 -107.85 -167.0 -109.45 -164.65 -111.0 -161.5 -111.05 L-159.35 -110.9 -156.95 -110.5" fill="#cccccc" fill-rule="evenodd" stroke="none"/>
      <path d="M-142.45 -105.2 Q-141.45 -104.4 -140.75 -102.95 -140.05 -101.6 -139.65 -100.05 L-138.95 -97.3 Q-138.6 -92.8 -140.0 -88.35 -140.65 -86.4 -140.85 -82.3 -141.6 -80.15 -142.05 -76.7 L-142.75 -69.25 -143.05 -60.85 -143.15 -52.5 -143.1 -45.3 -143.1 -44.2 Q-143.05 -37.9 -145.15 -32.0 L-146.45 -28.8 Q-147.55 -26.55 -148.9 -24.5 -153.55 -19.35 -159.3 -16.65 -165.0 -14.0 -171.05 -13.95 -165.25 -14.55 -159.85 -17.65 -154.55 -20.75 -150.3 -26.05 -149.0 -28.3 -148.05 -30.7 L-146.85 -34.0 Q-145.0 -40.2 -145.35 -46.7 L-145.4 -47.85 -145.75 -55.25 -146.05 -63.75 -146.1 -72.4 -145.75 -80.2 Q-145.45 -83.7 -144.75 -85.95 -144.75 -90.15 -144.15 -92.25 -142.95 -96.9 -143.5 -101.5 L-144.1 -103.75 -145.05 -106.2 Q-143.65 -106.1 -142.45 -105.2" fill="#e5e5e5" fill-rule="evenodd" stroke="none"/>
      <path d="M-168.1 -108.65 Q-166.25 -110.25 -163.75 -110.85 -166.15 -109.3 -167.8 -106.75 -169.5 -104.25 -170.45 -101.35 L-170.7 -100.65 -171.2 -99.2 Q-172.1 -96.7 -173.5 -93.5 L-176.55 -86.7 -180.0 -79.75 -183.5 -73.55 Q-185.15 -70.75 -186.6 -68.95 -190.5 -64.1 -192.65 -58.15 L-193.05 -57.0 Q-194.5 -52.4 -194.8 -47.75 -195.1 -43.05 -194.25 -38.55 -193.35 -34.1 -191.3 -30.05 -188.8 -25.1 -184.8 -21.6 -180.9 -18.15 -175.85 -16.5 -171.75 -15.2 -167.45 -15.25 -163.25 -15.35 -159.1 -16.8 -163.9 -14.5 -168.95 -14.05 -174.05 -13.65 -178.95 -15.2 -184.0 -16.9 -187.95 -20.35 -191.9 -23.8 -194.45 -28.75 -196.5 -32.8 -197.35 -37.25 -198.25 -41.75 -197.95 -46.45 -197.65 -51.1 -196.15 -55.7 L-195.75 -56.85 Q-193.6 -62.8 -189.75 -67.65 -188.3 -69.45 -186.6 -72.25 L-183.15 -78.45 Q-181.35 -81.85 -179.65 -85.4 L-176.6 -92.2 -174.35 -97.9 -173.8 -99.35 -173.6 -100.05 Q-172.75 -102.55 -171.35 -104.8 -170.0 -107.05 -168.1 -108.65" fill="#b4b4b4" fill-rule="evenodd" stroke="none"/>
      <path d="M-152.0 -75.65 L-152.65 -74.6 -154.35 -72.2 -156.8 -69.4 Q-158.15 -68.05 -159.65 -67.25 -161.2 -66.5 -162.65 -66.75 -164.1 -67.15 -165.35 -68.65 -166.55 -70.2 -167.45 -72.25 L-169.05 -76.35 -170.0 -79.7 -170.35 -81.1 -152.0 -75.65" fill="#b4b4b4" fill-rule="evenodd" stroke="none"/>
      <path d="M-179.65 -12.65 L-179.3 -11.3 Q-178.95 -10.0 -178.75 -7.9 -178.55 -5.75 -178.8 -3.3 -179.1 -0.85 -180.3 1.45 L-180.75 1.55 -181.7 1.5 -182.55 0.85 -183.75 -1.05 -185.9 -4.25 Q-187.1 -5.95 -188.45 -7.25 -189.8 -8.55 -190.9 -8.7 L-179.65 -12.65" fill="#333333" fill-rule="evenodd" stroke="none"/>
      <path d="M-179.65 -12.65 L-179.3 -11.3 Q-178.95 -10.0 -178.75 -7.9 -178.55 -5.75 -178.8 -3.3 -179.1 -0.85 -180.3 1.45 L-180.75 1.55 -181.7 1.5 -182.55 0.85 -183.75 -1.05 -185.9 -4.25 Q-187.1 -5.95 -188.45 -7.25 -189.8 -8.55 -190.9 -8.7" fill="none" stroke="#000000" stroke-linecap="round" stroke-linejoin="round" stroke-width="2.0"/>
      <path d="M-156.55 -13.5 L-156.1 -12.25 -155.3 -9.1 Q-154.9 -7.15 -154.85 -4.9 -154.85 -2.65 -155.55 -0.5 L-155.9 -0.35 -156.7 -0.2 Q-157.2 -0.25 -157.55 -0.6 L-158.75 -1.95 -160.9 -4.2 -163.45 -6.25 Q-164.7 -7.05 -165.65 -7.0 L-156.55 -13.5" fill="#333333" fill-rule="evenodd" stroke="none"/>
      <path d="M-156.55 -13.5 L-156.1 -12.25 -155.3 -9.1 Q-154.9 -7.15 -154.85 -4.9 -154.85 -2.65 -155.55 -0.5 L-155.9 -0.35 -156.7 -0.2 Q-157.2 -0.25 -157.55 -0.6 L-158.75 -1.95 -160.9 -4.2 -163.45 -6.25 Q-164.7 -7.05 -165.65 -7.0" fill="none" stroke="#000000" stroke-linecap="round" stroke-linejoin="round" stroke-width="2.0"/>
      <path d="M-153.1 -75.0 L-154.95 -72.95 Q-156.2 -71.85 -157.75 -71.2 L-161.15 -71.0 Q-162.55 -71.45 -163.9 -72.7 L-166.4 -75.55 -168.45 -78.65 -169.85 -81.2 -170.35 -82.2 -152.4 -76.0 -153.1 -75.0" fill="#d8a235" fill-rule="evenodd" stroke="none"/>
      <path d="M-153.1 -75.0 L-152.4 -76.0 -170.35 -82.2 -169.85 -81.2 -168.45 -78.65 -166.4 -75.55 -163.9 -72.7 Q-162.55 -71.45 -161.15 -71.0 L-157.75 -71.2 Q-156.2 -71.85 -154.95 -72.95 L-153.1 -75.0" fill="none" stroke="#000000" stroke-linecap="round" stroke-linejoin="round" stroke-width="1.0"/>
      <path d="M-155.25 -76.25 L-155.6 -75.6 -156.65 -74.25 Q-157.35 -73.55 -158.35 -73.15 -159.4 -72.75 -160.7 -73.15 -161.95 -73.6 -163.0 -74.7 L-164.8 -77.05 -166.0 -79.15 -166.4 -80.1 -155.25 -76.25" fill="#c12d05" fill-rule="evenodd" stroke="none"/>
      <path d="M-155.25 -76.25 L-166.4 -80.1 -166.0 -79.15 -164.8 -77.05 -163.0 -74.7 Q-161.95 -73.6 -160.7 -73.15 -159.4 -72.75 -158.35 -73.15 -157.35 -73.55 -156.65 -74.25 L-155.6 -75.6 -155.25 -76.25" fill="none" stroke="#000000" stroke-linecap="round" stroke-linejoin="round" stroke-width="1.0"/>
      <path d="M-162.7 -78.45 Q-162.5 -76.65 -161.2 -75.35 -159.9 -74.15 -158.1 -73.65 L-159.25 -73.3 -160.6 -73.5 Q-161.85 -73.9 -162.85 -75.05 L-164.7 -77.45 -165.8 -79.5 -164.65 -79.1 -162.7 -78.45" fill="#9b0d0d" fill-rule="evenodd" stroke="none"/>
      <path d="M-152.7 -85.0 Q-152.45 -83.75 -151.4 -82.4 L-148.95 -79.75 -146.7 -77.7 -145.7 -76.9 -145.55 -76.25 -145.55 -75.0 Q-145.7 -74.3 -146.25 -73.9 L-147.45 -73.75 -148.6 -74.15 -149.1 -74.45 Q-150.45 -73.15 -151.5 -72.95 L-153.6 -73.2 Q-154.6 -73.7 -155.6 -74.5 -156.65 -75.35 -157.85 -76.0 L-160.3 -77.05 -162.85 -78.0 -164.7 -78.7 -167.3 -79.7 Q-168.7 -80.3 -169.7 -81.0 -170.7 -81.75 -170.8 -82.55 L-170.9 -83.75 -170.2 -83.85 -167.7 -83.4 -164.35 -82.8 -161.0 -82.75 -158.7 -83.2 Q-157.6 -83.5 -156.6 -84.2 L-155.75 -84.85 -154.55 -85.65 -153.4 -85.9 Q-152.9 -85.85 -152.7 -85.0" fill="#f9c248" fill-rule="evenodd" stroke="none"/>
      <path d="M-152.7 -85.0 Q-152.45 -83.75 -151.4 -82.4 L-148.95 -79.75 -146.7 -77.7 -145.7 -76.9 -145.55 -76.25 -145.55 -75.0 Q-145.7 -74.3 -146.25 -73.9 L-147.45 -73.75 -148.6 -74.15 -149.1 -74.45 Q-150.45 -73.15 -151.5 -72.95 L-153.6 -73.2 Q-154.6 -73.7 -155.6 -74.5 -156.65 -75.35 -157.85 -76.0 L-160.3 -77.05 -162.85 -78.0 -164.7 -78.7 -167.3 -79.7 Q-168.7 -80.3 -169.7 -81.0 -170.7 -81.75 -170.8 -82.55 L-170.9 -83.75 -170.2 -83.85 -167.7 -83.4 -164.35 -82.8 -161.0 -82.75 -158.7 -83.2 Q-157.6 -83.5 -156.6 -84.2 L-155.75 -84.85 -154.55 -85.65 -153.4 -85.9 Q-152.9 -85.85 -152.7 -85.0" fill="none" stroke="#000000" stroke-linecap="round" stroke-linejoin="round" stroke-width="1.0"/>
      <path d="M-156.5 -80.25 L-156.45 -81.35 -156.0 -81.05 -155.35 -80.4 Q-155.15 -80.1 -155.65 -80.1 L-156.5 -80.25" fill="#d8a235" fill-rule="evenodd" stroke="none"/>
      <path d="M-149.05 -75.85 L-148.1 -75.45 Q-147.65 -75.05 -147.15 -75.1 -146.7 -75.15 -146.5 -75.45 L-145.85 -75.7 -146.0 -74.85 -146.45 -74.15 -147.4 -74.1 -148.45 -74.45 -149.25 -74.85 -149.45 -75.05 -149.55 -74.5 Q-150.8 -73.3 -151.85 -73.2 -152.85 -73.1 -153.8 -73.65 L-155.8 -75.0 -157.9 -76.45 -161.15 -77.8 -163.9 -78.8 -166.4 -79.75 Q-167.95 -80.35 -169.15 -81.05 -170.35 -81.85 -170.5 -82.6 L-170.55 -83.15 -170.6 -83.5 -170.55 -83.65 -169.45 -82.4 -168.15 -81.6 -167.4 -81.25 Q-165.55 -80.4 -163.2 -79.6 -160.9 -78.75 -158.2 -78.3 L-156.95 -78.1 -155.7 -77.75 -154.55 -76.75 -153.6 -75.6 Q-152.95 -75.15 -152.2 -75.1 L-150.6 -75.25 -149.85 -75.6 -149.05 -75.85" fill="#d8a235" fill-rule="evenodd" stroke="none"/>
      <path d="M-147.55 -77.35 Q-148.35 -77.7 -149.55 -78.85 L-152.55 -82.25 -152.8 -82.7 -153.4 -83.65 -154.0 -84.2 -154.85 -84.0 Q-155.4 -83.75 -156.25 -84.0 L-155.7 -84.5 -154.55 -85.35 -153.6 -85.55 -153.25 -85.25 Q-152.95 -85.0 -153.0 -84.45 L-152.35 -83.2 -150.15 -80.25 Q-148.6 -78.55 -146.1 -77.0 L-146.45 -76.95 Q-146.8 -76.95 -147.55 -77.35" fill="#ffe4b3" fill-rule="evenodd" stroke="none"/>
    </g>
    <g id="sprite0" transform="matrix(1, 0, 0, 1, 16.3, 13.6)">
      <use height="25.05" transform="matrix(1.0, 0.0, 0.0, 1.0, -16.0, -12.55)" width="32.05" xlink:href="#shape1"/>
    </g>
    <g id="shape1" transform="matrix(1, 0, 0, 1, 16.0, 12.55)">
      <path d="M-0.2 -5.3 Q0.25 -2.8 -0.45 0.0 -1.35 3.3 -3.3 5.45 L-9.6 4.55 -14.45 4.5 Q-15.3 2.8 -15.45 0.7 -15.65 -1.4 -15.05 -3.7 -14.35 -6.5 -12.75 -8.5 -11.2 -10.5 -9.2 -11.45 -7.25 -12.35 -5.2 -11.85 -3.15 -11.3 -1.85 -9.55 -0.6 -7.8 -0.2 -5.3" fill="#ffffff" fill-rule="evenodd" stroke="none"/>
      <path d="M-0.2 -5.3 Q-0.6 -7.8 -1.85 -9.55 -3.15 -11.3 -5.2 -11.85 -7.25 -12.35 -9.2 -11.45 -11.2 -10.5 -12.75 -8.5 -14.35 -6.5 -15.05 -3.7 -15.65 -1.4 -15.45 0.7 -15.3 2.8 -14.45 4.5 L-9.6 4.55 -3.3 5.45 Q-1.35 3.3 -0.45 0.0 0.25 -2.8 -0.2 -5.3" fill="none" stroke="#000000" stroke-linecap="round" stroke-linejoin="round" stroke-width="1.0"/>
      <path d="M-12.4 -4.25 Q-13.05 -1.8 -12.7 0.4 -12.4 2.55 -11.3 4.1 L-14.15 4.15 Q-14.95 2.55 -15.1 0.5 -15.25 -1.55 -14.7 -3.75 -14.0 -6.35 -12.65 -8.2 -11.3 -10.1 -9.55 -11.0 -7.8 -11.9 -5.95 -11.6 -8.1 -11.2 -9.85 -9.2 -11.6 -7.25 -12.4 -4.25" fill="#e5e2be" fill-rule="evenodd" stroke="none"/>
      <path d="M15.0 4.9 Q14.35 7.35 13.2 9.2 12.1 11.05 10.7 12.0 7.65 9.55 4.35 8.05 3.95 5.45 4.75 2.3 5.4 -0.25 6.6 -2.15 7.8 -4.05 9.3 -4.95 10.75 -5.9 12.2 -5.55 13.65 -5.15 14.45 -3.65 15.3 -2.1 15.5 0.1 15.6 2.35 15.0 4.9" fill="#ffffff" fill-rule="evenodd" stroke="none"/>
      <path d="M15.0 4.9 Q15.6 2.35 15.5 0.1 15.3 -2.1 14.45 -3.65 13.65 -5.15 12.2 -5.55 10.75 -5.9 9.3 -4.95 7.8 -4.05 6.6 -2.15 5.4 -0.25 4.75 2.3 3.95 5.45 4.35 8.05 7.65 9.55 10.7 12.0 12.1 11.05 13.2 9.2 14.35 7.35 15.0 4.9" fill="none" stroke="#000000" stroke-linecap="round" stroke-linejoin="round" stroke-width="1.0"/>
      <path d="M5.1 2.3 L5.55 0.8 Q6.45 -1.65 7.8 -3.2 9.15 -4.8 10.65 -5.2 9.0 -3.55 7.95 -0.7 L7.5 0.75 Q6.9 3.2 7.05 5.35 7.2 7.55 8.1 9.1 8.9 10.4 10.1 10.7 10.85 10.9 11.6 10.7 L10.45 11.6 Q7.75 9.45 4.8 8.05 4.6 6.75 4.65 5.3 4.7 3.85 5.1 2.3" fill="#e5e2be" fill-rule="evenodd" stroke="none"/>
      <path d="M-1.3 2.85 Q-2.0 4.3 -3.15 4.9 L-5.4 5.1 Q-6.45 4.55 -6.7 3.25 -6.95 1.95 -6.3 0.5 -5.6 -0.95 -4.45 -1.6 L-2.2 -1.8 Q-1.15 -1.2 -0.85 0.1 -0.6 1.35 -1.3 2.85" fill="#000000" fill-rule="evenodd" stroke="none"/>
      <path d="M-2.45 3.75 Q-2.75 4.35 -3.2 4.6 L-4.1 4.7 -4.6 3.95 Q-4.7 3.4 -4.45 2.8 L-3.7 2.0 -2.8 1.95 Q-2.4 2.15 -2.3 2.7 -2.2 3.2 -2.45 3.75" fill="#ffffff" fill-rule="evenodd" stroke="none"/>
      <path d="M13.05 9.55 L11.55 11.3 Q10.65 11.85 9.85 11.5 9.05 11.1 8.9 10.05 8.75 9.0 9.3 7.75 9.9 6.55 10.8 6.0 L12.5 5.8 Q13.25 6.2 13.45 7.25 13.6 8.3 13.05 9.55" fill="#000000" fill-rule="evenodd" stroke="none"/>
      <path d="M11.9 10.3 L11.35 10.95 10.65 11.0 10.2 10.4 Q10.15 10.0 10.35 9.55 L10.95 8.9 11.65 8.85 12.05 9.45 11.9 10.3" fill="#ffffff" fill-rule="evenodd" stroke="none"/>
      <path d="M-1.85 -9.45 Q-3.2 -7.5 -5.2 -6.05 -7.2 -4.6 -9.65 -3.7 -12.5 -2.8 -15.25 -2.75 L-15.05 -3.7 Q-14.35 -6.5 -12.8 -8.5 -11.25 -10.5 -9.25 -11.4 -7.25 -12.35 -5.2 -11.85 -3.15 -11.3 -1.85 -9.45" fill="#666666" fill-rule="evenodd" stroke="none"/>
      <path d="M-1.85 -9.45 Q-3.15 -11.3 -5.2 -11.85 -7.25 -12.35 -9.25 -11.4 -11.25 -10.5 -12.8 -8.5 -14.35 -6.5 -15.05 -3.7 L-15.25 -2.75 Q-12.5 -2.8 -9.65 -3.7 -7.2 -4.6 -5.2 -6.05 -3.2 -7.5 -1.85 -9.45" fill="none" stroke="#000000" stroke-linecap="round" stroke-linejoin="round" stroke-width="1.0"/>
      <path d="M-5.15 -11.45 Q-7.65 -10.25 -9.3 -8.2 -10.95 -6.15 -11.9 -3.5 L-14.85 -3.1 -14.75 -3.6 Q-14.15 -5.95 -12.85 -7.8 -11.55 -9.7 -9.85 -10.7 -7.55 -12.05 -5.3 -11.5 L-5.15 -11.45" fill="#333333" fill-rule="evenodd" stroke="none"/>
      <path d="M12.25 -5.55 Q13.65 -5.15 14.5 -3.6 15.35 -2.1 15.5 0.15 15.65 2.35 15.05 4.95 L15.0 5.05 14.25 4.55 Q11.65 2.95 10.5 0.4 9.35 -2.2 9.9 -5.25 L12.25 -5.55" fill="#666666" fill-rule="evenodd" stroke="none"/>
      <path d="M12.25 -5.55 L9.9 -5.25 Q9.35 -2.2 10.5 0.4 11.65 2.95 14.25 4.55 L15.0 5.05 15.05 4.95 Q15.65 2.35 15.5 0.15 15.35 -2.1 14.5 -3.6 13.65 -5.15 12.25 -5.55" fill="none" stroke="#000000" stroke-linecap="round" stroke-linejoin="round" stroke-width="1.0"/>
      <path d="M14.05 -3.6 L12.05 -3.8 Q11.0 -3.75 10.0 -3.1 L10.0 -3.35 10.15 -5.0 12.1 -5.2 Q13.3 -4.9 14.05 -3.6" fill="#333333" fill-rule="evenodd" stroke="none"/>
    </g>
    <g id="shape2" transform="matrix(1, 0, 0, 1, 21.55, 101.0)">
      <path d="M21.05 -100.5 Q9.95 -72.55 -0.85 -33.45 -22.45 44.8 -20.95 100.5" fill="none" stroke="#000099" stroke-linecap="round" stroke-linejoin="round" stroke-width="1.0"/>
    </g>
    <g id="shape3" transform="matrix(1, 0, 0, 1, -8.6, -8.85)">
      <path d="M29.75 21.75 L30.55 22.05 30.95 22.4 Q30.8 24.85 29.4 26.8 28.05 28.75 25.75 29.9 23.5 31.05 20.75 31.1 16.7 31.0 13.9 28.7 11.05 26.4 10.6 22.8 L10.6 17.95 Q9.25 17.35 9.0 15.9 L8.6 15.9 8.6 10.05 10.6 10.05 10.6 8.85 12.7 8.85 12.75 10.05 14.5 10.05 14.5 15.9 14.1 15.9 Q13.85 17.15 12.8 17.8 L12.8 22.4 Q13.1 25.25 15.3 27.15 17.5 29.05 20.75 29.1 24.0 29.05 26.25 27.15 28.45 25.25 28.7 22.4 L29.0 22.05 Q29.3 21.8 29.75 21.75" fill="#0000cc" fill-opacity="0.43137255" fill-rule="evenodd" stroke="none"/>
    </g>
    <g id="shape4" transform="matrix(1, 0, 0, 1, 109.6, 12.1)">
      <path d="M40.55 -5.65 L40.6 -5.35 Q40.6 -4.65 40.15 -4.2 39.65 -3.7 38.95 -3.65 38.25 -3.65 37.75 -4.1 37.25 -4.6 37.2 -5.35 L37.25 -5.6 38.1 -5.6 38.1 -5.35 Q38.1 -5.0 38.35 -4.75 38.6 -4.55 38.95 -4.55 39.3 -4.55 39.5 -4.8 L39.75 -5.35 39.7 -5.6 40.55 -5.65" fill="#c1c1c6" fill-rule="evenodd" stroke="none"/>
      <path d="M40.55 -5.65 L39.7 -5.6 39.75 -5.35 39.5 -4.8 Q39.3 -4.55 38.95 -4.55 38.6 -4.55 38.35 -4.75 38.1 -5.0 38.1 -5.35 L38.1 -5.6 37.25 -5.6 37.2 -5.35 Q37.25 -4.6 37.75 -4.1 38.25 -3.65 38.95 -3.65 39.65 -3.7 40.15 -4.2 40.6 -4.65 40.6 -5.35 L40.55 -5.65" fill="none" stroke="#000000" stroke-linecap="round" stroke-linejoin="round" stroke-width="1.0"/>
      <path d="M-1.55 -6.6 L-1.5 -6.3 Q-1.5 -5.6 -1.95 -5.15 -2.45 -4.65 -3.15 -4.6 -3.85 -4.6 -4.35 -5.1 -4.85 -5.55 -4.9 -6.3 L-4.85 -6.55 -4.0 -6.55 -4.0 -6.3 -3.75 -5.7 -3.15 -5.5 Q-2.8 -5.5 -2.6 -5.75 -2.35 -5.95 -2.35 -6.3 L-2.4 -6.55 -1.55 -6.6" fill="#c1c1c6" fill-rule="evenodd" stroke="none"/>
      <path d="M-1.55 -6.6 L-2.4 -6.55 -2.35 -6.3 Q-2.35 -5.95 -2.6 -5.75 -2.8 -5.5 -3.15 -5.5 L-3.75 -5.7 -4.0 -6.3 -4.0 -6.55 -4.85 -6.55 -4.9 -6.3 Q-4.85 -5.55 -4.35 -5.1 -3.85 -4.6 -3.15 -4.6 -2.45 -4.65 -1.95 -5.15 -1.5 -5.6 -1.5 -6.3 L-1.55 -6.6" fill="none" stroke="#000000" stroke-linecap="round" stroke-linejoin="round" stroke-width="1.0"/>
      <path d="M-36.15 -6.7 L-36.1 -6.4 Q-36.1 -5.7 -36.55 -5.25 -37.05 -4.75 -37.75 -4.7 -38.45 -4.7 -38.95 -5.2 -39.45 -5.65 -39.5 -6.4 L-39.45 -6.65 -38.6 -6.65 -38.6 -6.4 -38.35 -5.8 -37.75 -5.6 Q-37.4 -5.6 -37.2 -5.85 -36.95 -6.05 -36.95 -6.4 L-37.0 -6.65 -36.15 -6.7" fill="#c1c1c6" fill-rule="evenodd" stroke="none"/>
      <path d="M-36.15 -6.7 L-37.0 -6.65 -36.95 -6.4 Q-36.95 -6.05 -37.2 -5.85 -37.4 -5.6 -37.75 -5.6 L-38.35 -5.8 -38.6 -6.4 -38.6 -6.65 -39.45 -6.65 -39.5 -6.4 Q-39.45 -5.65 -38.95 -5.2 -38.45 -4.7 -37.75 -4.7 -37.05 -4.75 -36.55 -5.25 -36.1 -5.7 -36.1 -6.4 L-36.15 -6.7" fill="none" stroke="#000000" stroke-linecap="round" stroke-linejoin="round" stroke-width="1.0"/>
      <path d="M-72.2 -7.95 L-72.15 -7.65 Q-72.15 -6.95 -72.6 -6.5 -73.1 -6.0 -73.8 -5.95 -74.5 -5.95 -75.0 -6.45 -75.5 -6.9 -75.55 -7.65 L-75.5 -7.9 -74.65 -7.9 -74.65 -7.65 -74.4 -7.05 -73.8 -6.85 Q-73.45 -6.85 -73.25 -7.1 -73.0 -7.3 -73.0 -7.65 L-73.05 -7.9 -72.2 -7.95" fill="#c1c1c6" fill-rule="evenodd" stroke="none"/>
      <path d="M-72.2 -7.95 L-73.05 -7.9 -73.0 -7.65 Q-73.0 -7.3 -73.25 -7.1 -73.45 -6.85 -73.8 -6.85 L-74.4 -7.05 -74.65 -7.65 -74.65 -7.9 -75.5 -7.9 -75.55 -7.65 Q-75.5 -6.9 -75.0 -6.45 -74.5 -5.95 -73.8 -5.95 -73.1 -6.0 -72.6 -6.5 -72.15 -6.95 -72.15 -7.65 L-72.2 -7.95" fill="none" stroke="#000000" stroke-linecap="round" stroke-linejoin="round" stroke-width="1.0"/>
      <path d="M80.15 -5.3 L80.2 -5.0 Q80.2 -4.3 79.75 -3.85 79.25 -3.35 78.55 -3.3 77.85 -3.3 77.35 -3.8 76.85 -4.25 76.8 -5.0 L76.85 -5.25 77.7 -5.25 77.7 -5.0 Q77.7 -4.65 77.95 -4.4 78.2 -4.2 78.55 -4.2 78.9 -4.2 79.1 -4.45 L79.35 -5.0 79.3 -5.25 80.15 -5.3" fill="#c1c1c6" fill-rule="evenodd" stroke="none"/>
      <path d="M80.15 -5.3 L79.3 -5.25 79.35 -5.0 79.1 -4.45 Q78.9 -4.2 78.55 -4.2 78.2 -4.2 77.95 -4.4 77.7 -4.65 77.7 -5.0 L77.7 -5.25 76.85 -5.25 76.8 -5.0 Q76.85 -4.25 77.35 -3.8 77.85 -3.3 78.55 -3.3 79.25 -3.35 79.75 -3.85 80.2 -4.3 80.2 -5.0 L80.15 -5.3" fill="none" stroke="#000000" stroke-linecap="round" stroke-linejoin="round" stroke-width="1.0"/>
      <path d="M-86.9 3.05 Q-87.6 5.0 -89.2 6.45 -90.9 7.85 -92.95 8.2 L-96.9 7.9 Q-98.8 7.2 -100.25 5.6 -101.65 3.9 -102.0 1.85 -102.35 -0.15 -101.7 -2.1 -101.0 -4.0 -99.35 -5.45 -97.7 -6.85 -95.7 -7.2 L-91.75 -6.9 Q-89.8 -6.2 -88.35 -4.55 -86.95 -2.9 -86.6 -0.9 -86.25 1.15 -86.9 3.05" fill="#c1c1c6" fill-rule="evenodd" stroke="none"/>
      <path d="M-86.9 3.05 Q-87.6 5.0 -89.2 6.45 -90.9 7.85 -92.95 8.2 L-96.9 7.9 Q-98.8 7.2 -100.25 5.6 -101.65 3.9 -102.0 1.85 -102.35 -0.15 -101.7 -2.1 -101.0 -4.0 -99.35 -5.45 -97.7 -6.85 -95.7 -7.2 L-91.75 -6.9 Q-89.8 -6.2 -88.35 -4.55 -86.95 -2.9 -86.6 -0.9 -86.25 1.15 -86.9 3.05" fill="none" stroke="#000000" stroke-linecap="round" stroke-linejoin="round" stroke-width="1.0"/>
      <path d="M-94.0 -6.85 L-93.95 -6.8 Q-96.25 -6.1 -97.5 -4.65 -98.75 -3.2 -98.95 -1.25 -99.2 0.7 -98.25 2.75 -96.45 5.6 -93.8 7.45 L-94.1 7.9 Q-95.75 8.0 -97.3 7.3 -98.8 6.7 -99.95 5.35 -101.3 3.75 -101.6 1.85 -101.95 -0.05 -101.3 -1.9 -100.7 -3.75 -99.15 -5.1 -98.05 -6.05 -96.7 -6.45 L-94.0 -6.85" fill="#b6b6b7" fill-rule="evenodd" stroke="none"/>
      <path d="M-88.75 -4.25 Q-87.4 -2.7 -87.05 -0.75 -86.75 1.1 -87.4 3.0 -88.0 4.8 -89.55 6.15 -90.75 7.15 -92.15 7.6 -90.5 5.3 -90.15 2.75 -89.75 0.2 -90.55 -2.25 -91.35 -4.7 -93.15 -6.75 -91.9 -6.55 -90.75 -5.9 -89.6 -5.3 -88.75 -4.25" fill="#d6d6d8" fill-rule="evenodd" stroke="none"/>
      <path d="M-92.4 -4.9 Q-91.0 -4.4 -89.95 -3.2 -88.9 -2.0 -88.65 -0.5 -88.4 0.95 -88.9 2.4 -89.4 3.8 -90.6 4.85 -91.8 5.9 -93.3 6.15 L-96.2 5.9 Q-97.6 5.4 -98.65 4.2 -99.7 3.0 -99.95 1.5 -100.15 0.05 -99.7 -1.4 -99.2 -2.8 -98.0 -3.85 -96.8 -4.9 -95.3 -5.15 L-92.4 -4.9" fill="#d8d8d8" fill-rule="evenodd" stroke="none"/>
      <path d="M-90.3 -2.9 Q-89.0 -1.35 -89.0 0.6 -89.05 2.55 -90.4 4.1 -89.85 2.1 -90.05 0.15 -90.2 -1.8 -91.05 -3.65 L-90.3 -2.9" fill="#e3e3e5" fill-rule="evenodd" stroke="none"/>
      <path d="M-98.25 2.75 L-96.05 5.45 Q-97.35 5.05 -98.35 3.95 -99.5 2.55 -99.6 0.8 -99.7 -0.95 -98.75 -2.4 -99.45 0.0 -98.25 2.75" fill="#bbbbbc" fill-rule="evenodd" stroke="none"/>
      <path d="M-98.3 9.55 L-99.7 8.75 -94.6 -0.5 -93.15 0.25 -98.3 9.55" fill="#6d6d70" fill-rule="evenodd" stroke="none"/>
      <path d="M-98.3 9.55 L-99.7 8.75 -94.6 -0.5 -93.15 0.25 -98.3 9.55" fill="none" stroke="#000000" stroke-linecap="round" stroke-linejoin="round" stroke-width="1.0"/>
      <path d="M-98.5 9.0 L-98.65 8.9 -93.95 0.35 -93.75 0.45 -94.6 1.95 -96.1 4.7 -97.65 7.5 -98.5 9.0" fill="#7b7b7c" fill-rule="evenodd" stroke="none"/>
      <path d="M-94.15 0.2 L-96.5 4.4 -99.0 8.7 -99.15 8.6 -98.3 7.1 -96.75 4.3 -95.25 1.55 -94.45 0.05 -94.15 0.2" fill="#59595b" fill-rule="evenodd" stroke="none"/>
      <path d="M-97.25 11.05 L-97.9 11.55 -98.65 11.5 -101.2 10.1 -101.65 9.45 -101.5 8.65 -100.85 8.15 Q-100.5 8.0 -100.1 8.15 L-97.6 9.6 Q-97.25 9.8 -97.15 10.25 -97.05 10.6 -97.25 11.05" fill="#6d6d70" fill-rule="evenodd" stroke="none"/>
      <path d="M-97.25 11.05 L-97.9 11.55 -98.65 11.5 -101.2 10.1 -101.65 9.45 -101.5 8.65 -100.85 8.15 Q-100.5 8.0 -100.1 8.15 L-97.6 9.6 Q-97.25 9.8 -97.15 10.25 -97.05 10.6 -97.25 11.05" fill="none" stroke="#000000" stroke-linecap="round" stroke-linejoin="round" stroke-width="1.0"/>
      <path d="M-100.2 8.6 Q-100.3 9.55 -100.0 10.25 L-100.95 9.7 -101.2 9.4 -101.15 8.85 -100.75 8.5 -100.3 8.55 -100.2 8.6" fill="#59595b" fill-rule="evenodd" stroke="none"/>
      <path d="M-98.45 11.15 L-98.6 11.05 Q-98.6 10.1 -99.05 9.25 L-97.8 9.95 -97.55 10.25 -97.65 10.8 -98.0 11.15 -98.45 11.15" fill="#7b7b7c" fill-rule="evenodd" stroke="none"/>
      <path d="M-88.45 5.9 L-87.15 5.3 -83.8 3.25 -79.1 -0.9 Q-76.6 -3.5 -73.8 -7.55 L-71.65 -6.55 Q-69.9 -5.75 -65.85 -4.5 -62.1 -3.4 -57.6 -2.9 -53.15 -2.4 -47.8 -3.1 -42.6 -3.85 -37.65 -6.6 L-36.25 -5.8 -32.4 -4.1 Q-30.25 -3.25 -26.55 -2.35 L-19.4 -1.5 Q-15.7 -1.45 -11.4 -2.45 -7.1 -3.55 -3.1 -6.1 -2.1 -5.65 -1.1 -5.15 0.35 -4.45 4.2 -3.0 7.4 -1.85 11.85 -0.85 16.0 0.1 20.8 0.25 25.45 0.4 30.1 -0.8 34.65 -2.05 38.75 -5.2 L41.15 -4.4 Q43.25 -3.65 47.55 -2.7 L56.65 -1.35 67.3 -1.65 Q72.8 -2.35 78.2 -4.8 L79.85 -4.15 84.3 -2.75 Q87.1 -2.05 90.7 -1.7 L98.3 -1.95 Q102.1 -2.45 106.4 -4.4" fill="none" stroke="#000000" stroke-linecap="round" stroke-linejoin="round" stroke-width="1.0"/>
      <path d="M107.65 -4.35 L106.85 -4.4 -106.9 -7.75 -107.5 -7.85 Q-108.05 -7.95 -108.55 -8.35 -109.1 -8.8 -109.1 -9.75 -109.0 -10.8 -108.4 -11.15 L-107.3 -11.55 -106.65 -11.55 106.85 -5.3 107.3 -5.45 107.75 -5.2 107.9 -4.75 107.65 -4.35" fill="#c1c1c6" fill-rule="evenodd" stroke="none"/>
      <path d="M107.65 -4.35 L107.9 -4.75 107.75 -5.2 107.3 -5.45 106.85 -5.3 -106.65 -11.55 -107.3 -11.55 -108.4 -11.15 Q-109.0 -10.8 -109.1 -9.75 -109.1 -8.8 -108.55 -8.35 -108.05 -7.95 -107.5 -7.85 L-106.9 -7.75 106.85 -4.4 107.65 -4.35" fill="none" stroke="#000000" stroke-linecap="round" stroke-linejoin="round" stroke-width="1.0"/>
      <path d="M107.4 -4.8 L107.35 -4.65 107.15 -4.65 107.1 -4.7 107.05 -4.8 107.4 -4.8 M-78.7 -9.8 L-108.55 -10.25 -108.2 -10.8 -108.05 -10.9 -78.7 -9.8" fill="#dbdbdd" fill-rule="evenodd" stroke="none"/>
      <path d="M107.4 -4.95 L107.4 -4.9 107.05 -4.9 107.1 -4.95 107.4 -4.95 M-88.25 -8.35 L-108.0 -8.5 -108.35 -8.8 -108.5 -8.95 -88.25 -8.35" fill="#9a9a9b" fill-rule="evenodd" stroke="none"/>
      <path d="M-93.1 1.95 Q-93.7 2.45 -94.5 2.4 -95.2 2.35 -95.8 1.75 -96.25 1.15 -96.25 0.35 L-95.55 -0.95 Q-94.95 -1.4 -94.15 -1.4 L-92.9 -0.7 Q-92.4 -0.1 -92.45 0.7 -92.5 1.4 -93.1 1.95" fill="#6d6d70" fill-rule="evenodd" stroke="none"/>
      <path d="M-93.1 1.95 Q-93.7 2.45 -94.5 2.4 -95.2 2.35 -95.8 1.75 -96.25 1.15 -96.25 0.35 L-95.55 -0.95 Q-94.95 -1.4 -94.15 -1.4 L-92.9 -0.7 Q-92.4 -0.1 -92.45 0.7 -92.5 1.4 -93.1 1.95" fill="none" stroke="#000000" stroke-linecap="round" stroke-linejoin="round" stroke-width="1.0"/>
      <path d="M-93.55 1.75 Q-93.25 1.1 -93.3 0.45 -93.35 -0.25 -93.85 -0.9 L-93.2 -0.5 Q-92.8 0.0 -92.85 0.6 -92.9 1.2 -93.35 1.6 L-93.55 1.75" fill="#7b7b7c" fill-rule="evenodd" stroke="none"/>
      <path d="M-94.7 -0.9 Q-95.05 0.1 -94.8 0.8 L-93.9 1.95 -94.75 1.95 -95.45 1.5 -95.8 0.4 -95.3 -0.6 -94.7 -0.9" fill="#59595b" fill-rule="evenodd" stroke="none"/>
      <path d="M109.05 -5.25 L109.1 -4.95 Q109.1 -4.25 108.65 -3.8 108.15 -3.3 107.45 -3.25 106.75 -3.25 106.25 -3.7 105.75 -4.2 105.7 -4.95 L105.75 -5.2 106.6 -5.2 106.6 -4.95 Q106.6 -4.6 106.85 -4.35 L107.45 -4.15 Q107.8 -4.15 108.0 -4.4 L108.25 -4.95 108.2 -5.2 109.05 -5.25" fill="#c1c1c6" fill-rule="evenodd" stroke="none"/>
      <path d="M109.05 -5.25 L108.2 -5.2 108.25 -4.95 108.0 -4.4 Q107.8 -4.15 107.45 -4.15 L106.85 -4.35 Q106.6 -4.6 106.6 -4.95 L106.6 -5.2 105.75 -5.2 105.7 -4.95 Q105.75 -4.2 106.25 -3.7 106.75 -3.25 107.45 -3.25 108.15 -3.3 108.65 -3.8 109.1 -4.25 109.1 -4.95 L109.05 -5.25" fill="none" stroke="#000000" stroke-linecap="round" stroke-linejoin="round" stroke-width="1.0"/>
    </g>
    <g id="shape5" transform="matrix(1, 0, 0, 1, 21.0, 14.2)">
      <path d="M-7.8 -13.2 Q-3.8 -10.7 -3.15 -9.35 -2.6 -8.0 -1.15 -6.1 0.25 -4.25 2.9 -2.5 4.5 -1.45 6.5 -0.6 L10.35 0.9 13.65 1.95 15.8 2.4 16.3 2.7 Q16.7 2.95 16.8 3.55 16.9 4.15 16.0 5.0 L14.0 6.45 Q12.4 7.5 9.9 8.65 7.45 9.8 4.4 10.55 L-2.05 11.15 Q-5.4 11.0 -8.8 9.4 -12.2 7.8 -15.35 4.3 -18.5 0.75 -19.5 -6.85 -11.85 -15.7 -7.8 -13.2" fill="#666666" fill-rule="evenodd" stroke="none"/>
      <path d="M-7.8 -13.2 Q-3.8 -10.7 -3.15 -9.35 -2.6 -8.0 -1.15 -6.1 0.25 -4.25 2.9 -2.5 4.5 -1.45 6.5 -0.6 L10.35 0.9 13.65 1.95 15.8 2.4 16.3 2.7 Q16.7 2.95 16.8 3.55 16.9 4.15 16.0 5.0 L14.0 6.45 Q12.4 7.5 9.9 8.65 7.45 9.8 4.4 10.55 L-2.05 11.15 Q-5.4 11.0 -8.8 9.4 -12.2 7.8 -15.35 4.3 -18.5 0.75 -19.5 -6.85" fill="none" stroke="#000000" stroke-linecap="round" stroke-linejoin="round" stroke-width="2.0"/>
      <path d="M-12.15 -11.85 L-13.0 -8.5 Q-13.45 -6.75 -13.45 -4.85 -13.45 -3.0 -12.65 -0.95 -11.9 1.05 -9.95 3.15 -7.0 5.0 -2.9 6.7 1.15 8.35 5.7 9.6 0.8 10.85 -3.35 10.1 -7.55 9.25 -11.0 6.85 -14.4 4.4 -16.95 0.8 -19.45 -2.75 -21.0 -7.05 -20.15 -7.55 -19.55 -8.3 L-18.4 -9.75 Q-17.75 -10.5 -16.65 -10.9 L-15.65 -11.35 -14.0 -12.05 -12.6 -12.4 Q-12.05 -12.45 -12.15 -11.85" fill="#333333" fill-rule="evenodd" stroke="none"/>
      <path d="M6.2 -0.3 L10.0 1.2 13.4 2.25 15.65 2.8 16.1 3.0 16.4 3.5 16.25 4.15 15.75 4.7 15.3 5.05 12.75 6.65 8.4 8.6 Q5.85 9.55 2.8 10.05 -0.25 10.55 -3.5 10.15 -6.75 9.75 -9.9 8.05 -8.9 8.55 -6.85 8.75 -4.75 8.95 -2.1 8.75 L3.15 8.15 7.8 6.85 Q9.8 6.0 10.75 4.95 11.2 4.3 10.05 3.5 L6.9 1.55 2.8 -0.75 Q0.75 -2.05 -0.65 -3.4 L-2.55 -5.75 -3.45 -7.9 -4.15 -10.0 -3.2 -8.1 Q-2.45 -6.8 -1.0 -5.2 0.45 -3.65 2.7 -2.15 L6.2 -0.3" fill="#999999" fill-rule="evenodd" stroke="none"/>
    </g>
  </defs>
</svg>
