<?xml version="1.0" encoding="UTF-8" standalone="no"?>
<svg xmlns:xlink="http://www.w3.org/1999/xlink" height="84.0px" width="98.0px" xmlns="http://www.w3.org/2000/svg">
  <g transform="matrix(1, 0, 0, 1, 0.0, 15.5)">
    <use height="65.0" transform="matrix(1.0, 0.0, 0.0, 1.0, 16.25, -15.5)" width="65.0" xlink:href="#sprite0"/>
    <use height="37.0" transform="matrix(1.0, 0.0, 0.0, 1.0, 0.0, 0.0)" width="98.0" xlink:href="#text0"/>
    <use height="7.3" transform="matrix(1.0, 0.0, 0.0, 1.0, 22.3, 23.5)" width="4.7" xlink:href="#shape1"/>
  </g>
  <defs>
    <g id="sprite0" transform="matrix(1, 0, 0, 1, 1.75, -1.0)">
      <use height="65.0" transform="matrix(1.0, 0.0, 0.0, 1.0, -1.75, 1.0)" width="65.0" xlink:href="#shape0"/>
    </g>
    <g id="shape0" transform="matrix(1, 0, 0, 1, 1.75, -1.0)">
      <path d="M63.25 33.5 Q63.25 46.95 53.7 56.45 44.2 66.0 30.75 66.0 17.25 66.0 7.75 56.45 -1.75 46.95 -1.75 33.5 -1.75 20.05 7.75 10.5 17.25 1.0 30.75 1.0 44.2 1.0 53.7 10.5 63.25 20.05 63.25 33.5" fill="url(#gradient0)" fill-rule="evenodd" stroke="none"/>
    </g>
    <radialGradient cx="0" cy="0" gradientTransform="matrix(0.0406, 0.0, 0.0, 0.0406, 30.75, 33.5)" gradientUnits="userSpaceOnUse" id="gradient0" r="819.2" spreadMethod="pad">
      <stop offset="0.0" stop-color="#95eaa5" stop-opacity="0.89411765"/>
      <stop offset="0.8941176470588236" stop-color="#ffffff" stop-opacity="0.0"/>
    </radialGradient>
    <g id="shape1" transform="matrix(1, 0, 0, 1, -22.3, -23.5)">
      <path d="M26.55 23.8 L24.9 25.75 Q23.55 27.25 23.55 27.55 23.55 28.4 24.55 29.15 L27.0 30.5 25.5 30.8 Q23.25 30.8 22.55 29.3 L22.3 27.6 Q22.3 26.4 23.4 25.2 24.55 23.95 26.25 23.5 L26.55 23.8" fill="#ffffff" fill-rule="evenodd" stroke="none"/>
    </g>
  </defs>
</svg>
