<?xml version="1.0" encoding="UTF-8" standalone="no"?>
<svg xmlns:xlink="http://www.w3.org/1999/xlink" height="84.0px" width="98.0px" xmlns="http://www.w3.org/2000/svg">
  <g transform="matrix(1, 0, 0, 1, 0.0, 15.5)">
    <use height="65.0" transform="matrix(1.0, 0.0, 0.0, 1.0, 16.25, -15.5)" width="65.0" xlink:href="#sprite0"/>
    <use height="37.0" transform="matrix(1.0, 0.0, 0.0, 1.0, 0.0, 0.0)" width="98.0" xlink:href="#text0"/>
    <use height="5.55" transform="matrix(1.0, 0.0, 0.0, 1.0, 59.75, 2.75)" width="5.3" xlink:href="#shape1"/>
  </g>
  <defs>
    <g id="sprite0" transform="matrix(1, 0, 0, 1, 1.75, -1.0)">
      <use height="65.0" transform="matrix(1.0, 0.0, 0.0, 1.0, -1.75, 1.0)" width="65.0" xlink:href="#shape0"/>
    </g>
    <g id="shape0" transform="matrix(1, 0, 0, 1, 1.75, -1.0)">
      <path d="M63.25 33.5 Q63.25 46.95 53.7 56.45 44.2 66.0 30.75 66.0 17.25 66.0 7.75 56.45 -1.75 46.95 -1.75 33.5 -1.75 20.05 7.75 10.5 17.25 1.0 30.75 1.0 44.2 1.0 53.7 10.5 63.25 20.05 63.25 33.5" fill="url(#gradient0)" fill-rule="evenodd" stroke="none"/>
    </g>
    <radialGradient cx="0" cy="0" gradientTransform="matrix(0.0406, 0.0, 0.0, 0.0406, 30.75, 33.5)" gradientUnits="userSpaceOnUse" id="gradient0" r="819.2" spreadMethod="pad">
      <stop offset="0.0" stop-color="#95eaa5" stop-opacity="0.7254902"/>
      <stop offset="0.8941176470588236" stop-color="#ffffff" stop-opacity="0.0"/>
    </radialGradient>
    <g id="shape1" transform="matrix(1, 0, 0, 1, -59.75, -2.75)">
      <path d="M64.25 2.8 L64.75 3.1 Q65.05 3.25 65.05 4.0 L64.8 6.25 Q64.4 7.55 63.0 8.3 L62.5 8.05 Q62.5 7.15 63.25 6.25 64.0 5.35 64.0 4.75 L62.0 4.4 59.75 4.05 Q59.8 3.8 60.2 3.4 L61.0 2.75 64.25 2.8" fill="#ffffff" fill-rule="evenodd" stroke="none"/>
    </g>
  </defs>
</svg>
