<?xml version="1.0" encoding="UTF-8" standalone="no"?>
<svg xmlns:xlink="http://www.w3.org/1999/xlink" height="84.0px" width="98.0px" xmlns="http://www.w3.org/2000/svg">
  <g transform="matrix(1, 0, 0, 1, 0.0, 15.5)">
    <use height="65.0" transform="matrix(1.0, 0.0, 0.0, 1.0, 16.25, -15.5)" width="65.0" xlink:href="#sprite0"/>
    <use height="37.0" transform="matrix(1.0, 0.0, 0.0, 1.0, 0.0, 0.0)" width="98.0" xlink:href="#text0"/>
    <use height="3.6" transform="matrix(1.0, 0.0, 0.0, 1.0, 42.0, -5.95)" width="9.8" xlink:href="#shape1"/>
  </g>
  <defs>
    <g id="sprite0" transform="matrix(1, 0, 0, 1, 1.75, -1.0)">
      <use height="65.0" transform="matrix(1.0, 0.0, 0.0, 1.0, -1.75, 1.0)" width="65.0" xlink:href="#shape0"/>
    </g>
    <g id="shape0" transform="matrix(1, 0, 0, 1, 1.75, -1.0)">
      <path d="M63.25 33.5 Q63.25 46.95 53.7 56.45 44.2 66.0 30.75 66.0 17.25 66.0 7.75 56.45 -1.75 46.95 -1.75 33.5 -1.75 20.05 7.75 10.5 17.25 1.0 30.75 1.0 44.2 1.0 53.7 10.5 63.25 20.05 63.25 33.5" fill="url(#gradient0)" fill-rule="evenodd" stroke="none"/>
    </g>
    <radialGradient cx="0" cy="0" gradientTransform="matrix(0.0406, 0.0, 0.0, 0.0406, 30.75, 33.5)" gradientUnits="userSpaceOnUse" id="gradient0" r="819.2" spreadMethod="pad">
      <stop offset="0.0" stop-color="#95eaa5" stop-opacity="0.16862746"/>
      <stop offset="0.8941176470588236" stop-color="#ffffff" stop-opacity="0.0"/>
    </radialGradient>
    <g id="shape1" transform="matrix(1, 0, 0, 1, -42.0, 5.95)">
      <path d="M49.4 -3.1 L49.55 -3.85 Q46.75 -4.35 44.5 -3.45 42.65 -2.45 42.25 -2.35 L42.05 -2.6 42.0 -3.5 Q42.0 -5.35 46.9 -5.85 51.8 -6.35 51.8 -3.9 51.8 -2.65 51.5 -2.75 L49.55 -2.35 Q49.35 -2.6 49.4 -3.1" fill="#ffffff" fill-rule="evenodd" stroke="none"/>
    </g>
  </defs>
</svg>
