<?xml version="1.0" encoding="UTF-8" standalone="no"?>
<svg xmlns:xlink="http://www.w3.org/1999/xlink" height="84.0px" width="98.0px" xmlns="http://www.w3.org/2000/svg">
  <g transform="matrix(1, 0, 0, 1, 0.0, 15.5)">
    <use height="65.0" transform="matrix(1.0, 0.0, 0.0, 1.0, 16.25, -15.5)" width="65.0" xlink:href="#sprite0"/>
    <use height="37.0" transform="matrix(1.0, 0.0, 0.0, 1.0, 0.0, 0.0)" width="98.0" xlink:href="#text0"/>
    <use height="26.2" transform="matrix(1.0, 0.0, 0.0, 1.0, 72.8, 33.35)" width="12.2" xlink:href="#shape1"/>
  </g>
  <defs>
    <g id="sprite0" transform="matrix(1, 0, 0, 1, 1.75, -1.0)">
      <use height="65.0" transform="matrix(1.0, 0.0, 0.0, 1.0, -1.75, 1.0)" width="65.0" xlink:href="#shape0"/>
    </g>
    <g id="shape0" transform="matrix(1, 0, 0, 1, 1.75, -1.0)">
      <path d="M63.25 33.5 Q63.25 46.95 53.7 56.45 44.2 66.0 30.75 66.0 17.25 66.0 7.75 56.45 -1.75 46.95 -1.75 33.5 -1.75 20.05 7.75 10.5 17.25 1.0 30.75 1.0 44.2 1.0 53.7 10.5 63.25 20.05 63.25 33.5" fill="url(#gradient0)" fill-rule="evenodd" stroke="none"/>
    </g>
    <radialGradient cx="0" cy="0" gradientTransform="matrix(0.0406, 0.0, 0.0, 0.0406, 30.75, 33.5)" gradientUnits="userSpaceOnUse" id="gradient0" r="819.2" spreadMethod="pad">
      <stop offset="0.0" stop-color="#95eaa5" stop-opacity="0.2"/>
      <stop offset="0.8941176470588236" stop-color="#ffffff" stop-opacity="0.0"/>
    </radialGradient>
    <g id="shape1" transform="matrix(1, 0, 0, 1, -72.8, -33.35)">
      <path d="M81.8 46.75 Q80.15 51.1 78.75 53.55 L77.75 54.6 72.8 59.55 73.0 59.0 73.4 58.0 73.45 58.05 75.15 53.65 76.0 51.6 77.1 48.35 Q78.6 44.2 78.75 41.5 79.1 34.45 82.05 33.45 83.2 33.05 84.1 33.95 85.0 34.85 85.0 36.5 85.0 38.2 81.8 46.75" fill="#ffffff" fill-rule="evenodd" stroke="none"/>
    </g>
  </defs>
</svg>
