<?xml version="1.0" encoding="UTF-8" standalone="no"?>
<svg xmlns:xlink="http://www.w3.org/1999/xlink" height="122.4px" width="108.0px" xmlns="http://www.w3.org/2000/svg">
  <g transform="matrix(1, 0, 0, 1, 83.35, 98.75)">
    <use height="54.9" transform="matrix(1.0, 0.0, 0.0, 1.0, -69.55, -48.75)" width="59.25" xlink:href="#sprite0"/>
    <use height="37.9" transform="matrix(1.0, 0.0, 0.0, 1.0, -60.3, -6.0)" width="39.85" xlink:href="#sprite1"/>
    <use height="7.7" transform="matrix(1.0, 0.0, 0.0, 1.0, -51.45, 13.0)" width="22.45" xlink:href="#sprite2"/>
    <use height="31.25" transform="matrix(1.0, 0.0, 0.0, 1.0, -83.3, 2.75)" width="81.55" xlink:href="#sprite3"/>
    <use height="31.1" transform="matrix(1.0, 0.0, 0.0, 1.0, -80.9, -28.7)" width="79.1" xlink:href="#shape4"/>
  </g>
  <defs>
    <g id="sprite0" transform="matrix(1, 0, 0, 1, 0.0, 0.0)">
      <use height="54.9" transform="matrix(1.0, 0.0, 0.0, 1.0, 0.0, 0.0)" width="59.25" xlink:href="#shape0"/>
    </g>
    <g id="shape0" transform="matrix(1, 0, 0, 1, 0.0, 0.0)">
      <path d="M55.4 36.85 Q49.8 49.8 36.5 54.9 L20.95 53.9 Q11.0 52.5 8.75 47.8 L8.75 47.75 6.15 43.2 Q4.85 40.7 4.35 38.8 3.5 35.55 1.05 28.8 0.0 25.9 0.0 21.0 0.0 16.7 1.35 13.25 2.2 11.1 3.6 9.25 10.7 0.0 29.75 0.0 49.45 0.0 56.2 7.55 59.25 10.95 59.25 16.3 59.25 28.0 55.4 36.85 M56.25 16.2 Q56.25 3.15 29.8 3.15 12.6 3.15 6.2 11.25 L4.9 13.25 Q3.0 16.7 3.0 21.15 3.0 25.45 4.25 29.25 L7.5 38.15 9.2 42.45 10.05 44.05 12.15 46.75 Q15.4 50.0 25.75 51.45 36.35 53.0 39.75 50.3 49.2 43.3 53.2 33.4 56.25 25.85 56.25 16.2" fill="#3e2928" fill-opacity="0.9882353" fill-rule="evenodd" stroke="none"/>
      <path d="M44.95 44.5 Q46.75 42.9 46.75 38.25 46.75 37.35 44.9 33.55 44.3 29.5 42.75 25.55 38.7 15.25 30.75 15.25 24.5 15.25 19.8 21.8 L18.1 24.35 Q16.85 26.2 15.4 29.2 11.75 36.6 11.75 40.3 L11.75 40.9 11.75 41.25 Q11.75 44.75 16.0 46.25 17.85 46.95 18.9 46.8 L24.35 47.65 26.0 48.0 34.5 48.0 34.5 47.8 Q38.55 48.3 41.3 46.3 43.65 45.65 44.95 44.5 M56.25 16.2 Q56.25 25.85 53.2 33.4 49.2 43.3 39.75 50.3 36.35 53.0 25.75 51.45 15.4 50.0 12.15 46.75 L10.05 44.05 9.2 42.45 7.5 38.15 4.25 29.25 Q3.0 25.45 3.0 21.15 3.0 16.7 4.9 13.25 L6.2 11.25 Q12.6 3.15 29.8 3.15 56.25 3.15 56.25 16.2 M19.75 39.25 L19.45 39.25 19.75 39.15 19.75 39.25" fill="#75504a" fill-rule="evenodd" stroke="none"/>
      <path d="M44.95 44.5 Q43.65 45.65 41.3 46.3 38.55 48.3 34.5 47.8 L34.5 48.0 26.0 48.0 24.35 47.65 18.9 46.8 Q17.85 46.95 16.0 46.25 11.75 44.75 11.75 41.25 L11.75 40.9 11.75 40.3 Q11.75 36.6 15.4 29.2 16.85 26.2 18.1 24.35 L19.8 21.8 Q24.5 15.25 30.75 15.25 38.7 15.25 42.75 25.55 44.3 29.5 44.9 33.55 46.75 37.35 46.75 38.25 46.75 42.9 44.95 44.5 M19.75 39.25 L19.75 39.15 19.45 39.25 19.75 39.25" fill="#a27666" fill-rule="evenodd" stroke="none"/>
    </g>
    <g id="sprite1" transform="matrix(1, 0, 0, 1, 0.0, 0.0)">
      <use height="37.9" transform="matrix(1.0, 0.0, 0.0, 1.0, 0.0, 0.0)" width="39.85" xlink:href="#shape1"/>
    </g>
    <g id="shape1" transform="matrix(1, 0, 0, 1, 0.0, 0.0)">
      <path d="M33.1 4.85 L33.75 4.75 Q37.8 4.75 39.25 11.75 39.95 15.25 39.85 18.8 39.85 20.25 38.1 23.8 36.0 27.95 33.05 31.25 24.65 40.65 15.0 36.75 9.85 34.0 4.85 26.35 0.0 18.95 0.0 14.55 0.0 11.3 1.3 7.75 3.1 2.65 6.5 3.1 L6.65 3.15 Q6.7 4.25 5.2 5.95 3.35 8.1 3.0 8.9 2.55 9.95 2.25 11.75 L2.2 11.85 2.0 14.65 Q2.0 15.25 3.3 18.35 4.95 22.2 7.05 25.55 13.5 35.8 20.8 35.8 26.65 35.8 32.5 28.75 37.65 22.5 37.65 18.8 37.65 15.25 36.7 11.5 35.65 7.25 33.85 5.65 L33.1 4.85" fill="#3e2928" fill-opacity="0.9882353" fill-rule="evenodd" stroke="none"/>
      <path d="M6.5 3.1 Q10.85 0.0 18.25 0.0 26.35 0.0 31.4 4.45 L31.9 4.4 Q32.5 4.4 33.1 4.85 L33.85 5.65 Q35.65 7.25 36.7 11.5 37.65 15.25 37.65 18.8 37.65 22.5 32.5 28.75 26.65 35.8 20.8 35.8 13.5 35.8 7.05 25.55 4.95 22.2 3.3 18.35 2.0 15.25 2.0 14.65 L2.2 11.85 2.25 11.75 Q2.55 9.95 3.0 8.9 3.35 8.1 5.2 5.95 6.7 4.25 6.65 3.15 L6.5 3.1" fill="#a27666" fill-rule="evenodd" stroke="none"/>
    </g>
    <g id="sprite2" transform="matrix(1, 0, 0, 1, 0.0, 0.0)">
      <use height="7.7" transform="matrix(1.0, 0.0, 0.0, 1.0, 0.0, 0.0)" width="22.45" xlink:href="#shape2"/>
    </g>
    <g id="shape2" transform="matrix(1, 0, 0, 1, 0.0, 0.0)">
      <path d="M22.4 3.85 Q22.4 7.85 18.65 7.7 15.55 7.6 15.0 4.8 13.9 5.5 11.1 5.35 L8.05 4.95 Q7.6 8.0 4.05 7.4 0.0 6.7 0.0 3.45 0.0 2.5 0.65 1.4 1.6 0.0 3.15 0.0 6.7 0.0 7.75 1.75 L8.1 3.1 8.4 3.35 9.65 4.5 Q13.05 4.55 14.2 3.85 L14.9 3.45 Q14.95 0.5 18.15 0.5 21.25 0.5 22.15 2.15 22.6 3.0 22.4 3.85" fill="#33221b" fill-rule="evenodd" stroke="none"/>
    </g>
    <g id="sprite3" transform="matrix(1, 0, 0, 1, 0.0, 0.0)">
      <use height="31.25" transform="matrix(1.0, 0.0, 0.0, 1.0, 0.0, 0.0)" width="81.55" xlink:href="#shape3"/>
    </g>
    <g id="shape3" transform="matrix(1, 0, 0, 1, 0.0, 0.0)">
      <path d="M71.65 10.15 L67.5 9.25 67.5 9.0 64.75 8.75 60.25 8.8 58.15 8.65 60.0 8.4 62.25 8.25 65.25 8.4 Q69.55 8.5 71.55 9.3 L74.65 10.4 74.5 10.55 71.65 10.15 M71.75 15.05 L65.75 12.8 Q61.4 11.05 58.9 10.4 61.65 10.95 65.85 12.45 69.6 13.8 71.9 14.9 L71.75 15.05 M75.2 6.85 Q79.9 8.05 81.55 9.25 L74.9 7.6 Q67.75 5.85 57.65 5.9 L58.0 5.5 59.9 5.3 60.75 5.15 Q68.6 5.15 75.2 6.85 M68.55 1.5 Q60.25 2.55 58.0 4.25 57.5 4.05 57.4 3.9 58.65 2.65 62.85 1.65 69.0 0.25 79.9 0.0 L68.55 1.5 M52.5 19.75 Q58.85 22.05 62.4 24.65 65.05 26.6 68.75 31.0 L68.5 31.25 Q63.75 26.3 62.25 25.1 58.2 21.9 52.1 20.0 52.1 19.8 52.5 19.75 M27.15 2.45 L23.0 1.55 20.5 1.3 10.75 1.3 9.65 1.15 13.35 0.85 16.75 0.65 21.1 0.8 23.35 1.05 27.35 1.75 Q28.6 2.05 29.25 2.5 L27.15 2.45 M28.25 5.0 L27.95 5.05 27.75 5.0 20.75 5.05 Q12.2 6.4 7.45 8.0 5.25 8.7 0.0 11.25 1.45 9.2 7.25 7.1 14.5 4.5 22.9 4.5 L27.9 4.55 28.25 5.0 M27.65 8.55 L27.75 8.75 Q24.65 10.2 21.25 12.25 L16.25 15.25 Q17.75 13.35 21.0 11.1 24.85 8.5 27.15 8.5 L27.65 8.55 M28.0 7.0 Q20.25 7.6 16.85 8.9 13.85 10.05 12.9 10.05 L16.45 8.7 24.5 6.75 27.25 6.75 27.6 6.8 Q27.95 6.85 28.0 7.0 M36.5 19.55 L36.75 19.75 Q34.55 23.2 26.25 26.25 L25.3 26.0 25.25 25.75 Q23.4 25.75 21.2 27.8 L21.25 27.65 Q21.25 25.65 25.75 25.65 26.2 25.65 30.6 23.1 L36.5 19.55" fill="#3e2928" fill-opacity="0.9882353" fill-rule="evenodd" stroke="none"/>
      <path d="M54.75 5.65 Q55.15 6.05 55.15 6.5 55.15 8.55 53.2 8.9 51.25 9.2 51.25 6.65 51.25 5.0 52.5 5.0 54.1 5.0 54.75 5.65 M47.4 6.65 L47.7 6.65 48.0 7.55 48.25 8.2 47.75 11.1 Q47.35 12.4 46.8 12.95 46.15 14.95 43.4 14.9 40.0 14.85 39.85 11.9 L39.3 10.55 38.5 7.4 Q38.5 7.0 38.65 6.7 L38.7 6.45 43.0 7.05 47.4 6.65 M35.0 4.9 L35.1 5.7 Q35.1 7.85 33.2 7.95 31.35 8.0 31.35 6.0 31.35 5.15 31.6 4.75 31.95 4.15 33.0 4.15 34.65 4.15 35.0 4.9" fill="#d1aca6" fill-opacity="0.9882353" fill-rule="evenodd" stroke="none"/>
      <path d="M38.05 6.2 Q37.2 6.0 37.25 4.85 37.25 2.65 43.5 2.65 46.3 2.65 47.6 3.8 48.4 4.55 48.4 5.35 48.4 6.55 47.7 6.65 L47.4 6.65 Q48.25 6.3 48.25 5.65 L48.15 5.05 44.9 4.75 45.0 4.4 Q45.0 3.5 44.0 3.5 L41.0 3.75 Q40.55 3.95 40.5 4.55 L38.4 4.75 Q37.75 4.95 37.75 5.75 L38.05 6.2" fill="#72200b" fill-rule="evenodd" stroke="none"/>
      <path d="M38.05 6.2 L37.75 5.75 Q37.75 4.95 38.4 4.75 L40.5 4.55 Q40.55 3.95 41.0 3.75 L44.0 3.5 Q45.0 3.5 45.0 4.4 L44.9 4.75 48.15 5.05 48.25 5.65 Q48.25 6.3 47.4 6.65 L43.0 7.05 38.7 6.45 38.05 6.2" fill="#ad442f" fill-opacity="0.9882353" fill-rule="evenodd" stroke="none"/>
    </g>
    <g id="shape4" transform="matrix(1, 0, 0, 1, 80.9, 28.7)">
      <path d="M-37.35 2.1 L-37.4 2.2 -37.65 2.25 -38.25 1.95 -39.6 1.35 Q-41.2 1.35 -41.95 1.85 L-42.65 2.3 -42.8 2.3 -42.9 2.4 Q-43.2 2.4 -43.2 2.0 L-43.15 1.75 -43.2 1.55 Q-43.2 1.1 -42.45 0.65 -41.4 0.0 -39.75 0.15 L-39.7 0.2 -39.45 0.15 Q-37.25 0.85 -37.25 1.6 L-37.35 1.9 -37.35 2.1" fill="#33221b" fill-opacity="0.9882353" fill-rule="evenodd" stroke="none"/>
      <path d="M-64.35 -12.5 L-63.8 -13.6 -63.4 -13.65 -63.2 -13.45 -62.8 -12.8 Q-62.3 -12.55 -62.15 -11.8 L-62.15 -10.65 -62.25 -9.55 -62.25 -9.4 Q-62.4 -9.0 -62.85 -8.95 L-63.2 -8.95 -63.65 -9.1 -63.7 -9.15 -63.75 -9.35 Q-64.65 -9.25 -64.65 -10.9 L-64.35 -12.5 M-73.9 -9.0 L-69.25 -12.4 -68.65 -12.35 -68.45 -12.2 -68.4 -11.75 Q-68.4 -10.55 -69.0 -9.7 -69.3 -8.85 -70.5 -8.2 -71.3 -7.75 -72.0 -7.95 -73.9 -7.45 -73.9 -9.0 M-65.15 -9.6 L-65.2 -8.1 Q-65.45 -7.15 -66.75 -7.15 L-68.3 -7.55 Q-68.65 -7.85 -68.65 -8.25 -68.65 -8.7 -67.55 -10.35 L-66.15 -12.15 Q-65.35 -11.85 -65.2 -11.05 L-65.15 -9.6" fill="#d1aca6" fill-opacity="0.9882353" fill-rule="evenodd" stroke="none"/>
      <path d="M-62.25 -9.55 L-62.15 -8.7 Q-62.15 -7.95 -62.7 -7.15 -62.8 -6.35 -63.2 -5.8 -64.5 -3.95 -68.95 -4.9 -63.65 -4.9 -63.65 -6.55 -63.65 -6.85 -64.4 -7.4 L-65.55 -6.9 -68.65 -6.5 Q-68.75 -7.15 -69.65 -7.15 -70.25 -7.15 -70.25 -6.9 L-70.4 -6.75 -70.4 -6.35 Q-70.4 -5.85 -69.25 -5.0 L-70.8 -5.4 Q-76.5 -4.6 -79.2 -10.8 -80.9 -14.6 -80.9 -18.4 -80.9 -22.9 -78.5 -22.9 L-77.75 -22.75 -77.0 -22.9 -76.65 -23.15 Q-75.25 -23.15 -73.05 -20.0 -70.5 -16.3 -69.9 -15.9 L-64.35 -12.5 -64.65 -10.9 Q-64.65 -9.25 -63.75 -9.35 L-63.7 -9.15 -63.9 -9.15 -64.55 -8.9 -64.65 -8.3 Q-64.65 -7.25 -63.55 -7.35 L-63.2 -7.4 Q-62.4 -7.6 -62.4 -8.25 -62.4 -8.75 -62.85 -8.95 -62.4 -9.0 -62.25 -9.4 L-62.25 -9.55 M-73.9 -9.0 Q-73.9 -7.45 -72.0 -7.95 -71.3 -7.75 -70.5 -8.2 -69.3 -8.85 -69.0 -9.7 -68.4 -10.55 -68.4 -11.75 L-68.45 -12.2 -68.65 -12.35 -69.25 -12.4 -73.9 -9.0 M-75.65 -7.05 Q-75.65 -6.05 -73.15 -5.9 -70.65 -5.8 -70.65 -7.0 L-70.75 -7.6 -74.9 -7.9 Q-75.5 -7.9 -75.55 -7.65 L-75.65 -7.05 M-65.15 -9.6 L-65.2 -11.05 Q-65.35 -11.85 -66.15 -12.15 L-67.55 -10.35 Q-68.65 -8.7 -68.65 -8.25 -68.65 -7.85 -68.3 -7.55 L-66.75 -7.15 Q-65.45 -7.15 -65.2 -8.1 L-65.15 -9.6" fill="#3e2928" fill-opacity="0.9882353" fill-rule="evenodd" stroke="none"/>
      <path d="M-68.95 -4.9 L-69.15 -4.9 -69.25 -5.0 Q-70.4 -5.85 -70.4 -6.35 L-70.4 -6.75 -70.25 -6.9 Q-70.25 -7.15 -69.65 -7.15 -68.75 -7.15 -68.65 -6.5 L-65.55 -6.9 -64.4 -7.4 Q-63.65 -6.85 -63.65 -6.55 -63.65 -4.9 -68.95 -4.9 M-63.7 -9.15 L-63.65 -9.1 -63.2 -8.95 -62.85 -8.95 Q-62.4 -8.75 -62.4 -8.25 -62.4 -7.6 -63.2 -7.4 L-63.55 -7.35 Q-64.65 -7.25 -64.65 -8.3 L-64.55 -8.9 -63.9 -9.15 -63.7 -9.15 M-75.65 -7.05 L-75.55 -7.65 Q-75.5 -7.9 -74.9 -7.9 L-70.75 -7.6 -70.65 -7.0 Q-70.65 -5.8 -73.15 -5.9 -75.65 -6.05 -75.65 -7.05" fill="#a27666" fill-rule="evenodd" stroke="none"/>
      <path d="M-3.4 -26.0 Q-2.35 -24.65 -1.8 -23.2 -2.3 -13.85 -3.4 -11.15 -3.85 -10.05 -5.3 -9.75 -7.0 -9.4 -7.7 -8.95 -8.2 -5.9 -10.95 -6.1 L-12.4 -6.45 Q-16.45 -5.1 -18.15 -7.9 -19.05 -9.35 -19.05 -11.3 -12.5 -28.7 -7.8 -28.7 -5.4 -28.7 -3.4 -26.0 M-7.0 -11.75 L-6.8 -13.05 Q-6.8 -13.25 -7.55 -13.7 L-8.55 -14.2 -9.5 -14.35 -10.3 -14.45 -11.05 -14.35 -11.3 -13.8 Q-11.3 -12.0 -9.05 -11.1 L-7.7 -11.0 -7.8 -10.7 Q-7.8 -9.2 -6.05 -9.9 -4.3 -10.65 -4.3 -12.1 L-5.05 -12.95 Q-6.0 -12.55 -6.95 -11.75 L-7.0 -11.75 M-14.7 -7.85 Q-14.05 -7.75 -14.05 -8.8 -14.05 -9.5 -14.85 -10.6 -14.95 -12.5 -15.6 -13.5 L-15.65 -13.9 -15.95 -13.95 -16.3 -14.2 -16.7 -14.15 -16.9 -13.75 -17.55 -12.45 -17.7 -11.7 -17.8 -11.35 -17.8 -11.05 -17.8 -10.6 Q-17.8 -9.2 -16.2 -8.4 L-15.55 -8.2 -14.95 -7.9 -15.65 -8.05 -16.65 -8.2 Q-17.55 -8.2 -17.55 -7.55 -17.55 -6.55 -15.3 -6.3 -13.05 -6.05 -13.05 -7.05 L-13.8 -7.7 -14.7 -7.85 M-13.55 -13.45 L-14.3 -13.2 -14.3 -12.6 Q-14.3 -9.8 -12.45 -8.5 -10.55 -7.2 -10.55 -9.75 L-11.85 -11.6 Q-13.25 -13.45 -13.55 -13.45 M-11.15 -7.8 Q-11.9 -7.65 -12.3 -7.3 -10.75 -5.6 -9.4 -6.85 -8.3 -7.9 -8.3 -9.1 L-8.3 -9.55 Q-8.4 -9.95 -9.05 -9.95 -9.65 -9.95 -10.3 -8.65 -10.7 -7.9 -11.15 -7.8" fill="#402b2a" fill-opacity="0.9882353" fill-rule="evenodd" stroke="none"/>
      <path d="M-7.7 -11.0 L-9.05 -11.1 Q-11.3 -12.0 -11.3 -13.8 L-11.05 -14.35 -10.3 -14.45 -9.5 -14.35 -8.55 -14.2 -7.55 -13.7 Q-6.8 -13.25 -6.8 -13.05 L-7.0 -11.75 -7.0 -11.7 -7.7 -11.0 M-14.95 -7.9 L-15.55 -8.2 -16.2 -8.4 Q-17.8 -9.2 -17.8 -10.6 L-17.8 -11.05 -17.8 -11.35 -17.7 -11.7 -17.55 -12.45 -16.9 -13.75 -16.7 -14.15 -16.3 -14.2 -15.95 -13.95 -15.65 -13.9 -15.6 -13.5 Q-14.95 -12.5 -14.85 -10.6 -14.05 -9.5 -14.05 -8.8 -14.05 -7.75 -14.7 -7.85 L-14.95 -7.9 M-13.55 -13.45 Q-13.25 -13.45 -11.85 -11.6 L-10.55 -9.75 Q-10.55 -7.2 -12.45 -8.5 -14.3 -9.8 -14.3 -12.6 L-14.3 -13.2 -13.55 -13.45" fill="#d1aca6" fill-opacity="0.9882353" fill-rule="evenodd" stroke="none"/>
      <path d="M-7.0 -11.75 L-6.95 -11.75 Q-6.0 -12.55 -5.05 -12.95 L-4.3 -12.1 Q-4.3 -10.65 -6.05 -9.9 -7.8 -9.2 -7.8 -10.7 L-7.7 -11.0 -7.0 -11.7 -7.0 -11.75 M-14.7 -7.85 L-13.8 -7.7 -13.05 -7.05 Q-13.05 -6.05 -15.3 -6.3 -17.55 -6.55 -17.55 -7.55 -17.55 -8.2 -16.65 -8.2 L-15.65 -8.05 -14.95 -7.9 -14.7 -7.85 M-11.15 -7.8 Q-10.7 -7.9 -10.3 -8.65 -9.65 -9.95 -9.05 -9.95 -8.4 -9.95 -8.3 -9.55 L-8.3 -9.1 Q-8.3 -7.9 -9.4 -6.85 -10.75 -5.6 -12.3 -7.3 -11.9 -7.65 -11.15 -7.8" fill="#a27666" fill-rule="evenodd" stroke="none"/>
    </g>
  </defs>
</svg>
