<?xml version="1.0" encoding="UTF-8" standalone="no"?>
<svg xmlns:xlink="http://www.w3.org/1999/xlink" height="62.8px" width="200.15px" xmlns="http://www.w3.org/2000/svg">
  <g transform="matrix(1, 0, 0, 1, 108.6, 31.5)">
    <path d="M-108.6 25.25 L-108.6 25.35 Q-108.75 28.45 -107.5 31.3 -96.95 28.7 -84.9 29.3 L-78.7 29.6 Q-69.65 30.0 -60.6 30.4 -55.3 30.6 -50.05 30.75 -43.2 30.85 -36.4 30.9 L-21.6 30.4 -12.7 29.75 1.75 28.25 7.65 27.8 22.75 28.7 25.45 29.05 40.65 30.3 49.3 30.1 62.65 29.45 74.35 28.95 82.65 28.85 87.6 28.9 Q94.45 29.1 89.4 27.85 L83.95 26.7 78.2 25.45 Q71.8 23.75 74.45 22.5 L78.1 20.8 Q81.15 19.4 84.2 18.0 L86.15 16.95 Q90.1 14.5 88.95 11.4 88.35 9.8 87.4 8.7 86.15 7.2 84.3 6.6 L82.7 6.1 79.45 4.7 Q78.45 4.15 75.15 3.9 L69.85 3.75 66.25 3.75 57.85 3.25 57.65 3.25 Q53.7 2.75 52.3 1.85 L52.3 1.85 Q50.0 0.25 59.2 -1.4 L68.05 -2.7 68.15 -2.7 Q79.2 -4.1 75.85 -5.8 73.5 -7.0 64.0 -8.4 L62.0 -8.7 Q51.35 -10.35 45.05 -11.75 38.8 -13.15 36.75 -14.4 33.1 -16.65 28.05 -18.25 L26.2 -18.8 Q19.95 -20.55 12.85 -21.45 L11.25 -21.65 -1.45 -22.7 -4.05 -22.8 -15.45 -23.35 -27.95 -24.2 -101.65 -31.0 -103.65 -31.2 -107.15 -31.5 -107.15 -30.6 -107.15 -30.0 -107.25 -26.75 -107.45 -19.65 -107.45 -18.4 -107.75 -6.95 -107.85 -4.65 -108.1 5.5 -108.3 11.85 -108.4 16.9 -108.6 25.25" fill="#89d4e8" fill-rule="evenodd" stroke="none">
      <animate attributeName="fill" dur="2s" repeatCount="indefinite" values="#89d4e8;#89d4e8"/>
      <animate attributeName="fill-opacity" dur="2s" repeatCount="indefinite" values="1.0;1.0"/>
      <animate attributeName="d" dur="2s" repeatCount="indefinite" values="M-108.6 25.25 L-108.6 25.35 Q-108.75 28.45 -107.5 31.3 -96.95 28.7 -84.9 29.3 L-78.7 29.6 Q-69.65 30.0 -60.6 30.4 -55.3 30.6 -50.05 30.75 -43.2 30.85 -36.4 30.9 L-21.6 30.4 -12.7 29.75 1.75 28.25 7.65 27.8 22.75 28.7 25.45 29.05 40.65 30.3 49.3 30.1 62.65 29.45 74.35 28.95 82.65 28.85 87.6 28.9 Q94.45 29.1 89.4 27.85 L83.95 26.7 78.2 25.45 Q71.8 23.75 74.45 22.5 L78.1 20.8 Q81.15 19.4 84.2 18.0 L86.15 16.95 Q90.1 14.5 88.95 11.4 88.35 9.8 87.4 8.7 86.15 7.2 84.3 6.6 L82.7 6.1 79.45 4.7 Q78.45 4.15 75.15 3.9 L69.85 3.75 66.25 3.75 57.85 3.25 57.65 3.25 Q53.7 2.75 52.3 1.85 L52.3 1.85 Q50.0 0.25 59.2 -1.4 L68.05 -2.7 68.15 -2.7 Q79.2 -4.1 75.85 -5.8 73.5 -7.0 64.0 -8.4 L62.0 -8.7 Q51.35 -10.35 45.05 -11.75 38.8 -13.15 36.75 -14.4 33.1 -16.65 28.05 -18.25 L26.2 -18.8 Q19.95 -20.55 12.85 -21.45 L11.25 -21.65 -1.45 -22.7 -4.05 -22.8 -15.45 -23.35 -27.95 -24.2 -101.65 -31.0 -103.65 -31.2 -107.15 -31.5 -107.15 -30.6 -107.15 -30.0 -107.25 -26.75 -107.45 -19.65 -107.45 -18.4 -107.75 -6.95 -107.85 -4.65 -108.1 5.5 -108.3 11.85 -108.4 16.9 -108.6 25.25;M-108.4 15.6 L-108.4 15.6 Q-106.4 16.8 -104.45 18.0 -95.9 22.75 -88.0 23.55 L-83.25 23.7 Q-75.85 23.35 -69.35 24.75 -65.4 25.6 -61.8 27.05 -57.1 28.95 -52.0 29.9 L-40.95 30.9 -34.3 30.8 -23.2 30.15 -18.7 29.75 -7.15 28.45 -5.15 28.25 6.05 27.0 12.75 26.45 22.95 25.9 31.6 25.8 37.85 25.95 41.65 26.0 Q44.0 25.95 46.35 25.9 L51.0 25.55 55.3 24.95 Q57.9 24.5 60.15 23.7 L63.0 22.5 Q65.5 21.3 66.95 19.4 L67.8 18.0 Q68.85 15.95 68.5 13.1 68.25 11.9 68.0 10.75 67.6 9.6 66.2 8.7 L65.1 8.1 62.9 7.2 Q61.15 6.7 59.45 6.2 L55.45 5.3 52.7 4.75 46.5 3.4 46.4 3.4 Q43.8 2.8 42.45 1.95 L42.25 1.85 Q39.25 -0.35 37.25 -3.2 L33.3 -8.75 33.2 -8.95 Q31.15 -11.8 28.05 -14.05 24.15 -16.7 19.15 -18.35 L17.75 -18.8 Q11.9 -20.55 5.25 -21.45 2.15 -21.8 -0.9 -22.15 -4.55 -22.45 -8.15 -22.7 L-9.65 -22.8 Q-14.8 -23.05 -19.95 -23.25 L-21.3 -23.35 -31.05 -24.0 -33.0 -24.2 -41.4 -25.1 -50.9 -26.1 -107.25 -31.5 -107.25 -30.0 -107.35 -27.4 -107.35 -26.75 -107.35 -26.45 -107.4 -23.85 -107.55 -18.4 -107.55 -17.2 -107.85 -8.6 -107.85 -6.95 -108.05 0.85 -108.15 5.5 -108.25 9.35 -108.4 15.6"/>
    </path>
    <path d="M-108.6 25.25 L-108.4 16.9 -108.3 11.85 -108.1 5.5 -107.85 -4.65 -107.75 -6.95 -107.45 -18.4 -107.45 -19.65 -107.25 -26.75 -107.15 -30.0 -107.15 -30.6 -107.15 -31.5 -103.65 -31.2 -101.65 -31.0 -27.95 -24.2 -15.45 -23.35 -4.05 -22.8 -1.45 -22.7 11.25 -21.65 12.85 -21.45 Q19.95 -20.55 26.2 -18.8 L28.05 -18.25 Q33.1 -16.65 36.75 -14.4 38.8 -13.15 45.05 -11.75 51.35 -10.35 62.0 -8.7 L64.0 -8.4 Q73.5 -7.0 75.85 -5.8 79.2 -4.1 68.15 -2.7 L68.05 -2.7 59.2 -1.4 Q50.0 0.25 52.3 1.85 L52.3 1.85 Q53.7 2.75 57.65 3.25 L57.85 3.25 66.25 3.75 69.85 3.75 75.15 3.9 Q78.45 4.15 79.45 4.7 L82.7 6.1 84.3 6.6 Q86.15 7.2 87.4 8.7 88.35 9.8 88.95 11.4 90.1 14.5 86.15 16.95 L84.2 18.0 Q81.15 19.4 78.1 20.8 L74.45 22.5 Q71.8 23.75 78.2 25.45 L83.95 26.7 89.4 27.85 Q94.45 29.1 87.6 28.9 L82.65 28.85 74.35 28.95 62.65 29.45 49.3 30.1 40.65 30.3 25.45 29.05 22.75 28.7 7.65 27.8 1.75 28.25 -12.7 29.75 -21.6 30.4 -36.4 30.9 Q-43.2 30.85 -50.05 30.75 -55.3 30.6 -60.6 30.4 -69.65 30.0 -78.7 29.6 L-84.9 29.3 Q-96.95 28.7 -107.5 31.3 -108.75 28.45 -108.6 25.35 L-108.6 25.25" fill="none" stroke="#000000" stroke-linecap="round" stroke-linejoin="round" stroke-opacity="0.0" stroke-width="1.0">
      <animate attributeName="stroke" dur="2s" repeatCount="indefinite" values="#000000;#000000"/>
      <animate attributeName="stroke-width" dur="2s" repeatCount="indefinite" values="0.0;0.0"/>
      <animate attributeName="fill-opacity" dur="2s" repeatCount="indefinite" values="0.0;0.0"/>
      <animate attributeName="d" dur="2s" repeatCount="indefinite" values="M-108.6 25.25 L-108.4 16.9 -108.3 11.85 -108.1 5.5 -107.85 -4.65 -107.75 -6.95 -107.45 -18.4 -107.45 -19.65 -107.25 -26.75 -107.15 -30.0 -107.15 -30.6 -107.15 -31.5 -103.65 -31.2 -101.65 -31.0 -27.95 -24.2 -15.45 -23.35 -4.05 -22.8 -1.45 -22.7 11.25 -21.65 12.85 -21.45 Q19.95 -20.55 26.2 -18.8 L28.05 -18.25 Q33.1 -16.65 36.75 -14.4 38.8 -13.15 45.05 -11.75 51.35 -10.35 62.0 -8.7 L64.0 -8.4 Q73.5 -7.0 75.85 -5.8 79.2 -4.1 68.15 -2.7 L68.05 -2.7 59.2 -1.4 Q50.0 0.25 52.3 1.85 L52.3 1.85 Q53.7 2.75 57.65 3.25 L57.85 3.25 66.25 3.75 69.85 3.75 75.15 3.9 Q78.45 4.15 79.45 4.7 L82.7 6.1 84.3 6.6 Q86.15 7.2 87.4 8.7 88.35 9.8 88.95 11.4 90.1 14.5 86.15 16.95 L84.2 18.0 Q81.15 19.4 78.1 20.8 L74.45 22.5 Q71.8 23.75 78.2 25.45 L83.95 26.7 89.4 27.85 Q94.45 29.1 87.6 28.9 L82.65 28.85 74.35 28.95 62.65 29.45 49.3 30.1 40.65 30.3 25.45 29.05 22.75 28.7 7.65 27.8 1.75 28.25 -12.7 29.75 -21.6 30.4 -36.4 30.9 Q-43.2 30.85 -50.05 30.75 -55.3 30.6 -60.6 30.4 -69.65 30.0 -78.7 29.6 L-84.9 29.3 Q-96.95 28.7 -107.5 31.3 -108.75 28.45 -108.6 25.35 L-108.6 25.25;M-108.4 15.6 L-108.25 9.35 -108.15 5.5 -108.05 0.85 -107.85 -6.95 -107.85 -8.6 -107.55 -17.2 -107.55 -18.4 -107.4 -23.85 -107.35 -26.45 -107.35 -26.75 -107.35 -27.4 -107.25 -30.0 -107.25 -31.5 -50.9 -26.1 -41.4 -25.1 -33.0 -24.2 -31.05 -24.0 -21.3 -23.35 -19.95 -23.25 Q-14.8 -23.05 -9.65 -22.8 L-8.15 -22.7 Q-4.55 -22.45 -0.9 -22.15 2.15 -21.8 5.25 -21.45 11.9 -20.55 17.75 -18.8 L19.15 -18.35 Q24.15 -16.7 28.05 -14.05 31.15 -11.8 33.2 -8.95 L33.3 -8.75 37.25 -3.2 Q39.25 -0.35 42.25 1.85 L42.45 1.95 Q43.8 2.8 46.4 3.4 L46.5 3.4 52.7 4.75 55.45 5.3 59.45 6.2 Q61.15 6.7 62.9 7.2 L65.1 8.1 66.2 8.7 Q67.6 9.6 68.0 10.75 68.25 11.9 68.5 13.1 68.85 15.95 67.8 18.0 L66.95 19.4 Q65.5 21.3 63.0 22.5 L60.15 23.7 Q57.9 24.5 55.3 24.95 L51.0 25.55 46.35 25.9 Q44.0 25.95 41.65 26.0 L37.85 25.95 31.6 25.8 22.95 25.9 12.75 26.45 6.05 27.0 -5.15 28.25 -7.15 28.45 -18.7 29.75 -23.2 30.15 -34.3 30.8 -40.95 30.9 -52.0 29.9 Q-57.1 28.95 -61.8 27.05 -65.4 25.6 -69.35 24.75 -75.85 23.35 -83.25 23.7 L-88.0 23.55 Q-95.9 22.75 -104.45 18.0 -106.4 16.8 -108.4 15.6 L-108.4 15.6"/>
    </path>
  </g>
</svg>
