<?xml version="1.0" encoding="UTF-8" standalone="no"?>
<svg xmlns:xlink="http://www.w3.org/1999/xlink" height="59.2px" width="231.1px" xmlns="http://www.w3.org/2000/svg">
  <g transform="matrix(1, 0, 0, 1, 116.45, 22.1)">
    <use height="24.1" transform="matrix(1.0, 0.0, 0.0, 1.0, -6.0, 9.2)" width="119.95" xlink:href="#text0"/>
    <use height="34.9" transform="matrix(1.0, 0.0, 0.0, 1.0, -34.95, -21.2)" width="129.6" xlink:href="#sprite0"/>
    <use height="33.45" transform="matrix(0.1985, 0.0, 0.0, 0.1985, -102.845, -2.624)" width="33.4" xlink:href="#sprite1"/>
  </g>
  <defs>
    <g id="sprite0" transform="matrix(1, 0, 0, 1, 72.85, 17.2)">
      <use height="34.9" transform="matrix(1.0, 0.0, 0.0, 1.0, -63.05, -17.2)" width="119.8" xlink:href="#shape0"/>
      <use height="33.45" transform="matrix(0.1985, 0.0, 0.0, 0.1985, -72.845, 0.376)" width="33.4" xlink:href="#sprite1"/>
    </g>
    <g id="shape0" transform="matrix(1, 0, 0, 1, 63.05, 17.2)">
      <path d="M42.55 -6.7 L38.5 -4.3 30.8 0.15 Q28.75 1.35 26.15 3.2 L20.35 7.05 Q17.1 9.1 13.05 11.05 9.0 12.95 3.95 14.4 -1.05 15.8 -7.2 16.4 -13.35 17.0 -20.85 16.4 -28.3 15.75 -37.25 13.6 L-38.4 14.0 -41.55 14.75 -46.0 15.05 Q-48.5 14.9 -51.2 13.95 -53.9 13.0 -56.55 10.75 L-57.1 10.9 -58.4 11.05 -59.75 11.0 -60.5 10.5 -60.15 9.65 -59.15 8.8 -58.15 8.2 -57.7 8.0 Q-58.15 8.1 -58.7 7.6 L-59.9 6.05 -61.0 3.95 -61.8 2.0 -62.05 0.75 Q-61.9 -0.65 -61.1 -1.5 -60.3 -2.35 -59.05 -2.8 L-56.45 -3.65 -53.8 -4.35 Q-52.5 -4.75 -51.55 -5.35 -50.5 -6.1 -49.45 -7.15 L-47.35 -9.35 -45.15 -11.4 -42.75 -12.9 -40.05 -13.3 -38.2 -13.1 -37.4 -13.05 -37.25 -13.05 -35.3 -12.45 -29.25 -11.3 -18.45 -10.2 Q-11.85 -9.8 -2.5 -9.95 L9.75 -10.1 21.1 -10.15 31.05 -10.05 38.9 -9.85 44.05 -9.75 45.95 -9.65 46.15 -9.45 46.35 -8.85 45.8 -8.15 Q45.25 -7.75 43.7 -7.4 L42.55 -6.7" fill="#a33128" fill-rule="evenodd" stroke="none"/>
      <path d="M42.55 -6.7 L38.5 -4.3 30.8 0.15 Q28.75 1.35 26.15 3.2 L20.35 7.05 Q17.1 9.1 13.05 11.05 9.0 12.95 3.95 14.4 -1.05 15.8 -7.2 16.4 -13.35 17.0 -20.85 16.4 -28.3 15.75 -37.25 13.6 L-38.4 14.0 -41.55 14.75 -46.0 15.05 Q-48.5 14.9 -51.2 13.95 -53.9 13.0 -56.55 10.75 L-57.1 10.9 -58.4 11.05 -59.75 11.0 -60.5 10.5 -60.15 9.65 -59.15 8.8 -58.15 8.2 -57.7 8.0 Q-58.15 8.1 -58.7 7.6 L-59.9 6.05 -61.0 3.95 -61.8 2.0 -62.05 0.75 Q-61.9 -0.65 -61.1 -1.5 -60.3 -2.35 -59.05 -2.8 L-56.45 -3.65 -53.8 -4.35 Q-52.5 -4.75 -51.55 -5.35 -50.5 -6.1 -49.45 -7.15 L-47.35 -9.35 -45.15 -11.4 -42.75 -12.9 -40.05 -13.3 -38.2 -13.1 -37.4 -13.05 -37.25 -13.05 -35.3 -12.45 -29.25 -11.3 -18.45 -10.2 Q-11.85 -9.8 -2.5 -9.95 L9.75 -10.1 21.1 -10.15 31.05 -10.05 38.9 -9.85 44.05 -9.75 45.95 -9.65 46.15 -9.45 46.35 -8.85 45.8 -8.15 Q45.25 -7.75 43.7 -7.4 L42.55 -6.7" fill="none" stroke="#000000" stroke-linecap="round" stroke-linejoin="round" stroke-width="2.0"/>
      <path d="M-32.55 6.0 L-30.35 4.1 Q-30.9 5.7 -32.1 6.95 L-34.75 9.45 -37.05 11.6 -37.85 13.35 -39.8 13.95 -43.0 14.5 Q-44.9 14.7 -47.1 14.5 -49.3 14.25 -51.65 13.3 -54.0 12.35 -56.25 10.45 L-56.4 10.3 -56.6 10.35 -59.0 10.6 -60.05 10.35 Q-60.1 10.05 -59.35 9.45 -58.6 8.85 -57.5 8.35 L-57.25 8.25 -57.65 7.45 -57.8 7.55 -58.2 7.4 -59.35 6.05 -60.45 4.0 -61.3 2.0 -61.6 0.8 Q-61.5 -0.4 -60.7 -1.25 L-60.8 -0.45 Q-60.8 0.7 -60.15 1.75 -57.7 4.7 -54.35 6.5 -51.0 8.25 -47.2 8.85 -43.45 9.4 -39.65 8.7 -35.9 8.05 -32.55 6.0" fill="#842824" fill-rule="evenodd" stroke="none"/>
      <path d="M45.1 -8.25 L43.6 -7.8 43.5 -7.8 42.3 -7.05 38.25 -4.65 30.65 -0.2 Q28.45 1.05 25.75 2.95 L20.0 6.8 Q16.8 8.85 12.75 10.7 8.7 12.6 3.75 14.05 -1.25 15.45 -7.35 16.0 -13.45 16.6 -20.85 15.95 -28.25 15.35 -37.1 13.2 L-37.2 13.15 -37.6 13.2 -38.35 13.2 -38.8 13.25 -37.45 12.05 -35.9 10.8 Q-35.15 10.15 -34.75 9.5 -32.3 10.85 -28.95 11.8 L-21.65 13.15 -13.45 13.55 -4.75 12.85 Q-0.4 12.25 3.7 11.05 7.85 9.8 11.5 7.95 L20.4 3.2 Q24.6 0.85 28.75 -1.3 L37.1 -5.3 Q41.35 -7.2 45.8 -8.6 L45.1 -8.25" fill="#842824" fill-rule="evenodd" stroke="none"/>
      <path d="M45.75 -9.25 L45.95 -8.9 45.8 -8.65 Q45.65 -8.5 45.15 -8.3 L43.6 -7.85 43.55 -7.85 43.5 -7.8 43.0 -7.5 42.05 -6.95 41.45 -6.6 28.2 -6.65 15.05 -6.45 1.6 -6.25 -11.95 -6.3 -25.6 -6.95 Q-30.45 -6.95 -33.0 -9.0 L-33.35 -8.75 -32.9 -7.95 -31.65 -5.4 Q-33.25 -7.45 -35.3 -8.95 -37.3 -10.5 -39.6 -11.2 L-44.25 -11.6 Q-42.1 -13.15 -40.1 -12.9 L-38.05 -12.7 -37.3 -12.65 -35.0 -12.0 -28.75 -10.8 -18.05 -9.75 Q-11.55 -9.35 -2.5 -9.55 L9.25 -9.7 20.25 -9.7 30.0 -9.6 37.85 -9.5 43.3 -9.35 45.75 -9.25" fill="#ba3b35" fill-rule="evenodd" stroke="none"/>
      <path d="M-41.35 -16.25 Q-40.4 -15.85 -40.25 -15.0 -40.05 -14.2 -40.25 -13.35 -40.45 -12.45 -40.75 -11.85 L-41.05 -11.25 Q-41.5 -12.05 -42.4 -12.4 L-44.25 -12.75 -45.9 -12.7 -46.6 -12.65 -46.35 -16.0 -45.65 -16.3 -43.75 -16.7 Q-42.6 -16.8 -41.35 -16.25" fill="#7a1b16" fill-rule="evenodd" stroke="none"/>
      <path d="M-41.35 -16.25 Q-42.6 -16.8 -43.75 -16.7 L-45.65 -16.3 -46.35 -16.0 -46.6 -12.65 -45.9 -12.7 -44.25 -12.75 -42.4 -12.4 Q-41.5 -12.05 -41.05 -11.25 L-40.75 -11.85 Q-40.45 -12.45 -40.25 -13.35 -40.05 -14.2 -40.25 -15.0 -40.4 -15.85 -41.35 -16.25" fill="none" stroke="#000000" stroke-linecap="round" stroke-linejoin="round" stroke-width="1.0"/>
      <path d="M-29.1 11.8 L-29.15 12.1 -29.0 12.85 -28.55 13.7 Q-28.15 14.15 -27.45 14.4 L-28.15 14.5 -29.9 14.6 -32.15 14.1 -34.45 12.65 -29.1 11.8" fill="#842824" fill-rule="evenodd" stroke="none"/>
      <path d="M-29.1 11.8 L-29.15 12.1 -29.0 12.85 -28.55 13.7 Q-28.15 14.15 -27.45 14.4 L-28.15 14.5 -29.9 14.6 -32.15 14.1 -34.45 12.65" fill="none" stroke="#000000" stroke-linecap="round" stroke-linejoin="round" stroke-width="1.0"/>
      <path d="M-41.6 -3.1 Q-41.6 -1.35 -42.05 0.0 -42.5 1.4 -43.2 2.25 -43.9 3.05 -44.85 3.05 -45.75 3.05 -46.45 2.25 -47.2 1.4 -47.6 0.0 -48.05 -1.35 -48.05 -3.1 -48.05 -4.8 -47.6 -6.2 -47.2 -7.6 -46.45 -8.4 -45.75 -9.25 -44.85 -9.25 -43.9 -9.25 -43.2 -8.4 -42.5 -7.6 -42.05 -6.2 -41.6 -4.8 -41.6 -3.1" fill="#ffffff" fill-rule="evenodd" stroke="none"/>
      <path d="M-41.6 -3.1 Q-41.6 -1.35 -42.05 0.0 -42.5 1.4 -43.2 2.25 -43.9 3.05 -44.85 3.05 -45.75 3.05 -46.45 2.25 -47.2 1.4 -47.6 0.0 -48.05 -1.35 -48.05 -3.1 -48.05 -4.8 -47.6 -6.2 -47.2 -7.6 -46.45 -8.4 -45.75 -9.25 -44.85 -9.25 -43.9 -9.25 -43.2 -8.4 -42.5 -7.6 -42.05 -6.2 -41.6 -4.8 -41.6 -3.1" fill="none" stroke="#000000" stroke-linecap="round" stroke-linejoin="round" stroke-width="1.0"/>
      <path d="M-43.3 -3.3 Q-43.3 -2.3 -43.6 -1.45 -43.95 -0.6 -44.45 -0.1 -45.0 0.4 -45.7 0.4 -46.35 0.4 -46.85 -0.1 -47.4 -0.6 -47.75 -1.45 L-48.05 -3.3 -47.75 -5.15 -46.85 -6.5 Q-46.35 -7.0 -45.7 -7.0 -45.0 -7.0 -44.5 -6.5 -43.95 -6.0 -43.6 -5.15 -43.3 -4.35 -43.3 -3.3" fill="#000000" fill-rule="evenodd" stroke="none"/>
      <path d="M-44.05 -3.35 Q-44.05 -2.25 -44.55 -1.5 -45.0 -0.8 -45.7 -0.8 -46.4 -0.8 -46.8 -1.5 -47.3 -2.25 -47.3 -3.35 -47.3 -4.4 -46.8 -5.1 -46.35 -5.85 -45.7 -5.85 -45.0 -5.85 -44.55 -5.1 -44.05 -4.4 -44.05 -3.35" fill="#3a0707" fill-rule="evenodd" stroke="none"/>
      <path d="M-44.05 -5.05 Q-44.05 -4.65 -44.2 -4.35 -44.4 -4.1 -44.65 -4.1 L-45.1 -4.35 -45.25 -5.05 -45.1 -5.7 -44.65 -5.95 -44.2 -5.7 -44.05 -5.05" fill="#ffffff" fill-rule="evenodd" stroke="none"/>
      <path d="M-34.1 -8.15 Q-32.05 -5.85 -31.05 -3.8 -29.9 -1.25 -29.95 1.0 -30.0 3.2 -30.9 5.05 -31.8 6.9 -33.1 8.35 L-35.7 10.8 -37.9 12.25 -38.8 12.8 Q-35.3 10.55 -33.45 8.25 -31.55 6.0 -30.9 3.85 -30.25 1.65 -30.5 -0.3 -30.7 -2.25 -31.4 -3.85 -32.15 -5.5 -33.0 -6.7 L-34.1 -8.15" fill="#000000" fill-rule="evenodd" stroke="none"/>
      <path d="M42.95 -9.55 L45.55 -11.7 Q47.1 -12.6 48.85 -13.25 L52.45 -14.05 55.75 -13.95 Q55.5 -12.9 54.75 -12.0 L52.95 -10.45 50.85 -9.25 48.75 -8.4 50.95 -7.35 53.25 -5.9 54.9 -4.05 Q55.45 -3.0 55.15 -1.7 53.2 -1.95 50.95 -2.8 48.75 -3.65 46.75 -4.85 44.7 -6.1 43.35 -7.55 L42.95 -9.55" fill="#a33128" fill-rule="evenodd" stroke="none"/>
      <path d="M43.35 -7.55 Q44.7 -6.1 46.75 -4.85 48.75 -3.65 50.95 -2.8 53.2 -1.95 55.15 -1.7 55.45 -3.0 54.9 -4.05 L53.25 -5.9 50.95 -7.35 48.75 -8.4 50.85 -9.25 52.95 -10.45 54.75 -12.0 Q55.5 -12.9 55.75 -13.95 L52.45 -14.05 48.85 -13.25 Q47.1 -12.6 45.55 -11.7 L42.95 -9.55" fill="none" stroke="#000000" stroke-linecap="round" stroke-linejoin="round" stroke-width="2.0"/>
      <path d="M-23.95 -6.7 L-18.05 -6.7 Q-17.6 -2.8 -17.7 0.4 -17.9 3.55 -18.4 6.1 L-19.55 10.25 -20.65 12.85 -21.1 13.75 -25.9 12.35 Q-23.65 9.65 -22.75 6.95 -21.9 4.2 -21.95 1.75 -21.95 -0.65 -22.45 -2.6 L-23.4 -5.6 -23.95 -6.7" fill="#ba3b35" fill-rule="evenodd" stroke="none"/>
      <path d="M-9.1 -7.0 L-2.9 -6.45 Q-2.15 -3.0 -2.15 -0.05 -2.15 2.9 -2.7 5.2 -3.25 7.55 -3.95 9.2 L-5.15 11.7 -5.75 12.6 -11.05 13.15 Q-9.95 11.8 -9.35 9.8 -8.75 7.85 -8.55 5.6 L-8.4 1.1 -8.6 -2.95 -8.95 -5.85 -9.1 -7.0" fill="#ba3b35" fill-rule="evenodd" stroke="none"/>
      <path d="M13.6 -7.85 Q13.85 -5.9 13.5 -3.65 13.2 -1.35 12.55 0.85 L11.3 4.9 10.15 7.8 9.65 8.95 2.95 11.45 Q4.05 10.3 4.75 8.6 5.45 6.85 5.8 4.85 L6.3 0.8 6.45 -2.8 6.35 -5.45 6.3 -6.45 13.6 -7.85" fill="#ba3b35" fill-rule="evenodd" stroke="none"/>
      <path d="M22.25 -6.45 L25.05 -7.85 Q25.7 -7.4 25.9 -6.5 L25.9 -4.5 25.5 -2.35 25.0 -0.7 24.8 0.0 21.7 1.95 Q22.6 0.45 22.85 -1.05 L22.9 -3.7 22.55 -5.7 22.25 -6.45" fill="#ba3b35" fill-rule="evenodd" stroke="none"/>
    </g>
    <g id="sprite1" transform="matrix(1, 0, 0, 1, 16.35, 23.55)">
      <use height="25.4" transform="matrix(0.8077, 0.0, 0.0, 0.8077, -9.9866, -10.6327)" width="25.4" xlink:href="#shape1"/>
    </g>
    <g id="shape1" transform="matrix(1, 0, 0, 1, 12.55, 13.35)">
      <path d="M8.9 -9.4 Q12.5 -5.8 12.5 -0.65 12.5 4.45 8.9 8.1 5.25 11.7 0.15 11.7 -5.0 11.7 -8.6 8.1 -12.2 4.45 -12.2 -0.65 -12.2 -5.8 -8.6 -9.4 -5.0 -13.0 0.15 -13.0 5.25 -13.0 8.9 -9.4" fill="#ccffff" fill-opacity="0.49019608" fill-rule="evenodd" stroke="none"/>
      <path d="M8.9 -9.4 Q12.5 -5.8 12.5 -0.65 12.5 4.45 8.9 8.1 5.25 11.7 0.15 11.7 -5.0 11.7 -8.6 8.1 -12.2 4.45 -12.2 -0.65 -12.2 -5.8 -8.6 -9.4 -5.0 -13.0 0.15 -13.0 5.25 -13.0 8.9 -9.4" fill="none" stroke="#00ccff" stroke-linecap="round" stroke-linejoin="round" stroke-opacity="0.49019608" stroke-width="0.75"/>
      <path d="M8.05 -7.55 Q10.05 -4.8 10.05 -0.8 10.05 3.15 8.05 5.95 6.1 8.75 3.3 8.8 L2.65 8.75 Q4.25 8.1 5.55 6.25 7.5 3.5 7.5 -0.5 7.5 -4.45 5.55 -7.25 3.8 -9.7 1.4 -9.95 L3.3 -10.35 Q6.1 -10.35 8.05 -7.55" fill="#ffffff" fill-opacity="0.49019608" fill-rule="evenodd" stroke="none"/>
      <path d="M-7.6 -6.4 Q-7.6 -7.35 -6.95 -8.0 -6.3 -8.65 -5.35 -8.65 -4.4 -8.65 -3.75 -8.0 -3.1 -7.35 -3.1 -6.4 -3.1 -5.45 -3.75 -4.8 -4.4 -4.15 -5.35 -4.15 -6.3 -4.15 -6.95 -4.8 -7.6 -5.45 -7.6 -6.4" fill="#ffffff" fill-opacity="0.49019608" fill-rule="evenodd" stroke="none"/>
    </g>
  </defs>
</svg>
