<?xml version="1.0" encoding="UTF-8" standalone="no"?>
<svg xmlns:xlink="http://www.w3.org/1999/xlink" height="59.2px" width="231.1px" xmlns="http://www.w3.org/2000/svg">
  <g transform="matrix(1, 0, 0, 1, 116.45, 22.1)">
    <use height="24.1" transform="matrix(1.0, 0.0, 0.0, 1.0, -106.0, 9.0)" width="119.95" xlink:href="#text0"/>
    <use height="29.7" transform="matrix(1.0, 0.0, 0.0, 1.0, -67.35, -15.1)" width="42.4" xlink:href="#shape0"/>
    <use height="33.45" transform="matrix(0.1985, 0.0, 0.0, 0.1985, -102.845, -2.624)" width="33.4" xlink:href="#sprite0"/>
  </g>
  <defs>
    <g id="shape0" transform="matrix(1, 0, 0, 1, 67.35, 15.1)">
      <path d="M-60.95 -10.45 L-59.0 -11.85 Q-50.75 -16.9 -41.65 -13.2 L-40.95 -13.15 Q-30.85 -12.3 -31.5 -6.75 L-28.95 -11.75 Q-27.9 -14.05 -25.7 -14.0 -25.3 -12.8 -25.3 -11.2 -25.3 -6.6 -29.45 -5.15 -27.55 -0.25 -27.8 3.3 L-27.6 3.3 Q-30.15 3.5 -31.3 0.85 -32.15 -2.1 -32.8 -3.15 L-32.95 -3.3 -33.95 -3.3 -35.4 -1.85 -35.65 -0.95 Q-35.45 2.35 -36.8 5.0 -39.3 9.9 -43.6 10.2 L-44.0 9.9 Q-47.55 14.1 -51.05 14.1 -53.85 14.1 -57.0 10.25 L-57.1 10.05 -59.25 9.65 Q-62.25 9.0 -63.9 7.2 -65.55 5.35 -66.75 0.55 -67.85 -3.7 -64.45 -8.05 L-63.6 -7.95 -62.1 -7.9 -59.25 -8.15 -60.95 -10.45 M-59.25 9.65 Q-61.35 9.15 -62.7 6.0 -64.05 2.85 -64.05 -1.0 -64.05 -5.5 -62.1 -7.9 -64.05 -5.5 -64.05 -1.0 -64.05 2.85 -62.7 6.0 -61.35 9.15 -59.25 9.65 M-60.35 -5.95 Q-61.55 -4.0 -61.55 -1.3 -61.55 1.4 -60.35 3.3 -59.1 5.25 -57.35 5.25 -55.6 5.25 -54.4 3.3 -53.15 1.4 -53.15 -1.3 -53.15 -4.0 -54.4 -5.95 -55.6 -7.85 -57.35 -7.85 -59.1 -7.85 -60.35 -5.95 M-39.35 -10.85 L-40.75 -9.7 -40.75 -8.35 -40.55 -8.25 -40.55 -8.2 -40.5 -8.2 -40.5 -8.05 -40.35 -8.0 -39.8 -7.9 -37.0 -7.05 -36.6 -6.9 -36.45 -6.85 -35.1 -6.3 -34.0 -6.3 -34.0 -8.05 -35.05 -11.2 Q-35.45 -12.2 -36.75 -12.15 -37.5 -12.15 -38.75 -11.3 L-39.35 -10.85 Q-40.2 -12.45 -41.65 -13.2 -40.2 -12.45 -39.35 -10.85 M-43.3 -8.35 L-43.35 -8.35 Q-45.1 -8.35 -46.35 -6.45 -47.55 -4.5 -47.55 -1.8 -47.55 0.9 -46.35 2.8 -45.1 4.75 -43.35 4.75 L-43.3 4.75 -42.75 4.75 -42.7 4.75 Q-40.95 4.75 -39.75 2.8 -38.5 0.9 -38.5 -1.8 -38.5 -4.5 -39.75 -6.45 -40.3 -7.35 -41.0 -7.8 -41.75 -8.35 -42.7 -8.35 L-42.75 -8.35 -43.3 -8.35 M-37.0 -7.05 Q-35.8 -3.8 -35.65 -0.95 -35.8 -3.8 -37.0 -7.05 M-43.2 8.85 L-44.0 9.9 -43.2 8.85 M-48.05 10.55 Q-48.95 10.3 -49.4 11.2 -48.95 10.3 -48.05 10.55 M-53.15 10.65 Q-52.3 10.5 -52.15 11.4 -52.3 10.5 -53.15 10.65" fill="#a33128" fill-rule="evenodd" stroke="none"/>
      <path d="M-64.45 -8.05 L-65.4 -8.15 -65.15 -9.8 -65.15 -9.9 -65.05 -13.05 -64.6 -13.1 Q-63.55 -13.05 -62.15 -11.75 L-60.95 -10.45 -59.25 -8.15 -62.1 -7.9 -63.6 -7.95 -64.45 -8.05 M-40.55 -8.25 L-40.75 -8.35 -40.75 -9.7 -39.35 -10.85 -38.75 -11.3 Q-37.5 -12.15 -36.75 -12.15 -35.45 -12.2 -35.05 -11.2 L-34.0 -8.05 -34.0 -6.3 -35.1 -6.3 -36.45 -6.85 -36.6 -6.9 -37.0 -7.05 -39.8 -7.9 -40.35 -8.0 -40.5 -8.05 -40.5 -8.2 -40.55 -8.25" fill="#663300" fill-rule="evenodd" stroke="none"/>
      <path d="M-60.35 -5.95 Q-59.1 -7.85 -57.35 -7.85 -55.6 -7.85 -54.4 -5.95 -53.15 -4.0 -53.15 -1.3 -53.15 1.4 -54.4 3.3 -55.6 5.25 -57.35 5.25 -59.1 5.25 -60.35 3.3 -61.55 1.4 -61.55 -1.3 -61.55 -4.0 -60.35 -5.95 M-43.0 4.75 Q-44.55 4.55 -45.7 2.8 -46.9 0.9 -46.9 -1.8 -46.9 -4.5 -45.7 -6.45 -44.55 -8.15 -43.0 -8.3 L-42.75 -8.35 -42.7 -8.35 Q-41.75 -8.35 -41.0 -7.8 -40.3 -7.35 -39.75 -6.45 -38.5 -4.5 -38.5 -1.8 -38.5 0.9 -39.75 2.8 -40.95 4.75 -42.7 4.75 L-42.75 4.75 -43.0 4.75 Q-41.5 4.55 -40.4 2.8 -39.15 0.9 -39.15 -1.8 -39.15 -4.5 -40.4 -6.45 -41.5 -8.15 -43.0 -8.3 -41.5 -8.15 -40.4 -6.45 -39.15 -4.5 -39.15 -1.8 -39.15 0.9 -40.4 2.8 -41.5 4.55 -43.0 4.75" fill="#cccccc" fill-rule="evenodd" stroke="none"/>
      <path d="M-60.95 -10.45 L-59.0 -11.85 Q-50.75 -16.9 -41.65 -13.2 L-40.95 -13.15 Q-30.85 -12.3 -31.5 -6.75 L-28.95 -11.75 Q-27.9 -14.05 -25.7 -14.0 -25.3 -12.8 -25.3 -11.2 -25.3 -6.6 -29.45 -5.15 -27.55 -0.25 -27.8 3.3 L-27.6 3.3 Q-30.15 3.5 -31.3 0.85 -32.15 -2.1 -32.8 -3.15 L-32.95 -3.3 -33.95 -3.3 -35.4 -1.85 -35.65 -0.95 Q-35.45 2.35 -36.8 5.0 -39.3 9.9 -43.6 10.2 M-57.0 10.25 L-57.1 10.05 -59.25 9.65 Q-62.25 9.0 -63.9 7.2 -65.55 5.35 -66.75 0.55 -67.85 -3.7 -64.45 -8.05 M-62.1 -7.9 Q-64.05 -5.5 -64.05 -1.0 -64.05 2.85 -62.7 6.0 -61.35 9.15 -59.25 9.65 M-39.35 -10.85 Q-40.2 -12.45 -41.65 -13.2 M-36.6 -6.9 L-36.45 -6.85 M-35.65 -0.95 Q-35.8 -3.8 -37.0 -7.05 M-52.15 11.4 Q-52.3 10.5 -53.15 10.65 M-49.4 11.2 Q-48.95 10.3 -48.05 10.55" fill="none" stroke="#000000" stroke-linecap="round" stroke-linejoin="round" stroke-width="0.75"/>
      <path d="M-64.45 -8.05 L-65.4 -8.15 -65.15 -9.8 -65.15 -9.9 -65.05 -13.05 -64.6 -13.1 Q-63.55 -13.05 -62.15 -11.75 L-60.95 -10.45 -59.25 -8.15 -62.1 -7.9 -63.6 -7.95 -64.45 -8.05 M-40.55 -8.25 L-40.75 -8.35 -40.75 -9.7 -39.35 -10.85 M-40.35 -8.0 L-39.8 -7.9 -37.0 -7.05 -36.6 -6.9 M-36.45 -6.85 L-35.1 -6.3 -34.0 -6.3 -34.0 -8.05 -35.05 -11.2 Q-35.45 -12.2 -36.75 -12.15 -37.5 -12.15 -38.75 -11.3 L-39.35 -10.85 M-40.35 -8.0 L-40.5 -8.05 -40.5 -8.2 M-40.55 -8.25 L-40.5 -8.2" fill="none" stroke="#000000" stroke-linecap="round" stroke-linejoin="round" stroke-width="0.05"/>
      <path d="M-44.0 9.9 Q-47.55 14.1 -51.05 14.1 -53.85 14.1 -57.0 10.25 M-60.35 -5.95 Q-59.1 -7.85 -57.35 -7.85 -55.6 -7.85 -54.4 -5.95 -53.15 -4.0 -53.15 -1.3 -53.15 1.4 -54.4 3.3 -55.6 5.25 -57.35 5.25 -59.1 5.25 -60.35 3.3 -61.55 1.4 -61.55 -1.3 -61.55 -4.0 -60.35 -5.95 M-43.0 -8.3 L-43.3 -8.35 -43.35 -8.35 Q-45.1 -8.35 -46.35 -6.45 -47.55 -4.5 -47.55 -1.8 -47.55 0.9 -46.35 2.8 -45.1 4.75 -43.35 4.75 L-43.3 4.75 -43.0 4.75 M-43.0 -8.3 Q-41.5 -8.15 -40.4 -6.45 -39.15 -4.5 -39.15 -1.8 -39.15 0.9 -40.4 2.8 -41.5 4.55 -43.0 4.75 M-44.0 9.9 L-43.2 8.85" fill="none" stroke="#000000" stroke-linecap="round" stroke-linejoin="round" stroke-width="1.0"/>
      <path d="M-56.6 -1.75 Q-56.35 -1.45 -56.35 -1.0 -56.35 -0.6 -56.6 -0.3 -56.85 0.0 -57.15 0.0 L-57.65 -0.3 -57.9 -1.0 -57.65 -1.75 -57.15 -2.05 -56.6 -1.75" fill="#cccccc" fill-rule="evenodd" stroke="none"/>
      <path d="M-56.9 -2.2 Q-56.2 -2.2 -55.7 -1.55 -55.2 -0.85 -55.2 0.1 -55.2 1.05 -55.7 1.7 -56.2 2.4 -56.9 2.4 -57.6 2.4 -58.1 1.7 -58.6 1.05 -58.6 0.1 L-58.35 -1.1 -58.1 -1.55 -57.3 -2.1 -56.9 -2.2 M-56.6 -1.75 L-57.15 -2.05 -57.65 -1.75 -57.9 -1.0 -57.65 -0.3 -57.15 0.0 Q-56.85 0.0 -56.6 -0.3 -56.35 -0.6 -56.35 -1.0 -56.35 -1.45 -56.6 -1.75" fill="#000000" fill-rule="evenodd" stroke="none"/>
      <path d="M-58.65 -2.85 Q-58.0 -3.45 -57.05 -3.45 -55.9 -3.45 -55.05 -2.45 -54.25 -1.5 -54.25 -0.05 -54.25 1.35 -55.05 2.35 -55.9 3.3 -57.05 3.35 -58.25 3.3 -59.05 2.35 -59.85 1.35 -59.85 -0.05 -59.85 -1.5 -59.05 -2.45 L-58.65 -2.85 M-56.9 -2.2 L-57.3 -2.1 -58.1 -1.55 -58.35 -1.1 -58.6 0.1 Q-58.6 1.05 -58.1 1.7 -57.6 2.4 -56.9 2.4 -56.2 2.4 -55.7 1.7 -55.2 1.05 -55.2 0.1 -55.2 -0.85 -55.7 -1.55 -56.2 -2.2 -56.9 -2.2" fill="#666666" fill-rule="evenodd" stroke="none"/>
      <path d="M-58.65 -2.85 Q-58.0 -3.45 -57.05 -3.45 -55.9 -3.45 -55.05 -2.45 -54.25 -1.5 -54.25 -0.05 -54.25 1.35 -55.05 2.35 -55.9 3.3 -57.05 3.35 -58.25 3.3 -59.05 2.35 -59.85 1.35 -59.85 -0.05 -59.85 -1.5 -59.05 -2.45 L-58.65 -2.85" fill="none" stroke="#000000" stroke-linecap="round" stroke-linejoin="round" stroke-width="0.05"/>
      <path d="M-56.9 -2.2 Q-56.2 -2.2 -55.7 -1.55 -55.2 -0.85 -55.2 0.1 -55.2 1.05 -55.7 1.7 -56.2 2.4 -56.9 2.4 -57.6 2.4 -58.1 1.7 -58.6 1.05 -58.6 0.1 L-58.35 -1.1 -58.1 -1.55 -57.3 -2.1 -56.9 -2.2" fill="none" stroke="#000000" stroke-linecap="round" stroke-linejoin="round" stroke-width="0.05"/>
      <path d="M-43.0 -2.55 L-42.75 -1.8 Q-42.75 -1.4 -43.0 -1.1 -43.25 -0.8 -43.55 -0.8 -43.85 -0.8 -44.05 -1.1 L-44.3 -1.8 -44.05 -2.55 -43.55 -2.85 Q-43.25 -2.85 -43.0 -2.55" fill="#cccccc" fill-rule="evenodd" stroke="none"/>
      <path d="M-43.0 -2.55 Q-43.25 -2.85 -43.55 -2.85 L-44.05 -2.55 -44.3 -1.8 -44.05 -1.1 Q-43.85 -0.8 -43.55 -0.8 -43.25 -0.8 -43.0 -1.1 -42.75 -1.4 -42.75 -1.8 L-43.0 -2.55 M-43.3 -3.0 Q-42.6 -3.0 -42.1 -2.35 -41.6 -1.65 -41.6 -0.7 -41.6 0.25 -42.1 0.9 -42.6 1.6 -43.3 1.6 -44.0 1.6 -44.5 0.9 -45.0 0.25 -45.0 -0.7 L-44.75 -1.9 -44.5 -2.35 Q-44.15 -2.8 -43.7 -2.9 L-43.3 -3.0" fill="#000000" fill-rule="evenodd" stroke="none"/>
      <path d="M-43.3 -3.0 L-43.7 -2.9 Q-44.15 -2.8 -44.5 -2.35 L-44.75 -1.9 -45.0 -0.7 Q-45.0 0.25 -44.5 0.9 -44.0 1.6 -43.3 1.6 -42.6 1.6 -42.1 0.9 -41.6 0.25 -41.6 -0.7 -41.6 -1.65 -42.1 -2.35 -42.6 -3.0 -43.3 -3.0 M-45.05 -3.65 Q-44.4 -4.25 -43.45 -4.25 -42.3 -4.25 -41.45 -3.25 -40.65 -2.3 -40.65 -0.85 -40.65 0.55 -41.45 1.55 -42.3 2.5 -43.45 2.55 -44.65 2.5 -45.45 1.55 -46.25 0.55 -46.25 -0.85 -46.25 -2.3 -45.45 -3.25 L-45.05 -3.65" fill="#666666" fill-rule="evenodd" stroke="none"/>
      <path d="M-45.05 -3.65 Q-44.4 -4.25 -43.45 -4.25 -42.3 -4.25 -41.45 -3.25 -40.65 -2.3 -40.65 -0.85 -40.65 0.55 -41.45 1.55 -42.3 2.5 -43.45 2.55 -44.65 2.5 -45.45 1.55 -46.25 0.55 -46.25 -0.85 -46.25 -2.3 -45.45 -3.25 L-45.05 -3.65" fill="none" stroke="#000000" stroke-linecap="round" stroke-linejoin="round" stroke-width="0.05"/>
      <path d="M-43.3 -3.0 Q-42.6 -3.0 -42.1 -2.35 -41.6 -1.65 -41.6 -0.7 -41.6 0.25 -42.1 0.9 -42.6 1.6 -43.3 1.6 -44.0 1.6 -44.5 0.9 -45.0 0.25 -45.0 -0.7 L-44.75 -1.9 -44.5 -2.35 Q-44.15 -2.8 -43.7 -2.9 L-43.3 -3.0" fill="none" stroke="#000000" stroke-linecap="round" stroke-linejoin="round" stroke-width="0.05"/>
    </g>
    <g id="sprite0" transform="matrix(1, 0, 0, 1, 16.35, 23.55)">
      <use height="25.4" transform="matrix(0.8077, 0.0, 0.0, 0.8077, -9.9866, -10.6327)" width="25.4" xlink:href="#shape1"/>
    </g>
    <g id="shape1" transform="matrix(1, 0, 0, 1, 12.55, 13.35)">
      <path d="M8.9 -9.4 Q12.5 -5.8 12.5 -0.65 12.5 4.45 8.9 8.1 5.25 11.7 0.15 11.7 -5.0 11.7 -8.6 8.1 -12.2 4.45 -12.2 -0.65 -12.2 -5.8 -8.6 -9.4 -5.0 -13.0 0.15 -13.0 5.25 -13.0 8.9 -9.4" fill="#ccffff" fill-opacity="0.49019608" fill-rule="evenodd" stroke="none"/>
      <path d="M8.9 -9.4 Q12.5 -5.8 12.5 -0.65 12.5 4.45 8.9 8.1 5.25 11.7 0.15 11.7 -5.0 11.7 -8.6 8.1 -12.2 4.45 -12.2 -0.65 -12.2 -5.8 -8.6 -9.4 -5.0 -13.0 0.15 -13.0 5.25 -13.0 8.9 -9.4" fill="none" stroke="#00ccff" stroke-linecap="round" stroke-linejoin="round" stroke-opacity="0.49019608" stroke-width="0.75"/>
      <path d="M8.05 -7.55 Q10.05 -4.8 10.05 -0.8 10.05 3.15 8.05 5.95 6.1 8.75 3.3 8.8 L2.65 8.75 Q4.25 8.1 5.55 6.25 7.5 3.5 7.5 -0.5 7.5 -4.45 5.55 -7.25 3.8 -9.7 1.4 -9.95 L3.3 -10.35 Q6.1 -10.35 8.05 -7.55" fill="#ffffff" fill-opacity="0.49019608" fill-rule="evenodd" stroke="none"/>
      <path d="M-7.6 -6.4 Q-7.6 -7.35 -6.95 -8.0 -6.3 -8.65 -5.35 -8.65 -4.4 -8.65 -3.75 -8.0 -3.1 -7.35 -3.1 -6.4 -3.1 -5.45 -3.75 -4.8 -4.4 -4.15 -5.35 -4.15 -6.3 -4.15 -6.95 -4.8 -7.6 -5.45 -7.6 -6.4" fill="#ffffff" fill-opacity="0.49019608" fill-rule="evenodd" stroke="none"/>
    </g>
  </defs>
</svg>
