<?xml version="1.0" encoding="UTF-8" standalone="no"?>
<svg xmlns:xlink="http://www.w3.org/1999/xlink" height="59.2px" width="231.1px" xmlns="http://www.w3.org/2000/svg">
  <g transform="matrix(1, 0, 0, 1, 116.45, 22.1)">
    <use height="24.1" transform="matrix(1.0, 0.0, 0.0, 1.0, -116.0, 13.2)" width="119.95" xlink:href="#text0"/>
    <use height="33.1" transform="matrix(1.0, 0.0, 0.0, 1.0, -93.05, -17.4)" width="114.9" xlink:href="#shape0"/>
  </g>
  <defs>
    <g id="shape0" transform="matrix(1, 0, 0, 1, 93.05, 17.4)">
      <path d="M-83.6 -11.05 Q-84.3 -12.5 -85.3 -13.55 L-87.5 -15.4 Q-88.7 -16.1 -89.9 -16.3 L-92.05 -16.25 -91.4 -13.95 -90.2 -12.1 -88.8 -10.65 -87.45 -9.7 -88.9 -8.45 -90.4 -6.75 Q-91.1 -5.8 -91.45 -4.55 -91.85 -3.3 -91.65 -1.8 -90.35 -2.1 -88.9 -3.05 L-86.1 -5.55 Q-84.75 -7.0 -83.85 -8.7 L-83.6 -11.05" fill="#a33128" fill-rule="evenodd" stroke="none"/>
      <path d="M-83.85 -8.7 Q-84.75 -7.0 -86.1 -5.55 L-88.9 -3.05 Q-90.35 -2.1 -91.65 -1.8 -91.85 -3.3 -91.45 -4.55 -91.1 -5.8 -90.4 -6.75 L-88.9 -8.45 -87.45 -9.7 -88.8 -10.65 -90.2 -12.1 -91.4 -13.95 -92.05 -16.25 -89.9 -16.3 Q-88.7 -16.1 -87.5 -15.4 L-85.3 -13.55 Q-84.3 -12.5 -83.6 -11.05" fill="none" stroke="#000000" stroke-linecap="round" stroke-linejoin="round" stroke-width="2.0"/>
      <path d="M-85.0 -9.45 L-84.9 -9.4 -83.7 -8.7 -79.7 -6.3 -72.0 -1.85 -67.35 1.2 -61.55 5.1 -54.25 9.05 Q-50.2 11.0 -45.15 12.4 -40.15 13.85 -34.0 14.4 -27.8 15.0 -20.35 14.4 -12.9 13.75 -3.95 11.6 L-2.8 12.05 0.35 12.75 4.8 13.05 Q7.3 12.95 10.0 11.95 12.75 11.0 15.35 8.75 L15.9 8.9 17.2 9.05 18.55 9.0 19.3 8.5 Q19.35 8.1 18.95 7.65 L18.0 6.8 16.95 6.2 16.5 6.0 Q16.95 6.15 17.5 5.6 L18.7 4.05 19.8 1.95 20.6 0.0 20.85 -1.2 Q20.7 -2.65 19.9 -3.45 19.1 -4.35 17.85 -4.8 L15.25 -5.65 12.6 -6.35 Q11.3 -6.7 10.35 -7.35 L8.3 -9.15 6.2 -11.3 3.95 -13.4 Q2.8 -14.35 1.55 -14.9 L-1.15 -15.3 -3.0 -15.1 -3.8 -15.0 -3.95 -15.0 -5.9 -14.45 -11.95 -13.3 -22.75 -12.2 Q-29.35 -11.75 -38.7 -11.95 L-50.9 -12.1 -62.3 -12.1 -72.25 -12.0 -80.1 -11.85 -85.0 -11.7 Q-86.8 -10.6 -85.0 -9.45" fill="#a33128" fill-rule="evenodd" stroke="none"/>
      <path d="M-85.0 -9.45 L-84.9 -9.4 -83.7 -8.7 -79.7 -6.3 -72.0 -1.85 -67.35 1.2 -61.55 5.1 -54.25 9.05 Q-50.2 11.0 -45.15 12.4 -40.15 13.85 -34.0 14.4 -27.8 15.0 -20.35 14.4 -12.9 13.75 -3.95 11.6 L-2.8 12.05 0.35 12.75 4.8 13.05 Q7.3 12.95 10.0 11.95 12.75 11.0 15.35 8.75 L15.9 8.9 17.2 9.05 18.55 9.0 19.3 8.5 Q19.35 8.1 18.95 7.65 L18.0 6.8 16.95 6.2 16.5 6.0 Q16.95 6.15 17.5 5.6 L18.7 4.05 19.8 1.95 20.6 0.0 20.85 -1.2 Q20.7 -2.65 19.9 -3.45 19.1 -4.35 17.85 -4.8 L15.25 -5.65 12.6 -6.35 Q11.3 -6.7 10.35 -7.35 L8.3 -9.15 6.2 -11.3 3.95 -13.4 Q2.8 -14.35 1.55 -14.9 L-1.15 -15.3 -3.0 -15.1 -3.8 -15.0 -3.95 -15.0 -5.9 -14.45 -11.95 -13.3 -22.75 -12.2 Q-29.35 -11.75 -38.7 -11.95 L-50.9 -12.1 -62.3 -12.1 -72.25 -12.0 -80.1 -11.85 -85.0 -11.7" fill="none" stroke="#000000" stroke-linecap="round" stroke-linejoin="round" stroke-width="2.0"/>
      <path d="M-10.85 2.1 Q-10.3 3.7 -9.1 4.95 L-6.45 7.45 -4.15 9.6 Q-3.6 10.45 -3.35 11.35 L-1.4 11.95 1.8 12.5 Q3.7 12.7 5.9 12.5 8.1 12.25 10.45 11.3 12.8 10.35 15.05 8.45 L15.2 8.3 15.4 8.35 17.8 8.6 18.85 8.35 Q18.9 8.05 18.15 7.45 17.4 6.85 16.3 6.35 L16.05 6.25 16.45 5.45 16.6 5.55 17.0 5.4 18.15 4.05 19.25 2.0 20.1 0.0 20.4 -1.2 Q20.3 -2.4 19.5 -3.25 L19.6 -2.45 Q19.6 -1.3 18.95 -0.25 16.5 2.7 13.15 4.5 9.8 6.25 6.0 6.85 2.25 7.4 -1.55 6.7 -5.3 6.05 -8.65 4.0 L-10.85 2.1" fill="#842824" fill-rule="evenodd" stroke="none"/>
      <path d="M-84.8 -9.8 L-84.7 -9.8 -83.5 -9.05 -79.45 -6.65 -71.85 -2.2 Q-69.65 -0.95 -66.95 0.95 L-61.2 4.8 Q-58.0 6.85 -53.95 8.7 -49.9 10.6 -44.95 12.05 -39.95 13.45 -33.85 14.0 -27.75 14.6 -20.35 13.95 -12.95 13.35 -4.1 11.2 L-4.0 11.15 -3.6 11.2 -2.85 11.2 -2.4 11.25 Q-2.95 10.65 -3.75 10.05 L-5.3 8.8 -6.45 7.5 Q-8.9 8.85 -12.25 9.8 L-19.55 11.15 -27.75 11.55 -36.45 10.85 Q-40.8 10.25 -44.9 9.05 -49.05 7.8 -52.7 5.95 L-61.6 1.2 Q-65.8 -1.15 -69.95 -3.3 -74.1 -5.45 -78.3 -7.3 -82.55 -9.2 -87.0 -10.6 L-86.3 -10.25 -84.8 -9.8" fill="#842824" fill-rule="evenodd" stroke="none"/>
      <path d="M-38.7 -11.55 L-50.45 -11.7 -61.45 -11.7 -71.2 -11.6 -79.05 -11.45 -84.5 -11.35 -84.9 -11.3 -85.95 -11.3 Q-86.85 -10.7 -85.95 -10.15 L-84.9 -9.85 -84.8 -9.85 -84.75 -9.85 -84.7 -9.8 -84.2 -9.5 -83.25 -8.95 -82.65 -8.55 -69.4 -8.65 -56.25 -8.45 -42.8 -8.25 Q-36.05 -8.15 -29.25 -8.3 L-15.6 -8.95 Q-10.75 -8.95 -8.2 -11.0 L-7.85 -10.75 -8.3 -9.95 -9.55 -7.4 Q-7.95 -9.45 -5.9 -10.95 -3.9 -12.5 -1.6 -13.2 L3.05 -13.55 Q0.9 -15.1 -1.1 -14.9 L-3.15 -14.7 -3.9 -14.6 -6.2 -13.95 -12.45 -12.8 -23.15 -11.75 Q-29.65 -11.35 -38.7 -11.55" fill="#ba3b35" fill-rule="evenodd" stroke="none"/>
      <path d="M0.9 -12.95 Q-0.05 -12.55 -0.2 -11.7 -0.4 -10.9 -0.2 -10.05 0.0 -9.15 0.3 -8.55 L0.6 -7.95 Q1.05 -8.75 1.95 -9.1 L3.8 -9.45 5.45 -9.4 6.15 -9.35 5.9 -12.7 5.2 -13.0 3.3 -13.4 0.9 -12.95" fill="#7a1b16" fill-rule="evenodd" stroke="none"/>
      <path d="M0.9 -12.95 L3.3 -13.4 5.2 -13.0 5.9 -12.7 6.15 -9.35 5.45 -9.4 3.8 -9.45 1.95 -9.1 Q1.05 -8.75 0.6 -7.95 L0.3 -8.55 Q0.0 -9.15 -0.2 -10.05 -0.4 -10.9 -0.2 -11.7 -0.05 -12.55 0.9 -12.95" fill="none" stroke="#000000" stroke-linecap="round" stroke-linejoin="round" stroke-width="1.0"/>
      <path d="M-12.1 9.9 L-12.05 10.4 -12.2 11.6 -12.65 12.95 Q-13.05 13.65 -13.75 14.1 L-13.05 14.3 -11.3 14.4 Q-10.25 14.3 -9.05 13.65 -7.85 12.95 -6.75 11.3 L-12.1 9.9" fill="#842824" fill-rule="evenodd" stroke="none"/>
      <path d="M-12.1 9.9 L-12.05 10.4 -12.2 11.6 -12.65 12.95 Q-13.05 13.65 -13.75 14.1 L-13.05 14.3 -11.3 14.4 Q-10.25 14.3 -9.05 13.65 -7.85 12.95 -6.75 11.3" fill="none" stroke="#000000" stroke-linecap="round" stroke-linejoin="round" stroke-width="1.0"/>
      <path d="M7.0 -4.45 L6.75 -4.45 6.6 -4.3 6.6 -4.05 6.7 -3.0 6.6 -2.55 Q7.1 -1.0 3.6 -1.6 2.7 -2.1 1.8 -3.0 L0.75 -4.3 0.6 -4.45 0.35 -4.4 0.25 -4.2 0.25 -4.0 1.4 -2.55 3.3 -1.05 Q4.45 -0.55 5.35 -0.5 L5.4 -0.5 Q6.45 -0.55 6.95 -1.15 7.5 -1.75 7.45 -2.8 L7.15 -4.25 7.0 -4.45" fill="#000000" fill-rule="evenodd" stroke="none"/>
      <path d="M-7.1 -10.15 Q-9.15 -7.85 -10.15 -5.8 -11.3 -3.25 -11.25 -1.0 -11.2 1.2 -10.3 3.05 -9.4 4.9 -8.1 6.35 L-5.5 8.8 -3.3 10.25 -2.4 10.8 Q-5.9 8.55 -7.75 6.25 -9.65 4.0 -10.3 1.85 -10.95 -0.35 -10.7 -2.3 -10.5 -4.25 -9.8 -5.85 L-8.2 -8.7 -7.1 -10.15" fill="#000000" fill-rule="evenodd" stroke="none"/>
      <path d="M-17.25 -8.7 L-23.15 -8.7 Q-23.6 -4.85 -23.45 -1.6 -23.3 1.55 -22.8 4.05 L-21.6 8.25 -20.55 10.85 -20.05 11.75 -15.3 10.35 Q-17.55 7.65 -18.4 4.95 -19.3 2.2 -19.25 -0.25 -19.25 -2.65 -18.75 -4.6 L-17.8 -7.6 -17.25 -8.7" fill="#ba3b35" fill-rule="evenodd" stroke="none"/>
      <path d="M-32.1 -9.0 L-38.3 -8.45 Q-39.05 -5.0 -39.05 -2.05 -39.05 0.9 -38.5 3.2 L-37.25 7.2 -36.05 9.7 -35.45 10.6 -30.15 11.15 Q-31.25 9.8 -31.85 7.8 -32.45 5.85 -32.65 3.6 L-32.8 -0.9 -32.6 -4.95 -32.25 -7.85 -32.1 -9.0" fill="#ba3b35" fill-rule="evenodd" stroke="none"/>
      <path d="M-54.8 -9.85 Q-55.05 -7.9 -54.7 -5.65 -54.4 -3.35 -53.75 -1.15 L-52.5 2.9 -51.35 5.8 -50.85 6.95 -44.15 9.45 Q-45.25 8.3 -45.95 6.6 L-47.0 2.85 -47.5 -1.2 -47.65 -4.8 -47.55 -7.45 -47.5 -8.45 -54.8 -9.85" fill="#ba3b35" fill-rule="evenodd" stroke="none"/>
      <path d="M-63.45 -8.45 L-66.25 -9.85 Q-66.9 -9.4 -67.1 -8.5 L-67.1 -6.5 -66.7 -4.35 -66.2 -2.7 -66.0 -2.0 -62.9 -0.05 Q-63.8 -1.55 -64.05 -3.05 L-64.1 -5.7 -63.75 -7.7 -63.45 -8.45" fill="#ba3b35" fill-rule="evenodd" stroke="none"/>
    </g>
  </defs>
</svg>
