<?xml version="1.0" encoding="UTF-8" standalone="no"?>
<svg xmlns:xlink="http://www.w3.org/1999/xlink" height="59.2px" width="231.1px" xmlns="http://www.w3.org/2000/svg">
  <g transform="matrix(1, 0, 0, 1, 116.45, 22.1)">
    <use height="24.1" transform="matrix(1.0, 0.0, 0.0, 1.0, -13.0, 8.0)" width="119.95" xlink:href="#text0"/>
    <use height="29.7" transform="matrix(1.0, 0.0, 0.0, 1.0, 17.65, -22.1)" width="42.45" xlink:href="#shape0"/>
  </g>
  <defs>
    <g id="shape0" transform="matrix(1, 0, 0, 1, -17.65, 22.1)">
      <path d="M28.35 -7.95 L28.1 -8.85 26.65 -10.3 25.65 -10.3 25.55 -10.15 Q24.85 -9.1 24.0 -6.15 22.85 -3.5 20.3 -3.7 L20.5 -3.7 Q20.25 -7.25 22.15 -12.15 18.0 -13.6 18.0 -18.2 18.0 -19.8 18.4 -21.0 20.6 -21.05 21.65 -18.75 L24.2 -13.75 Q23.55 -19.3 33.65 -20.15 L34.4 -20.2 Q32.9 -19.45 32.05 -17.85 32.9 -19.45 34.4 -20.2 43.45 -23.9 51.7 -18.85 L53.65 -17.45 51.95 -15.15 54.85 -14.9 56.35 -14.95 57.2 -15.05 Q60.55 -10.7 59.5 -6.45 58.25 -1.65 56.6 0.2 54.95 2.0 52.0 2.65 L49.85 3.05 49.7 3.25 Q46.55 7.1 43.75 7.1 40.25 7.1 36.75 2.9 L36.3 3.2 Q32.0 2.9 29.5 -2.0 28.15 -4.65 28.35 -7.95 28.5 -10.8 29.75 -14.05 28.5 -10.8 28.35 -7.95 M29.3 -13.9 L29.75 -14.05 Q31.3 -14.65 32.55 -14.9 L33.05 -15.0 33.2 -15.05 33.25 -15.2 33.25 -15.25 33.45 -15.35 33.45 -16.7 32.05 -17.85 31.45 -18.3 Q30.2 -19.15 29.45 -19.15 28.15 -19.2 27.8 -18.2 L26.7 -15.05 26.7 -13.3 27.85 -13.3 29.15 -13.85 29.3 -13.9 M35.45 -15.35 L35.4 -15.35 Q34.45 -15.35 33.7 -14.8 33.0 -14.35 32.45 -13.45 31.2 -11.5 31.2 -8.8 31.2 -6.1 32.45 -4.2 33.65 -2.25 35.4 -2.25 L35.45 -2.25 36.0 -2.25 36.05 -2.25 Q37.8 -2.25 39.05 -4.2 40.25 -6.1 40.25 -8.8 40.25 -11.5 39.05 -13.45 37.8 -15.35 36.05 -15.35 L36.0 -15.35 35.45 -15.35 M47.1 -12.95 Q45.85 -11.0 45.85 -8.3 45.85 -5.6 47.1 -3.7 48.3 -1.75 50.05 -1.75 51.8 -1.75 53.05 -3.7 54.25 -5.6 54.25 -8.3 54.25 -11.0 53.05 -12.95 51.8 -14.85 50.05 -14.85 48.3 -14.85 47.1 -12.95 M45.85 3.65 Q45.0 3.5 44.85 4.4 45.0 3.5 45.85 3.65 M40.75 3.55 Q41.65 3.3 42.1 4.2 41.65 3.3 40.75 3.55 M52.0 2.65 Q54.05 2.15 55.4 -1.0 56.75 -4.15 56.75 -8.0 56.75 -12.5 54.85 -14.9 56.75 -12.5 56.75 -8.0 56.75 -4.15 55.4 -1.0 54.05 2.15 52.0 2.65 M35.9 1.85 L36.75 2.9 35.9 1.85" fill="#a33128" fill-rule="evenodd" stroke="none"/>
      <path d="M29.75 -14.05 L29.3 -13.9 29.15 -13.85 27.85 -13.3 26.7 -13.3 26.7 -15.05 27.8 -18.2 Q28.15 -19.2 29.45 -19.15 30.2 -19.15 31.45 -18.3 L32.05 -17.85 33.45 -16.7 33.45 -15.35 33.25 -15.25 33.25 -15.2 33.2 -15.05 33.05 -15.0 32.55 -14.9 Q31.3 -14.65 29.75 -14.05 M53.65 -17.45 L54.85 -18.75 Q56.25 -20.05 57.3 -20.1 L57.75 -20.05 Q57.75 -18.15 57.9 -16.9 L57.9 -16.8 58.1 -15.15 57.2 -15.05 56.35 -14.95 54.85 -14.9 51.95 -15.15 53.65 -17.45" fill="#663300" fill-rule="evenodd" stroke="none"/>
      <path d="M35.45 -2.25 L35.4 -2.25 Q33.65 -2.25 32.45 -4.2 31.2 -6.1 31.2 -8.8 31.2 -11.5 32.45 -13.45 33.0 -14.35 33.7 -14.8 34.45 -15.35 35.4 -15.35 L35.45 -15.35 35.75 -15.3 Q37.25 -15.15 38.4 -13.45 39.6 -11.5 39.6 -8.8 39.6 -6.1 38.4 -4.2 37.25 -2.45 35.75 -2.25 L35.45 -2.25 M35.75 -15.3 Q34.2 -15.15 33.1 -13.45 31.85 -11.5 31.85 -8.8 31.85 -6.1 33.1 -4.2 34.2 -2.45 35.75 -2.25 34.2 -2.45 33.1 -4.2 31.85 -6.1 31.85 -8.8 31.85 -11.5 33.1 -13.45 34.2 -15.15 35.75 -15.3 M47.1 -12.95 Q48.3 -14.85 50.05 -14.85 51.8 -14.85 53.05 -12.95 54.25 -11.0 54.25 -8.3 54.25 -5.6 53.05 -3.7 51.8 -1.75 50.05 -1.75 48.3 -1.75 47.1 -3.7 45.85 -5.6 45.85 -8.3 45.85 -11.0 47.1 -12.95" fill="#cccccc" fill-rule="evenodd" stroke="none"/>
      <path d="M34.4 -20.2 L33.65 -20.15 Q23.55 -19.3 24.2 -13.75 L21.65 -18.75 Q20.6 -21.05 18.4 -21.0 18.0 -19.8 18.0 -18.2 18.0 -13.6 22.15 -12.15 20.25 -7.25 20.5 -3.7 L20.3 -3.7 Q22.85 -3.5 24.0 -6.15 24.85 -9.1 25.55 -10.15 L25.65 -10.3 26.65 -10.3 28.1 -8.85 28.35 -7.95 Q28.5 -10.8 29.75 -14.05 M29.3 -13.9 L29.15 -13.85 M32.05 -17.85 Q32.9 -19.45 34.4 -20.2 43.45 -23.9 51.7 -18.85 L53.65 -17.45 M57.2 -15.05 Q60.55 -10.7 59.5 -6.45 58.25 -1.65 56.6 0.2 54.95 2.0 52.0 2.65 L49.85 3.05 49.7 3.25 M36.3 3.2 Q32.0 2.9 29.5 -2.0 28.15 -4.65 28.35 -7.95 M54.85 -14.9 Q56.75 -12.5 56.75 -8.0 56.75 -4.15 55.4 -1.0 54.05 2.15 52.0 2.65 M42.1 4.2 Q41.65 3.3 40.75 3.55 M44.85 4.4 Q45.0 3.5 45.85 3.65" fill="none" stroke="#000000" stroke-linecap="round" stroke-linejoin="round" stroke-width="0.75"/>
      <path d="M29.75 -14.05 L29.3 -13.9 M29.15 -13.85 L27.85 -13.3 26.7 -13.3 26.7 -15.05 27.8 -18.2 Q28.15 -19.2 29.45 -19.15 30.2 -19.15 31.45 -18.3 L32.05 -17.85 M53.65 -17.45 L54.85 -18.75 Q56.25 -20.05 57.3 -20.1 L57.75 -20.05 Q57.75 -18.15 57.9 -16.9 L57.9 -16.8 58.1 -15.15 57.2 -15.05 M33.25 -15.2 L33.2 -15.05 33.05 -15.0 M32.55 -14.9 Q31.3 -14.65 29.75 -14.05 M33.25 -15.2 L33.25 -15.25 33.45 -15.35 33.45 -16.7 32.05 -17.85 M32.55 -14.9 L33.05 -15.0 M53.65 -17.45 L51.95 -15.15 54.85 -14.9 56.35 -14.95 57.2 -15.05" fill="none" stroke="#000000" stroke-linecap="round" stroke-linejoin="round" stroke-width="0.05"/>
      <path d="M49.7 3.25 Q46.55 7.1 43.75 7.1 40.25 7.1 36.75 2.9 L35.9 1.85 M36.0 -15.35 L36.05 -15.35 Q37.8 -15.35 39.05 -13.45 40.25 -11.5 40.25 -8.8 40.25 -6.1 39.05 -4.2 37.8 -2.25 36.05 -2.25 L36.0 -2.25 35.75 -2.25 Q34.2 -2.45 33.1 -4.2 31.85 -6.1 31.85 -8.8 31.85 -11.5 33.1 -13.45 34.2 -15.15 35.75 -15.3 L36.0 -15.35 M47.1 -12.95 Q45.85 -11.0 45.85 -8.3 45.85 -5.6 47.1 -3.7 48.3 -1.75 50.05 -1.75 51.8 -1.75 53.05 -3.7 54.25 -5.6 54.25 -8.3 54.25 -11.0 53.05 -12.95 51.8 -14.85 50.05 -14.85 48.3 -14.85 47.1 -12.95" fill="none" stroke="#000000" stroke-linecap="round" stroke-linejoin="round" stroke-width="1.0"/>
      <path d="M49.3 -8.75 L49.05 -8.0 Q49.05 -7.6 49.3 -7.3 49.55 -7.0 49.85 -7.0 50.15 -7.0 50.35 -7.3 L50.6 -8.0 50.35 -8.75 Q50.15 -9.05 49.85 -9.05 49.55 -9.05 49.3 -8.75" fill="#cccccc" fill-rule="evenodd" stroke="none"/>
      <path d="M49.3 -8.75 Q49.55 -9.05 49.85 -9.05 50.15 -9.05 50.35 -8.75 L50.6 -8.0 50.35 -7.3 Q50.15 -7.0 49.85 -7.0 49.55 -7.0 49.3 -7.3 49.05 -7.6 49.05 -8.0 L49.3 -8.75 M49.6 -9.2 Q48.9 -9.2 48.4 -8.55 47.9 -7.85 47.9 -6.9 47.9 -5.95 48.4 -5.3 48.9 -4.6 49.6 -4.6 50.3 -4.6 50.8 -5.3 51.3 -5.95 51.3 -6.9 L51.05 -8.1 50.8 -8.55 50.0 -9.1 49.6 -9.2" fill="#000000" fill-rule="evenodd" stroke="none"/>
      <path d="M49.6 -9.2 L50.0 -9.1 50.8 -8.55 51.05 -8.1 51.3 -6.9 Q51.3 -5.95 50.8 -5.3 50.3 -4.6 49.6 -4.6 48.9 -4.6 48.4 -5.3 47.9 -5.95 47.9 -6.9 47.9 -7.85 48.4 -8.55 48.9 -9.2 49.6 -9.2 M51.35 -9.85 Q50.7 -10.45 49.75 -10.45 48.6 -10.45 47.75 -9.45 46.95 -8.5 46.95 -7.05 46.95 -5.65 47.75 -4.65 48.6 -3.7 49.75 -3.65 50.95 -3.7 51.75 -4.65 52.55 -5.65 52.55 -7.05 52.55 -8.5 51.75 -9.45 L51.35 -9.85" fill="#666666" fill-rule="evenodd" stroke="none"/>
      <path d="M51.35 -9.85 Q50.7 -10.45 49.75 -10.45 48.6 -10.45 47.75 -9.45 46.95 -8.5 46.95 -7.05 46.95 -5.65 47.75 -4.65 48.6 -3.7 49.75 -3.65 50.95 -3.7 51.75 -4.65 52.55 -5.65 52.55 -7.05 52.55 -8.5 51.75 -9.45 L51.35 -9.85" fill="none" stroke="#000000" stroke-linecap="round" stroke-linejoin="round" stroke-width="0.05"/>
      <path d="M49.6 -9.2 Q48.9 -9.2 48.4 -8.55 47.9 -7.85 47.9 -6.9 47.9 -5.95 48.4 -5.3 48.9 -4.6 49.6 -4.6 50.3 -4.6 50.8 -5.3 51.3 -5.95 51.3 -6.9 L51.05 -8.1 50.8 -8.55 50.0 -9.1 49.6 -9.2" fill="none" stroke="#000000" stroke-linecap="round" stroke-linejoin="round" stroke-width="0.05"/>
      <path d="M35.7 -9.55 Q35.45 -9.25 35.45 -8.8 35.45 -8.4 35.7 -8.1 35.95 -7.8 36.25 -7.8 36.55 -7.8 36.75 -8.1 L37.0 -8.8 36.75 -9.55 36.25 -9.85 35.7 -9.55" fill="#cccccc" fill-rule="evenodd" stroke="none"/>
      <path d="M36.0 -10.0 Q35.3 -10.0 34.8 -9.35 34.3 -8.65 34.3 -7.7 34.3 -6.75 34.8 -6.1 35.3 -5.4 36.0 -5.4 36.7 -5.4 37.2 -6.1 37.7 -6.75 37.7 -7.7 L37.45 -8.9 37.2 -9.35 36.4 -9.9 36.0 -10.0 M35.7 -9.55 L36.25 -9.85 36.75 -9.55 37.0 -8.8 36.75 -8.1 Q36.55 -7.8 36.25 -7.8 35.95 -7.8 35.7 -8.1 35.45 -8.4 35.45 -8.8 35.45 -9.25 35.7 -9.55" fill="#000000" fill-rule="evenodd" stroke="none"/>
      <path d="M37.75 -10.65 Q37.1 -11.25 36.15 -11.25 35.0 -11.25 34.15 -10.25 33.35 -9.3 33.35 -7.85 33.35 -6.45 34.15 -5.45 35.0 -4.5 36.15 -4.45 37.35 -4.5 38.15 -5.45 38.95 -6.45 38.95 -7.85 38.95 -9.3 38.15 -10.25 L37.75 -10.65 M36.0 -10.0 L36.4 -9.9 37.2 -9.35 37.45 -8.9 37.7 -7.7 Q37.7 -6.75 37.2 -6.1 36.7 -5.4 36.0 -5.4 35.3 -5.4 34.8 -6.1 34.3 -6.75 34.3 -7.7 34.3 -8.65 34.8 -9.35 35.3 -10.0 36.0 -10.0" fill="#666666" fill-rule="evenodd" stroke="none"/>
      <path d="M37.75 -10.65 Q37.1 -11.25 36.15 -11.25 35.0 -11.25 34.15 -10.25 33.35 -9.3 33.35 -7.85 33.35 -6.45 34.15 -5.45 35.0 -4.5 36.15 -4.45 37.35 -4.5 38.15 -5.45 38.95 -6.45 38.95 -7.85 38.95 -9.3 38.15 -10.25 L37.75 -10.65" fill="none" stroke="#000000" stroke-linecap="round" stroke-linejoin="round" stroke-width="0.05"/>
      <path d="M36.0 -10.0 Q35.3 -10.0 34.8 -9.35 34.3 -8.65 34.3 -7.7 34.3 -6.75 34.8 -6.1 35.3 -5.4 36.0 -5.4 36.7 -5.4 37.2 -6.1 37.7 -6.75 37.7 -7.7 L37.45 -8.9 37.2 -9.35 36.4 -9.9 36.0 -10.0" fill="none" stroke="#000000" stroke-linecap="round" stroke-linejoin="round" stroke-width="0.05"/>
    </g>
  </defs>
</svg>
