<?xml version="1.0" encoding="UTF-8" standalone="no"?>
<svg xmlns:xlink="http://www.w3.org/1999/xlink" height="21.45px" width="21.45px" xmlns="http://www.w3.org/2000/svg">
  <g transform="matrix(1, 0, 0, 1, 0.5, 0.5)">
    <path d="M15.45 20.45 L5.0 20.45 Q0.0 20.45 0.0 15.45 L0.0 5.0 Q0.0 0.0 5.0 0.0 L15.45 0.0 Q20.45 0.0 20.45 5.0 L20.45 15.45 Q20.45 20.45 15.45 20.45" fill="#cccccc" fill-opacity="0.5019608" fill-rule="evenodd" stroke="none"/>
    <path d="M15.45 20.45 Q20.45 20.45 20.45 15.45 L20.45 5.0 Q20.45 0.0 15.45 0.0 L5.0 0.0 Q0.0 0.0 0.0 5.0 L0.0 15.45 Q0.0 20.45 5.0 20.45 L15.45 20.45" fill="none" stroke="#000000" stroke-linecap="round" stroke-linejoin="round" stroke-width="1.0"/>
  </g>
</svg>
