<?xml version="1.0" encoding="UTF-8" standalone="no"?>
<svg xmlns:xlink="http://www.w3.org/1999/xlink" height="186.85px" width="199.25px" xmlns="http://www.w3.org/2000/svg">
  <g transform="matrix(1, 0, 0, 1, -675.05, 361.25)">
    <path d="M851.55 -327.15 Q868.2 -308.05 872.95 -283.6 877.7 -259.15 865.55 -234.0 856.1 -215.9 838.25 -202.15 820.45 -188.4 798.35 -181.0 776.25 -173.6 754.0 -174.5 738.65 -175.2 724.85 -180.75 711.1 -186.3 700.4 -197.4 672.65 -228.15 675.25 -262.3 677.8 -296.45 701.75 -323.35 725.7 -350.25 762.15 -359.3 787.65 -364.65 811.25 -355.45 834.85 -346.3 851.55 -327.15" fill="#ffffff" fill-rule="evenodd" stroke="none"/>
    <path d="M815.5 -320.85 Q807.8 -328.05 798.75 -334.05 789.7 -340.0 779.4 -342.65 772.3 -344.25 763.8 -344.2 L748.1 -343.35 Q743.0 -342.55 738.35 -340.2 733.75 -337.8 728.65 -337.0 L721.45 -337.55 Q717.9 -338.2 714.35 -335.55 735.05 -352.8 762.15 -359.3 787.65 -364.65 811.25 -355.45 834.85 -346.3 851.55 -327.15 868.2 -308.05 872.95 -283.6 877.7 -259.15 865.55 -234.0 857.75 -218.95 843.95 -206.85 846.0 -209.6 846.65 -217.8 847.25 -226.0 848.4 -230.35 851.7 -238.8 853.5 -247.75 855.0 -260.7 851.6 -273.45 849.4 -286.3 842.15 -297.55 839.3 -301.6 835.6 -303.45 831.9 -305.25 828.05 -307.9 821.6 -314.05 815.5 -320.85" fill="#d7d7dd" fill-rule="evenodd" stroke="none"/>
    <path d="M741.7 -228.95 Q741.4 -221.0 733.9 -215.75 726.4 -210.5 715.1 -210.3 703.8 -210.5 696.3 -215.75 688.8 -221.0 688.5 -228.95 688.8 -236.9 696.3 -242.2 703.8 -247.45 715.1 -247.65 726.4 -247.45 733.9 -242.2 741.4 -236.9 741.7 -228.95" fill="none" stroke="#d7d7dd" stroke-linecap="round" stroke-linejoin="round" stroke-width="1.0"/>
    <path d="M792.5 -310.15 Q781.95 -317.5 771.25 -315.65 760.6 -313.75 753.65 -305.25 746.75 -296.75 747.4 -284.25 748.8 -274.4 756.0 -270.5 763.15 -266.6 769.5 -260.35 774.4 -253.6 776.85 -246.1 779.3 -238.55 785.55 -232.95 799.95 -221.3 811.9 -235.85 817.2 -242.95 819.2 -252.25 821.2 -261.5 821.45 -270.25 821.7 -277.0 819.15 -280.8 816.6 -284.6 811.9 -288.9 807.15 -293.85 802.4 -300.0 797.6 -306.1 792.5 -310.15" fill="none" stroke="#d7d7dd" stroke-linecap="round" stroke-linejoin="round" stroke-width="1.0"/>
  </g>
</svg>
