<?xml version="1.0" encoding="UTF-8" standalone="no"?>
<svg xmlns:xlink="http://www.w3.org/1999/xlink" height="375.8px" width="1905.65px" xmlns="http://www.w3.org/2000/svg">
  <g transform="matrix(1, 0, 0, 1, 952.8, 187.9)">
    <path d="M550.3 5.1 L522.45 5.1 522.45 -35.65 550.3 -35.65 550.3 5.1" fill="#ffffff" fill-rule="evenodd" stroke="none"/>
    <path d="M525.65 53.3 L497.8 53.3 497.8 12.55 525.65 12.55 525.65 53.3" fill="#ffffff" fill-rule="evenodd" stroke="none"/>
    <path d="M347.7 150.65 L319.85 150.65 319.85 109.9 347.7 109.9 347.7 150.65" fill="#ffffff" fill-rule="evenodd" stroke="none"/>
    <path d="M386.3 150.65 L358.45 150.65 358.45 109.9 386.3 109.9 386.3 150.65" fill="#ffffff" fill-rule="evenodd" stroke="none"/>
    <path d="M347.7 93.2 L319.85 93.2 319.85 52.45 347.7 52.45 347.7 93.2" fill="#ffffff" fill-rule="evenodd" stroke="none"/>
    <path d="M386.3 93.2 L358.45 93.2 358.45 52.45 386.3 52.45 386.3 93.2" fill="#ffffff" fill-rule="evenodd" stroke="none"/>
    <path d="M347.7 34.35 L319.85 34.35 319.85 -6.4 347.7 -6.4 347.7 34.35" fill="#ffffff" fill-rule="evenodd" stroke="none"/>
    <path d="M386.3 34.35 L358.45 34.35 358.45 -6.4 386.3 -6.4 386.3 34.35" fill="#ffffff" fill-rule="evenodd" stroke="none"/>
    <path d="M165.5 36.15 L137.65 36.15 137.65 -4.6 165.5 -4.6 165.5 36.15" fill="#ffffff" fill-rule="evenodd" stroke="none"/>
    <path d="M165.5 88.15 L137.65 88.15 137.65 47.4 165.5 47.4 165.5 88.15" fill="#ffffff" fill-rule="evenodd" stroke="none"/>
    <path d="M-429.9 94.05 L-457.75 94.05 -457.75 53.3 -429.9 53.3 -429.9 94.05" fill="#ffffff" fill-rule="evenodd" stroke="none"/>
    <path d="M-429.9 149.75 L-457.75 149.75 -457.75 109.0 -429.9 109.0 -429.9 149.75" fill="#ffffff" fill-rule="evenodd" stroke="none"/>
    <path d="M-389.05 149.75 L-416.9 149.75 -416.9 109.0 -389.05 109.0 -389.05 149.75" fill="#ffffff" fill-rule="evenodd" stroke="none"/>
    <path d="M-250.35 94.05 L-278.2 94.05 -278.2 53.3 -250.35 53.3 -250.35 94.05" fill="#ffffff" fill-rule="evenodd" stroke="none"/>
    <path d="M-295.35 94.05 L-323.2 94.05 -323.2 53.3 -295.35 53.3 -295.35 94.05" fill="#ffffff" fill-rule="evenodd" stroke="none"/>
    <path d="M-207.5 147.65 L-235.35 147.65 -235.35 106.9 -207.5 106.9 -207.5 147.65" fill="#ffffff" fill-rule="evenodd" stroke="none"/>
    <path d="M-65.0 -5.25 L-81.7 -5.25 -81.7 -29.65 -65.0 -29.65 -65.0 -5.25" fill="#ffffff" fill-rule="evenodd" stroke="none"/>
    <path d="M-65.0 35.45 L-81.7 35.45 -81.7 11.05 -65.0 11.05 -65.0 35.45" fill="#ffffff" fill-rule="evenodd" stroke="none"/>
    <path d="M217.3 161.8 L200.6 161.8 200.6 137.4 217.3 137.4 217.3 161.8" fill="#ffffff" fill-rule="evenodd" stroke="none"/>
    <path d="M187.3 161.8 L170.6 161.8 170.6 137.4 187.3 137.4 187.3 161.8" fill="#ffffff" fill-rule="evenodd" stroke="none"/>
    <path d="M153.3 161.8 L136.6 161.8 136.6 137.4 153.3 137.4 153.3 161.8" fill="#ffffff" fill-rule="evenodd" stroke="none"/>
    <path d="M41.3 83.8 L24.6 83.8 24.6 59.4 41.3 59.4 41.3 83.8" fill="#ffffff" fill-rule="evenodd" stroke="none"/>
    <path d="M41.3 121.8 L24.6 121.8 24.6 97.4 41.3 97.4 41.3 121.8" fill="#ffffff" fill-rule="evenodd" stroke="none"/>
    <path d="M71.3 121.8 L54.6 121.8 54.6 97.4 71.3 97.4 71.3 121.8" fill="#ffffff" fill-rule="evenodd" stroke="none"/>
    <path d="M-88.6 35.45 L-105.3 35.45 -105.3 11.05 -88.6 11.05 -88.6 35.45" fill="#ffffff" fill-rule="evenodd" stroke="none"/>
    <path d="M-65.0 69.8 L-81.7 69.8 -81.7 45.4 -65.0 45.4 -65.0 69.8" fill="#ffffff" fill-rule="evenodd" stroke="none"/>
    <path d="M-88.6 69.8 L-105.3 69.8 -105.3 45.4 -88.6 45.4 -88.6 69.8" fill="#ffffff" fill-rule="evenodd" stroke="none"/>
    <path d="M697.15 49.0 L669.3 49.0 669.3 8.25 697.15 8.25 697.15 49.0" fill="#ffffff" fill-rule="evenodd" stroke="none"/>
    <path d="M657.65 -147.15 L629.8 -147.15 629.8 -187.9 657.65 -187.9 657.65 -147.15" fill="#dddf00" fill-rule="evenodd" stroke="none"/>
    <path d="M657.65 -94.9 L629.8 -94.9 629.8 -135.65 657.65 -135.65 657.65 -94.9" fill="#dddf00" fill-rule="evenodd" stroke="none"/>
    <path d="M691.35 -147.15 L663.5 -147.15 663.5 -187.9 691.35 -187.9 691.35 -147.15" fill="#dddf00" fill-rule="evenodd" stroke="none"/>
    <path d="M691.35 -94.9 L663.5 -94.9 663.5 -135.65 691.35 -135.65 691.35 -94.9" fill="#dddf00" fill-rule="evenodd" stroke="none"/>
    <path d="M697.15 102.6 L669.3 102.6 669.3 61.85 697.15 61.85 697.15 102.6" fill="#ffffff" fill-rule="evenodd" stroke="none"/>
    <path d="M737.85 102.6 L710.0 102.6 710.0 61.85 737.85 61.85 737.85 102.6" fill="#ffffff" fill-rule="evenodd" stroke="none"/>
    <path d="M841.55 39.75 L813.7 39.75 813.7 -1.0 841.55 -1.0 841.55 39.75" fill="#ffffff" fill-rule="evenodd" stroke="none"/>
    <path d="M841.55 93.2 L813.7 93.2 813.7 52.45 841.55 52.45 841.55 93.2" fill="#ffffff" fill-rule="evenodd" stroke="none"/>
    <path d="M890.0 93.2 L862.15 93.2 862.15 52.45 890.0 52.45 890.0 93.2" fill="#ffffff" fill-rule="evenodd" stroke="none"/>
    <path d="M952.85 8.35 L925.0 8.35 925.0 -32.4 952.85 -32.4 952.85 8.35" fill="#ffffff" fill-rule="evenodd" stroke="none"/>
    <path d="M952.85 -98.15 L925.0 -98.15 925.0 -138.9 952.85 -138.9 952.85 -98.15" fill="#ffffff" fill-rule="evenodd" stroke="none"/>
    <path d="M840.85 -98.15 L813.0 -98.15 813.0 -138.9 840.85 -138.9 840.85 -98.15" fill="#ffffff" fill-rule="evenodd" stroke="none"/>
    <path d="M-850.05 -4.55 L-896.2 -4.55 -896.2 -69.85 -850.05 -69.85 -850.05 -4.55" fill="#ffffff" fill-rule="evenodd" stroke="none"/>
    <path d="M-748.75 -133.5 L-748.75 -81.65 -785.4 -81.65 -785.4 -133.5 -748.75 -133.5" fill="#dddf00" fill-rule="evenodd" stroke="none"/>
    <path d="M-689.8 -133.5 L-689.8 -81.65 -726.45 -81.65 -726.45 -133.5 -689.8 -133.5" fill="#dddf00" fill-rule="evenodd" stroke="none"/>
    <path d="M-748.75 -59.7 L-748.75 -7.85 -785.4 -7.85 -785.4 -59.7 -748.75 -59.7" fill="#dddf00" fill-rule="evenodd" stroke="none"/>
    <path d="M-850.05 73.85 L-896.2 73.85 -896.2 8.55 -850.05 8.55 -850.05 73.85" fill="#ffffff" fill-rule="evenodd" stroke="none"/>
    <path d="M-906.65 73.85 L-952.8 73.85 -952.8 8.55 -906.65 8.55 -906.65 73.85" fill="#ffffff" fill-rule="evenodd" stroke="none"/>
    <path d="M-747.25 73.85 L-747.25 126.95 -760.3 126.95 -760.3 73.85 -747.25 73.85" fill="#ffffff" fill-rule="evenodd" stroke="none"/>
    <path d="M-729.0 73.85 L-729.0 126.95 -742.05 126.95 -742.05 73.85 -729.0 73.85" fill="#ffffff" fill-rule="evenodd" stroke="none"/>
    <path d="M-747.25 134.8 L-747.25 187.9 -760.3 187.9 -760.3 134.8 -747.25 134.8" fill="#ffffff" fill-rule="evenodd" stroke="none"/>
    <path d="M-729.0 134.8 L-729.0 187.9 -742.05 187.9 -742.05 134.8 -729.0 134.8" fill="#ffffff" fill-rule="evenodd" stroke="none"/>
    <path d="M-776.0 158.35 L-821.3 158.35 -821.3 144.4 -776.0 144.4 -776.0 158.35" fill="#ffffff" fill-rule="evenodd" stroke="none"/>
    <path d="M-776.0 179.25 L-821.3 179.25 -821.3 165.3 -776.0 165.3 -776.0 179.25" fill="#ffffff" fill-rule="evenodd" stroke="none"/>
    <path d="M-548.45 65.15 L-577.1 65.15 -577.1 55.55 -548.45 55.55 -548.45 65.15" fill="#ffffff" fill-rule="evenodd" stroke="none"/>
    <path d="M-548.45 80.55 L-577.1 80.55 -577.1 70.95 -548.45 70.95 -548.45 80.55" fill="#ffffff" fill-rule="evenodd" stroke="none"/>
    <path d="M-548.45 95.5 L-577.1 95.5 -577.1 85.9 -548.45 85.9 -548.45 95.5" fill="#ffffff" fill-rule="evenodd" stroke="none"/>
    <path d="M-568.05 -15.1 L-580.65 -15.1 -580.65 -41.3 -568.05 -41.3 -568.05 -15.1" fill="#dddf00" fill-rule="evenodd" stroke="none"/>
    <path d="M-568.05 15.3 L-580.65 15.3 -580.65 -10.9 -568.05 -10.9 -568.05 15.3" fill="#dddf00" fill-rule="evenodd" stroke="none"/>
    <path d="M-551.8 15.3 L-564.4 15.3 -564.4 -10.9 -551.8 -10.9 -551.8 15.3" fill="#dddf00" fill-rule="evenodd" stroke="none"/>
    <path d="M-400.55 15.5 L-410.6 15.5 -410.6 -3.9 -400.55 -3.9 -400.55 15.5" fill="#ffffff" fill-rule="evenodd" stroke="none"/>
    <path d="M-385.45 15.5 L-395.5 15.5 -395.5 -3.9 -385.45 -3.9 -385.45 15.5" fill="#ffffff" fill-rule="evenodd" stroke="none"/>
    <path d="M-177.7 7.6 L-272.6 7.6 -272.6 -6.05 -177.7 -6.05 -177.7 7.6" fill="#ffffff" fill-rule="evenodd" stroke="none"/>
    <path d="M-3.75 75.15 L-20.3 75.15 -20.3 54.3 -3.75 54.3 -3.75 75.15" fill="#ffffff" fill-rule="evenodd" stroke="none"/>
    <path d="M-26.75 75.15 L-43.3 75.15 -43.3 54.3 -26.75 54.3 -26.75 75.15" fill="#ffffff" fill-rule="evenodd" stroke="none"/>
  </g>
</svg>
