<?xml version="1.0" encoding="UTF-8" standalone="no"?>
<svg xmlns:xlink="http://www.w3.org/1999/xlink" height="49.25px" width="68.6px" xmlns="http://www.w3.org/2000/svg">
  <g transform="matrix(1, 0, 0, 1, 34.45, 24.85)">
    <path d="M-12.85 14.75 L11.3 14.75 11.0 18.1 -1.05 20.9 -12.35 17.75 -12.85 14.75" fill="#002adf" fill-rule="evenodd" stroke="none"/>
    <path d="M-12.85 14.75 L-12.35 17.75 -1.05 20.9 11.0 18.1 11.3 14.75 -12.85 14.75" fill="none" stroke="#000000" stroke-linecap="round" stroke-linejoin="round" stroke-width="1.4"/>
    <path d="M16.85 -4.75 Q17.3 -4.5 17.1 -3.75 16.8 -3.05 16.25 -3.15 L-3.0 -10.25 Q-3.45 -10.5 -3.25 -11.2 -2.95 -11.95 -2.4 -11.85 L16.85 -4.75" fill="#c4c4bf" fill-rule="evenodd" stroke="none"/>
    <path d="M16.85 -4.75 Q17.3 -4.5 17.1 -3.75 16.8 -3.05 16.25 -3.15 L-3.0 -10.25 Q-3.45 -10.5 -3.25 -11.2 -2.95 -11.95 -2.4 -11.85 L16.85 -4.75" fill="none" stroke="#adadaa" stroke-linecap="round" stroke-linejoin="round" stroke-width="1.4"/>
    <path d="M-16.75 -21.65 Q-13.75 -22.3 -12.1 -20.3 -11.55 -18.45 -12.5 -13.15 -13.4 -7.85 -11.05 -3.5 -8.65 0.85 1.75 -0.1 2.1 0.0 2.35 2.15 2.7 4.35 -1.25 7.4 -1.8 7.55 -7.8 5.45 -13.75 3.35 -18.5 -2.75 -23.3 -8.9 -20.1 -20.8 L-16.75 -21.65" fill="#ffa81f" fill-rule="evenodd" stroke="none"/>
    <path d="M-16.75 -21.65 Q-13.75 -22.3 -12.1 -20.3 -11.55 -18.45 -12.5 -13.15 -13.4 -7.85 -11.05 -3.5 -8.65 0.85 1.75 -0.1 2.1 0.0 2.35 2.15 2.7 4.35 -1.25 7.4 -1.8 7.55 -7.8 5.45 -13.75 3.35 -18.5 -2.75 -23.3 -8.9 -20.1 -20.8 L-16.75 -21.65" fill="none" stroke="#000000" stroke-linecap="round" stroke-linejoin="round" stroke-width="1.4"/>
    <path d="M33.2 -19.9 L33.45 -15.75 Q33.1 -1.5 23.6 8.05 14.1 17.5 -0.15 17.85 -14.45 17.5 -23.9 8.05 -33.4 -1.5 -33.75 -15.75 -33.75 -20.15 -32.7 -24.15 L-19.9 -24.15 Q-21.15 -16.15 -17.0 -10.6 -12.8 -5.05 -5.85 -2.55 -5.35 0.3 -4.05 2.65 -2.7 4.95 -0.75 5.7 4.1 7.15 7.0 4.8 9.85 2.45 11.3 -1.85 16.65 -3.9 20.0 -8.7 23.4 -13.55 24.55 -19.9 L33.2 -19.9" fill="#df0028" fill-rule="evenodd" stroke="none"/>
    <path d="M33.2 -19.9 L24.55 -19.9 Q23.4 -13.55 20.0 -8.7 16.65 -3.9 11.3 -1.85 9.85 2.45 7.0 4.8 4.1 7.15 -0.75 5.7 -2.7 4.95 -4.05 2.65 -5.35 0.3 -5.85 -2.55 -12.8 -5.05 -17.0 -10.6 -21.15 -16.15 -19.9 -24.15 L-32.7 -24.15 Q-33.75 -20.15 -33.75 -15.75 -33.4 -1.5 -23.9 8.05 -14.45 17.5 -0.15 17.85 14.1 17.5 23.6 8.05 33.1 -1.5 33.45 -15.75 L33.2 -19.9" fill="none" stroke="#000000" stroke-linecap="round" stroke-linejoin="round" stroke-width="1.4"/>
    <path d="M1.75 20.85 Q1.5 23.5 -1.1 23.7 -3.7 23.45 -3.9 20.85 -3.7 18.25 -1.1 18.05 1.55 18.25 1.75 20.85" fill="#df0028" fill-rule="evenodd" stroke="none"/>
    <path d="M1.75 20.85 Q1.5 23.5 -1.1 23.7 -3.7 23.45 -3.9 20.85 -3.7 18.25 -1.1 18.05 1.55 18.25 1.75 20.85" fill="none" stroke="#000000" stroke-linecap="round" stroke-linejoin="round" stroke-width="1.4"/>
    <path d="M-21.5 -23.3 L-30.05 -21.35 Q-31.25 -9.6 -26.2 -1.3 -21.1 6.95 -15.45 11.3 L-9.65 15.55 Q-24.15 9.25 -28.75 0.25 -33.35 -8.9 -32.9 -16.0 -32.45 -23.15 -32.0 -23.55 L-21.5 -23.3" fill="#f495a9" fill-rule="evenodd" stroke="none"/>
    <path d="M32.65 -18.9 L26.8 -17.4 Q26.05 -12.4 22.75 -8.45 19.45 -4.45 16.3 -2.2 13.15 0.1 12.9 0.15 10.8 4.15 8.4 5.25 L5.9 6.3 Q8.95 5.0 10.5 2.15 L12.0 -1.05 Q20.05 -5.25 22.8 -11.7 25.6 -18.2 25.4 -18.9 L32.65 -18.9" fill="#f495a9" fill-rule="evenodd" stroke="none"/>
    <path d="M-13.45 -7.85 Q-17.65 -11.95 -18.6 -15.85 -19.6 -19.8 -19.4 -20.1 -14.45 -21.75 -13.4 -20.45 -12.4 -19.15 -12.6 -18.8 -14.55 -20.75 -16.0 -20.35 L-17.55 -19.7 Q-19.2 -17.55 -16.6 -12.95 L-13.45 -7.85" fill="#fcdb54" fill-rule="evenodd" stroke="none"/>
    <path d="M1.4 0.7 Q0.9 1.3 -0.75 1.5 L-2.6 1.65 Q-2.45 2.9 -1.25 4.0 L0.1 5.15 Q-1.45 4.75 -2.75 2.85 L-4.1 0.7 -1.0 0.8 1.4 0.7" fill="#fcdb54" fill-rule="evenodd" stroke="none"/>
  </g>
</svg>
