<?xml version="1.0" encoding="UTF-8" standalone="no"?>
<svg xmlns:xlink="http://www.w3.org/1999/xlink" height="812.5px" width="851.1px" xmlns="http://www.w3.org/2000/svg">
  <g transform="matrix(1, 0, 0, 1, 210.55, 122.15)">
    <path d="M555.7 567.55 L555.7 585.8 -129.25 585.8 -129.25 567.55 555.7 567.55" fill="#dfd000" fill-rule="evenodd" stroke="none"/>
    <path d="M555.7 567.55 L-129.25 567.55 -129.25 585.8 555.7 585.8 555.7 567.55" fill="none" stroke="#000000" stroke-linecap="round" stroke-linejoin="round" stroke-width="6.0"/>
    <path d="M485.65 415.35 L485.65 433.6 -50.1 433.6 -50.1 415.35 485.65 415.35" fill="#dfd000" fill-rule="evenodd" stroke="none"/>
    <path d="M485.65 415.35 L-50.1 415.35 -50.1 433.6 485.65 433.6 485.65 415.35" fill="none" stroke="#000000" stroke-linecap="round" stroke-linejoin="round" stroke-width="6.0"/>
    <path d="M-207.6 687.4 L230.65 -106.35 637.6 681.7 613.0 681.7 231.0 -62.9 -189.7 687.4 -207.6 687.4" fill="#dfd000" fill-rule="evenodd" stroke="none"/>
    <path d="M-207.6 687.4 L230.65 -106.35 637.6 681.7 613.0 681.7 231.0 -62.9 -189.7 687.4 -207.6 687.4" fill="none" stroke="#000000" stroke-linecap="round" stroke-linejoin="round" stroke-width="5.95"/>
    <path d="M251.85 -111.25 Q259.45 -103.65 259.75 -92.15 259.45 -80.7 251.85 -73.05 244.2 -65.45 232.75 -65.15 221.25 -65.45 213.65 -73.05 206.0 -80.7 205.75 -92.15 206.05 -103.65 213.65 -111.25 221.25 -118.9 232.75 -119.15 244.2 -118.85 251.85 -111.25" fill="#bf0022" fill-rule="evenodd" stroke="none"/>
    <path d="M251.85 -111.25 Q259.45 -103.65 259.75 -92.15 259.45 -80.7 251.85 -73.05 244.2 -65.45 232.75 -65.15 221.25 -65.45 213.65 -73.05 206.0 -80.7 205.75 -92.15 206.05 -103.65 213.65 -111.25 221.25 -118.9 232.75 -119.15 244.2 -118.85 251.85 -111.25" fill="none" stroke="#000000" stroke-linecap="round" stroke-linejoin="round" stroke-width="6.0"/>
  </g>
</svg>
