<?xml version="1.0" encoding="UTF-8" standalone="no"?>
<svg xmlns:xlink="http://www.w3.org/1999/xlink" height="124.9px" width="80.25px" xmlns="http://www.w3.org/2000/svg">
  <g transform="matrix(1, 0, 0, 1, 63.35, 79.35)">
    <use height="112.6" transform="matrix(1.0, 0.0, 0.0, 1.0, -63.35, -67.15)" width="79.5" xlink:href="#shape0"/>
  </g>
  <defs>
    <g id="shape0" transform="matrix(1, 0, 0, 1, 63.35, 67.15)">
      <path d="M-43.55 31.1 Q-44.7 32.2 -46.75 32.75 L-51.0 33.4 -54.75 33.45 -56.35 33.35 Q-57.85 33.05 -58.15 32.6 -58.5 32.1 -58.25 31.7 L-58.0 31.3 -55.05 30.9 -52.55 29.75 -50.8 28.55 -50.15 28.0 -43.55 31.1" fill="#333333" fill-rule="evenodd" stroke="none"/>
      <path d="M-50.15 28.0 L-50.8 28.55 -52.55 29.75 -55.05 30.9 -58.0 31.3 -58.25 31.7 Q-58.5 32.1 -58.15 32.6 -57.85 33.05 -56.35 33.35 L-54.75 33.45 -51.0 33.4 -46.75 32.75 Q-44.7 32.2 -43.55 31.1" fill="none" stroke="#000000" stroke-linecap="round" stroke-linejoin="round" stroke-width="2.0"/>
      <path d="M1.2 -42.75 Q1.0 -40.7 1.8 -37.3 2.5 -33.95 3.9 -29.8 L6.9 -21.4 10.1 -13.35 12.8 -6.75 Q14.25 -3.25 14.85 0.6 15.4 4.4 15.0 8.4 14.5 12.7 12.95 16.65 11.35 20.55 8.85 23.95 7.7 26.1 5.8 28.3 L1.75 32.4 -2.3 35.8 -5.5 38.15 -6.75 39.0 -6.2 39.8 -5.1 41.4 -4.0 42.95 Q-3.65 43.55 -3.85 43.85 -4.05 44.2 -4.45 44.3 -4.85 44.4 -4.85 44.45 -9.2 44.4 -12.05 43.55 -14.9 42.7 -16.55 41.5 L-18.9 39.4 Q-23.0 39.8 -27.25 39.5 -35.3 38.7 -42.0 35.5 -48.7 32.25 -53.5 27.1 -58.3 21.95 -60.6 15.5 -62.9 9.05 -62.2 1.9 -61.35 -5.55 -57.5 -11.6 -56.1 -13.85 -54.7 -17.3 -53.25 -20.8 -51.95 -24.85 -50.65 -28.95 -49.5 -33.1 L-47.65 -40.75 -46.65 -46.75 Q-46.15 -51.25 -43.9 -54.9 -41.65 -58.6 -38.05 -61.2 -34.45 -63.85 -29.95 -65.15 -25.5 -66.45 -20.45 -66.05 -15.5 -65.6 -11.3 -63.6 -7.15 -61.55 -4.2 -58.35 -1.25 -55.15 0.2 -51.15 1.65 -47.2 1.2 -42.75" fill="#666666" fill-rule="evenodd" stroke="none"/>
      <path d="M1.2 -42.75 Q1.65 -47.2 0.2 -51.15 -1.25 -55.15 -4.2 -58.35 -7.15 -61.55 -11.3 -63.6 -15.5 -65.6 -20.45 -66.05 -25.5 -66.45 -29.95 -65.15 -34.45 -63.85 -38.05 -61.2 -41.65 -58.6 -43.9 -54.9 -46.15 -51.25 -46.65 -46.75 L-47.65 -40.75 -49.5 -33.1 Q-50.65 -28.95 -51.95 -24.85 -53.25 -20.8 -54.7 -17.3 -56.1 -13.85 -57.5 -11.6 -61.35 -5.55 -62.2 1.9 -62.9 9.05 -60.6 15.5 -58.3 21.95 -53.5 27.1 -48.7 32.25 -42.0 35.5 -35.3 38.7 -27.25 39.5 -23.0 39.8 -18.9 39.4 L-16.55 41.5 Q-14.9 42.7 -12.05 43.55 -9.2 44.4 -4.85 44.45 -4.85 44.4 -4.45 44.3 -4.05 44.2 -3.85 43.85 -3.65 43.55 -4.0 42.95 L-5.1 41.4 -6.2 39.8 -6.75 39.0 -5.5 38.15 -2.3 35.8 1.75 32.4 5.8 28.3 Q7.7 26.1 8.85 23.95 11.35 20.55 12.95 16.65 14.5 12.7 15.0 8.4 15.4 4.4 14.85 0.6 14.25 -3.25 12.8 -6.75 L10.1 -13.35 6.9 -21.4 3.9 -29.8 Q2.5 -33.95 1.8 -37.3 1.0 -40.7 1.2 -42.75" fill="none" stroke="#000000" stroke-linecap="round" stroke-linejoin="round" stroke-width="2.0"/>
      <path d="M-36.4 -57.8 Q-38.4 -54.3 -38.8 -50.3 L-39.05 -47.7 -39.7 -41.3 Q-40.1 -38.1 -40.75 -35.4 L-41.6 -32.4 -42.7 -28.1 Q-43.2 -26.05 -43.2 -24.05 L-43.05 -22.55 Q-44.5 -23.2 -45.65 -22.85 -46.5 -22.55 -47.05 -21.75 L-47.95 -20.0 -48.55 -18.05 -48.85 -17.15 Q-49.65 -14.7 -50.6 -12.4 L-52.25 -7.85 Q-53.05 -5.55 -53.35 -3.05 -54.0 3.9 -51.85 10.2 -49.65 16.45 -45.15 21.5 -40.7 26.5 -34.4 29.65 -28.15 32.8 -20.6 33.55 -12.25 34.25 -5.1 32.0 2.05 29.75 7.7 24.7 6.05 27.25 3.65 29.65 L-1.25 34.1 -5.4 37.25 -7.15 38.5 -7.7 38.85 -7.5 39.1 -5.25 42.4 -4.45 43.4 -4.55 43.35 -4.45 43.6 -4.9 43.8 Q-9.0 43.75 -11.7 42.95 -14.45 42.15 -16.0 41.05 L-18.3 39.0 -18.55 38.7 -18.95 38.75 Q-23.1 39.2 -27.15 38.85 -35.05 38.15 -41.6 34.95 -48.2 31.75 -52.85 26.7 -57.6 21.65 -59.85 15.35 -62.15 9.0 -61.45 2.0 -60.7 -5.1 -56.8 -11.3 -55.45 -13.5 -54.0 -16.95 -52.6 -20.45 -51.25 -24.55 -49.95 -28.65 -48.8 -32.8 -47.7 -37.0 -46.95 -40.55 -46.2 -44.2 -45.9 -46.7 -45.5 -50.65 -43.55 -54.0 -41.6 -57.4 -38.45 -59.95 -35.35 -62.5 -31.25 -63.95 -34.5 -61.3 -36.4 -57.8" fill="#333333" fill-rule="evenodd" stroke="none"/>
      <path d="M0.4 -41.1 Q0.4 -38.95 1.15 -35.8 1.9 -32.7 3.15 -29.0 L5.8 -21.5 8.7 -14.15 11.3 -7.85 11.7 -6.85 Q13.95 -1.35 14.0 4.55 L13.8 7.75 12.95 12.35 Q10.5 17.6 6.5 21.55 2.45 25.45 -2.6 27.65 -7.7 29.8 -13.45 30.0 -19.0 30.1 -24.15 28.35 -29.3 26.5 -33.6 22.95 -37.05 20.05 -39.5 16.4 -41.95 12.75 -43.35 8.55 -44.7 4.3 -44.85 -0.2 L-44.9 -1.35 Q-44.9 -7.3 -42.75 -12.75 -42.0 -14.8 -41.3 -17.8 L-40.05 -24.35 -39.1 -31.55 -38.5 -38.5 -38.25 -44.25 -38.3 -45.65 -38.3 -46.35 Q-38.35 -49.2 -37.6 -51.9 -36.9 -54.6 -35.1 -56.75 -33.35 -58.85 -30.25 -59.85 L-28.05 -60.45 -25.55 -60.9 -21.8 -60.75 Q-19.85 -60.5 -18.25 -59.7 -16.65 -58.85 -15.8 -57.55 -16.15 -58.25 -15.25 -59.2 -14.4 -60.1 -12.75 -60.65 L-9.35 -60.75 -6.85 -59.3 -4.75 -57.1 -3.05 -54.9 Q-1.1 -51.05 -0.95 -46.7 -0.9 -44.75 0.4 -41.1" fill="#cccccc" fill-rule="evenodd" stroke="none"/>
      <path d="M0.35 -41.1 Q0.4 -38.95 1.15 -35.8 1.9 -32.7 3.15 -29.0 L5.8 -21.5 8.7 -14.15 11.25 -7.85 11.7 -6.85 Q14.0 -1.35 14.0 4.55 L13.8 7.75 12.95 12.35 Q10.15 18.3 5.5 22.5 0.75 26.65 -5.2 28.6 0.35 26.2 4.55 21.8 8.7 17.4 11.0 11.35 L11.6 6.6 11.55 3.3 Q11.2 -2.75 8.6 -8.3 L8.15 -9.35 5.15 -15.7 1.85 -23.1 -1.3 -30.75 Q-2.8 -34.5 -3.7 -37.7 -4.65 -40.9 -4.8 -43.1 -6.25 -46.8 -6.45 -48.8 -6.9 -53.3 -9.05 -57.15 L-10.5 -58.9 -12.3 -60.8 -9.35 -60.75 Q-8.05 -60.35 -6.9 -59.3 L-4.7 -57.1 -3.05 -54.9 Q-1.1 -51.05 -0.95 -46.7 -0.9 -44.75 0.35 -41.1" fill="#e5e5e5" fill-rule="evenodd" stroke="none"/>
      <path d="M-35.95 -55.55 Q-34.6 -57.55 -32.35 -58.85 -34.25 -56.7 -34.95 -53.95 -35.7 -51.2 -35.7 -48.35 L-35.65 -47.7 -35.65 -46.25 -35.85 -40.5 -36.45 -33.55 -37.4 -26.35 -38.65 -19.8 -40.15 -14.75 Q-42.25 -9.3 -42.25 -3.35 L-42.25 -2.2 Q-42.1 2.3 -40.7 6.5 -39.35 10.75 -36.85 14.4 -34.4 18.05 -31.0 20.95 -26.7 24.5 -21.5 26.35 -16.35 28.15 -10.85 28.0 -6.3 27.85 -2.1 26.45 2.05 25.0 5.65 22.45 1.7 26.0 -3.15 28.0 -8.05 29.95 -13.45 30.15 -19.0 30.25 -24.15 28.45 -29.3 26.65 -33.6 23.1 -37.05 20.2 -39.5 16.55 -41.95 12.85 -43.35 8.65 -44.7 4.45 -44.85 -0.05 L-44.9 -1.2 Q-44.9 -7.15 -42.75 -12.6 -42.0 -14.65 -41.3 -17.65 L-40.05 -24.2 -39.1 -31.4 -38.5 -38.35 -38.25 -44.1 -38.3 -45.55 -38.3 -46.25 Q-38.3 -48.7 -37.8 -51.1 -37.25 -53.5 -35.95 -55.55" fill="#b4b4b4" fill-rule="evenodd" stroke="none"/>
      <path d="M-8.35 -31.65 L-8.6 -30.5 -9.4 -27.85 Q-9.95 -26.25 -10.85 -24.6 -11.7 -23.0 -12.9 -21.8 -14.1 -20.65 -15.7 -20.4 -17.3 -20.3 -19.0 -21.25 -20.75 -22.25 -22.45 -23.75 L-25.4 -26.85 -27.6 -29.5 -28.4 -30.6 -8.35 -31.65" fill="#b4b4b4" fill-rule="evenodd" stroke="none"/>
      <path d="M-10.4 -28.2 Q-11.2 -26.85 -12.5 -25.8 -13.85 -24.7 -15.8 -24.55 -17.8 -24.55 -20.0 -25.6 L-24.25 -28.0 -27.55 -30.45 -28.85 -31.6 -8.85 -31.65 -9.2 -30.6 Q-9.55 -29.6 -10.4 -28.2" fill="#d8a235" fill-rule="evenodd" stroke="none"/>
      <path d="M-10.4 -28.2 Q-9.55 -29.6 -9.2 -30.6 L-8.85 -31.65 -28.85 -31.6 -27.55 -30.45 -24.25 -28.0 -20.0 -25.6 Q-17.8 -24.55 -15.8 -24.55 -13.85 -24.7 -12.5 -25.8 -11.2 -26.85 -10.4 -28.2" fill="none" stroke="#000000" stroke-linecap="round" stroke-linejoin="round" stroke-width="1.0"/>
      <path d="M-11.8 -31.0 L-11.95 -30.35 Q-12.05 -29.7 -12.5 -28.85 -12.95 -28.0 -13.8 -27.3 -14.65 -26.65 -16.1 -26.6 -17.5 -26.6 -18.9 -27.25 L-21.55 -28.75 -23.45 -30.3 -24.25 -31.0 -11.8 -31.0" fill="#c12d05" fill-rule="evenodd" stroke="none"/>
      <path d="M-11.8 -31.0 L-24.25 -31.0 -23.45 -30.3 -21.55 -28.75 -18.9 -27.25 Q-17.5 -26.6 -16.1 -26.6 -14.65 -26.65 -13.8 -27.3 -12.95 -28.0 -12.5 -28.85 -12.05 -29.7 -11.95 -30.35 L-11.8 -31.0" fill="none" stroke="#000000" stroke-linecap="round" stroke-linejoin="round" stroke-width="1.0"/>
      <path d="M-19.95 -30.65 Q-19.1 -29.1 -17.35 -28.4 -15.65 -27.75 -13.65 -27.85 -14.5 -27.0 -16.1 -26.9 -17.45 -26.9 -18.9 -27.6 L-21.5 -29.15 -23.35 -30.65 -22.05 -30.65 -19.95 -30.65" fill="#9b0d0d" fill-rule="evenodd" stroke="none"/>
      <path d="M-51.25 -8.0 L-45.75 -22.45 -44.45 -22.05 -40.85 -21.6 -35.85 -22.3 Q-33.55 -23.05 -31.25 -24.2 L-27.3 -26.5 -25.0 -28.15 -24.5 -28.35 -23.55 -28.2 Q-23.1 -27.95 -22.9 -26.9 L-22.9 -24.75 -23.5 -20.85 Q-24.0 -18.6 -25.1 -16.2 -26.3 -13.8 -28.25 -11.65 -30.25 -9.5 -33.35 -8.15 -36.45 -6.8 -40.85 -6.6 -45.3 -6.5 -51.25 -8.0" fill="#666666" fill-rule="evenodd" stroke="none"/>
      <path d="M-45.75 -22.45 L-44.45 -22.05 -40.85 -21.6 -35.85 -22.3 Q-33.55 -23.05 -31.25 -24.2 L-27.3 -26.5 -25.0 -28.15 -24.5 -28.35 -23.55 -28.2 Q-23.1 -27.95 -22.9 -26.9 L-22.9 -24.75 -23.5 -20.85 Q-24.0 -18.6 -25.1 -16.2 -26.3 -13.8 -28.25 -11.65 -30.25 -9.5 -33.35 -8.15 -36.45 -6.8 -40.85 -6.6 -45.3 -6.5 -51.25 -8.0" fill="none" stroke="#000000" stroke-linecap="round" stroke-linejoin="round" stroke-width="2.0"/>
      <path d="M-50.4 -17.15 L-49.45 -17.1 -47.4 -14.65 -44.95 -12.35 Q-43.65 -11.35 -42.1 -10.85 -40.55 -10.45 -38.7 -10.85 L-38.65 -10.85 Q-35.65 -11.8 -32.05 -13.6 -28.55 -15.35 -25.1 -17.65 -26.8 -13.75 -29.75 -11.4 -32.7 -9.1 -36.45 -8.2 -40.25 -7.3 -44.35 -7.55 -48.45 -7.85 -52.55 -9.15 -52.45 -10.05 -52.7 -10.75 L-53.15 -12.35 Q-53.4 -13.15 -53.1 -14.1 L-52.55 -14.9 -51.6 -16.2 -50.4 -17.15" fill="#333333" fill-rule="evenodd" stroke="none"/>
      <path d="M-45.1 -22.0 L-43.45 -21.6 -40.05 -21.35 -35.7 -22.1 Q-33.5 -22.8 -31.2 -23.9 L-27.2 -26.15 -24.75 -27.95 -24.35 -28.05 -23.8 -28.05 -23.4 -27.6 -23.25 -26.9 -23.25 -26.45 -23.4 -23.9 Q-23.55 -22.2 -24.1 -20.0 -24.7 -17.8 -25.9 -15.5 -27.1 -13.25 -29.15 -11.3 -31.2 -9.4 -34.3 -8.2 -33.1 -8.75 -31.5 -10.55 -29.9 -12.4 -28.45 -14.8 -27.05 -17.3 -26.2 -19.65 -25.45 -22.0 -25.8 -23.5 -26.1 -24.15 -27.5 -23.9 L-30.95 -22.95 -34.95 -21.65 -38.3 -21.0 Q-41.85 -20.95 -45.1 -22.0" fill="#999999" fill-rule="evenodd" stroke="none"/>
      <path d="M8.1 -24.45 Q9.0 -24.2 10.05 -22.9 11.1 -21.7 11.7 -18.75 12.55 -14.25 12.05 -11.95 11.5 -9.7 9.55 -9.75 L6.1 -10.15 Q3.7 -10.65 0.75 -11.95 -2.25 -13.25 -5.2 -15.7 -8.15 -18.25 -10.35 -22.35 -11.25 -24.2 -10.7 -25.35 -10.15 -26.5 -8.8 -26.8 L-5.75 -26.55 -4.95 -26.15 Q-3.05 -25.0 -1.1 -24.3 0.85 -23.6 2.9 -23.6 4.95 -23.6 7.2 -24.6 L8.1 -24.45" fill="#666666" fill-rule="evenodd" stroke="none"/>
      <path d="M8.1 -24.45 Q9.0 -24.2 10.05 -22.9 11.1 -21.7 11.7 -18.75 12.55 -14.25 12.05 -11.95 11.5 -9.7 9.55 -9.75 L6.1 -10.15 Q3.7 -10.65 0.75 -11.95 -2.25 -13.25 -5.2 -15.7 -8.15 -18.25 -10.35 -22.35 -11.25 -24.2 -10.7 -25.35 -10.15 -26.5 -8.8 -26.8 L-5.75 -26.55 -4.95 -26.15 Q-3.05 -25.0 -1.1 -24.3 0.85 -23.6 2.9 -23.6 4.95 -23.6 7.2 -24.6 L8.1 -24.45" fill="none" stroke="#000000" stroke-linecap="round" stroke-linejoin="round" stroke-width="2.0"/>
      <path d="M10.9 -14.4 Q10.85 -16.05 10.25 -17.55 9.6 -19.0 8.75 -19.8 7.05 -21.0 5.0 -21.35 L0.75 -21.85 -3.05 -22.25 Q-4.85 -22.55 -6.4 -23.35 -7.95 -24.25 -9.05 -26.0 L-7.65 -26.25 -6.1 -25.95 -5.3 -25.55 Q-3.55 -24.5 -1.55 -23.7 0.4 -22.95 2.65 -22.9 4.85 -22.85 7.3 -23.9 L8.3 -23.6 9.75 -22.15 Q10.5 -21.0 11.0 -18.6 L11.5 -13.95 Q11.5 -11.6 10.75 -10.8 10.3 -10.35 9.55 -10.35 L9.4 -10.35 9.1 -10.35 Q10.5 -11.5 10.85 -13.4 L10.9 -14.4" fill="#999999" fill-rule="evenodd" stroke="none"/>
      <path d="M-29.25 37.0 L-29.3 38.15 -28.8 40.9 Q-28.35 42.5 -27.05 44.0 L-27.0 44.1 -27.45 44.25 -29.0 44.25 -31.55 44.05 Q-33.15 43.85 -35.05 43.05 -37.0 42.2 -38.9 40.2 -40.85 38.1 -42.5 34.3 L-29.25 37.0" fill="#333333" fill-rule="evenodd" stroke="none"/>
      <path d="M-29.25 37.0 L-29.3 38.15 -28.8 40.9 Q-28.35 42.5 -27.05 44.0 L-27.0 44.1 -27.45 44.25 -29.0 44.25 -31.55 44.05 Q-33.15 43.85 -35.05 43.05 -37.0 42.2 -38.9 40.2 -40.85 38.1 -42.5 34.3" fill="none" stroke="#000000" stroke-linecap="round" stroke-linejoin="round" stroke-width="2.0"/>
      <path d="M-18.95 39.45 L-17.95 39.3 -15.6 38.9 -12.7 38.2 Q-11.25 37.8 -10.15 37.25" fill="none" stroke="#000000" stroke-linecap="round" stroke-linejoin="round" stroke-width="1.0"/>
      <path d="M-3.8 -34.95 L-2.5 -34.55 -2.2 -34.05 -1.75 -32.9 Q-1.65 -32.3 -2.05 -31.75 -2.5 -31.3 -3.2 -31.25 L-4.45 -31.25 -5.05 -31.35 Q-5.95 -29.8 -6.95 -29.25 -7.95 -28.75 -9.1 -28.9 L-11.55 -29.4 -14.3 -30.05 -17.1 -30.2 -19.9 -30.2 -22.0 -30.25 -24.95 -30.35 -27.8 -30.8 Q-29.0 -31.1 -29.4 -31.75 L-29.95 -32.85 -29.25 -33.15 -26.65 -33.5 -23.15 -34.0 -19.8 -35.0 Q-18.65 -35.45 -17.65 -36.1 -16.7 -36.7 -15.9 -37.6 L-15.3 -38.45 -14.4 -39.55 -13.35 -40.15 Q-12.8 -40.2 -12.35 -39.5 -11.65 -38.55 -10.1 -37.65 -8.55 -36.75 -6.8 -36.1 L-3.8 -34.95" fill="#f9c248" fill-rule="evenodd" stroke="none"/>
      <path d="M-3.8 -34.95 L-2.5 -34.55 -2.2 -34.05 -1.75 -32.9 Q-1.65 -32.3 -2.05 -31.75 -2.5 -31.3 -3.2 -31.25 L-4.45 -31.25 -5.05 -31.35 Q-5.95 -29.8 -6.95 -29.25 -7.95 -28.75 -9.1 -28.9 L-11.55 -29.4 -14.3 -30.05 -17.1 -30.2 -19.9 -30.2 -22.0 -30.25 -24.95 -30.35 -27.8 -30.8 Q-29.0 -31.1 -29.4 -31.75 L-29.95 -32.85 -29.25 -33.15 -26.65 -33.5 -23.15 -34.0 -19.8 -35.0 Q-18.65 -35.45 -17.65 -36.1 -16.7 -36.7 -15.9 -37.6 L-15.3 -38.45 -14.4 -39.55 -13.35 -40.15 Q-12.8 -40.2 -12.35 -39.5 -11.65 -38.55 -10.1 -37.65 -8.55 -36.75 -6.8 -36.1 L-3.8 -34.95" fill="none" stroke="#000000" stroke-linecap="round" stroke-linejoin="round" stroke-width="1.0"/>
      <path d="M-2.3 -31.95 Q-2.6 -31.65 -3.2 -31.6 L-4.4 -31.6 -5.3 -31.75 -5.6 -31.8 -5.5 -31.3 Q-6.3 -29.85 -7.25 -29.45 L-9.35 -29.25 -11.85 -29.85 -14.4 -30.4 -18.15 -30.6 -21.2 -30.65 -24.05 -30.7 -27.2 -31.05 Q-28.65 -31.3 -29.1 -31.95 L-29.3 -32.4 -29.5 -32.75 -29.5 -32.9 Q-28.85 -32.3 -27.95 -32.1 L-26.4 -31.8 -25.55 -31.75 -20.8 -31.55 -15.35 -31.95 -14.1 -32.2 -12.7 -32.3 -11.25 -31.75 -9.9 -31.05 -8.25 -31.0 Q-7.45 -31.25 -6.75 -31.65 -6.4 -31.85 -6.15 -32.2 L-5.45 -32.65 -4.35 -32.55 Q-3.8 -32.4 -3.3 -32.55 L-2.8 -33.05 -2.25 -33.5 -2.1 -32.7 Q-2.05 -32.3 -2.3 -31.95" fill="#d8a235" fill-rule="evenodd" stroke="none"/>
      <path d="M-14.45 -35.25 L-13.9 -35.1 -13.05 -34.75 Q-12.7 -34.55 -13.25 -34.35 L-14.15 -34.25 -14.45 -35.25" fill="#d8a235" fill-rule="evenodd" stroke="none"/>
      <path d="M-6.95 -35.05 Q-8.6 -35.7 -11.1 -37.15 L-11.55 -37.45 -12.4 -38.1 -13.2 -38.45 -14.0 -38.0 Q-14.5 -37.6 -15.4 -37.55 L-15.05 -38.2 -14.2 -39.3 Q-13.7 -39.8 -13.3 -39.75 L-12.85 -39.6 -12.35 -39.0 -11.25 -38.1 -8.0 -36.15 Q-5.9 -35.1 -2.9 -34.5 L-3.2 -34.4 -4.45 -34.35 -6.95 -35.05" fill="#ffe4b3" fill-rule="evenodd" stroke="none"/>
      <path d="M-16.95 -45.1 Q-16.7 -43.4 -17.0 -41.8 -17.3 -40.3 -18.0 -38.95 L-24.65 -37.9 -29.35 -36.9 Q-30.7 -38.1 -31.6 -39.9 -32.45 -41.6 -32.7 -43.75 -32.95 -46.45 -32.15 -48.7 -31.3 -50.95 -29.65 -52.4 -28.05 -53.8 -25.85 -54.0 -22.5 -54.3 -20.05 -52.05 -17.65 -49.75 -16.95 -45.1" fill="#ffffff" fill-rule="evenodd" stroke="none"/>
      <path d="M-16.95 -45.1 Q-17.65 -49.75 -20.05 -52.05 -22.5 -54.3 -25.85 -54.0 -28.05 -53.8 -29.65 -52.4 -31.3 -50.95 -32.15 -48.7 -32.95 -46.45 -32.7 -43.75 -32.45 -41.6 -31.6 -39.9 -30.7 -38.1 -29.35 -36.9 L-24.65 -37.9 -18.0 -38.95 Q-17.3 -40.3 -17.0 -41.8 -16.7 -43.4 -16.95 -45.1" fill="none" stroke="#000000" stroke-linecap="round" stroke-linejoin="round" stroke-width="1.0"/>
      <path d="M-30.1 -44.95 Q-29.85 -42.5 -28.75 -40.8 -27.7 -39.0 -25.95 -38.05 L-29.2 -37.3 Q-31.85 -39.65 -32.3 -43.75 -32.55 -46.3 -31.8 -48.45 -31.1 -50.55 -29.6 -51.95 -28.1 -53.35 -26.1 -53.65 -28.15 -52.55 -29.25 -50.25 -30.35 -47.9 -30.1 -44.95" fill="#e5e2be" fill-rule="evenodd" stroke="none"/>
      <path d="M-21.6 -38.85 Q-23.1 -39.05 -23.95 -40.3 -24.8 -41.6 -24.65 -43.4 -24.45 -45.2 -23.35 -46.3 -22.2 -47.4 -20.7 -47.35 -19.25 -47.2 -18.35 -45.9 -17.5 -44.6 -17.65 -42.8 -17.9 -41.05 -19.0 -39.9 -20.1 -38.8 -21.6 -38.85" fill="#000000" fill-rule="evenodd" stroke="none"/>
      <path d="M-19.05 -44.55 Q-19.1 -43.85 -19.55 -43.4 -20.0 -42.95 -20.6 -43.0 -21.15 -43.05 -21.5 -43.55 -21.85 -44.05 -21.8 -44.8 -21.75 -45.5 -21.3 -45.9 -20.85 -46.4 -20.2 -46.35 -19.65 -46.3 -19.3 -45.75 -18.95 -45.25 -19.05 -44.55" fill="#ffffff" fill-rule="evenodd" stroke="none"/>
      <path d="M-4.0 -53.15 Q-2.7 -52.1 -1.8 -50.2 -0.9 -48.25 -0.65 -45.8 -0.5 -44.65 -0.5 -43.3 -0.5 -41.9 -0.65 -40.65 L-1.15 -38.55 Q-3.6 -39.55 -5.9 -39.85 -8.2 -40.2 -9.7 -39.85 -10.9 -41.95 -11.25 -44.85 -11.45 -47.3 -10.95 -49.4 -10.45 -51.4 -9.4 -52.7 -8.3 -53.95 -6.8 -54.1 -5.35 -54.2 -4.0 -53.15" fill="#ffffff" fill-rule="evenodd" stroke="none"/>
      <path d="M-4.0 -53.15 Q-5.35 -54.2 -6.8 -54.1 -8.3 -53.95 -9.4 -52.7 -10.45 -51.4 -10.95 -49.4 -11.45 -47.3 -11.25 -44.85 -10.9 -41.95 -9.7 -39.85 -8.2 -40.2 -5.9 -39.85 -3.6 -39.55 -1.15 -38.55 L-0.65 -40.65 Q-0.5 -41.9 -0.5 -43.3 -0.5 -44.65 -0.65 -45.8 -0.9 -48.25 -1.8 -50.2 -2.7 -52.1 -4.0 -53.15" fill="none" stroke="#000000" stroke-linecap="round" stroke-linejoin="round" stroke-width="1.0"/>
      <path d="M-10.9 -46.35 Q-10.9 -48.8 -10.15 -50.6 -9.4 -52.45 -8.15 -53.3 -9.15 -51.3 -9.15 -48.5 L-9.05 -47.0 -8.6 -44.05 -7.6 -41.65 Q-7.0 -40.6 -6.05 -40.2 L-7.75 -40.25 -9.45 -40.3 -10.35 -42.4 -10.85 -44.9 -10.9 -46.35" fill="#e5e2be" fill-rule="evenodd" stroke="none"/>
      <path d="M-1.2 -43.7 Q-1.4 -42.25 -2.2 -41.3 -3.0 -40.4 -4.1 -40.45 -5.15 -40.55 -5.75 -41.6 -6.35 -42.65 -6.25 -44.15 -6.05 -45.65 -5.25 -46.55 -4.45 -47.45 -3.4 -47.4 -2.3 -47.25 -1.7 -46.2 -1.05 -45.15 -1.2 -43.7" fill="#000000" fill-rule="evenodd" stroke="none"/>
      <path d="M-1.8 -45.0 L-2.2 -44.05 Q-2.55 -43.7 -3.05 -43.75 -3.45 -43.8 -3.75 -44.2 L-3.95 -45.15 -3.55 -46.1 Q-3.2 -46.5 -2.75 -46.45 -2.3 -46.4 -2.05 -46.0 -1.75 -45.55 -1.8 -45.0" fill="#ffffff" fill-rule="evenodd" stroke="none"/>
    </g>
  </defs>
</svg>
