<?xml version="1.0" encoding="UTF-8" standalone="no"?>
<svg xmlns:xlink="http://www.w3.org/1999/xlink" height="122.4px" width="108.0px" xmlns="http://www.w3.org/2000/svg">
  <g transform="matrix(1, 0, 0, 1, 83.35, 98.75)">
    <use height="54.9" transform="matrix(0.9512, 0.0, 0.0, 1.0483, -68.3, -53.95)" width="59.25" xlink:href="#sprite0"/>
    <use height="37.9" transform="matrix(0.9512, 0.0, 0.0, 1.0483, -59.5, -9.15)" width="39.85" xlink:href="#sprite1"/>
    <use height="7.7" transform="matrix(0.9512, 0.0, 0.0, 1.0483, -51.1, 10.75)" width="22.45" xlink:href="#sprite2"/>
    <use height="31.25" transform="matrix(0.9512, 0.0, 0.0, 1.0483, -81.45, 0.05)" width="81.55" xlink:href="#sprite3"/>
    <use height="4.15" transform="matrix(0.9512, 0.0, 0.0, 1.0483, -41.4854, -5.1805)" width="4.0" xlink:href="#sprite4"/>
    <use height="24.1" transform="matrix(1.0, 0.0, 0.0, 1.0, -80.9, -28.7)" width="79.1" xlink:href="#sprite5"/>
  </g>
  <defs>
    <g id="sprite0" transform="matrix(1, 0, 0, 1, 0.0, 0.0)">
      <use height="54.9" transform="matrix(1.0, 0.0, 0.0, 1.0, 0.0, 0.0)" width="59.25" xlink:href="#shape0"/>
    </g>
    <g id="shape0" transform="matrix(1, 0, 0, 1, 0.0, 0.0)">
      <path d="M55.4 36.85 Q49.8 49.8 36.5 54.9 L20.95 53.9 Q11.0 52.5 8.75 47.8 L8.75 47.75 6.15 43.2 Q4.85 40.7 4.35 38.8 3.5 35.55 1.05 28.8 0.0 25.9 0.0 21.0 0.0 16.7 1.35 13.25 2.2 11.1 3.6 9.25 10.7 0.0 29.75 0.0 49.45 0.0 56.2 7.55 59.25 10.95 59.25 16.3 59.25 28.0 55.4 36.85 M56.25 16.2 Q56.25 3.15 29.8 3.15 12.6 3.15 6.2 11.25 L4.9 13.25 Q3.0 16.7 3.0 21.15 3.0 25.45 4.25 29.25 L7.5 38.15 9.2 42.45 10.05 44.05 12.15 46.75 Q15.4 50.0 25.75 51.45 36.35 53.0 39.75 50.3 49.2 43.3 53.2 33.4 56.25 25.85 56.25 16.2" fill="#3e2928" fill-opacity="0.9882353" fill-rule="evenodd" stroke="none"/>
      <path d="M44.95 44.5 Q46.75 42.9 46.75 38.25 46.75 37.35 44.9 33.55 44.3 29.5 42.75 25.55 38.7 15.25 30.75 15.25 24.5 15.25 19.8 21.8 L18.1 24.35 Q16.85 26.2 15.4 29.2 11.75 36.6 11.75 40.3 L11.75 40.9 11.75 41.25 Q11.75 44.75 16.0 46.25 17.85 46.95 18.9 46.8 L24.35 47.65 26.0 48.0 34.5 48.0 34.5 47.8 Q38.55 48.3 41.3 46.3 43.65 45.65 44.95 44.5 M56.25 16.2 Q56.25 25.85 53.2 33.4 49.2 43.3 39.75 50.3 36.35 53.0 25.75 51.45 15.4 50.0 12.15 46.75 L10.05 44.05 9.2 42.45 7.5 38.15 4.25 29.25 Q3.0 25.45 3.0 21.15 3.0 16.7 4.9 13.25 L6.2 11.25 Q12.6 3.15 29.8 3.15 56.25 3.15 56.25 16.2 M19.75 39.25 L19.45 39.25 19.75 39.15 19.75 39.25" fill="#75504a" fill-rule="evenodd" stroke="none"/>
      <path d="M44.95 44.5 Q43.65 45.65 41.3 46.3 38.55 48.3 34.5 47.8 L34.5 48.0 26.0 48.0 24.35 47.65 18.9 46.8 Q17.85 46.95 16.0 46.25 11.75 44.75 11.75 41.25 L11.75 40.9 11.75 40.3 Q11.75 36.6 15.4 29.2 16.85 26.2 18.1 24.35 L19.8 21.8 Q24.5 15.25 30.75 15.25 38.7 15.25 42.75 25.55 44.3 29.5 44.9 33.55 46.75 37.35 46.75 38.25 46.75 42.9 44.95 44.5 M19.75 39.25 L19.75 39.15 19.45 39.25 19.75 39.25" fill="#a27666" fill-rule="evenodd" stroke="none"/>
    </g>
    <g id="sprite1" transform="matrix(1, 0, 0, 1, 0.0, 0.0)">
      <use height="37.9" transform="matrix(1.0, 0.0, 0.0, 1.0, 0.0, 0.0)" width="39.85" xlink:href="#shape1"/>
    </g>
    <g id="shape1" transform="matrix(1, 0, 0, 1, 0.0, 0.0)">
      <path d="M33.1 4.85 L33.75 4.75 Q37.8 4.75 39.25 11.75 39.95 15.25 39.85 18.8 39.85 20.25 38.1 23.8 36.0 27.95 33.05 31.25 24.65 40.65 15.0 36.75 9.85 34.0 4.85 26.35 0.0 18.95 0.0 14.55 0.0 11.3 1.3 7.75 3.1 2.65 6.5 3.1 L6.65 3.15 Q6.7 4.25 5.2 5.95 3.35 8.1 3.0 8.9 2.55 9.95 2.25 11.75 L2.2 11.85 2.0 14.65 Q2.0 15.25 3.3 18.35 4.95 22.2 7.05 25.55 13.5 35.8 20.8 35.8 26.65 35.8 32.5 28.75 37.65 22.5 37.65 18.8 37.65 15.25 36.7 11.5 35.65 7.25 33.85 5.65 L33.1 4.85" fill="#3e2928" fill-opacity="0.9882353" fill-rule="evenodd" stroke="none"/>
      <path d="M6.5 3.1 Q10.85 0.0 18.25 0.0 26.35 0.0 31.4 4.45 L31.9 4.4 Q32.5 4.4 33.1 4.85 L33.85 5.65 Q35.65 7.25 36.7 11.5 37.65 15.25 37.65 18.8 37.65 22.5 32.5 28.75 26.65 35.8 20.8 35.8 13.5 35.8 7.05 25.55 4.95 22.2 3.3 18.35 2.0 15.25 2.0 14.65 L2.2 11.85 2.25 11.75 Q2.55 9.95 3.0 8.9 3.35 8.1 5.2 5.95 6.7 4.25 6.65 3.15 L6.5 3.1" fill="#a27666" fill-rule="evenodd" stroke="none"/>
    </g>
    <g id="sprite2" transform="matrix(1, 0, 0, 1, 0.0, 0.0)">
      <use height="7.7" transform="matrix(1.0, 0.0, 0.0, 1.0, 0.0, 0.0)" width="22.45" xlink:href="#shape2"/>
    </g>
    <g id="shape2" transform="matrix(1, 0, 0, 1, 0.0, 0.0)">
      <path d="M22.4 3.85 Q22.4 7.85 18.65 7.7 15.55 7.6 15.0 4.8 13.9 5.5 11.1 5.35 L8.05 4.95 Q7.6 8.0 4.05 7.4 0.0 6.7 0.0 3.45 0.0 2.5 0.65 1.4 1.6 0.0 3.15 0.0 6.7 0.0 7.75 1.75 L8.1 3.1 8.4 3.35 9.65 4.5 Q13.05 4.55 14.2 3.85 L14.9 3.45 Q14.95 0.5 18.15 0.5 21.25 0.5 22.15 2.15 22.6 3.0 22.4 3.85" fill="#33221b" fill-rule="evenodd" stroke="none"/>
    </g>
    <g id="sprite3" transform="matrix(1, 0, 0, 1, 0.0, 0.0)">
      <use height="31.25" transform="matrix(1.0, 0.0, 0.0, 1.0, 0.0, 0.0)" width="81.55" xlink:href="#shape3"/>
    </g>
    <g id="shape3" transform="matrix(1, 0, 0, 1, 0.0, 0.0)">
      <path d="M71.65 10.15 L67.5 9.25 67.5 9.0 64.75 8.75 60.25 8.8 58.15 8.65 60.0 8.4 62.25 8.25 65.25 8.4 Q69.55 8.5 71.55 9.3 L74.65 10.4 74.5 10.55 71.65 10.15 M71.75 15.05 L65.75 12.8 Q61.4 11.05 58.9 10.4 61.65 10.95 65.85 12.45 69.6 13.8 71.9 14.9 L71.75 15.05 M75.2 6.85 Q79.9 8.05 81.55 9.25 L74.9 7.6 Q67.75 5.85 57.65 5.9 L58.0 5.5 59.9 5.3 60.75 5.15 Q68.6 5.15 75.2 6.85 M68.55 1.5 Q60.25 2.55 58.0 4.25 57.5 4.05 57.4 3.9 58.65 2.65 62.85 1.65 69.0 0.25 79.9 0.0 L68.55 1.5 M52.5 19.75 Q58.85 22.05 62.4 24.65 65.05 26.6 68.75 31.0 L68.5 31.25 Q63.75 26.3 62.25 25.1 58.2 21.9 52.1 20.0 52.1 19.8 52.5 19.75 M27.15 2.45 L23.0 1.55 20.5 1.3 10.75 1.3 9.65 1.15 13.35 0.85 16.75 0.65 21.1 0.8 23.35 1.05 27.35 1.75 Q28.6 2.05 29.25 2.5 L27.15 2.45 M28.25 5.0 L27.95 5.05 27.75 5.0 20.75 5.05 Q12.2 6.4 7.45 8.0 5.25 8.7 0.0 11.25 1.45 9.2 7.25 7.1 14.5 4.5 22.9 4.5 L27.9 4.55 28.25 5.0 M27.65 8.55 L27.75 8.75 Q24.65 10.2 21.25 12.25 L16.25 15.25 Q17.75 13.35 21.0 11.1 24.85 8.5 27.15 8.5 L27.65 8.55 M28.0 7.0 Q20.25 7.6 16.85 8.9 13.85 10.05 12.9 10.05 L16.45 8.7 24.5 6.75 27.25 6.75 27.6 6.8 Q27.95 6.85 28.0 7.0 M36.5 19.55 L36.75 19.75 Q34.55 23.2 26.25 26.25 L25.3 26.0 25.25 25.75 Q23.4 25.75 21.2 27.8 L21.25 27.65 Q21.25 25.65 25.75 25.65 26.2 25.65 30.6 23.1 L36.5 19.55" fill="#3e2928" fill-opacity="0.9882353" fill-rule="evenodd" stroke="none"/>
      <path d="M54.75 5.65 Q55.15 6.05 55.15 6.5 55.15 8.55 53.2 8.9 51.25 9.2 51.25 6.65 51.25 5.0 52.5 5.0 54.1 5.0 54.75 5.65 M47.4 6.65 L47.7 6.65 48.0 7.55 48.25 8.2 47.75 11.1 Q47.35 12.4 46.8 12.95 46.15 14.95 43.4 14.9 40.0 14.85 39.85 11.9 L39.3 10.55 38.5 7.4 Q38.5 7.0 38.65 6.7 L38.7 6.45 43.0 7.05 47.4 6.65 M35.0 4.9 L35.1 5.7 Q35.1 7.85 33.2 7.95 31.35 8.0 31.35 6.0 31.35 5.15 31.6 4.75 31.95 4.15 33.0 4.15 34.65 4.15 35.0 4.9" fill="#d1aca6" fill-opacity="0.9882353" fill-rule="evenodd" stroke="none"/>
      <path d="M38.05 6.2 Q37.2 6.0 37.25 4.85 37.25 2.65 43.5 2.65 46.3 2.65 47.6 3.8 48.4 4.55 48.4 5.35 48.4 6.55 47.7 6.65 L47.4 6.65 Q48.25 6.3 48.25 5.65 L48.15 5.05 44.9 4.75 45.0 4.4 Q45.0 3.5 44.0 3.5 L41.0 3.75 Q40.55 3.95 40.5 4.55 L38.4 4.75 Q37.75 4.95 37.75 5.75 L38.05 6.2" fill="#72200b" fill-rule="evenodd" stroke="none"/>
      <path d="M38.05 6.2 L37.75 5.75 Q37.75 4.95 38.4 4.75 L40.5 4.55 Q40.55 3.95 41.0 3.75 L44.0 3.5 Q45.0 3.5 45.0 4.4 L44.9 4.75 48.15 5.05 48.25 5.65 Q48.25 6.3 47.4 6.65 L43.0 7.05 38.7 6.45 38.05 6.2" fill="#ad442f" fill-opacity="0.9882353" fill-rule="evenodd" stroke="none"/>
    </g>
    <g id="sprite4" transform="matrix(1, 0, 0, 1, 0.3, 2.7)">
      <use height="1.45" transform="matrix(1.0, 0.0, 0.0, 1.0, 0.0, 0.0)" width="3.7" xlink:href="#shape4"/>
    </g>
    <g id="shape4" transform="matrix(1, 0, 0, 1, 0.0, 0.0)">
      <path d="M3.0 0.0 L3.7 0.55 3.6 0.95 2.75 1.2 1.1 1.45 0.0 1.4 0.0 1.25 Q0.0 0.6 0.65 0.4 L3.0 0.0" fill="#33221b" fill-rule="evenodd" stroke="none"/>
    </g>
    <g id="sprite5" transform="matrix(1, 0, 0, 1, 0.0, 0.0)">
      <use height="24.1" transform="matrix(1.0, 0.0, 0.0, 1.0, 0.0, 0.0)" width="79.1" xlink:href="#shape5"/>
    </g>
    <g id="shape5" transform="matrix(1, 0, 0, 1, 0.0, 0.0)">
      <path d="M79.1 5.5 Q78.6 14.85 77.5 17.55 77.05 18.65 75.6 18.95 73.9 19.3 73.2 19.75 72.7 22.8 69.95 22.6 L68.5 22.25 Q64.45 23.6 62.75 20.8 61.85 19.35 61.85 17.4 68.4 0.0 73.1 0.0 75.5 0.0 77.5 2.7 78.55 4.05 79.1 5.5 M73.9 16.95 L74.1 15.65 Q74.1 15.45 73.35 15.0 L72.35 14.5 71.4 14.35 70.6 14.25 69.85 14.35 Q69.6 14.45 69.6 14.9 69.6 16.7 71.85 17.6 L73.2 17.7 73.1 18.0 Q73.1 19.5 74.85 18.8 76.6 18.05 76.6 16.6 L75.85 15.75 73.95 16.95 73.9 16.95 M66.6 15.5 L66.6 16.1 Q66.6 18.9 68.45 20.2 70.35 21.5 70.35 18.95 L69.05 17.1 67.35 15.25 Q66.7 15.25 66.6 15.5 M66.2 20.85 Q66.85 20.95 66.85 19.9 66.85 19.2 66.05 18.1 65.95 16.2 65.3 15.2 L65.25 14.8 64.95 14.75 64.6 14.5 64.2 14.55 64.0 14.95 Q63.6 15.3 63.35 16.25 L63.2 17.0 63.1 17.35 63.1 17.65 63.1 18.1 Q63.1 19.5 64.7 20.3 L65.35 20.5 Q65.7 20.75 65.95 20.8 L65.25 20.65 64.25 20.5 Q63.35 20.5 63.35 21.15 63.35 22.15 65.6 22.4 67.85 22.65 67.85 21.65 L67.1 21.0 66.2 20.85 M70.6 20.05 L69.75 20.9 Q69.0 21.05 68.6 21.4 70.15 23.1 71.5 21.85 72.6 20.8 72.6 19.6 L72.6 19.15 Q72.5 18.75 71.85 18.75 71.25 18.75 70.6 20.05" fill="#402b2a" fill-opacity="0.9882353" fill-rule="evenodd" stroke="none"/>
      <path d="M66.6 15.5 Q66.7 15.25 67.35 15.25 L69.05 17.1 70.35 18.95 Q70.35 21.5 68.45 20.2 66.6 18.9 66.6 16.1 L66.6 15.5 M73.2 17.7 L71.85 17.6 Q69.6 16.7 69.6 14.9 69.6 14.45 69.85 14.35 L70.6 14.25 71.4 14.35 72.35 14.5 73.35 15.0 Q74.1 15.45 74.1 15.65 L73.9 16.95 73.9 17.0 73.2 17.7 M65.95 20.8 Q65.7 20.75 65.35 20.5 L64.7 20.3 Q63.1 19.5 63.1 18.1 L63.1 17.65 63.1 17.35 63.2 17.0 63.35 16.25 Q63.6 15.3 64.0 14.95 L64.2 14.55 64.6 14.5 64.95 14.75 65.25 14.8 65.3 15.2 Q65.95 16.2 66.05 18.1 66.85 19.2 66.85 19.9 66.85 20.95 66.2 20.85 L65.95 20.8 M16.55 16.2 L17.1 15.1 17.5 15.05 17.7 15.25 18.1 15.9 Q18.6 16.15 18.75 16.9 L18.75 18.05 18.65 19.15 18.65 19.3 Q18.5 19.7 18.05 19.75 L17.7 19.75 17.25 19.6 17.2 19.55 17.15 19.35 Q16.25 19.45 16.25 17.8 16.25 17.05 16.55 16.2 M7.0 19.7 L11.65 16.3 12.25 16.35 12.45 16.5 12.5 16.95 Q12.5 18.15 11.9 19.0 11.6 19.85 10.4 20.5 L8.9 20.75 Q7.0 21.25 7.0 19.7 M14.75 16.55 Q15.55 16.85 15.7 17.65 L15.75 19.1 15.7 20.6 Q15.45 21.55 14.15 21.55 13.15 21.55 12.6 21.15 12.25 20.85 12.25 20.45 12.25 20.0 13.35 18.35 L14.75 16.55" fill="#d1aca6" fill-opacity="0.9882353" fill-rule="evenodd" stroke="none"/>
      <path d="M73.9 16.95 L73.95 16.95 75.85 15.75 76.6 16.6 Q76.6 18.05 74.85 18.8 73.1 19.5 73.1 18.0 L73.2 17.7 73.9 17.0 73.9 16.95 M66.2 20.85 L67.1 21.0 67.85 21.65 Q67.85 22.65 65.6 22.4 63.35 22.15 63.35 21.15 63.35 20.5 64.25 20.5 L65.25 20.65 65.95 20.8 66.2 20.85 M70.6 20.05 Q71.25 18.75 71.85 18.75 72.5 18.75 72.6 19.15 L72.6 19.6 Q72.6 20.8 71.5 21.85 70.15 23.1 68.6 21.4 69.0 21.05 69.75 20.9 L70.6 20.05 M11.95 23.8 L11.75 23.8 11.65 23.7 Q10.5 22.85 10.5 22.35 L10.5 21.95 10.65 21.8 Q10.65 21.55 11.25 21.55 12.15 21.55 12.25 22.2 L15.35 21.8 16.5 21.3 Q17.25 21.85 17.25 22.15 17.25 23.8 11.95 23.8 M5.25 21.65 L5.35 21.05 Q5.4 20.8 6.0 20.8 L10.15 21.1 10.25 21.7 Q10.25 22.9 7.75 22.8 5.25 22.65 5.25 21.65 M18.05 19.75 Q18.5 19.95 18.5 20.45 18.5 21.1 17.7 21.3 L17.35 21.35 Q16.25 21.45 16.25 20.4 L16.35 19.8 Q16.4 19.55 17.0 19.55 L17.2 19.55 17.25 19.6 17.7 19.75 18.05 19.75" fill="#a27666" fill-rule="evenodd" stroke="none"/>
      <path d="M11.65 23.7 L10.1 23.3 Q4.4 24.1 1.7 17.9 0.0 14.1 0.0 10.3 0.0 5.8 2.4 5.8 L3.15 5.95 3.9 5.8 4.25 5.55 Q5.65 5.55 7.85 8.7 10.4 12.4 11.0 12.8 L16.55 16.2 Q16.25 17.05 16.25 17.8 16.25 19.45 17.15 19.35 L17.2 19.55 17.0 19.55 Q16.4 19.55 16.35 19.8 L16.25 20.4 Q16.25 21.45 17.35 21.35 L17.7 21.3 Q18.5 21.1 18.5 20.45 18.5 19.95 18.05 19.75 18.5 19.7 18.65 19.3 L18.65 19.15 18.75 20.0 Q18.75 20.75 18.2 21.55 L17.7 22.9 Q16.4 24.75 11.95 23.8 17.25 23.8 17.25 22.15 17.25 21.85 16.5 21.3 L15.35 21.8 12.25 22.2 Q12.15 21.55 11.25 21.55 10.65 21.55 10.65 21.8 L10.5 21.95 10.5 22.35 Q10.5 22.85 11.65 23.7 M7.0 19.7 Q7.0 21.25 8.9 20.75 L10.4 20.5 Q11.6 19.85 11.9 19.0 12.5 18.15 12.5 16.95 L12.45 16.5 12.25 16.35 11.65 16.3 7.0 19.7 M5.25 21.65 Q5.25 22.65 7.75 22.8 10.25 22.9 10.25 21.7 L10.15 21.1 6.0 20.8 Q5.4 20.8 5.35 21.05 L5.25 21.65 M14.75 16.55 L13.35 18.35 Q12.25 20.0 12.25 20.45 12.25 20.85 12.6 21.15 13.15 21.55 14.15 21.55 15.45 21.55 15.7 20.6 L15.75 19.1 15.7 17.65 Q15.55 16.85 14.75 16.55" fill="#3e2928" fill-opacity="0.9882353" fill-rule="evenodd" stroke="none"/>
    </g>
  </defs>
</svg>
