<?xml version="1.0" encoding="UTF-8" standalone="no"?>
<svg xmlns:xlink="http://www.w3.org/1999/xlink" height="122.4px" width="108.0px" xmlns="http://www.w3.org/2000/svg">
  <g transform="matrix(1, 0, 0, 1, 83.35, 98.75)">
    <use height="24.1" transform="matrix(1.0, 0.0, 0.0, 1.0, -80.9, -32.8)" width="79.1" xlink:href="#sprite0"/>
  </g>
  <defs>
    <g id="sprite0" transform="matrix(1, 0, 0, 1, 0.0, 0.0)">
      <use height="24.1" transform="matrix(1.0, 0.0, 0.0, 1.0, 0.0, 0.0)" width="79.1" xlink:href="#shape0"/>
    </g>
    <g id="shape0" transform="matrix(1, 0, 0, 1, 0.0, 0.0)">
      <path d="M79.1 5.5 Q78.6 14.85 77.5 17.55 77.05 18.65 75.6 18.95 73.9 19.3 73.2 19.75 72.7 22.8 69.95 22.6 L68.5 22.25 Q64.45 23.6 62.75 20.8 61.85 19.35 61.85 17.4 68.4 0.0 73.1 0.0 75.5 0.0 77.5 2.7 78.55 4.05 79.1 5.5 M73.9 16.95 L74.1 15.65 Q74.1 15.45 73.35 15.0 L72.35 14.5 71.4 14.35 70.6 14.25 69.85 14.35 Q69.6 14.45 69.6 14.9 69.6 16.7 71.85 17.6 L73.2 17.7 73.1 18.0 Q73.1 19.5 74.85 18.8 76.6 18.05 76.6 16.6 L75.85 15.75 73.95 16.95 73.9 16.95 M66.6 15.5 L66.6 16.1 Q66.6 18.9 68.45 20.2 70.35 21.5 70.35 18.95 L69.05 17.1 67.35 15.25 Q66.7 15.25 66.6 15.5 M66.2 20.85 Q66.85 20.95 66.85 19.9 66.85 19.2 66.05 18.1 65.95 16.2 65.3 15.2 L65.25 14.8 64.95 14.75 64.6 14.5 64.2 14.55 64.0 14.95 Q63.6 15.3 63.35 16.25 L63.2 17.0 63.1 17.35 63.1 17.65 63.1 18.1 Q63.1 19.5 64.7 20.3 L65.35 20.5 Q65.7 20.75 65.95 20.8 L65.25 20.65 64.25 20.5 Q63.35 20.5 63.35 21.15 63.35 22.15 65.6 22.4 67.85 22.65 67.85 21.65 L67.1 21.0 66.2 20.85 M70.6 20.05 L69.75 20.9 Q69.0 21.05 68.6 21.4 70.15 23.1 71.5 21.85 72.6 20.8 72.6 19.6 L72.6 19.15 Q72.5 18.75 71.85 18.75 71.25 18.75 70.6 20.05" fill="#402b2a" fill-opacity="0.9882353" fill-rule="evenodd" stroke="none"/>
      <path d="M66.6 15.5 Q66.7 15.25 67.35 15.25 L69.05 17.1 70.35 18.95 Q70.35 21.5 68.45 20.2 66.6 18.9 66.6 16.1 L66.6 15.5 M73.2 17.7 L71.85 17.6 Q69.6 16.7 69.6 14.9 69.6 14.45 69.85 14.35 L70.6 14.25 71.4 14.35 72.35 14.5 73.35 15.0 Q74.1 15.45 74.1 15.65 L73.9 16.95 73.9 17.0 73.2 17.7 M65.95 20.8 Q65.7 20.75 65.35 20.5 L64.7 20.3 Q63.1 19.5 63.1 18.1 L63.1 17.65 63.1 17.35 63.2 17.0 63.35 16.25 Q63.6 15.3 64.0 14.95 L64.2 14.55 64.6 14.5 64.95 14.75 65.25 14.8 65.3 15.2 Q65.95 16.2 66.05 18.1 66.85 19.2 66.85 19.9 66.85 20.95 66.2 20.85 L65.95 20.8 M16.55 16.2 L17.1 15.1 17.5 15.05 17.7 15.25 18.1 15.9 Q18.6 16.15 18.75 16.9 L18.75 18.05 18.65 19.15 18.65 19.3 Q18.5 19.7 18.05 19.75 L17.7 19.75 17.25 19.6 17.2 19.55 17.15 19.35 Q16.25 19.45 16.25 17.8 16.25 17.05 16.55 16.2 M7.0 19.7 L11.65 16.3 12.25 16.35 12.45 16.5 12.5 16.95 Q12.5 18.15 11.9 19.0 11.6 19.85 10.4 20.5 L8.9 20.75 Q7.0 21.25 7.0 19.7 M14.75 16.55 Q15.55 16.85 15.7 17.65 L15.75 19.1 15.7 20.6 Q15.45 21.55 14.15 21.55 13.15 21.55 12.6 21.15 12.25 20.85 12.25 20.45 12.25 20.0 13.35 18.35 L14.75 16.55" fill="#d1aca6" fill-opacity="0.9882353" fill-rule="evenodd" stroke="none"/>
      <path d="M73.9 16.95 L73.95 16.95 75.85 15.75 76.6 16.6 Q76.6 18.05 74.85 18.8 73.1 19.5 73.1 18.0 L73.2 17.7 73.9 17.0 73.9 16.95 M66.2 20.85 L67.1 21.0 67.85 21.65 Q67.85 22.65 65.6 22.4 63.35 22.15 63.35 21.15 63.35 20.5 64.25 20.5 L65.25 20.65 65.95 20.8 66.2 20.85 M70.6 20.05 Q71.25 18.75 71.85 18.75 72.5 18.75 72.6 19.15 L72.6 19.6 Q72.6 20.8 71.5 21.85 70.15 23.1 68.6 21.4 69.0 21.05 69.75 20.9 L70.6 20.05 M11.95 23.8 L11.75 23.8 11.65 23.7 Q10.5 22.85 10.5 22.35 L10.5 21.95 10.65 21.8 Q10.65 21.55 11.25 21.55 12.15 21.55 12.25 22.2 L15.35 21.8 16.5 21.3 Q17.25 21.85 17.25 22.15 17.25 23.8 11.95 23.8 M5.25 21.65 L5.35 21.05 Q5.4 20.8 6.0 20.8 L10.15 21.1 10.25 21.7 Q10.25 22.9 7.75 22.8 5.25 22.65 5.25 21.65 M18.05 19.75 Q18.5 19.95 18.5 20.45 18.5 21.1 17.7 21.3 L17.35 21.35 Q16.25 21.45 16.25 20.4 L16.35 19.8 Q16.4 19.55 17.0 19.55 L17.2 19.55 17.25 19.6 17.7 19.75 18.05 19.75" fill="#a27666" fill-rule="evenodd" stroke="none"/>
      <path d="M11.65 23.7 L10.1 23.3 Q4.4 24.1 1.7 17.9 0.0 14.1 0.0 10.3 0.0 5.8 2.4 5.8 L3.15 5.95 3.9 5.8 4.25 5.55 Q5.65 5.55 7.85 8.7 10.4 12.4 11.0 12.8 L16.55 16.2 Q16.25 17.05 16.25 17.8 16.25 19.45 17.15 19.35 L17.2 19.55 17.0 19.55 Q16.4 19.55 16.35 19.8 L16.25 20.4 Q16.25 21.45 17.35 21.35 L17.7 21.3 Q18.5 21.1 18.5 20.45 18.5 19.95 18.05 19.75 18.5 19.7 18.65 19.3 L18.65 19.15 18.75 20.0 Q18.75 20.75 18.2 21.55 L17.7 22.9 Q16.4 24.75 11.95 23.8 17.25 23.8 17.25 22.15 17.25 21.85 16.5 21.3 L15.35 21.8 12.25 22.2 Q12.15 21.55 11.25 21.55 10.65 21.55 10.65 21.8 L10.5 21.95 10.5 22.35 Q10.5 22.85 11.65 23.7 M7.0 19.7 Q7.0 21.25 8.9 20.75 L10.4 20.5 Q11.6 19.85 11.9 19.0 12.5 18.15 12.5 16.95 L12.45 16.5 12.25 16.35 11.65 16.3 7.0 19.7 M5.25 21.65 Q5.25 22.65 7.75 22.8 10.25 22.9 10.25 21.7 L10.15 21.1 6.0 20.8 Q5.4 20.8 5.35 21.05 L5.25 21.65 M14.75 16.55 L13.35 18.35 Q12.25 20.0 12.25 20.45 12.25 20.85 12.6 21.15 13.15 21.55 14.15 21.55 15.45 21.55 15.7 20.6 L15.75 19.1 15.7 17.65 Q15.55 16.85 14.75 16.55" fill="#3e2928" fill-opacity="0.9882353" fill-rule="evenodd" stroke="none"/>
    </g>
  </defs>
</svg>
