<?xml version="1.0" encoding="UTF-8" standalone="no"?>
<svg xmlns:xlink="http://www.w3.org/1999/xlink" height="352.6px" width="313.55px" xmlns="http://www.w3.org/2000/svg">
  <g transform="matrix(1, 0, 0, 1, 5.05, 223.0)">
    <use height="115.85" transform="matrix(1.0, 8.0E-4, -8.0E-4, 1.0, -0.85, 8.1)" width="290.5" xlink:href="#sprite0"/>
    <use height="46.45" transform="matrix(0.9998, 0.0131, -0.0131, 0.9998, 141.35, 124.9)" width="147.75" xlink:href="#sprite1"/>
    <use height="69.0" transform="matrix(0.9999, 0.0053, -0.0053, 0.9999, 33.65, -38.6)" width="222.75" xlink:href="#sprite2"/>
    <use height="26.0" transform="matrix(1.0, 0.0, -0.022, 1.0001, 173.55, 111.25)" width="81.5" xlink:href="#sprite3"/>
  </g>
  <defs>
    <g id="sprite0" transform="matrix(1, 0, 0, 1, 0.0, 0.0)">
      <use height="115.85" transform="matrix(1.0, 0.0, 0.0, 1.0, 0.0, 0.0)" width="290.5" xlink:href="#shape0"/>
    </g>
    <g id="shape0" transform="matrix(1, 0, 0, 1, 0.0, 0.0)">
      <path d="M286.0 6.45 Q285.3 5.6 284.5 5.4 L284.15 5.75 Q284.0 6.05 284.0 6.85 L284.1 7.25 Q282.85 6.95 280.95 5.45 L279.7 4.75 278.45 4.7 278.7 4.55 Q279.0 4.3 279.0 3.5 279.0 3.15 277.6 1.95 279.75 1.55 281.4 2.55 283.1 3.6 286.0 6.4 L286.0 6.45 M257.3 4.75 L259.1 4.35 259.25 4.75 259.5 5.6 260.15 5.75 261.45 5.85 257.2 6.05 255.65 6.25 Q256.75 5.7 258.5 5.35 L258.3 4.9 257.3 4.75 M261.75 5.85 L267.55 5.55 267.5 6.1 267.5 6.25 Q266.75 5.85 265.25 5.8 L262.75 5.85 261.75 5.85" fill="#895b5c" fill-rule="evenodd" stroke="none"/>
      <path d="M278.45 4.7 L279.7 4.75 280.95 5.45 Q282.85 6.95 284.1 7.25 L284.0 6.85 Q284.0 6.05 284.15 5.75 L284.5 5.4 Q285.3 5.6 286.0 6.45 287.15 7.95 288.1 11.45 L288.2 11.85 288.35 12.45 288.55 12.9 288.95 14.65 289.1 16.35 289.15 16.7 289.1 16.65 289.0 19.15 Q289.0 20.4 287.5 21.85 L286.0 23.15 Q286.0 24.0 284.55 24.65 L284.1 24.85 284.25 24.85 Q285.45 24.85 287.5 22.45 289.1 20.55 289.45 19.5 L289.5 21.85 289.45 25.25 Q290.1 26.35 290.35 28.15 L290.5 33.6 289.7 36.5 289.25 37.75 288.0 41.35 Q288.0 42.0 288.5 42.55 289.0 43.1 289.0 43.7 289.0 45.15 288.3 45.85 287.85 46.35 287.25 46.35 L285.8 46.1 284.25 50.4 Q282.5 55.4 282.5 56.5 L282.6 58.25 Q282.85 59.3 284.0 59.85 L284.15 59.8 Q284.6 64.0 285.65 67.65 286.0 68.85 287.0 69.85 L287.0 73.55 286.8 72.2 286.7 71.0 286.0 70.35 Q283.95 70.95 284.25 73.5 L284.55 77.65 284.0 76.85 Q283.2 77.35 282.8 78.15 L282.5 79.0 Q282.5 79.5 283.3 80.6 L283.7 81.1 283.5 81.95 282.5 86.5 Q282.5 87.6 283.25 88.6 284.0 89.65 284.0 90.25 L283.3 93.45 Q282.15 92.9 280.0 93.85 L280.0 92.85 280.0 78.85 Q281.7 77.55 281.15 73.85 281.0 72.85 280.5 72.35 279.1 70.95 278.4 75.9 277.4 83.25 276.0 89.85 272.75 89.55 271.45 87.15 271.0 86.35 270.05 86.45 265.9 86.95 266.0 83.85 L264.2 79.2 262.65 75.55 Q260.75 71.1 257.0 68.85 L256.5 68.85 Q256.45 63.3 261.0 61.85 263.65 58.15 259.05 56.7 L257.1 56.5 Q254.35 57.0 255.0 54.85 255.35 51.7 259.0 51.8 260.0 51.85 260.25 51.4 261.3 49.65 263.9 50.25 269.6 51.55 274.0 47.85 266.5 45.85 257.0 45.5 246.8 45.15 240.15 48.2 235.15 50.5 229.9 49.4 221.2 47.55 218.0 51.85 215.4 53.55 218.9 54.35 L223.1 55.25 223.9 55.4 235.0 54.85 Q234.75 57.05 239.05 57.55 241.5 57.85 240.0 62.85 234.1 65.45 226.0 65.8 L225.0 66.0 Q224.65 68.5 222.0 68.5 211.3 68.65 201.0 68.95 195.25 69.1 192.0 70.85 198.3 72.55 207.0 71.95 L223.05 72.6 Q224.5 72.85 225.7 73.45 230.1 75.75 235.0 77.85 L235.5 78.35 Q229.35 78.7 224.8 80.3 221.2 81.55 218.5 83.5 216.25 85.1 212.05 85.55 L194.05 86.7 Q189.55 86.85 188.0 85.85 188.5 84.85 189.1 84.8 191.7 84.55 191.55 82.9 191.5 81.85 191.8 81.3 193.0 79.3 189.0 79.35 L188.5 79.35 Q185.95 75.45 183.0 76.85 181.3 77.15 181.85 78.5 L182.2 79.25 182.75 80.6 Q183.9 84.35 180.0 82.85 175.0 85.6 174.0 79.0 L173.85 78.45 Q171.2 72.7 165.9 74.55 165.0 74.85 164.7 75.3 L162.0 79.85 Q161.9 81.5 164.0 81.35 L164.0 81.85 148.0 82.35 146.05 82.25 125.0 80.85 124.8 80.8 114.05 79.25 Q108.2 78.55 107.0 81.85 111.1 83.3 116.95 83.55 121.15 83.7 125.0 84.85 L124.0 84.85 Q111.2 85.2 96.0 84.85 L95.0 84.85 94.0 84.85 Q96.2 81.8 100.0 83.85 100.0 82.85 100.4 82.65 101.65 82.0 100.45 80.2 99.35 78.5 96.15 77.9 L90.05 76.65 Q83.3 75.15 83.0 79.85 81.0 81.3 76.85 80.55 L68.95 79.5 Q60.55 78.9 66.0 77.85 69.95 78.3 71.45 76.4 L71.5 76.35 Q74.65 74.5 79.0 74.05 L82.0 73.9 Q91.4 74.15 102.0 75.85 L101.8 74.95 101.5 74.35 Q106.25 72.1 114.0 72.95 L129.0 74.75 Q135.25 75.6 139.0 73.85 133.1 71.25 125.0 70.8 117.0 70.35 109.0 70.4 99.6 70.45 90.05 69.9 83.8 69.55 78.75 67.45 L78.15 67.25 Q72.45 65.9 67.0 63.85 69.35 60.7 73.85 59.35 77.8 58.15 80.0 54.85 L83.0 54.85 86.1 54.65 Q91.45 53.8 89.0 50.85 87.2 49.5 92.0 49.8 93.0 49.85 93.6 49.35 96.0 47.35 100.95 47.0 103.0 46.85 104.9 45.7 L106.1 45.2 Q112.5 43.5 109.0 40.85 106.7 39.9 110.0 39.85 111.0 39.85 111.25 40.25 L113.65 40.3 Q116.2 38.55 120.0 38.65 127.85 38.8 125.0 32.85 L132.0 32.85 133.0 32.85 Q131.6 31.35 133.05 31.1 134.5 30.85 135.55 30.15 137.55 28.9 140.95 29.25 148.75 30.1 152.0 26.85 146.65 25.2 139.0 25.4 133.25 25.6 127.0 25.45 97.5 24.85 68.0 24.85 L67.0 24.85 66.0 25.0 Q65.2 30.15 72.0 28.85 76.15 28.65 73.85 29.05 L54.0 32.85 Q50.35 37.2 45.65 40.35 40.75 43.6 38.7 49.75 38.5 50.35 38.6 50.6 40.15 54.35 34.0 53.85 32.25 55.6 31.55 58.0 L30.4 61.65 Q29.25 65.1 30.0 70.85 29.5 70.85 29.4 71.05 25.7 78.05 21.0 83.85 20.6 92.75 31.05 91.4 31.5 91.35 31.7 91.95 32.3 93.5 34.0 91.85 32.35 94.2 29.75 95.05 25.85 96.25 22.7 97.9 18.0 96.9 17.2 96.5 16.45 96.1 16.4 95.45 L16.5 93.7 Q16.5 91.5 17.5 89.85 L17.05 89.1 15.5 89.4 15.75 84.85 Q15.75 81.6 16.1 77.85 L17.2 63.85 Q17.5 58.85 15.55 56.4 L15.55 55.8 Q16.9 45.75 16.1 34.9 L16.25 31.9 Q16.85 27.2 16.3 21.9 15.7 16.05 19.05 15.1 L21.0 14.85 Q26.65 18.35 23.2 10.75 L23.0 9.85 Q26.4 8.25 32.0 8.8 L33.0 8.85 Q39.65 9.5 44.05 8.0 L45.0 7.85 57.1 6.7 71.0 5.85 Q88.85 5.85 106.75 6.3 L109.75 6.85 110.0 6.85 Q115.4 7.05 120.3 6.8 L121.25 6.85 127.45 6.25 131.2 5.85 136.05 5.85 136.25 6.2 137.0 6.35 141.5 6.35 Q141.9 6.15 143.15 5.9 L168.95 7.3 170.1 7.6 Q175.95 9.9 181.0 7.85 L217.0 7.85 218.0 7.85 230.05 8.7 230.25 9.2 231.0 9.35 234.5 9.35 241.1 9.0 241.25 9.2 242.0 9.35 Q248.3 9.2 253.0 9.5 L255.1 9.65 255.0 10.25 Q255.0 11.0 255.15 11.2 L255.3 11.35 259.0 11.35 272.25 9.85 274.3 10.1 Q273.0 11.35 273.0 12.1 273.0 12.85 273.15 13.1 L273.3 13.35 275.5 13.35 276.3 12.85 276.25 13.15 276.25 13.65 Q277.5 13.8 278.6 15.0 L278.75 15.1 280.7 13.5 283.45 11.6 Q282.55 6.9 279.4 9.5 279.25 8.5 278.75 8.05 L278.4 7.8 278.0 7.4 278.7 7.3 Q279.0 7.15 279.0 6.4 279.0 5.35 278.3 4.75 L278.45 4.7 M284.5 11.6 Q284.5 12.25 285.0 13.3 L285.0 13.2 285.25 11.8 285.55 10.6 286.0 10.6 Q285.3 10.05 284.55 10.1 L284.5 11.6 M281.85 16.1 L281.75 16.1 Q279.5 15.85 279.5 17.85 L279.75 19.15 Q280.3 20.35 282.0 20.35 282.85 20.35 283.5 19.15 L283.9 18.15 284.35 18.6 284.0 19.15 283.25 20.6 283.45 20.6 286.5 20.15 285.7 16.8 285.45 15.65 285.35 16.1 284.65 15.2 Q282.9 15.7 282.5 15.9 L282.4 15.9 281.85 16.1 M284.05 26.2 L284.5 29.35 Q285.15 28.75 285.55 26.8 L284.05 26.2 M271.8 7.5 L273.2 7.6 271.95 7.7 271.8 7.5 M282.7 22.05 L282.6 22.35 282.0 22.35 281.8 22.65 283.0 22.6 282.7 22.05 M250.2 21.95 Q250.4 23.0 250.85 23.7 L248.4 23.8 Q246.0 23.85 246.0 24.7 L246.05 25.35 Q247.1 26.05 248.0 26.35 L254.5 26.6 Q254.65 27.0 254.4 27.75 254.35 28.45 255.5 28.85 L259.55 26.2 Q262.2 27.9 261.75 24.75 L261.75 24.5 Q263.5 22.9 263.5 21.95 L263.1 20.9 Q262.55 19.95 261.55 19.45 L262.0 14.85 260.9 15.75 Q260.0 16.35 259.45 16.05 257.45 14.9 254.0 14.65 L246.0 13.85 Q244.85 20.15 248.5 20.8 248.55 21.45 248.75 21.8 L249.5 22.35 250.2 21.95 M256.95 22.55 L257.0 22.35 257.8 22.0 256.95 22.55 M258.0 21.85 L258.0 19.55 Q258.4 20.25 258.0 21.85 M259.8 35.7 Q256.5 34.85 253.25 35.7 L248.15 35.35 Q239.4 32.95 228.0 32.65 L220.95 32.35 Q205.25 31.1 191.95 32.1 L163.0 33.85 Q162.35 36.5 165.0 36.45 194.5 35.85 223.95 36.85 L224.35 37.0 Q226.5 37.85 228.9 38.4 L235.25 38.75 240.0 38.85 Q238.1 41.0 241.05 41.45 L246.5 42.35 246.55 42.75 Q246.8 44.55 249.95 44.7 L268.05 44.1 Q273.55 43.4 272.0 40.85 271.6 35.25 263.9 36.0 L259.8 35.7 M281.0 25.35 L279.4 25.0 280.0 25.85 282.4 25.35 282.8 25.2 281.0 25.35 M279.2 24.9 L278.95 24.7 278.85 24.95 279.2 24.9 M274.55 58.9 L274.5 58.35 Q277.05 57.7 274.0 52.85 L271.3 54.55 Q267.0 56.35 263.0 58.85 263.0 59.85 263.5 60.35 L263.9 60.4 Q266.35 60.85 264.5 62.45 L264.0 62.85 Q267.55 62.95 267.5 63.85 L267.0 74.85 Q267.45 78.3 268.3 76.0 267.1 79.9 269.0 82.85 270.7 86.1 272.55 83.5 273.0 82.85 272.55 82.5 268.55 79.65 272.0 75.85 273.65 76.0 272.35 74.35 L271.4 73.35 Q270.05 72.3 270.45 68.8 L270.5 68.35 271.0 67.85 Q269.8 65.1 272.0 62.85 275.1 64.6 274.55 58.9 M183.8 56.7 Q190.4 58.1 196.9 55.6 L198.0 55.35 Q205.75 55.65 205.0 52.85 L205.0 52.35 Q196.15 52.5 189.0 54.85 178.45 52.3 163.95 53.45 L159.05 53.8 Q147.65 54.5 134.0 53.85 134.0 54.85 134.45 55.55 135.0 56.35 135.6 56.05 141.5 52.95 148.9 56.1 L150.05 56.45 153.05 56.75 176.0 55.85 183.8 56.7 M128.0 12.85 L129.0 12.85 Q126.3 9.55 118.0 10.85 118.0 11.85 118.2 11.9 L128.0 12.85 M62.95 12.75 Q63.5 12.35 63.75 12.45 68.0 14.05 72.0 11.85 L72.0 11.35 59.0 10.85 Q59.55 15.35 62.95 12.75 M56.0 10.85 Q54.5 10.85 53.3 11.45 49.55 13.35 47.1 11.75 46.5 11.35 45.95 11.3 38.4 10.55 44.0 12.85 46.3 13.8 43.0 13.7 L38.75 14.1 Q37.3 14.55 37.85 13.2 L38.0 12.85 Q35.75 10.95 39.0 10.85 41.3 9.9 38.0 10.05 35.8 10.15 34.6 11.5 L32.3 14.1 Q28.4 18.1 29.0 21.85 L28.5 22.35 Q27.0 19.4 25.9 20.75 25.15 21.65 21.05 21.4 L20.5 21.35 Q20.75 26.0 18.0 23.85 18.0 30.25 23.15 26.0 25.4 24.1 29.0 24.85 32.25 24.6 31.15 27.5 L30.95 28.05 Q30.15 31.5 27.0 30.85 27.65 28.75 26.1 29.2 L25.5 29.35 Q24.2 25.85 24.95 30.7 L25.0 30.85 Q21.6 34.2 25.0 37.85 L28.9 35.7 29.5 35.35 Q26.7 34.8 28.9 33.65 33.75 31.0 36.0 33.85 36.3 32.15 38.5 32.35 L38.55 31.9 Q38.85 28.95 41.3 30.2 44.45 31.8 43.0 33.85 39.2 39.7 44.5 34.35 L45.15 33.8 Q50.1 32.95 52.0 29.85 52.0 28.85 51.55 28.1 51.3 27.55 52.95 24.8 53.5 23.85 54.25 23.6 58.4 22.3 57.0 20.85 L56.5 20.35 Q60.45 20.3 62.0 17.85 60.95 16.9 59.0 16.65 50.4 15.75 46.0 18.85 L45.15 18.65 Q39.9 15.55 45.0 14.85 47.95 16.35 50.2 15.4 53.95 13.85 53.0 12.85 L52.5 12.35 Q58.3 13.2 56.0 10.85 M14.0 99.85 L14.0 98.85 14.0 95.75 14.6 99.65 14.0 99.85 M18.0 34.85 L18.25 36.8 Q18.5 37.85 18.25 38.65 16.35 45.3 21.0 45.85 25.15 44.85 21.1 43.55 20.5 43.35 20.55 42.9 21.1 36.75 18.0 34.85 M20.25 52.75 Q22.7 52.05 22.6 49.85 22.45 45.45 20.5 48.2 18.55 50.9 17.0 53.85 16.65 58.65 18.45 57.6 21.45 55.85 20.4 53.65 20.0 52.85 20.25 52.75" fill="#79525a" fill-rule="evenodd" stroke="none"/>
      <path d="M278.3 4.75 Q279.0 5.35 279.0 6.4 279.0 7.15 278.7 7.3 L278.0 7.4 278.4 7.8 278.75 8.05 Q279.25 8.5 279.4 9.5 L279.5 10.7 278.75 14.35 278.6 15.0 Q277.5 13.8 276.25 13.65 L276.25 13.15 276.3 12.85 275.5 13.35 273.3 13.35 273.15 13.1 Q273.0 12.85 273.0 12.1 273.0 11.35 274.3 10.1 L272.25 9.85 259.0 11.35 255.3 11.35 255.15 11.2 Q255.0 11.0 255.0 10.25 L255.1 9.65 253.0 9.5 Q248.3 9.2 242.0 9.35 L241.25 9.2 241.1 9.0 241.0 8.25 241.05 7.55 241.3 7.35 255.65 6.25 257.2 6.05 261.45 5.85 261.75 5.85 262.75 5.85 265.25 5.8 Q266.75 5.85 267.5 6.25 L267.5 6.1 267.55 5.55 267.55 5.3 267.75 4.9 Q276.15 2.95 278.3 4.75 M289.45 19.5 Q289.1 20.55 287.5 22.45 285.45 24.85 284.25 24.85 L284.1 24.85 284.55 24.65 Q286.0 24.0 286.0 23.15 L287.5 21.85 Q289.0 20.4 289.0 19.15 L289.1 16.65 289.15 16.7 289.15 16.8 289.5 19.0 289.45 19.5 M284.5 11.6 L284.55 10.1 Q285.3 10.05 286.0 10.6 L285.55 10.6 285.25 11.8 285.0 13.2 285.0 13.3 Q284.5 12.25 284.5 11.6 M282.5 15.9 Q282.9 15.7 284.65 15.2 L285.35 16.1 285.45 15.65 285.7 16.8 286.5 20.15 283.45 20.6 283.25 20.6 284.0 19.15 284.35 18.6 283.9 18.15 283.5 19.15 Q282.85 20.35 282.0 20.35 280.3 20.35 279.75 19.15 L279.5 17.85 Q279.5 15.85 281.75 16.1 L281.85 16.1 282.45 16.2 282.5 15.9 M284.05 26.2 L285.55 26.8 Q285.15 28.75 284.5 29.35 L284.05 26.2 M271.8 7.5 L271.95 7.7 273.2 7.6 271.8 7.5 M282.7 22.05 L283.0 22.6 281.8 22.65 282.0 22.35 282.6 22.35 282.7 22.05 M281.0 25.35 L282.8 25.2 282.4 25.35 280.0 25.85 279.4 25.0 281.0 25.35 M279.2 24.9 L278.85 24.95 278.95 24.7 279.2 24.9" fill="#8a6263" fill-rule="evenodd" stroke="none"/>
      <path d="M288.55 12.9 L288.35 12.45 288.2 11.85 288.1 11.45 288.55 12.9" fill="#a1817d" fill-rule="evenodd" stroke="none"/>
      <path d="M280.0 93.85 Q282.15 92.9 283.3 93.45 L284.0 90.25 Q284.0 89.65 283.25 88.6 282.5 87.6 282.5 86.5 L283.5 81.95 283.7 81.1 283.3 80.6 Q282.5 79.5 282.5 79.0 L282.8 78.15 Q283.2 77.35 284.0 76.85 L284.55 77.65 284.25 73.5 Q283.95 70.95 286.0 70.35 L286.7 71.0 286.8 72.2 287.0 73.55 287.4 75.3 288.0 78.4 Q287.55 87.95 286.6 93.45 285.8 98.15 284.65 99.9 283.9 97.1 283.5 96.85 282.3 97.0 282.3 98.8 L282.45 101.05 282.1 101.15 281.5 101.35 Q281.35 97.0 278.0 95.85 L278.75 95.6 279.0 94.85 279.75 94.6 280.0 93.85 M284.15 59.8 L284.0 59.85 Q282.85 59.3 282.6 58.25 L282.5 56.5 Q282.5 55.4 284.25 50.4 L285.8 46.1 287.25 46.35 Q287.85 46.35 288.3 45.85 289.0 45.15 289.0 43.7 289.0 43.1 288.5 42.55 288.0 42.0 288.0 41.35 L289.25 37.75 289.7 36.5 290.0 36.85 290.5 38.1 Q290.5 45.1 289.3 48.25 L284.8 59.0 284.55 59.6 284.15 59.8" fill="#6f484f" fill-rule="evenodd" stroke="none"/>
      <path d="M277.6 1.95 Q279.0 3.15 279.0 3.5 279.0 4.3 278.7 4.55 L278.45 4.7 278.3 4.75 Q276.15 2.95 267.75 4.9 L267.55 5.3 267.55 5.55 261.75 5.85 261.45 5.85 260.15 5.75 259.5 5.6 259.25 4.75 259.1 4.35 259.0 3.65 263.85 3.05 272.0 2.1 272.05 2.05 277.5 1.85 277.6 1.95 M241.1 9.0 L234.5 9.35 231.0 9.35 230.25 9.2 230.05 8.7 230.0 8.25 230.05 7.55 230.3 7.35 235.95 6.9 248.45 5.15 250.0 4.95 257.3 4.75 258.3 4.9 258.5 5.35 Q256.75 5.7 255.65 6.25 L241.3 7.35 241.05 7.55 241.0 8.25 241.1 9.0 M263.5 98.45 Q263.4 97.9 263.45 97.2 263.15 97.95 262.0 97.85 256.85 97.55 248.0 97.85 L247.3 97.0 247.5 96.45 247.3 95.9 Q246.2 95.75 242.15 94.35 L240.05 93.85 Q239.05 92.8 239.0 90.85 246.05 90.95 243.0 87.85 L244.0 87.95 Q248.6 88.3 256.0 86.85 256.35 91.6 262.2 89.45 L263.1 89.6 Q266.7 91.15 270.0 92.85 L271.0 93.4 271.0 93.5 271.4 94.35 272.5 95.35 273.1 94.95 273.55 95.35 274.85 95.5 Q276.8 94.65 278.0 92.85 278.0 93.85 278.4 94.65 278.5 94.85 279.0 94.85 L278.75 95.6 278.0 95.85 Q281.35 97.0 281.5 101.35 L282.1 101.15 282.45 101.05 282.5 101.65 Q282.4 104.1 281.45 105.05 280.85 105.65 280.65 106.2 L279.85 106.8 278.5 108.0 278.2 109.0 277.5 109.35 270.3 109.35 270.15 109.2 270.05 108.75 270.0 108.25 Q270.0 107.6 271.6 107.1 L272.2 106.9 272.3 106.9 Q277.6 98.05 266.0 98.85 L266.0 99.45 265.95 98.85 Q265.75 97.9 265.0 97.35 264.65 97.45 263.5 98.45 M267.0 94.4 L266.3 95.75 Q266.0 96.45 266.0 97.25 266.0 98.0 266.15 98.2 L266.3 98.35 269.5 98.35 270.05 97.8 271.0 97.85 272.75 97.65 273.0 96.45 272.55 95.6 270.55 95.65 Q269.85 95.8 269.45 96.05 L268.8 95.6 267.0 94.4 M281.35 109.1 Q280.45 110.2 279.15 110.9 L279.6 110.4 281.35 109.1" fill="#8e605d" fill-rule="evenodd" stroke="none"/>
      <path d="M279.4 9.5 Q282.55 6.9 283.45 11.6 L280.7 13.5 278.75 15.1 278.6 15.0 278.75 14.35 279.5 10.7 279.4 9.5 M281.85 16.1 L282.4 15.9 282.5 15.9 282.45 16.2 281.85 16.1" fill="#986c67" fill-rule="evenodd" stroke="none"/>
      <path d="M272.05 2.05 L272.0 2.1 263.85 3.05 259.0 3.65 259.1 4.35 257.3 4.75 250.0 4.95 244.0 3.85 256.95 3.35 257.0 2.85 272.05 2.05" fill="#d1917b" fill-rule="evenodd" stroke="none"/>
      <path d="M257.0 2.85 L256.95 3.35 244.0 3.85 243.0 3.9 Q234.25 4.6 228.0 2.85 L257.0 2.35 257.0 2.85" fill="#d8ad95" fill-rule="evenodd" stroke="none"/>
      <path d="M244.0 3.85 L250.0 4.95 248.45 5.15 235.95 6.9 Q230.2 6.65 224.0 6.85 L222.9 6.1 Q217.75 4.1 210.05 5.2 L208.0 5.4 Q200.0 5.85 192.05 5.4 L191.0 5.35 Q184.25 5.6 180.0 3.85 L183.0 3.85 184.0 3.85 Q194.3 4.15 202.9 2.35 L203.0 1.85 211.0 1.85 212.0 1.85 227.0 2.85 228.0 2.85 Q234.25 4.6 243.0 3.9 L244.0 3.85" fill="#cb836e" fill-rule="evenodd" stroke="none"/>
      <path d="M258.0 19.55 L258.0 19.15 Q253.8 16.6 250.9 17.6 248.5 18.4 248.5 20.5 L248.5 20.8 Q244.85 20.15 246.0 13.85 L254.0 14.65 Q257.45 14.9 259.45 16.05 260.0 16.35 260.9 15.75 L262.0 14.85 261.55 19.45 261.5 19.4 260.85 20.8 260.0 22.15 Q259.3 21.0 258.5 21.5 L258.0 21.85 Q258.4 20.25 258.0 19.55 M261.75 24.5 L261.75 24.75 Q262.2 27.9 259.55 26.2 L259.75 26.05 261.75 24.5" fill="#6d4851" fill-rule="evenodd" stroke="none"/>
      <path d="M257.0 22.35 Q256.15 21.65 255.9 20.3 255.8 19.6 253.9 19.6 250.9 19.6 250.4 20.45 L250.25 21.9 250.2 21.95 249.5 22.35 248.75 21.8 Q248.55 21.45 248.5 20.8 L248.5 20.5 Q248.5 18.4 250.9 17.6 253.8 16.6 258.0 19.15 L258.0 19.55 258.0 21.85 257.8 22.0 257.0 22.35 M152.0 108.85 L151.1 109.05 Q147.9 110.7 143.45 111.1 L141.5 111.85 137.7 111.85 135.25 112.35 134.3 112.25 134.3 112.1 134.05 111.9 134.05 111.85 132.65 111.85 130.8 111.85 130.65 111.6 130.5 111.0 107.0 111.85 106.0 111.85 102.0 111.85 101.95 111.35 Q82.7 109.45 63.8 110.3 L63.0 110.6 60.4 111.6 58.5 112.35 56.3 112.35 56.25 112.3 46.55 110.85 35.0 110.85 Q31.0 110.85 27.25 111.8 L26.85 111.9 Q17.95 113.4 12.0 110.85 L11.95 110.35 Q8.75 110.1 9.0 106.85 13.85 104.4 20.2 105.95 24.0 106.85 28.0 106.8 L37.55 106.75 37.5 106.65 39.75 106.4 40.1 106.75 40.15 106.8 49.05 107.05 56.1 106.8 71.0 106.25 Q92.45 107.4 113.0 105.85 126.6 105.75 138.05 107.3 L146.0 107.85 154.15 103.05 155.0 102.85 156.0 102.85 156.8 102.95 157.2 102.65 Q161.0 99.65 162.4 99.4 L162.45 99.35 162.5 99.35 162.85 99.1 169.0 93.85 169.7 94.0 169.9 94.2 170.0 94.85 Q170.0 95.35 169.45 96.1 168.05 97.85 163.4 100.75 L161.95 102.3 159.5 104.15 157.5 105.55 Q156.7 107.35 152.0 107.85 L152.0 108.85 M250.15 101.2 L251.0 101.35 Q253.55 102.3 253.95 104.55 L253.95 104.6 Q252.6 104.7 251.85 105.4 L251.55 105.0 Q250.7 103.8 249.55 103.65 L249.15 103.6 248.0 103.8 247.75 103.9 Q247.05 104.2 246.9 104.95 L246.8 105.6 246.0 105.35 245.15 105.5 245.05 105.85 245.05 105.9 245.0 105.35 Q245.0 103.65 245.8 102.55 247.1 100.7 250.15 101.2 M34.25 21.9 L33.5 22.35 32.75 22.0 Q32.5 21.75 32.5 20.9 32.5 18.45 35.7 17.5 39.05 16.45 41.0 20.15 L40.75 20.9 Q40.55 21.35 39.75 21.35 L39.35 21.3 39.0 20.9 Q38.9 20.4 38.25 20.4 36.3 20.4 34.9 21.3 L34.25 21.9" fill="#68434c" fill-rule="evenodd" stroke="none"/>
      <path d="M188.0 85.85 Q189.55 86.85 194.05 86.7 L212.05 85.55 Q216.25 85.1 218.5 83.5 221.2 81.55 224.8 80.3 229.35 78.7 235.5 78.35 L235.0 77.85 Q230.1 75.75 225.7 73.45 224.5 72.85 223.05 72.6 L207.0 71.95 Q198.3 72.55 192.0 70.85 195.25 69.1 201.0 68.95 211.3 68.65 222.0 68.5 224.65 68.5 225.0 66.0 L226.0 65.8 Q234.1 65.45 240.0 62.85 241.5 57.85 239.05 57.55 234.75 57.05 235.0 54.85 L223.9 55.4 223.1 55.25 218.9 54.35 Q215.4 53.55 218.0 51.85 221.2 47.55 229.9 49.4 235.15 50.5 240.15 48.2 246.8 45.15 257.0 45.5 266.5 45.85 274.0 47.85 269.6 51.55 263.9 50.25 261.3 49.65 260.25 51.4 260.0 51.85 259.0 51.8 255.35 51.7 255.0 54.85 254.35 57.0 257.1 56.5 L259.05 56.7 Q263.65 58.15 261.0 61.85 256.45 63.3 256.5 68.85 L257.0 68.85 Q260.75 71.1 262.65 75.55 L264.2 79.2 266.0 83.85 Q265.9 86.95 270.05 86.45 271.0 86.35 271.45 87.15 272.75 89.55 276.0 89.85 277.4 83.25 278.4 75.9 279.1 70.95 280.5 72.35 281.0 72.85 281.15 73.85 281.7 77.55 280.0 78.85 L280.0 77.85 280.0 76.85 Q279.0 78.35 278.0 80.85 L278.0 91.85 278.0 92.85 Q276.8 94.65 274.85 95.5 L273.55 95.35 273.1 94.95 273.5 94.4 Q273.4 93.75 272.75 93.2 272.0 92.6 271.05 92.6 L271.0 93.4 270.0 92.85 Q266.7 91.15 263.1 89.6 L262.2 89.45 Q256.35 91.6 256.0 86.85 248.6 88.3 244.0 87.95 L243.0 87.85 Q246.05 90.95 239.0 90.85 239.05 92.8 240.05 93.85 L242.15 94.35 Q246.2 95.75 247.3 95.9 L247.5 96.45 247.3 97.0 248.0 97.85 Q256.85 97.55 262.0 97.85 263.15 97.95 263.45 97.2 263.4 97.9 263.5 98.45 L262.85 99.0 262.3 99.55 Q259.6 98.25 255.0 98.85 255.05 100.8 256.2 101.6 259.1 103.5 261.9 102.7 262.7 103.35 264.25 103.35 L265.0 103.3 Q262.85 104.4 259.0 103.85 L258.0 103.9 253.95 104.55 Q253.55 102.3 251.0 101.35 L250.15 101.2 Q250.0 100.05 252.0 99.9 L253.0 99.85 250.5 98.85 Q249.55 99.5 248.65 99.75 L242.75 100.35 237.8 100.1 Q237.5 100.5 237.5 99.25 237.5 98.7 239.8 97.35 236.3 97.1 234.0 95.85 L235.0 95.85 235.5 95.85 234.45 95.7 231.8 95.35 231.65 95.2 Q231.5 95.0 231.5 94.25 231.5 93.5 232.0 93.35 L232.5 93.35 236.85 93.55 236.7 92.95 236.5 92.35 Q239.85 91.35 236.35 89.95 232.45 88.4 226.1 89.5 217.65 91.0 207.0 91.3 206.0 91.35 206.0 91.85 205.95 94.6 200.0 94.85 208.3 99.55 219.9 101.5 L231.1 103.15 Q234.75 103.6 238.05 103.15 L243.0 102.85 242.9 103.4 234.0 105.85 233.0 105.85 Q205.85 106.6 183.0 103.0 L183.0 103.35 Q183.0 104.85 182.35 105.9 L208.0 107.45 237.0 108.85 238.0 108.85 Q237.2 110.55 233.95 110.2 L228.15 110.55 217.0 111.1 211.15 110.75 211.05 110.6 206.05 110.45 Q182.95 109.35 162.0 110.85 L161.0 110.8 Q158.8 110.55 159.0 107.85 165.9 107.5 164.6 102.7 164.5 102.35 165.1 102.15 169.95 100.3 172.4 96.5 172.5 96.35 172.0 96.35 171.0 96.35 170.0 96.85 L169.8 96.25 169.45 96.1 Q170.0 95.35 170.0 94.85 L169.9 94.2 Q174.6 92.3 175.7 89.1 176.9 85.75 183.05 86.25 L185.05 86.15 188.0 85.85 M250.85 23.7 L256.8 22.6 256.95 22.55 257.8 22.0 258.0 21.85 258.5 21.5 Q259.3 21.0 260.0 22.15 L260.85 20.8 261.5 19.4 261.55 19.45 Q262.55 19.95 263.1 20.9 L263.5 21.95 Q263.5 22.9 261.75 24.5 L259.75 26.05 259.55 26.2 255.5 28.85 Q254.35 28.45 254.4 27.75 254.65 27.0 254.5 26.6 L248.0 26.35 Q247.1 26.05 246.05 25.35 L246.0 24.7 Q246.0 23.85 248.4 23.8 L250.85 23.7 M246.5 97.85 L245.05 98.1 247.75 98.0 246.7 97.75 246.5 97.85 M235.9 95.85 L239.2 95.7 237.25 95.5 235.9 95.85 M247.0 108.65 Q246.05 108.35 245.5 107.75 245.0 107.15 245.0 106.5 L245.05 105.9 245.05 105.85 245.15 105.5 246.0 105.35 246.8 105.6 247.35 106.0 Q248.05 106.6 248.65 106.6 250.75 106.6 251.7 105.55 L251.85 105.4 Q252.6 104.7 253.95 104.6 L254.55 104.6 255.0 105.35 Q254.5 106.15 252.8 107.3 250.7 108.8 248.9 108.85 L248.35 108.85 247.0 108.65 M179.0 105.8 L179.55 105.35 Q180.05 104.85 180.65 102.95 L180.75 102.75 Q177.4 98.65 172.0 102.85 172.2 107.85 173.45 104.0 173.5 103.85 174.0 103.85 L174.2 104.75 Q174.8 105.95 174.85 106.75 L178.2 106.25 178.7 106.0 179.0 105.8 M267.0 100.85 L266.75 101.7 265.9 102.7 266.0 102.4 266.0 100.35 266.0 99.95 Q266.0 100.35 266.25 100.6 L267.0 100.85 M249.55 103.65 L248.0 103.85 248.0 103.8 249.15 103.6 249.55 103.65" fill="#81595d" fill-rule="evenodd" stroke="none"/>
      <path d="M259.8 35.7 L263.9 36.0 Q271.6 35.25 272.0 40.85 273.55 43.4 268.05 44.1 L249.95 44.7 Q246.8 44.55 246.55 42.75 L246.5 42.35 241.05 41.45 Q238.1 41.0 240.0 38.85 L235.25 38.75 228.9 38.4 Q226.5 37.85 224.35 37.0 L223.95 36.85 Q194.5 35.85 165.0 36.45 162.35 36.5 163.0 33.85 L191.95 32.1 Q205.25 31.1 220.95 32.35 L228.0 32.65 Q239.4 32.95 248.15 35.35 L253.25 35.7 Q256.5 34.85 259.8 35.7" fill="#7f585d" fill-rule="evenodd" stroke="none"/>
      <path d="M274.55 58.9 Q275.1 64.6 272.0 62.85 269.8 65.1 271.0 67.85 L270.5 68.35 270.45 68.8 Q270.05 72.3 271.4 73.35 L272.35 74.35 Q273.65 76.0 272.0 75.85 268.55 79.65 272.55 82.5 273.0 82.85 272.55 83.5 270.7 86.1 269.0 82.85 267.1 79.9 268.3 76.0 267.45 78.3 267.0 74.85 L267.5 63.85 Q267.55 62.95 264.0 62.85 L264.5 62.45 Q266.35 60.85 263.9 60.4 L263.5 60.35 Q263.0 59.85 263.0 58.85 267.0 56.35 271.3 54.55 L274.0 52.85 Q277.05 57.7 274.5 58.35 L274.55 58.9 M62.95 12.75 Q59.55 15.35 59.0 10.85 L72.0 11.35 72.0 11.85 Q68.0 14.05 63.75 12.45 63.5 12.35 62.95 12.75 M20.25 52.75 Q20.0 52.85 20.4 53.65 21.45 55.85 18.45 57.6 16.65 58.65 17.0 53.85 18.55 50.9 20.5 48.2 22.45 45.45 22.6 49.85 22.7 52.05 20.25 52.75" fill="#6c4752" fill-rule="evenodd" stroke="none"/>
      <path d="M246.5 97.85 L246.7 97.75 247.75 98.0 245.05 98.1 246.5 97.85 M243.0 102.85 L238.05 103.15 Q234.75 103.6 231.1 103.15 L219.9 101.5 Q208.3 99.55 200.0 94.85 205.95 94.6 206.0 91.85 206.0 91.35 207.0 91.3 217.65 91.0 226.1 89.5 232.45 88.4 236.35 89.95 239.85 91.35 236.5 92.35 L236.7 92.95 236.85 93.55 232.5 93.35 232.0 93.35 Q231.5 93.5 231.5 94.25 231.5 95.0 231.65 95.2 L231.8 95.35 234.45 95.7 235.5 95.85 235.0 95.85 234.0 95.85 Q236.3 97.1 239.8 97.35 237.5 98.7 237.5 99.25 237.5 100.5 237.8 100.1 L242.75 100.35 248.65 99.75 Q249.55 99.5 250.5 98.85 L253.0 99.85 252.0 99.9 Q250.0 100.05 250.15 101.2 247.1 100.7 245.8 102.55 245.0 103.65 245.0 105.35 L243.0 102.85 M235.9 95.85 L237.25 95.5 239.2 95.7 235.9 95.85 M248.0 103.85 L247.75 103.9 248.0 103.8 248.0 103.85" fill="#734e56" fill-rule="evenodd" stroke="none"/>
      <path d="M280.0 78.85 L280.0 92.85 280.0 93.85 279.75 94.6 279.0 94.85 Q278.5 94.85 278.4 94.65 278.0 93.85 278.0 92.85 L278.0 91.85 278.0 80.85 Q279.0 78.35 280.0 76.85 L280.0 77.85 280.0 78.85" fill="#8b6364" fill-rule="evenodd" stroke="none"/>
      <path d="M271.0 93.4 L271.05 92.6 Q272.0 92.6 272.75 93.2 273.4 93.75 273.5 94.4 L273.1 94.95 272.5 95.35 271.4 94.35 271.0 93.5 271.0 93.4 M267.0 94.4 L268.8 95.6 269.45 96.05 Q269.85 95.8 270.55 95.65 L272.55 95.6 273.0 96.45 272.75 97.65 271.0 97.85 270.05 97.8 269.5 98.35 266.3 98.35 266.15 98.2 Q266.0 98.0 266.0 97.25 266.0 96.45 266.3 95.75 L267.0 94.4 M263.5 98.45 Q264.65 97.45 265.0 97.35 265.75 97.9 265.95 98.85 L266.0 99.45 266.0 99.95 266.0 100.35 266.0 102.4 265.9 102.7 265.0 103.3 264.25 103.35 Q262.7 103.35 261.9 102.7 L261.5 102.35 Q261.0 101.75 261.0 101.2 261.0 100.75 262.3 99.55 L262.85 99.0 263.5 98.45 M56.0 10.85 Q58.3 13.2 52.5 12.35 L53.0 12.85 Q53.95 13.85 50.2 15.4 47.95 16.35 45.0 14.85 39.9 15.55 45.15 18.65 L46.0 18.85 Q50.4 15.75 59.0 16.65 60.95 16.9 62.0 17.85 60.45 20.3 56.5 20.35 L57.0 20.85 Q58.4 22.3 54.25 23.6 53.5 23.85 52.95 24.8 51.3 27.55 51.55 28.1 52.0 28.85 52.0 29.85 50.1 32.95 45.15 33.8 L44.5 34.35 Q39.2 39.7 43.0 33.85 44.45 31.8 41.3 30.2 38.85 28.95 38.55 31.9 L38.5 32.35 Q36.3 32.15 36.0 33.85 33.75 31.0 28.9 33.65 26.7 34.8 29.5 35.35 L28.9 35.7 25.0 37.85 Q21.6 34.2 25.0 30.85 L24.95 30.7 Q24.2 25.85 25.5 29.35 L26.1 29.2 Q27.65 28.75 27.0 30.85 30.15 31.5 30.95 28.05 L31.15 27.5 Q32.25 24.6 29.0 24.85 25.4 24.1 23.15 26.0 18.0 30.25 18.0 23.85 20.75 26.0 20.5 21.35 L21.05 21.4 Q25.15 21.65 25.9 20.75 27.0 19.4 28.5 22.35 L29.0 21.85 Q28.4 18.1 32.3 14.1 L34.6 11.5 Q35.8 10.15 38.0 10.05 41.3 9.9 39.0 10.85 35.75 10.95 38.0 12.85 L37.85 13.2 Q37.3 14.55 38.75 14.1 L43.0 13.7 Q46.3 13.8 44.0 12.85 38.4 10.55 45.95 11.3 46.5 11.35 47.1 11.75 49.55 13.35 53.3 11.45 54.5 10.85 56.0 10.85 M39.35 21.3 L39.75 21.35 Q40.55 21.35 40.75 20.9 L41.0 20.15 Q39.05 16.45 35.7 17.5 32.5 18.45 32.5 20.9 32.5 21.75 32.75 22.0 L33.5 22.35 34.25 21.9 Q35.0 25.2 38.3 23.35 39.6 22.6 39.35 21.3" fill="#6d4852" fill-rule="evenodd" stroke="none"/>
      <path d="M287.0 69.85 Q286.0 68.85 285.65 67.65 284.6 64.0 284.15 59.8 L284.55 59.6 284.8 59.0 Q285.2 64.6 286.85 68.9 L287.0 69.85" fill="#a48480" fill-rule="evenodd" stroke="none"/>
      <path d="M270.05 108.75 L270.15 109.2 270.3 109.35 277.5 109.35 278.2 109.0 278.5 108.0 279.85 106.8 280.65 106.2 Q280.85 105.65 281.45 105.05 282.4 104.1 282.5 101.65 L282.45 101.05 282.3 98.8 Q282.3 97.0 283.5 96.85 283.9 97.1 284.65 99.9 L284.75 100.25 284.95 101.0 285.5 103.95 Q285.5 105.65 284.95 106.3 L283.5 107.2 282.6 108.1 281.35 109.1 279.6 110.4 279.15 110.9 277.5 112.2 Q275.15 113.85 274.25 113.85 L273.7 113.8 272.0 113.85 271.0 113.85 253.7 113.3 Q250.15 114.85 246.0 114.85 242.65 114.85 240.15 113.7 L238.8 113.0 232.05 112.9 Q231.1 113.15 230.0 113.55 L230.0 113.85 229.2 113.85 228.0 114.35 214.55 114.6 210.85 114.7 206.65 114.6 Q206.05 114.6 204.85 115.25 L203.0 115.85 Q201.75 115.85 200.05 114.85 L193.0 114.85 185.9 114.85 184.0 114.85 183.0 114.85 183.0 114.7 181.3 114.4 180.8 114.25 Q171.4 113.85 162.0 113.85 L161.0 113.95 Q155.5 114.85 154.0 111.85 L161.95 111.35 162.0 110.85 Q182.95 109.35 206.05 110.45 L211.05 110.6 211.15 110.75 217.0 111.1 228.15 110.55 233.95 110.2 Q237.2 110.55 238.0 108.85 L239.0 108.85 240.0 108.85 Q246.5 112.25 253.85 109.4 L254.0 108.85 256.9 109.15 257.05 109.1 257.15 109.2 257.3 109.2 257.35 109.15 257.4 109.2 270.05 108.75" fill="#69434c" fill-rule="evenodd" stroke="none"/>
      <path d="M180.0 3.85 Q184.25 5.6 191.0 5.35 L192.05 5.4 Q200.0 5.85 208.0 5.4 L210.05 5.2 Q217.75 4.1 222.9 6.1 L224.0 6.85 223.05 6.7 221.0 5.85 208.0 7.05 Q187.95 7.9 172.0 4.85 L172.0 3.85 179.0 3.85 180.0 3.85" fill="#c47d6b" fill-rule="evenodd" stroke="none"/>
      <path d="M230.05 8.7 L218.0 7.85 218.0 6.85 220.85 6.4 221.0 5.85 223.05 6.7 224.0 6.85 Q230.2 6.65 235.95 6.9 L230.3 7.35 230.05 7.55 230.0 8.25 230.05 8.7" fill="#905e5b" fill-rule="evenodd" stroke="none"/>
      <path d="M218.0 7.85 L217.0 7.85 181.0 7.85 180.0 7.8 Q173.2 7.15 168.0 4.85 L171.0 4.85 172.0 4.85 Q187.95 7.9 208.0 7.05 L221.0 5.85 220.85 6.4 218.0 6.85 218.0 7.85" fill="#9e6b65" fill-rule="evenodd" stroke="none"/>
      <path d="M212.0 1.85 L211.0 1.85 203.0 1.85 202.0 1.85 195.0 1.85 194.0 1.85 190.0 1.85 190.0 0.85 Q201.0 0.85 212.0 1.35 L212.0 1.85" fill="#d6b5a0" fill-rule="evenodd" stroke="none"/>
      <path d="M203.0 1.85 L202.9 2.35 Q194.3 4.15 184.0 3.85 L184.0 2.85 194.95 2.35 195.0 1.85 202.0 1.85 203.0 1.85" fill="#cd907b" fill-rule="evenodd" stroke="none"/>
      <path d="M184.0 3.85 L183.0 3.85 180.0 3.85 179.0 3.85 172.0 3.85 171.0 3.85 151.5 3.85 151.3 3.4 149.0 3.3 149.0 2.85 Q167.1 3.45 183.0 1.9 L184.0 1.85 189.0 1.85 190.0 1.85 194.0 1.85 195.0 1.85 194.95 2.35 184.0 2.85 184.0 3.85" fill="#d09e88" fill-rule="evenodd" stroke="none"/>
      <path d="M91.0 0.85 Q118.85 -0.15 148.0 0.05 158.65 0.1 166.0 0.45 L182.95 1.3 184.0 1.85 183.0 1.9 Q167.1 3.45 149.0 2.85 L149.0 3.3 144.3 3.75 143.45 3.85 140.5 3.85 134.3 3.45 131.5 3.6 123.6 4.15 121.95 4.3 120.9 4.05 119.9 4.1 118.35 4.3 117.55 4.45 Q110.85 4.8 107.15 2.9 L106.0 2.35 105.0 3.35 96.65 3.35 95.0 3.35 94.25 3.2 Q94.0 3.0 94.0 2.25 L94.0 1.95 91.0 1.85 91.0 0.85 M114.15 3.0 L110.65 2.9 112.15 3.1 114.15 3.0 M12.9 11.45 L11.75 11.85 10.8 11.75 10.8 11.6 Q10.5 12.0 10.5 10.75 10.5 9.7 17.55 7.4 L17.7 7.35 16.0 7.35 15.25 7.2 Q15.0 7.05 15.0 6.25 15.0 5.45 15.25 5.35 L16.0 5.35 32.3 5.1 33.0 4.85 33.25 4.95 Q36.45 4.2 40.8 3.95 44.45 3.75 47.55 3.85 L47.8 4.0 Q48.0 4.1 48.0 4.8 L48.0 4.85 Q48.0 5.4 42.05 6.6 L33.3 7.8 32.6 7.85 31.75 7.85 30.7 7.8 30.5 7.85 23.65 7.85 Q20.0 8.75 18.5 9.4 L12.9 11.45 M11.6 13.5 L12.0 16.65 12.0 19.75 Q12.0 21.0 12.7 23.4 L12.8 23.75 13.0 24.45 13.0 24.85 Q12.75 26.2 10.95 28.2 9.0 30.4 7.5 30.85 L7.1 30.8 6.75 30.7 Q6.5 30.55 6.5 29.75 6.5 29.3 8.25 25.5 10.0 21.75 10.0 21.1 L10.05 16.55 Q10.3 13.9 11.5 12.85 L11.6 13.5" fill="#e1b498" fill-rule="evenodd" stroke="none"/>
      <path d="M181.0 7.85 Q175.95 9.9 170.1 7.6 L168.95 7.3 143.15 5.9 146.35 5.35 148.85 4.85 167.0 4.85 168.0 4.85 Q173.2 7.15 180.0 7.8 L181.0 7.85 M136.05 5.85 L131.2 5.85 133.65 5.6 136.05 5.7 136.05 5.85" fill="#8b5e5d" fill-rule="evenodd" stroke="none"/>
      <path d="M151.5 3.85 L171.0 3.85 172.0 3.85 172.0 4.85 171.0 4.85 168.0 4.85 167.0 4.85 148.85 4.85 Q150.65 4.4 151.5 3.85 M143.45 3.85 L140.95 4.15 140.5 3.85 143.45 3.85" fill="#b18072" fill-rule="evenodd" stroke="none"/>
      <path d="M183.8 56.7 L176.0 55.85 153.05 56.75 150.05 56.45 148.9 56.1 Q141.5 52.95 135.6 56.05 135.0 56.35 134.45 55.55 134.0 54.85 134.0 53.85 147.65 54.5 159.05 53.8 L163.95 53.45 Q178.45 52.3 189.0 54.85 196.15 52.5 205.0 52.35 L205.0 52.85 Q205.75 55.65 198.0 55.35 L196.9 55.6 Q190.4 58.1 183.8 56.7" fill="#7e575d" fill-rule="evenodd" stroke="none"/>
      <path d="M22.7 97.9 Q25.85 96.25 29.75 95.05 32.35 94.2 34.0 91.85 L47.0 92.75 Q50.2 92.65 51.5 94.35 L51.8 94.45 Q54.7 95.5 59.0 93.85 61.25 95.6 63.95 96.9 68.2 99.0 73.2 97.45 L74.0 97.35 Q80.75 97.1 85.15 98.15 L86.9 98.5 102.0 99.5 Q110.6 99.45 115.0 95.85 116.4 94.4 111.0 94.55 L95.0 93.75 Q85.0 92.35 73.0 88.85 78.8 87.15 87.0 87.15 L94.0 87.1 123.0 86.95 Q133.9 86.95 140.3 90.25 141.5 90.85 143.0 90.85 156.0 90.85 169.0 90.35 169.5 90.35 170.0 89.85 L171.0 88.85 Q174.05 84.4 168.05 83.95 167.0 83.85 165.9 83.0 165.0 82.35 164.0 81.85 L164.0 81.35 Q161.9 81.5 162.0 79.85 L164.7 75.3 Q165.0 74.85 165.9 74.55 171.2 72.7 173.85 78.45 L174.0 79.0 Q175.0 85.6 180.0 82.85 183.9 84.35 182.75 80.6 L182.2 79.25 181.85 78.5 Q181.3 77.15 183.0 76.85 185.95 75.45 188.5 79.35 L189.0 79.35 Q193.0 79.3 191.8 81.3 191.5 81.85 191.55 82.9 191.7 84.55 189.1 84.8 188.5 84.85 188.0 85.85 L185.05 86.15 183.05 86.25 Q176.9 85.75 175.7 89.1 174.6 92.3 169.9 94.2 L169.7 94.0 169.0 93.85 162.85 99.1 162.45 99.35 162.4 99.4 Q161.0 99.65 157.2 102.65 L156.8 102.95 156.0 102.85 155.0 102.85 155.0 102.35 Q134.2 103.45 111.0 101.85 109.95 100.9 108.0 100.9 L105.0 100.9 Q94.8 101.15 87.0 102.85 89.25 104.6 93.95 104.85 L94.1 104.85 Q102.8 105.65 111.0 104.85 L112.8 105.25 113.0 105.85 Q92.45 107.4 71.0 106.25 L56.1 106.8 49.05 107.05 40.15 106.8 40.1 106.75 39.75 106.4 37.5 106.65 37.55 106.75 28.0 106.8 Q24.0 106.85 20.2 105.95 13.85 104.4 9.0 106.85 L9.0 105.85 9.35 105.65 9.3 105.4 Q9.45 105.65 9.5 104.85 L11.85 104.4 12.0 103.85 14.0 103.85 15.0 103.85 24.1 104.9 36.0 105.25 70.0 103.85 Q66.75 102.1 61.0 102.35 L59.95 102.3 23.55 100.0 Q25.05 99.4 28.0 99.35 L27.8 98.9 22.7 97.9 M154.0 111.85 L153.5 111.85 Q154.9 108.6 152.0 108.85 L152.0 107.85 Q156.7 107.35 157.5 105.55 L159.5 104.15 161.95 102.3 Q163.05 102.1 164.75 100.6 167.15 98.5 170.0 96.85 171.0 96.35 172.0 96.35 172.5 96.35 172.4 96.5 169.95 100.3 165.1 102.15 164.5 102.35 164.6 102.7 165.9 107.5 159.0 107.85 158.8 110.55 161.0 110.8 L162.0 110.85 161.95 111.35 154.0 111.85" fill="#765057" fill-rule="evenodd" stroke="none"/>
      <path d="M34.0 91.85 Q32.3 93.5 31.7 91.95 31.5 91.35 31.05 91.4 20.6 92.75 21.0 83.85 25.7 78.05 29.4 71.05 29.5 70.85 30.0 70.85 29.25 65.1 30.4 61.65 L31.55 58.0 Q32.25 55.6 34.0 53.85 40.15 54.35 38.6 50.6 38.5 50.35 38.7 49.75 40.75 43.6 45.65 40.35 50.35 37.2 54.0 32.85 L73.85 29.05 Q76.15 28.65 72.0 28.85 65.2 30.15 66.0 25.0 L67.0 24.85 68.0 24.85 Q97.5 24.85 127.0 25.45 133.25 25.6 139.0 25.4 146.65 25.2 152.0 26.85 148.75 30.1 140.95 29.25 137.55 28.9 135.55 30.15 134.5 30.85 133.05 31.1 131.6 31.35 133.0 32.85 L132.0 32.85 125.0 32.85 Q127.85 38.8 120.0 38.65 116.2 38.55 113.65 40.3 L111.25 40.25 Q111.0 39.85 110.0 39.85 106.7 39.9 109.0 40.85 112.5 43.5 106.1 45.2 L104.9 45.7 Q103.0 46.85 100.95 47.0 96.0 47.35 93.6 49.35 93.0 49.85 92.0 49.8 87.2 49.5 89.0 50.85 91.45 53.8 86.1 54.65 L83.0 54.85 80.0 54.85 Q77.8 58.15 73.85 59.35 69.35 60.7 67.0 63.85 72.45 65.9 78.15 67.25 L78.75 67.45 Q83.8 69.55 90.05 69.9 99.6 70.45 109.0 70.4 117.0 70.35 125.0 70.8 133.1 71.25 139.0 73.85 135.25 75.6 129.0 74.75 L114.0 72.95 Q106.25 72.1 101.5 74.35 L101.8 74.95 102.0 75.85 Q91.4 74.15 82.0 73.9 L79.0 74.05 Q74.65 74.5 71.5 76.35 L71.45 76.4 Q69.95 78.3 66.0 77.85 60.55 78.9 68.95 79.5 L76.85 80.55 Q81.0 81.3 83.0 79.85 83.3 75.15 90.05 76.65 L96.15 77.9 Q99.35 78.5 100.45 80.2 101.65 82.0 100.4 82.65 100.0 82.85 100.0 83.85 96.2 81.8 94.0 84.85 L95.0 84.85 96.0 84.85 Q111.2 85.2 124.0 84.85 L125.0 84.85 Q121.15 83.7 116.95 83.55 111.1 83.3 107.0 81.85 108.2 78.55 114.05 79.25 L124.8 80.8 125.0 80.85 146.05 82.25 148.0 82.35 164.0 81.85 Q165.0 82.35 165.9 83.0 167.0 83.85 168.05 83.95 174.05 84.4 171.0 88.85 L170.0 89.85 Q169.5 90.35 169.0 90.35 156.0 90.85 143.0 90.85 141.5 90.85 140.3 90.25 133.9 86.95 123.0 86.95 L94.0 87.1 87.0 87.15 Q78.8 87.15 73.0 88.85 85.0 92.35 95.0 93.75 L111.0 94.55 Q116.4 94.4 115.0 95.85 110.6 99.45 102.0 99.5 L86.9 98.5 85.15 98.15 Q80.75 97.1 74.0 97.35 L73.2 97.45 Q68.2 99.0 63.95 96.9 61.25 95.6 59.0 93.85 54.7 95.5 51.8 94.45 L51.5 94.35 Q50.2 92.65 47.0 92.75 L34.0 91.85" fill="#815a5f" fill-rule="evenodd" stroke="none"/>
      <path d="M169.45 96.1 L169.8 96.25 170.0 96.85 Q167.15 98.5 164.75 100.6 163.05 102.1 161.95 102.3 L163.4 100.75 Q168.05 97.85 169.45 96.1 M162.45 99.35 L162.85 99.1 162.5 99.35 162.45 99.35" fill="#8f5b5b" fill-rule="evenodd" stroke="none"/>
      <path d="M237.0 108.85 L208.0 107.45 182.35 105.9 Q183.0 104.85 183.0 103.35 L183.0 103.0 Q205.85 106.6 233.0 105.85 L234.0 105.85 233.9 106.4 230.0 106.85 Q232.25 108.6 237.0 108.35 L237.0 108.85" fill="#91605d" fill-rule="evenodd" stroke="none"/>
      <path d="M238.0 108.85 L237.0 108.85 237.0 108.35 Q232.25 108.6 230.0 106.85 L233.9 106.4 234.0 105.85 242.9 103.4 243.0 102.85 245.0 105.35 245.05 105.9 245.0 106.5 Q245.0 107.15 245.5 107.75 246.05 108.35 247.0 108.65 L247.0 108.85 246.0 108.85 240.0 108.85 239.0 108.85 238.0 108.85" fill="#9a665f" fill-rule="evenodd" stroke="none"/>
      <path d="M183.0 114.85 L182.0 114.85 162.0 114.85 162.0 113.85 Q171.4 113.85 180.8 114.25 L181.3 114.4 183.0 114.7 183.0 114.85" fill="#c2a497" fill-rule="evenodd" stroke="none"/>
      <path d="M174.0 103.85 Q173.5 103.85 173.45 104.0 172.2 107.85 172.0 102.85 177.4 98.65 180.75 102.75 L180.65 102.95 Q180.05 104.85 179.55 105.35 L179.0 105.8 178.85 104.9 Q177.75 101.05 174.0 103.85" fill="#6e4850" fill-rule="evenodd" stroke="none"/>
      <path d="M286.6 93.45 Q286.95 98.55 284.95 101.0 L284.75 100.25 284.65 99.9 Q285.8 98.15 286.6 93.45" fill="#af9089" fill-rule="evenodd" stroke="none"/>
      <path d="M266.0 99.45 L266.0 98.85 Q277.6 98.05 272.3 106.9 L272.2 106.9 271.6 107.1 Q272.25 102.15 270.0 101.85 L269.5 101.75 Q269.15 100.25 267.0 100.85 L266.25 100.6 Q266.0 100.35 266.0 99.95 L266.0 99.45" fill="#a46f68" fill-rule="evenodd" stroke="none"/>
      <path d="M259.0 103.85 Q262.85 104.4 265.0 103.3 L265.9 102.7 266.75 101.7 267.0 100.85 Q269.15 100.25 269.5 101.75 L270.0 101.85 Q270.0 102.85 269.8 102.9 265.9 103.65 267.9 104.95 L268.5 105.35 Q261.8 107.05 259.0 103.85" fill="#8f5f5b" fill-rule="evenodd" stroke="none"/>
      <path d="M271.6 107.1 Q270.0 107.6 270.0 108.25 L270.05 108.75 257.4 109.2 257.35 109.15 257.3 109.2 257.15 109.2 257.05 109.1 256.9 109.15 254.0 108.85 253.0 108.85 248.9 108.85 Q250.7 108.8 252.8 107.3 254.5 106.15 255.0 105.35 L254.55 104.6 253.95 104.6 253.95 104.55 258.0 103.9 259.0 103.85 Q261.8 107.05 268.5 105.35 L267.9 104.95 Q265.9 103.65 269.8 102.9 270.0 102.85 270.0 101.85 272.25 102.15 271.6 107.1 M247.0 108.85 L247.0 108.65 248.35 108.85 247.0 108.85" fill="#996660" fill-rule="evenodd" stroke="none"/>
      <path d="M261.9 102.7 Q259.1 103.5 256.2 101.6 255.05 100.8 255.0 98.85 259.6 98.25 262.3 99.55 261.0 100.75 261.0 101.2 261.0 101.75 261.5 102.35 L261.9 102.7" fill="#6f4953" fill-rule="evenodd" stroke="none"/>
      <path d="M240.0 108.85 L246.0 108.85 247.0 108.85 248.35 108.85 248.9 108.85 253.0 108.85 254.0 108.85 253.85 109.4 Q246.5 112.25 240.0 108.85" fill="#865958" fill-rule="evenodd" stroke="none"/>
      <path d="M143.15 5.9 Q141.9 6.15 141.5 6.35 L137.0 6.35 136.25 6.2 136.05 5.85 136.05 5.7 133.65 5.6 131.2 5.85 127.45 6.25 121.25 6.85 120.3 6.8 Q115.4 7.05 110.0 6.85 L109.75 6.85 106.75 6.3 Q105.4 5.75 104.0 4.85 L102.75 3.85 97.5 3.85 96.65 3.35 105.0 3.35 106.0 2.35 107.15 2.9 Q110.85 4.8 117.55 4.45 L117.95 4.45 118.35 4.3 119.9 4.1 120.9 4.05 121.95 4.3 123.6 4.15 131.5 3.6 134.3 3.45 140.5 3.85 140.95 4.15 143.45 3.85 144.3 3.75 149.0 3.3 151.3 3.4 151.5 3.85 Q150.65 4.4 148.85 4.85 L146.35 5.35 143.15 5.9" fill="#b87f71" fill-rule="evenodd" stroke="none"/>
      <path d="M128.0 12.85 L118.2 11.9 Q118.0 11.85 118.0 10.85 126.3 9.55 129.0 12.85 L128.0 12.85" fill="#815759" fill-rule="evenodd" stroke="none"/>
      <path d="M118.35 4.3 L117.95 4.45 117.55 4.45 118.35 4.3 M114.15 3.0 L112.15 3.1 110.65 2.9 114.15 3.0" fill="#deb49a" fill-rule="evenodd" stroke="none"/>
      <path d="M96.65 3.35 L97.5 3.85 102.75 3.85 104.0 4.85 89.0 3.85 89.0 2.85 94.25 3.2 95.0 3.35 96.65 3.35" fill="#bf8575" fill-rule="evenodd" stroke="none"/>
      <path d="M106.75 6.3 Q88.85 5.85 71.0 5.85 L71.0 4.85 Q80.0 4.85 88.95 4.35 L89.0 3.85 104.0 4.85 Q105.4 5.75 106.75 6.3" fill="#a26e66" fill-rule="evenodd" stroke="none"/>
      <path d="M94.25 3.2 L89.0 2.85 88.0 2.85 88.0 1.85 90.0 1.85 91.0 1.85 94.0 1.95 94.0 2.25 Q94.0 3.0 94.25 3.2" fill="#d39c85" fill-rule="evenodd" stroke="none"/>
      <path d="M53.0 1.3 L53.0 0.85 90.0 0.85 91.0 0.85 91.0 1.85 90.0 1.85 88.0 1.85 88.0 2.85 87.0 2.85 72.0 2.85 71.95 2.35 60.4 1.95 60.5 1.85 60.3 1.4 53.0 1.3" fill="#e4b99d" fill-rule="evenodd" stroke="none"/>
      <path d="M89.0 2.85 L89.0 3.85 88.95 4.35 Q80.0 4.85 71.0 4.85 L70.0 4.85 52.0 4.85 51.0 4.85 48.0 4.85 48.0 4.8 51.6 4.05 71.0 2.9 72.0 2.85 87.0 2.85 88.0 2.85 89.0 2.85" fill="#ca937f" fill-rule="evenodd" stroke="none"/>
      <path d="M71.0 5.85 L57.1 6.7 45.0 7.85 45.0 6.85 Q48.75 6.6 51.85 5.4 L52.0 4.85 70.0 4.85 71.0 4.85 71.0 5.85" fill="#8f6160" fill-rule="evenodd" stroke="none"/>
      <path d="M1.45 36.55 L1.0 36.85 0.25 36.7 Q0.0 36.55 0.0 35.75 L2.15 33.95 2.85 33.2 3.6 32.25 4.15 31.55 Q4.4 30.9 5.15 30.0 L6.05 28.3 Q6.15 26.0 6.85 23.6 6.9 20.5 6.0 16.85 7.65 17.0 7.1 14.8 L7.0 13.85 Q7.95 14.5 8.65 14.5 L9.5 5.65 9.75 5.5 10.5 5.35 10.0 4.85 10.0 3.85 14.9 3.5 19.05 2.55 39.9 1.25 40.8 1.05 Q45.65 -0.05 50.9 1.25 L53.0 1.3 60.3 1.4 60.5 1.85 60.4 1.95 71.95 2.35 72.0 2.85 71.0 2.9 51.6 4.05 48.0 4.8 Q48.0 4.1 47.8 4.0 L47.55 3.85 Q44.45 3.75 40.8 3.95 36.45 4.2 33.25 4.95 L33.0 4.85 32.3 5.1 16.0 5.35 15.25 5.35 Q15.0 5.45 15.0 6.25 15.0 7.05 15.25 7.2 L16.0 7.35 17.7 7.35 17.55 7.4 Q10.5 9.7 10.5 10.75 10.5 12.0 10.8 11.6 L10.8 11.75 11.75 11.85 12.9 11.45 Q11.9 12.45 11.6 13.5 L11.5 12.85 Q10.3 13.9 10.05 16.55 L10.0 21.1 Q10.0 21.75 8.25 25.5 6.5 29.3 6.5 29.75 6.5 30.55 6.75 30.7 L7.1 30.8 Q5.55 33.35 3.2 35.3 1.8 35.0 1.55 36.5 L1.45 36.55 M33.3 7.8 L33.0 7.85 32.6 7.85 33.3 7.8" fill="#e6ccb1" fill-rule="evenodd" stroke="none"/>
      <path d="M45.0 7.85 L44.05 8.0 Q39.65 9.5 33.0 8.85 L33.0 7.85 33.3 7.8 42.05 6.6 Q48.0 5.4 48.0 4.85 L51.0 4.85 52.0 4.85 51.85 5.4 Q48.75 6.6 45.0 6.85 L45.0 7.85" fill="#a26f67" fill-rule="evenodd" stroke="none"/>
      <path d="M33.0 8.85 L32.0 8.8 Q26.4 8.25 23.0 9.85 L22.15 10.05 Q20.6 11.05 18.05 11.1 L17.35 11.8 Q14.65 14.6 14.25 15.85 L13.95 17.2 13.9 17.5 14.2 17.5 Q14.5 17.6 14.5 18.35 14.5 20.2 13.05 22.8 L12.7 23.4 Q12.0 21.0 12.0 19.75 L12.0 16.65 11.6 13.5 Q11.9 12.45 12.9 11.45 L18.5 9.4 Q20.0 8.75 23.65 7.85 L30.5 7.85 30.7 7.8 31.75 7.85 32.6 7.85 33.0 7.85 33.0 8.85" fill="#b38275" fill-rule="evenodd" stroke="none"/>
      <path d="M23.0 9.85 L23.2 10.75 Q26.65 18.35 21.0 14.85 L19.05 15.1 Q15.7 16.05 16.3 21.9 16.85 27.2 16.25 31.9 L16.1 34.9 Q16.9 45.75 15.55 55.8 L15.55 56.4 Q17.5 58.85 17.2 63.85 L16.1 77.85 Q15.75 81.6 15.75 84.85 L15.5 89.4 17.05 89.1 17.5 89.85 Q16.5 91.5 16.5 93.7 L16.4 95.45 Q16.45 96.1 17.2 96.5 18.0 96.9 22.7 97.9 L27.8 98.9 28.0 99.35 Q25.05 99.4 23.55 100.0 L22.8 100.4 21.25 101.35 Q19.9 101.35 18.95 100.6 18.0 99.85 17.3 99.85 16.7 99.85 16.55 100.35 16.4 100.85 15.75 100.85 L14.8 100.75 14.8 100.6 14.6 99.65 14.0 95.75 14.0 98.85 14.0 99.85 Q12.3 99.55 12.55 96.8 12.8 94.15 13.2 92.6 14.45 88.4 11.0 87.85 L11.0 86.85 11.0 82.85 Q12.55 85.75 13.25 83.6 L13.95 81.25 14.0 81.0 14.75 76.45 14.8 76.4 15.5 71.6 15.5 71.15 15.65 70.6 Q16.7 69.95 16.7 67.85 16.7 63.6 14.7 62.35 11.9 60.55 12.0 56.85 L13.05 56.6 Q14.3 52.05 12.8 48.95 L12.5 48.35 Q17.6 44.9 12.05 40.75 11.5 40.35 11.6 40.05 13.4 35.2 9.0 33.85 12.15 34.05 10.25 31.65 10.0 31.35 10.0 30.85 L10.0 30.6 Q13.0 27.3 13.0 25.45 L13.0 24.85 13.0 24.45 12.8 23.75 13.05 22.8 Q14.5 20.2 14.5 18.35 14.5 17.6 14.2 17.5 L13.9 17.5 13.95 17.2 14.25 15.85 Q14.65 14.6 17.35 11.8 L18.05 11.1 Q20.6 11.05 22.15 10.05 L23.0 9.85" fill="#845559" fill-rule="evenodd" stroke="none"/>
      <path d="M7.0 13.85 Q7.0 13.35 7.15 12.9 8.2 9.0 7.0 5.85 8.0 5.35 9.05 5.0 L10.0 4.85 10.5 5.35 9.75 5.5 9.5 5.65 8.65 14.5 Q7.95 14.5 7.0 13.85" fill="#e9d4b8" fill-rule="evenodd" stroke="none"/>
      <path d="M12.7 23.4 L13.05 22.8 12.8 23.75 12.7 23.4" fill="#c6a392" fill-rule="evenodd" stroke="none"/>
      <path d="M4.7 61.0 L5.2 59.4 6.0 57.95 Q7.0 56.65 8.5 56.6 L8.75 56.75 9.0 57.65 8.9 58.85 8.3 60.65 Q7.6 62.3 6.6 63.2 L5.5 63.85 4.65 63.6 Q4.5 63.5 4.5 62.6 L4.7 61.0 M6.0 57.85 L6.0 43.85 Q6.0 42.35 5.25 41.5 L4.6 40.75 Q6.55 42.35 8.0 42.35 L8.75 43.15 9.0 43.85 9.05 44.85 Q10.05 53.9 6.0 57.85 M1.55 36.7 L1.45 36.55 1.55 36.5 1.55 36.7 M13.0 24.85 L13.0 25.45 Q13.0 27.3 10.0 30.6 L9.75 30.85 9.65 30.95 8.75 31.9 Q7.4 34.35 5.0 35.85 L5.0 36.1 Q3.95 35.4 3.2 35.3 5.55 33.35 7.1 30.8 L7.5 30.85 Q9.0 30.4 10.95 28.2 12.75 26.2 13.0 24.85" fill="#d09580" fill-rule="evenodd" stroke="none"/>
      <path d="M18.0 34.85 Q21.1 36.75 20.55 42.9 20.5 43.35 21.1 43.55 25.15 44.85 21.0 45.85 16.35 45.3 18.25 38.65 18.5 37.85 18.25 36.8 L18.0 34.85" fill="#6d4752" fill-rule="evenodd" stroke="none"/>
      <path d="M4.6 40.75 L3.85 40.1 Q1.5 38.0 1.5 37.2 L1.55 36.7 1.55 36.5 Q1.8 35.0 3.2 35.3 3.95 35.4 5.0 36.1 L5.0 35.85 Q7.4 34.35 8.75 31.9 L9.65 30.95 9.75 30.85 10.0 30.85 Q10.0 31.35 10.25 31.65 12.15 34.05 9.0 33.85 13.4 35.2 11.6 40.05 11.5 40.35 12.05 40.75 17.6 44.9 12.5 48.35 L12.8 48.95 Q14.3 52.05 13.05 56.6 L12.0 56.85 Q11.9 60.55 14.7 62.35 16.7 63.6 16.7 67.85 16.7 69.95 15.65 70.6 L15.5 71.15 15.5 71.6 14.8 76.4 14.75 76.45 12.9 76.85 13.15 77.5 14.0 80.5 14.0 81.0 13.95 81.25 13.75 81.35 13.75 81.7 13.0 81.85 Q12.55 81.85 11.0 78.45 L9.3 74.0 9.05 73.85 6.75 72.6 6.1 72.25 6.0 72.15 6.0 71.1 6.1 71.1 Q9.5 71.5 11.75 68.4 13.0 66.6 14.0 65.95 L14.1 65.9 14.0 65.85 Q14.0 64.35 13.3 63.3 L12.65 63.35 Q8.55 68.8 8.0 61.85 9.65 62.0 9.1 59.8 L9.0 58.85 Q11.9 54.75 11.15 46.85 10.85 43.7 9.65 41.5 L9.6 41.6 Q9.05 42.35 8.0 42.35 6.55 42.35 4.6 40.75 M7.35 97.0 L7.5 97.35 7.45 97.5 7.15 97.85 6.75 96.9 6.5 96.35 Q7.0 96.55 7.35 97.0" fill="#8b595b" fill-rule="evenodd" stroke="none"/>
      <path d="M8.0 42.35 Q9.05 42.35 9.6 41.6 L9.65 41.5 Q10.85 43.7 11.15 46.85 11.9 54.75 9.0 58.85 L9.15 57.9 Q11.2 50.55 9.0 43.85 L8.75 43.15 8.0 42.35" fill="#a76d67" fill-rule="evenodd" stroke="none"/>
      <path d="M5.0 69.85 L4.85 68.9 Q3.7 65.65 4.0 60.85 L4.7 61.0 4.5 62.6 Q4.5 63.5 4.65 63.6 L5.5 63.85 6.6 63.2 6.0 63.85 6.0 68.85 6.0 69.85 5.0 69.85 M6.0 57.95 L6.0 57.85 Q10.05 53.9 9.05 44.85 L9.0 43.85 Q11.2 50.55 9.15 57.9 L9.0 58.85 8.9 58.85 9.0 57.65 8.75 56.75 8.5 56.6 Q7.0 56.65 6.0 57.95" fill="#ca8976" fill-rule="evenodd" stroke="none"/>
      <path d="M9.0 58.85 L9.1 59.8 Q9.65 62.0 8.0 61.85 8.55 68.8 12.65 63.35 L13.3 63.3 Q14.0 64.35 14.0 65.85 L14.0 65.95 Q13.0 66.6 11.75 68.4 9.5 71.5 6.1 71.1 L6.0 70.85 6.0 69.85 6.0 68.85 6.0 63.85 6.6 63.2 Q7.6 62.3 8.3 60.65 L8.9 58.85 9.0 58.85 M6.75 72.6 L9.05 73.85 Q7.6 74.05 6.75 72.6" fill="#ab716a" fill-rule="evenodd" stroke="none"/>
      <path d="M8.0 108.85 L7.5 108.85 Q7.7 106.0 7.5 103.65 L8.15 105.2 8.05 107.85 8.0 108.85 M4.05 94.9 L4.0 94.85 4.0 93.85 4.0 79.85 Q5.75 76.6 5.05 70.85 L5.0 69.85 6.0 69.85 6.0 70.85 6.0 71.1 6.0 72.15 6.1 72.25 Q6.7 77.7 5.0 80.85 4.55 89.3 6.45 95.7 L7.0 95.85 7.35 97.0 Q7.0 96.55 6.5 96.35 4.3 91.6 4.05 94.9 M7.45 97.5 L7.75 99.25 7.15 97.85 7.45 97.5" fill="#d0a796" fill-rule="evenodd" stroke="none"/>
      <path d="M11.0 82.85 L11.0 86.85 11.0 87.85 10.0 87.85 Q9.5 87.85 9.4 88.05 8.7 89.55 7.0 89.85 L7.0 94.85 7.0 95.85 6.45 95.7 Q4.55 89.3 5.0 80.85 6.7 77.7 6.1 72.25 L6.75 72.6 Q7.6 74.05 9.05 73.85 L9.3 74.0 11.0 78.45 11.0 81.85 11.0 82.85 M6.1 71.1 L6.0 71.1 6.0 70.85 6.1 71.1" fill="#c18377" fill-rule="evenodd" stroke="none"/>
      <path d="M14.75 76.45 L14.0 81.0 14.0 80.5 13.15 77.5 12.9 76.85 14.75 76.45 M13.95 81.25 L13.25 83.6 Q12.55 85.75 11.0 82.85 L11.0 81.85 11.0 78.45 Q12.55 81.85 13.0 81.85 L13.75 81.7 13.75 81.35 13.95 81.25 M14.0 65.85 L14.1 65.9 14.0 65.95 14.0 65.85" fill="#956061" fill-rule="evenodd" stroke="none"/>
      <path d="M12.0 110.85 L11.0 110.9 Q8.3 111.05 8.0 108.85 L8.05 107.85 8.15 105.2 8.5 105.85 9.0 105.85 9.0 106.85 Q8.75 110.1 11.95 110.35 L12.0 110.85 M7.0 95.85 L7.0 94.85 7.0 89.85 Q8.7 89.55 9.4 88.05 9.5 87.85 10.0 87.85 10.0 91.85 10.5 95.35 L10.65 95.45 Q12.7 96.6 12.2 100.85 L12.0 103.85 11.85 104.4 9.5 104.85 9.5 104.45 Q9.5 103.35 7.75 99.25 L7.45 97.5 7.5 97.35 7.35 97.0 7.0 95.85" fill="#ac746d" fill-rule="evenodd" stroke="none"/>
      <path d="M7.5 103.65 L6.2 100.7 4.0 95.95 4.05 94.9 Q4.3 91.6 6.5 96.35 L6.75 96.9 7.15 97.85 7.75 99.25 Q9.5 103.35 9.5 104.45 L9.5 104.85 Q9.45 105.65 9.3 105.4 L9.35 105.65 9.0 105.85 8.5 105.85 8.15 105.2 7.5 103.65 M11.0 87.85 Q14.45 88.4 13.2 92.6 12.8 94.15 12.55 96.8 12.3 99.55 14.0 99.85 13.3 102.55 14.8 103.25 L15.0 103.85 14.0 103.85 12.0 103.85 12.2 100.85 Q12.7 96.6 10.65 95.45 L10.5 95.35 Q10.0 91.85 10.0 87.85 L11.0 87.85" fill="#996362" fill-rule="evenodd" stroke="none"/>
      <path d="M14.6 99.65 L14.8 100.6 14.8 100.75 15.75 100.85 Q16.4 100.85 16.55 100.35 16.7 99.85 17.3 99.85 18.0 99.85 18.95 100.6 19.9 101.35 21.25 101.35 L22.8 100.4 23.55 100.0 59.95 102.3 61.0 102.35 Q66.75 102.1 70.0 103.85 L36.0 105.25 24.1 104.9 15.0 103.85 14.8 103.25 Q13.3 102.55 14.0 99.85 L14.6 99.65" fill="#86595b" fill-rule="evenodd" stroke="none"/>
      <path d="M102.0 111.85 L101.0 111.8 Q80.4 110.65 60.4 111.6 L63.0 110.6 63.8 110.3 Q82.7 109.45 101.95 111.35 L102.0 111.85" fill="#846164" fill-rule="evenodd" stroke="none"/>
      <path d="M113.0 105.85 L112.8 105.25 111.0 104.85 111.0 103.85 111.0 101.85 Q134.2 103.45 155.0 102.35 L155.0 102.85 154.15 103.05 146.0 107.85 138.05 107.3 Q126.6 105.75 113.0 105.85" fill="#8c5c5a" fill-rule="evenodd" stroke="none"/>
      <path d="M132.65 111.85 L132.0 111.9 114.0 112.85 113.0 112.9 Q108.75 113.55 107.0 111.85 L130.5 111.0 130.65 111.6 130.8 111.85 132.65 111.85" fill="#785559" fill-rule="evenodd" stroke="none"/>
      <path d="M111.0 104.85 Q102.8 105.65 94.1 104.85 L93.95 104.85 Q89.25 104.6 87.0 102.85 94.8 101.15 105.0 100.9 L108.0 100.9 Q109.95 100.9 111.0 101.85 L111.0 103.85 111.0 104.85" fill="#81585c" fill-rule="evenodd" stroke="none"/>
    </g>
    <g id="sprite1" transform="matrix(1, 0, 0, 1, 0.0, 0.0)">
      <use height="46.45" transform="matrix(1.0, 0.0, 0.0, 1.0, 0.0, 0.0)" width="147.75" xlink:href="#shape1"/>
    </g>
    <g id="shape1" transform="matrix(1, 0, 0, 1, 0.0, 0.0)">
      <path d="M112.5 2.65 L113.5 2.65 113.75 2.75 Q114.25 3.05 114.5 3.65 L114.3 4.15 114.05 4.65 111.15 4.8 109.75 4.65 Q108.85 4.65 107.5 5.15 L107.35 5.15 101.75 5.15 94.0 5.15 93.15 5.1 93.05 4.9 92.1 4.8 91.9 4.85 91.55 4.8 91.45 4.75 90.55 4.55 89.7 4.35 89.45 4.3 87.5 3.35 87.5 3.1 87.5 3.05 Q87.5 2.25 87.95 2.1 L90.8 2.05 Q102.1 2.6 112.5 2.65 M145.0 3.15 L145.8 4.25 146.0 5.15 Q145.5 5.15 145.3 5.4 144.25 6.85 142.0 7.15 L141.0 7.15 129.55 7.15 126.1 7.35 126.05 7.15 123.35 7.3 120.4 7.45 120.05 6.65 111.65 5.4 111.55 5.15 Q121.25 5.1 131.0 4.65 L131.0 4.15 Q136.65 2.8 144.0 3.15 L145.0 3.15" fill="#c57d6a" fill-rule="evenodd" stroke="none"/>
      <path d="M113.75 2.75 Q128.95 2.15 145.0 2.65 L145.0 3.15 144.0 3.15 Q136.65 2.8 131.0 4.15 L130.0 4.15 114.3 4.15 114.5 3.65 Q114.25 3.05 113.75 2.75" fill="#d7a48e" fill-rule="evenodd" stroke="none"/>
      <path d="M146.0 5.15 L146.0 6.15 146.05 7.15 Q146.7 11.35 145.0 13.15 145.1 17.55 145.9 21.15 L146.0 22.15 146.05 23.15 Q146.55 32.7 140.0 35.15 L139.0 35.15 118.0 35.15 118.0 36.15 117.0 36.15 Q92.4 37.4 69.0 36.15 62.25 39.9 54.05 42.3 51.0 43.15 48.3 44.7 40.45 49.2 37.0 42.15 L37.05 42.1 37.25 42.5 38.0 42.65 38.5 42.45 38.5 42.55 Q38.5 43.8 38.8 43.4 L38.95 43.55 40.0 43.65 Q41.3 43.65 43.95 41.95 L44.7 41.5 Q51.1 41.5 56.35 37.65 L56.95 37.3 56.0 38.45 Q56.3 38.9 57.0 39.15 58.85 38.0 65.6 34.55 L66.6 34.05 84.0 33.4 Q89.75 33.9 92.0 32.15 L91.0 32.2 Q84.75 32.4 82.0 29.15 L114.0 27.2 115.0 27.15 115.75 27.4 116.0 28.15 115.05 28.3 Q110.7 29.85 105.0 30.15 108.25 31.9 114.0 31.45 L122.25 31.0 123.0 31.15 131.0 31.15 135.8 29.5 Q137.95 28.6 138.5 27.75 L138.3 27.2 137.65 26.8 138.0 26.15 137.85 26.1 Q138.15 26.0 138.25 25.75 L138.5 25.15 Q138.0 24.2 136.2 23.55 L135.0 23.2 135.0 23.15 134.2 21.65 Q133.8 20.9 133.8 20.15 133.8 19.45 134.75 18.5 L136.0 17.15 135.55 16.4 Q136.0 16.15 134.75 16.15 L133.6 16.35 133.0 16.65 Q132.7 15.65 131.3 14.35 L132.1 13.65 Q135.35 11.25 139.0 10.7 L138.55 11.15 138.15 11.4 Q138.0 11.6 138.0 12.4 138.0 13.2 138.25 13.4 L139.0 13.65 141.1 11.4 143.5 8.65 Q143.2 7.95 142.5 7.65 L141.45 7.6 142.0 7.15 Q144.25 6.85 145.3 5.4 145.5 5.15 146.0 5.15 M130.05 17.05 L130.15 17.15 130.1 17.15 130.05 17.05" fill="#6d4750" fill-rule="evenodd" stroke="none"/>
      <path d="M141.45 7.6 L142.5 7.65 Q143.2 7.95 143.5 8.65 L141.1 11.4 139.0 13.65 138.25 13.4 Q138.0 13.2 138.0 12.4 138.0 11.6 138.15 11.4 L138.55 11.15 139.0 10.7 Q135.35 11.25 132.1 13.65 L131.3 14.35 Q132.7 15.65 133.0 16.65 L133.6 16.35 134.75 16.15 Q136.0 16.15 135.55 16.4 L136.0 17.15 134.75 18.5 Q133.8 19.45 133.8 20.15 133.8 20.9 134.2 21.65 L135.0 23.15 135.0 23.2 136.2 23.55 Q138.0 24.2 138.5 25.15 L138.25 25.75 Q138.15 26.0 137.85 26.1 L137.25 26.15 136.7 26.15 Q134.75 24.9 133.8 24.6 L132.6 24.35 132.5 23.8 132.55 23.15 Q131.8 22.4 131.55 21.4 L131.05 18.65 Q130.8 17.9 130.15 17.15 L130.05 17.05 129.45 16.45 129.05 16.05 128.3 16.5 128.1 16.3 127.0 15.4 Q127.0 14.75 127.55 13.9 128.2 12.9 129.0 12.7 L127.25 11.35 127.1 11.15 125.75 11.15 Q125.05 10.6 124.0 10.15 L119.5 10.15 119.25 10.15 119.0 9.95 119.15 9.65 117.0 9.65 116.25 9.4 Q116.0 9.2 116.0 8.4 L116.0 8.35 114.85 7.8 114.8 7.8 113.85 7.5 109.75 7.25 107.65 7.45 107.55 7.15 111.05 6.85 112.0 5.95 111.65 5.4 120.05 6.65 120.4 7.45 123.35 7.3 126.05 7.15 126.1 7.35 129.55 7.15 129.8 7.3 Q130.0 7.4 130.0 8.0 L141.45 7.6 M107.35 5.15 L107.5 5.15 106.2 5.65 105.8 5.8 Q106.2 5.3 107.35 5.15 M94.7 5.85 L103.85 6.15 94.8 6.45 Q94.95 6.25 94.7 5.85 M106.9 9.15 L91.0 10.15 Q87.5 9.2 83.05 9.65 80.75 9.9 77.0 7.15 80.45 7.05 82.75 6.1 L83.5 6.65 86.5 6.9 Q86.5 8.3 87.5 8.65 L98.0 9.15 106.9 9.15 M91.9 4.85 L92.1 4.8 93.05 4.9 93.15 5.1 91.85 4.85 91.9 4.85 M89.45 4.3 L86.8 3.45 86.85 3.1 86.85 3.05 86.95 3.1 87.5 3.35 89.45 4.3 M81.2 4.25 L81.65 4.9 82.25 5.6 81.0 4.95 81.2 4.25 M44.05 28.4 L44.0 28.45 44.3 28.9 50.5 29.7 53.5 30.15 59.5 29.65 60.1 29.15 62.45 29.15 62.5 29.75 Q62.5 30.4 62.0 30.85 61.5 31.35 61.5 31.95 55.4 36.2 54.0 36.65 L51.8 36.65 51.65 36.5 Q51.5 36.3 51.5 35.55 L51.7 35.0 Q52.05 34.3 53.25 33.7 55.25 32.6 56.0 31.5 L56.05 31.4 56.0 31.2 52.7 31.2 49.35 31.15 Q44.75 30.9 41.2 29.85 L43.45 28.5 43.9 28.4 44.05 28.4" fill="#8c5d5d" fill-rule="evenodd" stroke="none"/>
      <path d="M146.0 6.15 Q147.75 8.9 147.75 14.15 147.75 19.4 146.0 22.15 L145.9 21.15 Q145.1 17.55 145.0 13.15 146.7 11.35 146.05 7.15 L146.0 6.15" fill="#9d7570" fill-rule="evenodd" stroke="none"/>
      <path d="M131.0 4.15 L131.0 4.65 Q121.25 5.1 111.55 5.15 L111.5 4.9 111.15 4.8 114.05 4.65 114.3 4.15 130.0 4.15 131.0 4.15" fill="#d18e77" fill-rule="evenodd" stroke="none"/>
      <path d="M137.65 26.8 L138.3 27.2 138.5 27.75 Q137.95 28.6 135.8 29.5 L131.0 31.15 123.0 31.15 122.25 31.0 Q122.0 30.8 122.0 30.05 L122.05 29.35 122.3 29.15 127.65 28.85 133.8 28.4 Q133.25 27.6 131.2 27.2 L127.8 26.4 127.75 26.35 Q127.5 25.85 127.5 24.9 L130.25 24.4 132.6 24.35 133.8 24.6 Q134.75 24.9 136.7 26.15 L137.65 26.8 M66.6 34.05 L65.6 34.55 Q58.85 38.0 57.0 39.15 56.3 38.9 56.0 38.45 L56.95 37.3 Q59.2 34.8 63.25 32.4 68.55 29.25 73.05 28.65 L73.25 29.15 73.5 29.65 Q71.25 31.6 66.6 34.05 M125.75 11.15 L126.35 11.7 Q127.5 13.0 125.8 14.15 126.0 14.45 125.8 14.9 126.4 15.05 127.0 15.4 L128.1 16.3 128.3 16.5 Q129.0 17.3 129.0 17.75 129.0 19.1 128.2 20.3 127.15 21.9 124.75 23.2 124.0 23.6 123.15 23.95 117.8 26.15 108.5 26.15 L107.2 26.05 106.8 25.9 Q106.5 25.45 106.5 24.7 107.05 24.15 110.05 23.85 L115.5 22.95 Q115.3 21.65 115.4 21.1 115.6 20.15 117.3 19.9 116.5 17.9 116.55 17.2 114.15 17.25 113.85 16.6 L114.0 15.7 107.15 15.85 99.5 16.15 86.85 16.15 81.0 16.15 79.9 15.1 79.5 14.5 79.75 13.3 80.0 12.05 Q80.0 11.4 80.95 11.15 L87.0 10.4 91.05 10.4 95.35 10.55 106.5 10.7 107.0 10.65 107.35 11.15 107.55 12.1 107.55 12.4 107.85 12.45 110.55 13.0 110.95 13.1 113.4 13.4 Q114.3 13.4 114.0 13.2 L113.5 12.95 Q115.55 10.7 116.35 10.45 L117.35 10.3 119.25 10.15 119.5 10.15 124.0 10.15 Q125.05 10.6 125.75 11.15 M44.05 28.4 L43.9 28.4 43.45 28.5 Q42.85 28.65 42.0 29.15 L41.7 29.35 Q40.3 30.15 39.0 30.15 38.0 30.15 37.5 29.8 35.05 30.3 32.05 31.65 L26.0 31.65 25.25 31.5 Q25.0 31.35 25.0 30.55 25.0 29.6 26.6 29.15 28.95 28.5 29.8 27.9 L28.55 25.75 28.5 25.65 27.5 23.4 27.55 22.6 27.75 22.2 29.7 22.25 Q30.3 22.35 30.3 23.45 L32.1 24.8 Q34.85 26.05 40.0 25.65 L40.85 26.4 41.2 26.25 Q44.65 25.4 47.55 26.9 L65.5 27.15 66.2 27.3 Q66.5 27.4 66.5 28.15 66.5 28.95 66.2 29.1 L65.5 29.15 62.45 29.15 60.1 29.15 47.5 29.15 Q45.5 28.45 44.05 28.4 M12.8 28.65 L12.0 27.45 13.4 19.95 13.75 18.6 13.25 18.5 Q13.0 18.35 13.0 17.55 L13.05 16.85 13.3 16.65 14.6 16.65 Q15.35 15.3 16.5 14.65 L17.2 14.8 Q17.5 14.9 17.5 15.65 L17.45 16.6 25.5 16.4 30.85 18.3 24.8 18.4 24.0 18.65 22.0 18.65 21.55 19.65 17.1 19.65 Q16.55 23.4 15.5 24.95 L16.9 25.15 Q17.5 25.35 17.5 26.15 L17.25 27.15 16.75 27.2 16.5 27.45 21.25 27.15 23.55 27.4 24.0 28.15 21.0 30.0 21.0 30.15 20.6 30.65 19.25 30.65 13.85 30.35 12.8 28.65 M38.6 18.85 L39.2 18.8 40.45 18.75 40.4 18.85 Q40.25 19.15 39.5 19.15 L38.6 18.85 M36.0 28.65 L34.55 28.9 37.0 28.7 37.0 28.3 37.0 28.05 36.5 28.45 36.0 28.65" fill="#79525a" fill-rule="evenodd" stroke="none"/>
      <path d="M45.35 37.9 L47.35 37.4 50.8 35.75 51.0 35.15 51.7 35.0 51.5 35.55 Q51.5 36.3 51.65 36.5 L51.8 36.65 54.0 36.65 Q55.4 36.2 61.5 31.95 61.5 31.35 62.0 30.85 62.5 30.4 62.5 29.75 L62.45 29.15 65.5 29.15 66.2 29.1 Q66.5 28.95 66.5 28.15 66.5 27.4 66.2 27.3 L65.5 27.15 47.55 26.9 Q44.65 25.4 41.2 26.25 L40.85 26.4 40.0 25.65 Q34.85 26.05 32.1 24.8 L30.3 23.45 Q30.3 22.35 29.7 22.25 L27.75 22.2 27.55 22.6 27.5 23.4 28.5 25.65 28.55 25.75 27.05 25.9 29.5 27.65 Q28.9 28.5 27.4 28.9 L23.0 30.15 21.0 30.15 21.0 30.0 24.0 28.15 23.55 27.4 21.25 27.15 16.5 27.45 16.75 27.2 17.25 27.15 17.5 26.15 Q17.5 25.35 16.9 25.15 L15.5 24.95 Q16.55 23.4 17.1 19.65 L21.55 19.65 22.0 18.65 24.0 18.65 24.8 18.4 30.85 18.3 25.5 16.4 17.45 16.6 17.5 15.65 Q17.5 14.9 17.2 14.8 L16.5 14.65 Q15.35 15.3 14.6 16.65 L13.3 16.65 13.05 16.85 13.0 17.55 Q13.0 18.35 13.25 18.5 L13.75 18.6 13.4 19.95 12.0 27.45 12.8 28.65 Q12.5 28.55 12.35 28.45 11.5 29.95 11.5 32.15 L11.5 32.65 2.0 32.15 2.0 33.15 1.4 32.95 1.1 32.15 1.5 32.15 2.75 31.9 2.8 31.1 Q4.15 30.85 4.75 30.0 L5.0 29.15 6.0 29.15 7.0 29.15 Q10.75 24.9 11.5 18.15 L11.0 18.15 11.0 17.15 Q11.25 10.9 8.0 8.15 L8.0 7.15 Q14.3 8.35 22.0 8.15 L23.0 8.15 25.2 8.15 26.5 8.15 28.3 8.0 32.7 7.7 32.5 8.8 Q32.5 9.7 32.75 10.1 L33.5 10.65 34.0 10.4 Q34.55 11.8 37.05 11.35 38.0 11.15 38.2 10.75 L38.75 9.45 40.0 8.2 Q38.1 4.95 35.2 5.7 33.65 6.1 33.0 7.05 L33.0 6.15 Q35.05 4.7 39.0 5.1 L40.0 5.15 Q42.35 8.3 49.05 7.7 L50.1 7.8 Q53.7 8.85 55.0 7.15 L58.0 7.15 59.0 7.15 Q62.75 8.9 68.5 8.65 L68.6 9.05 Q69.25 12.4 73.0 13.15 76.7 13.95 79.0 16.15 83.5 16.75 86.85 16.15 L99.5 16.15 107.15 15.85 114.0 15.7 113.85 16.6 Q114.15 17.25 116.55 17.2 116.5 17.9 117.3 19.9 115.6 20.15 115.4 21.1 115.3 21.65 115.5 22.95 L110.05 23.85 Q107.05 24.15 106.5 24.7 106.5 25.45 106.8 25.9 L107.2 26.05 108.5 26.15 Q117.8 26.15 123.15 23.95 120.45 26.55 115.0 26.15 L115.0 27.15 114.0 27.2 82.0 29.15 81.0 29.15 73.25 29.15 73.05 28.65 Q68.55 29.25 63.25 32.4 59.2 34.8 56.95 37.3 L56.35 37.65 Q51.1 41.5 44.7 41.5 L43.95 41.95 Q41.3 43.65 40.0 43.65 L38.95 43.55 38.8 43.4 Q38.5 43.8 38.5 42.55 L38.5 42.45 38.55 42.25 Q38.9 40.8 42.45 39.1 L45.35 37.9 M142.0 7.15 L141.45 7.6 130.0 8.0 Q130.0 7.4 129.8 7.3 L129.55 7.15 141.0 7.15 142.0 7.15 M137.85 26.1 L138.0 26.15 137.65 26.8 136.7 26.15 137.25 26.15 137.85 26.1 M122.25 31.0 L114.0 31.45 Q108.25 31.9 105.0 30.15 110.7 29.85 115.05 28.3 L116.0 28.15 Q117.0 27.65 118.0 27.7 123.9 27.9 127.75 26.35 L127.8 26.4 131.2 27.2 Q133.25 27.6 133.8 28.4 L127.65 28.85 122.3 29.15 122.05 29.35 122.0 30.05 Q122.0 30.8 122.25 31.0 M127.0 15.4 Q126.4 15.05 125.8 14.9 126.0 14.45 125.8 14.15 127.5 13.0 126.35 11.7 L125.75 11.15 127.1 11.15 127.25 11.35 129.0 12.7 Q128.2 12.9 127.55 13.9 127.0 14.75 127.0 15.4 M119.25 10.15 L117.35 10.3 Q118.05 9.95 119.0 9.95 L119.25 10.15 M114.0 13.2 Q114.3 13.4 113.4 13.4 L110.95 13.1 110.7 12.6 Q112.5 13.7 114.0 13.2 M107.85 12.45 L107.55 12.4 107.55 12.1 107.8 12.4 107.85 12.45 M106.5 10.7 L95.35 10.55 91.05 10.4 91.0 10.15 106.9 9.15 107.55 9.15 108.0 8.15 107.65 7.45 109.75 7.25 108.75 8.0 107.55 10.0 106.55 10.15 106.55 9.95 106.5 10.65 106.5 10.7 M128.2 20.3 Q129.0 19.1 129.0 17.75 129.0 17.3 128.3 16.5 L129.05 16.05 129.45 16.45 130.05 17.05 130.1 17.15 130.15 17.15 Q130.8 17.9 131.05 18.65 L131.55 21.4 Q131.8 22.4 132.55 23.15 L132.5 23.8 132.6 24.35 130.25 24.4 Q131.55 20.05 128.2 20.3 M113.85 7.5 L114.8 7.8 114.85 7.8 114.75 7.9 114.45 8.1 113.85 7.5 M60.1 29.15 L59.5 29.65 53.5 30.15 50.5 29.7 44.3 28.9 44.0 28.45 44.05 28.4 Q45.5 28.45 47.5 29.15 L60.1 29.15 M43.45 28.5 L41.2 29.85 Q37.7 31.5 32.05 31.65 35.05 30.3 37.5 29.8 38.0 30.15 39.0 30.15 40.3 30.15 41.7 29.35 L42.0 29.15 Q42.85 28.65 43.45 28.5 M38.6 18.85 L39.5 19.15 Q40.25 19.15 40.4 18.85 L40.45 18.75 39.2 18.8 38.6 18.85 M36.0 28.65 L36.5 28.45 37.0 28.05 37.0 28.3 37.0 28.7 34.55 28.9 36.0 28.65" fill="#80595e" fill-rule="evenodd" stroke="none"/>
      <path d="M116.0 28.15 L115.75 27.4 115.0 27.15 115.0 26.15 Q120.45 26.55 123.15 23.95 124.0 23.6 124.75 23.2 127.15 21.9 128.2 20.3 131.55 20.05 130.25 24.4 L127.5 24.9 Q127.5 25.85 127.75 26.35 123.9 27.9 118.0 27.7 117.0 27.65 116.0 28.15" fill="#6f4953" fill-rule="evenodd" stroke="none"/>
      <path d="M140.0 35.15 L140.0 35.65 Q129.0 36.15 118.0 36.15 L118.0 35.15 139.0 35.15 140.0 35.15" fill="#ae7a70" fill-rule="evenodd" stroke="none"/>
      <path d="M111.55 5.15 L111.65 5.4 112.0 5.95 111.05 6.85 107.55 7.15 107.65 7.45 108.0 8.15 107.55 9.15 106.9 9.15 98.0 9.15 87.5 8.65 Q86.5 8.3 86.5 6.9 L83.5 6.65 82.75 6.1 82.25 5.6 81.65 4.9 81.2 4.25 81.1 4.15 Q80.5 3.25 80.5 2.55 80.5 1.8 81.0 1.65 L81.5 1.65 83.0 1.65 85.0 1.65 86.85 3.05 86.85 3.1 86.8 3.45 89.45 4.3 89.7 4.35 90.55 4.55 91.45 4.75 91.55 4.8 91.85 4.85 93.15 5.1 94.0 5.15 94.7 5.8 94.7 5.85 Q94.95 6.25 94.8 6.45 L103.85 6.15 104.0 6.15 105.8 5.8 106.2 5.65 107.5 5.15 Q108.85 4.65 109.75 4.65 L111.15 4.8 111.5 4.9 111.55 5.15 M91.05 10.4 L87.0 10.4 80.95 11.15 Q80.0 11.4 80.0 12.05 L79.75 13.3 79.5 14.5 79.9 15.1 81.0 16.15 86.85 16.15 Q83.5 16.75 79.0 16.15 76.7 13.95 73.0 13.15 69.25 12.4 68.6 9.05 L68.5 8.65 Q62.75 8.9 59.0 7.15 L73.0 7.15 74.0 7.15 76.0 7.15 77.0 7.15 Q80.75 9.9 83.05 9.65 87.5 9.2 91.0 10.15 L91.05 10.4" fill="#765057" fill-rule="evenodd" stroke="none"/>
      <path d="M117.35 10.3 L116.35 10.45 Q115.55 10.7 113.5 12.95 L114.0 13.2 Q112.5 13.7 110.7 12.6 L110.45 12.2 Q113.9 12.3 114.6 11.15 115.3 11.15 115.35 10.95 L115.3 10.7 115.5 9.55 114.75 8.45 114.45 8.1 114.75 7.9 114.85 7.8 116.0 8.35 116.0 8.4 Q116.0 9.2 116.25 9.4 L117.0 9.65 119.15 9.65 119.0 9.95 Q118.05 9.95 117.35 10.3" fill="#996966" fill-rule="evenodd" stroke="none"/>
      <path d="M66.55 2.0 Q72.2 0.5 80.0 1.15 L83.05 1.4 83.0 1.65 81.5 1.65 81.0 1.65 Q80.5 1.8 80.5 2.55 80.5 3.25 81.1 4.15 L78.6 4.15 80.0 3.15 79.55 2.4 73.7 1.85 Q69.0 1.7 69.0 1.9 L66.55 2.0 M109.75 7.25 L113.85 7.5 114.45 8.1 114.75 8.45 115.5 9.55 115.3 10.7 115.35 10.95 Q115.3 11.15 114.6 11.15 L114.5 11.15 Q113.6 11.15 113.4 10.3 113.25 9.4 111.4 9.4 110.1 9.4 109.75 10.05 L109.25 10.75 Q108.4 10.0 107.55 10.0 L108.75 8.0 109.75 7.25 M33.0 7.05 Q33.65 6.1 35.2 5.7 38.1 4.95 40.0 8.2 L38.75 9.45 38.5 9.65 Q38.0 9.15 37.65 8.35 37.45 7.9 36.75 7.9 36.4 7.9 35.65 8.45 34.6 9.15 34.25 10.2 L34.0 10.4 33.5 10.65 32.75 10.1 Q32.5 9.7 32.5 8.8 L32.7 7.7 Q32.75 7.4 32.95 7.15 L33.0 7.05" fill="#68434c" fill-rule="evenodd" stroke="none"/>
      <path d="M107.35 5.15 Q106.2 5.3 105.8 5.8 L104.0 6.15 103.9 5.6 101.75 5.15 107.35 5.15 M87.5 3.35 L86.95 3.1 87.5 3.1 87.5 3.35" fill="#cd8a75" fill-rule="evenodd" stroke="none"/>
      <path d="M83.05 1.4 L83.05 1.35 83.3 1.15 94.45 0.5 Q99.6 0.3 101.25 1.95 L112.5 2.65 Q102.1 2.6 90.8 2.05 L87.95 2.1 Q87.5 2.25 87.5 3.05 L87.5 3.1 86.95 3.1 86.85 3.05 85.0 1.65 83.0 1.65 83.05 1.4 M104.0 6.15 L103.85 6.15 94.7 5.85 94.7 5.8 94.0 5.15 101.75 5.15 103.9 5.6 104.0 6.15 M91.55 4.8 L91.9 4.85 91.85 4.85 91.55 4.8 M81.1 4.15 L81.2 4.25 81.0 4.95 82.25 5.6 82.75 6.1 Q80.45 7.05 77.0 7.15 L76.0 7.15 74.0 7.15 74.0 6.15 74.0 5.15 76.85 4.7 76.95 4.6 77.5 4.65 78.6 4.15 81.1 4.15" fill="#aa6e64" fill-rule="evenodd" stroke="none"/>
      <path d="M110.95 13.1 L110.55 13.0 107.85 12.45 107.8 12.4 107.55 12.1 107.35 11.15 107.0 10.65 106.5 10.7 106.5 10.65 106.55 9.95 106.55 10.15 107.55 10.0 Q108.4 10.0 109.25 10.75 L110.45 12.2 110.7 12.6 110.95 13.1" fill="#81595d" fill-rule="evenodd" stroke="none"/>
      <path d="M82.0 29.15 Q84.75 32.4 91.0 32.2 L92.0 32.15 Q89.75 33.9 84.0 33.4 L66.6 34.05 Q71.25 31.6 73.5 29.65 L73.25 29.15 81.0 29.15 82.0 29.15" fill="#754f57" fill-rule="evenodd" stroke="none"/>
      <path d="M41.4 39.35 Q44.2 37.8 45.35 37.9 L42.45 39.1 Q38.9 40.8 38.55 42.25 L38.5 41.3 Q38.5 40.95 41.4 39.35 M50.05 2.2 L62.5 2.6 62.55 2.35 62.8 2.15 66.55 2.0 69.0 1.9 Q69.0 1.7 73.7 1.85 L79.55 2.4 80.0 3.15 78.6 4.15 77.5 4.65 76.95 4.6 63.5 4.15 50.55 4.15 51.0 3.15 Q50.7 2.45 50.05 2.2" fill="#e0b79d" fill-rule="evenodd" stroke="none"/>
      <path d="M76.95 4.6 L76.85 4.7 74.0 5.15 73.0 5.15 51.0 5.15 50.0 5.15 46.0 5.15 46.0 4.15 48.0 4.15 49.0 4.15 50.55 4.15 63.5 4.15 76.95 4.6" fill="#d7a58e" fill-rule="evenodd" stroke="none"/>
      <path d="M74.0 5.15 L74.0 6.15 73.0 6.15 54.0 6.15 53.05 6.25 Q50.9 6.8 51.0 5.15 L73.0 5.15 74.0 5.15" fill="#c98975" fill-rule="evenodd" stroke="none"/>
      <path d="M74.0 7.15 L73.0 7.15 59.0 7.15 58.0 7.15 55.0 7.15 54.25 6.9 54.0 6.15 73.0 6.15 74.0 6.15 74.0 7.15" fill="#9a6560" fill-rule="evenodd" stroke="none"/>
      <path d="M54.0 6.15 L54.25 6.9 55.0 7.15 Q53.7 8.85 50.1 7.8 L49.05 7.7 Q42.35 8.3 40.0 5.15 L45.0 5.15 46.0 5.15 50.0 5.15 51.0 5.15 Q50.9 6.8 53.05 6.25 L54.0 6.15" fill="#9d6a65" fill-rule="evenodd" stroke="none"/>
      <path d="M37.05 42.1 L37.0 41.55 Q37.0 40.55 38.6 40.15 L41.4 39.35 Q38.5 40.95 38.5 41.3 L38.55 42.25 38.5 42.45 38.0 42.65 37.25 42.5 37.05 42.1 M1.1 32.15 L0.65 32.1 0.0 31.9 0.0 28.9 Q1.55 26.6 2.5 26.15 L3.15 26.35 3.2 26.35 Q3.5 26.45 3.5 27.25 L3.15 29.4 2.8 31.1 2.75 31.9 1.5 32.15 1.1 32.15 M2.4 14.95 L1.0 15.15 0.25 15.0 Q0.0 14.85 0.0 14.05 L1.25 11.55 Q2.5 9.25 2.5 8.25 2.5 7.5 2.1 6.45 L1.5 4.7 2.25 4.6 2.0 2.15 22.0 0.1 22.8 0.05 27.35 0.25 Q28.85 0.55 30.0 1.15 L29.9 1.65 40.0 1.65 41.45 1.8 50.0 2.15 50.05 2.2 Q50.7 2.45 51.0 3.15 L50.55 4.15 49.0 4.15 48.0 4.15 46.0 4.15 43.5 4.15 39.8 3.9 34.0 3.9 33.55 4.5 32.0 6.15 29.9 6.15 29.7 6.2 29.0 5.65 19.45 4.95 19.3 4.85 27.3 4.4 Q28.1 3.0 29.55 2.45 L29.9 2.35 22.5 2.65 15.0 2.65 14.45 3.05 Q9.0 2.9 5.0 4.15 L5.0 5.15 5.0 6.15 5.0 6.65 Q5.5 7.7 5.5 8.9 L5.35 10.15 5.25 10.6 4.55 12.35 4.4 12.65 Q3.5 14.4 2.4 14.95 M33.5 3.85 Q31.5 4.0 31.1 4.45 L31.75 4.4 33.35 4.1 33.85 3.85 33.5 3.85" fill="#e6cdb1" fill-rule="evenodd" stroke="none"/>
      <path d="M46.0 4.15 L46.0 5.15 45.0 5.15 40.0 5.15 39.0 5.1 Q35.05 4.7 33.0 6.15 L33.0 7.05 32.95 7.15 32.0 7.2 29.6 7.45 30.0 6.65 29.7 6.2 29.9 6.15 32.0 6.15 33.55 4.5 Q34.15 4.15 35.0 4.15 L43.5 4.15 46.0 4.15 M33.5 3.85 L33.85 3.85 33.35 4.1 31.75 4.4 31.1 4.45 Q31.5 4.0 33.5 3.85 M14.45 3.05 L15.0 2.65 22.5 2.65 29.9 2.35 29.55 2.45 Q28.1 3.0 27.3 4.4 L19.3 4.85 19.0 4.65 17.1 4.65 14.3 4.25 14.0 3.95 14.25 3.3 14.45 3.05" fill="#c49180" fill-rule="evenodd" stroke="none"/>
      <path d="M51.0 35.15 L50.0 35.15 28.0 36.15 28.0 35.65 Q17.0 35.15 6.0 35.15 L5.1 34.95 2.0 33.15 2.0 32.15 11.5 32.65 11.5 32.15 Q11.5 29.95 12.35 28.45 12.5 28.55 12.8 28.65 L13.85 30.35 19.25 30.65 20.6 30.65 21.0 30.15 23.0 30.15 27.4 28.9 Q28.9 28.5 29.5 27.65 L27.05 25.9 28.55 25.75 29.8 27.9 Q28.95 28.5 26.6 29.15 25.0 29.6 25.0 30.55 25.0 31.35 25.25 31.5 L26.0 31.65 32.05 31.65 Q37.7 31.5 41.2 29.85 44.75 30.9 49.35 31.15 L52.7 31.2 56.0 31.5 Q55.25 32.6 53.25 33.7 52.05 34.3 51.7 35.0 L51.0 35.15" fill="#6d4751" fill-rule="evenodd" stroke="none"/>
      <path d="M52.7 31.2 L56.0 31.2 56.05 31.4 56.0 31.5 52.7 31.2" fill="#775158" fill-rule="evenodd" stroke="none"/>
      <path d="M32.7 7.7 L28.3 8.0 26.5 8.15 25.2 8.15 23.0 8.15 23.0 8.0 20.65 7.65 18.0 7.65 12.0 7.15 11.1 6.3 8.0 5.15 8.0 4.15 14.0 3.95 14.3 4.25 17.1 4.65 19.0 4.65 19.3 4.85 19.45 4.95 29.0 5.65 29.7 6.2 30.0 6.65 29.6 7.45 32.0 7.2 32.95 7.15 Q32.75 7.4 32.7 7.7" fill="#bd8879" fill-rule="evenodd" stroke="none"/>
      <path d="M23.0 8.15 L22.0 8.15 Q14.3 8.35 8.0 7.15 L8.0 8.15 7.0 8.15 7.0 7.15 7.0 5.15 8.0 5.15 11.1 6.3 12.0 7.15 18.0 7.65 20.65 7.65 23.0 8.0 23.0 8.15" fill="#986d6a" fill-rule="evenodd" stroke="none"/>
      <path d="M3.0 25.15 L2.5 25.15 Q3.15 19.3 2.4 14.95 3.5 14.4 4.4 12.65 L4.55 12.35 Q6.65 10.75 5.55 6.25 L5.0 6.15 5.0 5.15 5.0 4.15 Q9.0 2.9 14.45 3.05 L14.25 3.3 14.0 3.95 8.0 4.15 8.0 5.15 7.0 5.15 7.0 7.15 7.0 8.15 7.1 9.15 Q7.9 14.05 5.0 15.15 L5.0 16.15 4.5 16.15 Q4.7 19.35 3.0 20.15 L3.0 24.15 3.0 25.15" fill="#cea08f" fill-rule="evenodd" stroke="none"/>
      <path d="M6.0 29.15 L5.0 29.15 5.0 28.15 5.0 16.15 5.0 15.15 Q7.9 14.05 7.1 9.15 L7.0 8.15 8.0 8.15 8.15 9.1 Q9.85 14.8 6.0 16.15 L6.0 28.15 6.0 29.15" fill="#b78075" fill-rule="evenodd" stroke="none"/>
      <path d="M8.0 8.15 Q11.25 10.9 11.0 17.15 L11.0 18.15 10.95 18.65 Q7.5 19.15 7.0 22.15 L7.0 28.15 7.0 29.15 6.0 29.15 6.0 28.15 6.0 16.15 Q9.85 14.8 8.15 9.1 L8.0 8.15" fill="#9c6d69" fill-rule="evenodd" stroke="none"/>
      <path d="M3.15 26.35 L3.1 26.1 3.0 25.15 3.0 24.15 3.0 20.15 Q4.7 19.35 4.5 16.15 L5.0 16.15 5.0 28.15 5.0 29.15 4.75 30.0 Q4.15 30.85 2.8 31.1 L3.15 29.4 3.5 27.25 Q3.5 26.45 3.2 26.35 L3.15 26.35" fill="#c78e80" fill-rule="evenodd" stroke="none"/>
      <path d="M11.0 18.15 L11.5 18.15 Q10.75 24.9 7.0 29.15 L7.0 28.15 7.0 22.15 Q7.5 19.15 10.95 18.65 L11.0 18.15" fill="#906565" fill-rule="evenodd" stroke="none"/>
      <path d="M28.0 36.15 L16.0 36.5 Q9.75 36.9 6.0 35.15 17.0 35.15 28.0 35.65 L28.0 36.15" fill="#a98982" fill-rule="evenodd" stroke="none"/>
    </g>
    <g id="sprite2" transform="matrix(1, 0, 0, 1, 0.0, 0.0)">
      <use height="69.0" transform="matrix(1.0, 0.0, 0.0, 1.0, 0.0, 0.0)" width="222.75" xlink:href="#shape2"/>
    </g>
    <g id="shape2" transform="matrix(1, 0, 0, 1, 0.0, 0.0)">
      <path d="M221.65 67.75 Q221.1 68.7 219.5 69.0 218.75 69.0 217.55 67.7 L216.5 66.25 Q216.5 65.9 217.25 63.8 218.0 61.7 218.0 61.0 218.0 54.6 218.75 41.55 219.5 28.5 219.5 21.9 219.5 18.9 218.5 12.1 217.5 5.35 217.5 2.6 L217.55 1.8 Q217.6 1.75 217.8 1.65 L219.8 1.75 219.75 4.95 Q219.75 5.8 220.5 13.05 221.25 20.25 221.25 24.1 L220.55 38.4 Q219.8 49.45 219.8 51.25 219.8 53.3 220.55 58.15 L220.5 58.75 220.7 60.1 Q220.8 63.9 219.3 66.25 L218.85 66.4 Q218.7 66.5 218.85 66.55 L218.0 66.35 217.0 66.25 217.0 67.0 218.15 67.65 220.0 68.05 221.5 67.8 221.65 67.75 M0.65 65.7 Q0.5 64.95 0.5 63.95 L1.0 59.25 0.5 47.4 0.0 35.6 Q0.0 24.4 0.5 18.75 L0.5 10.1 Q0.7 4.8 2.0 2.0 L2.3 2.65 2.0 2.75 Q3.3 18.25 3.3 23.75 L2.3 38.35 3.05 46.15 Q3.2 50.25 4.05 55.55 L4.5 59.65 4.4 62.5 Q4.15 64.25 3.05 65.3 3.45 65.65 4.3 65.85 4.65 65.95 4.5 66.75 L3.8 67.1 2.5 67.3 Q1.35 67.3 1.3 66.9 1.25 66.05 0.75 65.55 L0.65 65.7" fill="#e1b498" fill-rule="evenodd" stroke="none"/>
      <path d="M219.8 1.75 L219.8 0.0 220.75 0.0 Q222.75 12.95 222.75 24.2 L221.9 39.1 221.05 51.3 221.8 58.0 222.55 66.5 Q222.55 67.35 221.65 67.75 L221.5 67.8 220.0 68.05 218.15 67.65 217.0 67.0 217.0 66.25 218.0 66.35 218.85 66.55 Q218.7 66.5 218.85 66.4 L219.3 66.25 Q220.8 63.9 220.7 60.1 L220.6 58.7 220.55 58.15 Q219.8 53.3 219.8 51.25 219.8 49.45 220.55 38.4 L221.25 24.1 Q221.25 20.25 220.5 13.05 219.75 5.8 219.75 4.95 L219.8 1.75 M2.3 2.65 L3.25 2.4 4.1 10.4 4.75 19.25 3.55 38.55 Q5.25 58.85 5.25 62.3 5.25 62.95 5.9 64.8 6.5 66.65 6.5 67.25 L6.35 68.6 Q6.1 69.0 5.25 69.0 0.25 69.0 0.25 67.05 0.25 66.25 0.4 66.0 L0.65 65.7 0.75 65.55 Q1.25 66.05 1.3 66.9 1.35 67.3 2.5 67.3 L3.8 67.1 4.5 66.75 Q4.65 65.95 4.3 65.85 3.45 65.65 3.05 65.3 4.15 64.25 4.4 62.5 L4.5 59.65 4.05 55.55 3.4 49.45 3.05 46.15 2.3 38.35 3.3 23.75 Q3.3 18.25 2.0 2.75 L2.3 2.65" fill="#b38275" fill-rule="evenodd" stroke="none"/>
    </g>
    <g id="sprite3" transform="matrix(1, 0, 0, 1, 0.0, 0.0)">
      <use height="26.0" transform="matrix(1.0, 0.0, 0.0, 1.0, 0.0, 0.0)" width="81.5" xlink:href="#shape3"/>
    </g>
    <g id="shape3" transform="matrix(1, 0, 0, 1, 0.0, 0.0)">
      <path d="M78.1 3.85 L78.3 4.05 78.3 4.4 Q80.2 6.0 80.6 10.6 L80.8 17.9 Q80.8 21.55 81.15 23.4 L81.35 23.5 81.5 24.5 Q81.5 25.75 81.3 25.5 L79.75 26.0 Q78.85 25.85 78.3 25.5 L77.55 25.0 78.45 24.3 79.25 23.6 80.4 23.3 Q79.65 20.15 79.3 14.5 79.0 8.9 78.05 5.2 L78.0 5.25 Q77.15 5.15 76.85 4.45 76.55 3.8 74.9 3.45 L74.05 3.3 74.05 2.3 76.35 2.55 77.7 3.5 78.1 3.85 M5.25 6.1 L5.3 6.55 Q5.75 9.65 5.75 16.6 L6.25 18.55 6.75 20.25 Q4.8 23.8 4.25 24.25 L4.2 24.25 3.25 24.05 2.0 23.8 Q1.75 24.5 1.75 23.25 1.75 22.5 2.05 22.1 L2.45 21.45 2.5 21.3 3.3 21.7 4.25 22.25 Q4.75 21.0 4.75 17.9 4.75 8.65 2.5 2.3 L1.95 3.1 1.5 3.8 1.3 3.8 0.3 3.8 Q0.0 4.5 0.0 3.25 0.0 -1.55 2.45 0.7 L3.6 1.95 Q4.85 3.7 5.25 6.1" fill="#b38275" fill-rule="evenodd" stroke="none"/>
      <path d="M78.45 24.3 Q77.95 22.25 77.2 17.2 75.7 7.2 74.25 3.5 L74.9 3.45 Q76.55 3.8 76.85 4.45 77.15 5.15 78.0 5.25 L78.05 5.2 Q79.0 8.9 79.3 14.5 79.65 20.15 80.4 23.3 L79.25 23.6 78.45 24.3 M77.7 3.5 L78.05 3.5 78.1 3.85 77.7 3.5 M3.6 1.95 Q5.35 3.8 5.25 6.0 L5.25 6.1 Q4.85 3.7 3.6 1.95 M4.2 24.25 L3.75 24.75 3.25 24.05 4.2 24.25 M2.45 21.45 L2.35 19.6 2.75 14.0 Q2.75 10.75 2.0 7.6 1.4 5.05 1.3 3.8 L1.5 3.8 1.95 3.1 2.5 2.3 Q4.75 8.65 4.75 17.9 4.75 21.0 4.25 22.25 L3.3 21.7 2.5 21.3 2.45 21.45" fill="#e1b498" fill-rule="evenodd" stroke="none"/>
    </g>
  </defs>
</svg>
