<?xml version="1.0" encoding="UTF-8" standalone="no"?>
<svg xmlns:xlink="http://www.w3.org/1999/xlink" height="177.35px" width="1330.45px" xmlns="http://www.w3.org/2000/svg">
  <g transform="matrix(1, 0, 0, 1, 538.45, 88.65)">
    <use height="177.35" transform="matrix(1.0, 0.0, 0.0, 1.0, -359.5, -88.65)" width="1046.5" xlink:href="#shape0"/>
  </g>
  <defs>
    <g id="shape0" transform="matrix(1, 0, 0, 1, 254.5, 88.65)">
      <path d="M26.7 60.2 Q29.4 61.55 31.5 63.5 33.65 65.45 34.9 67.9 36.2 70.35 36.2 73.15 36.15 76.35 34.55 79.15 32.9 81.95 30.25 84.1 27.55 86.25 24.35 87.45 21.1 88.7 17.9 88.7 13.95 88.65 10.1 87.0 6.25 85.3 3.4 82.35 0.5 79.45 -0.4 75.75 -3.45 77.3 -6.65 78.15 L-13.05 79.0 Q-16.95 79.0 -20.9 77.8 -22.65 80.2 -25.25 82.0 -27.8 83.85 -30.75 84.85 -33.7 85.9 -36.6 85.9 -39.85 85.85 -43.1 84.7 -46.35 83.5 -49.05 81.4 -51.8 79.3 -53.45 76.5 -55.1 73.75 -55.15 70.55 -55.1 66.9 -52.95 63.8 -50.85 60.7 -47.45 58.55 -44.1 56.4 -40.3 55.6 -40.0 51.05 -37.45 47.1 -34.95 43.2 -31.0 40.25 -27.05 37.25 -22.35 35.6 -17.7 33.95 -13.05 33.9 -8.6 33.9 -4.1 35.45 0.4 37.0 4.25 39.75 8.1 42.5 10.65 46.2 L11.9 46.1 Q15.45 46.15 18.85 47.8 22.3 49.4 24.55 52.2 26.8 54.95 26.9 58.45 L26.7 60.2" fill="#29aad6" fill-rule="evenodd" stroke="none"/>
      <path d="M28.5 62.45 Q30.4 63.4 31.95 65.1 33.45 66.85 34.35 68.95 35.2 71.05 35.25 73.15 35.2 76.2 33.6 78.85 32.05 81.5 29.5 83.5 26.95 85.5 23.9 86.65 20.85 87.75 17.85 87.8 14.95 87.75 11.55 86.5 8.1 85.25 5.2 83.0 2.3 80.7 0.9 77.75 -0.5 74.75 0.65 71.25 L1.6 69.85 2.8 68.7 3.55 67.55 Q2.3 67.25 1.6 67.85 0.85 68.4 0.45 69.4 L-0.15 71.3 Q-1.0 74.1 -3.0 75.55 -5.05 77.05 -7.7 77.55 L-13.1 78.05 Q-16.75 78.05 -20.65 76.9 L-21.3 76.7 -21.7 77.25 Q-23.4 79.55 -25.8 81.25 -28.25 83.0 -31.05 83.95 -33.85 84.95 -36.65 84.95 -39.7 84.95 -42.75 83.85 -45.85 82.7 -48.45 80.75 -51.05 78.75 -52.6 76.15 -54.2 73.55 -54.25 70.55 -54.15 67.05 -51.9 64.0 -49.65 60.95 -46.3 59.2 -42.95 57.45 -39.5 57.8 -36.05 58.15 -33.55 61.45 -32.4 63.1 -32.1 65.15 -31.8 67.2 -33.15 68.95 -34.0 69.9 -35.55 70.25 L-38.2 70.0 Q-39.3 69.4 -38.95 67.55 L-38.4 67.35 -37.8 67.15 -39.25 67.2 Q-39.85 67.75 -40.0 68.8 -40.15 69.9 -39.55 70.85 -38.95 71.8 -37.35 72.1 -34.45 72.5 -32.7 71.15 -30.9 69.8 -30.2 67.1 -29.65 64.75 -30.55 62.6 -31.5 60.45 -33.35 59.15 -35.0 58.15 -36.55 57.45 -38.05 56.75 -38.8 55.65 -39.55 54.5 -38.8 52.15 -37.6 48.7 -35.5 45.95 -33.4 43.15 -30.5 41.0 -26.6 38.1 -22.05 36.5 -17.5 34.85 -13.1 34.85 -8.7 34.9 -4.5 36.3 -0.25 37.75 3.35 40.25 L5.25 41.6 Q6.45 42.45 7.4 43.45 8.35 44.45 8.4 45.45 8.35 46.3 7.65 46.8 L6.1 47.8 Q5.2 48.3 4.65 49.2 L3.65 51.1 2.55 53.65 Q2.15 55.0 2.5 55.75 2.85 56.5 4.45 56.15 5.5 55.85 5.5 55.25 L5.05 53.9 Q4.7 53.15 4.75 52.4 5.4 49.1 7.9 48.1 10.4 47.1 13.6 47.65 16.8 48.2 19.6 49.7 22.45 51.15 23.8 52.85 25.95 55.75 24.9 57.45 23.85 59.15 20.5 59.4 18.35 59.5 16.85 60.75 15.35 61.95 14.8 64.15 14.35 66.05 14.9 67.8 15.45 69.6 17.1 70.7 L18.95 71.5 Q20.1 71.8 20.95 71.5 L21.75 70.65 Q22.1 70.1 21.95 69.7 21.8 69.25 20.95 69.45 20.75 70.75 19.85 70.65 18.95 70.55 18.0 69.8 L16.7 68.4 Q16.0 66.95 16.4 65.35 16.8 63.7 17.75 62.5 19.1 60.85 21.0 60.65 L24.85 61.05 28.5 62.45" fill="#e6faff" fill-rule="evenodd" stroke="none"/>
      <path d="M3.35 59.7 Q2.2 64.0 3.5 67.55 2.3 67.3 1.55 67.9 0.85 68.45 0.45 69.45 L-0.15 71.3 Q-1.0 74.1 -3.0 75.6 -5.05 77.05 -7.7 77.6 L-13.1 78.1 Q-16.75 78.1 -20.65 76.9 L-21.3 76.75 -21.7 77.25 Q-23.4 79.55 -25.8 81.3 -28.25 83.0 -31.05 84.0 -33.85 84.95 -36.65 85.0 -39.7 84.95 -42.75 83.85 -45.85 82.75 -48.45 80.75 -51.05 78.8 -52.6 76.2 -54.2 73.55 -54.25 70.55 -54.15 67.05 -51.9 64.0 -49.65 60.95 -46.3 59.2 -42.95 57.45 -39.5 57.85 -36.05 58.2 -33.55 61.5 -32.4 63.1 -32.1 65.15 -31.8 67.2 -33.15 68.95 -34.0 69.95 -35.55 70.3 L-38.2 70.05 Q-39.3 69.45 -38.95 67.6 L-38.4 67.35 -37.8 67.2 Q-38.65 66.65 -39.25 67.2 -39.85 67.75 -40.0 68.85 -40.15 69.9 -39.55 70.9 -38.95 71.85 -37.35 72.15 -34.45 72.5 -32.7 71.15 -30.9 69.8 -30.2 67.15 -29.65 64.8 -30.55 62.65 -31.5 60.5 -33.35 59.2 -35.0 58.2 -36.55 57.5 -38.05 56.8 -38.8 55.65 -39.55 54.5 -38.8 52.15 -37.55 48.5 -35.15 45.55 -35.55 48.15 -35.2 50.75 -34.8 53.35 -33.6 55.7 -32.25 58.4 -29.8 60.2 -27.35 62.0 -24.2 62.45 -21.1 62.95 -17.75 61.65 -19.7 63.9 -19.7 66.0 -19.7 68.1 -18.35 69.7 -17.0 71.25 -14.9 72.0 L-10.5 72.25 Q-7.2 71.85 -4.4 70.15 -1.65 68.45 0.35 65.75 2.35 63.0 3.35 59.7" fill="#c5f1fc" fill-rule="evenodd" stroke="none"/>
      <path d="M32.35 65.55 Q33.7 67.25 34.45 69.25 35.25 71.25 35.25 73.2 35.25 76.25 33.65 78.9 32.1 81.55 29.55 83.55 26.95 85.55 23.95 86.65 20.9 87.8 17.9 87.8 15.0 87.8 11.55 86.5 8.15 85.25 5.25 83.0 2.35 80.75 0.95 77.75 -0.45 74.75 0.7 71.25 1.0 70.5 1.6 69.9 L2.75 68.8 3.55 67.65 Q4.85 71.15 7.7 73.55 10.55 75.95 14.15 76.9 17.75 77.8 21.25 76.85 23.95 75.9 25.8 73.75 27.65 71.6 28.55 68.75 29.45 65.9 29.25 62.85 30.95 63.85 32.35 65.55" fill="#c5f1fc" fill-rule="evenodd" stroke="none"/>
      <path d="M163.5 57.15 Q166.3 58.55 168.55 60.6 170.85 62.7 172.2 65.3 173.5 67.9 173.55 70.85 173.5 74.2 171.75 77.2 170.05 80.15 167.2 82.45 164.35 84.7 160.95 86.0 157.55 87.3 154.15 87.3 150.0 87.25 145.9 85.45 141.8 83.7 138.8 80.6 135.75 77.5 134.8 73.6 131.6 75.25 128.15 76.15 124.75 77.0 121.4 77.05 117.3 77.0 113.1 75.75 111.2 78.3 108.5 80.2 105.8 82.15 102.7 83.2 99.55 84.3 96.45 84.3 93.05 84.3 89.6 83.05 86.2 81.8 83.3 79.55 80.4 77.35 78.65 74.4 76.9 71.5 76.85 68.1 76.9 64.2 79.15 60.95 81.45 57.65 85.0 55.4 88.55 53.15 92.6 52.25 92.9 47.45 95.55 43.3 98.2 39.15 102.4 36.0 106.6 32.85 111.55 31.1 116.5 29.35 121.4 29.3 126.15 29.3 130.9 30.95 135.65 32.55 139.7 35.5 143.75 38.4 146.45 42.3 L147.8 42.25 Q151.55 42.25 155.2 44.0 158.8 45.7 161.2 48.65 163.55 51.6 163.65 55.3 L163.5 57.15" fill="#29aad6" fill-rule="evenodd" stroke="none"/>
      <path d="M160.4 49.35 Q162.7 52.45 161.55 54.25 160.45 56.0 156.9 56.25 154.6 56.4 153.05 57.7 151.45 58.95 150.9 61.3 150.4 63.3 151.0 65.2 151.6 67.05 153.3 68.25 154.05 68.75 155.3 69.1 156.5 69.4 157.35 69.1 L158.25 68.2 Q158.6 67.6 158.45 67.15 158.3 66.7 157.4 66.9 157.15 68.3 156.2 68.2 155.25 68.1 154.25 67.3 L152.85 65.8 Q152.15 64.25 152.55 62.55 153.0 60.85 154.0 59.55 155.4 57.85 157.4 57.6 159.4 57.4 161.55 58.05 L165.4 59.55 Q167.4 60.5 169.0 62.3 170.6 64.15 171.55 66.4 172.5 68.65 172.5 70.85 172.45 74.05 170.8 76.85 169.15 79.65 166.45 81.8 163.7 83.9 160.5 85.1 157.25 86.3 154.1 86.3 151.05 86.3 147.4 84.95 143.8 83.6 140.75 81.25 137.65 78.85 136.2 75.65 134.7 72.5 135.9 68.8 136.25 68.0 136.9 67.35 L138.15 66.15 139.0 64.9 Q137.65 64.6 136.9 65.2 136.1 65.85 135.7 66.85 L135.05 68.85 Q134.15 71.85 132.0 73.4 129.9 74.95 127.05 75.5 L121.35 76.05 Q117.45 76.05 113.35 74.8 L112.65 74.6 112.25 75.15 Q110.45 77.6 107.9 79.4 105.3 81.25 102.35 82.3 99.4 83.3 96.45 83.35 93.2 83.3 89.95 82.15 86.7 80.95 83.95 78.85 81.2 76.8 79.5 74.05 77.85 71.3 77.8 68.1 77.9 64.35 80.25 61.15 82.65 57.9 86.2 56.05 89.75 54.2 93.4 54.6 97.05 54.95 99.7 58.45 100.95 60.2 101.25 62.35 101.55 64.5 100.15 66.4 L98.35 67.55 96.1 67.9 Q94.95 67.8 94.35 67.1 93.7 66.4 94.0 64.9 L94.6 64.7 95.2 64.5 Q94.3 63.95 93.65 64.5 93.0 65.1 92.9 66.25 92.75 67.4 93.35 68.4 94.0 69.45 95.7 69.75 98.75 70.15 100.6 68.7 102.5 67.3 103.25 64.45 103.8 61.95 102.85 59.7 101.9 57.4 99.9 56.05 L96.55 54.25 Q94.95 53.5 94.15 52.3 93.35 51.1 94.15 48.6 95.4 44.95 97.65 42.05 99.9 39.1 102.95 36.8 107.1 33.7 111.9 32.0 116.7 30.3 121.35 30.3 126.0 30.35 130.45 31.85 134.95 33.35 138.75 36.05 L140.8 37.45 143.05 39.4 Q144.05 40.45 144.1 41.5 144.05 42.45 143.3 42.95 L141.65 44.05 Q140.75 44.55 140.15 45.5 L139.05 47.5 Q138.35 48.8 137.95 50.2 137.5 51.6 137.85 52.4 138.2 53.25 139.9 52.85 141.05 52.5 141.0 51.9 L140.55 50.45 Q140.15 49.65 140.2 48.85 140.75 46.05 142.6 44.85 144.45 43.65 147.0 43.65 149.55 43.65 152.2 44.45 154.9 45.3 157.1 46.65 159.3 47.95 160.4 49.35" fill="#e6faff" fill-rule="evenodd" stroke="none"/>
      <path d="M124.1 69.85 Q127.6 69.45 130.55 67.65 133.5 65.8 135.6 62.95 137.7 60.1 138.8 56.55 137.55 61.1 138.9 64.9 137.65 64.6 136.85 65.25 136.1 65.85 135.7 66.9 L135.05 68.85 Q134.15 71.85 132.0 73.4 129.9 74.95 127.05 75.5 L121.35 76.05 Q117.45 76.05 113.35 74.8 L112.65 74.6 112.25 75.15 Q110.45 77.6 107.9 79.4 105.3 81.25 102.35 82.3 99.4 83.3 96.45 83.35 93.2 83.3 89.95 82.15 86.7 80.95 83.95 78.9 81.2 76.8 79.5 74.05 77.85 71.3 77.8 68.1 77.9 64.35 80.25 61.15 82.65 57.9 86.2 56.05 89.75 54.2 93.4 54.6 97.05 54.95 99.7 58.45 100.95 60.2 101.25 62.35 101.55 64.5 100.15 66.4 L98.35 67.55 96.1 67.9 Q94.95 67.8 94.35 67.1 93.7 66.4 94.0 64.9 L94.6 64.7 95.2 64.5 Q94.3 63.95 93.65 64.5 93.0 65.1 92.9 66.25 92.75 67.4 93.35 68.4 94.0 69.45 95.7 69.75 98.75 70.15 100.6 68.7 102.5 67.3 103.25 64.45 103.8 61.95 102.85 59.7 101.9 57.4 99.9 56.05 L96.55 54.25 Q94.95 53.5 94.15 52.3 93.35 51.1 94.15 48.6 95.5 44.7 98.0 41.6 97.6 44.35 98.0 47.1 98.4 49.85 99.65 52.35 101.1 55.2 103.7 57.1 106.3 59.0 109.6 59.5 112.9 60.0 116.4 58.65 114.35 61.05 114.35 63.25 114.4 65.45 115.8 67.15 117.25 68.8 119.45 69.55 L124.1 69.85" fill="#c5f1fc" fill-rule="evenodd" stroke="none"/>
      <path d="M166.1 59.9 Q167.95 61.0 169.4 62.75 170.85 64.55 171.65 66.65 172.5 68.75 172.5 70.85 172.45 74.05 170.8 76.85 169.15 79.65 166.45 81.8 163.7 83.9 160.5 85.1 157.3 86.3 154.1 86.3 151.05 86.3 147.45 84.95 143.85 83.6 140.75 81.25 137.65 78.85 136.2 75.65 134.75 72.5 135.95 68.8 136.25 68.0 136.9 67.4 L138.1 66.2 138.95 65.0 Q140.35 68.7 143.35 71.25 146.35 73.75 150.15 74.75 153.95 75.7 157.65 74.7 160.55 73.7 162.5 71.45 164.45 69.15 165.4 66.15 166.3 63.15 166.1 59.9" fill="#c5f1fc" fill-rule="evenodd" stroke="none"/>
      <path d="M-101.7 -48.8 Q-97.65 -46.8 -94.4 -43.85 -91.15 -40.85 -89.25 -37.15 -87.35 -33.4 -87.3 -29.2 -87.35 -24.35 -89.8 -20.1 -92.3 -15.85 -96.35 -12.6 -100.4 -9.35 -105.3 -7.55 -110.15 -5.7 -115.05 -5.65 -119.45 -5.65 -123.9 -7.15 -128.35 -8.65 -132.3 -11.3 -136.2 -13.95 -138.95 -17.5 -141.7 -21.05 -142.7 -25.25 -147.35 -22.9 -152.2 -21.65 -157.1 -20.35 -161.9 -20.35 -167.8 -20.4 -173.75 -22.2 -176.45 -18.55 -180.35 -15.8 -184.2 -13.05 -188.65 -11.5 -193.15 -9.95 -197.55 -9.9 -202.45 -9.95 -207.35 -11.75 -212.3 -13.55 -216.4 -16.7 -220.55 -19.9 -223.05 -24.1 -225.6 -28.3 -225.65 -33.15 -225.6 -37.3 -223.7 -41.0 -221.85 -44.7 -218.65 -47.7 -215.45 -50.7 -211.45 -52.8 -207.45 -54.85 -203.15 -55.8 -202.8 -61.3 -200.25 -66.2 -197.7 -71.15 -193.5 -75.25 -189.35 -79.35 -184.1 -82.35 -178.9 -85.35 -173.2 -87.0 -167.5 -88.65 -161.9 -88.65 -155.15 -88.6 -148.35 -86.3 -141.55 -84.0 -135.7 -79.8 -129.9 -75.65 -126.05 -70.05 L-124.1 -70.15 Q-120.1 -70.15 -116.1 -68.7 -112.15 -67.3 -108.8 -64.75 -105.5 -62.2 -103.5 -58.8 -101.45 -55.4 -101.4 -51.45 -101.4 -50.1 -101.7 -48.8" fill="#29aad6" fill-rule="evenodd" stroke="none"/>
      <path d="M-98.9 -45.4 Q-96.0 -44.05 -93.75 -41.45 -91.45 -38.8 -90.1 -35.6 -88.75 -32.4 -88.75 -29.25 -88.8 -24.6 -91.15 -20.6 -93.55 -16.6 -97.4 -13.55 -101.3 -10.55 -105.9 -8.85 -110.5 -7.15 -115.05 -7.1 -118.55 -7.1 -122.6 -8.35 -126.7 -9.6 -130.55 -11.9 -134.45 -14.15 -137.35 -17.3 -140.2 -20.4 -141.35 -24.15 -142.5 -27.95 -141.05 -32.15 -140.6 -33.35 -139.7 -34.25 L-137.85 -35.95 Q-137.0 -36.75 -136.7 -37.7 -138.55 -38.2 -139.7 -37.3 -140.8 -36.4 -141.4 -34.9 L-142.3 -32.1 Q-143.6 -27.8 -146.65 -25.6 -149.75 -23.35 -153.75 -22.55 L-161.95 -21.8 Q-167.5 -21.8 -173.4 -23.55 L-174.35 -23.85 -174.95 -23.05 Q-177.5 -19.6 -181.2 -16.95 -184.9 -14.35 -189.15 -12.85 -193.4 -11.4 -197.6 -11.35 -202.2 -11.4 -206.85 -13.05 -211.5 -14.75 -215.45 -17.75 -219.4 -20.75 -221.8 -24.7 -224.2 -28.65 -224.25 -33.2 -224.2 -37.4 -221.9 -41.25 -219.65 -45.15 -216.0 -47.95 -212.35 -50.8 -208.15 -52.0 -203.9 -53.15 -199.9 -52.05 -195.9 -50.95 -192.9 -46.95 -191.75 -45.35 -191.15 -43.35 -190.5 -41.4 -190.7 -39.4 -190.9 -37.35 -192.3 -35.6 -193.25 -34.55 -194.85 -33.95 -196.45 -33.35 -198.05 -33.45 -199.7 -33.55 -200.6 -34.55 -201.55 -35.6 -201.1 -37.7 L-200.2 -38.05 -199.35 -38.3 Q-200.6 -39.15 -201.55 -38.3 -202.45 -37.4 -202.65 -35.8 -202.9 -34.2 -201.95 -32.7 -201.05 -31.25 -198.6 -30.8 -194.3 -30.25 -191.6 -32.3 -188.9 -34.35 -187.85 -38.4 -187.0 -41.95 -188.4 -45.2 -189.75 -48.45 -192.6 -50.4 L-196.25 -52.45 Q-198.1 -53.25 -199.45 -54.25 -200.8 -55.2 -201.25 -56.8 -201.7 -58.35 -200.8 -61.05 -199.05 -66.25 -195.85 -70.45 -192.65 -74.65 -188.25 -77.95 -184.35 -80.85 -179.95 -82.95 -175.5 -85.05 -170.95 -86.15 -166.35 -87.25 -161.95 -87.25 -155.25 -87.2 -148.9 -85.05 -142.5 -82.9 -137.05 -79.05 L-134.1 -77.0 -130.85 -74.25 Q-129.45 -72.7 -129.35 -71.2 -129.45 -69.9 -130.5 -69.15 -131.55 -68.4 -132.9 -67.6 -134.2 -66.85 -135.05 -65.55 L-136.6 -62.65 Q-137.6 -60.75 -138.2 -58.75 -138.85 -56.75 -138.35 -55.6 -137.8 -54.45 -135.4 -55.0 -134.1 -55.35 -133.9 -55.95 -133.65 -56.55 -134.0 -57.3 L-134.65 -58.95 Q-135.0 -59.85 -134.9 -60.7 -134.15 -64.7 -131.5 -66.45 -128.85 -68.15 -125.2 -68.15 -121.55 -68.15 -117.75 -66.95 -113.95 -65.75 -110.8 -63.85 -107.65 -62.0 -106.05 -59.95 -103.85 -57.05 -103.85 -54.9 -103.9 -52.8 -105.8 -51.55 -107.7 -50.3 -111.05 -50.1 -114.35 -49.9 -116.6 -48.05 -118.85 -46.25 -119.65 -42.9 -120.3 -40.0 -119.5 -37.35 -118.65 -34.65 -116.2 -32.95 L-114.45 -32.1 -112.3 -31.55 -110.4 -31.75 Q-109.6 -32.15 -109.1 -33.0 -108.65 -33.9 -108.85 -34.5 -109.1 -35.1 -110.35 -34.85 -110.55 -33.35 -111.45 -33.1 -112.3 -32.85 -113.45 -33.4 -114.55 -33.95 -115.5 -34.85 L-116.85 -36.45 Q-117.85 -38.65 -117.25 -41.1 -116.65 -43.5 -115.2 -45.35 -113.2 -47.85 -110.3 -48.15 -107.45 -48.45 -104.4 -47.55 L-98.9 -45.4" fill="#e6faff" fill-rule="evenodd" stroke="none"/>
      <path d="M-141.55 -40.55 Q-138.55 -44.55 -137.05 -49.5 -137.95 -46.35 -137.85 -43.45 -137.75 -40.45 -136.8 -37.75 -138.65 -38.2 -139.7 -37.3 -140.8 -36.4 -141.4 -34.9 L-142.3 -32.1 Q-143.6 -27.85 -146.65 -25.6 -149.75 -23.35 -153.75 -22.55 L-161.95 -21.8 Q-167.5 -21.8 -173.4 -23.6 L-174.35 -23.9 -174.95 -23.05 Q-177.5 -19.6 -181.2 -17.0 -184.9 -14.35 -189.15 -12.9 -193.4 -11.4 -197.6 -11.4 -202.2 -11.4 -206.85 -13.1 -211.5 -14.75 -215.45 -17.75 -219.4 -20.75 -221.8 -24.7 -224.2 -28.65 -224.25 -33.2 -224.2 -37.45 -221.9 -41.3 -219.65 -45.15 -216.0 -48.0 -212.35 -50.8 -208.15 -52.0 -203.9 -53.2 -199.9 -52.1 -195.9 -51.0 -192.9 -46.95 -191.75 -45.35 -191.15 -43.4 -190.5 -41.4 -190.7 -39.4 -190.9 -37.4 -192.3 -35.65 -193.25 -34.55 -194.85 -33.95 -196.45 -33.35 -198.05 -33.5 -199.7 -33.6 -200.6 -34.6 -201.55 -35.6 -201.1 -37.75 L-200.2 -38.05 -199.35 -38.35 -201.55 -38.3 Q-202.45 -37.45 -202.65 -35.85 -202.9 -34.2 -201.95 -32.75 -201.05 -31.25 -198.6 -30.85 -194.3 -30.25 -191.6 -32.3 -188.9 -34.35 -187.85 -38.4 -187.0 -41.95 -188.4 -45.2 -189.75 -48.45 -192.6 -50.45 L-196.25 -52.45 Q-198.1 -53.3 -199.45 -54.25 -200.8 -55.2 -201.25 -56.8 -201.7 -58.4 -200.8 -61.1 -198.9 -66.65 -195.35 -71.1 -195.95 -67.2 -195.35 -63.25 -194.8 -59.3 -193.0 -55.7 -190.95 -51.65 -187.2 -48.9 -183.5 -46.2 -178.75 -45.45 -174.05 -44.75 -169.0 -46.7 -171.9 -43.25 -171.9 -40.1 -171.9 -36.95 -169.85 -34.55 -167.8 -32.2 -164.65 -31.1 -161.45 -30.0 -158.0 -30.7 -152.95 -31.25 -148.75 -33.85 -144.55 -36.45 -141.55 -40.55" fill="#c5f1fc" fill-rule="evenodd" stroke="none"/>
      <path d="M-97.9 -44.9 Q-95.25 -43.35 -93.2 -40.8 -91.15 -38.25 -89.95 -35.25 -88.75 -32.2 -88.75 -29.25 -88.8 -24.6 -91.15 -20.6 -93.55 -16.6 -97.45 -13.6 -101.3 -10.55 -105.9 -8.85 -110.5 -7.15 -115.05 -7.1 -118.55 -7.15 -122.6 -8.35 -126.7 -9.6 -130.55 -11.9 -134.45 -14.15 -137.35 -17.3 -140.25 -20.4 -141.4 -24.15 -142.5 -27.95 -141.1 -32.15 -140.65 -33.3 -139.7 -34.2 L-137.95 -35.9 Q-137.1 -36.7 -136.75 -37.6 -135.3 -33.65 -132.45 -30.6 -129.6 -27.55 -125.85 -25.6 -122.15 -23.7 -118.05 -23.15 -113.95 -22.6 -110.0 -23.7 -105.85 -25.1 -103.05 -28.35 -100.25 -31.65 -98.95 -35.95 -97.6 -40.25 -97.9 -44.9" fill="#c5f1fc" fill-rule="evenodd" stroke="none"/>
      <path d="M-185.8 14.55 Q-183.05 16.3 -181.3 18.85 -179.55 21.4 -179.5 24.4 -179.6 27.9 -181.9 30.75 -184.2 33.6 -187.65 35.25 -191.15 36.95 -194.7 37.0 -198.35 36.95 -201.85 35.15 -205.35 33.35 -207.6 30.35 -210.85 31.3 -214.05 31.35 L-219.3 30.65 Q-221.95 29.95 -224.45 28.65 -225.2 31.7 -227.55 34.1 -229.9 36.5 -233.05 37.9 -236.25 39.25 -239.45 39.3 -243.0 39.25 -246.45 37.55 -249.85 35.8 -252.15 32.95 -254.4 30.05 -254.5 26.55 -254.4 23.1 -252.25 20.3 -250.05 17.55 -246.7 15.9 L-246.85 14.45 Q-246.75 11.6 -244.9 9.3 -243.05 7.05 -240.25 5.7 -237.45 4.35 -234.55 4.35 L-233.5 4.4 Q-231.4 1.35 -228.25 -0.9 -225.1 -3.15 -221.4 -4.4 -217.7 -5.7 -214.05 -5.7 -210.25 -5.7 -206.4 -4.3 -202.55 -2.95 -199.3 -0.5 -196.05 1.95 -194.0 5.15 -191.95 8.4 -191.7 12.1 -188.6 12.8 -185.8 14.55" fill="#29aad6" fill-rule="evenodd" stroke="none"/>
      <path d="M-183.7 18.9 Q-181.95 21.3 -181.9 24.05 -182.0 27.2 -184.1 29.75 -186.2 32.3 -189.35 33.8 -192.5 35.35 -195.7 35.35 -199.0 35.3 -202.2 33.65 -205.4 32.05 -207.45 29.3 L-207.75 28.9 -208.25 29.05 -214.15 29.95 -218.4 29.55 Q-220.5 29.15 -222.1 28.0 -223.65 26.85 -224.35 24.65 L-224.8 23.15 Q-225.15 22.4 -225.7 21.95 -226.3 21.45 -227.25 21.7 L-226.2 23.05 Q-225.4 23.7 -225.0 24.6 -224.1 27.35 -225.2 29.7 -226.25 32.05 -228.55 33.8 -230.85 35.6 -233.5 36.55 -236.2 37.55 -238.45 37.6 -241.6 37.55 -244.75 36.0 -247.85 34.5 -249.95 31.9 -252.0 29.3 -252.1 26.1 -252.1 24.45 -251.4 22.8 -250.7 21.15 -249.5 19.8 -248.3 18.45 -246.85 17.7 L-244.0 16.6 -240.9 16.3 Q-239.45 16.45 -238.4 17.75 -237.65 18.7 -237.35 19.95 -237.0 21.25 -237.55 22.4 L-238.55 23.5 Q-239.3 24.05 -240.0 24.15 -240.75 24.2 -240.9 23.2 -241.55 23.05 -241.65 23.4 -241.8 23.7 -241.55 24.15 L-240.9 24.8 Q-240.25 25.05 -239.35 24.8 -238.4 24.55 -237.9 24.2 -236.6 23.3 -236.15 21.9 -235.75 20.55 -236.1 19.05 -236.5 17.3 -237.65 16.35 -238.85 15.4 -240.55 15.3 -243.15 15.1 -244.0 13.8 -244.8 12.45 -243.1 10.2 -242.05 8.85 -239.85 7.7 -237.6 6.55 -235.1 6.1 -232.6 5.65 -230.65 6.45 -228.7 7.25 -228.15 9.8 -228.1 10.4 -228.4 11.0 L-228.75 12.05 Q-228.8 12.5 -227.95 12.75 -226.7 13.05 -226.4 12.45 -226.15 11.85 -226.45 10.8 L-227.3 8.8 -228.1 7.3 Q-228.55 6.6 -229.2 6.2 L-230.45 5.45 Q-231.0 5.05 -231.05 4.35 -231.0 3.55 -230.25 2.8 L-228.6 1.35 -227.05 0.3 Q-224.25 -1.7 -220.95 -2.8 -217.65 -3.95 -214.15 -3.95 -210.7 -3.95 -207.15 -2.65 -203.6 -1.4 -200.55 0.85 -198.25 2.55 -196.6 4.75 -194.95 6.95 -194.05 9.6 -193.45 11.45 -194.0 12.35 -194.6 13.25 -195.8 13.8 L-198.3 15.15 Q-199.75 16.15 -200.45 17.85 -201.2 19.5 -200.75 21.35 -200.2 23.45 -198.8 24.55 -197.4 25.6 -195.15 25.3 -193.9 25.05 -193.45 24.3 -192.95 23.55 -193.05 22.7 -193.2 21.85 -193.65 21.4 -194.15 21.0 -194.8 21.4 L-193.9 21.7 Q-193.6 23.15 -194.5 23.65 L-196.55 23.85 Q-197.75 23.55 -198.45 22.8 -199.5 21.4 -199.25 19.8 -199.05 18.2 -198.1 16.95 -196.15 14.35 -193.45 14.05 -190.75 13.8 -188.1 15.15 -185.5 16.5 -183.7 18.9" fill="#e6faff" fill-rule="evenodd" stroke="none"/>
      <path d="M-184.1 29.8 Q-186.2 32.35 -189.35 33.85 -192.5 35.35 -195.7 35.4 -199.0 35.35 -202.2 33.7 -205.4 32.05 -207.45 29.35 L-207.75 28.9 -208.25 29.05 Q-211.3 30.0 -214.15 30.0 L-218.4 29.6 Q-220.5 29.2 -222.1 28.0 -223.65 26.85 -224.35 24.65 L-224.8 23.2 Q-225.1 22.45 -225.7 21.95 -226.25 21.5 -227.2 21.7 -226.15 18.9 -227.1 15.55 -225.9 19.5 -223.0 22.2 -220.15 24.9 -216.2 25.4 -213.8 25.85 -211.75 24.75 -209.7 23.6 -209.1 21.55 -208.55 19.5 -210.5 17.1 -207.9 18.1 -205.45 17.75 -203.0 17.35 -201.1 15.95 -199.15 14.55 -198.1 12.45 -197.15 10.55 -196.85 8.5 -196.55 6.45 -196.85 4.45 -195.0 6.75 -194.05 9.65 -193.45 11.5 -194.0 12.4 -194.6 13.25 -195.8 13.8 L-198.3 15.15 Q-199.75 16.15 -200.45 17.85 -201.2 19.55 -200.75 21.4 -200.2 23.5 -198.8 24.55 -197.4 25.6 -195.15 25.3 -193.9 25.1 -193.45 24.3 -192.95 23.55 -193.05 22.7 -193.2 21.9 -193.65 21.45 -194.15 21.0 -194.8 21.45 L-193.9 21.75 Q-193.6 23.2 -194.5 23.65 L-196.55 23.85 Q-197.75 23.6 -198.45 22.8 -199.5 21.45 -199.25 19.85 -199.05 18.25 -198.1 16.95 -196.15 14.35 -193.45 14.1 -190.75 13.8 -188.1 15.15 -185.5 16.55 -183.7 18.95 -181.95 21.3 -181.9 24.1 -182.0 27.25 -184.1 29.8" fill="#c5f1fc" fill-rule="evenodd" stroke="none"/>
      <path d="M-228.55 33.8 Q-230.85 35.6 -233.5 36.55 -236.2 37.55 -238.45 37.6 -241.6 37.55 -244.75 36.0 -247.85 34.5 -249.95 31.9 -252.0 29.3 -252.1 26.1 -252.05 23.75 -250.75 21.5 -249.45 19.25 -247.35 18.0 -247.5 20.4 -246.8 22.65 -246.15 24.9 -244.65 26.55 -243.2 28.25 -241.1 29.0 -238.35 29.75 -235.55 29.0 -232.7 28.3 -230.5 26.4 -228.25 24.5 -227.25 21.8 L-226.15 23.1 Q-225.35 23.7 -225.0 24.6 -224.1 27.35 -225.2 29.7 -226.25 32.05 -228.55 33.8" fill="#c5f1fc" fill-rule="evenodd" stroke="none"/>
      <path d="M-36.45 -18.8 Q-37.8 -17.1 -39.9 -16.05 -42.0 -15.05 -44.1 -15.05 -46.3 -15.05 -48.4 -16.15 -50.5 -17.25 -51.85 -19.05 -53.8 -18.45 -55.7 -18.45 -58.9 -18.45 -61.95 -20.05 -62.4 -18.2 -63.8 -16.8 -65.25 -15.35 -67.15 -14.5 -69.05 -13.65 -70.95 -13.65 -73.1 -13.7 -75.15 -14.7 -77.2 -15.75 -78.6 -17.45 -79.95 -19.2 -80.0 -21.3 -79.95 -23.4 -78.65 -25.05 -77.3 -26.7 -75.3 -27.7 L-75.4 -28.55 Q-75.35 -30.25 -74.25 -31.65 -73.15 -33.0 -71.45 -33.8 -69.75 -34.6 -68.05 -34.65 L-67.4 -34.6 Q-65.45 -37.35 -62.3 -39.0 -59.1 -40.6 -55.7 -40.65 -52.65 -40.6 -49.65 -39.2 -46.65 -37.8 -44.6 -35.35 -42.55 -32.95 -42.3 -29.95 -40.45 -29.55 -38.8 -28.5 -37.1 -27.45 -36.05 -25.9 -35.0 -24.4 -35.0 -22.6 -35.05 -20.5 -36.45 -18.8" fill="#29aad6" fill-rule="evenodd" stroke="none"/>
      <path d="M-37.75 -19.4 Q-39.0 -17.9 -40.9 -17.0 -42.8 -16.1 -44.7 -16.05 -46.7 -16.1 -48.6 -17.05 -50.55 -18.05 -51.75 -19.7 L-51.95 -19.95 -52.25 -19.85 Q-54.05 -19.3 -55.8 -19.3 -57.8 -19.25 -59.5 -19.9 -61.25 -20.55 -61.9 -22.5 L-62.4 -23.8 Q-62.8 -24.45 -63.65 -24.25 L-63.0 -23.45 -62.3 -22.55 Q-61.75 -20.9 -62.4 -19.5 -63.05 -18.05 -64.4 -17.0 L-67.4 -15.35 Q-69.0 -14.75 -70.35 -14.75 -72.25 -14.75 -74.15 -15.7 -76.0 -16.6 -77.25 -18.15 -78.5 -19.7 -78.55 -21.6 -78.5 -23.1 -77.65 -24.55 -76.75 -25.95 -75.4 -26.65 L-72.75 -27.5 Q-71.3 -27.75 -70.3 -26.65 -69.85 -26.05 -69.7 -25.3 -69.5 -24.55 -69.8 -23.85 -69.95 -23.55 -70.45 -23.2 -70.9 -22.85 -71.3 -22.8 -71.75 -22.75 -71.85 -23.35 -72.4 -23.45 -72.3 -23.05 L-71.8 -22.4 Q-71.45 -22.25 -70.9 -22.4 L-70.0 -22.75 Q-69.25 -23.3 -69.0 -24.15 -68.75 -24.95 -68.95 -25.85 -69.5 -27.95 -71.6 -28.1 -73.2 -28.2 -73.7 -29.0 -74.2 -29.8 -73.15 -31.15 L-71.2 -32.65 -68.35 -33.6 -65.7 -33.4 Q-64.5 -32.95 -64.2 -31.4 L-64.35 -30.7 -64.55 -30.05 Q-64.55 -29.75 -64.05 -29.6 -63.05 -29.4 -63.05 -30.05 -63.05 -30.75 -63.5 -31.6 L-64.15 -32.9 Q-64.6 -33.5 -65.2 -33.8 -65.85 -34.05 -65.9 -34.65 -65.85 -35.4 -64.95 -36.05 L-63.55 -37.1 Q-61.85 -38.3 -59.85 -38.95 -57.85 -39.65 -55.8 -39.65 L-51.6 -38.9 Q-49.45 -38.15 -47.6 -36.75 -44.85 -34.75 -43.7 -31.5 -43.35 -30.4 -43.7 -29.85 -44.05 -29.35 -44.75 -29.0 -45.5 -28.7 -46.25 -28.2 -47.15 -27.6 -47.55 -26.6 -48.0 -25.55 -47.75 -24.45 -47.4 -23.2 -46.55 -22.55 -45.75 -21.95 -44.4 -22.1 -43.4 -22.3 -43.2 -23.0 -43.0 -23.7 -43.3 -24.25 -43.65 -24.75 -44.15 -24.45 L-43.6 -24.25 Q-43.45 -23.35 -44.0 -23.1 L-45.25 -23.0 Q-45.95 -23.15 -46.35 -23.6 -47.0 -24.45 -46.85 -25.4 -46.7 -26.35 -46.15 -27.1 -45.0 -28.65 -43.35 -28.85 -41.75 -29.0 -40.15 -28.2 -38.6 -27.35 -37.5 -25.95 -36.45 -24.5 -36.4 -22.85 -36.45 -20.95 -37.75 -19.4" fill="#e6faff" fill-rule="evenodd" stroke="none"/>
      <path d="M-40.9 -16.95 Q-42.8 -16.05 -44.7 -16.05 -46.7 -16.05 -48.6 -17.05 -50.5 -18.05 -51.75 -19.65 L-51.95 -19.9 -52.25 -19.85 Q-54.05 -19.3 -55.8 -19.3 -57.75 -19.25 -59.5 -19.9 -61.25 -20.5 -61.9 -22.5 L-62.4 -23.75 Q-62.75 -24.4 -63.6 -24.25 -63.0 -25.9 -63.55 -27.95 -62.8 -25.55 -61.1 -23.95 -59.35 -22.3 -57.0 -22.05 -55.55 -21.75 -54.35 -22.45 -53.1 -23.1 -52.75 -24.35 -52.4 -25.6 -53.6 -27.0 -51.2 -26.15 -49.15 -27.0 -47.1 -27.9 -46.15 -29.8 -45.0 -32.1 -45.4 -34.6 -44.3 -33.2 -43.7 -31.5 -43.35 -30.4 -43.7 -29.85 -44.05 -29.3 -44.75 -29.0 L-46.25 -28.2 Q-47.15 -27.55 -47.55 -26.55 -48.0 -25.55 -47.75 -24.45 -47.4 -23.2 -46.55 -22.55 -45.75 -21.9 -44.4 -22.1 -43.4 -22.3 -43.2 -23.0 -43.0 -23.7 -43.3 -24.2 -43.6 -24.75 -44.15 -24.4 L-43.6 -24.25 Q-43.45 -23.35 -43.95 -23.1 L-45.2 -22.95 Q-45.95 -23.1 -46.35 -23.6 -47.0 -24.4 -46.85 -25.35 -46.7 -26.35 -46.15 -27.1 -45.0 -28.65 -43.35 -28.8 -41.75 -29.0 -40.15 -28.15 -38.55 -27.35 -37.5 -25.9 -36.45 -24.5 -36.4 -22.8 -36.45 -20.9 -37.75 -19.4 -39.0 -17.85 -40.9 -16.95" fill="#c5f1fc" fill-rule="evenodd" stroke="none"/>
      <path d="M-67.4 -15.3 Q-69.0 -14.7 -70.35 -14.7 -72.25 -14.7 -74.15 -15.65 -76.0 -16.55 -77.25 -18.1 -78.5 -19.65 -78.55 -21.6 -78.5 -23.0 -77.75 -24.35 -76.95 -25.7 -75.7 -26.45 -75.85 -24.25 -74.85 -22.4 -73.85 -20.55 -71.95 -19.85 -70.3 -19.4 -68.6 -19.85 -66.9 -20.3 -65.6 -21.4 -64.25 -22.55 -63.65 -24.2 L-63.0 -23.4 -62.3 -22.5 Q-61.75 -20.85 -62.4 -19.45 -63.05 -18.05 -64.4 -16.95 L-67.4 -15.3" fill="#c5f1fc" fill-rule="evenodd" stroke="none"/>
      <path d="M187.05 -35.0 Q188.45 -33.0 188.5 -30.6 188.45 -27.8 186.6 -25.5 184.75 -23.2 181.95 -21.9 179.2 -20.55 176.35 -20.5 173.4 -20.55 170.6 -22.0 167.8 -23.45 166.0 -25.8 163.4 -25.05 160.85 -25.05 L156.65 -25.6 Q154.55 -26.15 152.55 -27.15 151.95 -24.7 150.05 -22.8 148.2 -20.9 145.65 -19.8 143.1 -18.7 140.55 -18.65 137.7 -18.7 134.95 -20.05 132.2 -21.45 130.4 -23.75 128.55 -26.05 128.5 -28.85 128.55 -31.6 130.3 -33.85 132.1 -36.05 134.75 -37.35 L134.65 -38.5 Q134.7 -40.8 136.2 -42.65 137.65 -44.45 139.9 -45.55 142.15 -46.6 144.45 -46.65 L145.3 -46.6 Q146.95 -49.0 149.5 -50.8 152.0 -52.65 155.0 -53.65 157.95 -54.65 160.85 -54.65 163.9 -54.65 166.95 -53.55 170.05 -52.45 172.65 -50.5 175.25 -48.55 176.9 -45.95 178.55 -43.4 178.75 -40.4 181.25 -39.85 183.45 -38.45 185.65 -37.05 187.05 -35.0" fill="#29aad6" fill-rule="evenodd" stroke="none"/>
      <path d="M176.9 -42.45 Q177.35 -41.0 176.9 -40.25 176.45 -39.55 175.5 -39.1 L173.5 -38.05 Q172.3 -37.2 171.75 -35.85 171.2 -34.55 171.55 -33.05 171.95 -31.35 173.1 -30.5 174.2 -29.65 176.0 -29.9 177.35 -30.15 177.6 -31.1 177.85 -32.05 177.4 -32.75 177.0 -33.45 176.3 -33.0 L177.0 -32.75 Q177.25 -31.6 176.55 -31.2 L174.85 -31.1 Q173.9 -31.3 173.35 -31.9 172.5 -33.0 172.7 -34.3 172.9 -35.55 173.65 -36.6 175.2 -38.65 177.35 -38.9 179.5 -39.1 181.65 -38.0 183.75 -36.95 185.15 -35.0 186.55 -33.1 186.6 -30.9 186.55 -28.35 184.85 -26.3 183.15 -24.3 180.65 -23.1 178.15 -21.9 175.55 -21.85 172.9 -21.9 170.35 -23.2 167.8 -24.5 166.2 -26.7 L165.95 -27.05 165.55 -26.9 Q163.1 -26.2 160.8 -26.15 L157.4 -26.5 Q155.75 -26.8 154.45 -27.75 153.2 -28.65 152.65 -30.45 L151.95 -32.15 Q151.5 -33.0 150.35 -32.75 150.55 -32.2 151.2 -31.7 L152.15 -30.45 Q152.85 -28.25 152.0 -26.4 151.1 -24.5 149.3 -23.1 147.45 -21.7 145.3 -20.9 143.2 -20.1 141.35 -20.1 138.8 -20.1 136.35 -21.35 133.85 -22.55 132.2 -24.6 130.5 -26.7 130.45 -29.25 130.5 -31.25 131.65 -33.15 132.85 -35.05 134.65 -35.95 L136.95 -36.85 139.4 -37.1 Q140.6 -36.95 141.4 -35.95 142.0 -35.2 142.25 -34.15 142.5 -33.15 142.1 -32.25 L141.3 -31.35 140.1 -30.85 Q139.55 -30.75 139.4 -31.6 138.65 -31.7 138.75 -31.15 138.9 -30.6 139.45 -30.3 139.95 -30.1 140.65 -30.3 141.4 -30.5 141.8 -30.8 142.85 -31.5 143.2 -32.6 143.55 -33.7 143.25 -34.9 142.9 -36.3 142.0 -37.05 141.05 -37.8 139.7 -37.9 137.6 -38.05 136.95 -39.1 136.25 -40.15 137.65 -42.0 138.5 -43.05 140.25 -44.0 142.05 -44.9 144.05 -45.25 L147.6 -45.0 Q149.15 -44.35 149.6 -42.3 L149.4 -41.35 149.15 -40.5 Q149.1 -40.1 149.8 -39.95 151.1 -39.65 151.1 -40.55 151.1 -41.4 150.55 -42.6 L149.65 -44.3 148.25 -45.5 Q147.4 -45.85 147.3 -46.65 147.35 -47.3 147.9 -47.9 L149.25 -49.05 150.45 -49.9 Q152.75 -51.5 155.4 -52.4 158.0 -53.3 160.8 -53.3 163.55 -53.3 166.4 -52.3 169.25 -51.25 171.7 -49.45 175.4 -46.75 176.9 -42.45" fill="#e6faff" fill-rule="evenodd" stroke="none"/>
      <path d="M185.15 -35.0 Q186.55 -33.1 186.6 -30.9 186.55 -28.35 184.85 -26.35 183.15 -24.3 180.65 -23.1 178.1 -21.9 175.55 -21.85 172.9 -21.9 170.35 -23.2 167.8 -24.5 166.15 -26.7 L165.9 -27.05 165.5 -26.9 Q163.05 -26.2 160.75 -26.2 L157.35 -26.5 Q155.7 -26.8 154.45 -27.75 153.15 -28.65 152.65 -30.45 L151.95 -32.15 Q151.45 -33.0 150.35 -32.8 151.15 -35.05 150.45 -37.75 151.4 -34.55 153.7 -32.4 156.0 -30.25 159.15 -29.85 161.1 -29.5 162.7 -30.35 164.35 -31.25 164.8 -32.9 165.3 -34.6 163.7 -36.5 166.9 -35.3 169.6 -36.5 172.3 -37.65 173.65 -40.2 174.4 -41.7 174.6 -43.35 174.85 -45.0 174.6 -46.6 176.1 -44.75 176.9 -42.45 177.35 -41.0 176.9 -40.25 176.45 -39.55 175.5 -39.1 L173.5 -38.05 Q172.3 -37.25 171.75 -35.9 171.15 -34.55 171.5 -33.05 171.95 -31.35 173.05 -30.5 174.2 -29.65 175.95 -29.9 177.3 -30.15 177.55 -31.1 177.8 -32.05 177.4 -32.75 177.0 -33.45 176.3 -33.0 L177.0 -32.75 Q177.2 -31.6 176.5 -31.2 L174.85 -31.1 Q173.9 -31.3 173.35 -31.9 172.5 -33.0 172.7 -34.3 172.85 -35.55 173.6 -36.6 175.15 -38.65 177.35 -38.9 179.5 -39.1 181.6 -38.05 183.7 -36.95 185.15 -35.0" fill="#c5f1fc" fill-rule="evenodd" stroke="none"/>
      <path d="M152.15 -30.45 Q152.85 -28.25 152.0 -26.35 151.1 -24.45 149.3 -23.05 147.45 -21.65 145.3 -20.85 143.2 -20.05 141.35 -20.05 138.8 -20.05 136.35 -21.3 133.85 -22.5 132.2 -24.6 130.5 -26.65 130.45 -29.2 130.5 -31.1 131.55 -32.9 132.6 -34.7 134.25 -35.7 134.1 -32.75 135.4 -30.3 136.7 -27.85 139.25 -26.9 141.45 -26.3 143.7 -26.9 145.95 -27.45 147.75 -29.0 149.55 -30.5 150.35 -32.7 150.6 -32.15 151.2 -31.65 L152.15 -30.45" fill="#c5f1fc" fill-rule="evenodd" stroke="none"/>
      <path d="M248.5 4.15 Q245.8 6.2 242.6 7.4 239.4 8.55 236.25 8.55 233.35 8.55 230.45 7.55 227.55 6.55 225.05 4.75 222.5 2.95 220.75 0.6 216.9 1.75 213.05 1.8 209.95 1.8 206.75 0.95 203.55 0.1 200.55 -1.4 199.65 2.25 196.85 5.1 194.05 8.0 190.2 9.65 186.4 11.3 182.55 11.35 179.4 11.35 176.2 10.15 173.05 8.95 170.4 6.8 167.75 4.7 166.15 1.95 164.55 -0.85 164.5 -4.0 164.55 -6.75 165.75 -9.15 167.0 -11.55 169.1 -13.5 171.25 -15.45 173.85 -16.75 173.7 -17.55 173.7 -18.45 173.8 -21.9 176.0 -24.65 178.25 -27.35 181.6 -29.0 184.95 -30.6 188.45 -30.6 L189.7 -30.55 Q192.2 -34.2 196.0 -36.9 199.8 -39.6 204.2 -41.1 208.65 -42.65 213.05 -42.65 217.6 -42.6 222.2 -41.0 226.8 -39.35 230.7 -36.4 234.65 -33.5 237.1 -29.6 239.55 -25.75 239.9 -21.25 243.65 -20.45 246.95 -18.35 250.25 -16.25 252.35 -13.2 254.45 -10.15 254.5 -6.55 254.45 -3.4 252.85 -0.65 251.2 2.05 248.5 4.15" fill="#29aad6" fill-rule="evenodd" stroke="none"/>
      <path d="M250.1 -1.7 Q248.6 0.75 246.15 2.6 243.75 4.45 240.85 5.5 237.95 6.55 235.05 6.55 232.45 6.55 229.8 5.65 227.15 4.7 224.9 3.1 222.6 1.45 221.0 -0.7 L220.6 -1.2 220.0 -1.0 Q216.35 0.1 212.9 0.1 L207.8 -0.35 Q205.3 -0.85 203.4 -2.25 201.5 -3.65 200.7 -6.3 L200.15 -8.05 Q199.75 -9.0 199.05 -9.55 198.4 -10.1 197.2 -9.8 197.4 -9.2 197.95 -8.7 L199.05 -7.65 199.95 -6.35 Q201.0 -3.05 199.7 -0.25 198.4 2.6 195.65 4.7 192.9 6.85 189.7 8.0 186.5 9.2 183.75 9.25 180.95 9.2 178.1 8.15 175.2 7.1 172.8 5.2 170.4 3.3 168.9 0.85 167.45 -1.65 167.4 -4.55 167.4 -6.5 168.25 -8.5 169.1 -10.5 170.5 -12.1 171.95 -13.75 173.75 -14.6 175.3 -15.35 177.15 -15.9 L180.8 -16.3 Q182.6 -16.1 183.85 -14.55 184.75 -13.4 185.15 -11.9 185.5 -10.4 184.85 -9.0 184.55 -8.4 183.65 -7.7 182.75 -7.0 181.9 -6.9 181.05 -6.8 180.85 -8.05 180.05 -8.2 179.9 -7.8 179.8 -7.4 180.05 -6.9 180.35 -6.35 180.85 -6.1 181.65 -5.8 182.7 -6.1 183.8 -6.4 184.45 -6.85 186.0 -7.9 186.5 -9.55 187.05 -11.25 186.6 -13.0 186.1 -15.1 184.7 -16.25 183.3 -17.35 181.25 -17.5 178.1 -17.7 177.15 -19.3 176.15 -20.9 178.15 -23.65 179.45 -25.25 182.1 -26.65 184.75 -28.0 187.8 -28.55 L193.15 -28.15 Q195.5 -27.2 196.1 -24.1 196.15 -23.35 195.8 -22.65 L195.4 -21.4 Q195.35 -20.85 196.4 -20.55 197.9 -20.2 198.25 -20.9 198.55 -21.65 198.15 -22.9 L197.15 -25.3 196.2 -27.1 194.85 -28.4 193.35 -29.35 Q192.7 -29.8 192.65 -30.6 192.7 -31.55 193.6 -32.5 L195.6 -34.25 197.45 -35.5 Q200.85 -37.9 204.8 -39.25 208.75 -40.6 212.9 -40.6 217.05 -40.6 221.3 -39.05 225.6 -37.55 229.25 -34.8 232.0 -32.8 234.0 -30.15 236.0 -27.55 237.1 -24.3 237.8 -22.1 237.1 -21.05 236.4 -19.95 234.95 -19.3 L232.0 -17.7 Q230.2 -16.5 229.35 -14.45 228.5 -12.45 229.0 -10.25 229.65 -7.7 231.35 -6.45 233.0 -5.15 235.7 -5.5 237.2 -5.75 237.8 -6.7 238.35 -7.6 238.25 -8.6 238.1 -9.6 237.55 -10.15 L236.2 -10.2 236.7 -10.0 237.25 -9.8 Q237.6 -8.05 236.5 -7.5 L234.05 -7.25 Q232.6 -7.6 231.8 -8.5 230.5 -10.15 230.8 -12.1 231.05 -14.0 232.15 -15.55 234.5 -18.65 237.75 -19.0 241.0 -19.35 244.15 -17.7 247.35 -16.05 249.45 -13.15 251.55 -10.3 251.65 -7.0 251.6 -4.15 250.1 -1.7" fill="#e6faff" fill-rule="evenodd" stroke="none"/>
      <path d="M240.8 5.5 Q237.9 6.55 235.05 6.55 232.45 6.55 229.8 5.65 227.15 4.7 224.85 3.1 222.55 1.45 220.95 -0.7 L220.6 -1.2 220.0 -1.0 Q216.3 0.1 212.9 0.1 L207.8 -0.35 Q205.3 -0.85 203.4 -2.25 201.5 -3.65 200.7 -6.3 L200.1 -8.05 Q199.75 -8.95 199.05 -9.55 198.4 -10.1 197.25 -9.85 198.5 -13.15 197.4 -17.15 198.35 -14.05 200.2 -11.55 202.1 -9.0 204.7 -7.4 207.3 -5.75 210.4 -5.45 L214.55 -5.7 Q216.55 -6.35 217.8 -7.85 219.1 -9.3 219.1 -11.3 219.1 -13.25 217.25 -15.4 220.4 -14.2 223.35 -14.6 226.3 -15.05 228.6 -16.75 230.9 -18.45 232.2 -20.95 233.3 -23.2 233.65 -25.65 234.0 -28.1 233.65 -30.55 235.85 -27.8 237.05 -24.3 237.75 -22.1 237.05 -21.05 236.4 -19.95 234.95 -19.3 L231.95 -17.7 Q230.2 -16.5 229.3 -14.45 228.45 -12.45 229.0 -10.25 229.65 -7.7 231.3 -6.45 233.0 -5.15 235.7 -5.5 237.2 -5.75 237.75 -6.7 238.35 -7.6 238.2 -8.6 238.05 -9.65 237.5 -10.15 L236.15 -10.2 236.7 -10.0 237.2 -9.8 Q237.55 -8.05 236.5 -7.5 L234.0 -7.25 Q232.55 -7.6 231.75 -8.5 230.5 -10.15 230.75 -12.1 231.05 -14.0 232.15 -15.55 234.5 -18.65 237.75 -19.0 240.95 -19.35 244.15 -17.7 247.3 -16.05 249.4 -13.15 251.55 -10.3 251.6 -7.0 251.55 -4.15 250.05 -1.7 248.6 0.75 246.15 2.6 243.7 4.45 240.8 5.5" fill="#c5f1fc" fill-rule="evenodd" stroke="none"/>
      <path d="M189.7 8.05 Q186.5 9.2 183.75 9.25 180.95 9.25 178.1 8.15 175.2 7.1 172.8 5.2 170.4 3.35 168.9 0.85 167.45 -1.65 167.4 -4.5 167.45 -7.35 169.05 -10.05 170.6 -12.75 173.1 -14.25 172.9 -11.35 173.75 -8.7 174.55 -6.0 176.3 -4.0 178.05 -1.95 180.6 -1.05 183.9 -0.15 187.3 -1.05 190.65 -1.9 193.35 -4.15 196.0 -6.45 197.25 -9.7 197.6 -8.9 198.55 -8.15 199.45 -7.4 199.95 -6.35 201.0 -3.05 199.7 -0.25 198.4 2.6 195.65 4.7 192.9 6.85 189.7 8.05" fill="#c5f1fc" fill-rule="evenodd" stroke="none"/>
      <path d="M564.2 60.2 Q566.9 61.55 569.0 63.5 571.15 65.45 572.4 67.9 573.7 70.35 573.7 73.15 573.65 76.35 572.05 79.15 570.4 81.95 567.75 84.1 565.05 86.25 561.85 87.45 558.6 88.7 555.4 88.7 551.45 88.65 547.6 87.0 543.75 85.3 540.9 82.35 538.0 79.45 537.1 75.75 534.05 77.3 530.85 78.15 527.6 79.0 524.45 79.0 520.55 79.0 516.6 77.8 514.85 80.2 512.25 82.0 509.7 83.85 506.75 84.85 503.8 85.9 500.9 85.9 497.65 85.85 494.4 84.7 491.15 83.5 488.45 81.4 485.7 79.3 484.05 76.5 482.4 73.75 482.35 70.55 482.4 66.9 484.55 63.8 486.65 60.7 490.05 58.55 493.4 56.4 497.2 55.6 497.5 51.05 500.05 47.1 502.55 43.2 506.5 40.25 510.45 37.25 515.15 35.6 519.8 33.95 524.45 33.9 528.9 33.9 533.4 35.45 537.9 37.0 541.75 39.75 545.6 42.5 548.15 46.2 L549.4 46.1 Q552.95 46.15 556.35 47.8 559.8 49.4 562.05 52.2 564.3 54.95 564.4 58.45 L564.2 60.2" fill="#29aad6" fill-rule="evenodd" stroke="none"/>
      <path d="M566.0 62.45 Q567.9 63.4 569.45 65.1 570.95 66.85 571.85 68.95 572.7 71.05 572.75 73.15 572.7 76.2 571.1 78.85 569.55 81.5 567.0 83.5 564.45 85.5 561.4 86.65 558.35 87.75 555.35 87.8 552.45 87.75 549.05 86.5 545.6 85.25 542.7 83.0 539.8 80.7 538.4 77.75 537.0 74.75 538.15 71.25 L539.1 69.85 540.3 68.7 Q540.85 68.2 541.05 67.55 539.8 67.25 539.1 67.85 538.35 68.4 537.95 69.4 L537.35 71.3 Q536.5 74.1 534.5 75.55 532.45 77.05 529.8 77.55 L524.4 78.05 Q520.75 78.05 516.85 76.9 L516.2 76.7 515.8 77.25 Q514.1 79.55 511.7 81.25 509.25 83.0 506.45 83.95 503.65 84.95 500.85 84.95 497.8 84.95 494.75 83.85 491.65 82.7 489.05 80.75 486.45 78.75 484.9 76.15 483.3 73.55 483.25 70.55 483.35 67.05 485.6 64.0 487.85 60.95 491.2 59.2 494.55 57.45 498.0 57.8 501.45 58.15 503.95 61.45 505.1 63.1 505.4 65.15 505.7 67.2 504.35 68.95 503.5 69.9 501.95 70.25 L499.3 70.0 Q498.2 69.4 498.55 67.55 L499.1 67.35 499.7 67.15 498.25 67.2 Q497.65 67.75 497.5 68.8 497.35 69.9 497.95 70.85 498.55 71.8 500.15 72.1 503.05 72.5 504.8 71.15 506.6 69.8 507.3 67.1 507.85 64.75 506.95 62.6 506.0 60.45 504.15 59.15 L500.95 57.45 Q499.45 56.75 498.7 55.65 497.95 54.5 498.7 52.15 499.9 48.7 502.0 45.95 504.1 43.15 507.0 41.0 510.9 38.1 515.45 36.5 520.0 34.85 524.4 34.85 528.8 34.9 533.0 36.3 537.25 37.75 540.85 40.25 L542.75 41.6 544.9 43.45 Q545.85 44.45 545.9 45.45 545.85 46.3 545.15 46.8 L543.6 47.8 Q542.7 48.3 542.15 49.2 L541.15 51.1 540.05 53.65 Q539.65 55.0 540.0 55.75 540.35 56.5 541.95 56.15 543.0 55.85 543.0 55.25 L542.55 53.9 Q542.2 53.15 542.25 52.4 542.9 49.1 545.4 48.1 547.9 47.1 551.1 47.65 554.3 48.2 557.1 49.7 559.95 51.15 561.3 52.85 563.45 55.75 562.4 57.45 561.35 59.15 558.0 59.4 555.85 59.5 554.35 60.75 552.85 61.95 552.3 64.15 551.85 66.05 552.4 67.8 552.95 69.6 554.6 70.7 L556.45 71.5 Q557.6 71.8 558.45 71.5 L559.25 70.65 559.45 69.7 Q559.3 69.25 558.45 69.45 558.25 70.75 557.35 70.65 556.45 70.55 555.5 69.8 554.55 69.05 554.2 68.4 553.5 66.95 553.9 65.35 554.3 63.7 555.25 62.5 556.6 60.85 558.5 60.65 L562.35 61.05 566.0 62.45" fill="#e6faff" fill-rule="evenodd" stroke="none"/>
      <path d="M540.85 59.7 Q539.7 64.0 541.0 67.55 539.8 67.3 539.05 67.9 538.35 68.45 537.95 69.45 L537.35 71.3 Q536.5 74.1 534.5 75.6 532.45 77.05 529.8 77.6 L524.4 78.1 Q520.75 78.1 516.85 76.9 L516.2 76.75 515.8 77.25 Q514.1 79.55 511.7 81.3 509.25 83.0 506.45 84.0 503.65 84.95 500.85 85.0 497.8 84.95 494.75 83.85 491.65 82.75 489.05 80.75 486.45 78.8 484.9 76.2 483.3 73.55 483.25 70.55 483.35 67.05 485.6 64.0 487.85 60.95 491.2 59.2 494.55 57.45 498.0 57.85 501.45 58.2 503.95 61.5 505.1 63.1 505.4 65.15 505.7 67.2 504.35 68.95 503.5 69.95 501.95 70.3 L499.3 70.05 Q498.2 69.45 498.55 67.6 L499.1 67.35 499.7 67.2 Q498.85 66.65 498.25 67.2 497.65 67.75 497.5 68.85 497.35 69.9 497.95 70.9 498.55 71.85 500.15 72.15 503.05 72.5 504.8 71.15 506.6 69.8 507.3 67.15 507.85 64.8 506.95 62.65 506.0 60.5 504.15 59.2 L500.95 57.5 Q499.45 56.8 498.7 55.65 497.95 54.5 498.7 52.15 499.95 48.5 502.35 45.55 501.95 48.15 502.3 50.75 502.7 53.35 503.9 55.7 505.25 58.4 507.7 60.2 510.15 62.0 513.3 62.45 516.4 62.95 519.75 61.65 517.8 63.9 517.8 66.0 517.8 68.1 519.15 69.7 520.5 71.25 522.6 72.0 L527.0 72.25 Q530.3 71.85 533.1 70.15 535.85 68.45 537.85 65.75 539.85 63.0 540.85 59.7" fill="#c5f1fc" fill-rule="evenodd" stroke="none"/>
      <path d="M571.95 69.25 Q572.75 71.25 572.75 73.2 572.75 76.25 571.15 78.9 569.6 81.55 567.05 83.55 564.45 85.55 561.45 86.65 558.4 87.8 555.4 87.8 552.5 87.8 549.05 86.5 545.65 85.25 542.75 83.0 539.85 80.75 538.45 77.75 537.05 74.75 538.2 71.25 538.5 70.5 539.1 69.9 L540.25 68.8 541.05 67.65 Q542.35 71.15 545.2 73.55 548.05 75.95 551.65 76.9 555.25 77.8 558.75 76.85 561.45 75.9 563.3 73.75 565.15 71.6 566.05 68.75 566.95 65.9 566.75 62.85 568.45 63.85 569.85 65.55 571.2 67.25 571.95 69.25" fill="#c5f1fc" fill-rule="evenodd" stroke="none"/>
      <path d="M701.0 57.15 Q703.8 58.55 706.05 60.6 708.35 62.7 709.7 65.3 711.0 67.9 711.05 70.85 711.0 74.2 709.25 77.2 707.55 80.15 704.7 82.45 701.85 84.7 698.45 86.0 695.05 87.3 691.65 87.3 687.5 87.25 683.4 85.45 679.3 83.7 676.3 80.6 673.25 77.5 672.3 73.6 669.1 75.25 665.65 76.15 662.25 77.0 658.9 77.05 654.8 77.0 650.6 75.75 648.7 78.3 646.0 80.2 643.3 82.15 640.2 83.2 637.05 84.3 633.95 84.3 630.55 84.3 627.1 83.05 623.7 81.8 620.8 79.55 617.9 77.35 616.15 74.4 614.4 71.5 614.35 68.1 614.4 64.2 616.65 60.95 618.95 57.65 622.5 55.4 626.05 53.15 630.1 52.25 630.4 47.45 633.05 43.3 635.7 39.15 639.9 36.0 644.1 32.85 649.05 31.1 654.0 29.35 658.9 29.3 663.65 29.3 668.4 30.95 673.15 32.55 677.2 35.5 681.25 38.4 683.95 42.3 L685.3 42.25 Q689.05 42.25 692.7 44.0 696.3 45.7 698.7 48.65 701.05 51.6 701.15 55.3 L701.0 57.15" fill="#29aad6" fill-rule="evenodd" stroke="none"/>
      <path d="M697.9 49.35 Q700.2 52.45 699.05 54.25 697.95 56.0 694.4 56.25 692.1 56.4 690.55 57.7 688.95 58.95 688.4 61.3 687.9 63.3 688.5 65.2 689.1 67.05 690.8 68.25 691.55 68.75 692.8 69.1 694.0 69.4 694.85 69.1 L695.75 68.2 Q696.1 67.6 695.95 67.15 695.8 66.7 694.9 66.9 694.65 68.3 693.7 68.2 692.75 68.1 691.75 67.3 L690.35 65.8 Q689.65 64.25 690.05 62.55 690.5 60.85 691.5 59.55 692.9 57.85 694.9 57.6 696.9 57.4 699.05 58.05 701.15 58.7 702.9 59.55 704.9 60.5 706.5 62.3 708.1 64.15 709.05 66.4 710.0 68.65 710.0 70.85 709.95 74.05 708.3 76.85 706.65 79.65 703.95 81.8 701.2 83.9 698.0 85.1 694.75 86.3 691.6 86.3 688.55 86.3 684.9 84.95 681.3 83.6 678.25 81.25 675.15 78.85 673.7 75.65 672.2 72.5 673.4 68.8 673.75 68.0 674.4 67.35 L675.65 66.15 676.5 64.9 Q675.15 64.6 674.4 65.2 673.6 65.85 673.2 66.85 L672.55 68.85 Q671.65 71.85 669.5 73.4 667.4 74.95 664.55 75.5 L658.85 76.05 Q654.95 76.05 650.85 74.8 L650.15 74.6 649.75 75.15 Q647.95 77.6 645.4 79.4 642.8 81.25 639.85 82.3 636.9 83.3 633.95 83.35 630.7 83.3 627.45 82.15 624.2 80.95 621.45 78.85 618.7 76.8 617.0 74.05 615.35 71.3 615.3 68.1 615.4 64.35 617.75 61.15 620.15 57.9 623.7 56.05 627.25 54.2 630.9 54.6 634.55 54.95 637.2 58.45 638.45 60.2 638.75 62.35 639.05 64.5 637.65 66.4 L635.85 67.55 633.6 67.9 Q632.45 67.8 631.85 67.1 631.2 66.4 631.5 64.9 L632.1 64.7 632.7 64.5 Q631.8 63.95 631.15 64.5 630.5 65.1 630.4 66.25 630.25 67.4 630.85 68.4 631.5 69.45 633.2 69.75 636.25 70.15 638.1 68.7 640.0 67.3 640.75 64.45 641.3 61.95 640.35 59.7 639.4 57.4 637.4 56.05 L634.05 54.25 Q632.45 53.5 631.65 52.3 630.85 51.1 631.65 48.6 632.9 44.95 635.15 42.05 637.4 39.1 640.45 36.8 644.6 33.7 649.4 32.0 654.2 30.3 658.85 30.3 663.5 30.35 667.95 31.85 672.45 33.35 676.25 36.05 L678.3 37.45 Q679.55 38.35 680.55 39.4 681.55 40.45 681.6 41.5 681.55 42.45 680.8 42.95 L679.15 44.05 Q678.25 44.55 677.65 45.5 L676.55 47.5 Q675.85 48.8 675.45 50.2 675.0 51.6 675.35 52.4 675.7 53.25 677.4 52.85 678.55 52.5 678.5 51.9 L678.05 50.45 Q677.65 49.65 677.7 48.85 678.25 46.05 680.1 44.85 681.95 43.65 684.5 43.65 687.05 43.65 689.7 44.45 692.4 45.3 694.6 46.65 696.8 47.95 697.9 49.35" fill="#e6faff" fill-rule="evenodd" stroke="none"/>
      <path d="M661.6 69.85 Q665.1 69.45 668.05 67.65 671.0 65.8 673.1 62.95 675.2 60.1 676.3 56.55 675.05 61.1 676.4 64.9 675.15 64.6 674.35 65.25 673.6 65.85 673.2 66.9 L672.55 68.85 Q671.65 71.85 669.5 73.4 667.4 74.95 664.55 75.5 L658.85 76.05 Q654.95 76.05 650.85 74.8 L650.15 74.6 649.75 75.15 Q647.95 77.6 645.4 79.4 642.8 81.25 639.85 82.3 636.9 83.3 633.95 83.35 630.7 83.3 627.45 82.15 624.2 80.95 621.45 78.9 618.7 76.8 617.0 74.05 615.35 71.3 615.3 68.1 615.4 64.35 617.75 61.15 620.15 57.9 623.7 56.05 627.25 54.2 630.9 54.6 634.55 54.95 637.2 58.45 638.45 60.2 638.75 62.35 639.05 64.5 637.65 66.4 L635.85 67.55 633.6 67.9 Q632.45 67.8 631.85 67.1 631.2 66.4 631.5 64.9 L632.1 64.7 632.7 64.5 Q631.8 63.95 631.15 64.5 630.5 65.1 630.4 66.25 630.25 67.4 630.85 68.4 631.5 69.45 633.2 69.75 636.25 70.15 638.1 68.7 640.0 67.3 640.75 64.45 641.3 61.95 640.35 59.7 639.4 57.4 637.4 56.05 L634.05 54.25 Q632.45 53.5 631.65 52.3 630.85 51.1 631.65 48.6 633.0 44.7 635.5 41.6 635.1 44.35 635.5 47.1 635.9 49.85 637.15 52.35 638.6 55.2 641.2 57.1 643.8 59.0 647.1 59.5 650.4 60.0 653.9 58.65 651.85 61.05 651.85 63.25 651.9 65.45 653.3 67.15 654.75 68.8 656.95 69.55 L661.6 69.85" fill="#c5f1fc" fill-rule="evenodd" stroke="none"/>
      <path d="M703.6 59.9 Q705.45 61.0 706.9 62.75 708.35 64.55 709.15 66.65 710.0 68.75 710.0 70.85 709.95 74.05 708.3 76.85 706.65 79.65 703.95 81.8 701.2 83.9 698.0 85.1 694.8 86.3 691.6 86.3 688.55 86.3 684.95 84.95 681.35 83.6 678.25 81.25 675.15 78.85 673.7 75.65 672.25 72.5 673.45 68.8 673.75 68.0 674.4 67.4 L675.6 66.2 676.45 65.0 Q677.85 68.7 680.85 71.25 683.85 73.75 687.65 74.75 691.45 75.7 695.15 74.7 698.05 73.7 700.0 71.45 701.95 69.15 702.9 66.15 703.8 63.15 703.6 59.9" fill="#c5f1fc" fill-rule="evenodd" stroke="none"/>
      <path d="M435.8 -48.8 Q439.85 -46.8 443.1 -43.85 446.35 -40.85 448.25 -37.15 450.15 -33.4 450.2 -29.2 450.15 -24.35 447.7 -20.1 445.2 -15.85 441.15 -12.6 437.1 -9.35 432.2 -7.55 427.35 -5.7 422.45 -5.65 418.05 -5.65 413.6 -7.15 409.15 -8.65 405.2 -11.3 401.3 -13.95 398.55 -17.5 395.8 -21.05 394.8 -25.25 390.15 -22.9 385.3 -21.65 380.4 -20.35 375.6 -20.35 369.7 -20.4 363.75 -22.2 361.05 -18.55 357.15 -15.8 353.3 -13.05 348.85 -11.5 344.35 -9.95 339.95 -9.9 335.05 -9.95 330.15 -11.75 325.2 -13.55 321.1 -16.7 316.95 -19.9 314.45 -24.1 311.9 -28.3 311.85 -33.15 311.9 -37.3 313.8 -41.0 315.65 -44.7 318.85 -47.7 322.05 -50.7 326.05 -52.8 330.05 -54.85 334.35 -55.8 334.7 -61.3 337.25 -66.2 339.8 -71.15 344.0 -75.25 348.15 -79.35 353.4 -82.35 358.6 -85.35 364.3 -87.0 370.0 -88.65 375.6 -88.65 382.35 -88.6 389.15 -86.3 395.95 -84.0 401.8 -79.8 407.6 -75.65 411.45 -70.05 L413.4 -70.15 Q417.4 -70.15 421.4 -68.7 425.35 -67.3 428.7 -64.75 432.0 -62.2 434.0 -58.8 436.05 -55.4 436.1 -51.45 L435.8 -48.8" fill="#29aad6" fill-rule="evenodd" stroke="none"/>
      <path d="M438.6 -45.4 Q441.5 -44.05 443.75 -41.45 446.05 -38.8 447.4 -35.6 448.75 -32.4 448.75 -29.25 448.7 -24.6 446.35 -20.6 443.95 -16.6 440.1 -13.55 436.2 -10.55 431.6 -8.85 427.0 -7.15 422.45 -7.1 418.95 -7.1 414.9 -8.35 410.8 -9.6 406.95 -11.9 403.05 -14.15 400.15 -17.3 397.3 -20.4 396.15 -24.15 395.0 -27.95 396.45 -32.15 396.9 -33.35 397.8 -34.25 L399.65 -35.95 Q400.5 -36.75 400.8 -37.7 398.95 -38.2 397.8 -37.3 396.7 -36.4 396.1 -34.9 L395.2 -32.1 Q393.9 -27.8 390.85 -25.6 387.75 -23.35 383.75 -22.55 L375.55 -21.8 Q370.0 -21.8 364.1 -23.55 L363.15 -23.85 362.55 -23.05 Q360.0 -19.6 356.3 -16.95 352.6 -14.35 348.35 -12.85 344.1 -11.4 339.9 -11.35 335.3 -11.4 330.65 -13.05 326.0 -14.75 322.05 -17.75 318.1 -20.75 315.7 -24.7 313.3 -28.65 313.25 -33.2 313.3 -37.4 315.6 -41.25 317.85 -45.15 321.5 -47.95 325.15 -50.8 329.35 -52.0 333.6 -53.15 337.6 -52.05 341.6 -50.95 344.6 -46.95 345.75 -45.35 346.35 -43.35 347.0 -41.4 346.8 -39.4 346.6 -37.35 345.2 -35.6 344.25 -34.55 342.65 -33.95 341.05 -33.35 339.45 -33.45 337.8 -33.55 336.9 -34.55 335.95 -35.6 336.4 -37.7 L337.3 -38.05 338.15 -38.3 Q336.9 -39.15 335.95 -38.3 335.05 -37.4 334.85 -35.8 334.6 -34.2 335.55 -32.7 336.45 -31.25 338.9 -30.8 343.2 -30.25 345.9 -32.3 348.6 -34.35 349.65 -38.4 350.5 -41.95 349.1 -45.2 347.75 -48.45 344.9 -50.4 343.05 -51.6 341.25 -52.45 339.4 -53.25 338.05 -54.25 336.7 -55.2 336.25 -56.8 335.8 -58.35 336.7 -61.05 338.45 -66.25 341.65 -70.45 344.85 -74.65 349.25 -77.95 353.15 -80.85 357.55 -82.95 362.0 -85.05 366.55 -86.15 371.15 -87.25 375.55 -87.25 382.25 -87.2 388.6 -85.05 395.0 -82.9 400.45 -79.05 L403.4 -77.0 406.65 -74.25 Q408.05 -72.7 408.15 -71.2 408.05 -69.9 407.0 -69.15 L404.6 -67.6 Q403.3 -66.85 402.45 -65.55 L400.9 -62.65 Q399.9 -60.75 399.3 -58.75 398.65 -56.75 399.15 -55.6 399.7 -54.45 402.1 -55.0 403.4 -55.35 403.6 -55.95 403.85 -56.55 403.5 -57.3 L402.85 -58.95 Q402.5 -59.85 402.6 -60.7 403.35 -64.7 406.0 -66.45 408.65 -68.15 412.3 -68.15 415.95 -68.15 419.75 -66.95 423.55 -65.75 426.7 -63.85 429.85 -62.0 431.45 -59.95 433.65 -57.05 433.65 -54.9 433.6 -52.8 431.7 -51.55 429.8 -50.3 426.45 -50.1 423.15 -49.9 420.9 -48.05 418.65 -46.25 417.85 -42.9 417.2 -40.0 418.0 -37.35 418.85 -34.65 421.3 -32.95 422.0 -32.5 423.05 -32.1 L425.2 -31.55 427.1 -31.75 Q427.9 -32.15 428.4 -33.0 428.85 -33.9 428.65 -34.5 428.4 -35.1 427.15 -34.85 426.95 -33.35 426.05 -33.1 425.2 -32.85 424.05 -33.4 422.95 -33.95 422.0 -34.85 421.05 -35.75 420.65 -36.45 419.65 -38.65 420.25 -41.1 420.85 -43.5 422.3 -45.35 424.3 -47.85 427.2 -48.15 430.05 -48.45 433.1 -47.55 436.1 -46.6 438.6 -45.4" fill="#e6faff" fill-rule="evenodd" stroke="none"/>
      <path d="M395.95 -40.55 Q398.95 -44.55 400.45 -49.5 399.55 -46.35 399.65 -43.45 399.75 -40.45 400.7 -37.75 398.85 -38.2 397.8 -37.3 396.7 -36.4 396.1 -34.9 395.5 -33.4 395.2 -32.1 393.9 -27.85 390.85 -25.6 387.75 -23.35 383.75 -22.55 L375.55 -21.8 Q370.0 -21.8 364.1 -23.6 L363.15 -23.9 362.55 -23.05 Q360.0 -19.6 356.3 -17.0 352.6 -14.35 348.35 -12.9 344.1 -11.4 339.9 -11.4 335.3 -11.4 330.65 -13.1 326.0 -14.75 322.05 -17.75 318.1 -20.75 315.7 -24.7 313.3 -28.65 313.25 -33.2 313.3 -37.45 315.6 -41.3 317.85 -45.15 321.5 -48.0 325.15 -50.8 329.35 -52.0 333.6 -53.2 337.6 -52.1 341.6 -51.0 344.6 -46.95 345.75 -45.35 346.35 -43.4 347.0 -41.4 346.8 -39.4 346.6 -37.4 345.2 -35.65 344.25 -34.55 342.65 -33.95 341.05 -33.35 339.45 -33.5 337.8 -33.6 336.9 -34.6 335.95 -35.6 336.4 -37.75 L337.3 -38.05 338.15 -38.35 335.95 -38.3 Q335.05 -37.45 334.85 -35.85 334.6 -34.2 335.55 -32.75 336.45 -31.25 338.9 -30.85 343.2 -30.25 345.9 -32.3 348.6 -34.35 349.65 -38.4 350.5 -41.95 349.1 -45.2 347.75 -48.45 344.9 -50.45 L341.25 -52.45 Q339.4 -53.3 338.05 -54.25 336.7 -55.2 336.25 -56.8 335.8 -58.4 336.7 -61.1 338.6 -66.65 342.15 -71.1 341.55 -67.2 342.15 -63.25 342.7 -59.3 344.5 -55.7 346.55 -51.65 350.3 -48.9 354.0 -46.2 358.75 -45.45 363.45 -44.75 368.5 -46.7 365.6 -43.25 365.6 -40.1 365.6 -36.95 367.65 -34.55 369.7 -32.2 372.85 -31.1 376.05 -30.0 379.5 -30.7 384.55 -31.25 388.75 -33.85 392.95 -36.45 395.95 -40.55" fill="#c5f1fc" fill-rule="evenodd" stroke="none"/>
      <path d="M439.6 -44.9 Q442.25 -43.35 444.3 -40.8 446.35 -38.25 447.55 -35.25 448.75 -32.2 448.75 -29.25 448.7 -24.6 446.35 -20.6 443.95 -16.6 440.05 -13.6 436.2 -10.55 431.6 -8.85 427.0 -7.15 422.45 -7.1 418.95 -7.15 414.9 -8.35 410.8 -9.6 406.95 -11.9 403.05 -14.15 400.15 -17.3 397.25 -20.4 396.1 -24.15 395.0 -27.95 396.4 -32.15 396.85 -33.3 397.8 -34.2 L399.55 -35.9 400.75 -37.6 Q402.2 -33.65 405.05 -30.6 407.9 -27.55 411.65 -25.6 415.35 -23.7 419.45 -23.15 423.55 -22.6 427.5 -23.7 431.65 -25.1 434.45 -28.35 437.25 -31.65 438.55 -35.95 439.9 -40.25 439.6 -44.9" fill="#c5f1fc" fill-rule="evenodd" stroke="none"/>
      <path d="M351.7 14.55 Q354.45 16.3 356.2 18.85 357.95 21.4 358.0 24.4 357.9 27.9 355.6 30.75 353.3 33.6 349.85 35.25 346.35 36.95 342.8 37.0 339.15 36.95 335.65 35.15 332.15 33.35 329.9 30.35 326.65 31.3 323.45 31.35 L318.2 30.65 Q315.55 29.95 313.05 28.65 312.3 31.7 309.95 34.1 307.6 36.5 304.45 37.9 301.25 39.25 298.05 39.3 294.5 39.25 291.05 37.55 287.65 35.8 285.35 32.95 283.1 30.05 283.0 26.55 283.1 23.1 285.25 20.3 287.45 17.55 290.8 15.9 L290.65 14.45 Q290.75 11.6 292.6 9.3 294.45 7.05 297.25 5.7 300.05 4.35 302.95 4.35 L304.0 4.4 Q306.1 1.35 309.25 -0.9 312.4 -3.15 316.1 -4.4 319.8 -5.7 323.45 -5.7 327.25 -5.7 331.1 -4.3 334.95 -2.95 338.2 -0.5 341.45 1.95 343.5 5.15 345.55 8.4 345.8 12.1 348.9 12.8 351.7 14.55" fill="#29aad6" fill-rule="evenodd" stroke="none"/>
      <path d="M353.8 18.9 Q355.55 21.3 355.6 24.05 355.5 27.2 353.4 29.75 351.3 32.3 348.15 33.8 345.0 35.35 341.8 35.35 338.5 35.3 335.3 33.65 332.1 32.05 330.05 29.3 L329.75 28.9 329.25 29.05 Q326.2 29.95 323.35 29.95 L319.1 29.55 Q317.0 29.15 315.4 28.0 313.85 26.85 313.15 24.65 L312.7 23.15 311.8 21.95 Q311.2 21.45 310.25 21.7 310.5 22.45 311.3 23.05 312.1 23.7 312.5 24.6 313.4 27.35 312.3 29.7 311.25 32.05 308.95 33.8 306.65 35.6 304.0 36.55 301.3 37.55 299.05 37.6 295.9 37.55 292.75 36.0 289.65 34.5 287.55 31.9 285.5 29.3 285.4 26.1 285.4 24.45 286.1 22.8 286.8 21.15 288.0 19.8 289.2 18.45 290.65 17.7 291.95 17.1 293.5 16.6 L296.6 16.3 Q298.05 16.45 299.1 17.75 299.85 18.7 300.15 19.95 300.5 21.25 299.95 22.4 L298.95 23.5 Q298.2 24.05 297.5 24.15 296.75 24.2 296.6 23.2 295.95 23.05 295.85 23.4 295.7 23.7 295.95 24.15 L296.6 24.8 Q297.25 25.05 298.15 24.8 L299.6 24.2 Q300.9 23.3 301.35 21.9 301.75 20.55 301.4 19.05 301.0 17.3 299.85 16.35 298.65 15.4 296.95 15.3 294.35 15.1 293.5 13.8 292.7 12.45 294.4 10.2 295.45 8.85 297.65 7.7 299.9 6.55 302.4 6.1 L306.85 6.45 Q308.8 7.25 309.35 9.8 L309.1 11.0 308.75 12.05 Q308.7 12.5 309.55 12.75 310.8 13.05 311.1 12.45 311.35 11.85 311.05 10.8 L310.2 8.8 309.4 7.3 308.3 6.2 307.05 5.45 Q306.5 5.05 306.45 4.35 306.5 3.55 307.25 2.8 308.0 2.0 308.9 1.35 L310.45 0.3 Q313.25 -1.7 316.55 -2.8 319.85 -3.95 323.35 -3.95 326.8 -3.95 330.35 -2.65 333.9 -1.4 336.95 0.85 339.25 2.55 340.9 4.75 342.55 6.95 343.45 9.6 344.05 11.45 343.5 12.35 342.9 13.25 341.7 13.8 L339.2 15.15 Q337.75 16.15 337.05 17.85 336.3 19.5 336.75 21.35 337.3 23.45 338.7 24.55 340.1 25.6 342.35 25.3 343.6 25.05 344.05 24.3 344.55 23.55 344.45 22.7 344.3 21.85 343.85 21.4 343.35 21.0 342.7 21.4 L343.6 21.7 Q343.9 23.15 343.0 23.65 L340.95 23.85 Q339.75 23.55 339.05 22.8 338.0 21.4 338.25 19.8 338.45 18.2 339.4 16.95 341.35 14.35 344.05 14.05 346.75 13.8 349.4 15.15 352.0 16.5 353.8 18.9" fill="#e6faff" fill-rule="evenodd" stroke="none"/>
      <path d="M353.4 29.8 Q351.3 32.35 348.15 33.85 345.0 35.35 341.8 35.4 338.5 35.35 335.3 33.7 332.1 32.05 330.05 29.35 L329.75 28.9 329.25 29.05 Q326.2 30.0 323.35 30.0 L319.1 29.6 Q317.0 29.2 315.4 28.0 313.85 26.85 313.15 24.65 L312.7 23.2 311.8 21.95 Q311.25 21.5 310.3 21.7 311.35 18.9 310.4 15.55 311.6 19.5 314.5 22.2 317.35 24.9 321.3 25.4 323.7 25.85 325.75 24.75 327.8 23.6 328.4 21.55 328.95 19.5 327.0 17.1 329.6 18.1 332.05 17.75 334.5 17.35 336.4 15.95 338.35 14.55 339.4 12.45 340.35 10.55 340.65 8.5 340.95 6.45 340.65 4.45 342.5 6.75 343.45 9.65 344.05 11.5 343.5 12.4 342.9 13.25 341.7 13.8 L339.2 15.15 Q337.75 16.15 337.05 17.85 336.3 19.55 336.75 21.4 337.3 23.5 338.7 24.55 340.1 25.6 342.35 25.3 343.6 25.1 344.05 24.3 344.55 23.55 344.45 22.7 344.3 21.9 343.85 21.45 343.35 21.0 342.7 21.45 L343.6 21.75 Q343.9 23.2 343.0 23.65 L340.95 23.85 Q339.75 23.6 339.05 22.8 338.0 21.45 338.25 19.85 338.45 18.25 339.4 16.95 341.35 14.35 344.05 14.1 346.75 13.8 349.4 15.15 352.0 16.55 353.8 18.95 355.55 21.3 355.6 24.1 355.5 27.25 353.4 29.8" fill="#c5f1fc" fill-rule="evenodd" stroke="none"/>
      <path d="M308.95 33.8 Q306.65 35.6 304.0 36.55 301.3 37.55 299.05 37.6 295.9 37.55 292.75 36.0 289.65 34.5 287.55 31.9 285.5 29.3 285.4 26.1 285.45 23.75 286.75 21.5 288.05 19.25 290.15 18.0 290.0 20.4 290.7 22.65 291.35 24.9 292.85 26.55 294.3 28.25 296.4 29.0 299.15 29.75 301.95 29.0 304.8 28.3 307.0 26.4 309.25 24.5 310.25 21.8 310.55 22.5 311.35 23.1 312.15 23.7 312.5 24.6 313.4 27.35 312.3 29.7 311.25 32.05 308.95 33.8" fill="#c5f1fc" fill-rule="evenodd" stroke="none"/>
      <path d="M501.05 -18.8 Q499.7 -17.1 497.6 -16.05 495.5 -15.05 493.4 -15.05 491.2 -15.05 489.1 -16.15 487.0 -17.25 485.65 -19.05 L481.8 -18.45 Q478.6 -18.45 475.55 -20.05 475.1 -18.2 473.7 -16.8 472.25 -15.35 470.35 -14.5 468.45 -13.65 466.55 -13.65 464.4 -13.7 462.35 -14.7 460.3 -15.75 458.9 -17.45 457.55 -19.2 457.5 -21.3 457.55 -23.4 458.85 -25.05 460.2 -26.7 462.2 -27.7 L462.1 -28.55 Q462.15 -30.25 463.25 -31.65 464.35 -33.0 466.05 -33.8 467.75 -34.6 469.45 -34.65 L470.1 -34.6 Q472.05 -37.35 475.2 -39.0 478.4 -40.6 481.8 -40.65 484.85 -40.6 487.85 -39.2 490.85 -37.8 492.9 -35.35 494.95 -32.95 495.2 -29.95 497.05 -29.55 498.7 -28.5 500.4 -27.45 501.45 -25.9 502.5 -24.4 502.5 -22.6 502.45 -20.5 501.05 -18.8" fill="#29aad6" fill-rule="evenodd" stroke="none"/>
      <path d="M499.75 -19.4 Q498.5 -17.9 496.6 -17.0 494.7 -16.1 492.8 -16.05 490.8 -16.1 488.9 -17.05 486.95 -18.05 485.75 -19.7 L485.55 -19.95 485.25 -19.85 481.7 -19.3 Q479.7 -19.25 478.0 -19.9 476.25 -20.55 475.6 -22.5 L475.1 -23.8 Q474.7 -24.45 473.85 -24.25 474.0 -23.8 474.5 -23.45 L475.2 -22.55 Q475.75 -20.9 475.1 -19.5 474.45 -18.05 473.1 -17.0 471.7 -15.95 470.1 -15.35 468.5 -14.75 467.15 -14.75 465.25 -14.75 463.35 -15.7 461.5 -16.6 460.25 -18.15 459.0 -19.7 458.95 -21.6 459.0 -23.1 459.85 -24.55 460.75 -25.95 462.1 -26.65 L464.75 -27.5 Q466.2 -27.75 467.2 -26.65 L467.8 -25.3 Q468.0 -24.55 467.7 -23.85 L467.05 -23.2 Q466.6 -22.85 466.2 -22.8 465.75 -22.75 465.65 -23.35 465.1 -23.45 465.2 -23.05 465.3 -22.65 465.7 -22.4 466.05 -22.25 466.6 -22.4 L467.5 -22.75 Q468.25 -23.3 468.5 -24.15 468.75 -24.95 468.55 -25.85 468.0 -27.95 465.9 -28.1 464.3 -28.2 463.8 -29.0 463.3 -29.8 464.35 -31.15 L466.3 -32.65 Q467.65 -33.35 469.15 -33.6 L471.8 -33.4 Q473.0 -32.95 473.3 -31.4 L473.15 -30.7 472.95 -30.05 Q472.95 -29.75 473.45 -29.6 474.45 -29.4 474.45 -30.05 L474.0 -31.6 473.35 -32.9 472.3 -33.8 Q471.65 -34.05 471.6 -34.65 471.65 -35.4 472.55 -36.05 L473.95 -37.1 Q475.65 -38.3 477.65 -38.95 L481.7 -39.65 Q483.75 -39.65 485.9 -38.9 488.05 -38.15 489.9 -36.75 492.65 -34.75 493.8 -31.5 494.15 -30.4 493.8 -29.85 493.45 -29.35 492.75 -29.0 L491.25 -28.2 Q490.35 -27.6 489.95 -26.6 489.5 -25.55 489.75 -24.45 490.1 -23.2 490.95 -22.55 491.75 -21.95 493.1 -22.1 494.1 -22.3 494.3 -23.0 494.5 -23.7 494.2 -24.25 493.85 -24.75 493.35 -24.45 L493.9 -24.25 Q494.05 -23.35 493.5 -23.1 L492.25 -23.0 Q491.55 -23.15 491.15 -23.6 490.5 -24.45 490.65 -25.4 490.8 -26.35 491.35 -27.1 492.5 -28.65 494.15 -28.85 495.75 -29.0 497.35 -28.2 498.9 -27.35 500.0 -25.95 501.05 -24.5 501.1 -22.85 501.05 -20.95 499.75 -19.4" fill="#e6faff" fill-rule="evenodd" stroke="none"/>
      <path d="M496.6 -16.95 Q494.7 -16.05 492.8 -16.05 490.8 -16.05 488.9 -17.05 487.0 -18.05 485.75 -19.65 L485.55 -19.9 485.25 -19.85 481.7 -19.3 Q479.75 -19.25 478.0 -19.9 476.25 -20.5 475.6 -22.5 L475.1 -23.75 Q474.75 -24.4 473.9 -24.25 474.5 -25.9 473.95 -27.95 474.7 -25.55 476.4 -23.95 478.15 -22.3 480.5 -22.05 481.95 -21.75 483.15 -22.45 484.4 -23.1 484.75 -24.35 485.1 -25.6 483.9 -27.0 486.3 -26.15 488.35 -27.0 490.4 -27.9 491.35 -29.8 492.5 -32.1 492.1 -34.6 493.2 -33.2 493.8 -31.5 494.15 -30.4 493.8 -29.85 493.45 -29.3 492.75 -29.0 L491.25 -28.2 Q490.35 -27.55 489.95 -26.55 489.5 -25.55 489.75 -24.45 490.1 -23.2 490.95 -22.55 491.75 -21.9 493.1 -22.1 494.1 -22.3 494.3 -23.0 494.5 -23.7 494.2 -24.2 493.9 -24.75 493.35 -24.4 L493.9 -24.25 Q494.05 -23.35 493.55 -23.1 L492.3 -22.95 Q491.55 -23.1 491.15 -23.6 490.5 -24.4 490.65 -25.35 490.8 -26.35 491.35 -27.1 492.5 -28.65 494.15 -28.8 495.75 -29.0 497.35 -28.15 498.95 -27.35 500.0 -25.9 501.05 -24.5 501.1 -22.8 501.05 -20.9 499.75 -19.4 498.5 -17.85 496.6 -16.95" fill="#c5f1fc" fill-rule="evenodd" stroke="none"/>
      <path d="M470.1 -15.3 Q468.5 -14.7 467.15 -14.7 465.25 -14.7 463.35 -15.65 461.5 -16.55 460.25 -18.1 459.0 -19.65 458.95 -21.6 459.0 -23.0 459.75 -24.35 460.55 -25.7 461.8 -26.45 461.65 -24.25 462.65 -22.4 463.65 -20.55 465.55 -19.85 467.2 -19.4 468.9 -19.85 470.6 -20.3 471.9 -21.4 473.25 -22.55 473.85 -24.2 L474.5 -23.4 475.2 -22.5 Q475.75 -20.85 475.1 -19.45 474.45 -18.05 473.1 -16.95 471.7 -15.9 470.1 -15.3" fill="#c5f1fc" fill-rule="evenodd" stroke="none"/>
      <path d="M726.0 -30.6 Q725.95 -27.8 724.1 -25.5 722.25 -23.2 719.45 -21.9 716.7 -20.55 713.85 -20.5 710.9 -20.55 708.1 -22.0 705.3 -23.45 703.5 -25.8 700.9 -25.05 698.35 -25.05 L694.15 -25.6 Q692.05 -26.15 690.05 -27.15 689.45 -24.7 687.55 -22.8 685.7 -20.9 683.15 -19.8 680.6 -18.7 678.05 -18.65 675.2 -18.7 672.45 -20.05 669.7 -21.45 667.9 -23.75 666.05 -26.05 666.0 -28.85 666.05 -31.6 667.8 -33.85 669.6 -36.05 672.25 -37.35 L672.15 -38.5 Q672.2 -40.8 673.7 -42.65 675.15 -44.45 677.4 -45.55 679.65 -46.6 681.95 -46.65 L682.8 -46.6 Q684.45 -49.0 687.0 -50.8 689.5 -52.65 692.5 -53.65 695.45 -54.65 698.35 -54.65 701.4 -54.65 704.45 -53.55 707.55 -52.45 710.15 -50.5 712.75 -48.55 714.4 -45.95 716.05 -43.4 716.25 -40.4 718.75 -39.85 720.95 -38.45 723.15 -37.05 724.55 -35.0 725.95 -33.0 726.0 -30.6" fill="#29aad6" fill-rule="evenodd" stroke="none"/>
      <path d="M714.4 -42.45 Q714.85 -41.0 714.4 -40.25 713.95 -39.55 713.0 -39.1 L711.0 -38.05 Q709.8 -37.2 709.25 -35.85 708.7 -34.55 709.05 -33.05 709.45 -31.35 710.6 -30.5 711.7 -29.65 713.5 -29.9 714.85 -30.15 715.1 -31.1 715.35 -32.05 714.9 -32.75 714.5 -33.45 713.8 -33.0 L714.5 -32.75 Q714.75 -31.6 714.05 -31.2 L712.35 -31.1 Q711.4 -31.3 710.85 -31.9 710.0 -33.0 710.2 -34.3 710.4 -35.55 711.15 -36.6 712.7 -38.65 714.85 -38.9 717.0 -39.1 719.15 -38.0 721.25 -36.95 722.65 -35.0 724.05 -33.1 724.1 -30.9 724.05 -28.35 722.35 -26.3 720.65 -24.3 718.15 -23.1 715.65 -21.9 713.05 -21.85 710.4 -21.9 707.85 -23.2 705.3 -24.5 703.7 -26.7 L703.45 -27.05 703.05 -26.9 698.3 -26.15 694.9 -26.5 Q693.25 -26.8 691.95 -27.75 690.7 -28.65 690.15 -30.45 L689.45 -32.15 Q689.0 -33.0 687.85 -32.75 688.05 -32.2 688.7 -31.7 L689.65 -30.45 Q690.35 -28.25 689.5 -26.4 688.6 -24.5 686.8 -23.1 684.95 -21.7 682.8 -20.9 680.7 -20.1 678.85 -20.1 676.3 -20.1 673.85 -21.35 671.35 -22.55 669.7 -24.6 668.0 -26.7 667.95 -29.25 668.0 -31.25 669.15 -33.15 670.35 -35.05 672.15 -35.95 L674.45 -36.85 676.9 -37.1 Q678.1 -36.95 678.9 -35.95 679.5 -35.2 679.75 -34.15 680.0 -33.15 679.6 -32.25 L678.8 -31.35 677.6 -30.85 Q677.05 -30.75 676.9 -31.6 676.15 -31.7 676.25 -31.15 676.4 -30.6 676.95 -30.3 677.45 -30.1 678.15 -30.3 678.9 -30.5 679.3 -30.8 680.35 -31.5 680.7 -32.6 681.05 -33.7 680.75 -34.9 680.4 -36.3 679.5 -37.05 678.55 -37.8 677.2 -37.9 675.1 -38.05 674.45 -39.1 673.75 -40.15 675.15 -42.0 676.0 -43.05 677.75 -44.0 679.55 -44.9 681.55 -45.25 L685.1 -45.0 Q686.65 -44.35 687.1 -42.3 L686.9 -41.35 686.65 -40.5 Q686.6 -40.1 687.3 -39.95 688.6 -39.65 688.6 -40.55 688.6 -41.4 688.05 -42.6 L687.15 -44.3 685.75 -45.5 Q684.9 -45.85 684.8 -46.65 684.85 -47.3 685.4 -47.9 L686.75 -49.05 687.95 -49.9 Q690.25 -51.5 692.9 -52.4 695.5 -53.3 698.3 -53.3 701.05 -53.3 703.9 -52.3 706.75 -51.25 709.2 -49.45 712.9 -46.75 714.4 -42.45" fill="#e6faff" fill-rule="evenodd" stroke="none"/>
      <path d="M722.65 -35.0 Q724.05 -33.1 724.1 -30.9 724.05 -28.35 722.35 -26.35 720.65 -24.3 718.15 -23.1 715.6 -21.9 713.05 -21.85 710.4 -21.9 707.85 -23.2 705.3 -24.5 703.65 -26.7 L703.4 -27.05 703.0 -26.9 Q700.55 -26.2 698.25 -26.2 L694.85 -26.5 Q693.2 -26.8 691.95 -27.75 690.65 -28.65 690.15 -30.45 L689.45 -32.15 Q688.95 -33.0 687.85 -32.8 688.65 -35.05 687.95 -37.75 688.9 -34.55 691.2 -32.4 693.5 -30.25 696.65 -29.85 698.6 -29.5 700.2 -30.35 701.85 -31.25 702.3 -32.9 702.8 -34.6 701.2 -36.5 704.4 -35.3 707.1 -36.5 709.8 -37.65 711.15 -40.2 711.9 -41.7 712.1 -43.35 712.35 -45.0 712.1 -46.6 713.6 -44.75 714.4 -42.45 714.85 -41.0 714.4 -40.25 713.95 -39.55 713.0 -39.1 L711.0 -38.05 Q709.8 -37.25 709.25 -35.9 708.65 -34.55 709.0 -33.05 709.45 -31.35 710.55 -30.5 711.7 -29.65 713.45 -29.9 714.8 -30.15 715.05 -31.1 715.3 -32.05 714.9 -32.75 714.5 -33.45 713.8 -33.0 L714.5 -32.75 Q714.7 -31.6 714.0 -31.2 L712.35 -31.1 Q711.4 -31.3 710.85 -31.9 710.0 -33.0 710.2 -34.3 710.35 -35.55 711.1 -36.6 712.65 -38.65 714.85 -38.9 717.0 -39.1 719.1 -38.05 721.2 -36.95 722.65 -35.0" fill="#c5f1fc" fill-rule="evenodd" stroke="none"/>
      <path d="M689.65 -30.45 Q690.35 -28.25 689.5 -26.35 688.6 -24.45 686.8 -23.05 684.95 -21.65 682.8 -20.85 680.7 -20.05 678.85 -20.05 676.3 -20.05 673.85 -21.3 671.35 -22.5 669.7 -24.6 668.0 -26.65 667.95 -29.2 668.0 -31.1 669.05 -32.9 670.1 -34.7 671.75 -35.7 671.6 -32.75 672.9 -30.3 674.2 -27.85 676.75 -26.9 678.95 -26.3 681.2 -26.9 683.45 -27.45 685.25 -29.0 687.05 -30.5 687.85 -32.7 688.1 -32.15 688.7 -31.65 L689.65 -30.45" fill="#c5f1fc" fill-rule="evenodd" stroke="none"/>
      <path d="M786.0 4.15 Q783.3 6.2 780.1 7.4 776.9 8.55 773.75 8.55 770.85 8.55 767.95 7.55 765.05 6.55 762.55 4.75 760.0 2.95 758.25 0.6 754.4 1.75 750.55 1.8 L744.25 0.95 Q741.05 0.1 738.05 -1.4 737.15 2.25 734.35 5.1 731.55 8.0 727.7 9.65 723.9 11.3 720.05 11.35 716.9 11.35 713.7 10.15 710.55 8.95 707.9 6.8 705.25 4.7 703.65 1.95 702.05 -0.85 702.0 -4.0 702.05 -6.75 703.25 -9.15 704.5 -11.55 706.6 -13.5 708.75 -15.45 711.35 -16.75 711.2 -17.55 711.2 -18.45 711.3 -21.9 713.5 -24.65 715.75 -27.35 719.1 -29.0 722.45 -30.6 725.95 -30.6 L727.2 -30.55 Q729.7 -34.2 733.5 -36.9 737.3 -39.6 741.7 -41.1 746.15 -42.65 750.55 -42.65 755.1 -42.6 759.7 -41.0 764.3 -39.35 768.2 -36.4 772.15 -33.5 774.6 -29.6 777.05 -25.75 777.4 -21.25 781.15 -20.45 784.45 -18.35 787.75 -16.25 789.85 -13.2 791.95 -10.15 792.0 -6.55 791.95 -3.4 790.35 -0.65 788.7 2.05 786.0 4.15" fill="#29aad6" fill-rule="evenodd" stroke="none"/>
      <path d="M787.6 -1.7 Q786.1 0.75 783.65 2.6 781.25 4.45 778.35 5.5 775.45 6.55 772.55 6.55 769.95 6.55 767.3 5.65 764.65 4.7 762.4 3.1 760.1 1.45 758.5 -0.7 L758.1 -1.2 757.5 -1.0 Q753.85 0.1 750.4 0.1 L745.3 -0.35 Q742.8 -0.85 740.9 -2.25 739.0 -3.65 738.2 -6.3 L737.65 -8.05 736.55 -9.55 734.7 -9.8 Q734.9 -9.2 735.45 -8.7 L736.55 -7.65 737.45 -6.35 Q738.5 -3.05 737.2 -0.25 735.9 2.6 733.15 4.7 730.4 6.85 727.2 8.0 724.0 9.2 721.25 9.25 718.45 9.2 715.6 8.15 712.7 7.1 710.3 5.2 707.9 3.3 706.4 0.85 704.95 -1.65 704.9 -4.55 704.9 -6.5 705.75 -8.5 706.6 -10.5 708.0 -12.1 709.45 -13.75 711.25 -14.6 712.8 -15.35 714.65 -15.9 L718.3 -16.3 Q720.1 -16.1 721.35 -14.55 722.25 -13.4 722.65 -11.9 723.0 -10.4 722.35 -9.0 722.05 -8.4 721.15 -7.7 720.25 -7.0 719.4 -6.9 718.55 -6.8 718.35 -8.05 717.55 -8.2 717.4 -7.8 717.3 -7.4 717.55 -6.9 717.85 -6.35 718.35 -6.1 719.15 -5.8 720.2 -6.1 721.3 -6.4 721.95 -6.85 723.5 -7.9 724.0 -9.55 724.55 -11.25 724.1 -13.0 723.6 -15.1 722.2 -16.25 720.8 -17.35 718.75 -17.5 715.6 -17.7 714.65 -19.3 713.65 -20.9 715.65 -23.65 716.95 -25.25 719.6 -26.65 722.25 -28.0 725.3 -28.55 L730.65 -28.15 Q733.0 -27.2 733.6 -24.1 733.65 -23.35 733.3 -22.65 L732.9 -21.4 Q732.85 -20.85 733.9 -20.55 735.4 -20.2 735.75 -20.9 736.05 -21.65 735.65 -22.9 L734.65 -25.3 733.7 -27.1 732.35 -28.4 730.85 -29.35 Q730.2 -29.8 730.15 -30.6 730.2 -31.55 731.1 -32.5 L733.1 -34.25 734.95 -35.5 Q738.35 -37.9 742.3 -39.25 746.25 -40.6 750.4 -40.6 754.55 -40.6 758.8 -39.05 763.1 -37.55 766.75 -34.8 769.5 -32.8 771.5 -30.15 773.5 -27.55 774.6 -24.3 775.3 -22.1 774.6 -21.05 773.9 -19.95 772.45 -19.3 L769.5 -17.7 Q767.7 -16.5 766.85 -14.45 766.0 -12.45 766.5 -10.25 767.15 -7.7 768.85 -6.45 770.5 -5.15 773.2 -5.5 774.7 -5.75 775.3 -6.7 775.85 -7.6 775.75 -8.6 775.6 -9.6 775.05 -10.15 L773.7 -10.2 774.2 -10.0 774.75 -9.8 Q775.1 -8.05 774.0 -7.5 L771.55 -7.25 Q770.1 -7.6 769.3 -8.5 768.0 -10.15 768.3 -12.1 768.55 -14.0 769.65 -15.55 772.0 -18.65 775.25 -19.0 778.5 -19.35 781.65 -17.7 784.85 -16.05 786.95 -13.15 789.05 -10.3 789.15 -7.0 789.1 -4.15 787.6 -1.7" fill="#e6faff" fill-rule="evenodd" stroke="none"/>
      <path d="M778.3 5.5 Q775.4 6.55 772.55 6.55 769.95 6.55 767.3 5.65 764.65 4.7 762.35 3.1 760.05 1.45 758.45 -0.7 L758.1 -1.2 757.5 -1.0 Q753.8 0.1 750.4 0.1 L745.3 -0.35 Q742.8 -0.85 740.9 -2.25 739.0 -3.65 738.2 -6.3 L737.6 -8.05 Q737.25 -8.95 736.55 -9.55 735.9 -10.1 734.75 -9.85 736.0 -13.15 734.9 -17.15 735.85 -14.05 737.7 -11.55 739.6 -9.0 742.2 -7.4 744.8 -5.75 747.9 -5.45 L752.05 -5.7 Q754.05 -6.35 755.3 -7.85 756.6 -9.3 756.6 -11.3 756.6 -13.25 754.75 -15.4 757.9 -14.2 760.85 -14.6 763.8 -15.05 766.1 -16.75 768.4 -18.45 769.7 -20.95 770.8 -23.2 771.15 -25.65 771.5 -28.1 771.15 -30.55 773.35 -27.8 774.55 -24.3 775.25 -22.1 774.55 -21.05 773.9 -19.95 772.45 -19.3 771.0 -18.65 769.45 -17.7 767.7 -16.5 766.8 -14.45 765.95 -12.45 766.5 -10.25 767.15 -7.7 768.8 -6.45 770.5 -5.15 773.2 -5.5 774.7 -5.75 775.25 -6.7 775.85 -7.6 775.7 -8.6 775.55 -9.65 775.0 -10.15 L773.65 -10.2 774.2 -10.0 774.7 -9.8 Q775.05 -8.05 774.0 -7.5 L771.5 -7.25 Q770.05 -7.6 769.25 -8.5 768.0 -10.15 768.25 -12.1 768.55 -14.0 769.65 -15.55 772.0 -18.65 775.25 -19.0 778.45 -19.35 781.65 -17.7 784.8 -16.05 786.9 -13.15 789.05 -10.3 789.1 -7.0 789.05 -4.15 787.55 -1.7 786.1 0.75 783.65 2.6 781.2 4.45 778.3 5.5" fill="#c5f1fc" fill-rule="evenodd" stroke="none"/>
      <path d="M727.2 8.05 Q724.0 9.2 721.25 9.25 718.45 9.25 715.6 8.15 712.7 7.1 710.3 5.2 707.9 3.35 706.4 0.85 704.95 -1.65 704.9 -4.5 704.95 -7.35 706.55 -10.05 708.1 -12.75 710.6 -14.25 710.4 -11.35 711.25 -8.7 712.05 -6.0 713.8 -4.0 715.55 -1.95 718.1 -1.05 721.4 -0.15 724.8 -1.05 728.15 -1.9 730.85 -4.15 733.5 -6.45 734.75 -9.7 735.1 -8.9 736.05 -8.15 736.95 -7.4 737.45 -6.35 738.5 -3.05 737.2 -0.25 735.9 2.6 733.15 4.7 730.4 6.85 727.2 8.05" fill="#c5f1fc" fill-rule="evenodd" stroke="none"/>
    </g>
  </defs>
</svg>
