<?xml version="1.0" encoding="UTF-8" standalone="no"?>
<svg xmlns:xlink="http://www.w3.org/1999/xlink" height="10.35px" width="22.35px" xmlns="http://www.w3.org/2000/svg">
  <g transform="matrix(1, 0, 0, 1, -0.15, -1.75)">
    <g transform="matrix(1.0, 0.0, 0.0, 1.0, 0.05, 0.0)">
      <use fill="#000000" height="10.35" transform="matrix(0.0098, 0.0, 0.0, 0.0098, 0.0, 11.0)" width="22.35" xlink:href="#font_Arial_Black_v0"/>
      <use fill="#000000" height="10.35" transform="matrix(0.0098, 0.0, 0.0, 0.0098, 6.1, 11.0)" width="22.35" xlink:href="#font_Arial_Black_20"/>
      <use fill="#000000" height="10.35" transform="matrix(0.0098, 0.0, 0.0, 0.0098, 12.75, 11.0)" width="22.35" xlink:href="#font_Arial_Black_.0"/>
      <use fill="#000000" height="10.35" transform="matrix(0.0098, 0.0, 0.0, 0.0098, 16.1, 11.0)" width="22.35" xlink:href="#font_Arial_Black_00"/>
    </g>
  </g>
  <defs>
    <g id="font_Arial_Black_v0">
      <path d="M224.5 0.0 L224.5 0.0 405.0 0.0 632.0 -532.0 426.5 -532.0 318.0 -195.0 215.5 -532.0 4.0 -532.0 224.5 0.0" fill-rule="evenodd" stroke="none"/>
    </g>
    <g id="font_Arial_Black_20">
      <path d="M640.0 -168.0 L640.0 -168.0 322.0 -168.0 Q350.0 -195.0 371.0 -212.0 391.5 -229.0 453.5 -271.0 557.0 -343.5 596.5 -404.0 636.0 -465.0 636.0 -531.5 636.0 -594.0 601.5 -644.5 567.5 -695.0 507.5 -719.5 447.5 -744.0 340.0 -744.0 237.0 -744.0 178.5 -718.0 120.0 -692.0 88.0 -643.5 56.0 -595.0 44.0 -508.5 L248.0 -492.0 Q256.5 -554.5 281.5 -579.5 306.0 -604.0 345.0 -604.0 382.5 -604.0 407.5 -580.5 432.0 -557.0 432.0 -523.5 432.0 -493.0 407.0 -459.0 382.0 -424.5 292.5 -358.5 145.5 -251.0 92.0 -171.0 38.5 -91.0 28.0 0.0 L640.0 0.0 640.0 -168.0" fill-rule="evenodd" stroke="none"/>
    </g>
    <g id="font_Arial_Black_.0">
      <path d="M64.0 0.0 L64.0 0.0 280.0 0.0 280.0 -204.0 64.0 -204.0 64.0 0.0" fill-rule="evenodd" stroke="none"/>
    </g>
    <g id="font_Arial_Black_00">
      <path d="M248.0 -368.5 L248.0 -368.5 Q248.0 -506.0 270.0 -557.0 292.5 -608.0 342.5 -608.0 391.0 -608.0 415.5 -558.0 440.0 -508.0 440.0 -363.5 440.0 -264.5 429.5 -218.0 419.0 -171.0 396.5 -149.5 374.0 -128.0 343.5 -128.0 297.0 -128.0 272.5 -179.0 248.0 -229.5 248.0 -368.5 M44.0 -369.0 L44.0 -369.0 Q44.0 -284.0 59.0 -214.0 73.5 -144.0 100.0 -103.5 136.5 -47.0 194.0 -17.5 251.0 12.0 343.5 12.0 509.0 12.0 576.5 -80.0 644.0 -172.5 644.0 -371.5 644.0 -460.0 623.5 -542.0 613.0 -585.0 595.5 -617.0 578.5 -649.0 548.5 -678.5 518.5 -707.5 470.5 -726.0 423.0 -744.0 349.0 -744.0 195.0 -744.0 119.5 -660.5 44.0 -577.5 44.0 -369.0" fill-rule="evenodd" stroke="none"/>
    </g>
  </defs>
</svg>
